%FSTAX23Y23*%
%MOIN*%
%SFA1B1*%

%IPPOS*%
%AMD79*
4,1,8,-0.012800,-0.025600,0.012800,-0.025600,0.025600,-0.012800,0.025600,0.012800,0.012800,0.025600,-0.012800,0.025600,-0.025600,0.012800,-0.025600,-0.012800,-0.012800,-0.025600,0.0*
%
%ADD10C,0.012000*%
%ADD50C,0.010000*%
%ADD51C,0.006000*%
%ADD55C,0.006890*%
%ADD56C,0.008000*%
%ADD68R,0.050000X0.005000*%
%ADD72R,0.059055X0.059055*%
%ADD73C,0.059055*%
%ADD74C,0.196850*%
%ADD75R,0.078740X0.078740*%
%ADD76C,0.037401*%
%ADD77C,0.061024*%
%ADD78C,0.060000*%
G04~CAMADD=79~4~0.0~0.0~511.8~511.8~0.0~128.0~0~0.0~0.0~0.0~0.0~0~0.0~0.0~0.0~0.0~0~0.0~0.0~0.0~180.0~512.0~512.0*
%ADD79D79*%
%ADD80C,0.051181*%
%ADD81C,0.039370*%
%ADD82C,0.106299*%
%ADD83C,0.125984*%
%ADD84R,0.160000X0.065000*%
%ADD85R,0.065000X0.160000*%
%ADD86R,0.060000X0.060000*%
%ADD87C,0.015000*%
%ADD88C,0.016000*%
%ADD89C,0.020000*%
%ADD90C,0.019685*%
%ADD91C,0.025000*%
%ADD105R,0.050000X0.304999*%
%LNatfc_copper_signal_1-1*%
%LPD*%
G36*
X03692Y03004D02*
X03692Y03003D01*
X03693Y03003*
X03693Y03003*
X03694Y03002*
X03695Y03002*
X03695Y03002*
X03696Y03002*
X03697Y03002*
X03697Y03002*
Y02996*
X03697Y02996*
X03696Y02996*
X03695Y02995*
X03695Y02995*
X03694Y02995*
X03693Y02995*
X03693Y02994*
X03692Y02994*
X03692Y02994*
X03691Y02993*
Y03004*
X03692Y03004*
G37*
G36*
X03642Y03003D02*
X03642Y03002D01*
X03642Y03001*
X03642Y03001*
X03642Y03*
X03643Y02999*
X03643Y02999*
X03643Y02998*
X03644Y02998*
X03644Y02997*
X03633*
X03633Y02998*
X03634Y02998*
X03634Y02999*
X03635Y02999*
X03635Y03*
X03635Y03001*
X03635Y03001*
X03635Y03002*
X03636Y03003*
X03636Y03004*
X03642*
X03642Y03003*
G37*
G36*
X03606Y02991D02*
X03606Y02991D01*
X03605Y02991*
X03604Y0299*
X03604Y0299*
X03603Y0299*
X03602Y0299*
X03602Y02989*
X03601Y02989*
X03601Y02988*
X036Y02988*
X03596Y02992*
X03596Y02993*
X03597Y02993*
X03597Y02994*
X03598Y02995*
X03598Y02995*
X03598Y02996*
X03598Y02996*
X03598Y02997*
X03599Y02998*
X03599Y02999*
X03606Y02991*
G37*
G36*
X0369Y02954D02*
X03683Y02948D01*
X03682Y02958*
X03682Y02958*
X03683Y02958*
X03683Y02958*
X03684Y02958*
X03684Y02958*
X03685Y02958*
X03685Y02958*
X03686Y02958*
X03686Y02959*
X03687Y02959*
X0369Y02954*
G37*
G36*
X03642Y02963D02*
X03642Y02963D01*
X03642Y02962*
X03642Y02961*
X03642Y02961*
X03643Y0296*
X03643Y02959*
X03643Y02959*
X03644Y02958*
X03644Y02958*
X03633*
X03633Y02958*
X03634Y02959*
X03634Y02959*
X03635Y0296*
X03635Y02961*
X03635Y02961*
X03635Y02962*
X03635Y02963*
X03636Y02963*
X03636Y02964*
X03642*
X03642Y02963*
G37*
G36*
X03696Y03045D02*
X03696Y03044D01*
X03695Y03043*
X03695Y03043*
X03694Y03042*
X03694Y03042*
X03694Y03041*
X03694Y0304*
X03693Y0304*
X03693Y03039*
X03693Y03038*
X03685Y03046*
X03686Y03046*
X03687Y03046*
X03687Y03046*
X03688Y03046*
X03689Y03047*
X03689Y03047*
X0369Y03047*
X03691Y03048*
X03691Y03048*
X03692Y03049*
X03696Y03045*
G37*
G36*
X06416Y03057D02*
X06417Y03056D01*
X06418Y03055*
X06418Y03055*
X06419Y03055*
X06419Y03055*
X0642Y03055*
X0642Y03055*
X06421Y03055*
X06414Y03048*
X06414Y03048*
X06414Y03049*
X06414Y03049*
X06414Y0305*
X06414Y0305*
X06413Y03051*
X06413Y03051*
X06412Y03052*
X06412Y03052*
X06411Y03053*
X06416Y03057*
X06416Y03057*
G37*
G36*
X03561Y03032D02*
X03561Y03033D01*
X0356Y03033*
X0356Y03034*
X03559Y03034*
X03559Y03034*
X03558Y03035*
X03557Y03035*
X03556Y03035*
X03556Y03035*
X03555Y03035*
Y03041*
X03556Y03041*
X03556Y03041*
X03557Y03041*
X03558Y03041*
X03559Y03042*
X03559Y03042*
X0356Y03042*
X0356Y03043*
X03561Y03043*
X03561Y03044*
Y03032*
G37*
G36*
X03528Y0303D02*
X03527Y0303D01*
X03526Y0303*
X03526Y0303*
X03525Y0303*
X03524Y03029*
X03524Y03029*
X03523Y03029*
X03522Y03028*
X03522Y03028*
X03521Y03027*
X03517Y03032*
X03518Y03032*
X03518Y03033*
X03518Y03033*
X03519Y03034*
X03519Y03035*
X03519Y03035*
X0352Y03036*
X0352Y03037*
X0352Y03037*
X0352Y03038*
X03528Y0303*
G37*
G36*
X03606D02*
X03606Y0303D01*
X03605Y0303*
X03604Y0303*
X03604Y0303*
X03603Y03029*
X03602Y03029*
X03602Y03029*
X03601Y03028*
X03601Y03028*
X036Y03027*
X03596Y03032*
X03596Y03032*
X03597Y03033*
X03597Y03033*
X03598Y03034*
X03598Y03035*
X03598Y03035*
X03598Y03036*
X03598Y03037*
X03599Y03037*
X03599Y03038*
X03606Y0303*
G37*
G36*
X03524Y02911D02*
X03524Y0291D01*
X03523Y02909*
X03523Y02909*
X03523Y02908*
X03523Y02908*
X03522Y02907*
X03522Y02906*
X03522Y02905*
X03522Y02905*
X03516*
X03516Y02905*
X03516Y02906*
X03516Y02907*
X03516Y02908*
X03516Y02908*
X03515Y02909*
X03515Y02909*
X03515Y0291*
X03514Y02911*
X03514Y02911*
X03525*
X03524Y02911*
G37*
G36*
X03842Y02916D02*
X03842Y02915D01*
X03842Y02915*
X03843Y02914*
X03843Y02913*
X03843Y02913*
X03843Y02912*
X03844Y02911*
X03844Y02911*
X03845Y0291*
X03841Y02906*
X0384Y02907*
X0384Y02907*
X03839Y02907*
X03838Y02908*
X03838Y02908*
X03837Y02908*
X03836Y02909*
X03836Y02909*
X03835Y02909*
X03834Y02909*
X03842Y02917*
X03842Y02916*
G37*
G36*
X03758Y02904D02*
X03758Y02904D01*
X03758Y02904*
X03758Y02904*
X03758Y02903*
X03758Y02903*
X03758Y02902*
X03758Y02901*
X03758Y029*
X03752*
X03751Y02901*
X03751Y02903*
X03751Y02903*
X03751Y02904*
X03751Y02904*
X03751Y02904*
X03751Y02904*
X0375Y02905*
X03759*
X03758Y02904*
G37*
G36*
X03757Y02883D02*
X03746Y02882D01*
X03747Y02882*
X03747Y02883*
X03747Y02883*
X03747Y02883*
X03747Y02884*
X03747Y02885*
X03746Y02885*
X03746Y02886*
X03746Y02886*
X03745Y02887*
X0375Y0289*
X03757Y02883*
G37*
G36*
X06416Y02907D02*
X06417Y02906D01*
X06418Y02905*
X06418Y02905*
X06419Y02905*
X06419Y02905*
X0642Y02905*
X0642Y02905*
X06421Y02905*
X06414Y02898*
X06414Y02898*
X06414Y02899*
X06414Y02899*
X06414Y029*
X06414Y029*
X06413Y02901*
X06413Y02901*
X06412Y02902*
X06412Y02902*
X06411Y02903*
X06416Y02907*
X06416Y02907*
G37*
G36*
X0372Y02953D02*
X03719Y02953D01*
X03719Y02951*
X03719Y02949*
X03719Y02944*
X03713Y02943*
X03713Y02944*
X03713Y02945*
X03713Y02946*
X03713Y02946*
X03712Y02947*
X03712Y02947*
X03712Y02948*
X03711Y02948*
X03711Y02948*
X0371Y02948*
X0372Y02954*
X0372Y02953*
G37*
G36*
X03555Y02948D02*
X03554Y02948D01*
X03553Y02948*
X03552Y02948*
X03552Y02948*
X03551Y02948*
X0355Y02947*
X0355Y02947*
X03549Y02946*
X03549Y02946*
X03548Y02945*
X03544Y0295*
X03544Y0295*
X03545Y02951*
X03545Y02951*
X03546Y02952*
X03546Y02953*
X03546Y02953*
X03546Y02954*
X03547Y02955*
X03547Y02955*
X03547Y02956*
X03555Y02948*
G37*
G36*
X06421Y02919D02*
X0642Y02919D01*
X0642Y02919*
X06419Y02919*
X06419Y02919*
X06418Y02918*
X06418Y02918*
X06417Y02918*
X06417Y02917*
X06416Y02917*
X06416Y02916*
X06411Y0292*
X06412Y02921*
X06413Y02922*
X06413Y02923*
X06414Y02923*
X06414Y02924*
X06414Y02924*
X06414Y02925*
X06414Y02925*
X06414Y02925*
X06421Y02919*
G37*
G36*
X03637Y02913D02*
X03636Y02913D01*
X03636Y02913*
X03635Y02913*
X03634Y02912*
X03634Y02912*
X03633Y02912*
X03633Y02911*
X03632Y02911*
X03631Y02911*
X03631Y0291*
X03627Y02914*
X03627Y02915*
X03628Y02915*
X03628Y02916*
X03628Y02917*
X03629Y02917*
X03629Y02918*
X03629Y02919*
X03629Y02919*
X03629Y0292*
X03629Y02921*
X03637Y02913*
G37*
G36*
X03797Y02922D02*
X03798Y02921D01*
X03798Y02921*
X03799Y02921*
X03799Y0292*
X038Y0292*
X03801Y0292*
X03802Y0292*
X03802Y0292*
X03803Y0292*
Y02914*
X03802Y02914*
X03802Y02914*
X03801Y02914*
X038Y02913*
X03799Y02913*
X03799Y02913*
X03798Y02913*
X03798Y02912*
X03797Y02912*
X03797Y02911*
Y02922*
X03797Y02922*
G37*
G36*
X06421Y03069D02*
X0642Y03069D01*
X0642Y03069*
X06419Y03069*
X06419Y03069*
X06418Y03068*
X06418Y03068*
X06417Y03068*
X06417Y03067*
X06416Y03067*
X06416Y03066*
X06411Y0307*
X06412Y03071*
X06413Y03072*
X06413Y03073*
X06414Y03073*
X06414Y03074*
X06414Y03074*
X06414Y03075*
X06414Y03075*
X06414Y03075*
X06421Y03069*
G37*
G36*
X03517Y03246D02*
X03518Y03245D01*
X03518Y03245*
X03519Y03245*
X0352Y03244*
X0352Y03244*
X03521Y03244*
X03522Y03244*
X03522Y03244*
X03523Y03244*
X03515Y03236*
X03515Y03237*
X03515Y03237*
X03515Y03238*
X03515Y03239*
X03514Y03239*
X03514Y0324*
X03514Y0324*
X03513Y03241*
X03513Y03242*
X03512Y03242*
X03517Y03246*
X03517Y03246*
G37*
G36*
X06516Y03257D02*
X06517Y03256D01*
X06518Y03255*
X06518Y03255*
X06519Y03255*
X06519Y03255*
X0652Y03255*
X0652Y03255*
X06521Y03255*
X06514Y03248*
X06514Y03248*
X06514Y03249*
X06514Y03249*
X06514Y0325*
X06514Y0325*
X06513Y03251*
X06513Y03251*
X06512Y03252*
X06512Y03252*
X06511Y03253*
X06516Y03257*
X06516Y03257*
G37*
G36*
X0396Y03232D02*
X03959Y03231D01*
X03958Y0323*
X03958Y0323*
X03957Y03229*
X03957Y03229*
X03957Y03228*
X03957Y03228*
X03957Y03227*
X03956Y03227*
X03949Y03234*
X03949Y03235*
X0395Y03235*
X0395Y03235*
X03951Y03235*
X03951Y03235*
X03952Y03236*
X03952Y03236*
X03953Y03236*
X03954Y03238*
X0396Y03232*
G37*
G36*
X03613Y03226D02*
X03613Y03226D01*
X03614Y03225*
X03615Y03225*
X03615Y03225*
X03616Y03224*
X03617Y03224*
X03617Y03224*
X03618Y03224*
X03619Y03224*
Y03218*
X03618Y03218*
X03617Y03218*
X03617Y03218*
X03616Y03217*
X03615Y03217*
X03615Y03217*
X03614Y03217*
X03613Y03216*
X03613Y03216*
X03612Y03215*
Y03226*
X03613Y03226*
G37*
G36*
X06421Y03219D02*
X0642Y03219D01*
X0642Y03219*
X06419Y03219*
X06419Y03219*
X06418Y03218*
X06418Y03218*
X06417Y03218*
X06417Y03217*
X06416Y03217*
X06416Y03216*
X06411Y0322*
X06412Y03221*
X06413Y03222*
X06413Y03223*
X06414Y03223*
X06414Y03224*
X06414Y03224*
X06414Y03225*
X06414Y03225*
X06414Y03225*
X06421Y03219*
G37*
G36*
X06521Y03269D02*
X0652Y03269D01*
X0652Y03269*
X06519Y03269*
X06519Y03269*
X06518Y03268*
X06518Y03268*
X06517Y03268*
X06517Y03267*
X06516Y03267*
X06516Y03266*
X06511Y0327*
X06512Y03271*
X06513Y03272*
X06513Y03273*
X06514Y03273*
X06514Y03274*
X06514Y03274*
X06514Y03275*
X06514Y03275*
X06514Y03275*
X06521Y03269*
G37*
G36*
X03613Y03295D02*
X03613Y03295D01*
X03613Y03294*
X03613Y03294*
X03613Y03293*
X03613Y03292*
X03614Y03292*
X03614Y03291*
X03615Y03291*
X03615Y0329*
X03608Y03288*
X03608Y03289*
X03606Y03291*
X03605Y03291*
X03604Y03292*
X03604Y03292*
X03603Y03292*
X03614Y03296*
X03613Y03295*
G37*
G36*
X03523Y03267D02*
X03522Y03267D01*
X03522Y03267*
X03521Y03267*
X0352Y03267*
X0352Y03266*
X03519Y03266*
X03518Y03266*
X03518Y03265*
X03517Y03265*
X03517Y03264*
X03512Y03269*
X03513Y03269*
X03513Y0327*
X03514Y0327*
X03514Y03271*
X03514Y03272*
X03515Y03272*
X03515Y03273*
X03515Y03274*
X03515Y03274*
X03515Y03275*
X03523Y03267*
G37*
G36*
X03572Y03254D02*
X03572Y03253D01*
X03571Y03253*
X03571Y03252*
X03571Y03252*
X03571Y03251*
X0357Y0325*
X0357Y0325*
X0357Y03249*
X0357Y03248*
X03564*
X03564Y03249*
X03564Y0325*
X03564Y0325*
X03564Y03251*
X03564Y03252*
X03563Y03252*
X03563Y03253*
X03563Y03253*
X03562Y03254*
X03562Y03255*
X03573*
X03572Y03254*
G37*
G36*
X03617Y03267D02*
X03617Y03266D01*
X03616Y03266*
X03616Y03265*
X03616Y03264*
X03615Y03264*
X03615Y03263*
X03615Y03262*
X03615Y03262*
X03615Y03261*
X03615Y0326*
X03607Y03268*
X03607Y03268*
X03608Y03268*
X03609Y03268*
X03609Y03269*
X0361Y03269*
X03611Y03269*
X03611Y0327*
X03612Y0327*
X03612Y0327*
X03613Y03271*
X03617Y03267*
G37*
G36*
X03525Y03146D02*
X03524Y03147D01*
X03523Y03147*
X03523Y03147*
X03522Y03148*
X03521Y03148*
X03521Y03148*
X0352Y03148*
X03519Y03148*
X03519Y03148*
X03518Y03149*
X03517Y03155*
X03518Y03155*
X03518Y03155*
X03519Y03155*
X0352Y03155*
X03521Y03155*
X03521Y03156*
X03522Y03156*
X03522Y03156*
X03523Y03157*
X03523Y03157*
X03525Y03146*
G37*
G36*
X03562Y03151D02*
X03561Y03151D01*
X03561Y03152*
X0356Y03152*
X0356Y03153*
X03559Y03153*
X03558Y03153*
X03558Y03153*
X03557Y03153*
X03556Y03153*
X03555Y03154*
Y0316*
X03556Y0316*
X03557Y0316*
X03558Y0316*
X03558Y0316*
X03559Y0316*
X0356Y0316*
X0356Y03161*
X03561Y03161*
X03561Y03162*
X03562Y03162*
Y03151*
G37*
G36*
X06521Y03119D02*
X0652Y03119D01*
X0652Y03119*
X06519Y03119*
X06519Y03119*
X06518Y03118*
X06518Y03118*
X06517Y03118*
X06517Y03117*
X06516Y03117*
X06516Y03116*
X06511Y0312*
X06512Y03121*
X06513Y03122*
X06513Y03123*
X06514Y03123*
X06514Y03124*
X06514Y03124*
X06514Y03125*
X06514Y03125*
X06514Y03125*
X06521Y03119*
G37*
G36*
X06516Y03107D02*
X06517Y03106D01*
X06518Y03105*
X06518Y03105*
X06519Y03105*
X06519Y03105*
X0652Y03105*
X0652Y03105*
X06521Y03105*
X06514Y03098*
X06514Y03098*
X06514Y03099*
X06514Y03099*
X06514Y031*
X06514Y031*
X06513Y03101*
X06513Y03101*
X06512Y03102*
X06512Y03102*
X06511Y03103*
X06516Y03107*
X06516Y03107*
G37*
G36*
X03627Y03126D02*
X03628Y03125D01*
X03628Y03125*
X03629Y03124*
X0363Y03124*
X0363Y03124*
X03631Y03124*
X03632Y03124*
X03632Y03123*
X03633Y03123*
X03625Y03116*
X03625Y03116*
X03625Y03117*
X03625Y03118*
X03625Y03118*
X03625Y03119*
X03624Y0312*
X03624Y0312*
X03623Y03121*
X03623Y03121*
X03622Y03122*
X03627Y03126*
X03627Y03126*
G37*
G36*
X03654Y0322D02*
X03654Y03219D01*
X03654Y03219*
X03654Y03218*
X03655Y03217*
X03655Y03217*
X03655Y03216*
X03656Y03215*
X03656Y03215*
X03657Y03214*
X03652Y0321*
X03652Y03211*
X03651Y03211*
X0365Y03211*
X0365Y03212*
X03649Y03212*
X03649Y03212*
X03648Y03213*
X03647Y03213*
X03647Y03213*
X03646Y03213*
X03654Y03221*
X03654Y0322*
G37*
G36*
X03567Y03213D02*
X03566Y03213D01*
X03566Y03213*
X03565Y03213*
X03564Y03212*
X03564Y03212*
X03563Y03212*
X03562Y03212*
X03562Y03211*
X03561Y03211*
X03561Y0321*
X03556Y03214*
X03557Y03215*
X03557Y03216*
X03558Y03216*
X03558Y03217*
X03558Y03217*
X03559Y03218*
X03559Y03219*
X03559Y03219*
X03559Y0322*
X03559Y03221*
X03567Y03213*
G37*
G36*
X06416Y03207D02*
X06417Y03206D01*
X06418Y03205*
X06418Y03205*
X06419Y03205*
X06419Y03205*
X0642Y03205*
X0642Y03205*
X06421Y03205*
X06414Y03198*
X06414Y03198*
X06414Y03199*
X06414Y03199*
X06414Y032*
X06414Y032*
X06413Y03201*
X06413Y03201*
X06412Y03202*
X06412Y03202*
X06411Y03203*
X06416Y03207*
X06416Y03207*
G37*
G36*
X04598Y03192D02*
X04598Y03191D01*
X04598Y0319*
X04598Y0319*
X04599Y03189*
X04599Y03188*
X04599Y03188*
X046Y03187*
X046Y03186*
X04601Y03186*
X04597Y03182*
X04596Y03182*
X04595Y03183*
X04595Y03183*
X04594Y03183*
X04594Y03184*
X04593Y03184*
X04592Y03184*
X04592Y03184*
X04591Y03184*
X0459Y03184*
X04598Y03192*
X04598Y03192*
G37*
G36*
X04621Y03184D02*
X04621Y03184D01*
X0462Y03184*
X04619Y03184*
X04619Y03184*
X04618Y03184*
X04617Y03183*
X04617Y03183*
X04616Y03183*
X04616Y03182*
X04615Y03182*
X04611Y03186*
X04611Y03186*
X04612Y03187*
X04612Y03188*
X04613Y03188*
X04613Y03189*
X04613Y0319*
X04613Y0319*
X04613Y03191*
X04614Y03192*
X04614Y03192*
X04621Y03184*
G37*
G36*
X06382Y02064D02*
X06382Y02063D01*
X06382Y02062*
X06382Y02062*
X06382Y02061*
X06382Y0206*
X06383Y0206*
X06383Y02059*
X06384Y02059*
X06384Y02058*
X0638Y02054*
X06379Y02054*
X06379Y02055*
X06378Y02055*
X06378Y02055*
X06377Y02056*
X06376Y02056*
X06376Y02056*
X06375Y02056*
X06374Y02056*
X06374Y02056*
X06382Y02064*
X06382Y02064*
G37*
G36*
X06404Y02057D02*
X06403Y02057D01*
X06403Y02057*
X06402Y02056*
X06402Y02056*
X06401Y02056*
X06401Y02056*
X064Y02055*
X064Y02055*
X06399Y02054*
X06399Y02054*
X06394Y02058*
X06395Y02059*
X06396Y0206*
X06396Y0206*
X06397Y02061*
X06397Y02061*
X06397Y02062*
X06397Y02062*
X06397Y02063*
X06397Y02063*
X06404Y02057*
G37*
G36*
X05999Y01992D02*
X05999Y01991D01*
X05998Y01991*
X05997Y01991*
X05997Y01991*
X05996Y01991*
X05995Y01991*
X05995Y0199*
X05994Y0199*
X05994Y01989*
X05993Y01989*
X05989Y01993*
X05989Y01994*
X0599Y01994*
X0599Y01995*
X05991Y01995*
X05991Y01996*
X05991Y01997*
X05991Y01997*
X05991Y01998*
X05991Y01999*
X05992Y01999*
X05999Y01992*
G37*
G36*
X01906Y01986D02*
X01906Y01986D01*
X01906Y01986*
X01906Y01985*
X01906Y01982*
X01906Y01982*
X01896*
X01896Y01986*
X01906*
X01906Y01986*
G37*
G36*
X01735Y01976D02*
X01726Y01969D01*
X01724Y01982*
X01724Y01982*
X01725Y01982*
X01725Y01982*
X01726Y01982*
X01726Y01982*
X01727Y01982*
X01727Y01983*
X01728Y01983*
X01729Y01984*
X0173Y01985*
X01735Y01976*
G37*
G36*
X05051Y0224D02*
X0505Y0224D01*
X05049Y02239*
X05048Y02239*
X05048Y02239*
X05047Y02239*
X05047Y02239*
X05046Y02238*
X05045Y02238*
X05045Y02237*
X05044Y02237*
X0504Y02241*
X0504Y02242*
X05041Y02242*
X05041Y02243*
X05042Y02243*
X05042Y02244*
X05042Y02245*
X05042Y02245*
X05043Y02246*
X05043Y02247*
X05043Y02247*
X05051Y0224*
G37*
G36*
X01856Y02469D02*
X01846D01*
X01846Y02469*
X01846Y02469*
X01846Y02469*
X01846Y0247*
X01846Y02473*
X01846Y02474*
X01856*
X01856Y02469*
G37*
G36*
X02817Y02219D02*
X02817Y02219D01*
X02817Y02219*
X02816Y02219*
X02816Y02219*
X02813Y02219*
X02812Y02219*
Y02229*
X02817Y02229*
Y02219*
G37*
G36*
X03068Y02202D02*
X03067Y02202D01*
X03067Y02202*
X03067Y02202*
X03066Y02202*
X03064Y02202*
X03063Y02203*
Y02213*
X03068Y02213*
Y02202*
G37*
G36*
X05045Y02226D02*
X05045Y02226D01*
X05046Y02225*
X05047Y02225*
X05047Y02225*
X05048Y02224*
X05048Y02224*
X05049Y02224*
X0505Y02224*
X05051Y02224*
X05043Y02216*
X05043Y02217*
X05043Y02218*
X05042Y02218*
X05042Y02219*
X05042Y0222*
X05042Y0222*
X05041Y02221*
X05041Y02221*
X0504Y02222*
X0504Y02223*
X05044Y02227*
X05045Y02226*
G37*
G36*
X05754Y01841D02*
X05754Y01841D01*
X05753Y01841*
X05753Y01841*
X05752Y01841*
X05752Y01841*
X05751Y0184*
X05751Y0184*
X0575Y01839*
X0575Y01839*
X05749Y01838*
X05745Y01843*
X05745Y01843*
X05746Y01844*
X05747Y01845*
X05747Y01845*
X05747Y01846*
X05747Y01846*
X05748Y01847*
X05748Y01847*
X05748Y01848*
X05754Y01841*
G37*
G36*
X05324Y01876D02*
X05324Y01875D01*
X05325Y01875*
X05325Y01874*
X05326Y01874*
X05327Y01874*
X05327Y01874*
X05328Y01874*
X05329Y01874*
X05329Y01873*
X05322Y01866*
X05321Y01866*
X05321Y01867*
X05321Y01868*
X05321Y01868*
X05321Y01869*
X05321Y0187*
X0532Y0187*
X0532Y01871*
X05319Y01871*
X05319Y01872*
X05323Y01876*
X05324Y01876*
G37*
G36*
X0575Y01828D02*
X0575Y01827D01*
X05751Y01827*
X05751Y01826*
X05752Y01826*
X05753Y01826*
X05753Y01826*
X05754Y01826*
X05755Y01826*
X05755Y01825*
X05748Y01818*
X05747Y01818*
X05747Y01819*
X05747Y0182*
X05747Y0182*
X05747Y01821*
X05747Y01822*
X05746Y01822*
X05746Y01823*
X05745Y01823*
X05745Y01824*
X05749Y01828*
X0575Y01828*
G37*
G36*
X05883Y01746D02*
X05884Y01745D01*
X05885Y01745*
X05885Y01745*
X05886Y01744*
X05886Y01744*
X05887Y01744*
X05888Y01744*
X05888Y01744*
X05889Y01744*
X05881Y01736*
X05881Y01737*
X05881Y01737*
X05881Y01738*
X05881Y01739*
X05881Y01739*
X0588Y0174*
X0588Y0174*
X0588Y01741*
X05879Y01742*
X05879Y01742*
X05883Y01746*
X05883Y01746*
G37*
G36*
X05889Y01759D02*
X05888Y01759D01*
X05888Y01759*
X05887Y01759*
X05886Y01759*
X05886Y01759*
X05885Y01758*
X05885Y01758*
X05884Y01757*
X05883Y01757*
X05883Y01756*
X05879Y01761*
X05879Y01761*
X0588Y01762*
X0588Y01762*
X0588Y01763*
X05881Y01764*
X05881Y01764*
X05881Y01765*
X05881Y01766*
X05881Y01766*
X05881Y01767*
X05889Y01759*
G37*
G36*
X05508Y0192D02*
X05508Y0192D01*
X05507Y0192*
X05506Y0192*
X05506Y0192*
X05505Y01919*
X05504Y01919*
X05504Y01919*
X05503Y01918*
X05503Y01918*
X05502Y01917*
X05498Y01921*
X05498Y01922*
X05499Y01923*
X05499Y01923*
X055Y01924*
X055Y01924*
X055Y01925*
X055Y01926*
X055Y01926*
X055Y01927*
X05501Y01928*
X05508Y0192*
G37*
G36*
X05994Y01978D02*
X05994Y01978D01*
X05995Y01977*
X05995Y01977*
X05996Y01977*
X05997Y01976*
X05997Y01976*
X05998Y01976*
X05999Y01976*
X05999Y01976*
X05992Y01968*
X05991Y01969*
X05991Y0197*
X05991Y0197*
X05991Y01971*
X05991Y01972*
X05991Y01972*
X0599Y01973*
X0599Y01973*
X05989Y01974*
X05989Y01975*
X05993Y01979*
X05994Y01978*
G37*
G36*
X02504Y019D02*
X02504Y019D01*
X02504Y019*
X02503Y019*
X02503Y019*
X025Y019*
X02499Y01901*
Y01911*
X02504Y01911*
Y019*
G37*
G36*
X05329Y01889D02*
X05329Y01889D01*
X05328Y01889*
X05327Y01889*
X05327Y01889*
X05326Y01888*
X05325Y01888*
X05325Y01888*
X05324Y01887*
X05324Y01887*
X05323Y01886*
X05319Y0189*
X05319Y01891*
X0532Y01892*
X0532Y01892*
X05321Y01893*
X05321Y01893*
X05321Y01894*
X05321Y01895*
X05321Y01895*
X05321Y01896*
X05322Y01897*
X05329Y01889*
G37*
G36*
X05503Y01907D02*
X05503Y01906D01*
X05504Y01906*
X05504Y01905*
X05505Y01905*
X05506Y01905*
X05506Y01905*
X05507Y01905*
X05508Y01905*
X05508Y01904*
X05501Y01897*
X055Y01897*
X055Y01898*
X055Y01899*
X055Y01899*
X055Y019*
X055Y01901*
X05499Y01901*
X05499Y01902*
X05498Y01902*
X05498Y01903*
X05502Y01907*
X05503Y01907*
G37*
G36*
X02684Y02478D02*
X02684Y02478D01*
X02684Y02478*
X02683Y02477*
X02683Y02477*
X02682Y02477*
X02681Y02476*
X0268Y02474*
X02679Y02474*
X0267Y02482*
X02671Y02483*
X02674Y02485*
X02674Y02486*
X02674Y02486*
X02674Y02487*
X02674Y02487*
X02675Y02488*
X02684Y02478*
G37*
G36*
X03606Y02827D02*
X03606Y02827D01*
X03606Y02827*
X03606Y02827*
X03606Y02826*
X03606Y02825*
X03606Y02824*
X036*
X03599Y02824*
X03599Y02827*
X03599Y02827*
X03599Y02827*
X03599Y02827*
X03599Y02827*
X03606*
X03606Y02827*
G37*
G36*
X03725Y02832D02*
X03724Y02831D01*
X03724Y0283*
X03724Y0283*
X03723Y02829*
X03723Y02828*
X03723Y02828*
X03723Y02827*
X03723Y02826*
X03723Y02826*
X03717*
X03717Y02826*
X03717Y02827*
X03716Y02828*
X03716Y02828*
X03716Y02829*
X03716Y0283*
X03715Y0283*
X03715Y02831*
X03715Y02832*
X03714Y02832*
X03725*
X03725Y02832*
G37*
G36*
X03723Y02794D02*
X03723Y02794D01*
X03723Y02793*
X03723Y02793*
X03723Y02792*
X03723Y02791*
X03723Y02791*
X03723Y0279*
X03724Y0279*
X03724Y02789*
X03718Y02788*
X03717Y02788*
X03715Y0279*
X03714Y0279*
X03713Y02791*
X03713Y02791*
X03713Y02792*
X03723Y02795*
X03723Y02794*
G37*
G36*
X05601Y02731D02*
X05601Y02731D01*
X056Y02731*
X05599Y02731*
X05599Y02731*
X05598Y0273*
X05597Y0273*
X05597Y0273*
X05596Y02729*
X05596Y02729*
X05595Y02728*
X05591Y02732*
X05591Y02733*
X05592Y02734*
X05592Y02734*
X05593Y02735*
X05593Y02735*
X05593Y02736*
X05593Y02737*
X05593Y02737*
X05593Y02738*
X05594Y02739*
X05601Y02731*
G37*
G36*
X03604Y0279D02*
X03604Y0279D01*
X03604Y0279*
X03604Y0279*
X03604Y02789*
X03604Y02788*
X03604Y02787*
X03604Y02787*
X03598*
X03597Y02787*
X03597Y0279*
X03597Y0279*
X03597Y0279*
X03597Y0279*
X03597Y0279*
X03604*
X03604Y0279*
G37*
G36*
X03612Y02875D02*
X03612Y02874D01*
X03612Y02874*
X03612Y02873*
X03612Y02873*
X03612Y02872*
X03612Y02872*
X03613Y02871*
X03613Y02871*
X03614Y0287*
X03608Y02867*
X03602Y02874*
X03612Y02875*
X03612Y02875*
G37*
G36*
X0368Y02875D02*
X03679Y02875D01*
X03678Y02876*
X03678Y02876*
X03677Y02877*
X03677Y02877*
X03676Y02877*
X03675Y02877*
X03675Y02877*
X03674Y02878*
X03673Y02878*
Y02884*
X03674Y02884*
X03675Y02884*
X03675Y02884*
X03676Y02884*
X03677Y02884*
X03677Y02884*
X03678Y02885*
X03678Y02885*
X03679Y02886*
X0368Y02886*
Y02875*
G37*
G36*
X03841Y02875D02*
X03841Y02874D01*
X03841Y02873*
X03841Y02873*
X03841Y02872*
X03841Y02871*
X03842Y02871*
X03842Y0287*
X03843Y0287*
X03843Y02869*
X03838Y02866*
X03837Y02867*
X03836Y02868*
X03835Y02868*
X03835Y02868*
X03834Y02869*
X03833Y02869*
X03833Y02869*
X03832Y0287*
X03831Y0287*
X03841Y02875*
X03841Y02875*
G37*
G36*
X03837Y02853D02*
X03837Y02853D01*
X03837Y02852*
X03838Y02851*
X03838Y02851*
X03838Y0285*
X03838Y02849*
X03839Y02849*
X03839Y02848*
X0384Y02848*
X03829*
X03829Y02848*
X03829Y02849*
X0383Y02849*
X0383Y0285*
X0383Y02851*
X03831Y02851*
X03831Y02852*
X03831Y02853*
X03831Y02853*
X03831Y02854*
X03837*
X03837Y02853*
G37*
G36*
X03651Y02872D02*
X03651Y02871D01*
X03651Y02871*
X03651Y0287*
X03651Y0287*
X03651Y02869*
X03651Y02869*
X03651Y02868*
X03652Y02868*
X03653Y02867*
X03647Y02864*
X03641Y02871*
X03651Y02872*
X03651Y02872*
G37*
G36*
X01856Y02577D02*
X01846Y02575D01*
X01846Y02576*
X01846Y02578*
X01846Y02578*
X01846Y02579*
X01845Y0258*
X01845Y0258*
X01845Y0258*
X01844Y0258*
X01844Y02581*
X01854Y02589*
X01856Y02577*
G37*
G36*
Y02604D02*
X01854Y02592D01*
X01844Y026*
X01844Y02601*
X01845Y02601*
X01845Y02601*
X01845Y02601*
X01846Y02602*
X01846Y02603*
X01846Y02603*
X01846Y02604*
X01846Y02605*
X01846Y02606*
X01856Y02604*
G37*
G36*
X04589Y0252D02*
X04589Y0252D01*
X04589Y0252*
X04589Y0252*
X04587Y02518*
X04583Y02522*
X04585Y02524*
X04589Y0252*
G37*
G36*
X02502Y02494D02*
X02502Y02494D01*
X02502Y02494*
X02502Y02494*
X02501Y02494*
X02499Y02494*
X02498Y02495*
Y02505*
X02502Y02505*
Y02494*
G37*
G36*
X04589Y02503D02*
X04585Y02499D01*
X04585Y02499*
X04585Y02499*
X04585Y02499*
X04583Y02501*
X04587Y02506*
X04589Y02503*
G37*
G36*
X03002Y02692D02*
X03002Y02691D01*
X03002Y02691*
X03002Y0269*
X03002Y02689*
X03002Y02689*
X03003Y02688*
X03003Y02688*
X03003Y02687*
X03004Y02687*
X02993*
X02994Y02687*
X02994Y02688*
X02994Y02688*
X02995Y02689*
X02995Y02689*
X02995Y0269*
X02995Y02691*
X02995Y02691*
X02995Y02692*
X02996Y02693*
X03002*
X03002Y02692*
G37*
G36*
X05596Y02718D02*
X05596Y02717D01*
X05597Y02717*
X05597Y02716*
X05598Y02716*
X05599Y02716*
X05599Y02716*
X056Y02716*
X05601Y02716*
X05601Y02715*
X05594Y02708*
X05593Y02708*
X05593Y02709*
X05593Y0271*
X05593Y0271*
X05593Y02711*
X05593Y02712*
X05592Y02712*
X05592Y02713*
X05591Y02713*
X05591Y02714*
X05595Y02718*
X05596Y02718*
G37*
G36*
X0638Y02672D02*
X0638Y02672D01*
X0638Y02672*
X0638Y02671*
X0638Y02671*
X0638Y02671*
X06381Y0267*
X06382Y02669*
X06382Y02669*
X06378Y02665*
X06377Y02665*
X06376Y02666*
X06376Y02667*
X06375Y02667*
X06375Y02667*
X06375Y02667*
X06374Y02667*
X06374Y02667*
X0638Y02672*
X0638Y02672*
G37*
G36*
X01861Y02639D02*
X0186Y02637D01*
X01854Y02631*
X01856Y0262*
X01846Y02618*
X01846Y02619*
X01846Y02621*
X01846Y02621*
X01846Y02622*
X01845Y02623*
X01845Y02623*
X01845Y02623*
X01844Y02623*
X01844Y02624*
X01854Y02631*
X01848Y02643*
X01848Y02643*
X01849Y02643*
X0185Y02643*
X0185Y02643*
X01851Y02643*
X01852Y02644*
X01852Y02644*
X01853Y02645*
X01854Y02645*
X01855Y02646*
X01861Y02639*
G37*
G36*
X06376Y02656D02*
X06377Y02655D01*
X06378Y02655*
X06379Y02655*
X0638Y02655*
X06382Y02654*
X06382Y02654*
X06385Y02648*
X06384Y02648*
X06383Y02648*
X06383Y02648*
X06382Y02648*
X06381Y02648*
X06381Y02647*
X0638Y02647*
X0638Y02646*
X0638Y02646*
X06379Y02645*
X06375Y02656*
X06376Y02656*
G37*
G36*
X02496Y04306D02*
X02496Y04305D01*
X02496Y04305*
X02496Y04304*
X02496Y04303*
X02497Y04302*
X02497Y04301*
X02498Y043*
X02498Y043*
X02499Y04299*
X02494Y04294*
X02493Y04295*
X02493Y04295*
X02492Y04296*
X02491Y04296*
X0249Y04297*
X02489Y04297*
X02488Y04297*
X02488Y04297*
X02487Y04297*
X02486Y04298*
X02496Y04307*
X02496Y04306*
G37*
G36*
X03601Y04391D02*
X03603Y04389D01*
X03603Y04389*
X03604Y04389*
X03604Y04389*
X03604Y04389*
X03599Y04384*
X03599Y04384*
X03599Y04384*
X03599Y04385*
X03599Y04385*
X03598Y04385*
X03598Y04386*
X03597Y04387*
X03597Y04387*
X03601Y04391*
X03601Y04391*
G37*
G36*
X02401Y04306D02*
X02401Y04305D01*
X02401Y04305*
X02402Y04304*
X02402Y04303*
X02402Y04302*
X02403Y04301*
X02403Y043*
X02404Y043*
X02404Y04299*
X02399Y04294*
X02399Y04295*
X02398Y04295*
X02397Y04296*
X02397Y04296*
X02396Y04297*
X02395Y04297*
X02394Y04297*
X02393Y04297*
X02392Y04297*
X02391Y04298*
X02401Y04307*
X02401Y04306*
G37*
G36*
X03057Y04304D02*
X03057Y04303D01*
X03057Y04303*
X03057Y04302*
X03058Y04301*
X03058Y043*
X03059Y04299*
X03059Y04298*
X0306Y04298*
X0306Y04297*
X03055Y04292*
X03055Y04293*
X03054Y04293*
X03053Y04294*
X03052Y04294*
X03052Y04295*
X03051Y04295*
X0305Y04295*
X03049Y04295*
X03048Y04295*
X03047Y04296*
X03057Y04305*
X03057Y04304*
G37*
G36*
X02963Y04304D02*
X02963Y04303D01*
X02963Y04302*
X02963Y04301*
X02963Y043*
X02964Y043*
X02964Y04299*
X02964Y04298*
X02965Y04297*
X02966Y04297*
X02961Y04292*
X02961Y04293*
X0296Y04294*
X02959Y04294*
X02958Y04294*
X02958Y04295*
X02957Y04295*
X02956Y04295*
X02955Y04295*
X02954Y04295*
X02953Y04296*
X02962Y04305*
X02963Y04304*
G37*
G36*
X03029Y04426D02*
X03028Y04425D01*
X03027Y04425*
X03027Y04424*
X03027Y04423*
X03026Y04422*
X03026Y04421*
X03026Y0442*
X03026Y04419*
X03026Y04418*
X03025Y04417*
X03016Y04427*
X03017Y04427*
X03018Y04427*
X03019Y04427*
X0302Y04428*
X03021Y04428*
X03021Y04428*
X03022Y04429*
X03023Y04429*
X03024Y0443*
X03024Y0443*
X03029Y04426*
G37*
G36*
X03091D02*
X03091Y04425D01*
X0309Y04425*
X0309Y04424*
X03089Y04423*
X03089Y04422*
X03089Y04421*
X03089Y0442*
X03088Y04419*
X03088Y04418*
X03088Y04417*
X03078Y04427*
X0308Y04427*
X03081Y04427*
X03082Y04427*
X03083Y04428*
X03083Y04428*
X03084Y04428*
X03085Y04429*
X03086Y04429*
X03087Y0443*
X03087Y0443*
X03091Y04426*
G37*
G36*
X02997D02*
X02997Y04425D01*
X02996Y04425*
X02995Y04424*
X02995Y04423*
X02995Y04422*
X02994Y04421*
X02994Y0442*
X02994Y04419*
X02994Y04418*
X02994Y04417*
X02984Y04427*
X02985Y04427*
X02986Y04427*
X02987Y04427*
X02988Y04428*
X02989Y04428*
X0299Y04428*
X02991Y04429*
X02991Y04429*
X02992Y0443*
X02993Y0443*
X02997Y04426*
G37*
G36*
X03601Y044D02*
X036Y04401D01*
X036Y04401*
X03599Y04401*
X03599Y04402*
X03598Y04402*
X03598Y04402*
X03597Y04402*
X03596Y04402*
X03595Y04402*
X03594Y04402*
Y04409*
X03595Y04409*
X03596Y04409*
X03597Y0441*
X03598Y0441*
X03598Y0441*
X03599Y0441*
X03599Y0441*
X036Y04411*
X036Y04411*
X03601Y04412*
Y044*
G37*
G36*
X02903Y04426D02*
X02902Y04425D01*
X02901Y04425*
X02901Y04424*
X02901Y04423*
X029Y04422*
X029Y04421*
X029Y0442*
X029Y04419*
X029Y04418*
X029Y04417*
X0289Y04427*
X02891Y04427*
X02892Y04427*
X02893Y04427*
X02894Y04428*
X02895Y04428*
X02895Y04428*
X02896Y04429*
X02897Y04429*
X02898Y0443*
X02898Y0443*
X02903Y04426*
G37*
G36*
X03032Y03846D02*
X03032Y03845D01*
X03031Y03845*
X03031Y03844*
X0303Y03844*
X0303Y03843*
X0303Y03842*
X0303Y03842*
X0303Y03841*
X0303Y0384*
X03029Y0384*
X03022Y03847*
X03022Y03848*
X03023Y03848*
X03024Y03848*
X03024Y03848*
X03025Y03848*
X03026Y03848*
X03026Y03849*
X03027Y03849*
X03027Y0385*
X03028Y0385*
X03032Y03846*
G37*
G36*
X06516Y03857D02*
X06517Y03856D01*
X06518Y03855*
X06518Y03855*
X06519Y03855*
X06519Y03855*
X0652Y03855*
X0652Y03855*
X06521Y03855*
X06514Y03848*
X06514Y03848*
X06514Y03849*
X06514Y03849*
X06514Y0385*
X06514Y0385*
X06513Y03851*
X06513Y03851*
X06512Y03852*
X06512Y03852*
X06511Y03853*
X06516Y03857*
X06516Y03857*
G37*
G36*
X03206Y03848D02*
X03207Y03848D01*
X03207Y03847*
X03208Y03847*
X03209Y03847*
X03209Y03847*
X0321Y03846*
X03211Y03846*
X03211Y03846*
X03212Y03846*
X03204Y03838*
X03204Y03839*
X03204Y0384*
X03204Y0384*
X03204Y03841*
X03203Y03842*
X03203Y03842*
X03203Y03843*
X03202Y03843*
X03202Y03844*
X03201Y03845*
X03206Y03849*
X03206Y03848*
G37*
G36*
X0238Y03771D02*
X0238Y0377D01*
X02381Y0377*
X02381Y03769*
X02381Y03769*
X02381Y03768*
X02382Y03768*
X02382Y03767*
X02383Y03767*
X02383Y03766*
X02379Y03762*
X02378Y03762*
X02377Y03763*
X02377Y03764*
X02376Y03764*
X02376Y03764*
X02375Y03764*
X02375Y03765*
X02374Y03765*
X02374Y03765*
X0238Y03771*
X0238Y03771*
G37*
G36*
X03156Y03765D02*
X03156Y03765D01*
X03155Y03765*
X03155Y03764*
X03154Y03764*
X03154Y03764*
X03153Y03764*
X03153Y03763*
X03152Y03763*
X03152Y03762*
X03151Y03762*
X03147Y03766*
X03147Y03767*
X03148Y03768*
X03149Y03768*
X03149Y03769*
X03149Y03769*
X03149Y0377*
X0315Y0377*
X0315Y03771*
X0315Y03771*
X03156Y03765*
G37*
G36*
X03656Y03881D02*
X03664Y03878D01*
X03662Y03878*
X03661Y03878*
X0366Y03878*
X03659Y03878*
X03658Y03877*
X03657Y03877*
X03656Y03876*
X03655Y03876*
X03654Y03875*
X03653Y03874*
X03654Y03884*
X03656Y03881*
G37*
G36*
X06516Y04007D02*
X06517Y04006D01*
X06517Y04006*
X06518Y04006*
X06518Y04005*
X06519Y04005*
X0652Y04005*
X0652Y04005*
X06521Y04005*
X06522Y04005*
X06514Y03997*
X06514Y03998*
X06514Y03998*
X06514Y03999*
X06514Y04*
X06513Y04*
X06513Y04001*
X06513Y04001*
X06512Y04002*
X06512Y04003*
X06511Y04003*
X06515Y04007*
X06516Y04007*
G37*
G36*
X06521Y03869D02*
X0652Y03869D01*
X0652Y03869*
X06519Y03869*
X06519Y03869*
X06518Y03868*
X06518Y03868*
X06517Y03868*
X06517Y03867*
X06516Y03867*
X06516Y03866*
X06511Y0387*
X06512Y03871*
X06513Y03872*
X06513Y03873*
X06514Y03873*
X06514Y03874*
X06514Y03874*
X06514Y03875*
X06514Y03875*
X06514Y03875*
X06521Y03869*
G37*
G36*
X0303Y0387D02*
X0303Y03869D01*
X0303Y03869*
X0303Y03868*
X0303Y03867*
X0303Y03867*
X03031Y03866*
X03031Y03866*
X03032Y03865*
X03032Y03864*
X03028Y0386*
X03027Y03861*
X03027Y03861*
X03026Y03862*
X03026Y03862*
X03025Y03862*
X03024Y03863*
X03024Y03863*
X03023Y03863*
X03022Y03863*
X03022Y03863*
X03029Y03871*
X0303Y0387*
G37*
G36*
X0321Y03862D02*
X03209Y03862D01*
X03209Y03862*
X03209Y03862*
X03209Y03862*
X03208Y03861*
X03208Y03861*
X03207Y03861*
X03206Y0386*
X03202Y03864*
X03203Y03864*
X03204Y03866*
X03204Y03866*
X03204Y03867*
X03204Y03867*
X03205Y03867*
X03205Y03867*
X0321Y03862*
G37*
G36*
X02341Y04428D02*
X02341Y04427D01*
X0234Y04426*
X0234Y04425*
X02339Y04425*
X02339Y04424*
X02339Y04423*
X02338Y04422*
X02338Y04421*
X02338Y0442*
X02338Y04419*
X02328Y04429*
X02329Y04429*
X0233Y04429*
X02331Y04429*
X02332Y0443*
X02333Y0443*
X02334Y0443*
X02334Y04431*
X02335Y04431*
X02336Y04432*
X02336Y04433*
X02341Y04428*
G37*
G36*
X06132Y04925D02*
X06131Y04925D01*
X0613Y04925*
X0613Y04925*
X06129Y04925*
X06128Y04924*
X06128Y04924*
X06127Y04924*
X06127Y04923*
X06126Y04923*
X06125Y04922*
X06121Y04926*
X06122Y04927*
X06122Y04928*
X06123Y04928*
X06123Y04929*
X06123Y04929*
X06124Y0493*
X06124Y04931*
X06124Y04931*
X06124Y04932*
X06124Y04933*
X06132Y04925*
G37*
G36*
X06045Y04933D02*
X06045Y04932D01*
X06045Y04931*
X06045Y04931*
X06045Y0493*
X06045Y04929*
X06046Y04929*
X06046Y04928*
X06047Y04928*
X06047Y04927*
X06043Y04923*
X06042Y04923*
X06042Y04924*
X06041Y04924*
X06041Y04925*
X0604Y04925*
X06039Y04925*
X06039Y04925*
X06038Y04925*
X06037Y04925*
X06037Y04926*
X06044Y04933*
X06045Y04933*
G37*
G36*
X03597Y04808D02*
X03596Y04808D01*
X03596Y04809*
X03595Y04809*
X03595Y04809*
X03594Y0481*
X03594Y0481*
X03593Y0481*
X03592Y0481*
X03591Y0481*
X0359Y0481*
Y04817*
X03591Y04817*
X03592Y04817*
X03593Y04817*
X03594Y04817*
X03594Y04817*
X03595Y04818*
X03595Y04818*
X03596Y04818*
X03596Y04819*
X03597Y04819*
Y04808*
G37*
G36*
X03599Y04762D02*
X03598Y04762D01*
X03598Y04762*
X03597Y04762*
X03596Y04763*
X03596Y04763*
X03594Y04763*
X03594Y04763*
X03592Y04763*
X0359Y0477*
X03591Y0477*
X03591Y0477*
X03592Y0477*
X03593Y0477*
X03593Y04771*
X03594Y04771*
X03594Y04771*
X03595Y04772*
X03595Y04772*
X03595Y04773*
X03599Y04762*
G37*
G36*
X03597Y04785D02*
X03597Y04785D01*
X03596Y04786*
X03596Y04786*
X03595Y04786*
X03594Y04787*
X03594Y04787*
X03593Y04787*
X03592Y04787*
X03592Y04787*
X03591Y04787*
X0359Y04794*
X03591Y04794*
X03592Y04794*
X03593Y04794*
X03593Y04794*
X03594Y04795*
X03594Y04795*
X03595Y04795*
X03596Y04795*
X03596Y04796*
X03596Y04796*
X03597Y04785*
G37*
G36*
X06176Y04934D02*
X06176Y04934D01*
X06174Y04932*
X06174Y04931*
X06173Y0493*
X06173Y0493*
X06172Y04929*
X06169Y04939*
X06169Y04939*
X0617Y04939*
X0617Y04939*
X06171Y04939*
X06172Y04939*
X06172Y04939*
X06173Y04939*
X06173Y0494*
X06174Y0494*
X06174Y04941*
X06176Y04934*
G37*
G36*
X01693Y05075D02*
X01694Y05053D01*
X01695Y05047*
X01696Y05042*
X01698Y05038*
X017Y05034*
X01701Y0503*
X01704Y05028*
X01695Y05019*
X01693Y05022*
X01689Y05023*
X01685Y05025*
X01681Y05027*
X01676Y05028*
X0167Y05029*
X01656Y0503*
X01648Y0503*
X0164Y0503*
X01693Y05083*
X01693Y05075*
G37*
G36*
X06239Y04942D02*
X06239Y04942D01*
X06238Y04941*
X06238Y0494*
X06237Y0494*
X06237Y04939*
X06237Y04939*
X06237Y04938*
X06237Y04937*
X06236Y04937*
X06236Y04936*
X06228Y04943*
X06229Y04944*
X0623Y04944*
X0623Y04944*
X06231Y04944*
X06232Y04944*
X06232Y04945*
X06233Y04945*
X06234Y04945*
X06234Y04946*
X06235Y04946*
X06239Y04942*
G37*
G36*
X06069Y04926D02*
X06068Y04926D01*
X06067Y04926*
X06066Y04925*
X06066Y04925*
X06065Y04925*
X06064Y04925*
X06064Y04924*
X06063Y04924*
X06063Y04923*
X06062Y04923*
X06058Y04927*
X06058Y04928*
X06059Y04928*
X06059Y04929*
X0606Y04929*
X0606Y0493*
X0606Y04931*
X0606Y04931*
X06061Y04932*
X06061Y04933*
X06061Y04934*
X06069Y04926*
G37*
G36*
X06108Y04933D02*
X06108Y04932D01*
X06108Y04932*
X06108Y04931*
X06108Y0493*
X06109Y0493*
X06109Y04929*
X0611Y04928*
X0611Y04928*
X06111Y04927*
X06106Y04923*
X06106Y04924*
X06105Y04924*
X06105Y04924*
X06104Y04925*
X06103Y04925*
X06103Y04925*
X06102Y04926*
X06101Y04926*
X06101Y04926*
X061Y04926*
X06108Y04934*
X06108Y04933*
G37*
G36*
X03601Y04425D02*
X036Y04425D01*
X036Y04426*
X03599Y04426*
X03599Y04426*
X03598Y04427*
X03597Y04427*
X03597Y04427*
X03596Y04427*
X03595Y04427*
X03594Y04427*
Y04433*
X03595Y04433*
X03596Y04433*
X03597Y04434*
X03597Y04434*
X03598Y04434*
X03599Y04434*
X03599Y04435*
X036Y04435*
X036Y04435*
X03601Y04436*
Y04425*
G37*
G36*
Y04449D02*
X036Y0445D01*
X036Y0445*
X03599Y0445*
X03599Y04451*
X03598Y04451*
X03597Y04451*
X03597Y04451*
X03596Y04452*
X03595Y04452*
X03594Y04452*
Y04458*
X03595Y04458*
X03596Y04458*
X03597Y04458*
X03597Y04458*
X03598Y04458*
X03599Y04459*
X03599Y04459*
X036Y04459*
X036Y0446*
X03601Y0446*
Y04449*
G37*
G36*
X0253Y04428D02*
X0253Y04427D01*
X02529Y04426*
X02528Y04425*
X02528Y04425*
X02528Y04424*
X02527Y04423*
X02527Y04422*
X02527Y04421*
X02527Y0442*
X02527Y04419*
X02517Y04429*
X02518Y04429*
X02519Y04429*
X0252Y04429*
X02521Y0443*
X02522Y0443*
X02522Y0443*
X02523Y04431*
X02524Y04431*
X02525Y04432*
X02525Y04433*
X0253Y04428*
G37*
G36*
X02436D02*
X02435Y04427D01*
X02435Y04426*
X02434Y04425*
X02434Y04425*
X02433Y04424*
X02433Y04423*
X02433Y04422*
X02433Y04421*
X02433Y0442*
X02433Y04419*
X02423Y04429*
X02424Y04429*
X02425Y04429*
X02425Y04429*
X02426Y0443*
X02427Y0443*
X02428Y0443*
X02429Y04431*
X0243Y04431*
X0243Y04432*
X02431Y04433*
X02436Y04428*
G37*
G36*
X02467D02*
X02467Y04427D01*
X02466Y04426*
X02465Y04425*
X02465Y04425*
X02465Y04424*
X02464Y04423*
X02464Y04422*
X02464Y04421*
X02464Y0442*
X02464Y04419*
X02454Y04429*
X02455Y04429*
X02456Y04429*
X02457Y04429*
X02458Y0443*
X02459Y0443*
X02459Y0443*
X0246Y04431*
X02461Y04431*
X02462Y04432*
X02462Y04433*
X02467Y04428*
G37*
G36*
X03597Y04718D02*
X03597Y04718D01*
X03596Y04719*
X03596Y04719*
X03595Y04719*
X03594Y0472*
X03594Y0472*
X03593Y0472*
X03592Y0472*
X03592Y0472*
X03591Y0472*
X0359Y04727*
X03591Y04727*
X03592Y04727*
X03593Y04727*
X03593Y04727*
X03594Y04728*
X03595Y04728*
X03595Y04728*
X03596Y04728*
X03596Y04729*
X03597Y04729*
X03597Y04718*
G37*
G36*
X03597Y0474D02*
X03597Y04741D01*
X03596Y04741*
X03596Y04741*
X03595Y04741*
X03595Y04742*
X03594Y04742*
X03593Y04742*
X03593Y04742*
X03592Y04742*
X03591Y04742*
X0359Y04749*
X03591Y04749*
X03592Y04749*
X03592Y04749*
X03593Y04749*
X03594Y0475*
X03594Y0475*
X03595Y0475*
X03595Y0475*
X03596Y04751*
X03596Y04751*
X03597Y0474*
G37*
G36*
X03597Y04696D02*
X03596Y04696D01*
X03596Y04697*
X03595Y04697*
X03595Y04697*
X03594Y04698*
X03594Y04698*
X03593Y04698*
X03592Y04698*
X03591Y04698*
X0359Y04698*
Y04705*
X03591Y04705*
X03592Y04705*
X03593Y04705*
X03594Y04705*
X03594Y04705*
X03595Y04706*
X03595Y04706*
X03596Y04706*
X03596Y04707*
X03597Y04707*
Y04696*
G37*
G36*
X03601Y04474D02*
X036Y04474D01*
X036Y04474*
X03599Y04475*
X03599Y04475*
X03598Y04475*
X03597Y04476*
X03597Y04476*
X03596Y04476*
X03595Y04476*
X03594Y04476*
Y04482*
X03595Y04482*
X03596Y04482*
X03597Y04482*
X03597Y04483*
X03598Y04483*
X03599Y04483*
X03599Y04483*
X036Y04484*
X036Y04484*
X03601Y04485*
Y04474*
G37*
G36*
Y04498D02*
X036Y04498D01*
X036Y04499*
X03599Y04499*
X03599Y045*
X03598Y045*
X03597Y045*
X03597Y045*
X03596Y045*
X03595Y045*
X03594Y04501*
Y04507*
X03595Y04507*
X03596Y04507*
X03597Y04507*
X03597Y04507*
X03598Y04507*
X03599Y04507*
X03599Y04508*
X036Y04508*
X036Y04509*
X03601Y04509*
Y04498*
G37*
G36*
X04121Y03436D02*
X04121Y03435D01*
X0412Y03435*
X0412Y03434*
X04119Y03434*
X04119Y03433*
X04119Y03432*
X04119Y03432*
X04119Y03431*
X04119Y0343*
X04118Y0343*
X04111Y03437*
X04111Y03438*
X04112Y03438*
X04113Y03438*
X04113Y03438*
X04114Y03438*
X04115Y03438*
X04115Y03439*
X04116Y03439*
X04116Y0344*
X04117Y0344*
X04121Y03436*
G37*
G36*
X03135Y03443D02*
X03135Y03442D01*
X03135Y03441*
X03135Y03441*
X03135Y0344*
X03135Y03439*
X03136Y03439*
X03136Y03438*
X03137Y03438*
X03137Y03437*
X03133Y03433*
X03132Y03433*
X03132Y03434*
X03131Y03434*
X03131Y03435*
X0313Y03435*
X03129Y03435*
X03129Y03435*
X03128Y03435*
X03127Y03435*
X03127Y03435*
X03134Y03443*
X03135Y03443*
G37*
G36*
X03995Y03433D02*
X03995Y03432D01*
X03996Y03432*
X03996Y03431*
X03997Y03431*
X03998Y03431*
X03998Y03431*
X03999Y03431*
X04Y03431*
X04001Y03431*
Y03425*
X04Y03424*
X03999Y03424*
X03998Y03424*
X03998Y03424*
X03997Y03424*
X03996Y03424*
X03996Y03423*
X03995Y03423*
X03995Y03422*
X03994Y03422*
Y03433*
X03995Y03433*
G37*
G36*
X06521Y03419D02*
X0652Y03419D01*
X0652Y03419*
X06519Y03419*
X06519Y03419*
X06518Y03418*
X06518Y03418*
X06517Y03418*
X06517Y03417*
X06516Y03417*
X06516Y03416*
X06511Y0342*
X06512Y03421*
X06513Y03422*
X06513Y03423*
X06514Y03423*
X06514Y03424*
X06514Y03424*
X06514Y03425*
X06514Y03425*
X06514Y03425*
X06521Y03419*
G37*
G36*
X03755Y03431D02*
X03755Y0343D01*
X03756Y0343*
X03756Y03429*
X03757Y03429*
X03758Y03429*
X03758Y03429*
X03759Y03429*
X0376Y03429*
X0376Y03428*
X03753Y03421*
X03752Y03421*
X03752Y03422*
X03752Y03423*
X03752Y03423*
X03752Y03424*
X03752Y03425*
X03751Y03425*
X03751Y03426*
X0375Y03426*
X0375Y03427*
X03754Y03431*
X03755Y03431*
G37*
G36*
X04002Y03456D02*
X04001Y03456D01*
X04001Y03455*
X04Y03455*
X04Y03454*
X04Y03453*
X04Y03453*
X04Y03452*
X04Y03451*
X04Y0345*
X03994*
X03993Y03451*
X03993Y03452*
X03993Y03453*
X03993Y03453*
X03993Y03454*
X03993Y03455*
X03992Y03455*
X03992Y03456*
X03991Y03456*
X03991Y03457*
X04002*
X04002Y03456*
G37*
G36*
X03517Y03457D02*
X03516Y03457D01*
X03515Y03458*
X03515Y03458*
X03514Y03458*
X03514Y03459*
X03513Y03459*
X03512Y03459*
X03512Y03459*
X03511Y03459*
X0351Y03459*
Y03465*
X03511Y03465*
X03512Y03465*
X03512Y03465*
X03513Y03466*
X03514Y03466*
X03514Y03466*
X03515Y03467*
X03515Y03467*
X03516Y03467*
X03517Y03468*
Y03457*
G37*
G36*
X0385Y0346D02*
X03851Y03459D01*
X03851Y03459*
X03852Y03459*
X03852Y03458*
X03853Y03458*
X03853Y03458*
X03854Y03458*
X03855Y03458*
X03856Y03458*
X03853Y03452*
X03853Y03451*
X03851Y03451*
X0385Y03451*
X03849Y03451*
X03848Y03451*
X03847Y0345*
X03846Y0345*
X0385Y03461*
X0385Y0346*
G37*
G36*
X04711Y03438D02*
X0471Y03438D01*
X0471Y03438*
X0471Y03439*
X04709Y03439*
X04708Y03439*
X04708Y03439*
X04707Y03439*
X04706Y03439*
X04705Y0344*
Y03448*
X04706Y03448*
X04707Y03448*
X04708Y03448*
X04708Y03448*
X04709Y03448*
X0471Y03448*
X0471Y03449*
X0471Y03449*
X04711Y03449*
Y03438*
G37*
G36*
X03685Y03449D02*
X03684Y03449D01*
X03683Y03449*
X03683Y03449*
X03682Y03449*
X03681Y03448*
X03681Y03448*
X0368Y03448*
X0368Y03447*
X03679Y03447*
X03678Y03446*
X03674Y03451*
X03675Y03451*
X03675Y03452*
X03676Y03452*
X03676Y03453*
X03676Y03454*
X03676Y03454*
X03677Y03455*
X03677Y03456*
X03677Y03456*
X03677Y03457*
X03685Y03449*
G37*
G36*
X03521Y03351D02*
X03521Y0335D01*
X03522Y0335*
X03522Y03349*
X03523Y03349*
X03524Y03349*
X03524Y03349*
X03525Y03348*
X03526Y03348*
X03526Y03348*
X03518Y0334*
X03518Y03341*
X03518Y03342*
X03518Y03342*
X03518Y03343*
X03518Y03344*
X03518Y03344*
X03517Y03345*
X03517Y03346*
X03516Y03346*
X03516Y03347*
X0352Y03351*
X03521Y03351*
G37*
G36*
X03606Y0337D02*
X03606Y0337D01*
X03605Y0337*
X03604Y0337*
X03604Y0337*
X03603Y0337*
X03602Y03369*
X03602Y03369*
X03601Y03369*
X03601Y03368*
X036Y03368*
X03596Y03372*
X03596Y03372*
X03597Y03373*
X03597Y03374*
X03598Y03374*
X03598Y03375*
X03598Y03375*
X03598Y03376*
X03598Y03377*
X03599Y03378*
X03599Y03378*
X03606Y0337*
G37*
G36*
X03601Y03349D02*
X03601Y03349D01*
X03602Y03348*
X03602Y03348*
X03603Y03348*
X03604Y03347*
X03604Y03347*
X03605Y03347*
X03606Y03347*
X03606Y03347*
X03599Y03339*
X03599Y0334*
X03598Y0334*
X03598Y03341*
X03598Y03342*
X03598Y03342*
X03598Y03343*
X03597Y03344*
X03597Y03344*
X03596Y03345*
X03596Y03345*
X036Y0335*
X03601Y03349*
G37*
G36*
X05375Y03309D02*
X05376Y03308D01*
X05377Y03308*
X05377Y03308*
X05378Y03307*
X05379Y03307*
X05379Y03307*
X0538Y03307*
X05381Y03307*
X05381Y03307*
X05373Y03299*
X05373Y033*
X05373Y033*
X05373Y03301*
X05373Y03302*
X05373Y03302*
X05372Y03303*
X05372Y03303*
X05372Y03304*
X05371Y03305*
X05371Y03305*
X05375Y03309*
X05375Y03309*
G37*
G36*
X05379Y03323D02*
X05379Y03323D01*
X05379Y03323*
X05378Y03322*
X05378Y03322*
X05378Y03322*
X05377Y03322*
X05377Y03321*
X05376Y0332*
X05371Y03324*
X05372Y03325*
X05373Y03327*
X05374Y03327*
X05374Y03327*
X05374Y03327*
X05374Y03328*
X05374Y03328*
X05379Y03323*
G37*
G36*
X03679Y03428D02*
X0368Y03427D01*
X0368Y03427*
X03681Y03427*
X03681Y03426*
X03682Y03426*
X03683Y03426*
X03683Y03426*
X03684Y03426*
X03685Y03426*
X03677Y03418*
X03677Y03419*
X03677Y03419*
X03677Y0342*
X03676Y03421*
X03676Y03421*
X03676Y03422*
X03676Y03422*
X03675Y03423*
X03675Y03424*
X03674Y03424*
X03678Y03428*
X03679Y03428*
G37*
G36*
X03837D02*
X03837Y03427D01*
X03838Y03427*
X03839Y03427*
X03839Y03426*
X0384Y03426*
X03841Y03426*
X03841Y03426*
X03842Y03426*
X03843Y03426*
X03835Y03418*
X03835Y03419*
X03835Y03419*
X03835Y0342*
X03834Y03421*
X03834Y03421*
X03834Y03422*
X03833Y03422*
X03833Y03423*
X03833Y03424*
X03832Y03424*
X03836Y03428*
X03837Y03428*
G37*
G36*
X03137Y03419D02*
X03137Y03418D01*
X03136Y03417*
X03136Y03417*
X03135Y03416*
X03135Y03416*
X03135Y03415*
X03135Y03414*
X03135Y03413*
X03135Y03413*
X03134Y03412*
X03127Y0342*
X03127Y0342*
X03128Y0342*
X03129Y0342*
X03129Y0342*
X0313Y03421*
X03131Y03421*
X03131Y03421*
X03132Y03422*
X03132Y03422*
X03133Y03423*
X03137Y03419*
G37*
G36*
X03526Y03372D02*
X03526Y03372D01*
X03525Y03372*
X03524Y03371*
X03524Y03371*
X03523Y03371*
X03522Y03371*
X03522Y0337*
X03521Y0337*
X03521Y03369*
X0352Y03369*
X03516Y03373*
X03516Y03374*
X03517Y03374*
X03517Y03375*
X03518Y03376*
X03518Y03376*
X03518Y03377*
X03518Y03377*
X03518Y03378*
X03518Y03379*
X03518Y0338*
X03526Y03372*
G37*
G36*
X06516Y03407D02*
X06517Y03406D01*
X06518Y03405*
X06518Y03405*
X06519Y03405*
X06519Y03405*
X0652Y03405*
X0652Y03405*
X06521Y03405*
X06514Y03398*
X06514Y03398*
X06514Y03399*
X06514Y03399*
X06514Y034*
X06514Y034*
X06513Y03401*
X06513Y03401*
X06512Y03402*
X06512Y03402*
X06511Y03403*
X06516Y03407*
X06516Y03407*
G37*
G36*
X04118Y03467D02*
X04118Y03466D01*
X04118Y03465*
X04118Y03465*
X04118Y03464*
X04118Y03463*
X04119Y03463*
X04119Y03462*
X0412Y03462*
X0412Y03461*
X04116Y03457*
X04115Y03457*
X04115Y03458*
X04114Y03458*
X04114Y03459*
X04113Y03459*
X04112Y03459*
X04112Y03459*
X04111Y03459*
X0411Y03459*
X0411Y0346*
X04117Y03467*
X04118Y03467*
G37*
G36*
X06416Y03657D02*
X06417Y03656D01*
X06418Y03655*
X06418Y03655*
X06419Y03655*
X06419Y03655*
X0642Y03655*
X0642Y03655*
X06421Y03655*
X06414Y03648*
X06414Y03648*
X06414Y03649*
X06414Y03649*
X06414Y0365*
X06414Y0365*
X06413Y03651*
X06413Y03651*
X06412Y03652*
X06412Y03652*
X06411Y03653*
X06416Y03657*
X06416Y03657*
G37*
G36*
X06421Y03669D02*
X0642Y03669D01*
X0642Y03669*
X06419Y03669*
X06419Y03669*
X06418Y03668*
X06418Y03668*
X06417Y03668*
X06417Y03667*
X06416Y03667*
X06416Y03666*
X06411Y0367*
X06412Y03671*
X06413Y03672*
X06413Y03673*
X06414Y03673*
X06414Y03674*
X06414Y03674*
X06414Y03675*
X06414Y03675*
X06414Y03675*
X06421Y03669*
G37*
G36*
X06521Y03569D02*
X0652Y03569D01*
X0652Y03569*
X06519Y03569*
X06519Y03569*
X06518Y03568*
X06518Y03568*
X06517Y03568*
X06517Y03567*
X06516Y03567*
X06516Y03566*
X06511Y0357*
X06512Y03571*
X06513Y03572*
X06513Y03573*
X06514Y03573*
X06514Y03574*
X06514Y03574*
X06514Y03575*
X06514Y03575*
X06514Y03575*
X06521Y03569*
G37*
G36*
X06516Y03557D02*
X06517Y03556D01*
X06518Y03555*
X06518Y03555*
X06519Y03555*
X06519Y03555*
X0652Y03555*
X0652Y03555*
X06521Y03555*
X06514Y03548*
X06514Y03548*
X06514Y03549*
X06514Y03549*
X06514Y0355*
X06514Y0355*
X06513Y03551*
X06513Y03551*
X06512Y03552*
X06512Y03552*
X06511Y03553*
X06516Y03557*
X06516Y03557*
G37*
G36*
X03526Y03569D02*
X03526Y03568D01*
X03525Y03568*
X03524Y03568*
X03524Y03568*
X03523Y03568*
X03522Y03568*
X03522Y03567*
X03521Y03567*
X03521Y03566*
X0352Y03566*
X03516Y0357*
X03516Y03571*
X03517Y03571*
X03517Y03572*
X03518Y03572*
X03518Y03573*
X03518Y03574*
X03518Y03574*
X03518Y03575*
X03518Y03576*
X03518Y03576*
X03526Y03569*
G37*
G36*
X03152Y03751D02*
X03152Y03751D01*
X03153Y0375*
X03153Y0375*
X03154Y0375*
X03155Y03749*
X03155Y03749*
X03156Y03749*
X03157Y03749*
X03157Y03749*
X0315Y03741*
X03149Y03742*
X03149Y03742*
X03149Y03743*
X03149Y03744*
X03149Y03745*
X03149Y03745*
X03148Y03746*
X03148Y03746*
X03147Y03747*
X03147Y03748*
X03151Y03752*
X03152Y03751*
G37*
G36*
X02383Y03748D02*
X02383Y03747D01*
X02382Y03746*
X02382Y03746*
X02381Y03745*
X02381Y03745*
X02381Y03744*
X02381Y03743*
X02381Y03743*
X02381Y03742*
X0238Y03741*
X02373Y03749*
X02373Y03749*
X02374Y03749*
X02375Y03749*
X02375Y03749*
X02376Y0375*
X02377Y0375*
X02377Y0375*
X02378Y03751*
X02378Y03751*
X02379Y03752*
X02383Y03748*
G37*
G36*
X06521Y03719D02*
X0652Y03719D01*
X0652Y03719*
X06519Y03719*
X06519Y03719*
X06518Y03718*
X06518Y03718*
X06517Y03718*
X06517Y03717*
X06516Y03717*
X06516Y03716*
X06511Y0372*
X06512Y03721*
X06513Y03722*
X06513Y03723*
X06514Y03723*
X06514Y03724*
X06514Y03724*
X06514Y03725*
X06514Y03725*
X06514Y03725*
X06521Y03719*
G37*
G36*
X06516Y03707D02*
X06517Y03706D01*
X06518Y03705*
X06518Y03705*
X06519Y03705*
X06519Y03705*
X0652Y03705*
X0652Y03705*
X06521Y03705*
X06514Y03698*
X06514Y03698*
X06514Y03699*
X06514Y03699*
X06514Y037*
X06514Y037*
X06513Y03701*
X06513Y03701*
X06512Y03702*
X06512Y03702*
X06511Y03703*
X06516Y03707*
X06516Y03707*
G37*
G36*
X03648Y03711D02*
X03648Y0371D01*
X03649Y0371*
X03649Y03709*
X0365Y03709*
X03651Y03709*
X03651Y03709*
X03652Y03709*
X03653Y03709*
X03654Y03709*
Y03703*
X03653Y03702*
X03652Y03702*
X03651Y03702*
X03651Y03702*
X0365Y03702*
X03649Y03702*
X03649Y03701*
X03648Y03701*
X03648Y037*
X03647Y037*
Y03711*
X03648Y03711*
G37*
G36*
X06416Y03507D02*
X06417Y03506D01*
X06418Y03505*
X06418Y03505*
X06419Y03505*
X06419Y03505*
X0642Y03505*
X0642Y03505*
X06421Y03505*
X06414Y03498*
X06414Y03498*
X06414Y03499*
X06414Y03499*
X06414Y035*
X06414Y035*
X06413Y03501*
X06413Y03501*
X06412Y03502*
X06412Y03502*
X06411Y03503*
X06416Y03507*
X06416Y03507*
G37*
G36*
X03718Y0351D02*
X03719Y03509D01*
X03719Y03509*
X0372Y03508*
X0372Y03508*
X03721Y03508*
X03722Y03508*
X03722Y03508*
X03723Y03508*
X03724Y03507*
X03716Y035*
X03716Y035*
X03716Y03501*
X03716Y03502*
X03715Y03502*
X03715Y03503*
X03715Y03504*
X03715Y03504*
X03714Y03505*
X03714Y03505*
X03713Y03506*
X03717Y0351*
X03718Y0351*
G37*
G36*
X03797Y03507D02*
X03798Y03506D01*
X03799Y03506*
X03799Y03505*
X038Y03505*
X03801Y03505*
X03801Y03505*
X03802Y03505*
X03803Y03504*
X03803Y03504*
X03795Y03497*
X03795Y03497*
X03795Y03498*
X03795Y03499*
X03795Y03499*
X03795Y035*
X03794Y03501*
X03794Y03501*
X03794Y03502*
X03793Y03502*
X03793Y03503*
X03797Y03507*
X03797Y03507*
G37*
G36*
X04037Y03476D02*
X04037Y03476D01*
X04037Y03475*
X04037Y03474*
X04037Y03474*
X04037Y03473*
X04038Y03472*
X04038Y03472*
X04039Y03471*
X04039Y03471*
X04028*
X04028Y03471*
X04029Y03472*
X04029Y03472*
X0403Y03473*
X0403Y03474*
X0403Y03474*
X0403Y03475*
X0403Y03476*
X0403Y03476*
X04031Y03477*
X04037*
X04037Y03476*
G37*
G36*
X04019Y03498D02*
X04019Y03497D01*
X04019Y03497*
X04019Y03496*
X04019Y03496*
X04019Y03495*
X0402Y03495*
X0402Y03494*
X04021Y03493*
X04021Y03493*
X04017Y03489*
X04016Y03489*
X04015Y0349*
X04015Y03491*
X04014Y03491*
X04014Y03491*
X04013Y03491*
X04013Y03491*
X04012Y03491*
X04012Y03491*
X04019Y03498*
X04019Y03498*
G37*
G36*
X03521Y03547D02*
X03521Y03547D01*
X03522Y03546*
X03522Y03546*
X03523Y03546*
X03524Y03546*
X03524Y03545*
X03525Y03545*
X03526Y03545*
X03526Y03545*
X03518Y03537*
X03518Y03538*
X03518Y03539*
X03518Y03539*
X03518Y0354*
X03518Y03541*
X03518Y03541*
X03517Y03542*
X03517Y03543*
X03516Y03543*
X03516Y03544*
X0352Y03548*
X03521Y03547*
G37*
G36*
X04275Y0355D02*
X04274Y03549D01*
X04274Y03549*
X04274Y03548*
X04273Y03547*
X04273Y03547*
X04273Y03546*
X04273Y03546*
X04273Y03545*
X04273Y03545*
X04274Y03545*
X04263Y03546*
X0427Y03553*
X04275Y0355*
G37*
G36*
X03715Y03547D02*
X03715Y03546D01*
X03716Y03546*
X03717Y03545*
X03717Y03545*
X03718Y03545*
X03718Y03545*
X03719Y03545*
X03719Y03545*
X0372Y03546*
X03717Y03535*
X03717Y03536*
X03716Y03536*
X03715Y03537*
X03714Y03539*
X03711Y03542*
X03714Y03547*
X03715Y03547*
G37*
G36*
X04234Y03512D02*
X04234Y03511D01*
X04234Y0351*
X04234Y0351*
X04234Y03509*
X04234Y03508*
X04235Y03508*
X04235Y03507*
X04236Y03507*
X04236Y03506*
X04225*
X04225Y03507*
X04226Y03507*
X04226Y03508*
X04227Y03508*
X04227Y03509*
X04227Y0351*
X04227Y0351*
X04227Y03511*
X04227Y03512*
X04228Y03513*
X04234*
X04234Y03512*
G37*
G36*
X06421Y03519D02*
X0642Y03519D01*
X0642Y03519*
X06419Y03519*
X06419Y03519*
X06418Y03518*
X06418Y03518*
X06417Y03518*
X06417Y03517*
X06416Y03517*
X06416Y03516*
X06411Y0352*
X06412Y03521*
X06413Y03522*
X06413Y03523*
X06414Y03523*
X06414Y03524*
X06414Y03524*
X06414Y03525*
X06414Y03525*
X06414Y03525*
X06421Y03519*
G37*
G54D10*
X02658Y02018D02*
Y02026D01*
Y02018D02*
X02771Y01905D01*
X02308Y02194D02*
X02449D01*
X02265Y0215D02*
X02308Y02194D01*
X02254Y0215D02*
X02265D01*
X01956Y03212D02*
Y04768D01*
X0164Y05084D02*
X01956Y04768D01*
X02635Y02476D02*
X02672D01*
X02685Y02488*
X0248Y0263D02*
X02635Y02476D01*
X0248Y0263D02*
Y02687D01*
X01956Y03212D02*
X0248Y02687D01*
X02254Y02212D02*
X02255Y02213D01*
X02463*
G54D50*
X02822Y02181D02*
X0283Y02173D01*
X02822Y02181D02*
X02822Y02181D01*
X01851Y02634D02*
Y02636D01*
Y02591D02*
Y02634D01*
Y02466D02*
Y02591D01*
X01722Y0197D02*
X01766Y02014D01*
X02987Y02208D02*
X03073D01*
X02952Y02173D02*
X02987Y02208D01*
X0283Y02173D02*
X02952D01*
X02045Y01694D02*
X02422D01*
X02446Y01718*
Y01863*
X02489Y01906*
X02509*
X01851Y02636D02*
X01915Y027D01*
X02427*
X02441Y02686*
Y02516D02*
Y02686D01*
Y02516D02*
X02457Y025D01*
X02508*
X02536Y0219D02*
X02732D01*
X01766Y02014D02*
X0236D01*
X02536Y0219*
X019Y01839D02*
X02045Y01694D01*
X019Y01839D02*
X01901Y01839D01*
Y01992*
X02766Y02224D02*
X02822D01*
X02732Y0219D02*
X02766Y02224D01*
X02822Y02181D02*
X02822D01*
G54D51*
X03472Y03152D02*
X0353D01*
X06419Y03376D02*
X06427Y03368D01*
X06419Y03377D02*
X06419Y03376D01*
Y03347D02*
X06427Y03355D01*
X06419Y03347D02*
X06419Y03347D01*
X03832Y02876D02*
X03891Y02817D01*
X03831Y02877D02*
X03832Y02876D01*
X03148Y03751D02*
X03158Y03741D01*
X03204Y03862D02*
X03212Y0387D01*
X03031Y03862D02*
X03204D01*
X03022Y03871D02*
X03031Y03862D01*
Y03849D02*
X03201D01*
X03212Y03838*
X03022Y0384D02*
X03031Y03849D01*
X02905Y03751D02*
X03148D01*
X02872D02*
X02882D01*
X02898Y03745D02*
X02905Y03751D01*
X02889Y03745D02*
X02898D01*
X02882Y03751D02*
X02889Y03745D01*
X02839Y03751D02*
X02849D01*
X02865Y03745D02*
X02872Y03751D01*
X02856Y03745D02*
X02865D01*
X02849Y03751D02*
X02856Y03745D01*
X02804Y03751D02*
X02816D01*
X02832Y03745D02*
X02839Y03751D01*
X02823Y03745D02*
X02832D01*
X02816Y03751D02*
X02823Y03745D01*
X0277Y03751D02*
X02781D01*
X02797Y03745D02*
X02804Y03751D01*
X02788Y03745D02*
X02797D01*
X02781Y03751D02*
X02788Y03745D01*
X02735Y03751D02*
X02747D01*
X02763Y03745D02*
X0277Y03751D01*
X02754Y03745D02*
X02763D01*
X02747Y03751D02*
X02754Y03745D01*
X02703Y03751D02*
X02712D01*
X02728Y03745D02*
X02735Y03751D01*
X02719Y03745D02*
X02728D01*
X02712Y03751D02*
X02719Y03745D01*
X0267Y03751D02*
X0268D01*
X02696Y03745D02*
X02703Y03751D01*
X02687Y03745D02*
X02696D01*
X0268Y03751D02*
X02687Y03745D01*
X02637Y03751D02*
X02647D01*
X02663Y03745D02*
X0267Y03751D01*
X02654Y03745D02*
X02663D01*
X02647Y03751D02*
X02654Y03745D01*
X02381Y03764D02*
X03149D01*
X03158Y03772*
X02373Y03772D02*
X02381Y03764D01*
X02382Y03751D02*
X02614D01*
X02614D02*
X02621Y03745D01*
X0263D02*
X02637Y03751D01*
X02621Y03745D02*
X0263D01*
X02373Y03741D02*
X02382Y03751D01*
X04051Y03413D02*
X04118D01*
X04023Y03441D02*
X04051Y03413D01*
X04002Y03441D02*
X04023D01*
X03997Y03446D02*
X04002Y03441D01*
X03997Y03446D02*
Y03463D01*
X04046Y034D02*
X04123D01*
X04018Y03428D02*
X04046Y034D01*
X03989Y03428D02*
X04018D01*
X04612Y03183D02*
X04622Y03192D01*
X04612Y03159D02*
Y03183D01*
X04531Y03078D02*
X04612Y03159D01*
X04266Y03078D02*
X04531D01*
X04216Y03029D02*
X04266Y03078D01*
X04102Y03029D02*
X04216D01*
X04089Y03016D02*
X04102Y03029D01*
X03716Y03016D02*
X04089D01*
X03699Y02999D02*
X03716Y03016D01*
X03685Y02999D02*
X03699D01*
X0459Y03192D02*
X04599Y03183D01*
Y03165D02*
Y03183D01*
X04526Y03091D02*
X04599Y03165D01*
X04261Y03091D02*
X04526D01*
X03845Y03058D02*
X04091D01*
X03705Y03057D02*
X03845D01*
X04215Y03045D02*
X04261Y03091D01*
X04091Y03058D02*
X04103Y03045D01*
X04215*
X03845Y03057D02*
X03845Y03058D01*
X03685Y03038D02*
X03705Y03057D01*
X03262Y03472D02*
X03497D01*
X03211Y03421D02*
X03262Y03472D01*
X03136Y03421D02*
X03211D01*
X03256Y03485D02*
X03491D01*
X03206Y03434D02*
X03256Y03485D01*
X03136Y03434D02*
X03206D01*
X03501Y0346D02*
X03504Y03462D01*
X03504Y03498D02*
X03534D01*
X03491Y03485D02*
X03504Y03498D01*
X0351Y03485D02*
X03529D01*
X03497Y03472D02*
X0351Y03485D01*
X03504Y03462D02*
X03522D01*
X03557Y03475D02*
X03598D01*
X03534Y03498D02*
X03557Y03475D01*
X03744Y03437D02*
Y03628D01*
Y03437D02*
X03761Y03421D01*
X03667Y03706D02*
X03744Y03628D01*
X03529Y03485D02*
X03551Y03462D01*
X03642Y03706D02*
X03667D01*
X03642Y03705D02*
Y03706D01*
X03127Y03443D02*
X03136Y03434D01*
X03127Y03412D02*
X03136Y03421D01*
X03013Y04246D02*
X03132D01*
X02953Y04306D02*
X03013Y04246D01*
X03132D02*
X03175Y04289D01*
Y04347*
X03078Y04417D02*
X03091Y0443D01*
X03607*
X03015Y04417D02*
X03053Y04455D01*
X03607*
X03046Y04479D02*
X03607D01*
X02984Y04417D02*
X03046Y04479D01*
X03675Y03448D02*
X03685Y03457D01*
X03668Y03435D02*
X03685Y03418D01*
X03551Y03462D02*
X03592D01*
X0362Y03435*
X03668*
X03598Y03475D02*
X03625Y03448D01*
X03675*
X03175Y04347D02*
X03217Y04389D01*
X03599*
X03607Y04382*
X03342Y04504D02*
X03607D01*
X02965Y04493D02*
X03332D01*
X03342Y04504*
X0289Y04417D02*
X02965Y04493D01*
X03822Y03153D02*
D01*
X03826Y03149*
X03849*
X03958Y03203D02*
X04003Y03248D01*
X03877Y03203D02*
X03958D01*
X03607Y03294D02*
X03616Y03285D01*
X03607Y03294D02*
Y033D01*
X03616Y03285D02*
X03641D01*
X04003Y03248D02*
D01*
X04017Y03262*
X04047*
X04053Y03257*
X04187D02*
X04221Y03223D01*
X04053Y03257D02*
X04187D01*
X04351Y03275D02*
X04398Y03322D01*
X05374*
X05381Y0333*
X03963Y0319D02*
X04022Y03249D01*
X03607Y0326D02*
X03617Y03271D01*
X04022Y03249D02*
X04042D01*
X04047Y03244*
X03617Y03271D02*
X03637D01*
X04047Y03244D02*
X04182D01*
X04216Y0321*
X05371Y03309D02*
X05381Y03299D01*
X04403Y03309D02*
X05371D01*
X03753Y03208D02*
X03754Y03207D01*
X03768*
X03769Y03208*
X03786*
X03747Y03195D02*
X03749Y03194D01*
X03773*
X03775Y03195*
X0378*
X03712Y03208D02*
X03753D01*
X03707Y03195D02*
X03747D01*
X0378D02*
X03801Y03174D01*
X03806*
X03786Y03208D02*
X03807Y03187D01*
X03811*
X03859Y03177D02*
Y03184D01*
X03877Y03203*
X03872Y03172D02*
Y03179D01*
X03883Y0319*
X03844Y03162D02*
X03859Y03177D01*
X03849Y03149D02*
X03872Y03172D01*
X03883Y0319D02*
X03963D01*
X03688Y03232D02*
Y03238D01*
Y03232D02*
X03712Y03208D01*
X03675Y03227D02*
Y03233D01*
Y03227D02*
X03707Y03195D01*
X03641Y03285D02*
X03688Y03238D01*
X03637Y03271D02*
X03675Y03233D01*
X03811Y03187D02*
X03829Y03169D01*
Y03165D02*
Y03169D01*
Y03165D02*
X03832Y03162D01*
X03844*
X03806Y03174D02*
X03816Y03164D01*
Y0316D02*
Y03164D01*
Y0316D02*
X03822Y03153D01*
X04324Y03229D02*
Y0323D01*
X04403Y03309*
X04221Y03223D02*
X04298D01*
X04362Y03286*
X04216Y0321D02*
X04304D01*
X04324Y03229*
X06515Y0402D02*
X06522Y04027D01*
X06512Y04007D02*
X06522Y03997D01*
X03707Y03127D02*
X03808D01*
X03811Y03123D02*
X03866D01*
X03661Y03173D02*
X03707Y03127D01*
X03866Y03123D02*
X03874Y03131D01*
X03808Y03127D02*
X03811Y03123D01*
X03896D02*
X0392D01*
X03925Y03128*
X03888Y03131D02*
X03896Y03123D01*
X03977Y03128D02*
X03997Y03148D01*
X03925Y03128D02*
X03977D01*
X03646Y03221D02*
X03661Y03206D01*
Y03173D02*
Y03206D01*
X03646Y03221D02*
Y03221D01*
X03874Y03131D02*
X03888D01*
X03997Y03148D02*
X04129D01*
X0416Y03179*
X04207*
X04242Y03114D02*
D01*
X04246Y03111*
X04207Y03179D02*
X04226Y0316D01*
Y03131D02*
X04242Y03114D01*
X04226Y03131D02*
Y0316D01*
X04246Y03111D02*
X0433D01*
X04334Y03114*
X04433Y03214*
X055*
X05553Y03266*
Y03355*
X06204Y04007*
X06512*
X03712Y0314D02*
X03813D01*
X03817Y03136D02*
X03861D01*
X03674Y03178D02*
X03712Y0314D01*
X03861Y03136D02*
X03869Y03144D01*
X03813Y0314D02*
X03817Y03136D01*
X03902D02*
X03915D01*
X0392Y03141D02*
X03972D01*
X03869Y03144D02*
X03894D01*
X03915Y03136D02*
X0392Y03141D01*
X03894Y03144D02*
X03902Y03136D01*
X03622Y03221D02*
X03639Y03238D01*
X03607Y03221D02*
X03622D01*
X03663Y03222D02*
X03674Y03211D01*
Y03178D02*
Y03211D01*
X03639Y03238D02*
X03653D01*
X03663Y03222D02*
Y03228D01*
X03653Y03238D02*
X03663Y03228D01*
X03972Y03141D02*
X03992Y03161D01*
X04124*
X04155Y03192*
X04239Y03137D02*
Y03165D01*
X04155Y03192D02*
X04212D01*
X04239Y03137D02*
X04252Y03124D01*
X04325*
X04212Y03192D02*
X04239Y03165D01*
X04325Y03124D02*
X04428Y03227D01*
X05495*
X0554Y03272*
Y0336*
X06199Y0402*
X06515*
X03806Y02535D02*
X03971D01*
X04058Y02448D02*
X04457D01*
X03971Y02535D02*
X04058Y02448D01*
X04457D02*
X04529Y0252D01*
X04585*
X03804Y02518D02*
X03965D01*
X04051Y02432D02*
X04464D01*
X03965Y02518D02*
X04051Y02432D01*
X03615Y02899D02*
X03637Y02921D01*
X04464Y02432D02*
X04536Y02504D01*
X04585D02*
X04593Y02496D01*
X04536Y02504D02*
X04585D01*
X03607Y02873D02*
X03633Y02847D01*
Y02825D02*
Y02847D01*
Y02825D02*
X03661Y02797D01*
X03607Y02873D02*
Y02881D01*
X0362Y0282D02*
Y02842D01*
X0359Y02872D02*
X0362Y02842D01*
X03599Y02899D02*
X03615D01*
X0359Y02872D02*
Y02889D01*
X03599Y02899*
X04585Y0252D02*
X04593Y02527D01*
X03979Y0241D02*
X04057Y02332D01*
X0379Y0241D02*
X03979D01*
X03601Y02798D02*
X03602D01*
X03601Y02787D02*
Y02798D01*
X04057Y02332D02*
X04666D01*
X05064Y0273*
X05592*
X05602Y02739*
X03575Y02647D02*
D01*
X03784Y02397D02*
X03974D01*
X04048Y02323*
X03575Y0278D02*
X03584Y02788D01*
X03575Y0278D02*
D01*
X03584Y02805D02*
X03603Y02824D01*
X03584Y02788D02*
Y02805D01*
X03603Y02824D02*
Y02835D01*
X04048Y02323D02*
D01*
X04051Y02319D02*
X04671D01*
X04048Y02323D02*
X04051Y02319D01*
X04671D02*
X04675Y02323D01*
X05069Y02717*
X05592D02*
X05602Y02708D01*
X05069Y02717D02*
X05592D01*
X06239Y03266D02*
Y03456D01*
X06226Y03272D02*
Y03461D01*
X06239Y03456D02*
X06266Y03483D01*
X06369*
X06226Y03461D02*
X06261Y03496D01*
X06363*
X03724Y02859D02*
D01*
X03807Y02724D02*
X03861D01*
X03724Y02859D02*
X0378Y02803D01*
Y02751D02*
X03807Y02724D01*
X0378Y02751D02*
Y02803D01*
X03713Y02929D02*
X03716Y02932D01*
X03713Y0287D02*
Y02929D01*
X03716Y02932D02*
Y02952D01*
X03712Y02956D02*
X03716Y02952D01*
X04772Y02658D02*
X05006Y02892D01*
X05661*
X05875Y03106*
X06078*
X06239Y03266*
X06369Y03483D02*
X06391Y03505D01*
X06413*
X06422Y03497*
X03726Y02876D02*
Y02924D01*
X03813Y02737D02*
X03867D01*
X03793Y02757D02*
X03813Y02737D01*
X03793Y02757D02*
Y02809D01*
X03677Y02949D02*
Y02952D01*
X03684*
X03726Y02924D02*
X03729Y02927D01*
Y02963*
X03684Y02952D02*
X03705Y02973D01*
X03719D02*
X03729Y02963D01*
X03705Y02973D02*
X03719D01*
X04767Y02671D02*
X05001Y02905D01*
X05656*
X0587Y03119*
X06073*
X06226Y03272*
X06385Y03518D02*
X06413D01*
X06422Y03527*
X06363Y03496D02*
X06385Y03518D01*
X06352Y03439D02*
X06386Y03473D01*
X06357Y03426D02*
X06391Y0346D01*
X0629Y03439D02*
X06352D01*
X06296Y03426D02*
X06357D01*
X06275Y03405D02*
X06296Y03426D01*
X06262Y0341D02*
X0629Y03439D01*
X06275Y0319D02*
Y03405D01*
X06262Y03196D02*
Y0341D01*
X03717Y02692D02*
Y02775D01*
Y02692D02*
X03743Y02665D01*
X03699Y02792D02*
X03709Y02782D01*
X03709D02*
X03717Y02775D01*
X03709Y02782D02*
X03709D01*
X03747Y02662D02*
X03833D01*
X03867Y02628D02*
X04842D01*
X03833Y02662D02*
X03867Y02628D01*
X03743Y02665D02*
D01*
X04842Y02628D02*
X0506Y02846D01*
X03743Y02665D02*
X03747Y02662D01*
X03699Y02806D02*
X03709Y02816D01*
X03699Y02792D02*
Y02806D01*
X03709Y02816D02*
X03717D01*
X0372Y02819*
Y02838*
X0506Y02846D02*
X05705D01*
X05719Y02861*
X05903Y03044*
X06128*
X06391Y0346D02*
X0645D01*
X06465Y03474*
Y03522*
X06498Y03555*
X06513*
X06522Y03547*
X03716Y02793D02*
X0373Y0278D01*
Y02698D02*
Y0278D01*
X03716Y02793D02*
Y02799D01*
X03753Y02675D02*
X03839D01*
X03873Y02641D02*
X04837D01*
X0373Y02698D02*
X03753Y02675D01*
X04837Y02641D02*
X05023Y02827D01*
X03839Y02675D02*
X03873Y02641D01*
X05023Y02827D02*
X05055Y02859D01*
X05023Y02827D02*
D01*
X05055Y02859D02*
X05699D01*
X05897Y03057*
X06123*
X06386Y03473D02*
X06445D01*
X06452Y0348*
Y03527*
X06493Y03568*
X06513*
X06522Y03577*
X06128Y03044D02*
X06275Y0319D01*
X06123Y03057D02*
X06262Y03196D01*
X06394Y03405D02*
X06513D01*
X06389Y03418D02*
X06513D01*
X06356Y03367D02*
X06394Y03405D01*
X06343Y03372D02*
X06389Y03418D01*
X06356Y03163D02*
Y03367D01*
X06343Y03173D02*
Y03372D01*
X06337Y03168D02*
X06343Y03173D01*
X06348Y03155D02*
X06356Y03163D01*
X06513Y03418D02*
X06522Y03427D01*
X04287Y02575D02*
X04307Y02595D01*
X0431Y02598*
X03645Y0287D02*
Y02877D01*
Y0287D02*
X03659Y02857D01*
X03645Y02877D02*
Y02881D01*
X03659Y02834D02*
X03686Y02807D01*
X03659Y02834D02*
Y02857D01*
X05754Y02811D02*
X05914Y02971D01*
X05079Y02811D02*
X05754D01*
X05914Y02971D02*
X061D01*
X06297Y03168*
X06513Y03405D02*
X06522Y03397D01*
X04292Y02562D02*
X04316Y02585D01*
X03628Y02869D02*
X03646Y02852D01*
Y02829D02*
Y02852D01*
X03628Y02869D02*
Y02884D01*
X03638Y02894*
X03652*
X03646Y02829D02*
X03673Y02802D01*
X03666Y02881D02*
X03685D01*
X03652Y02894D02*
X03666Y02881D01*
X05759Y02798D02*
X05919Y02958D01*
X05085Y02798D02*
X05759D01*
X05919Y02958D02*
X06106D01*
X06303Y03155*
X06348*
X06297Y03168D02*
X06337D01*
X03283Y0346D02*
X03501D01*
X03051Y03228D02*
X03283Y0346D01*
X03051Y03041D02*
Y03228D01*
X02999Y02989D02*
X03051Y03041D01*
X02999Y02682D02*
Y02989D01*
X04316Y02585D02*
X04872D01*
X05085Y02798*
X0431Y02598D02*
X04867D01*
X05079Y02811*
X03927Y02658D02*
X04772D01*
X03861Y02724D02*
X03899Y02686D01*
X03904*
X03916Y02674*
Y02669D02*
Y02674D01*
Y02669D02*
X03927Y02658D01*
X03867Y02737D02*
X03905Y02699D01*
X0391*
X03929Y0268*
Y02675D02*
Y0268D01*
Y02675D02*
X03933Y02671D01*
X04767*
X03589Y02653D02*
Y02775D01*
X03601Y02787*
X03575Y02647D02*
X03576Y02648D01*
Y0278*
X03575Y0278D02*
X03576Y0278D01*
X03691Y02508D02*
X0379Y0241D01*
X03691Y02508D02*
Y0255D01*
X03589Y02653D02*
X03691Y0255D01*
X03678Y02503D02*
X03784Y02397D01*
X03678Y02503D02*
Y02545D01*
X03575Y02647D02*
X03678Y02545D01*
X0362Y0282D02*
X03648Y02791D01*
X03713Y0287D02*
X03724Y02859D01*
X03726Y02876D02*
X03793Y02809D01*
X03851Y02919D02*
X03887Y02884D01*
X04211*
X03863Y02888D02*
X0388Y02871D01*
X04205*
X03832Y02917D02*
X03834D01*
X04394Y02839D02*
X04401Y02846D01*
X04605D02*
X04808Y03049D01*
X05572*
X05959Y03435*
Y03504*
X06089Y03634*
Y03719*
X06196Y03826*
X06462*
X06491Y03855*
X06513*
X06522Y03847*
X03834Y02917D02*
X03844Y02907D01*
X03846*
X03863Y0289*
Y02888D02*
Y0289D01*
X03841Y02934D02*
X03851Y02924D01*
X03827Y02934D02*
X03841D01*
X04389Y02852D02*
X04391Y02855D01*
X04395Y02859*
X04599D02*
X04802Y03062D01*
X05566*
X05946Y03441*
Y03509*
X06076Y03639*
Y03724D02*
X0619Y03839D01*
X06076Y03639D02*
Y03724D01*
X0619Y03839D02*
X06456D01*
X06486Y03868*
X06513*
X06522Y03877*
X03791Y02917D02*
X0381D01*
X03827Y02934*
X03851Y02919D02*
Y02924D01*
X04211Y02884D02*
X04242Y02852D01*
X04205Y02871D02*
X04237Y02839D01*
X04395Y02859D02*
X04599D01*
X04401Y02846D02*
X04605D01*
X04242Y02852D02*
X04389D01*
X04237Y02839D02*
X04394D01*
X03891Y02817D02*
X04044D01*
X03897Y0283D02*
X04049D01*
X04044Y02817D02*
X04119Y02742D01*
X03831Y02877D02*
X03831Y02878D01*
X03834*
X04119Y02742D02*
X04132Y02729D01*
X04514*
X04569Y02784*
X0479*
X05001Y02995*
X05626*
X0584Y03209*
X0612Y03578D02*
X06173Y03631D01*
X06313*
X06388Y03705*
X06513*
X06522Y03697*
X03829Y02861D02*
X03834Y02855D01*
Y02842D02*
Y02855D01*
X03817Y0287D02*
Y02888D01*
Y0287D02*
X03826Y02861D01*
X03817Y02888D02*
X03823Y02894D01*
X03826D02*
X03826Y02895D01*
X03823Y02894D02*
X03826D01*
X03826Y02861D02*
X03829D01*
X03851Y02876D02*
X03897Y0283D01*
X03826Y02895D02*
X03841D01*
X03851Y02876D02*
Y02885D01*
X03841Y02895D02*
X03851Y02885D01*
X04049Y0283D02*
X04137Y02742D01*
X04508*
X04563Y02797*
X04785*
X04996Y03008*
X05621*
X05835Y03222*
X06107Y03583D02*
X06167Y03644D01*
X06307*
X06382Y03718*
X06513*
X06522Y03727*
X0385Y02789D02*
X03906D01*
X03932Y02764*
X03844Y02776D02*
X03901D01*
X03926Y02751*
X04041*
X04106Y02686*
X03932Y02764D02*
X04046D01*
X04111Y02699*
X03755Y029D02*
X0377Y02885D01*
Y02851D02*
Y02885D01*
X04739Y02686D02*
X04987Y02934D01*
X03755Y029D02*
Y02912D01*
X04987Y02934D02*
X05625D01*
X05845Y03154*
X06344Y03543D02*
X06366Y03564D01*
Y03631*
X0639Y03655*
X06413*
X06422Y03647*
X03753Y02877D02*
Y02884D01*
X03783Y02856D02*
Y0289D01*
X03742Y02895D02*
Y029D01*
X03738Y02919D02*
X03747Y02929D01*
X03738Y02904D02*
X03742Y029D01*
X03738Y02904D02*
Y02919D01*
X03742Y02895D02*
X03753Y02884D01*
X03772Y02901D02*
X03783Y0289D01*
X03747Y02929D02*
X03762D01*
X03772Y02901D02*
Y02919D01*
X03762Y02929D02*
X03772Y02919D01*
X04734Y02699D02*
X04982Y02947D01*
X0562*
X0584Y03167*
X06339Y03556D02*
X06353Y0357D01*
Y03636*
X06385Y03668*
X06413*
X06422Y03677*
X0377Y02851D02*
X03844Y02776D01*
X04106Y02686D02*
X04739D01*
X03783Y02856D02*
X0385Y02789D01*
X04111Y02699D02*
X04734D01*
X03834Y02592D02*
X03864Y02562D01*
X04292*
X03839Y02605D02*
X03869Y02575D01*
X04287*
X03767Y02555D02*
X03804Y02518D01*
X03773Y02568D02*
X03806Y02535D01*
X03648Y02629D02*
Y02791D01*
Y02629D02*
X03723Y02555D01*
X03767*
X03661Y02635D02*
Y02797D01*
Y02635D02*
X03728Y02568D01*
X03773*
X03686Y02666D02*
Y02807D01*
Y02666D02*
X03748Y02605D01*
X03839*
X03673Y02661D02*
Y02802D01*
Y02661D02*
X03742Y02592D01*
X03834*
X04757Y04263D02*
X05456D01*
X04763Y0425D02*
X05461D01*
X04019Y03491D02*
X04024D01*
X04011Y03499D02*
X04019Y03491D01*
X04024D02*
X04037Y03504D01*
X04062*
X04079Y03521*
Y03626D02*
X04105Y03653D01*
X04079Y03521D02*
Y03626D01*
X04105Y03653D02*
X04282D01*
X04411Y03782*
X04569*
X04605Y03818*
Y0411*
X04757Y04263*
X06037Y04934D02*
X06046Y04924D01*
Y04853D02*
Y04924D01*
X04034Y03482D02*
X04043Y03491D01*
X04034Y03465D02*
Y03482D01*
X04043Y03491D02*
X04067D01*
X04092Y03515*
Y03621D02*
X04111Y0364D01*
X04092Y03515D02*
Y03621D01*
X04111Y0364D02*
X04287D01*
X04416Y03769*
X04574*
X04618Y03812*
Y04105D02*
X04763Y0425D01*
X04618Y03812D02*
Y04105D01*
X06059Y04847D02*
Y04924D01*
X06069Y04934*
X05456Y04263D02*
X06046Y04853D01*
X05461Y0425D02*
X06059Y04847D01*
X04796Y04217D02*
X05494D01*
X04802Y04204D02*
X055D01*
X04231Y0352D02*
X04243Y03532D01*
X04231Y03501D02*
Y0352D01*
X04243Y03532D02*
Y0354D01*
X04292Y0359*
X04369*
X04398Y03619*
Y03684*
X04451Y03738*
X04622*
X04658Y03774*
Y04078D02*
X04796Y04217D01*
X04658Y03774D02*
Y04078D01*
X061Y04934D02*
X06109Y04924D01*
Y04832D02*
Y04924D01*
X04268Y0354D02*
Y03547D01*
X04298Y03577*
X04374*
X04411Y03613*
Y03679*
X04457Y03725*
X04627*
X04671Y03768*
Y04073*
X04802Y04204*
X06122Y04826D02*
Y04923D01*
X06132Y04933*
X05494Y04217D02*
X06109Y04832D01*
X055Y04204D02*
X06122Y04826D01*
X04836Y04161D02*
X05551D01*
X04841Y04148D02*
X05556D01*
X04122Y03455D02*
X04135D01*
X0411Y03468D02*
X04122Y03455D01*
X04146Y03444D02*
X04199D01*
X04135Y03455D02*
X04146Y03444D01*
X04199D02*
X04246Y03491D01*
X04286*
X04349Y03554*
X04571*
X04728Y03711*
Y04053*
X04836Y04161*
X06188Y04797D02*
Y04925D01*
X06195Y04932*
Y04933*
X04111Y0343D02*
X04123Y03442D01*
X0413*
X0414Y03431D02*
X04205D01*
X0413Y03442D02*
X0414Y03431D01*
X04205D02*
X04251Y03478D01*
X04291*
X04354Y03541*
X04576*
X04737Y03701*
X04741Y03705*
Y04047*
X04841Y04148*
X06201Y04914D02*
X06212Y04925D01*
X06201Y04792D02*
Y04914D01*
X06165Y04932D02*
X0617D01*
X06205Y0495D02*
X06212Y04943D01*
Y04925D02*
Y04943D01*
X0617Y04932D02*
X06187Y0495D01*
X06205*
X05551Y04161D02*
X06188Y04797D01*
X05556Y04148D02*
X06201Y04792D01*
X04847Y04106D02*
X05636D01*
X04853Y04093D02*
X05641D01*
X04118Y03413D02*
X04124Y03419D01*
X0423D02*
X04236Y03414D01*
X04266Y03384D02*
X04456D01*
X04236Y03414D02*
X04266Y03384D01*
X04456D02*
X04768Y03696D01*
X04124Y03419D02*
X0423D01*
X04768Y04026D02*
X04847Y04106D01*
X04768Y03696D02*
Y04026D01*
X0626Y04935D02*
X06266Y04941D01*
X06282*
X0629Y0476D02*
Y04933D01*
X06282Y04941D02*
X0629Y04933D01*
X04123Y034D02*
X0413Y03406D01*
X04225*
X04261Y03371D02*
X04461D01*
X04225Y03406D02*
X04261Y03371D01*
X04461D02*
X04781Y0369D01*
Y04021*
X04853Y04093*
X06229Y04936D02*
Y04936D01*
X06246Y04954*
X06303Y04754D02*
Y04938D01*
X06287Y04954D02*
X06303Y04938D01*
X06246Y04954D02*
X06287D01*
X05636Y04106D02*
X0629Y0476D01*
X05641Y04093D02*
X06303Y04754D01*
X05835Y03222D02*
X05921D01*
X06107Y03407*
Y03583*
X0584Y03209D02*
X05927D01*
X0612Y03401*
Y03578*
X06178Y03529D02*
X06204Y03556D01*
X06339*
X06191Y03523D02*
X0621Y03543D01*
X06344*
X0584Y03167D02*
X05962D01*
X06178Y03383*
Y03529*
X05845Y03154D02*
X05967D01*
X06191Y03377*
Y03523*
X03647Y02497D02*
Y02531D01*
Y02497D02*
X03867Y02277D01*
X03634Y02491D02*
Y02525D01*
Y02491D02*
X03861Y02264D01*
X04859Y02277D02*
X0493Y02348D01*
Y02506D02*
X04933Y0251D01*
X0493Y02348D02*
Y02506D01*
X04933Y0251D02*
X05062Y02639D01*
X04933Y0251D02*
D01*
X03559Y02791D02*
X03566Y02799D01*
X03559Y02618D02*
Y02791D01*
Y02618D02*
X03647Y02531D01*
X05062Y02639D02*
X05791D01*
X05827Y02675*
Y02794D02*
X05944Y02911D01*
X05827Y02675D02*
Y02794D01*
X05944Y02911D02*
X06094D01*
X06296Y03113*
X06346*
X0637Y03138*
Y032*
X06389Y03218*
X06413*
X06422Y03227*
X06395Y03205D02*
X06413D01*
X06383Y03194D02*
X06395Y03205D01*
X06383Y03132D02*
Y03194D01*
X06351Y031D02*
X06383Y03132D01*
X06413Y03205D02*
X06422Y03197D01*
X04864Y02264D02*
X0487Y0227D01*
X0487Y0227D02*
X04943Y02342D01*
Y025*
X04946Y02504*
X03546Y02811D02*
X03567Y02832D01*
X03546Y02613D02*
Y02811D01*
X03567Y02832D02*
Y02841D01*
X03546Y02613D02*
X03634Y02525D01*
X04946Y02504D02*
X05068Y02626D01*
X05796*
X0584Y0267*
Y02789D02*
X05949Y02898D01*
X0584Y0267D02*
Y02789D01*
X05949Y02898D02*
X06099D01*
X06301Y031*
X06351*
X03867Y02277D02*
X04859D01*
X03861Y02264D02*
X04864D01*
X03551Y02908D02*
Y02917D01*
X03507Y02613D02*
Y02845D01*
X05041Y02238D02*
X05051Y02248D01*
X03507Y02613D02*
X03606Y02514D01*
X03564Y02912D02*
X03589Y02936D01*
Y02981*
X03607Y02999*
X03494Y02607D02*
Y02851D01*
Y02607D02*
X03593Y02508D01*
X05041Y02225D02*
X05051Y02216D01*
X03551Y02917D02*
X03576Y02942D01*
Y03007*
X03607Y03038*
X03494Y02851D02*
X03551Y02908D01*
X03507Y02845D02*
X03564Y02902D01*
Y02912*
X06354Y03068D02*
X06398Y03113D01*
X06432D02*
X06458Y03138D01*
Y03249*
X03474Y02853D02*
X03519Y02899D01*
X03474Y02592D02*
Y02853D01*
X04929Y02188D02*
X04958Y02159D01*
X03474Y02592D02*
X03563Y02503D01*
X03521Y02917D02*
X03523Y02915D01*
X03519Y02899D02*
Y02917D01*
X03521*
X04958Y02159D02*
X05496D01*
X0604Y02703*
X06513Y03268D02*
X06522Y03277D01*
X06477Y03268D02*
X06513D01*
X06458Y03249D02*
X06477Y03268D01*
X06398Y03113D02*
X06432D01*
X06303Y03068D02*
X06354D01*
X0604Y02805D02*
X06303Y03068D01*
X0604Y02703D02*
Y02805D01*
X06359Y03055D02*
X06404Y031D01*
X06438D02*
X06467Y03128D01*
X06471Y03132*
X03461Y02859D02*
X03502Y029D01*
X03461Y02586D02*
Y02859D01*
X04924Y02175D02*
X04953Y02146D01*
X03461Y02586D02*
X0355Y02497D01*
X03502Y02924D02*
X03512Y02934D01*
X03502Y029D02*
Y02924D01*
X03512Y02934D02*
X03532D01*
X03555Y02956*
X04953Y02146D02*
X05501D01*
X06053Y02697*
X06513Y03255D02*
X06522Y03247D01*
X06482Y03255D02*
X06513D01*
X06471Y03132D02*
Y03244D01*
X06482Y03255*
X06404Y031D02*
X06438D01*
X06053Y02799D02*
X06309Y03055D01*
X06359*
X06053Y02697D02*
Y02799D01*
X05571Y02112D02*
X059Y02441D01*
X06318Y03027D02*
X06351D01*
X0335Y02932D02*
X03362Y02944D01*
X0341*
X03449Y02982*
Y02992D02*
X03479Y03022D01*
X03449Y02982D02*
Y02992D01*
X03479Y03022D02*
X03511D01*
X03515Y03026*
X03515*
X03528Y03038*
X059Y02495D02*
X06128Y02723D01*
X059Y02441D02*
Y02495D01*
X06128Y02836D02*
X06315Y03023D01*
X06318Y03027*
X06393Y03068D02*
X06413D01*
X06422Y03077*
X06351Y03027D02*
X06393Y03068D01*
X06128Y02723D02*
Y02836D01*
X05576Y02099D02*
X05909Y02431D01*
X0632Y0301D02*
X06353D01*
X03337Y02937D02*
X0334Y02941D01*
X03356Y02957*
X03405D02*
X03436Y02988D01*
X03356Y02957D02*
X03405D01*
X03436Y02997D02*
X03473Y03035D01*
X03436Y02988D02*
Y02997D01*
X03473Y03035D02*
X03505D01*
X03511Y0304*
Y03045*
X03552Y03038D02*
X03567D01*
X03511Y03045D02*
X03521Y03055D01*
X03535D02*
X03552Y03038D01*
X03521Y03055D02*
X03535D01*
X05909Y02431D02*
D01*
X05913Y02435*
Y02489*
X06141Y02717*
X06398Y03055D02*
X06413D01*
X06422Y03047*
X06141Y0283D02*
X0632Y0301D01*
X06353D02*
X06398Y03055D01*
X06141Y02717D02*
Y0283D01*
X03322Y02947D02*
X03348Y02973D01*
X03385*
X03479Y03067*
X05846Y02054D02*
X05909Y0199D01*
X03639Y02991D02*
Y03039D01*
X03479Y03067D02*
X03611D01*
X03639Y03039*
X05909Y0199D02*
X0599D01*
X05999Y02*
X03309Y02952D02*
X03342Y02986D01*
X03639Y02952D02*
Y02966D01*
X03342Y02986D02*
X03379D01*
X03626Y03071D02*
D01*
X03379Y02986D02*
X03474Y0308D01*
X03616D02*
X03626Y03071D01*
X03474Y0308D02*
X03616D01*
X03639Y02966D02*
X03657Y02984D01*
X03626Y03071D02*
X03652Y03045D01*
Y03004D02*
X03657Y02999D01*
X03652Y03004D02*
Y03045D01*
X05904Y01977D02*
X0599D01*
X05999Y01968*
X0584Y02041D02*
X05904Y01977D01*
X03657Y02984D02*
Y02999D01*
X03275Y02948D02*
X03328Y03001D01*
X03374*
X03386Y03013*
X03386*
X03404Y0303D02*
Y03031D01*
X05835Y02016D02*
X05856Y01995D01*
X03386Y03013D02*
X03404Y0303D01*
Y03031D02*
X03468Y03095D01*
X03531*
X03557Y03121*
X03591*
X03598Y03114*
X03601*
X03602Y03115*
X05856Y01995D02*
D01*
X06014Y01913D02*
X06038Y01938D01*
X05938Y01913D02*
X06014D01*
X05856Y01995D02*
X05938Y01913D01*
X06038Y01938D02*
Y02448D01*
X06107Y02516*
Y02608*
X06191Y02692*
Y02791*
X06221Y02822*
Y0288*
X0631Y02969*
X06351D02*
X06411Y03029D01*
X0631Y02969D02*
X06351D01*
X06411Y03029D02*
X06442D01*
X06465Y03052*
Y03096*
X06483Y03114*
X06487Y03118*
X06513*
X06522Y03127*
X03262Y02953D02*
X03322Y03014D01*
X03368*
X0338Y03026*
X03381D02*
X03391Y03036D01*
X0338Y03026D02*
X03381D01*
X05933Y019D02*
X06019D01*
X0583Y02003D02*
X05933Y019D01*
X03391Y03036D02*
Y03036D01*
X03462Y03108*
X03525*
X03551Y03134*
X03615*
X03633Y03115*
X06019Y019D02*
X06048Y01928D01*
X06051Y01932*
Y02442*
X0612Y0251*
Y02603*
X06204Y02687*
Y02786*
X06234Y02816*
Y02875*
X06315Y02956*
X06357*
X06417Y03016*
X06447D02*
X06478Y03046D01*
X06417Y03016D02*
X06447D01*
X06478Y03046D02*
Y03091D01*
X06492Y03105*
X06513*
X06522Y03097*
X03404Y03084D02*
X03472Y03152D01*
X0353Y03153D02*
Y03156D01*
X05839Y01955D02*
X05918Y01876D01*
X05839Y01955D02*
D01*
X05815Y01979D02*
X05839Y01955D01*
X03279Y02999D02*
Y0305D01*
X03232Y02952D02*
X03279Y02999D01*
X05918Y01876D02*
X06036D01*
X06082Y01922*
Y02417*
X06174Y02509*
X03279Y0305D02*
X03312Y03084D01*
X03404*
X06174Y02599D02*
X06253Y02678D01*
Y02814D02*
X06357Y02918D01*
X06253Y02678D02*
Y02814D01*
X06357Y02918D02*
X06413D01*
X06422Y02927*
X06174Y02509D02*
Y02599D01*
X03516Y03165D02*
X03522Y03171D01*
X03466Y03165D02*
X03516D01*
X03398Y03097D02*
X03466Y03165D01*
X03551Y03157D02*
X03568D01*
X03536Y03171D02*
X03551Y03157D01*
X03522Y03171D02*
X03536D01*
X0581Y01966D02*
X05913Y01863D01*
X03266Y03005D02*
Y03056D01*
X03219Y02958D02*
X03266Y03005D01*
X05913Y01863D02*
X06041D01*
X06095Y01916*
Y02412*
X06187Y02504*
X03266Y03056D02*
X03307Y03097D01*
X03398*
X06187Y02504D02*
Y02593D01*
X06266Y02672*
Y02808*
X06362Y02905*
X06413*
X06422Y02897*
X03455Y03171D02*
X03466Y03182D01*
X03287Y03171D02*
X03455D01*
X03248Y03131D02*
X03287Y03171D01*
X03516Y03182D02*
X03517Y03183D01*
X03466Y03182D02*
X03516D01*
X03529Y03183D02*
X03542Y03195D01*
X03517Y03183D02*
X03529D01*
X03552Y03205D02*
X03552D01*
X03542Y03196D02*
X03552Y03205D01*
X03542Y03195D02*
Y03196D01*
X05459Y0194D02*
X0548Y01919D01*
X03181Y02948D02*
X03248Y03015D01*
Y03131*
X03552Y03205D02*
X03567Y03221D01*
X0548Y01919D02*
X05499D01*
X05509Y01928*
X0345Y03184D02*
X03461Y03195D01*
X03282Y03184D02*
X0345D01*
X03235Y03136D02*
X03282Y03184D01*
X03511Y03195D02*
X03512Y03196D01*
X03461Y03195D02*
X03511D01*
X03519Y03196D02*
X0355Y03227D01*
X03512Y03196D02*
X03519D01*
X03562Y03238D02*
X03567Y03243D01*
X0356Y03238D02*
X03562D01*
X0355Y03228D02*
X0356Y03238D01*
X0355Y03227D02*
Y03228D01*
X03567Y03243D02*
Y0326D01*
X05454Y01927D02*
X05475Y01906D01*
X03168Y02954D02*
X03235Y03021D01*
Y03136*
X05475Y01906D02*
X055D01*
X05509Y01897*
X032Y03011D02*
Y03168D01*
X03142Y02953D02*
X032Y03011D01*
X03232Y03199D02*
Y03267D01*
X032Y03168D02*
X03232Y03199D01*
X03335Y03322D02*
X03409Y03249D01*
X0351*
X03232Y03267D02*
X03287Y03322D01*
X03335*
X0351Y03249D02*
X03523Y03236D01*
X0532Y01888D02*
X0533Y01897D01*
X03187Y03017D02*
Y03173D01*
X03148Y02977D02*
X03187Y03017D01*
X03148Y02977D02*
D01*
X03129Y02959D02*
X03148Y02977D01*
X03187Y03173D02*
X03219Y03205D01*
Y03273*
X0324Y03293*
X03282Y03335*
X03341D02*
X03414Y03262D01*
X03282Y03335D02*
X03341D01*
X03414Y03262D02*
X0351D01*
X03523Y03275*
X05321Y01875D02*
X0533Y01866D01*
X03169Y0303D02*
Y0324D01*
X03106Y02967D02*
X03169Y0303D01*
X05747Y01841D02*
X05755Y01849D01*
X03515Y03352D02*
X03526Y0334D01*
X03281Y03352D02*
X03515D01*
X03169Y0324D02*
X03281Y03352D01*
X03156Y03036D02*
Y03245D01*
X03093Y02973D02*
X03156Y03036D01*
X05747Y01827D02*
X05755Y01818D01*
X03515Y03368D02*
X03526Y0338D01*
X03279Y03368D02*
X03515D01*
X03156Y03245D02*
X03279Y03368D01*
X02763Y03476D02*
X02805Y03518D01*
X03148*
X03167Y03498D02*
X03427D01*
X03479Y0355*
X0588Y01758D02*
X05889Y01767D01*
X03479Y0355D02*
X03513D01*
X03526Y03537*
X03148Y03518D02*
X03167Y03498D01*
X0275Y03481D02*
X02796Y03527D01*
X03173Y03511D02*
X03422D01*
X02796Y03527D02*
D01*
X028Y03531*
X03153*
X03157Y03527*
X03173Y03511*
X03422D02*
X03474Y03563D01*
X03513D02*
X03526Y03577D01*
X03474Y03563D02*
X03513D01*
X0588Y01745D02*
X05889Y01736D01*
X06128Y01691D02*
X06253Y01816D01*
X03314Y03577D02*
X03352D01*
X03287Y03549D02*
X03314Y03577D01*
X02745Y03549D02*
X03287D01*
X03393Y03618D02*
Y03717D01*
X06379Y02455D02*
X06428D01*
X06372Y02449D02*
X06379Y02455D01*
X06428D02*
X06442Y02441D01*
Y02374D02*
Y02441D01*
X06428Y02361D02*
X06442Y02374D01*
X06285Y02361D02*
X06428D01*
X06253Y0233D02*
X06285Y02361D01*
X06253Y01816D02*
Y0233D01*
X03612Y03663D02*
X03612Y03662D01*
D01*
X03639Y03635D02*
X03675D01*
X03687Y03623*
X03612Y03662D02*
X03639Y03635D01*
X03352Y03577D02*
X03393Y03618D01*
X02649Y03454D02*
X02745Y03549D01*
X03612Y03663D02*
Y03744D01*
X06134Y01678D02*
X06266Y01811D01*
X03309Y0359D02*
X03347D01*
X03281Y03562D02*
X03309Y0359D01*
X0274Y03562D02*
X03281D01*
X0338Y03624D02*
Y03722D01*
X03724Y03539D02*
X03728D01*
X06379Y02468D02*
X06433D01*
X06455Y02446*
X06372Y02475D02*
X06379Y02468D01*
X06455Y02369D02*
Y02446D01*
X06434Y02348D02*
X06455Y02369D01*
X0629Y02348D02*
X06434D01*
X06266Y02324D02*
X0629Y02348D01*
X06266Y01811D02*
Y02324D01*
X03645Y03648D02*
X0368D01*
X03684Y03645*
X03625Y03668D02*
X03645Y03648D01*
X03684Y03645D02*
D01*
X037Y03628*
X03347Y0359D02*
X0338Y03624D01*
X02636Y03459D02*
X0274Y03562D01*
X03625Y03668D02*
Y03749D01*
X03359Y03823D02*
X03376Y03841D01*
X03359Y03633D02*
Y03823D01*
X06375Y02651D02*
X06431Y02652D01*
X0377Y03556D02*
Y03792D01*
Y03556D02*
X03784Y03542D01*
X03681Y03881D02*
X0377Y03792D01*
X03784Y03516D02*
X03803Y03496D01*
X03784Y03516D02*
Y03542D01*
X06431Y02652D02*
X06483Y026D01*
X03526Y03841D02*
X03566Y03881D01*
X06483Y02371D02*
Y026D01*
X0631Y02198D02*
X06483Y02371D01*
X06157Y01632D02*
X0631Y01785D01*
Y02198*
X06372Y02649D02*
X06375Y02651D01*
X03346Y03828D02*
X03371Y03854D01*
X03346Y03638D02*
Y03828D01*
X03783Y03562D02*
Y03797D01*
Y03562D02*
X03797Y03547D01*
X03686Y03894D02*
X03783Y03797D01*
X03797Y03542D02*
X03803Y03536D01*
X03797Y03542D02*
Y03547D01*
X06434Y02667D02*
X06496Y02606D01*
X0638Y02667D02*
X06434D01*
X03561Y03894D02*
X03686D01*
X0352Y03854D02*
X03561Y03894D01*
X03371Y03854D02*
X0352D01*
X06496Y02365D02*
Y02606D01*
X06323Y01779D02*
Y02192D01*
X06496Y02365*
X06163Y01619D02*
X06323Y01779D01*
X06372Y02675D02*
X0638Y02667D01*
X04524Y01598D02*
X06211D01*
X04486D02*
X04496D01*
X04503Y01605*
X04517*
X04524Y01598*
X04448D02*
X04458D01*
X04465Y01605*
X04479*
X04486Y01598*
X04411D02*
X0442D01*
X04427Y01605*
X04441*
X04448Y01598*
X04373D02*
X04383D01*
X0439Y01605*
X04404*
X04411Y01598*
X04366Y01605D02*
X04373Y01598D01*
X04352Y01605D02*
X04366D01*
X04345Y01598D02*
X04352Y01605D01*
X06383Y01771D02*
Y02054D01*
X03884Y03672D02*
X0391Y03645D01*
Y03484D02*
Y03645D01*
X03884Y03672D02*
Y03706D01*
X03894Y03468D02*
X0391Y03484D01*
X03858Y03468D02*
X03894D01*
X03851Y03475D02*
X03858Y03468D01*
X06211Y01598D02*
X06383Y01771D01*
X03369Y03912D02*
X03754D01*
X03823Y03843*
X03256Y03799D02*
X03369Y03912D01*
X03823Y03767D02*
Y03843D01*
Y03767D02*
X03884Y03706D01*
X03256Y03624D02*
Y03799D01*
X03251Y03619D02*
D01*
X03256Y03624*
X03247Y03615D02*
X03251Y03619D01*
X02705Y03615D02*
X03247D01*
X02583Y03492D02*
X02705Y03615D01*
X03834Y03475D02*
X03851D01*
X03826Y03467D02*
X03834Y03475D01*
X03826Y03435D02*
X03843Y03418D01*
X03826Y03435D02*
Y03467D01*
X06374Y02064D02*
X06383Y02054D01*
X06397Y01765D02*
Y02056D01*
X03919Y03654D02*
D01*
X03923Y0365D01*
X03897Y03677D02*
X03919Y03654D01*
X03923Y03479D02*
Y0365D01*
X03919Y03475D02*
X03923Y03479D01*
X03919Y03475D02*
D01*
X03897Y03677D02*
Y03711D01*
X03899Y03455D02*
X03919Y03475D01*
X03845Y03455D02*
X03899D01*
X06216Y01585D02*
X06397Y01765D01*
X03363Y03925D02*
X03759D01*
X03836Y03848*
X03246Y03808D02*
X03363Y03925D01*
X03836Y03772D02*
Y03848D01*
Y03772D02*
X03897Y03711D01*
X03243Y03804D02*
X03246Y03808D01*
X03243Y03629D02*
Y03804D01*
X03241Y03628D02*
X03243Y03629D01*
X027Y03628D02*
X03241D01*
X02574Y03502D02*
X027Y03628D01*
X02574Y03502D02*
D01*
X03843Y03457D02*
X03845Y03455D01*
X03839Y03453D02*
X03843Y03457D01*
X0257Y03498D02*
X02574Y03502D01*
X06397Y02056D02*
X06405Y02064D01*
X03563Y02489D02*
Y02503D01*
Y02489D02*
X03864Y02188D01*
X04929*
X0355Y02483D02*
Y02497D01*
Y02483D02*
X03858Y02175D01*
X04924*
X03606Y02492D02*
Y02514D01*
Y02492D02*
X0386Y02238D01*
X05041*
X03593Y02486D02*
Y02508D01*
Y02486D02*
X03854Y02225D01*
X05041*
X0335Y02658D02*
Y02932D01*
Y02658D02*
X03896Y02112D01*
X05571*
X03337Y02652D02*
Y02937D01*
Y02652D02*
X0389Y02099D01*
X05576*
X03322Y02638D02*
Y02947D01*
Y02638D02*
X03906Y02054D01*
X05846*
X03309Y02632D02*
Y02952D01*
Y02632D02*
X039Y02041D01*
X0584*
X03275Y02632D02*
Y02948D01*
Y02632D02*
X03891Y02016D01*
X05835*
X03262Y02626D02*
X03885Y02003D01*
X0583*
X03262Y02626D02*
Y02953D01*
X03232Y02622D02*
Y02952D01*
Y02622D02*
X03875Y01979D01*
X05815*
X03219Y02616D02*
X03869Y01966D01*
X0581*
X03219Y02616D02*
Y02958D01*
X03181Y02616D02*
Y02948D01*
Y02616D02*
X03858Y0194D01*
X05459*
X03168Y02611D02*
Y02954D01*
Y02611D02*
X03852Y01927D01*
X05454*
X03142Y02603D02*
Y02953D01*
Y02603D02*
X03858Y01888D01*
X0532*
X03129Y02597D02*
Y02959D01*
Y02597D02*
X03852Y01875D01*
X05321*
X03106Y02586D02*
Y02967D01*
Y02586D02*
X03852Y01841D01*
X05747*
X03093Y02581D02*
Y02973D01*
Y02581D02*
X03846Y01828D01*
X03885*
X03886Y01827*
X05747*
X0383Y01758D02*
X0588D01*
X0275Y02819D02*
X03825Y01745D01*
X0588*
X02636Y02883D02*
X03841Y01678D01*
X06134*
X02636Y02883D02*
Y03459D01*
X02763Y02825D02*
X0383Y01758D01*
X02763Y02825D02*
Y03476D01*
X0275Y02819D02*
Y03481D01*
X02649Y02888D02*
X03847Y01691D01*
X02618Y0286D02*
Y03464D01*
Y0286D02*
X03846Y01632D01*
X06157*
X02605Y02855D02*
X0384Y01619D01*
X06163*
X02605Y02855D02*
Y03469D01*
X02583Y02843D02*
Y03492D01*
Y02843D02*
X03829Y01598D01*
X04345*
X0257Y02838D02*
X03823Y01585D01*
X06216*
X0257Y02838D02*
Y03498D01*
X0627Y02482D02*
Y02627D01*
X03053Y02567D02*
Y02994D01*
Y02567D02*
X03835Y01786D01*
X03053Y02994D02*
X03066Y03007D01*
X03101Y03041*
X03835Y01786D02*
X06161D01*
X06227Y01853*
Y0244*
X03101Y03041D02*
Y03245D01*
X03586Y03365D02*
X03593D01*
X03101Y03245D02*
X03278Y03422D01*
X03529D02*
X03586Y03365D01*
X03278Y03422D02*
X03529D01*
X03593Y03365D02*
X03607Y03378D01*
X06359Y02716D02*
X06436D01*
X06476Y02756*
Y02969*
X0651Y03003*
X06618D02*
X06676Y03061D01*
X0651Y03003D02*
X06618D01*
X06505Y03312D02*
X06649D01*
X06676Y03061D02*
Y03284D01*
X06649Y03312D02*
X06676Y03284D01*
X06448Y03368D02*
X06505Y03312D01*
X06427Y03368D02*
X06448D01*
X03066Y02573D02*
X03841Y01799D01*
X06155*
X03066Y02573D02*
Y02989D01*
X03114Y03036*
Y0324*
X06155Y01799D02*
X06214Y01858D01*
X03581Y03352D02*
X03593D01*
X03114Y0324D02*
X03283Y03409D01*
X03524D02*
X03581Y03352D01*
X03283Y03409D02*
X03524D01*
X03593Y03352D02*
X03607Y03339D01*
X06257Y02488D02*
Y02632D01*
X06354Y02729D02*
X06431D01*
X06463Y02761*
Y02974*
X06504Y03016*
X06613*
X06663Y03067*
Y03279*
X06644Y03299D02*
X06663Y03279D01*
X065Y03299D02*
X06644D01*
X06443Y03355D02*
X065Y03299D01*
X06427Y03355D02*
X06443D01*
X0627Y02627D02*
X06359Y02716D01*
X06257Y02632D02*
X06354Y02729D01*
X06214Y01858D02*
Y02446D01*
X06257Y02488*
X06227Y0244D02*
X0627Y02482D01*
X04325Y01691D02*
X04332Y01698D01*
X04346*
X04353Y01691*
X04366D02*
X04373Y01698D01*
X04387*
X04394Y01691*
X04353D02*
X04366D01*
X04411D02*
X04418Y01698D01*
X04432*
X04439Y01691*
X04394D02*
X04411D01*
X04454D02*
X04461Y01698D01*
X04475*
X04482Y01691*
X04439D02*
X04454D01*
X04482D02*
X06128D01*
X037Y03563D02*
Y03628D01*
Y03563D02*
X03712Y03551D01*
X03712Y03512D02*
X03724Y035D01*
X03712Y03512D02*
Y03527D01*
X03699Y0354D02*
X03712Y03527D01*
X03712Y03545D02*
Y03551D01*
Y03545D02*
X03718Y03539D01*
X03724*
X03699Y0354D02*
Y03546D01*
X03687Y03558D02*
Y03623D01*
Y03558D02*
X03699Y03546D01*
X03282Y03621D02*
X03328D01*
X03346Y03638*
X03287Y03608D02*
X03333D01*
X03359Y03633*
X04282Y01691D02*
X04289Y01698D01*
X04303*
X0431Y01691*
X03847D02*
X04282D01*
X0431D02*
X04325D01*
X0338Y03722D02*
X03432Y03774D01*
X036*
X03625Y03749*
X03393Y03717D02*
X03437Y03761D01*
X03595D02*
X03612Y03744D01*
X03574Y03754D02*
X03581Y03761D01*
X0356Y03754D02*
X03574D01*
X03553Y03761D02*
X0356Y03754D01*
X03581Y03761D02*
X03595D01*
X03534Y03754D02*
X03541Y03761D01*
X0352Y03754D02*
X03534D01*
X03513Y03761D02*
X0352Y03754D01*
X03541Y03761D02*
X03553D01*
X0349Y03754D02*
X03497Y03761D01*
X03476Y03754D02*
X0349D01*
X03469Y03761D02*
X03476Y03754D01*
X03437Y03761D02*
X03469D01*
X03497D02*
X03513D01*
X02649Y03441D02*
X02656Y03434D01*
Y0342D02*
Y03434D01*
X02649Y03413D02*
X02656Y0342D01*
X02649Y03441D02*
Y03454D01*
Y03398D02*
X02656Y03391D01*
Y03377D02*
Y03391D01*
X02649Y0337D02*
X02656Y03377D01*
X02649Y03398D02*
Y03413D01*
Y03357D02*
X02656Y0335D01*
Y03336D02*
Y0335D01*
X02649Y03329D02*
X02656Y03336D01*
X02649Y03357D02*
Y0337D01*
Y03313D02*
X02656Y03306D01*
Y03292D02*
Y03306D01*
X02649Y03285D02*
X02656Y03292D01*
X02649Y02888D02*
Y03285D01*
Y03313D02*
Y03329D01*
X03491Y03834D02*
X03498Y03841D01*
X03477Y03834D02*
X03491D01*
X0347Y03841D02*
X03477Y03834D01*
X03498Y03841D02*
X03526D01*
X03449Y03834D02*
X03456Y03841D01*
X03435Y03834D02*
X03449D01*
X03428Y03841D02*
X03435Y03834D01*
X03456Y03841D02*
X0347D01*
X03376D02*
X03428D01*
X03603Y03874D02*
X0361Y03881D01*
X03589Y03874D02*
X03603D01*
X03582Y03881D02*
X03589Y03874D01*
X03566Y03881D02*
X03582D01*
X03636Y03875D02*
X0365D01*
X03629Y03882D02*
X03629Y03881D01*
X03636Y03875*
X0361Y03881D02*
X03629D01*
X03656D02*
X03681D01*
X0365Y03875D02*
X03656Y03881D01*
X03657Y03882*
X02605Y03469D02*
X02731Y03596D01*
X03257*
X03282Y03621*
X02618Y03464D02*
X02736Y03583D01*
X03262D02*
X03287Y03608D01*
X03107Y03576D02*
X03114Y03583D01*
X03093Y03576D02*
X03107D01*
X03086Y03583D02*
X03093Y03576D01*
X03153D02*
X0316Y03583D01*
X03139Y03576D02*
X03153D01*
X03132Y03583D02*
X03139Y03576D01*
X03114Y03583D02*
X03132D01*
X03201Y03576D02*
X03208Y03583D01*
X03187Y03576D02*
X03201D01*
X0318Y03583D02*
X03187Y03576D01*
X0316Y03583D02*
X0318D01*
X03208D02*
X03262D01*
X03061Y03576D02*
X03068Y03583D01*
X03047Y03576D02*
X03061D01*
X0304Y03583D02*
X03047Y03576D01*
X03068Y03583D02*
X03086D01*
X03015Y03576D02*
X03022Y03583D01*
X03001Y03576D02*
X03015D01*
X02994Y03583D02*
X03001Y03576D01*
X03022Y03583D02*
X0304D01*
X02972Y03576D02*
X02979Y03583D01*
X02958Y03576D02*
X02972D01*
X02951Y03583D02*
X02958Y03576D01*
X02979Y03583D02*
X02994D01*
X02928Y03576D02*
X02935Y03583D01*
X02914Y03576D02*
X02928D01*
X02907Y03583D02*
X02914Y03576D01*
X02736Y03583D02*
X02907D01*
X02935D02*
X02951D01*
G54D55*
X03447Y04791D02*
X03603D01*
X03436Y04767D02*
X03603D01*
X03396Y04724D02*
X03603D01*
X03424Y04746D02*
X03603D01*
X03047Y04306D02*
X03072Y04281D01*
X03132*
X03155Y04304*
Y04365*
X03196Y04406*
X03607*
X02445Y04254D02*
X02693D01*
X02391Y04308D02*
X02445Y04254D01*
X02693D02*
X0279Y04351D01*
Y04511*
X02987Y04708*
X03283*
X03386Y04702D02*
X03603D01*
X0251Y04284D02*
X02678D01*
X02486Y04308D02*
X0251Y04284D01*
X02678D02*
X02766Y04372D01*
Y0454*
X0295Y04724*
X03358Y04762D02*
X03396Y04724D01*
X02517Y04419D02*
X02675Y04578D01*
X02759*
X02927Y04746D02*
X03245D01*
X02759Y04578D02*
X02927Y04746D01*
X03383Y04787D02*
X03424Y04746D01*
X03245D02*
X03286Y04787D01*
X03383*
X02454Y04419D02*
X02667Y04633D01*
X02729*
X02863Y04767D02*
X03236D01*
X02729Y04633D02*
X02863Y04767D01*
X0339Y04813D02*
X03436Y04767D01*
X03236D02*
X03282Y04813D01*
X0339*
X02423Y04419D02*
X02683Y0468D01*
X02726*
X02837Y04791*
X03226*
X0327Y04835*
X03403*
X03447Y04791*
X02328Y04419D02*
X02624Y04716D01*
X02722*
X02823Y04817*
X03208*
X03245Y04854*
X03426*
X03466Y04814D02*
X03603D01*
X03426Y04854D02*
X03466Y04814D01*
X03359Y04675D02*
X03386Y04702D01*
X03283Y04708D02*
X03317Y04675D01*
X03359*
X0295Y04724D02*
X03283D01*
X03321Y04762*
X03358*
G54D56*
X04468Y03354D02*
X04558Y03444D01*
X04363Y03354D02*
X04468D01*
X03949Y03227D02*
X03998Y03276D01*
X04104*
X04217Y03284D02*
X04267D01*
X04558Y03444D02*
X04717D01*
X04201Y033D02*
X04217Y03284D01*
X04104Y03276D02*
X04128Y033D01*
X04201*
X04267Y03284D02*
X04337Y03354D01*
X04363D02*
X04363Y03354D01*
X04337Y03354D02*
X04363D01*
G54D68*
X07036Y04464D03*
G54D72*
X00992Y04715D03*
X04396Y04918D03*
X02698Y03115D03*
G54D73*
X00992Y04815D03*
X04496Y04418D03*
X04396D03*
X04496Y04518D03*
X04396D03*
X04496Y04618D03*
X04396D03*
X04496Y04718D03*
X04396D03*
X04496Y04818D03*
X04396D03*
X04496Y04918D03*
X02698Y03215D03*
G54D74*
X04446Y05168D03*
G54D75*
X02696Y05221D03*
Y04828D03*
Y04434D03*
Y0404D03*
X02135D03*
Y04434D03*
Y04828D03*
Y05221D03*
X03258Y04139D03*
Y04336D03*
Y04631D03*
Y05025D03*
Y05418D03*
G54D76*
X02135Y04521D03*
X03258D03*
X02605Y03958D03*
X02416D03*
X02977D03*
X03166D03*
G54D77*
X02605Y04202D03*
X02227D03*
X03166Y04202D03*
X02788D03*
G54D78*
X01542Y03159D03*
Y03296D03*
X05691Y05185D03*
X05591D03*
X05491D03*
X05391D03*
X05291D03*
X0519D03*
X05691Y05085D03*
X05591D03*
X05491D03*
X05391D03*
X05291D03*
X06591Y05185D03*
X06491D03*
X06391D03*
X06291D03*
X06191D03*
X06091D03*
X06591Y05085D03*
X06491D03*
X06391D03*
X06291D03*
X06191D03*
G54D79*
X05403Y04507D03*
G54D80*
X05324Y04507D03*
X05245D03*
X05167D03*
X05088D03*
X05009D03*
X0493D03*
X05403Y04428D03*
X05324D03*
X05245D03*
X05167D03*
X05088D03*
X05009D03*
X0493D03*
G54D81*
X0497Y04468D03*
G54D82*
X0164Y04902D03*
Y05265D03*
Y05084D03*
G54D83*
X069Y01536D03*
X00801D03*
Y05487D03*
X06901D03*
X06551Y04601D03*
Y02121D03*
G54D84*
X01176Y05086D03*
Y05314D03*
G54D85*
X00987Y05204D03*
G54D86*
X0519Y05085D03*
X06091D03*
G54D87*
X03073Y02208D03*
X02893Y01732D03*
X02874D03*
X02893Y01759D03*
X02874D03*
X02677Y02389D03*
X01964Y01992D03*
X01944D03*
X01925D03*
X02654Y0203D03*
X02771Y01905D03*
X02909Y02317D03*
X02884Y02319D03*
X02861Y02318D03*
X02537Y02032D03*
X02754Y02025D03*
X02577Y02407D03*
X02754Y01987D03*
X02723Y01985D03*
X02526Y01987D03*
X02449Y01946D03*
X02466D03*
X02483D03*
X02559Y01986D03*
X02652Y0238D03*
X02556Y0237D03*
X02476Y02456D03*
X02493Y02455D03*
X02509Y02456D03*
Y01906D03*
X01851Y02464D03*
X02508Y025D03*
X02616Y01944D03*
X02665D03*
X0264Y01931D03*
X02449Y02194D03*
X02254Y02212D03*
X02254Y0215D03*
X02643Y02499D03*
X02867Y02064D03*
X02885D03*
X02903D03*
X02939Y02197D03*
Y02215D03*
X02734Y0236D03*
X02754D03*
X02755Y02393D03*
X02523Y02409D03*
X02696Y02405D03*
X02789Y01966D03*
X01901Y01992D03*
X02464Y02213D03*
X02677Y02035D03*
X02822Y02224D03*
X02802Y02167D03*
X02822Y02181D03*
X02999Y02682D03*
X06011Y01488D03*
G54D88*
X03158Y03741D03*
X03212Y0387D03*
X03022Y03871D03*
X03212Y03838D03*
X03022Y0384D03*
X03158Y03772D03*
X02373Y03772D03*
Y03741D03*
X03561Y03713D03*
X03643Y03618D03*
X03646Y03575D03*
X03989Y03428D03*
X04622Y03192D03*
X03685Y02999D03*
X0459Y03192D03*
X03685Y03038D03*
X05341Y03946D03*
X04302Y0342D03*
X04188Y03503D03*
Y03464D03*
X04271Y03511D03*
X03528Y02799D03*
X03559Y0287D03*
X03519Y02952D03*
X0337Y03535D03*
X03409D03*
Y03555D03*
X0337D03*
X03421Y0344D03*
X03522Y03462D03*
X03358Y0344D03*
X05051Y02185D03*
X06572Y02425D03*
X06374Y04169D03*
X06575Y03515D03*
X06574Y03366D03*
Y03216D03*
Y03066D03*
Y02917D03*
Y02763D03*
X06614Y02614D03*
X06372Y02425D03*
X06523Y02625D03*
X05999Y01937D03*
Y02031D03*
X03585Y02909D03*
X06571Y02599D03*
Y02525D03*
X05381Y03267D03*
Y03362D03*
X06572Y02499D03*
X06522Y02387D03*
X06622Y03687D03*
Y03837D03*
Y03987D03*
Y04137D03*
Y04287D03*
X06522Y04337D03*
Y04237D03*
Y04087D03*
Y03937D03*
Y03787D03*
Y03637D03*
Y03487D03*
Y03337D03*
Y03187D03*
Y03037D03*
Y02887D03*
Y02737D03*
X06322Y04337D03*
Y04237D03*
Y04137D03*
Y04037D03*
Y03987D03*
Y03937D03*
Y03787D03*
Y03737D03*
Y03587D03*
Y03517D03*
Y03407D03*
Y03337D03*
Y03187D03*
Y03137D03*
Y02987D03*
Y02937D03*
Y02787D03*
Y02737D03*
Y02587D03*
Y02537D03*
Y02387D03*
X06422Y02837D03*
Y02987D03*
X06422Y03137D03*
X06422Y03287D03*
Y03437D03*
Y03587D03*
Y03737D03*
Y04087D03*
Y04287D03*
Y04037D03*
X06522Y04287D03*
X06622Y04337D03*
X06422Y03937D03*
X06322Y04087D03*
X06422Y04137D03*
X06322Y04187D03*
X06422Y04237D03*
Y04337D03*
X06322Y04287D03*
X03685Y03342D03*
X03722Y03342D03*
X03765Y03338D03*
X038Y03342D03*
X03843Y03339D03*
X0384Y03303D03*
X03879Y03342D03*
X03946Y0334D03*
X06437Y02064D03*
X03803Y03418D03*
X038Y03381D03*
Y0346D03*
X03766Y0346D03*
X03722Y03618D03*
X03767Y03535D03*
X03725Y03575D03*
X04226Y03539D03*
X03948Y03578D03*
X03882Y03575D03*
X03976Y03681D03*
X04519Y03665D03*
X03685Y03418D03*
Y03457D03*
X03127Y03443D03*
X03736Y03751D03*
X03712D03*
X03736Y03704D03*
X03712D03*
X03642Y03706D03*
X03212Y03807D03*
X03948Y03618D03*
X04429Y02822D03*
X03346Y03279D03*
X03433Y03212D03*
X03472D03*
Y03232D03*
X03275Y03279D03*
X03346Y03209D03*
X03276D03*
X03433Y03232D03*
X03464Y03299D03*
Y03322D03*
X03425Y03299D03*
Y03322D03*
X04476Y03259D03*
Y03283D03*
X04437Y03259D03*
Y03283D03*
X04468Y03003D03*
Y03027D03*
X04429Y03003D03*
Y03027D03*
Y02917D03*
X04468D03*
Y02897D03*
X04429D03*
X04263Y03263D03*
X04307Y03188D03*
X04559Y03192D03*
X04307Y02799D03*
X04267D03*
X04228D03*
X04188D03*
X04027Y0296D03*
X03952Y03039D03*
X04342Y03618D03*
X04228Y03578D03*
X04149Y03389D03*
X04031Y03381D03*
X04153Y03275D03*
X04035Y03232D03*
X0407Y03114D03*
X04145Y02996D03*
X04196Y02959D03*
X04304Y02962D03*
X04185Y02909D03*
X03948Y03303D03*
X03527Y02996D03*
X0372D03*
X03838Y03039D03*
X03947Y03077D03*
X04358Y02814D03*
X04228Y02759D03*
X03956Y02795D03*
X03879Y02956D03*
X03759Y02996D03*
X03912Y03157D03*
X03723Y03462D03*
X03603Y03424D03*
X03642Y03467D03*
X03643Y03381D03*
X03809Y0362D03*
X03879Y03263D03*
X03722D03*
X03522Y03311D03*
X03761Y03381D03*
X03682D03*
X03564Y03618D03*
X03525D03*
X03564Y03539D03*
Y03578D03*
X03879Y035D03*
Y03539D03*
X03761Y035D03*
X04265Y03421D03*
X04186Y03539D03*
X04147D03*
X04029D03*
X03563Y03426D03*
X03022Y03902D03*
X03158Y03804D03*
X03212Y03901D03*
X03158Y0371D03*
X03763Y03261D03*
X03946D03*
X03843Y03262D03*
X03567Y03301D03*
X02373Y03804D03*
X03606Y02763D03*
X03127Y03475D03*
X03947Y02999D03*
X03986Y03038D03*
X03764Y03077D03*
X03607Y03536D03*
X03603Y035D03*
X03803Y03038D03*
X04196Y03381D03*
X04104Y03339D03*
X03986Y033D03*
X038Y03263D03*
X03949Y03227D03*
X03022Y03807D03*
X0384Y03381D03*
X03725Y03418D03*
X03883Y033D03*
X03803Y033D03*
X03725D03*
X04593Y02559D03*
Y02465D03*
X03722Y03381D03*
X03603Y03184D03*
X04843Y03741D03*
X04952Y03821D03*
X04915Y03822D03*
X04925Y04035D03*
X04994Y04052D03*
X02373Y0371D03*
X04068Y03342D03*
Y03303D03*
Y03381D03*
X03127Y03381D03*
X03841Y03504D03*
X03761Y03421D03*
X03612Y04872D03*
X03734Y04847D03*
X0374Y04666D03*
X0361Y04642D03*
X03507Y04678D03*
Y04835D03*
X0361Y0432D03*
X03737Y04348D03*
X03732Y04535D03*
X03618Y04563D03*
X0419Y03108D03*
X0395Y02958D03*
X04106Y03383D03*
X04033Y03309D03*
X0356Y03503D03*
X03314Y03114D03*
X03374D03*
X03346D03*
X03314Y03043D03*
X03342D03*
X03374D03*
X03275Y03248D03*
X03346D03*
X05341Y03845D03*
X05342Y03896D03*
X04484Y03972D03*
X03606Y02724D03*
X03377Y02921D03*
Y02897D03*
X03417Y02921D03*
Y02897D03*
X03377Y02862D03*
Y02838D03*
X03682Y03539D03*
X04192Y03153D03*
X04031Y03185D03*
X03944Y03681D03*
Y03755D03*
X03968D03*
X04019D03*
X04047D03*
X04078D03*
X0411D03*
X04114Y0359D03*
X04015Y03685D03*
X04346Y03027D03*
X03755Y02629D03*
X03783D03*
X03811D03*
X03783Y02704D03*
X03755D03*
X04444Y03629D03*
Y03594D03*
X04519Y03629D03*
Y03594D03*
X03794Y03816D03*
X0398Y02606D03*
X04015D03*
X03133Y0322D03*
X03196Y0324D03*
X04515Y03472D03*
X03881Y02996D03*
X03078Y03137D03*
X03127Y03412D03*
X03948Y035D03*
X03803Y03578D03*
X03842Y03535D03*
X03889Y03622D03*
X0348Y03125D03*
X03948Y02606D03*
X03984Y0272D03*
X04015D03*
X03607Y04382D03*
Y04406D03*
Y0443D03*
Y04455D03*
Y04479D03*
Y04504D03*
X03603Y04702D03*
Y04724D03*
Y04746D03*
Y04769D03*
Y04791D03*
Y04814D03*
X04047Y03685D03*
X03814Y02704D03*
X03559Y04539D03*
Y04342D03*
X0384Y02996D03*
X0395Y03111D03*
X03606Y02955D03*
X0427Y02875D03*
X03838Y03074D03*
X03992Y03075D03*
X03881Y03078D03*
X03799D03*
X0372D03*
X03881Y03114D03*
X03834Y03106D03*
X04066Y03035D03*
X04582Y0335D03*
X04717Y03444D03*
X04343Y02961D03*
X04476Y03173D03*
X04879Y03741D03*
X03986Y02999D03*
X04915Y03741D03*
X03986Y02959D03*
X04952Y03741D03*
X03952Y02909D03*
X04304Y0302D03*
X04267Y03192D03*
X04444Y03665D03*
X03944Y03539D03*
X03992Y03543D03*
X04066Y03456D03*
X0348Y03503D03*
X03759Y03299D03*
X03678Y03073D03*
X03722Y03227D03*
X03716Y0311D03*
X03358Y03385D03*
X03421Y03389D03*
X03834Y03228D03*
X03884Y03226D03*
X03948Y03161D03*
X03881Y03036D03*
X03641Y03417D03*
X0372Y03035D03*
X03759D03*
X04148Y03225D03*
X03681Y03114D03*
X04273Y02917D03*
X04264Y03036D03*
X03685Y03499D03*
X04653Y03192D03*
X038Y03224D03*
X03761D03*
X03607Y033D03*
X05381Y0333D03*
X03607Y0326D03*
X05381Y03299D03*
X03799Y0311D03*
X03759D03*
X03679Y03271D03*
X0372Y03157D03*
X03838Y03185D03*
X03799Y03157D03*
X03763D03*
X04307Y03147D03*
X04275Y03153D03*
X04437Y03173D03*
X04476Y03149D03*
X04437D03*
X06522Y03997D03*
Y04027D03*
X03646Y03221D03*
X03607D03*
X06444Y03865D03*
X03881Y02917D03*
X038Y02996D03*
X03839Y02957D03*
X03681Y02917D03*
X03751Y02799D03*
X03801Y02957D03*
X03767Y02962D03*
X038Y02876D03*
X03834Y02763D03*
X03948Y0272D03*
X03607Y02881D03*
X06573Y02575D03*
X03637Y02921D03*
X04593Y02496D03*
X06573Y02549D03*
X03678Y02841D03*
X04593Y02527D03*
X05602Y0277D03*
Y02676D03*
X05051Y02279D03*
X03601Y02798D03*
X05602Y02739D03*
X03603Y02835D03*
X05602Y02708D03*
X03712Y02956D03*
X06422Y03497D03*
X03677Y02952D03*
X06422Y03527D03*
X0372Y02838D03*
X06522Y03547D03*
X03716Y02799D03*
X06522Y03577D03*
Y03427D03*
X03645Y02877D03*
X06522Y03397D03*
X03685Y02881D03*
X03417Y02838D03*
Y02862D03*
X06375Y02747D03*
Y02777D03*
X03559Y03188D03*
X03566Y03102D03*
X06372Y02499D03*
Y02625D03*
X03019Y03118D03*
X06344Y02064D03*
X06523Y02699D03*
X06372D03*
X06598Y02363D03*
X06624Y02436D03*
X06422Y02412D03*
X06522Y03847D03*
X03834Y02917D03*
X06522Y03877D03*
X03791Y02917D03*
X0407Y02842D03*
X04468Y02799D03*
Y02822D03*
X04429Y02799D03*
X03834Y02878D03*
X06522Y03697D03*
X03834Y02842D03*
X06522Y03727D03*
X03755Y02912D03*
X06422Y03647D03*
X03753Y02877D03*
X06422Y03677D03*
X04348Y03426D03*
X04381D03*
X04271Y03314D03*
X0423Y03343D03*
X03883Y03378D03*
X04468Y03503D03*
X04429D03*
X04468Y0348D03*
X04429D03*
X04267Y03458D03*
X03878Y03424D03*
X03947Y03381D03*
X0395Y03458D03*
X03914Y03381D03*
X039Y03427D03*
X03988Y035D03*
X04032Y0358D03*
X04109Y03536D03*
X04062Y03539D03*
X04082Y03685D03*
X04106D03*
X04153Y03466D03*
X04011Y03499D03*
X06037Y04934D03*
X04034Y03465D03*
X06069Y04934D03*
X04231Y03501D03*
X061Y04934D03*
X04268Y0354D03*
X06132Y04933D03*
X0411Y03468D03*
X06195Y04933D03*
X04111Y0343D03*
X06165Y04932D03*
X03997Y03463D03*
X0626Y04935D03*
X06229Y04936D03*
X03566Y02799D03*
X06422Y03227D03*
Y03197D03*
X03567Y02841D03*
X05051Y02248D03*
X03607Y02999D03*
X06572Y02475D03*
X05051Y02216D03*
X03607Y03038D03*
X06572Y02449D03*
X03519Y02917D03*
X06522Y03277D03*
X03555Y02956D03*
X06522Y03247D03*
X03528Y03038D03*
X06422Y03077D03*
X03567Y03038D03*
X06422Y03047D03*
X03639Y02991D03*
X05999Y02D03*
X06523Y02649D03*
X03639Y02952D03*
X05999Y01968D03*
X06523Y02675D03*
X03598Y03114D03*
X06522Y03127D03*
X03633Y03115D03*
X06522Y03097D03*
X0353Y03153D03*
X06422Y02927D03*
X03568Y03157D03*
X06422Y02897D03*
X06622Y02697D03*
X03567Y03221D03*
X05509Y01928D03*
X06622Y02727D03*
X03567Y0326D03*
X05509Y01897D03*
X06522Y02947D03*
X03523Y03236D03*
X0533Y01897D03*
X06522Y02977D03*
X03523Y03275D03*
X0533Y01866D03*
X06522Y02797D03*
X05755Y01849D03*
X03526Y0334D03*
X06522Y02827D03*
X03526Y0338D03*
X05755Y01818D03*
X05889Y01767D03*
X03526Y03537D03*
X05889Y01736D03*
X03526Y03577D03*
X03724Y035D03*
X06372Y02449D03*
X03724Y03539D03*
X06372Y02475D03*
X03803Y03496D03*
X06372Y02649D03*
X03803Y03536D03*
X06372Y02675D03*
X03843Y03418D03*
X06374Y02064D03*
X03843Y03457D03*
X06405Y02064D03*
X03607Y03378D03*
X0642Y03377D03*
X03607Y03339D03*
X0642Y03347D03*
X03633Y03772D03*
G54D89*
X05194Y0382D03*
X05189Y0387D03*
X05192Y0392D03*
X0519Y0397D03*
X01546Y02066D03*
X04606Y02751D03*
X04559Y02925D03*
Y02889D03*
X04728Y03015D03*
X0473Y02876D03*
X0514Y02973D03*
X03912Y03858D03*
X04138Y03843D03*
X04139Y03887D03*
X02549Y04308D03*
X01763Y03454D03*
Y03485D03*
X01762Y0342D03*
Y03385D03*
X01795Y03454D03*
X01796Y03485D03*
X01795Y03419D03*
Y03384D03*
X04206Y05161D03*
X04154Y05162D03*
X04733Y03157D03*
X02523Y02649D03*
X04137Y02388D03*
X04161Y02481D03*
X04386Y02483D03*
X04085Y02515D03*
X03815Y02491D03*
X03712Y03952D03*
X0357D03*
X03657Y03854D03*
X03471Y03893D03*
X04179Y03966D03*
X03872Y03939D03*
X03912Y0382D03*
Y03893D03*
X03905Y03983D03*
X03908Y04018D03*
X0414Y04019D03*
X04141Y03927D03*
X02844Y02244D03*
X02843Y02143D03*
X02491Y0207D03*
X02459Y02056D03*
X02506Y02332D03*
X02476D03*
X01889Y01621D03*
X01712Y01609D03*
X01718Y01975D03*
Y01934D03*
Y01894D03*
Y01857D03*
Y01819D03*
X02039Y02214D03*
X02Y02213D03*
X01963Y02214D03*
X01925Y02213D03*
X01845Y02634D03*
X01888D03*
X01934D03*
X0198D03*
X02028D03*
Y02591D03*
X0198D03*
X01934D03*
X01888D03*
X01845D03*
X01094Y03149D03*
X01062Y0315D03*
X0103Y03151D03*
X01001D03*
X01122Y02973D03*
X01092D03*
X01062D03*
X01031D03*
X00999D03*
X017Y03659D03*
X01165Y04682D03*
X01132Y04681D03*
X01188Y04712D03*
X01133Y04711D03*
X01194Y04742D03*
X01164D03*
X01133Y04741D03*
X01539Y02985D03*
X0126Y03037D03*
X01259Y03093D03*
X03506Y03892D03*
X03775Y02489D03*
Y02457D03*
X0513Y03455D03*
Y03103D03*
X0467Y0311D03*
X03737Y02525D03*
X03775Y0252D03*
X04014Y02521D03*
X0435Y02566D03*
X03897Y02667D03*
X04878Y0339D03*
X03721Y05355D03*
X03868Y05351D03*
Y05234D03*
X04075Y05352D03*
X03925Y05351D03*
X04078Y05233D03*
X01519Y01966D03*
X01467Y01968D03*
X05042Y03947D03*
X05041Y03895D03*
X05042Y03846D03*
X02408Y04098D03*
X02471D03*
X02566D03*
X02968Y04099D03*
X03Y041D03*
X03031D03*
X03126D03*
X02265Y04308D03*
X02297D03*
X02827Y04306D03*
X0311D03*
X02858D03*
X02921D03*
X0236Y04308D03*
X02938Y041D03*
X02843D03*
X02377Y04098D03*
X02283D03*
X0244D03*
X02234Y04865D03*
X02294D03*
X02354D03*
X02414D03*
X02474D03*
X02534D03*
X02594D03*
X0317Y04866D03*
X0311D03*
X0305D03*
X0299D03*
X0293D03*
X0287D03*
X0281D03*
X02063Y0417D03*
X02064Y04736D03*
Y04701D03*
X03332Y04735D03*
Y04702D03*
X0333Y04179D03*
Y04144D03*
X01284Y02948D03*
X01384Y04904D03*
X01549Y03661D03*
X01896Y01584D03*
X02063Y04138D03*
X02797Y03099D03*
Y03134D03*
X02839Y03251D03*
Y03214D03*
X02873Y03251D03*
X01467Y01833D03*
X01519Y01832D03*
X01445Y02014D03*
X04037Y01551D03*
X03957D03*
X03997D03*
X04077D03*
X04157D03*
X04197D03*
X03917D03*
X04117D03*
X04237D03*
X02476Y03187D03*
X0266Y02549D03*
X02438Y02843D03*
X01318Y02837D03*
X01264Y03183D03*
X01329Y03094D03*
Y03038D03*
X01301Y03184D03*
X01294Y03094D03*
X01293Y03037D03*
X02279Y02953D03*
X04545Y03352D03*
X03662Y04075D03*
X03463Y04015D03*
X04154Y05374D03*
X04207Y05373D03*
X03765Y05178D03*
X03972Y05177D03*
X02948Y03357D03*
X01492Y02062D03*
X0224Y03334D03*
X05173Y04362D03*
X05169Y04291D03*
X03519Y04188D03*
Y04267D03*
X03523Y04614D03*
X0346Y04661D03*
X01866Y04188D03*
Y04251D03*
X0187Y04696D03*
Y04629D03*
X01374Y03996D03*
X01519Y02877D03*
X01547D03*
X01578D03*
X04283Y02527D03*
X03555Y04019D03*
X04417Y03881D03*
X05271Y03354D03*
X05338Y03279D03*
X0294Y03007D03*
X02862Y03031D03*
X01523Y03586D03*
X02685Y02488D03*
X03937Y02456D03*
X02953Y04306D03*
X03047D03*
X03078Y04417D03*
X03015D03*
X02984D03*
X0289D03*
X02391Y04308D03*
X02486D03*
X02517Y04419D03*
X02454D03*
X02423D03*
X02328D03*
X02986Y03111D03*
X0435Y02538D03*
X0576Y05138D03*
X05835Y05138D03*
X05039Y05144D03*
X05113D03*
X04435Y03405D03*
X05948Y05132D03*
X0597Y05158D03*
X0678Y05129D03*
X06645Y05138D03*
G54D90*
X04007Y03938D03*
Y03895D03*
X0405D03*
Y03938D03*
G54D91*
X02643Y02233D03*
X02644Y02271D03*
X02683D03*
X02605D03*
X02567D03*
X02722D03*
X02683Y02233D03*
X02605D03*
X02567D03*
X02722D03*
X02682Y02155D03*
X02604D03*
X02566D03*
X02643D03*
X02721D03*
X02682Y02117D03*
X02604D03*
X02566D03*
X02643D03*
X02721D03*
G54D105*
X07036Y04254D03*
M02*