%FSTAX23Y23*%
%MOIN*%
%SFA1B1*%

%IPPOS*%
%ADD215C,0.005000*%
%LNatfc_drillmap_1-1*%
%LPD*%
G54D215*
X00974Y04715D02*
X01009D01*
X00992Y04697D02*
Y04732D01*
X00974Y04815D02*
X01009D01*
X00992Y04797D02*
Y04832D01*
X04383Y05168D02*
X04508D01*
X04446Y05105D02*
Y0523D01*
X04478Y04418D02*
X04513D01*
X04496Y044D02*
Y04435D01*
X04378Y04418D02*
X04413D01*
X04396Y044D02*
Y04435D01*
X04478Y04518D02*
X04513D01*
X04496Y045D02*
Y04535D01*
X04378Y04518D02*
X04413D01*
X04396Y045D02*
Y04535D01*
X04478Y04618D02*
X04513D01*
X04496Y046D02*
Y04635D01*
X04378Y04618D02*
X04413D01*
X04396Y046D02*
Y04635D01*
X04478Y04718D02*
X04513D01*
X04496Y047D02*
Y04735D01*
X04378Y04718D02*
X04413D01*
X04396Y047D02*
Y04735D01*
X04478Y04818D02*
X04513D01*
X04496Y048D02*
Y04835D01*
X04378Y04818D02*
X04413D01*
X04396Y048D02*
Y04835D01*
X04478Y04918D02*
X04513D01*
X04496Y049D02*
Y04935D01*
X04378Y04918D02*
X04413D01*
X04396Y049D02*
Y04935D01*
X02678Y05221D02*
X02715D01*
X02696Y05203D02*
Y0524D01*
X02678Y04828D02*
X02715D01*
X02696Y04809D02*
Y04846D01*
X02678Y04434D02*
X02715D01*
X02696Y04415D02*
Y04453D01*
X02678Y0404D02*
X02715D01*
X02696Y04022D02*
Y04059D01*
X02115Y0404D02*
X02156D01*
X02135Y0402D02*
Y04061D01*
X02115Y04434D02*
X02156D01*
X02135Y04413D02*
Y04455D01*
X02115Y04828D02*
X02156D01*
X02135Y04807D02*
Y04848D01*
X02115Y05221D02*
X02156D01*
X02135Y05201D02*
Y05242D01*
X03239Y04139D02*
X03276D01*
X03258Y0412D02*
Y04158D01*
X03239Y04336D02*
X03276D01*
X03258Y04317D02*
Y04354D01*
X03237Y04631D02*
X03278D01*
X03258Y0461D02*
Y04652D01*
X03237Y05025D02*
X03278D01*
X03258Y05004D02*
Y05045D01*
X03237Y05418D02*
X03278D01*
X03258Y05398D02*
Y05439D01*
X02117Y04521D02*
X02154D01*
X02135Y04502D02*
Y04539D01*
X03239Y04521D02*
X03276D01*
X03258Y04502D02*
Y04539D01*
X02586Y03958D02*
X02623D01*
X02605Y03939D02*
Y03976D01*
X02397Y03958D02*
X02434D01*
X02416Y03939D02*
Y03976D01*
X02958Y03958D02*
X02995D01*
X02977Y03939D02*
Y03976D01*
X03147Y03958D02*
X03184D01*
X03166Y03939D02*
Y03976D01*
X02574Y04202D02*
X02635D01*
X02605Y04171D02*
Y04232D01*
X02196Y04202D02*
X02257D01*
X02227Y04171D02*
Y04232D01*
X01527Y03159D02*
X01557D01*
X01542Y03144D02*
Y03174D01*
X01527Y03296D02*
X01557D01*
X01542Y03281D02*
Y03311D01*
X0268Y03215D02*
X02715D01*
X02698Y03197D02*
Y03232D01*
X0268Y03115D02*
X02715D01*
X02698Y03097D02*
Y03132D01*
X05385Y04507D02*
X0542D01*
X05403Y04489D02*
Y04525D01*
X05306Y04507D02*
X05342D01*
X05324Y04489D02*
Y04525D01*
X05228Y04507D02*
X05263D01*
X05245Y04489D02*
Y04525D01*
X05149Y04507D02*
X05184D01*
X05167Y04489D02*
Y04525D01*
X0507Y04507D02*
X05105D01*
X05088Y04489D02*
Y04525D01*
X04991Y04507D02*
X05027D01*
X05009Y04489D02*
Y04525D01*
X04913Y04507D02*
X04948D01*
X0493Y04489D02*
Y04525D01*
X05385Y04428D02*
X0542D01*
X05403Y0441D02*
Y04446D01*
X05306Y04428D02*
X05342D01*
X05324Y0441D02*
Y04446D01*
X05228Y04428D02*
X05263D01*
X05245Y0441D02*
Y04446D01*
X05149Y04428D02*
X05184D01*
X05167Y0441D02*
Y04446D01*
X0507Y04428D02*
X05105D01*
X05088Y0441D02*
Y04446D01*
X04991Y04428D02*
X05027D01*
X05009Y0441D02*
Y04446D01*
X04913Y04428D02*
X04948D01*
X0493Y0441D02*
Y04446D01*
X0495Y04468D02*
X04989D01*
X0497Y04448D02*
Y04487D01*
X01603Y04902D02*
X01676D01*
X0164Y04866D02*
Y04939D01*
X01603Y05265D02*
X01676D01*
X0164Y05228D02*
Y05301D01*
X01603Y05084D02*
X01676D01*
X0164Y05047D02*
Y0512D01*
X06447Y04432D02*
X06497D01*
X06472Y04407D02*
Y04457D01*
X06327Y02291D02*
X06377D01*
X06352Y02266D02*
Y02316D01*
X03135Y04202D02*
X03196D01*
X03166Y04171D02*
Y04232D01*
X02757Y04202D02*
X02818D01*
X02788Y04171D02*
Y04232D01*
X06847Y01536D02*
X06954D01*
X069Y01483D02*
Y0159D01*
X00747Y01536D02*
X00854D01*
X00801Y01483D02*
Y0159D01*
X00747Y05487D02*
X00854D01*
X00801Y05433D02*
Y0554D01*
X06847Y05487D02*
X06954D01*
X06901Y05433D02*
Y0554D01*
X06498Y04601D02*
X06604D01*
X06551Y04548D02*
Y04655D01*
X06498Y02121D02*
X06604D01*
X06551Y02068D02*
Y02174D01*
X01156Y05086D02*
X01196D01*
X01176Y05066D02*
Y05106D01*
X01156Y05314D02*
X01196D01*
X01176Y05295D02*
Y05334D01*
X00967Y05204D02*
X01007D01*
X00987Y05184D02*
Y05224D01*
X05675Y05185D02*
X05706D01*
X05691Y05169D02*
Y052D01*
X05576Y05185D02*
X05606D01*
X05591Y05169D02*
Y052D01*
X05475Y05185D02*
X05506D01*
X05491Y05169D02*
Y052D01*
X05376Y05185D02*
X05405D01*
X05391Y05169D02*
Y052D01*
X05276Y05185D02*
X05306D01*
X05291Y05169D02*
Y052D01*
X05176Y05185D02*
X05206D01*
X0519Y05169D02*
Y052D01*
X05675Y05085D02*
X05706D01*
X05691Y0507D02*
Y05099D01*
X05576Y05085D02*
X05606D01*
X05591Y0507D02*
Y05099D01*
X05475Y05085D02*
X05506D01*
X05491Y0507D02*
Y05099D01*
X05376Y05085D02*
X05405D01*
X05391Y0507D02*
Y05099D01*
X05276Y05085D02*
X05306D01*
X05291Y0507D02*
Y05099D01*
X05176Y05085D02*
X05206D01*
X0519Y0507D02*
Y05099D01*
X06576Y05185D02*
X06606D01*
X06591Y05169D02*
Y052D01*
X06476Y05185D02*
X06506D01*
X06491Y05169D02*
Y052D01*
X06375Y05185D02*
X06406D01*
X06391Y05169D02*
Y052D01*
X06276Y05185D02*
X06305D01*
X06291Y05169D02*
Y052D01*
X06176Y05185D02*
X06206D01*
X06191Y05169D02*
Y052D01*
X06076Y05185D02*
X06106D01*
X06091Y05169D02*
Y052D01*
X06576Y05085D02*
X06606D01*
X06591Y0507D02*
Y05099D01*
X06476Y05085D02*
X06506D01*
X06491Y0507D02*
Y05099D01*
X06375Y05085D02*
X06406D01*
X06391Y0507D02*
Y05099D01*
X06276Y05085D02*
X06305D01*
X06291Y0507D02*
Y05099D01*
X06176Y05085D02*
X06206D01*
X06191Y0507D02*
Y05099D01*
X06076Y05085D02*
X06106D01*
X06091Y0507D02*
Y05099D01*
X03069Y02208D02*
X03076D01*
X03073Y02204D02*
Y02211D01*
X03154Y03741D02*
X03162D01*
X03158Y03737D02*
Y03745D01*
X03208Y0387D02*
X03216D01*
X03212Y03866D02*
Y03874D01*
X03018Y03871D02*
X03026D01*
X03022Y03867D02*
Y03875D01*
X03208Y03838D02*
X03216D01*
X03212Y03834D02*
Y03842D01*
X03018Y0384D02*
X03026D01*
X03022Y03836D02*
Y03844D01*
X03154Y03772D02*
X03162D01*
X03158Y03768D02*
Y03776D01*
X02369Y03772D02*
X02377D01*
X02373Y03768D02*
Y03776D01*
X02369Y03741D02*
X02377D01*
X02373Y03737D02*
Y03745D01*
X03557Y03713D02*
X03565D01*
X03561Y03709D02*
Y03717D01*
X03639Y03618D02*
X03647D01*
X03643Y03614D02*
Y03622D01*
X03642Y03575D02*
X0365D01*
X03646Y03571D02*
Y03579D01*
X03985Y03428D02*
X03993D01*
X03989Y03424D02*
Y03432D01*
X05189Y0382D02*
X05199D01*
X05194Y03815D02*
Y03825D01*
X05184Y0387D02*
X05194D01*
X05189Y03865D02*
Y03875D01*
X05187Y0392D02*
X05197D01*
X05192Y03915D02*
Y03925D01*
X05186Y0397D02*
X05195D01*
X0519Y03965D02*
Y03975D01*
X04618Y03192D02*
X04626D01*
X04622Y03188D02*
Y03196D01*
X03681Y02999D02*
X03689D01*
X03685Y02995D02*
Y03003D01*
X04586Y03192D02*
X04594D01*
X0459Y03188D02*
Y03196D01*
X03681Y03038D02*
X03689D01*
X03685Y03034D02*
Y03042D01*
X05337Y03946D02*
X05345D01*
X05341Y03942D02*
Y0395D01*
X04298Y0342D02*
X04306D01*
X04302Y03416D02*
Y03424D01*
X04184Y03503D02*
X04192D01*
X04188Y03499D02*
Y03507D01*
X04184Y03464D02*
X04192D01*
X04188Y0346D02*
Y03468D01*
X04267Y03511D02*
X04275D01*
X04271Y03507D02*
Y03515D01*
X04003Y03938D02*
X04011D01*
X04007Y03934D02*
Y03942D01*
X04003Y03895D02*
X04011D01*
X04007Y03891D02*
Y03899D01*
X04046Y03895D02*
X04054D01*
X0405Y03891D02*
Y03899D01*
X04046Y03938D02*
X04054D01*
X0405Y03934D02*
Y03942D01*
X03524Y02799D02*
X03532D01*
X03528Y02795D02*
Y02803D01*
X03555Y0287D02*
X03563D01*
X03559Y02866D02*
Y02874D01*
X03515Y02952D02*
X03523D01*
X03519Y02948D02*
Y02956D01*
X03366Y03535D02*
X03374D01*
X0337Y03531D02*
Y03539D01*
X03405Y03535D02*
X03413D01*
X03409Y03531D02*
Y03539D01*
X03405Y03555D02*
X03413D01*
X03409Y03551D02*
Y03559D01*
X03366Y03555D02*
X03374D01*
X0337Y03551D02*
Y03559D01*
X03417Y0344D02*
X03425D01*
X03421Y03436D02*
Y03444D01*
X03518Y03462D02*
X03526D01*
X03522Y03458D02*
Y03466D01*
X03354Y0344D02*
X03362D01*
X03358Y03436D02*
Y03444D01*
X05047Y02185D02*
X05055D01*
X05051Y02181D02*
Y02189D01*
X06568Y02425D02*
X06576D01*
X06572Y02421D02*
Y02429D01*
X0637Y04169D02*
X06378D01*
X06374Y04165D02*
Y04173D01*
X06571Y03515D02*
X06579D01*
X06575Y03511D02*
Y03519D01*
X0657Y03366D02*
X06578D01*
X06574Y03362D02*
Y0337D01*
X0657Y03216D02*
X06578D01*
X06574Y03212D02*
Y0322D01*
X0657Y03066D02*
X06578D01*
X06574Y03062D02*
Y0307D01*
X0657Y02917D02*
X06578D01*
X06574Y02913D02*
Y02921D01*
X0657Y02763D02*
X06578D01*
X06574Y02759D02*
Y02767D01*
X0661Y02614D02*
X06618D01*
X06614Y0261D02*
Y02618D01*
X06368Y02425D02*
X06376D01*
X06372Y02421D02*
Y02429D01*
X06519Y02625D02*
X06527D01*
X06523Y02621D02*
Y02629D01*
X05996Y01937D02*
X06004D01*
X05999Y01933D02*
Y01941D01*
X05996Y02031D02*
X06004D01*
X05999Y02027D02*
Y02035D01*
X03581Y02909D02*
X03589D01*
X03585Y02905D02*
Y02913D01*
X06567Y02599D02*
X06575D01*
X06571Y02595D02*
Y02603D01*
X06567Y02525D02*
X06575D01*
X06571Y02521D02*
Y02529D01*
X05377Y03267D02*
X05385D01*
X05381Y03263D02*
Y03271D01*
X05377Y03362D02*
X05385D01*
X05381Y03358D02*
Y03366D01*
X06568Y02499D02*
X06576D01*
X06572Y02495D02*
Y02503D01*
X06518Y02387D02*
X06526D01*
X06522Y02383D02*
Y02391D01*
X06618Y03687D02*
X06626D01*
X06622Y03683D02*
Y03691D01*
X06618Y03837D02*
X06626D01*
X06622Y03833D02*
Y03841D01*
X06618Y03987D02*
X06626D01*
X06622Y03983D02*
Y03991D01*
X06618Y04137D02*
X06626D01*
X06622Y04133D02*
Y04141D01*
X06618Y04287D02*
X06626D01*
X06622Y04283D02*
Y04291D01*
X06518Y04337D02*
X06526D01*
X06522Y04333D02*
Y04341D01*
X06518Y04237D02*
X06526D01*
X06522Y04233D02*
Y04241D01*
X06518Y04087D02*
X06526D01*
X06522Y04083D02*
Y04091D01*
X06518Y03937D02*
X06526D01*
X06522Y03933D02*
Y03941D01*
X06518Y03787D02*
X06526D01*
X06522Y03783D02*
Y03791D01*
X06518Y03637D02*
X06526D01*
X06522Y03633D02*
Y03641D01*
X06518Y03487D02*
X06526D01*
X06522Y03483D02*
Y03491D01*
X06518Y03337D02*
X06526D01*
X06522Y03333D02*
Y03341D01*
X06518Y03187D02*
X06526D01*
X06522Y03183D02*
Y03191D01*
X06518Y03037D02*
X06526D01*
X06522Y03033D02*
Y03041D01*
X06518Y02887D02*
X06526D01*
X06522Y02883D02*
Y02891D01*
X06518Y02737D02*
X06526D01*
X06522Y02733D02*
Y02741D01*
X06318Y04337D02*
X06326D01*
X06322Y04333D02*
Y04341D01*
X06318Y04237D02*
X06326D01*
X06322Y04233D02*
Y04241D01*
X06318Y04137D02*
X06326D01*
X06322Y04133D02*
Y04141D01*
X06318Y04037D02*
X06326D01*
X06322Y04033D02*
Y04041D01*
X06318Y03987D02*
X06326D01*
X06322Y03983D02*
Y03991D01*
X06318Y03937D02*
X06326D01*
X06322Y03933D02*
Y03941D01*
X06318Y03787D02*
X06326D01*
X06322Y03783D02*
Y03791D01*
X06318Y03737D02*
X06326D01*
X06322Y03733D02*
Y03741D01*
X06318Y03587D02*
X06326D01*
X06322Y03583D02*
Y03591D01*
X06318Y03517D02*
X06326D01*
X06322Y03513D02*
Y03521D01*
X06318Y03407D02*
X06326D01*
X06322Y03403D02*
Y03411D01*
X06318Y03337D02*
X06326D01*
X06322Y03333D02*
Y03341D01*
X06318Y03187D02*
X06326D01*
X06322Y03183D02*
Y03191D01*
X06318Y03137D02*
X06326D01*
X06322Y03133D02*
Y03141D01*
X06318Y02987D02*
X06326D01*
X06322Y02983D02*
Y02991D01*
X06318Y02937D02*
X06326D01*
X06322Y02933D02*
Y02941D01*
X06318Y02787D02*
X06326D01*
X06322Y02783D02*
Y02791D01*
X06318Y02737D02*
X06326D01*
X06322Y02733D02*
Y02741D01*
X06318Y02587D02*
X06326D01*
X06322Y02583D02*
Y02591D01*
X06318Y02537D02*
X06326D01*
X06322Y02533D02*
Y02541D01*
X06318Y02387D02*
X06326D01*
X06322Y02383D02*
Y02391D01*
X06418Y02837D02*
X06426D01*
X06422Y02833D02*
Y02841D01*
X06418Y02987D02*
X06426D01*
X06422Y02983D02*
Y02991D01*
X06418Y03137D02*
X06426D01*
X06422Y03133D02*
Y03141D01*
X06418Y03287D02*
X06426D01*
X06422Y03283D02*
Y03291D01*
X06418Y03437D02*
X06426D01*
X06422Y03433D02*
Y03441D01*
X06418Y03587D02*
X06426D01*
X06422Y03583D02*
Y03591D01*
X06418Y03737D02*
X06426D01*
X06422Y03733D02*
Y03741D01*
X06418Y04087D02*
X06426D01*
X06422Y04083D02*
Y04091D01*
X06418Y04287D02*
X06426D01*
X06422Y04283D02*
Y04291D01*
X06418Y04037D02*
X06426D01*
X06422Y04033D02*
Y04041D01*
X06518Y04287D02*
X06526D01*
X06522Y04283D02*
Y04291D01*
X06618Y04337D02*
X06626D01*
X06622Y04333D02*
Y04341D01*
X06418Y03937D02*
X06426D01*
X06422Y03933D02*
Y03941D01*
X06318Y04087D02*
X06326D01*
X06322Y04083D02*
Y04091D01*
X06418Y04137D02*
X06426D01*
X06422Y04133D02*
Y04141D01*
X06318Y04187D02*
X06326D01*
X06322Y04183D02*
Y04191D01*
X06418Y04237D02*
X06426D01*
X06422Y04233D02*
Y04241D01*
X06418Y04337D02*
X06426D01*
X06422Y04333D02*
Y04341D01*
X06318Y04287D02*
X06326D01*
X06322Y04283D02*
Y04291D01*
X03681Y03342D02*
X03689D01*
X03685Y03338D02*
Y03346D01*
X03718Y03342D02*
X03726D01*
X03722Y03338D02*
Y03346D01*
X03761Y03338D02*
X03769D01*
X03765Y03334D02*
Y03342D01*
X03796Y03342D02*
X03804D01*
X038Y03338D02*
Y03346D01*
X03839Y03339D02*
X03847D01*
X03843Y03335D02*
Y03343D01*
X03836Y03303D02*
X03844D01*
X0384Y03299D02*
Y03307D01*
X03875Y03342D02*
X03883D01*
X03879Y03338D02*
Y03346D01*
X03942Y0334D02*
X0395D01*
X03946Y03336D02*
Y03344D01*
X01541Y02066D02*
X01551D01*
X01546Y02061D02*
Y02071D01*
X06433Y02064D02*
X06441D01*
X06437Y0206D02*
Y02068D01*
X03799Y03418D02*
X03807D01*
X03803Y03414D02*
Y03422D01*
X03796Y03381D02*
X03804D01*
X038Y03377D02*
Y03385D01*
X03796Y0346D02*
X03804D01*
X038Y03456D02*
Y03464D01*
X03762Y0346D02*
X0377D01*
X03766Y03456D02*
Y03464D01*
X03718Y03618D02*
X03726D01*
X03722Y03614D02*
Y03622D01*
X03763Y03535D02*
X03771D01*
X03767Y03531D02*
Y03539D01*
X03721Y03575D02*
X03729D01*
X03725Y03571D02*
Y03579D01*
X04601Y02751D02*
X04611D01*
X04606Y02746D02*
Y02756D01*
X0289Y01732D02*
X02897D01*
X02893Y01728D02*
Y01735D01*
X0287Y01732D02*
X02877D01*
X02874Y01728D02*
Y01735D01*
X0289Y01759D02*
X02897D01*
X02893Y01756D02*
Y01763D01*
X0287Y01759D02*
X02877D01*
X02874Y01756D02*
Y01763D01*
X04222Y03539D02*
X0423D01*
X04226Y03535D02*
Y03543D01*
X03944Y03578D02*
X03952D01*
X03948Y03574D02*
Y03582D01*
X03878Y03575D02*
X03886D01*
X03882Y03571D02*
Y03579D01*
X03972Y03681D02*
X0398D01*
X03976Y03677D02*
Y03685D01*
X04515Y03665D02*
X04523D01*
X04519Y03661D02*
Y03669D01*
X03681Y03418D02*
X03689D01*
X03685Y03414D02*
Y03422D01*
X03681Y03457D02*
X03689D01*
X03685Y03453D02*
Y03461D01*
X03123Y03443D02*
X03131D01*
X03127Y03439D02*
Y03447D01*
X03732Y03751D02*
X0374D01*
X03736Y03747D02*
Y03755D01*
X03708Y03751D02*
X03716D01*
X03712Y03747D02*
Y03755D01*
X03732Y03704D02*
X0374D01*
X03736Y037D02*
Y03708D01*
X03708Y03704D02*
X03716D01*
X03712Y037D02*
Y03708D01*
X03638Y03706D02*
X03646D01*
X03642Y03702D02*
Y0371D01*
X03208Y03807D02*
X03216D01*
X03212Y03803D02*
Y03811D01*
X02673Y02389D02*
X0268D01*
X02677Y02386D02*
Y02393D01*
X01961Y01992D02*
X01968D01*
X01964Y01988D02*
Y01995D01*
X01941Y01992D02*
X01948D01*
X01944Y01988D02*
Y01995D01*
X01921Y01992D02*
X01928D01*
X01925Y01988D02*
Y01995D01*
X03944Y03618D02*
X03952D01*
X03948Y03614D02*
Y03622D01*
X04425Y02822D02*
X04433D01*
X04429Y02818D02*
Y02826D01*
X03342Y03279D02*
X0335D01*
X03346Y03275D02*
Y03283D01*
X03429Y03212D02*
X03437D01*
X03433Y03208D02*
Y03216D01*
X03468Y03212D02*
X03476D01*
X03472Y03208D02*
Y03216D01*
X03468Y03232D02*
X03476D01*
X03472Y03228D02*
Y03236D01*
X03271Y03279D02*
X03279D01*
X03275Y03275D02*
Y03283D01*
X03342Y03209D02*
X0335D01*
X03346Y03205D02*
Y03213D01*
X03272Y03209D02*
X0328D01*
X03276Y03205D02*
Y03213D01*
X03429Y03232D02*
X03437D01*
X03433Y03228D02*
Y03236D01*
X0346Y03299D02*
X03468D01*
X03464Y03295D02*
Y03303D01*
X0346Y03322D02*
X03468D01*
X03464Y03318D02*
Y03326D01*
X03421Y03299D02*
X03429D01*
X03425Y03295D02*
Y03303D01*
X03421Y03322D02*
X03429D01*
X03425Y03318D02*
Y03326D01*
X04554Y02925D02*
X04564D01*
X04559Y0292D02*
Y0293D01*
X04472Y03259D02*
X0448D01*
X04476Y03255D02*
Y03263D01*
X04472Y03283D02*
X0448D01*
X04476Y03279D02*
Y03287D01*
X04433Y03259D02*
X04441D01*
X04437Y03255D02*
Y03263D01*
X04433Y03283D02*
X04441D01*
X04437Y03279D02*
Y03287D01*
X04464Y03003D02*
X04472D01*
X04468Y02999D02*
Y03007D01*
X04464Y03027D02*
X04472D01*
X04468Y03023D02*
Y03031D01*
X04425Y03003D02*
X04433D01*
X04429Y02999D02*
Y03007D01*
X04425Y03027D02*
X04433D01*
X04429Y03023D02*
Y03031D01*
X04425Y02917D02*
X04433D01*
X04429Y02913D02*
Y02921D01*
X04464Y02917D02*
X04472D01*
X04468Y02913D02*
Y02921D01*
X04464Y02897D02*
X04472D01*
X04468Y02893D02*
Y02901D01*
X04425Y02897D02*
X04433D01*
X04429Y02893D02*
Y02901D01*
X04259Y03263D02*
X04267D01*
X04263Y03259D02*
Y03267D01*
X04303Y03188D02*
X04311D01*
X04307Y03184D02*
Y03192D01*
X04555Y03192D02*
X04563D01*
X04559Y03188D02*
Y03196D01*
X04303Y02799D02*
X04311D01*
X04307Y02795D02*
Y02803D01*
X04263Y02799D02*
X04271D01*
X04267Y02795D02*
Y02803D01*
X04224Y02799D02*
X04232D01*
X04228Y02795D02*
Y02803D01*
X04184Y02799D02*
X04192D01*
X04188Y02795D02*
Y02803D01*
X04554Y02889D02*
X04564D01*
X04559Y02884D02*
Y02894D01*
X04723Y03015D02*
X04733D01*
X04728Y0301D02*
Y0302D01*
X04725Y02876D02*
X04735D01*
X0473Y02871D02*
Y02881D01*
X05135Y02973D02*
X05145D01*
X0514Y02968D02*
Y02978D01*
X04023Y0296D02*
X04031D01*
X04027Y02956D02*
Y02964D01*
X03948Y03039D02*
X03956D01*
X03952Y03035D02*
Y03043D01*
X04338Y03618D02*
X04346D01*
X04342Y03614D02*
Y03622D01*
X04224Y03578D02*
X04232D01*
X04228Y03574D02*
Y03582D01*
X04145Y03389D02*
X04153D01*
X04149Y03385D02*
Y03393D01*
X04027Y03381D02*
X04035D01*
X04031Y03377D02*
Y03385D01*
X04149Y03275D02*
X04157D01*
X04153Y03271D02*
Y03279D01*
X04031Y03232D02*
X04039D01*
X04035Y03228D02*
Y03236D01*
X04066Y03114D02*
X04074D01*
X0407Y0311D02*
Y03118D01*
X04141Y02996D02*
X04149D01*
X04145Y02992D02*
Y03D01*
X04192Y02959D02*
X042D01*
X04196Y02955D02*
Y02963D01*
X043Y02962D02*
X04308D01*
X04304Y02958D02*
Y02966D01*
X04181Y02909D02*
X04189D01*
X04185Y02905D02*
Y02913D01*
X03944Y03303D02*
X03952D01*
X03948Y03299D02*
Y03307D01*
X03523Y02996D02*
X03531D01*
X03527Y02992D02*
Y03D01*
X03716Y02996D02*
X03724D01*
X0372Y02992D02*
Y03D01*
X03834Y03039D02*
X03842D01*
X03838Y03035D02*
Y03043D01*
X03943Y03077D02*
X03951D01*
X03947Y03073D02*
Y03081D01*
X04354Y02814D02*
X04362D01*
X04358Y0281D02*
Y02818D01*
X04224Y02759D02*
X04232D01*
X04228Y02755D02*
Y02763D01*
X03952Y02795D02*
X0396D01*
X03956Y02791D02*
Y02799D01*
X03875Y02956D02*
X03883D01*
X03879Y02952D02*
Y0296D01*
X03755Y02996D02*
X03763D01*
X03759Y02992D02*
Y03D01*
X03908Y03157D02*
X03916D01*
X03912Y03153D02*
Y03161D01*
X03719Y03462D02*
X03727D01*
X03723Y03458D02*
Y03466D01*
X03599Y03424D02*
X03607D01*
X03603Y0342D02*
Y03428D01*
X03638Y03467D02*
X03646D01*
X03642Y03463D02*
Y03471D01*
X03639Y03381D02*
X03647D01*
X03643Y03377D02*
Y03385D01*
X03805Y0362D02*
X03813D01*
X03809Y03616D02*
Y03624D01*
X03875Y03263D02*
X03883D01*
X03879Y03259D02*
Y03267D01*
X03718Y03263D02*
X03726D01*
X03722Y03259D02*
Y03267D01*
X03518Y03311D02*
X03526D01*
X03522Y03307D02*
Y03315D01*
X03757Y03381D02*
X03765D01*
X03761Y03377D02*
Y03385D01*
X03678Y03381D02*
X03686D01*
X03682Y03377D02*
Y03385D01*
X0356Y03618D02*
X03568D01*
X03564Y03614D02*
Y03622D01*
X03521Y03618D02*
X03529D01*
X03525Y03614D02*
Y03622D01*
X0356Y03539D02*
X03568D01*
X03564Y03535D02*
Y03543D01*
X0356Y03578D02*
X03568D01*
X03564Y03574D02*
Y03582D01*
X03907Y03858D02*
X03917D01*
X03912Y03853D02*
Y03863D01*
X04133Y03843D02*
X04143D01*
X04138Y03838D02*
Y03848D01*
X04134Y03887D02*
X04144D01*
X04139Y03882D02*
Y03892D01*
X03875Y035D02*
X03883D01*
X03879Y03496D02*
Y03504D01*
X03875Y03539D02*
X03883D01*
X03879Y03535D02*
Y03543D01*
X03757Y035D02*
X03765D01*
X03761Y03496D02*
Y03504D01*
X02544Y04308D02*
X02554D01*
X02549Y04303D02*
Y04313D01*
X01758Y03454D02*
X01768D01*
X01763Y03449D02*
Y03459D01*
X01758Y03485D02*
X01768D01*
X01763Y0348D02*
Y0349D01*
X01757Y0342D02*
X01767D01*
X01762Y03415D02*
Y03425D01*
X01757Y03385D02*
X01767D01*
X01762Y0338D02*
Y0339D01*
X0179Y03454D02*
X018D01*
X01795Y03449D02*
Y03459D01*
X01791Y03485D02*
X01801D01*
X01796Y0348D02*
Y0349D01*
X0179Y03419D02*
X018D01*
X01795Y03414D02*
Y03424D01*
X0179Y03384D02*
X018D01*
X01795Y03379D02*
Y03389D01*
X04201Y05161D02*
X04211D01*
X04206Y05156D02*
Y05166D01*
X04149Y05162D02*
X04159D01*
X04154Y05156D02*
Y05167D01*
X04261Y03421D02*
X04269D01*
X04265Y03417D02*
Y03425D01*
X04728Y03157D02*
X04738D01*
X04733Y03152D02*
Y03162D01*
X04182Y03539D02*
X0419D01*
X04186Y03535D02*
Y03543D01*
X04143Y03539D02*
X04151D01*
X04147Y03535D02*
Y03543D01*
X04025Y03539D02*
X04033D01*
X04029Y03535D02*
Y03543D01*
X03559Y03426D02*
X03567D01*
X03563Y03422D02*
Y0343D01*
X03018Y03902D02*
X03026D01*
X03022Y03898D02*
Y03906D01*
X03154Y03804D02*
X03162D01*
X03158Y038D02*
Y03808D01*
X03208Y03901D02*
X03216D01*
X03212Y03897D02*
Y03905D01*
X03154Y0371D02*
X03162D01*
X03158Y03706D02*
Y03714D01*
X02518Y02649D02*
X02528D01*
X02523Y02644D02*
Y02654D01*
X03759Y03261D02*
X03767D01*
X03763Y03257D02*
Y03265D01*
X03942Y03261D02*
X0395D01*
X03946Y03257D02*
Y03265D01*
X03839Y03262D02*
X03847D01*
X03843Y03258D02*
Y03266D01*
X03563Y03301D02*
X03571D01*
X03567Y03297D02*
Y03305D01*
X04132Y02388D02*
X04142D01*
X04137Y02383D02*
Y02393D01*
X04156Y02481D02*
X04166D01*
X04161Y02476D02*
Y02486D01*
X04381Y02483D02*
X04391D01*
X04386Y02478D02*
Y02488D01*
X0408Y02515D02*
X0409D01*
X04085Y0251D02*
Y0252D01*
X0381Y02491D02*
X0382D01*
X03815Y02486D02*
Y02496D01*
X03707Y03952D02*
X03717D01*
X03712Y03947D02*
Y03957D01*
X03565Y03952D02*
X03575D01*
X0357Y03947D02*
Y03957D01*
X03652Y03854D02*
X03662D01*
X03657Y03849D02*
Y03859D01*
X03466Y03893D02*
X03476D01*
X03471Y03888D02*
Y03898D01*
X04174Y03966D02*
X04184D01*
X04179Y03961D02*
Y03971D01*
X03867Y03939D02*
X03877D01*
X03872Y03934D02*
Y03944D01*
X03907Y0382D02*
X03917D01*
X03912Y03815D02*
Y03825D01*
X03907Y03893D02*
X03917D01*
X03912Y03888D02*
Y03898D01*
X039Y03983D02*
X0391D01*
X03905Y03978D02*
Y03988D01*
X03903Y04018D02*
X03913D01*
X03908Y04013D02*
Y04023D01*
X04135Y04019D02*
X04145D01*
X0414Y04014D02*
Y04024D01*
X04136Y03927D02*
X04146D01*
X04141Y03922D02*
Y03932D01*
X02839Y02244D02*
X02849D01*
X02844Y02239D02*
Y02249D01*
X02838Y02143D02*
X02848D01*
X02843Y02138D02*
Y02148D01*
X02486Y0207D02*
X02496D01*
X02491Y02065D02*
Y02075D01*
X02454Y02056D02*
X02464D01*
X02459Y02051D02*
Y02061D01*
X02501Y02332D02*
X02511D01*
X02506Y02327D02*
Y02337D01*
X02471Y02332D02*
X02481D01*
X02476Y02327D02*
Y02337D01*
X01884Y01621D02*
X01894D01*
X01889Y01616D02*
Y01626D01*
X01707Y01609D02*
X01717D01*
X01712Y01604D02*
Y01614D01*
X01713Y01975D02*
X01723D01*
X01718Y0197D02*
Y0198D01*
X01713Y01934D02*
X01723D01*
X01718Y01929D02*
Y01939D01*
X01713Y01894D02*
X01723D01*
X01718Y01889D02*
Y01899D01*
X01713Y01857D02*
X01723D01*
X01718Y01852D02*
Y01862D01*
X01713Y01819D02*
X01723D01*
X01718Y01814D02*
Y01824D01*
X02034Y02214D02*
X02044D01*
X02039Y02209D02*
Y02219D01*
X01995Y02213D02*
X02005D01*
X02Y02208D02*
Y02218D01*
X01958Y02214D02*
X01968D01*
X01963Y02209D02*
Y02219D01*
X0192Y02213D02*
X0193D01*
X01925Y02208D02*
Y02218D01*
X0184Y02634D02*
X0185D01*
X01845Y02629D02*
Y02639D01*
X01883Y02634D02*
X01893D01*
X01888Y02629D02*
Y02639D01*
X01929Y02634D02*
X01939D01*
X01934Y02629D02*
Y02639D01*
X01975Y02634D02*
X01985D01*
X0198Y02629D02*
Y02639D01*
X02023Y02634D02*
X02033D01*
X02028Y02629D02*
Y02639D01*
X02023Y02591D02*
X02033D01*
X02028Y02586D02*
Y02596D01*
X01975Y02591D02*
X01985D01*
X0198Y02586D02*
Y02596D01*
X01929Y02591D02*
X01939D01*
X01934Y02586D02*
Y02596D01*
X01883Y02591D02*
X01893D01*
X01888Y02586D02*
Y02596D01*
X0184Y02591D02*
X0185D01*
X01845Y02586D02*
Y02596D01*
X02651Y0203D02*
X02658D01*
X02654Y02026D02*
Y02033D01*
X01089Y03149D02*
X01099D01*
X01094Y03144D02*
Y03154D01*
X01057Y0315D02*
X01067D01*
X01062Y03145D02*
Y03155D01*
X01025Y03151D02*
X01035D01*
X0103Y03146D02*
Y03156D01*
X00996Y03151D02*
X01006D01*
X01001Y03146D02*
Y03156D01*
X01117Y02973D02*
X01127D01*
X01122Y02968D02*
Y02978D01*
X01087Y02973D02*
X01097D01*
X01092Y02968D02*
Y02978D01*
X01057Y02973D02*
X01067D01*
X01062Y02968D02*
Y02978D01*
X01026Y02973D02*
X01036D01*
X01031Y02968D02*
Y02978D01*
X00994Y02973D02*
X01004D01*
X00999Y02968D02*
Y02978D01*
X01695Y03659D02*
X01705D01*
X017Y03654D02*
Y03664D01*
X0116Y04682D02*
X0117D01*
X01165Y04677D02*
Y04687D01*
X01127Y04681D02*
X01137D01*
X01132Y04676D02*
Y04686D01*
X01183Y04712D02*
X01193D01*
X01188Y04707D02*
Y04717D01*
X01128Y04711D02*
X01138D01*
X01133Y04706D02*
Y04716D01*
X01189Y04742D02*
X01199D01*
X01194Y04737D02*
Y04747D01*
X01159Y04742D02*
X01169D01*
X01164Y04737D02*
Y04747D01*
X01128Y04741D02*
X01138D01*
X01133Y04736D02*
Y04746D01*
X01534Y02985D02*
X01544D01*
X01539Y0298D02*
Y0299D01*
X01255Y03037D02*
X01265D01*
X0126Y03032D02*
Y03042D01*
X01254Y03093D02*
X01264D01*
X01259Y03088D02*
Y03098D01*
X02638Y02233D02*
X02648D01*
X02643Y02228D02*
Y02238D01*
X02639Y02271D02*
X02649D01*
X02644Y02266D02*
Y02276D01*
X02678Y02271D02*
X02688D01*
X02683Y02266D02*
Y02276D01*
X02768Y01905D02*
X02775D01*
X02771Y01901D02*
Y01908D01*
X02906Y02317D02*
X02913D01*
X02909Y02313D02*
Y0232D01*
X02881Y02319D02*
X02888D01*
X02884Y02316D02*
Y02323D01*
X02858Y02318D02*
X02865D01*
X02861Y02314D02*
Y02321D01*
X02534Y02032D02*
X02541D01*
X02537Y02028D02*
Y02035D01*
X02751Y02025D02*
X02758D01*
X02754Y02022D02*
Y02029D01*
X02574Y02407D02*
X02581D01*
X02577Y02403D02*
Y0241D01*
X02751Y01987D02*
X02758D01*
X02754Y01983D02*
Y0199D01*
X0272Y01985D02*
X02727D01*
X02723Y01981D02*
Y01988D01*
X02523Y01987D02*
X0253D01*
X02526Y01983D02*
Y0199D01*
X02446Y01946D02*
X02453D01*
X02449Y01942D02*
Y01949D01*
X02463Y01946D02*
X0247D01*
X02466Y01942D02*
Y01949D01*
X0248Y01946D02*
X02487D01*
X02483Y01942D02*
Y01949D01*
X02556Y01986D02*
X02563D01*
X02559Y01983D02*
Y0199D01*
X02648Y0238D02*
X02655D01*
X02652Y02376D02*
Y02383D01*
X02553Y0237D02*
X0256D01*
X02556Y02366D02*
Y02373D01*
X02473Y02456D02*
X0248D01*
X02476Y02452D02*
Y02459D01*
X02489Y02455D02*
X02496D01*
X02493Y02452D02*
Y02459D01*
X02506Y02456D02*
X02513D01*
X02509Y02452D02*
Y02459D01*
X026Y02271D02*
X0261D01*
X02605Y02266D02*
Y02276D01*
X02562Y02271D02*
X02572D01*
X02567Y02266D02*
Y02276D01*
X02717Y02271D02*
X02727D01*
X02722Y02266D02*
Y02276D01*
X02678Y02233D02*
X02688D01*
X02683Y02228D02*
Y02238D01*
X026Y02233D02*
X0261D01*
X02605Y02228D02*
Y02238D01*
X02562Y02233D02*
X02572D01*
X02567Y02228D02*
Y02238D01*
X02717Y02233D02*
X02727D01*
X02722Y02228D02*
Y02238D01*
X02677Y02155D02*
X02687D01*
X02682Y0215D02*
Y0216D01*
X02599Y02155D02*
X02609D01*
X02604Y0215D02*
Y0216D01*
X02561Y02155D02*
X02571D01*
X02566Y0215D02*
Y0216D01*
X02638Y02155D02*
X02648D01*
X02643Y0215D02*
Y0216D01*
X02716Y02155D02*
X02726D01*
X02721Y0215D02*
Y0216D01*
X02677Y02117D02*
X02687D01*
X02682Y02112D02*
Y02122D01*
X02599Y02117D02*
X02609D01*
X02604Y02112D02*
Y02122D01*
X02561Y02117D02*
X02571D01*
X02566Y02112D02*
Y02122D01*
X02638Y02117D02*
X02648D01*
X02643Y02112D02*
Y02122D01*
X02716Y02117D02*
X02726D01*
X02721Y02112D02*
Y02122D01*
X02506Y01906D02*
X02513D01*
X02509Y01902D02*
Y01909D01*
X01848Y02464D02*
X01855D01*
X01851Y0246D02*
Y02467D01*
X02504Y025D02*
X02511D01*
X02508Y02496D02*
Y02503D01*
X02613Y01944D02*
X0262D01*
X02616Y0194D02*
Y01947D01*
X02662Y01944D02*
X02669D01*
X02665Y0194D02*
Y01947D01*
X02637Y01931D02*
X02644D01*
X0264Y01927D02*
Y01934D01*
X02446Y02194D02*
X02453D01*
X02449Y0219D02*
Y02197D01*
X0225Y02212D02*
X02257D01*
X02254Y02208D02*
Y02215D01*
X0225Y0215D02*
X02257D01*
X02254Y02146D02*
Y02153D01*
X0264Y02499D02*
X02647D01*
X02643Y02495D02*
Y02502D01*
X02864Y02064D02*
X02871D01*
X02867Y0206D02*
Y02067D01*
X02882Y02064D02*
X02889D01*
X02885Y0206D02*
Y02067D01*
X029Y02064D02*
X02907D01*
X02903Y0206D02*
Y02067D01*
X02936Y02197D02*
X02943D01*
X02939Y02193D02*
Y022D01*
X02936Y02215D02*
X02943D01*
X02939Y02211D02*
Y02218D01*
X03501Y03892D02*
X03511D01*
X03506Y03887D02*
Y03897D01*
X02369Y03804D02*
X02377D01*
X02373Y038D02*
Y03808D01*
X03602Y02763D02*
X0361D01*
X03606Y02759D02*
Y02767D01*
X03123Y03475D02*
X03131D01*
X03127Y03471D02*
Y03479D01*
X0377Y02489D02*
X0378D01*
X03775Y02484D02*
Y02494D01*
X0377Y02457D02*
X0378D01*
X03775Y02452D02*
Y02462D01*
X03943Y02999D02*
X03951D01*
X03947Y02995D02*
Y03003D01*
X03982Y03038D02*
X0399D01*
X03986Y03034D02*
Y03042D01*
X0376Y03077D02*
X03768D01*
X03764Y03073D02*
Y03081D01*
X03603Y03536D02*
X03611D01*
X03607Y03532D02*
Y0354D01*
X03599Y035D02*
X03607D01*
X03603Y03496D02*
Y03504D01*
X03799Y03038D02*
X03807D01*
X03803Y03034D02*
Y03042D01*
X05125Y03455D02*
X05136D01*
X0513Y0345D02*
Y0346D01*
X05125Y03103D02*
X05136D01*
X0513Y03098D02*
Y03108D01*
X04665Y0311D02*
X04675D01*
X0467Y03105D02*
Y03115D01*
X04192Y03381D02*
X042D01*
X04196Y03377D02*
Y03385D01*
X041Y03339D02*
X04108D01*
X04104Y03335D02*
Y03343D01*
X03982Y033D02*
X0399D01*
X03986Y03296D02*
Y03304D01*
X03796Y03263D02*
X03804D01*
X038Y03259D02*
Y03267D01*
X03732Y02525D02*
X03742D01*
X03737Y0252D02*
Y0253D01*
X0377Y0252D02*
X0378D01*
X03775Y02515D02*
Y02525D01*
X03945Y03227D02*
X03953D01*
X03949Y03223D02*
Y03231D01*
X03018Y03807D02*
X03026D01*
X03022Y03803D02*
Y03811D01*
X03836Y03381D02*
X03844D01*
X0384Y03377D02*
Y03385D01*
X03721Y03418D02*
X03729D01*
X03725Y03414D02*
Y03422D01*
X03879Y033D02*
X03887D01*
X03883Y03296D02*
Y03304D01*
X03799Y033D02*
X03807D01*
X03803Y03296D02*
Y03304D01*
X03721Y033D02*
X03729D01*
X03725Y03296D02*
Y03304D01*
X04009Y02521D02*
X04019D01*
X04014Y02516D02*
Y02526D01*
X04345Y02566D02*
X04355D01*
X0435Y02561D02*
Y02571D01*
X03892Y02667D02*
X03902D01*
X03897Y02662D02*
Y02672D01*
X04589Y02559D02*
X04597D01*
X04593Y02555D02*
Y02563D01*
X04589Y02465D02*
X04597D01*
X04593Y02461D02*
Y02469D01*
X03718Y03381D02*
X03726D01*
X03722Y03377D02*
Y03385D01*
X03599Y03184D02*
X03607D01*
X03603Y0318D02*
Y03188D01*
X04873Y0339D02*
X04883D01*
X04878Y03385D02*
Y03395D01*
X03716Y05355D02*
X03726D01*
X03721Y0535D02*
Y0536D01*
X03863Y05351D02*
X03873D01*
X03868Y05346D02*
Y05356D01*
X03863Y05234D02*
X03873D01*
X03868Y05229D02*
Y05239D01*
X0407Y05352D02*
X0408D01*
X04075Y05347D02*
Y05356D01*
X0392Y05351D02*
X0393D01*
X03925Y05346D02*
Y05356D01*
X04073Y05233D02*
X04083D01*
X04078Y05228D02*
Y05238D01*
X01514Y01966D02*
X01524D01*
X01519Y01961D02*
Y01971D01*
X01462Y01968D02*
X01472D01*
X01467Y01963D02*
Y01973D01*
X05037Y03947D02*
X05047D01*
X05042Y03942D02*
Y03952D01*
X05036Y03895D02*
X05046D01*
X05041Y0389D02*
Y039D01*
X05037Y03846D02*
X05047D01*
X05042Y03841D02*
Y03851D01*
X02403Y04098D02*
X02413D01*
X02408Y04093D02*
Y04103D01*
X02466Y04098D02*
X02476D01*
X02471Y04093D02*
Y04103D01*
X02561Y04098D02*
X02571D01*
X02566Y04093D02*
Y04103D01*
X02963Y04099D02*
X02973D01*
X02968Y04094D02*
Y04104D01*
X02995Y041D02*
X03005D01*
X03Y04095D02*
Y04105D01*
X03026Y041D02*
X03036D01*
X03031Y04095D02*
Y04105D01*
X03121Y041D02*
X03131D01*
X03126Y04095D02*
Y04105D01*
X0226Y04308D02*
X0227D01*
X02265Y04303D02*
Y04313D01*
X02292Y04308D02*
X02302D01*
X02297Y04303D02*
Y04313D01*
X02822Y04306D02*
X02832D01*
X02827Y04301D02*
Y04311D01*
X03105Y04306D02*
X03115D01*
X0311Y04301D02*
Y04311D01*
X02853Y04306D02*
X02863D01*
X02858Y04301D02*
Y04311D01*
X02916Y04306D02*
X02926D01*
X02921Y04301D02*
Y04311D01*
X02355Y04308D02*
X02365D01*
X0236Y04303D02*
Y04313D01*
X02933Y041D02*
X02943D01*
X02938Y04095D02*
Y04105D01*
X02838Y041D02*
X02848D01*
X02843Y04095D02*
Y04105D01*
X02372Y04098D02*
X02382D01*
X02377Y04093D02*
Y04103D01*
X02278Y04098D02*
X02288D01*
X02283Y04093D02*
Y04103D01*
X04839Y03741D02*
X04847D01*
X04843Y03737D02*
Y03745D01*
X04948Y03821D02*
X04956D01*
X04952Y03817D02*
Y03825D01*
X04911Y03822D02*
X04919D01*
X04915Y03818D02*
Y03826D01*
X04921Y04035D02*
X04929D01*
X04925Y04031D02*
Y04039D01*
X0499Y04052D02*
X04998D01*
X04994Y04048D02*
Y04056D01*
X02435Y04098D02*
X02445D01*
X0244Y04093D02*
Y04103D01*
X02229Y04865D02*
X02239D01*
X02234Y0486D02*
Y0487D01*
X02289Y04865D02*
X02299D01*
X02294Y0486D02*
Y0487D01*
X02349Y04865D02*
X02359D01*
X02354Y0486D02*
Y0487D01*
X02409Y04865D02*
X02419D01*
X02414Y0486D02*
Y0487D01*
X02469Y04865D02*
X02479D01*
X02474Y0486D02*
Y0487D01*
X02529Y04865D02*
X02539D01*
X02534Y0486D02*
Y0487D01*
X02589Y04865D02*
X02599D01*
X02594Y0486D02*
Y0487D01*
X03165Y04866D02*
X03175D01*
X0317Y04861D02*
Y04871D01*
X03105Y04866D02*
X03115D01*
X0311Y04861D02*
Y04871D01*
X03045Y04866D02*
X03055D01*
X0305Y04861D02*
Y04871D01*
X02985Y04866D02*
X02995D01*
X0299Y04861D02*
Y04871D01*
X02925Y04866D02*
X02935D01*
X0293Y04861D02*
Y04871D01*
X02865Y04866D02*
X02875D01*
X0287Y04861D02*
Y04871D01*
X02805Y04866D02*
X02815D01*
X0281Y04861D02*
Y04871D01*
X02058Y0417D02*
X02068D01*
X02063Y04165D02*
Y04175D01*
X02059Y04736D02*
X02069D01*
X02064Y04731D02*
Y04741D01*
X02059Y04701D02*
X02069D01*
X02064Y04696D02*
Y04706D01*
X03327Y04735D02*
X03337D01*
X03332Y0473D02*
Y0474D01*
X03327Y04702D02*
X03337D01*
X03332Y04697D02*
Y04707D01*
X03325Y04179D02*
X03335D01*
X0333Y04174D02*
Y04184D01*
X03325Y04144D02*
X03335D01*
X0333Y04139D02*
Y04149D01*
X01279Y02948D02*
X01289D01*
X01284Y02943D02*
Y02953D01*
X01379Y04904D02*
X01389D01*
X01384Y04899D02*
Y04909D01*
X01544Y03661D02*
X01554D01*
X01549Y03656D02*
Y03666D01*
X01891Y01584D02*
X01901D01*
X01896Y01579D02*
Y01589D01*
X02369Y0371D02*
X02377D01*
X02373Y03706D02*
Y03714D01*
X02058Y04138D02*
X02068D01*
X02063Y04133D02*
Y04143D01*
X04064Y03342D02*
X04072D01*
X04068Y03338D02*
Y03346D01*
X04064Y03303D02*
X04072D01*
X04068Y03299D02*
Y03307D01*
X04064Y03381D02*
X04072D01*
X04068Y03377D02*
Y03385D01*
X03123Y03381D02*
X03131D01*
X03127Y03377D02*
Y03385D01*
X02792Y03099D02*
X02802D01*
X02797Y03094D02*
Y03104D01*
X02792Y03134D02*
X02802D01*
X02797Y03129D02*
Y03139D01*
X02834Y03251D02*
X02844D01*
X02839Y03246D02*
Y03256D01*
X02834Y03214D02*
X02844D01*
X02839Y03209D02*
Y03219D01*
X02868Y03251D02*
X02878D01*
X02873Y03246D02*
Y03256D01*
X01462Y01833D02*
X01472D01*
X01467Y01828D02*
Y01838D01*
X01514Y01832D02*
X01524D01*
X01519Y01827D02*
Y01837D01*
X0144Y02014D02*
X0145D01*
X01445Y02009D02*
Y02019D01*
X04032Y01551D02*
X04042D01*
X04037Y01546D02*
Y01556D01*
X03952Y01551D02*
X03962D01*
X03957Y01546D02*
Y01556D01*
X03992Y01551D02*
X04002D01*
X03997Y01546D02*
Y01556D01*
X04072Y01551D02*
X04082D01*
X04077Y01546D02*
Y01556D01*
X04152Y01551D02*
X04162D01*
X04157Y01546D02*
Y01556D01*
X04192Y01551D02*
X04202D01*
X04197Y01546D02*
Y01556D01*
X03912Y01551D02*
X03922D01*
X03917Y01546D02*
Y01556D01*
X04112Y01551D02*
X04122D01*
X04117Y01546D02*
Y01556D01*
X04232Y01551D02*
X04242D01*
X04237Y01546D02*
Y01556D01*
X02471Y03187D02*
X02481D01*
X02476Y03182D02*
Y03192D01*
X02655Y02549D02*
X02665D01*
X0266Y02544D02*
Y02554D01*
X02433Y02843D02*
X02443D01*
X02438Y02838D02*
Y02848D01*
X01313Y02837D02*
X01323D01*
X01318Y02832D02*
Y02842D01*
X01259Y03183D02*
X01269D01*
X01264Y03178D02*
Y03188D01*
X01324Y03094D02*
X01334D01*
X01329Y03089D02*
Y03099D01*
X01324Y03038D02*
X01334D01*
X01329Y03033D02*
Y03043D01*
X01296Y03184D02*
X01306D01*
X01301Y03179D02*
Y03189D01*
X01289Y03094D02*
X01299D01*
X01294Y03089D02*
Y03099D01*
X01288Y03037D02*
X01298D01*
X01293Y03032D02*
Y03042D01*
X03837Y03504D02*
X03845D01*
X03841Y035D02*
Y03508D01*
X03757Y03421D02*
X03765D01*
X03761Y03417D02*
Y03425D01*
X02274Y02953D02*
X02284D01*
X02279Y02948D02*
Y02958D01*
X03608Y04872D02*
X03616D01*
X03612Y04868D02*
Y04876D01*
X0373Y04847D02*
X03738D01*
X03734Y04843D02*
Y04851D01*
X03736Y04666D02*
X03744D01*
X0374Y04662D02*
Y0467D01*
X03606Y04642D02*
X03614D01*
X0361Y04638D02*
Y04646D01*
X03503Y04678D02*
X03511D01*
X03507Y04674D02*
Y04682D01*
X03503Y04835D02*
X03511D01*
X03507Y04831D02*
Y04839D01*
X03606Y0432D02*
X03614D01*
X0361Y04316D02*
Y04324D01*
X03733Y04348D02*
X03741D01*
X03737Y04344D02*
Y04352D01*
X03728Y04535D02*
X03736D01*
X03732Y04531D02*
Y04539D01*
X03614Y04563D02*
X03622D01*
X03618Y04559D02*
Y04567D01*
X04186Y03108D02*
X04194D01*
X0419Y03104D02*
Y03112D01*
X03946Y02958D02*
X03954D01*
X0395Y02954D02*
Y02962D01*
X04102Y03383D02*
X0411D01*
X04106Y03379D02*
Y03387D01*
X0454Y03352D02*
X0455D01*
X04545Y03347D02*
Y03357D01*
X04029Y03309D02*
X04037D01*
X04033Y03305D02*
Y03313D01*
X03657Y04075D02*
X03667D01*
X03662Y0407D02*
Y0408D01*
X03458Y04015D02*
X03468D01*
X03463Y0401D02*
Y0402D01*
X04149Y05374D02*
X04159D01*
X04154Y05369D02*
Y05379D01*
X04202Y05373D02*
X04212D01*
X04207Y05368D02*
Y05378D01*
X0376Y05178D02*
X0377D01*
X03765Y05173D02*
Y05183D01*
X03967Y05177D02*
X03977D01*
X03972Y05172D02*
Y05182D01*
X02943Y03357D02*
X02953D01*
X02948Y03352D02*
Y03362D01*
X03556Y03503D02*
X03564D01*
X0356Y03499D02*
Y03507D01*
X01487Y02062D02*
X01497D01*
X01492Y02057D02*
Y02067D01*
X0331Y03114D02*
X03318D01*
X03314Y0311D02*
Y03118D01*
X0337Y03114D02*
X03378D01*
X03374Y0311D02*
Y03118D01*
X03342Y03114D02*
X0335D01*
X03346Y0311D02*
Y03118D01*
X0331Y03043D02*
X03318D01*
X03314Y03039D02*
Y03047D01*
X03338Y03043D02*
X03346D01*
X03342Y03039D02*
Y03047D01*
X0337Y03043D02*
X03378D01*
X03374Y03039D02*
Y03047D01*
X03271Y03248D02*
X03279D01*
X03275Y03244D02*
Y03252D01*
X03342Y03248D02*
X0335D01*
X03346Y03244D02*
Y03252D01*
X02235Y03334D02*
X02245D01*
X0224Y03329D02*
Y03339D01*
X05337Y03845D02*
X05345D01*
X05341Y03841D02*
Y03849D01*
X05338Y03896D02*
X05346D01*
X05342Y03892D02*
Y039D01*
X05168Y04362D02*
X05178D01*
X05173Y04357D02*
Y04367D01*
X05164Y04291D02*
X05174D01*
X05169Y04286D02*
Y04296D01*
X0448Y03972D02*
X04488D01*
X04484Y03968D02*
Y03976D01*
X03514Y04188D02*
X03524D01*
X03519Y04183D02*
Y04193D01*
X03514Y04267D02*
X03524D01*
X03519Y04262D02*
Y04272D01*
X03518Y04614D02*
X03528D01*
X03523Y04609D02*
Y04619D01*
X03455Y04661D02*
X03465D01*
X0346Y04656D02*
Y04666D01*
X01861Y04188D02*
X01871D01*
X01866Y04183D02*
Y04193D01*
X01861Y04251D02*
X01871D01*
X01866Y04246D02*
Y04256D01*
X01865Y04696D02*
X01875D01*
X0187Y04691D02*
Y04701D01*
X01865Y04629D02*
X01875D01*
X0187Y04624D02*
Y04634D01*
X03602Y02724D02*
X0361D01*
X03606Y0272D02*
Y02728D01*
X03373Y02921D02*
X03381D01*
X03377Y02917D02*
Y02925D01*
X03373Y02897D02*
X03381D01*
X03377Y02893D02*
Y02901D01*
X03413Y02921D02*
X03421D01*
X03417Y02917D02*
Y02925D01*
X03413Y02897D02*
X03421D01*
X03417Y02893D02*
Y02901D01*
X03373Y02862D02*
X03381D01*
X03377Y02858D02*
Y02866D01*
X03373Y02838D02*
X03381D01*
X03377Y02834D02*
Y02842D01*
X02731Y0236D02*
X02738D01*
X02734Y02357D02*
Y02364D01*
X02751Y0236D02*
X02758D01*
X02754Y02357D02*
Y02364D01*
X02752Y02393D02*
X02759D01*
X02755Y0239D02*
Y02397D01*
X0252Y02409D02*
X02527D01*
X02523Y02405D02*
Y02412D01*
X02693Y02405D02*
X027D01*
X02696Y02402D02*
Y02409D01*
X02786Y01966D02*
X02793D01*
X02789Y01963D02*
Y0197D01*
X03678Y03539D02*
X03686D01*
X03682Y03535D02*
Y03543D01*
X04188Y03153D02*
X04196D01*
X04192Y03149D02*
Y03157D01*
X04027Y03185D02*
X04035D01*
X04031Y03181D02*
Y03189D01*
X0394Y03681D02*
X03948D01*
X03944Y03677D02*
Y03685D01*
X0394Y03755D02*
X03948D01*
X03944Y03751D02*
Y03759D01*
X03964Y03755D02*
X03972D01*
X03968Y03751D02*
Y03759D01*
X04015Y03755D02*
X04023D01*
X04019Y03751D02*
Y03759D01*
X04043Y03755D02*
X04051D01*
X04047Y03751D02*
Y03759D01*
X04074Y03755D02*
X04082D01*
X04078Y03751D02*
Y03759D01*
X04106Y03755D02*
X04114D01*
X0411Y03751D02*
Y03759D01*
X0411Y0359D02*
X04118D01*
X04114Y03586D02*
Y03594D01*
X04011Y03685D02*
X04019D01*
X04015Y03681D02*
Y03689D01*
X04342Y03027D02*
X0435D01*
X04346Y03023D02*
Y03031D01*
X01369Y03996D02*
X01379D01*
X01374Y03991D02*
Y04001D01*
X01514Y02877D02*
X01524D01*
X01519Y02872D02*
Y02882D01*
X01542Y02877D02*
X01552D01*
X01547Y02872D02*
Y02882D01*
X01573Y02877D02*
X01583D01*
X01578Y02872D02*
Y02882D01*
X03751Y02629D02*
X03759D01*
X03755Y02625D02*
Y02633D01*
X03779Y02629D02*
X03787D01*
X03783Y02625D02*
Y02633D01*
X03807Y02629D02*
X03815D01*
X03811Y02625D02*
Y02633D01*
X03779Y02704D02*
X03787D01*
X03783Y027D02*
Y02708D01*
X03751Y02704D02*
X03759D01*
X03755Y027D02*
Y02708D01*
X04278Y02527D02*
X04288D01*
X04283Y02522D02*
Y02532D01*
X0355Y04019D02*
X0356D01*
X03555Y04014D02*
Y04024D01*
X04412Y03881D02*
X04422D01*
X04417Y03876D02*
Y03886D01*
X0444Y03629D02*
X04448D01*
X04444Y03625D02*
Y03633D01*
X0444Y03594D02*
X04448D01*
X04444Y0359D02*
Y03598D01*
X04515Y03629D02*
X04523D01*
X04519Y03625D02*
Y03633D01*
X04515Y03594D02*
X04523D01*
X04519Y0359D02*
Y03598D01*
X0379Y03816D02*
X03798D01*
X03794Y03812D02*
Y0382D01*
X03976Y02606D02*
X03984D01*
X0398Y02602D02*
Y0261D01*
X04011Y02606D02*
X04019D01*
X04015Y02602D02*
Y0261D01*
X05266Y03354D02*
X05276D01*
X05271Y03349D02*
Y03359D01*
X05333Y03279D02*
X05343D01*
X05338Y03274D02*
Y03284D01*
X02935Y03007D02*
X02945D01*
X0294Y03002D02*
Y03012D01*
X02857Y03031D02*
X02867D01*
X02862Y03026D02*
Y03036D01*
X03129Y0322D02*
X03137D01*
X03133Y03216D02*
Y03224D01*
X03192Y0324D02*
X032D01*
X03196Y03236D02*
Y03244D01*
X04511Y03472D02*
X04519D01*
X04515Y03468D02*
Y03476D01*
X03877Y02996D02*
X03885D01*
X03881Y02992D02*
Y03D01*
X01518Y03586D02*
X01528D01*
X01523Y03581D02*
Y03591D01*
X01898Y01992D02*
X01905D01*
X01901Y01988D02*
Y01995D01*
X0268Y02488D02*
X0269D01*
X02685Y02483D02*
Y02493D01*
X03074Y03137D02*
X03082D01*
X03078Y03133D02*
Y03141D01*
X03123Y03412D02*
X03131D01*
X03127Y03408D02*
Y03416D01*
X0246Y02213D02*
X02467D01*
X02464Y02209D02*
Y02216D01*
X02673Y02035D02*
X0268D01*
X02677Y02031D02*
Y02038D01*
X03944Y035D02*
X03952D01*
X03948Y03496D02*
Y03504D01*
X03799Y03578D02*
X03807D01*
X03803Y03574D02*
Y03582D01*
X03838Y03535D02*
X03846D01*
X03842Y03531D02*
Y03539D01*
X03885Y03622D02*
X03893D01*
X03889Y03618D02*
Y03626D01*
X03476Y03125D02*
X03484D01*
X0348Y03121D02*
Y03129D01*
X03932Y02456D02*
X03942D01*
X03937Y02451D02*
Y02461D01*
X03944Y02606D02*
X03952D01*
X03948Y02602D02*
Y0261D01*
X0398Y0272D02*
X03988D01*
X03984Y02716D02*
Y02724D01*
X04011Y0272D02*
X04019D01*
X04015Y02716D02*
Y02724D01*
X02948Y04306D02*
X02958D01*
X02953Y04301D02*
Y04311D01*
X03603Y04382D02*
X03611D01*
X03607Y04378D02*
Y04386D01*
X03042Y04306D02*
X03052D01*
X03047Y04301D02*
Y04311D01*
X03603Y04406D02*
X03611D01*
X03607Y04402D02*
Y0441D01*
X03073Y04417D02*
X03083D01*
X03078Y04412D02*
Y04422D01*
X03603Y0443D02*
X03611D01*
X03607Y04426D02*
Y04434D01*
X0301Y04417D02*
X0302D01*
X03015Y04412D02*
Y04422D01*
X03603Y04455D02*
X03611D01*
X03607Y04451D02*
Y04459D01*
X02979Y04417D02*
X02989D01*
X02984Y04412D02*
Y04422D01*
X03603Y04479D02*
X03611D01*
X03607Y04475D02*
Y04483D01*
X02885Y04417D02*
X02895D01*
X0289Y04412D02*
Y04422D01*
X03603Y04504D02*
X03611D01*
X03607Y045D02*
Y04508D01*
X02386Y04308D02*
X02396D01*
X02391Y04303D02*
Y04313D01*
X03599Y04702D02*
X03607D01*
X03603Y04698D02*
Y04706D01*
X02481Y04308D02*
X02491D01*
X02486Y04303D02*
Y04313D01*
X03599Y04724D02*
X03607D01*
X03603Y0472D02*
Y04728D01*
X02512Y04419D02*
X02522D01*
X02517Y04414D02*
Y04424D01*
X03599Y04746D02*
X03607D01*
X03603Y04742D02*
Y0475D01*
X02449Y04419D02*
X02459D01*
X02454Y04414D02*
Y04424D01*
X03599Y04769D02*
X03607D01*
X03603Y04765D02*
Y04773D01*
X02418Y04419D02*
X02428D01*
X02423Y04414D02*
Y04424D01*
X03599Y04791D02*
X03607D01*
X03603Y04787D02*
Y04795D01*
X02323Y04419D02*
X02333D01*
X02328Y04414D02*
Y04424D01*
X03599Y04814D02*
X03607D01*
X03603Y0481D02*
Y04818D01*
X04043Y03685D02*
X04051D01*
X04047Y03681D02*
Y03689D01*
X0381Y02704D02*
X03818D01*
X03814Y027D02*
Y02708D01*
X02819Y02224D02*
X02826D01*
X02822Y0222D02*
Y02227D01*
X02798Y02167D02*
X02805D01*
X02802Y02163D02*
Y0217D01*
X02819Y02181D02*
X02826D01*
X02822Y02177D02*
Y02184D01*
X03555Y04539D02*
X03563D01*
X03559Y04535D02*
Y04543D01*
X03555Y04342D02*
X03563D01*
X03559Y04338D02*
Y04346D01*
X03836Y02996D02*
X03844D01*
X0384Y02992D02*
Y03D01*
X03946Y03111D02*
X03954D01*
X0395Y03107D02*
Y03115D01*
X03602Y02955D02*
X0361D01*
X03606Y02951D02*
Y02959D01*
X04266Y02875D02*
X04274D01*
X0427Y02871D02*
Y02879D01*
X03834Y03074D02*
X03842D01*
X03838Y0307D02*
Y03078D01*
X03988Y03075D02*
X03996D01*
X03992Y03071D02*
Y03079D01*
X03877Y03078D02*
X03885D01*
X03881Y03074D02*
Y03082D01*
X03795Y03078D02*
X03803D01*
X03799Y03074D02*
Y03082D01*
X03716Y03078D02*
X03724D01*
X0372Y03074D02*
Y03082D01*
X03877Y03114D02*
X03885D01*
X03881Y0311D02*
Y03118D01*
X0383Y03106D02*
X03838D01*
X03834Y03102D02*
Y0311D01*
X04062Y03035D02*
X0407D01*
X04066Y03031D02*
Y03039D01*
X04578Y0335D02*
X04586D01*
X04582Y03346D02*
Y03354D01*
X04713Y03444D02*
X04721D01*
X04717Y0344D02*
Y03448D01*
X04339Y02961D02*
X04347D01*
X04343Y02957D02*
Y02965D01*
X04472Y03173D02*
X0448D01*
X04476Y03169D02*
Y03177D01*
X04875Y03741D02*
X04883D01*
X04879Y03737D02*
Y03745D01*
X03982Y02999D02*
X0399D01*
X03986Y02995D02*
Y03003D01*
X04911Y03741D02*
X04919D01*
X04915Y03737D02*
Y03745D01*
X03982Y02959D02*
X0399D01*
X03986Y02955D02*
Y02963D01*
X04948Y03741D02*
X04956D01*
X04952Y03737D02*
Y03745D01*
X03948Y02909D02*
X03956D01*
X03952Y02905D02*
Y02913D01*
X043Y0302D02*
X04308D01*
X04304Y03016D02*
Y03024D01*
X04263Y03192D02*
X04271D01*
X04267Y03188D02*
Y03196D01*
X0444Y03665D02*
X04448D01*
X04444Y03661D02*
Y03669D01*
X0394Y03539D02*
X03948D01*
X03944Y03535D02*
Y03543D01*
X03988Y03543D02*
X03996D01*
X03992Y03539D02*
Y03547D01*
X04062Y03456D02*
X0407D01*
X04066Y03452D02*
Y0346D01*
X03476Y03503D02*
X03484D01*
X0348Y03499D02*
Y03507D01*
X03755Y03299D02*
X03763D01*
X03759Y03295D02*
Y03303D01*
X03674Y03073D02*
X03682D01*
X03678Y03069D02*
Y03077D01*
X03718Y03227D02*
X03726D01*
X03722Y03223D02*
Y03231D01*
X03712Y0311D02*
X0372D01*
X03716Y03106D02*
Y03114D01*
X03354Y03385D02*
X03362D01*
X03358Y03381D02*
Y03389D01*
X03417Y03389D02*
X03425D01*
X03421Y03385D02*
Y03393D01*
X02981Y03111D02*
X02991D01*
X02986Y03106D02*
Y03116D01*
X0383Y03228D02*
X03838D01*
X03834Y03224D02*
Y03232D01*
X0388Y03226D02*
X03888D01*
X03884Y03222D02*
Y0323D01*
X03944Y03161D02*
X03952D01*
X03948Y03157D02*
Y03165D01*
X03877Y03036D02*
X03885D01*
X03881Y03032D02*
Y0304D01*
X03637Y03417D02*
X03645D01*
X03641Y03413D02*
Y03421D01*
X03716Y03035D02*
X03724D01*
X0372Y03031D02*
Y03039D01*
X03755Y03035D02*
X03763D01*
X03759Y03031D02*
Y03039D01*
X04144Y03225D02*
X04152D01*
X04148Y03221D02*
Y03229D01*
X03677Y03114D02*
X03685D01*
X03681Y0311D02*
Y03118D01*
X04269Y02917D02*
X04277D01*
X04273Y02913D02*
Y02921D01*
X0426Y03036D02*
X04268D01*
X04264Y03032D02*
Y0304D01*
X03681Y03499D02*
X03689D01*
X03685Y03495D02*
Y03503D01*
X04649Y03192D02*
X04657D01*
X04653Y03188D02*
Y03196D01*
X03796Y03224D02*
X03804D01*
X038Y0322D02*
Y03228D01*
X03757Y03224D02*
X03765D01*
X03761Y0322D02*
Y03228D01*
X03603Y033D02*
X03611D01*
X03607Y03296D02*
Y03304D01*
X05377Y0333D02*
X05385D01*
X05381Y03326D02*
Y03334D01*
X03603Y0326D02*
X03611D01*
X03607Y03256D02*
Y03264D01*
X05377Y03299D02*
X05385D01*
X05381Y03295D02*
Y03303D01*
X03795Y0311D02*
X03803D01*
X03799Y03106D02*
Y03114D01*
X03755Y0311D02*
X03763D01*
X03759Y03106D02*
Y03114D01*
X03675Y03271D02*
X03683D01*
X03679Y03267D02*
Y03275D01*
X03716Y03157D02*
X03724D01*
X0372Y03153D02*
Y03161D01*
X03834Y03185D02*
X03842D01*
X03838Y03181D02*
Y03189D01*
X03795Y03157D02*
X03803D01*
X03799Y03153D02*
Y03161D01*
X03759Y03157D02*
X03767D01*
X03763Y03153D02*
Y03161D01*
X04303Y03147D02*
X04311D01*
X04307Y03143D02*
Y03151D01*
X04271Y03153D02*
X04279D01*
X04275Y03149D02*
Y03157D01*
X04433Y03173D02*
X04441D01*
X04437Y03169D02*
Y03177D01*
X04472Y03149D02*
X0448D01*
X04476Y03145D02*
Y03153D01*
X04433Y03149D02*
X04441D01*
X04437Y03145D02*
Y03153D01*
X06518Y03997D02*
X06526D01*
X06522Y03993D02*
Y04001D01*
X06518Y04027D02*
X06526D01*
X06522Y04023D02*
Y04031D01*
X03642Y03221D02*
X0365D01*
X03646Y03217D02*
Y03225D01*
X03603Y03221D02*
X03611D01*
X03607Y03217D02*
Y03225D01*
X0644Y03865D02*
X06448D01*
X06444Y03861D02*
Y03869D01*
X03877Y02917D02*
X03885D01*
X03881Y02913D02*
Y02921D01*
X03796Y02996D02*
X03804D01*
X038Y02992D02*
Y03D01*
X03835Y02957D02*
X03843D01*
X03839Y02953D02*
Y02961D01*
X03677Y02917D02*
X03685D01*
X03681Y02913D02*
Y02921D01*
X03747Y02799D02*
X03755D01*
X03751Y02795D02*
Y02803D01*
X03797Y02957D02*
X03805D01*
X03801Y02953D02*
Y02961D01*
X03763Y02962D02*
X03771D01*
X03767Y02958D02*
Y02966D01*
X03796Y02876D02*
X03804D01*
X038Y02872D02*
Y0288D01*
X0383Y02763D02*
X03838D01*
X03834Y02759D02*
Y02767D01*
X03944Y0272D02*
X03952D01*
X03948Y02716D02*
Y02724D01*
X03603Y02881D02*
X03611D01*
X03607Y02877D02*
Y02885D01*
X06569Y02575D02*
X06577D01*
X06573Y02571D02*
Y02579D01*
X03633Y02921D02*
X03641D01*
X03637Y02917D02*
Y02925D01*
X04589Y02496D02*
X04597D01*
X04593Y02492D02*
Y025D01*
X06569Y02549D02*
X06577D01*
X06573Y02545D02*
Y02553D01*
X03674Y02841D02*
X03682D01*
X03678Y02837D02*
Y02845D01*
X04345Y02538D02*
X04355D01*
X0435Y02533D02*
Y02543D01*
X04589Y02527D02*
X04597D01*
X04593Y02523D02*
Y02531D01*
X05597Y0277D02*
X05606D01*
X05602Y02766D02*
Y02774D01*
X05597Y02676D02*
X05606D01*
X05602Y02672D02*
Y0268D01*
X05047Y02279D02*
X05055D01*
X05051Y02275D02*
Y02283D01*
X03597Y02798D02*
X03605D01*
X03601Y02794D02*
Y02802D01*
X05597Y02739D02*
X05606D01*
X05602Y02735D02*
Y02743D01*
X03599Y02835D02*
X03607D01*
X03603Y02831D02*
Y02839D01*
X05597Y02708D02*
X05606D01*
X05602Y02704D02*
Y02712D01*
X03708Y02956D02*
X03716D01*
X03712Y02952D02*
Y0296D01*
X06418Y03497D02*
X06426D01*
X06422Y03493D02*
Y03501D01*
X03673Y02952D02*
X03681D01*
X03677Y02948D02*
Y02956D01*
X06418Y03527D02*
X06426D01*
X06422Y03523D02*
Y03531D01*
X03716Y02838D02*
X03724D01*
X0372Y02834D02*
Y02842D01*
X06518Y03547D02*
X06526D01*
X06522Y03543D02*
Y03551D01*
X03712Y02799D02*
X0372D01*
X03716Y02795D02*
Y02803D01*
X06518Y03577D02*
X06526D01*
X06522Y03573D02*
Y03581D01*
X06518Y03427D02*
X06526D01*
X06522Y03423D02*
Y03431D01*
X03641Y02877D02*
X03649D01*
X03645Y02873D02*
Y02881D01*
X06518Y03397D02*
X06526D01*
X06522Y03393D02*
Y03401D01*
X03681Y02881D02*
X03689D01*
X03685Y02877D02*
Y02885D01*
X03413Y02838D02*
X03421D01*
X03417Y02834D02*
Y02842D01*
X03413Y02862D02*
X03421D01*
X03417Y02858D02*
Y02866D01*
X06371Y02747D02*
X06379D01*
X06375Y02743D02*
Y02751D01*
X06371Y02777D02*
X06379D01*
X06375Y02773D02*
Y02781D01*
X03555Y03188D02*
X03563D01*
X03559Y03184D02*
Y03192D01*
X03562Y03102D02*
X0357D01*
X03566Y03098D02*
Y03106D01*
X06368Y02499D02*
X06376D01*
X06372Y02495D02*
Y02503D01*
X06368Y02625D02*
X06376D01*
X06372Y02621D02*
Y02629D01*
X03015Y03118D02*
X03023D01*
X03019Y03114D02*
Y03122D01*
X02995Y02682D02*
X03002D01*
X02999Y02678D02*
Y02685D01*
X06008Y01488D02*
X06015D01*
X06011Y01484D02*
Y01491D01*
X0634Y02064D02*
X06348D01*
X06344Y0206D02*
Y02068D01*
X06519Y02699D02*
X06527D01*
X06523Y02695D02*
Y02703D01*
X06368Y02699D02*
X06376D01*
X06372Y02695D02*
Y02703D01*
X06593Y02363D02*
X06602D01*
X06598Y02359D02*
Y02367D01*
X06621Y02436D02*
X06629D01*
X06624Y02432D02*
Y0244D01*
X06418Y02412D02*
X06426D01*
X06422Y02408D02*
Y02416D01*
X06518Y03847D02*
X06526D01*
X06522Y03843D02*
Y03851D01*
X0383Y02917D02*
X03838D01*
X03834Y02913D02*
Y02921D01*
X06518Y03877D02*
X06526D01*
X06522Y03873D02*
Y03881D01*
X03787Y02917D02*
X03795D01*
X03791Y02913D02*
Y02921D01*
X04066Y02842D02*
X04074D01*
X0407Y02838D02*
Y02846D01*
X04464Y02799D02*
X04472D01*
X04468Y02795D02*
Y02803D01*
X04464Y02822D02*
X04472D01*
X04468Y02818D02*
Y02826D01*
X04425Y02799D02*
X04433D01*
X04429Y02795D02*
Y02803D01*
X0383Y02878D02*
X03838D01*
X03834Y02874D02*
Y02882D01*
X06518Y03697D02*
X06526D01*
X06522Y03693D02*
Y03701D01*
X0383Y02842D02*
X03838D01*
X03834Y02838D02*
Y02846D01*
X06518Y03727D02*
X06526D01*
X06522Y03723D02*
Y03731D01*
X03751Y02912D02*
X03759D01*
X03755Y02908D02*
Y02916D01*
X06418Y03647D02*
X06426D01*
X06422Y03643D02*
Y03651D01*
X03749Y02877D02*
X03757D01*
X03753Y02873D02*
Y02881D01*
X06418Y03677D02*
X06426D01*
X06422Y03673D02*
Y03681D01*
X05755Y05138D02*
X05765D01*
X0576Y05133D02*
Y05143D01*
X0583Y05138D02*
X0584D01*
X05835Y05133D02*
Y05143D01*
X05034Y05144D02*
X05044D01*
X05039Y05139D02*
Y05149D01*
X05108Y05144D02*
X05118D01*
X05113Y05139D02*
Y05149D01*
X0443Y03405D02*
X0444D01*
X04435Y034D02*
Y0341D01*
X04344Y03426D02*
X04352D01*
X04348Y03422D02*
Y0343D01*
X04377Y03426D02*
X04385D01*
X04381Y03422D02*
Y0343D01*
X04267Y03314D02*
X04275D01*
X04271Y0331D02*
Y03318D01*
X04226Y03343D02*
X04234D01*
X0423Y03339D02*
Y03347D01*
X05943Y05132D02*
X05953D01*
X05948Y05127D02*
Y05137D01*
X05965Y05158D02*
X05975D01*
X0597Y05153D02*
Y05163D01*
X06775Y05129D02*
X06785D01*
X0678Y05124D02*
Y05133D01*
X0664Y05138D02*
X0665D01*
X06645Y05133D02*
Y05143D01*
X03879Y03378D02*
X03887D01*
X03883Y03374D02*
Y03382D01*
X04464Y03503D02*
X04472D01*
X04468Y03499D02*
Y03507D01*
X04425Y03503D02*
X04433D01*
X04429Y03499D02*
Y03507D01*
X04464Y0348D02*
X04472D01*
X04468Y03476D02*
Y03484D01*
X04425Y0348D02*
X04433D01*
X04429Y03476D02*
Y03484D01*
X04263Y03458D02*
X04271D01*
X04267Y03454D02*
Y03462D01*
X03874Y03424D02*
X03882D01*
X03878Y0342D02*
Y03428D01*
X03943Y03381D02*
X03951D01*
X03947Y03377D02*
Y03385D01*
X03946Y03458D02*
X03954D01*
X0395Y03454D02*
Y03462D01*
X0391Y03381D02*
X03918D01*
X03914Y03377D02*
Y03385D01*
X03896Y03427D02*
X03904D01*
X039Y03423D02*
Y03431D01*
X03984Y035D02*
X03992D01*
X03988Y03496D02*
Y03504D01*
X04028Y0358D02*
X04036D01*
X04032Y03576D02*
Y03584D01*
X04105Y03536D02*
X04113D01*
X04109Y03532D02*
Y0354D01*
X04058Y03539D02*
X04066D01*
X04062Y03535D02*
Y03543D01*
X04078Y03685D02*
X04086D01*
X04082Y03681D02*
Y03689D01*
X04102Y03685D02*
X0411D01*
X04106Y03681D02*
Y03689D01*
X04149Y03466D02*
X04157D01*
X04153Y03462D02*
Y0347D01*
X04007Y03499D02*
X04015D01*
X04011Y03495D02*
Y03503D01*
X06033Y04934D02*
X06041D01*
X06037Y0493D02*
Y04938D01*
X0403Y03465D02*
X04038D01*
X04034Y03461D02*
Y03469D01*
X06065Y04934D02*
X06073D01*
X06069Y0493D02*
Y04938D01*
X04227Y03501D02*
X04235D01*
X04231Y03497D02*
Y03505D01*
X06096Y04934D02*
X06104D01*
X061Y0493D02*
Y04938D01*
X04264Y0354D02*
X04272D01*
X04268Y03536D02*
Y03544D01*
X06128Y04933D02*
X06136D01*
X06132Y04929D02*
Y04937D01*
X04106Y03468D02*
X04114D01*
X0411Y03464D02*
Y03472D01*
X06191Y04933D02*
X06199D01*
X06195Y04929D02*
Y04937D01*
X04107Y0343D02*
X04115D01*
X04111Y03426D02*
Y03434D01*
X06161Y04932D02*
X06169D01*
X06165Y04928D02*
Y04936D01*
X03993Y03463D02*
X04001D01*
X03997Y03459D02*
Y03467D01*
X06257Y04935D02*
X06265D01*
X0626Y04931D02*
Y04939D01*
X06225Y04936D02*
X06233D01*
X06229Y04932D02*
Y0494D01*
X03562Y02799D02*
X0357D01*
X03566Y02795D02*
Y02803D01*
X06418Y03227D02*
X06426D01*
X06422Y03223D02*
Y03231D01*
X06418Y03197D02*
X06426D01*
X06422Y03193D02*
Y03201D01*
X03563Y02841D02*
X03571D01*
X03567Y02837D02*
Y02845D01*
X05047Y02248D02*
X05055D01*
X05051Y02244D02*
Y02252D01*
X03603Y02999D02*
X03611D01*
X03607Y02995D02*
Y03003D01*
X06568Y02475D02*
X06576D01*
X06572Y02471D02*
Y02479D01*
X05047Y02216D02*
X05055D01*
X05051Y02212D02*
Y0222D01*
X03603Y03038D02*
X03611D01*
X03607Y03034D02*
Y03042D01*
X06568Y02449D02*
X06576D01*
X06572Y02445D02*
Y02453D01*
X03515Y02917D02*
X03523D01*
X03519Y02913D02*
Y02921D01*
X06518Y03277D02*
X06526D01*
X06522Y03273D02*
Y03281D01*
X03551Y02956D02*
X03559D01*
X03555Y02952D02*
Y0296D01*
X06518Y03247D02*
X06526D01*
X06522Y03243D02*
Y03251D01*
X03524Y03038D02*
X03532D01*
X03528Y03034D02*
Y03042D01*
X06418Y03077D02*
X06426D01*
X06422Y03073D02*
Y03081D01*
X03563Y03038D02*
X03571D01*
X03567Y03034D02*
Y03042D01*
X06418Y03047D02*
X06426D01*
X06422Y03043D02*
Y03051D01*
X03635Y02991D02*
X03643D01*
X03639Y02987D02*
Y02995D01*
X05996Y02D02*
X06004D01*
X05999Y01996D02*
Y02004D01*
X06519Y02649D02*
X06527D01*
X06523Y02645D02*
Y02653D01*
X03635Y02952D02*
X03643D01*
X03639Y02948D02*
Y02956D01*
X05996Y01968D02*
X06004D01*
X05999Y01964D02*
Y01972D01*
X06519Y02675D02*
X06527D01*
X06523Y02671D02*
Y02679D01*
X03594Y03114D02*
X03602D01*
X03598Y0311D02*
Y03118D01*
X06518Y03127D02*
X06526D01*
X06522Y03123D02*
Y03131D01*
X03629Y03115D02*
X03637D01*
X03633Y03111D02*
Y03119D01*
X06518Y03097D02*
X06526D01*
X06522Y03093D02*
Y03101D01*
X03526Y03153D02*
X03534D01*
X0353Y03149D02*
Y03157D01*
X06418Y02927D02*
X06426D01*
X06422Y02923D02*
Y02931D01*
X03564Y03157D02*
X03572D01*
X03568Y03153D02*
Y03161D01*
X06418Y02897D02*
X06426D01*
X06422Y02893D02*
Y02901D01*
X06618Y02697D02*
X06626D01*
X06622Y02693D02*
Y02701D01*
X03563Y03221D02*
X03571D01*
X03567Y03217D02*
Y03225D01*
X05505Y01928D02*
X05513D01*
X05509Y01924D02*
Y01932D01*
X06618Y02727D02*
X06626D01*
X06622Y02723D02*
Y02731D01*
X03563Y0326D02*
X03571D01*
X03567Y03256D02*
Y03264D01*
X05505Y01897D02*
X05513D01*
X05509Y01893D02*
Y01901D01*
X06518Y02947D02*
X06526D01*
X06522Y02943D02*
Y02951D01*
X03519Y03236D02*
X03527D01*
X03523Y03232D02*
Y0324D01*
X05326Y01897D02*
X05334D01*
X0533Y01893D02*
Y01901D01*
X06518Y02977D02*
X06526D01*
X06522Y02973D02*
Y02981D01*
X03519Y03275D02*
X03527D01*
X03523Y03271D02*
Y03279D01*
X05326Y01866D02*
X05334D01*
X0533Y01862D02*
Y0187D01*
X06518Y02797D02*
X06526D01*
X06522Y02793D02*
Y02801D01*
X05752Y01849D02*
X0576D01*
X05755Y01845D02*
Y01853D01*
X03522Y0334D02*
X0353D01*
X03526Y03336D02*
Y03344D01*
X06518Y02827D02*
X06526D01*
X06522Y02823D02*
Y02831D01*
X03522Y0338D02*
X0353D01*
X03526Y03376D02*
Y03384D01*
X05752Y01818D02*
X0576D01*
X05755Y01814D02*
Y01822D01*
X05885Y01767D02*
X05893D01*
X05889Y01763D02*
Y01771D01*
X03522Y03537D02*
X0353D01*
X03526Y03533D02*
Y03541D01*
X05885Y01736D02*
X05893D01*
X05889Y01732D02*
Y0174D01*
X03522Y03577D02*
X0353D01*
X03526Y03573D02*
Y03581D01*
X0372Y035D02*
X03728D01*
X03724Y03496D02*
Y03504D01*
X06368Y02449D02*
X06376D01*
X06372Y02445D02*
Y02453D01*
X0372Y03539D02*
X03728D01*
X03724Y03535D02*
Y03543D01*
X06368Y02475D02*
X06376D01*
X06372Y02471D02*
Y02479D01*
X03799Y03496D02*
X03807D01*
X03803Y03492D02*
Y035D01*
X06368Y02649D02*
X06376D01*
X06372Y02645D02*
Y02653D01*
X03799Y03536D02*
X03807D01*
X03803Y03532D02*
Y0354D01*
X06368Y02675D02*
X06376D01*
X06372Y02671D02*
Y02679D01*
X03839Y03418D02*
X03847D01*
X03843Y03414D02*
Y03422D01*
X0637Y02064D02*
X06378D01*
X06374Y0206D02*
Y02068D01*
X03839Y03457D02*
X03847D01*
X03843Y03453D02*
Y03461D01*
X06401Y02064D02*
X06409D01*
X06405Y0206D02*
Y02068D01*
X03603Y03378D02*
X03611D01*
X03607Y03374D02*
Y03382D01*
X06416Y03377D02*
X06424D01*
X0642Y03373D02*
Y03381D01*
X03603Y03339D02*
X03611D01*
X03607Y03335D02*
Y03343D01*
X06416Y03347D02*
X06424D01*
X0642Y03343D02*
Y03351D01*
X03629Y03772D02*
X03637D01*
X03633Y03768D02*
Y03776D01*
M02*