%FSTAX23Y23*%
%MOIN*%
%SFA1B1*%

%IPPOS*%
%AMD35*
4,1,8,0.025600,-0.026700,0.025600,0.026700,0.021700,0.030500,-0.021700,0.030500,-0.025600,0.026700,-0.025600,-0.026700,-0.021700,-0.030500,0.021700,-0.030500,0.025600,-0.026700,0.0*
1,1,0.007717,0.021700,-0.026700*
1,1,0.007717,0.021700,0.026700*
1,1,0.007717,-0.021700,0.026700*
1,1,0.007717,-0.021700,-0.026700*
%
%AMD83*
4,1,8,-0.012800,-0.025600,0.012800,-0.025600,0.025600,-0.012800,0.025600,0.012800,0.012800,0.025600,-0.012800,0.025600,-0.025600,0.012800,-0.025600,-0.012800,-0.012800,-0.025600,0.0*
%
%ADD11R,0.050000X0.029921*%
%ADD12O,0.050000X0.029921*%
%ADD13R,0.029724X0.011811*%
%ADD14R,0.011811X0.029724*%
%ADD16R,0.031496X0.031496*%
%ADD17R,0.051181X0.021654*%
%ADD18R,0.021654X0.051181*%
%ADD19R,0.066929X0.070866*%
%ADD20R,0.010000X0.010000*%
%ADD21R,0.070866X0.066929*%
%ADD22R,0.010000X0.010000*%
%ADD23R,0.039370X0.023622*%
%ADD24R,0.021654X0.023622*%
%ADD25R,0.023622X0.021654*%
%ADD26R,0.023622X0.039370*%
%ADD27R,0.070079X0.140157*%
%ADD28R,0.019685X0.078740*%
%ADD29R,0.043307X0.059055*%
%ADD30R,0.027559X0.051181*%
%ADD31R,0.066929X0.035433*%
%ADD32R,0.051181X0.027559*%
%ADD33R,0.102362X0.035433*%
%ADD34R,0.035433X0.102362*%
G04~CAMADD=35~8~0.0~0.0~610.2~511.8~38.6~0.0~15~0.0~0.0~0.0~0.0~0~0.0~0.0~0.0~0.0~0~0.0~0.0~0.0~270.0~512.0~610.0*
%ADD35D35*%
%ADD37R,0.031693X0.009843*%
%ADD38R,0.009843X0.031693*%
%ADD39R,0.106299X0.059055*%
%ADD40R,0.106299X0.041339*%
%ADD41R,0.023622X0.043307*%
%ADD42R,0.029921X0.015945*%
%ADD43R,0.038976X0.015945*%
%ADD44R,0.067913X0.038976*%
%ADD45R,0.140157X0.070079*%
%ADD46R,0.039370X0.035433*%
%ADD47R,0.039370X0.019685*%
%ADD48R,0.078740X0.098425*%
%ADD49R,0.464566X0.078740*%
%ADD50C,0.019685*%
%ADD73R,0.060000X0.060000*%
%ADD74C,0.060000*%
%ADD75R,0.065000X0.160000*%
%ADD76R,0.160000X0.065000*%
%ADD77C,0.125984*%
%ADD78C,0.157480*%
%ADD79C,0.061024*%
%ADD80C,0.106299*%
%ADD81C,0.039370*%
%ADD82C,0.051181*%
G04~CAMADD=83~4~0.0~0.0~511.8~511.8~0.0~128.0~0~0.0~0.0~0.0~0.0~0~0.0~0.0~0.0~0.0~0~0.0~0.0~0.0~180.0~512.0~512.0*
%ADD83D83*%
%ADD84R,0.059055X0.059055*%
%ADD85C,0.059055*%
%ADD86C,0.037401*%
%ADD87R,0.078740X0.078740*%
%ADD88C,0.196850*%
%ADD89C,0.015000*%
%ADD91C,0.020000*%
%ADD92C,0.019685*%
%ADD139C,0.000787*%
%ADD140C,0.007992*%
%ADD141R,0.070000X0.560983*%
%ADD142R,0.001457X0.001457*%
%ADD143C,0.029016*%
%LNatfc_soldermask_top-1*%
%LPD*%
G54D11*
X0734Y0382D03*
G54D12*
X0734Y0387D03*
Y0392D03*
Y0397D03*
X07041Y0382D03*
Y0387D03*
Y0392D03*
Y0397D03*
G54D13*
X04749Y02088D03*
Y02107D03*
Y02127D03*
Y02147D03*
Y02166D03*
Y02186D03*
Y02206D03*
Y02225D03*
Y02245D03*
Y02265D03*
Y02284D03*
Y02304D03*
X04479D03*
Y02284D03*
Y02265D03*
Y02245D03*
Y02225D03*
Y02206D03*
Y02186D03*
Y02166D03*
Y02147D03*
Y02127D03*
Y02107D03*
Y02088D03*
G54D14*
X04723Y02331D03*
X04703D03*
X04683D03*
X04664D03*
X04644D03*
X04624D03*
X04604D03*
X04585D03*
X04565D03*
X04545D03*
X04526D03*
X04506D03*
Y02061D03*
X04526D03*
X04545D03*
X04565D03*
X04585D03*
X04604D03*
X04624D03*
X04644D03*
X04664D03*
X04683D03*
X04703D03*
X04723D03*
G54D16*
X03435Y01935D03*
Y0187D03*
X06122Y05339D03*
Y05274D03*
X06175Y0534D03*
Y05275D03*
X04911Y03228D03*
Y03293D03*
X03487Y01935D03*
Y0187D03*
G54D17*
X03775Y01657D03*
Y01582D03*
Y0162D03*
X03681Y01657D03*
Y01582D03*
X03574Y03547D03*
Y03622D03*
Y03584D03*
X03668Y03547D03*
Y03622D03*
G54D18*
X03241Y04849D03*
X03315D03*
X03278D03*
X03241Y04754D03*
X03315D03*
G54D19*
X03686Y01752D03*
X03816D03*
X0365Y03431D03*
X0352D03*
G54D20*
X03769Y01752D03*
X03733D03*
X03567Y03431D03*
X03603D03*
G54D21*
X03135Y04795D03*
Y04925D03*
G54D22*
X03135Y04878D03*
Y04842D03*
G54D23*
X03914Y02263D03*
Y02322D03*
X05671Y04788D03*
Y04847D03*
X05615Y04701D03*
Y04642D03*
X05675Y04725D03*
Y04666D03*
X05613Y04814D03*
Y04873D03*
X05671Y04476D03*
Y04535D03*
X05611Y04379D03*
Y0432D03*
X05672Y04407D03*
Y04348D03*
X05616Y04504D03*
Y04563D03*
X04909Y03128D03*
Y03187D03*
Y03033D03*
Y03092D03*
X04943Y02207D03*
Y02148D03*
X04851Y01776D03*
Y01717D03*
G54D24*
X04577Y02D03*
Y01966D03*
X03517Y03621D03*
Y03587D03*
X0383Y01584D03*
Y01618D03*
X04191Y02262D03*
Y02227D03*
Y02178D03*
Y02143D03*
X03517Y03545D03*
Y03511D03*
X03242Y04905D03*
Y0494D03*
X03438Y02912D03*
Y02878D03*
X05061Y02168D03*
Y02202D03*
X03205Y02912D03*
Y02878D03*
X03169Y02912D03*
Y02878D03*
X04725Y02443D03*
Y02409D03*
X04724Y01949D03*
Y01983D03*
X0451Y02445D03*
Y0241D03*
X04495Y01949D03*
Y01983D03*
X03367Y02912D03*
Y02878D03*
X06122Y05237D03*
Y05202D03*
X06174Y05234D03*
Y05199D03*
X06602Y02766D03*
Y02801D03*
X06775Y0277D03*
Y02805D03*
X05495Y04017D03*
Y03983D03*
X05461Y04017D03*
Y03983D03*
X06811Y03799D03*
Y03765D03*
X06884Y03799D03*
Y03765D03*
X0692Y03799D03*
Y03765D03*
X06847Y03799D03*
Y03765D03*
X04774Y03201D03*
Y03167D03*
X04842Y03201D03*
Y03167D03*
X04643Y01966D03*
Y01999D03*
X0461Y01966D03*
Y01999D03*
X04686Y02444D03*
Y0241D03*
X04691Y01949D03*
Y01982D03*
X04545Y02444D03*
Y0241D03*
X04528Y0195D03*
Y01983D03*
X04783Y01975D03*
Y02008D03*
X04426Y02274D03*
Y02241D03*
X04425Y02165D03*
Y02132D03*
X03402Y02911D03*
Y02878D03*
X03367Y02982D03*
Y02949D03*
X03322Y02911D03*
Y02878D03*
X04874Y03435D03*
Y03468D03*
X08374Y02147D03*
Y02114D03*
X0834Y02147D03*
Y02114D03*
X03286Y02912D03*
Y02878D03*
X07171Y04991D03*
Y04957D03*
X07106D03*
Y04991D03*
X07204D03*
Y04957D03*
X07139D03*
Y04991D03*
X07304D03*
Y04957D03*
X07239D03*
Y04991D03*
X07337D03*
Y04957D03*
X07272D03*
Y04991D03*
X08068Y04995D03*
Y04961D03*
X08005D03*
Y04995D03*
X081D03*
Y04961D03*
X08197Y04995D03*
Y04961D03*
X08134D03*
Y04995D03*
X08229D03*
Y04961D03*
X08037D03*
Y04995D03*
X08166Y04961D03*
Y04995D03*
G54D25*
X03315Y04904D03*
X0328D03*
X03829Y01657D03*
X03863D03*
X03478Y0295D03*
X03443D03*
X05022Y02207D03*
X04988D03*
X04665Y01905D03*
X04631D03*
X04738D03*
X04704D03*
X04553Y02499D03*
X04588D03*
X04478Y025D03*
X04513D03*
X04515Y01905D03*
X04481D03*
X0459D03*
X04556D03*
X04632Y0242D03*
X04598D03*
X0742Y0397D03*
X07385D03*
X0742Y03921D03*
X07385D03*
X0742Y0387D03*
X07385D03*
X0742Y03821D03*
X07385D03*
X04793Y0306D03*
X04828D03*
X04878Y02207D03*
X04845D03*
X03435Y03047D03*
X03402D03*
X03477Y02985D03*
X03443D03*
X03101Y03066D03*
X03134D03*
X05031Y03452D03*
X05065D03*
X05031Y03409D03*
X05065D03*
X03491Y02844D03*
X03526D03*
G54D26*
X05535Y04735D03*
X05475D03*
X05536Y04424D03*
X05476D03*
X0306Y04144D03*
X0312D03*
X03117Y03829D03*
X03057D03*
X0444Y03504D03*
X045D03*
X05535Y04782D03*
X05475D03*
X05536Y04474D03*
X05476D03*
G54D27*
X03987Y02482D03*
X04357D03*
X0399Y01905D03*
X0436D03*
G54D28*
X05032Y0404D03*
X05063D03*
X04843D03*
X04874D03*
X05079Y04363D03*
X05048D03*
X05016D03*
X04985D03*
X04953D03*
X04922D03*
X0489D03*
X04859D03*
X04827D03*
X04796D03*
X04811Y0404D03*
X04906D03*
X04937D03*
X04969D03*
X05D03*
X05095D03*
X04282D03*
X04518Y04363D03*
X04487D03*
X04455D03*
X04424D03*
X04392D03*
X04361D03*
X04329D03*
X04298D03*
X04266D03*
X04235D03*
X0425Y0404D03*
X04313D03*
X04345D03*
X04376D03*
X04408D03*
X04439D03*
X04471D03*
X04502D03*
X04534D03*
G54D29*
X05793Y05233D03*
Y05352D03*
X05733D03*
Y05233D03*
X06D03*
Y05352D03*
X0594D03*
Y05233D03*
G54D30*
X03282Y03367D03*
X03356D03*
X06387Y03161D03*
X06462D03*
Y03271D03*
X06387D03*
X05395Y03414D03*
X0532D03*
Y03535D03*
X05395D03*
X06379Y03492D03*
X06454D03*
Y02909D03*
X06379D03*
X05328Y0285D03*
X05403D03*
Y02909D03*
X05328D03*
X06454Y03015D03*
X06379D03*
X06453Y02807D03*
X06379D03*
X03282Y03431D03*
X03356D03*
G54D31*
X03819Y02151D03*
Y02037D03*
X0391Y02151D03*
Y02037D03*
G54D32*
X04853Y02244D03*
Y02319D03*
X04461Y0238D03*
Y02455D03*
X04854Y0214D03*
Y02065D03*
X04438Y0202D03*
Y01945D03*
X03044Y03044D03*
Y03119D03*
X02982Y03044D03*
Y03119D03*
X05692Y0369D03*
Y03765D03*
X05929Y03738D03*
Y03663D03*
G54D33*
X05314Y03021D03*
Y03135D03*
G54D34*
X05336Y03244D03*
X05222D03*
X06394Y03632D03*
X06508D03*
G54D35*
X04387Y035D03*
Y03187D03*
X04209Y035D03*
Y03187D03*
X03165Y03831D03*
Y04144D03*
X03343Y03831D03*
Y04144D03*
G54D37*
X03339Y03012D03*
Y03032D03*
Y03052D03*
Y03071D03*
Y03091D03*
Y03111D03*
X03185D03*
Y03091D03*
Y03071D03*
Y03052D03*
Y03032D03*
Y03012D03*
G54D38*
X03311Y03138D03*
X03292D03*
X03272D03*
X03252D03*
X03232D03*
X03213D03*
Y02985D03*
X03232D03*
X03252D03*
X03272D03*
X03292D03*
X03311D03*
G54D39*
X03262Y03037D03*
G54D40*
X03262Y03094D03*
G54D41*
X06727Y02845D03*
X06689D03*
X06652D03*
Y0275D03*
X06689D03*
X06727D03*
G54D42*
X04373Y02211D03*
Y02186D03*
Y02162D03*
Y02236D03*
G54D43*
X04256Y0216D03*
Y02186D03*
Y02212D03*
Y02238D03*
G54D44*
X04334Y02223D03*
Y02175D03*
G54D45*
X05118Y0172D03*
Y0209D03*
G54D46*
X04991Y03494D03*
X04917D03*
X04991Y03409D03*
X04917D03*
G54D47*
X04991Y03452D03*
X04917D03*
G54D48*
X03822Y02233D03*
Y0239D03*
G54D49*
X04945Y04706D03*
X04384D03*
G54D50*
X05745Y03563D03*
Y03602D03*
Y02775D03*
Y02815D03*
X0547Y02972D03*
Y03011D03*
Y03051D03*
Y0309D03*
Y03169D03*
Y03208D03*
Y03563D03*
Y03602D03*
X05666Y02854D03*
X0547Y03248D03*
Y03287D03*
X05666Y03563D03*
Y03602D03*
X05509Y02933D03*
Y02972D03*
X0547Y03366D03*
Y03405D03*
X05509Y02775D03*
X05588Y03563D03*
Y03602D03*
X06296Y02775D03*
X06257D03*
X06218D03*
X06178D03*
X06139D03*
X061D03*
X0606D03*
X06021D03*
X05981D03*
X05942D03*
X05903D03*
X05863D03*
X05824D03*
X05785D03*
X05706D03*
X05666D03*
X05627D03*
X05588D03*
X05548D03*
X06296Y02815D03*
X06257D03*
X06218D03*
X06178D03*
X06139D03*
X061D03*
X0606D03*
X06021D03*
X05981D03*
X05942D03*
X05903D03*
X05863D03*
X05824D03*
X05785D03*
X05706D03*
X05666D03*
X05627D03*
X05588D03*
X05548D03*
X05509D03*
X06296Y02854D03*
X06257D03*
X06218D03*
X06178D03*
X06139D03*
X061D03*
X0606D03*
X06021D03*
X05981D03*
X05942D03*
X05903D03*
X05863D03*
X05824D03*
X05785D03*
X05745D03*
X05706D03*
X05627D03*
X05588D03*
X05548D03*
X05509D03*
X06296Y02893D03*
X06257D03*
X06218D03*
X06178D03*
X06139D03*
X061D03*
X0606D03*
X06021D03*
X05981D03*
X05942D03*
X05903D03*
X05863D03*
X05824D03*
X05785D03*
X05745D03*
X05706D03*
X05666D03*
X05627D03*
X05588D03*
X05548D03*
X05509D03*
X06296Y02933D03*
X06257D03*
X06218D03*
X06178D03*
X06139D03*
X061D03*
X0606D03*
X06021D03*
X05981D03*
X05942D03*
X05903D03*
X05863D03*
X05824D03*
X05785D03*
X05745D03*
X05706D03*
X05666D03*
X05588D03*
X05548D03*
X0547D03*
X06296Y02972D03*
X06257D03*
X06218D03*
X06178D03*
X06139D03*
X061D03*
X0606D03*
X06021D03*
X05981D03*
X05942D03*
X05903D03*
X05863D03*
X05824D03*
X05785D03*
X05745D03*
X05706D03*
X05627D03*
X05588D03*
X05548D03*
X06296Y03011D03*
X06257D03*
X06218D03*
X06178D03*
X06139D03*
X061D03*
X0606D03*
X06021D03*
X05981D03*
X05942D03*
X05903D03*
X05863D03*
X05824D03*
X05785D03*
X05745D03*
X05706D03*
X05666D03*
X05627D03*
X05588D03*
X05548D03*
X05509D03*
X06296Y03051D03*
X06257D03*
X06218D03*
X06178D03*
X06139D03*
X061D03*
X0606D03*
X06021D03*
X05981D03*
X05942D03*
X05903D03*
X05863D03*
X05824D03*
X05785D03*
X05745D03*
X05706D03*
X05666D03*
X05627D03*
X05588D03*
X05548D03*
X05509D03*
X06296Y0309D03*
X06257D03*
X06218D03*
X06178D03*
X06139D03*
X061D03*
X0606D03*
X06021D03*
X05981D03*
X05942D03*
X05903D03*
X05863D03*
X05824D03*
X05785D03*
X05745D03*
X05706D03*
X05666D03*
X05627D03*
X05588D03*
X05548D03*
X05509D03*
X06296Y03129D03*
X06257D03*
X06218D03*
X06178D03*
X06139D03*
X061D03*
X0606D03*
X06021D03*
X05981D03*
X05942D03*
X05903D03*
X05863D03*
X05824D03*
X05785D03*
X05745D03*
X05706D03*
X05666D03*
X05627D03*
X05588D03*
X05548D03*
X05509D03*
X0547D03*
X06296Y03169D03*
X06257D03*
X06218D03*
X06178D03*
X06139D03*
X061D03*
X0606D03*
X06021D03*
X05981D03*
X05942D03*
X05903D03*
X05863D03*
X05824D03*
X05785D03*
X05745D03*
X05706D03*
X05666D03*
X05627D03*
X05588D03*
X05548D03*
X05509D03*
X06296Y03208D03*
X06257D03*
X06218D03*
X06178D03*
X06139D03*
X061D03*
X0606D03*
X06021D03*
X05981D03*
X05942D03*
X05903D03*
X05863D03*
X05824D03*
X05785D03*
X05745D03*
X05706D03*
X05666D03*
X05627D03*
X05588D03*
X05548D03*
X05509D03*
X06296Y03248D03*
X06257D03*
X06218D03*
X06178D03*
X06139D03*
X061D03*
X0606D03*
X06021D03*
X05981D03*
X05942D03*
X05903D03*
X05863D03*
X05824D03*
X05785D03*
X05745D03*
X05706D03*
X05666D03*
X05627D03*
X05588D03*
X05548D03*
X05509D03*
X06296Y03287D03*
X06257D03*
X06218D03*
X06178D03*
X06139D03*
X061D03*
X0606D03*
X06021D03*
X05981D03*
X05942D03*
X05903D03*
X05863D03*
X05824D03*
X05785D03*
X05745D03*
X05706D03*
X05666D03*
X05627D03*
X05588D03*
X05548D03*
X05509D03*
X06296Y03326D03*
X06257D03*
X06218D03*
X06178D03*
X06139D03*
X061D03*
X0606D03*
X06021D03*
X05981D03*
X05942D03*
X05903D03*
X05863D03*
X05824D03*
X05785D03*
X05745D03*
X05706D03*
X05666D03*
X05627D03*
X05588D03*
X05548D03*
X05509D03*
X0547D03*
X06296Y03366D03*
X06257D03*
X06218D03*
X06178D03*
X06139D03*
X061D03*
X0606D03*
X06021D03*
X05981D03*
X05942D03*
X05903D03*
X05863D03*
X05824D03*
X05785D03*
X05745D03*
X05706D03*
X05666D03*
X05627D03*
X05588D03*
X05548D03*
X05509D03*
X06296Y03405D03*
X06257D03*
X06218D03*
X06178D03*
X06139D03*
X061D03*
X0606D03*
X06021D03*
X05981D03*
X05942D03*
X05903D03*
X05863D03*
X05785D03*
X05745D03*
X05706D03*
X05666D03*
X05627D03*
X05588D03*
X05548D03*
X05509D03*
X06296Y03444D03*
X06257D03*
X06218D03*
X06178D03*
X06139D03*
X061D03*
X0606D03*
X06021D03*
X05981D03*
X05942D03*
X05903D03*
X05863D03*
X05824D03*
X05785D03*
X05745D03*
X05706D03*
X05666D03*
X05627D03*
X05588D03*
X05548D03*
X05509D03*
X06296Y03484D03*
X06257D03*
X06218D03*
X06178D03*
X06139D03*
X061D03*
X0606D03*
X06021D03*
X05981D03*
X05942D03*
X05903D03*
X05863D03*
X05824D03*
X05785D03*
X05745D03*
X05706D03*
X05666D03*
X05627D03*
X05588D03*
X05548D03*
X05509D03*
X06296Y03523D03*
X06257D03*
X06218D03*
X06178D03*
X06139D03*
X061D03*
X0606D03*
X06021D03*
X05981D03*
X05942D03*
X05903D03*
X05863D03*
X05824D03*
X05785D03*
X05745D03*
X05706D03*
X05666D03*
X05627D03*
X05588D03*
X05548D03*
X05509D03*
X0547D03*
X06296Y03563D03*
X06257D03*
X06218D03*
X06178D03*
X06139D03*
X061D03*
X0606D03*
X06021D03*
X05981D03*
X05942D03*
X05903D03*
X05863D03*
X05824D03*
X05785D03*
X05706D03*
X05627D03*
X05548D03*
X05509D03*
X06296Y03602D03*
X06257D03*
X06218D03*
X06178D03*
X06139D03*
X061D03*
X0606D03*
X06021D03*
X05981D03*
X05942D03*
X05903D03*
X05863D03*
X05824D03*
X05785D03*
X05706D03*
X05627D03*
X05548D03*
X05509D03*
X05666Y02972D03*
X05627Y02933D03*
X0547Y03484D03*
Y03444D03*
X05824Y03405D03*
X0547Y02815D03*
Y02775D03*
Y02893D03*
Y02854D03*
G54D73*
X08059Y05085D03*
X07159D03*
G54D74*
X08159Y05085D03*
X08259D03*
X08359D03*
X08459D03*
X08559D03*
X08059Y05185D03*
X08159D03*
X08259D03*
X08359D03*
X08459D03*
X08559D03*
X07259Y05085D03*
X07359D03*
X07459D03*
X07559D03*
X07659D03*
X07159Y05185D03*
X07259D03*
X07359D03*
X07459D03*
X07559D03*
X07659D03*
X0351Y03296D03*
Y03159D03*
G54D75*
X02956Y05204D03*
G54D76*
X03145Y05314D03*
Y05086D03*
G54D77*
X08519Y02121D03*
Y04602D03*
G54D78*
X08869Y05474D03*
X02769D03*
Y01537D03*
X08869D03*
G54D79*
X04756Y04202D03*
X05134D03*
X04195D03*
X04573D03*
G54D80*
X03608Y05084D03*
Y05265D03*
Y04902D03*
G54D81*
X06938Y04467D03*
G54D82*
X06899Y04428D03*
X06978D03*
X07056D03*
X07135D03*
X07214D03*
X07292D03*
X07371D03*
X06899Y04507D03*
X06978D03*
X07056D03*
X07135D03*
X07214D03*
X07292D03*
G54D83*
X07371Y04507D03*
G54D84*
X04666Y03115D03*
X06364Y04917D03*
X0296Y04715D03*
G54D85*
X04666Y03215D03*
X06464Y04917D03*
X06364Y04817D03*
X06464D03*
X06364Y04717D03*
X06464D03*
X06364Y04617D03*
X06464D03*
X06364Y04517D03*
X06464D03*
X06364Y04417D03*
X06464D03*
X0296Y04815D03*
G54D86*
X05134Y03958D03*
X04945D03*
X04384D03*
X04573D03*
X05226Y04521D03*
X04104D03*
G54D87*
X05226Y05418D03*
Y05025D03*
Y04631D03*
Y04336D03*
Y04139D03*
X04104Y05221D03*
Y04828D03*
Y04434D03*
Y0404D03*
X04665D03*
Y04434D03*
Y04828D03*
Y05221D03*
G54D88*
X06414Y05167D03*
G54D89*
X04862Y01732D03*
X04842D03*
X0798Y01487D03*
X04967Y02682D03*
X04791Y02181D03*
X0477Y02167D03*
X04791Y02224D03*
X04645Y02035D03*
X04432Y02212D03*
X0387Y01992D03*
X04758Y01966D03*
X04665Y02405D03*
X04492Y02409D03*
X04723Y0236D03*
X04703D03*
X04908Y02215D03*
Y02197D03*
X04872Y02064D03*
X04854D03*
X04836D03*
X04612Y02499D03*
X04222Y0215D03*
X04222Y02212D03*
X04418Y02194D03*
X04609Y0193D03*
X04634Y01944D03*
X04585D03*
X0382Y02464D03*
X04525Y0237D03*
X04723Y02025D03*
X04506Y02032D03*
X04623Y0203D03*
X04444Y02332D03*
X04474D03*
X04427Y02055D03*
X04459Y0207D03*
X03893Y01992D03*
X03913D03*
X03933D03*
X04645Y02389D03*
X04842Y01759D03*
X04862D03*
X05041Y02207D03*
G54D91*
X08613Y05137D03*
X08748Y05129D03*
X07938Y05157D03*
X07917Y05132D03*
X06403Y03405D03*
X07082Y05144D03*
X07008D03*
X07803Y05137D03*
X07728Y05138D03*
X06318Y02537D03*
X04954Y0311D03*
X04297Y04419D03*
X04391D03*
X04422D03*
X04485D03*
X04454Y04307D03*
X0436D03*
X04858Y04417D03*
X04952D03*
X04984D03*
X05047D03*
X05015Y04305D03*
X04921D03*
X05905Y02456D03*
X04653Y02488D03*
X03492Y03586D03*
X0483Y03031D03*
X04909Y03007D03*
X07307Y03279D03*
X0724Y03354D03*
X06385Y03881D03*
X05523Y04019D03*
X06251Y02527D03*
X03547Y02877D03*
X03515D03*
X03488D03*
X03342Y03996D03*
X03838Y04629D03*
Y04696D03*
X03834Y04251D03*
Y04188D03*
X05429Y04661D03*
X05492Y04614D03*
X05488Y04267D03*
Y04188D03*
X07137Y04291D03*
X07141Y04362D03*
X04208Y03334D03*
X0346Y02062D03*
X04916Y03357D03*
X0594Y05177D03*
X05733Y05178D03*
X06175Y05372D03*
X06122Y05375D03*
X05431Y04015D03*
X0563Y04075D03*
X06513Y03352D03*
X04247Y02952D03*
X03269Y03184D03*
X03232Y03183D03*
X03286Y02837D03*
X04406Y02842D03*
X04628Y02549D03*
X04445Y03187D03*
X06205Y0155D03*
X06085D03*
X05885D03*
X06165D03*
X06125D03*
X06045D03*
X05965D03*
X05925D03*
X06005D03*
X03413Y02014D03*
X03487Y01832D03*
X03435Y01833D03*
X04841Y0325D03*
X04807Y03214D03*
Y0325D03*
X04765Y03134D03*
Y03099D03*
X04031Y04137D03*
X03865Y01584D03*
X03517Y0366D03*
X03352Y04904D03*
X03252Y02947D03*
X05298Y04144D03*
Y04179D03*
X053Y04702D03*
Y04735D03*
X04032Y047D03*
Y04735D03*
X04031Y0417D03*
X04778Y04865D03*
X04838D03*
X04898D03*
X04958D03*
X05018D03*
X05078D03*
X05138D03*
X04562Y04865D03*
X04502D03*
X04442D03*
X04382D03*
X04322D03*
X04262D03*
X04202D03*
X04408Y04097D03*
X04251D03*
X04345D03*
X04811Y041D03*
X04906D03*
X04328Y04307D03*
X0489Y04305D03*
X04827D03*
X05078D03*
X04795D03*
X04265Y04307D03*
X04234D03*
X05094Y041D03*
X05D03*
X04968D03*
X04937D03*
X04534Y04097D03*
X0444D03*
X04377D03*
X0701Y03845D03*
X07009Y03895D03*
X0701Y03947D03*
X03435Y01968D03*
X03487Y01966D03*
X06046Y05232D03*
X05893Y0535D03*
X06043Y05352D03*
X05836Y05234D03*
Y0535D03*
X05689Y05355D03*
X06846Y0339D03*
X05865Y02667D03*
X06318Y02566D03*
X05982Y0252D03*
X05743Y0252D03*
X05705Y02525D03*
X06638Y0311D03*
X07099Y03102D03*
Y03455D03*
X05743Y02457D03*
Y02489D03*
X05474Y03892D03*
X03507Y02985D03*
X03101Y04741D03*
X03132Y04742D03*
X03162D03*
X03101Y04711D03*
X03157Y04712D03*
X031Y04681D03*
X03133Y04682D03*
X03668Y03659D03*
X02967Y02973D03*
X02999D03*
X0303D03*
X0306D03*
X0309D03*
X02969Y03151D03*
X02998D03*
X0303Y0315D03*
X03062Y03149D03*
X03813Y0259D03*
X03856D03*
X03902D03*
X03948D03*
Y02634D03*
X03902D03*
X03856D03*
X03813D03*
X03893Y02212D03*
X03931Y02214D03*
X03968Y02212D03*
X04007Y02214D03*
X03686Y01819D03*
Y01857D03*
Y01894D03*
Y01934D03*
Y01975D03*
X03681Y01609D03*
X03858Y01621D03*
X06109Y03927D03*
X06108Y04019D03*
X05876Y04017D03*
X05873Y03982D03*
X0588Y03892D03*
Y0382D03*
X0584Y03939D03*
X06147Y03965D03*
X05439Y03892D03*
X05625Y03854D03*
X05539Y03952D03*
X05681D03*
X05783Y0249D03*
X06053Y02515D03*
X06354Y02482D03*
X06129Y0248D03*
X06105Y02387D03*
X06701Y03157D03*
X06122Y05162D03*
X06174Y0516D03*
X03763Y03384D03*
Y03419D03*
X03764Y03485D03*
X03763Y03454D03*
X0373Y03385D03*
Y0342D03*
X03731Y03485D03*
Y03454D03*
X04517Y04307D03*
X06107Y03887D03*
X06106Y03842D03*
X0588Y03857D03*
X07108Y02973D03*
X06698Y02876D03*
X06696Y03015D03*
X06527Y02889D03*
Y02925D03*
X06574Y02751D03*
X03514Y02065D03*
X07159Y0397D03*
X0716Y0392D03*
X07157Y0387D03*
X07162Y0382D03*
G54D92*
X06019Y03938D03*
Y03895D03*
X05976D03*
Y03938D03*
G54D139*
X03174Y02339D02*
Y02495D01*
Y02139D02*
Y02278D01*
Y01906D02*
Y0204D01*
X03173Y02339D02*
Y02495D01*
Y02139D02*
Y02279D01*
Y01904D02*
Y02041D01*
X03172Y02339D02*
Y02495D01*
Y02138D02*
Y0228D01*
Y01903D02*
Y02042D01*
X03171Y02339D02*
Y02495D01*
Y02136D02*
Y02281D01*
Y01902D02*
Y02043D01*
X0317Y02339D02*
Y02495D01*
Y02135D02*
Y02282D01*
Y01902D02*
Y02044D01*
X0317Y02339D02*
Y02495D01*
Y02135D02*
Y02283D01*
Y019D02*
Y02045D01*
X03169Y02339D02*
Y02495D01*
Y02134D02*
Y02284D01*
Y01899D02*
Y02046D01*
X03168Y02339D02*
Y02495D01*
Y02132D02*
Y02285D01*
Y01899D02*
Y02047D01*
X03167Y02339D02*
Y02495D01*
Y02131D02*
Y02286D01*
Y01898D02*
Y02047D01*
X03166Y02339D02*
Y02495D01*
Y0213D02*
Y02287D01*
Y01897D02*
Y02048D01*
X03166Y02339D02*
Y02495D01*
Y0213D02*
Y02288D01*
Y01896D02*
Y02049D01*
X03165Y02339D02*
Y02495D01*
Y02129D02*
Y02289D01*
Y01895D02*
Y0205D01*
X03164Y02339D02*
Y02495D01*
Y02128D02*
Y0229D01*
Y01895D02*
Y0205D01*
X03163Y02339D02*
Y02495D01*
Y02127D02*
Y0229D01*
Y01895D02*
Y02051D01*
X03162Y02339D02*
Y02495D01*
Y02127D02*
Y02291D01*
Y01894D02*
Y02052D01*
X03162Y02339D02*
Y02495D01*
Y02126D02*
Y02292D01*
Y01893D02*
Y02053D01*
X03161Y02339D02*
Y02495D01*
Y02125D02*
Y02293D01*
Y01892D02*
Y02054D01*
X0316Y02339D02*
Y02495D01*
Y02125D02*
Y02294D01*
Y01891D02*
Y02054D01*
X03159Y02339D02*
Y02495D01*
Y02124D02*
Y02295D01*
Y0189D02*
Y02055D01*
X03158Y02339D02*
Y02495D01*
Y02123D02*
Y02295D01*
Y0189D02*
Y02055D01*
X03158Y02339D02*
Y02495D01*
Y02122D02*
Y02295D01*
Y0189D02*
Y02056D01*
X03157Y02339D02*
Y02495D01*
Y02122D02*
Y02296D01*
Y01889D02*
Y02056D01*
X03156Y02339D02*
Y02495D01*
Y02121D02*
Y02297D01*
Y01889D02*
Y02057D01*
X03155Y02339D02*
Y02495D01*
Y02121D02*
Y02298D01*
Y01888D02*
Y02058D01*
X03154Y02339D02*
Y02495D01*
Y0212D02*
Y02299D01*
Y01887D02*
Y02058D01*
X03154Y02339D02*
Y02495D01*
Y02119D02*
Y02299D01*
Y01887D02*
Y02059D01*
X03153Y02339D02*
Y02495D01*
Y02119D02*
Y02299D01*
Y01887D02*
Y02059D01*
X03152Y02339D02*
Y02495D01*
Y02119D02*
Y023D01*
Y01887D02*
Y02059D01*
X03151Y02339D02*
Y02495D01*
Y02118D02*
Y02301D01*
Y01886D02*
Y0206D01*
X0315Y02339D02*
Y02495D01*
Y02117D02*
Y02301D01*
Y01886D02*
Y0206D01*
X0315Y02339D02*
Y02495D01*
Y02116D02*
Y02302D01*
Y01885D02*
Y02061D01*
X03149Y02339D02*
Y02495D01*
Y02116D02*
Y02302D01*
Y01885D02*
Y02062D01*
X03148Y02339D02*
Y02495D01*
Y02115D02*
Y02302D01*
Y01884D02*
Y02062D01*
X03147Y02339D02*
Y02495D01*
Y02115D02*
Y02303D01*
Y01884D02*
Y02062D01*
X03146Y02339D02*
Y02495D01*
Y02115D02*
Y02304D01*
Y01883D02*
Y02062D01*
X03146Y02339D02*
Y02495D01*
Y02114D02*
Y02304D01*
Y01883D02*
Y02062D01*
X03145Y02339D02*
Y02495D01*
Y02114D02*
Y02305D01*
Y01882D02*
Y02063D01*
X03144Y02339D02*
Y02495D01*
Y02113D02*
Y02306D01*
Y01882D02*
Y02063D01*
X03143Y02339D02*
Y02495D01*
Y02112D02*
Y02306D01*
Y01882D02*
Y02064D01*
X03142Y02339D02*
Y02495D01*
Y02112D02*
Y02307D01*
Y01882D02*
Y02064D01*
X03142Y02339D02*
Y02495D01*
Y02111D02*
Y02307D01*
Y01882D02*
Y02065D01*
X03141Y02339D02*
Y02495D01*
Y02111D02*
Y02307D01*
Y01978D02*
Y02065D01*
Y01882D02*
Y0197D01*
X0314Y02339D02*
Y02495D01*
Y0211D02*
Y02308D01*
Y01982D02*
Y02065D01*
Y01881D02*
Y01965D01*
X03139Y02339D02*
Y02495D01*
Y02219D02*
Y02308D01*
Y0211D02*
Y02202D01*
Y01986D02*
Y02066D01*
Y01881D02*
Y01962D01*
X03138Y02339D02*
Y02495D01*
Y02222D02*
Y02309D01*
Y0211D02*
Y02199D01*
Y01987D02*
Y02066D01*
Y01881D02*
Y0196D01*
X03138Y02339D02*
Y02495D01*
Y02225D02*
Y02309D01*
Y0211D02*
Y02196D01*
Y0199D02*
Y02067D01*
Y0188D02*
Y01959D01*
X03137Y02339D02*
Y02495D01*
Y02227D02*
Y0231D01*
Y02109D02*
Y02194D01*
Y0199D02*
Y02067D01*
Y0188D02*
Y01957D01*
X03136Y02339D02*
Y02495D01*
Y02229D02*
Y0231D01*
Y02109D02*
Y02192D01*
Y01992D02*
Y02067D01*
Y0188D02*
Y01955D01*
X03135Y02339D02*
Y02495D01*
Y0223D02*
Y0231D01*
Y02108D02*
Y0219D01*
Y01994D02*
Y02067D01*
Y0188D02*
Y01955D01*
X03134Y02339D02*
Y02495D01*
Y02232D02*
Y0231D01*
Y02108D02*
Y02189D01*
Y01995D02*
Y02067D01*
Y01879D02*
Y01954D01*
X03134Y02339D02*
Y02495D01*
Y02234D02*
Y02311D01*
Y02107D02*
Y02188D01*
Y01995D02*
Y02067D01*
Y01879D02*
Y01953D01*
X03133Y02339D02*
Y02495D01*
Y02235D02*
Y02311D01*
Y02107D02*
Y02187D01*
Y01996D02*
Y02067D01*
Y01879D02*
Y01952D01*
X03132Y02339D02*
Y02495D01*
Y02236D02*
Y0231D01*
Y02107D02*
Y02186D01*
Y01997D02*
Y02068D01*
Y01879D02*
Y01951D01*
X03131Y02339D02*
Y02407D01*
Y02237D02*
Y02309D01*
Y02107D02*
Y02184D01*
Y01998D02*
Y02068D01*
Y01879D02*
Y0195D01*
X0313Y02339D02*
Y02407D01*
Y02238D02*
Y02307D01*
Y02106D02*
Y02183D01*
Y01999D02*
Y02068D01*
Y01879D02*
Y0195D01*
X0313Y02339D02*
Y02407D01*
Y02239D02*
Y02306D01*
Y02106D02*
Y02182D01*
Y01999D02*
Y02068D01*
Y01879D02*
Y0195D01*
X03129Y02339D02*
Y02407D01*
Y02239D02*
Y02304D01*
Y02106D02*
Y02182D01*
Y01999D02*
Y02069D01*
Y01879D02*
Y01949D01*
X03128Y02339D02*
Y02407D01*
Y02241D02*
Y02302D01*
Y02105D02*
Y02181D01*
Y02D02*
Y02069D01*
Y01879D02*
Y01948D01*
X03127Y02339D02*
Y02407D01*
Y02241D02*
Y023D01*
Y02105D02*
Y0218D01*
Y02D02*
Y02069D01*
Y01879D02*
Y01948D01*
X03126Y02339D02*
Y02407D01*
Y02242D02*
Y02299D01*
Y02104D02*
Y02179D01*
Y02001D02*
Y02069D01*
Y01878D02*
Y01947D01*
X03126Y02339D02*
Y02407D01*
Y02242D02*
Y02297D01*
Y02104D02*
Y02179D01*
Y02001D02*
Y0207D01*
Y01878D02*
Y01947D01*
X03125Y02339D02*
Y02407D01*
Y02243D02*
Y02295D01*
Y02104D02*
Y02179D01*
Y02001D02*
Y0207D01*
Y01878D02*
Y01947D01*
X03124Y02339D02*
Y02407D01*
Y02244D02*
Y02294D01*
Y02103D02*
Y02178D01*
Y02002D02*
Y0207D01*
Y01878D02*
Y01947D01*
X03123Y02339D02*
Y02407D01*
Y02245D02*
Y02292D01*
Y02103D02*
Y02177D01*
Y02002D02*
Y0207D01*
Y01878D02*
Y01947D01*
X03122Y02339D02*
Y02407D01*
Y02245D02*
Y0229D01*
Y02103D02*
Y02176D01*
Y02002D02*
Y0207D01*
Y01878D02*
Y01946D01*
X03122Y02339D02*
Y02407D01*
Y02246D02*
Y02289D01*
Y02102D02*
Y02176D01*
Y02002D02*
Y0207D01*
Y01878D02*
Y01946D01*
X03121Y02339D02*
Y02407D01*
Y02247D02*
Y02287D01*
Y02102D02*
Y02175D01*
Y02002D02*
Y0207D01*
Y01878D02*
Y01946D01*
X0312Y02339D02*
Y02407D01*
Y02247D02*
Y02286D01*
Y02102D02*
Y02175D01*
Y02002D02*
Y0207D01*
Y01878D02*
Y01946D01*
X03119Y02339D02*
Y02407D01*
Y02247D02*
Y02284D01*
Y02102D02*
Y02175D01*
Y02002D02*
Y0207D01*
Y01877D02*
Y01945D01*
X03118Y02339D02*
Y02407D01*
Y02248D02*
Y02282D01*
Y02102D02*
Y02174D01*
Y02003D02*
Y0207D01*
Y01877D02*
Y01945D01*
X03118Y02339D02*
Y02407D01*
Y02248D02*
Y02281D01*
Y02102D02*
Y02174D01*
Y02003D02*
Y0207D01*
Y01877D02*
Y01945D01*
X03117Y02339D02*
Y02407D01*
Y02249D02*
Y02279D01*
Y02101D02*
Y02173D01*
Y02003D02*
Y0207D01*
Y01877D02*
Y01945D01*
X03116Y02339D02*
Y02407D01*
Y02249D02*
Y02277D01*
Y02101D02*
Y02173D01*
Y02003D02*
Y0207D01*
Y01877D02*
Y01945D01*
X03115Y02339D02*
Y02407D01*
Y0225D02*
Y02275D01*
Y02101D02*
Y02172D01*
Y02003D02*
Y0207D01*
Y01877D02*
Y01945D01*
X03114Y02339D02*
Y02407D01*
Y0225D02*
Y02274D01*
Y02101D02*
Y02172D01*
Y02003D02*
Y02071D01*
Y01877D02*
Y01945D01*
X03114Y02339D02*
Y02407D01*
Y0225D02*
Y02272D01*
Y021D02*
Y02172D01*
Y02003D02*
Y02071D01*
Y01877D02*
Y01945D01*
X03113Y02339D02*
Y02407D01*
Y0225D02*
Y0227D01*
Y021D02*
Y02171D01*
Y02003D02*
Y02071D01*
Y01877D02*
Y01945D01*
X03112Y02339D02*
Y02407D01*
Y02251D02*
Y02269D01*
Y021D02*
Y02171D01*
Y02003D02*
Y02071D01*
Y01877D02*
Y01945D01*
X03111Y02339D02*
Y02407D01*
Y02251D02*
Y02267D01*
Y021D02*
Y0217D01*
Y02003D02*
Y02071D01*
Y01877D02*
Y01945D01*
X0311Y02339D02*
Y02407D01*
Y02252D02*
Y02266D01*
Y02099D02*
Y0217D01*
Y02003D02*
Y02071D01*
Y01877D02*
Y01945D01*
X0311Y02339D02*
Y02407D01*
Y02252D02*
Y02264D01*
Y02099D02*
Y0217D01*
Y02003D02*
Y02071D01*
Y01877D02*
Y01945D01*
X03109Y02339D02*
Y02407D01*
Y02253D02*
Y02262D01*
Y02099D02*
Y0217D01*
Y02003D02*
Y02071D01*
Y01877D02*
Y01945D01*
X03108Y02339D02*
Y02407D01*
Y02253D02*
Y02261D01*
Y02099D02*
Y0217D01*
Y02003D02*
Y02071D01*
Y01877D02*
Y01945D01*
X03107Y02339D02*
Y02407D01*
Y02253D02*
Y02259D01*
Y02099D02*
Y0217D01*
Y02003D02*
Y02071D01*
Y01877D02*
Y01945D01*
X03106Y02339D02*
Y02407D01*
Y02254D02*
Y02257D01*
Y02099D02*
Y02169D01*
Y02003D02*
Y02071D01*
Y01877D02*
Y01945D01*
X03106Y02339D02*
Y02407D01*
Y02254D02*
Y02256D01*
Y02099D02*
Y02169D01*
Y02003D02*
Y02071D01*
Y01877D02*
Y01945D01*
X03105Y02339D02*
Y02407D01*
Y02099D02*
Y02169D01*
Y02003D02*
Y02071D01*
Y01877D02*
Y01945D01*
X03104Y02339D02*
Y02407D01*
Y02099D02*
Y02169D01*
Y02003D02*
Y02072D01*
Y01876D02*
Y01945D01*
X03103Y02339D02*
Y02407D01*
Y02099D02*
Y02168D01*
Y02003D02*
Y02072D01*
Y01876D02*
Y01945D01*
X03102Y02339D02*
Y02407D01*
Y02098D02*
Y02168D01*
Y02003D02*
Y02072D01*
Y01876D02*
Y01945D01*
X03102Y02339D02*
Y02407D01*
Y02098D02*
Y02168D01*
Y02003D02*
Y02072D01*
Y01876D02*
Y01945D01*
X03101Y02339D02*
Y02407D01*
Y02098D02*
Y02168D01*
Y02003D02*
Y02072D01*
Y01876D02*
Y01945D01*
X031Y02339D02*
Y02407D01*
Y02098D02*
Y02167D01*
Y02003D02*
Y02072D01*
Y01876D02*
Y01945D01*
X03099Y02339D02*
Y02407D01*
Y02098D02*
Y02167D01*
Y02003D02*
Y02072D01*
Y01876D02*
Y01945D01*
X03098Y02339D02*
Y02407D01*
Y02098D02*
Y02167D01*
Y02003D02*
Y02072D01*
Y01876D02*
Y01945D01*
X03098Y02339D02*
Y02407D01*
Y02098D02*
Y02167D01*
Y02003D02*
Y02072D01*
Y01876D02*
Y01945D01*
X03097Y02339D02*
Y02407D01*
Y02098D02*
Y02167D01*
Y02003D02*
Y02072D01*
Y01876D02*
Y01945D01*
X03096Y02339D02*
Y02407D01*
Y02097D02*
Y02167D01*
Y02003D02*
Y02072D01*
Y01876D02*
Y01945D01*
X03095Y02339D02*
Y02407D01*
Y02097D02*
Y02167D01*
Y02003D02*
Y02072D01*
Y01876D02*
Y01945D01*
X03094Y02339D02*
Y02407D01*
Y02097D02*
Y02167D01*
Y02003D02*
Y02072D01*
Y01876D02*
Y01945D01*
X03094Y02339D02*
Y02407D01*
Y02097D02*
Y02167D01*
Y02003D02*
Y02072D01*
Y01876D02*
Y01945D01*
X03093Y02339D02*
Y02407D01*
Y02097D02*
Y02167D01*
Y02003D02*
Y02072D01*
Y01876D02*
Y01945D01*
X03092Y02339D02*
Y02407D01*
Y02097D02*
Y02167D01*
Y02003D02*
Y02072D01*
Y01876D02*
Y01945D01*
X03091Y02339D02*
Y02407D01*
Y02097D02*
Y02167D01*
Y02003D02*
Y02072D01*
Y01876D02*
Y01945D01*
X0309Y02339D02*
Y02407D01*
Y02097D02*
Y02166D01*
Y02003D02*
Y02072D01*
Y01876D02*
Y01945D01*
X0309Y02339D02*
Y02407D01*
Y02097D02*
Y02166D01*
Y02003D02*
Y02072D01*
Y01876D02*
Y01945D01*
X03089Y02339D02*
Y02407D01*
Y02097D02*
Y02166D01*
Y02003D02*
Y02072D01*
Y01876D02*
Y01945D01*
X03088Y02339D02*
Y02407D01*
Y02097D02*
Y02166D01*
Y02003D02*
Y02072D01*
Y01876D02*
Y01945D01*
X03087Y02339D02*
Y02407D01*
Y02097D02*
Y02166D01*
Y02003D02*
Y02072D01*
Y01876D02*
Y01945D01*
X03086Y02339D02*
Y02407D01*
Y02097D02*
Y02166D01*
Y02003D02*
Y02072D01*
Y01876D02*
Y01945D01*
X03086Y02339D02*
Y02407D01*
Y02097D02*
Y02166D01*
Y02003D02*
Y02072D01*
Y01876D02*
Y01945D01*
X03085Y02339D02*
Y02407D01*
Y02097D02*
Y02166D01*
Y02003D02*
Y02072D01*
Y01876D02*
Y01945D01*
X03084Y02339D02*
Y02407D01*
Y02097D02*
Y02166D01*
Y02003D02*
Y02072D01*
Y01876D02*
Y01945D01*
X03083Y02339D02*
Y02407D01*
Y02096D02*
Y02166D01*
Y02003D02*
Y02072D01*
Y01876D02*
Y01945D01*
X03082Y02339D02*
Y02407D01*
Y02096D02*
Y02166D01*
Y02003D02*
Y02072D01*
Y01876D02*
Y01945D01*
X03082Y02339D02*
Y02407D01*
Y02096D02*
Y02166D01*
Y02003D02*
Y02072D01*
Y01876D02*
Y01945D01*
X03081Y02339D02*
Y02407D01*
Y02096D02*
Y02166D01*
Y02003D02*
Y02072D01*
Y01876D02*
Y01945D01*
X0308Y02339D02*
Y02407D01*
Y02097D02*
Y02166D01*
Y02003D02*
Y02072D01*
Y01876D02*
Y01945D01*
X03079Y02339D02*
Y02407D01*
Y02097D02*
Y02166D01*
Y02003D02*
Y02072D01*
Y01876D02*
Y01945D01*
X03078Y02339D02*
Y02407D01*
Y02097D02*
Y02166D01*
Y02003D02*
Y02072D01*
Y01876D02*
Y01945D01*
X03078Y02339D02*
Y02407D01*
Y02097D02*
Y02166D01*
Y02003D02*
Y02072D01*
Y01876D02*
Y01945D01*
X03077Y02339D02*
Y02407D01*
Y02097D02*
Y02166D01*
Y02003D02*
Y02072D01*
Y01876D02*
Y01945D01*
X03076Y02339D02*
Y02407D01*
Y02097D02*
Y02166D01*
Y02003D02*
Y02072D01*
Y01876D02*
Y01945D01*
X03075Y02339D02*
Y02407D01*
Y02097D02*
Y02166D01*
Y02003D02*
Y02072D01*
Y01876D02*
Y01945D01*
X03074Y02339D02*
Y02407D01*
Y02097D02*
Y02166D01*
Y02003D02*
Y02072D01*
Y01876D02*
Y01945D01*
X03074Y02339D02*
Y02407D01*
Y02097D02*
Y02166D01*
Y02003D02*
Y02072D01*
Y01876D02*
Y01945D01*
X03073Y02339D02*
Y02407D01*
Y02097D02*
Y02166D01*
Y02003D02*
Y02072D01*
Y01876D02*
Y01945D01*
X03072Y02339D02*
Y02407D01*
Y02097D02*
Y02166D01*
Y02003D02*
Y02072D01*
Y01876D02*
Y01945D01*
X03071Y02339D02*
Y02407D01*
Y02097D02*
Y02166D01*
Y02003D02*
Y02072D01*
Y01876D02*
Y01945D01*
X0307Y02339D02*
Y02407D01*
Y02097D02*
Y02166D01*
Y02003D02*
Y02072D01*
Y01876D02*
Y01945D01*
X0307Y02339D02*
Y02407D01*
Y02097D02*
Y02166D01*
Y02003D02*
Y02072D01*
Y01876D02*
Y01945D01*
X03069Y02339D02*
Y02407D01*
Y02097D02*
Y02166D01*
Y02003D02*
Y02072D01*
Y01876D02*
Y01945D01*
X03068Y02339D02*
Y02407D01*
Y02097D02*
Y02166D01*
Y02003D02*
Y02072D01*
Y01876D02*
Y01945D01*
X03067Y02339D02*
Y02407D01*
Y02098D02*
Y02166D01*
Y02003D02*
Y02072D01*
Y01876D02*
Y01945D01*
X03066Y02339D02*
Y02407D01*
Y02098D02*
Y02166D01*
Y02003D02*
Y02072D01*
Y01876D02*
Y01945D01*
X03066Y02339D02*
Y02407D01*
Y02098D02*
Y02166D01*
Y02003D02*
Y02072D01*
Y01876D02*
Y01945D01*
Y01767D02*
Y01844D01*
X03065Y02339D02*
Y02407D01*
Y02098D02*
Y02167D01*
Y02003D02*
Y02072D01*
Y01876D02*
Y01945D01*
Y01767D02*
Y01844D01*
X03064Y02339D02*
Y02407D01*
Y02098D02*
Y02167D01*
Y02003D02*
Y02072D01*
Y01876D02*
Y01945D01*
Y01767D02*
Y01844D01*
X03063Y02339D02*
Y02407D01*
Y02098D02*
Y02167D01*
Y02003D02*
Y02072D01*
Y01876D02*
Y01945D01*
Y01767D02*
Y01844D01*
X03062Y02339D02*
Y02407D01*
Y02098D02*
Y02167D01*
Y02003D02*
Y02072D01*
Y01876D02*
Y01945D01*
Y01767D02*
Y01844D01*
X03062Y02339D02*
Y02407D01*
Y02099D02*
Y02167D01*
Y02003D02*
Y02072D01*
Y01876D02*
Y01945D01*
Y01767D02*
Y01844D01*
X03061Y02339D02*
Y02407D01*
Y02099D02*
Y02167D01*
Y02003D02*
Y02072D01*
Y01876D02*
Y01945D01*
Y0177D02*
Y01841D01*
X0306Y02339D02*
Y02407D01*
Y02099D02*
Y02167D01*
Y02003D02*
Y02072D01*
Y01876D02*
Y01945D01*
Y0177D02*
Y01841D01*
X03059Y02339D02*
Y02407D01*
Y02099D02*
Y02167D01*
Y02003D02*
Y02072D01*
Y01876D02*
Y01945D01*
Y0177D02*
Y01841D01*
X03058Y02339D02*
Y02407D01*
Y02099D02*
Y02167D01*
Y02003D02*
Y02072D01*
Y01876D02*
Y01945D01*
Y0177D02*
Y01841D01*
X03058Y02339D02*
Y02407D01*
Y02099D02*
Y02167D01*
Y02003D02*
Y02072D01*
Y01876D02*
Y01945D01*
Y0177D02*
Y01841D01*
X03057Y02339D02*
Y02407D01*
Y02099D02*
Y02167D01*
Y02003D02*
Y02072D01*
Y01876D02*
Y01945D01*
Y0177D02*
Y01841D01*
X03056Y02339D02*
Y02407D01*
Y02099D02*
Y02168D01*
Y02003D02*
Y02072D01*
Y01876D02*
Y01945D01*
Y01772D02*
Y01839D01*
X03055Y02339D02*
Y02407D01*
Y02099D02*
Y02168D01*
Y02003D02*
Y02072D01*
Y01876D02*
Y01945D01*
Y01773D02*
Y01839D01*
X03054Y02339D02*
Y02407D01*
Y02099D02*
Y02168D01*
Y02003D02*
Y02072D01*
Y01876D02*
Y01945D01*
Y01773D02*
Y01839D01*
X03054Y02339D02*
Y02407D01*
Y02255D02*
Y02256D01*
Y021D02*
Y02168D01*
Y02003D02*
Y02072D01*
Y01876D02*
Y01945D01*
Y01833D02*
Y01839D01*
Y01821D02*
Y01827D01*
Y01809D02*
Y01815D01*
Y01797D02*
Y01802D01*
Y01785D02*
Y0179D01*
Y01773D02*
Y01779D01*
X03053Y02339D02*
Y02407D01*
Y02254D02*
Y02258D01*
Y021D02*
Y02169D01*
Y02003D02*
Y02072D01*
Y01876D02*
Y01945D01*
Y01833D02*
Y01838D01*
Y01821D02*
Y01826D01*
Y01809D02*
Y01814D01*
Y01797D02*
Y01802D01*
Y01785D02*
Y0179D01*
Y01773D02*
Y01778D01*
X03052Y02339D02*
Y02407D01*
Y02254D02*
Y02259D01*
Y021D02*
Y02169D01*
Y02003D02*
Y02072D01*
Y01876D02*
Y01945D01*
Y01834D02*
Y01838D01*
Y01822D02*
Y01826D01*
Y0181D02*
Y01814D01*
Y01798D02*
Y01802D01*
Y01786D02*
Y0179D01*
Y01774D02*
Y01778D01*
X03051Y02339D02*
Y02407D01*
Y02253D02*
Y02261D01*
Y021D02*
Y02169D01*
Y02003D02*
Y02072D01*
Y01876D02*
Y01945D01*
Y01834D02*
Y01838D01*
Y01822D02*
Y01826D01*
Y0181D02*
Y01814D01*
Y01798D02*
Y01802D01*
Y01786D02*
Y0179D01*
Y01774D02*
Y01778D01*
X0305Y02339D02*
Y02407D01*
Y02253D02*
Y02262D01*
Y021D02*
Y02169D01*
Y02003D02*
Y02072D01*
Y01876D02*
Y01945D01*
Y01834D02*
Y01838D01*
Y01822D02*
Y01826D01*
Y0181D02*
Y01814D01*
Y01798D02*
Y01802D01*
Y01786D02*
Y0179D01*
Y01774D02*
Y01778D01*
X0305Y02339D02*
Y02407D01*
Y02253D02*
Y02264D01*
Y02101D02*
Y0217D01*
Y02003D02*
Y02072D01*
Y01876D02*
Y01945D01*
Y01834D02*
Y01838D01*
Y01822D02*
Y01826D01*
Y0181D02*
Y01814D01*
Y01798D02*
Y01802D01*
Y01786D02*
Y0179D01*
Y01774D02*
Y01778D01*
X03049Y02339D02*
Y02407D01*
Y02252D02*
Y02266D01*
Y02101D02*
Y0217D01*
Y02003D02*
Y02072D01*
Y01876D02*
Y01945D01*
Y01834D02*
Y01838D01*
Y01822D02*
Y01826D01*
Y0181D02*
Y01814D01*
Y01798D02*
Y01802D01*
Y01786D02*
Y0179D01*
Y01774D02*
Y01778D01*
X03048Y02339D02*
Y02407D01*
Y02252D02*
Y02267D01*
Y02101D02*
Y0217D01*
Y02003D02*
Y02072D01*
Y01876D02*
Y01945D01*
Y01834D02*
Y01838D01*
Y01822D02*
Y01826D01*
Y0181D02*
Y01814D01*
Y01798D02*
Y01802D01*
Y01786D02*
Y0179D01*
Y01774D02*
Y01778D01*
X03047Y02339D02*
Y02407D01*
Y02251D02*
Y02269D01*
Y02102D02*
Y0217D01*
Y02003D02*
Y02072D01*
Y01876D02*
Y01945D01*
Y01834D02*
Y01838D01*
Y01822D02*
Y01826D01*
Y0181D02*
Y01814D01*
Y01798D02*
Y01802D01*
Y01786D02*
Y0179D01*
Y01774D02*
Y01778D01*
X03046Y02339D02*
Y02407D01*
Y02251D02*
Y0227D01*
Y02102D02*
Y0217D01*
Y02003D02*
Y02072D01*
Y01876D02*
Y01945D01*
Y01834D02*
Y01838D01*
Y01822D02*
Y01826D01*
Y0181D02*
Y01814D01*
Y01798D02*
Y01802D01*
Y01786D02*
Y0179D01*
Y01774D02*
Y01778D01*
X03046Y02339D02*
Y02407D01*
Y0225D02*
Y02272D01*
Y02102D02*
Y02171D01*
Y02003D02*
Y02072D01*
Y01876D02*
Y01945D01*
Y01834D02*
Y01838D01*
Y01822D02*
Y01826D01*
Y0181D02*
Y01814D01*
Y01798D02*
Y01802D01*
Y01786D02*
Y0179D01*
Y01774D02*
Y01778D01*
X03045Y02339D02*
Y02407D01*
Y0225D02*
Y02274D01*
Y02102D02*
Y02171D01*
Y02003D02*
Y02072D01*
Y01876D02*
Y01945D01*
Y01834D02*
Y01838D01*
Y01822D02*
Y01826D01*
Y0181D02*
Y01814D01*
Y01798D02*
Y01802D01*
Y01786D02*
Y0179D01*
Y01774D02*
Y01778D01*
X03044Y02339D02*
Y02407D01*
Y0225D02*
Y02275D01*
Y02102D02*
Y02172D01*
Y02003D02*
Y02072D01*
Y01876D02*
Y01945D01*
Y01834D02*
Y01838D01*
Y01822D02*
Y01826D01*
Y0181D02*
Y01814D01*
Y01798D02*
Y01802D01*
Y01786D02*
Y0179D01*
Y01774D02*
Y01778D01*
X03043Y02339D02*
Y02407D01*
Y02249D02*
Y02277D01*
Y02102D02*
Y02172D01*
Y02003D02*
Y02072D01*
Y01876D02*
Y01945D01*
Y01834D02*
Y01838D01*
Y01822D02*
Y01826D01*
Y0181D02*
Y01814D01*
Y01798D02*
Y01802D01*
Y01786D02*
Y0179D01*
Y01774D02*
Y01778D01*
X03042Y02339D02*
Y02407D01*
Y02249D02*
Y02279D01*
Y02102D02*
Y02173D01*
Y02003D02*
Y02072D01*
Y01876D02*
Y01945D01*
Y01834D02*
Y01838D01*
Y01822D02*
Y01826D01*
Y0181D02*
Y01814D01*
Y01798D02*
Y01802D01*
Y01786D02*
Y0179D01*
Y01774D02*
Y01778D01*
X03042Y02339D02*
Y02407D01*
Y02248D02*
Y0228D01*
Y02103D02*
Y02173D01*
Y02003D02*
Y02072D01*
Y01876D02*
Y01945D01*
Y01834D02*
Y01838D01*
Y01822D02*
Y01826D01*
Y0181D02*
Y01814D01*
Y01798D02*
Y01802D01*
Y01786D02*
Y0179D01*
Y01774D02*
Y01778D01*
X03041Y02339D02*
Y02407D01*
Y02248D02*
Y02282D01*
Y02103D02*
Y02174D01*
Y02003D02*
Y02072D01*
Y01876D02*
Y01945D01*
Y01834D02*
Y01838D01*
Y01822D02*
Y01826D01*
Y0181D02*
Y01814D01*
Y01798D02*
Y01802D01*
Y01786D02*
Y0179D01*
Y01774D02*
Y01778D01*
X0304Y02339D02*
Y02407D01*
Y02247D02*
Y02283D01*
Y02103D02*
Y02174D01*
Y02003D02*
Y02072D01*
Y01876D02*
Y01945D01*
Y01834D02*
Y01838D01*
Y01822D02*
Y01826D01*
Y0181D02*
Y01814D01*
Y01798D02*
Y01802D01*
Y01786D02*
Y0179D01*
Y01774D02*
Y01778D01*
X03039Y02339D02*
Y02407D01*
Y02247D02*
Y02285D01*
Y02104D02*
Y02175D01*
Y02003D02*
Y02072D01*
Y01876D02*
Y01945D01*
Y01834D02*
Y01838D01*
Y01822D02*
Y01826D01*
Y0181D02*
Y01814D01*
Y01798D02*
Y01802D01*
Y01786D02*
Y0179D01*
Y01774D02*
Y01778D01*
X03038Y02339D02*
Y02407D01*
Y02247D02*
Y02287D01*
Y02104D02*
Y02175D01*
Y02003D02*
Y02072D01*
Y01876D02*
Y01945D01*
Y01834D02*
Y01838D01*
Y01822D02*
Y01826D01*
Y0181D02*
Y01814D01*
Y01798D02*
Y01802D01*
Y01786D02*
Y0179D01*
Y01774D02*
Y01778D01*
X03038Y02339D02*
Y02407D01*
Y02246D02*
Y02288D01*
Y02105D02*
Y02175D01*
Y02003D02*
Y02072D01*
Y01876D02*
Y01945D01*
Y01834D02*
Y01838D01*
Y01822D02*
Y01826D01*
Y0181D02*
Y01814D01*
Y01798D02*
Y01802D01*
Y01786D02*
Y0179D01*
Y01774D02*
Y01778D01*
X03037Y02339D02*
Y02407D01*
Y02245D02*
Y0229D01*
Y02105D02*
Y02176D01*
Y02003D02*
Y02072D01*
Y01876D02*
Y01945D01*
Y01834D02*
Y01838D01*
Y01822D02*
Y01826D01*
Y0181D02*
Y01814D01*
Y01798D02*
Y01802D01*
Y01786D02*
Y0179D01*
Y01774D02*
Y01778D01*
X03036Y02339D02*
Y02407D01*
Y02245D02*
Y02291D01*
Y02105D02*
Y02177D01*
Y02003D02*
Y02072D01*
Y01876D02*
Y01945D01*
Y01834D02*
Y01838D01*
Y01822D02*
Y01826D01*
Y0181D02*
Y01814D01*
Y01798D02*
Y01802D01*
Y01786D02*
Y0179D01*
Y01774D02*
Y01778D01*
X03035Y02339D02*
Y02407D01*
Y02244D02*
Y02293D01*
Y02106D02*
Y02177D01*
Y02003D02*
Y02072D01*
Y01876D02*
Y01945D01*
Y01834D02*
Y01838D01*
Y01822D02*
Y01826D01*
Y0181D02*
Y01814D01*
Y01798D02*
Y01802D01*
Y01786D02*
Y0179D01*
Y01774D02*
Y01778D01*
X03034Y02339D02*
Y02407D01*
Y02243D02*
Y02295D01*
Y02106D02*
Y02178D01*
Y02003D02*
Y02072D01*
Y01876D02*
Y01945D01*
Y01834D02*
Y01838D01*
Y01822D02*
Y01826D01*
Y0181D02*
Y01814D01*
Y01798D02*
Y01802D01*
Y01786D02*
Y0179D01*
Y01774D02*
Y01778D01*
X03034Y02339D02*
Y02407D01*
Y02242D02*
Y02296D01*
Y02106D02*
Y02179D01*
Y02003D02*
Y02072D01*
Y01876D02*
Y01945D01*
Y01834D02*
Y01838D01*
Y01822D02*
Y01826D01*
Y0181D02*
Y01814D01*
Y01798D02*
Y01802D01*
Y01786D02*
Y0179D01*
Y01774D02*
Y01778D01*
X03033Y02339D02*
Y02407D01*
Y02242D02*
Y02298D01*
Y02107D02*
Y02179D01*
Y02003D02*
Y02072D01*
Y01876D02*
Y01945D01*
Y01834D02*
Y01838D01*
Y01822D02*
Y01826D01*
Y0181D02*
Y01814D01*
Y01798D02*
Y01802D01*
Y01786D02*
Y0179D01*
Y01774D02*
Y01778D01*
X03032Y02339D02*
Y02407D01*
Y02241D02*
Y02299D01*
Y02107D02*
Y0218D01*
Y02003D02*
Y02072D01*
Y01876D02*
Y01945D01*
Y01834D02*
Y01838D01*
Y01822D02*
Y01826D01*
Y0181D02*
Y01814D01*
Y01798D02*
Y01802D01*
Y01786D02*
Y0179D01*
Y01774D02*
Y01778D01*
X03031Y02339D02*
Y02407D01*
Y02241D02*
Y02301D01*
Y02107D02*
Y02181D01*
Y02003D02*
Y02072D01*
Y01876D02*
Y01945D01*
Y01833D02*
Y01838D01*
Y01821D02*
Y01826D01*
Y01809D02*
Y01814D01*
Y01797D02*
Y01802D01*
Y01785D02*
Y0179D01*
Y01773D02*
Y01778D01*
X0303Y02339D02*
Y02407D01*
Y02239D02*
Y02302D01*
Y02107D02*
Y02182D01*
Y02003D02*
Y02072D01*
Y01876D02*
Y01945D01*
Y01834D02*
Y01838D01*
Y01822D02*
Y01826D01*
Y0181D02*
Y01814D01*
Y01798D02*
Y01802D01*
Y01786D02*
Y0179D01*
Y01774D02*
Y01778D01*
X0303Y02339D02*
Y02407D01*
Y02239D02*
Y02304D01*
Y02108D02*
Y02182D01*
Y02003D02*
Y02072D01*
Y01876D02*
Y01945D01*
Y01833D02*
Y01838D01*
Y01821D02*
Y01826D01*
Y01809D02*
Y01814D01*
Y01797D02*
Y01802D01*
Y01785D02*
Y0179D01*
Y01773D02*
Y01778D01*
X03029Y02339D02*
Y02407D01*
Y02238D02*
Y02306D01*
Y02108D02*
Y02183D01*
Y02003D02*
Y02072D01*
Y01876D02*
Y01945D01*
Y01833D02*
Y01839D01*
Y01821D02*
Y01827D01*
Y01809D02*
Y01815D01*
Y01797D02*
Y01802D01*
Y01785D02*
Y0179D01*
Y01773D02*
Y01779D01*
X03028Y02339D02*
Y02407D01*
Y02237D02*
Y02307D01*
Y02109D02*
Y02184D01*
Y02003D02*
Y02072D01*
Y01876D02*
Y01945D01*
Y0177D02*
Y0184D01*
X03027Y02339D02*
Y02407D01*
Y02236D02*
Y02309D01*
Y02109D02*
Y02185D01*
Y02003D02*
Y02072D01*
Y01876D02*
Y01945D01*
Y0177D02*
Y0184D01*
X03026Y02339D02*
Y02407D01*
Y02235D02*
Y02311D01*
Y0211D02*
Y02187D01*
Y02003D02*
Y02072D01*
Y01876D02*
Y01945D01*
Y0177D02*
Y0184D01*
X03026Y02339D02*
Y02407D01*
Y02234D02*
Y02311D01*
Y0211D02*
Y02187D01*
Y02003D02*
Y02072D01*
Y01876D02*
Y01945D01*
Y0177D02*
Y01841D01*
X03025Y02339D02*
Y02407D01*
Y02232D02*
Y0231D01*
Y0211D02*
Y02189D01*
Y02003D02*
Y02072D01*
Y01876D02*
Y01945D01*
Y0177D02*
Y01841D01*
X03024Y02339D02*
Y02407D01*
Y02231D02*
Y0231D01*
Y0211D02*
Y0219D01*
Y02003D02*
Y02072D01*
Y01876D02*
Y01945D01*
Y01769D02*
Y01842D01*
X03023Y02339D02*
Y02407D01*
Y0223D02*
Y0231D01*
Y02111D02*
Y02191D01*
Y02003D02*
Y02072D01*
Y01876D02*
Y01945D01*
Y01769D02*
Y01842D01*
X03022Y02339D02*
Y02407D01*
Y02228D02*
Y0231D01*
Y02111D02*
Y02194D01*
Y02003D02*
Y02072D01*
Y01876D02*
Y01945D01*
Y01769D02*
Y01842D01*
X03022Y02339D02*
Y02407D01*
Y02226D02*
Y02309D01*
Y02112D02*
Y02195D01*
Y02003D02*
Y02072D01*
Y01876D02*
Y01945D01*
Y01772D02*
Y01839D01*
X03021Y02339D02*
Y02407D01*
Y02223D02*
Y02308D01*
Y02112D02*
Y02198D01*
Y02003D02*
Y02072D01*
Y01876D02*
Y01945D01*
Y01775D02*
Y01835D01*
X0302Y02339D02*
Y02407D01*
Y0222D02*
Y02308D01*
Y02113D02*
Y02201D01*
Y02003D02*
Y02072D01*
Y01876D02*
Y01945D01*
Y01779D02*
Y01831D01*
X03019Y02339D02*
Y02407D01*
Y02215D02*
Y02307D01*
Y02113D02*
Y02206D01*
Y02003D02*
Y02072D01*
Y01876D02*
Y01945D01*
Y01783D02*
Y01828D01*
X03018Y02339D02*
Y02407D01*
Y02114D02*
Y02307D01*
Y02003D02*
Y02072D01*
Y01876D02*
Y01945D01*
Y01787D02*
Y01824D01*
X03018Y02339D02*
Y02407D01*
Y02115D02*
Y02307D01*
Y02003D02*
Y02072D01*
Y01876D02*
Y01945D01*
Y0179D02*
Y0182D01*
X03017Y02339D02*
Y02407D01*
Y02115D02*
Y02306D01*
Y02003D02*
Y02072D01*
Y01876D02*
Y01945D01*
Y01795D02*
Y01817D01*
X03016Y02339D02*
Y02407D01*
Y02115D02*
Y02306D01*
Y02003D02*
Y02072D01*
Y01876D02*
Y01945D01*
Y01798D02*
Y01813D01*
X03015Y02339D02*
Y02407D01*
Y02115D02*
Y02305D01*
Y02003D02*
Y02072D01*
Y01876D02*
Y01945D01*
Y01821D02*
Y01822D01*
Y01802D02*
Y01809D01*
Y01789D02*
Y0179D01*
X03014Y02339D02*
Y02407D01*
Y02116D02*
Y02305D01*
Y02003D02*
Y02072D01*
Y01876D02*
Y01945D01*
Y01818D02*
Y01822D01*
Y01789D02*
Y01794D01*
X03014Y02339D02*
Y02407D01*
Y02117D02*
Y02304D01*
Y02003D02*
Y02072D01*
Y01876D02*
Y01945D01*
Y01814D02*
Y01822D01*
Y01789D02*
Y01797D01*
X03013Y02339D02*
Y02407D01*
Y02117D02*
Y02303D01*
Y02003D02*
Y02072D01*
Y01876D02*
Y01945D01*
Y0181D02*
Y01822D01*
Y01789D02*
Y01801D01*
X03012Y02339D02*
Y02407D01*
Y02118D02*
Y02302D01*
Y02003D02*
Y02072D01*
Y01876D02*
Y01945D01*
Y01807D02*
Y01822D01*
Y0179D02*
Y01805D01*
X03011Y02339D02*
Y02407D01*
Y02119D02*
Y02302D01*
Y02003D02*
Y02072D01*
Y01876D02*
Y01945D01*
Y0179D02*
Y01822D01*
X0301Y02339D02*
Y02407D01*
Y02119D02*
Y02302D01*
Y02003D02*
Y02072D01*
Y01876D02*
Y01945D01*
Y0179D02*
Y01822D01*
X0301Y02339D02*
Y02407D01*
Y02119D02*
Y02301D01*
Y02003D02*
Y02072D01*
Y01876D02*
Y01945D01*
Y01789D02*
Y01822D01*
X03009Y02339D02*
Y02407D01*
Y0212D02*
Y023D01*
Y02003D02*
Y02072D01*
Y01876D02*
Y01945D01*
Y01789D02*
Y01822D01*
X03008Y02339D02*
Y02407D01*
Y02121D02*
Y023D01*
Y02003D02*
Y02072D01*
Y01876D02*
Y01945D01*
Y01788D02*
Y01822D01*
X03007Y02339D02*
Y02407D01*
Y02122D02*
Y02299D01*
Y02003D02*
Y02072D01*
Y01876D02*
Y01945D01*
Y01789D02*
Y01822D01*
X03006Y02339D02*
Y02407D01*
Y02122D02*
Y02299D01*
Y02003D02*
Y02072D01*
Y01876D02*
Y01945D01*
Y0179D02*
Y01821D01*
X03006Y02339D02*
Y02407D01*
Y02122D02*
Y02298D01*
Y02003D02*
Y02072D01*
Y01876D02*
Y01945D01*
Y0179D02*
Y01821D01*
X03005Y02339D02*
Y02407D01*
Y02123D02*
Y02297D01*
Y02003D02*
Y02072D01*
Y01876D02*
Y01945D01*
Y0179D02*
Y0182D01*
X03004Y02339D02*
Y02407D01*
Y02124D02*
Y02296D01*
Y02003D02*
Y02072D01*
Y01876D02*
Y01945D01*
Y0179D02*
Y0182D01*
X03003Y02339D02*
Y02407D01*
Y02125D02*
Y02295D01*
Y02003D02*
Y02072D01*
Y01876D02*
Y01945D01*
Y0179D02*
Y0182D01*
X03002Y02339D02*
Y02407D01*
Y02125D02*
Y02295D01*
Y02003D02*
Y02072D01*
Y01876D02*
Y01945D01*
Y0179D02*
Y0182D01*
X03002Y02339D02*
Y02407D01*
Y02126D02*
Y02294D01*
Y02003D02*
Y02072D01*
Y01876D02*
Y01945D01*
Y01791D02*
Y0182D01*
X03001Y02339D02*
Y02407D01*
Y02127D02*
Y02293D01*
Y02003D02*
Y02072D01*
Y01876D02*
Y01945D01*
Y01791D02*
Y0182D01*
X03Y02339D02*
Y02407D01*
Y02127D02*
Y02292D01*
Y02003D02*
Y02072D01*
Y01876D02*
Y01945D01*
Y01791D02*
Y01819D01*
X02999Y02339D02*
Y02407D01*
Y02128D02*
Y02291D01*
Y02003D02*
Y02072D01*
Y01876D02*
Y01945D01*
Y01791D02*
Y01819D01*
X02998Y02339D02*
Y02407D01*
Y02129D02*
Y0229D01*
Y02003D02*
Y02072D01*
Y01876D02*
Y01945D01*
Y01792D02*
Y01819D01*
X02998Y02339D02*
Y02407D01*
Y0213D02*
Y0229D01*
Y02003D02*
Y02072D01*
Y01876D02*
Y01945D01*
Y01792D02*
Y01819D01*
X02997Y02339D02*
Y02407D01*
Y0213D02*
Y02289D01*
Y02003D02*
Y02072D01*
Y01876D02*
Y01945D01*
Y01792D02*
Y01819D01*
X02996Y02339D02*
Y02407D01*
Y02131D02*
Y02288D01*
Y02003D02*
Y02072D01*
Y01876D02*
Y01945D01*
Y01793D02*
Y01818D01*
X02995Y02339D02*
Y02407D01*
Y02132D02*
Y02287D01*
Y02003D02*
Y02072D01*
Y01876D02*
Y01945D01*
Y01794D02*
Y01818D01*
X02994Y02339D02*
Y02407D01*
Y02133D02*
Y02287D01*
Y02003D02*
Y02072D01*
Y01876D02*
Y01945D01*
Y01794D02*
Y01817D01*
X02994Y02339D02*
Y02407D01*
Y02134D02*
Y02286D01*
Y02003D02*
Y02072D01*
Y01876D02*
Y01945D01*
Y01795D02*
Y01816D01*
X02993Y02339D02*
Y02407D01*
Y02135D02*
Y02284D01*
Y02003D02*
Y02072D01*
Y01876D02*
Y01945D01*
Y01795D02*
Y01815D01*
X02992Y02339D02*
Y02407D01*
Y02135D02*
Y02283D01*
Y02003D02*
Y02072D01*
Y01876D02*
Y01945D01*
Y01796D02*
Y01815D01*
X02991Y02339D02*
Y02407D01*
Y02137D02*
Y02282D01*
Y02003D02*
Y02072D01*
Y01876D02*
Y01945D01*
Y01797D02*
Y01814D01*
X0299Y02339D02*
Y02407D01*
Y02138D02*
Y02282D01*
Y02003D02*
Y02072D01*
Y01876D02*
Y01945D01*
Y01799D02*
Y01813D01*
X0299Y02339D02*
Y02407D01*
Y02139D02*
Y0228D01*
Y02003D02*
Y02072D01*
Y01876D02*
Y01945D01*
Y018D02*
Y01811D01*
X02989Y02339D02*
Y02407D01*
Y02139D02*
Y02279D01*
Y02003D02*
Y02072D01*
Y01876D02*
Y01945D01*
Y01801D02*
Y0181D01*
X02988Y02339D02*
Y02407D01*
Y02141D02*
Y02278D01*
Y02003D02*
Y02072D01*
Y01876D02*
Y01945D01*
Y01802D02*
Y01809D01*
X02987Y02339D02*
Y02407D01*
Y02142D02*
Y02277D01*
Y02003D02*
Y02072D01*
Y01876D02*
Y01945D01*
Y01802D02*
Y01809D01*
X02986Y02339D02*
Y02407D01*
Y02142D02*
Y02276D01*
Y02003D02*
Y02072D01*
Y01876D02*
Y01945D01*
Y01802D02*
Y01809D01*
X02986Y02339D02*
Y02407D01*
Y02144D02*
Y02275D01*
Y02003D02*
Y02072D01*
Y01876D02*
Y01945D01*
Y01803D02*
Y01808D01*
X02985Y02339D02*
Y02407D01*
Y02145D02*
Y02273D01*
Y02003D02*
Y02072D01*
Y01876D02*
Y01945D01*
Y01803D02*
Y01808D01*
X02984Y02339D02*
Y02407D01*
Y02147D02*
Y02272D01*
Y02003D02*
Y02072D01*
Y01876D02*
Y01945D01*
Y01803D02*
Y01808D01*
X02983Y02339D02*
Y02407D01*
Y02147D02*
Y0227D01*
Y02003D02*
Y02072D01*
Y01876D02*
Y01945D01*
Y01803D02*
Y01808D01*
X02982Y02339D02*
Y02407D01*
Y02149D02*
Y0227D01*
Y02003D02*
Y02072D01*
Y01876D02*
Y01945D01*
Y01803D02*
Y01808D01*
X02982Y02339D02*
Y02407D01*
Y0215D02*
Y02268D01*
Y02003D02*
Y02072D01*
Y01876D02*
Y01945D01*
Y01803D02*
Y01808D01*
X02981Y02339D02*
Y02407D01*
Y02151D02*
Y02267D01*
Y02003D02*
Y02072D01*
Y01876D02*
Y01945D01*
Y01803D02*
Y01808D01*
X0298Y02339D02*
Y02407D01*
Y02153D02*
Y02265D01*
Y02003D02*
Y02072D01*
Y01876D02*
Y01945D01*
Y01803D02*
Y01808D01*
X02979Y02339D02*
Y02407D01*
Y02155D02*
Y02263D01*
Y02003D02*
Y02072D01*
Y01876D02*
Y01945D01*
Y01803D02*
Y01808D01*
X02978Y02339D02*
Y02407D01*
Y02156D02*
Y02262D01*
Y02003D02*
Y02072D01*
Y01876D02*
Y01945D01*
Y01804D02*
Y01807D01*
X02978Y02339D02*
Y02407D01*
Y02158D02*
Y0226D01*
Y02003D02*
Y02072D01*
Y01876D02*
Y01945D01*
Y01805D02*
Y01807D01*
X02977Y02339D02*
Y02407D01*
Y02159D02*
Y02258D01*
Y02003D02*
Y02072D01*
Y01876D02*
Y01945D01*
Y01805D02*
Y01806D01*
X02976Y02339D02*
Y02407D01*
Y02161D02*
Y02256D01*
Y02003D02*
Y02072D01*
Y01876D02*
Y01945D01*
X02975Y02339D02*
Y02407D01*
Y02163D02*
Y02255D01*
Y02003D02*
Y02072D01*
Y01876D02*
Y01945D01*
X02974Y02339D02*
Y02407D01*
Y02165D02*
Y02252D01*
X02974Y02167D02*
Y0225D01*
X02973Y02169D02*
Y02247D01*
X02972Y02171D02*
Y02245D01*
X02971Y02175D02*
Y02242D01*
X0297Y02177D02*
Y02239D01*
X0297Y0218D02*
Y02235D01*
X02969Y02184D02*
Y02232D01*
X02968Y02189D02*
Y02227D01*
X02967Y02195D02*
Y0222D01*
G54D140*
X0317Y03735D02*
Y03775D01*
X0319*
X03197Y03769*
Y03755*
X0319Y03749*
X0317*
X03183D02*
X03197Y03735D01*
X0323D02*
X03217D01*
X0321Y03742*
Y03755*
X03217Y03762*
X0323*
X03237Y03755*
Y03749*
X0321*
X0325Y03735D02*
X0327D01*
X03277Y03742*
X0327Y03749*
X03257*
X0325Y03755*
X03257Y03762*
X03277*
X0331Y03735D02*
X03297D01*
X0329Y03742*
Y03755*
X03297Y03762*
X0331*
X03317Y03755*
Y03749*
X0329*
X03337Y03769D02*
Y03762D01*
X0333*
X03343*
X03337*
Y03742*
X03343Y03735*
X04176Y03095D02*
Y03135D01*
X04196*
X04203Y03128*
Y03115*
X04196Y03108*
X04176*
X04216Y03121D02*
Y03095D01*
Y03108*
X04223Y03115*
X04229Y03121*
X04236*
X04263Y03095D02*
X04276D01*
X04283Y03101*
Y03115*
X04276Y03121*
X04263*
X04256Y03115*
Y03101*
X04263Y03095*
X04309Y03081D02*
X04316D01*
X04323Y03088*
Y03121*
X04303*
X04296Y03115*
Y03101*
X04303Y03095*
X04323*
X04336Y03121D02*
Y03095D01*
Y03108*
X04343Y03115*
X04349Y03121*
X04356*
X04383D02*
X04396D01*
X04403Y03115*
Y03095*
X04383*
X04376Y03101*
X04383Y03108*
X04403*
X04416Y03095D02*
Y03121D01*
X04423*
X04429Y03115*
Y03095*
Y03115*
X04436Y03121*
X04443Y03115*
Y03095*
G54D141*
X09004Y04365D03*
G54D142*
X04614Y02196D03*
G54D143*
X08565Y03187D03*
Y03137D03*
Y03337D03*
Y03287D03*
Y02887D03*
Y02837D03*
Y03937D03*
Y03887D03*
Y03487D03*
Y03437D03*
X08315Y03687D03*
Y03637D03*
Y03487D03*
Y03437D03*
X08365Y03337D03*
X08565Y04237D03*
Y04187D03*
Y04087D03*
Y04037D03*
Y02587D03*
Y02537D03*
X08315Y02387D03*
X08365D03*
X08515D03*
X08565D03*
Y02437D03*
X08315D03*
X08365D03*
X08565Y02487D03*
X08315D03*
X08365D03*
X08515Y02537D03*
X08315D03*
X08515Y02587D03*
X08315D03*
X08565Y02637D03*
X08365D03*
Y02687D03*
X08515Y02737D03*
X08315D03*
X08365D03*
X08515Y02787D03*
X08565D03*
X08315D03*
X08365D03*
X08515Y02837D03*
X08365D03*
X08515Y02887D03*
X08365D03*
X08565Y02937D03*
X08315D03*
X08365D03*
X08315Y02987D03*
X08365D03*
X08515Y03037D03*
Y03087D03*
X08565D03*
X08515Y03137D03*
X08315D03*
X08365D03*
X08515Y03187D03*
X08315D03*
X08365D03*
X08515Y03237D03*
X08565D03*
X08315D03*
X08365D03*
X08515Y03287D03*
X08315D03*
X08365D03*
X08515Y03337D03*
X08315D03*
X08515Y03387D03*
X08565D03*
X08315D03*
X08365D03*
X08515Y03437D03*
X08365D03*
X08515Y03487D03*
X08365D03*
X08515Y03537D03*
X08565D03*
X08315D03*
X08365D03*
X08515Y03587D03*
X08315D03*
X08365D03*
X08515Y03637D03*
Y03687D03*
X08565D03*
X08515Y03737D03*
X08315D03*
X08365D03*
X08515Y03787D03*
X08315D03*
X08365D03*
X08515Y03837D03*
X08565D03*
X08315D03*
X08365D03*
X08515Y03887D03*
X08315D03*
X08365D03*
X08515Y03937D03*
X08315D03*
X08365D03*
X08515Y03987D03*
X08565D03*
X08315D03*
X08365D03*
X08515Y04037D03*
X08315D03*
X08365D03*
X08515Y04087D03*
X08315D03*
X08365D03*
X08565Y04137D03*
X08315D03*
X08365D03*
X08315Y04187D03*
X08365D03*
X08515Y04237D03*
X08315D03*
X08365D03*
X08515Y04287D03*
X08565D03*
X08315D03*
X08365D03*
X08515Y04337D03*
X08565D03*
X08315D03*
X08365D03*
X08565Y02687D03*
Y02737D03*
Y02987D03*
Y03037D03*
Y03587D03*
Y03637D03*
Y03737D03*
Y03787D03*
X08365Y03037D03*
Y03087D03*
Y03637D03*
Y03687D03*
X08515Y02437D03*
Y02487D03*
X08315Y02637D03*
Y02687D03*
X08515Y02637D03*
Y02687D03*
X08315Y03037D03*
Y03087D03*
Y02887D03*
Y02837D03*
X08515Y02937D03*
Y02987D03*
Y04137D03*
Y04187D03*
X08365Y02537D03*
Y02587D03*
M02*