%FSTAX23Y23*%
%MOIN*%
%SFA1B1*%

%IPPOS*%
%AMD83*
4,1,8,-0.012800,-0.025600,0.012800,-0.025600,0.025600,-0.012800,0.025600,0.012800,0.012800,0.025600,-0.012800,0.025600,-0.025600,0.012800,-0.025600,-0.012800,-0.012800,-0.025600,0.0*
%
%ADD10C,0.012008*%
%ADD23R,0.039370X0.023622*%
%ADD24R,0.021654X0.023622*%
%ADD25R,0.023622X0.021654*%
%ADD26R,0.023622X0.039370*%
%ADD30R,0.027559X0.051181*%
%ADD31R,0.066929X0.035433*%
%ADD32R,0.051181X0.027559*%
%ADD33R,0.102362X0.035433*%
%ADD51C,0.020000*%
%ADD52C,0.010000*%
%ADD53C,0.005984*%
%ADD54C,0.005000*%
%ADD55C,0.006890*%
%ADD56C,0.006614*%
%ADD57C,0.007992*%
%ADD58C,0.006614*%
%ADD64R,0.050000X0.005000*%
%ADD73R,0.060000X0.060000*%
%ADD74C,0.060000*%
%ADD75R,0.065000X0.160000*%
%ADD76R,0.160000X0.065000*%
%ADD77C,0.125984*%
%ADD78C,0.157480*%
%ADD79C,0.061024*%
%ADD80C,0.106299*%
%ADD81C,0.039370*%
%ADD82C,0.051181*%
G04~CAMADD=83~4~0.0~0.0~511.8~511.8~0.0~128.0~0~0.0~0.0~0.0~0.0~0~0.0~0.0~0.0~0.0~0~0.0~0.0~0.0~180.0~512.0~512.0*
%ADD83D83*%
%ADD84R,0.059055X0.059055*%
%ADD85C,0.059055*%
%ADD86C,0.037401*%
%ADD87R,0.078740X0.078740*%
%ADD88C,0.196850*%
%ADD89C,0.015984*%
%ADD90C,0.020000*%
%ADD91C,0.015000*%
%ADD92C,0.025000*%
%ADD93C,0.019685*%
%ADD115R,0.082677X0.035433*%
%ADD116R,0.023622X0.016535*%
%ADD117O,0.023622X0.016535*%
%ADD118R,0.037401X0.023622*%
%ADD119O,0.037401X0.011811*%
%ADD120O,0.011811X0.037401*%
%ADD121R,0.082677X0.082677*%
%ADD122R,0.016535X0.023622*%
%ADD123O,0.016535X0.023622*%
%ADD124R,0.078740X0.023622*%
%ADD125O,0.078740X0.023622*%
%ADD126R,0.017716X0.013504*%
%ADD127R,0.035433X0.039370*%
%ADD128R,0.019685X0.039370*%
%ADD129R,0.035827X0.048031*%
%ADD130R,0.043307X0.066929*%
%ADD131R,0.050000X0.469999*%
%ADD132R,0.066929X0.079606*%
%LNatfc_copper_signal_bot-1*%
%LPD*%
G36*
X07122Y02981D02*
X07121Y02981D01*
X07121Y0298*
X0712Y02979*
X0712Y02978*
X07119Y02978*
X07119Y02977*
X07119Y02976*
X07119Y02975*
X07119Y02974*
X07118Y02973*
X07109Y02983*
X07109Y02983*
X0711Y02984*
X07111Y02984*
X07112Y02984*
X07113Y02984*
X07113Y02985*
X07114Y02985*
X07115Y02986*
X07116Y02986*
X07116Y02987*
X07122Y02981*
G37*
G36*
X05802Y02967D02*
X05803Y02967D01*
X05803Y02966*
X05804Y02966*
X05805Y02965*
X05805Y02965*
X05806Y02965*
X05806Y02965*
X05807Y02965*
X05808Y02964*
X05799Y02957*
X05799Y02958*
X05799Y02959*
X05799Y02959*
X05799Y0296*
X05799Y0296*
X05798Y02961*
X05798Y02962*
X05797Y02962*
X05797Y02963*
X05796Y02963*
X05802Y02968*
X05802Y02967*
G37*
G36*
X05961Y03004D02*
X05961Y03003D01*
X05962Y03003*
X05962Y03003*
X05963Y03003*
X05964Y03002*
X05964Y03002*
X05965Y03002*
X05966Y03002*
X05967*
Y02995*
X05966Y02995*
X05965Y02995*
X05964Y02995*
X05964Y02995*
X05963Y02995*
X05962Y02994*
X05962Y02994*
X05961Y02994*
X05961Y02993*
X0596Y02993*
Y03004*
X05961Y03004*
G37*
G36*
X03514Y02992D02*
X03515Y02992D01*
X03515Y02992*
X03516Y02992*
X03516Y02992*
X03518Y02991*
X0352Y02991*
X03521*
Y02979*
X0352*
X03516Y02979*
X03516Y02979*
X03515Y02979*
X03515Y02979*
X03514Y02979*
X03514Y02978*
Y02992*
X03514Y02992*
G37*
G36*
X05961Y02964D02*
X05961Y02964D01*
X05962Y02964*
X05962Y02964*
X05963Y02963*
X05964Y02963*
X05964Y02963*
X05965Y02963*
X05966Y02963*
X05967*
Y02956*
X05966Y02956*
X05965Y02956*
X05964Y02956*
X05964Y02955*
X05963Y02955*
X05962Y02955*
X05962Y02955*
X05961Y02954*
X05961Y02954*
X0596Y02954*
Y02965*
X05961Y02964*
G37*
G36*
X05763Y02951D02*
X05763Y02951D01*
X05762Y02952*
X05762Y02952*
X05761Y02952*
X05761Y02953*
X0576Y02953*
X05759Y02953*
X05758Y02953*
X05758Y02953*
X05757Y02953*
Y0296*
X05758*
X05758Y0296*
X05759Y0296*
X0576Y0296*
X05761Y0296*
X05761Y02961*
X05762Y02961*
X05762Y02961*
X05763Y02962*
X05763Y02962*
Y02951*
G37*
G36*
X05842Y02966D02*
X05842Y02966D01*
X05843Y02966*
X05843Y02965*
X05844Y02965*
X05845Y02965*
X05845Y02964*
X05846Y02964*
X05847Y02964*
X05847*
X0584Y02956*
X0584Y02957*
X05839Y02958*
X05839Y02958*
X05839Y02959*
X05839Y0296*
X05839Y0296*
X05838Y02961*
X05838Y02962*
X05837Y02962*
X05837Y02963*
X05841Y02967*
X05842Y02966*
G37*
G36*
X06266Y02956D02*
X06266Y02956D01*
X06265Y02957*
X06265Y02957*
X06264Y02957*
X06264Y02958*
X06263Y02958*
X06262Y02958*
X06262Y02958*
X06261Y02958*
X0626Y02958*
Y02965*
X06261*
X06262Y02965*
X06262Y02965*
X06263Y02965*
X06264Y02965*
X06264Y02966*
X06265Y02966*
X06265Y02966*
X06266Y02967*
X06266Y02967*
Y02956*
G37*
G36*
X0628Y03021D02*
X06281Y03021D01*
X06281Y0302*
X06281Y0302*
X06282Y03019*
X06282Y03018*
X06283Y03017*
X06284Y03016*
X06281Y0301*
X0628Y0301*
X0628Y03011*
X06279Y03011*
X06279Y03012*
X06278Y03012*
X06277Y03012*
X06277Y03012*
X06276*
X06276Y03012*
X06275Y03012*
X0628Y03022*
X0628Y03021*
G37*
G36*
X04695Y03094D02*
X04695Y03093D01*
Y03093*
X04695Y03092*
X04695Y03091*
X04696Y0309*
X04697Y03089*
X04698Y03088*
X047Y03085*
X04695Y0308*
X04694Y03082*
X04692Y03084*
X04691Y03085*
X0469Y03085*
X04689Y03085*
X04688Y03086*
X04687*
X04687Y03085*
X04686Y03085*
X04695Y03094*
X04695Y03094*
G37*
G36*
X05055Y03091D02*
X05055Y03091D01*
X05055Y0309*
X05056Y0309*
X05056Y0309*
X05057Y03089*
X05058Y03089*
X05059Y03089*
X0506Y03089*
X05061Y03089*
Y03083*
X0506Y03083*
X05059Y03083*
X05058Y03082*
X05057Y03082*
X05056Y03082*
X05056Y03082*
X05055Y03081*
X05055Y03081*
X05055Y0308*
X05055Y0308*
Y03092*
X05055Y03091*
G37*
G36*
X05033Y03079D02*
X05033Y0308D01*
X05033Y0308*
X05033Y03081*
X05032Y03081*
X05032Y03081*
X05031Y03082*
X0503Y03082*
X05029Y03082*
X05028Y03082*
X05027*
X05026*
X05025Y03082*
X05024Y03082*
X05023Y03082*
X05022Y03081*
X05022Y03081*
X05021Y03081*
X05021Y0308*
X05021Y0308*
X05021Y03079*
Y03093*
X05021Y03092*
X05021Y03091*
X05021Y03091*
X05022Y0309*
X05022Y0309*
X05023Y0309*
X05024Y0309*
X05025Y03089*
X05026Y03089*
X05027Y03089*
X05028Y03089*
X05029Y03089*
X0503Y0309*
X05031Y0309*
X05032Y0309*
X05032Y0309*
X05033Y03091*
X05033Y03091*
X05033Y03092*
X05033Y03093*
Y03079*
G37*
G36*
X04771Y03091D02*
X04771Y0309D01*
X0477Y03089*
X0477Y03088*
X04769Y03087*
X04769Y03087*
X04769Y03086*
X04768Y03085*
X04768Y03084*
X04768Y03083*
X04762*
X04762Y03084*
X04762Y03085*
X04761Y03086*
X04761Y03087*
X04761Y03087*
X0476Y03088*
X0476Y03089*
X04759Y0309*
X04759Y03091*
X04758Y03091*
X04772*
X04771Y03091*
G37*
G36*
X06687Y03034D02*
Y03034D01*
X06687Y03029*
X06677*
Y03034*
X06687*
Y03034*
G37*
G36*
X0669Y03028D02*
X06692Y03027D01*
X06692Y03027*
X06693Y03026*
X06694Y03026*
X06694Y03026*
X06695Y03025*
X06696Y03025*
X06696Y03025*
X06686Y03015*
X06686Y03016*
X06686Y03017*
X06686Y03017*
X06686Y03018*
X06685Y03018*
X06685Y03019*
X06684Y0302*
X06684Y03021*
X06682Y03022*
X0669Y03029*
X0669Y03028*
G37*
G36*
X03315Y03073D02*
X03209D01*
Y03115*
X03315*
Y03073*
G37*
G36*
X05961Y03043D02*
X05961Y03043D01*
X05962Y03043*
X05962Y03042*
X05963Y03042*
X05964Y03042*
X05964Y03042*
X05965Y03042*
X05966Y03041*
X05967*
Y03035*
X05966Y03035*
X05965Y03035*
X05964Y03034*
X05964Y03034*
X05963Y03034*
X05962Y03034*
X05962Y03034*
X05961Y03033*
X05961Y03033*
X0596Y03032*
Y03044*
X05961Y03043*
G37*
G36*
X03258Y02851D02*
X03258Y02849D01*
X03259Y02847*
X0326Y02846*
X03261Y02844*
X03262Y02843*
X03264Y02842*
X03266Y02842*
X03268Y02841*
X0327Y02841*
X03252Y02829*
X03239Y02841*
X0324Y02841*
X03241Y02842*
X03242Y02842*
X03243Y02843*
X03244Y02844*
X03245Y02846*
X03245Y02847*
X03246Y02849*
X03246Y02851*
X03246Y02853*
X03258*
X03258Y02851*
G37*
G36*
X0328Y02829D02*
X0328Y02829D01*
X0328Y02829*
X03279Y02829*
X03279Y02829*
X03277Y02829*
X03274Y02829*
X03273*
X03271Y02841*
X03273*
X03275Y02841*
X03276Y02842*
X03277Y02842*
X03277Y02842*
X03278Y02842*
X03278Y02842*
X03278Y02843*
X0328Y02829*
G37*
G36*
X06329Y02839D02*
X06329Y0284D01*
X06329Y02841*
X06329Y02841*
X06328Y02841*
X06328Y02842*
X06327Y02842*
X06326Y02842*
X06325Y02842*
X06324Y02842*
X06323Y02842*
Y02848*
X06324Y02848*
X06325Y02849*
X06326Y02849*
X06327Y02849*
X06328Y02849*
X06328Y0285*
X06329Y0285*
X06329Y0285*
X06329Y02851*
X06329Y02851*
Y02839*
G37*
G36*
X04414Y02848D02*
X04415Y02847D01*
X04416Y02847*
X04417Y02846*
X04417Y02846*
X04418Y02845*
X04419Y02845*
X0442Y02845*
X04421Y02845*
X04422Y02845*
X04421Y02838*
X0442Y02838*
X04419Y02838*
X04418Y02838*
X04417Y02838*
X04417Y02837*
X04416Y02837*
X04415Y02837*
X04414Y02836*
X04413Y02835*
X04412Y02835*
X04414Y02849*
X04414Y02848*
G37*
G36*
X06162Y02792D02*
X06162Y02792D01*
X06161Y02791*
X06161Y02791*
X06161Y0279*
X0616Y02789*
X0616Y02789*
X0616Y02788*
X0616Y02787*
X0616Y02787*
X06154*
X06154Y02787*
X06154Y02788*
X06154Y02789*
X06154Y02789*
X06153Y0279*
X06153Y02791*
X06153Y02791*
X06152Y02792*
X06152Y02792*
X06151Y02793*
X06163*
X06162Y02792*
G37*
G36*
X06202Y02793D02*
X06202Y02792D01*
X06201Y02792*
X06201Y02791*
X06201Y02791*
X06202Y0279*
X06202Y0279*
X06202Y02789*
X06203Y02789*
X06203Y02788*
X06198Y02785*
X06192Y02792*
X06202Y02793*
X06202Y02793*
G37*
G36*
X0628Y02792D02*
X0628Y02792D01*
X06279Y02791*
X06279Y02791*
X06279Y0279*
X06279Y02789*
X06278Y02789*
X06278Y02788*
X06278Y02787*
X06278Y02787*
X06272*
X06272Y02787*
X06272Y02788*
X06272Y02789*
X06272Y02789*
X06271Y0279*
X06271Y02791*
X06271Y02791*
X0627Y02792*
X0627Y02792*
X0627Y02793*
X06281*
X0628Y02792*
G37*
G36*
X06241D02*
X0624Y02792D01*
X0624Y02791*
X0624Y02791*
X06239Y0279*
X06239Y02789*
X06239Y02789*
X06239Y02788*
X06239Y02787*
X06239Y02787*
X06233*
X06233Y02787*
X06233Y02788*
X06232Y02789*
X06232Y02789*
X06232Y0279*
X06232Y02791*
X06231Y02791*
X06231Y02792*
X06231Y02792*
X0623Y02793*
X06241*
X06241Y02792*
G37*
G36*
X05521Y02864D02*
X05521Y02864D01*
X0552Y02865*
X0552Y02865*
X05519Y02866*
X05518Y02866*
X05518Y02866*
X05517Y02866*
X05516Y02866*
X05516Y02867*
X05515Y02867*
Y02873*
X05516Y02873*
X05516Y02873*
X05517Y02873*
X05518Y02873*
X05518Y02873*
X05519Y02874*
X0552Y02874*
X0552Y02874*
X05521Y02875*
X05521Y02875*
Y02864*
G37*
G36*
X03259Y0294D02*
X03259Y0294D01*
X03258Y02939*
X03258Y02939*
X03258Y02938*
X03258Y02937*
X03258Y02935*
Y02934*
X03246*
Y02935*
X03246Y02938*
X03246Y02939*
X03246Y02939*
X03245Y0294*
X03245Y0294*
X03245Y0294*
X03259*
X03259Y0294*
G37*
G36*
X06521Y02916D02*
X0652Y02917D01*
X06519Y02918*
X06518Y02919*
X06517Y02919*
X06516Y02919*
X06515Y0292*
X06514Y0292*
X06514Y0292*
X06513Y0292*
X06512Y02919*
X06512Y02919*
X06511Y02919*
X06511Y02918*
X0651Y02918*
X0651Y02917*
X0651Y02917*
Y02929*
X0651Y02928*
X0651Y02928*
X06511Y02927*
X06511Y02927*
X06512Y02927*
X06512Y02926*
X06513Y02926*
X06513*
X06514Y02926*
X06515Y02927*
X06515Y02927*
X06516Y02927*
X06517Y02928*
X06517Y02929*
X06518Y02929*
X06519Y0293*
X06521Y02916*
G37*
G36*
X06319Y0296D02*
X06319Y02959D01*
X06319Y02959*
X06319Y02958*
X0632Y02957*
X0632Y02957*
X0632Y02956*
X06321Y02955*
X06321Y02955*
X06322Y02954*
X06317Y0295*
X06317Y0295*
X06316Y02951*
X06315Y02951*
X06315Y02951*
X06314Y02952*
X06314Y02952*
X06313Y02952*
X06312Y02952*
X06312Y02952*
X06311*
X06319Y0296*
X06319Y0296*
G37*
G36*
X04257Y02951D02*
X04257Y0295D01*
X04257Y02949*
X04257Y02948*
X04258Y02947*
X04258Y02947*
X04259Y02946*
X04259Y02945*
X0426Y02944*
X0426Y02944*
X04256Y02939*
X04255Y0294*
X04255Y02941*
X04254Y02941*
X04253Y02941*
X04252Y02942*
X04251Y02942*
X0425Y02942*
X04249Y02942*
X04248Y02942*
X04247*
X04257Y02952*
Y02951*
G37*
G36*
X06343Y02897D02*
X06343Y02896D01*
X06344Y02895*
X06344Y02894*
X06344Y02893*
X06345Y02893*
X06345Y02892*
X06345Y02892*
X06346Y02892*
X06347Y02892*
X06333*
X06334Y02892*
X06335Y02892*
X06335Y02892*
X06336Y02893*
X06336Y02893*
X06336Y02894*
X06336Y02895*
X06337Y02896*
X06337Y02897*
X06337Y02898*
X06343*
X06343Y02897*
G37*
G36*
X06521Y02881D02*
X0652Y02882D01*
X06519Y02882*
X06518Y02883*
X06518Y02883*
X06517Y02884*
X06516Y02884*
X06515Y02884*
X06514Y02884*
X06513Y02884*
X06513Y02884*
X06512Y02884*
X06511Y02883*
X06511Y02883*
X0651Y02882*
X0651Y02882*
X0651Y02881*
Y02894*
X0651Y02894*
X0651Y02893*
X06511Y02893*
X06511Y02892*
X06512Y02892*
X06513Y02892*
X06513Y02891*
X06514Y02891*
X06514Y02891*
X06515Y02892*
X06516Y02892*
X06516Y02893*
X06517Y02893*
X06518Y02894*
X06518Y02894*
X06519Y02895*
X06521Y02881*
G37*
G36*
X05927Y02914D02*
X05927Y02914D01*
X05928Y02913*
X05928Y02913*
X05929Y02913*
X0593Y02913*
X0593Y02913*
X05931Y02912*
X05932Y02912*
X05933Y02912*
Y02905*
X05932*
X05931Y02905*
X0593Y02905*
X0593Y02905*
X05929Y02905*
X05928Y02905*
X05928Y02904*
X05927Y02904*
X05927Y02904*
X05926Y02903*
Y02915*
X05927Y02914*
G37*
G36*
X06489Y02882D02*
X06489Y02882D01*
X06489Y02883*
X06488Y02883*
X06488Y02884*
X06487Y02884*
X06487Y02884*
X06486Y02885*
X06485Y02885*
X06484Y02885*
X06483Y02885*
X06482Y02885*
X06481Y02884*
X0648Y02884*
X0648Y02884*
X06479Y02883*
X06479Y02883*
X06479Y02882*
X06479Y02882*
Y02895*
X06479Y02894*
X06479Y02894*
X06479Y02893*
X0648Y02893*
X0648Y02892*
X06481Y02892*
X06482Y02892*
X06483Y02892*
X06484Y02892*
X06485Y02892*
X06486Y02892*
X06487Y02892*
X06487Y02892*
X06488Y02893*
X06488Y02893*
X06489Y02894*
X06489Y02894*
X06489Y02895*
Y02882*
G37*
G36*
X06524Y03278D02*
X06524Y03278D01*
X06524Y03277*
X06524Y03277*
X06523Y03277*
X06522Y03277*
X06522Y03277*
X06521Y03277*
X0652Y03276*
X06517Y03276*
Y03283*
X06519Y03283*
X0652Y03283*
X06521Y03284*
X06522Y03284*
X06523Y03284*
X06523Y03284*
X06524Y03285*
X06524Y03285*
X06524Y03286*
X06524Y03287*
X06524Y03278*
G37*
G36*
X03534Y03314D02*
X0354Y0331D01*
X03543Y03308*
X03545Y03306*
X03548Y03305*
X0355Y03304*
X03553Y03303*
X03555Y03302*
X03557Y03302*
Y0329*
X03555Y0329*
X03553Y0329*
X0355Y03289*
X03548Y03288*
X03545Y03287*
X03543Y03285*
X0354Y03283*
X03537Y03281*
X03531Y03275*
Y03317*
X03534Y03314*
G37*
G36*
X06031Y03313D02*
X06031Y03312D01*
X06032Y03312*
X06032Y03312*
X06033Y03311*
X06034Y03311*
X06034Y03311*
X06035Y03311*
X06036Y03311*
X06036*
X06029Y03303*
X06029Y03303*
X06028Y03304*
X06028Y03305*
X06028Y03306*
X06028Y03306*
X06028Y03307*
X06027Y03307*
X06027Y03308*
X06026Y03309*
X06026Y03309*
X0603Y03313*
X06031Y03313*
G37*
G36*
X07316Y03295D02*
X07316Y03294D01*
X07316Y03292*
X07317Y03279*
X07297*
X07297Y03282*
X07296Y03289*
X07296Y03291*
X07295Y03292*
X07295Y03293*
X07294Y03294*
X07294Y03295*
X07293Y03295*
X07316*
X07316Y03295*
G37*
G36*
X05172Y03233D02*
X05171Y03232D01*
X0517Y03231*
X0517Y03231*
X05169Y03231*
X05169Y03231*
X05168Y03231*
X05168Y03231*
X05168Y03232*
X05168Y03233*
X05168Y03234*
X05147Y03234*
X05147Y03234*
X05147Y03234*
X05147Y03235*
X05148Y03236*
X05149Y03237*
X05151Y0324*
X05158Y03247*
X05172Y03233*
G37*
G36*
X05115Y0321D02*
X05115Y03211D01*
X05114Y03212*
X05114Y03212*
X05113Y03213*
X05112Y03213*
X0511Y03213*
X05109Y03214*
X05107Y03214*
X05103Y03214*
Y03226*
X05105Y03226*
X05107Y03226*
X05109Y03227*
X05111Y03227*
X05112Y03227*
X05113Y03228*
X05114Y03229*
X05114Y0323*
X05115Y03231*
X05115Y03232*
X05115Y0321*
G37*
G36*
X065Y03286D02*
X065Y03285D01*
X065Y03285*
X06501Y03284*
X06501Y03284*
X06502Y03284*
X06503Y03284*
X06504Y03283*
X06505Y03283*
X06507Y03283*
Y03276*
X06505Y03276*
X06504Y03276*
X06503Y03276*
X06502Y03276*
X06501Y03275*
X06501Y03275*
X065Y03275*
X065Y03274*
X065Y03274*
X065Y03273*
Y03287*
X065Y03286*
G37*
G36*
X06495Y03268D02*
X06495Y03268D01*
X06494Y03268*
X06494Y03267*
X06493Y03266*
X06493Y03266*
X06493Y03265*
X06493Y03264*
X06492Y03263*
X06492Y03261*
X06486*
X06486Y03263*
X06485Y03264*
X06485Y03265*
X06485Y03266*
X06485Y03266*
X06484Y03267*
X06484Y03268*
X06483Y03268*
X06483Y03268*
X06482Y03268*
X06496*
X06495Y03268*
G37*
G36*
X05995Y03319D02*
X05996Y03318D01*
X05996Y03318*
X05997Y03317*
X05997Y03317*
X05998Y03317*
X05999Y03317*
X06Y03317*
X06Y03317*
X06001*
X05993Y03309*
X05993Y03309*
X05993Y0331*
X05993Y03311*
X05993Y03311*
X05992Y03312*
X05992Y03313*
X05992Y03313*
X05991Y03314*
X05991Y03314*
X0599Y03315*
X05995Y03319*
X05995Y03319*
G37*
G36*
X05845Y03373D02*
X05844Y03373D01*
X05844Y03373*
X05844Y03373*
X05843Y03373*
X05843Y03373*
X05842Y03373*
X05842Y03373*
X05841Y03372*
X05841Y03372*
X0584Y03371*
X05838Y03377*
X05845Y03383*
X05845Y03373*
G37*
G36*
X06031Y03352D02*
X06031Y03352D01*
X06032Y03351*
X06032Y03351*
X06033Y03351*
X06034Y0335*
X06034Y0335*
X06035Y0335*
X06036Y0335*
X06036*
X06029Y03342*
X06029Y03343*
X06028Y03344*
X06028Y03344*
X06028Y03345*
X06028Y03346*
X06028Y03346*
X06027Y03347*
X06027Y03347*
X06026Y03348*
X06026Y03349*
X0603Y03353*
X06031Y03352*
G37*
G36*
X06047Y03388D02*
X06047Y03387D01*
X06046Y03387*
X06046Y03386*
X06046Y03386*
X06045Y03385*
X06045Y03384*
X06045Y03384*
X06045Y03383*
X06045Y03382*
X06045Y03382*
X06037Y03389*
X06037*
X06038Y0339*
X06039Y0339*
X06039Y0339*
X0604Y0339*
X06041Y0339*
X06041Y03391*
X06042Y03391*
X06042Y03392*
X06043Y03392*
X06047Y03388*
G37*
G36*
X06082Y03384D02*
X06082Y03383D01*
X06082Y03383*
X06083Y03382*
X06083Y03381*
X06083Y03381*
X06084Y0338*
X06085Y03379*
X06085Y03378*
X06082Y03373*
X06082Y03373*
X06081Y03374*
X06081Y03374*
X0608Y03375*
X06079Y03375*
X06079Y03375*
X06078Y03375*
X06077Y03375*
X06077Y03375*
X06076Y03375*
X06082Y03385*
X06082Y03384*
G37*
G36*
X06204Y03348D02*
X06205Y03347D01*
X06205Y03347*
X06206Y03346*
X06207Y03346*
X06207Y03346*
X06208Y03346*
X06209Y03346*
X06209Y03346*
X0621Y03345*
Y0334*
X06209Y03339*
X06209Y03339*
X06208Y03339*
X06207Y03339*
X06207Y03339*
X06206Y03339*
X06205Y03338*
X06205Y03338*
X06204Y03337*
X06204Y03337*
Y03348*
X06204Y03348*
G37*
G36*
X06558Y03339D02*
X06555Y03336D01*
X06547Y03327*
X06546Y03325*
X06545Y03324*
X06545Y03323*
X06545Y03322*
X06546Y03321*
X06524Y03336*
X06525Y03336*
X06526Y03337*
X06527Y03337*
X06528Y03338*
X06531Y03341*
X06541Y0335*
X06558Y03339*
G37*
G36*
X07261Y032D02*
X07213D01*
X07209Y03205*
X07209Y03207*
X07208Y03213*
X07204Y03219*
X07198Y03223*
X07191Y03225*
X07136*
X07132Y03224*
X07127Y03228*
Y03235*
X07132Y03239*
X07136Y03238*
X07191*
X07198Y0324*
X07204Y03244*
X07208Y0325*
X07209Y03257*
X07208Y03263*
X07204Y03269*
X07198Y03273*
X07191Y03275*
X07136*
X07132Y03274*
X07127Y03278*
Y03285*
X07132Y03289*
X07136Y03288*
X07191*
X07198Y0329*
X07204Y03294*
X07208Y033*
X07209Y03307*
X07208Y03313*
X07204Y03319*
X07198Y03323*
X07191Y03325*
X07136*
X07132Y03324*
X07127Y03328*
Y03335*
X07132Y03339*
X07136Y03338*
X07191*
X07198Y0334*
X07204Y03344*
X07208Y0335*
X07209Y03357*
X07208Y03363*
X07204Y03369*
X07198Y03373*
X07191Y03375*
X07136*
X07132Y03374*
X07127Y03378*
Y0342*
X07261*
Y032*
G37*
G36*
X06513Y03342D02*
X06513Y03341D01*
X06512Y03341*
X06512Y03341*
X06511Y03341*
X06511Y0334*
X0651Y03339*
X06508Y03338*
X06507Y03337*
X06499Y03346*
X065Y03347*
X06502Y03349*
X06502Y0335*
X06503Y0335*
X06503Y03351*
X06503Y03351*
X06503Y03351*
X06513Y03342*
G37*
G36*
X04999Y03109D02*
X04999Y03108D01*
X04999Y03108*
X04998Y03108*
X04997Y03108*
X04996Y03108*
X04992Y03108*
X04988Y03108*
Y03128*
X0499*
X04998Y03128*
X04998Y03128*
X04999Y03129*
X04999Y03129*
X04999Y03129*
X04999Y03109*
G37*
G36*
X06646Y03116D02*
X06646Y03115D01*
X06647Y03115*
X06648Y03115*
X06649Y03114*
X06649Y03114*
X0665Y03114*
X06651Y03114*
X06652Y03114*
X06653*
Y03105*
X06652*
X06651Y03105*
X0665Y03105*
X06649Y03105*
X06649Y03105*
X06648Y03104*
X06647Y03104*
X06646Y03104*
X06646Y03103*
X06645Y03102*
Y03117*
X06646Y03116*
G37*
G36*
X04957Y03125D02*
X04957Y03124D01*
X04957Y03123*
X04958Y03123*
X04958Y03122*
X04958Y03121*
X04959Y0312*
X0496Y03119*
X0496Y03118*
X04961Y03118*
X04947*
X04948Y03118*
X04948Y03119*
X04949Y0312*
X0495Y03121*
X0495Y03122*
X0495Y03123*
X04951Y03123*
X04951Y03124*
X04951Y03125*
X04951Y03126*
X04957*
X04957Y03125*
G37*
G36*
X05915Y03121D02*
X05916Y0312D01*
X05917Y0312*
X05918Y03119*
X05919Y03119*
X0592Y03118*
X0592Y03118*
X0591Y03113*
X05911Y03114*
X05911Y03114*
X05911Y03115*
X05911Y03116*
X05911Y03116*
X0591Y03117*
X0591Y03117*
X0591Y03118*
X05909Y03119*
X05909Y03119*
X05915Y03122*
X05915Y03121*
G37*
G36*
X07107Y03109D02*
X07107Y03108D01*
X07108Y03108*
X07109Y03108*
X0711Y03107*
X0711Y03107*
X07111Y03107*
X07112Y03107*
X07113Y03107*
X07114Y03107*
Y03099*
X07113Y03098*
X07112Y03098*
X07111Y03098*
X0711Y03098*
X0711Y03098*
X07109Y03097*
X07108Y03097*
X07107Y03097*
X07107Y03096*
X07106Y03095*
Y0311*
X07107Y03109*
G37*
G36*
X06702Y03116D02*
X06703Y03116D01*
X06704Y03116*
X06705Y03116*
X06707Y03115*
X0671Y03115*
X06723Y03116*
X06724Y03116*
X06725Y03117*
X06727Y03095*
X06727*
X06727*
X06722Y03095*
Y03095*
X06718*
X06703Y03094*
X06702Y03094*
X06702Y03093*
Y03117*
X06702Y03116*
G37*
G36*
X06663Y03102D02*
X06663Y03102D01*
X06662Y03103*
X06662Y03104*
X06662Y03104*
X06661Y03105*
X0666Y03105*
X06659Y03105*
X06658Y03105*
X06656Y03105*
X06655Y03105*
Y03114*
X06656*
X06659Y03114*
X0666Y03114*
X06661Y03114*
X06662Y03115*
X06662Y03115*
X06662Y03116*
X06663Y03116*
X06663Y03117*
Y03102*
G37*
G36*
X0713Y03096D02*
X07129Y03097D01*
X07129Y03097*
X07128Y03097*
X07127Y03098*
X07126Y03098*
X07125Y03098*
X07122Y03098*
X07121Y03098*
X07119Y03099*
X07116Y03107*
X07118Y03107*
X07121Y03107*
X07123Y03107*
X07124Y03107*
X07124Y03108*
X07125Y03108*
X07125Y03109*
X07125Y0311*
X07125Y0311*
X0713Y03096*
G37*
G36*
X04773Y0314D02*
X04774Y03139D01*
X04775Y03138*
X04775Y03138*
X04776Y03137*
X04777Y03137*
X04778Y03137*
X04779Y03137*
X0478Y03137*
X04781Y03137*
Y0313*
X0478Y0313*
X04779Y0313*
X04778Y0313*
X04777Y0313*
X04776Y0313*
X04775Y03129*
X04775Y03129*
X04774Y03128*
X04773Y03127*
X04772Y03127*
Y0314*
X04773Y0314*
G37*
G36*
X05168Y03193D02*
X05168Y03192D01*
X05168Y03192*
X05169Y03192*
X05169Y03191*
X0517Y03191*
X05171Y03191*
X05172Y03191*
X05173Y03191*
X05174Y0319*
Y03185*
X05173Y03184*
X05172Y03184*
X05171Y03184*
X0517Y03184*
X05169Y03184*
X05169Y03183*
X05168Y03183*
X05168Y03183*
X05168Y03182*
X05168Y03182*
Y03194*
X05168Y03193*
G37*
G36*
X04452Y03193D02*
X04453Y03193D01*
X04454Y03192*
X04455Y03191*
X04456Y03191*
X04457Y03191*
X04457Y0319*
X04458Y0319*
X04459Y0319*
X0446Y0319*
Y03184*
X04459Y03184*
X04458Y03184*
X04457Y03184*
X04457Y03183*
X04456Y03183*
X04455Y03183*
X04454Y03182*
X04453Y03181*
X04452Y03181*
X04452Y0318*
Y03194*
X04452Y03193*
G37*
G36*
X06235Y032D02*
X06228Y03193D01*
Y03194*
X06228Y03194*
X06227Y03194*
X06227Y03195*
X06227Y03195*
X06226Y03195*
X06226Y03195*
X06225Y03195*
X06224Y03195*
X06224*
X06226Y03202*
X06235Y032*
G37*
G36*
X05146Y03182D02*
X05146Y03182D01*
X05146Y03183*
X05146Y03183*
X05145Y03183*
X05145Y03184*
X05144Y03184*
X05143Y03184*
X05142Y03184*
X05141Y03184*
X05141*
X05141*
X0514Y03184*
X05139Y03184*
X05138Y03184*
X05138Y03184*
X05137Y03183*
X05137Y03183*
X05136Y03183*
X05136Y03182*
X05136Y03182*
Y03194*
X05136Y03193*
X05136Y03192*
X05137Y03192*
X05137Y03192*
X05138Y03191*
X05138Y03191*
X05139Y03191*
X0514Y03191*
X05141Y03191*
X05141*
X05141*
X05142Y03191*
X05143Y03191*
X05144Y03191*
X05145Y03191*
X05145Y03192*
X05146Y03192*
X05146Y03192*
X05146Y03193*
X05146Y03194*
Y03182*
G37*
G36*
X06249Y03147D02*
X06248Y03146D01*
X06248Y03146*
X06248Y03145*
X06248Y03145*
X06247Y03144*
X06247Y03143*
X06247Y03143*
X06247Y03142*
Y03141*
X0624*
Y03142*
X0624Y03143*
X0624Y03143*
X0624Y03144*
X0624Y03145*
X06239Y03145*
X06239Y03146*
X06239Y03146*
X06238Y03147*
X06238Y03147*
X06249*
X06249Y03147*
G37*
G36*
X07247Y03149D02*
X07246Y03148D01*
X07246Y03147*
X07246Y03145*
X07248*
X07248Y03145*
X07247Y03145*
X07246Y03145*
X07246Y03144*
X07245Y03143*
X07245Y03143*
X07245Y03138*
X07244Y03131*
X07244Y03128*
X07236*
X07236Y03131*
X07236Y03143*
X07235Y03143*
X07235Y03144*
X07234Y03145*
X07234Y03145*
X07233Y03145*
X07232Y03145*
X07235*
X07235Y03147*
X07234Y03148*
X07234Y03149*
X07233Y0315*
X07247*
X07247Y03149*
G37*
G36*
X07221Y03145D02*
X07221Y03146D01*
X0722Y03146*
X07219Y03146*
X07218Y03146*
X07216Y03147*
X07211Y03147*
X07197Y03146*
X07195Y03145*
X07194Y03145*
Y03168*
X07195Y03168*
X07196Y03168*
X07197Y03167*
X07203Y03167*
X07206Y03167*
X0722Y03168*
X07221Y03168*
X07221Y03169*
Y03145*
G37*
G36*
X06725Y03146D02*
X06724Y03146D01*
X06724Y03146*
X06704Y03147*
Y03167*
X06725Y03167*
Y03146*
G37*
G36*
X03561Y02028D02*
X03562Y02027D01*
X03562Y02026*
X03563Y02025*
X03564Y02025*
X03565Y02024*
X03566Y02024*
X03568Y02024*
X0357Y02024*
X03572Y02024*
Y02014*
X0357Y02013*
X03568Y02013*
X03566Y02013*
X03565Y02013*
X03564Y02012*
X03563Y02012*
X03562Y02011*
X03562Y0201*
X03561Y02009*
X03561Y02009*
Y02029*
X03561Y02028*
G37*
G36*
X03421Y02021D02*
X03422Y0202D01*
X03422Y0202*
X03423Y0202*
X03423Y0202*
X03424Y02019*
X03424Y02019*
X03426Y02019*
X03427Y0202*
X03428Y0202*
X03428Y0202*
X03429Y0202*
X03429Y02021*
Y02007*
X03429Y02008*
X03428Y02008*
X03428Y02008*
X03427Y02008*
X03426Y02009*
X03425Y02009*
X03425Y02009*
X03424Y02009*
X03423Y02009*
X03423Y02008*
X03422Y02008*
X03422Y02008*
X03421Y02007*
X03421Y02007*
Y02009*
X03419Y02009*
Y02019*
X03421*
X03421*
Y02021*
X03421Y02021*
G37*
G36*
X04728Y0203D02*
X04728Y0203D01*
X04729*
X04729Y0203*
X04732Y0203*
X04733*
Y0202*
X04728Y0202*
Y0203*
X04728Y0203*
G37*
G36*
X04733Y02034D02*
X04734Y02033D01*
X04734Y02033*
X04735Y02032*
X04736Y02031*
X04737Y02031*
X04738Y02031*
X0474Y0203*
X0474Y0203*
X04742Y02031*
X04743Y02031*
X04745Y02031*
X04745Y02032*
X04746Y02032*
X04747Y02033*
X04747Y02033*
X04747Y02034*
Y02015*
X04747Y02016*
X04747Y02017*
X04746Y02018*
X04745Y02018*
X04745Y02019*
X04743Y02019*
X04742Y0202*
X04741Y0202*
X0474Y0202*
X0474Y0202*
X04738Y0202*
X04737Y02019*
X04736Y02019*
X04735Y02018*
X04734Y02018*
X04734Y02017*
X04733Y02016*
X04733Y02015*
Y02035*
X04733Y02034*
G37*
G36*
X03446Y02D02*
X03446Y02D01*
X03447Y02*
X03447Y01999*
X03448Y01999*
X03449Y01999*
X0345Y01999*
X03451Y01998*
X03454Y01998*
Y0199*
X03453*
X0345Y0199*
X03449Y0199*
X03448Y0199*
X03447Y01989*
X03447Y01989*
X03446Y01989*
X03446Y01988*
X03446Y01988*
Y02001*
X03446Y02*
G37*
G36*
X0368Y01988D02*
X03681Y01986D01*
X03682Y01986*
X03683Y01985*
X03683Y01985*
X03684Y01985*
X03685Y01985*
X03685Y01985*
X03686Y01985*
X03676Y01975*
X03676Y01975*
X03676Y01976*
X03676Y01976*
X03675Y01977*
X03675Y01978*
X03675Y01978*
X03674Y01979*
X03674Y0198*
X03672Y01981*
X03679Y01988*
X0368Y01988*
G37*
G36*
X04554Y02002D02*
X04554Y02003D01*
X04554Y02004*
X04553Y02005*
X04553Y02006*
X04552Y02006*
X04551Y02007*
X04549Y02007*
X04548Y02007*
X04546Y02007*
X04544Y02007*
Y02017*
X04546Y02018*
X04548Y02018*
X04549Y02018*
X04551Y02018*
X04552Y02019*
X04553Y02019*
X04553Y0202*
X04554Y02021*
X04554Y02022*
X04554Y02022*
Y02002*
G37*
G36*
X04573Y02002D02*
X04572Y02001D01*
X04571Y02001*
X04571Y02*
X0457Y01999*
X0457Y01998*
X04569Y01997*
X04569Y01996*
X04569Y01995*
X0457Y01994*
X0457Y01993*
X04571Y01992*
X04571Y01991*
X04572Y01991*
X04573Y0199*
X04574Y0199*
X04554*
X04555Y0199*
X04556Y01991*
X04557Y01991*
X04557Y01992*
X04558Y01993*
X04558Y01994*
X04559Y01995*
X04559Y01996*
X04559Y01997*
X04558Y01998*
X04558Y01999*
X04557Y02*
X04557Y02001*
X04556Y02001*
X04555Y02002*
X04554Y02002*
X04574*
X04573Y02002*
G37*
G36*
X03504Y0202D02*
X03507Y0202D01*
Y02008*
X03504Y02008*
X03504*
X03495Y02007*
Y02008*
X03492*
Y0202*
X03494Y0202*
X03495Y0202*
Y02021*
X03495Y02021*
X03496Y0202*
X03496Y0202*
X03498Y02021*
X03499Y02021*
X03501Y02022*
X03502Y02022*
X03503Y02023*
X03503Y02024*
X03504Y02025*
X03504Y02026*
X03504Y0202*
G37*
G36*
X0352Y02039D02*
X0352Y02037D01*
X03521Y02035*
X03521Y02033*
X03522Y02032*
X03522Y02031*
X03523Y0203*
X03524Y0203*
X03525Y02029*
X03526Y02029*
X03523Y02029*
X03523Y02029*
X03507*
X03508Y02029*
X03508*
X03504Y02029*
X03504Y02029*
X03505Y0203*
X03506Y0203*
X03506Y02031*
X03507Y02032*
X03507Y02034*
X03508Y02035*
X03508Y02037*
X03508Y02039*
X03508Y02041*
X0352*
X0352Y02039*
G37*
G36*
X03478Y02027D02*
X03478Y02028D01*
X03478Y02028*
X03477Y02028*
X03477Y02029*
X03476Y02029*
X03475Y02029*
X03474Y02029*
X03473Y0203*
X0347Y0203*
Y02038*
X03471Y02038*
X03474Y02038*
X03475Y02038*
X03476Y02038*
X03477Y02039*
X03477Y02039*
X03478Y02039*
X03478Y0204*
X03478Y0204*
Y02027*
G37*
G36*
X03467Y02055D02*
X03466Y02054D01*
X03466Y02053*
X03465Y02053*
X03465Y02052*
X03465Y02051*
X03464Y0205*
X03464Y02049*
X03464Y02048*
Y02047*
X03456*
Y02048*
X03456Y02049*
X03456Y0205*
X03456Y02051*
X03455Y02052*
X03455Y02053*
X03455Y02053*
X03454Y02054*
X03454Y02055*
X03453Y02055*
X03467*
X03467Y02055*
G37*
G36*
X04651Y0204D02*
X04651Y0204D01*
X04651Y0204*
X04652Y0204*
X04654Y0204*
X04655*
Y0203*
X04651Y0203*
Y0204*
X04651Y0204*
G37*
G36*
X04621Y02022D02*
X04619Y0202D01*
X04614Y02015*
X04613Y02013*
X04612Y02012*
X04612Y0201*
X04612Y02009*
X04612Y02009*
X04612Y02008*
X04599Y02023*
X04599Y02023*
X046Y02022*
X04601Y02023*
X04602Y02023*
X04604Y02024*
X04605Y02025*
X04607Y02026*
X04611Y0203*
X04613Y02032*
X04621Y02022*
G37*
G36*
X04513Y02032D02*
X04513Y02032D01*
X04516Y02029*
X0451Y02021*
X0451Y02022*
X04507Y02024*
X04507Y02024*
X04507Y02024*
X04506*
X04513Y02032*
X04513Y02032*
G37*
G36*
X03429Y0204D02*
Y02027D01*
X03429Y02028*
X03428Y02028*
X03428Y02029*
X03427Y02029*
X03426Y0203*
X03425Y0203*
X03424Y0203*
X03422Y0203*
X03421Y0203*
X03419Y02031*
Y02041*
X03429Y0204*
G37*
G36*
X04571Y02031D02*
X04571Y0203D01*
X04571Y02028*
X04572Y02027*
X04572Y02026*
X04573Y02025*
X04573Y02024*
X04574Y02023*
X04575Y02023*
X04576Y02023*
X04556*
X04557Y02023*
X04558Y02023*
X04559Y02024*
X04559Y02025*
X0456Y02026*
X0456Y02027*
X04561Y02028*
X04561Y0203*
X04561Y02031*
X04561Y02033*
X04571*
X04571Y02031*
G37*
G36*
X03446Y01915D02*
X03446Y01915D01*
X03447Y01914*
X03447Y01913*
X03448Y01913*
X03449Y01912*
X03451Y01912*
X03452Y01912*
X03454Y01911*
X03456Y01911*
Y01901*
X03454Y01901*
X03452Y01901*
X03451Y01901*
X03449Y019*
X03448Y019*
X03447Y019*
X03447Y01899*
X03446Y01898*
X03446Y01897*
X03446Y01896*
Y01916*
X03446Y01915*
G37*
G36*
X0368Y01907D02*
X03681Y01905D01*
X03682Y01905*
X03683Y01904*
X03683Y01904*
X03684Y01904*
X03685Y01904*
X03685Y01904*
X03686*
X03676Y01894*
X03676Y01894*
X03676Y01895*
X03676Y01895*
X03675Y01896*
X03675Y01897*
X03675Y01897*
X03674Y01898*
X03674Y01899*
X03672Y019*
X03679Y01907*
X0368Y01907*
G37*
G36*
X03498Y01915D02*
X03498Y01915D01*
X03499Y01914*
X03499Y01913*
X035Y01913*
X03501Y01912*
X03503Y01912*
X03504Y01912*
X03506Y01911*
X03508Y01911*
Y01901*
X03506Y01901*
X03504Y01901*
X03503Y01901*
X03501Y019*
X035Y019*
X03499Y019*
X03499Y01899*
X03498Y01898*
X03498Y01897*
X03498Y01896*
Y01916*
X03498Y01915*
G37*
G36*
X03476Y01896D02*
X03476Y01897D01*
X03476Y01898*
X03476Y01899*
X03475Y019*
X03474Y019*
X03473Y019*
X03471Y01901*
X0347Y01901*
X03468Y01901*
X03466Y01901*
Y01911*
X03468Y01911*
X0347Y01912*
X03471Y01912*
X03473Y01912*
X03474Y01913*
X03475Y01913*
X03476Y01914*
X03476Y01915*
X03476Y01915*
X03476Y01916*
Y01896*
G37*
G36*
X03858Y01577D02*
X03857Y01577D01*
X03856Y01578*
X03855Y01579*
X03854Y01579*
X03854Y0158*
X03853Y0158*
X03852Y0158*
X03851Y01581*
X0385Y01581*
X03849Y01581*
Y01587*
X0385Y01587*
X03851Y01587*
X03852Y01587*
X03853Y01587*
X03854Y01588*
X03854Y01588*
X03855Y01589*
X03856Y01589*
X03857Y0159*
X03858Y01591*
Y01577*
G37*
G36*
X0799Y01493D02*
X07989Y01493D01*
X07989Y01492*
X07989Y01492*
X07988Y01491*
X07988Y01491*
X07988Y0149*
X07988Y01489*
X07987Y01489*
X07987Y01488*
X07987Y01488*
X0798Y01495*
X07981*
X07981Y01495*
X07982Y01495*
X07982Y01495*
X07983Y01496*
X07984Y01496*
X07984Y01496*
X07985Y01497*
X07985Y01497*
X07986Y01498*
X0799Y01493*
G37*
G36*
X03498Y0186D02*
X03497Y01859D01*
X03497Y01858*
X03497Y01855*
X03497Y0184*
X03477*
X03476Y0186*
X03498*
X03498Y0186*
G37*
G36*
X03446D02*
X03445Y01859D01*
X03445Y01858*
X03445Y01855*
X03445Y0184*
X03425*
X03424Y0186*
X03446*
X03446Y0186*
G37*
G36*
X0468Y01937D02*
X0468Y01938D01*
X0468Y01938*
X04679Y01939*
X04678Y01939*
X04677Y0194*
X04676Y0194*
X04675Y0194*
X04674Y01941*
X04672Y01941*
X0467Y01941*
Y01951*
X04672Y01951*
X04674Y01951*
X04675Y01951*
X04676Y01952*
X04678Y01952*
X04678Y01953*
X04679Y01953*
X0468Y01954*
X0468Y01955*
X0468Y01956*
X0468Y01937*
G37*
G36*
X0461Y01969D02*
X04609Y01969D01*
X04609Y01968*
X04609Y01968*
X04609Y01967*
X04609Y01967*
X04609Y01966*
X04608Y01963*
X04608Y01962*
X04598*
Y01963*
X04598Y01967*
X04598Y01967*
X04598Y01968*
X04598Y01968*
X04597Y01969*
X04597Y01969*
X04597Y01969*
X0461*
X0461Y01969*
G37*
G36*
X03428Y01961D02*
X03427Y01961D01*
X03427Y01962*
X03426Y01962*
X03426Y01962*
X03425Y01963*
X03424Y01963*
X03423Y01963*
X03422Y01963*
X0342Y01963*
Y01973*
X03421Y01973*
X03423Y01973*
X03424Y01973*
X03425Y01974*
X03426Y01974*
X03426Y01974*
X03427Y01974*
X03427Y01975*
X03428Y01975*
Y01961*
G37*
G36*
X03495Y01988D02*
X03494Y01987D01*
X03493Y01987*
X03493Y01986*
X03493Y01985*
X03492Y01984*
X03492Y01983*
X03492Y01981*
X03492Y0198*
X03492Y01978*
X03492Y01977*
X03492Y01976*
X03492Y01976*
X03493Y01975*
X03493Y01974*
X03493Y01974*
X03494Y01973*
X0348Y01973*
X0348Y01973*
X0348Y01974*
X03481Y01974*
X03481Y01975*
X03481Y01976*
X03481Y01977*
X03481Y01977*
X03482Y01979*
Y0198*
X03481Y01983*
X03481Y01984*
X03481Y01985*
X0348Y01986*
X0348Y01987*
X03479Y01987*
X03479Y01988*
X03478Y01988*
X03495*
X03495Y01988*
G37*
G36*
X04767Y01976D02*
X04766Y01976D01*
X04765Y01975*
X04765Y01975*
X04765Y01974*
X04764Y01973*
X04764Y01971*
X04764Y0197*
X04764Y01968*
X04764Y01966*
X04752*
X04752Y01968*
X04751Y01971*
X04751Y01973*
X04751Y01974*
X0475Y01975*
X0475Y01975*
X04749Y01976*
X04749Y01976*
X04748Y01976*
X04767*
X04767Y01976*
G37*
G36*
X04645Y01941D02*
X04644D01*
X04642Y01941*
X04641Y01941*
X04641Y0194*
X04641Y0194*
X04641Y0194*
X0464Y0194*
X04637Y0195*
X04645Y01951*
X04645Y01941*
G37*
G36*
X04517Y01938D02*
X04517Y01939D01*
X04517Y01939*
X04516Y0194*
X04515Y0194*
X04515Y01941*
X04513Y01941*
X04512Y01941*
X04511Y01942*
X04509Y01942*
X04507Y01942*
Y01952*
X04509Y01952*
X04511Y01952*
X04512Y01952*
X04513Y01953*
X04515Y01953*
X04515Y01954*
X04516Y01954*
X04517Y01955*
X04517Y01956*
X04517Y01957*
X04517Y01938*
G37*
G36*
X04595Y01947D02*
X04592Y01944D01*
X04585Y01951*
X04585Y01951*
X04585Y01951*
X04585Y01951*
X04586Y01952*
X04588Y01954*
X04588Y01954*
X04595Y01947*
G37*
G36*
X04463Y01942D02*
X04462D01*
X04459Y01942*
X04458Y01942*
X04458Y01941*
X04458Y01941*
X04458Y01941*
X04456Y01952*
X0446Y01952*
X04463Y01942*
G37*
G36*
X0466Y0248D02*
X0466Y0248D01*
X0466Y0248*
X04659Y02479*
X04659Y02478*
X04659Y02477*
X04659Y02475*
X04659Y02474*
X04647*
Y02475*
X04647Y02478*
X04647Y02479*
X04647Y0248*
X04646Y0248*
X04646Y0248*
X04646Y02481*
X0466*
X0466Y0248*
G37*
G36*
X05971Y02467D02*
X05972D01*
Y02447*
X05968Y02447*
X05955Y02446*
X05954Y02446*
X05953Y02445*
X05952Y02445*
X05952Y02444*
Y02447*
X05951*
Y02467*
X05952*
Y02468*
X05952Y02468*
X05953Y02467*
X05954Y02467*
X05957Y02467*
X05957*
X05964Y02468*
X05966Y02468*
X05968Y02469*
X0597Y02469*
X0597Y0247*
X05971Y02471*
X05971Y02471*
Y02467*
G37*
G36*
X05952Y02505D02*
X05953Y02505D01*
X05954Y02504*
X05955Y02504*
X05957Y02504*
X05959Y02504*
X0597Y02504*
X05971Y02505*
X05971Y02505*
Y02503*
X05972*
Y02483*
X05971*
Y02482*
X05971Y02482*
X0597Y02482*
X0597Y02482*
X05968Y02483*
X05966Y02483*
X05963Y02483*
X05953Y02482*
X05952Y02482*
X05952Y02482*
Y02483*
X05951*
Y02503*
X05952*
Y02505*
X05952Y02505*
G37*
G36*
X06144Y02496D02*
X06143Y02496D01*
X06142Y02495*
X06141Y02494*
X0614Y02492*
X0614Y02491*
X0614Y02489*
X06139Y02486*
X06139Y02484*
X06139Y0248*
X06119*
X06119Y02484*
X06118Y02489*
X06118Y02491*
X06118Y02492*
X06117Y02494*
X06116Y02495*
X06115Y02496*
X06114Y02496*
X06113Y02496*
X06145*
X06144Y02496*
G37*
G36*
X05716Y02472D02*
X05717Y02471D01*
X05717Y0247*
X05719Y02469*
X05721Y02468*
X05723Y02468*
X05726Y02467*
X05729Y02467*
X05736Y02467*
Y02447*
X05732Y02447*
X05721Y02448*
X05719Y02448*
X05717Y02448*
X05717Y02449*
X05716Y02449*
X05716Y0245*
Y02473*
X05716Y02472*
G37*
G36*
X05763Y02445D02*
X05763Y02446D01*
X05763Y02446*
X05762Y02446*
X0576Y02446*
X05756Y02447*
X05743Y02447*
Y02467*
X05747*
X05762Y02468*
X05763Y02468*
X05763Y02468*
X05763Y02469*
Y02445*
G37*
G36*
X06203Y02479D02*
X06202Y02479D01*
X062Y02478*
X062Y02476*
X06199Y02474*
X06198Y02472*
X06197Y0247*
X06197Y02467*
X06197Y02466*
X06197Y02456*
X06174*
X06174Y02456*
X06175Y02457*
X06175Y02458*
X06176Y02459*
X06176Y02461*
X06176Y02463*
X06176Y02466*
X06176Y02467*
X06176Y0247*
X06175Y02472*
X06174Y02474*
X06173Y02476*
X06172Y02478*
X06171Y02479*
X06169Y02479*
X06167Y02479*
X06204*
X06203Y02479*
G37*
G36*
X05993Y02471D02*
X05994Y0247D01*
X05995Y02469*
X05996Y02469*
X05998Y02468*
X06Y02468*
X06005Y02468*
X06005Y02468*
X06005Y02469*
Y02467*
X06009Y02467*
X06013Y02467*
Y02447*
X06005Y02447*
Y02445*
X06005Y02446*
X06005Y02446*
X06004Y02446*
X06002Y02446*
X06Y02447*
X05993Y02447*
X05985Y02447*
Y02467*
X05989*
X05993Y02467*
Y02471*
X05993Y02471*
G37*
G36*
X06366Y02495D02*
X06366Y02495D01*
X06365Y02494*
X06365Y02493*
X06365Y02492*
X06364Y02491*
X06364Y02489*
X06364Y02485*
X06364Y02482*
X06344*
Y02485*
X06344Y02491*
X06343Y02492*
X06343Y02493*
X06343Y02494*
X06342Y02495*
X06342Y02495*
X06341Y02495*
X06367*
X06366Y02495*
G37*
G36*
X06151Y02578D02*
X06151Y02578D01*
X06152Y02578*
X06154Y02578*
X06156Y02577*
X06158Y02577*
X06167Y02578*
Y02577*
X06171Y02577*
Y02557*
X06167*
Y02554*
X06167Y02555*
X06166Y02555*
X06165Y02556*
X06164Y02556*
X06162Y02556*
X0616Y02557*
X06151Y02556*
X06151Y02556*
X06151Y02555*
Y02557*
X06147Y02557*
Y02577*
X06151Y02577*
Y02579*
X06151Y02578*
G37*
G36*
X04641Y02557D02*
X04641Y02557D01*
X0464Y02556*
X0464Y02555*
X04639Y02554*
X04639Y02554*
X04638Y02553*
X04638Y02552*
X04638Y02551*
X04638Y0255*
X04638Y02549*
X04628Y02559*
X04629*
X0463Y02559*
X04631Y02559*
X04632Y02559*
X04633Y02559*
X04634Y0256*
X04635Y0256*
X04636Y0256*
X04636Y02561*
X04637Y02562*
X04641Y02557*
G37*
G36*
X04975Y02681D02*
X04975Y0268D01*
X04975Y0268*
X04975Y02679*
X04975Y02678*
X04975Y02678*
X04976Y02677*
X04976Y02677*
X04977Y02676*
X04977Y02676*
X04973Y02671*
X04972Y02672*
X04972Y02672*
X04971Y02673*
X04971Y02673*
X0497Y02673*
X0497Y02674*
X04969Y02674*
X04968Y02674*
X04968Y02674*
X04967*
X04975Y02681*
X04975Y02681*
G37*
G36*
X06334Y02554D02*
X06334Y02555D01*
X06334Y02555*
X06333Y02555*
X06332Y02555*
X0633Y02556*
X06326Y02556*
X06318Y02556*
X06315Y02556*
X06302Y02555*
X06302Y02555*
X06301Y02555*
X06301Y02554*
Y02578*
X06301Y02577*
X06302Y02577*
X06302Y02577*
X06304Y02577*
X06305Y02576*
X06309Y02576*
X06318Y02576*
X06321*
X06332Y02577*
X06333Y02577*
X06334Y02577*
X06334Y02577*
X06334Y02578*
Y02554*
G37*
G36*
X05993Y02505D02*
X05971D01*
X05971Y02505*
X05972Y02506*
X05972Y02506*
X05972Y02509*
X05972Y0252*
X05992*
X05993Y02505*
G37*
G36*
X05796Y02504D02*
X05795Y02504D01*
X05795Y02503*
X05794Y02502*
X05794Y02501*
X05794Y02499*
X05793Y02498*
X05793Y02496*
X05793Y0249*
X05773*
X05773Y02493*
X05773Y02498*
X05772Y02499*
X05772Y02501*
X05772Y02502*
X05771Y02503*
X05771Y02504*
X0577Y02504*
X05769Y02504*
X05797*
X05796Y02504*
G37*
G36*
X06264Y02517D02*
X06264Y02517D01*
X06263Y02517*
X06263Y02517*
X06251Y02517*
Y02537*
X06254Y02537*
X06261Y02538*
X06262Y02538*
X06263Y02538*
X06263Y02538*
X06264Y02539*
X06264Y02539*
X06264Y02517*
G37*
G36*
X05716Y02507D02*
X05694D01*
X05694Y02507*
X05695Y02508*
X05695Y02509*
X05695Y02511*
X05695Y02525*
X05715*
X05716Y02507*
G37*
G36*
X0453Y02375D02*
X0453Y02375D01*
X04531Y02375*
X04531Y02375*
X04534Y02375*
X04535*
Y02365*
X0453Y02364*
Y02375*
X0453Y02375*
G37*
G36*
X0857Y02356D02*
X0857Y02355D01*
X0857Y02355*
X0857Y02355*
X08569Y02354*
X08569Y02353*
X08569Y02353*
X08569Y02352*
X08569Y02351*
X08569Y0235*
X08563*
Y02351*
X08563Y02353*
X08563Y02353*
X08563Y02354*
X08562Y02355*
X08562Y02355*
X08562Y02355*
X08562Y02356*
X08561Y02356*
X08571*
X0857Y02356*
G37*
G36*
X0459Y02402D02*
X04589Y02401D01*
X04588Y02401*
X04588Y024*
X04587Y02399*
X04587Y02398*
X04586Y02397*
X04586Y02396*
X04586Y02395*
X04587Y02394*
X04587Y02393*
X04588Y02392*
X04588Y02391*
X04589Y02391*
X0459Y0239*
X04591Y0239*
X04571*
X04572Y0239*
X04573Y02391*
X04574Y02391*
X04574Y02392*
X04575Y02393*
X04575Y02394*
X04576Y02395*
X04576Y02396*
X04576Y02397*
X04575Y02398*
X04575Y02399*
X04575Y024*
X04574Y02401*
X04574Y02401*
X04573Y02402*
X04572Y02402*
X04591*
X0459Y02402*
G37*
G36*
X0465Y02384D02*
X0465Y02384D01*
X0465Y02383*
X0465Y02383*
X0465Y0238*
Y02379*
X0464*
X0464Y02384*
X0465*
X0465Y02384*
G37*
G36*
X0352Y02078D02*
X0352Y02075D01*
X0352Y02074*
X0352Y02074*
X03521Y02073*
X03521Y02073*
X03521Y02073*
X03507*
X03507Y02073*
X03507Y02073*
X03508Y02074*
X03508Y02074*
X03508Y02075*
X03508Y02076*
X03508Y02078*
Y0208*
X0352*
Y02078*
G37*
G36*
X03521Y02059D02*
X03521Y02058D01*
X03521Y02057*
X0352Y02057*
X0352Y02056*
X0352Y02055*
X0352Y02053*
Y02052*
X03519*
X03519Y02051*
X03511Y0205*
X03511Y02051*
X03511Y02052*
X03508*
Y02053*
X03508Y02056*
X03508Y02057*
X03508Y02057*
X03507Y02058*
X03507Y02058*
X03507Y02058*
X03514*
X03522Y02059*
X03521Y02059*
G37*
G36*
X04775Y02161D02*
X04775Y02161D01*
X04775Y02161*
X04775Y0216*
X04775Y02157*
Y02156*
X04765*
X04765Y02161*
X04775*
X04775Y02161*
G37*
G36*
X04019Y02228D02*
X04031Y02216D01*
Y02188*
X03976Y02133*
X03877*
Y0222*
X03885Y02228*
X04019*
G37*
G36*
X06197Y02417D02*
X06197D01*
X06197Y02417*
X06197Y02416*
X06197Y02415*
X06197Y02406*
X06197*
X06197Y02397*
X06177*
X06177Y02401*
X06176Y02406*
X06174*
X06174Y02406*
X06175Y02407*
X06175Y02408*
X06176Y02409*
X06176Y02411*
X06176Y02414*
X06175Y02415*
X06175Y02416*
X06174Y02417*
X06174Y02417*
X06176*
X06177Y02422*
X06177Y02426*
X06197*
X06197Y02417*
G37*
G36*
X08593Y02446D02*
X08593Y02445D01*
X08593Y02445*
X08594Y02444*
X08594Y02444*
X08594Y02444*
X08594Y02444*
X08594Y02443*
X08594Y02443*
X08587Y0244*
Y0244*
X08587Y02441*
Y02441*
X08587Y02444*
Y02445*
X08593Y02447*
Y02446*
G37*
G36*
X04535Y02436D02*
X04535Y02437D01*
X04535Y02438*
X04534Y02439*
X04533Y02439*
X04532Y0244*
X04531Y0244*
X0453Y02441*
X04529Y02441*
X04527Y02441*
X04525Y02441*
Y02451*
X04527Y02451*
X0453Y02452*
X04531Y02452*
X04532Y02452*
X04533Y02453*
X04534Y02453*
X04535Y02454*
X04535Y02454*
X04535Y02455*
Y02436*
G37*
G36*
X04485Y02455D02*
X04485Y02455D01*
X04485Y02455*
X04486Y02454*
X04488Y02452*
X04488Y02452*
X04481Y02445*
X04478Y02448*
X04485Y02455*
X04485Y02455*
G37*
G36*
X05803Y02468D02*
X05803Y02468D01*
X05804Y02468*
X05806Y02467*
X05808Y02467*
X05808Y02467*
X05818Y02468*
Y02467*
X05823Y02467*
Y02447*
X05819Y02447*
X05818Y02447*
Y02444*
X05818Y02445*
X05817Y02445*
X05816Y02446*
X05815Y02446*
X05813Y02446*
X05812Y02446*
X05803Y02446*
X05803Y02446*
X05803Y02445*
Y02447*
X05798Y02447*
Y02467*
X05803Y02467*
Y02469*
X05803Y02468*
G37*
G36*
X04671Y0241D02*
X04671Y0241D01*
X04672Y02409*
X04672Y02409*
X04673Y02409*
X04673Y02409*
X04674Y02408*
X04675Y02408*
X04675Y02408*
X04676*
Y02402*
X04675*
X04675Y02402*
X04674Y02402*
X04673Y02401*
X04673Y02401*
X04672Y02401*
X04672Y02401*
X04671Y024*
X04671Y024*
X0467Y024*
Y0241*
X04671Y0241*
G37*
G36*
X04684Y02398D02*
X04684Y02399D01*
X04684Y024*
X04683Y024*
X04683Y02401*
X04682Y02401*
X04681Y02401*
X0468Y02401*
X0468Y02402*
X04678Y02402*
X04677Y02402*
Y02408*
X04678Y02408*
X0468Y02408*
X0468Y02409*
X04681Y02409*
X04682Y02409*
X04683Y0241*
X04683Y0241*
X04684Y0241*
X04684Y02411*
X04684Y02412*
Y02398*
G37*
G36*
X04639Y02424D02*
X04636Y02422D01*
X04632Y02417*
X04631Y02415*
X0463Y02413*
X04629Y02412*
X04629Y0241*
Y02409*
X04629Y02408*
X0463Y02407*
X04612Y02423*
X04613Y02422*
X04614Y02422*
X04616Y02422*
X04617Y02423*
X04619Y02423*
X0462Y02424*
X04622Y02426*
X04625Y02427*
X04629Y02432*
X04639Y02424*
G37*
G36*
X08396Y02417D02*
X08397Y02416D01*
X08397Y02416*
X08398Y02415*
X08399Y02415*
X08399Y02415*
X084Y02415*
X08401Y02415*
X08401Y02415*
X08402Y02415*
Y02409*
X08401Y02408*
X08401Y02408*
X084Y02408*
X08399Y02408*
X08399Y02408*
X08398Y02408*
X08397Y02407*
X08397Y02407*
X08396Y02406*
X08396Y02406*
Y02417*
X08396Y02417*
G37*
G36*
X06839Y03382D02*
X06838Y03383D01*
X06838Y03384*
X06837Y03384*
X06836Y03384*
X06835Y03385*
X06835Y03385*
X06834Y03385*
X06833Y03385*
X06832Y03385*
X06831*
Y03394*
X06832*
X06833Y03394*
X06834Y03394*
X06835Y03394*
X06835Y03394*
X06836Y03395*
X06837Y03395*
X06838Y03395*
X06838Y03396*
X06839Y03397*
Y03382*
G37*
G36*
X07389Y0508D02*
X0739Y05072D01*
X0739Y05069*
X07391Y05066*
X07391Y05063*
X07392Y0506*
X07394Y05058*
X07395Y05056*
X07396Y05054*
X07389Y05047*
X07387Y05049*
X07386Y0505*
X07383Y05051*
X07381Y05052*
X07378Y05053*
X07375Y05053*
X07371Y05054*
X07364Y05054*
X07359Y05055*
X07389Y05084*
X07389Y0508*
G37*
G36*
X07259Y05055D02*
X07254Y05054D01*
X07247Y05054*
X07243Y05053*
X0724Y05053*
X07237Y05052*
X07235Y05051*
X07232Y0505*
X07231Y05049*
X07229Y05047*
X07222Y05054*
X07223Y05056*
X07225Y05058*
X07226Y0506*
X07227Y05063*
X07227Y05066*
X07228Y05069*
X07228Y05072*
X07229Y0508*
Y05084*
X07259Y05055*
G37*
G36*
X08159D02*
X08154Y05054D01*
X08147Y05054*
X08143Y05053*
X0814Y05053*
X08137Y05052*
X08135Y05051*
X08132Y0505*
X08131Y05049*
X08129Y05047*
X08122Y05054*
X08123Y05056*
X08125Y05058*
X08126Y0506*
X08127Y05063*
X08127Y05066*
X08128Y05069*
X08128Y05072*
X08129Y0508*
Y05084*
X08159Y05055*
G37*
G36*
X07489Y0508D02*
X0749Y05072D01*
X0749Y05069*
X07491Y05066*
X07491Y05063*
X07492Y0506*
X07494Y05058*
X07495Y05056*
X07496Y05054*
X07489Y05047*
X07487Y05049*
X07486Y0505*
X07483Y05051*
X07481Y05052*
X07478Y05053*
X07475Y05053*
X07471Y05054*
X07464Y05054*
X07459Y05055*
X07489Y05084*
X07489Y0508*
G37*
G36*
X05398Y04752D02*
Y04685D01*
X05282*
Y04754*
X05393*
X05398Y04752*
G37*
G36*
X04057Y04685D02*
X03913D01*
X03912Y04685*
Y04752*
X04057*
Y04685*
G37*
G36*
X03362Y04903D02*
X03362Y04902D01*
X03362Y04901*
X03363Y049*
X03363Y04899*
X03363Y04898*
X03364Y04898*
X03364Y04897*
X03365Y04896*
X03365Y04895*
X03361Y04891*
X0336Y04892*
X0336Y04892*
X03359Y04893*
X03358Y04893*
X03357Y04894*
X03356Y04894*
X03355Y04894*
X03354Y04894*
X03353Y04894*
X03352*
X03362Y04904*
X03362Y04903*
G37*
G36*
X06488Y04835D02*
X06497Y04827D01*
X065Y04825*
X06503Y04824*
X06505Y04822*
X06507Y04822*
X06509Y04821*
X06511Y04821*
Y04814*
X06509Y04814*
X06507Y04813*
X06505Y04812*
X06503Y04811*
X065Y0481*
X06497Y04808*
X06495Y04806*
X06488Y048*
X06485Y04797*
Y04838*
X06488Y04835*
G37*
G36*
X08733Y05101D02*
X08732Y051D01*
X08731Y051*
X08731Y05099*
X0873Y05098*
X0873Y05097*
X08729Y05096*
X08729Y05094*
X08729Y05092*
X08729Y05091*
X08719*
X08719Y05092*
X08719Y05094*
X08719Y05096*
X08718Y05097*
X08718Y05098*
X08717Y05099*
X08717Y051*
X08716Y051*
X08715Y05101*
X08714Y05101*
X08734*
X08733Y05101*
G37*
G36*
X07901Y05101D02*
X079Y051D01*
X07899Y05099*
X07899Y05098*
X07898Y05097*
X07898Y05096*
X07897Y05094*
X07897Y05093*
X07897Y05091*
X07897Y0509*
X07887*
X07887Y05091*
X07887Y05093*
X07887Y05094*
X07886Y05096*
X07886Y05097*
X07885Y05098*
X07885Y05099*
X07884Y051*
X07883Y05101*
X07883Y05102*
X07901*
X07901Y05101*
G37*
G36*
X08637Y05101D02*
X08637Y05101D01*
X08637Y05102*
X08637Y05102*
X08636Y05103*
X08635Y05103*
X08634Y05103*
X08633Y05103*
X08631Y05104*
X08627Y05104*
Y05114*
X08629Y05114*
X08633Y05114*
X08634Y05114*
X08635Y05114*
X08636Y05115*
X08637Y05115*
X08637Y05116*
X08637Y05116*
X08637Y05117*
Y05101*
G37*
G36*
X0784Y05106D02*
X07839Y05105D01*
X07838Y05105*
X07838Y05104*
X07837Y05103*
X07837Y05102*
X07836Y05101*
X07836Y05099*
X07836Y05097*
X07836Y05096*
X07826*
X07826Y05097*
X07826Y05099*
X07826Y05101*
X07825Y05102*
X07825Y05103*
X07824Y05104*
X07824Y05105*
X07823Y05105*
X07822Y05106*
X07821Y05106*
X07841*
X0784Y05106*
G37*
G36*
X08389Y0508D02*
X0839Y05072D01*
X0839Y05069*
X08391Y05066*
X08391Y05063*
X08392Y0506*
X08394Y05058*
X08395Y05056*
X08396Y05054*
X08389Y05047*
X08387Y05049*
X08386Y0505*
X08383Y05051*
X08381Y05052*
X08378Y05053*
X08375Y05053*
X08371Y05054*
X08364Y05054*
X08359Y05055*
X08389Y05084*
X08389Y0508*
G37*
G36*
X08289D02*
X0829Y05072D01*
X0829Y05069*
X08291Y05066*
X08291Y05063*
X08292Y0506*
X08294Y05058*
X08295Y05056*
X08296Y05054*
X08289Y05047*
X08287Y05049*
X08286Y0505*
X08283Y05051*
X08281Y05052*
X08278Y05053*
X08275Y05053*
X08271Y05054*
X08264Y05054*
X08259Y05055*
X08289Y05084*
X08289Y0508*
G37*
G36*
X08029Y05075D02*
X08029Y05075D01*
X08029Y05076*
X08028Y05077*
X08028Y05078*
X08027Y05078*
X08026Y05079*
X08024Y05079*
X08023Y05079*
X08021Y05079*
X08019Y0508*
Y0509*
X08021Y0509*
X08023Y0509*
X08024Y0509*
X08026Y0509*
X08027Y05091*
X08028Y05091*
X08028Y05092*
X08029Y05093*
X08029Y05094*
X08029Y05095*
Y05075*
G37*
G36*
X07129D02*
X07129Y05075D01*
X07129Y05076*
X07128Y05077*
X07128Y05078*
X07127Y05078*
X07126Y05079*
X07124Y05079*
X07123Y05079*
X07121Y05079*
X07119Y0508*
Y0509*
X07121Y0509*
X07123Y0509*
X07124Y0509*
X07126Y0509*
X07127Y05091*
X07128Y05091*
X07128Y05092*
X07129Y05093*
X07129Y05094*
X07129Y05095*
Y05075*
G37*
G36*
X06435Y04652D02*
X06436Y04651D01*
X06439Y0465*
X06441Y04649*
X06444Y04648*
X06447Y04648*
X06451Y04647*
X06459Y04647*
X06464Y04647*
X06434Y04618*
Y04622*
X06434Y04634*
X06433Y04637*
X06432Y0464*
X06432Y04643*
X06431Y04645*
X0643Y04647*
X06428Y04648*
X06433Y04653*
X06435Y04652*
G37*
G36*
X06494Y04413D02*
X06494Y04401D01*
X06495Y04398*
X06496Y04395*
X06496Y04392*
X06497Y0439*
X06498Y04388*
X065Y04387*
X06495Y04382*
X06493Y04383*
X06492Y04384*
X06489Y04385*
X06487Y04386*
X06484Y04387*
X06481Y04387*
X06477Y04388*
X06469Y04388*
X06464*
X06494Y04417*
X06494Y04413*
G37*
G36*
X07139Y04355D02*
X07145D01*
X07145Y04353*
X07146Y04353*
X07146Y04353*
X07146Y04352*
X07145Y04352*
X07145Y04352*
X07145Y04351*
X07145Y0435*
X07145Y0435*
X07145Y04346*
X07145Y04345*
X07146Y04344*
X07146Y04343*
X07146Y04343*
X07147Y04343*
X0713*
X07131Y04343*
X07131Y04343*
X07132Y04344*
X07132Y04345*
X07132Y04346*
X07132Y04347*
X07132Y04351*
X07133Y04355*
Y04357*
X07139Y04355*
G37*
G36*
X07229Y04407D02*
X07224Y04402D01*
X07222Y04399*
X07221Y04397*
X0722Y04395*
X07218Y04393*
X07218Y04391*
X07217Y04389*
X07217Y04387*
X0721*
X0721Y04389*
X0721Y04391*
X07209Y04393*
X07208Y04395*
X07207Y04397*
X07205Y04399*
X07203Y04402*
X07199Y04407*
X07196Y0441*
X07232*
X07229Y04407*
G37*
G36*
X07071D02*
X07067Y04402D01*
X07065Y04399*
X07063Y04397*
X07062Y04395*
X07061Y04393*
X0706Y04391*
X0706Y04389*
X0706Y04387*
X07053*
X07053Y04389*
X07052Y04391*
X07052Y04393*
X07051Y04395*
X07049Y04397*
X07048Y04399*
X07046Y04402*
X07041Y04407*
X07038Y0441*
X07074*
X07071Y04407*
G37*
G36*
X07145Y04284D02*
X07145Y04284D01*
X07144Y04283*
X07144Y04282*
X07144Y04282*
X07144Y04281*
X07144Y04279*
X07144Y04278*
Y04278*
X07144Y04276*
X07144Y04273*
X07144Y04272*
X07144Y04271*
X07145Y0427*
X07145Y04269*
X07146Y04269*
X07146Y04268*
X07147Y04268*
X0713*
X07131Y04268*
X07132Y04269*
X07132Y04269*
X07132Y0427*
X07133Y04271*
X07133Y04272*
X07133Y04273*
X07133Y04275*
X07134Y04277*
X07133Y04279*
X07133Y04279*
X07133Y0428*
X07133Y04281*
X07132Y04281*
X07132Y04282*
X07132Y04282*
X07131Y04283*
X07145Y04285*
X07145Y04284*
G37*
G36*
X07104Y04272D02*
X07107Y04269D01*
X07108Y04268*
X07109Y04268*
X0711Y04267*
X07111Y04267*
X07111Y04267*
X07112Y04268*
X07112Y04268*
X07106Y04255*
X07106Y04256*
X07106Y04256*
X07106Y04257*
X07106Y04258*
X07106Y04259*
X07105Y0426*
X07104Y04261*
X07103Y04262*
X07102Y04263*
X07101Y04265*
X07102Y04273*
X07104Y04272*
G37*
G36*
X07118Y04349D02*
X07118Y04347D01*
X07118Y04346*
X07118Y04345*
X07118Y04345*
X07119Y04344*
X07119Y04344*
X0712Y04343*
X0712Y04343*
X07121Y04343*
X07107*
X07108Y04343*
X07109Y04343*
X07109Y04344*
X0711Y04344*
X0711Y04345*
X0711Y04345*
X0711Y04346*
X07111Y04347*
X07111Y04349*
X07111Y0435*
X07118*
Y04349*
G37*
G36*
X07176Y04339D02*
X07175Y04338D01*
X07173Y04336*
X07172Y04335*
X07172Y04334*
X07171Y04333*
X07171Y04332*
X07171Y04331*
X07171Y0433*
X07171Y0433*
X07165Y04343*
X07165Y04342*
X07166Y04342*
X07166Y04342*
X07167Y04342*
X07168Y04343*
X07169Y04343*
X0717Y04344*
X07172Y04345*
X07175Y04348*
X07176Y04339*
G37*
G36*
X03996Y04639D02*
X03997Y04638D01*
X03998Y04637*
X04003*
X04003Y04633*
X04003Y04633*
X04006Y04632*
X04009Y04632*
X04012Y04631*
X04016Y04631*
Y04611*
X04012*
X04003Y0461*
X04004Y04469*
X04Y04465*
X03915*
Y04637*
X03996*
Y04641*
X03996Y04639*
G37*
G36*
X07189Y04458D02*
X0719Y04457D01*
X07192Y04456*
X07194Y04456*
X07197Y04455*
X072Y04455*
X07203Y04454*
X0721Y04454*
X07213Y04454*
X07188Y04428*
X07188Y04432*
X07188Y04439*
X07187Y04442*
X07187Y04445*
X07186Y04447*
X07185Y0445*
X07185Y04452*
X07184Y04453*
X07183Y04455*
X07187Y04459*
X07189Y04458*
G37*
G36*
X06435Y04552D02*
X06436Y04551D01*
X06439Y0455*
X06441Y04549*
X06444Y04548*
X06447Y04548*
X06451Y04547*
X06459Y04547*
X06464Y04547*
X06434Y04518*
Y04522*
X06434Y04534*
X06433Y04537*
X06432Y0454*
X06432Y04543*
X06431Y04545*
X0643Y04547*
X06428Y04548*
X06433Y04553*
X06435Y04552*
G37*
G36*
X05402Y04474D02*
X05398Y0447D01*
X05313*
Y04642*
X05401*
X05402Y04474*
G37*
G36*
X0712Y04407D02*
X0712Y04407D01*
X0712Y04407*
X0712Y04407*
X07119Y04407*
X07119Y04407*
X07119Y04407*
X07118Y04406*
X07117Y04405*
X07117Y04405*
X07112Y0441*
X07112Y0441*
X07113Y04412*
X07114Y04412*
X07114Y04412*
X07114Y04413*
X07114Y04413*
Y04413*
X07114Y04413*
X0712Y04407*
G37*
G36*
X07308Y04407D02*
X07303Y04402D01*
X07301Y04399*
X073Y04397*
X07298Y04395*
X07297Y04393*
X07297Y04391*
X07296Y04389*
X07296Y04387*
X07289*
X07289Y04389*
X07288Y04391*
X07288Y04393*
X07287Y04395*
X07285Y04397*
X07284Y04399*
X07282Y04402*
X07277Y04407*
X07275Y0441*
X0731*
X07308Y04407*
G37*
G36*
X0711Y04458D02*
X07112Y04457D01*
X07113Y04456*
X07116Y04456*
X07118Y04455*
X07121Y04455*
X07124Y04454*
X07131Y04454*
X07135Y04454*
X07109Y04428*
X07109Y04432*
X07109Y04439*
X07109Y04442*
X07108Y04445*
X07107Y04447*
X07107Y0445*
X07106Y04452*
X07105Y04453*
X07104Y04455*
X07109Y04459*
X0711Y04458*
G37*
G36*
X07031D02*
X07033Y04457D01*
X07035Y04456*
X07037Y04456*
X07039Y04455*
X07042Y04455*
X07045Y04454*
X07052Y04454*
X07056Y04454*
X07031Y04428*
X07031Y04432*
X0703Y04439*
X0703Y04442*
X07029Y04445*
X07029Y04447*
X07028Y0445*
X07027Y04452*
X07026Y04453*
X07025Y04455*
X0703Y04459*
X07031Y04458*
G37*
G36*
X06991Y05113D02*
X0699Y05112D01*
X06989Y05111*
X06989Y0511*
X06988Y05109*
X06988Y05108*
X06987Y05106*
X06987Y05105*
X06987Y05103*
X06987Y05101*
X06977*
X06977Y05103*
X06977Y05105*
X06977Y05106*
X06976Y05108*
X06976Y05109*
X06975Y0511*
X06975Y05111*
X06974Y05112*
X06973Y05113*
X06973Y05114*
X06991*
X06991Y05113*
G37*
G36*
X05799Y05175D02*
X05799Y05175D01*
X05798Y05175*
X05798Y05174*
X05797Y05173*
X05797Y05173*
X05797Y05172*
X05797Y05171*
X05796Y0517*
X05796Y05168*
X0579*
X0579Y0517*
X05789Y05171*
X05789Y05172*
X05789Y05173*
X05789Y05173*
X05788Y05174*
X05788Y05175*
X05787Y05175*
X05787Y05175*
X05786Y05175*
X058*
X05799Y05175*
G37*
G36*
X07136Y05166D02*
X07133Y05169D01*
X07128Y05174*
X07125Y05176*
X07123Y05178*
X0712Y0518*
X07118Y05181*
X07116Y05182*
X07113Y05182*
X07111Y05183*
X07112Y05193*
X07114Y05193*
X07116Y05193*
X07119Y05194*
X07121Y05195*
X07124Y05196*
X07127Y05198*
X07133Y05202*
X07136Y05205*
X0714Y05208*
X07136Y05166*
G37*
G36*
X07761Y05179D02*
X07761Y05177D01*
X07762Y05176*
X07762Y05174*
X07762Y05173*
X07763Y05172*
X07764Y05172*
X07764Y05171*
X07765Y05171*
X07766Y05171*
X07746*
X07747Y05171*
X07748Y05171*
X07749Y05172*
X07749Y05172*
X0775Y05173*
X0775Y05174*
X07751Y05176*
X07751Y05177*
X07751Y05179*
X07751Y05181*
X07761*
X07761Y05179*
G37*
G36*
X06004Y05175D02*
X06004Y05175D01*
X06003Y05175*
X06003Y05174*
X06003Y05174*
X06002Y05173*
X06002Y05172*
X06002Y05171*
X06002Y0517*
Y05169*
X05996*
X05996Y0517*
X05996Y05171*
X05996Y05172*
X05996Y05173*
X05995Y05174*
X05995Y05174*
X05995Y05175*
X05994Y05175*
X05994Y05175*
X05993Y05175*
X06005*
X06004Y05175*
G37*
G36*
X0697Y0516D02*
X0697Y05161D01*
X0697Y05161*
X06969Y05162*
X06969Y05162*
X06968Y05163*
X06967Y05163*
X06965Y05163*
X06964Y05163*
X0696Y05163*
Y05173*
X06962Y05173*
X06965Y05174*
X06967Y05174*
X06968Y05174*
X06969Y05174*
X06969Y05175*
X0697Y05175*
X0697Y05176*
X0697Y05176*
Y0516*
G37*
G36*
X08048Y05157D02*
X08046Y05157D01*
X08045Y05157*
X08044Y05158*
X08042Y05157*
X08041Y05157*
X0804Y05157*
X08038Y05156*
X08037Y05155*
X08036Y05154*
X08034Y05153*
X08027Y0516*
X08029Y05161*
X0803Y05163*
X0803Y05164*
X08031Y05165*
X08032Y05167*
X08032Y05168*
X08032Y05169*
X08032Y0517*
X08032Y05172*
X08031Y05173*
X08048Y05157*
G37*
G36*
X08654Y05174D02*
X08654Y05172D01*
X08655Y05171*
X08655Y05169*
X08655Y05168*
X08656Y05167*
X08657Y05167*
X08657Y05166*
X08658Y05166*
X08659Y05166*
X08639*
X0864Y05166*
X08641Y05166*
X08642Y05167*
X08642Y05167*
X08643Y05168*
X08643Y05169*
X08644Y05171*
X08644Y05172*
X08644Y05174*
X08644Y05176*
X08654*
X08654Y05174*
G37*
G36*
X07911Y05168D02*
X07909Y05166D01*
X07905Y05162*
X07904Y0516*
X07903Y05159*
X07903Y05157*
X07902Y05156*
X07902Y05155*
X07903Y05154*
X07904Y05154*
X07886Y05164*
X07887Y05164*
X07888Y05164*
X07889Y05164*
X0789Y05164*
X07892Y05165*
X07893Y05166*
X07895Y05167*
X07896Y05168*
X07898Y0517*
X079Y05172*
X07911Y05168*
G37*
G36*
X05996Y05292D02*
X05995Y05292D01*
X05995Y05293*
X05994*
X05994Y05292*
X05993Y05292*
X05992Y05292*
X05991Y05291*
X0599Y0529*
X05987Y05288*
X05984Y05293*
X05985Y05294*
X05987Y05296*
X05988Y05297*
X05988Y05298*
X05989Y05299*
X05989Y053*
Y053*
X05989Y05301*
X05988Y05301*
X05996Y05292*
G37*
G36*
X05937Y05291D02*
X05936Y05291D01*
X05936Y05292*
X05935Y05292*
X05935Y05291*
X05934Y05291*
X05933Y05291*
X05932Y0529*
X05931Y05289*
X05928Y05287*
X05925Y05292*
X05926Y05293*
X05928Y05295*
X05929Y05296*
X05929Y05297*
X0593Y05298*
X0593Y05299*
X0593Y05299*
X0593Y053*
X05929Y053*
X05937Y05291*
G37*
G36*
X05791Y05295D02*
X05791Y05295D01*
X0579Y05296*
X05789Y05296*
X05788Y05296*
X05788Y05295*
X05787Y05295*
X05785Y05294*
X05784Y05293*
X05781Y0529*
X05777Y05296*
X05779Y05297*
X05781Y053*
X05782Y05301*
X05782Y05302*
X05783Y05303*
X05783Y05304*
X05783Y05305*
X05783Y05305*
X05782Y05306*
X05791Y05295*
G37*
G36*
X05731D02*
X05731Y05295D01*
X0573Y05296*
X05729Y05296*
X05728Y05296*
X05728Y05295*
X05727Y05295*
X05725Y05294*
X05724Y05293*
X05721Y0529*
X05717Y05296*
X05719Y05297*
X05721Y053*
X05722Y05301*
X05722Y05302*
X05723Y05303*
X05723Y05304*
X05723Y05305*
X05723Y05305*
X05722Y05306*
X05731Y05295*
G37*
G36*
X07396Y05215D02*
X07395Y05213D01*
X07394Y05211*
X07392Y05209*
X07391Y05206*
X07391Y05203*
X0739Y052*
X0739Y05197*
X07389Y05189*
X07389Y05185*
X07359Y05215*
X07364Y05215*
X07371Y05215*
X07375Y05216*
X07378Y05216*
X07381Y05217*
X07383Y05218*
X07386Y05219*
X07387Y0522*
X07389Y05222*
X07396Y05215*
G37*
G36*
X07076Y0518D02*
X07073Y05178D01*
X0707Y05174*
X07069Y05172*
X07068Y05171*
X07067Y05169*
X07067Y05168*
X07067Y05167*
X07068Y05166*
X07068Y05166*
X07051Y05176*
X07052Y05176*
X07053Y05176*
X07054Y05176*
X07055Y05176*
X07057Y05177*
X07058Y05178*
X0706Y05179*
X07061Y0518*
X07063Y05182*
X07065Y05184*
X07076Y0518*
G37*
G36*
X08296Y05215D02*
X08295Y05213D01*
X08294Y05211*
X08292Y05209*
X08291Y05206*
X08291Y05203*
X0829Y052*
X0829Y05197*
X08289Y05189*
X08289Y05185*
X08259Y05215*
X08264Y05215*
X08271Y05215*
X08275Y05216*
X08278Y05216*
X08281Y05217*
X08283Y05218*
X08286Y05219*
X08287Y0522*
X08289Y05222*
X08296Y05215*
G37*
G36*
X08131Y0522D02*
X08132Y05219D01*
X08135Y05218*
X08137Y05217*
X0814Y05216*
X08143Y05216*
X08147Y05215*
X08154Y05215*
X08159Y05215*
X08129Y05185*
Y05189*
X08128Y05197*
X08128Y052*
X08127Y05203*
X08127Y05206*
X08126Y05209*
X08125Y05211*
X08123Y05213*
X08122Y05215*
X08129Y05222*
X08131Y0522*
G37*
G36*
X08732Y05165D02*
X08733Y05164D01*
X08734Y05164*
X08735Y05163*
X08736Y05163*
X08737Y05163*
X08741Y05163*
X08742Y05163*
X08744Y05162*
Y05152*
X08742*
X08737Y05152*
X08736Y05152*
X08735Y05152*
X08734Y05151*
X08733Y05151*
X08732Y0515*
X08731Y0515*
Y05165*
X08732Y05165*
G37*
G36*
X08736Y0514D02*
X08736Y0514D01*
X08736Y0514*
X08737Y0514*
X08738Y0514*
X08738Y05139*
X08739Y05139*
X08742Y05139*
X08743*
Y05138*
X08745Y05138*
X08743Y05136*
Y05127*
X08742Y05127*
X08739Y05127*
X08738Y05126*
X08738Y05126*
X08738Y05126*
X08738Y05126*
X08737Y05127*
X08737*
X08737Y05126*
X08736Y05126*
X08736Y05126*
X08736Y05126*
X08736Y05125*
Y05127*
X08735Y05127*
X08733Y05127*
X08732Y05127*
X08733Y05139*
X08736Y05139*
Y05141*
X08736Y0514*
G37*
G36*
X07069Y05152D02*
X07069Y05151D01*
X0707Y05151*
X0707Y05151*
X07072Y0515*
X07073Y0515*
X07073Y0515*
X07073Y0515*
X07074Y05151*
X07074Y05151*
X07074Y05151*
Y0515*
X07076Y0515*
X0708Y0515*
Y05138*
X07078Y05138*
X07074Y05138*
Y05137*
X07074Y05137*
X07074Y05137*
X07073Y05137*
X07073Y05137*
X07072Y05137*
X0707Y05137*
X0707Y05137*
X07069Y05137*
X07069Y05136*
X07069Y05136*
Y05138*
X07068Y05138*
Y0515*
X07069Y0515*
Y05152*
X07069Y05152*
G37*
G36*
X08637Y05125D02*
X08637Y05125D01*
X08637Y05126*
X08636Y05126*
X08636Y05126*
X08635Y05127*
X08633Y05127*
X0863Y05127*
X08626Y05127*
Y05127*
X08617Y05128*
X08622Y05141*
X08623Y0514*
X08623Y0514*
X08623Y0514*
X08624Y0514*
X08624Y05139*
X08625Y05139*
X08626Y05139*
X08628Y05139*
X08628*
X08635Y0514*
X08636Y0514*
X08636Y0514*
X08637Y0514*
X08637Y05141*
X08637Y05141*
Y05125*
G37*
G36*
X07945Y05151D02*
Y0515D01*
X07945Y0515*
X07946Y0515*
X07946Y05149*
X07946Y05149*
X07947Y05147*
X07949Y05146*
X07939Y05139*
X07932Y05149*
X07945Y05151*
X07945Y05151*
G37*
G36*
X07069Y05127D02*
X07069Y05127D01*
X07069Y05126*
X0707Y05126*
X07071Y05125*
X07072Y05125*
X07073Y05125*
X07075Y05125*
X07079Y05125*
Y05115*
X07077Y05114*
X07073Y05114*
X07072Y05114*
X07071Y05114*
X0707Y05113*
X07069Y05113*
X07069Y05112*
X07069Y05112*
X07069Y05111*
Y05128*
X07069Y05127*
G37*
G36*
X07745Y05106D02*
X07744Y05106D01*
X07744Y05107*
X07744Y05107*
X07743Y05108*
X07742Y05108*
X07741Y05108*
X0774Y05108*
X07738Y05109*
X07735Y05109*
Y05119*
X07736Y05119*
X0774Y05119*
X07741Y05119*
X07742Y05119*
X07743Y0512*
X07744Y0512*
X07744Y05121*
X07744Y05121*
X07745Y05122*
Y05106*
G37*
G36*
X06994Y05152D02*
X06994Y05151D01*
X06995Y05151*
X06996Y05151*
X06997Y0515*
X06998Y0515*
X06999Y0515*
X06999Y0515*
X06999Y0515*
X07Y05151*
X07Y05151*
X07Y05151*
Y0515*
X07001Y0515*
X07006Y0515*
Y05138*
X07003Y05138*
X07Y05138*
Y05137*
X07Y05137*
X07Y05137*
X06999Y05137*
X06999Y05138*
X06997Y05137*
X06996Y05137*
X06995Y05137*
X06994Y05137*
X06994Y05136*
X06994Y05136*
Y05138*
X06994*
Y0515*
X06994*
Y05152*
X06994Y05152*
G37*
G36*
X07904Y0514D02*
X07904Y05139D01*
X07905Y05139*
X07906Y05139*
X07907Y05138*
X07908Y05138*
X07908Y05138*
X07909Y05139*
X07909Y05139*
X07909Y05139*
Y05138*
X07911Y05138*
X07916Y05138*
Y05126*
X07913Y05126*
X07909Y05126*
Y05125*
X07909Y05125*
X07909Y05125*
X07908Y05125*
X07908Y05125*
X07907Y05125*
X07906Y05125*
X07905Y05125*
X07904Y05125*
X07904Y05124*
X07904Y05124*
Y05126*
X07903*
Y05138*
X07904*
Y0514*
X07904Y0514*
G37*
G36*
X07489Y0518D02*
X0749Y05172D01*
X0749Y05169*
X07491Y05166*
X07491Y05163*
X07492Y0516*
X07494Y05158*
X07495Y05156*
X07496Y05154*
X07489Y05147*
X07487Y05149*
X07486Y0515*
X07483Y05151*
X07481Y05152*
X07478Y05153*
X07475Y05153*
X07471Y05154*
X07464Y05154*
X07459Y05155*
X07489Y05184*
X07489Y0518*
G37*
G36*
X07259Y05155D02*
X07254Y05154D01*
X07247Y05154*
X07243Y05153*
X0724Y05153*
X07237Y05152*
X07235Y05151*
X07232Y0515*
X07231Y05149*
X07229Y05147*
X07222Y05154*
X07223Y05156*
X07225Y05158*
X07226Y0516*
X07227Y05163*
X07227Y05166*
X07228Y05169*
X07228Y05172*
X07229Y0518*
Y05184*
X07259Y05155*
G37*
G36*
X07979Y05164D02*
X07979Y05163D01*
X07979Y05163*
X0798Y05162*
X07981Y05162*
X07982Y05162*
X07983Y05162*
X07985Y05161*
X07989Y05161*
Y05151*
X07987Y05151*
X07983Y05151*
X07982Y05151*
X07981Y05151*
X0798Y0515*
X07979Y0515*
X07979Y05149*
X07979Y05149*
X07979Y05148*
Y05164*
X07979Y05164*
G37*
G36*
X08389Y0518D02*
X0839Y05172D01*
X0839Y05169*
X08391Y05166*
X08391Y05163*
X08392Y0516*
X08394Y05158*
X08395Y05156*
X08396Y05154*
X08389Y05147*
X08387Y05149*
X08386Y0515*
X08383Y05151*
X08381Y05152*
X08378Y05153*
X08375Y05153*
X08371Y05154*
X08364Y05154*
X08359Y05155*
X08389Y05184*
X08389Y0518*
G37*
G36*
X07745Y0513D02*
X07744Y0513D01*
X07744Y05131*
X07743Y05131*
X07743Y05131*
X07742Y05132*
X0774Y05132*
X07738Y05132*
X07738Y05132*
X07737Y05132*
X07737Y05132*
X07736Y05131*
X07736Y05131*
X07736Y05131*
Y05132*
X07732Y05132*
Y05144*
X07735*
X07736Y05144*
Y05145*
X07736Y05145*
X07736Y05145*
X07737Y05145*
X07737Y05144*
X07738Y05144*
X07742Y05145*
X07743Y05145*
X07743Y05145*
X07744Y05145*
X07744Y05146*
X07745Y05146*
Y0513*
G37*
G36*
X07819D02*
X07819Y0513D01*
X07819Y0513*
X07818Y05131*
X07817Y05131*
X07816Y05131*
X07814Y05131*
X07812Y05131*
X07812Y05131*
X07811Y05131*
X07811Y05131*
X0781Y05131*
X0781Y0513*
Y05131*
X0781*
X07807Y05132*
Y05144*
X0781*
X0781Y05144*
Y05145*
X0781Y05144*
X07811Y05144*
X07811Y05144*
X07812Y05144*
X07812Y05144*
X07812*
X07815Y05144*
X07816Y05144*
X07817Y05145*
X07818Y05145*
X07819Y05145*
X07819Y05146*
X07819Y05146*
Y0513*
G37*
G36*
X06128Y05154D02*
X06128Y05153D01*
X06127Y05152*
X06127Y05151*
X06126Y0515*
X06126Y0515*
X06126Y05149*
X06125Y05148*
X06125Y05147*
X06125Y05146*
X06119*
X06119Y05147*
X06119Y05148*
X06118Y05149*
X06118Y0515*
X06118Y0515*
X06117Y05151*
X06117Y05152*
X06116Y05153*
X06116Y05154*
X06115Y05154*
X06129*
X06128Y05154*
G37*
G36*
X0618Y05153D02*
X0618Y05152D01*
X06179Y05151*
X06179Y0515*
X06178Y05149*
X06178Y05149*
X06178Y05148*
X06177Y05147*
X06177Y05146*
X06177Y05145*
X06171*
X06171Y05146*
X06171Y05147*
X0617Y05148*
X0617Y05149*
X0617Y05149*
X06169Y0515*
X06169Y05151*
X06168Y05152*
X06168Y05153*
X06167Y05153*
X06181*
X0618Y05153*
G37*
G36*
X07171Y04263D02*
X07171Y04262D01*
X07171Y04262*
X07172Y04261*
X07172Y04261*
X07173Y0426*
X07174Y0426*
X07175Y0426*
X07177Y0426*
X07178Y0426*
Y04253*
X07177Y04253*
X07175Y04253*
X07174Y04253*
X07173Y04253*
X07172Y04252*
X07172Y04252*
X07171Y04251*
X07171Y04251*
X07171Y0425*
X0717Y0425*
Y04263*
X07171Y04263*
G37*
G36*
X06805Y03735D02*
X06805Y03735D01*
X06804Y03736*
X06804Y03736*
X06803Y03736*
X06803Y03737*
X06802Y03737*
X06801Y03737*
X06801Y03737*
X068Y03737*
X06799Y03737*
Y03744*
X068*
X06801Y03744*
X06801Y03744*
X06802Y03744*
X06803Y03745*
X06803Y03745*
X06804Y03745*
X06804Y03745*
X06805Y03746*
X06805Y03746*
Y03735*
G37*
G36*
X06925Y03734D02*
X06925Y03734D01*
X06925Y03733*
X06924Y03733*
X06924Y03732*
X06924Y03732*
X06924Y03731*
X06924Y0373*
X06923Y03729*
X06923Y03728*
X06917*
Y03729*
X06916Y0373*
X06916Y03731*
X06916Y03732*
X06916Y03732*
X06916Y03733*
X06915Y03733*
X06915Y03734*
X06915Y03734*
X06914Y03735*
X06926*
X06925Y03734*
G37*
G36*
X05542Y03791D02*
X05542Y0379D01*
X05543Y03789*
X05543Y03789*
X05544Y03788*
X05545Y03788*
X05547Y03787*
X05548Y03787*
X0555Y03787*
X05552Y03787*
Y03777*
X0555Y03777*
X05548Y03777*
X05547Y03777*
X05545Y03776*
X05544Y03776*
X05543Y03775*
X05543Y03775*
X05542Y03774*
X05542Y03773*
X05542Y03772*
Y03792*
X05542Y03791*
G37*
G36*
X05597Y03782D02*
X056Y0378D01*
X056Y0378*
X056Y0378*
X05601Y0378*
X05601Y0378*
X05593Y03772*
X05593Y03772*
X05593Y03772*
X05593Y03772*
X05592Y03773*
X05592Y03773*
X05591Y03774*
X0559Y03776*
X05597Y03783*
X05597Y03782*
G37*
G36*
X05535Y03718D02*
X05535Y03718D01*
X05535Y03718*
X05536Y03718*
X05536Y03718*
X05538Y03718*
X0554Y03717*
Y03707*
X05539*
X05536Y03707*
X05535Y03707*
X05535Y03707*
X05535Y03707*
X05535Y03707*
Y03718*
X05535Y03718*
G37*
G36*
X05599Y03711D02*
X056Y0371D01*
X056Y0371*
X056Y0371*
X05601Y03709*
X05601Y03709*
X05601Y03709*
X05602Y03709*
X05603Y0371*
X05603Y0371*
X05604Y03711*
X05604Y03711*
Y03709*
X05604*
X05605*
Y03702*
X05604Y03702*
X05604*
Y037*
X05604Y037*
X05603Y03701*
X05603Y03701*
X05602Y03702*
X05601Y03702*
X05601Y03702*
X05601Y03702*
X056Y03701*
X056Y03701*
X056Y03701*
X05599Y037*
X05599Y037*
Y03702*
X05599Y03702*
X05599Y03702*
X05598*
Y03709*
X05599*
X05599Y03709*
X05599Y03709*
Y03712*
X05599Y03711*
G37*
G36*
X06889Y03734D02*
X06888Y03734D01*
X06888Y03733*
X06888Y03733*
X06888Y03732*
X06887Y03732*
X06887Y03731*
X06887Y0373*
X06887Y03729*
X06887Y03728*
X0688*
Y03729*
X0688Y0373*
X0688Y03731*
X0688Y03732*
X0688Y03732*
X06879Y03733*
X06879Y03733*
X06879Y03734*
X06878Y03734*
X06878Y03735*
X06889*
X06889Y03734*
G37*
G36*
X06853Y03735D02*
X06852Y03734D01*
X06852Y03734*
X06852Y03733*
X06851Y03733*
X06851Y03732*
X06851Y03731*
X06851Y03731*
X06851Y0373*
X0685Y03729*
X0685Y03728*
X06844Y03729*
Y03729*
X06843Y0373*
X06843Y03731*
X06843Y03732*
X06843Y03732*
X06843Y03733*
X06843Y03734*
X06842Y03734*
X06842Y03735*
X06842Y03735*
X06853Y03735*
G37*
G36*
X0564Y03806D02*
X05677D01*
X05675Y03806*
X05672Y03806*
X0567Y03805*
X05667Y03803*
X05664Y03801*
X05661Y03799*
X05655Y03794*
X05651Y0379*
X0565Y03789*
X0565Y03787*
X05651Y03784*
X05651Y03782*
X05652Y0378*
X05653Y03778*
X05654Y03777*
X05655Y03776*
X05656Y03776*
X05658Y03775*
X05622*
X05624Y03776*
X05625Y03776*
X05626Y03777*
X05627Y03778*
X05628Y0378*
X05629Y03782*
X05629Y03784*
X0563Y03787*
X0563Y0379*
X0563Y03793*
X0564*
X05633Y038*
X05634Y03802*
X05639Y03806*
X0564Y03807*
X0564Y03806*
G37*
G36*
X0599Y03827D02*
X0599Y03827D01*
X0599Y03826*
X05989Y03823*
X05989Y03817*
X05979*
X05979Y03827*
X0599*
X0599Y03827*
G37*
G36*
X05701Y03808D02*
X05701Y03809D01*
X057Y0381*
X057Y03811*
X05699Y03811*
X05698Y03812*
X05697Y03812*
X05696Y03813*
X05694Y03813*
X05692Y03813*
X05691Y03813*
Y03823*
X05692Y03823*
X05696Y03823*
X05697Y03824*
X05698Y03824*
X05699Y03824*
X057Y03825*
X057Y03825*
X057Y03826*
X05701Y03826*
X05701Y03808*
G37*
G36*
X05677Y03827D02*
X05677Y03826D01*
X05678Y03826*
X05678Y03825*
X05679Y03824*
X0568Y03824*
X05682Y03824*
X05683Y03823*
X05685Y03823*
X05687Y03823*
X05687*
Y03813*
X05687*
X05685Y03813*
X05683Y03813*
X05682Y03813*
X0568Y03812*
X05679Y03812*
X05678Y03811*
X05678Y03811*
X05677Y0381*
X05677Y03809*
X05677Y03808*
Y03813*
X05668Y03812*
X05667Y03812*
X05666Y03811*
X05665Y03811*
Y03825*
X05666Y03825*
X05667Y03824*
X05668Y03824*
X0567Y03824*
X05674Y03823*
X05677Y03823*
Y03828*
X05677Y03827*
G37*
G36*
X0645Y03824D02*
X06449Y03824D01*
X06449Y03824*
X06448Y03824*
X06448Y03823*
X06448Y03822*
X06448Y03822*
X06447Y03821*
X06447Y0382*
X06447Y03819*
X06441*
Y0382*
X06441Y03821*
X06441Y03822*
X06441Y03822*
X06441Y03823*
X0644Y03824*
X0644Y03824*
X06439Y03824*
X06439Y03824*
X06438Y03825*
X0645*
X0645Y03824*
G37*
G36*
X05992Y03968D02*
X05952D01*
X05943Y03959*
Y03805*
X05864*
Y04035*
X05992*
Y03968*
G37*
G36*
X06016Y03814D02*
X0602Y03811D01*
X06022Y0381*
X06023Y03809*
X06025Y03809*
X06026*
X06027Y03809*
X06028Y0381*
X06028Y03811*
X06019Y03786*
X06019Y03787*
X06019Y03789*
X06019Y0379*
X06019Y03792*
X06018Y03794*
X06017Y03795*
X06016Y03797*
X06014Y03799*
X06012Y03801*
X0601Y03803*
X06014Y03816*
X06016Y03814*
G37*
G36*
X07162Y0381D02*
X07161Y03809D01*
X0716Y03809*
X07159Y03809*
X07158Y03809*
X07157Y03809*
X07156Y03808*
X07155Y03808*
X07155Y03808*
X07154Y03807*
X07153Y03806*
X07149Y03811*
X0715Y03811*
X0715Y03812*
X0715Y03813*
X07151Y03814*
X07151Y03814*
X07152Y03815*
X07152Y03816*
X07152Y03817*
X07152Y03818*
X07152Y03819*
X07162Y0381*
G37*
G36*
X05523Y03846D02*
X05523Y03845D01*
X05523Y03844*
X05523Y03843*
X05523Y03839*
X05524Y03828*
X05527Y03828*
X05542Y03829*
X05543Y03829*
X05543Y0383*
Y03828*
X05562Y03828*
Y03808*
X05558*
X05547Y03807*
X05545Y03807*
X05544Y03807*
X05542Y03806*
X05542Y03805*
X05542Y03805*
Y03807*
X05541Y03807*
X0554Y03807*
X05538Y03808*
X0553Y03808*
X05523Y03808*
Y03826*
X05504*
X05504Y0383*
X05503Y03839*
X05503Y03841*
X05502Y03843*
X05501Y03844*
X05501Y03845*
X055Y03846*
X05499Y03846*
X05522*
X05523Y03846*
G37*
G36*
X07124Y03447D02*
X07124Y03447D01*
X07124Y03448*
X07124Y03449*
X07123Y03449*
X07122Y0345*
X07121Y0345*
X0712Y0345*
X07119Y0345*
X07118Y0345*
X07116Y0345*
Y03459*
X07118Y03459*
X07119Y03459*
X0712Y03459*
X07121Y03459*
X07122Y0346*
X07123Y0346*
X07124Y0346*
X07124Y03461*
X07124Y03462*
X07124Y03462*
Y03447*
G37*
G36*
X07255Y03445D02*
X07173D01*
X0717Y0345*
X07171Y03451*
X07172Y03455*
X07171Y03458*
X07169Y03462*
X07165Y03464*
X07162Y03465*
X07129*
Y03502*
X0713Y03504*
X07255*
Y03445*
G37*
G36*
X0672Y03451D02*
X0672Y03451D01*
X0672Y03451*
X0672Y03452*
X06719Y03452*
X06718Y03452*
X06718Y03452*
X06717Y03452*
X06714Y03452*
X06713*
Y0346*
X06714Y03461*
X06718Y03461*
X06718Y03461*
X06719Y03461*
X0672Y03461*
X0672Y03462*
X0672Y03462*
X0672Y03462*
Y03451*
G37*
G36*
X07107Y03461D02*
X07107Y0346D01*
X07108Y0346*
X07109Y0346*
X0711Y03459*
X0711Y03459*
X07111Y03459*
X07112Y03459*
X07113Y03459*
X07114*
Y0345*
X07113*
X07112Y0345*
X07111Y0345*
X0711Y0345*
X0711Y0345*
X07109Y03449*
X07108Y03449*
X07107Y03449*
X07107Y03448*
X07106Y03447*
Y03462*
X07107Y03461*
G37*
G36*
X06417Y03411D02*
X06416Y0341D01*
X06414Y03408*
X06414Y03408*
X06414Y03407*
X06413Y03407*
X06413Y03406*
X06413Y03406*
Y03405*
X06402Y03414*
X06403Y03415*
X06403Y03415*
X06403Y03415*
X06404Y03415*
X06405Y03416*
X06406Y03417*
X06408Y03419*
X06417Y03411*
G37*
G36*
X06779Y03395D02*
X06779Y03395D01*
X06778Y03395*
X06777Y03394*
X06777Y03394*
X06777Y03394*
X06777Y03394*
X06777Y03393*
X06777Y03393*
X06778Y03392*
X0677Y03389*
X06769Y0339*
X06766Y03392*
X06765Y03393*
X06764Y03393*
X06763Y03394*
X06762Y03394*
X06761Y03395*
X0676Y03395*
X06759Y03395*
X0678*
X06779*
G37*
G36*
X06691Y03449D02*
X06691Y03449D01*
X06692Y03448*
X06692Y03448*
X06693Y03448*
X06694Y03448*
X06694Y03448*
X06695Y03448*
X06697Y03447*
Y0344*
X06696*
X06694Y03439*
X06694Y03439*
X06693Y03439*
X06692Y03439*
X06692Y03439*
X06691Y03438*
X06691Y03438*
X06691Y03438*
Y03449*
X06691Y03449*
G37*
G36*
X06473Y03407D02*
X06473Y03407D01*
X06473Y03408*
X06473Y03408*
X06472Y03409*
X06472Y03409*
X06471Y03409*
X0647Y0341*
X0647Y0341*
X06468Y0341*
X06467Y0341*
X06467Y0341*
X06466Y0341*
X06465Y0341*
X06464Y03409*
X06463Y03409*
X06463Y03409*
X06462Y03408*
X06462Y03408*
X06462Y03407*
X06462Y03407*
Y03419*
X06462Y03418*
X06462Y03418*
X06462Y03417*
X06463Y03417*
X06463Y03417*
X06464Y03416*
X06465Y03416*
X06466Y03416*
X06467Y03416*
X06467Y03416*
X06468Y03416*
X0647Y03416*
X0647Y03416*
X06471Y03416*
X06472Y03417*
X06472Y03417*
X06473Y03417*
X06473Y03418*
X06473Y03418*
X06473Y03419*
Y03407*
G37*
G36*
X06129Y03465D02*
X06129Y03464D01*
X06129Y03463*
X06129Y03463*
X0613Y03462*
X0613Y03461*
X0613Y03461*
X06131Y0346*
X06131Y0346*
X06132Y03459*
X06128Y03455*
X06127Y03455*
X06126Y03456*
X06126Y03456*
X06125Y03457*
X06125Y03457*
X06124Y03457*
X06123Y03457*
X06122Y03457*
X06122Y03457*
X06121*
X06129Y03465*
X06129Y03465*
G37*
G36*
X06033Y0355D02*
X06034Y03549D01*
X06034Y03548*
X06034Y03547*
X06034Y03547*
X06034Y03546*
X06035Y03546*
X06035Y03545*
X06035Y03545*
X06036Y03544*
X06024*
X06025Y03545*
X06025Y03545*
X06025Y03546*
X06026Y03546*
X06026Y03547*
X06026Y03547*
X06026Y03548*
X06026Y03549*
X06027Y0355*
Y03551*
X06033*
X06033Y0355*
G37*
G36*
X06003Y03549D02*
Y03548D01*
X06003Y03546*
X06003Y03545*
X06004Y03544*
X06004Y03544*
X06004Y03543*
X06004Y03543*
X05994Y03546*
X05994Y03546*
X05994Y03547*
X05995Y03547*
X05995Y03548*
X05995Y03548*
X05996Y03549*
X05996Y03549*
X05996Y0355*
X05996Y03551*
X05996Y03552*
X06003Y03549*
G37*
G36*
X03531Y03671D02*
X0353Y03669D01*
X0353Y03669*
X03529Y03668*
X03529Y03667*
X03528Y03666*
X03528Y03666*
X03527Y03665*
X03527Y03664*
X03527Y03663*
X03527Y03662*
Y03661*
X03525Y03663*
X03524Y03662*
X03523Y03661*
X03523Y03661*
X03523Y0366*
X03517Y03667*
X03517Y03667*
X03518Y03667*
X03519Y03667*
X03519Y03668*
X0352Y03668*
X03517Y0367*
X03518Y03671*
X03519Y03671*
X0352Y03671*
X03521Y03671*
X03522Y03671*
X03523Y03672*
X03524Y03672*
X03525Y03672*
X03525Y03673*
X03526Y03673*
X03527Y03675*
X03531Y03671*
G37*
G36*
X05961Y03555D02*
X05961Y03554D01*
X05961Y03553*
X05962Y03553*
X05962Y03552*
X05962Y03551*
X05963Y03551*
X05963Y03551*
X05963Y0355*
X05964Y0355*
X05953Y03547*
X05953Y03547*
X05954Y03548*
X05954Y03548*
X05954Y03549*
X05954Y03549*
X05954Y03551*
X05954Y03552*
X05954Y03553*
X05961Y03556*
X05961Y03555*
G37*
G36*
X062Y03544D02*
X06201Y03544D01*
X06201Y03543*
X06202Y03543*
X06203Y03543*
X06203Y03542*
X06204Y03542*
X06205Y03542*
X06205Y03542*
X06206*
Y03536*
X06205*
X06205Y03536*
X06204Y03536*
X06203Y03535*
X06203Y03535*
X06202Y03535*
X06201Y03535*
X06201Y03534*
X062Y03534*
X062Y03533*
Y03545*
X062Y03544*
G37*
G36*
X06494Y0347D02*
X06495Y0346D01*
X06495Y0346*
X06473*
X06473Y0346*
X06474Y03461*
X06474Y03461*
X06474Y03462*
X06474Y03464*
X06474Y03472*
X06494*
X06494Y0347*
G37*
G36*
X06165Y03545D02*
X06165Y03545D01*
X06164Y03544*
X06164Y03544*
X06164Y03543*
X06163Y03542*
X06163Y03542*
X06163Y03541*
X06163Y0354*
X06163Y0354*
X06163Y03539*
X06155Y03547*
X06155*
X06156Y03547*
X06157Y03547*
X06158Y03547*
X06158Y03548*
X06159Y03548*
X06159Y03548*
X0616Y03549*
X06161Y03549*
X06161Y0355*
X06165Y03545*
G37*
G36*
X06126D02*
X06126Y03545D01*
X06125Y03544*
X06125Y03544*
X06124Y03543*
X06124Y03542*
X06124Y03542*
X06124Y03541*
X06123Y0354*
X06123Y0354*
X06123Y03539*
X06115Y03547*
X06116*
X06117Y03547*
X06117Y03547*
X06118Y03547*
X06119Y03548*
X06119Y03548*
X0612Y03548*
X06121Y03549*
X06121Y03549*
X06122Y0355*
X06126Y03545*
G37*
G36*
X05575Y04035D02*
X05575Y04036D01*
X05575Y04037*
X05575Y04037*
X05574Y04037*
X05574Y04038*
X05573Y04038*
X05572Y04038*
X05572Y04038*
X0557Y04038*
X0557*
X05569*
X05568Y04038*
X05567Y04038*
X05566Y04038*
X05565Y04038*
X05565Y04037*
X05564Y04037*
X05564Y04037*
X05564Y04036*
X05564Y04035*
Y04047*
X05564Y04047*
X05564Y04046*
X05564Y04046*
X05565Y04046*
X05565Y04045*
X05566Y04045*
X05567Y04045*
X05568Y04045*
X05569Y04045*
X0557Y04045*
X0557Y04045*
X05572Y04045*
X05572Y04045*
X05573Y04045*
X05574Y04045*
X05574Y04046*
X05575Y04046*
X05575Y04046*
X05575Y04047*
X05575Y04047*
Y04035*
G37*
G36*
X06962Y04044D02*
X06962Y04043D01*
X06961Y04043*
X06961Y04043*
X06961Y04043*
X0696Y04043*
X0696Y04042*
X06958Y0404*
X06951Y04047*
X06951Y04048*
X06953Y0405*
X06954Y04051*
X06954Y04051*
X06954Y04051*
Y04051*
X06962Y04044*
G37*
G36*
X05622Y04068D02*
X05622Y04069D01*
X05621Y0407*
X0562Y0407*
X05619Y04071*
X05619Y04071*
X05618Y04072*
X05617Y04072*
X05616Y04072*
X05615Y04072*
X05614Y04072*
X05615Y04078*
X05616Y04078*
X05617Y04078*
X05617Y04079*
X05618Y04079*
X05619Y04079*
X0562Y0408*
X05621Y0408*
X05622Y04081*
X05623Y04081*
X05623Y04082*
X05622Y04068*
G37*
G36*
X05542Y04065D02*
X05542Y04066D01*
X05542Y04067*
X05542Y04068*
X05541Y04068*
X0554Y04069*
X05539Y0407*
X05537Y0407*
X05536Y0407*
X05534Y0407*
X05532Y0407*
Y0408*
X05534Y0408*
X05536Y0408*
X05537Y04081*
X05539Y04081*
X0554Y04082*
X05541Y04082*
X05542Y04083*
X05542Y04083*
X05542Y04084*
X05542Y04085*
Y04065*
G37*
G36*
X0716Y0396D02*
X07159Y03959D01*
X07157Y03959*
X07156Y03959*
X07155Y03958*
X07154Y03958*
X07154Y03957*
X07153Y03957*
X07152Y03956*
X07151Y03956*
X07147Y03959*
X07147Y0396*
X07148Y03961*
X07148Y03962*
X07149Y03962*
X07149Y03963*
X07149Y03964*
X07149Y03965*
X07149Y03966*
X07149Y03967*
X07149Y03968*
X0716Y0396*
G37*
G36*
X05527Y03963D02*
X05527Y03963D01*
X05528Y03963*
X05529Y03963*
X0553Y03962*
X05531Y03962*
X05534Y03962*
X05539Y03962*
Y03942*
X05536*
X0553Y03942*
X05529Y03941*
X05528Y03941*
X05527Y03941*
X05527Y03941*
X05527Y0394*
Y03964*
X05527Y03963*
G37*
G36*
X05542Y04035D02*
X05542Y04036D01*
X05542Y04037*
X05542Y04037*
X05541Y04037*
X05541Y04038*
X0554Y04038*
X05539Y04038*
X05539Y04038*
X05537Y04038*
X05536Y04039*
Y04045*
X05537Y04045*
X05539Y04045*
X05539Y04045*
X0554Y04045*
X05541Y04045*
X05541Y04046*
X05542Y04046*
X05542Y04046*
X05542Y04047*
X05542Y04047*
Y04035*
G37*
G36*
X06893Y04027D02*
X06893Y04026D01*
X06892Y04026*
X06892Y04026*
X06892Y04026*
X06891Y04026*
X06891Y04025*
X06889Y04023*
X06882Y0403*
X06882Y04031*
X06884Y04033*
X06885Y04034*
X06885Y04034*
X06885Y04034*
X06885Y04034*
X06893Y04027*
G37*
G36*
X05402Y0413D02*
X05401Y04129D01*
X05275*
Y04197*
X05402*
Y0413*
G37*
G36*
X05511Y04129D02*
X05507Y04125D01*
X05448*
X05445Y04128*
X05444Y0413*
X05443Y04132*
X05442Y04134*
X05442*
X05442Y04134*
X05442Y04134*
X0544Y04135*
X0544Y04135*
X0544Y04135*
X05439*
X05439Y04135*
Y0414*
X05438Y04144*
X05436Y04147*
X05432Y0415*
X05428Y04151*
X05423Y0415*
X0542Y04147*
X05418Y04145*
X05415Y04145*
X05413Y04145*
Y04311*
X05464*
Y04562*
X05409*
Y04755*
X05511*
Y04129*
G37*
G36*
X07166Y04245D02*
X07166Y04245D01*
X07166Y04245*
X07165Y04245*
X07162Y04242*
X07158Y04238*
X07153Y04242*
X07154Y04243*
X07156Y04245*
X07156Y04246*
X07157Y04247*
X07157Y04248*
Y04248*
X07157Y04249*
X07156Y04249*
X07156Y0425*
X07166Y04245*
G37*
G36*
X04007Y04262D02*
X04007Y04262D01*
X04009Y04261*
X04017Y04261*
X04024Y04261*
Y04241*
X0402Y04241*
X04017Y0424*
X04014Y0424*
X04011Y04239*
X04009Y04238*
X04007Y04237*
X04007Y04237*
Y0423*
X03919*
X03918Y04398*
X03922Y04402*
X04007*
Y04262*
G37*
G36*
X05437Y04129D02*
X05436Y04129D01*
X05435Y04128*
X05435Y04127*
X05434Y04126*
X05434Y04125*
X05433Y04124*
X05433Y04122*
X05433Y04121*
X05433Y04119*
X05423*
X05423Y04121*
X05423Y04122*
X05422Y04124*
X05422Y04125*
X05421Y04126*
X05421Y04127*
X0542Y04128*
X0542Y04129*
X05419Y04129*
X05418Y04129*
X05438*
X05437Y04129*
G37*
G36*
X05597Y04081D02*
X05597Y0408D01*
X05597Y0408*
X05598Y04079*
X05598Y04079*
X05599Y04079*
X056Y04079*
X05601Y04078*
X05602Y04078*
X05603Y04078*
Y04072*
X05602Y04072*
X05601Y04072*
X056Y04072*
X05599Y04072*
X05598Y04072*
X05598Y04071*
X05597Y04071*
X05597Y0407*
X05597Y0407*
X05597Y04069*
Y04081*
X05597Y04081*
G37*
G36*
X03905Y04748D02*
Y04566D01*
X03854*
Y04307*
X03905*
X03909Y04303*
Y04122*
X03807*
Y04748*
X03811Y04751*
X03901*
X03905Y04748*
G37*
G36*
X04057Y04121D02*
X03922D01*
X03922Y04122*
Y04189*
X04057*
Y04121*
G37*
G36*
X05406Y04242D02*
X05322D01*
Y0424*
X05322Y04242*
X05321Y04242*
X05318*
X05318Y04247*
X05317Y04247*
X05315Y04248*
X05312Y04249*
X05309Y04249*
X05306Y0425*
X05302Y0425*
Y0427*
X05306Y0427*
X05318Y04271*
X05317Y0441*
X05321Y04415*
X05406*
Y04242*
G37*
G36*
X0564Y03844D02*
X05625Y03844D01*
Y03864*
X05628Y03864*
X05635Y03864*
X05636Y03865*
X05637Y03865*
X05638Y03865*
X05639Y03866*
X0564Y03867*
X0564Y03867*
Y03844*
G37*
G36*
X06889Y03832D02*
X06889Y03829D01*
X06889Y03828*
X06889Y03828*
X06889Y03828*
X06889Y03828*
X06878*
X06878Y03828*
X06878Y03828*
X06878Y03828*
X06878Y03829*
X06879Y03829*
X06879Y0383*
X06879Y03833*
X06889*
Y03832*
G37*
G36*
X06021Y03875D02*
X0602Y03875D01*
X06019Y03874*
X06018Y03873*
X06017Y03872*
X06017Y03871*
X06017Y03869*
X06016Y03867*
X06016Y03865*
X06016Y03863*
X06004*
X06004Y03865*
X06004Y03867*
X06003Y03869*
X06003Y03871*
X06002Y03872*
X06002Y03873*
X06001Y03874*
X06Y03875*
X05999Y03875*
X05998Y03875*
X06022*
X06021Y03875*
G37*
G36*
X07157Y0386D02*
X07156Y03859D01*
X07155Y03859*
X07154Y03859*
X07153Y03859*
X07152Y03859*
X07151Y03858*
X0715Y03858*
X0715Y03858*
X07149Y03857*
X07148Y03856*
X07144Y03861*
X07145Y03861*
X07145Y03862*
X07145Y03863*
X07146Y03864*
X07146Y03864*
X07147Y03865*
X07147Y03866*
X07147Y03867*
X07147Y03868*
X07147Y03869*
X07157Y0386*
G37*
G36*
X05716Y03843D02*
X05715Y03842D01*
X05714Y03842*
X05714Y03841*
X05713Y0384*
X05713Y03839*
X05712Y03838*
X05712Y03836*
X05712Y03835*
Y03835*
Y03834*
X05712Y03833*
X05712Y03831*
X05713Y0383*
X05713Y03829*
X05714Y03828*
X05714Y03827*
X05715Y03827*
X05716Y03826*
X05717Y03826*
X05701Y03826*
X05701Y03826*
X05701Y03827*
X05701Y03827*
X05701Y03828*
X05701Y03829*
X05702Y03831*
X05702Y03835*
X05701Y03841*
X05701Y03842*
X05701Y03842*
X05701Y03843*
X05701Y03843*
X05717*
X05716Y03843*
G37*
G36*
X06398Y03959D02*
X06379Y0394D01*
Y03825*
X06345*
X06341Y03828*
Y0399*
X06398*
Y03959*
G37*
G36*
X06092Y04038D02*
Y04019D01*
X06093Y04012*
X06096Y04007*
X06102Y04003*
X06108Y04002*
X06114Y04003*
X06118Y04006*
X06123Y04004*
Y03827*
X06052*
Y03962*
X06043Y03971*
X06003*
Y04038*
X06092*
G37*
G36*
X06925Y03831D02*
X06925Y03827D01*
X06925Y03827*
X06925Y03827*
X06925Y03826*
X06926Y03826*
X06914*
X06915Y03826*
X06915Y03827*
X06915Y03827*
X06915Y03827*
X06915Y03828*
X06915Y03829*
X06915Y03832*
X06925*
Y03831*
G37*
G36*
X05694Y03903D02*
X05697Y03903D01*
Y03883*
X05694*
Y03881*
X05694Y03882*
X05694Y03882*
X05693Y03882*
X05691Y03882*
X05688Y03883*
X05678Y03882*
X05677Y03882*
X05677Y03881*
Y03883*
X05674*
Y03903*
X05677Y03903*
Y03905*
X05677Y03904*
X05678Y03904*
X05679Y03904*
X0568Y03904*
X05682Y03903*
X05684Y03903*
X05693Y03904*
X05694Y03904*
X05694Y03904*
X05694Y03905*
Y03903*
G37*
G36*
X06465Y03904D02*
X06462Y039D01*
X06427*
Y0394*
X06407Y03959*
Y0399*
X06465*
Y03904*
G37*
G36*
X05694Y0394D02*
X05694Y03941D01*
X05694Y03941*
X05693Y03941*
X05692Y03942*
X05691Y03942*
X05689Y03942*
X05686Y03942*
X05681Y03942*
Y03962*
X05683*
X05693Y03963*
X05694Y03963*
X05694Y03963*
X05694Y03964*
Y0394*
G37*
G36*
X0716Y0391D02*
X07159Y03909D01*
X07158Y03909*
X07157Y03909*
X07156Y03909*
X07155Y03909*
X07154Y03908*
X07153Y03908*
X07152Y03908*
X07152Y03907*
X07151Y03906*
X07147Y03911*
X07147Y03911*
X07148Y03912*
X07149Y03913*
X07149Y03914*
X07149Y03914*
X0715Y03915*
X0715Y03916*
X0715Y03917*
X0715Y03918*
X0715Y03919*
X0716Y0391*
G37*
G36*
X08406Y03879D02*
X08406Y03879D01*
X08406Y03879*
X08405Y03878*
X08405Y03878*
X08405Y03877*
X08405Y03877*
X08405Y03876*
X08405Y03875*
X08405Y03875*
X08405Y03875*
X08406Y03875*
X08406Y03874*
X08407Y03874*
X08407Y03873*
X08408Y03873*
X08409Y03873*
X08409Y03873*
X0841Y03873*
X08411Y03873*
X08412Y03872*
X08404Y03865*
Y03865*
X08404Y03866*
X08404Y03867*
X08404Y03868*
X08403Y03868*
X08403Y03869*
X08403Y0387*
X08402Y0387*
X08402Y03871*
X08401Y03872*
X08404Y03875*
X084*
Y03875*
X08399Y03876*
X08399Y03877*
X08399Y03877*
X08399Y03878*
X08399Y03878*
X08398Y03879*
X08398Y03879*
X08398Y03879*
X08397Y03879*
X08407*
X08406Y03879*
G37*
G36*
X05734Y03904D02*
X05734Y03904D01*
X05735Y03904*
X05737Y03904*
X05739Y03903*
X05746Y03903*
X05754Y03903*
Y03884*
X05759*
X05758Y03864*
X05735*
X05736Y03864*
X05736Y03865*
X05737Y03866*
X05737Y03867*
X05738Y03869*
X05738Y03871*
X05739Y03877*
X05739Y03882*
X05734Y03882*
X05734Y03882*
X05734Y03881*
Y03905*
X05734Y03904*
G37*
G36*
X05487Y03881D02*
X05487Y03881D01*
X05487Y03882*
X05486Y03882*
X05485Y03882*
X05484Y03882*
X05485Y03872*
X05486Y0387*
X05486Y03869*
X05487Y03868*
X05487Y03867*
X05488Y03867*
X05465*
X05464Y03867*
Y03868*
X05464Y03887*
X05474*
Y03902*
X05477Y03902*
X05483Y03903*
X05484Y03903*
X05485Y03903*
X05486Y03903*
X05487Y03904*
X05487Y03904*
X05487Y03905*
Y03881*
G37*
G36*
X05527Y03904D02*
X05527Y03904D01*
X05528Y03904*
X0553Y03904*
X05532Y03903*
X05532Y03903*
X05542Y03904*
X05543Y03904*
X05543Y03905*
Y03903*
X05547Y03903*
Y03883*
X05543*
Y03881*
X05543Y03882*
X05542Y03882*
X05541Y03882*
X0554Y03882*
X05538Y03883*
X05537Y03883*
X05527Y03882*
X05527Y03882*
X05527Y03881*
Y03883*
X05523Y03883*
Y03903*
X05527Y03903*
Y03905*
X05527Y03904*
G37*
%LNatfc_copper_signal_bot-2*%
%LPC*%
G36*
X05475Y04692D02*
X0547Y04691D01*
X05465Y04688*
X05462Y04683*
X05461Y04678*
X05462Y04672*
X05465Y04668*
X0547Y04665*
X05475Y04664*
X05481Y04665*
X05486Y04668*
X05489Y04672*
X0549Y04678*
X05489Y04683*
X05486Y04688*
X05481Y04691*
X05475Y04692*
G37*
%LNatfc_copper_signal_bot-3*%
%LPD*%
G54D10*
X03514Y02017D02*
Y02065D01*
X05102Y0322D02*
X05125D01*
X0601Y03812D02*
Y03886D01*
X06019Y03895*
X08617Y05133D02*
X08649D01*
X08613Y05137D02*
X08617Y05133D01*
X08743D02*
X08748Y05129D01*
X08724Y05133D02*
X08743D01*
X07954Y05132D02*
X07967D01*
X07938Y05148D02*
X07954Y05132D01*
X07938Y05148D02*
Y05157D01*
X07892Y05132D02*
X07917D01*
X06403Y03406D02*
X06446Y03449D01*
X06403Y03405D02*
Y03406D01*
X06446Y03449D02*
X06451D01*
X07057Y05144D02*
X07082D01*
X06982D02*
X07008D01*
X0783Y05137D02*
X07831Y05138D01*
X07803Y05137D02*
X0783D01*
X07728Y05138D02*
X07756D01*
X04618Y02412D02*
X04653Y02447D01*
Y02488*
X04758Y01966D02*
Y01988D01*
X07139Y04331D02*
Y04359D01*
X06489Y03327D02*
X06513Y03352D01*
X06489Y03314D02*
Y03327D01*
X03514Y02065D02*
Y0243D01*
X03285Y02835D02*
X03286Y02837D01*
X03252Y02835D02*
X03285D01*
X03239D02*
X03252D01*
X03207Y02804D02*
X03239Y02835D01*
X03207Y02737D02*
Y02804D01*
Y02737D02*
X03514Y0243D01*
X03511Y02014D02*
X03514Y02017D01*
X03487Y02014D02*
X03511D01*
X03517Y0366D02*
X03528D01*
X03252Y02835D02*
Y02947D01*
X03507Y02985D02*
X03624D01*
X0351Y03296D02*
X03616D01*
X0365Y03011D02*
Y03262D01*
X03624Y02985D02*
X0365Y03011D01*
X03616Y03296D02*
X0365Y03262D01*
X04619Y0203D02*
X04623D01*
X04602Y02012D02*
X04619Y0203D01*
X0601Y03812D02*
X06031Y03792D01*
G54D23*
X05714Y03952D03*
Y03893D03*
X04852Y01776D03*
Y01717D03*
X0724Y03216D03*
Y03157D03*
X06682Y03046D03*
Y03105D03*
X07236Y03407D03*
Y03466D03*
X05783Y02457D03*
Y02516D03*
X06025Y02457D03*
Y02516D03*
X06131Y02567D03*
Y02508D03*
X06354Y02566D03*
Y02507D03*
X05507Y03893D03*
Y03952D03*
G54D24*
X04691Y01949D03*
Y01982D03*
X04546Y02443D03*
Y0241D03*
X04528Y0195D03*
Y01983D03*
X05531Y03817D03*
Y03782D03*
X04723Y02023D03*
Y01989D03*
X04758Y01988D03*
Y02022D03*
X03487Y01872D03*
Y01906D03*
X03435Y01872D03*
Y01906D03*
X05999Y05187D03*
Y05221D03*
X05793Y05187D03*
Y05221D03*
X05999Y05338D03*
Y05304D03*
X0594Y05337D03*
Y05303D03*
X05793Y05341D03*
Y05307D03*
X05733Y05341D03*
Y05307D03*
X05553Y04075D03*
Y04041D03*
X05586Y04075D03*
Y04041D03*
X05157Y03222D03*
Y03187D03*
X05125Y03222D03*
Y03187D03*
X06484Y03449D03*
Y03414D03*
X06451Y03449D03*
Y03414D03*
X0501Y0312D03*
Y03086D03*
X05044Y0312D03*
Y03086D03*
X06535Y03324D03*
Y0329D03*
X06489Y03314D03*
Y0328D03*
X0634Y02845D03*
Y0288D03*
X08401Y04044D03*
Y04078D03*
X08402Y03925D03*
Y03891D03*
X065Y02923D03*
Y02888D03*
X05915Y02964D03*
Y02998D03*
X05705Y02462D03*
Y02495D03*
X05982Y0246D03*
Y02493D03*
X05616Y0361D03*
Y03577D03*
X05775Y03613D03*
Y0358D03*
X05655Y03501D03*
Y03534D03*
X05812Y03506D03*
Y03539D03*
X05852Y03303D03*
Y03336D03*
X05915Y0334D03*
Y03373D03*
X05913Y03263D03*
Y03296D03*
X0585Y03038D03*
Y03071D03*
X05733Y0334D03*
Y03373D03*
X05692Y03297D03*
Y03264D03*
X0585Y03229D03*
Y03262D03*
X05811Y03297D03*
Y03264D03*
X05653Y03343D03*
Y03376D03*
X06237Y03276D03*
Y03309D03*
X06117Y03233D03*
Y03266D03*
X06276Y03145D03*
Y03178D03*
X05646Y03073D03*
Y03106D03*
X05492Y02993D03*
Y02959D03*
X0557Y02916D03*
Y02949D03*
Y02764D03*
Y02731D03*
X06002Y03193D03*
Y03226D03*
X0616Y03111D03*
Y03144D03*
X06159Y02952D03*
Y02919D03*
X06238Y02879D03*
Y02912D03*
X06082Y03579D03*
Y03546D03*
X06157Y03502D03*
Y03469D03*
X06236Y035D03*
Y03467D03*
X05807Y03225D03*
Y03191D03*
X06468Y02888D03*
Y02923D03*
G54D25*
X04729Y02405D03*
X04695D03*
X05476Y03857D03*
X05511D03*
X05747Y03854D03*
X05712D03*
X04565Y0198D03*
X04599D03*
X04583Y0238D03*
X04617D03*
X046Y02012D03*
X04566D03*
X04618Y02412D03*
X04584D03*
X05588Y03702D03*
X05553D03*
X0355Y02019D03*
X03515D03*
X03898Y04295D03*
X03932D03*
X039Y04132D03*
X03934D03*
X05423Y04574D03*
X05389D03*
X05417Y04744D03*
X05383D03*
X03894Y0458D03*
X03928D03*
X0389Y04742D03*
X03924D03*
X05428Y043D03*
X05394D03*
X05428Y0414D03*
X05394D03*
X05712Y03815D03*
X05746D03*
X05914Y03157D03*
X0588D03*
X05918Y03077D03*
X05952D03*
X05524Y03311D03*
X05491D03*
X05529Y03427D03*
X05563D03*
X05569Y03185D03*
X05535D03*
X06154Y03389D03*
X06121D03*
X06316Y03425D03*
X0635D03*
X0642Y03979D03*
X06386D03*
G54D26*
X06126Y02387D03*
X06186D03*
Y02437D03*
X06126D03*
X05972Y03792D03*
X06031D03*
X0588Y03939D03*
X0582D03*
X06107Y03966D03*
X06166D03*
X07246Y03314D03*
X07305D03*
G54D30*
X05383Y03224D03*
X05458D03*
X0545Y03311D03*
X05375D03*
G54D31*
X0391Y02152D03*
Y02038D03*
G54D32*
X06Y03742D03*
Y03667D03*
X06062D03*
Y03742D03*
G54D33*
X05754Y0261D03*
Y02725D03*
X05952Y02742D03*
Y02627D03*
G54D51*
X05743Y02457D02*
X05836D01*
X06186Y02567D02*
X06187Y02566D01*
X05793Y05354D02*
X05832D01*
X05114Y0426D02*
X05363D01*
X05793Y05233D02*
X05836D01*
X05999Y05351D02*
X06043D01*
X05514Y03818D02*
X05562D01*
X05514Y03819D02*
Y03857D01*
X06682Y03105D02*
X06761D01*
X05658Y03893D02*
X05757D01*
X05749Y03854D02*
Y03884D01*
X05934Y02457D02*
X06025D01*
X05999Y05233D02*
X06045D01*
X05474Y03857D02*
Y03892D01*
X06187Y02437D02*
Y02491D01*
X06187Y02387D02*
Y02437D01*
X06126D02*
X06127D01*
X06108D02*
X06126D01*
X04988Y03118D02*
X05007D01*
X06318Y025D02*
Y02537D01*
Y02566*
X06532Y03327D02*
X06551Y03346D01*
X06006Y02667D02*
X06105Y02567D01*
X05865Y02667D02*
X06006D01*
X06102Y02567D02*
X06105D01*
X05705Y02457D02*
X05743D01*
X04968Y041D02*
Y04114D01*
X05114Y0426*
X04937Y04125D02*
X05106Y04294D01*
X04937Y041D02*
Y04125D01*
X05106Y04294D02*
Y0435D01*
X06551Y03346D02*
Y0335D01*
X05905Y02456D02*
X05933D01*
X05047Y03123D02*
Y03137D01*
X05044Y0312D02*
X05047Y03123D01*
X05767Y03902D02*
Y03977D01*
X05757Y03893D02*
X05767Y03902D01*
Y03977D02*
X05865Y04075D01*
X06484Y03449D02*
Y03472D01*
X05157Y03232D02*
X05165Y0324D01*
X05157Y03222D02*
Y03232D01*
X07307Y03279D02*
Y03312D01*
X05789Y03772D02*
Y0383D01*
X05769Y03751D02*
X05789Y03772D01*
X05766Y03854D02*
X05789Y0383D01*
X05746Y03815D02*
X05762D01*
X0564Y03751D02*
Y03793D01*
X05658Y03812*
Y03818*
X06362Y03881D02*
X06385D01*
X05625Y03854D02*
X05657D01*
X05681Y03952D02*
X05714D01*
X05507Y03952D02*
X05539D01*
X06105Y02387D02*
X06125D01*
X06354Y02482D02*
Y02507D01*
X06025Y02516D02*
X06051D01*
X06129Y0248D02*
Y02506D01*
X06251Y02527D02*
X06281D01*
X05934Y02493D02*
X05982D01*
Y0252*
X05783Y0249D02*
Y02516D01*
X05705Y02495D02*
Y02525D01*
X04377Y04097D02*
Y0412D01*
X04351Y04145D02*
X04377Y0412D01*
X04144Y04145D02*
X04351D01*
X04039Y04251D02*
X04144Y04145D01*
X03963Y04251D02*
X04039D01*
X04408Y04097D02*
Y04174D01*
X04341Y04242D02*
X04408Y04174D01*
X04247Y04242D02*
X04341D01*
X04201Y04287D02*
X04247Y04242D01*
X04201Y04287D02*
Y04544D01*
X04123Y04621D02*
X04201Y04544D01*
X03955Y04621D02*
X04123D01*
X03435Y01833D02*
Y01869D01*
X03487Y01832D02*
Y0187D01*
X05893Y0535D02*
X0594D01*
X05689Y05355D02*
X05733D01*
X06318Y02566D02*
X06342D01*
X06283D02*
X06318D01*
X05743Y02489D02*
Y0252D01*
X07169Y03157D02*
X0724D01*
X05743Y02457D02*
Y02489D01*
X05865Y04075D02*
X06091D01*
X05439Y03892D02*
X05474D01*
X05506*
X05507Y03893D02*
X05562D01*
X05514Y03819D02*
X05514Y03818D01*
X05506Y03892D02*
X05507Y03893D01*
X06108Y04019D02*
Y04057D01*
X06091Y04075D02*
X06108Y04057D01*
X05749Y03884D02*
X05757Y03893D01*
X05439Y03892D02*
X05439Y03892D01*
X06342Y02566D02*
X06345Y02569D01*
X06283Y02491D02*
X06309D01*
X06187Y02437D02*
X06187Y02437D01*
X06187Y02387D02*
D01*
X06087Y02457D02*
X06108Y02437D01*
X06087Y02457D02*
Y02552D01*
X06102Y02567*
X06131D02*
X06186D01*
X05836Y02457D02*
X05837Y02456D01*
X05933D02*
X05934Y02457D01*
X06105Y02567D02*
X06131D01*
X06701Y03157D02*
X06758D01*
X05749Y03854D02*
X05766D01*
X06309Y02491D02*
X06318Y025D01*
X05933Y02456D02*
X05933Y02456D01*
X05106Y0435D02*
X05358Y04602D01*
Y0462*
G54D52*
X04723Y02025D02*
X04758D01*
X04487Y02446D02*
X04546D01*
X04636Y01946D02*
X04691D01*
X04603Y01962D02*
Y01982D01*
X04453Y01947D02*
X04528D01*
X05591Y03782D02*
X05601Y03772D01*
X05531Y03782D02*
X05591D01*
X08597Y05109D02*
X08649D01*
X08572Y05134D02*
X08597Y05109D01*
X08754Y05157D02*
X08773Y05139D01*
X08724Y05157D02*
X08754D01*
X08773Y05064D02*
Y05139D01*
X0841Y05134D02*
X08572D01*
X08724Y05069D02*
Y05109D01*
X08682Y05027D02*
X08724Y05069D01*
X08417Y05027D02*
X08682D01*
X08359Y05085D02*
X08417Y05027D01*
X08259Y05085D02*
X08346Y04997D01*
X08707*
X08773Y05064*
X08359Y05185D02*
X0841Y05134D01*
X08649Y05157D02*
Y05207D01*
X08595Y05262D02*
X08649Y05207D01*
X08336Y05262D02*
X08595D01*
X08259Y05185D02*
X08336Y05262D01*
X08108Y05235D02*
X08159Y05185D01*
X07971Y05235D02*
X08108D01*
X07892Y05156D02*
X07971Y05235D01*
X08031Y05156D02*
X08059Y05185D01*
X07967Y05156D02*
X08031D01*
X07978Y05085D02*
X08059D01*
X07967Y05096D02*
X07978Y05085D01*
X07967Y05096D02*
Y05107D01*
X08101Y05027D02*
X08159Y05085D01*
X07938Y05027D02*
X08101D01*
X07892Y05072D02*
X07938Y05027D01*
X07892Y05072D02*
Y05107D01*
X06994Y05085D02*
X07159D01*
X06982Y05097D02*
X06994Y05085D01*
X06982Y05097D02*
Y0512D01*
X07189Y05015D02*
X07259Y05085D01*
X06971Y05015D02*
X07189D01*
X06923Y05062D02*
X06971Y05015D01*
X06923Y05062D02*
Y05137D01*
X06954Y05168*
X06982*
X0721Y05135D02*
X07259Y05185D01*
X07113Y05135D02*
X0721D01*
X07097Y0512D02*
X07113Y05135D01*
X07057Y0512D02*
X07097D01*
X07156Y05188D02*
X07159Y05185D01*
X07076Y05188D02*
X07156D01*
X07057Y05168D02*
X07076Y05188D01*
X07359Y05085D02*
X07478Y04965D01*
X07773*
X0786Y05052*
Y05149*
X07846Y05162D02*
X0786Y05149D01*
X07831Y05162D02*
X07846D01*
X07359Y05185D02*
X07422Y05247D01*
X07696*
X07756Y05187*
Y05162D02*
Y05187D01*
X07459Y05185D02*
X0751Y05134D01*
X07694*
X07714Y05114*
X07756*
X07459Y05085D02*
X07545Y04999D01*
X07752*
X07831Y05077*
Y05114*
X0477Y0211D02*
Y02167D01*
X04566Y02034D02*
X04594Y02062D01*
X04723*
X04645Y02035D02*
X0469D01*
X04723Y02062D02*
X0477Y0211D01*
X04696Y02311D02*
X04787D01*
X04846Y02251*
Y02137D02*
Y02251D01*
X05455Y04075D02*
X05553D01*
X05428Y04103D02*
X05455Y04075D01*
X05428Y04103D02*
Y0414D01*
X07139Y04257D02*
Y0429D01*
X03409Y01968D02*
X03435D01*
X03385Y01992D02*
X03409Y01968D01*
X03385Y01992D02*
Y02019D01*
X03402Y02036*
X03436*
X03437Y02034*
X03642Y02019D02*
X03686Y01975D01*
X0355Y02019D02*
X03642D01*
X03413Y02014D02*
X03437D01*
X03673Y01906D02*
X03686Y01894D01*
X03487Y01906D02*
X03673D01*
X03435D02*
X03487D01*
X04566Y02012D02*
Y02034D01*
X03686Y01975D02*
X03691Y0197D01*
X0692Y0401D02*
X06962Y04052D01*
X0692Y0382D02*
Y0401D01*
X06884Y04025D02*
X06893Y04035D01*
X06884Y03822D02*
Y04025D01*
X03487Y01966D02*
Y01994D01*
X04525Y0237D02*
X04571D01*
X04478Y02455D02*
X04487Y02446D01*
X04581Y0238D02*
Y0241D01*
X04571Y0237D02*
X04581Y0238D01*
X04585Y01944D02*
X04603Y01962D01*
X04564Y01982D02*
Y02012D01*
X04526Y02012D02*
X04563D01*
X04507Y02032D02*
X04526Y02012D01*
X05972Y03792D02*
Y03795D01*
X05984Y03808*
Y03842*
X05658Y03818D02*
X05707D01*
Y03851*
X05709Y03854*
X06682Y03029D02*
Y03046D01*
Y03029D02*
X06696Y03015D01*
X04645Y02362D02*
Y02389D01*
Y02362D02*
X04696Y02311D01*
X0469Y02035D02*
X04701Y02046D01*
X04755*
X04846Y02137*
X05542Y03712D02*
X0555Y03705D01*
X05529Y03712D02*
X05542D01*
G54D53*
X06438Y03413D02*
X06484D01*
X05125Y03187D02*
X05483D01*
X05417Y04042D02*
X05594D01*
X06121Y03465D02*
X06145Y03442D01*
X05956Y03519D02*
X06016D01*
X05933Y03541D02*
X05956Y03519D01*
X06016D02*
X06055Y0348D01*
X05892Y03425D02*
X05931D01*
X05886Y0343D02*
X05892Y03425D01*
X05891Y03412D02*
X05909D01*
X05889Y0341D02*
X05891Y03412D01*
X05876Y0341D02*
X05889D01*
X05875Y0341D02*
X05876Y0341D01*
X05856Y0341D02*
X05875D01*
X05889Y03397D02*
X05926D01*
X05889D02*
D01*
X0588D02*
X05889D01*
X0588D02*
D01*
X05873D02*
X0588D01*
X0587Y03395D02*
X05873Y03397D01*
X05833Y03395D02*
X0587D01*
X05857Y03558D02*
X05886Y0353D01*
X05853Y03407D02*
X05856Y0341D01*
X05975Y03398D02*
X06007D01*
X05934Y03422D02*
X05936D01*
X05931Y03425D02*
X05934Y03422D01*
X05909Y03412D02*
X05912Y0341D01*
X05931*
X05996Y03343D02*
X06037Y03303D01*
X05996Y03343D02*
Y0336D01*
X06007Y03398D02*
X06019Y03386D01*
X05838Y03407D02*
X05853D01*
X05828Y03416D02*
X05838Y03407D01*
X06385Y03669D02*
X06444Y03727D01*
X06385Y03597D02*
Y03669D01*
X06256Y03467D02*
X06385Y03597D01*
X06256Y03451D02*
Y03467D01*
X06245Y0344D02*
X06256Y03451D01*
X06173Y0344D02*
X06245D01*
X06172Y03442D02*
X06173Y0344D01*
X05828Y03416D02*
Y03432D01*
X05821Y0344D02*
X05828Y03432D01*
X05846Y03377D02*
X05851D01*
X05844Y0338D02*
X05846Y03377D01*
X05827Y034D02*
X05833Y03395D01*
X05617Y034D02*
X05827D01*
X06368Y03342D02*
X06438Y03413D01*
X06198Y03342D02*
X06368D01*
X06804Y0296D02*
X07Y03156D01*
X06805Y02944D02*
X07034Y03173D01*
X08566Y0235D02*
Y02362D01*
X08397Y02412D02*
X08495D01*
X08506Y024*
X0862*
X08647Y02374*
Y02112D02*
Y02374D01*
X08514Y0198D02*
X08647Y02112D01*
X08472Y0198D02*
X08514D01*
X0798Y01487D02*
X08472Y0198D01*
X08438Y0229D02*
X08506D01*
X08195Y02047D02*
X08438Y0229D01*
X08506D02*
X08566Y0235D01*
X07976Y02047D02*
X08195D01*
X07975Y02048D02*
X07976Y02047D01*
X07961Y02048D02*
X07975D01*
X0796Y02047D02*
X07961Y02048D01*
X05601Y02047D02*
X0796D01*
X04967Y02682D02*
X05601Y02047D01*
X05483Y03187D02*
X05511Y03216D01*
X05523Y0324D02*
X05641D01*
X05511Y03216D02*
Y03228D01*
X05488Y02817D02*
X05817D01*
X05866Y02866*
X05487Y02818D02*
X05488Y02817D01*
X05825Y02859D02*
X05858Y02892D01*
X05713Y0286D02*
X05714Y02859D01*
X05825*
X05866Y02866D02*
X06102D01*
X05705Y0286D02*
X05713D01*
X0577Y03016D02*
X05814D01*
X05745Y03041D02*
X0577Y03016D01*
X05745Y03041D02*
Y03042D01*
X05711Y03033D02*
Y03042D01*
X05693Y03016D02*
X05711Y03033D01*
X05641Y03016D02*
X05693D01*
X05735Y03052D02*
X05745Y03042D01*
X05721Y03052D02*
X05735D01*
X05711Y03042D02*
X05721Y03052D01*
X05761Y03201D02*
X05802Y03161D01*
X0568Y03201D02*
X05761D01*
X05641Y0324D02*
X0568Y03201D01*
X06115Y03539D02*
X06263Y03687D01*
X05802Y03161D02*
X05833D01*
X05484Y03059D02*
X05598D01*
X05444Y03019D02*
X05484Y03059D01*
X05814Y03016D02*
X0583Y03D01*
X05503Y03074D02*
X05511Y03083D01*
X05361Y03062D02*
X05373Y03074D01*
X04858Y03162D02*
X04958Y03062D01*
X05361*
X05373Y03074D02*
X05503D01*
X05617Y034D02*
X05617Y034D01*
X05603Y034D02*
X05617D01*
X05602Y034D02*
X05603Y034D01*
X05468Y034D02*
X05602D01*
X05833Y03161D02*
X05861Y0319D01*
X05965Y03178D02*
X05978Y03165D01*
X05859Y03171D02*
X05866Y03178D01*
X05965*
X05861Y0319D02*
X05917D01*
X05978Y0325*
X05511Y03083D02*
X05602D01*
X04954Y0311D02*
Y03178D01*
X0504Y03264*
X05253Y03414D02*
X05412D01*
X05466Y0336*
X06806Y02929D02*
X07066Y03189D01*
X06669Y02929D02*
X06806D01*
X06437Y02696D02*
X06669Y02929D01*
X06208Y02696D02*
X06437D01*
X06251Y02712D02*
X06433D01*
X06665Y02944*
X06805*
X06662Y0296D02*
X06804D01*
X06431Y02729D02*
X06662Y0296D01*
X06803Y02976D02*
X06964Y03137D01*
X06282Y02729D02*
X06431D01*
X06313Y02741D02*
X06426D01*
X06275Y02779D02*
X06313Y02741D01*
X05106Y03264D02*
X05253Y03414D01*
X0504Y03264D02*
X05106D01*
X05097Y0333D02*
X0525Y03484D01*
X05838Y03149D02*
X05859Y0317D01*
Y03171*
X05633Y03137D02*
X05661D01*
X05622Y03125D02*
X05633Y03137D01*
X05622Y03102D02*
Y03125D01*
X05602Y03083D02*
X05622Y03102D01*
X05421Y03145D02*
X05476D01*
X05361Y03086D02*
X05421Y03145D01*
X05044Y03086D02*
X05361D01*
X05511Y03228D02*
X05523Y0324D01*
X05715Y03322D02*
X05718Y03319D01*
X05518Y0336D02*
X05556Y03322D01*
X05582*
X05582Y03322D02*
X05638D01*
X05582Y03322D02*
X05582Y03322D01*
X05459Y0352D02*
X05521D01*
X05522Y0352*
X05536*
X05537Y03519*
X05593*
X0525Y03484D02*
X05564D01*
X05607Y0344*
X0566*
X05661Y0344*
X06055Y034D02*
Y0348D01*
X06037Y03381D02*
X06055Y034D01*
X06019Y03359D02*
Y03386D01*
Y03359D02*
X06037Y03342D01*
X05885Y03578D02*
X05902Y03561D01*
X05917*
X05933Y03545*
X06275Y03633D02*
Y0398D01*
X06318Y03649D02*
Y0398D01*
X06304Y03635D02*
X06318Y03649D01*
X06303Y03635D02*
X06304D01*
X06287Y03618D02*
X06303Y03635D01*
X06287Y03618D02*
Y03618D01*
X06198Y03556D02*
X06275Y03633D01*
X06155Y03539D02*
X06172Y03556D01*
X06198*
X06194Y03539D02*
X06208D01*
X06287Y03618*
X06444Y03727D02*
Y03844D01*
X06236Y03192D02*
Y03196D01*
X06233Y03199D02*
X06236Y03196D01*
X05901Y03131D02*
X05918Y03114D01*
Y0311D02*
Y03114D01*
X05797Y0356D02*
X05842D01*
X05796Y03559D02*
X05797Y0356D01*
X0583Y02974D02*
Y03D01*
X04958Y03019D02*
X05444D01*
X04843Y03134D02*
X04958Y03019D01*
X04628Y02549D02*
X04799Y0272D01*
X05975Y0528D02*
X05999Y05304D01*
X05975Y05178D02*
Y0528D01*
X05958Y05161D02*
X05975Y05178D01*
X05908Y05271D02*
X0594Y05303D01*
X06096Y03282D02*
Y03364D01*
X06065Y0325D02*
X06096Y03282D01*
X05978Y0325D02*
X06065D01*
X05629Y04075D02*
X0563Y04075D01*
X05586Y04075D02*
X05629D01*
X05455Y03675D02*
X05854D01*
X06074Y03382D02*
X06077D01*
X06223Y03199D02*
X06233D01*
X06216Y03205D02*
X06223Y03199D01*
X06147Y03205D02*
X06216D01*
X06106Y03165D02*
X06147Y03205D01*
X05978Y03165D02*
X06106D01*
X04247Y02952D02*
X04438Y02762D01*
X04591Y03162D02*
X04858D01*
X04567Y03187D02*
X04591Y03162D01*
X04445Y03187D02*
X04567D01*
X03744Y01629D02*
X03789Y01584D01*
X03865*
X03744Y0281D02*
X043Y03365D01*
X03744Y01629D02*
Y0281D01*
X04765Y03134D02*
X04843D01*
X043Y03365D02*
X04769D01*
X0482Y03315*
X05122*
X05466Y0336D02*
X05518D01*
X03922Y03767D02*
X04284Y03405D01*
X03624Y03767D02*
X03922D01*
X03517Y0366D02*
X03624Y03767D01*
X0583Y02974D02*
X05848Y02956D01*
X06122Y02845D02*
X0634D01*
X06102Y02866D02*
X06122Y02845D01*
X04438Y02762D02*
X05395D01*
X06157Y02748D02*
X06208Y02696D01*
X06157Y02748D02*
Y02799D01*
X06196Y02791D02*
Y02799D01*
Y02791D02*
X0622Y02767D01*
Y02744D02*
Y02767D01*
Y02744D02*
X06251Y02712D01*
X06236Y02775D02*
X06282Y02729D01*
X06236Y02775D02*
Y02799D01*
X06275Y02779D02*
Y02799D01*
X065Y02923D02*
X06525D01*
X06527Y02925*
X05122Y03315D02*
X05272Y03464D01*
X05404*
X05885Y03578D02*
Y03643D01*
X05854Y03675D02*
X05885Y03643D01*
X06077Y03382D02*
X06096Y03364D01*
X05984Y03326D02*
Y03355D01*
Y03326D02*
X06001Y03309D01*
X05933Y03541D02*
Y03545D01*
X05592Y03705D02*
X0561D01*
X05404Y03464D02*
X05468Y034D01*
X05842Y0356D02*
X05844Y03558D01*
X05857*
X05593Y03519D02*
X0563Y03556D01*
X05631*
X057Y03558D02*
X057Y03559D01*
X05796*
X04284Y03405D02*
X04759D01*
X04834Y0333*
X05097*
X06426Y02741D02*
X06661Y02976D01*
X06803*
X05631Y03556D02*
X05633Y03559D01*
X05686*
X05686Y03558*
X057*
X0583Y03331D02*
Y03366D01*
X05844Y0338*
X05661Y0344D02*
X05804D01*
X05804Y0344*
X05821*
X05638Y03322D02*
X05638Y03322D01*
X05668D02*
X05668Y03322D01*
X05746Y03318D02*
X05751Y03322D01*
X05804D02*
X05804Y03322D01*
X05821*
X0583Y03331*
X05751Y03322D02*
X05804D01*
X0572Y03318D02*
X05746D01*
X05668Y03322D02*
X05715D01*
X05638Y03322D02*
X05668D01*
X03614Y04141D02*
Y04643D01*
X03352Y04904D02*
X03614Y04643D01*
X05287Y03692D02*
X05459Y0352D01*
X04582Y03692D02*
X05287D01*
X04413Y03862D02*
X04582Y03692D01*
X03893Y03862D02*
X04413D01*
X03614Y04141D02*
X03893Y03862D01*
X04799Y0272D02*
X05385D01*
X05395Y02762D02*
X05472Y02838D01*
X05385Y0272D02*
X05484Y02818D01*
X05487*
X05472Y02838D02*
X05472Y02838D01*
X05598Y03059D02*
X05641Y03016D01*
X05504Y0287D02*
X05527D01*
X05472Y02838D02*
X05504Y0287D01*
X05486Y03135D02*
X05572D01*
X05476Y03145D02*
X05486Y03135D01*
X05572D02*
X05594Y03157D01*
X06145Y03442D02*
X06172D01*
X06288Y03994D02*
X06289D01*
X06275Y0398D02*
X06289Y03994D01*
X06318Y0398D02*
X06329Y0399D01*
X05908Y04982D02*
Y05271D01*
Y04982D02*
X05991Y04899D01*
Y04442D02*
Y04899D01*
Y04442D02*
X06263Y0417D01*
Y03687D02*
Y0417D01*
X05958Y0499D02*
Y05161D01*
Y0499D02*
X06038Y0491D01*
Y04445D02*
Y0491D01*
Y04445D02*
X06288Y04195D01*
Y03994D02*
Y04195D01*
X05999Y05007D02*
Y05187D01*
Y05007D02*
X06084Y04922D01*
Y04474D02*
Y04922D01*
Y04474D02*
X06329Y04229D01*
Y0399D02*
Y04229D01*
X07066Y03189D02*
Y03724D01*
X07162Y0382*
X07034Y03173D02*
Y03747D01*
X07157Y0387*
X07Y03156D02*
Y0376D01*
X0716Y0392*
X07159Y03968D02*
Y0397D01*
X06964Y03137D02*
Y03773D01*
X07159Y03968*
X05963Y0341D02*
X05975Y03398D01*
X05953Y03387D02*
X05984Y03355D01*
X05958Y03399D02*
X05996Y0336D01*
X05937Y03387D02*
X05953D01*
X05942Y03399D02*
X05958D01*
X05947Y0341D02*
X05963D01*
X05936Y03422D02*
X05947Y0341D01*
X05931Y0341D02*
X05942Y03399D01*
X05926Y03397D02*
X05937Y03387D01*
X05386Y0401D02*
X05417Y04042D01*
X05386Y03744D02*
X05455Y03675D01*
X05386Y03744D02*
Y0401D01*
X05886Y0343D02*
Y0353D01*
X05661Y03137D02*
X0567Y03128D01*
X05675Y0314D02*
X05774D01*
X05658Y03157D02*
X05675Y0314D01*
X05594Y03157D02*
X05658D01*
X05783Y03149D02*
X05838D01*
X05774Y0314D02*
X05783Y03149D01*
X0567Y03128D02*
X05798D01*
X05801Y03131*
X05901*
G54D54*
X08402Y03875D02*
X08412Y03865D01*
X08402Y03875D02*
Y03891D01*
G54D55*
X06Y03539D02*
Y03555D01*
X06847Y03673D02*
Y0374D01*
X06019Y03641D02*
X0611D01*
X05958Y03545D02*
Y0358D01*
X06017Y03596D02*
X06047Y03625D01*
X0603Y03581D02*
X06056Y03607D01*
X05983Y03572D02*
X06Y03555D01*
X06017Y03587D02*
Y03596D01*
X05958Y0358D02*
X06019Y03641D01*
X06007Y03597D02*
X06017Y03587D01*
X05993Y03597D02*
X06007D01*
X05983Y03587D02*
X05993Y03597D01*
X05983Y03572D02*
Y03587D01*
X0603Y03539D02*
Y03581D01*
X06236Y03175D02*
X06246D01*
X06206Y03145D02*
X06236Y03175D01*
X06206Y03115D02*
Y03145D01*
X06256Y03185D02*
Y03197D01*
X06534Y03417D02*
Y0351D01*
X06485Y03367D02*
X06534Y03417D01*
X06426Y03367D02*
X06485D01*
X06256Y03197D02*
X06426Y03367D01*
X06244Y03125D02*
Y03153D01*
Y03125D02*
X06251Y03118D01*
X06518Y03157D02*
X06637D01*
X06524Y03144D02*
X06643D01*
X06529Y03131D02*
X06648D01*
X06288Y03118D02*
X06304Y03134D01*
X06251Y03118D02*
X06288D01*
X06241Y03013D02*
X06289Y0306D01*
X06082Y03013D02*
X06241D01*
X05977Y02909D02*
X06082Y03013D01*
X06209Y03039D02*
X06244Y03073D01*
X06213Y03061D02*
X06238Y03086D01*
X06032Y03061D02*
X06213D01*
X06244Y03073D02*
X06453D01*
X06238Y03086D02*
X06447D01*
X0609Y03607D02*
X06146D01*
X06089Y03607D02*
X0609Y03607D01*
X06146D02*
X06246Y03706D01*
X06056Y03607D02*
X06089D01*
X06047Y03625D02*
X06129D01*
X06233Y03729*
X05958Y03545D02*
X0596Y03543D01*
X05997Y03539D02*
X06D01*
X06534Y0351D02*
X06764Y0374D01*
X06811*
X06246Y03175D02*
X06256Y03185D01*
X06169Y03078D02*
X06206Y03115D01*
X06027Y03078D02*
X06169D01*
X05986Y03038D02*
X06027Y03078D01*
X06078Y03039D02*
X06209D01*
X05955Y02959D02*
X0597D01*
X06017Y02978D02*
X06078Y03039D01*
X05988Y02978D02*
X06017D01*
X0597Y02959D02*
X05988Y02978D01*
X0692Y0371D02*
Y0374D01*
X06765Y03555D02*
X0692Y0371D01*
X06666Y03555D02*
X06765D01*
X06632Y03381D02*
Y0352D01*
X06666Y03555*
X06884Y03692D02*
Y0374D01*
X06762Y0357D02*
X06884Y03692D01*
X06663Y0357D02*
X06762D01*
X06619Y03376D02*
Y03526D01*
X06663Y0357*
X06032Y03061D02*
X06032Y03061D01*
X05969Y02999D02*
X06032Y03061D01*
X05955Y02999D02*
X05969D01*
X06764Y0359D02*
X06847Y03673D01*
X06665Y0359D02*
X06764D01*
X06606Y03531D02*
X06665Y0359D01*
X06289Y0306D02*
X06458D01*
X06447Y03086D02*
X06518Y03157D01*
X06453Y03073D02*
X06524Y03144D01*
X06458Y0306D02*
X06529Y03131D01*
X06315Y03134D02*
X06389Y03208D01*
X06452*
X06648Y03131D02*
X06673Y03156D01*
X06643Y03144D02*
X06658Y0316D01*
Y03337*
X06637Y03157D02*
X06643Y03162D01*
Y03334*
X06606Y03371D02*
X06643Y03334D01*
X06619Y03376D02*
X06658Y03337D01*
X06673Y03156D02*
Y0334D01*
X06632Y03381D02*
X06673Y0334D01*
X06606Y03371D02*
Y03531D01*
X06246Y03706D02*
Y04119D01*
X06525Y0328D02*
X06535Y0329D01*
X07292Y04324D02*
Y04428D01*
X07225Y04257D02*
X07292Y04324D01*
X07163Y04257D02*
X07225D01*
X07214Y04382D02*
Y04428D01*
X07163Y04331D02*
X07214Y04382D01*
X07114Y04407D02*
X07135Y04428D01*
X07114Y04331D02*
Y04407D01*
X07056Y04314D02*
X07114Y04257D01*
X07056Y04314D02*
Y04428D01*
X05704Y05278D02*
X05733Y05307D01*
X06489Y0328D02*
X06525D01*
X0501Y03086D02*
X05044D01*
X05955Y03038D02*
X05986D01*
X06452Y03208D02*
X06489Y03245D01*
Y0328*
X06304Y03134D02*
X06315D01*
X05786Y05179D02*
X05793Y05187D01*
X05762Y05276D02*
X05793Y05307D01*
X05921Y02909D02*
X05977D01*
X05905Y04425D02*
X06233Y04098D01*
Y03729D02*
Y04098D01*
X05945Y0442D02*
X06246Y04119D01*
X05704Y0501D02*
Y05278D01*
Y0501D02*
X05866Y04849D01*
Y04425D02*
Y04849D01*
X05762Y05011D02*
Y05276D01*
Y05011D02*
X05905Y04867D01*
Y04425D02*
Y04867D01*
X05793Y05035D02*
Y05187D01*
Y05035D02*
X05945Y04882D01*
Y0442D02*
Y04882D01*
X0611Y03641D02*
X0622Y03752D01*
Y04071*
X05866Y04425D02*
X0622Y04071D01*
X07015Y04469D02*
X07056Y04428D01*
X07015Y04469D02*
Y04602D01*
X068Y04817D02*
X07015Y04602D01*
X06464Y04817D02*
X068D01*
X07163Y04247D02*
Y04257D01*
X07151Y04235D02*
X07163Y04247D01*
X0715Y04235D02*
X07151D01*
X0711Y04195D02*
X0715Y04235D01*
X06686Y04195D02*
X0711D01*
X06464Y04417D02*
X06686Y04195D01*
X07175Y04467D02*
X07214Y04428D01*
X07175Y04467D02*
Y0461D01*
X06285Y04614D02*
X06333Y04565D01*
X06416*
X06464Y04517*
X07096Y04467D02*
X07135Y04428D01*
X07096Y04467D02*
Y04602D01*
X06285Y04614D02*
Y04944D01*
X06336Y04995*
X0679*
X07175Y0461*
X06415Y04667D02*
X06464Y04617D01*
X06834Y04865D02*
X07096Y04602D01*
X06415Y04667D02*
Y0484D01*
X06439Y04865*
X06834*
G54D56*
X06273Y03023D02*
X06284Y03012D01*
X06242Y03421D02*
X06258Y03437D01*
X06233Y03421D02*
X06242D01*
X06258Y03437D02*
X06269D01*
X06402Y0357*
X06515*
X06407Y03557D02*
X06521D01*
X0627Y0342D02*
X06407Y03557D01*
X0859Y02439D02*
X08593Y02435D01*
X0859Y02439D02*
Y02447D01*
X08566Y0247D02*
X0859Y02447D01*
X08566Y0247D02*
Y02605D01*
X08565Y02607D02*
X08566Y02605D01*
X08565Y02607D02*
Y02607D01*
X0855Y02622D02*
X08565Y02607D01*
X08528Y02622D02*
X0855D01*
X08441Y02535D02*
X08528Y02622D01*
X0833Y02535D02*
X08441D01*
X08296Y025D02*
X0833Y02535D01*
X07681Y025D02*
X08296D01*
X07528Y02654D02*
X07681Y025D01*
X06179Y02654D02*
X07528D01*
X06115Y02717D02*
X06179Y02654D01*
X06115Y02717D02*
Y0281D01*
X06127Y02822*
X06277*
X06313Y02785*
X06328*
X064Y02857*
X06508*
X06527Y02877*
Y02889*
X05621Y0286D02*
X05705D01*
X05583Y02858D02*
X05618D01*
X06284Y03012D02*
X06292D01*
X06208Y02977D02*
X06223Y02962D01*
X06008Y02892D02*
X06093Y02977D01*
X06208*
X065Y02888D02*
X06526D01*
X06273Y0302D02*
Y03023D01*
X06292Y03012D02*
X06319Y02985D01*
X0642*
X06311Y0296D02*
X0634Y02932D01*
X05582Y02858D02*
X05583Y02858D01*
X05568Y02858D02*
X05582D01*
X05567Y02858D02*
X05568Y02858D01*
X05858Y02892D02*
X06008D01*
X04529Y02809D02*
X05424D01*
X0634Y0288D02*
Y02932D01*
X04407Y02842D02*
X04496D01*
X04529Y02809*
X06223Y02962D02*
X06272D01*
X06526Y02888D02*
X06527Y02889D01*
X0642Y02985D02*
X06468Y02937D01*
Y02923D02*
Y02937D01*
Y02888D02*
X065D01*
X05618Y02858D02*
X05621Y0286D01*
X05544Y02858D02*
X05567D01*
X05534Y02887D02*
X05544Y02877D01*
Y02862D02*
Y02877D01*
X05544Y02862D02*
X05544Y02862D01*
X05544Y02858D02*
Y02862D01*
X05502Y02887D02*
X05534D01*
X05424Y02809D02*
X05502Y02887D01*
X0627Y0342D02*
Y0342D01*
X06452Y0409D02*
X06545Y03997D01*
Y03599D02*
Y03997D01*
X06515Y0357D02*
X06545Y03599D01*
X06122Y0448D02*
Y05162D01*
Y0448D02*
X06452Y0415D01*
Y0409D02*
Y0415D01*
X06174Y04446D02*
Y0516D01*
Y04446D02*
X06465Y04156D01*
Y04095D02*
Y04156D01*
Y04095D02*
X06558Y04002D01*
X06521Y03557D02*
X06558Y03594D01*
Y04002*
G54D57*
X06685Y03444D02*
X067D01*
X06713Y03457D02*
X06758D01*
X067Y03444D02*
X06713Y03457D01*
X06775Y0339D02*
X06846D01*
X06761Y03404D02*
X06775Y0339D01*
X0346Y02D02*
Y02035D01*
Y02062*
Y02035D02*
X03461Y02034D01*
X03487*
X03455Y01994D02*
X0346Y02D01*
X03437Y01994D02*
X03455D01*
X03514Y02065D02*
X03515Y02064D01*
Y02019D02*
Y02064D01*
X07099Y03455D02*
X07162D01*
X07099Y03102D02*
X0716D01*
X06638Y0311D02*
X06678D01*
X0724Y03105D02*
Y03157D01*
X07108Y02973D02*
X0724Y03105D01*
G54D58*
X05606Y03019D02*
X05649Y02976D01*
X05666Y02898D02*
X05708Y0294D01*
X05756Y02957D02*
X05769D01*
X0574Y0294D02*
X05756Y02957D01*
X05763Y02977D02*
X05788D01*
X05708Y0294D02*
X0574D01*
X05788Y02977D02*
X05807Y02957D01*
Y02957D02*
Y02957D01*
X05745Y02995D02*
X05763Y02977D01*
X05711Y02993D02*
Y03003D01*
X05694Y02977D02*
X05711Y02993D01*
X05691Y02977D02*
X05694D01*
X05745Y02995D02*
Y03003D01*
X05735Y03013D02*
X05745Y03003D01*
X05721Y03013D02*
X05735D01*
X05711Y03003D02*
X05721Y03013D01*
X05628Y02907D02*
X05637Y02898D01*
X05666*
X05649Y02976D02*
X05691D01*
X05691Y02977*
X05468Y03019D02*
X05606D01*
X0554Y02955D02*
X05558Y02972D01*
X0554Y02949D02*
Y02955D01*
X05526Y02935D02*
X0554Y02949D01*
X04821Y02959D02*
X05456D01*
X05558Y02972D02*
X05613D01*
X05425Y02976D02*
X05468Y03019D01*
X0485Y02976D02*
X05425D01*
X05613Y02972D02*
X05628Y02958D01*
Y02907D02*
Y02958D01*
X04765Y03061D02*
X0485Y02976D01*
X04765Y03061D02*
Y03099D01*
X04666Y03115D02*
X04821Y02959D01*
X04665Y02405D02*
X04695D01*
X05456Y02959D02*
X0548Y02935D01*
X05526*
G54D64*
X09004Y04629D03*
G54D73*
X08059Y05085D03*
X07159D03*
G54D74*
X08159Y05085D03*
X08259D03*
X08359D03*
X08459D03*
X08559D03*
X08059Y05185D03*
X08159D03*
X08259D03*
X08359D03*
X08459D03*
X08559D03*
X07259Y05085D03*
X07359D03*
X07459D03*
X07559D03*
X07659D03*
X07159Y05185D03*
X07259D03*
X07359D03*
X07459D03*
X07559D03*
X07659D03*
X0351Y03296D03*
Y03159D03*
G54D75*
X02956Y05204D03*
G54D76*
X03145Y05314D03*
Y05086D03*
G54D77*
X08519Y02121D03*
Y04602D03*
G54D78*
X08869Y05474D03*
X02769D03*
Y01537D03*
X08869D03*
G54D79*
X04756Y04202D03*
X05134D03*
X04195D03*
X04573D03*
G54D80*
X03608Y05084D03*
Y05265D03*
Y04902D03*
G54D81*
X06938Y04467D03*
G54D82*
X06899Y04428D03*
X06978D03*
X07056D03*
X07135D03*
X07214D03*
X07292D03*
X07371D03*
X06899Y04507D03*
X06978D03*
X07056D03*
X07135D03*
X07214D03*
X07292D03*
G54D83*
X07371Y04507D03*
G54D84*
X04666Y03115D03*
X06364Y04917D03*
X0296Y04715D03*
G54D85*
X04666Y03215D03*
X06464Y04917D03*
X06364Y04817D03*
X06464D03*
X06364Y04717D03*
X06464D03*
X06364Y04617D03*
X06464D03*
X06364Y04517D03*
X06464D03*
X06364Y04417D03*
X06464D03*
X0296Y04815D03*
G54D86*
X05134Y03958D03*
X04945D03*
X04384D03*
X04573D03*
X05226Y04521D03*
X04104D03*
G54D87*
X05226Y05418D03*
Y05025D03*
Y04631D03*
Y04336D03*
Y04139D03*
X04104Y05221D03*
Y04828D03*
Y04434D03*
Y0404D03*
X04665D03*
Y04434D03*
Y04828D03*
Y05221D03*
G54D88*
X06414Y05167D03*
G54D89*
X07419Y03845D03*
X05654Y02999D03*
X0659Y03192D03*
X05654Y03038D03*
X06559Y03192D03*
X05601Y03772D03*
X08388Y03347D03*
X05575Y03339D03*
X08388Y03377D03*
X05575Y03378D03*
X08374Y02064D03*
X05811Y03457D03*
X08342Y02064D03*
X05811Y03418D03*
X0834Y02675D03*
X05772Y03536D03*
X0834Y02649D03*
X05772Y03496D03*
X0834Y02475D03*
X05692Y03539D03*
X08341Y02449D03*
X05692Y035D03*
X05495Y03577D03*
X07858Y01736D03*
X05495Y03537D03*
X07858Y01767D03*
X07724Y01817D03*
X05495Y0338D03*
X0849Y02827D03*
X05495Y0334D03*
X07724Y01849D03*
X0849Y02797D03*
X07298Y01865D03*
X05492Y03275D03*
X0849Y02977D03*
X07298Y01897D03*
X05492Y03236D03*
X0849Y02947D03*
X07477Y01897D03*
X05536Y0326D03*
X0859Y02727D03*
X07477Y01928D03*
X05536Y03221D03*
X0859Y02697D03*
X0839Y02897D03*
X05536Y03157D03*
X0839Y02927D03*
X05498Y03152D03*
X0849Y03097D03*
X05602Y03115D03*
X0849Y03127D03*
X05566Y03114D03*
X08491Y02675D03*
X07968Y01968D03*
X05607Y02952D03*
X08491Y02649D03*
X07968Y02D03*
X05607Y02991D03*
X0839Y03047D03*
X05536Y03038D03*
X0839Y03077D03*
X05496Y03038D03*
X0849Y03247D03*
X05523Y02956D03*
X0849Y03277D03*
X05488Y02917D03*
X0854Y02449D03*
X05575Y03038D03*
X07019Y02216D03*
X0854Y02475D03*
X05575Y02999D03*
X07019Y02248D03*
X08197Y04935D03*
X08229Y04935D03*
X05965Y03462D03*
X08134Y04932D03*
X06079Y0343D03*
X08163Y04932D03*
X06078Y03467D03*
X081Y04933D03*
X06236Y0354D03*
X08068Y04934D03*
X06199Y035D03*
X08037Y04934D03*
X06002Y03465D03*
X08005Y04934D03*
X05979Y03499D03*
X06121Y03465D03*
X06074Y03685D03*
X06051D03*
X0603Y03539D03*
X06077Y03535D03*
X06Y0358D03*
X05956Y035D03*
X05868Y03427D03*
X05882Y0338D03*
X05918Y03457D03*
X05915Y0338D03*
X05846Y03424D03*
X06235Y03457D03*
X06397Y0348D03*
X06437D03*
X06397Y03503D03*
X06437D03*
X05851Y03377D03*
X06198Y03342D03*
X0624Y03314D03*
X0635Y03425D03*
X06316D03*
X0839Y03677D03*
X05721Y02877D03*
X0839Y03647D03*
X05723Y02912D03*
X0849Y03727D03*
X05803Y02842D03*
X0849Y03697D03*
X05802Y02877D03*
X06397Y02799D03*
X06437Y02822D03*
Y02799D03*
X06039Y02842D03*
X05759Y02917D03*
X0849Y03877D03*
X05803Y02917D03*
X0849Y03847D03*
X0839Y02412D03*
X08593Y02435D03*
X08566Y02362D03*
X0834Y02699D03*
X08491D03*
X08313Y02064D03*
X04988Y03118D03*
X0834Y02625D03*
Y02499D03*
X05535Y03102D03*
X05527Y03188D03*
X08343Y02777D03*
Y02747D03*
X05385Y02862D03*
Y02838D03*
X05654Y02881D03*
X0849Y03397D03*
X05614Y02877D03*
X0849Y03427D03*
Y03577D03*
X05685Y02799D03*
X0849Y03547D03*
X05688Y02838D03*
X0839Y03527D03*
X05645Y02952D03*
X0839Y03497D03*
X05681Y02956D03*
X0757Y02707D03*
X05571Y02835D03*
X0757Y02739D03*
X05569Y02797D03*
X07019Y02279D03*
X0757Y02676D03*
Y0277D03*
X06561Y02527D03*
X05646Y0284D03*
X08541Y02549D03*
X06561Y02496D03*
X05606Y02921D03*
X08541Y02575D03*
X05575Y02881D03*
X05917Y0272D03*
X05802Y02762D03*
X05768Y02876D03*
X05735Y02962D03*
X05769Y02957D03*
X05719Y02799D03*
X05649Y02917D03*
X05807Y02957D03*
X05769Y02996D03*
X0585Y02917D03*
X08412Y03865D03*
X05575Y03221D03*
X05614D03*
X0849Y04027D03*
Y03997D03*
X06405Y03149D03*
X06444D03*
X06405Y03173D03*
X06244Y03153D03*
X06275Y03147D03*
X05732Y03157D03*
X05767D03*
X05807Y03185D03*
X05688Y03157D03*
X05648Y03271D03*
X05728Y0311D03*
X05767D03*
X05729Y03224D03*
X05769D03*
X06622Y03192D03*
X05653Y035D03*
X06232Y03036D03*
X06241Y02917D03*
X05649Y03114D03*
X06116Y03225D03*
X05728Y03035D03*
X05688D03*
X0561Y03417D03*
X0585Y03036D03*
X05917Y03161D03*
X05389Y03389D03*
X05326Y03385D03*
X05685Y0311D03*
X0569Y03227D03*
X05646Y03073D03*
X05728Y03299D03*
X05448Y03503D03*
X06035Y03456D03*
X0596Y03543D03*
X05913Y03539D03*
X06413Y03665D03*
X06236Y03192D03*
X06273Y0302D03*
X05921Y02909D03*
X0692Y0374D03*
X05955Y02959D03*
X06884Y0374D03*
X05955Y02999D03*
X06847Y0374D03*
X06444Y03173D03*
X06311Y0296D03*
X06685Y03444D03*
X06551Y0335D03*
X06035Y03035D03*
X0585Y03114D03*
X05688Y03078D03*
X05767D03*
X0585D03*
X0596Y03075D03*
X05807Y03074D03*
X06238Y02875D03*
X05574Y02955D03*
X05918Y0311D03*
X05808Y02996D03*
X05527Y04342D03*
Y04539D03*
X05783Y02704D03*
X06015Y03685D03*
X05571Y04814D03*
Y04791D03*
Y04769D03*
Y04746D03*
Y04724D03*
Y04702D03*
X05575Y04504D03*
Y04479D03*
Y04455D03*
Y0443D03*
Y04406D03*
Y04382D03*
X05984Y0272D03*
X05952D03*
X05917Y02606D03*
X05448Y03125D03*
X05858Y03622D03*
X05811Y03535D03*
X05771Y03578D03*
X05917Y035D03*
X05095Y03412D03*
X05047Y03137D03*
X0585Y02996D03*
X06484Y03472D03*
X05165Y0324D03*
X05102Y0322D03*
X05984Y02606D03*
X05948D03*
X05762Y03815D03*
X06488Y03594D03*
Y03629D03*
X06413Y03594D03*
Y03629D03*
X05724Y02704D03*
X05751D03*
X05779Y02629D03*
X05751D03*
X05724D03*
X06314Y03027D03*
X05984Y03685D03*
X06082Y0359D03*
X06078Y03755D03*
X06047D03*
X06015D03*
X05988D03*
X05937D03*
X05913D03*
Y03681D03*
X06Y03185D03*
X06161Y03153D03*
X05651Y03539D03*
X05346Y02838D03*
Y02862D03*
X05385Y02897D03*
Y02921D03*
X05346Y02897D03*
Y02921D03*
X05574Y02724D03*
X06452Y03972D03*
X07419Y03895D03*
X05314Y03248D03*
X05244D03*
X05342Y03043D03*
X05311D03*
X05283D03*
X05314Y03114D03*
X05342D03*
X05283D03*
X05529Y03503D03*
X06001Y03309D03*
X06074Y03382D03*
X05918Y02957D03*
X06158Y03107D03*
X05586Y04562D03*
X05701Y04535D03*
X05705Y04348D03*
X05578Y0432D03*
X05475Y04835D03*
Y04678D03*
X05578Y04642D03*
X05708Y04666D03*
X05702Y04847D03*
X0558Y04872D03*
X05729Y0342D03*
X05809Y03504D03*
X05095Y0338D03*
X06037Y03381D03*
Y03303D03*
Y03342D03*
X04341Y0371D03*
X06962Y04052D03*
X06893Y04035D03*
X06884Y03822D03*
X0692Y0382D03*
X06811Y0374D03*
X05571Y03184D03*
X0569Y03381D03*
X06561Y02465D03*
Y02559D03*
X05693Y033D03*
X05772D03*
X05851Y033D03*
X05693Y03418D03*
X05808Y03381D03*
X0499Y03807D03*
X05917Y03227D03*
X05769Y03263D03*
X05955Y033D03*
X06073Y03339D03*
X06165Y03381D03*
X05772Y03038D03*
X05572Y035D03*
X05575Y03536D03*
X05733Y03077D03*
X05955Y03038D03*
X05915Y02999D03*
X05095Y03475D03*
X05574Y02762D03*
X04341Y03804D03*
X05535Y033D03*
X05811Y03262D03*
X05914Y0326D03*
X05731D03*
X05126Y0371D03*
X05181Y03901D03*
X05126Y03804D03*
X0499Y03902D03*
X05531Y03425D03*
X05997Y03539D03*
X06115D03*
X06155D03*
X06233Y03421D03*
X05729Y035D03*
X05848Y03539D03*
Y035D03*
X05533Y03578D03*
Y03539D03*
X05493Y03618D03*
X05533D03*
X05651Y03381D03*
X05729D03*
X05491Y03311D03*
X0569Y03263D03*
X05848D03*
X05777Y0362D03*
X05611Y03381D03*
X0561Y03467D03*
X05571Y03424D03*
X05691Y03462D03*
X0588Y03157D03*
X05728Y02996D03*
X05848Y02956D03*
X05925Y02795D03*
X06196Y02759D03*
X06326Y02814D03*
X05915Y03077D03*
X05807Y03039D03*
X05688Y02996D03*
X05496D03*
X05917Y03303D03*
X06153Y02909D03*
X06272Y02962D03*
X06165Y02959D03*
X06114Y02996D03*
X06039Y03114D03*
X06003Y03232D03*
X06122Y03275D03*
X06Y03381D03*
X06118Y03389D03*
X06196Y03578D03*
X06311Y03618D03*
X05921Y03039D03*
X05996Y0296D03*
X06157Y02799D03*
X06196D03*
X06236D03*
X06275D03*
X06527Y03192D03*
X06275Y03188D03*
X06232Y03263D03*
X06397Y02897D03*
X06437D03*
Y02917D03*
X06397D03*
Y03027D03*
Y03003D03*
X06437Y03027D03*
Y03003D03*
X06405Y03283D03*
Y03259D03*
X06444Y03283D03*
Y03259D03*
X05393Y03322D03*
Y03299D03*
X05433Y03322D03*
Y03299D03*
X05401Y03232D03*
X05244Y03209D03*
X05315D03*
X05244Y03279D03*
X0544Y03232D03*
Y03212D03*
X05401D03*
X05314Y03279D03*
X06397Y02822D03*
X05917Y03618D03*
X05181Y03807D03*
X0561Y03705D03*
X05681Y03704D03*
X05704D03*
X05681Y03751D03*
X05704D03*
X05095Y03443D03*
X05653Y03457D03*
Y03418D03*
X06488Y03665D03*
X05944Y03681D03*
X05851Y03575D03*
X05917Y03578D03*
X06194Y03539D03*
X05693Y03575D03*
X05736Y03535D03*
X0569Y03618D03*
X05734Y0346D03*
X05769Y0346D03*
Y03381D03*
X05772Y03418D03*
X08405Y02064D03*
X05914Y0334D03*
X05848Y03342D03*
X05808Y03303D03*
X05811Y03339D03*
X05769Y03342D03*
X05733Y03337D03*
X0569Y03342D03*
X05653Y03342D03*
X0829Y04287D03*
X0839Y04337D03*
Y04237D03*
X0829Y04187D03*
X0839Y04137D03*
X0829Y04087D03*
X0839Y03937D03*
X0859Y04337D03*
X0849Y04287D03*
X0839Y04037D03*
Y04287D03*
Y04087D03*
Y03737D03*
Y03587D03*
Y03437D03*
Y03287D03*
X08391Y03137D03*
X0839Y02987D03*
Y02837D03*
X0829Y02387D03*
Y02537D03*
Y02587D03*
Y02737D03*
Y02787D03*
Y02937D03*
Y02987D03*
Y03137D03*
Y03187D03*
Y03337D03*
Y03407D03*
Y03517D03*
Y03587D03*
Y03737D03*
Y03787D03*
Y03937D03*
Y03987D03*
Y04037D03*
Y04137D03*
Y04237D03*
Y04337D03*
X0849Y02737D03*
Y02887D03*
Y03037D03*
Y03187D03*
Y03337D03*
Y03487D03*
Y03637D03*
Y03787D03*
Y03937D03*
Y04087D03*
Y04237D03*
Y04337D03*
X0859Y04287D03*
Y04137D03*
Y03987D03*
Y03837D03*
Y03687D03*
X0849Y02387D03*
X0854Y02499D03*
X0735Y03362D03*
Y03267D03*
X08539Y02525D03*
Y02599D03*
X05554Y02909D03*
X07968Y02031D03*
Y01937D03*
X08491Y02625D03*
X0834Y02425D03*
X08582Y02614D03*
X08543Y02763D03*
Y02917D03*
Y03066D03*
Y03216D03*
Y03366D03*
X08544Y03515D03*
X08342Y04169D03*
X0854Y02425D03*
X07019Y02185D03*
X05326Y0344D03*
X05491Y03462D03*
X05389Y0344D03*
X05338Y03555D03*
X05377D03*
Y03535D03*
X05338D03*
X05488Y02952D03*
X05527Y0287D03*
X05496Y02799D03*
X0624Y03511D03*
X06157Y03464D03*
Y03503D03*
X0627Y0342D03*
X0742Y03945D03*
X05957Y03427D03*
X05614Y03575D03*
X05611Y03618D03*
X05529Y03712D03*
X04341Y03741D03*
Y03772D03*
X05126D03*
X0499Y0384D03*
X05181Y03838D03*
X0499Y03871D03*
X05181Y0387D03*
X05126Y03741D03*
X05575Y033D03*
X0735Y0333D03*
X05575Y0326D03*
X0735Y03299D03*
X05806Y03232D03*
X05851Y03225D03*
X05806Y03112D03*
X05536Y02841D03*
X0839Y03197D03*
X05535Y02799D03*
X0839Y03227D03*
G54D90*
X08613Y05137D03*
X08748Y05129D03*
X07938Y05157D03*
X07917Y05132D03*
X06403Y03405D03*
X07082Y05144D03*
X07008D03*
X07803Y05137D03*
X07728Y05138D03*
X06318Y02537D03*
X04954Y0311D03*
X04297Y04419D03*
X04391D03*
X04422D03*
X04485D03*
X04454Y04307D03*
X0436D03*
X04858Y04417D03*
X04952D03*
X04984D03*
X05047D03*
X05015Y04305D03*
X04921D03*
X05905Y02456D03*
X04653Y02488D03*
X03492Y03586D03*
X0483Y03031D03*
X04909Y03007D03*
X07307Y03279D03*
X0724Y03354D03*
X06385Y03881D03*
X05523Y04019D03*
X06251Y02527D03*
X03547Y02877D03*
X03515D03*
X03488D03*
X03342Y03996D03*
X03838Y04629D03*
Y04696D03*
X03834Y04251D03*
Y04188D03*
X05429Y04661D03*
X05492Y04614D03*
X05488Y04267D03*
Y04188D03*
X07137Y04291D03*
X07141Y04362D03*
X04208Y03334D03*
X0346Y02062D03*
X04916Y03357D03*
X0594Y05177D03*
X05733Y05178D03*
X06175Y05372D03*
X06122Y05375D03*
X05431Y04015D03*
X0563Y04075D03*
X06513Y03352D03*
X04247Y02952D03*
X03261Y03037D03*
X03262Y03094D03*
X03269Y03184D03*
X03297Y03038D03*
Y03094D03*
X03232Y03183D03*
X03286Y02837D03*
X04406Y02842D03*
X04628Y02549D03*
X04445Y03187D03*
X06205Y0155D03*
X06085D03*
X05885D03*
X06165D03*
X06125D03*
X06045D03*
X05965D03*
X05925D03*
X06005D03*
X03413Y02014D03*
X03487Y01832D03*
X03435Y01833D03*
X04841Y0325D03*
X04807Y03214D03*
Y0325D03*
X04765Y03134D03*
Y03099D03*
X04031Y04137D03*
X03865Y01584D03*
X03517Y0366D03*
X03352Y04904D03*
X03252Y02947D03*
X05298Y04144D03*
Y04179D03*
X053Y04702D03*
Y04735D03*
X04032Y047D03*
Y04735D03*
X04031Y0417D03*
X04778Y04865D03*
X04838D03*
X04898D03*
X04958D03*
X05018D03*
X05078D03*
X05138D03*
X04562Y04865D03*
X04502D03*
X04442D03*
X04382D03*
X04322D03*
X04262D03*
X04202D03*
X04408Y04097D03*
X04251D03*
X04345D03*
X04811Y041D03*
X04906D03*
X04328Y04307D03*
X0489Y04305D03*
X04827D03*
X05078D03*
X04795D03*
X04265Y04307D03*
X04234D03*
X05094Y041D03*
X05D03*
X04968D03*
X04937D03*
X04534Y04097D03*
X0444D03*
X04377D03*
X0701Y03845D03*
X07009Y03895D03*
X0701Y03947D03*
X03435Y01968D03*
X03487Y01966D03*
X06046Y05232D03*
X05893Y0535D03*
X06043Y05352D03*
X05836Y05234D03*
Y0535D03*
X05689Y05355D03*
X06846Y0339D03*
X05865Y02667D03*
X06318Y02566D03*
X05982Y0252D03*
X05743Y0252D03*
X05705Y02525D03*
X06638Y0311D03*
X07099Y03102D03*
Y03455D03*
X05743Y02457D03*
Y02489D03*
X05474Y03892D03*
X03227Y03093D03*
X03228Y03037D03*
X03507Y02985D03*
X03101Y04741D03*
X03132Y04742D03*
X03162D03*
X03101Y04711D03*
X03157Y04712D03*
X031Y04681D03*
X03133Y04682D03*
X03668Y03659D03*
X02967Y02973D03*
X02999D03*
X0303D03*
X0306D03*
X0309D03*
X02969Y03151D03*
X02998D03*
X0303Y0315D03*
X03062Y03149D03*
X03813Y0259D03*
X03856D03*
X03902D03*
X03948D03*
X03996D03*
Y02634D03*
X03948D03*
X03902D03*
X03856D03*
X03813D03*
X03893Y02212D03*
X03931Y02214D03*
X03968Y02212D03*
X04007Y02214D03*
X03686Y01819D03*
Y01857D03*
Y01894D03*
Y01934D03*
Y01975D03*
X03681Y01609D03*
X03858Y01621D03*
X04444Y02332D03*
X04474D03*
X04427Y02055D03*
X04459Y0207D03*
X04811Y02142D03*
X04812Y02244D03*
X06109Y03927D03*
X06108Y04019D03*
X05876Y04017D03*
X05873Y03982D03*
X0588Y03892D03*
Y0382D03*
X0584Y03939D03*
X06147Y03965D03*
X05439Y03892D03*
X05625Y03854D03*
X05539Y03952D03*
X05681D03*
X05783Y0249D03*
X06053Y02515D03*
X06354Y02482D03*
X06129Y0248D03*
X06105Y02387D03*
X06701Y03157D03*
X06122Y05162D03*
X06174Y0516D03*
X03763Y03384D03*
Y03419D03*
X03764Y03485D03*
X03763Y03454D03*
X0373Y03385D03*
Y0342D03*
X03731Y03485D03*
Y03454D03*
X04517Y04307D03*
X06107Y03887D03*
X06106Y03842D03*
X0588Y03857D03*
X07108Y02973D03*
X06698Y02876D03*
X06696Y03015D03*
X06527Y02889D03*
Y02925D03*
X06574Y02751D03*
X03514Y02065D03*
X07159Y0397D03*
X0716Y0392D03*
X07157Y0387D03*
X07162Y0382D03*
G54D91*
X0798Y01487D03*
X04967Y02682D03*
X04791Y02181D03*
X0477Y02167D03*
X04791Y02224D03*
X04645Y02035D03*
X04432Y02212D03*
X0387Y01992D03*
X04758Y01966D03*
X04665Y02405D03*
X04492Y02409D03*
X04724Y02393D03*
X04723Y0236D03*
X04703D03*
X04908Y02215D03*
Y02197D03*
X04872Y02064D03*
X04854D03*
X04836D03*
X04612Y02499D03*
X04222Y0215D03*
X04222Y02212D03*
X04418Y02194D03*
X04609Y0193D03*
X04634Y01944D03*
X04585D03*
X04476Y025D03*
X0382Y02464D03*
X04478Y01905D03*
Y02455D03*
X04461Y02455D03*
X04445Y02455D03*
X04525Y0237D03*
X0462Y0238D03*
X04528Y01986D03*
X04452Y01945D03*
X04435D03*
X04418D03*
X04495Y01987D03*
X04692Y01985D03*
X04723Y01987D03*
X04546Y02407D03*
X04723Y02025D03*
X04506Y02032D03*
X0483Y02317D03*
X04853Y02319D03*
X04878Y02317D03*
X0474Y01905D03*
X04623Y0203D03*
X03893Y01992D03*
X03913D03*
X03933D03*
X04645Y02389D03*
X04842Y01759D03*
X04862D03*
X04842Y01732D03*
X04862D03*
X05041Y02207D03*
G54D92*
X04689Y02117D03*
X04612D03*
X04534D03*
X04573D03*
X0465D03*
X04689Y02155D03*
X04612D03*
X04534D03*
X04573D03*
X0465D03*
X0469Y02232D03*
X04535D03*
X04574D03*
X04651D03*
X0469Y0227D03*
X04535D03*
X04574D03*
X04652D03*
X04613D03*
X04612Y02232D03*
G54D93*
X06019Y03938D03*
Y03895D03*
X05976D03*
Y03938D03*
G54D115*
X03963Y04245D03*
Y04178D03*
X05358Y04626D03*
Y04693D03*
X03955Y04627D03*
Y04694D03*
X05363Y04254D03*
Y04187D03*
G54D116*
X08649Y05109D03*
Y05133D03*
Y05157D03*
X08724Y05109D03*
Y05133D03*
X07967Y05156D03*
Y05132D03*
Y05107D03*
X07892Y05156D03*
Y05132D03*
X06982Y05144D03*
Y05168D03*
X07057Y0512D03*
Y05144D03*
Y05168D03*
X07831Y05138D03*
Y05114D03*
X07756Y05162D03*
Y05138D03*
Y05114D03*
G54D117*
X08724Y05157D03*
X07892Y05107D03*
X06982Y0512D03*
X07831Y05162D03*
G54D118*
X05933Y02494D03*
Y02531D03*
Y02456D03*
X05837D03*
Y02531D03*
Y02494D03*
X06282Y02491D03*
Y02566D03*
Y02529D03*
X06186Y02491D03*
Y02566D03*
X05658Y03818D03*
Y03893D03*
Y03855D03*
X05562Y03818D03*
Y03893D03*
G54D119*
X06071Y03878D03*
Y03955D03*
Y03904D03*
Y03929D03*
X05923Y03878D03*
Y03955D03*
Y03904D03*
Y03929D03*
G54D120*
X06036Y03842D03*
Y0399D03*
X0601Y03842D03*
X05984D03*
X05959D03*
X0601Y0399D03*
X05984D03*
X05959D03*
G54D121*
X05997Y03916D03*
G54D122*
X07163Y04331D03*
X07139D03*
X07114D03*
X07139Y04257D03*
X07114D03*
G54D123*
X07163Y04257D03*
G54D124*
X07164Y03457D03*
G54D125*
X07164Y03407D03*
Y03357D03*
Y03307D03*
Y03257D03*
Y03207D03*
Y03157D03*
Y03107D03*
X06758Y03457D03*
Y03407D03*
Y03357D03*
Y03307D03*
Y03257D03*
Y03207D03*
Y03157D03*
Y03107D03*
G54D126*
X03437Y02034D03*
Y02014D03*
Y01994D03*
X03487D03*
Y02014D03*
Y02034D03*
G54D127*
X0636Y03844D03*
Y03919D03*
X06444Y03844D03*
Y03919D03*
G54D128*
X06402Y03844D03*
Y03919D03*
G54D129*
X0564Y03751D03*
X05769D03*
G54D130*
X03939Y04367D03*
X03833D03*
X05381Y04502D03*
X05487D03*
X03939Y04508D03*
X03833D03*
X05381Y04378D03*
X05487D03*
G54D131*
X09004Y04336D03*
G54D132*
X03915Y02016D03*
M02*