%FSTAX23Y23*%
%MOIN*%
%SFA1B1*%

%IPPOS*%
%AMD179*
4,1,8,-0.013300,-0.026600,0.013300,-0.026600,0.026600,-0.013300,0.026600,0.013300,0.013300,0.026600,-0.013300,0.026600,-0.026600,0.013300,-0.026600,-0.013300,-0.013300,-0.026600,0.0*
%
%ADD77C,0.061024*%
%ADD102C,0.027000*%
%ADD135R,0.025622X0.023653*%
%ADD137R,0.023653X0.025622*%
%ADD141R,0.029559X0.053181*%
%ADD150R,0.025622X0.041370*%
%ADD162R,0.104362X0.037433*%
%ADD163R,0.053181X0.029559*%
%ADD164R,0.068929X0.037433*%
%ADD165R,0.041370X0.025622*%
%ADD174R,0.061055X0.061055*%
%ADD175C,0.061055*%
%ADD176C,0.198850*%
%ADD177C,0.039401*%
%ADD178C,0.062000*%
G04~CAMADD=179~4~0.0~0.0~531.8~531.8~0.0~133.0~0~0.0~0.0~0.0~0.0~0~0.0~0.0~0.0~0.0~0~0.0~0.0~0.0~180.0~532.0~532.0*
%ADD179D179*%
%ADD180C,0.053181*%
%ADD181C,0.041370*%
%ADD182C,0.108299*%
%ADD183C,0.002000*%
%ADD184C,0.127984*%
%ADD185R,0.162000X0.067000*%
%ADD186R,0.067000X0.162000*%
%ADD187R,0.062000X0.062000*%
%ADD188C,0.017000*%
%ADD189C,0.018000*%
%ADD190C,0.022000*%
%ADD191C,0.021685*%
%ADD192R,0.070000X0.543999*%
%ADD193R,0.045307X0.068929*%
%ADD194R,0.037827X0.050031*%
%ADD195R,0.021685X0.041370*%
%ADD196R,0.037433X0.041370*%
%ADD197R,0.080740X0.033496*%
%ADD198R,0.019716X0.015500*%
%ADD199O,0.080740X0.025622*%
%ADD200R,0.080740X0.025622*%
%ADD201R,0.018535X0.025622*%
%ADD202O,0.018535X0.025622*%
%ADD203R,0.039401X0.025622*%
%ADD204O,0.013811X0.039401*%
%ADD205O,0.039401X0.013811*%
%ADD206R,0.084677X0.084677*%
%ADD207R,0.025622X0.018535*%
%ADD208O,0.025622X0.018535*%
%ADD209R,0.080740X0.080740*%
%LNatfc_soldermask_bot-1*%
%LPD*%
G54D77*
X02605Y04202D03*
X02227D03*
X03166Y04202D03*
X02788D03*
G54D102*
X02643Y02233D03*
X02644Y02271D03*
X02683D03*
X02605D03*
X02567D03*
X02722D03*
X02683Y02233D03*
X02605D03*
X02567D03*
X02722D03*
X02682Y02155D03*
X02604D03*
X02566D03*
X02643D03*
X02721D03*
X02682Y02117D03*
X02604D03*
X02566D03*
X02643D03*
X02721D03*
G54D135*
X04418Y03979D03*
X04451D03*
X04381Y03426D03*
X04348D03*
X04152Y03389D03*
X04186D03*
X03567Y03186D03*
X036D03*
X03594Y03427D03*
X03561D03*
X03522Y03311D03*
X03556D03*
X03983Y03078D03*
X0395D03*
X03912Y03157D03*
X03945D03*
X03777Y03816D03*
X03744D03*
X03426Y04139D03*
X03459D03*
X03426Y043D03*
X03459D03*
X01955Y04742D03*
X01922D03*
X01959Y0458D03*
X01926D03*
X03415Y04744D03*
X03448D03*
X03421Y04574D03*
X03454D03*
X01965Y04132D03*
X01932D03*
X01963Y04295D03*
X0193D03*
X01547Y02019D03*
X01581D03*
X03585Y03702D03*
X03619D03*
X02615Y02413D03*
X0265D03*
X02597Y02013D03*
X02632D03*
X02649Y0238D03*
X02614D03*
X02631Y0198D03*
X02596D03*
X03744Y03854D03*
X03778D03*
X03542Y03857D03*
X03508D03*
X02727Y02405D03*
X0276D03*
G54D137*
X045Y02923D03*
Y02888D03*
X03838Y03191D03*
Y03225D03*
X04267Y03467D03*
Y035D03*
X04188Y03469D03*
Y03502D03*
X04114Y03546D03*
Y03579D03*
X04269Y02912D03*
Y02879D03*
X0419Y02919D03*
Y02952D03*
X04191Y03144D03*
Y03111D03*
X04033Y03226D03*
Y03193D03*
X03602Y02731D03*
Y02764D03*
Y02949D03*
Y02916D03*
X03523Y02959D03*
Y02993D03*
X03677Y03106D03*
Y03073D03*
X04307Y03178D03*
Y03145D03*
X04148Y03266D03*
Y03233D03*
X04268Y03309D03*
Y03276D03*
X03684Y03376D03*
Y03343D03*
X03842Y03264D03*
Y03297D03*
X03881Y03262D03*
Y03229D03*
X03723Y03264D03*
Y03297D03*
X03764Y03373D03*
Y0334D03*
X03881Y03071D03*
Y03038D03*
X03944Y03296D03*
Y03263D03*
X03947Y03373D03*
Y0334D03*
X03883Y03336D03*
Y03303D03*
X03843Y03539D03*
Y03506D03*
X03686Y03534D03*
Y03501D03*
X03806Y0358D03*
Y03613D03*
X03647Y03577D03*
Y0361D03*
X04013Y02493D03*
Y0246D03*
X03736Y02495D03*
Y02462D03*
X03947Y02998D03*
Y02964D03*
X04531Y02888D03*
Y02923D03*
X06434Y03891D03*
Y03925D03*
X06432Y04078D03*
Y04044D03*
X04372Y0288D03*
Y02845D03*
X04521Y0328D03*
Y03314D03*
X04566Y0329D03*
Y03324D03*
X03076Y03086D03*
Y0312D03*
X03042Y03086D03*
Y0312D03*
X04483Y03414D03*
Y03449D03*
X04516Y03414D03*
Y03449D03*
X03157Y03187D03*
Y03222D03*
X03188Y03187D03*
Y03222D03*
X03618Y04041D03*
Y04075D03*
X03585Y04041D03*
Y04075D03*
X03765Y05307D03*
Y05341D03*
X03825Y05307D03*
Y05341D03*
X03972Y05303D03*
Y05337D03*
X04031Y05304D03*
Y05338D03*
X03825Y05221D03*
Y05187D03*
X04031Y05221D03*
Y05187D03*
X01467Y01906D03*
Y01872D03*
X01519Y01906D03*
Y01872D03*
X02789Y02022D03*
Y01988D03*
X02754Y01989D03*
Y02023D03*
X03562Y03782D03*
Y03817D03*
X02559Y01983D03*
Y0195D03*
X02577Y0241D03*
Y02443D03*
X02722Y01982D03*
Y01949D03*
G54D141*
X03407Y03311D03*
X03482D03*
X0349Y03224D03*
X03415D03*
G54D150*
X05336Y03314D03*
X05277D03*
X04198Y03966D03*
X04139D03*
X03852Y03939D03*
X03911D03*
X04062Y03792D03*
X04003D03*
X04158Y02437D03*
X04217D03*
Y02387D03*
X04158D03*
G54D162*
X03984Y02627D03*
Y02742D03*
X03785Y02725D03*
Y0261D03*
G54D163*
X04094Y03742D03*
Y03667D03*
X04031D03*
Y03742D03*
G54D164*
X01942Y02038D03*
Y02152D03*
G54D165*
X03539Y03952D03*
Y03893D03*
X04386Y02507D03*
Y02566D03*
X04163Y02508D03*
Y02567D03*
X04057Y02516D03*
Y02457D03*
X03815Y02516D03*
Y02457D03*
X05267Y03466D03*
Y03407D03*
X04714Y03105D03*
Y03046D03*
X05272Y03157D03*
Y03216D03*
X02883Y01717D03*
Y01776D03*
X03746Y03893D03*
Y03952D03*
G54D174*
X00992Y04715D03*
X04396Y04918D03*
X02698Y03115D03*
G54D175*
X00992Y04815D03*
X04496Y04418D03*
X04396D03*
X04496Y04518D03*
X04396D03*
X04496Y04618D03*
X04396D03*
X04496Y04718D03*
X04396D03*
X04496Y04818D03*
X04396D03*
X04496Y04918D03*
X02698Y03215D03*
G54D176*
X04446Y05168D03*
G54D177*
X02135Y04521D03*
X03258D03*
X02605Y03958D03*
X02416D03*
X02977D03*
X03166D03*
G54D178*
X01542Y03159D03*
Y03296D03*
X05691Y05185D03*
X05591D03*
X05491D03*
X05391D03*
X05291D03*
X0519D03*
X05691Y05085D03*
X05591D03*
X05491D03*
X05391D03*
X05291D03*
X06591Y05185D03*
X06491D03*
X06391D03*
X06291D03*
X06191D03*
X06091D03*
X06591Y05085D03*
X06491D03*
X06391D03*
X06291D03*
X06191D03*
G54D179*
X05403Y04507D03*
G54D180*
X05324Y04507D03*
X05245D03*
X05167D03*
X05088D03*
X05009D03*
X0493D03*
X05403Y04428D03*
X05324D03*
X05245D03*
X05167D03*
X05088D03*
X05009D03*
X0493D03*
G54D181*
X0497Y04468D03*
G54D182*
X0164Y04902D03*
Y05265D03*
Y05084D03*
G54D183*
X06472Y04432D03*
X06352Y02291D03*
G54D184*
X069Y01536D03*
X00801D03*
Y05487D03*
X06901D03*
X06551Y04601D03*
Y02121D03*
G54D185*
X01176Y05086D03*
Y05314D03*
G54D186*
X00987Y05204D03*
G54D187*
X0519Y05085D03*
X06091D03*
G54D188*
X03073Y02208D03*
X02893Y01732D03*
X02874D03*
X02893Y01759D03*
X02874D03*
X02677Y02389D03*
X01964Y01992D03*
X01944D03*
X01925D03*
X02654Y0203D03*
X02771Y01905D03*
X02909Y02317D03*
X02884Y02319D03*
X02861Y02318D03*
X02537Y02032D03*
X02754Y02025D03*
X02577Y02407D03*
X02754Y01987D03*
X02723Y01985D03*
X02526Y01987D03*
X02449Y01946D03*
X02466D03*
X02483D03*
X02559Y01986D03*
X02652Y0238D03*
X02556Y0237D03*
X02476Y02456D03*
X02493Y02455D03*
X02509Y02456D03*
Y01906D03*
X01851Y02464D03*
X02508Y025D03*
X02616Y01944D03*
X02665D03*
X0264Y01931D03*
X02449Y02194D03*
X02254Y02212D03*
X02254Y0215D03*
X02643Y02499D03*
X02867Y02064D03*
X02885D03*
X02903D03*
X02939Y02197D03*
Y02215D03*
X02734Y0236D03*
X02754D03*
X02755Y02393D03*
X02523Y02409D03*
X02696Y02405D03*
X02789Y01966D03*
X01901Y01992D03*
X02464Y02213D03*
X02677Y02035D03*
X02822Y02224D03*
X02802Y02167D03*
X02822Y02181D03*
X02999Y02682D03*
X06011Y01488D03*
G54D189*
X03158Y03741D03*
X03212Y0387D03*
X03022Y03871D03*
X03212Y03838D03*
X03022Y0384D03*
X03158Y03772D03*
X02373Y03772D03*
Y03741D03*
X04622Y03192D03*
X0459D03*
X05051Y02185D03*
X06572Y02425D03*
X06374Y04169D03*
X06575Y03515D03*
X06574Y03366D03*
Y03216D03*
Y03066D03*
Y02917D03*
Y02763D03*
X06614Y02614D03*
X06372Y02425D03*
X06523Y02625D03*
X05999Y01937D03*
Y02031D03*
X06571Y02599D03*
Y02525D03*
X05381Y03267D03*
Y03362D03*
X06572Y02499D03*
X06522Y02387D03*
X06622Y03687D03*
Y03837D03*
Y03987D03*
Y04137D03*
Y04287D03*
X06522Y04337D03*
Y04237D03*
Y04087D03*
Y03937D03*
Y03787D03*
Y03637D03*
Y03487D03*
Y03337D03*
Y03187D03*
Y03037D03*
Y02887D03*
Y02737D03*
X06322Y04337D03*
Y04237D03*
Y04137D03*
Y04037D03*
Y03987D03*
Y03937D03*
Y03787D03*
Y03737D03*
Y03587D03*
Y03517D03*
Y03407D03*
Y03337D03*
Y03187D03*
Y03137D03*
Y02987D03*
Y02937D03*
Y02787D03*
Y02737D03*
Y02587D03*
Y02537D03*
Y02387D03*
X06422Y02837D03*
Y02987D03*
X06422Y03137D03*
X06422Y03287D03*
Y03437D03*
Y03587D03*
Y03737D03*
Y04087D03*
Y04287D03*
Y04037D03*
X06522Y04287D03*
X06622Y04337D03*
X06422Y03937D03*
X06322Y04087D03*
X06422Y04137D03*
X06322Y04187D03*
X06422Y04237D03*
Y04337D03*
X06322Y04287D03*
X06437Y02064D03*
X03127Y03443D03*
X03212Y03807D03*
X04559Y03192D03*
X03022Y03902D03*
X03158Y03804D03*
X03212Y03901D03*
X03158Y0371D03*
X02373Y03804D03*
X03127Y03475D03*
X03022Y03807D03*
X04593Y02559D03*
Y02465D03*
X04843Y03741D03*
X04952Y03821D03*
X04915Y03822D03*
X04925Y04035D03*
X04994Y04052D03*
X02373Y0371D03*
X03127Y03381D03*
X03612Y04872D03*
X03734Y04847D03*
X0374Y04666D03*
X0361Y04642D03*
X03507Y04678D03*
Y04835D03*
X0361Y0432D03*
X03737Y04348D03*
X03732Y04535D03*
X03618Y04563D03*
X03794Y03816D03*
X03127Y03412D03*
X03607Y04382D03*
Y04406D03*
Y0443D03*
Y04455D03*
Y04479D03*
Y04504D03*
X03603Y04702D03*
Y04724D03*
Y04746D03*
Y04769D03*
Y04791D03*
Y04814D03*
X03559Y04539D03*
Y04342D03*
X04717Y03444D03*
X04879Y03741D03*
X04915D03*
X04952D03*
X04653Y03192D03*
X05381Y0333D03*
Y03299D03*
X06522Y03997D03*
Y04027D03*
X06444Y03865D03*
X06573Y02575D03*
X04593Y02496D03*
X06573Y02549D03*
X04593Y02527D03*
X05602Y0277D03*
Y02676D03*
X05051Y02279D03*
X05602Y02739D03*
Y02708D03*
X06422Y03497D03*
Y03527D03*
X06522Y03547D03*
Y03577D03*
Y03427D03*
Y03397D03*
X06375Y02747D03*
Y02777D03*
X06372Y02499D03*
Y02625D03*
X06344Y02064D03*
X06523Y02699D03*
X06372D03*
X06598Y02363D03*
X06624Y02436D03*
X06422Y02412D03*
X06522Y03847D03*
Y03877D03*
Y03697D03*
Y03727D03*
X06422Y03647D03*
Y03677D03*
X06037Y04934D03*
X06069Y04934D03*
X061Y04934D03*
X06132Y04933D03*
X06195Y04933D03*
X06165Y04932D03*
X0626Y04935D03*
X06229Y04936D03*
X06422Y03227D03*
Y03197D03*
X05051Y02248D03*
X06572Y02475D03*
X05051Y02216D03*
X06572Y02449D03*
X06522Y03277D03*
Y03247D03*
X06422Y03077D03*
Y03047D03*
X05999Y02D03*
X06523Y02649D03*
X05999Y01968D03*
X06523Y02675D03*
X06522Y03127D03*
Y03097D03*
X06422Y02927D03*
Y02897D03*
X06622Y02697D03*
X05509Y01928D03*
X06622Y02727D03*
X05509Y01897D03*
X06522Y02947D03*
X0533Y01897D03*
X06522Y02977D03*
X0533Y01866D03*
X06522Y02797D03*
X05755Y01849D03*
X06522Y02827D03*
X05755Y01818D03*
X05889Y01767D03*
Y01736D03*
X06372Y02449D03*
X06372Y02475D03*
Y02649D03*
Y02675D03*
X06374Y02064D03*
X06405D03*
X0642Y03377D03*
Y03347D03*
G54D190*
X05194Y0382D03*
X05189Y0387D03*
X05192Y0392D03*
X0519Y0397D03*
X01546Y02066D03*
X04606Y02751D03*
X04559Y02925D03*
Y02889D03*
X04728Y03015D03*
X0473Y02876D03*
X0514Y02973D03*
X03912Y03858D03*
X04138Y03843D03*
X04139Y03887D03*
X02549Y04308D03*
X01763Y03454D03*
Y03485D03*
X01762Y0342D03*
Y03385D03*
X01795Y03454D03*
X01796Y03485D03*
X01795Y03419D03*
Y03384D03*
X04206Y05161D03*
X04154Y05162D03*
X04733Y03157D03*
X04137Y02388D03*
X04161Y02481D03*
X04386Y02483D03*
X04085Y02515D03*
X03815Y02491D03*
X03712Y03952D03*
X0357D03*
X03657Y03854D03*
X03471Y03893D03*
X04179Y03966D03*
X03872Y03939D03*
X03912Y0382D03*
Y03893D03*
X03905Y03983D03*
X03908Y04018D03*
X0414Y04019D03*
X04141Y03927D03*
X02844Y02244D03*
X02843Y02143D03*
X02491Y0207D03*
X02459Y02056D03*
X02506Y02332D03*
X02476D03*
X01889Y01621D03*
X01712Y01609D03*
X01718Y01975D03*
Y01934D03*
Y01894D03*
Y01857D03*
Y01819D03*
X02039Y02214D03*
X02Y02213D03*
X01963Y02214D03*
X01925Y02213D03*
X01845Y02634D03*
X01888D03*
X01934D03*
X0198D03*
X02028D03*
Y02591D03*
X0198D03*
X01934D03*
X01888D03*
X01845D03*
X01094Y03149D03*
X01062Y0315D03*
X0103Y03151D03*
X01001D03*
X01122Y02973D03*
X01092D03*
X01062D03*
X01031D03*
X00999D03*
X017Y03659D03*
X01165Y04682D03*
X01132Y04681D03*
X01188Y04712D03*
X01133Y04711D03*
X01194Y04742D03*
X01164D03*
X01133Y04741D03*
X01539Y02985D03*
X0126Y03037D03*
X01259Y03093D03*
X03506Y03892D03*
X03775Y02489D03*
Y02457D03*
X0513Y03455D03*
Y03103D03*
X0467Y0311D03*
X03737Y02525D03*
X03775Y0252D03*
X04014Y02521D03*
X0435Y02566D03*
X03897Y02667D03*
X04878Y0339D03*
X03721Y05355D03*
X03868Y05351D03*
Y05234D03*
X04075Y05352D03*
X03925Y05351D03*
X04078Y05233D03*
X01519Y01966D03*
X01467Y01968D03*
X05042Y03947D03*
X05041Y03895D03*
X05042Y03846D03*
X02408Y04098D03*
X02471D03*
X02566D03*
X02968Y04099D03*
X03Y041D03*
X03031D03*
X03126D03*
X02265Y04308D03*
X02297D03*
X02827Y04306D03*
X0311D03*
X02858D03*
X02921D03*
X0236Y04308D03*
X02938Y041D03*
X02843D03*
X02377Y04098D03*
X02283D03*
X0244D03*
X02234Y04865D03*
X02294D03*
X02354D03*
X02414D03*
X02474D03*
X02534D03*
X02594D03*
X0317Y04866D03*
X0311D03*
X0305D03*
X0299D03*
X0293D03*
X0287D03*
X0281D03*
X02063Y0417D03*
X02064Y04736D03*
Y04701D03*
X03332Y04735D03*
Y04702D03*
X0333Y04179D03*
Y04144D03*
X01284Y02948D03*
X01384Y04904D03*
X01549Y03661D03*
X01896Y01584D03*
X02063Y04138D03*
X02797Y03099D03*
Y03134D03*
X02839Y03251D03*
Y03214D03*
X02873Y03251D03*
X01467Y01833D03*
X01519Y01832D03*
X01445Y02014D03*
X04037Y01551D03*
X03957D03*
X03997D03*
X04077D03*
X04157D03*
X04197D03*
X03917D03*
X04117D03*
X04237D03*
X02476Y03187D03*
X0266Y02549D03*
X02438Y02843D03*
X01318Y02837D03*
X01264Y03183D03*
X01329Y03094D03*
Y03038D03*
X01301Y03184D03*
X01294Y03094D03*
X01293Y03037D03*
X02279Y02953D03*
X04545Y03352D03*
X03662Y04075D03*
X03463Y04015D03*
X04154Y05374D03*
X04207Y05373D03*
X03765Y05178D03*
X03972Y05177D03*
X02948Y03357D03*
X01492Y02062D03*
X0224Y03334D03*
X05173Y04362D03*
X05169Y04291D03*
X03519Y04188D03*
Y04267D03*
X03523Y04614D03*
X0346Y04661D03*
X01866Y04188D03*
Y04251D03*
X0187Y04696D03*
Y04629D03*
X01374Y03996D03*
X01519Y02877D03*
X01547D03*
X01578D03*
X04283Y02527D03*
X03555Y04019D03*
X04417Y03881D03*
X05271Y03354D03*
X05338Y03279D03*
X0294Y03007D03*
X02862Y03031D03*
X01523Y03586D03*
X02685Y02488D03*
X03937Y02456D03*
X02953Y04306D03*
X03047D03*
X03078Y04417D03*
X03015D03*
X02984D03*
X0289D03*
X02391Y04308D03*
X02486D03*
X02517Y04419D03*
X02454D03*
X02423D03*
X02328D03*
X02986Y03111D03*
X0435Y02538D03*
X0576Y05138D03*
X05835Y05138D03*
X05039Y05144D03*
X05113D03*
X04435Y03405D03*
X05948Y05132D03*
X0597Y05158D03*
X0678Y05129D03*
X06645Y05138D03*
G54D191*
X04007Y03938D03*
Y03895D03*
X0405D03*
Y03938D03*
G54D192*
X07036Y04373D03*
G54D193*
X03519Y04378D03*
X03412D03*
X01864Y04508D03*
X01971D03*
X03519Y04503D03*
X03412D03*
X01864Y04368D03*
X0197D03*
G54D194*
X038Y03751D03*
X03671D03*
G54D195*
X04433Y03919D03*
Y03844D03*
G54D196*
X04476Y03919D03*
Y03844D03*
X04391Y03919D03*
Y03844D03*
G54D197*
X03394Y0426D03*
Y04181D03*
X01986Y04621D03*
Y047D03*
X03389Y0462D03*
Y04699D03*
X01994Y04251D03*
Y04172D03*
G54D198*
X01518Y02034D03*
Y02014D03*
Y01994D03*
X01469D03*
Y02014D03*
Y02034D03*
G54D199*
X04789Y03107D03*
Y03157D03*
Y03207D03*
Y03257D03*
Y03307D03*
Y03357D03*
Y03407D03*
Y03457D03*
X05195Y03107D03*
Y03157D03*
Y03207D03*
Y03257D03*
Y03307D03*
Y03357D03*
Y03407D03*
G54D200*
X05195Y03457D03*
G54D201*
X05146Y04257D03*
X0517D03*
X05146Y04331D03*
X0517D03*
X05195D03*
G54D202*
X05195Y04257D03*
G54D203*
X03593Y03893D03*
Y03818D03*
X0369Y03856D03*
Y03893D03*
Y03818D03*
X04217Y02566D03*
Y02491D03*
X04314Y02529D03*
Y02566D03*
Y02491D03*
X03868Y02494D03*
Y02531D03*
Y02456D03*
X03965D03*
Y02531D03*
Y02494D03*
G54D204*
X0399Y0399D03*
X04016D03*
X04041D03*
X0399Y03842D03*
X04016D03*
X04041D03*
X04067Y0399D03*
Y03842D03*
G54D205*
X03955Y03929D03*
Y03904D03*
Y03955D03*
Y03878D03*
X04102Y03929D03*
Y03904D03*
Y03955D03*
Y03878D03*
G54D206*
X04029Y03916D03*
G54D207*
X05788Y05114D03*
Y05138D03*
Y05163D03*
X05863Y05114D03*
Y05138D03*
X05088Y05168D03*
Y05144D03*
Y0512D03*
X05014Y05168D03*
Y05144D03*
X05924Y05132D03*
Y05156D03*
X05998Y05107D03*
Y05132D03*
Y05156D03*
X06756Y05133D03*
Y05109D03*
X06681Y05158D03*
Y05133D03*
Y05109D03*
G54D208*
X05863Y05163D03*
X05014Y0512D03*
X05924Y05107D03*
X06756Y05158D03*
G54D209*
X02696Y05221D03*
Y04828D03*
Y04434D03*
Y0404D03*
X02135D03*
Y04434D03*
Y04828D03*
Y05221D03*
X03258Y04139D03*
Y04336D03*
Y04631D03*
Y05025D03*
Y05418D03*
M02*