%FSTAX23Y23*%
%MOIN*%
%SFA1B1*%

%IPPOS*%
%AMD77*
4,1,8,-0.012800,-0.025600,0.012800,-0.025600,0.025600,-0.012800,0.025600,0.012800,0.012800,0.025600,-0.012800,0.025600,-0.025600,0.012800,-0.025600,-0.012800,-0.012800,-0.025600,0.0*
%
%ADD10C,0.012000*%
%ADD11C,0.005000*%
%ADD14R,0.039370X0.023622*%
%ADD15R,0.023622X0.039370*%
%ADD16R,0.016535X0.023622*%
%ADD17O,0.016535X0.023622*%
%ADD18R,0.023622X0.021654*%
%ADD20R,0.021654X0.023622*%
%ADD23R,0.027559X0.051181*%
%ADD29R,0.051181X0.027559*%
%ADD30R,0.066929X0.035433*%
%ADD38R,0.102362X0.035433*%
%ADD53C,0.010000*%
%ADD54C,0.006000*%
%ADD55C,0.006614*%
%ADD56C,0.006890*%
%ADD57C,0.008000*%
%ADD58C,0.020000*%
%ADD61C,0.006614*%
%ADD66R,0.050000X0.005000*%
%ADD75C,0.039370*%
%ADD76C,0.051181*%
G04~CAMADD=77~4~0.0~0.0~511.8~511.8~0.0~128.0~0~0.0~0.0~0.0~0.0~0~0.0~0.0~0.0~0.0~0~0.0~0.0~0.0~180.0~512.0~512.0*
%ADD77D77*%
%ADD78C,0.059055*%
%ADD79C,0.059055*%
%ADD80O,0.078740X0.157480*%
%ADD81O,0.157480X0.078740*%
%ADD82O,0.177165X0.078740*%
%ADD83R,0.059055X0.059055*%
%ADD84R,0.059055X0.059055*%
%ADD85C,0.106299*%
%ADD86C,0.060000*%
%ADD87C,0.061024*%
%ADD88C,0.037401*%
%ADD89R,0.078740X0.078740*%
%ADD90C,0.016000*%
%ADD91C,0.020000*%
%ADD92C,0.015000*%
%ADD93C,0.025000*%
%ADD94C,0.019685*%
%ADD112R,0.017716X0.013500*%
%ADD113R,0.035827X0.048031*%
%ADD114R,0.037401X0.023622*%
%ADD115R,0.043307X0.066929*%
%ADD116R,0.078740X0.031496*%
%ADD117R,0.078740X0.023622*%
%ADD118O,0.078740X0.023622*%
%ADD119R,0.035433X0.039370*%
%ADD120R,0.019685X0.039370*%
%ADD121O,0.037401X0.011811*%
%ADD122O,0.011811X0.037401*%
%ADD123R,0.082677X0.082677*%
%ADD124R,0.050000X0.469999*%
%ADD125R,0.066929X0.079622*%
%LNatfc_copper_signal_bot-1*%
%LPD*%
G36*
X04123Y04038D02*
Y04019D01*
X04124Y04012*
X04128Y04007*
X04133Y04003*
X0414Y04002*
X04146Y04003*
X04149Y04006*
X04154Y04004*
Y03827*
X04083*
Y03962*
X04074Y03971*
X04034*
Y04038*
X04123*
G37*
G36*
X0443Y03959D02*
X04411Y0394D01*
Y03825*
X04376Y03824*
X04372Y03828*
X04373Y0399*
X0443*
Y03959*
G37*
G36*
X02089Y04121D02*
X01954D01*
X01953Y04122*
Y04189*
X02089*
Y04121*
G37*
G36*
X04496Y03904D02*
X04493Y03901D01*
X04458*
Y0394*
X04439Y03959*
Y0399*
X04496*
Y03904*
G37*
G36*
X04023Y03968D02*
X03983D01*
X03974Y03959*
Y03805*
X03895*
Y04035*
X04023*
Y03968*
G37*
G36*
X01347Y03073D02*
X01241D01*
Y03115*
X01347*
Y03073*
G37*
G36*
X02051Y02228D02*
X02062Y02216D01*
Y02188*
X02007Y02133*
X01909*
Y0222*
X01917Y02228*
X02051*
G37*
G36*
X05287Y03445D02*
X05204D01*
X05202Y0345*
X05202Y03451*
X05203Y03455*
X05202Y03458*
X052Y03462*
X05197Y03464*
X05193Y03465*
X05161*
Y03503*
X05161Y03504*
X05287*
Y03445*
G37*
G36*
X05293Y032D02*
X05244D01*
X0524Y03205*
X05241Y03207*
X05239Y03213*
X05235Y03219*
X0523Y03223*
X05223Y03225*
X05167*
X05164Y03224*
X05159Y03228*
Y03235*
X05164Y03239*
X05167Y03238*
X05223*
X0523Y0324*
X05235Y03244*
X05239Y0325*
X05241Y03257*
X05239Y03263*
X05235Y03269*
X0523Y03273*
X05223Y03275*
X05167*
X05164Y03274*
X05159Y03278*
Y03285*
X05164Y03289*
X05167Y03288*
X05223*
X0523Y0329*
X05235Y03294*
X05239Y033*
X05241Y03307*
X05239Y03313*
X05235Y03319*
X0523Y03323*
X05223Y03325*
X05167*
X05164Y03324*
X05159Y03328*
Y03335*
X05164Y03339*
X05167Y03338*
X05223*
X0523Y0334*
X05235Y03344*
X05239Y0335*
X05241Y03357*
X05239Y03363*
X05235Y03369*
X0523Y03373*
X05223Y03375*
X05167*
X05164Y03374*
X05159Y03378*
Y0342*
X05293*
Y032*
G37*
G36*
X01937Y04748D02*
Y04566D01*
X01885Y04566*
Y04307*
X01937*
X0194Y04303*
Y04122*
X01838*
Y04748*
X01842Y04751*
X01933*
X01937Y04748*
G37*
G36*
X03434Y04474D02*
X0343Y0447D01*
X03345*
Y04642*
X03433*
X03434Y04474*
G37*
G36*
X02036Y04469D02*
X02032Y04465D01*
X01947*
Y04637*
X02035*
X02036Y04469*
G37*
G36*
X0343Y04753D02*
Y04686D01*
X03314*
Y04754*
X03425*
X0343Y04753*
G37*
G36*
X02089Y04685D02*
X01945D01*
X01944Y04685*
Y04753*
X02089*
Y04685*
G37*
G36*
X03543Y04129D02*
X03539Y04125D01*
X0347*
Y04139*
X0347Y04144*
X03467Y04147*
X03464Y0415*
X03459Y04151*
X03455Y0415*
X03451Y04147*
X03449Y04145*
X03446Y04145*
X03444Y04145*
Y04311*
X03496*
Y04562*
X0344*
Y04755*
X03543*
Y04129*
G37*
G36*
X03434Y0413D02*
X03433Y04129D01*
X03307*
Y04197*
X03434*
Y0413*
G37*
G36*
X03438Y04243D02*
X0335D01*
X03349Y04411*
X03353Y04415*
X03438*
Y04243*
G37*
G36*
X02038Y0423D02*
X0195D01*
X01949Y04398*
X01953Y04402*
X02038*
Y0423*
G37*
%LNatfc_copper_signal_bot-2*%
%LPC*%
G36*
X03507Y04692D02*
X03502Y04691D01*
X03497Y04688*
X03494Y04683*
X03493Y04678*
X03494Y04673*
X03497Y04668*
X03502Y04665*
X03507Y04664*
X03512Y04665*
X03517Y04668*
X0352Y04673*
X03521Y04678*
X0352Y04683*
X03517Y04688*
X03512Y04691*
X03507Y04692*
G37*
%LNatfc_copper_signal_bot-3*%
%LPD*%
G54D10*
X04041Y03886D02*
X0405Y03895D01*
X01546Y02018D02*
Y02066D01*
X04441Y03448D02*
X04483D01*
X03133Y0322D02*
X03157D01*
X04418Y03404D02*
Y03425D01*
X0265Y02413D02*
X02685Y02447D01*
Y02488*
X02789Y01966D02*
Y01988D01*
X0517Y04331D02*
Y04359D01*
X04521Y03328D02*
X04545Y03352D01*
X04521Y03314D02*
Y03328D01*
X01546Y02066D02*
Y02431D01*
X01316Y02835D02*
X01318Y02837D01*
X01284Y02835D02*
X01316D01*
X0127D02*
X01284D01*
X01239Y02804D02*
X0127Y02835D01*
X01239Y02738D02*
Y02804D01*
Y02738D02*
X01546Y02431D01*
X01542Y02014D02*
X01546Y02018D01*
X01518Y02014D02*
X01542D01*
X01549Y03661D02*
X0156D01*
X01284Y02835D02*
Y02948D01*
X01539Y02985D02*
X01656D01*
X01542Y03296D02*
X01648D01*
X01682Y03011D02*
Y03262D01*
X01656Y02985D02*
X01682Y03011D01*
X01648Y03296D02*
X01682Y03262D01*
X02651Y0203D02*
X02654D01*
X02634Y02013D02*
X02651Y0203D01*
X04041Y03812D02*
X04062Y03792D01*
X04041Y03812D02*
Y03842D01*
Y03886*
X04418Y03425D02*
X04441Y03448D01*
G54D11*
X06333Y02679D02*
X06336Y02676D01*
X06321Y0251D02*
X06329D01*
X0632Y02509D02*
X06321Y0251D01*
G54D14*
X05272Y03216D03*
Y03157D03*
X04714Y03046D03*
Y03105D03*
X05267Y03407D03*
Y03466D03*
X02883Y01776D03*
Y01717D03*
X03746Y03952D03*
Y03893D03*
X03539D03*
Y03952D03*
X04163Y02567D03*
Y02508D03*
X04386Y02566D03*
Y02507D03*
X03815Y02457D03*
Y02516D03*
X04057Y02457D03*
Y02516D03*
G54D15*
X04217Y02437D03*
X04158D03*
Y02387D03*
X04217D03*
X05277Y03314D03*
X05336D03*
X04003Y03792D03*
X04062D03*
X03911Y03939D03*
X03852D03*
X04139Y03966D03*
X04198D03*
G54D16*
X05195Y04331D03*
X0517D03*
X05146D03*
X0517Y04257D03*
X05146D03*
G54D17*
X05195Y04257D03*
G54D18*
X01581Y02019D03*
X01547D03*
X03619Y03702D03*
X03585D03*
X03454Y04574D03*
X03421D03*
X0193Y04295D03*
X01963D03*
X01926Y0458D03*
X01959D03*
X01922Y04742D03*
X01955D03*
X03448Y04744D03*
X03415D03*
X03459Y043D03*
X03426D03*
X03459Y04139D03*
X03426D03*
X01932Y04132D03*
X01965D03*
X04451Y03979D03*
X04418D03*
X04304Y03381D03*
X0427D03*
X04186Y03389D03*
X04152D03*
X036Y03186D03*
X03567D03*
X03561Y03427D03*
X03594D03*
X03556Y03311D03*
X03522D03*
X0395Y03078D03*
X03983D03*
X03945Y03157D03*
X03912D03*
X0276Y02405D03*
X02727D03*
X03744Y03816D03*
X03777D03*
X0265Y02413D03*
X02615D03*
X02632Y02013D03*
X02597D03*
X02614Y0238D03*
X02649D03*
X02596Y0198D03*
X02631D03*
X03778Y03854D03*
X03744D03*
X03508Y03857D03*
X03542D03*
G54D20*
X01519Y01872D03*
Y01906D03*
X01467Y01872D03*
Y01906D03*
X02559Y0195D03*
Y01983D03*
X04014Y0246D03*
Y02493D03*
X03737Y02462D03*
Y02495D03*
X03042Y0312D03*
Y03086D03*
X03076Y0312D03*
Y03086D03*
X03838Y03225D03*
Y03191D03*
X04483Y03449D03*
Y03414D03*
X04516Y03449D03*
Y03414D03*
X04521Y03314D03*
Y0328D03*
X04566Y03324D03*
Y0329D03*
X03947Y02964D03*
Y02998D03*
X06314Y02502D03*
Y02468D03*
X06336Y02642D03*
Y02676D03*
X03585Y04075D03*
Y04041D03*
X03618Y04075D03*
Y04041D03*
X03188Y03222D03*
Y03187D03*
X03157Y03222D03*
Y03187D03*
X045Y02888D03*
Y02923D03*
X04531D03*
Y02888D03*
X04863Y05052D03*
Y05086D03*
X04657Y05052D03*
Y05086D03*
X04863Y05203D03*
Y05169D03*
X04804Y05202D03*
Y05168D03*
X04657Y05206D03*
Y05172D03*
X04597Y05206D03*
Y05172D03*
X04189Y03502D03*
Y03469D03*
X04114Y03579D03*
Y03546D03*
X0427Y02879D03*
Y02912D03*
X04191Y02952D03*
Y02919D03*
X04192Y03111D03*
Y03144D03*
X04034Y03193D03*
Y03226D03*
X04308Y03145D03*
Y03178D03*
X04149Y03233D03*
Y03266D03*
X04269Y03276D03*
Y03309D03*
X03685Y03343D03*
Y03376D03*
X03882Y03229D03*
Y03262D03*
X03724Y03297D03*
Y03264D03*
X03765Y0334D03*
Y03373D03*
X03881Y03038D03*
Y03071D03*
X03945Y03263D03*
Y03296D03*
X03946Y03343D03*
Y03376D03*
X03687Y03501D03*
Y03534D03*
X03648Y0361D03*
Y03577D03*
X02577Y02443D03*
Y0241D03*
X02722Y01949D03*
Y01982D03*
X02789Y01988D03*
Y02022D03*
X02754Y02023D03*
Y01989D03*
X03562Y03817D03*
Y03782D03*
X03884Y03303D03*
Y03336D03*
X03844Y03506D03*
Y03539D03*
X03807Y03613D03*
Y0358D03*
X03678Y03073D03*
Y03106D03*
X03602Y02916D03*
Y02949D03*
X03523Y02993D03*
Y02959D03*
X03602Y02764D03*
Y02731D03*
X04267Y035D03*
Y03467D03*
X03843Y03297D03*
Y03264D03*
X04372Y02845D03*
Y0288D03*
G54D23*
X03415Y03224D03*
X0349D03*
X03482Y03311D03*
X03407D03*
G54D29*
X04031Y03742D03*
Y03667D03*
X04094D03*
Y03742D03*
G54D30*
X01942Y02152D03*
Y02038D03*
G54D38*
X03786Y0261D03*
Y02725D03*
X03984Y02742D03*
Y02627D03*
G54D53*
X02519Y02446D02*
X02577D01*
X02668Y01946D02*
X02722D01*
X02635Y01962D02*
Y01982D01*
X02485Y01947D02*
X02559D01*
X02802Y0211D02*
Y02167D01*
X02597Y02034D02*
X02625Y02062D01*
X02754*
X02677Y02035D02*
X02721D01*
X02725Y02031*
X02754Y02062D02*
X02802Y0211D01*
X02771Y02045D02*
X02785D01*
X0277Y02046D02*
X02771Y02045D01*
X02739Y02046D02*
X0277D01*
X02732Y0204D02*
X02739Y02046D01*
X02732Y02038D02*
Y0204D01*
X02725Y02031D02*
X02732Y02038D01*
X02728Y02311D02*
X02818D01*
X02877Y02251*
Y02137D02*
Y02251D01*
X02785Y02045D02*
X02877Y02137D01*
X03487Y04075D02*
X03585D01*
X03459Y04103D02*
X03487Y04075D01*
X03459Y04103D02*
Y04139D01*
X0517Y04257D02*
Y0429D01*
X0144Y01968D02*
X01467D01*
X01417Y01992D02*
X0144Y01968D01*
X01417Y01992D02*
Y02019D01*
X01433Y02036*
X01467*
X01469Y02034*
X01674Y02019D02*
X01718Y01975D01*
X01581Y02019D02*
X01674D01*
X06336Y02609D02*
Y02642D01*
X01445Y02014D02*
X01469D01*
X01705Y01906D02*
X01718Y01894D01*
X01519Y01906D02*
X01705D01*
X01467D02*
X01519D01*
X02597Y02013D02*
Y02034D01*
X01718Y01975D02*
X01722Y0197D01*
X04952Y0401D02*
X04994Y04052D01*
X04952Y03821D02*
Y0401D01*
X04915Y04025D02*
X04925Y04035D01*
X04915Y03822D02*
Y04025D01*
X01518Y01966D02*
Y01994D01*
X02556Y0237D02*
X02603D01*
X02509Y02456D02*
X02519Y02446D01*
X02613Y0238D02*
Y02411D01*
X02603Y0237D02*
X02613Y0238D01*
X02616Y01944D02*
X02635Y01962D01*
X02596Y01982D02*
Y02012D01*
X02557Y02013D02*
X02595D01*
X02538Y02032D02*
X02557Y02013D01*
X04003Y03792D02*
Y03795D01*
X04016Y03808*
Y03842*
X0369Y03818D02*
X03738D01*
Y03851*
X03741Y03854*
X04714Y03029D02*
Y03046D01*
Y03029D02*
X04728Y03015D01*
X02677Y02362D02*
Y02389D01*
Y02362D02*
X02728Y02311D01*
X03557Y03705D02*
X03582D01*
X02754Y02025D02*
X02789D01*
G54D54*
X04295Y04009D02*
X04772Y04486D01*
X04295Y03687D02*
Y04009D01*
X04147Y03539D02*
X04295Y03687D01*
X03953Y03519D02*
X03968Y03504D01*
Y03468D02*
Y03504D01*
Y03468D02*
X04038Y03398D01*
X03719Y03177D02*
X03799D01*
X03699Y03157D02*
X03719Y03177D01*
X03625Y03157D02*
X03699D01*
X03157Y03188D02*
X03514D01*
X03711Y03201D02*
X03793D01*
X03833Y03161D02*
X03864D01*
X03793Y03201D02*
X03833Y03161D01*
X03824Y03151D02*
Y03152D01*
X03799Y03177D02*
X03824Y03152D01*
Y03151D02*
X03826Y03149D01*
X03736Y02861D02*
X03744Y02854D01*
X03799*
X03519Y02818D02*
X0385D01*
X03519Y02818D02*
X03519Y02818D01*
X0385D02*
X03897Y02866D01*
X03799Y02854D02*
X03807Y02862D01*
X03822*
X03823Y0286*
X03858*
X03893Y02896*
X03629Y03059D02*
X03672Y03016D01*
X03515Y03059D02*
X03629D01*
X03476Y03019D02*
X03515Y03059D01*
X03672Y03016D02*
X03846D01*
X03862Y03*
X03534Y03074D02*
X03543Y03083D01*
X03393Y03062D02*
X03404Y03074D01*
X0289Y03163D02*
X0299Y03062D01*
X03393*
X03404Y03074D02*
X03534D01*
X03427Y02762D02*
X03504Y02838D01*
X0354*
X03515Y02818D02*
X03519D01*
X03649Y03401D02*
X0397D01*
X03648Y034D02*
X03649Y03401D01*
X03634Y034D02*
X03648D01*
X03633Y03401D02*
X03634Y034D01*
X035Y03401D02*
X03633D01*
X03864Y03161D02*
X03893Y0319D01*
X03996Y03178D02*
X0401Y03165D01*
X03891Y03171D02*
X03898Y03178D01*
X03996*
X03893Y0319D02*
X03949D01*
X0401Y03251*
X03826Y03149D02*
X0387D01*
X03543Y03083D02*
X03634D01*
X02986Y03111D02*
Y03178D01*
X03071Y03264*
X03285Y03414D02*
X03444D01*
X03498Y0336*
X05425Y04748D02*
X05452Y0472D01*
X05425Y04748D02*
Y04772D01*
X05387Y0481D02*
X05425Y04772D01*
X05326Y04802D02*
X05337Y04812D01*
X05326Y04736D02*
Y04802D01*
Y04736D02*
X0537Y04692D01*
X04835Y0296D02*
X05008Y03132D01*
Y03922D02*
X05426Y04341D01*
X05008Y03132D02*
Y03922D01*
X05086Y03956D02*
X05448Y04318D01*
X05086Y03194D02*
Y03956D01*
X04837Y02944D02*
X05086Y03194D01*
X05098Y03929D02*
X05468Y04299D01*
X05098Y03189D02*
Y03929D01*
X04838Y02929D02*
X05098Y03189D01*
X047Y02929D02*
X04838D01*
X04468Y02696D02*
X047Y02929D01*
X0424Y02696D02*
X04468D01*
X04283Y02712D02*
X04464D01*
X04696Y02944*
X04837*
X04694Y0296D02*
X04835D01*
X04462Y02729D02*
X04694Y0296D01*
X04996Y03137D02*
Y0396D01*
X04834Y02976D02*
X04996Y03137D01*
X04665Y02976D02*
X04834D01*
X04314Y02729D02*
X04462D01*
X04345Y02741D02*
X04457D01*
X04578Y02862*
Y02889*
X04665Y02976*
X04307Y02779D02*
X04345Y02741D01*
X03137Y03264D02*
X03285Y03414D01*
X03071Y03264D02*
X03137D01*
X03128Y0333D02*
X03282Y03484D01*
X02898Y0333D02*
X03128D01*
X02823Y03406D02*
X02898Y0333D01*
X03543Y03216D02*
Y03228D01*
X03514Y03188D02*
X03543Y03216D01*
X03673Y0324D02*
X03711Y03201D01*
X037Y03129D02*
X03838D01*
X03692Y03137D02*
X037Y03129D01*
X0387Y03149D02*
X03891Y0317D01*
Y03171*
X03665Y03137D02*
X03692D01*
X03839Y03131D02*
X03933D01*
X03838Y03129D02*
X03839Y03131D01*
X03653Y03125D02*
X03665Y03137D01*
X03653Y03102D02*
Y03125D01*
X03606Y03137D02*
X03625Y03157D01*
X03516Y03137D02*
X03606D01*
X03634Y03083D02*
X03653Y03102D01*
X03453Y03145D02*
X03508D01*
X03393Y03086D02*
X03453Y03145D01*
X03076Y03086D02*
X03393D01*
X03555Y0324D02*
X03673D01*
X03543Y03228D02*
X03555Y0324D01*
X03751Y03318D02*
X03778D01*
X03782Y03322*
X03747D02*
X0375Y03319D01*
X03853Y03322D02*
X03862Y03331D01*
X0355Y0336D02*
X03587Y03322D01*
X03836D02*
X03853D01*
X03587D02*
X03614D01*
X03835Y03322D02*
X03836Y03322D01*
X03782Y03322D02*
X03835D01*
X03614D02*
X0367D01*
X03614Y03322D02*
X03614Y03322D01*
X03699D02*
X03747D01*
X03699Y03322D02*
X03699Y03322D01*
X0367Y03322D02*
X03699D01*
X0367Y03322D02*
X0367Y03322D01*
X03862Y03331D02*
Y03366D01*
X03876Y0338*
X03883*
X03744Y03557D02*
X03746Y03559D01*
X0349Y0352D02*
X03553D01*
X03553Y0352*
X03567*
X03569Y03519*
X03625*
X03462Y03522D02*
X03489D01*
X0344Y035D02*
X03462Y03522D01*
X02972Y035D02*
X0344D01*
X03282Y03484D02*
X03595D01*
X03639Y0344*
X03852D02*
X0386Y03448D01*
X03836Y0344D02*
X03852D01*
X03639D02*
X03692D01*
X03835Y0344D02*
X03836Y0344D01*
X03692Y0344D02*
X03835D01*
X03692Y0344D02*
X03692Y0344D01*
X03449Y04042D02*
X03626D01*
X04048Y03519D02*
X04086Y0348D01*
Y03399D02*
Y0348D01*
X04068Y03381D02*
X04086Y03399D01*
X03994Y03395D02*
Y03423D01*
X04051Y03359D02*
Y03386D01*
X04038Y03398D02*
X04051Y03386D01*
X03994Y03395D02*
X04024Y03364D01*
X04024D02*
X0405Y03339D01*
X04024Y03364D02*
X04024D01*
X04038Y03398D02*
X04038D01*
X04051Y03359D02*
X04068Y03342D01*
X03917Y03578D02*
X03934Y03561D01*
X03949*
X03964Y03545*
X04307Y03633D02*
Y0398D01*
X04822Y04495*
Y05026*
X04834Y04463D02*
Y04861D01*
X04863Y0489D02*
Y05052D01*
X04834Y04861D02*
X04863Y0489D01*
X0435Y0398D02*
X04834Y04463D01*
X0435Y03649D02*
Y0398D01*
X04335Y03635D02*
X0435Y03649D01*
X04335Y03635D02*
X04335D01*
X04319Y03618D02*
X04335Y03635D01*
X04319Y03618D02*
Y03618D01*
X0423Y03556D02*
X04307Y03633D01*
X04186Y03539D02*
X04203Y03556D01*
X0423*
X04226Y03539D02*
X0424D01*
X04319Y03618*
X04476Y03727D02*
Y03844D01*
X04265Y03539D02*
X04287D01*
X04476Y03727*
X04267Y03192D02*
Y03196D01*
X04265Y03199D02*
X04267Y03196D01*
X03933Y03131D02*
X0395Y03114D01*
Y03111D02*
Y03114D01*
X03873Y0356D02*
X03875Y03558D01*
X03829Y0356D02*
X03873D01*
X03827Y03559D02*
X03829Y0356D01*
X03746Y03559D02*
X03827D01*
X03889Y03558D02*
X03901Y03547D01*
X03875Y03558D02*
X03889D01*
X03912Y03519D02*
X03953D01*
X03862Y02974D02*
Y03D01*
X02989Y03019D02*
X03476D01*
X03489Y03522D02*
X03489Y03521D01*
X02917Y03445D02*
X02972Y035D01*
X02875Y03134D02*
X02989Y03019D01*
X02831Y0272D02*
X03417D01*
X0266Y02549D02*
X02831Y0272D01*
X04839Y05145D02*
X04863Y05169D01*
X04839Y05043D02*
Y05145D01*
X04822Y05026D02*
X04839Y05043D01*
X04772Y05136D02*
X04804Y05168D01*
X04772Y04486D02*
Y05136D01*
X03418Y04011D02*
X03449Y04042D01*
X03418Y03744D02*
Y04011D01*
X04128Y03282D02*
Y03364D01*
X04097Y03251D02*
X04128Y03282D01*
X0401Y03251D02*
X04097D01*
X03661Y04075D02*
X03662Y04075D01*
X03618Y04075D02*
X03661D01*
X03418Y03744D02*
X03487Y03675D01*
X03886*
X04106Y03383D02*
X04109D01*
X04315Y03271D02*
X04322D01*
X04255Y03199D02*
X04265D01*
X04248Y03206D02*
X04255Y03199D01*
X04179Y03206D02*
X04248D01*
X04138Y03165D02*
X04179Y03206D01*
X0401Y03165D02*
X04138D01*
X02279Y02953D02*
X0247Y02762D01*
X06022Y04267D02*
X06131Y04158D01*
X05472Y04267D02*
X06022D01*
X02623Y03163D02*
X0289D01*
X02598Y03187D02*
X02623Y03163D01*
X02476Y03187D02*
X02598D01*
X01776Y01629D02*
X0182Y01584D01*
X01896*
X01776Y0281D02*
X02332Y03366D01*
X01776Y01629D02*
Y0281D01*
X02797Y03134D02*
X02875D01*
X02332Y03366D02*
X02801D01*
X02852Y03315*
X03154*
X02316Y03406D02*
X02823D01*
X02342Y03445D02*
X02917D01*
X03498Y0336D02*
X0355D01*
X01954Y03768D02*
X02316Y03406D01*
X01656Y03768D02*
X01954D01*
X01549Y03661D02*
X01656Y03768D01*
X01594Y04193D02*
X02342Y03445D01*
X01594Y04193D02*
Y04565D01*
X01262Y04896D02*
X01594Y04565D01*
X03901Y0353D02*
Y03547D01*
X03663Y03557D02*
X03744D01*
X03625Y03519D02*
X03663Y03557D01*
X03862Y02974D02*
X03879Y02956D01*
X03508Y03145D02*
X03516Y03137D01*
X05562Y04366D02*
X05744Y04547D01*
X05588Y04341D02*
X05779Y04532D01*
X0561Y04318D02*
X05811Y04519D01*
X05629Y04299D02*
X05838Y04508D01*
X05401Y04366D02*
X05562D01*
X04996Y0396D02*
X05401Y04366D01*
X05426Y04341D02*
X05588D01*
X05448Y04318D02*
X0561D01*
X05468Y04299D02*
X05629D01*
X0574Y04783D02*
X05838Y04685D01*
X05515Y04783D02*
X0574D01*
X05732Y04751D02*
X05811Y04673D01*
X05496Y04751D02*
X05732D01*
X05724Y0472D02*
X05779Y04665D01*
X05452Y0472D02*
X05724D01*
X05744Y04547D02*
Y04657D01*
X05708Y04692D02*
X05744Y04657D01*
X0537Y04692D02*
X05708D01*
X05838Y04508D02*
Y04685D01*
X05811Y04519D02*
Y04673D01*
X05779Y04532D02*
Y04665D01*
X04154Y02845D02*
X04372D01*
X04133Y02866D02*
X04154Y02845D01*
X03897Y02866D02*
X04133D01*
X0247Y02762D02*
X03427D01*
X03417Y0272D02*
X03515Y02818D01*
X04188Y02748D02*
X0424Y02696D01*
X04188Y02748D02*
Y02799D01*
X04228Y02791D02*
Y02799D01*
Y02791D02*
X04251Y02767D01*
Y02744D02*
Y02767D01*
Y02744D02*
X04283Y02712D01*
X04267Y02775D02*
X04314Y02729D01*
X04267Y02775D02*
Y02799D01*
X04307Y02779D02*
Y02799D01*
X04531Y02923D02*
X04557D01*
X04559Y02925*
X04322Y03271D02*
X04465Y03413D01*
X03154Y03315D02*
X03303Y03464D01*
X03436*
X03901Y0353D02*
X03912Y03519D01*
X03917Y03578D02*
Y03643D01*
X03886Y03675D02*
X03917Y03643D01*
X04109Y03383D02*
X04128Y03364D01*
X0397Y03401D02*
X04015Y03355D01*
Y03326D02*
Y03355D01*
Y03326D02*
X04033Y03309D01*
X0405Y03321D02*
X04068Y03303D01*
X0386Y03448D02*
X03969D01*
X0405Y03321D02*
Y03339D01*
X03969Y03448D02*
X03994Y03423D01*
X03964Y03541D02*
X03987Y03519D01*
X04048*
X03964Y03541D02*
Y03545D01*
X05487Y04812D02*
Y05002D01*
Y04812D02*
X05515Y04783D01*
X05436Y04811D02*
Y04999D01*
Y04811D02*
X05496Y04751D01*
X05387Y0481D02*
Y05004D01*
X05337Y04812D02*
Y05004D01*
X03623Y03706D02*
X03642D01*
X03436Y03464D02*
X035Y03401D01*
X04465Y03413D02*
X04483D01*
X04516*
G54D55*
X03614Y02858D02*
X0365D01*
X03653Y02861*
X03736*
X04304Y03023D02*
X04315Y03012D01*
X04323*
X03893Y02896D02*
X03941D01*
X04239Y02977D02*
X04255Y02962D01*
X0404Y02892D02*
X04125Y02977D01*
X04239*
X04531Y02888D02*
X04557D01*
X04854Y04709D02*
X04986Y0484D01*
X04854Y03877D02*
Y04709D01*
X04867Y04704D02*
X05038Y04875D01*
X04867Y03871D02*
Y04704D01*
X04547Y0357D02*
X04854Y03877D01*
X04552Y03557D02*
X04867Y03871D01*
X04418Y0357D02*
X04547D01*
X04396Y03548D02*
X04418Y0357D01*
X04392Y03548D02*
X04396D01*
X04291Y03447D02*
X04392Y03548D01*
X04423Y03557D02*
X04552D01*
X04318Y03452D02*
X04423Y03557D01*
X04318Y03437D02*
Y03452D01*
X04299Y03417D02*
X04318Y03437D01*
X04304Y0302D02*
Y03023D01*
X04323Y03012D02*
X0435Y02985D01*
X04452*
X04343Y02961D02*
X04372Y02932D01*
X03455Y02809D02*
X03505Y02858D01*
X03574*
X03614D02*
X03614Y02858D01*
X03599Y02858D02*
X03614D01*
X03599Y02858D02*
X03599Y02858D01*
X03575Y02858D02*
X03599D01*
X03574Y02858D02*
X03575Y02858D01*
X03945Y02892D02*
X0404D01*
X03941Y02896D02*
X03945Y02892D01*
X02561Y02809D02*
X03455D01*
X04372Y0288D02*
Y02932D01*
X02439Y02842D02*
X02528D01*
X02561Y02809*
X04265Y03421D02*
X04291Y03447D01*
X04986Y0484D02*
Y05027D01*
X05038Y04875D02*
Y05026D01*
X04255Y02962D02*
X04304D01*
X04557Y02888D02*
X04559Y02889D01*
X04452Y02985D02*
X045Y02937D01*
Y02923D02*
Y02937D01*
Y02888D02*
X04531D01*
G54D56*
X0432Y03118D02*
X04336Y03134D01*
X04283Y03118D02*
X0432D01*
X04275Y03125D02*
X04283Y03118D01*
X04275Y03125D02*
Y03153D01*
X04273Y03013D02*
X0432Y0306D01*
X04113Y03013D02*
X04273D01*
X04012Y02912D02*
X04113Y03013D01*
X0424Y03039D02*
X04275Y03073D01*
X04245Y03061D02*
X0427Y03086D01*
X04063Y03061D02*
X04245D01*
X04275Y03073D02*
X04484D01*
X0427Y03086D02*
X04479D01*
X04122Y03606D02*
X04177D01*
X04121Y03607D02*
X04122Y03606D01*
X04177D02*
X04277Y03706D01*
X04068Y03588D02*
X04088Y03607D01*
X04121*
X04068Y03539D02*
Y03588D01*
X04078Y03625D02*
X04161D01*
X04055Y03602D02*
X04078Y03625D01*
X04055Y03563D02*
Y03602D01*
X04161Y03625D02*
X04264Y03729D01*
X04141Y03641D02*
X04244Y03744D01*
X04062Y03641D02*
X04141D01*
X03989Y03568D02*
X04062Y03641D01*
X03989Y03545D02*
Y03568D01*
Y03545D02*
X03992Y03543D01*
X04244Y04079D02*
X04568Y04403D01*
X04244Y03744D02*
Y04079D01*
X04264Y03729D02*
Y04058D01*
X04031Y03539D02*
X04055Y03563D01*
X04029Y03539D02*
X04031D01*
X04264Y04058D02*
X04625Y04419D01*
X0443Y03544D02*
X04599D01*
X04334Y03448D02*
X0443Y03544D01*
X04599D02*
X04796Y03741D01*
X04843*
X04334Y03338D02*
Y03448D01*
X04289Y0326D02*
Y03293D01*
X04334Y03338*
X04287Y03259D02*
X04289Y0326D01*
X04287Y03185D02*
Y03259D01*
X04278Y03175D02*
X04287Y03185D01*
X04256Y03175D02*
X04278D01*
X04238Y03157D02*
X04256Y03175D01*
X042Y03078D02*
X04238Y03116D01*
X04058Y03078D02*
X042D01*
X04018Y03038D02*
X04058Y03078D01*
X04879Y03673D02*
Y03741D01*
X0411Y03039D02*
X0424D01*
X03986Y02959D02*
X04002D01*
X04049Y02978D02*
X0411Y03039D01*
X0402Y02978D02*
X04049D01*
X04002Y02959D02*
X0402Y02978D01*
X04008Y02917D02*
X04012Y02912D01*
X04Y02909D02*
X04008Y02917D01*
X03952Y02909D02*
X04D01*
X04952Y0371D02*
Y03741D01*
X04796Y03555D02*
X04952Y0371D01*
X04697Y03555D02*
X04796D01*
X04663Y03381D02*
Y0352D01*
X04697Y03555*
X04915Y03692D02*
Y03741D01*
X04794Y0357D02*
X04915Y03692D01*
X04695Y0357D02*
X04794D01*
X0465Y03376D02*
Y03526D01*
X04695Y0357*
X04063Y03061D02*
X04063Y03061D01*
X04001Y02999D02*
X04063Y03061D01*
X03986Y02999D02*
X04001D01*
X04795Y0359D02*
X04879Y03673D01*
X04696Y0359D02*
X04795D01*
X04637Y03531D02*
X04696Y0359D01*
X0432Y0306D02*
X04489D01*
X04479Y03086D02*
X0455Y03157D01*
X04484Y03073D02*
X04555Y03144D01*
X04489Y0306D02*
X0456Y03131D01*
X04346Y03134D02*
X0442Y03208D01*
X04483*
X0456Y03131D02*
X04679D01*
X04555Y03144D02*
X04674D01*
X0455Y03157D02*
X04669D01*
X04679Y03131D02*
X04704Y03156D01*
X04674Y03144D02*
X0469Y0316D01*
Y03336*
X04669Y03157D02*
X04674Y03162D01*
Y03334*
X04637Y03371D02*
X04674Y03334D01*
X0465Y03376D02*
X0469Y03336D01*
X04704Y03156D02*
Y0334D01*
X04663Y03381D02*
X04704Y0334D01*
X04637Y03371D02*
Y03531D01*
X04277Y03706D02*
Y04026D01*
X04308Y04927D02*
Y04959D01*
X04172Y05094D02*
Y05156D01*
Y05094D02*
X04308Y04959D01*
X04125Y05203D02*
X04172Y05156D01*
X04229Y04885D02*
Y04977D01*
X04125Y05081D02*
X04229Y04977D01*
X04125Y05081D02*
Y05104D01*
X04156Y04818D02*
Y05003D01*
X04072Y05086D02*
X04156Y05003D01*
X04025Y05203D02*
X04072Y05156D01*
Y05086D02*
Y05156D01*
X04025Y05104D02*
X04108Y05021D01*
Y04786D02*
Y05021D01*
X04556Y0328D02*
X04566Y0329D01*
X05324Y04324D02*
Y04428D01*
X05257Y04257D02*
X05324Y04324D01*
X05195Y04257D02*
X05257D01*
X05245Y04382D02*
Y04428D01*
X05195Y04331D02*
X05245Y04382D01*
X05146Y04407D02*
X05167Y04428D01*
X05146Y04331D02*
Y04407D01*
X05088Y04314D02*
X05146Y04257D01*
X05088Y04314D02*
Y04428D01*
X04568Y05143D02*
X04597Y05172D01*
X04568Y04403D02*
Y05143D01*
X04238Y03116D02*
Y03157D01*
X04521Y0328D02*
X04556D01*
X03042Y03086D02*
X03076D01*
X03986Y03038D02*
X04018D01*
X04483Y03208D02*
X04521Y03245D01*
Y0328*
X04336Y03134D02*
X04346D01*
X04277Y04026D02*
X04649Y04398D01*
Y05044*
X04657Y05052*
X04625Y04419D02*
Y05141D01*
X04657Y05172*
G54D57*
X05226Y02769D02*
X06321D01*
X05185Y02811D02*
X05226Y02769D01*
X06321D02*
X06382Y02709D01*
X05196Y02755D02*
X06311D01*
X06362Y02704*
X05181Y02771D02*
X05196Y02755D01*
X04717Y03444D02*
X04732D01*
X04745Y03457D02*
X04789D01*
X04732Y03444D02*
X04745Y03457D01*
X04806Y0339D02*
X04878D01*
X04792Y03404D02*
X04806Y0339D01*
X06362Y02677D02*
Y02704D01*
Y02677D02*
X0638Y02659D01*
X01492Y02D02*
Y02035D01*
Y02062*
Y02035D02*
X01493Y02034D01*
X01518*
X01486Y01994D02*
X01492Y02D01*
X01469Y01994D02*
X01486D01*
X0638Y02659D02*
X06382D01*
X06333Y02679D02*
Y02707D01*
X01546Y02066D02*
X01547Y02064D01*
X01524Y02088D02*
X01546Y02066D01*
X06336Y04159D02*
X0645D01*
X06508Y04101*
Y01991D02*
Y04101D01*
X06369Y01852D02*
X06508Y01991D01*
X04076Y01852D02*
X06369D01*
X03748Y01524D02*
X04076Y01852D01*
X01574Y01524D02*
X03748D01*
X01338Y0176D02*
X01574Y01524D01*
X01338Y0176D02*
Y01986D01*
X0144Y02088*
X01524*
X01547Y02019D02*
Y02064D01*
X0513Y03455D02*
X05193D01*
X0513Y03103D02*
X05191D01*
X0467Y0311D02*
X04709D01*
X05272Y03105D02*
Y03157D01*
X0514Y02973D02*
X05272Y03105D01*
X04681Y02811D02*
X0472Y02771D01*
X05181*
X04748Y02811D02*
X05185D01*
G54D58*
X0369Y03893D02*
X03789D01*
X0378Y03854D02*
Y03884D01*
X03966Y02457D02*
X04057D01*
X04564Y03327D02*
X04582Y03346D01*
X04217Y02567D02*
X04218Y02566D01*
X04038Y02667D02*
X04137Y02567D01*
X03897Y02667D02*
X04038D01*
X04133Y02567D02*
X04137D01*
X03506Y03857D02*
Y03892D01*
X03775Y02457D02*
X03868D01*
X03737D02*
X03775D01*
X03Y041D02*
Y04114D01*
X03146Y0426D02*
X03395D01*
X03Y04114D02*
X03146Y0426D01*
X02968Y04124D02*
X03138Y04294D01*
X02968Y04099D02*
Y04124D01*
X03138Y04294D02*
Y0435D01*
X04714Y03105D02*
X04793D01*
X04863Y05216D02*
X04906D01*
X04863Y05098D02*
X04909D01*
X04657Y05219D02*
X04696D01*
X04657Y05098D02*
X04699D01*
X04582Y03346D02*
Y0335D01*
X03937Y02456D02*
X03965D01*
X03019Y03118D02*
X03039D01*
X03078Y03123D02*
Y03137D01*
X03076Y0312D02*
X03078Y03123D01*
X03799Y03903D02*
Y03977D01*
X03789Y03893D02*
X03799Y03903D01*
Y03977D02*
X03897Y04075D01*
X04516Y03449D02*
Y03472D01*
X03188Y03232D02*
X03196Y0324D01*
X03188Y03222D02*
Y03232D01*
X05338Y03279D02*
Y03312D01*
X03821Y03772D02*
Y0383D01*
X038Y03751D02*
X03821Y03772D01*
X03798Y03854D02*
X03821Y0383D01*
X03777Y03816D02*
X03794D01*
X03671Y03751D02*
Y03793D01*
X0369Y03812*
Y03818*
X04393Y03881D02*
X04417D01*
X03657Y03854D02*
X03688D01*
X03712Y03952D02*
X03745D01*
X03539Y03952D02*
X0357D01*
X04137Y02388D02*
X04157D01*
X04386Y02483D02*
Y02507D01*
X04057Y02516D02*
X04083D01*
X04161Y02481D02*
Y02506D01*
X04283Y02527D02*
X04312D01*
X03965Y02493D02*
X04014D01*
Y02521*
X03815Y02491D02*
Y02516D01*
X03737Y02495D02*
Y02525D01*
X06314Y02468D02*
X06323Y02459D01*
X06336*
X03138Y0435D02*
X03324Y04536D01*
Y04554*
X0339Y0462*
X02408Y04098D02*
Y0412D01*
X02383Y04146D02*
X02408Y0412D01*
X02176Y04146D02*
X02383D01*
X0207Y04251D02*
X02176Y04146D01*
X01994Y04251D02*
X0207D01*
X0244Y04098D02*
Y04174D01*
X02373Y04242D02*
X0244Y04174D01*
X02279Y04242D02*
X02373D01*
X02233Y04288D02*
X02279Y04242D01*
X02233Y04288D02*
Y04544D01*
X02155Y04621D02*
X02233Y04544D01*
X01987Y04621D02*
X02155D01*
X01467Y01833D02*
Y01869D01*
X01519Y01832D02*
Y0187D01*
X04757Y05216D02*
X04803D01*
X04553Y0522D02*
X04596D01*
X0435Y02566D02*
X04373D01*
X04315D02*
X0435D01*
X03775Y02489D02*
Y0252D01*
X052Y03157D02*
X05272D01*
X03775Y02457D02*
Y02489D01*
X03897Y04075D02*
X04123D01*
X03471Y03892D02*
X03506D01*
X03538*
X04158Y02437D02*
X04159D01*
X0414D02*
X04158D01*
X03539Y03893D02*
X03593D01*
X03545Y03819D02*
X03546Y03818D01*
X03538Y03892D02*
X03539Y03893D01*
X0414Y04019D02*
Y04058D01*
X04123Y04075D02*
X0414Y04058D01*
X0378Y03884D02*
X03789Y03893D01*
X03471Y03893D02*
X03471Y03892D01*
X04373Y02566D02*
X04377Y02569D01*
X04315Y02491D02*
X04341D01*
X04218Y02437D02*
X04218Y02437D01*
X04218Y02387D02*
D01*
X04119Y02458D02*
X0414Y02437D01*
X04119Y02458D02*
Y02553D01*
X04133Y02567*
X04163D02*
X04217D01*
X03868Y02457D02*
X03868Y02456D01*
X03965D02*
X03966Y02457D01*
X04137Y02567D02*
X04163D01*
X04733Y03157D02*
X04789D01*
X0378Y03854D02*
X03798D01*
X04341Y02491D02*
X0435Y025D01*
Y02538D02*
Y02566D01*
Y025D02*
Y02538D01*
X03965Y02456D02*
X03965Y02456D01*
X03562Y03755D02*
Y03782D01*
X04218Y02387D02*
Y02437D01*
X04218Y02437D02*
Y02491D01*
X03545Y03819D02*
Y03857D01*
X03546Y03818D02*
X03562D01*
X03593*
G54D61*
X03659Y02907D02*
X03668Y02898D01*
X03697*
X03787Y02957D02*
X03801D01*
X03697Y02898D02*
X0374Y0294D01*
X03771*
X03787Y02957*
X0368Y02976D02*
X03723D01*
X03637Y03019D02*
X0368Y02976D01*
X03723D02*
X03723Y02977D01*
X035Y03019D02*
X03637D01*
X03838Y02952D02*
Y02958D01*
X03819Y02977D02*
X03838Y02958D01*
X03572Y02955D02*
X03589Y02973D01*
X03572Y02949D02*
Y02955D01*
X03558Y02935D02*
X03572Y02949D01*
X03512Y02935D02*
X03558D01*
X03487Y02959D02*
X03512Y02935D01*
X02853Y02959D02*
X03487D01*
X03589Y02973D02*
X03645D01*
X03456Y02976D02*
X035Y03019D01*
X02881Y02976D02*
X03456D01*
X03645Y02973D02*
X03659Y02958D01*
Y02907D02*
Y02958D01*
X03723Y02977D02*
X03819D01*
X02797Y03061D02*
X02881Y02976D01*
X02797Y03061D02*
Y03099D01*
X02698Y03115D02*
X02853Y02959D01*
X02696Y02405D02*
X02727D01*
G54D66*
X06812Y04621D03*
G54D75*
X0497Y04468D03*
G54D76*
X0493Y04428D03*
X05009D03*
X05088D03*
X05167D03*
X05245D03*
X05324D03*
X05403D03*
X0493Y04507D03*
X05009D03*
X05088D03*
X05167D03*
X05245D03*
X05324D03*
G54D77*
X05403Y04507D03*
G54D78*
X00996Y05059D03*
X01095D03*
G54D79*
X00849Y05224D03*
Y05146D03*
X01085Y05303D03*
X01006D03*
X03925Y05203D03*
X04025Y05104D03*
Y05203D03*
X04125Y05104D03*
Y05203D03*
X04225Y05104D03*
Y05203D03*
X04325Y05104D03*
Y05203D03*
X02698Y03215D03*
G54D80*
X00849Y05185D03*
G54D81*
X01046Y05303D03*
G54D82*
X01046Y05059D03*
G54D83*
X03925Y05104D03*
G54D84*
X02698Y03115D03*
G54D85*
X0164Y05084D03*
Y05265D03*
Y04902D03*
G54D86*
X01542Y03296D03*
Y03159D03*
G54D87*
X02227Y04202D03*
X02605D03*
X02788Y04202D03*
X03166D03*
G54D88*
X03166Y03958D03*
X02977D03*
X02416D03*
X02605D03*
X03258Y04521D03*
X02135D03*
G54D89*
X03258Y05418D03*
Y05025D03*
Y04631D03*
Y04336D03*
Y04139D03*
X02135Y05221D03*
Y04828D03*
Y04434D03*
Y0404D03*
X02696D03*
Y04434D03*
Y04828D03*
Y05221D03*
G54D90*
X03834Y02917D03*
X03791D03*
X06181Y03271D03*
Y03297D03*
X04188Y03464D03*
X04275Y03153D03*
X03685Y03499D03*
X06131Y03997D03*
X04593Y02527D03*
X03637Y02921D03*
X06131Y03971D03*
X03607Y02881D03*
X04593Y02496D03*
X03645Y02877D03*
X06181Y02971D03*
Y02997D03*
X03685Y02881D03*
X0372Y02838D03*
X03673Y02838D03*
X03755Y02881D03*
X03791Y02877D03*
X04264Y03036D03*
X04273Y02917D03*
X06245Y03626D03*
X03646Y03221D03*
X06245Y036D03*
X03607Y03221D03*
X03799Y03153D03*
X03566Y03102D03*
X06331Y03198D03*
Y03171D03*
X03633Y03115D03*
X03681Y03114D03*
X04148Y03225D03*
X03834Y02842D03*
X0383Y02877D03*
X03755Y02921D03*
X03759Y03035D03*
X0372D03*
X06181Y0387D03*
X05103Y02544D03*
X06181Y03896D03*
X05134Y02544D03*
X03607Y02999D03*
Y03038D03*
X0354Y02838D03*
X03566Y02799D03*
X03716D03*
X03606D03*
X03528Y02799D03*
X03594Y02905D03*
X03712Y02956D03*
X03677Y02952D03*
X06181Y03421D03*
Y03447D03*
X03523Y03275D03*
X03523Y03236D03*
X06382Y03471D03*
Y03498D03*
X06426Y03559D03*
X06381Y03521D03*
X03767Y03535D03*
X03641Y03417D03*
X06181Y03121D03*
Y03147D03*
X03881Y03036D03*
X03948Y03161D03*
X03884Y03226D03*
X03838Y03181D03*
X03834Y03228D03*
X0539Y03359D03*
X06003Y041D03*
X06181Y04097D03*
X03607Y0326D03*
X06181Y04071D03*
X06003Y04069D03*
X05359Y03359D03*
X03607Y033D03*
X06181Y02697D03*
Y02671D03*
X03567Y03038D03*
X03528D03*
X03598Y03114D03*
X03607Y03339D03*
Y03378D03*
X06172Y01543D03*
X06198D03*
X03526Y0338D03*
Y0334D03*
X03421Y0344D03*
Y03389D03*
X03358Y03385D03*
Y0344D03*
X06181Y02796D03*
X05055Y03602D03*
X0372Y03154D03*
X03762D03*
X03716Y0311D03*
X03722Y03227D03*
X03799Y0311D03*
X03759D03*
X03761Y03224D03*
X03678Y03073D03*
X0353Y03156D03*
X03559Y03188D03*
X03759Y03299D03*
X03765Y03338D03*
X03879Y03342D03*
X0348Y03503D03*
X04066Y03456D03*
X03992Y03543D03*
X03944Y03539D03*
X04035Y0358D03*
X04444Y03665D03*
X04267Y03192D03*
X04304Y0302D03*
X03952Y02909D03*
X04952Y03741D03*
X03986Y02959D03*
X04915Y03741D03*
X03986Y02999D03*
X04879Y03741D03*
X04476Y03149D03*
X04437D03*
X04476Y03173D03*
X04343Y02961D03*
X04717Y03444D03*
X04868Y03515D03*
Y03483D03*
Y0342D03*
X04582Y0335D03*
X04066Y03035D03*
X03838Y02952D03*
X03834Y03106D03*
X03881Y03114D03*
X0372Y03078D03*
X03799D03*
X03881D03*
X03992Y03075D03*
X03838Y03074D03*
X0427Y02875D03*
X03606Y02955D03*
X0395Y03111D03*
X0384Y02996D03*
X03559Y04342D03*
Y04539D03*
X03461Y03815D03*
X03022Y03871D03*
X03461Y03784D03*
X03022Y0384D03*
X03383Y03772D03*
X02373Y03772D03*
X03383Y03741D03*
X02373Y03741D03*
X03722Y03618D03*
X03834Y02763D03*
X03814Y02704D03*
X06256Y03446D03*
X06181Y03395D03*
X04082Y03685D03*
X04047D03*
X04106D03*
X03603Y04814D03*
Y04791D03*
Y04769D03*
Y04746D03*
Y04724D03*
Y04702D03*
X03607Y04504D03*
Y04479D03*
Y04455D03*
Y0443D03*
Y04406D03*
Y04382D03*
X06181Y03321D03*
X0618Y03719D03*
X06181Y03771D03*
Y03746D03*
X06136Y03759D03*
X06181Y03695D03*
X04015Y0272D03*
X03984D03*
X03948D03*
Y02606D03*
X05055Y03573D03*
Y03541D03*
X06181Y02547D03*
X06383Y02559D03*
X06181Y02521D03*
X06383Y02509D03*
X06181Y02496D03*
X0348Y03125D03*
X03889Y03622D03*
X03842Y03535D03*
X03803Y03578D03*
X03949Y03384D03*
X03948Y035D03*
X04299Y03417D03*
X03127Y03412D03*
X03019Y03118D03*
X03078Y03137D03*
X038Y02996D03*
X03881D03*
X04515Y03472D03*
X03196Y0324D03*
X03133Y0322D03*
X06331Y03771D03*
X05801Y03791D03*
X04992Y02741D03*
X04961D03*
X06331Y03796D03*
X05801Y03822D03*
X03607Y02841D03*
X04015Y02606D03*
X0398D03*
X03794Y03816D03*
X04519Y03594D03*
Y03629D03*
X04444Y03594D03*
Y03629D03*
X03755Y02704D03*
X03783D03*
X03811Y02629D03*
X03783D03*
X03755D03*
X06425Y04181D03*
X06429Y03976D03*
X06421Y03433D03*
X0633Y03425D03*
X06358Y03236D03*
X06374Y03125D03*
X06375Y02809D03*
X0622Y02736D03*
X06136Y02859D03*
X06224Y02925D03*
X06136Y03009D03*
X0622Y03035D03*
Y03185D03*
X06137Y03586D03*
X06224Y0383D03*
X06336Y02959D03*
X06426D03*
Y03009D03*
X06386Y03159D03*
Y03209D03*
X06426Y03359D03*
X06336Y03559D03*
X06386Y03609D03*
X06375Y03709D03*
X06386Y03759D03*
Y03809D03*
X06336Y03859D03*
X06386Y04009D03*
X06186Y04159D03*
X06136Y04059D03*
X06186Y04009D03*
Y03959D03*
X06136Y03909D03*
X06186Y03659D03*
Y03509D03*
X06136Y03459D03*
X06186Y03359D03*
X06136Y03309D03*
Y03159D03*
Y02709D03*
Y02559D03*
X06186Y02609D03*
Y02209D03*
X06136Y02259D03*
X06186Y02309D03*
X06136Y02409D03*
X06186Y02459D03*
X04346Y03027D03*
X04015Y03685D03*
X04114Y0359D03*
X0411Y03755D03*
X04078D03*
X04047D03*
X04019D03*
X03968D03*
X03944D03*
Y03681D03*
X03724Y03539D03*
X0638Y04071D03*
X03724Y035D03*
X0638Y04097D03*
X04031Y03185D03*
X04192Y03153D03*
X03685Y03342D03*
X04188Y03503D03*
X03682Y03539D03*
X03377Y02838D03*
Y02862D03*
X03417Y02838D03*
Y02862D03*
Y02897D03*
Y02921D03*
X03377Y02897D03*
Y02921D03*
X03527Y02917D03*
X06281Y02828D03*
X03555Y02956D03*
X06281Y02854D03*
X03639Y02952D03*
Y02991D03*
X06331Y03321D03*
Y03348D03*
X03568Y03157D03*
X06256Y03471D03*
X03567Y0326D03*
X06256Y03498D03*
X03567Y03221D03*
X06331Y03621D03*
Y03648D03*
X03606Y02724D03*
X04484Y03972D03*
X05448Y04771D03*
X05401D03*
X0535D03*
X03346Y03248D03*
X03275D03*
X03374Y03043D03*
X03342D03*
X03314D03*
X03346Y03114D03*
X03374D03*
X03314D03*
X0356Y03503D03*
X04033Y03309D03*
X04106Y03383D03*
X04307Y03147D03*
X04315Y03271D03*
X06181Y02847D03*
Y02821D03*
Y02871D03*
X0395Y02958D03*
X0419Y03108D03*
X03618Y04563D03*
X03732Y04535D03*
X03737Y04348D03*
X0361Y0432D03*
X03507Y04835D03*
Y04678D03*
X0361Y04642D03*
X0374Y04666D03*
X03734Y04847D03*
X03612Y04872D03*
X03766Y0346D03*
X03761Y03421D03*
X03841Y03504D03*
X06333Y02707D03*
X06181Y02646D03*
X06133Y0221D03*
X06183Y02259D03*
X06245Y0365D03*
X05472Y04267D03*
X06131Y04158D03*
X0643Y02808D03*
X06383Y02659D03*
X06329Y0251D03*
X06334Y02409D03*
Y02359D03*
X06383Y02259D03*
X06334Y02308D03*
X06333Y0226D03*
X06334Y02209D03*
X03127Y03381D03*
X03883Y0338D03*
X03914Y03428D03*
X04068Y03381D03*
Y03303D03*
Y03342D03*
X02373Y0371D03*
X04994Y04052D03*
X04925Y04035D03*
X04915Y03822D03*
X04952Y03821D03*
X05055Y0351D03*
X04843Y03741D03*
X06331Y03296D03*
Y03221D03*
X03603Y03184D03*
X05024Y02741D03*
X05421Y03359D03*
X05801Y03853D03*
X06003Y04037D03*
Y04131D03*
X06181Y04046D03*
X06131Y04022D03*
Y03946D03*
X06181Y04121D03*
X03877Y03424D03*
X03722Y03381D03*
X06336Y04059D03*
X0638Y04046D03*
X03725Y03575D03*
X06429Y02759D03*
X06383Y02309D03*
Y02209D03*
X06181Y02571D03*
X04593Y02465D03*
Y02559D03*
X06181Y03171D03*
X0375Y02799D03*
X03725Y033D03*
X03803D03*
X03883Y033D03*
X03646Y03575D03*
X03722Y03342D03*
X038D03*
X03843Y03339D03*
X03946Y0334D03*
X03725Y03418D03*
X038Y03381D03*
X0384D03*
X03803Y03418D03*
X038Y0346D03*
X03022Y03807D03*
X03949Y03227D03*
X038Y03263D03*
X03986Y033D03*
X04104Y03339D03*
X04196Y03381D03*
X03803Y03038D03*
X03603Y035D03*
X03607Y03536D03*
X03764Y03077D03*
X03986Y03038D03*
X03947Y02999D03*
X06181Y03471D03*
X03127Y03475D03*
X03606Y02763D03*
X02373Y03804D03*
X03567Y03301D03*
X03843Y03262D03*
X03946Y03261D03*
X03763D03*
X03383Y0371D03*
X03461Y03847D03*
X03383Y03804D03*
X03022Y03902D03*
X06336Y04109D03*
X06382Y03921D03*
X06336Y03909D03*
X06331Y03821D03*
X06382Y03846D03*
X06471Y03779D03*
X06331Y03671D03*
Y03596D03*
X06382Y03446D03*
Y03246D03*
X06331Y03071D03*
X06281Y02878D03*
Y02803D03*
X06383Y02709D03*
X06336Y02609D03*
Y04159D03*
X0638Y04121D03*
X06331Y03371D03*
Y03746D03*
X06256Y03521D03*
X06331Y03146D03*
X06181Y02721D03*
Y03021D03*
Y02946D03*
Y03096D03*
Y03245D03*
X03563Y03426D03*
X06471Y03704D03*
X06382Y03321D03*
X06245Y03575D03*
X05071Y02544D03*
X05166D03*
X06181Y03845D03*
Y03921D03*
X05801Y03759D03*
X06222Y01543D03*
X06147D03*
X04029Y03539D03*
X04068D03*
X04265D03*
X04147D03*
X04186D03*
X04265Y03421D03*
X03801Y02957D03*
X03764Y02959D03*
X06331Y02996D03*
X06383Y02359D03*
Y02409D03*
Y02609D03*
Y02459D03*
X06336D03*
X06331Y03048D03*
Y03021D03*
X03567Y02841D03*
X03761Y035D03*
X03879Y03539D03*
Y035D03*
X03564Y03578D03*
Y03539D03*
X03525Y03618D03*
X03564D03*
X03682Y03381D03*
X03761D03*
X03522Y03311D03*
X03722Y03263D03*
X0384Y03303D03*
X03879Y03263D03*
X03809Y0362D03*
X03643Y03381D03*
X03642Y03467D03*
X03603Y03424D03*
X03522Y03462D03*
X03723Y03462D03*
X03913Y03384D03*
X03954Y03429D03*
X03678Y0327D03*
X03912Y03157D03*
X038Y03224D03*
X03759Y02996D03*
X03879Y02956D03*
X03881Y02917D03*
X03956Y02795D03*
X0407Y02842D03*
X04228Y02759D03*
X04358Y02814D03*
X03519Y02952D03*
X03681Y02917D03*
X03947Y03077D03*
X03838Y03039D03*
X0372Y02996D03*
X03527D03*
X03948Y03303D03*
X04185Y02909D03*
X04304Y02962D03*
X04196Y02959D03*
X04145Y02996D03*
X0407Y03114D03*
X04035Y03232D03*
X04153Y03275D03*
X04031Y03381D03*
X04149Y03389D03*
X04267Y03456D03*
X04271Y03511D03*
X04228Y03578D03*
X04342Y03618D03*
X03952Y03039D03*
X04027Y0296D03*
X04271Y03314D03*
X04929Y02741D03*
X04188Y02799D03*
X04228D03*
X04267D03*
X04307D03*
X06382Y03298D03*
Y03271D03*
X04559Y03192D03*
X04653D03*
X04622D03*
X0459D03*
X03685Y02999D03*
X04868Y03452D03*
X03685Y03038D03*
X04307Y03188D03*
X04429Y02799D03*
X04468D03*
X04263Y03263D03*
Y03385D03*
X04307Y03389D03*
X05327Y03359D03*
X04429Y02897D03*
X04468D03*
Y02917D03*
X04429D03*
Y03027D03*
Y03003D03*
X04468Y03027D03*
Y03003D03*
X04437Y03283D03*
Y03259D03*
X04476Y03283D03*
Y03259D03*
X04437Y03173D03*
X04429Y03503D03*
Y0348D03*
X04468Y03503D03*
Y0348D03*
X03526Y03577D03*
X06471Y03729D03*
X03526Y03537D03*
X06471Y03755D03*
X03425Y03322D03*
Y03299D03*
X03464Y03322D03*
Y03299D03*
X03433Y03232D03*
X03276Y03209D03*
X03346D03*
X03275Y03279D03*
X03472Y03232D03*
Y03212D03*
X03433D03*
X03346Y03279D03*
X04429Y02822D03*
X04468D03*
X03948Y03618D03*
X03643Y03618D03*
X03461Y03753D03*
X03642Y03706D03*
X03712Y03704D03*
X03557Y03705D03*
X03736Y03704D03*
X03712Y03751D03*
X03736D03*
X03409Y03551D03*
X0337D03*
X03409Y03523D03*
X0337D03*
X03127Y03443D03*
X03685Y03457D03*
Y03418D03*
X04519Y03665D03*
X03976Y03681D03*
X03882Y03575D03*
X03948Y03578D03*
X03803Y03536D03*
Y03496D03*
X06382Y03871D03*
Y03898D03*
X0411Y03535D03*
X04226Y03539D03*
X03988Y035D03*
X03843Y03457D03*
Y03418D03*
G54D91*
X02986Y03111D03*
X02328Y04419D03*
X02423D03*
X02454D03*
X02517D03*
X02486Y04308D03*
X02391D03*
X0289Y04417D03*
X02984D03*
X03015D03*
X03078D03*
X03047Y04306D03*
X02953D03*
X03937Y02456D03*
X04418Y03404D03*
X04308Y04927D03*
X04229Y04885D03*
X04156Y04818D03*
X04108Y04786D03*
X02685Y02488D03*
X01523Y03586D03*
X02862Y03031D03*
X0294Y03007D03*
X05338Y03279D03*
X05271Y03354D03*
X04417Y03881D03*
X03555Y04019D03*
X04283Y02527D03*
X01578Y02877D03*
X01547D03*
X01519D03*
X01374Y03996D03*
X0187Y04629D03*
Y04696D03*
X01866Y04251D03*
Y04188D03*
X0346Y04661D03*
X03523Y04614D03*
X03519Y04267D03*
Y04188D03*
X05169Y04291D03*
X05173Y04362D03*
X0224Y03334D03*
X01492Y02062D03*
X02948Y03357D03*
X04804Y05042D03*
X04597Y05043D03*
X05039Y05238D03*
X04986Y05239D03*
X03463Y04015D03*
X03662Y04075D03*
X04545Y03352D03*
X02279Y02953D03*
X01293Y03037D03*
X01294Y03094D03*
X01301Y03184D03*
X01329Y03038D03*
Y03094D03*
X01264Y03183D03*
X01318Y02837D03*
X02438Y02843D03*
X0266Y02549D03*
X02476Y03187D03*
X04237Y01551D03*
X04117D03*
X03917D03*
X04197D03*
X04157D03*
X04077D03*
X03997D03*
X03957D03*
X04037D03*
X01445Y02014D03*
X01519Y01832D03*
X01467Y01833D03*
X02873Y03251D03*
X02839Y03214D03*
Y03251D03*
X02797Y03134D03*
Y03099D03*
X02063Y04138D03*
X01896Y01584D03*
X01549Y03661D03*
X01262Y04896D03*
X01284Y02948D03*
X0333Y04144D03*
Y04179D03*
X03332Y04702D03*
Y04735D03*
X02064Y04701D03*
Y04736D03*
X02063Y0417D03*
X0281Y04866D03*
X0287D03*
X0293D03*
X0299D03*
X0305D03*
X0311D03*
X0317D03*
X02594Y04865D03*
X02534D03*
X02474D03*
X02414D03*
X02354D03*
X02294D03*
X02234D03*
X0244Y04098D03*
X02283D03*
X02377D03*
X02843Y041D03*
X02938D03*
X0236Y04308D03*
X02921Y04306D03*
X02858D03*
X0311D03*
X02827D03*
X02297Y04308D03*
X02265D03*
X03126Y041D03*
X03031D03*
X03D03*
X02968Y04099D03*
X02566Y04098D03*
X02471D03*
X02408D03*
X05485Y05159D03*
X05436D03*
X05387D03*
X05338D03*
X01467Y01968D03*
X01519Y01966D03*
X0491Y05098D03*
X04757Y05216D03*
X04907Y05217D03*
X047Y05099D03*
Y05216D03*
X04553Y0522D03*
X04878Y0339D03*
X03897Y02667D03*
X0435Y02566D03*
X04014Y02521D03*
X03775Y0252D03*
X03737Y02525D03*
X0467Y0311D03*
X0513Y03103D03*
Y03455D03*
X03775Y02457D03*
Y02489D03*
X03506Y03892D03*
X01259Y03093D03*
X0126Y03037D03*
X01539Y02985D03*
X01011Y04733D03*
X01042Y04734D03*
X01072D03*
X01011Y04703D03*
X01066Y04704D03*
X0101Y04673D03*
X01043Y04674D03*
X017Y03659D03*
X00999Y02973D03*
X01031D03*
X01062D03*
X01092D03*
X01122D03*
X01001Y03151D03*
X0103D03*
X01062Y0315D03*
X01094Y03149D03*
X01845Y02591D03*
X01888D03*
X01934D03*
X0198D03*
X02028D03*
Y02634D03*
X0198D03*
X01934D03*
X01888D03*
X01845D03*
X01925Y02213D03*
X01963Y02214D03*
X02Y02213D03*
X02039Y02214D03*
X01718Y01819D03*
Y01857D03*
Y01894D03*
Y01934D03*
Y01975D03*
X01712Y01609D03*
X01889Y01621D03*
X02476Y02332D03*
X02506D03*
X02459Y02056D03*
X02491Y0207D03*
X02843Y02143D03*
X02844Y02244D03*
X04141Y03927D03*
X0414Y04019D03*
X03908Y04018D03*
X03905Y03983D03*
X03912Y03893D03*
Y0382D03*
X03872Y03939D03*
X04179Y03966D03*
X03471Y03893D03*
X03657Y03854D03*
X0357Y03952D03*
X03712D03*
X03815Y02491D03*
X04085Y02515D03*
X04386Y02483D03*
X04161Y02481D03*
X04137Y02388D03*
X03945Y05023D03*
X03945Y05277D03*
X03944Y04943D03*
X03945Y05356D03*
X02523Y02649D03*
X03995Y03752D03*
X04733Y03157D03*
X04986Y05027D03*
X05038Y05026D03*
X01795Y03384D03*
Y03419D03*
X01796Y03485D03*
X01795Y03454D03*
X01762Y03385D03*
Y0342D03*
X01763Y03485D03*
Y03454D03*
X02549Y04308D03*
X04139Y03887D03*
X04138Y03843D03*
X03912Y03858D03*
X05487Y05002D03*
X05436Y04999D03*
X05387Y05004D03*
X05337D03*
X0514Y02973D03*
X0473Y02876D03*
X04728Y03015D03*
X04748Y02811D03*
X04681D03*
X0435Y02538D03*
X04559Y02889D03*
Y02925D03*
X03562Y03755D03*
X04606Y02751D03*
G54D92*
X02822Y02181D03*
X02802Y02167D03*
X02822Y02224D03*
X02677Y02035D03*
X02464Y02213D03*
X01901Y01992D03*
X02789Y01966D03*
X02696Y02405D03*
X02523Y02409D03*
X02755Y02393D03*
X02754Y0236D03*
X02734D03*
X03073Y02208D03*
X02939Y02215D03*
Y02197D03*
X02903Y02064D03*
X02885D03*
X02867D03*
X02643Y02499D03*
X02254Y0215D03*
X02254Y02212D03*
X02449Y02194D03*
X0264Y01931D03*
X02665Y01944D03*
X02616D03*
X02508Y025D03*
X01851Y02464D03*
X02509Y01906D03*
Y02456D03*
X02493Y02455D03*
X02476Y02456D03*
X02556Y0237D03*
X02652Y0238D03*
X02559Y01986D03*
X02483Y01946D03*
X02466D03*
X02449D03*
X02526Y01987D03*
X02723Y01985D03*
X02754Y01987D03*
X02577Y02407D03*
X02754Y02025D03*
X02537Y02032D03*
X02861Y02318D03*
X02884Y02319D03*
X02909Y02317D03*
X02771Y01905D03*
X02654Y0203D03*
X01925Y01992D03*
X01944D03*
X01964D03*
X02677Y02389D03*
X02874Y01759D03*
X02893D03*
X02874Y01732D03*
X02893D03*
G54D93*
X02721Y02117D03*
X02643D03*
X02566D03*
X02604D03*
X02682D03*
X02721Y02155D03*
X02643D03*
X02566D03*
X02604D03*
X02682D03*
X02722Y02233D03*
X02567D03*
X02605D03*
X02683D03*
X02722Y02271D03*
X02567D03*
X02605D03*
X02683D03*
X02644D03*
X02643Y02233D03*
G54D94*
X0405Y03938D03*
Y03895D03*
X04007D03*
Y03938D03*
G54D112*
X01469Y02034D03*
Y02014D03*
Y01994D03*
X01518D03*
Y02014D03*
Y02034D03*
G54D113*
X03671Y03751D03*
X038D03*
G54D114*
X04314Y02491D03*
Y02566D03*
Y02529D03*
X04217Y02491D03*
Y02566D03*
X03965Y02494D03*
Y02531D03*
Y02456D03*
X03868D03*
Y02531D03*
Y02494D03*
X0369Y03818D03*
Y03893D03*
Y03856D03*
X03593Y03818D03*
Y03893D03*
G54D115*
X03412Y04503D03*
X03519D03*
X01971Y04368D03*
X01864D03*
X01971Y04508D03*
X01864D03*
X03412Y04378D03*
X03519D03*
G54D116*
X0339Y04699D03*
Y0462D03*
X01994Y04172D03*
Y04251D03*
X01987Y047D03*
Y04621D03*
X03395Y04181D03*
Y0426D03*
G54D117*
X05195Y03457D03*
G54D118*
X05195Y03407D03*
Y03357D03*
Y03307D03*
Y03257D03*
Y03207D03*
Y03157D03*
Y03107D03*
X04789Y03457D03*
Y03407D03*
Y03357D03*
Y03307D03*
Y03257D03*
Y03207D03*
Y03157D03*
Y03107D03*
G54D119*
X04391Y03844D03*
Y03919D03*
X04476Y03844D03*
Y03919D03*
G54D120*
X04434Y03844D03*
Y03919D03*
G54D121*
X04103Y03878D03*
Y03955D03*
Y03904D03*
Y03929D03*
X03955Y03878D03*
Y03955D03*
Y03904D03*
Y03929D03*
G54D122*
X04067Y03842D03*
Y0399D03*
X04041Y03842D03*
X04016D03*
X0399D03*
X04041Y0399D03*
X04016D03*
X0399D03*
G54D123*
X04029Y03916D03*
G54D124*
X06812Y04329D03*
G54D125*
X01946Y02016D03*
M02*