%FSTAX23Y23*%
%MOIN*%
%SFA1B1*%

%IPPOS*%
%AMD22*
4,1,8,-0.025600,0.026700,-0.025600,-0.026700,-0.021800,-0.030500,0.021800,-0.030500,0.025600,-0.026700,0.025600,0.026700,0.021800,0.030500,-0.021800,0.030500,-0.025600,0.026700,0.0*
1,1,0.007677,-0.021800,0.026700*
1,1,0.007677,-0.021800,-0.026700*
1,1,0.007677,0.021800,-0.026700*
1,1,0.007677,0.021800,0.026700*
%
%AMD77*
4,1,8,-0.012800,-0.025600,0.012800,-0.025600,0.025600,-0.012800,0.025600,0.012800,0.012800,0.025600,-0.012800,0.025600,-0.025600,0.012800,-0.025600,-0.012800,-0.012800,-0.025600,0.0*
%
%ADD10C,0.012000*%
%ADD11C,0.005000*%
%ADD12C,0.019685*%
%ADD13C,0.025000*%
%ADD14R,0.039370X0.023622*%
%ADD15R,0.023622X0.039370*%
%ADD16R,0.016535X0.023622*%
%ADD17O,0.016535X0.023622*%
%ADD18R,0.023622X0.021654*%
%ADD19R,0.023622X0.043307*%
%ADD20R,0.021654X0.023622*%
%ADD21R,0.031496X0.031496*%
G04~CAMADD=22~8~0.0~0.0~610.2~511.8~38.4~0.0~15~0.0~0.0~0.0~0.0~0~0.0~0.0~0.0~0.0~0~0.0~0.0~0.0~90.0~512.0~610.0*
%ADD22D22*%
%ADD23R,0.027559X0.051181*%
%ADD24R,0.019685X0.078740*%
%ADD25R,0.035433X0.102362*%
%ADD26R,0.043307X0.059055*%
%ADD27R,0.039370X0.035433*%
%ADD28R,0.039370X0.019685*%
%ADD29R,0.051181X0.027559*%
%ADD30R,0.066929X0.035433*%
%ADD31R,0.029921X0.015945*%
%ADD32R,0.038976X0.015945*%
%ADD33R,0.067913X0.038976*%
%ADD34O,0.023622X0.086614*%
%ADD35R,0.140157X0.070079*%
%ADD36R,0.078740X0.098425*%
%ADD37R,0.070079X0.140157*%
%ADD38R,0.102362X0.035433*%
%ADD39R,0.220472X0.220472*%
%ADD40R,0.011811X0.029716*%
%ADD41R,0.029716X0.011811*%
%ADD42R,0.051181X0.021654*%
%ADD43R,0.066929X0.070866*%
%ADD44R,0.010000X0.010000*%
%ADD45R,0.070866X0.066929*%
%ADD46R,0.010000X0.010000*%
%ADD47R,0.021654X0.051181*%
%ADD48R,0.031685X0.009843*%
%ADD49R,0.009843X0.031685*%
%ADD50R,0.106299X0.059055*%
%ADD51R,0.106299X0.041339*%
%ADD52R,0.464566X0.078740*%
%ADD53C,0.010000*%
%ADD54C,0.006000*%
%ADD55C,0.006614*%
%ADD56C,0.006890*%
%ADD57C,0.008000*%
%ADD58C,0.020000*%
%ADD59C,0.015000*%
%ADD60C,0.001000*%
%ADD61C,0.006614*%
%ADD62C,0.025000*%
%ADD63C,0.010000*%
%ADD64R,0.249000X0.076000*%
%ADD65R,0.379999X0.076000*%
%ADD66R,0.050000X0.005000*%
%ADD67R,0.050000X0.200000*%
%ADD68R,0.129000X0.036000*%
%ADD69R,0.236000X0.379999*%
%ADD70R,0.073000X0.027000*%
%ADD71R,1.441312X0.215094*%
%ADD72R,0.084000X0.025000*%
%ADD73R,0.293999X0.067000*%
%ADD74R,0.254999X0.348999*%
%ADD75C,0.039370*%
%ADD76C,0.051181*%
G04~CAMADD=77~4~0.0~0.0~511.8~511.8~0.0~128.0~0~0.0~0.0~0.0~0.0~0~0.0~0.0~0.0~0.0~0~0.0~0.0~0.0~180.0~512.0~512.0*
%ADD77D77*%
%ADD78C,0.059055*%
%ADD79C,0.059055*%
%ADD80O,0.078740X0.157480*%
%ADD81O,0.157480X0.078740*%
%ADD82O,0.177165X0.078740*%
%ADD83R,0.059055X0.059055*%
%ADD84R,0.059055X0.059055*%
%ADD85C,0.106299*%
%ADD86C,0.060000*%
%ADD87C,0.061024*%
%ADD88C,0.037401*%
%ADD89R,0.078740X0.078740*%
%ADD90C,0.016000*%
%ADD91C,0.020000*%
%ADD92C,0.015000*%
%ADD93C,0.025000*%
%ADD94C,0.019685*%
%LNatfc_copper_signal_top-1*%
%LPD*%
G36*
X0175Y01767D02*
X01747Y01764D01*
X01718*
X01714Y01763*
X0171Y0176*
X01708Y01757*
X01707Y01753*
X01708Y01748*
X0171Y01745*
X01714Y01742*
X01718Y01741*
X0175*
X0175Y01721*
X01747Y01718*
X01685*
Y01997*
X0175*
X0175Y01767*
G37*
G36*
X02687Y01953D02*
X0267Y01936D01*
Y01922*
X0265*
X02646Y0192*
X02644Y01916*
Y01894*
X02642Y01892*
X02613*
Y01934*
X02595Y01951*
Y01975*
X02596Y01976*
X02687*
Y01953*
G37*
G36*
X04041Y03024D02*
X04041Y03022D01*
X04038Y03017*
X04038Y03014*
X04067*
X04067Y03016*
X04066Y03017*
X0407Y03021*
X04072Y03022*
X04075Y03024*
X04076Y03024*
X04077Y03023*
X04078Y03018*
X04078Y03017*
X04077Y03014*
X04092*
Y03011*
X04094*
Y02997*
X04097Y02997*
X041Y02999*
X04105Y02996*
Y02987*
X041Y02985*
X04097Y02986*
X04094Y02987*
Y02972*
Y02957*
X04097Y02958*
X041Y02959*
X04105Y02957*
Y02948*
X041Y02945*
X04097Y02947*
X04094Y02947*
Y02933*
Y02918*
X04097Y02919*
X041Y0292*
X04105Y02917*
Y02909*
X041Y02906*
X04097Y02907*
X04094Y02908*
Y02893*
Y02879*
X04095Y02879*
X041Y02876*
X04101Y02876*
X04101Y02874*
X04101Y02874*
X0411Y02865*
X04114*
X04117Y0286*
X04117Y0286*
X04116Y02856*
X04131*
Y02854*
X04134*
Y02839*
X04137Y0284*
X04138Y0284*
X04143Y02838*
Y02831*
X04138Y02828*
X04137Y02828*
X04134Y02829*
Y02814*
Y028*
X04137Y02801*
X04138Y02801*
X04143Y02798*
Y02791*
X04138Y02789*
X04137Y02789*
X04134Y0279*
Y02775*
Y0276*
X04137Y02761*
X04138Y02762*
X04143Y02759*
Y02748*
X03847*
Y02757*
X03847Y02757*
X0385Y02761*
X03853Y0276*
Y02775*
Y0279*
X03852Y02789*
X03847Y0279*
X03832Y02805*
X0383Y0281*
X03831Y02812*
X03816*
Y02817*
X03831*
X0383Y0282*
X03828Y02823*
X03829Y02828*
X0383Y02828*
X0383Y02829*
X03834Y02828*
X0384Y02829*
X03841Y02828*
X03843Y02822*
X03843Y02822*
X03841Y0282*
X03841Y02817*
X03853*
Y02829*
X03853Y02829*
X03848Y02829*
X03847Y0283*
X03846Y02831*
X03846Y02832*
Y02833*
Y02834*
X03847Y02836*
X0385Y0284*
X03853Y02839*
Y02854*
Y02868*
X03851Y02868*
X03846Y02871*
Y02876*
X03851Y02879*
X03853Y02879*
Y02893*
Y02908*
X03851Y02907*
X03848Y0291*
X03847Y02911*
X03848Y02914*
X03849Y02917*
X03853Y02918*
Y02933*
X03858*
Y02918*
X03861Y02919*
X03863Y02919*
X03867Y02917*
X03868Y02911*
X03871Y02907*
X03876Y02904*
X03878Y02903*
X03881Y02899*
X03881Y02898*
X0388Y02896*
X03909*
X03909Y02899*
X03906Y02904*
X03901Y02907*
X03898Y02908*
X03897Y02909*
X03895Y02912*
X03897Y02917*
X03901Y02918*
X03906Y02921*
X03907Y02923*
X03922*
X03923Y02921*
X03928Y02918*
X03934Y02916*
X03935Y02915*
X03937Y02913*
X03937Y0291*
Y02893*
Y02879*
X0394Y02879*
X03945Y02883*
X03948Y02887*
X03949Y0289*
X0395Y02892*
X03957Y02893*
X03959Y02891*
X0396Y02887*
X03963Y02883*
X03968Y02879*
X03971Y02879*
Y02893*
Y02908*
X03967Y02909*
X03966Y02912*
X03965Y02914*
X03966Y02916*
X03969Y02918*
X03971Y02918*
Y02933*
X03974*
Y02935*
X03988*
X03988Y02938*
X03986Y0294*
X03989Y02946*
X03998*
X04Y02941*
X03999Y02938*
X03998Y02935*
X04028*
X04027Y02938*
X04025Y02941*
X04028Y02946*
X04037*
X04037*
X04037*
X04037Y02945*
X04037Y02945*
X0404Y02941*
X04038Y02938*
X04038Y02935*
X0405*
Y02947*
X04047Y02947*
X04046Y02946*
X04041Y02949*
Y02949*
Y02949*
Y02956*
X04041Y02956*
X04046Y02958*
X04047Y02958*
X0405Y02957*
Y02972*
Y02987*
X04047Y02986*
X04046Y02985*
X04041Y02988*
Y02995*
X04023*
X04022Y03*
X04024Y03001*
X04027Y03006*
X04028Y03009*
X04013*
Y03014*
X04028*
X04027Y03017*
X04024Y03022*
X04025Y03024*
X04026Y03027*
X04039*
X04041Y03024*
G37*
G36*
X01635Y03085D02*
X01337D01*
Y03196*
X01635Y03196*
Y03085*
G37*
G36*
X01233Y03D02*
X0125D01*
Y02966*
X01243Y02959*
X00986*
Y03056*
X01114*
Y03056*
X01116Y03051*
X01121Y03049*
X01144*
X01149Y03051*
X01149*
X01154Y03049*
X01178*
X01182Y03051*
X01184Y03056*
Y03056*
X01233*
Y03*
G37*
G36*
X02427Y02146D02*
X02488D01*
X02495Y02153*
X02525*
Y02122*
X02524Y02121*
X02476*
X02426Y02071*
Y01712*
X02333*
X02332Y0219*
X02336Y02194*
X02427*
Y02146*
G37*
G36*
X02518Y02359D02*
X02531Y02346D01*
X02543*
Y02317*
X02531*
X02525Y02311*
Y02299*
X02468*
X02463Y02304*
Y02395*
X02518*
Y02359*
G37*
G36*
X04818Y0277D02*
Y0273D01*
X04598Y02729*
Y02773*
X04815Y02774*
X04818Y0277*
G37*
G36*
X01636Y02861D02*
X01223D01*
Y02887*
X01621*
Y03066*
X01355*
Y03078*
X01636*
Y02861*
G37*
G36*
X02526Y02082D02*
X02496Y02052D01*
Y02003*
X02443*
Y02061*
X02496Y02114*
X02526*
Y02082*
G37*
G36*
X01833Y0228D02*
X02307D01*
Y0223*
X02306Y02229*
X02263*
X02242Y0225*
X02198*
X02192Y02244*
Y02205*
X022Y02197*
X02306*
Y02178*
X02247*
X02235Y02166*
X02007*
X01973Y02132*
X01815*
Y02268*
X0183Y02283*
X01833Y0228*
G37*
G36*
X02426Y02291D02*
X02525D01*
Y02259*
X02469*
X02468Y02259*
X02446*
X02445Y02259*
X02434*
X02428Y02253*
Y02201*
X02427Y022*
X02422*
X0242Y02201*
X0239*
X0239Y02201*
X02332*
X02331Y02201*
Y02689*
X02426*
Y02291*
G37*
G36*
X01328Y03122D02*
X01233D01*
Y03106*
X01202*
X01201Y03107*
X01197Y03109*
X01193Y0311*
X01147*
X01143Y03109*
X01139Y03107*
X01138Y03106*
X00985*
Y03457*
X01328*
Y03122*
G37*
G36*
X03212Y04679D02*
X03214Y04674D01*
X03217Y04673*
Y04639*
X02742*
Y04781*
X0274Y04785*
X02736Y04787*
X02657*
X02653Y04785*
X02651Y04781*
Y04639*
X02181*
Y04781*
X02179Y04785*
X02175Y04787*
X02175*
Y04868*
X02175*
X02179Y0487*
X02181Y04875*
Y04902*
X02651*
Y04875*
X02653Y0487*
X02657Y04868*
X02736*
X0274Y0487*
X02742Y04875*
Y04902*
X03212Y04903*
Y04679*
G37*
G36*
X01081Y04819D02*
Y04707D01*
X01197*
X01212Y04722*
Y04771*
X01241*
X01242Y04772*
X0125Y04764*
Y0462*
X01008*
X00996Y04632*
Y0482*
X01033*
Y04788*
X01034Y04784*
X01037Y04781*
X0104Y04778*
X01045Y04777*
X01049Y04778*
X01052Y04781*
X01055Y04784*
X01056Y04788*
Y0482*
X01079*
X01081Y04819*
G37*
G36*
X05496Y04724D02*
X05326D01*
Y04811*
X05496*
Y04724*
G37*
G36*
X05501Y05055D02*
X05312D01*
Y05177*
X05501*
Y05055*
G37*
G36*
X012Y0535D02*
Y04907D01*
X01196Y04905*
X01195Y04905*
X01191Y04908*
X01187Y04909*
X01182Y04908*
X01182Y04907*
X01177Y0491*
Y05173*
X01157Y05192*
Y05196*
X00972*
X00952Y05216*
Y0537*
X01181*
X012Y0535*
G37*
G36*
X01136Y04953D02*
X01068Y04884D01*
X01056*
Y04917*
X01055Y04922*
X01052Y04925*
X01049Y04928*
X01045Y04929*
X0104Y04928*
X01037Y04925*
X01034Y04922*
X01033Y04917*
Y04884*
X00951*
Y05115*
X01137*
X01136Y04953*
G37*
G36*
X01584Y03443D02*
X01552D01*
X01547Y03442*
X01544Y03439*
X01541Y03436*
X0154Y03431*
X01541Y03427*
X01544Y03423*
X01547Y03421*
X01552Y0342*
X01584*
Y03259*
X01373*
Y03467*
X01584*
Y03443*
G37*
G36*
X03039Y03512D02*
X03041D01*
Y03478*
X0304Y03477*
X03039*
Y03476*
X02968*
Y03468*
X02928*
X02926Y03467*
X02924Y03466*
X02922Y03461*
Y03458*
X02891*
X02886Y03453*
Y03191*
X02796*
X02796Y03192*
Y03444*
X02828Y03476*
X02519*
Y03523*
X03039*
Y03512*
G37*
G36*
X02267Y03157D02*
X02216D01*
Y03531*
X02267*
Y03157*
G37*
G36*
X01397Y038D02*
X01346D01*
Y04173*
X01397*
Y038*
G37*
G36*
X01815Y03366D02*
X01745D01*
X01713Y03398*
X01697*
Y03466*
X01715*
X01747Y03499*
X01752Y03497*
Y03485*
X01753Y03481*
X01755Y03478*
X01759Y03476*
X01763Y03475*
X01766Y03476*
X0177Y03478*
X01772Y03481*
X01773Y03485*
Y03503*
X01815*
Y03366*
G37*
G36*
X02922Y03442D02*
X02924Y03437D01*
X02928Y03435*
X02968*
Y03276*
X02896*
Y03446*
X02922*
Y03442*
G37*
%LNatfc_copper_signal_top-2*%
%LPC*%
G36*
X04028Y02812D02*
X04015D01*
Y028*
X04019Y02801*
X04024Y02804*
X04027Y02809*
X04028Y02812*
G37*
G36*
X0401D02*
X03998D01*
X03999Y02809*
X04002Y02804*
X04007Y02801*
X0401Y028*
Y02812*
G37*
G36*
X0405D02*
X04038D01*
X04038Y02809*
X04042Y02804*
X04047Y02801*
X0405Y028*
Y02812*
G37*
G36*
X04089D02*
X04077D01*
X04078Y02809*
X04081Y02804*
X04086Y02801*
X04089Y028*
Y02812*
G37*
G36*
X04067D02*
X04055D01*
Y028*
X04058Y02801*
X04063Y02804*
X04066Y02809*
X04067Y02812*
G37*
G36*
X03853D02*
X03841D01*
X03841Y02809*
X03845Y02804*
X0385Y02801*
X03853Y028*
Y02812*
G37*
G36*
X04129Y0279D02*
X04125Y02789D01*
X0412Y02786*
X04117Y02781*
X04116Y02778*
X04129*
Y0279*
G37*
G36*
X0387Y02812D02*
X03858D01*
Y028*
X03861Y02801*
X03866Y02804*
X03869Y02809*
X0387Y02812*
G37*
G36*
X03909D02*
X03897D01*
Y028*
X03901Y02801*
X03906Y02804*
X03909Y02809*
X03909Y02812*
G37*
G36*
X03892D02*
X0388D01*
X03881Y02809*
X03884Y02804*
X03889Y02801*
X03892Y028*
Y02812*
G37*
G36*
X04106D02*
X04094D01*
Y028*
X04097Y02801*
X04102Y02804*
X04106Y02809*
X04106Y02812*
G37*
G36*
X0405Y02829D02*
X04047Y02828D01*
X04042Y02825*
X04038Y0282*
X04038Y02817*
X0405*
Y02829*
G37*
G36*
X04015D02*
Y02817D01*
X04028*
X04027Y0282*
X04024Y02825*
X04019Y02828*
X04015Y02829*
G37*
G36*
X04089D02*
X04086Y02828D01*
X04081Y02825*
X04078Y0282*
X04077Y02817*
X04089*
Y02829*
G37*
G36*
X04129D02*
X04125Y02828D01*
X0412Y02825*
X04117Y0282*
X04116Y02817*
X04129*
Y02829*
G37*
G36*
X04094D02*
Y02817D01*
X04106*
X04106Y0282*
X04102Y02825*
X04097Y02828*
X04094Y02829*
G37*
G36*
X0401D02*
X04007Y02828D01*
X04002Y02825*
X03999Y0282*
X03998Y02817*
X0401*
Y02829*
G37*
G36*
X03858D02*
Y02817D01*
X0387*
X03869Y0282*
X03866Y02825*
X03861Y02828*
X03858Y02829*
G37*
G36*
X04129Y02812D02*
X04116D01*
X04117Y02809*
X0412Y02804*
X04125Y02801*
X04129Y028*
Y02812*
G37*
G36*
X03892Y02829D02*
X03889Y02828D01*
X03884Y02825*
X03881Y0282*
X0388Y02817*
X03892*
Y02829*
G37*
G36*
X03976D02*
Y02817D01*
X03988*
X03988Y0282*
X03984Y02825*
X03979Y02828*
X03976Y02829*
G37*
G36*
X03897D02*
Y02817D01*
X03909*
X03909Y0282*
X03906Y02825*
X03901Y02828*
X03897Y02829*
G37*
G36*
X04094Y0279D02*
Y02778D01*
X04106*
X04106Y02781*
X04102Y02786*
X04097Y02789*
X04094Y0279*
G37*
G36*
X0401Y02773D02*
X03998D01*
X03999Y02769*
X04002Y02764*
X04007Y02761*
X0401Y0276*
Y02773*
G37*
G36*
X03988D02*
X03976D01*
Y0276*
X03979Y02761*
X03984Y02764*
X03988Y02769*
X03988Y02773*
G37*
G36*
X04028D02*
X04015D01*
Y0276*
X04019Y02761*
X04024Y02764*
X04027Y02769*
X04028Y02773*
G37*
G36*
X04067D02*
X04055D01*
Y0276*
X04058Y02761*
X04063Y02764*
X04066Y02769*
X04067Y02773*
G37*
G36*
X0405D02*
X04038D01*
X04038Y02769*
X04042Y02764*
X04047Y02761*
X0405Y0276*
Y02773*
G37*
G36*
X03934Y02831D02*
X03928Y02829D01*
X03923Y02826*
X03919Y02821*
X03918Y02814*
X03919Y02808*
X03923Y02803*
X03928Y028*
X03934Y02798*
X03936Y02799*
X03941Y02795*
X0394Y02793*
X03937Y0279*
Y02778*
X03951*
X03953Y02779*
X03955Y02779*
X03958Y02775*
X0396Y02769*
X03963Y02764*
X03968Y02761*
X03971Y0276*
Y02775*
X03974*
Y02778*
X03988*
X03988Y02781*
X03984Y02786*
X03979Y02789*
X03975Y0279*
X03972Y02792*
X03972Y02798*
X03975Y028*
X03979Y02801*
X03984Y02804*
X03988Y02809*
X03988Y02812*
X03974*
Y02814*
X03971*
Y02829*
X03968Y02828*
X03963Y02825*
X0396Y0282*
X03958Y02814*
X03959Y02814*
X03958Y02813*
X03955Y02812*
X0395Y02815*
X03949Y02821*
X03946Y02826*
X0394Y02829*
X03934Y02831*
G37*
G36*
X03892Y02773D02*
X0388D01*
X03881Y02769*
X03884Y02764*
X03889Y02761*
X03892Y0276*
Y02773*
G37*
G36*
X0387D02*
X03858D01*
Y0276*
X03861Y02761*
X03866Y02764*
X03869Y02769*
X0387Y02773*
G37*
G36*
X03909D02*
X03897D01*
Y0276*
X03901Y02761*
X03906Y02764*
X03909Y02769*
X03909Y02773*
G37*
G36*
X03949D02*
X03937D01*
Y0276*
X0394Y02761*
X03945Y02764*
X03948Y02769*
X03949Y02773*
G37*
G36*
X03932D02*
X0392D01*
X0392Y02769*
X03923Y02764*
X03928Y02761*
X03932Y0276*
Y02773*
G37*
G36*
X04089D02*
X04077D01*
X04078Y02769*
X04081Y02764*
X04086Y02761*
X04089Y0276*
Y02773*
G37*
G36*
X04015Y0279D02*
Y02778D01*
X04028*
X04027Y02781*
X04024Y02786*
X04019Y02789*
X04015Y0279*
G37*
G36*
X0401D02*
X04007Y02789D01*
X04002Y02786*
X03999Y02781*
X03998Y02778*
X0401*
Y0279*
G37*
G36*
X0405D02*
X04047Y02789D01*
X04042Y02786*
X04038Y02781*
X04038Y02778*
X0405*
Y0279*
G37*
G36*
X04089D02*
X04086Y02789D01*
X04081Y02786*
X04078Y02781*
X04077Y02778*
X04089*
Y0279*
G37*
G36*
X04055D02*
Y02778D01*
X04067*
X04066Y02781*
X04063Y02786*
X04058Y02789*
X04055Y0279*
G37*
G36*
X03932D02*
X03928Y02789D01*
X03923Y02786*
X0392Y02781*
X0392Y02778*
X03932*
Y0279*
G37*
G36*
X04129Y02773D02*
X04116D01*
X04117Y02769*
X0412Y02764*
X04125Y02761*
X04129Y0276*
Y02773*
G37*
G36*
X04106D02*
X04094D01*
Y0276*
X04097Y02761*
X04102Y02764*
X04106Y02769*
X04106Y02773*
G37*
G36*
X03858Y0279D02*
Y02778D01*
X0387*
X03869Y02781*
X03866Y02786*
X03861Y02789*
X03858Y0279*
G37*
G36*
X03897D02*
Y02778D01*
X03909*
X03909Y02781*
X03906Y02786*
X03901Y02789*
X03897Y0279*
G37*
G36*
X03892D02*
X03889Y02789D01*
X03884Y02786*
X03881Y02781*
X0388Y02778*
X03892*
Y0279*
G37*
G36*
X0387Y02851D02*
X03858D01*
Y02839*
X03861Y0284*
X03866Y02843*
X03869Y02848*
X0387Y02851*
G37*
G36*
X0405Y02908D02*
X04047Y02907D01*
X04042Y02904*
X04038Y02899*
X04038Y02896*
X0405*
Y02908*
G37*
G36*
X04015D02*
Y02896D01*
X04028*
X04027Y02899*
X04024Y02904*
X04019Y02907*
X04015Y02908*
G37*
G36*
X0401D02*
X04007Y02907D01*
X04002Y02904*
X03999Y02899*
X03998Y02896*
X0401*
Y02908*
G37*
G36*
X03988Y0293D02*
X03976D01*
Y02918*
X03979Y02919*
X03984Y02922*
X03988Y02927*
X03988Y0293*
G37*
G36*
X04089Y02908D02*
X04086Y02907D01*
X04081Y02904*
X04078Y02899*
X04077Y02896*
X04089*
Y02908*
G37*
G36*
X04055D02*
Y02896D01*
X04067*
X04066Y02899*
X04063Y02904*
X04058Y02907*
X04055Y02908*
G37*
G36*
X03976D02*
Y02896D01*
X03988*
X03988Y02899*
X03984Y02904*
X03979Y02907*
X03976Y02908*
G37*
G36*
X04067Y02891D02*
X04055D01*
Y02879*
X04058Y02879*
X04063Y02883*
X04066Y02887*
X04067Y02891*
G37*
G36*
X0405D02*
X04038D01*
X04038Y02887*
X04042Y02883*
X04047Y02879*
X0405Y02879*
Y02891*
G37*
G36*
X04028D02*
X04015D01*
Y02879*
X04019Y02879*
X04024Y02883*
X04027Y02887*
X04028Y02891*
G37*
G36*
X03932Y02908D02*
X03928Y02907D01*
X03923Y02904*
X0392Y02899*
X0392Y02896*
X03932*
Y02908*
G37*
G36*
X03858D02*
Y02896D01*
X0387*
X03869Y02899*
X03866Y02904*
X03861Y02907*
X03858Y02908*
G37*
G36*
X04089Y02891D02*
X04077D01*
X04078Y02887*
X04081Y02883*
X04086Y02879*
X04089Y02879*
Y02891*
G37*
G36*
X0401Y0293D02*
X03998D01*
X03999Y02927*
X04002Y02922*
X04007Y02919*
X0401Y02918*
Y0293*
G37*
G36*
X04089Y02987D02*
X04086Y02986D01*
X04081Y02983*
X04078Y02978*
X04077Y02974*
X04089*
Y02987*
G37*
G36*
X04055D02*
Y02974D01*
X04067*
X04066Y02978*
X04063Y02983*
X04058Y02986*
X04055Y02987*
G37*
G36*
X04089Y02969D02*
X04077D01*
X04078Y02966*
X04081Y02961*
X04086Y02958*
X04089Y02957*
Y02969*
G37*
G36*
Y03009D02*
X04077D01*
X04078Y03006*
X04081Y03001*
X04086Y02997*
X04089Y02997*
Y03009*
G37*
G36*
X04067D02*
X04055D01*
Y02997*
X04058Y02997*
X04063Y03001*
X04066Y03006*
X04067Y03009*
G37*
G36*
X0405D02*
X04038D01*
X04038Y03006*
X04042Y03001*
X04047Y02997*
X0405Y02997*
Y03009*
G37*
G36*
X04067Y02969D02*
X04055D01*
Y02957*
X04058Y02958*
X04063Y02961*
X04066Y02966*
X04067Y02969*
G37*
G36*
Y0293D02*
X04055D01*
Y02918*
X04058Y02919*
X04063Y02922*
X04066Y02927*
X04067Y0293*
G37*
G36*
X0405D02*
X04038D01*
X04038Y02927*
X04042Y02922*
X04047Y02919*
X0405Y02918*
Y0293*
G37*
G36*
X04028D02*
X04015D01*
Y02918*
X04019Y02919*
X04024Y02922*
X04027Y02927*
X04028Y0293*
G37*
G36*
X04089Y02947D02*
X04086Y02947D01*
X04081Y02943*
X04078Y02938*
X04077Y02935*
X04089*
Y02947*
G37*
G36*
X04055D02*
Y02935D01*
X04067*
X04066Y02938*
X04063Y02943*
X04058Y02947*
X04055Y02947*
G37*
G36*
X04089Y0293D02*
X04077D01*
X04078Y02927*
X04081Y02922*
X04086Y02919*
X04089Y02918*
Y0293*
G37*
G36*
X04129Y02851D02*
X04116D01*
X04117Y02848*
X0412Y02843*
X04125Y0284*
X04129Y02839*
Y02851*
G37*
G36*
X04106D02*
X04094D01*
Y02839*
X04097Y0284*
X04102Y02843*
X04106Y02848*
X04106Y02851*
G37*
G36*
X04028D02*
X04015D01*
Y02839*
X04019Y0284*
X04024Y02843*
X04027Y02848*
X04028Y02851*
G37*
G36*
X03892Y02868D02*
X03889Y02868D01*
X03884Y02865*
X03881Y0286*
X0388Y02856*
X03892*
Y02868*
G37*
G36*
X03858D02*
Y02856D01*
X0387*
X03869Y0286*
X03866Y02865*
X03861Y02868*
X03858Y02868*
G37*
G36*
X04052Y0287D02*
X04046Y02869D01*
X04041Y02865*
X04037Y0286*
X04036Y02854*
X04037Y02848*
X04041Y02842*
X04046Y02839*
X04052Y02838*
X04057Y02839*
X04057Y02837*
X0406Y02833*
X04057Y02829*
X04055Y02829*
Y02817*
X04067*
X04066Y0282*
X04064Y02824*
X04066Y02828*
X04066Y02829*
X0407Y02828*
X04076Y02829*
X0408Y02832*
X04083Y02836*
X04086Y0284*
X04089Y02839*
Y02854*
Y02868*
X04086Y02868*
X04081Y02865*
X04078Y0286*
X04078Y0286*
X04073Y02857*
X04068Y02858*
X04067Y0286*
X04064Y02865*
X04058Y02869*
X04052Y0287*
G37*
G36*
X0401Y02851D02*
X03998D01*
X03999Y02848*
X04002Y02843*
X04007Y0284*
X0401Y02839*
Y02851*
G37*
G36*
X03932D02*
X0392D01*
X0392Y02848*
X03923Y02843*
X03928Y0284*
X03932Y02839*
Y02851*
G37*
G36*
X03909D02*
X03897D01*
Y02839*
X03901Y0284*
X03906Y02843*
X03909Y02848*
X03909Y02851*
G37*
G36*
X03892D02*
X0388D01*
X03881Y02848*
X03884Y02843*
X03889Y0284*
X03892Y02839*
Y02851*
G37*
G36*
X03988D02*
X03976D01*
Y02839*
X03979Y0284*
X03984Y02843*
X03988Y02848*
X03988Y02851*
G37*
G36*
X03971D02*
X03959D01*
X0396Y02848*
X03963Y02843*
X03968Y0284*
X03971Y02839*
Y02851*
G37*
G36*
X03949D02*
X03937D01*
Y02839*
X0394Y0284*
X03945Y02843*
X03948Y02848*
X03949Y02851*
G37*
G36*
X03897Y02868D02*
Y02856D01*
X03909*
X03909Y0286*
X03906Y02865*
X03901Y02868*
X03897Y02868*
G37*
G36*
X03909Y02891D02*
X03897D01*
Y02879*
X03901Y02879*
X03906Y02883*
X03909Y02887*
X03909Y02891*
G37*
G36*
X03892D02*
X0388D01*
X03881Y02887*
X03884Y02883*
X03889Y02879*
X03892Y02879*
Y02891*
G37*
G36*
X0387D02*
X03858D01*
Y02879*
X03861Y02879*
X03866Y02883*
X03869Y02887*
X0387Y02891*
G37*
G36*
X0401D02*
X03998D01*
X03999Y02887*
X04002Y02883*
X04007Y02879*
X0401Y02879*
Y02891*
G37*
G36*
X03988D02*
X03976D01*
Y02879*
X03979Y02879*
X03984Y02883*
X03988Y02887*
X03988Y02891*
G37*
G36*
X03932D02*
X0392D01*
X0392Y02887*
X03923Y02883*
X03928Y02879*
X03932Y02879*
Y02891*
G37*
G36*
X04094Y02868D02*
Y02856D01*
X04106*
X04106Y0286*
X04102Y02865*
X04097Y02868*
X04094Y02868*
G37*
G36*
X03971D02*
X03968Y02868D01*
X03963Y02865*
X0396Y0286*
X03959Y02856*
X03971*
Y02868*
G37*
G36*
X03937D02*
Y02856D01*
X03949*
X03948Y0286*
X03945Y02865*
X0394Y02868*
X03937Y02868*
G37*
G36*
X03932D02*
X03928Y02868D01*
X03923Y02865*
X0392Y0286*
X0392Y02856*
X03932*
Y02868*
G37*
G36*
X04015D02*
Y02856D01*
X04028*
X04027Y0286*
X04024Y02865*
X04019Y02868*
X04015Y02868*
G37*
G36*
X0401D02*
X04007Y02868D01*
X04002Y02865*
X03999Y0286*
X03998Y02856*
X0401*
Y02868*
G37*
G36*
X03976D02*
Y02856D01*
X03988*
X03988Y0286*
X03984Y02865*
X03979Y02868*
X03976Y02868*
G37*
%LNatfc_copper_signal_top-3*%
%LPD*%
G54D10*
X03655Y03564D02*
D01*
X03655Y03564*
X03656Y03564*
X03656Y03563*
X03656Y03563*
X03656Y03563*
X03657Y03563*
X03657Y03563*
X03657Y03563*
X03658Y03563*
X03658Y03563*
X03659Y03563*
X03659Y03563*
X01187Y04841D02*
Y04896D01*
X02656Y02206D02*
Y02331D01*
X02636Y02206D02*
Y02331D01*
X02675Y02225D02*
Y02331D01*
X0147Y03045D02*
Y0307D01*
X01861Y01621D02*
X01889D01*
X01226Y04842D02*
Y04896D01*
X02223Y02224D02*
X02242D01*
X01217Y03091D02*
X0129D01*
X01511Y0295D02*
Y02985D01*
X02781Y02147D02*
X02879D01*
X01549Y03623D02*
X01604D01*
X02815Y02204D02*
X0284D01*
X02813Y02206D02*
X02815Y02204D01*
X03073Y02166D02*
X03092D01*
X02781Y02206D02*
X02813D01*
X02782Y02244D02*
X02844D01*
X0284Y02204D02*
X02871Y02173D01*
X02916*
X02582Y025D02*
X02588Y02493D01*
X01897Y0166D02*
X01898Y01659D01*
Y01658D02*
Y01659D01*
X01897Y0166D02*
Y01673D01*
X01888Y01682D02*
X01897Y01673D01*
X01818Y01682D02*
X01888D01*
X02223Y0214D02*
X02244D01*
X02493Y02186D02*
X02511D01*
X02486Y02193D02*
X02493Y02186D01*
X02456Y02193D02*
X02486D01*
X01201Y02914D02*
X01237D01*
Y02935D02*
X01264Y02963D01*
X0114Y03091D02*
X01217D01*
X01135Y03086D02*
X0114Y03091D01*
X01135Y03073D02*
Y03086D01*
X02933Y02098D02*
X03142D01*
X02834D02*
X02933D01*
X04804Y05042D02*
Y05098D01*
X04597Y05043D02*
Y05098D01*
X0349Y04015D02*
X03493Y04017D01*
X03463Y04015D02*
X0349D01*
X03129Y02181D02*
Y02236D01*
X02554Y02811D02*
X03129Y02236D01*
X01237Y02811D02*
X02554D01*
X01325Y02844D02*
X01523D01*
X01201Y02847D02*
X01237Y02811D01*
X03116Y02168D02*
X03129Y02181D01*
X03092Y02168D02*
X03116D01*
X01201Y02847D02*
Y02878D01*
X01861Y01584D02*
X01896D01*
X01549Y03623D02*
Y03661D01*
Y03621D02*
Y03623D01*
X01226Y04896D02*
X01262D01*
X01224D02*
X01226D01*
X02943Y03189D02*
Y03228D01*
X01354Y02914D02*
Y02974D01*
X01434Y02914D02*
Y02975D01*
X02974Y02148D02*
X03055D01*
X018Y01701D02*
Y01753D01*
X02449Y02194D02*
X02455D01*
X02456Y02193*
X03055Y02148D02*
X03073Y02166D01*
X02941Y02148D02*
X02974D01*
X02916Y02173D02*
X02941Y02148D01*
X02622Y02499D02*
X02643D01*
X02547Y025D02*
X02582D01*
X02484Y02245D02*
X02511D01*
X02477Y02238D02*
X02484Y02245D01*
X02459Y02166D02*
X02511D01*
X02242Y02224D02*
X02254Y02212D01*
X02287*
X02263Y0216D02*
X02287D01*
X02254Y0215D02*
X02263Y0216D01*
X02244Y0214D02*
X02254Y0215D01*
X02734Y02284D02*
X02781D01*
X02557Y02061D02*
Y02107D01*
X02734Y02061D02*
Y02107D01*
X02781*
Y02127D02*
X02805D01*
X02834Y02098*
X03142D02*
X0315Y0209D01*
X01171Y03071D02*
X01217D01*
X0137Y03052D02*
X01426D01*
X01431Y03047*
X0137Y03032D02*
X01405D01*
X01448Y03007D02*
X0147Y02986D01*
X01429Y03007D02*
X01448D01*
X01405Y03032D02*
X01429Y03007D01*
X0147Y02914D02*
Y02948D01*
X0137Y03012D02*
X01371D01*
X01399Y02985*
Y02914D02*
Y02946D01*
X01424Y02985D02*
X01434Y02975D01*
X01343Y02985D02*
X01354Y02974D01*
X01303Y02964D02*
Y02985D01*
Y02964D02*
X01315Y02952D01*
Y02914D02*
Y02952D01*
X01284Y02949D02*
Y02985D01*
X01264Y02963D02*
Y02985D01*
X01237Y02914D02*
Y02935D01*
X01549Y03584D02*
X01605D01*
X01553Y03547D02*
X01605D01*
X01635Y03431D02*
Y03471D01*
X017Y03537*
Y03547*
X01599Y03431D02*
Y03472D01*
X01563Y03508D02*
X01599Y03472D01*
X01511Y02985D02*
X01539D01*
X01045Y0487D02*
X01082D01*
X01045Y04834D02*
X01083D01*
X01111Y04806*
Y04786D02*
Y04806D01*
Y04786D02*
X0115Y04746D01*
X01152Y04842D02*
Y04896D01*
X01082Y0487D02*
X01147Y04935D01*
X017Y03622D02*
Y03659D01*
X01764Y01709D02*
Y01753D01*
X01712Y01657D02*
X01764Y01709D01*
X018Y01701D02*
X01818Y01682D01*
X01807Y01582D02*
X01861D01*
X01807Y0162D02*
X0186D01*
X01807Y01657D02*
X01858D01*
X01712Y01582D02*
Y01609D01*
X02844Y02244D02*
X02884D01*
X02941Y03092D02*
Y03128D01*
X03612Y04872D02*
X03643D01*
X01147Y04935D02*
X01152D01*
X01549Y03508D02*
X01563D01*
X02457Y02238D02*
X02477D01*
X01399Y02985D02*
X01424D01*
X0147Y02948D02*
Y0295D01*
Y02985*
Y02986*
G54D11*
X02979Y03654D02*
D01*
X02979Y03655*
X02979Y03655*
X02979Y03656*
X02978Y03656*
X02978Y03657*
X02978Y03657*
X02978Y03658*
X02978Y03658*
X02977Y03659*
X02977Y03659*
X02977Y03659*
X02976Y0366*
X02976Y0366*
X02975Y0366*
X02975Y03661*
X02974Y03661*
X02974Y03661*
X02973Y03661*
X02973Y03662*
X02972Y03662*
X02972Y03662*
X02971Y03662*
X02971*
X0297Y03662*
X0297Y03662*
X02969Y03662*
X02969Y03661*
X02968Y03661*
X02968Y03661*
X02967Y03661*
X02967Y0366*
X02967Y0366*
X02966Y0366*
X02966Y03659*
X02965Y03659*
X02965Y03659*
X02965Y03658*
X02965Y03658*
X02964Y03657*
X02964Y03657*
X02964Y03656*
X02964Y03656*
X02964Y03655*
X02964Y03655*
X02964Y03654*
X03009D02*
D01*
X03009Y03655*
X03009Y03655*
X03009Y03656*
X03008Y03656*
X03008Y03657*
X03008Y03657*
X03008Y03658*
X03008Y03658*
X03007Y03659*
X03007Y03659*
X03007Y03659*
X03006Y0366*
X03006Y0366*
X03005Y0366*
X03005Y03661*
X03004Y03661*
X03004Y03661*
X03003Y03661*
X03003Y03662*
X03002Y03662*
X03002Y03662*
X03001Y03662*
X03001*
X03Y03662*
X03Y03662*
X02999Y03662*
X02999Y03661*
X02998Y03661*
X02998Y03661*
X02997Y03661*
X02997Y0366*
X02997Y0366*
X02996Y0366*
X02996Y03659*
X02995Y03659*
X02995Y03659*
X02995Y03658*
X02995Y03658*
X02994Y03657*
X02994Y03657*
X02994Y03656*
X02994Y03656*
X02994Y03655*
X02994Y03655*
X02994Y03654*
X03039D02*
D01*
X03039Y03655*
X03039Y03655*
X03039Y03656*
X03038Y03656*
X03038Y03657*
X03038Y03657*
X03038Y03658*
X03038Y03658*
X03037Y03659*
X03037Y03659*
X03037Y03659*
X03036Y0366*
X03036Y0366*
X03035Y0366*
X03035Y03661*
X03034Y03661*
X03034Y03661*
X03033Y03661*
X03033Y03662*
X03032Y03662*
X03032Y03662*
X03031Y03662*
X03031*
X0303Y03662*
X0303Y03662*
X03029Y03662*
X03029Y03661*
X03028Y03661*
X03028Y03661*
X03027Y03661*
X03027Y0366*
X03027Y0366*
X03026Y0366*
X03026Y03659*
X03025Y03659*
X03025Y03659*
X03025Y03658*
X03025Y03658*
X03024Y03657*
X03024Y03657*
X03024Y03656*
X03024Y03656*
X03024Y03655*
X03024Y03655*
X03024Y03654*
X03069D02*
D01*
X03069Y03655*
X03069Y03655*
X03069Y03656*
X03068Y03656*
X03068Y03657*
X03068Y03657*
X03068Y03658*
X03068Y03658*
X03067Y03659*
X03067Y03659*
X03067Y03659*
X03066Y0366*
X03066Y0366*
X03065Y0366*
X03065Y03661*
X03064Y03661*
X03064Y03661*
X03063Y03661*
X03063Y03662*
X03062Y03662*
X03062Y03662*
X03061Y03662*
X03061*
X0306Y03662*
X0306Y03662*
X03059Y03662*
X03059Y03661*
X03058Y03661*
X03058Y03661*
X03057Y03661*
X03057Y0366*
X03057Y0366*
X03056Y0366*
X03056Y03659*
X03055Y03659*
X03055Y03659*
X03055Y03658*
X03055Y03658*
X03054Y03657*
X03054Y03657*
X03054Y03656*
X03054Y03656*
X03054Y03655*
X03054Y03655*
X03054Y03654*
X03099D02*
D01*
X03099Y03655*
X03099Y03655*
X03099Y03656*
X03098Y03656*
X03098Y03657*
X03098Y03657*
X03098Y03658*
X03098Y03658*
X03097Y03659*
X03097Y03659*
X03097Y03659*
X03096Y0366*
X03096Y0366*
X03095Y0366*
X03095Y03661*
X03094Y03661*
X03094Y03661*
X03093Y03661*
X03093Y03662*
X03092Y03662*
X03092Y03662*
X03091Y03662*
X03091*
X0309Y03662*
X0309Y03662*
X03089Y03662*
X03089Y03661*
X03088Y03661*
X03088Y03661*
X03087Y03661*
X03087Y0366*
X03087Y0366*
X03086Y0366*
X03086Y03659*
X03085Y03659*
X03085Y03659*
X03085Y03658*
X03085Y03658*
X03084Y03657*
X03084Y03657*
X03084Y03656*
X03084Y03656*
X03084Y03655*
X03084Y03655*
X03084Y03654*
X03203Y03685D02*
D01*
X03203Y03685*
X03203Y03686*
X03203Y03686*
X03203Y03687*
X03203Y03687*
X03203Y03688*
X03203Y03688*
X03202Y03688*
X03202Y03689*
X03202Y03689*
X03201Y0369*
X03201Y0369*
X03201Y0369*
X032Y03691*
X032Y03691*
X03199Y03691*
X03199Y03691*
X03198Y03692*
X03198Y03692*
X03197Y03692*
X03197Y03692*
X03196Y03692*
X03196*
X03195Y03692*
X03195Y03692*
X03194Y03692*
X03194Y03692*
X03193Y03691*
X03193Y03691*
X03192Y03691*
X03192Y03691*
X03191Y0369*
X03191Y0369*
X03191Y0369*
X0319Y03689*
X0319Y03689*
X0319Y03688*
X03189Y03688*
X03189Y03688*
X03189Y03687*
X03189Y03687*
X03189Y03686*
X03189Y03686*
X03188Y03685*
X03188Y03685*
X03233D02*
D01*
X03233Y03685*
X03233Y03686*
X03233Y03686*
X03233Y03687*
X03233Y03687*
X03233Y03688*
X03233Y03688*
X03232Y03688*
X03232Y03689*
X03232Y03689*
X03231Y0369*
X03231Y0369*
X03231Y0369*
X0323Y03691*
X0323Y03691*
X03229Y03691*
X03229Y03691*
X03228Y03692*
X03228Y03692*
X03227Y03692*
X03227Y03692*
X03226Y03692*
X03226*
X03225Y03692*
X03225Y03692*
X03224Y03692*
X03224Y03692*
X03223Y03691*
X03223Y03691*
X03222Y03691*
X03222Y03691*
X03221Y0369*
X03221Y0369*
X03221Y0369*
X0322Y03689*
X0322Y03689*
X0322Y03688*
X03219Y03688*
X03219Y03688*
X03219Y03687*
X03219Y03687*
X03219Y03686*
X03219Y03686*
X03218Y03685*
X03218Y03685*
X03263D02*
D01*
X03263Y03685*
X03263Y03686*
X03263Y03686*
X03263Y03687*
X03263Y03687*
X03263Y03688*
X03263Y03688*
X03262Y03688*
X03262Y03689*
X03262Y03689*
X03261Y0369*
X03261Y0369*
X03261Y0369*
X0326Y03691*
X0326Y03691*
X03259Y03691*
X03259Y03691*
X03258Y03692*
X03258Y03692*
X03257Y03692*
X03257Y03692*
X03256Y03692*
X03256*
X03255Y03692*
X03255Y03692*
X03254Y03692*
X03254Y03692*
X03253Y03691*
X03253Y03691*
X03252Y03691*
X03252Y03691*
X03251Y0369*
X03251Y0369*
X03251Y0369*
X0325Y03689*
X0325Y03689*
X0325Y03688*
X03249Y03688*
X03249Y03688*
X03249Y03687*
X03249Y03687*
X03249Y03686*
X03249Y03686*
X03248Y03685*
X03248Y03685*
X03293D02*
D01*
X03293Y03685*
X03293Y03686*
X03293Y03686*
X03293Y03687*
X03293Y03687*
X03293Y03688*
X03293Y03688*
X03292Y03688*
X03292Y03689*
X03292Y03689*
X03291Y0369*
X03291Y0369*
X03291Y0369*
X0329Y03691*
X0329Y03691*
X03289Y03691*
X03289Y03691*
X03288Y03692*
X03288Y03692*
X03287Y03692*
X03287Y03692*
X03286Y03692*
X03286*
X03285Y03692*
X03285Y03692*
X03284Y03692*
X03284Y03692*
X03283Y03691*
X03283Y03691*
X03282Y03691*
X03282Y03691*
X03281Y0369*
X03281Y0369*
X03281Y0369*
X0328Y03689*
X0328Y03689*
X0328Y03688*
X03279Y03688*
X03279Y03688*
X03279Y03687*
X03279Y03687*
X03279Y03686*
X03279Y03686*
X03278Y03685*
X03278Y03685*
X03323D02*
D01*
X03323Y03685*
X03323Y03686*
X03323Y03686*
X03323Y03687*
X03323Y03687*
X03323Y03688*
X03323Y03688*
X03322Y03688*
X03322Y03689*
X03322Y03689*
X03321Y0369*
X03321Y0369*
X03321Y0369*
X0332Y03691*
X0332Y03691*
X03319Y03691*
X03319Y03691*
X03318Y03692*
X03318Y03692*
X03317Y03692*
X03317Y03692*
X03316Y03692*
X03316*
X03315Y03692*
X03315Y03692*
X03314Y03692*
X03314Y03692*
X03313Y03691*
X03313Y03691*
X03312Y03691*
X03312Y03691*
X03311Y0369*
X03311Y0369*
X03311Y0369*
X0331Y03689*
X0331Y03689*
X0331Y03688*
X03309Y03688*
X03309Y03688*
X03309Y03687*
X03309Y03687*
X03309Y03686*
X03309Y03686*
X03308Y03685*
X03308Y03685*
X06181Y03296D02*
X06193D01*
X06206Y03309*
X03816Y02933D02*
X03828Y02921D01*
X06193Y03271D02*
X06206Y03259D01*
X06181Y03271D02*
X06193D01*
X06181Y04096D02*
X06193D01*
X06382Y03896D02*
X06393D01*
X06181Y03446D02*
X06193D01*
X06144Y03997D02*
X06156Y04009D01*
X06131Y03997D02*
X06144D01*
Y03971D02*
X06156Y03959D01*
X06131Y03971D02*
X06144D01*
X03659Y02891D02*
Y02893D01*
X06181Y02996D02*
X06193D01*
Y02971D02*
X06206Y02959D01*
X06193Y02971D02*
X06193Y02971D01*
X06181Y02971D02*
X06193D01*
X06193Y02996D02*
X06206Y03009D01*
X06331Y03046D02*
X06343D01*
X06181Y03146D02*
X06193D01*
X06181Y02696D02*
X06193D01*
X06181Y02546D02*
X06193D01*
X06239Y03621D02*
X06245Y03626D01*
X06218Y03621D02*
X06239D01*
X06206Y03609D02*
X06218Y03621D01*
X06233Y036D02*
X06245D01*
X06228Y03595D02*
X06233Y036D01*
X06228Y03581D02*
Y03595D01*
X06206Y03559D02*
X06228Y03581D01*
X06331Y03196D02*
X06343D01*
X06356Y03209*
X06343Y03171D02*
X06356Y03159D01*
X06331Y03171D02*
X06343D01*
X03816Y02892D02*
X0383Y02877D01*
X06181Y0387D02*
X06194D01*
X06206Y03859*
X06193Y03896D02*
X06206Y03909D01*
X06181Y03896D02*
X06193D01*
X03882Y02685D02*
X05023D01*
X03864Y02703D02*
X03882Y02685D01*
X03839Y02703D02*
X03864D01*
X03887Y02698D02*
X05018D01*
X05037Y02699D02*
X0609Y03753D01*
X05018Y02698D02*
X06078Y03758D01*
X06123Y03825D02*
X0614Y03809D01*
X06156*
X0609Y03805D02*
X06111Y03825D01*
X06123*
X0609Y03753D02*
Y03805D01*
X03785Y02762D02*
X03795Y02752D01*
Y02738D02*
Y02752D01*
X03777Y02775D02*
X03785Y02767D01*
Y02762D02*
Y02767D01*
X03795Y02738D02*
X03812Y02721D01*
X03821*
X0614Y03859D02*
X06156D01*
X06121Y0384D02*
X0614Y03859D01*
X06078Y0381D02*
X06107Y0384D01*
X06121*
X06078Y03758D02*
Y0381D01*
X03798Y02768D02*
X03808Y02757D01*
X03798Y02768D02*
Y02793D01*
X03808Y02744D02*
Y02757D01*
X03777Y02814D02*
X03798Y02793D01*
X03827Y02734D02*
X03844Y02716D01*
X03808Y02744D02*
X03818Y02734D01*
X03827*
X05023Y02685D02*
X05037Y02699D01*
X03821Y02721D02*
X03839Y02703D01*
X03869Y02716D02*
X03887Y02698D01*
X03844Y02716D02*
X03869D01*
X06193Y03446D02*
X06206Y03459D01*
X06193Y03421D02*
X06206Y03409D01*
X06181Y03421D02*
X06193D01*
X06382Y03496D02*
X06393D01*
Y03471D02*
X06406Y03459D01*
X06382Y03471D02*
X06393D01*
Y03496D02*
X06406Y03509D01*
X0638Y04096D02*
X06393D01*
X06193Y03146D02*
X06206Y03159D01*
X06181Y03121D02*
X06193D01*
X06206Y03109*
X05381Y03368D02*
Y03559D01*
Y03368D02*
X0539Y03359D01*
X06028Y03997D02*
X06057Y04026D01*
Y04068*
X0601Y04092D02*
X06033D01*
X06057Y04068*
X06003Y041D02*
X0601Y04092D01*
X06193Y04096D02*
X06206Y04109D01*
X05381Y03559D02*
X05819Y03997D01*
X06028*
X06193Y04071D02*
X06206Y04059D01*
X06181Y04071D02*
X06193D01*
X06027Y04076D02*
X06041Y04062D01*
X0601Y04076D02*
X06027D01*
X06003Y04069D02*
X0601Y04076D01*
X06041Y04033D02*
Y04062D01*
X06018Y0401D02*
X06041Y04033D01*
X05814Y0401D02*
X06018D01*
X05368Y03564D02*
X05814Y0401D01*
X05368Y03368D02*
Y03564D01*
X05359Y03359D02*
X05368Y03368D01*
X06193Y02696D02*
X06206Y02709D01*
X06181Y02671D02*
X06193D01*
X06206Y02659*
X0653Y02087D02*
Y03006D01*
X06445Y0309D02*
X0653Y03006D01*
X06191Y01749D02*
X0653Y02087D01*
X06406Y03109D02*
X06424Y0309D01*
X06445*
X06191Y01549D02*
X06198Y01543D01*
X06191Y01549D02*
Y01749D01*
X06517Y02093D02*
Y03D01*
X0644Y03077D02*
X06517Y03D01*
X06178Y01754D02*
X06517Y02093D01*
X06424Y03077D02*
X0644D01*
X06406Y03059D02*
X06424Y03077D01*
X06178Y01549D02*
Y01754D01*
X06172Y01543D02*
X06178Y01549D01*
X04858Y03474D02*
X04868Y03483D01*
X04858Y03461D02*
X04868Y03452D01*
X04779Y03461D02*
X04858D01*
X03611Y0361D02*
Y03629D01*
X03586Y03654D02*
X03611Y03629D01*
X03114Y03654D02*
X03586D01*
X02602D02*
X02944D01*
X02949*
X02964*
X02979D02*
X02994D01*
X03009D02*
X03024D01*
X03039D02*
X03054D01*
X03069D02*
X03084D01*
X03099D02*
X03114D01*
X02525Y03732D02*
X02602Y03654D01*
X02525Y03732D02*
Y03989D01*
X02534Y03999*
X03611Y0361D02*
X03619Y03602D01*
X02534Y03999D02*
Y0404D01*
X03598Y03584D02*
X03619Y03563D01*
X03598Y03584D02*
Y03621D01*
X02502Y03999D02*
X02512Y03989D01*
X02502Y03999D02*
Y0404D01*
X02512Y03726D02*
X02597Y03641D01*
X02512Y03726D02*
Y03989D01*
X03578Y03641D02*
X03598Y03621D01*
X02597Y03641D02*
X03578D01*
X03016Y0385D02*
X03024Y03842D01*
X03766Y03806D02*
X03868Y03704D01*
X03461Y03815D02*
X0347Y03806D01*
X03766*
X02897Y03894D02*
X02927Y03863D01*
X03013D02*
X03022Y03871D01*
X02927Y03863D02*
X03013D01*
X02906Y03999D02*
Y0404D01*
X02897Y03989D02*
X02906Y03999D01*
X02897Y03894D02*
Y03989D01*
X03461Y03784D02*
X0347Y03793D01*
X02922Y0385D02*
X03016D01*
X02916Y03856D02*
X02922Y0385D01*
X02884Y03888D02*
Y03989D01*
X02874Y03999D02*
Y0404D01*
Y03999D02*
X02884Y03989D01*
X02916Y03856D02*
D01*
X02884Y03888D02*
X02916Y03856D01*
X0347Y03793D02*
X03761D01*
X03855Y03576D02*
X03874Y03594D01*
X03868Y03615D02*
Y03704D01*
X03874Y03594D02*
Y03609D01*
X03868Y03615D02*
X03874Y03609D01*
X03855Y03563D02*
Y03576D01*
Y03602D02*
Y03699D01*
X03761Y03793D02*
X03855Y03699D01*
X03422Y03763D02*
X03451Y03735D01*
X03392Y03763D02*
X03422D01*
X02345Y03999D02*
Y0404D01*
X02336Y0399D02*
X02345Y03999D01*
X02336Y03769D02*
Y0399D01*
X03383Y03772D02*
X03392Y03763D01*
X02363Y03763D02*
X02373Y03772D01*
X02336Y03769D02*
X02342Y03763D01*
X02363*
X03795Y03594D02*
Y03609D01*
X0379Y03615D02*
X03795Y03609D01*
X03786Y03585D02*
X03795Y03594D01*
X03786Y03572D02*
Y03585D01*
X03777Y03563D02*
X03786Y03572D01*
X03392Y0375D02*
X03417D01*
X03635Y03722D02*
X03648D01*
X03383Y03741D02*
X03392Y0375D01*
X03635Y03722D02*
X03635Y03722D01*
X03648D02*
X03648Y03722D01*
X03417Y0375D02*
X03445Y03722D01*
X03648D02*
X03764D01*
X03445D02*
X03635D01*
X02313Y03999D02*
X02323Y03988D01*
Y03809D02*
Y03988D01*
X02313Y03999D02*
Y0404D01*
X02323Y03762D02*
Y03809D01*
D01*
Y03762D02*
X02335Y0375D01*
X02363D02*
X02373Y03741D01*
X02335Y0375D02*
X02363D01*
X03451Y03735D02*
X03769D01*
X0379Y03715*
Y03615D02*
Y03715D01*
X03764Y03722D02*
X03777Y03709D01*
Y03602D02*
Y03709D01*
X03569Y03685D02*
X03649D01*
X03569D02*
D01*
X03342D02*
X03569D01*
X03574Y03672D02*
X03644D01*
X03574D02*
D01*
X0316D02*
X03574D01*
X03649Y03685D02*
X03656Y03678D01*
X03644Y03672D02*
X03685Y0363D01*
X03656Y03678D02*
X03698Y03636D01*
X03678Y02658D02*
X03752Y02584D01*
X0614Y03509D02*
X06156D01*
X06081Y03526D02*
X06123D01*
X0614Y03509*
X05147Y02592D02*
X06081Y03526D01*
X04317Y02592D02*
X05147D01*
X04285Y0256D02*
X04317Y02592D01*
X03807Y02571D02*
X03819Y0256D01*
X04285*
X03747Y02571D02*
X03807D01*
X0614Y03559D02*
X06156D01*
X06123Y03542D02*
X0614Y03559D01*
X06074Y03542D02*
X06123D01*
X0514Y02608D02*
X06074Y03542D01*
X0431Y02608D02*
X0514D01*
X04275Y02573D02*
X0431Y02608D01*
X03752Y02584D02*
X03813D01*
X03824Y02573*
X04275*
X03665Y02653D02*
X03747Y02571D01*
X03678Y02658D02*
Y02783D01*
X03659Y02802D02*
X03678Y02783D01*
X03659Y02802D02*
Y02814D01*
X03665Y02653D02*
Y02757D01*
X03659Y02763D02*
X03665Y02757D01*
X03659Y02763D02*
Y02775D01*
X03724Y0275D02*
X03737Y02763D01*
X03724Y02693D02*
Y0275D01*
X03711Y02688D02*
Y0275D01*
X03698Y02763D02*
X03711Y0275D01*
X05091Y0243D02*
X06055Y03393D01*
X05101Y02421D02*
X0606Y0338D01*
X04114Y02444D02*
X0451D01*
X0411Y0244D02*
X04114Y02444D01*
X04514Y0244D02*
X04524Y0243D01*
X05091*
X04514Y0244D02*
D01*
X0451Y02444D02*
X04514Y0244D01*
X0411D02*
D01*
X03567Y02672D02*
X03679Y0256D01*
X03791*
X0358Y02763D02*
Y02775D01*
X03567Y0275D02*
X0358Y02763D01*
X03567Y02672D02*
Y0275D01*
X04087Y02418D02*
X0411Y0244D01*
X03848Y02504D02*
X03933Y02418D01*
X04087*
X03791Y0256D02*
X03848Y02504D01*
Y02504D02*
Y02504D01*
X05101Y02421D02*
D01*
X05097Y02417D02*
X05101Y02421D01*
X04519Y02417D02*
X05097D01*
X04515Y02421D02*
D01*
X04505Y02431D02*
X04515Y02421D01*
X04519Y02417D01*
X03554Y02667D02*
X03674Y02547D01*
X0354Y02763D02*
X03554Y0275D01*
X03674Y02547D02*
X03787D01*
X0354Y02763D02*
Y02775D01*
X03554Y02667D02*
Y0275D01*
X04119Y02431D02*
X04505D01*
X04093Y02405D02*
X04119Y02431D01*
X03927Y02405D02*
X04093D01*
X03835Y02498D02*
Y02499D01*
X03787Y02547D02*
X03835Y02499D01*
Y02498D02*
X03927Y02405D01*
X06055Y03393D02*
X06125D01*
X06141Y03409*
X06156*
X0606Y0338D02*
X06119D01*
X06141Y03359*
X06156*
X03318Y02944D02*
X03342Y02968D01*
X03444Y02998D02*
X03488D01*
X03331Y02939D02*
X03347Y02955D01*
X03488Y02985D02*
X03501Y02972D01*
X03318Y02496D02*
Y02944D01*
X03679Y02135D02*
X05311D01*
X03318Y02496D02*
X03679Y02135D01*
X06123Y02926D02*
X0614Y02909D01*
X06156*
X06102Y02926D02*
X06123D01*
X05311Y02135D02*
X06102Y02926D01*
X03331Y02501D02*
Y02939D01*
X03681Y02151D02*
X05304D01*
X03331Y02501D02*
X03681Y02151D01*
X0614Y02959D02*
X06156D01*
X06124Y02942D02*
X0614Y02959D01*
X05304Y02151D02*
X06095Y02942D01*
X06124*
X03347Y02955D02*
X03419D01*
X0345Y02985*
X03488*
X03342Y02968D02*
X03414D01*
X03444Y02998*
X03488D02*
X03501Y03011D01*
X03468Y03064D02*
X03488D01*
X0344Y03036D02*
X03468Y03064D01*
X0344Y0301D02*
Y03036D01*
X03463Y03077D02*
X03488D01*
X03427Y03042D02*
X03463Y03077D01*
X03427Y03015D02*
Y03042D01*
X03324Y02979D02*
X03409D01*
X03318Y02992D02*
X03404D01*
X0614Y02809D02*
X06156D01*
X06131Y02799D02*
X0614Y02808D01*
Y02809*
X06089Y02799D02*
X06131D01*
X0539Y021D02*
X06089Y02799D01*
X03659Y021D02*
X0539D01*
X03291Y02468D02*
X03659Y021D01*
X03291Y02468D02*
Y02946D01*
X03324Y02979*
X06096Y02783D02*
X06131D01*
X06156Y02759*
X05397Y02084D02*
X06096Y02783D01*
X03657Y02084D02*
X05397D01*
X03278Y02463D02*
X03657Y02084D01*
X03278Y02463D02*
Y02951D01*
X03318Y02992*
X03409Y02979D02*
X0344Y0301D01*
X03404Y02992D02*
X03427Y03015D01*
X03488Y03077D02*
X03501Y0309D01*
X03488Y03064D02*
X03501Y03051D01*
X05149Y02342D02*
X06047Y0324D01*
X05154Y02329D02*
X06052Y03227D01*
X03519Y02768D02*
Y02783D01*
X0379Y02342D02*
X05149D01*
X03514Y02617D02*
X0379Y02342D01*
X03501Y02801D02*
X03519Y02783D01*
X03501Y02801D02*
Y02814D01*
X03514Y02762D02*
X03519Y02768D01*
X03514Y02617D02*
Y02762D01*
X03501Y02612D02*
Y02775D01*
X03784Y02329D02*
X05154D01*
X03501Y02612D02*
X03784Y02329D01*
X06047Y0324D02*
D01*
X06047Y0324*
X06122*
X06141Y03259*
X06156*
X06052Y03227D02*
X06122D01*
X06141Y03209*
X06156*
X06122Y03677D02*
X06141Y03659D01*
X0611Y03677D02*
X06122D01*
X05061Y02628D02*
X0611Y03677D01*
X06124Y03692D02*
X06141Y03709D01*
X06107Y03692D02*
X06124D01*
X05056Y02641D02*
X06107Y03692D01*
X03921Y02637D02*
X03925Y02641D01*
X05056*
X03918Y02635D02*
X03921Y02637D01*
X03737Y02763D02*
Y02775D01*
X03841Y02673D02*
X03879Y02635D01*
X03918*
X03724Y02693D02*
X03745Y02673D01*
X03841*
X0393Y02628D02*
X05061D01*
X03927Y02625D02*
X0393Y02628D01*
X03927Y02625D02*
D01*
X03924Y02622D02*
X03927Y02625D01*
X03873Y02622D02*
X03924D01*
X03739Y0266D02*
X03835D01*
X03698Y02763D02*
Y02775D01*
X0387Y02625D02*
D01*
X03873Y02622*
X03711Y02688D02*
X03739Y0266D01*
X03835D02*
X0387Y02625D01*
X06141Y03709D02*
X06156D01*
X06141Y03659D02*
X06156D01*
X0618Y03719D02*
X06196D01*
X06181Y03746D02*
X06193D01*
X05055Y03573D02*
X05065Y03563D01*
X05055Y03541D02*
X05065Y0355D01*
X05515Y02066D02*
X06086Y02637D01*
X05521Y02053D02*
X06094Y02627D01*
X06137D02*
X06156Y02609D01*
X03486Y03193D02*
X03501Y03208D01*
X03477Y03193D02*
D01*
X03624Y02053D02*
X05521D01*
X03466Y03193D02*
X03477D01*
X03431Y03159D02*
X03466Y03193D01*
X03477D02*
X03486D01*
X03431Y03129D02*
Y03159D01*
X03389Y03087D02*
X03431Y03129D01*
X03253Y03087D02*
X03389D01*
X03228Y0245D02*
X03624Y02053D01*
X03228Y03062D02*
X03253Y03087D01*
X03228Y0245D02*
Y03062D01*
X03489Y03169D02*
X03501D01*
X03471Y0318D02*
X03477D01*
X03489Y03169*
X03629Y02066D02*
X05515D01*
X03444Y03153D02*
X03471Y0318D01*
X03444Y03124D02*
Y03153D01*
X03395Y03074D02*
X03444Y03124D01*
X03258Y03074D02*
X03395D01*
X03241Y03057D02*
X03258Y03074D01*
X03241Y02455D02*
X03629Y02066D01*
X03241Y02455D02*
Y03057D01*
X06086Y02637D02*
D01*
X06089Y0264*
X06137*
X06156Y02659*
X06094Y02627D02*
X06137D01*
X06181Y02521D02*
X06193D01*
X06139Y02492D02*
X06156Y02509D01*
X06085Y02492D02*
X06139D01*
X05602Y02008D02*
X06085Y02492D01*
X03621Y02008D02*
X05602D01*
X03248Y03163D02*
X03386D01*
X03201Y03116D02*
X03248Y03163D01*
X03201Y02427D02*
X03621Y02008D01*
X03201Y02427D02*
Y03116D01*
X03188Y03122D02*
X03243Y03176D01*
X03188Y02422D02*
Y03122D01*
Y02422D02*
X03615Y01995D01*
X05612*
X06092Y02475*
X06139D02*
X06156Y02459D01*
X06092Y02475D02*
X06139D01*
X03386Y03163D02*
X03394D01*
X03414Y03183*
Y0325*
X03243Y03176D02*
X03388D01*
X03401Y03188*
Y03255*
X03165Y03685D02*
X03188D01*
X03158Y03673D02*
X0316Y03672D01*
X03158Y03673D02*
X03158D01*
X03073Y03758D02*
Y03989D01*
Y03758D02*
X03158Y03673D01*
X03063Y03999D02*
Y0404D01*
Y03999D02*
X03073Y03989D01*
X03656Y03678D02*
D01*
X03095Y03999D02*
Y0404D01*
X03086Y03989D02*
X03095Y03999D01*
X03086Y03764D02*
Y03989D01*
Y03764D02*
X03165Y03685D01*
X03203D02*
X03218D01*
X03233D02*
X03248D01*
X03263D02*
X03278D01*
X03293D02*
X03308D01*
X03323D02*
X03338D01*
X03342*
X0368Y03594D02*
X03698Y03576D01*
X03685Y03615D02*
Y0363D01*
X0368Y03609D02*
X03685Y03615D01*
X0368Y03594D02*
Y03609D01*
X03698Y03563D02*
Y03576D01*
Y03602D02*
Y03636D01*
X03111Y0327D02*
X03299Y03458D01*
X03111Y024D02*
Y0327D01*
Y024D02*
X03629Y01881D01*
X03098Y03275D02*
X03293Y03471D01*
X03098Y02395D02*
Y03275D01*
Y02395D02*
X03624Y01868D01*
X03472Y02812D02*
X03501Y02842D01*
X03472Y02559D02*
Y02812D01*
Y02559D02*
X03755Y02275D01*
X03501Y02881D02*
Y02893D01*
X03459Y02839D02*
X03501Y02881D01*
X03459Y02553D02*
Y02839D01*
X03501Y02842D02*
Y02854D01*
X03459Y02553D02*
X0375Y02262D01*
X05211*
X03755Y02275D02*
X05206D01*
X0602Y0309*
X05211Y02262D02*
X06026Y03077D01*
X0602Y0309D02*
X06122D01*
X06141Y03109*
X06156*
X06026Y03077D02*
X06122D01*
X06141Y03059*
X06156*
X03476Y03576D02*
X03489Y03563D01*
X03255Y03576D02*
X03476D01*
X03196Y03517D02*
X03255Y03576D01*
X06406Y02909D02*
X06424Y0289D01*
X06442*
X06473Y02859*
Y02199D02*
Y02859D01*
X06056Y01782D02*
X06473Y02199D01*
X03632Y01782D02*
X06056D01*
X03183Y03522D02*
X0325Y03589D01*
X03183Y03399D02*
Y03522D01*
X03042Y02372D02*
X03632Y01782D01*
X03042Y03257D02*
X03183Y03399D01*
X03042Y02372D02*
Y03257D01*
X06424Y02877D02*
X06437D01*
X0646Y02853*
X06406Y02859D02*
X06424Y02877D01*
X0646Y02204D02*
Y02853D01*
X06051Y01795D02*
X0646Y02204D01*
X03637Y01795D02*
X06051D01*
X03196Y03393D02*
Y03517D01*
X03055Y02377D02*
X03637Y01795D01*
X03055Y03251D02*
X03196Y03393D01*
X03055Y02377D02*
Y03251D01*
X0325Y03589D02*
X03476D01*
X03489Y03602*
X03501*
X03489Y03563D02*
X03501D01*
X03127Y03412D02*
Y03413D01*
X03117Y03423D02*
X03127Y03413D01*
X03111Y03423D02*
X03117D01*
X03166Y03246D02*
X03269Y03349D01*
X03166Y02407D02*
Y03246D01*
Y02407D02*
X03626Y01948D01*
X03816Y02892D02*
Y02893D01*
X06331Y03771D02*
X06343D01*
X05793Y03798D02*
X05801Y03791D01*
X05763Y03798D02*
X05793D01*
X06343Y03771D02*
X06356Y03759D01*
X05717Y03751D02*
X05763Y03798D01*
X05717Y03449D02*
Y03751D01*
X05081Y02814D02*
X05717Y03449D01*
X05028Y02814D02*
X05081D01*
X04985Y02771D02*
X05028Y02814D01*
X04985Y02748D02*
X04992Y02741D01*
X04985Y02748D02*
Y02771D01*
X04961Y02741D02*
X04968Y02748D01*
Y02777*
X05021Y0283*
X05071*
X05073Y02828D02*
X057Y03455D01*
Y03758*
X05757Y03815*
X05793*
X05801Y03822*
X06331Y03796D02*
X06343D01*
X06356Y03809*
X06393Y04071D02*
X06406Y04059D01*
X0638Y04071D02*
X06393D01*
Y04096D02*
X06406Y04109D01*
X06281Y02828D02*
X06287Y02834D01*
X06299*
X06343Y02878*
X06347*
X06353Y02862D02*
Y02872D01*
Y02862D02*
X06356Y02859D01*
X06347Y02878D02*
X06353Y02872D01*
X06287Y02846D02*
X06294D01*
X063Y02852*
X06281Y02853D02*
X06287Y02846D01*
X063Y02852D02*
D01*
X06338Y0289*
X06343*
X06353Y029*
Y02906*
X06356Y02909*
X06193Y02521D02*
X06206Y02509D01*
X06193Y02546D02*
X06206Y02559D01*
X06331Y03321D02*
X06343D01*
X06356Y03309*
X06343Y03346D02*
X06356Y03359D01*
X0634Y03459D02*
X06356D01*
X06262Y03478D02*
X06321D01*
X06256Y03471D02*
X06262Y03478D01*
X06321D02*
X0634Y03459D01*
Y03509D02*
X06356D01*
X06321Y0349D02*
X0634Y03509D01*
X06256Y03496D02*
X06262Y0349D01*
X06321*
X06343Y03621D02*
X06356Y03609D01*
X06331Y03621D02*
X06343D01*
Y03646D02*
X06356Y03659D01*
X06181Y02821D02*
X06193D01*
X06354Y02707D02*
X06356Y02709D01*
X0631Y02663D02*
X06354Y02707D01*
X06333D02*
X06354D01*
X06329Y0251D02*
X06355D01*
X06356Y02509*
X0631Y02713D02*
X06356Y02759D01*
X0631Y02663D02*
Y02713D01*
Y02589D02*
Y02663D01*
Y02589D02*
X0634Y02559D01*
X06356*
X06343Y03046D02*
X06356Y03059D01*
X06331Y03021D02*
X06343D01*
X06356Y03009*
X06193Y02846D02*
X06206Y02859D01*
X06193Y02821D02*
X06206Y02809D01*
X06393Y03296D02*
X06406Y03309D01*
X06382Y03271D02*
X06393D01*
X06406Y03259*
X0459Y03192D02*
X04599Y03202D01*
X04612D02*
X04622Y03192D01*
X04599Y03202D02*
Y03299D01*
X06196Y03719D02*
X06206Y03709D01*
X04774Y03474D02*
X04858D01*
X06193Y03746D02*
X06206Y03759D01*
X04599Y03299D02*
X04774Y03474D01*
X04612Y03202D02*
Y03294D01*
X04779Y03461*
X06406Y03659D02*
Y03674D01*
X06428Y03697*
Y0372*
X06441Y03733*
X06467*
X06471Y03729*
X06406Y03709D02*
X06412Y03715D01*
Y0372*
Y03726*
X06434Y03749*
X06461*
X06462Y0375*
X06467*
X06089Y02342D02*
X06139D01*
X05695Y01948D02*
X06089Y02342D01*
X03626Y01948D02*
X05695D01*
X06139Y02342D02*
X06156Y02359D01*
X06139Y02325D02*
X06156Y02309D01*
X06096Y02325D02*
X06139D01*
X05702Y01931D02*
X06096Y02325D01*
X03619Y01931D02*
X05702D01*
X03153Y02396D02*
X03619Y01931D01*
X03153Y02396D02*
Y03251D01*
X03263Y03362*
X06206Y02359D02*
X06224Y02377D01*
X06232*
X06206Y02409D02*
X06224Y0239D01*
X06232Y02377D02*
X06244Y02365D01*
X06224Y0239D02*
X06237D01*
X06257Y02371*
X03629Y01881D02*
X05972D01*
X03476Y03458D02*
X03489Y03444D01*
X03299Y03458D02*
X03476D01*
X03489Y03444D02*
X03501D01*
X03293Y03471D02*
X03476D01*
X03489Y03484*
X03501*
X06253Y02144D02*
D01*
X06257Y02148*
X06244Y02153D02*
Y02365D01*
X06257Y02148D02*
Y02371D01*
X03112Y03436D02*
X03119D01*
X03096Y03409D02*
X03111Y03423D01*
X03119Y03436D02*
X03127Y03443D01*
X03096Y03452D02*
X03112Y03436D01*
X06116Y04317D02*
X06131D01*
X06141Y04327*
X06116Y04351D02*
X06131D01*
X06141Y0434*
X06248Y04327D02*
X06268Y04307D01*
Y03999D02*
Y04307D01*
X06253Y0434D02*
X06281Y04312D01*
Y04004D02*
Y04312D01*
X06322Y03977D02*
X06341Y03959D01*
X06356*
X06289Y03977D02*
X06322D01*
X06295Y0399D02*
X06322D01*
X06341Y04009*
X06356*
X06141Y04327D02*
X06248D01*
X06268Y03999D02*
X06289Y03977D01*
X06141Y0434D02*
X06253D01*
X06281Y04004D02*
X06295Y0399D01*
X06382Y03871D02*
X06393D01*
X06406Y03859*
X06393Y03896D02*
X06406Y03909D01*
X05065Y0355D02*
X05237D01*
X05834Y04148*
Y04311D02*
X05851Y04327D01*
X05834Y04148D02*
Y04311D01*
X05851Y04327D02*
X06058D01*
X06068Y04317D02*
X06083D01*
X06058Y04327D02*
X06068Y04317D01*
X05065Y03563D02*
X05231D01*
X05821Y04153*
Y04316D02*
X05845Y0434D01*
X05821Y04153D02*
Y04316D01*
X05845Y0434D02*
X06058D01*
X06068Y04351*
X06083*
X06181Y02846D02*
X06193D01*
X06382Y03296D02*
X06393D01*
X06331Y03346D02*
X06343D01*
X06331Y03646D02*
X06343D01*
X03624Y01868D02*
X05977D01*
X06253Y02144*
X05972Y01881D02*
X06244Y02153D01*
G54D12*
X03777Y03563D03*
Y03602D03*
Y02775D03*
Y02814D03*
X03501Y02972D03*
Y03011D03*
Y03051D03*
Y0309D03*
Y02775D03*
Y02814D03*
Y03169D03*
Y03208D03*
Y03563D03*
Y03602D03*
X03698Y02854D03*
X03501Y03248D03*
Y03287D03*
Y02854D03*
Y02893D03*
X03698Y03563D03*
Y03602D03*
X0354Y02933D03*
Y02972D03*
X03501Y03366D03*
Y03405D03*
X0354Y02775D03*
X03619Y03563D03*
Y03602D03*
X04328Y02775D03*
X04289D03*
X04249D03*
X0421D03*
X0417D03*
X04131D03*
X04092D03*
X04052D03*
X04013D03*
X03974D03*
X03934D03*
X03895D03*
X03855D03*
X03816D03*
X03737D03*
X03698D03*
X03659D03*
X03619D03*
X0358D03*
X04328Y02814D03*
X04289D03*
X04249D03*
X0421D03*
X0417D03*
X04131D03*
X04092D03*
X04052D03*
X04013D03*
X03974D03*
X03934D03*
X03895D03*
X03855D03*
X03816D03*
X03737D03*
X03698D03*
X03659D03*
X03619D03*
X0358D03*
X0354D03*
X04328Y02854D03*
X04289D03*
X04249D03*
X0421D03*
X0417D03*
X04131D03*
X04092D03*
X04052D03*
X04013D03*
X03974D03*
X03934D03*
X03895D03*
X03855D03*
X03816D03*
X03777D03*
X03737D03*
X03659D03*
X03619D03*
X0358D03*
X0354D03*
X04328Y02893D03*
X04289D03*
X04249D03*
X0421D03*
X0417D03*
X04131D03*
X04092D03*
X04052D03*
X04013D03*
X03974D03*
X03934D03*
X03895D03*
X03855D03*
X03816D03*
X03777D03*
X03737D03*
X03698D03*
X03659D03*
X03619D03*
X0358D03*
X0354D03*
X04328Y02933D03*
X04289D03*
X04249D03*
X0421D03*
X0417D03*
X04131D03*
X04092D03*
X04052D03*
X04013D03*
X03974D03*
X03934D03*
X03895D03*
X03855D03*
X03816D03*
X03777D03*
X03737D03*
X03698D03*
X03619D03*
X0358D03*
X03501D03*
X04328Y02972D03*
X04289D03*
X04249D03*
X0421D03*
X0417D03*
X04131D03*
X04092D03*
X04052D03*
X04013D03*
X03974D03*
X03934D03*
X03895D03*
X03855D03*
X03816D03*
X03777D03*
X03737D03*
X03659D03*
X03619D03*
X0358D03*
X04328Y03011D03*
X04289D03*
X04249D03*
X0421D03*
X0417D03*
X04131D03*
X04092D03*
X04052D03*
X04013D03*
X03974D03*
X03934D03*
X03895D03*
X03855D03*
X03816D03*
X03777D03*
X03737D03*
X03698D03*
X03659D03*
X03619D03*
X0358D03*
X0354D03*
X04328Y03051D03*
X04289D03*
X04249D03*
X0421D03*
X0417D03*
X04131D03*
X04092D03*
X04052D03*
X04013D03*
X03974D03*
X03934D03*
X03895D03*
X03855D03*
X03816D03*
X03777D03*
X03737D03*
X03698D03*
X03659D03*
X03619D03*
X0358D03*
X0354D03*
X04328Y0309D03*
X04289D03*
X04249D03*
X0421D03*
X0417D03*
X04131D03*
X04092D03*
X04052D03*
X04013D03*
X03974D03*
X03934D03*
X03895D03*
X03855D03*
X03816D03*
X03777D03*
X03737D03*
X03698D03*
X03659D03*
X03619D03*
X0358D03*
X0354D03*
X04328Y03129D03*
X04289D03*
X04249D03*
X0421D03*
X0417D03*
X04131D03*
X04092D03*
X04052D03*
X04013D03*
X03974D03*
X03934D03*
X03895D03*
X03855D03*
X03816D03*
X03777D03*
X03737D03*
X03698D03*
X03659D03*
X03619D03*
X0358D03*
X0354D03*
X03501D03*
X04328Y03169D03*
X04289D03*
X04249D03*
X0421D03*
X0417D03*
X04131D03*
X04092D03*
X04052D03*
X04013D03*
X03974D03*
X03934D03*
X03895D03*
X03855D03*
X03816D03*
X03777D03*
X03737D03*
X03698D03*
X03659D03*
X03619D03*
X0358D03*
X0354D03*
X04328Y03208D03*
X04289D03*
X04249D03*
X0421D03*
X0417D03*
X04131D03*
X04092D03*
X04052D03*
X04013D03*
X03974D03*
X03934D03*
X03895D03*
X03855D03*
X03816D03*
X03777D03*
X03737D03*
X03698D03*
X03659D03*
X03619D03*
X0358D03*
X0354D03*
X04328Y03248D03*
X04289D03*
X04249D03*
X0421D03*
X0417D03*
X04131D03*
X04092D03*
X04052D03*
X04013D03*
X03974D03*
X03934D03*
X03895D03*
X03855D03*
X03816D03*
X03777D03*
X03737D03*
X03698D03*
X03659D03*
X03619D03*
X0358D03*
X0354D03*
X04328Y03287D03*
X04289D03*
X04249D03*
X0421D03*
X0417D03*
X04131D03*
X04092D03*
X04052D03*
X04013D03*
X03974D03*
X03934D03*
X03895D03*
X03855D03*
X03816D03*
X03777D03*
X03737D03*
X03698D03*
X03659D03*
X03619D03*
X0358D03*
X0354D03*
X04328Y03326D03*
X04289D03*
X04249D03*
X0421D03*
X0417D03*
X04131D03*
X04092D03*
X04052D03*
X04013D03*
X03974D03*
X03934D03*
X03895D03*
X03855D03*
X03816D03*
X03777D03*
X03737D03*
X03698D03*
X03659D03*
X03619D03*
X0358D03*
X0354D03*
X03501D03*
X04328Y03366D03*
X04289D03*
X04249D03*
X0421D03*
X0417D03*
X04131D03*
X04092D03*
X04052D03*
X04013D03*
X03974D03*
X03934D03*
X03895D03*
X03855D03*
X03816D03*
X03777D03*
X03737D03*
X03698D03*
X03659D03*
X03619D03*
X0358D03*
X0354D03*
X04328Y03405D03*
X04289D03*
X04249D03*
X0421D03*
X0417D03*
X04131D03*
X04092D03*
X04052D03*
X04013D03*
X03974D03*
X03934D03*
X03895D03*
X03855D03*
X03816D03*
X03777D03*
X03737D03*
X03698D03*
X03659D03*
X03619D03*
X0358D03*
X0354D03*
X04328Y03444D03*
X04289D03*
X04249D03*
X0421D03*
X0417D03*
X04131D03*
X04092D03*
X04052D03*
X04013D03*
X03974D03*
X03934D03*
X03895D03*
X03855D03*
X03816D03*
X03777D03*
X03737D03*
X03698D03*
X03659D03*
X03619D03*
X0358D03*
X0354D03*
X04328Y03484D03*
X04289D03*
X04249D03*
X0421D03*
X0417D03*
X04131D03*
X04092D03*
X04052D03*
X04013D03*
X03974D03*
X03934D03*
X03895D03*
X03855D03*
X03816D03*
X03777D03*
X03737D03*
X03698D03*
X03659D03*
X03619D03*
X0358D03*
X0354D03*
X04328Y03523D03*
X04289D03*
X04249D03*
X0421D03*
X0417D03*
X04131D03*
X04092D03*
X04052D03*
X04013D03*
X03974D03*
X03934D03*
X03895D03*
X03855D03*
X03816D03*
X03777D03*
X03737D03*
X03698D03*
X03659D03*
X03619D03*
X0358D03*
X0354D03*
X03501D03*
X04328Y03563D03*
X04289D03*
X04249D03*
X0421D03*
X0417D03*
X04131D03*
X04092D03*
X04052D03*
X04013D03*
X03974D03*
X03934D03*
X03895D03*
X03855D03*
X03816D03*
X03737D03*
X03659D03*
X0358D03*
X0354D03*
X04328Y03602D03*
X04289D03*
X04249D03*
X0421D03*
X0417D03*
X04131D03*
X04092D03*
X04052D03*
X04013D03*
X03974D03*
X03934D03*
X03895D03*
X03855D03*
X03816D03*
X03737D03*
X03659D03*
X0358D03*
X0354D03*
X03698Y02972D03*
X03659Y02933D03*
X03501Y03484D03*
Y03444D03*
G54D13*
X06156Y03359D03*
Y03409D03*
Y03209D03*
Y03259D03*
Y03659D03*
Y03709D03*
Y02609D03*
Y02659D03*
Y03059D03*
Y03109D03*
X06406Y02859D03*
Y02909D03*
Y03059D03*
Y03109D03*
X06356Y03209D03*
X06156Y02309D03*
Y02359D03*
Y02459D03*
Y02509D03*
Y03959D03*
Y04009D03*
X06406Y04159D03*
X06356D03*
X06206D03*
X06156D03*
Y04109D03*
X06406D03*
X06356D03*
X06156Y04059D03*
X06406D03*
X06356D03*
X06206Y04009D03*
X06406D03*
X06206Y03959D03*
X06406D03*
X06156Y03909D03*
X06356D03*
Y03859D03*
X06206Y03809D03*
X06406D03*
X06356D03*
X06206Y03759D03*
X06156D03*
X06406D03*
X06356D03*
X06206Y03709D03*
X06356D03*
X06206Y03659D03*
X06356D03*
X06156Y03609D03*
X06406D03*
X06356D03*
X06406Y03559D03*
X06356D03*
X06206Y03509D03*
Y03459D03*
X06156D03*
X06206Y03409D03*
X06406D03*
X06356D03*
X06206Y03359D03*
X06406D03*
X06356D03*
X06206Y03309D03*
X06156D03*
X06406D03*
X06356D03*
X06206Y03259D03*
X06406D03*
X06356D03*
X06206Y03209D03*
X06406D03*
X06206Y03159D03*
X06156D03*
X06406D03*
X06356D03*
X06206Y03109D03*
X06356D03*
X06206Y03059D03*
X06356D03*
X06206Y03009D03*
X06156D03*
X06406D03*
X06356D03*
X06206Y02959D03*
X06406D03*
X06356D03*
X06206Y02909D03*
Y02859D03*
X06156D03*
X06206Y02809D03*
X06406D03*
X06356D03*
X06206Y02759D03*
X06406D03*
X06356D03*
X06206Y02709D03*
X06156D03*
X06406D03*
X06356D03*
X06206Y02659D03*
X06406D03*
X06356D03*
X06206Y02609D03*
X06406D03*
X06356D03*
X06206Y02559D03*
X06156D03*
X06406D03*
X06356D03*
X06206Y02509D03*
X06406D03*
X06356D03*
X06206Y02459D03*
X06406D03*
X06356D03*
X06156Y02409D03*
X06406D03*
X06356D03*
X06406Y02359D03*
X06356D03*
X06206Y02309D03*
X06406D03*
X06356D03*
X06206Y02259D03*
X06156D03*
X06406D03*
X06356D03*
X06206Y02209D03*
X06156D03*
X06406D03*
X06356D03*
X06156Y03859D03*
Y03809D03*
Y03559D03*
Y03509D03*
Y02959D03*
Y02909D03*
Y02809D03*
Y02759D03*
X06356Y03509D03*
Y03459D03*
Y02909D03*
Y02859D03*
X06206Y04109D03*
Y04059D03*
X06406Y03909D03*
Y03859D03*
X06206Y03909D03*
Y03859D03*
X06406Y03509D03*
Y03459D03*
Y03659D03*
Y03709D03*
X06206Y03609D03*
Y03559D03*
Y02409D03*
Y02359D03*
X06356Y04009D03*
Y03959D03*
G54D14*
X03707Y04725D03*
Y04666D03*
X03647Y04701D03*
Y04642D03*
X03703Y04476D03*
Y04535D03*
X03704Y04407D03*
Y04348D03*
X03645Y04814D03*
Y04873D03*
X03703Y04788D03*
Y04847D03*
X02941Y03128D03*
Y03187D03*
Y03033D03*
Y03092D03*
X02882Y01776D03*
Y01717D03*
X02974Y02207D03*
Y02148D03*
X01945Y02263D03*
Y02322D03*
X03643Y04379D03*
Y0432D03*
X03648Y04504D03*
Y04563D03*
G54D15*
X03567Y04474D03*
X03508D03*
X03566Y04783D03*
X03507D03*
X01148Y03829D03*
X01089D03*
X01092Y04144D03*
X01151D03*
X02472Y03504D03*
X02531D03*
X03566Y04736D03*
X03507D03*
X03567Y04424D03*
X03508D03*
G54D16*
X0392Y05303D03*
X03944D03*
X03969D03*
X0392Y05378D03*
X03944D03*
X03968Y04996D03*
X03944D03*
X0392D03*
X03968Y04922D03*
X03944D03*
G54D17*
X03969Y05378D03*
X0392Y04922D03*
G54D18*
X06116Y04317D03*
X06083D03*
X06116Y04351D03*
X06083D03*
X0186Y01658D03*
X01895D03*
X01224Y04896D03*
X0119D03*
X01523Y02844D03*
X01557D03*
X03063Y03452D03*
X03096D03*
X03063Y03409D03*
X03096D03*
X0291Y02207D03*
X02876D03*
X01132Y03066D03*
X01166D03*
X01508Y02985D03*
X01475D03*
X01467Y03047D03*
X01433D03*
X02622Y01905D03*
X02587D03*
X02547D03*
X02512D03*
X0251Y025D03*
X02544D03*
X02585Y02499D03*
X02619D03*
X0277Y01905D03*
X02735D03*
X02697D03*
X02662D03*
X03054Y02208D03*
X03019D03*
X02664Y02421D03*
X02629D03*
X01509Y0295D03*
X01475D03*
X02825Y0306D03*
X02859D03*
G54D19*
X04758Y02845D03*
X04721D03*
X04683D03*
Y0275D03*
X04721D03*
X04758D03*
G54D20*
X04633Y02766D03*
Y02801D03*
X01861Y01584D03*
Y01618D03*
X01152Y04898D03*
Y04932D03*
X03527Y04017D03*
Y03983D03*
X03493Y04017D03*
Y03983D03*
X04879Y03799D03*
Y03765D03*
X04952Y03799D03*
Y03765D03*
X04915Y03799D03*
Y03765D03*
X04843Y03799D03*
Y03765D03*
X05337Y048D03*
Y04834D03*
X05387Y048D03*
Y04834D03*
X05487Y048D03*
Y04834D03*
X05436Y048D03*
Y04834D03*
X04986Y05102D03*
Y05067D03*
X05038Y05099D03*
Y05064D03*
X02906Y03435D03*
Y03468D03*
X02559Y0195D03*
Y01983D03*
X02456Y02165D03*
Y02132D03*
X02577Y02444D03*
Y0241D03*
X02457Y02274D03*
Y02241D03*
X02722Y01949D03*
Y01982D03*
X02814Y01975D03*
Y02008D03*
X02718Y02444D03*
Y0241D03*
X02641Y01966D03*
Y01999D03*
X02674Y01966D03*
Y01999D03*
X01354Y02911D03*
Y02878D03*
X01399Y02982D03*
Y02949D03*
X01434Y02911D03*
Y02878D03*
X02526Y01949D03*
Y01983D03*
X02223Y02178D03*
Y02143D03*
Y02262D03*
Y02227D03*
X02542Y02445D03*
Y0241D03*
X02755Y01949D03*
Y01983D03*
X02756Y02443D03*
Y02409D03*
X03092Y02168D03*
Y02202D03*
X02608Y02D03*
Y01966D03*
X01399Y02912D03*
Y02878D03*
X01201Y02912D03*
Y02878D03*
X01237Y02912D03*
Y02878D03*
X0147Y02912D03*
Y02878D03*
X01549Y03545D03*
Y03511D03*
Y03621D03*
Y03587D03*
X01318Y02912D03*
Y02878D03*
X02874Y03201D03*
Y03167D03*
X02806Y03201D03*
Y03167D03*
X04807Y0277D03*
Y02805D03*
G54D21*
X02943Y03228D03*
Y03293D03*
X01519Y01935D03*
Y0187D03*
X01467Y01935D03*
Y0187D03*
X04986Y05203D03*
Y05139D03*
X05039Y05205D03*
Y0514D03*
G54D22*
X01197Y03831D03*
Y04144D03*
X01374Y03831D03*
Y04144D03*
X02418Y035D03*
Y03187D03*
X02241Y035D03*
Y03187D03*
G54D23*
X0336Y0285D03*
X03435D03*
Y02909D03*
X0336D03*
X04419Y03161D03*
X04494D03*
Y03271D03*
X04419D03*
X04411Y03492D03*
X04486D03*
Y02909D03*
X04411D03*
X04486Y03015D03*
X04411D03*
X04486Y02811D03*
X04411D03*
X03427Y03414D03*
X03352D03*
Y03535D03*
X03427D03*
X01313Y03367D03*
X01388D03*
X01313Y03431D03*
X01388D03*
G54D24*
X03063Y0404D03*
X03095D03*
X02313D03*
X02874D03*
X02906D03*
X0255Y04363D03*
X02518D03*
X02487D03*
X02455D03*
X02424D03*
X02392D03*
X02361D03*
X02329D03*
X02298D03*
X02266D03*
X02282Y0404D03*
X02345D03*
X02376D03*
X02408D03*
X02439D03*
X02471D03*
X02502D03*
X02534D03*
X02565D03*
X03111Y04363D03*
X03079D03*
X03048D03*
X03016D03*
X02985D03*
X02953D03*
X02922D03*
X0289D03*
X02859D03*
X02827D03*
X02843Y0404D03*
X02937D03*
X02969D03*
X03D03*
X03032D03*
X03126D03*
G54D25*
X04425Y03633D03*
X0454D03*
X03368Y03244D03*
X03253D03*
G54D26*
X04863Y05098D03*
Y05217D03*
X04804D03*
Y05098D03*
X04656D03*
Y05217D03*
X04597D03*
Y05098D03*
G54D27*
X03023Y03494D03*
X02948D03*
X03023Y03409D03*
X02948D03*
G54D28*
X03023Y03452D03*
X02948D03*
G54D29*
X02469Y0202D03*
Y01945D03*
X02885Y0214D03*
Y02065D03*
X02493Y0238D03*
Y02455D03*
X02884Y02244D03*
Y02319D03*
X03724Y0369D03*
Y03765D03*
X0396Y03738D03*
Y03663D03*
X01014Y03044D03*
Y03119D03*
X01076Y03044D03*
Y03119D03*
G54D30*
X01942Y02151D03*
Y02037D03*
X01851Y02151D03*
Y02037D03*
G54D31*
X02405Y02211D03*
Y02186D03*
Y02162D03*
Y02236D03*
G54D32*
X02287Y0216D03*
Y02186D03*
Y02212D03*
Y02238D03*
G54D33*
X02366Y02223D03*
X02366Y02175D03*
G54D34*
X05487Y05099D03*
X05436D03*
X05387D03*
X05337D03*
X05487Y0491D03*
X05436D03*
X05387D03*
X05337D03*
G54D35*
X0315Y0172D03*
Y0209D03*
G54D36*
X01853Y02233D03*
Y0239D03*
G54D37*
X02019Y02482D03*
X02389D03*
X02022Y01905D03*
X02392D03*
G54D38*
X03346Y03021D03*
Y03135D03*
G54D39*
X02646Y02196D03*
G54D40*
X02754Y02061D03*
X02734D03*
X02715D03*
X02695D03*
X02675D03*
X02656D03*
X02636D03*
X02616D03*
X02597D03*
X02577D03*
X02557D03*
X02538D03*
Y02331D03*
X02557D03*
X02577D03*
X02597D03*
X02616D03*
X02636D03*
X02656D03*
X02675D03*
X02695D03*
X02715D03*
X02734D03*
X02754D03*
G54D41*
X02511Y02088D03*
Y02107D03*
Y02127D03*
Y02147D03*
Y02166D03*
Y02186D03*
Y02206D03*
Y02225D03*
Y02245D03*
Y02265D03*
Y02284D03*
Y02304D03*
X02781D03*
Y02284D03*
Y02265D03*
Y02245D03*
Y02225D03*
Y02206D03*
Y02186D03*
Y02166D03*
Y02147D03*
Y02127D03*
Y02107D03*
Y02088D03*
G54D42*
X01605Y03547D03*
Y03622D03*
Y03584D03*
X017Y03547D03*
Y03622D03*
X01807Y01657D03*
Y01582D03*
Y0162D03*
X01712Y01657D03*
Y01582D03*
G54D43*
X01681Y03431D03*
X01552D03*
X01717Y01753D03*
X01847D03*
G54D44*
X01599Y03431D03*
X01635D03*
X018Y01753D03*
X01764D03*
G54D45*
X01045Y04787D03*
Y04917D03*
G54D46*
X01045Y0487D03*
Y04834D03*
G54D47*
X0115Y04841D03*
X01225D03*
X01188D03*
X0115Y04746D03*
X01225D03*
G54D48*
X0137Y03012D03*
Y03032D03*
Y03052D03*
Y03071D03*
Y03091D03*
Y03111D03*
X01217D03*
Y03091D03*
Y03071D03*
Y03052D03*
Y03032D03*
Y03012D03*
G54D49*
X01343Y03138D03*
X01323D03*
X01303D03*
X01284D03*
X01264D03*
X01244D03*
Y02985D03*
X01264D03*
X01284D03*
X01303D03*
X01323D03*
X01343D03*
G54D50*
X01294Y03037D03*
G54D51*
X01294Y03094D03*
G54D52*
X02977Y04706D03*
X02416D03*
G54D53*
X02823Y02225D02*
X02825Y02224D01*
X02781Y02225D02*
X02823D01*
X04923Y04034D02*
X05125Y04236D01*
X04994Y04051D02*
X05245Y04302D01*
X02661Y02507D02*
Y02549D01*
X02461Y0275D02*
X02661Y02549D01*
X02627Y02411D02*
Y02421D01*
X06383Y02559D02*
X06406D01*
X06382D02*
X06383D01*
Y02509D02*
X06406D01*
X06382D02*
X06383D01*
X04952Y03741D02*
Y03765D01*
X04915Y03741D02*
Y03765D01*
X04879Y03741D02*
Y03765D01*
X03508Y04424D02*
X03559Y04373D01*
Y04342D02*
Y04373D01*
X03508Y04474D02*
X03559Y04524D01*
Y04539*
X02781Y02186D02*
X02817D01*
X02822Y02181*
X02828Y02221D02*
X02849D01*
X02825Y02224D02*
X02828Y02221D01*
X02781Y02167D02*
X02802D01*
X02849Y02221D02*
X02863Y02207D01*
X02825Y02224D02*
X02825D01*
X02822D02*
X02825D01*
X02863Y02207D02*
X02873D01*
X06383Y02609D02*
X06406D01*
X06382D02*
X06383D01*
Y02459D02*
X06406D01*
X06382D02*
X06383D01*
Y02359D02*
X06406D01*
X06382D02*
X06383D01*
Y02259D02*
X06406D01*
X06382D02*
X06383D01*
Y02409D02*
X06406D01*
X06382D02*
X06383D01*
Y02309D02*
X06406D01*
X06382D02*
X06383D01*
Y02209D02*
X06406D01*
X06382D02*
X06383D01*
X03938Y05433D02*
X04071D01*
X0392Y05415D02*
X03938Y05433D01*
X04071D02*
X04225Y05278D01*
X0392Y05378D02*
Y05415D01*
X04225Y05203D02*
Y05278D01*
X0392Y05208D02*
Y05303D01*
X04225Y05016D02*
Y05104D01*
X0392Y04892D02*
Y04922D01*
X04086Y04877D02*
X04225Y05016D01*
X03936Y04877D02*
X04086D01*
X0392Y04892D02*
X03936Y04877D01*
X0392Y04996D02*
Y05099D01*
X02629Y02444D02*
X02662Y02477D01*
Y02506*
X02661Y02507D02*
X02662Y02506D01*
X02629Y02421D02*
Y02444D01*
X02597Y02373D02*
X02602Y02378D01*
X02588Y02482D02*
X02606Y02464D01*
Y02413D02*
Y02464D01*
X02602Y02409D02*
X02606Y02413D01*
X02602Y02378D02*
Y02409D01*
X02698Y01905D02*
Y0193D01*
X02699Y01969D02*
Y02013D01*
X02698Y01969D02*
X02699Y01969D01*
X02695Y02017D02*
X02699Y02013D01*
X02695Y02043D02*
Y02061D01*
Y02043D02*
X02695Y02043D01*
Y02027D02*
Y02043D01*
X02695Y02027D02*
X02695Y02027D01*
X02695Y02017D02*
Y02027D01*
X02677Y02035D02*
Y02061D01*
X02636Y02008D02*
Y0206D01*
X02636Y02061*
X02636Y02008D02*
X02636Y02007D01*
X02559Y01985D02*
Y0202D01*
X02576Y02037*
X02577Y02038D02*
Y02061D01*
X02576Y02037D02*
X02577Y02038D01*
X02576Y02037D02*
Y02037D01*
X02584Y01905D02*
Y02022D01*
X02548Y01905D02*
X02584D01*
Y02022D02*
X02592Y0203D01*
Y0203D02*
X02597Y02035D01*
X02592Y0203D02*
Y0203D01*
X02597Y02035D02*
Y02061D01*
X02464Y02213D02*
X02477D01*
X02478Y02212*
X02698Y01905D02*
X02735D01*
X02697D02*
X02698D01*
X02662Y01821D02*
Y01905D01*
X02664Y02406D02*
Y02421D01*
X02933Y02003D02*
Y02098D01*
X02903Y01974D02*
X02933Y02003D01*
X02524Y0241D02*
X02542D01*
X02718Y02399D02*
Y02407D01*
X02754Y02331D02*
Y0236D01*
X02734Y02331D02*
Y0236D01*
X05125Y04387D02*
X05167Y04428D01*
X05125Y04236D02*
Y04387D01*
X03944Y05303D02*
X03945Y05302D01*
Y05277D02*
Y05302D01*
X03944Y04996D02*
X03945Y04997D01*
Y05023*
X03733Y04847D02*
X03734Y04847D01*
X03703Y04847D02*
X03733D01*
X03612Y0432D02*
X03643D01*
X03704Y04348D02*
X03737D01*
X0362Y04563D02*
X03648D01*
X03703Y04535D02*
X03732D01*
X03707Y04666D02*
X0374D01*
X0361Y04642D02*
X03647D01*
X03507Y04678D02*
Y04736D01*
Y04783D02*
Y04835D01*
X06406Y02809D02*
X06429D01*
X06406Y02759D02*
X06429D01*
X06334Y02409D02*
X06356D01*
X06334Y02359D02*
X06356D01*
X06334Y02209D02*
X06356D01*
X06333Y0226D02*
X06355D01*
X06334Y02308D02*
X06355D01*
X06336Y02459D02*
X06356D01*
X06336Y02609D02*
X06356D01*
X02664Y02421D02*
Y02426D01*
X01445Y02415D02*
X0178Y0275D01*
X01445Y02014D02*
Y02415D01*
X0178Y0275D02*
X02461D01*
X02781Y02166D02*
X02781Y02167D01*
X05245Y04302D02*
Y04428D01*
X04879Y03799D02*
Y03897D01*
X04915Y03799D02*
Y03822D01*
X04952Y03799D02*
Y03821D01*
X05324Y04342D02*
Y04428D01*
X04879Y03897D02*
X05324Y04342D01*
X05088Y04237D02*
Y04428D01*
X04843Y03992D02*
X05088Y04237D01*
X04843Y03799D02*
Y03992D01*
Y03741D02*
Y03765D01*
X04125Y05203D02*
Y0528D01*
X04027Y05378D02*
X04125Y0528D01*
X03969Y05378D02*
X04027D01*
X04125Y05017D02*
Y05104D01*
X0403Y04922D02*
X04125Y05017D01*
X03968Y04922D02*
X0403D01*
X04025Y05052D02*
Y05104D01*
X03968Y04996D02*
X04025Y05052D01*
Y05203D02*
Y05247D01*
X03969Y05303D02*
X04025Y05247D01*
X03073Y02208D02*
X0309D01*
X03056D02*
X03073D01*
X02811Y0201D02*
Y02057D01*
X02715Y01993D02*
Y02061D01*
X02714Y02331D02*
Y02396D01*
X02616Y02331D02*
Y02369D01*
X02618Y02371*
Y02403*
X02627Y02411*
X02478Y02212D02*
X02492Y02225D01*
X02511*
X02698Y0193D02*
X02698Y0193D01*
X02698Y0193D02*
Y01962D01*
X02698Y01962*
Y01969*
X02781Y02088D02*
X02811Y02057D01*
X02714Y02396D02*
X02718Y02399D01*
X0309Y02208D02*
X03092Y02205D01*
X02588Y02482D02*
Y02493D01*
X02597Y02332D02*
Y02373D01*
X02511Y02206D02*
X02636D01*
X02557Y02331D02*
Y02368D01*
X02754Y02025D02*
Y02061D01*
X02538Y02032D02*
Y02061D01*
X02677Y02035D02*
X02679Y02034D01*
X02677Y02004D02*
X02679Y02006D01*
X02616Y02009D02*
Y02061D01*
X02656D02*
X02675D01*
X02677*
X02664Y02406D02*
X02677Y02393D01*
Y02389D02*
Y02393D01*
X02716Y01767D02*
X02866D01*
X02662Y01821D02*
X02716Y01767D01*
X02866D02*
X0287Y01763D01*
X02874Y01759*
X02679Y02006D02*
Y02034D01*
X02718Y02446D02*
X02755D01*
X02722Y01946D02*
X02754D01*
X02577Y02331D02*
Y02407D01*
Y02407*
X02542Y02446D02*
X02577D01*
X02526Y01947D02*
X02559D01*
X02811Y01974D02*
X02814D01*
X02903*
G54D54*
X03934Y03523D02*
X03948Y03537D01*
X03881Y03077D02*
X03895Y0309D01*
X038Y03074D02*
X03816Y0309D01*
X03678Y03109D02*
X03698Y03129D01*
X03566Y03104D02*
X0358Y0309D01*
X03722Y03074D02*
X03737Y0309D01*
X03777Y02933D02*
X03792Y02917D01*
X03832Y02917D02*
X03834D01*
X03828Y02921D02*
X03832Y02917D01*
X03792Y02917D02*
X03795Y02919D01*
X03792Y02917D02*
X03792Y02917D01*
X03791Y02917D02*
X03792D01*
X04275Y03153D02*
Y03162D01*
X04282Y03169*
X03685Y03499D02*
X03686D01*
X03698Y03487*
X03631Y02921D02*
X03637D01*
X03619Y02933D02*
X03631Y02921D01*
X03607Y02881D02*
X03619Y02893D01*
X03645Y02877D02*
X03659Y02891D01*
X0354Y03405D02*
X03562Y03426D01*
X03603Y03184D02*
X03619Y03167D01*
X03566Y033D02*
X0358Y03287D01*
X03606Y02763D02*
X03619Y02776D01*
X03527Y02996D02*
X03543Y03011D01*
X03685Y02881D02*
X03698Y02893D01*
X03714Y02838D02*
X0372D01*
X03673Y02838D02*
Y02846D01*
X03665Y02854D02*
X03673Y02846D01*
X03698Y02854D02*
X03714Y02838D01*
X03749Y02881D02*
X03755D01*
X03777Y02892D02*
X03791Y02877D01*
X03598Y03111D02*
X036Y03114D01*
X0358Y03129D02*
X03598Y03111D01*
X04263Y03036D02*
X04264D01*
X04249Y03049D02*
X04263Y03036D01*
X04273Y02917D02*
X04289Y02933D01*
X03646Y03221D02*
X03659Y03208D01*
X03607Y03221D02*
X03619Y03208D01*
X03799Y03153D02*
X038D01*
X03549Y03462D02*
X03562D01*
X03548Y03463D02*
X03549Y03462D01*
X03533Y03463D02*
X03548D01*
X03532Y03462D02*
X03533Y03463D01*
X03522Y03462D02*
X03532D01*
X03562D02*
X0358Y03444D01*
X03566Y03102D02*
Y03104D01*
X03639Y02991D02*
X03659Y03011D01*
X03639Y02952D02*
X03659Y02972D01*
X03619Y03129D02*
X03633Y03115D01*
X03828Y02842D02*
X03834D01*
X03816Y02854D02*
X03828Y02842D01*
X0383Y02877D02*
Y02879D01*
X03749Y02921D02*
X03755D01*
X03759Y03035D02*
X03761D01*
X03777Y03051*
X0372Y03035D02*
X03722D01*
X03607Y02999D02*
X03619Y03011D01*
X03607Y03038D02*
X03619Y03051D01*
X03532Y02838D02*
X0354D01*
X03524D02*
X03532D01*
X0354Y02846*
X03528Y02834D02*
X03532Y02838D01*
X02139Y02954D02*
X02279D01*
X03524Y02838D02*
X03524Y02838D01*
X03524Y02838D02*
X03528Y02834D01*
X03566Y02799D02*
Y02801D01*
X0358Y02814*
X03716Y02799D02*
Y02801D01*
X03706Y02811D02*
X03716Y02801D01*
X03606Y02799D02*
Y02801D01*
X03619Y02814*
X03528Y02799D02*
Y02801D01*
X03527Y02801D02*
X03528Y02801D01*
X0359Y02905D02*
X03594D01*
X0358Y02895D02*
X0359Y02905D01*
X03698Y02972D02*
X037D01*
X03712Y0296D02*
X03712Y0296D01*
X037Y02972D02*
X03712Y0296D01*
X03712Y02956D02*
Y0296D01*
X03659Y02934D02*
X03677Y02952D01*
X03659Y02933D02*
Y02934D01*
X03607Y04504D02*
X03921D01*
X03607Y04382D02*
X03862D01*
X03529Y03275D02*
X0354Y03287D01*
X03523Y03275D02*
X03529D01*
X03529Y03236D02*
X0354Y03248D01*
X03523Y03236D02*
X03529D01*
X03646Y03575D02*
X03659Y03563D01*
X03767Y03533D02*
Y03535D01*
Y03533D02*
X03777Y03523D01*
X03641Y03417D02*
Y03417D01*
Y03417D02*
X03653Y03405D01*
X03737Y02933D02*
X03749Y02921D01*
X03737Y02893D02*
X03749Y02881D01*
X03942Y03161D02*
X03948D01*
X03934Y03169D02*
X03942Y03161D01*
X03884Y03226D02*
X03895Y03215D01*
X0384Y03185D02*
X03855Y03169D01*
X03838Y03183D02*
X0384Y03185D01*
X03836Y03228D02*
X03855Y03208D01*
X03838Y03181D02*
Y03183D01*
X03834Y03228D02*
X03836D01*
X03607Y0326D02*
X03619Y03248D01*
X03607Y033D02*
X03619Y03287D01*
X03567Y03038D02*
X0358Y03051D01*
X03528Y03038D02*
X0354Y03051D01*
X036Y03114D02*
X03602Y03115D01*
X03598Y03114D02*
X036D01*
X03607Y03339D02*
X03619Y03326D01*
X03607Y03378D02*
X03619Y03366D01*
X02945Y03111D02*
X02986D01*
X03526Y0338D02*
X0354Y03366D01*
X03526Y0334D02*
X0354Y03326D01*
X03765Y03338D02*
X03777Y03326D01*
X0388Y03114D02*
X03895Y03129D01*
X04576Y02805D02*
X04637D01*
X0372Y03154D02*
X03722D01*
X03762D02*
X03777Y03168D01*
X03716Y0311D02*
X03718D01*
X03722Y03224D02*
Y03227D01*
X03799Y0311D02*
Y03112D01*
X03759Y0311D02*
Y03112D01*
X03718Y0311D02*
X03737Y03129D01*
X03761Y03224D02*
X03777Y03208D01*
X03678Y03069D02*
Y03073D01*
X0353Y03156D02*
Y03158D01*
X0354Y03207D02*
X03559Y03188D01*
X03759Y03299D02*
X03765D01*
X03777Y03287*
X03879Y03342D02*
X03895Y03326D01*
X0348Y03503D02*
X0348D01*
X035Y03523*
X04064Y03456D02*
X04066D01*
X04052Y03444D02*
X04064Y03456D01*
X03992Y03541D02*
Y03543D01*
X03974Y03523D02*
X03992Y03541D01*
X03944Y03539D02*
X03947D01*
X03948Y03537*
X04018Y03563D02*
X04035Y0358D01*
X04267Y03192D02*
X0427D01*
X04286Y03208*
X04297Y0302D02*
X04304D01*
X04289Y03011D02*
X04297Y0302D01*
X03934Y02933D02*
X03952Y02915D01*
Y02909D02*
Y02915D01*
X03974Y02972D02*
X03986Y02959D01*
X03974Y03011D02*
X03986Y02999D01*
X04308Y0311D02*
X0467D01*
X04331Y02972D02*
X04343Y02961D01*
X04052Y03051D02*
X04066Y03037D01*
Y03035D02*
Y03037D01*
X03838Y02955D02*
X03855Y02972D01*
X03834Y03108D02*
X03855Y03129D01*
X03838Y02952D02*
Y02955D01*
X03834Y03106D02*
Y03108D01*
X0388Y03114D02*
X03881D01*
X0372Y03076D02*
Y03078D01*
Y03076D02*
X03722Y03074D01*
X03799Y03076D02*
Y03078D01*
Y03076D02*
X038Y03074D01*
X03881Y03077D02*
Y03078D01*
Y03077D02*
X03881Y03077D01*
X03991Y03075D02*
X03992D01*
X03976Y0309D02*
X03991Y03075D01*
X03838Y03074D02*
X0384D01*
X03855Y0309*
X03606Y02955D02*
Y02956D01*
X03619Y0297*
X0395Y03111D02*
Y03114D01*
X0384Y02996D02*
X03855Y03011D01*
X03934Y03129D02*
X0395Y03114D01*
X03722Y03618D02*
X03737Y03602D01*
X03828Y02763D02*
X03834D01*
X03816Y02775D02*
X03828Y02763D01*
X04552Y03563D02*
X04602Y03613D01*
X04328Y03563D02*
X04552D01*
X0438Y03772D02*
Y04207D01*
X0421Y03602D02*
X0438Y03772D01*
X04423Y03769D02*
Y03858D01*
X0427Y03616D02*
X04423Y03769D01*
X04309Y0361D02*
X0447Y03771D01*
X04309Y03594D02*
Y0361D01*
Y03594D02*
X0431Y03593D01*
X04249Y03602D02*
Y03618D01*
X04403Y03771*
X04269Y03738D02*
Y03811D01*
X04152Y0362D02*
X04269Y03738D01*
X04137Y03563D02*
X04152Y03577D01*
Y0362*
X03607Y04479D02*
X0391D01*
X04245Y03747D02*
Y03811D01*
X04099Y03602D02*
X04245Y03747D01*
X04092Y03602D02*
X04099D01*
X04214Y03747D02*
Y03811D01*
X04148Y0368D02*
X04214Y03747D01*
X04148Y03667D02*
Y0368D01*
X04123Y03643D02*
X04148Y03667D01*
X04106Y03643D02*
X04123D01*
X04073Y0361D02*
X04106Y03643D01*
X0419Y03739D02*
Y03811D01*
X04136Y03685D02*
X0419Y03739D01*
X04136Y03672D02*
Y03685D01*
X04118Y03655D02*
X04136Y03672D01*
X04101Y03655D02*
X04118D01*
X04052Y03606D02*
X04101Y03655D01*
X04064Y03692D02*
X04096Y03724D01*
X04064Y03677D02*
Y03692D01*
X04054Y03668D02*
X04064Y03677D01*
X04039Y03668D02*
X04054D01*
X03974Y03602D02*
X04039Y03668D01*
X04096Y03724D02*
X04114D01*
X04141Y03751D02*
Y03811D01*
X04114Y03724D02*
X04141Y03751D01*
X0419Y03811D02*
X04218Y03838D01*
X04073Y03583D02*
Y0361D01*
X04052Y03563D02*
X04073Y03583D01*
X04052Y03602D02*
Y03606D01*
X04289Y03572D02*
X0431Y03593D01*
X04289Y03563D02*
Y03572D01*
X0427Y03583D02*
Y03616D01*
X04249Y03563D02*
X0427Y03583D01*
X04466Y03965D02*
Y04208D01*
X0447Y03771D02*
Y03961D01*
X04466Y03965D02*
X0447Y03961D01*
X04403Y03771D02*
Y03866D01*
X04131Y03563D02*
X04137D01*
X02985Y04363D02*
Y04417D01*
X03607Y04455D02*
X03892D01*
X03586D02*
X03607D01*
X03567Y04474D02*
X03586Y04455D01*
X03607Y0443D02*
X03882D01*
X03574D02*
X03607D01*
X03567Y04424D02*
X03574Y0443D01*
X03079Y04363D02*
Y04416D01*
X04269Y03811D02*
X04297Y03838D01*
X04245Y03811D02*
X04272Y03838D01*
X04214Y03811D02*
X04242Y03838D01*
X04141Y03811D02*
X04169Y03838D01*
X04297D02*
Y03901D01*
X04332Y03937*
X04272Y03838D02*
Y03901D01*
X04308Y03937*
X04242Y03838D02*
Y03901D01*
X04277Y03937*
X04218Y03838D02*
Y03901D01*
X04253Y03937*
X04169Y03838D02*
Y03901D01*
X04204Y03937*
X04332D02*
Y04092D01*
X03921Y04504D02*
X04332Y04092D01*
X04308Y03937D02*
Y04082D01*
X0391Y04479D02*
X04308Y04082D01*
X04277Y03937D02*
Y04069D01*
X03892Y04455D02*
X04277Y04069D01*
X04253Y03937D02*
Y04059D01*
X03882Y0443D02*
X04253Y04059D01*
X04204Y03937D02*
Y04039D01*
X03862Y04382D02*
X04204Y04039D01*
X04744Y02896D02*
X04758Y02883D01*
X04633Y02896D02*
X04744D01*
X04511Y02775D02*
X04633Y02896D01*
X04758Y02845D02*
Y02883D01*
X04328Y0309D02*
X04329Y03089D01*
X04878Y03129D02*
Y0339D01*
X04329Y03089D02*
X04837D01*
X04878Y03129*
X0513Y03351D02*
Y03455D01*
X04834Y03055D02*
X0513Y03351D01*
X04606Y03055D02*
X04834D01*
X0459Y03071D02*
X04606Y03055D01*
X04309Y03071D02*
X0459D01*
X04593Y03043D02*
X05071D01*
X0513Y03103*
X04585Y03051D02*
X04593Y03043D01*
X04328Y03051D02*
X04585D01*
X0348Y03125D02*
X03497D01*
X03425Y03261D02*
X03488D01*
X03501Y03248*
X03414Y0325D02*
X03425Y03261D01*
X03488Y03274D02*
X03501Y03287D01*
X03401Y03255D02*
X03419Y03274D01*
X03488*
X03889Y03618D02*
X03895Y03612D01*
X03889Y03618D02*
Y03622D01*
X03842Y03535D02*
X03844D01*
X03855Y03523*
X03803Y03576D02*
Y03578D01*
Y03576D02*
X03816Y03563D01*
X03928Y03463D02*
X03985D01*
X03992Y03455*
Y03318D02*
Y03455D01*
Y03318D02*
X04013Y03297D01*
X03949Y0338D02*
Y03384D01*
X04013Y03287D02*
Y03297D01*
X03915Y03476D02*
Y03706D01*
X03725Y03983D02*
X0385Y03858D01*
Y03771D02*
Y03858D01*
Y03771D02*
X03915Y03706D01*
Y03476D02*
X03928Y03463D01*
X03934Y03485D02*
X03948Y035D01*
X04358Y03358D02*
X04502D01*
X04347Y03347D02*
X04358Y03358D01*
X0432Y03347D02*
X04347D01*
X04301Y03366D02*
X0432Y03347D01*
X04289Y03366D02*
X04301D01*
X04502Y03358D02*
X04769Y03624D01*
Y04637*
X04384Y05022D02*
X04769Y04637D01*
X04793Y03631D02*
Y0468D01*
X04488Y03326D02*
X04793Y03631D01*
X04328Y03326D02*
X04488D01*
X04526Y03425D02*
X04675Y03574D01*
X04321Y03425D02*
X04526D01*
X04302Y03444D02*
X04321Y03425D01*
X04302Y03444D02*
Y03444D01*
X04299Y03416D02*
Y03417D01*
X04289Y03406D02*
X04299Y03416D01*
X04328Y03444D02*
X04517D01*
X04344Y03381D02*
X04501D01*
X04575Y03528D02*
X04633Y03586D01*
X04564Y03548D02*
X04618Y03602D01*
X04416Y05057D02*
X04793Y0468D01*
X04369Y05262D02*
X04416Y05215D01*
Y05057D02*
Y05215D01*
X04225Y05203D02*
X04283Y05262D01*
X04369*
X04345Y05022D02*
X04384D01*
X03925Y05203D02*
X03974Y05155D01*
X04254*
X04277Y0509D02*
X04345Y05022D01*
X04254Y05155D02*
X04277Y05132D01*
Y0509D02*
Y05132D01*
X04328Y03366D02*
X04344Y03381D01*
X04289Y03444D02*
X04302D01*
X04395Y03528D02*
X04575D01*
X04351Y03484D02*
X04395Y03528D01*
X04328Y03484D02*
X04351D01*
X04386Y03548D02*
X04564D01*
X04361Y03523D02*
X04386Y03548D01*
X04328Y03523D02*
X04361D01*
X03881Y02917D02*
X03895Y0293D01*
Y02933*
X038Y02996D02*
X03816Y03011D01*
X03881Y02996D02*
Y02998D01*
X03607Y02841D02*
X03619Y02854D01*
X03659D02*
X03665D01*
X0433Y03011D02*
X04346Y03027D01*
X04328Y03011D02*
X0433D01*
X04114Y0359D02*
X04118D01*
X03724Y03537D02*
Y03539D01*
Y03537D02*
X03737Y03523D01*
Y03484D02*
Y03486D01*
X03724Y035D02*
X03737Y03486D01*
X04131Y0301D02*
X04145Y02996D01*
X04131Y0301D02*
Y03011D01*
X04249Y03049D02*
Y03051D01*
X04015Y02972D02*
X04027Y0296D01*
X04013Y02972D02*
X04015D01*
X0417Y02895D02*
X04185Y02909D01*
X0417Y02893D02*
Y02895D01*
X04226Y02759D02*
X04228D01*
X0421Y02775D02*
X04226Y02759D01*
X04173Y02814D02*
X04188Y02799D01*
X0417Y02814D02*
X04173D01*
X04291D02*
X04307Y02799D01*
X04289Y02814D02*
X04291D01*
X04251D02*
X04267Y02799D01*
X04249Y02814D02*
X04251D01*
X04212D02*
X04228Y02799D01*
X0421Y02814D02*
X04212D01*
X04358D02*
X04358Y02814D01*
X04328Y02814D02*
X04358D01*
X04052Y02854D02*
X04055D01*
X04066Y02842*
X0407*
X03936Y02814D02*
X03956Y02795D01*
X03934Y02814D02*
X03936D01*
X03881Y03036D02*
X03895Y0305D01*
X03681Y02917D02*
X03682D01*
X03698Y02933*
X03777Y02892D02*
Y02893D01*
X03737Y02811D02*
X0375Y02799D01*
X03737Y02811D02*
Y02814D01*
X03527Y02801D02*
X0354Y02814D01*
X03497Y03125D02*
X03501Y03129D01*
X0354Y03207D02*
Y03208D01*
X03764Y02959D02*
X03777Y02972D01*
X03761Y02996D02*
X03777Y03011D01*
X03759Y02996D02*
X03761D01*
X03803Y03038D02*
X03816Y03051D01*
X03722Y03035D02*
X03737Y03051D01*
X03895Y03169D02*
X03907Y03157D01*
X03912*
X038Y03153D02*
X03816Y03169D01*
X03722Y03154D02*
X03737Y03169D01*
X03722Y02996D02*
X03737Y03011D01*
X0372Y02996D02*
X03722D01*
X03844Y03039D02*
X03855Y03051D01*
X03838Y03039D02*
X03844D01*
X03881Y02998D02*
X03895Y03011D01*
X03934Y03051D02*
X03946Y03039D01*
X03952*
X03799Y03112D02*
X03816Y03129D01*
X03759Y03112D02*
X03777Y03129D01*
X04015Y03169D02*
X04031Y03185D01*
X04013Y03169D02*
X04015D01*
X03974Y0309D02*
X03976D01*
X04076Y03114D02*
X04092Y03129D01*
X0407Y03114D02*
X04076D01*
X04189Y03107D02*
X0419Y03108D01*
X0417Y0309D02*
X04188Y03108D01*
X04192Y03153D02*
X04194D01*
X0421Y03169*
X04308Y03188D02*
X04328Y03208D01*
X04307Y03188D02*
X04308D01*
X03722Y03224D02*
X03737Y03208D01*
X038Y03224D02*
X03816Y03208D01*
X04037Y03232D02*
X04052Y03248D01*
X04035Y03232D02*
X04037D01*
X04277Y03314D02*
X04289Y03326D01*
X04271Y03314D02*
X04277D01*
X04159Y03275D02*
X0417Y03287D01*
X04153Y03275D02*
X04159D01*
X03934Y03248D02*
X03946Y03259D01*
Y03261*
X03934Y03287D02*
X03948Y03301D01*
Y03303*
X03879Y03263D02*
X03895Y03248D01*
X0384Y03303D02*
X03855Y03287D01*
X03803Y033D02*
X03816Y03287D01*
X038Y03263D02*
X03816Y03248D01*
X03722Y03263D02*
X03737Y03248D01*
X03725Y033D02*
X03737Y03287D01*
X03659Y03248D02*
X03678Y03266D01*
Y0327*
X03501Y03326D02*
X03506D01*
X03522Y03311*
X03643Y03381D02*
X03659Y03366D01*
X03685Y0334D02*
X03698Y03326D01*
X03685Y0334D02*
Y03342D01*
X03682Y03381D02*
X03698Y03366D01*
X03722Y03342D02*
X03737Y03326D01*
X038Y03342D02*
X03816Y03326D01*
X03722Y03381D02*
X03737Y03366D01*
X03761Y03381D02*
X03777Y03366D01*
X038Y03381D02*
X03816Y03366D01*
X0384Y03381D02*
X03855Y03366D01*
X03934Y03328D02*
X03946Y0334D01*
X03934Y03326D02*
Y03328D01*
Y03366D02*
X03949Y0338D01*
X04015Y03366D02*
X04031Y03381D01*
X04013Y03366D02*
X04015D01*
X04196Y03379D02*
Y03381D01*
Y03379D02*
X0421Y03366D01*
X04147Y03389D02*
X04149D01*
X04131Y03405D02*
X04147Y03389D01*
X03938Y03444D02*
X03954Y03429D01*
X03934Y03444D02*
X03938D01*
X03897D02*
X03914Y03428D01*
X03895Y03444D02*
X03897D01*
X03877Y03423D02*
Y03424D01*
Y03423D02*
X03895Y03405D01*
X03803Y03418D02*
X03816Y03405D01*
X03725Y03418D02*
X03737Y03405D01*
X03653D02*
X03659D01*
X03603Y03424D02*
X03619Y0344D01*
Y03444*
X03642Y03467D02*
X03659Y03449D01*
Y03444D02*
Y03449D01*
X03723Y03462D02*
X03737Y03447D01*
Y03444D02*
Y03447D01*
X038Y0346D02*
X03816Y03444D01*
X04255D02*
X04267Y03456D01*
X04249Y03444D02*
X04255D01*
X0356Y03503D02*
X0358Y03484D01*
X03603Y035D02*
X03619Y03484D01*
X03761Y035D02*
X03777Y03484D01*
X03879Y035D02*
X03895Y03484D01*
X03934D02*
Y03485D01*
X03974Y03484D02*
Y03485D01*
X04188Y03503D02*
X04188D01*
X04188Y03503D02*
X04188Y03503D01*
X0417Y03484D02*
X04188Y03502D01*
X03879Y03539D02*
X03895Y03523D01*
X03682Y03539D02*
X03698Y03523D01*
X03564Y03539D02*
X0358Y03523D01*
X03725Y03575D02*
X03737Y03563D01*
X03934D02*
Y03564D01*
X04212Y03563D02*
X04228Y03578D01*
X0421Y03563D02*
X04212D01*
X04328Y03603D02*
X04342Y03618D01*
X04328Y03602D02*
Y03603D01*
X03934Y03602D02*
Y03603D01*
X03895Y03602D02*
Y03612D01*
X03809Y0362D02*
X03816Y03612D01*
Y03602D02*
Y03612D01*
X03564Y03578D02*
X0358Y03563D01*
X03564Y03618D02*
X0358Y03602D01*
X03525Y03618D02*
X0354Y03602D01*
X03527Y02917D02*
Y02919D01*
X0354Y02933*
Y0297D02*
Y02972D01*
Y0297D02*
X03555Y02956D01*
X0353Y03158D02*
X0354Y03169D01*
X03568Y03157D02*
X0358Y03169D01*
X03568Y03157D02*
X03568D01*
X03567Y0326D02*
X0358Y03248D01*
X03567Y03221D02*
X0358Y03208D01*
X035Y03523D02*
X03501D01*
X0366Y03051D02*
X03678Y03069D01*
X04249Y02854D02*
X0427Y02874D01*
X03527Y03983D02*
X03725D01*
X03493D02*
X03527D01*
X03866Y04075D02*
X03908Y04033D01*
X03662Y04075D02*
X03866D01*
X03908Y04018D02*
Y04033D01*
X04013Y03326D02*
X04031Y03309D01*
X04282Y03169D02*
X04289D01*
X03659Y03051D02*
X0366D01*
X03895Y03208D02*
Y03215D01*
X03764Y03077D02*
X03777Y0309D01*
Y03168D02*
Y03169D01*
X04106Y0338D02*
Y03383D01*
X04092Y03366D02*
X04106Y0338D01*
X04131Y03208D02*
X04143Y03221D01*
X04306Y03147D02*
X04307D01*
X04289Y03129D02*
X04306Y03147D01*
X03949Y02958D02*
X0395D01*
X03934Y02972D02*
X03949Y02958D01*
X04286Y03208D02*
X04289D01*
X01927Y03166D02*
X02139Y02954D01*
X0354Y02846D02*
Y02854D01*
X01927Y03166D02*
Y03758D01*
X0144Y04245D02*
X01927Y03758D01*
X01115Y04245D02*
X0144D01*
X01092Y04222D02*
X01115Y04245D01*
X01092Y04144D02*
Y04222D01*
X03766Y0346D02*
X03777Y03448D01*
X03761Y03421D02*
X03761D01*
X03698Y03484D02*
Y03487D01*
X03777Y03444D02*
Y03448D01*
X03841Y03499D02*
X03855Y03484D01*
X03841Y03499D02*
Y03504D01*
X04013Y03563D02*
X04018D01*
X03974Y03287D02*
X03986Y033D01*
X04092Y03326D02*
X04104Y03339D01*
X03761Y03421D02*
X03777Y03405D01*
X03895Y0305D02*
Y03051D01*
X03974D02*
X03986Y03038D01*
X03934Y03011D02*
X03947Y02999D01*
X04328Y02972D02*
X04331D01*
X04289D02*
X04293D01*
X06131Y04158D02*
X06132Y04159D01*
X06156*
X0284Y03134D02*
X02874Y03167D01*
X02797Y03134D02*
X0284D01*
X03883Y03378D02*
Y0338D01*
X04052Y03287D02*
X04068Y03303D01*
X04052Y03326D02*
X04068Y03342D01*
X04052Y03366D02*
X04068Y03381D01*
X03883Y03378D02*
X03895Y03366D01*
X0423Y02992D02*
X04353D01*
X0421Y03011D02*
X0423Y02992D01*
X03883Y033D02*
X03895Y03287D01*
X03816Y03563D02*
Y03563D01*
X03949Y03223D02*
Y03227D01*
X03934Y03208D02*
X03949Y03223D01*
Y03227D02*
X03953D01*
X03954Y03228*
X03895Y03129D02*
Y03129D01*
X03934Y03249D02*
X03946Y03261D01*
X03763D02*
X03775Y03248D01*
X03843Y03262D02*
X03855Y03249D01*
X03883Y03574D02*
X03895Y03563D01*
X04289Y0309D02*
X04308Y0311D01*
X0417Y0309D02*
Y03091D01*
X03934Y0309D02*
X03936D01*
X03659Y03051D02*
Y03053D01*
X04289Y03051D02*
X04309Y03071D01*
X03895Y03287D02*
Y03287D01*
X03934Y03248D02*
Y03249D01*
X04249Y03248D02*
Y03249D01*
X04209Y02972D02*
X0421D01*
X03855Y03248D02*
Y03249D01*
X03775Y03248D02*
X03777D01*
X03895Y03366D02*
Y03366D01*
X04013Y03523D02*
X04029Y03539D01*
X04052Y03523D02*
X04068Y03539D01*
X04249Y03523D02*
X04265Y03539D01*
X04131Y03523D02*
X04147Y03539D01*
X0417Y03523D02*
X04186Y03539D01*
X04249Y03405D02*
X04265Y03421D01*
X04289Y03405D02*
Y03406D01*
X03801Y02957D02*
X03801D01*
X03816Y02972*
X03701Y02811D02*
X03706D01*
X03698Y02814D02*
X03701Y02811D01*
X03567Y02841D02*
X0358Y02854D01*
X03913Y03384D02*
X03934Y03405D01*
X03913Y03384D02*
X03913D01*
X03879Y02956D02*
X03895Y02972D01*
X0358Y02893D02*
Y02895D01*
X03501Y02933D02*
Y02934D01*
X03519Y02952*
X0354Y03011D02*
X03543D01*
X03934Y0309D02*
X03947Y03077D01*
X03527Y02996D02*
X03527D01*
X04293Y02972D02*
X04304Y02962D01*
X04196Y02959D02*
X04209Y02972D01*
X04271Y03511D02*
X04277D01*
X04289Y03523*
X04328Y02775D02*
X04511D01*
X04289D02*
X04308Y02755D01*
X04527*
X04576Y02805*
X04353Y02992D02*
X0438Y02964D01*
X05131*
X03685Y02999D02*
X03698Y03011D01*
X03685Y03038D02*
X03698Y03051D01*
X04322Y03405D02*
X04328D01*
X04249Y03249D02*
X04263Y03263D01*
X04307Y03389D02*
X04322Y03405D01*
X03526Y03577D02*
X0354Y03563D01*
X03526Y03537D02*
X0354Y03523D01*
X04118Y0359D02*
X0413Y03602D01*
X0349Y03377D02*
X03501Y03366D01*
X0349Y03394D02*
X03501Y03405D01*
X0347Y03394D02*
X0349D01*
X03263Y03362D02*
X03438D01*
X0347Y03394*
X03269Y03349D02*
X03443D01*
X03471Y03377*
X0349*
X03843Y03339D02*
X03855Y03326D01*
X03934Y03603D02*
X03948Y03618D01*
X03607Y03536D02*
X03619Y03523D01*
X03643Y03618D02*
X03659Y03602D01*
X03698Y03444D02*
X03698D01*
X03685Y03457D02*
X03698Y03444D01*
Y03405D02*
X03698D01*
X03685Y03418D02*
X03698Y03405D01*
X03934Y03564D02*
X03948Y03578D01*
X03803Y03536D02*
X03816Y03523D01*
X03803Y03496D02*
X03816Y03484D01*
X04092Y03523D02*
X04103Y03535D01*
X0411*
X0421Y03523D02*
X04226Y03539D01*
X03974Y03484D02*
X03988Y03498D01*
Y035*
X03843Y03457D02*
X03855Y03444D01*
X03843Y03418D02*
X03855Y03405D01*
X04312Y03272D02*
X04313Y03272D01*
X04328Y03287*
G54D55*
X01557Y02844D02*
X02438D01*
X06125Y04106D02*
X06157D01*
X04561Y02887D02*
X04602Y02929D01*
X04986Y05027D02*
Y05067D01*
X05038Y05026D02*
Y05064D01*
X04602Y02929D02*
X05143D01*
X05515Y03614D02*
X05868Y03966D01*
X05515Y03301D02*
Y03614D01*
X05143Y02929D02*
X05515Y03301D01*
X05868Y03966D02*
X06029D01*
X06078Y04015*
Y04059*
X06125Y04106*
G54D56*
X03603Y04724D02*
X03864D01*
X03603Y04702D02*
X03864D01*
X03603Y04814D02*
X03861D01*
X03576Y04746D02*
X03603D01*
X03599Y04767D02*
X03864D01*
X03603Y04791D02*
X03864D01*
X04447Y03774D02*
Y03863D01*
X04289Y03615D02*
X04447Y03774D01*
X04289Y03602D02*
Y03615D01*
X04358Y03789D02*
Y04207D01*
X0417Y03602D02*
X04358Y03789D01*
X03607Y04406D02*
X03872D01*
X04166Y03733D02*
Y03811D01*
X04123Y0369D02*
X04166Y03733D01*
X04123Y03677D02*
Y0369D01*
X04113Y03667D02*
X04123Y03677D01*
X04078Y03667D02*
X04113D01*
X04013Y03602D02*
X04078Y03667D01*
X04193Y03838D02*
Y03901D01*
X04166Y03811D02*
X04193Y03838D01*
X03603Y04746D02*
X03864D01*
X02328Y04364D02*
Y04419D01*
X02423Y04364D02*
Y04419D01*
X03566Y04783D02*
X03583D01*
X03599Y04767*
X02454Y04364D02*
Y04419D01*
X03566Y04736D02*
X03576Y04746D01*
X02517Y04364D02*
Y04419D01*
X02486Y04308D02*
Y04362D01*
X02391Y04308D02*
Y04362D01*
X03861Y04814D02*
X04466Y04208D01*
X04451Y03867D02*
Y04203D01*
X03864Y04791D02*
X04451Y04203D01*
X04447Y03863D02*
X04451Y03867D01*
X04438Y03873D02*
Y04192D01*
X03864Y04767D02*
X04438Y04192D01*
X04423Y03858D02*
X04438Y03873D01*
X04396D02*
Y04214D01*
X03864Y04746D02*
X04396Y04214D01*
Y03873D02*
X04403Y03866D01*
X03864Y04724D02*
X0438Y04207D01*
X03864Y04702D02*
X04358Y04207D01*
X0289Y04363D02*
Y04417D01*
X03016Y04363D02*
Y04417D01*
X03048Y04306D02*
Y04363D01*
X02953Y04306D02*
Y04363D01*
X04193Y03901D02*
X04229Y03937D01*
Y04049*
X03872Y04406D02*
X04229Y04049D01*
X04675Y03574D02*
Y04559D01*
X04649Y03576D02*
Y04463D01*
X04517Y03444D02*
X04649Y03576D01*
X04225Y05104D02*
X04708Y0462D01*
X04501Y03381D02*
X04708Y03588D01*
X04708Y03589D02*
Y0462D01*
X04308Y04927D02*
X04675Y04559D01*
X04229Y04884D02*
X04649Y04463D01*
X04156Y04818D02*
X04633Y0434D01*
Y03586D02*
Y0434D01*
X04108Y04786D02*
X04618Y04275D01*
Y03602D02*
Y04275D01*
X04602Y03613D02*
Y04209D01*
X03957Y04855D02*
X04602Y04209D01*
X04229Y04884D02*
Y04885D01*
Y04887*
X04155Y04819D02*
X04156Y04818D01*
X03926Y04855D02*
X03957D01*
X03881Y04957D02*
X0392Y04996D01*
X03881Y049D02*
X03926Y04855D01*
X03881Y049D02*
Y04957D01*
G54D57*
X06406Y03559D02*
X06426D01*
X06383Y02709D02*
X06406D01*
X06382D02*
X06383D01*
Y02659D02*
X06406D01*
X06382D02*
X06383D01*
X06183Y02259D02*
X06206D01*
X06182D02*
X06183D01*
X06136Y03759D02*
X06156D01*
X01548Y03586D02*
X01549Y03587D01*
X01523Y03586D02*
X01548D01*
X06356Y02809D02*
X06375D01*
X06336Y02959D02*
X06356D01*
X06406D02*
X06426D01*
X06406Y03009D02*
X06426D01*
X06356Y03109D02*
X06372Y03125D01*
X06374*
X06386Y03159D02*
X06406D01*
X06386Y03209D02*
X06406D01*
X06356Y03238D02*
X06358Y03236D01*
X06356Y03238D02*
Y03259D01*
X06406Y03359D02*
X06426D01*
X0633Y03425D02*
X06346Y03409D01*
X06356*
X06406Y03417D02*
X06421Y03433D01*
X06406Y03409D02*
Y03417D01*
X06336Y03559D02*
X06356D01*
X06386Y03609D02*
X06406D01*
X06356Y03709D02*
X06375D01*
X06386Y03759D02*
X06406D01*
X06386Y03809D02*
X06406D01*
X06336Y03859D02*
X06356D01*
X06336Y03909D02*
X06356D01*
X06411Y03959D02*
X06429Y03976D01*
X06406Y03959D02*
X06411D01*
X06386Y04009D02*
X06406D01*
X06336Y04059D02*
X06356D01*
X06336Y04109D02*
X06356D01*
X06406Y04161D02*
X06425Y04181D01*
X06406Y04159D02*
Y04161D01*
X06186Y04159D02*
X06206D01*
X06136Y04059D02*
X06156D01*
X06186Y04009D02*
X06206D01*
X06186Y03959D02*
X06206D01*
X06136Y03909D02*
X06156D01*
X06206Y03809D02*
X06224Y03827D01*
Y0383*
X06186Y03659D02*
X06206D01*
X06137Y03586D02*
X06156Y03604D01*
Y03609*
X06186Y03509D02*
X06206D01*
X06136Y03459D02*
X06156D01*
X06186Y03359D02*
X06206D01*
X06136Y03309D02*
X06156D01*
X06206Y03199D02*
X0622Y03185D01*
X06206Y03199D02*
Y03209D01*
X06136Y03159D02*
X06156D01*
X06206Y03049D02*
X0622Y03035D01*
X06206Y03049D02*
Y03059D01*
X06136Y03009D02*
X06156D01*
X06208Y02909D02*
X06224Y02925D01*
X06206Y02909D02*
X06208D01*
X06136Y02859D02*
X06156D01*
X06206Y0275D02*
X0622Y02736D01*
X06206Y0275D02*
Y02759D01*
X06136Y02709D02*
X06156D01*
X06186Y02609D02*
X06206D01*
X06136Y02559D02*
X06156D01*
X06186Y02459D02*
X06206D01*
X06136Y02409D02*
X06156D01*
X06186Y02309D02*
X06206D01*
X06186Y02209D02*
X06206D01*
X06136Y02259D02*
X06156D01*
X05039Y05205D02*
Y05238D01*
X04986Y05203D02*
Y05239D01*
X01098Y03706D02*
X01748D01*
X01089Y03714D02*
X01098Y03706D01*
X01089Y03714D02*
Y03829D01*
X01748Y03706D02*
X01763Y03691D01*
Y03485D02*
Y03691D01*
X06133Y0221D02*
X06155D01*
X04643Y02805D02*
X04683Y02845D01*
Y02813D02*
Y02845D01*
X04748Y02811D02*
X04758Y02821D01*
X05131Y02964D02*
X0514Y02973D01*
X04758Y02835D02*
Y02845D01*
Y02835D02*
X04789Y02805D01*
X04807*
X04758Y02821D02*
Y02835D01*
X04637Y02805D02*
X04643D01*
G54D58*
X02882Y01729D02*
X02883D01*
X04863Y05217D02*
X04908D01*
X04656D02*
X047D01*
X04656Y05098D02*
X04701D01*
X03023Y03409D02*
X03062D01*
X02859Y0306D02*
X02862Y03057D01*
Y03031D02*
Y03057D01*
X0294Y03033D02*
X02941Y03033D01*
X0294Y03007D02*
Y03033D01*
X03527Y04017D02*
X03553D01*
X02771Y01905D02*
X02838D01*
X02925Y01732D02*
Y01818D01*
X02838Y01905D02*
X02925Y01818D01*
X02439Y0404D02*
Y04097D01*
X02408Y0404D02*
Y04097D01*
X03Y0404D02*
Y04099D01*
X02969Y0404D02*
Y04099D01*
X02266Y04309D02*
Y04363D01*
X02298Y04309D02*
Y04363D01*
X02361Y04309D02*
Y04363D01*
X0255Y04309D02*
Y04363D01*
X02282Y0404D02*
Y04097D01*
X02376Y0404D02*
Y04097D01*
X02471Y0404D02*
Y04097D01*
X02565Y0404D02*
Y04097D01*
X02843Y0404D02*
Y04099D01*
X02937Y0404D02*
Y04099D01*
X03032Y0404D02*
Y04099D01*
X03126Y0404D02*
Y04099D01*
X03111Y04306D02*
Y04363D01*
X02922Y04306D02*
Y04363D01*
X02827Y04306D02*
Y04363D01*
X02859Y04306D02*
Y04363D01*
X05038Y05099D02*
Y05139D01*
X04986Y05102D02*
Y05139D01*
X01467Y01833D02*
Y0187D01*
X01519Y01832D02*
Y0187D01*
X01467Y01935D02*
Y01968D01*
X01519Y01935D02*
Y01966D01*
X04757Y05216D02*
X04803D01*
X04756D02*
X04757D01*
X04553Y0522D02*
X04594D01*
X0455D02*
X04553D01*
X04863Y05098D02*
X04908D01*
X03023Y03452D02*
X03063D01*
X05487Y04834D02*
Y0491D01*
Y05002*
X05436Y04834D02*
Y0491D01*
Y04999*
X05387Y04834D02*
Y0491D01*
Y05004*
X05337Y04834D02*
Y0491D01*
Y05004*
X02882Y01717D02*
Y01729D01*
X02883D02*
X02886Y01732D01*
X02893*
X02925*
G54D59*
X13214Y03591D02*
Y05511D01*
X12095Y05271D02*
X13214D01*
X12095Y05151D02*
X13214D01*
X12095Y05031D02*
X13214D01*
X12095Y04911D02*
X13214D01*
X12095Y04791D02*
X13214D01*
X12095Y04671D02*
X13214D01*
X12095Y04551D02*
X13214D01*
X12095Y04431D02*
X13214D01*
X12095Y04311D02*
X13214D01*
X12095Y04191D02*
X13214D01*
X12095Y04071D02*
X13214D01*
X12095Y03951D02*
X13214D01*
X12095Y03831D02*
X13214D01*
X12095Y03711D02*
X13214D01*
X12095Y03591D02*
X13214D01*
X12095D02*
Y05511D01*
X10975Y05271D02*
X12095D01*
X10975Y05151D02*
X12095D01*
X10975Y05031D02*
X12095D01*
X10975Y04911D02*
X12095D01*
X10975Y04791D02*
X12095D01*
X10975Y04671D02*
X12095D01*
X10975Y04551D02*
X12095D01*
X10975Y04431D02*
X12095D01*
X10975Y04311D02*
X12095D01*
X10975Y04191D02*
X12095D01*
X10975Y04071D02*
X12095D01*
X10975Y03951D02*
X12095D01*
X10975Y03831D02*
X12095D01*
X10975Y03711D02*
X12095D01*
X10975Y03591D02*
X12095D01*
X10975D02*
Y05511D01*
X10405Y05271D02*
X10975D01*
X10405Y05151D02*
X10975D01*
X10405Y05031D02*
X10975D01*
X10405Y04911D02*
X10975D01*
X10405Y04791D02*
X10975D01*
X10405Y04671D02*
X10975D01*
X10405Y04551D02*
X10975D01*
X10405Y04431D02*
X10975D01*
X10405Y04311D02*
X10975D01*
X10405Y04191D02*
X10975D01*
X10405Y04071D02*
X10975D01*
X10405Y03951D02*
X10975D01*
X10405Y03831D02*
X10975D01*
X10405Y03711D02*
X10975D01*
X10405Y03591D02*
X10975D01*
X10405D02*
Y05511D01*
X09755Y05271D02*
X10405D01*
X09755Y05151D02*
X10405D01*
X09755Y05031D02*
X10405D01*
X09755Y04911D02*
X10405D01*
X09755Y04791D02*
X10405D01*
X09755Y04671D02*
X10405D01*
X09755Y04551D02*
X10405D01*
X09755Y04431D02*
X10405D01*
X09755Y04311D02*
X10405D01*
X09755Y04191D02*
X10405D01*
X09755Y04071D02*
X10405D01*
X09755Y03951D02*
X10405D01*
X09755Y03831D02*
X10405D01*
X09755Y03711D02*
X10405D01*
X09755Y03591D02*
X10405D01*
X09755D02*
Y05511D01*
X08896Y05271D02*
X09755D01*
X08896Y05151D02*
X09755D01*
X08896Y05031D02*
X09755D01*
X08896Y04911D02*
X09755D01*
X08896Y04791D02*
X09755D01*
X08896Y04671D02*
X09755D01*
X08896Y04551D02*
X09755D01*
X08896Y04431D02*
X09755D01*
X08896Y04311D02*
X09755D01*
X08896Y04191D02*
X09755D01*
X08896Y04071D02*
X09755D01*
X08896Y03951D02*
X09755D01*
X08896Y03831D02*
X09755D01*
X08896Y03711D02*
X09755D01*
X08896Y03591D02*
X09755D01*
X08896D02*
Y05511D01*
X07736Y05271D02*
X08896D01*
X07736Y05151D02*
X08896D01*
X07736Y05031D02*
X08896D01*
X07736Y04911D02*
X08896D01*
X07736Y04791D02*
X08896D01*
X07736Y04671D02*
X08896D01*
X07736Y04551D02*
X08896D01*
X07736Y04431D02*
X08896D01*
X07736Y04311D02*
X08896D01*
X07736Y04191D02*
X08896D01*
X07736Y04071D02*
X08896D01*
X07736Y03951D02*
X08896D01*
X07736Y03831D02*
X08896D01*
X07736Y03711D02*
X08896D01*
X07736Y03591D02*
X08896D01*
X07736D02*
Y05511D01*
X07326Y05271D02*
X07736D01*
X07326Y05151D02*
X07736D01*
X07326Y05031D02*
X07736D01*
X07326Y04911D02*
X07736D01*
X07326Y04791D02*
X07736D01*
X07326Y04671D02*
X07736D01*
X07326Y04551D02*
X07736D01*
X07326Y04431D02*
X07736D01*
X07326Y04311D02*
X07736D01*
X07326Y04191D02*
X07736D01*
X07326Y04071D02*
X07736D01*
X07326Y03951D02*
X07736D01*
X07326Y03831D02*
X07736D01*
X07326Y03711D02*
X07736D01*
X07326Y03591D02*
X07736D01*
X07326D02*
Y05511D01*
X13214*
X07326Y05391D02*
X13214D01*
G54D60*
X13175Y05391D02*
X13214Y05351D01*
X13115Y05391D02*
X13214Y05291D01*
X13055Y05391D02*
X13175Y05271D01*
X12995Y05391D02*
X13115Y05271D01*
X12935Y05391D02*
X13055Y05271D01*
X12875Y05391D02*
X12995Y05271D01*
X12815Y05391D02*
X12935Y05271D01*
X12755Y05391D02*
X12875Y05271D01*
X12695Y05391D02*
X12815Y05271D01*
X12635Y05391D02*
X12755Y05271D01*
X12575Y05391D02*
X12695Y05271D01*
X12515Y05391D02*
X12635Y05271D01*
X12455Y05391D02*
X12575Y05271D01*
X12395Y05391D02*
X12515Y05271D01*
X12335Y05391D02*
X12455Y05271D01*
X12275Y05391D02*
X12395Y05271D01*
X12215Y05391D02*
X12335Y05271D01*
X12155Y05391D02*
X12275Y05271D01*
X12095Y05391D02*
X12215Y05271D01*
X12095Y05331D02*
X12155Y05271D01*
X13175D02*
X13214Y05231D01*
X13115Y05271D02*
X13214Y05171D01*
X13055Y05271D02*
X13175Y05151D01*
X12995Y05271D02*
X13115Y05151D01*
X12935Y05271D02*
X13055Y05151D01*
X12875Y05271D02*
X12995Y05151D01*
X12815Y05271D02*
X12935Y05151D01*
X12755Y05271D02*
X12875Y05151D01*
X12695Y05271D02*
X12815Y05151D01*
X12635Y05271D02*
X12755Y05151D01*
X12575Y05271D02*
X12695Y05151D01*
X12515Y05271D02*
X12635Y05151D01*
X12455Y05271D02*
X12575Y05151D01*
X12395Y05271D02*
X12515Y05151D01*
X12335Y05271D02*
X12455Y05151D01*
X12275Y05271D02*
X12395Y05151D01*
X12215Y05271D02*
X12335Y05151D01*
X12155Y05271D02*
X12275Y05151D01*
X12095Y05271D02*
X12215Y05151D01*
X12095Y05211D02*
X12155Y05151D01*
X13175D02*
X13214Y05111D01*
X13115Y05151D02*
X13214Y05051D01*
X13055Y05151D02*
X13175Y05031D01*
X12995Y05151D02*
X13115Y05031D01*
X12935Y05151D02*
X13055Y05031D01*
X12875Y05151D02*
X12995Y05031D01*
X12815Y05151D02*
X12935Y05031D01*
X12755Y05151D02*
X12875Y05031D01*
X12695Y05151D02*
X12815Y05031D01*
X12635Y05151D02*
X12755Y05031D01*
X12575Y05151D02*
X12695Y05031D01*
X12515Y05151D02*
X12635Y05031D01*
X12455Y05151D02*
X12575Y05031D01*
X12395Y05151D02*
X12515Y05031D01*
X12335Y05151D02*
X12455Y05031D01*
X12275Y05151D02*
X12395Y05031D01*
X12215Y05151D02*
X12335Y05031D01*
X12155Y05151D02*
X12275Y05031D01*
X12095Y05151D02*
X12215Y05031D01*
X12095Y05091D02*
X12155Y05031D01*
X13175D02*
X13214Y04991D01*
X13115Y05031D02*
X13214Y04931D01*
X13055Y05031D02*
X13175Y04911D01*
X12995Y05031D02*
X13115Y04911D01*
X12935Y05031D02*
X13055Y04911D01*
X12875Y05031D02*
X12995Y04911D01*
X12815Y05031D02*
X12935Y04911D01*
X12755Y05031D02*
X12875Y04911D01*
X12695Y05031D02*
X12815Y04911D01*
X12635Y05031D02*
X12755Y04911D01*
X12575Y05031D02*
X12695Y04911D01*
X12515Y05031D02*
X12635Y04911D01*
X12455Y05031D02*
X12575Y04911D01*
X12395Y05031D02*
X12515Y04911D01*
X12335Y05031D02*
X12455Y04911D01*
X12275Y05031D02*
X12395Y04911D01*
X12215Y05031D02*
X12335Y04911D01*
X12155Y05031D02*
X12275Y04911D01*
X12095Y05031D02*
X12215Y04911D01*
X12095Y04971D02*
X12155Y04911D01*
X13175D02*
X13214Y04871D01*
X13115Y04911D02*
X13214Y04811D01*
X13055Y04911D02*
X13175Y04791D01*
X12995Y04911D02*
X13115Y04791D01*
X12935Y04911D02*
X13055Y04791D01*
X12875Y04911D02*
X12995Y04791D01*
X12815Y04911D02*
X12935Y04791D01*
X12755Y04911D02*
X12875Y04791D01*
X12695Y04911D02*
X12815Y04791D01*
X12635Y04911D02*
X12755Y04791D01*
X12575Y04911D02*
X12695Y04791D01*
X12515Y04911D02*
X12635Y04791D01*
X12455Y04911D02*
X12575Y04791D01*
X12395Y04911D02*
X12515Y04791D01*
X12335Y04911D02*
X12455Y04791D01*
X12275Y04911D02*
X12395Y04791D01*
X12215Y04911D02*
X12335Y04791D01*
X12155Y04911D02*
X12275Y04791D01*
X12095Y04911D02*
X12215Y04791D01*
X12095Y04851D02*
X12155Y04791D01*
X13175D02*
X13214Y04751D01*
X13115Y04791D02*
X13214Y04691D01*
X13055Y04791D02*
X13175Y04671D01*
X12995Y04791D02*
X13115Y04671D01*
X12935Y04791D02*
X13055Y04671D01*
X12875Y04791D02*
X12995Y04671D01*
X12815Y04791D02*
X12935Y04671D01*
X12755Y04791D02*
X12875Y04671D01*
X12695Y04791D02*
X12815Y04671D01*
X12635Y04791D02*
X12755Y04671D01*
X12575Y04791D02*
X12695Y04671D01*
X12515Y04791D02*
X12635Y04671D01*
X12455Y04791D02*
X12575Y04671D01*
X12395Y04791D02*
X12515Y04671D01*
X12335Y04791D02*
X12455Y04671D01*
X12275Y04791D02*
X12395Y04671D01*
X12215Y04791D02*
X12335Y04671D01*
X12155Y04791D02*
X12275Y04671D01*
X12095Y04791D02*
X12215Y04671D01*
X12095Y04731D02*
X12155Y04671D01*
X13175D02*
X13214Y04631D01*
X13115Y04671D02*
X13214Y04571D01*
X13055Y04671D02*
X13175Y04551D01*
X12995Y04671D02*
X13115Y04551D01*
X12935Y04671D02*
X13055Y04551D01*
X12875Y04671D02*
X12995Y04551D01*
X12815Y04671D02*
X12935Y04551D01*
X12755Y04671D02*
X12875Y04551D01*
X12695Y04671D02*
X12815Y04551D01*
X12635Y04671D02*
X12755Y04551D01*
X12575Y04671D02*
X12695Y04551D01*
X12515Y04671D02*
X12635Y04551D01*
X12455Y04671D02*
X12575Y04551D01*
X12395Y04671D02*
X12515Y04551D01*
X12335Y04671D02*
X12455Y04551D01*
X12275Y04671D02*
X12395Y04551D01*
X12215Y04671D02*
X12335Y04551D01*
X12155Y04671D02*
X12275Y04551D01*
X12095Y04671D02*
X12215Y04551D01*
X12095Y04611D02*
X12155Y04551D01*
X13175D02*
X13214Y04511D01*
X13115Y04551D02*
X13214Y04451D01*
X13055Y04551D02*
X13175Y04431D01*
X12995Y04551D02*
X13115Y04431D01*
X12935Y04551D02*
X13055Y04431D01*
X12875Y04551D02*
X12995Y04431D01*
X12815Y04551D02*
X12935Y04431D01*
X12755Y04551D02*
X12875Y04431D01*
X12695Y04551D02*
X12815Y04431D01*
X12635Y04551D02*
X12755Y04431D01*
X12575Y04551D02*
X12695Y04431D01*
X12515Y04551D02*
X12635Y04431D01*
X12455Y04551D02*
X12575Y04431D01*
X12395Y04551D02*
X12515Y04431D01*
X12335Y04551D02*
X12455Y04431D01*
X12275Y04551D02*
X12395Y04431D01*
X12215Y04551D02*
X12335Y04431D01*
X12155Y04551D02*
X12275Y04431D01*
X12095Y04551D02*
X12215Y04431D01*
X12095Y04491D02*
X12155Y04431D01*
X13175D02*
X13214Y04391D01*
X13115Y04431D02*
X13214Y04331D01*
X13055Y04431D02*
X13175Y04311D01*
X12995Y04431D02*
X13115Y04311D01*
X12935Y04431D02*
X13055Y04311D01*
X12875Y04431D02*
X12995Y04311D01*
X12815Y04431D02*
X12935Y04311D01*
X12755Y04431D02*
X12875Y04311D01*
X12695Y04431D02*
X12815Y04311D01*
X12635Y04431D02*
X12755Y04311D01*
X12575Y04431D02*
X12695Y04311D01*
X12515Y04431D02*
X12635Y04311D01*
X12455Y04431D02*
X12575Y04311D01*
X12395Y04431D02*
X12515Y04311D01*
X12335Y04431D02*
X12455Y04311D01*
X12275Y04431D02*
X12395Y04311D01*
X12215Y04431D02*
X12335Y04311D01*
X12155Y04431D02*
X12275Y04311D01*
X12095Y04431D02*
X12215Y04311D01*
X12095Y04371D02*
X12155Y04311D01*
X13175D02*
X13214Y04271D01*
X13115Y04311D02*
X13214Y04211D01*
X13055Y04311D02*
X13175Y04191D01*
X12995Y04311D02*
X13115Y04191D01*
X12935Y04311D02*
X13055Y04191D01*
X12875Y04311D02*
X12995Y04191D01*
X12815Y04311D02*
X12935Y04191D01*
X12755Y04311D02*
X12875Y04191D01*
X12695Y04311D02*
X12815Y04191D01*
X12635Y04311D02*
X12755Y04191D01*
X12575Y04311D02*
X12695Y04191D01*
X12515Y04311D02*
X12635Y04191D01*
X12455Y04311D02*
X12575Y04191D01*
X12395Y04311D02*
X12515Y04191D01*
X12335Y04311D02*
X12455Y04191D01*
X12275Y04311D02*
X12395Y04191D01*
X12215Y04311D02*
X12335Y04191D01*
X12155Y04311D02*
X12275Y04191D01*
X12095Y04311D02*
X12215Y04191D01*
X12095Y04251D02*
X12155Y04191D01*
X13175D02*
X13214Y04151D01*
X13115Y04191D02*
X13214Y04091D01*
X13055Y04191D02*
X13175Y04071D01*
X12995Y04191D02*
X13115Y04071D01*
X12935Y04191D02*
X13055Y04071D01*
X12875Y04191D02*
X12995Y04071D01*
X12815Y04191D02*
X12935Y04071D01*
X12755Y04191D02*
X12875Y04071D01*
X12695Y04191D02*
X12815Y04071D01*
X12635Y04191D02*
X12755Y04071D01*
X12575Y04191D02*
X12695Y04071D01*
X12515Y04191D02*
X12635Y04071D01*
X12455Y04191D02*
X12575Y04071D01*
X12395Y04191D02*
X12515Y04071D01*
X12335Y04191D02*
X12455Y04071D01*
X12275Y04191D02*
X12395Y04071D01*
X12215Y04191D02*
X12335Y04071D01*
X12155Y04191D02*
X12275Y04071D01*
X12095Y04191D02*
X12215Y04071D01*
X12095Y04131D02*
X12155Y04071D01*
X13175D02*
X13214Y04031D01*
X13115Y04071D02*
X13214Y03971D01*
X13055Y04071D02*
X13175Y03951D01*
X12995Y04071D02*
X13115Y03951D01*
X12935Y04071D02*
X13055Y03951D01*
X12875Y04071D02*
X12995Y03951D01*
X12815Y04071D02*
X12935Y03951D01*
X12755Y04071D02*
X12875Y03951D01*
X12695Y04071D02*
X12815Y03951D01*
X12635Y04071D02*
X12755Y03951D01*
X12575Y04071D02*
X12695Y03951D01*
X12515Y04071D02*
X12635Y03951D01*
X12455Y04071D02*
X12575Y03951D01*
X12395Y04071D02*
X12515Y03951D01*
X12335Y04071D02*
X12455Y03951D01*
X12275Y04071D02*
X12395Y03951D01*
X12215Y04071D02*
X12335Y03951D01*
X12155Y04071D02*
X12275Y03951D01*
X12095Y04071D02*
X12215Y03951D01*
X12095Y04011D02*
X12155Y03951D01*
X13175D02*
X13214Y03911D01*
X13115Y03951D02*
X13214Y03851D01*
X13055Y03951D02*
X13175Y03831D01*
X12995Y03951D02*
X13115Y03831D01*
X12935Y03951D02*
X13055Y03831D01*
X12875Y03951D02*
X12995Y03831D01*
X12815Y03951D02*
X12935Y03831D01*
X12755Y03951D02*
X12875Y03831D01*
X12695Y03951D02*
X12815Y03831D01*
X12635Y03951D02*
X12755Y03831D01*
X12575Y03951D02*
X12695Y03831D01*
X12515Y03951D02*
X12635Y03831D01*
X12455Y03951D02*
X12575Y03831D01*
X12395Y03951D02*
X12515Y03831D01*
X12335Y03951D02*
X12455Y03831D01*
X12275Y03951D02*
X12395Y03831D01*
X12215Y03951D02*
X12335Y03831D01*
X12155Y03951D02*
X12275Y03831D01*
X12095Y03951D02*
X12215Y03831D01*
X12095Y03891D02*
X12155Y03831D01*
X13175D02*
X13214Y03791D01*
X13115Y03831D02*
X13214Y03731D01*
X13055Y03831D02*
X13175Y03711D01*
X12995Y03831D02*
X13115Y03711D01*
X12935Y03831D02*
X13055Y03711D01*
X12875Y03831D02*
X12995Y03711D01*
X12815Y03831D02*
X12935Y03711D01*
X12755Y03831D02*
X12875Y03711D01*
X12695Y03831D02*
X12815Y03711D01*
X12635Y03831D02*
X12755Y03711D01*
X12575Y03831D02*
X12695Y03711D01*
X12515Y03831D02*
X12635Y03711D01*
X12455Y03831D02*
X12575Y03711D01*
X12395Y03831D02*
X12515Y03711D01*
X12335Y03831D02*
X12455Y03711D01*
X12275Y03831D02*
X12395Y03711D01*
X12215Y03831D02*
X12335Y03711D01*
X12155Y03831D02*
X12275Y03711D01*
X12095Y03831D02*
X12215Y03711D01*
X12095Y03771D02*
X12155Y03711D01*
X13175D02*
X13214Y03671D01*
X13115Y03711D02*
X13214Y03611D01*
X13055Y03711D02*
X13175Y03591D01*
X12995Y03711D02*
X13115Y03591D01*
X12935Y03711D02*
X13055Y03591D01*
X12875Y03711D02*
X12995Y03591D01*
X12815Y03711D02*
X12935Y03591D01*
X12755Y03711D02*
X12875Y03591D01*
X12695Y03711D02*
X12815Y03591D01*
X12635Y03711D02*
X12755Y03591D01*
X12575Y03711D02*
X12695Y03591D01*
X12515Y03711D02*
X12635Y03591D01*
X12455Y03711D02*
X12575Y03591D01*
X12395Y03711D02*
X12515Y03591D01*
X12335Y03711D02*
X12455Y03591D01*
X12275Y03711D02*
X12395Y03591D01*
X12215Y03711D02*
X12335Y03591D01*
X12155Y03711D02*
X12275Y03591D01*
X12095Y03711D02*
X12215Y03591D01*
X12095Y03651D02*
X12155Y03591D01*
X10975Y05351D02*
X11015Y05391D01*
X10975Y05291D02*
X11075Y05391D01*
X11015Y05271D02*
X11135Y05391D01*
X11075Y05271D02*
X11195Y05391D01*
X11135Y05271D02*
X11255Y05391D01*
X11195Y05271D02*
X11315Y05391D01*
X11255Y05271D02*
X11375Y05391D01*
X11315Y05271D02*
X11435Y05391D01*
X11375Y05271D02*
X11495Y05391D01*
X11435Y05271D02*
X11555Y05391D01*
X11495Y05271D02*
X11615Y05391D01*
X11555Y05271D02*
X11675Y05391D01*
X11615Y05271D02*
X11735Y05391D01*
X11675Y05271D02*
X11795Y05391D01*
X11735Y05271D02*
X11855Y05391D01*
X11795Y05271D02*
X11915Y05391D01*
X11855Y05271D02*
X11975Y05391D01*
X11915Y05271D02*
X12035Y05391D01*
X11975Y05271D02*
X12095Y05391D01*
X12035Y05271D02*
X12095Y05331D01*
X10975Y05231D02*
X11015Y05271D01*
X10975Y05171D02*
X11075Y05271D01*
X11015Y05151D02*
X11135Y05271D01*
X11075Y05151D02*
X11195Y05271D01*
X11135Y05151D02*
X11255Y05271D01*
X11195Y05151D02*
X11315Y05271D01*
X11255Y05151D02*
X11375Y05271D01*
X11315Y05151D02*
X11435Y05271D01*
X11375Y05151D02*
X11495Y05271D01*
X11435Y05151D02*
X11555Y05271D01*
X11495Y05151D02*
X11615Y05271D01*
X11555Y05151D02*
X11675Y05271D01*
X11615Y05151D02*
X11735Y05271D01*
X11675Y05151D02*
X11795Y05271D01*
X11735Y05151D02*
X11855Y05271D01*
X11795Y05151D02*
X11915Y05271D01*
X11855Y05151D02*
X11975Y05271D01*
X11915Y05151D02*
X12035Y05271D01*
X11975Y05151D02*
X12095Y05271D01*
X12035Y05151D02*
X12095Y05211D01*
X10975Y05111D02*
X11015Y05151D01*
X10975Y05051D02*
X11075Y05151D01*
X11015Y05031D02*
X11135Y05151D01*
X11075Y05031D02*
X11195Y05151D01*
X11135Y05031D02*
X11255Y05151D01*
X11195Y05031D02*
X11315Y05151D01*
X11255Y05031D02*
X11375Y05151D01*
X11315Y05031D02*
X11435Y05151D01*
X11375Y05031D02*
X11495Y05151D01*
X11435Y05031D02*
X11555Y05151D01*
X11495Y05031D02*
X11615Y05151D01*
X11555Y05031D02*
X11675Y05151D01*
X11615Y05031D02*
X11735Y05151D01*
X11675Y05031D02*
X11795Y05151D01*
X11735Y05031D02*
X11855Y05151D01*
X11795Y05031D02*
X11915Y05151D01*
X11855Y05031D02*
X11975Y05151D01*
X11915Y05031D02*
X12035Y05151D01*
X11975Y05031D02*
X12095Y05151D01*
X12035Y05031D02*
X12095Y05091D01*
X10975Y04991D02*
X11015Y05031D01*
X10975Y04931D02*
X11075Y05031D01*
X11015Y04911D02*
X11135Y05031D01*
X11075Y04911D02*
X11195Y05031D01*
X11135Y04911D02*
X11255Y05031D01*
X11195Y04911D02*
X11315Y05031D01*
X11255Y04911D02*
X11375Y05031D01*
X11315Y04911D02*
X11435Y05031D01*
X11375Y04911D02*
X11495Y05031D01*
X11435Y04911D02*
X11555Y05031D01*
X11495Y04911D02*
X11615Y05031D01*
X11555Y04911D02*
X11675Y05031D01*
X11615Y04911D02*
X11735Y05031D01*
X11675Y04911D02*
X11795Y05031D01*
X11735Y04911D02*
X11855Y05031D01*
X11795Y04911D02*
X11915Y05031D01*
X11855Y04911D02*
X11975Y05031D01*
X11915Y04911D02*
X12035Y05031D01*
X11975Y04911D02*
X12095Y05031D01*
X12035Y04911D02*
X12095Y04971D01*
X10975Y04871D02*
X11015Y04911D01*
X10975Y04811D02*
X11075Y04911D01*
X11015Y04791D02*
X11135Y04911D01*
X11075Y04791D02*
X11195Y04911D01*
X11135Y04791D02*
X11255Y04911D01*
X11195Y04791D02*
X11315Y04911D01*
X11255Y04791D02*
X11375Y04911D01*
X11315Y04791D02*
X11435Y04911D01*
X11375Y04791D02*
X11495Y04911D01*
X11435Y04791D02*
X11555Y04911D01*
X11495Y04791D02*
X11615Y04911D01*
X11555Y04791D02*
X11675Y04911D01*
X11615Y04791D02*
X11735Y04911D01*
X11675Y04791D02*
X11795Y04911D01*
X11735Y04791D02*
X11855Y04911D01*
X11795Y04791D02*
X11915Y04911D01*
X11855Y04791D02*
X11975Y04911D01*
X11915Y04791D02*
X12035Y04911D01*
X11975Y04791D02*
X12095Y04911D01*
X12035Y04791D02*
X12095Y04851D01*
X10975Y04751D02*
X11015Y04791D01*
X10975Y04691D02*
X11075Y04791D01*
X11015Y04671D02*
X11135Y04791D01*
X11075Y04671D02*
X11195Y04791D01*
X11135Y04671D02*
X11255Y04791D01*
X11195Y04671D02*
X11315Y04791D01*
X11255Y04671D02*
X11375Y04791D01*
X11315Y04671D02*
X11435Y04791D01*
X11375Y04671D02*
X11495Y04791D01*
X11435Y04671D02*
X11555Y04791D01*
X11495Y04671D02*
X11615Y04791D01*
X11555Y04671D02*
X11675Y04791D01*
X11615Y04671D02*
X11735Y04791D01*
X11675Y04671D02*
X11795Y04791D01*
X11735Y04671D02*
X11855Y04791D01*
X11795Y04671D02*
X11915Y04791D01*
X11855Y04671D02*
X11975Y04791D01*
X11915Y04671D02*
X12035Y04791D01*
X11975Y04671D02*
X12095Y04791D01*
X12035Y04671D02*
X12095Y04731D01*
X10975Y04631D02*
X11015Y04671D01*
X10975Y04571D02*
X11075Y04671D01*
X11015Y04551D02*
X11135Y04671D01*
X11075Y04551D02*
X11195Y04671D01*
X11135Y04551D02*
X11255Y04671D01*
X11195Y04551D02*
X11315Y04671D01*
X11255Y04551D02*
X11375Y04671D01*
X11315Y04551D02*
X11435Y04671D01*
X11375Y04551D02*
X11495Y04671D01*
X11435Y04551D02*
X11555Y04671D01*
X11495Y04551D02*
X11615Y04671D01*
X11555Y04551D02*
X11675Y04671D01*
X11615Y04551D02*
X11735Y04671D01*
X11675Y04551D02*
X11795Y04671D01*
X11735Y04551D02*
X11855Y04671D01*
X11795Y04551D02*
X11915Y04671D01*
X11855Y04551D02*
X11975Y04671D01*
X11915Y04551D02*
X12035Y04671D01*
X11975Y04551D02*
X12095Y04671D01*
X12035Y04551D02*
X12095Y04611D01*
X10975Y04511D02*
X11015Y04551D01*
X10975Y04451D02*
X11075Y04551D01*
X11015Y04431D02*
X11135Y04551D01*
X11075Y04431D02*
X11195Y04551D01*
X11135Y04431D02*
X11255Y04551D01*
X11195Y04431D02*
X11315Y04551D01*
X11255Y04431D02*
X11375Y04551D01*
X11315Y04431D02*
X11435Y04551D01*
X11375Y04431D02*
X11495Y04551D01*
X11435Y04431D02*
X11555Y04551D01*
X11495Y04431D02*
X11615Y04551D01*
X11555Y04431D02*
X11675Y04551D01*
X11615Y04431D02*
X11735Y04551D01*
X11675Y04431D02*
X11795Y04551D01*
X11735Y04431D02*
X11855Y04551D01*
X11795Y04431D02*
X11915Y04551D01*
X11855Y04431D02*
X11975Y04551D01*
X11915Y04431D02*
X12035Y04551D01*
X11975Y04431D02*
X12095Y04551D01*
X12035Y04431D02*
X12095Y04491D01*
X10975Y04391D02*
X11015Y04431D01*
X10975Y04331D02*
X11075Y04431D01*
X11015Y04311D02*
X11135Y04431D01*
X11075Y04311D02*
X11195Y04431D01*
X11135Y04311D02*
X11255Y04431D01*
X11195Y04311D02*
X11315Y04431D01*
X11255Y04311D02*
X11375Y04431D01*
X11315Y04311D02*
X11435Y04431D01*
X11375Y04311D02*
X11495Y04431D01*
X11435Y04311D02*
X11555Y04431D01*
X11495Y04311D02*
X11615Y04431D01*
X11555Y04311D02*
X11675Y04431D01*
X11615Y04311D02*
X11735Y04431D01*
X11675Y04311D02*
X11795Y04431D01*
X11735Y04311D02*
X11855Y04431D01*
X11795Y04311D02*
X11915Y04431D01*
X11855Y04311D02*
X11975Y04431D01*
X11915Y04311D02*
X12035Y04431D01*
X11975Y04311D02*
X12095Y04431D01*
X12035Y04311D02*
X12095Y04371D01*
X10975Y04271D02*
X11015Y04311D01*
X10975Y04211D02*
X11075Y04311D01*
X11015Y04191D02*
X11135Y04311D01*
X11075Y04191D02*
X11195Y04311D01*
X11135Y04191D02*
X11255Y04311D01*
X11195Y04191D02*
X11315Y04311D01*
X11255Y04191D02*
X11375Y04311D01*
X11315Y04191D02*
X11435Y04311D01*
X11375Y04191D02*
X11495Y04311D01*
X11435Y04191D02*
X11555Y04311D01*
X11495Y04191D02*
X11615Y04311D01*
X11555Y04191D02*
X11675Y04311D01*
X11615Y04191D02*
X11735Y04311D01*
X11675Y04191D02*
X11795Y04311D01*
X11735Y04191D02*
X11855Y04311D01*
X11795Y04191D02*
X11915Y04311D01*
X11855Y04191D02*
X11975Y04311D01*
X11915Y04191D02*
X12035Y04311D01*
X11975Y04191D02*
X12095Y04311D01*
X12035Y04191D02*
X12095Y04251D01*
X10975Y04151D02*
X11015Y04191D01*
X10975Y04091D02*
X11075Y04191D01*
X11015Y04071D02*
X11135Y04191D01*
X11075Y04071D02*
X11195Y04191D01*
X11135Y04071D02*
X11255Y04191D01*
X11195Y04071D02*
X11315Y04191D01*
X11255Y04071D02*
X11375Y04191D01*
X11315Y04071D02*
X11435Y04191D01*
X11375Y04071D02*
X11495Y04191D01*
X11435Y04071D02*
X11555Y04191D01*
X11495Y04071D02*
X11615Y04191D01*
X11555Y04071D02*
X11675Y04191D01*
X11615Y04071D02*
X11735Y04191D01*
X11675Y04071D02*
X11795Y04191D01*
X11735Y04071D02*
X11855Y04191D01*
X11795Y04071D02*
X11915Y04191D01*
X11855Y04071D02*
X11975Y04191D01*
X11915Y04071D02*
X12035Y04191D01*
X11975Y04071D02*
X12095Y04191D01*
X12035Y04071D02*
X12095Y04131D01*
X10975Y04031D02*
X11015Y04071D01*
X10975Y03971D02*
X11075Y04071D01*
X11015Y03951D02*
X11135Y04071D01*
X11075Y03951D02*
X11195Y04071D01*
X11135Y03951D02*
X11255Y04071D01*
X11195Y03951D02*
X11315Y04071D01*
X11255Y03951D02*
X11375Y04071D01*
X11315Y03951D02*
X11435Y04071D01*
X11375Y03951D02*
X11495Y04071D01*
X11435Y03951D02*
X11555Y04071D01*
X11495Y03951D02*
X11615Y04071D01*
X11555Y03951D02*
X11675Y04071D01*
X11615Y03951D02*
X11735Y04071D01*
X11675Y03951D02*
X11795Y04071D01*
X11735Y03951D02*
X11855Y04071D01*
X11795Y03951D02*
X11915Y04071D01*
X11855Y03951D02*
X11975Y04071D01*
X11915Y03951D02*
X12035Y04071D01*
X11975Y03951D02*
X12095Y04071D01*
X12035Y03951D02*
X12095Y04011D01*
X10975Y03911D02*
X11015Y03951D01*
X10975Y03851D02*
X11075Y03951D01*
X11015Y03831D02*
X11135Y03951D01*
X11075Y03831D02*
X11195Y03951D01*
X11135Y03831D02*
X11255Y03951D01*
X11195Y03831D02*
X11315Y03951D01*
X11255Y03831D02*
X11375Y03951D01*
X11315Y03831D02*
X11435Y03951D01*
X11375Y03831D02*
X11495Y03951D01*
X11435Y03831D02*
X11555Y03951D01*
X11495Y03831D02*
X11615Y03951D01*
X11555Y03831D02*
X11675Y03951D01*
X11615Y03831D02*
X11735Y03951D01*
X11675Y03831D02*
X11795Y03951D01*
X11735Y03831D02*
X11855Y03951D01*
X11795Y03831D02*
X11915Y03951D01*
X11855Y03831D02*
X11975Y03951D01*
X11915Y03831D02*
X12035Y03951D01*
X11975Y03831D02*
X12095Y03951D01*
X12035Y03831D02*
X12095Y03891D01*
X10975Y03791D02*
X11015Y03831D01*
X10975Y03731D02*
X11075Y03831D01*
X11015Y03711D02*
X11135Y03831D01*
X11075Y03711D02*
X11195Y03831D01*
X11135Y03711D02*
X11255Y03831D01*
X11195Y03711D02*
X11315Y03831D01*
X11255Y03711D02*
X11375Y03831D01*
X11315Y03711D02*
X11435Y03831D01*
X11375Y03711D02*
X11495Y03831D01*
X11435Y03711D02*
X11555Y03831D01*
X11495Y03711D02*
X11615Y03831D01*
X11555Y03711D02*
X11675Y03831D01*
X11615Y03711D02*
X11735Y03831D01*
X11675Y03711D02*
X11795Y03831D01*
X11735Y03711D02*
X11855Y03831D01*
X11795Y03711D02*
X11915Y03831D01*
X11855Y03711D02*
X11975Y03831D01*
X11915Y03711D02*
X12035Y03831D01*
X11975Y03711D02*
X12095Y03831D01*
X12035Y03711D02*
X12095Y03771D01*
X10975Y03671D02*
X11015Y03711D01*
X10975Y03611D02*
X11075Y03711D01*
X11015Y03591D02*
X11135Y03711D01*
X11075Y03591D02*
X11195Y03711D01*
X11135Y03591D02*
X11255Y03711D01*
X11195Y03591D02*
X11315Y03711D01*
X11255Y03591D02*
X11375Y03711D01*
X11315Y03591D02*
X11435Y03711D01*
X11375Y03591D02*
X11495Y03711D01*
X11435Y03591D02*
X11555Y03711D01*
X11495Y03591D02*
X11615Y03711D01*
X11555Y03591D02*
X11675Y03711D01*
X11615Y03591D02*
X11735Y03711D01*
X11675Y03591D02*
X11795Y03711D01*
X11735Y03591D02*
X11855Y03711D01*
X11795Y03591D02*
X11915Y03711D01*
X11855Y03591D02*
X11975Y03711D01*
X11915Y03591D02*
X12035Y03711D01*
X11975Y03591D02*
X12095Y03711D01*
X12035Y03591D02*
X12095Y03651D01*
G54D61*
X02713Y02405D02*
X02718Y0241D01*
X02696Y02405D02*
X02713D01*
X02797Y03088D02*
Y03099D01*
Y03088D02*
X02825Y0306D01*
X02768Y03167D02*
X02806D01*
X02716Y03115D02*
X02768Y03167D01*
X02698Y03115D02*
X02716D01*
G54D62*
X02418Y03187D02*
X02476D01*
X01148Y03829D02*
X01194D01*
X0242Y03499D02*
X02469D01*
X01152Y04144D02*
X01197D01*
X02418Y03187D02*
Y035D01*
X01197Y03831D02*
Y04144D01*
G54D63*
X01552Y03431D02*
X01599D01*
X01635D02*
X0168D01*
X01045Y0487D02*
Y04917D01*
Y04788D02*
Y04834D01*
X018Y01753D02*
X01847D01*
X01718D02*
X01764D01*
X12155Y05481D02*
Y05421D01*
X12185*
X12195Y05431*
Y05441*
X12185Y05451*
X12155*
X12185*
X12195Y05461*
Y05471*
X12185Y05481*
X12155*
X12225Y05421D02*
X12245D01*
X12255Y05431*
Y05451*
X12245Y05461*
X12225*
X12215Y05451*
Y05431*
X12225Y05421*
X12285Y05461D02*
X12305D01*
X12315Y05451*
Y05421*
X12285*
X12275Y05431*
X12285Y05441*
X12315*
X12335Y05461D02*
Y05421D01*
Y05441*
X12345Y05451*
X12355Y05461*
X12365*
X12435Y05481D02*
Y05421D01*
X12405*
X12395Y05431*
Y05451*
X12405Y05461*
X12435*
X12515Y05481D02*
Y05421D01*
X12555*
X12585Y05461D02*
X12605D01*
X12615Y05451*
Y05421*
X12585*
X12575Y05431*
X12585Y05441*
X12615*
X12635Y05461D02*
Y05431D01*
X12645Y05421*
X12675*
Y05411*
X12665Y05401*
X12655*
X12675Y05421D02*
Y05461D01*
X12725Y05421D02*
X12705D01*
X12695Y05431*
Y05451*
X12705Y05461*
X12725*
X12735Y05451*
Y05441*
X12695*
X12755Y05461D02*
Y05421D01*
Y05441*
X12765Y05451*
X12775Y05461*
X12785*
X12915Y05471D02*
X12905Y05481D01*
X12885*
X12875Y05471*
Y05461*
X12885Y05451*
X12905*
X12915Y05441*
Y05431*
X12905Y05421*
X12885*
X12875Y05431*
X12945Y05471D02*
Y05461D01*
X12935*
X12955*
X12945*
Y05431*
X12955Y05421*
X12995Y05461D02*
X13015D01*
X13025Y05451*
Y05421*
X12995*
X12985Y05431*
X12995Y05441*
X13025*
X13084Y05461D02*
X13054D01*
X13044Y05451*
Y05431*
X13054Y05421*
X13084*
X13104D02*
Y05481D01*
Y05441D02*
X13134Y05461D01*
X13104Y05441D02*
X13134Y05421D01*
X11035Y05481D02*
Y05421D01*
X11065*
X11075Y05431*
Y05441*
X11065Y05451*
X11035*
X11065*
X11075Y05461*
Y05471*
X11065Y05481*
X11035*
X11105Y05421D02*
X11125D01*
X11135Y05431*
Y05451*
X11125Y05461*
X11105*
X11095Y05451*
Y05431*
X11105Y05421*
X11165Y05461D02*
X11185D01*
X11195Y05451*
Y05421*
X11165*
X11155Y05431*
X11165Y05441*
X11195*
X11215Y05461D02*
Y05421D01*
Y05441*
X11225Y05451*
X11235Y05461*
X11245*
X11315Y05481D02*
Y05421D01*
X11285*
X11275Y05431*
Y05451*
X11285Y05461*
X11315*
X11395Y05481D02*
Y05421D01*
X11435*
X11465Y05461D02*
X11485D01*
X11495Y05451*
Y05421*
X11465*
X11455Y05431*
X11465Y05441*
X11495*
X11515Y05461D02*
Y05431D01*
X11525Y05421*
X11555*
Y05411*
X11545Y05401*
X11535*
X11555Y05421D02*
Y05461D01*
X11605Y05421D02*
X11585D01*
X11575Y05431*
Y05451*
X11585Y05461*
X11605*
X11615Y05451*
Y05441*
X11575*
X11635Y05461D02*
Y05421D01*
Y05441*
X11645Y05451*
X11655Y05461*
X11665*
X11795Y05471D02*
X11785Y05481D01*
X11765*
X11755Y05471*
Y05461*
X11765Y05451*
X11785*
X11795Y05441*
Y05431*
X11785Y05421*
X11765*
X11755Y05431*
X11825Y05471D02*
Y05461D01*
X11815*
X11835*
X11825*
Y05431*
X11835Y05421*
X11875Y05461D02*
X11895D01*
X11905Y05451*
Y05421*
X11875*
X11865Y05431*
X11875Y05441*
X11905*
X11965Y05461D02*
X11935D01*
X11925Y05451*
Y05431*
X11935Y05421*
X11965*
X11985D02*
Y05481D01*
Y05441D02*
X12015Y05461D01*
X11985Y05441D02*
X12015Y05421D01*
X10465Y05231D02*
X10475Y05241D01*
X10495*
X10505Y05231*
Y05221*
X10495Y05211*
X10485*
X10495*
X10505Y05201*
Y05191*
X10495Y05181*
X10475*
X10465Y05191*
X10525Y05181D02*
Y05191D01*
X10535*
Y05181*
X10525*
X10615Y05241D02*
X10575D01*
Y05211*
X10595Y05221*
X10605*
X10615Y05211*
Y05191*
X10605Y05181*
X10585*
X10575Y05191*
X10495Y04941D02*
Y05001D01*
X10465Y04971*
X10505*
X10525Y04941D02*
Y04951D01*
X10535*
Y04941*
X10525*
X10615D02*
X10575D01*
X10615Y04981*
Y04991*
X10605Y05001*
X10585*
X10575Y04991*
X10495Y04701D02*
Y04761D01*
X10465Y04731*
X10505*
X10525Y04701D02*
Y04711D01*
X10535*
Y04701*
X10525*
X10615D02*
X10575D01*
X10615Y04741*
Y04751*
X10605Y04761*
X10585*
X10575Y04751*
X10495Y04461D02*
Y04521D01*
X10465Y04491*
X10505*
X10525Y04461D02*
Y04471D01*
X10535*
Y04461*
X10525*
X10615D02*
X10575D01*
X10615Y04501*
Y04511*
X10605Y04521*
X10585*
X10575Y04511*
X10495Y04221D02*
Y04281D01*
X10465Y04251*
X10505*
X10525Y04221D02*
Y04231D01*
X10535*
Y04221*
X10525*
X10615D02*
X10575D01*
X10615Y04261*
Y04271*
X10605Y04281*
X10585*
X10575Y04271*
X10495Y03981D02*
Y04041D01*
X10465Y04011*
X10505*
X10525Y03981D02*
Y03991D01*
X10535*
Y03981*
X10525*
X10615D02*
X10575D01*
X10615Y04021*
Y04031*
X10605Y04041*
X10585*
X10575Y04031*
X10465Y03791D02*
X10475Y03801D01*
X10495*
X10505Y03791*
Y03781*
X10495Y03771*
X10485*
X10495*
X10505Y03761*
Y03751*
X10495Y03741*
X10475*
X10465Y03751*
X10525Y03741D02*
Y03751D01*
X10535*
Y03741*
X10525*
X10615Y03801D02*
X10575D01*
Y03771*
X10595Y03781*
X10605*
X10615Y03771*
Y03751*
X10605Y03741*
X10585*
X10575Y03751*
X10505Y05471D02*
X10495Y05481D01*
X10475*
X10465Y05471*
Y05431*
X10475Y05421*
X10495*
X10505Y05431*
X10535Y05421D02*
X10555D01*
X10565Y05431*
Y05451*
X10555Y05461*
X10535*
X10525Y05451*
Y05431*
X10535Y05421*
X10585D02*
Y05461D01*
X10615*
X10625Y05451*
Y05421*
X10645D02*
X10675D01*
X10685Y05431*
X10675Y05441*
X10655*
X10645Y05451*
X10655Y05461*
X10685*
X10715Y05471D02*
Y05461D01*
X10705*
X10725*
X10715*
Y05431*
X10725Y05421*
X10765Y05461D02*
X10785D01*
X10795Y05451*
Y05421*
X10765*
X10755Y05431*
X10765Y05441*
X10795*
X10815Y05421D02*
Y05461D01*
X10845*
X10855Y05451*
Y05421*
X10885Y05471D02*
Y05461D01*
X10875*
X10895*
X10885*
Y05431*
X10895Y05421*
X09815Y05231D02*
X09825Y05241D01*
X09845*
X09855Y05231*
Y05191*
X09845Y05181*
X09825*
X09815Y05191*
Y05231*
X09875Y05181D02*
Y05191D01*
X09885*
Y05181*
X09875*
X09925Y05231D02*
X09935Y05241D01*
X09955*
X09965Y05231*
Y05191*
X09955Y05181*
X09935*
X09925Y05191*
Y05231*
X10025Y05181D02*
X09985D01*
X10025Y05221*
Y05231*
X10015Y05241*
X09995*
X09985Y05231*
X10085Y05241D02*
X10045D01*
Y05211*
X10065Y05221*
X10075*
X10085Y05211*
Y05191*
X10075Y05181*
X10055*
X10045Y05191*
X10105Y05181D02*
Y05221D01*
X10115*
X10125Y05211*
Y05181*
Y05211*
X10135Y05221*
X10145Y05211*
Y05181*
X10165D02*
Y05221D01*
X10175*
X10185Y05211*
Y05181*
Y05211*
X10195Y05221*
X10205Y05211*
Y05181*
X09815Y05111D02*
X09825Y05121D01*
X09845*
X09855Y05111*
Y05071*
X09845Y05061*
X09825*
X09815Y05071*
Y05111*
X09875Y05061D02*
Y05071D01*
X09885*
Y05061*
X09875*
X09925Y05111D02*
X09935Y05121D01*
X09955*
X09965Y05111*
Y05071*
X09955Y05061*
X09935*
X09925Y05071*
Y05111*
X09985D02*
X09995Y05121D01*
X10015*
X10025Y05111*
Y05101*
X10015Y05091*
X10005*
X10015*
X10025Y05081*
Y05071*
X10015Y05061*
X09995*
X09985Y05071*
X10085Y05121D02*
X10045D01*
Y05091*
X10065Y05101*
X10075*
X10085Y05091*
Y05071*
X10075Y05061*
X10055*
X10045Y05071*
X10105Y05061D02*
Y05101D01*
X10115*
X10125Y05091*
Y05061*
Y05091*
X10135Y05101*
X10145Y05091*
Y05061*
X10165D02*
Y05101D01*
X10175*
X10185Y05091*
Y05061*
Y05091*
X10195Y05101*
X10205Y05091*
Y05061*
X09815Y04991D02*
X09825Y05001D01*
X09845*
X09855Y04991*
Y04951*
X09845Y04941*
X09825*
X09815Y04951*
Y04991*
X09875Y04941D02*
Y04951D01*
X09885*
Y04941*
X09875*
X09925D02*
X09945D01*
X09935*
Y05001*
X09925Y04991*
X09975Y04941D02*
X09995D01*
X09985*
Y05001*
X09975Y04991*
X10065Y05001D02*
X10025D01*
Y04971*
X10045Y04981*
X10055*
X10065Y04971*
Y04951*
X10055Y04941*
X10035*
X10025Y04951*
X10085Y04941D02*
Y04981D01*
X10095*
X10105Y04971*
Y04941*
Y04971*
X10115Y04981*
X10125Y04971*
Y04941*
X10145D02*
Y04981D01*
X10155*
X10165Y04971*
Y04941*
Y04971*
X10175Y04981*
X10185Y04971*
Y04941*
X09815Y04871D02*
X09825Y04881D01*
X09845*
X09855Y04871*
Y04831*
X09845Y04821*
X09825*
X09815Y04831*
Y04871*
X09875Y04821D02*
Y04831D01*
X09885*
Y04821*
X09875*
X09925Y04871D02*
X09935Y04881D01*
X09955*
X09965Y04871*
Y04831*
X09955Y04821*
X09935*
X09925Y04831*
Y04871*
X09985D02*
X09995Y04881D01*
X10015*
X10025Y04871*
Y04861*
X10015Y04851*
X10005*
X10015*
X10025Y04841*
Y04831*
X10015Y04821*
X09995*
X09985Y04831*
X10085Y04881D02*
X10045D01*
Y04851*
X10065Y04861*
X10075*
X10085Y04851*
Y04831*
X10075Y04821*
X10055*
X10045Y04831*
X10105Y04821D02*
Y04861D01*
X10115*
X10125Y04851*
Y04821*
Y04851*
X10135Y04861*
X10145Y04851*
Y04821*
X10165D02*
Y04861D01*
X10175*
X10185Y04851*
Y04821*
Y04851*
X10195Y04861*
X10205Y04851*
Y04821*
X09815Y04751D02*
X09825Y04761D01*
X09845*
X09855Y04751*
Y04711*
X09845Y04701*
X09825*
X09815Y04711*
Y04751*
X09875Y04701D02*
Y04711D01*
X09885*
Y04701*
X09875*
X09955D02*
Y04761D01*
X09925Y04731*
X09965*
X09985Y04751D02*
X09995Y04761D01*
X10015*
X10025Y04751*
Y04711*
X10015Y04701*
X09995*
X09985Y04711*
Y04751*
X10045D02*
X10055Y04761D01*
X10075*
X10085Y04751*
Y04711*
X10075Y04701*
X10055*
X10045Y04711*
Y04751*
X10105Y04701D02*
Y04741D01*
X10115*
X10125Y04731*
Y04701*
Y04731*
X10135Y04741*
X10145Y04731*
Y04701*
X10165D02*
Y04741D01*
X10175*
X10185Y04731*
Y04701*
Y04731*
X10195Y04741*
X10205Y04731*
Y04701*
X09815Y04631D02*
X09825Y04641D01*
X09845*
X09855Y04631*
Y04591*
X09845Y04581*
X09825*
X09815Y04591*
Y04631*
X09875Y04581D02*
Y04591D01*
X09885*
Y04581*
X09875*
X09925Y04631D02*
X09935Y04641D01*
X09955*
X09965Y04631*
Y04591*
X09955Y04581*
X09935*
X09925Y04591*
Y04631*
X09985D02*
X09995Y04641D01*
X10015*
X10025Y04631*
Y04621*
X10015Y04611*
X10005*
X10015*
X10025Y04601*
Y04591*
X10015Y04581*
X09995*
X09985Y04591*
X10085Y04641D02*
X10045D01*
Y04611*
X10065Y04621*
X10075*
X10085Y04611*
Y04591*
X10075Y04581*
X10055*
X10045Y04591*
X10105Y04581D02*
Y04621D01*
X10115*
X10125Y04611*
Y04581*
Y04611*
X10135Y04621*
X10145Y04611*
Y04581*
X10165D02*
Y04621D01*
X10175*
X10185Y04611*
Y04581*
Y04611*
X10195Y04621*
X10205Y04611*
Y04581*
X09815Y04511D02*
X09825Y04521D01*
X09845*
X09855Y04511*
Y04471*
X09845Y04461*
X09825*
X09815Y04471*
Y04511*
X09875Y04461D02*
Y04471D01*
X09885*
Y04461*
X09875*
X09965D02*
X09925D01*
X09965Y04501*
Y04511*
X09955Y04521*
X09935*
X09925Y04511*
X09985Y04471D02*
X09995Y04461D01*
X10015*
X10025Y04471*
Y04511*
X10015Y04521*
X09995*
X09985Y04511*
Y04501*
X09995Y04491*
X10025*
X10085Y04521D02*
X10065Y04511D01*
X10045Y04491*
Y04471*
X10055Y04461*
X10075*
X10085Y04471*
Y04481*
X10075Y04491*
X10045*
X10105Y04461D02*
Y04501D01*
X10115*
X10125Y04491*
Y04461*
Y04491*
X10135Y04501*
X10145Y04491*
Y04461*
X10165D02*
Y04501D01*
X10175*
X10185Y04491*
Y04461*
Y04491*
X10195Y04501*
X10205Y04491*
Y04461*
X09815Y04391D02*
X09825Y04401D01*
X09845*
X09855Y04391*
Y04351*
X09845Y04341*
X09825*
X09815Y04351*
Y04391*
X09875Y04341D02*
Y04351D01*
X09885*
Y04341*
X09875*
X09925Y04391D02*
X09935Y04401D01*
X09955*
X09965Y04391*
Y04351*
X09955Y04341*
X09935*
X09925Y04351*
Y04391*
X09985D02*
X09995Y04401D01*
X10015*
X10025Y04391*
Y04381*
X10015Y04371*
X10005*
X10015*
X10025Y04361*
Y04351*
X10015Y04341*
X09995*
X09985Y04351*
X10085Y04401D02*
X10045D01*
Y04371*
X10065Y04381*
X10075*
X10085Y04371*
Y04351*
X10075Y04341*
X10055*
X10045Y04351*
X10105Y04341D02*
Y04381D01*
X10115*
X10125Y04371*
Y04341*
Y04371*
X10135Y04381*
X10145Y04371*
Y04341*
X10165D02*
Y04381D01*
X10175*
X10185Y04371*
Y04341*
Y04371*
X10195Y04381*
X10205Y04371*
Y04341*
X09815Y04271D02*
X09825Y04281D01*
X09845*
X09855Y04271*
Y04231*
X09845Y04221*
X09825*
X09815Y04231*
Y04271*
X09875Y04221D02*
Y04231D01*
X09885*
Y04221*
X09875*
X09955D02*
Y04281D01*
X09925Y04251*
X09965*
X09985Y04271D02*
X09995Y04281D01*
X10015*
X10025Y04271*
Y04231*
X10015Y04221*
X09995*
X09985Y04231*
Y04271*
X10045D02*
X10055Y04281D01*
X10075*
X10085Y04271*
Y04231*
X10075Y04221*
X10055*
X10045Y04231*
Y04271*
X10105Y04221D02*
Y04261D01*
X10115*
X10125Y04251*
Y04221*
Y04251*
X10135Y04261*
X10145Y04251*
Y04221*
X10165D02*
Y04261D01*
X10175*
X10185Y04251*
Y04221*
Y04251*
X10195Y04261*
X10205Y04251*
Y04221*
X09815Y04151D02*
X09825Y04161D01*
X09845*
X09855Y04151*
Y04111*
X09845Y04101*
X09825*
X09815Y04111*
Y04151*
X09875Y04101D02*
Y04111D01*
X09885*
Y04101*
X09875*
X09925Y04151D02*
X09935Y04161D01*
X09955*
X09965Y04151*
Y04111*
X09955Y04101*
X09935*
X09925Y04111*
Y04151*
X09985D02*
X09995Y04161D01*
X10015*
X10025Y04151*
Y04141*
X10015Y04131*
X10005*
X10015*
X10025Y04121*
Y04111*
X10015Y04101*
X09995*
X09985Y04111*
X10085Y04161D02*
X10045D01*
Y04131*
X10065Y04141*
X10075*
X10085Y04131*
Y04111*
X10075Y04101*
X10055*
X10045Y04111*
X10105Y04101D02*
Y04141D01*
X10115*
X10125Y04131*
Y04101*
Y04131*
X10135Y04141*
X10145Y04131*
Y04101*
X10165D02*
Y04141D01*
X10175*
X10185Y04131*
Y04101*
Y04131*
X10195Y04141*
X10205Y04131*
Y04101*
X09815Y04031D02*
X09825Y04041D01*
X09845*
X09855Y04031*
Y03991*
X09845Y03981*
X09825*
X09815Y03991*
Y04031*
X09875Y03981D02*
Y03991D01*
X09885*
Y03981*
X09875*
X09925D02*
X09945D01*
X09935*
Y04041*
X09925Y04031*
X09975Y03981D02*
X09995D01*
X09985*
Y04041*
X09975Y04031*
X10065Y04041D02*
X10025D01*
Y04011*
X10045Y04021*
X10055*
X10065Y04011*
Y03991*
X10055Y03981*
X10035*
X10025Y03991*
X10085Y03981D02*
Y04021D01*
X10095*
X10105Y04011*
Y03981*
Y04011*
X10115Y04021*
X10125Y04011*
Y03981*
X10145D02*
Y04021D01*
X10155*
X10165Y04011*
Y03981*
Y04011*
X10175Y04021*
X10185Y04011*
Y03981*
X09815Y03911D02*
X09825Y03921D01*
X09845*
X09855Y03911*
Y03871*
X09845Y03861*
X09825*
X09815Y03871*
Y03911*
X09875Y03861D02*
Y03871D01*
X09885*
Y03861*
X09875*
X09925Y03911D02*
X09935Y03921D01*
X09955*
X09965Y03911*
Y03871*
X09955Y03861*
X09935*
X09925Y03871*
Y03911*
X09985D02*
X09995Y03921D01*
X10015*
X10025Y03911*
Y03901*
X10015Y03891*
X10005*
X10015*
X10025Y03881*
Y03871*
X10015Y03861*
X09995*
X09985Y03871*
X10085Y03921D02*
X10045D01*
Y03891*
X10065Y03901*
X10075*
X10085Y03891*
Y03871*
X10075Y03861*
X10055*
X10045Y03871*
X10105Y03861D02*
Y03901D01*
X10115*
X10125Y03891*
Y03861*
Y03891*
X10135Y03901*
X10145Y03891*
Y03861*
X10165D02*
Y03901D01*
X10175*
X10185Y03891*
Y03861*
Y03891*
X10195Y03901*
X10205Y03891*
Y03861*
X09815Y03791D02*
X09825Y03801D01*
X09845*
X09855Y03791*
Y03751*
X09845Y03741*
X09825*
X09815Y03751*
Y03791*
X09875Y03741D02*
Y03751D01*
X09885*
Y03741*
X09875*
X09925Y03791D02*
X09935Y03801D01*
X09955*
X09965Y03791*
Y03751*
X09955Y03741*
X09935*
X09925Y03751*
Y03791*
X10025Y03741D02*
X09985D01*
X10025Y03781*
Y03791*
X10015Y03801*
X09995*
X09985Y03791*
X10085Y03801D02*
X10045D01*
Y03771*
X10065Y03781*
X10075*
X10085Y03771*
Y03751*
X10075Y03741*
X10055*
X10045Y03751*
X10105Y03741D02*
Y03781D01*
X10115*
X10125Y03771*
Y03741*
Y03771*
X10135Y03781*
X10145Y03771*
Y03741*
X10165D02*
Y03781D01*
X10175*
X10185Y03771*
Y03741*
Y03771*
X10195Y03781*
X10205Y03771*
Y03741*
X09815Y05481D02*
X09855D01*
X09835*
Y05421*
X09875Y05481D02*
Y05421D01*
Y05451*
X09885Y05461*
X09905*
X09915Y05451*
Y05421*
X09935D02*
X09955D01*
X09945*
Y05461*
X09935*
X10025D02*
X09995D01*
X09985Y05451*
Y05431*
X09995Y05421*
X10025*
X10045D02*
Y05481D01*
Y05441D02*
X10075Y05461D01*
X10045Y05441D02*
X10075Y05421D01*
X10105D02*
Y05461D01*
X10135*
X10145Y05451*
Y05421*
X10195D02*
X10175D01*
X10165Y05431*
Y05451*
X10175Y05461*
X10195*
X10205Y05451*
Y05441*
X10165*
X10225Y05421D02*
X10255D01*
X10265Y05431*
X10255Y05441*
X10235*
X10225Y05451*
X10235Y05461*
X10265*
X10285Y05421D02*
X10315D01*
X10325Y05431*
X10315Y05441*
X10295*
X10285Y05451*
X10295Y05461*
X10325*
X08996Y05231D02*
X08986Y05241D01*
X08966*
X08956Y05231*
Y05221*
X08966Y05211*
X08986*
X08996Y05201*
Y05191*
X08986Y05181*
X08966*
X08956Y05191*
X09026Y05181D02*
X09046D01*
X09056Y05191*
Y05211*
X09046Y05221*
X09026*
X09016Y05211*
Y05191*
X09026Y05181*
X09076D02*
X09096D01*
X09086*
Y05241*
X09076*
X09166D02*
Y05181D01*
X09136*
X09126Y05191*
Y05211*
X09136Y05221*
X09166*
X09216Y05181D02*
X09196D01*
X09186Y05191*
Y05211*
X09196Y05221*
X09216*
X09226Y05211*
Y05201*
X09186*
X09246Y05221D02*
Y05181D01*
Y05201*
X09256Y05211*
X09266Y05221*
X09276*
X09366Y05181D02*
Y05241D01*
X09395*
X09405Y05231*
Y05211*
X09395Y05201*
X09366*
X09385D02*
X09405Y05181D01*
X09455D02*
X09435D01*
X09425Y05191*
Y05211*
X09435Y05221*
X09455*
X09465Y05211*
Y05201*
X09425*
X09485Y05181D02*
X09515D01*
X09525Y05191*
X09515Y05201*
X09495*
X09485Y05211*
X09495Y05221*
X09525*
X09545Y05181D02*
X09565D01*
X09555*
Y05221*
X09545*
X09595Y05181D02*
X09625D01*
X09635Y05191*
X09625Y05201*
X09605*
X09595Y05211*
X09605Y05221*
X09635*
X09665Y05231D02*
Y05221D01*
X09655*
X09675*
X09665*
Y05191*
X09675Y05181*
X08996Y05111D02*
X08986Y05121D01*
X08966*
X08956Y05111*
Y05071*
X08966Y05061*
X08986*
X08996Y05071*
X09026Y05061D02*
X09046D01*
X09056Y05071*
Y05091*
X09046Y05101*
X09026*
X09016Y05091*
Y05071*
X09026Y05061*
X09076Y05041D02*
Y05101D01*
X09106*
X09116Y05091*
Y05071*
X09106Y05061*
X09076*
X09136Y05041D02*
Y05101D01*
X09166*
X09176Y05091*
Y05071*
X09166Y05061*
X09136*
X09226D02*
X09206D01*
X09196Y05071*
Y05091*
X09206Y05101*
X09226*
X09236Y05091*
Y05081*
X09196*
X09256Y05101D02*
Y05061D01*
Y05081*
X09266Y05091*
X09276Y05101*
X09286*
X08996Y04871D02*
X08986Y04881D01*
X08966*
X08956Y04871*
Y04831*
X08966Y04821*
X08986*
X08996Y04831*
X09026Y04821D02*
X09046D01*
X09056Y04831*
Y04851*
X09046Y04861*
X09026*
X09016Y04851*
Y04831*
X09026Y04821*
X09076Y04801D02*
Y04861D01*
X09106*
X09116Y04851*
Y04831*
X09106Y04821*
X09076*
X09136Y04801D02*
Y04861D01*
X09166*
X09176Y04851*
Y04831*
X09166Y04821*
X09136*
X09226D02*
X09206D01*
X09196Y04831*
Y04851*
X09206Y04861*
X09226*
X09236Y04851*
Y04841*
X09196*
X09256Y04861D02*
Y04821D01*
Y04841*
X09266Y04851*
X09276Y04861*
X09286*
X08996Y04631D02*
X08986Y04641D01*
X08966*
X08956Y04631*
Y04591*
X08966Y04581*
X08986*
X08996Y04591*
X09026Y04581D02*
X09046D01*
X09056Y04591*
Y04611*
X09046Y04621*
X09026*
X09016Y04611*
Y04591*
X09026Y04581*
X09076Y04561D02*
Y04621D01*
X09106*
X09116Y04611*
Y04591*
X09106Y04581*
X09076*
X09136Y04561D02*
Y04621D01*
X09166*
X09176Y04611*
Y04591*
X09166Y04581*
X09136*
X09226D02*
X09206D01*
X09196Y04591*
Y04611*
X09206Y04621*
X09226*
X09236Y04611*
Y04601*
X09196*
X09256Y04621D02*
Y04581D01*
Y04601*
X09266Y04611*
X09276Y04621*
X09286*
X08996Y04391D02*
X08986Y04401D01*
X08966*
X08956Y04391*
Y04351*
X08966Y04341*
X08986*
X08996Y04351*
X09026Y04341D02*
X09046D01*
X09056Y04351*
Y04371*
X09046Y04381*
X09026*
X09016Y04371*
Y04351*
X09026Y04341*
X09076Y04321D02*
Y04381D01*
X09106*
X09116Y04371*
Y04351*
X09106Y04341*
X09076*
X09136Y04321D02*
Y04381D01*
X09166*
X09176Y04371*
Y04351*
X09166Y04341*
X09136*
X09226D02*
X09206D01*
X09196Y04351*
Y04371*
X09206Y04381*
X09226*
X09236Y04371*
Y04361*
X09196*
X09256Y04381D02*
Y04341D01*
Y04361*
X09266Y04371*
X09276Y04381*
X09286*
X08996Y04151D02*
X08986Y04161D01*
X08966*
X08956Y04151*
Y04111*
X08966Y04101*
X08986*
X08996Y04111*
X09026Y04101D02*
X09046D01*
X09056Y04111*
Y04131*
X09046Y04141*
X09026*
X09016Y04131*
Y04111*
X09026Y04101*
X09076Y04081D02*
Y04141D01*
X09106*
X09116Y04131*
Y04111*
X09106Y04101*
X09076*
X09136Y04081D02*
Y04141D01*
X09166*
X09176Y04131*
Y04111*
X09166Y04101*
X09136*
X09226D02*
X09206D01*
X09196Y04111*
Y04131*
X09206Y04141*
X09226*
X09236Y04131*
Y04121*
X09196*
X09256Y04141D02*
Y04101D01*
Y04121*
X09266Y04131*
X09276Y04141*
X09286*
X08996Y03911D02*
X08986Y03921D01*
X08966*
X08956Y03911*
Y03871*
X08966Y03861*
X08986*
X08996Y03871*
X09026Y03861D02*
X09046D01*
X09056Y03871*
Y03891*
X09046Y03901*
X09026*
X09016Y03891*
Y03871*
X09026Y03861*
X09076Y03841D02*
Y03901D01*
X09106*
X09116Y03891*
Y03871*
X09106Y03861*
X09076*
X09136Y03841D02*
Y03901D01*
X09166*
X09176Y03891*
Y03871*
X09166Y03861*
X09136*
X09226D02*
X09206D01*
X09196Y03871*
Y03891*
X09206Y03901*
X09226*
X09236Y03891*
Y03881*
X09196*
X09256Y03901D02*
Y03861D01*
Y03881*
X09266Y03891*
X09276Y03901*
X09286*
X08996Y03791D02*
X08986Y03801D01*
X08966*
X08956Y03791*
Y03781*
X08966Y03771*
X08986*
X08996Y03761*
Y03751*
X08986Y03741*
X08966*
X08956Y03751*
X09026Y03741D02*
X09046D01*
X09056Y03751*
Y03771*
X09046Y03781*
X09026*
X09016Y03771*
Y03751*
X09026Y03741*
X09076D02*
X09096D01*
X09086*
Y03801*
X09076*
X09166D02*
Y03741D01*
X09136*
X09126Y03751*
Y03771*
X09136Y03781*
X09166*
X09216Y03741D02*
X09196D01*
X09186Y03751*
Y03771*
X09196Y03781*
X09216*
X09226Y03771*
Y03761*
X09186*
X09246Y03781D02*
Y03741D01*
Y03761*
X09256Y03771*
X09266Y03781*
X09276*
X09366Y03741D02*
Y03801D01*
X09395*
X09405Y03791*
Y03771*
X09395Y03761*
X09366*
X09385D02*
X09405Y03741D01*
X09455D02*
X09435D01*
X09425Y03751*
Y03771*
X09435Y03781*
X09455*
X09465Y03771*
Y03761*
X09425*
X09485Y03741D02*
X09515D01*
X09525Y03751*
X09515Y03761*
X09495*
X09485Y03771*
X09495Y03781*
X09525*
X09545Y03741D02*
X09565D01*
X09555*
Y03781*
X09545*
X09595Y03741D02*
X09625D01*
X09635Y03751*
X09625Y03761*
X09605*
X09595Y03771*
X09605Y03781*
X09635*
X09665Y03791D02*
Y03781D01*
X09655*
X09675*
X09665*
Y03751*
X09675Y03741*
X08956Y05421D02*
Y05481D01*
X08976Y05461*
X08996Y05481*
Y05421*
X09026Y05461D02*
X09046D01*
X09056Y05451*
Y05421*
X09026*
X09016Y05431*
X09026Y05441*
X09056*
X09086Y05471D02*
Y05461D01*
X09076*
X09096*
X09086*
Y05431*
X09096Y05421*
X09156D02*
X09136D01*
X09126Y05431*
Y05451*
X09136Y05461*
X09156*
X09166Y05451*
Y05441*
X09126*
X09186Y05461D02*
Y05421D01*
Y05441*
X09196Y05451*
X09206Y05461*
X09216*
X09246Y05421D02*
X09266D01*
X09256*
Y05461*
X09246*
X09306D02*
X09326D01*
X09336Y05451*
Y05421*
X09306*
X09296Y05431*
X09306Y05441*
X09336*
X09356Y05421D02*
X09376D01*
X09366*
Y05481*
X09356*
X07796Y05361D02*
X07836D01*
X07816*
Y05301*
X07866D02*
X07886D01*
X07896Y05311*
Y05331*
X07886Y05341*
X07866*
X07856Y05331*
Y05311*
X07866Y05301*
X07916Y05281D02*
Y05341D01*
X07946*
X07956Y05331*
Y05311*
X07946Y05301*
X07916*
X08066Y05361D02*
X08046D01*
X08036Y05351*
Y05311*
X08046Y05301*
X08066*
X08076Y05311*
Y05351*
X08066Y05361*
X08096Y05341D02*
X08116Y05301D01*
X08136Y05341*
X08186Y05301D02*
X08166D01*
X08156Y05311*
Y05331*
X08166Y05341*
X08186*
X08196Y05331*
Y05321*
X08156*
X08216Y05341D02*
Y05301D01*
Y05321*
X08226Y05331*
X08236Y05341*
X08246*
X08276Y05301D02*
X08296D01*
X08286*
Y05361*
X08276*
X08336Y05341D02*
X08356D01*
X08366Y05331*
Y05301*
X08336*
X08326Y05311*
X08336Y05321*
X08366*
X08386Y05341D02*
Y05311D01*
X08396Y05301*
X08426*
Y05291*
X08416Y05281*
X08406*
X08426Y05301D02*
Y05341D01*
X07796Y05241D02*
X07836D01*
X07816*
Y05181*
X07866D02*
X07886D01*
X07896Y05191*
Y05211*
X07886Y05221*
X07866*
X07856Y05211*
Y05191*
X07866Y05181*
X07916Y05161D02*
Y05221D01*
X07946*
X07956Y05211*
Y05191*
X07946Y05181*
X07916*
X08076Y05231D02*
X08066Y05241D01*
X08046*
X08036Y05231*
Y05221*
X08046Y05211*
X08066*
X08076Y05201*
Y05191*
X08066Y05181*
X08046*
X08036Y05191*
X08106Y05181D02*
X08126D01*
X08136Y05191*
Y05211*
X08126Y05221*
X08106*
X08096Y05211*
Y05191*
X08106Y05181*
X08156D02*
X08176D01*
X08166*
Y05241*
X08156*
X08246D02*
Y05181D01*
X08216*
X08206Y05191*
Y05211*
X08216Y05221*
X08246*
X08296Y05181D02*
X08276D01*
X08266Y05191*
Y05211*
X08276Y05221*
X08296*
X08306Y05211*
Y05201*
X08266*
X08326Y05221D02*
Y05181D01*
Y05201*
X08336Y05211*
X08346Y05221*
X08356*
X07836Y05111D02*
X07826Y05121D01*
X07806*
X07796Y05111*
Y05071*
X07806Y05061*
X07826*
X07836Y05071*
X07866Y05061D02*
X07886D01*
X07896Y05071*
Y05091*
X07886Y05101*
X07866*
X07856Y05091*
Y05071*
X07866Y05061*
X07916D02*
Y05101D01*
X07926*
X07936Y05091*
Y05061*
Y05091*
X07946Y05101*
X07956Y05091*
Y05061*
X07976Y05041D02*
Y05101D01*
X08006*
X08016Y05091*
Y05071*
X08006Y05061*
X07976*
X08046D02*
X08066D01*
X08076Y05071*
Y05091*
X08066Y05101*
X08046*
X08036Y05091*
Y05071*
X08046Y05061*
X08096D02*
Y05101D01*
X08126*
X08136Y05091*
Y05061*
X08186D02*
X08166D01*
X08156Y05071*
Y05091*
X08166Y05101*
X08186*
X08196Y05091*
Y05081*
X08156*
X08216Y05061D02*
Y05101D01*
X08246*
X08256Y05091*
Y05061*
X08286Y05111D02*
Y05101D01*
X08276*
X08296*
X08286*
Y05071*
X08296Y05061*
X08426Y05111D02*
X08416Y05121D01*
X08396*
X08386Y05111*
Y05101*
X08396Y05091*
X08416*
X08426Y05081*
Y05071*
X08416Y05061*
X08396*
X08386Y05071*
X08446Y05061D02*
X08466D01*
X08456*
Y05101*
X08446*
X08536Y05121D02*
Y05061D01*
X08506*
X08496Y05071*
Y05091*
X08506Y05101*
X08536*
X08586Y05061D02*
X08566D01*
X08556Y05071*
Y05091*
X08566Y05101*
X08586*
X08596Y05091*
Y05081*
X08556*
X07796Y04941D02*
Y05001D01*
X07826*
X07836Y04991*
Y04971*
X07826Y04961*
X07796*
X07856Y04981D02*
Y04941D01*
Y04961*
X07866Y04971*
X07876Y04981*
X07886*
X07946Y04941D02*
X07926D01*
X07916Y04951*
Y04971*
X07926Y04981*
X07946*
X07956Y04971*
Y04961*
X07916*
X07976Y04921D02*
Y04981D01*
X08006*
X08016Y04971*
Y04951*
X08006Y04941*
X07976*
X08066D02*
X08046D01*
X08036Y04951*
Y04971*
X08046Y04981*
X08066*
X08076Y04971*
Y04961*
X08036*
X08116Y04921D02*
X08126D01*
X08136Y04931*
Y04981*
X08106*
X08096Y04971*
Y04951*
X08106Y04941*
X08136*
X08216D02*
X08236D01*
X08226*
Y05001*
X08216Y04991*
X07836Y04871D02*
X07826Y04881D01*
X07806*
X07796Y04871*
Y04831*
X07806Y04821*
X07826*
X07836Y04831*
Y04851*
X07816*
X07856Y04861D02*
Y04821D01*
Y04841*
X07866Y04851*
X07876Y04861*
X07886*
X07926Y04821D02*
X07946D01*
X07956Y04831*
Y04851*
X07946Y04861*
X07926*
X07916Y04851*
Y04831*
X07926Y04821*
X07976Y04861D02*
Y04831D01*
X07986Y04821*
X08016*
Y04861*
X08036Y04821D02*
Y04861D01*
X08066*
X08076Y04851*
Y04821*
X08136Y04881D02*
Y04821D01*
X08106*
X08096Y04831*
Y04851*
X08106Y04861*
X08136*
X08216Y04821D02*
Y04881D01*
X08246*
X08256Y04871*
Y04851*
X08246Y04841*
X08216*
X08276Y04821D02*
X08296D01*
X08286*
Y04881*
X08276*
X08336Y04861D02*
X08356D01*
X08366Y04851*
Y04821*
X08336*
X08326Y04831*
X08336Y04841*
X08366*
X08386Y04821D02*
Y04861D01*
X08416*
X08426Y04851*
Y04821*
X08476D02*
X08456D01*
X08446Y04831*
Y04851*
X08456Y04861*
X08476*
X08486Y04851*
Y04841*
X08446*
X08586Y04821D02*
X08566Y04841D01*
Y04861*
X08586Y04881*
X08656Y04871D02*
X08646Y04881D01*
X08626*
X08616Y04871*
Y04831*
X08626Y04821*
X08646*
X08656Y04831*
Y04851*
X08636*
X08676Y04821D02*
Y04881D01*
X08716Y04821*
Y04881*
X08736D02*
Y04821D01*
X08766*
X08776Y04831*
Y04871*
X08766Y04881*
X08736*
X08796Y04821D02*
X08816Y04841D01*
Y04861*
X08796Y04881*
X07796Y04761D02*
Y04701D01*
X07826*
X07836Y04711*
Y04751*
X07826Y04761*
X07796*
X07856Y04701D02*
X07876D01*
X07866*
Y04741*
X07856*
X07936Y04701D02*
X07916D01*
X07906Y04711*
Y04731*
X07916Y04741*
X07936*
X07946Y04731*
Y04721*
X07906*
X07966Y04701D02*
X07986D01*
X07976*
Y04761*
X07966*
X08046Y04701D02*
X08026D01*
X08016Y04711*
Y04731*
X08026Y04741*
X08046*
X08056Y04731*
Y04721*
X08016*
X08116Y04741D02*
X08086D01*
X08076Y04731*
Y04711*
X08086Y04701*
X08116*
X08146Y04751D02*
Y04741D01*
X08136*
X08156*
X08146*
Y04711*
X08156Y04701*
X08186Y04741D02*
Y04701D01*
Y04721*
X08196Y04731*
X08206Y04741*
X08216*
X08246Y04701D02*
X08266D01*
X08256*
Y04741*
X08246*
X08336D02*
X08306D01*
X08296Y04731*
Y04711*
X08306Y04701*
X08336*
X08416D02*
X08436D01*
X08426*
Y04761*
X08416Y04751*
X08466D02*
X08476Y04761D01*
X08496*
X08506Y04751*
Y04711*
X08496Y04701*
X08476*
X08466Y04711*
Y04751*
X07836Y04631D02*
X07826Y04641D01*
X07806*
X07796Y04631*
Y04591*
X07806Y04581*
X07826*
X07836Y04591*
Y04611*
X07816*
X07856Y04581D02*
Y04641D01*
X07896Y04581*
Y04641*
X07916D02*
Y04581D01*
X07946*
X07956Y04591*
Y04631*
X07946Y04641*
X07916*
X07976Y04581D02*
X08016Y04621D01*
X08076Y04631D02*
X08066Y04641D01*
X08046*
X08036Y04631*
Y04621*
X08046Y04611*
X08066*
X08076Y04601*
Y04591*
X08066Y04581*
X08046*
X08036Y04591*
X08096Y04581D02*
X08116D01*
X08106*
Y04621*
X08096*
X08166Y04561D02*
X08176D01*
X08186Y04571*
Y04621*
X08156*
X08146Y04611*
Y04591*
X08156Y04581*
X08186*
X08206D02*
Y04621D01*
X08236*
X08246Y04611*
Y04581*
X08276Y04621D02*
X08296D01*
X08306Y04611*
Y04581*
X08276*
X08266Y04591*
X08276Y04601*
X08306*
X08326Y04581D02*
X08346D01*
X08336*
Y04641*
X08326*
X07796Y04521D02*
Y04461D01*
X07826*
X07836Y04471*
Y04511*
X07826Y04521*
X07796*
X07856Y04461D02*
X07876D01*
X07866*
Y04501*
X07856*
X07936Y04461D02*
X07916D01*
X07906Y04471*
Y04491*
X07916Y04501*
X07936*
X07946Y04491*
Y04481*
X07906*
X07966Y04461D02*
X07986D01*
X07976*
Y04521*
X07966*
X08046Y04461D02*
X08026D01*
X08016Y04471*
Y04491*
X08026Y04501*
X08046*
X08056Y04491*
Y04481*
X08016*
X08116Y04501D02*
X08086D01*
X08076Y04491*
Y04471*
X08086Y04461*
X08116*
X08146Y04511D02*
Y04501D01*
X08136*
X08156*
X08146*
Y04471*
X08156Y04461*
X08186Y04501D02*
Y04461D01*
Y04481*
X08196Y04491*
X08206Y04501*
X08216*
X08246Y04461D02*
X08266D01*
X08256*
Y04501*
X08246*
X08336D02*
X08306D01*
X08296Y04491*
Y04471*
X08306Y04461*
X08336*
X08416Y04521D02*
X08456D01*
Y04511*
X08416Y04471*
Y04461*
X07796Y04401D02*
Y04361D01*
X07816Y04341*
X07836Y04361*
Y04401*
X07896Y04391D02*
X07886Y04401D01*
X07866*
X07856Y04391*
Y04351*
X07866Y04341*
X07886*
X07896Y04351*
X07956Y04391D02*
X07946Y04401D01*
X07926*
X07916Y04391*
Y04351*
X07926Y04341*
X07946*
X07956Y04351*
X08006Y04401D02*
X07986D01*
X07976Y04391*
Y04351*
X07986Y04341*
X08006*
X08016Y04351*
Y04391*
X08006Y04401*
X08036Y04341D02*
X08076Y04381D01*
X08136Y04391D02*
X08126Y04401D01*
X08106*
X08096Y04391*
Y04381*
X08106Y04371*
X08126*
X08136Y04361*
Y04351*
X08126Y04341*
X08106*
X08096Y04351*
X08156Y04341D02*
X08176D01*
X08166*
Y04381*
X08156*
X08226Y04321D02*
X08236D01*
X08246Y04331*
Y04381*
X08216*
X08206Y04371*
Y04351*
X08216Y04341*
X08246*
X08266D02*
Y04381D01*
X08296*
X08306Y04371*
Y04341*
X08336Y04381D02*
X08356D01*
X08366Y04371*
Y04341*
X08336*
X08326Y04351*
X08336Y04361*
X08366*
X08386Y04341D02*
X08406D01*
X08396*
Y04401*
X08386*
X07796Y04281D02*
Y04221D01*
X07826*
X07836Y04231*
Y04271*
X07826Y04281*
X07796*
X07856Y04221D02*
X07876D01*
X07866*
Y04261*
X07856*
X07936Y04221D02*
X07916D01*
X07906Y04231*
Y04251*
X07916Y04261*
X07936*
X07946Y04251*
Y04241*
X07906*
X07966Y04221D02*
X07986D01*
X07976*
Y04281*
X07966*
X08046Y04221D02*
X08026D01*
X08016Y04231*
Y04251*
X08026Y04261*
X08046*
X08056Y04251*
Y04241*
X08016*
X08116Y04261D02*
X08086D01*
X08076Y04251*
Y04231*
X08086Y04221*
X08116*
X08146Y04271D02*
Y04261D01*
X08136*
X08156*
X08146*
Y04231*
X08156Y04221*
X08186Y04261D02*
Y04221D01*
Y04241*
X08196Y04251*
X08206Y04261*
X08216*
X08246Y04221D02*
X08266D01*
X08256*
Y04261*
X08246*
X08336D02*
X08306D01*
X08296Y04251*
Y04231*
X08306Y04221*
X08336*
X08456Y04281D02*
X08436Y04271D01*
X08416Y04251*
Y04231*
X08426Y04221*
X08446*
X08456Y04231*
Y04241*
X08446Y04251*
X08416*
X07796Y04161D02*
Y04121D01*
X07816Y04101*
X07836Y04121*
Y04161*
X07896Y04151D02*
X07886Y04161D01*
X07866*
X07856Y04151*
Y04111*
X07866Y04101*
X07886*
X07896Y04111*
X07956Y04151D02*
X07946Y04161D01*
X07926*
X07916Y04151*
Y04111*
X07926Y04101*
X07946*
X07956Y04111*
X07976Y04161D02*
X07996D01*
X07986*
Y04101*
X07976*
X07996*
X08026D02*
Y04161D01*
X08066Y04101*
Y04161*
X08086D02*
X08126D01*
X08106*
Y04101*
X08146D02*
X08186Y04141D01*
X08206Y04161D02*
Y04121D01*
X08226Y04101*
X08246Y04121*
Y04161*
X08306Y04151D02*
X08296Y04161D01*
X08276*
X08266Y04151*
Y04111*
X08276Y04101*
X08296*
X08306Y04111*
X08366Y04151D02*
X08356Y04161D01*
X08336*
X08326Y04151*
Y04111*
X08336Y04101*
X08356*
X08366Y04111*
X08386Y04101D02*
Y04141D01*
X08406Y04161*
X08426Y04141*
Y04101*
Y04131*
X08386*
X08446Y04161D02*
Y04111D01*
X08456Y04101*
X08476*
X08486Y04111*
Y04161*
X08506D02*
X08546Y04101D01*
Y04161D02*
X08506Y04101D01*
X07796Y04041D02*
Y03981D01*
X07826*
X07836Y03991*
Y04031*
X07826Y04041*
X07796*
X07856Y03981D02*
X07876D01*
X07866*
Y04021*
X07856*
X07936Y03981D02*
X07916D01*
X07906Y03991*
Y04011*
X07916Y04021*
X07936*
X07946Y04011*
Y04001*
X07906*
X07966Y03981D02*
X07986D01*
X07976*
Y04041*
X07966*
X08046Y03981D02*
X08026D01*
X08016Y03991*
Y04011*
X08026Y04021*
X08046*
X08056Y04011*
Y04001*
X08016*
X08116Y04021D02*
X08086D01*
X08076Y04011*
Y03991*
X08086Y03981*
X08116*
X08146Y04031D02*
Y04021D01*
X08136*
X08156*
X08146*
Y03991*
X08156Y03981*
X08186Y04021D02*
Y03981D01*
Y04001*
X08196Y04011*
X08206Y04021*
X08216*
X08246Y03981D02*
X08266D01*
X08256*
Y04021*
X08246*
X08336D02*
X08306D01*
X08296Y04011*
Y03991*
X08306Y03981*
X08336*
X08416Y03991D02*
X08426Y03981D01*
X08446*
X08456Y03991*
Y04031*
X08446Y04041*
X08426*
X08416Y04031*
Y04021*
X08426Y04011*
X08456*
X07796Y03921D02*
Y03861D01*
X07826*
X07836Y03871*
Y03881*
X07826Y03891*
X07796*
X07826*
X07836Y03901*
Y03911*
X07826Y03921*
X07796*
X07866Y03861D02*
X07886D01*
X07896Y03871*
Y03891*
X07886Y03901*
X07866*
X07856Y03891*
Y03871*
X07866Y03861*
X07926Y03911D02*
Y03901D01*
X07916*
X07936*
X07926*
Y03871*
X07936Y03861*
X07976Y03911D02*
Y03901D01*
X07966*
X07986*
X07976*
Y03871*
X07986Y03861*
X08026D02*
X08046D01*
X08056Y03871*
Y03891*
X08046Y03901*
X08026*
X08016Y03891*
Y03871*
X08026Y03861*
X08076D02*
Y03901D01*
X08086*
X08096Y03891*
Y03861*
Y03891*
X08106Y03901*
X08116Y03891*
Y03861*
X08236Y03911D02*
X08226Y03921D01*
X08206*
X08196Y03911*
Y03901*
X08206Y03891*
X08226*
X08236Y03881*
Y03871*
X08226Y03861*
X08206*
X08196Y03871*
X08256Y03861D02*
X08276D01*
X08266*
Y03901*
X08256*
X08346Y03921D02*
Y03861D01*
X08316*
X08306Y03871*
Y03891*
X08316Y03901*
X08346*
X08396Y03861D02*
X08376D01*
X08366Y03871*
Y03891*
X08376Y03901*
X08396*
X08406Y03891*
Y03881*
X08366*
X07796Y03801D02*
Y03741D01*
X07826*
X07836Y03751*
Y03761*
X07826Y03771*
X07796*
X07826*
X07836Y03781*
Y03791*
X07826Y03801*
X07796*
X07866Y03741D02*
X07886D01*
X07896Y03751*
Y03771*
X07886Y03781*
X07866*
X07856Y03771*
Y03751*
X07866Y03741*
X07926Y03791D02*
Y03781D01*
X07916*
X07936*
X07926*
Y03751*
X07936Y03741*
X07976Y03791D02*
Y03781D01*
X07966*
X07986*
X07976*
Y03751*
X07986Y03741*
X08026D02*
X08046D01*
X08056Y03751*
Y03771*
X08046Y03781*
X08026*
X08016Y03771*
Y03751*
X08026Y03741*
X08076D02*
Y03781D01*
X08086*
X08096Y03771*
Y03741*
Y03771*
X08106Y03781*
X08116Y03771*
Y03741*
X08236Y03791D02*
X08226Y03801D01*
X08206*
X08196Y03791*
Y03781*
X08206Y03771*
X08226*
X08236Y03761*
Y03751*
X08226Y03741*
X08206*
X08196Y03751*
X08266Y03741D02*
X08286D01*
X08296Y03751*
Y03771*
X08286Y03781*
X08266*
X08256Y03771*
Y03751*
X08266Y03741*
X08316D02*
X08336D01*
X08326*
Y03801*
X08316*
X08406D02*
Y03741D01*
X08376*
X08366Y03751*
Y03771*
X08376Y03781*
X08406*
X08456Y03741D02*
X08436D01*
X08426Y03751*
Y03771*
X08436Y03781*
X08456*
X08466Y03771*
Y03761*
X08426*
X08486Y03781D02*
Y03741D01*
Y03761*
X08496Y03771*
X08506Y03781*
X08516*
X07796Y03681D02*
Y03621D01*
X07826*
X07836Y03631*
Y03641*
X07826Y03651*
X07796*
X07826*
X07836Y03661*
Y03671*
X07826Y03681*
X07796*
X07866Y03621D02*
X07886D01*
X07896Y03631*
Y03651*
X07886Y03661*
X07866*
X07856Y03651*
Y03631*
X07866Y03621*
X07926Y03671D02*
Y03661D01*
X07916*
X07936*
X07926*
Y03631*
X07936Y03621*
X07976Y03671D02*
Y03661D01*
X07966*
X07986*
X07976*
Y03631*
X07986Y03621*
X08026D02*
X08046D01*
X08056Y03631*
Y03651*
X08046Y03661*
X08026*
X08016Y03651*
Y03631*
X08026Y03621*
X08076D02*
Y03661D01*
X08086*
X08096Y03651*
Y03621*
Y03651*
X08106Y03661*
X08116Y03651*
Y03621*
X08226Y03681D02*
X08206D01*
X08196Y03671*
Y03631*
X08206Y03621*
X08226*
X08236Y03631*
Y03671*
X08226Y03681*
X08256Y03661D02*
X08276Y03621D01*
X08296Y03661*
X08346Y03621D02*
X08326D01*
X08316Y03631*
Y03651*
X08326Y03661*
X08346*
X08356Y03651*
Y03641*
X08316*
X08376Y03661D02*
Y03621D01*
Y03641*
X08386Y03651*
X08396Y03661*
X08406*
X08436Y03621D02*
X08456D01*
X08446*
Y03681*
X08436*
X08496Y03661D02*
X08516D01*
X08526Y03651*
Y03621*
X08496*
X08486Y03631*
X08496Y03641*
X08526*
X08546Y03661D02*
Y03631D01*
X08556Y03621*
X08586*
Y03611*
X08576Y03601*
X08566*
X08586Y03621D02*
Y03661D01*
X07796Y05421D02*
Y05481D01*
X07836Y05421*
Y05481*
X07866Y05461D02*
X07886D01*
X07896Y05451*
Y05421*
X07866*
X07856Y05431*
X07866Y05441*
X07896*
X07916Y05421D02*
Y05461D01*
X07926*
X07936Y05451*
Y05421*
Y05451*
X07946Y05461*
X07956Y05451*
Y05421*
X08006D02*
X07986D01*
X07976Y05431*
Y05451*
X07986Y05461*
X08006*
X08016Y05451*
Y05441*
X07976*
X07386Y05301D02*
X07406D01*
X07396*
Y05361*
X07386Y05351*
X07426Y05181D02*
X07386D01*
X07426Y05221*
Y05231*
X07416Y05241*
X07396*
X07386Y05231*
Y05111D02*
X07396Y05121D01*
X07416*
X07426Y05111*
Y05101*
X07416Y05091*
X07406*
X07416*
X07426Y05081*
Y05071*
X07416Y05061*
X07396*
X07386Y05071*
X07416Y04941D02*
Y05001D01*
X07386Y04971*
X07426*
Y04881D02*
X07386D01*
Y04851*
X07406Y04861*
X07416*
X07426Y04851*
Y04831*
X07416Y04821*
X07396*
X07386Y04831*
X07426Y04761D02*
X07406Y04751D01*
X07386Y04731*
Y04711*
X07396Y04701*
X07416*
X07426Y04711*
Y04721*
X07416Y04731*
X07386*
Y04641D02*
X07426D01*
Y04631*
X07386Y04591*
Y04581*
Y04511D02*
X07396Y04521D01*
X07416*
X07426Y04511*
Y04501*
X07416Y04491*
X07426Y04481*
Y04471*
X07416Y04461*
X07396*
X07386Y04471*
Y04481*
X07396Y04491*
X07386Y04501*
Y04511*
X07396Y04491D02*
X07416D01*
X07386Y04351D02*
X07396Y04341D01*
X07416*
X07426Y04351*
Y04391*
X07416Y04401*
X07396*
X07386Y04391*
Y04381*
X07396Y04371*
X07426*
X07386Y04221D02*
X07406D01*
X07396*
Y04281*
X07386Y04271*
X07436D02*
X07446Y04281D01*
X07466*
X07476Y04271*
Y04231*
X07466Y04221*
X07446*
X07436Y04231*
Y04271*
X07386Y04101D02*
X07406D01*
X07396*
Y04161*
X07386Y04151*
X07436Y04101D02*
X07456D01*
X07446*
Y04161*
X07436Y04151*
X07386Y03981D02*
X07406D01*
X07396*
Y04041*
X07386Y04031*
X07476Y03981D02*
X07436D01*
X07476Y04021*
Y04031*
X07466Y04041*
X07446*
X07436Y04031*
X07386Y03861D02*
X07406D01*
X07396*
Y03921*
X07386Y03911*
X07436D02*
X07446Y03921D01*
X07466*
X07476Y03911*
Y03901*
X07466Y03891*
X07456*
X07466*
X07476Y03881*
Y03871*
X07466Y03861*
X07446*
X07436Y03871*
X07386Y03741D02*
X07406D01*
X07396*
Y03801*
X07386Y03791*
X07466Y03741D02*
Y03801D01*
X07436Y03771*
X07476*
X07386Y03621D02*
X07406D01*
X07396*
Y03681*
X07386Y03671*
X07476Y03681D02*
X07436D01*
Y03651*
X07456Y03661*
X07466*
X07476Y03651*
Y03631*
X07466Y03621*
X07446*
X07436Y03631*
X07386Y05481D02*
Y05421D01*
X07426*
X07456Y05461D02*
X07476D01*
X07486Y05451*
Y05421*
X07456*
X07446Y05431*
X07456Y05441*
X07486*
X07506Y05461D02*
Y05431D01*
X07516Y05421*
X07546*
Y05411*
X07536Y05401*
X07526*
X07546Y05421D02*
Y05461D01*
X07596Y05421D02*
X07576D01*
X07566Y05431*
Y05451*
X07576Y05461*
X07596*
X07606Y05451*
Y05441*
X07566*
X07626Y05461D02*
Y05421D01*
Y05441*
X07636Y05451*
X07646Y05461*
X07656*
G54D64*
X01303Y03756D03*
G54D65*
X02341Y03109D03*
G54D66*
X06812Y04346D03*
G54D67*
X06812Y04194D03*
G54D68*
X02964Y02206D03*
G54D69*
X01934Y02497D03*
G54D70*
X02873Y02245D03*
G54D71*
X03578Y01636D03*
G54D72*
X02868Y02139D03*
G54D73*
X03073Y02088D03*
G54D74*
X01941Y01893D03*
G54D75*
X0497Y04468D03*
G54D76*
X0493Y04428D03*
X05009D03*
X05088D03*
X05167D03*
X05245D03*
X05324D03*
X05403D03*
X0493Y04507D03*
X05009D03*
X05088D03*
X05167D03*
X05245D03*
X05324D03*
G54D77*
X05403Y04507D03*
G54D78*
X00996Y05059D03*
X01095D03*
G54D79*
X00849Y05224D03*
Y05146D03*
X01085Y05303D03*
X01006D03*
X03925Y05203D03*
X04025Y05104D03*
Y05203D03*
X04125Y05104D03*
Y05203D03*
X04225Y05104D03*
Y05203D03*
X04325Y05104D03*
Y05203D03*
X02698Y03215D03*
G54D80*
X00849Y05185D03*
G54D81*
X01046Y05303D03*
G54D82*
X01046Y05059D03*
G54D83*
X03925Y05104D03*
G54D84*
X02698Y03115D03*
G54D85*
X0164Y05084D03*
Y05265D03*
Y04902D03*
G54D86*
X01542Y03296D03*
Y03159D03*
G54D87*
X02227Y04202D03*
X02605D03*
X02788Y04202D03*
X03166D03*
G54D88*
X03166Y03958D03*
X02977D03*
X02416D03*
X02605D03*
X03258Y04521D03*
X02135D03*
G54D89*
X03258Y05418D03*
Y05025D03*
Y04631D03*
Y04336D03*
Y04139D03*
X02135Y05221D03*
Y04828D03*
Y04434D03*
Y0404D03*
X02696D03*
Y04434D03*
Y04828D03*
Y05221D03*
G54D90*
X03834Y02917D03*
X03791D03*
X06181Y03271D03*
Y03297D03*
X04188Y03464D03*
X04275Y03153D03*
X03685Y03499D03*
X06131Y03997D03*
X04593Y02527D03*
X03637Y02921D03*
X06131Y03971D03*
X03607Y02881D03*
X04593Y02496D03*
X03645Y02877D03*
X06181Y02971D03*
Y02997D03*
X03685Y02881D03*
X0372Y02838D03*
X03673Y02838D03*
X03755Y02881D03*
X03791Y02877D03*
X04264Y03036D03*
X04273Y02917D03*
X06245Y03626D03*
X03646Y03221D03*
X06245Y036D03*
X03607Y03221D03*
X03799Y03153D03*
X03566Y03102D03*
X06331Y03198D03*
Y03171D03*
X03633Y03115D03*
X03681Y03114D03*
X04148Y03225D03*
X03834Y02842D03*
X0383Y02877D03*
X03755Y02921D03*
X03759Y03035D03*
X0372D03*
X06181Y0387D03*
X05103Y02544D03*
X06181Y03896D03*
X05134Y02544D03*
X03607Y02999D03*
Y03038D03*
X0354Y02838D03*
X03566Y02799D03*
X03716D03*
X03606D03*
X03528Y02799D03*
X03594Y02905D03*
X03712Y02956D03*
X03677Y02952D03*
X06181Y03421D03*
Y03447D03*
X03523Y03275D03*
X03523Y03236D03*
X06382Y03471D03*
Y03498D03*
X06426Y03559D03*
X06381Y03521D03*
X03767Y03535D03*
X03641Y03417D03*
X06181Y03121D03*
Y03147D03*
X03881Y03036D03*
X03948Y03161D03*
X03884Y03226D03*
X03838Y03181D03*
X03834Y03228D03*
X0539Y03359D03*
X06003Y041D03*
X06181Y04097D03*
X03607Y0326D03*
X06181Y04071D03*
X06003Y04069D03*
X05359Y03359D03*
X03607Y033D03*
X06181Y02697D03*
Y02671D03*
X03567Y03038D03*
X03528D03*
X03598Y03114D03*
X03607Y03339D03*
Y03378D03*
X06172Y01543D03*
X06198D03*
X03526Y0338D03*
Y0334D03*
X03421Y0344D03*
Y03389D03*
X03358Y03385D03*
Y0344D03*
X06181Y02796D03*
X05055Y03602D03*
X0372Y03154D03*
X03762D03*
X03716Y0311D03*
X03722Y03227D03*
X03799Y0311D03*
X03759D03*
X03761Y03224D03*
X03678Y03073D03*
X0353Y03156D03*
X03559Y03188D03*
X03759Y03299D03*
X03765Y03338D03*
X03879Y03342D03*
X0348Y03503D03*
X04066Y03456D03*
X03992Y03543D03*
X03944Y03539D03*
X04035Y0358D03*
X04444Y03665D03*
X04267Y03192D03*
X04304Y0302D03*
X03952Y02909D03*
X04952Y03741D03*
X03986Y02959D03*
X04915Y03741D03*
X03986Y02999D03*
X04879Y03741D03*
X04476Y03149D03*
X04437D03*
X04476Y03173D03*
X04343Y02961D03*
X04717Y03444D03*
X04868Y03515D03*
Y03483D03*
Y0342D03*
X04582Y0335D03*
X04066Y03035D03*
X03838Y02952D03*
X03834Y03106D03*
X03881Y03114D03*
X0372Y03078D03*
X03799D03*
X03881D03*
X03992Y03075D03*
X03838Y03074D03*
X0427Y02875D03*
X03606Y02955D03*
X0395Y03111D03*
X0384Y02996D03*
X03559Y04342D03*
Y04539D03*
X03461Y03815D03*
X03022Y03871D03*
X03461Y03784D03*
X03022Y0384D03*
X03383Y03772D03*
X02373Y03772D03*
X03383Y03741D03*
X02373Y03741D03*
X03722Y03618D03*
X03834Y02763D03*
X03814Y02704D03*
X06256Y03446D03*
X06181Y03395D03*
X04082Y03685D03*
X04047D03*
X04106D03*
X03603Y04814D03*
Y04791D03*
Y04769D03*
Y04746D03*
Y04724D03*
Y04702D03*
X03607Y04504D03*
Y04479D03*
Y04455D03*
Y0443D03*
Y04406D03*
Y04382D03*
X06181Y03321D03*
X0618Y03719D03*
X06181Y03771D03*
Y03746D03*
X06136Y03759D03*
X06181Y03695D03*
X04015Y0272D03*
X03984D03*
X03948D03*
Y02606D03*
X05055Y03573D03*
Y03541D03*
X06181Y02547D03*
X06383Y02559D03*
X06181Y02521D03*
X06383Y02509D03*
X06181Y02496D03*
X0348Y03125D03*
X03889Y03622D03*
X03842Y03535D03*
X03803Y03578D03*
X03949Y03384D03*
X03948Y035D03*
X04299Y03417D03*
X03127Y03412D03*
X03019Y03118D03*
X03078Y03137D03*
X038Y02996D03*
X03881D03*
X04515Y03472D03*
X03196Y0324D03*
X03133Y0322D03*
X06331Y03771D03*
X05801Y03791D03*
X04992Y02741D03*
X04961D03*
X06331Y03796D03*
X05801Y03822D03*
X03607Y02841D03*
X04015Y02606D03*
X0398D03*
X03794Y03816D03*
X04519Y03594D03*
Y03629D03*
X04444Y03594D03*
Y03629D03*
X03755Y02704D03*
X03783D03*
X03811Y02629D03*
X03783D03*
X03755D03*
X06425Y04181D03*
X06429Y03976D03*
X06421Y03433D03*
X0633Y03425D03*
X06358Y03236D03*
X06374Y03125D03*
X06375Y02809D03*
X0622Y02736D03*
X06136Y02859D03*
X06224Y02925D03*
X06136Y03009D03*
X0622Y03035D03*
Y03185D03*
X06137Y03586D03*
X06224Y0383D03*
X06336Y02959D03*
X06426D03*
Y03009D03*
X06386Y03159D03*
Y03209D03*
X06426Y03359D03*
X06336Y03559D03*
X06386Y03609D03*
X06375Y03709D03*
X06386Y03759D03*
Y03809D03*
X06336Y03859D03*
X06386Y04009D03*
X06186Y04159D03*
X06136Y04059D03*
X06186Y04009D03*
Y03959D03*
X06136Y03909D03*
X06186Y03659D03*
Y03509D03*
X06136Y03459D03*
X06186Y03359D03*
X06136Y03309D03*
Y03159D03*
Y02709D03*
Y02559D03*
X06186Y02609D03*
Y02209D03*
X06136Y02259D03*
X06186Y02309D03*
X06136Y02409D03*
X06186Y02459D03*
X04346Y03027D03*
X04015Y03685D03*
X04114Y0359D03*
X0411Y03755D03*
X04078D03*
X04047D03*
X04019D03*
X03968D03*
X03944D03*
Y03681D03*
X03724Y03539D03*
X0638Y04071D03*
X03724Y035D03*
X0638Y04097D03*
X04031Y03185D03*
X04192Y03153D03*
X03685Y03342D03*
X04188Y03503D03*
X03682Y03539D03*
X03377Y02838D03*
Y02862D03*
X03417Y02838D03*
Y02862D03*
Y02897D03*
Y02921D03*
X03377Y02897D03*
Y02921D03*
X03527Y02917D03*
X06281Y02828D03*
X03555Y02956D03*
X06281Y02854D03*
X03639Y02952D03*
Y02991D03*
X06331Y03321D03*
Y03348D03*
X03568Y03157D03*
X06256Y03471D03*
X03567Y0326D03*
X06256Y03498D03*
X03567Y03221D03*
X06331Y03621D03*
Y03648D03*
X03606Y02724D03*
X04484Y03972D03*
X05448Y04771D03*
X05401D03*
X0535D03*
X03346Y03248D03*
X03275D03*
X03374Y03043D03*
X03342D03*
X03314D03*
X03346Y03114D03*
X03374D03*
X03314D03*
X0356Y03503D03*
X04033Y03309D03*
X04106Y03383D03*
X04307Y03147D03*
X04315Y03271D03*
X06181Y02847D03*
Y02821D03*
Y02871D03*
X0395Y02958D03*
X0419Y03108D03*
X03618Y04563D03*
X03732Y04535D03*
X03737Y04348D03*
X0361Y0432D03*
X03507Y04835D03*
Y04678D03*
X0361Y04642D03*
X0374Y04666D03*
X03734Y04847D03*
X03612Y04872D03*
X03766Y0346D03*
X03761Y03421D03*
X03841Y03504D03*
X06333Y02707D03*
X06181Y02646D03*
X06133Y0221D03*
X06183Y02259D03*
X06245Y0365D03*
X05472Y04267D03*
X06131Y04158D03*
X0643Y02808D03*
X06383Y02659D03*
X06329Y0251D03*
X06334Y02409D03*
Y02359D03*
X06383Y02259D03*
X06334Y02308D03*
X06333Y0226D03*
X06334Y02209D03*
X03127Y03381D03*
X03883Y0338D03*
X03914Y03428D03*
X04068Y03381D03*
Y03303D03*
Y03342D03*
X02373Y0371D03*
X04994Y04052D03*
X04925Y04035D03*
X04915Y03822D03*
X04952Y03821D03*
X05055Y0351D03*
X04843Y03741D03*
X06331Y03296D03*
Y03221D03*
X03603Y03184D03*
X05024Y02741D03*
X05421Y03359D03*
X05801Y03853D03*
X06003Y04037D03*
Y04131D03*
X06181Y04046D03*
X06131Y04022D03*
Y03946D03*
X06181Y04121D03*
X03877Y03424D03*
X03722Y03381D03*
X06336Y04059D03*
X0638Y04046D03*
X03725Y03575D03*
X06429Y02759D03*
X06383Y02309D03*
Y02209D03*
X06181Y02571D03*
X04593Y02465D03*
Y02559D03*
X06181Y03171D03*
X0375Y02799D03*
X03725Y033D03*
X03803D03*
X03883Y033D03*
X03646Y03575D03*
X03722Y03342D03*
X038D03*
X03843Y03339D03*
X03946Y0334D03*
X03725Y03418D03*
X038Y03381D03*
X0384D03*
X03803Y03418D03*
X038Y0346D03*
X03022Y03807D03*
X03949Y03227D03*
X038Y03263D03*
X03986Y033D03*
X04104Y03339D03*
X04196Y03381D03*
X03803Y03038D03*
X03603Y035D03*
X03607Y03536D03*
X03764Y03077D03*
X03986Y03038D03*
X03947Y02999D03*
X06181Y03471D03*
X03127Y03475D03*
X03606Y02763D03*
X02373Y03804D03*
X03567Y03301D03*
X03843Y03262D03*
X03946Y03261D03*
X03763D03*
X03383Y0371D03*
X03461Y03847D03*
X03383Y03804D03*
X03022Y03902D03*
X06336Y04109D03*
X06382Y03921D03*
X06336Y03909D03*
X06331Y03821D03*
X06382Y03846D03*
X06471Y03779D03*
X06331Y03671D03*
Y03596D03*
X06382Y03446D03*
Y03246D03*
X06331Y03071D03*
X06281Y02878D03*
Y02803D03*
X06383Y02709D03*
X06336Y02609D03*
Y04159D03*
X0638Y04121D03*
X06331Y03371D03*
Y03746D03*
X06256Y03521D03*
X06331Y03146D03*
X06181Y02721D03*
Y03021D03*
Y02946D03*
Y03096D03*
Y03245D03*
X03563Y03426D03*
X06471Y03704D03*
X06382Y03321D03*
X06245Y03575D03*
X05071Y02544D03*
X05166D03*
X06181Y03845D03*
Y03921D03*
X05801Y03759D03*
X06222Y01543D03*
X06147D03*
X04029Y03539D03*
X04068D03*
X04265D03*
X04147D03*
X04186D03*
X04265Y03421D03*
X03801Y02957D03*
X03764Y02959D03*
X06331Y02996D03*
X06383Y02359D03*
Y02409D03*
Y02609D03*
Y02459D03*
X06336D03*
X06331Y03048D03*
Y03021D03*
X03567Y02841D03*
X03761Y035D03*
X03879Y03539D03*
Y035D03*
X03564Y03578D03*
Y03539D03*
X03525Y03618D03*
X03564D03*
X03682Y03381D03*
X03761D03*
X03522Y03311D03*
X03722Y03263D03*
X0384Y03303D03*
X03879Y03263D03*
X03809Y0362D03*
X03643Y03381D03*
X03642Y03467D03*
X03603Y03424D03*
X03522Y03462D03*
X03723Y03462D03*
X03913Y03384D03*
X03954Y03429D03*
X03678Y0327D03*
X03912Y03157D03*
X038Y03224D03*
X03759Y02996D03*
X03879Y02956D03*
X03881Y02917D03*
X03956Y02795D03*
X0407Y02842D03*
X04228Y02759D03*
X04358Y02814D03*
X03519Y02952D03*
X03681Y02917D03*
X03947Y03077D03*
X03838Y03039D03*
X0372Y02996D03*
X03527D03*
X03948Y03303D03*
X04185Y02909D03*
X04304Y02962D03*
X04196Y02959D03*
X04145Y02996D03*
X0407Y03114D03*
X04035Y03232D03*
X04153Y03275D03*
X04031Y03381D03*
X04149Y03389D03*
X04267Y03456D03*
X04271Y03511D03*
X04228Y03578D03*
X04342Y03618D03*
X03952Y03039D03*
X04027Y0296D03*
X04271Y03314D03*
X04929Y02741D03*
X04188Y02799D03*
X04228D03*
X04267D03*
X04307D03*
X06382Y03298D03*
Y03271D03*
X04559Y03192D03*
X04653D03*
X04622D03*
X0459D03*
X03685Y02999D03*
X04868Y03452D03*
X03685Y03038D03*
X04307Y03188D03*
X04429Y02799D03*
X04468D03*
X04263Y03263D03*
Y03385D03*
X04307Y03389D03*
X05327Y03359D03*
X04429Y02897D03*
X04468D03*
Y02917D03*
X04429D03*
Y03027D03*
Y03003D03*
X04468Y03027D03*
Y03003D03*
X04437Y03283D03*
Y03259D03*
X04476Y03283D03*
Y03259D03*
X04437Y03173D03*
X04429Y03503D03*
Y0348D03*
X04468Y03503D03*
Y0348D03*
X03526Y03577D03*
X06471Y03729D03*
X03526Y03537D03*
X06471Y03755D03*
X03425Y03322D03*
Y03299D03*
X03464Y03322D03*
Y03299D03*
X03433Y03232D03*
X03276Y03209D03*
X03346D03*
X03275Y03279D03*
X03472Y03232D03*
Y03212D03*
X03433D03*
X03346Y03279D03*
X04429Y02822D03*
X04468D03*
X03948Y03618D03*
X03643Y03618D03*
X03461Y03753D03*
X03642Y03706D03*
X03712Y03704D03*
X03557Y03705D03*
X03736Y03704D03*
X03712Y03751D03*
X03736D03*
X03409Y03551D03*
X0337D03*
X03409Y03523D03*
X0337D03*
X03127Y03443D03*
X03685Y03457D03*
Y03418D03*
X04519Y03665D03*
X03976Y03681D03*
X03882Y03575D03*
X03948Y03578D03*
X03803Y03536D03*
Y03496D03*
X06382Y03871D03*
Y03898D03*
X0411Y03535D03*
X04226Y03539D03*
X03988Y035D03*
X03843Y03457D03*
Y03418D03*
G54D91*
X02986Y03111D03*
X02328Y04419D03*
X02423D03*
X02454D03*
X02517D03*
X02486Y04308D03*
X02391D03*
X0289Y04417D03*
X02984D03*
X03015D03*
X03078D03*
X03047Y04306D03*
X02953D03*
X03937Y02456D03*
X04418Y03404D03*
X04308Y04927D03*
X04229Y04885D03*
X04156Y04818D03*
X04108Y04786D03*
X02685Y02488D03*
X01523Y03586D03*
X02862Y03031D03*
X0294Y03007D03*
X05338Y03279D03*
X05271Y03354D03*
X04417Y03881D03*
X03555Y04019D03*
X04283Y02527D03*
X01578Y02877D03*
X01547D03*
X01519D03*
X01374Y03996D03*
X0187Y04629D03*
Y04696D03*
X01866Y04251D03*
Y04188D03*
X0346Y04661D03*
X03523Y04614D03*
X03519Y04267D03*
Y04188D03*
X05169Y04291D03*
X05173Y04362D03*
X0224Y03334D03*
X01492Y02062D03*
X02948Y03357D03*
X04804Y05042D03*
X04597Y05043D03*
X05039Y05238D03*
X04986Y05239D03*
X03463Y04015D03*
X03662Y04075D03*
X04545Y03352D03*
X02279Y02953D03*
X01293Y03037D03*
X01294Y03094D03*
X01301Y03184D03*
X01329Y03038D03*
Y03094D03*
X01264Y03183D03*
X01318Y02837D03*
X02438Y02843D03*
X0266Y02549D03*
X02476Y03187D03*
X04237Y01551D03*
X04117D03*
X03917D03*
X04197D03*
X04157D03*
X04077D03*
X03997D03*
X03957D03*
X04037D03*
X01445Y02014D03*
X01519Y01832D03*
X01467Y01833D03*
X02873Y03251D03*
X02839Y03214D03*
Y03251D03*
X02797Y03134D03*
Y03099D03*
X02063Y04138D03*
X01896Y01584D03*
X01549Y03661D03*
X01262Y04896D03*
X01284Y02948D03*
X0333Y04144D03*
Y04179D03*
X03332Y04702D03*
Y04735D03*
X02064Y04701D03*
Y04736D03*
X02063Y0417D03*
X0281Y04866D03*
X0287D03*
X0293D03*
X0299D03*
X0305D03*
X0311D03*
X0317D03*
X02594Y04865D03*
X02534D03*
X02474D03*
X02414D03*
X02354D03*
X02294D03*
X02234D03*
X0244Y04098D03*
X02283D03*
X02377D03*
X02843Y041D03*
X02938D03*
X0236Y04308D03*
X02921Y04306D03*
X02858D03*
X0311D03*
X02827D03*
X02297Y04308D03*
X02265D03*
X03126Y041D03*
X03031D03*
X03D03*
X02968Y04099D03*
X02566Y04098D03*
X02471D03*
X02408D03*
X05485Y05159D03*
X05436D03*
X05387D03*
X05338D03*
X01467Y01968D03*
X01519Y01966D03*
X0491Y05098D03*
X04757Y05216D03*
X04907Y05217D03*
X047Y05099D03*
Y05216D03*
X04553Y0522D03*
X04878Y0339D03*
X03897Y02667D03*
X0435Y02566D03*
X04014Y02521D03*
X03775Y0252D03*
X03737Y02525D03*
X0467Y0311D03*
X0513Y03103D03*
Y03455D03*
X03775Y02457D03*
Y02489D03*
X03506Y03892D03*
X01259Y03093D03*
X0126Y03037D03*
X01539Y02985D03*
X01011Y04733D03*
X01042Y04734D03*
X01072D03*
X01011Y04703D03*
X01066Y04704D03*
X0101Y04673D03*
X01043Y04674D03*
X017Y03659D03*
X00999Y02973D03*
X01031D03*
X01062D03*
X01092D03*
X01122D03*
X01001Y03151D03*
X0103D03*
X01062Y0315D03*
X01094Y03149D03*
X01845Y02591D03*
X01888D03*
X01934D03*
X0198D03*
X02028D03*
Y02634D03*
X0198D03*
X01934D03*
X01888D03*
X01845D03*
X01925Y02213D03*
X01963Y02214D03*
X02Y02213D03*
X02039Y02214D03*
X01718Y01819D03*
Y01857D03*
Y01894D03*
Y01934D03*
Y01975D03*
X01712Y01609D03*
X01889Y01621D03*
X02476Y02332D03*
X02506D03*
X02459Y02056D03*
X02491Y0207D03*
X02843Y02143D03*
X02844Y02244D03*
X04141Y03927D03*
X0414Y04019D03*
X03908Y04018D03*
X03905Y03983D03*
X03912Y03893D03*
Y0382D03*
X03872Y03939D03*
X04179Y03966D03*
X03471Y03893D03*
X03657Y03854D03*
X0357Y03952D03*
X03712D03*
X03815Y02491D03*
X04085Y02515D03*
X04386Y02483D03*
X04161Y02481D03*
X04137Y02388D03*
X03945Y05023D03*
X03945Y05277D03*
X03944Y04943D03*
X03945Y05356D03*
X02523Y02649D03*
X03995Y03752D03*
X04733Y03157D03*
X04986Y05027D03*
X05038Y05026D03*
X01795Y03384D03*
Y03419D03*
X01796Y03485D03*
X01795Y03454D03*
X01762Y03385D03*
Y0342D03*
X01763Y03485D03*
Y03454D03*
X02549Y04308D03*
X04139Y03887D03*
X04138Y03843D03*
X03912Y03858D03*
X05487Y05002D03*
X05436Y04999D03*
X05387Y05004D03*
X05337D03*
X0514Y02973D03*
X0473Y02876D03*
X04728Y03015D03*
X04748Y02811D03*
X04681D03*
X0435Y02538D03*
X04559Y02889D03*
Y02925D03*
X03562Y03755D03*
X04606Y02751D03*
G54D92*
X02822Y02181D03*
X02802Y02167D03*
X02822Y02224D03*
X02677Y02035D03*
X02464Y02213D03*
X01901Y01992D03*
X02789Y01966D03*
X02696Y02405D03*
X02523Y02409D03*
X02755Y02393D03*
X02754Y0236D03*
X02734D03*
X03073Y02208D03*
X02939Y02215D03*
Y02197D03*
X02903Y02064D03*
X02885D03*
X02867D03*
X02643Y02499D03*
X02254Y0215D03*
X02254Y02212D03*
X02449Y02194D03*
X0264Y01931D03*
X02665Y01944D03*
X02616D03*
X02508Y025D03*
X01851Y02464D03*
X02509Y01906D03*
Y02456D03*
X02493Y02455D03*
X02476Y02456D03*
X02556Y0237D03*
X02652Y0238D03*
X02559Y01986D03*
X02483Y01946D03*
X02466D03*
X02449D03*
X02526Y01987D03*
X02723Y01985D03*
X02754Y01987D03*
X02577Y02407D03*
X02754Y02025D03*
X02537Y02032D03*
X02861Y02318D03*
X02884Y02319D03*
X02909Y02317D03*
X02771Y01905D03*
X02654Y0203D03*
X01925Y01992D03*
X01944D03*
X01964D03*
X02677Y02389D03*
X02874Y01759D03*
X02893D03*
X02874Y01732D03*
X02893D03*
G54D93*
X02721Y02117D03*
X02643D03*
X02566D03*
X02604D03*
X02682D03*
X02721Y02155D03*
X02643D03*
X02566D03*
X02604D03*
X02682D03*
X02722Y02233D03*
X02567D03*
X02605D03*
X02683D03*
X02722Y02271D03*
X02567D03*
X02605D03*
X02683D03*
X02644D03*
X02643Y02233D03*
G54D94*
X0405Y03938D03*
Y03895D03*
X04007D03*
Y03938D03*
M02*