%FSTAX23Y23*%
%MOIN*%
%SFA1B1*%

%IPPOS*%
%ADD95C,0.002000*%
%ADD96C,0.059370*%
%ADD97C,0.055433*%
%ADD98C,0.059370*%
%ADD99C,0.070000*%
%ADD100C,0.092834*%
%ADD101C,0.050000*%
%ADD102C,0.081023*%
%ADD103C,0.057401*%
%ADD104C,0.028000*%
%ADD105C,0.030000*%
%ADD106C,0.027000*%
%LNatfc_copper_plane_1-1*%
%LPD*%
G36*
X03866Y03551D02*
X03846D01*
Y03614*
X03866*
Y03551*
G37*
G36*
X03629Y03555D02*
X03606D01*
X03598Y03562*
Y03614*
X03629*
Y03555*
G37*
G36*
X03708D02*
X03685D01*
X03673Y03566*
Y03614*
X03708*
Y03555*
G37*
G36*
X0001Y0D02*
X0D01*
Y0001*
X0001*
Y0*
G37*
G36*
X03111Y03398D02*
X03051D01*
Y03463*
X03111*
Y03398*
G37*
G36*
X03791Y03551D02*
X03767D01*
Y03614*
X03791*
Y03551*
G37*
G36*
X02367Y04002D02*
X02292D01*
Y0408*
X02367*
Y04002*
G37*
G36*
X06136Y04305D02*
X06061D01*
Y04365*
X06136*
Y04305*
G37*
G36*
X06837Y04344D02*
X06787D01*
Y04399*
X06837*
Y04344*
G37*
G36*
Y04404D02*
X06787D01*
Y04638*
X06837*
Y04404*
G37*
G36*
X02556Y04002D02*
X02481D01*
Y0408*
X02556*
Y04002*
G37*
G36*
X02928D02*
X02853D01*
Y0408*
X02928*
Y04002*
G37*
G36*
X03117D02*
X03042D01*
Y0408*
X03117*
Y04002*
G37*
G54D95*
X00701Y01439D02*
X06812D01*
Y05586*
X00701Y05587D02*
X06812Y05586D01*
X00701Y01439D02*
Y05587D01*
G54D96*
X0497Y04468D03*
G54D97*
X0493Y04428D03*
X05009D03*
X05088D03*
X05167D03*
X05245D03*
X05324D03*
X05403D03*
Y04507D03*
X03925Y05104D03*
Y05203D03*
X04025Y05104D03*
Y05203D03*
X04125Y05104D03*
Y05203D03*
X04225Y05104D03*
Y05203D03*
X04325Y05104D03*
X02698Y03115D03*
G54D98*
X00996Y05059D03*
X01095D03*
G54D99*
X06401Y04254D03*
X06281Y02113D03*
G54D100*
X0164Y05084D03*
Y04902D03*
G54D101*
X01542Y03296D03*
Y03159D03*
G54D102*
X02227Y04202D03*
X02605D03*
X02788Y04202D03*
X03166D03*
G54D103*
X03166Y03958D03*
X02977D03*
X02416D03*
X02605D03*
X03258Y04521D03*
X02135D03*
G54D104*
X03834Y02917D03*
X03791D03*
X06181Y03271D03*
Y03297D03*
X04275Y03153D03*
X03685Y03499D03*
X06131Y03997D03*
X04593Y02527D03*
X03637Y02921D03*
X06131Y03971D03*
X03607Y02881D03*
X04593Y02496D03*
X03645Y02877D03*
X06181Y02971D03*
Y02997D03*
X03685Y02881D03*
X0372Y02838D03*
X03755Y02881D03*
X06245Y03626D03*
X03646Y03221D03*
X06245Y036D03*
X03607Y03221D03*
X06331Y03198D03*
Y03171D03*
X03633Y03115D03*
X04148Y03225D03*
X03834Y02842D03*
X0383Y02877D03*
X03755Y02921D03*
X0372Y03035D03*
X06181Y0387D03*
X05103Y02544D03*
X06181Y03896D03*
X05134Y02544D03*
X03607Y02999D03*
Y03038D03*
X0354Y02838D03*
X03566Y02799D03*
X03716D03*
X03606D03*
X03594Y02905D03*
X03712Y02956D03*
X03677Y02952D03*
X06181Y03421D03*
Y03447D03*
X03523Y03275D03*
X03523Y03236D03*
X06382Y03471D03*
Y03498D03*
X03767Y03535D03*
X06181Y03121D03*
Y03147D03*
X03881Y03036D03*
X03948Y03161D03*
X03884Y03226D03*
X03838Y03181D03*
X0539Y03359D03*
X06003Y041D03*
X06181Y04097D03*
X03607Y0326D03*
X06181Y04071D03*
X06003Y04069D03*
X05359Y03359D03*
X03607Y033D03*
X06181Y02697D03*
Y02671D03*
X03567Y03038D03*
X03528D03*
X03598Y03114D03*
X03607Y03339D03*
Y03378D03*
X06172Y01543D03*
X06198D03*
X03526Y0338D03*
Y0334D03*
X03358Y03385D03*
Y0344D03*
X03762Y03154D03*
X03716Y0311D03*
X03722Y03227D03*
X03678Y03073D03*
X0353Y03156D03*
X03765Y03338D03*
X0348Y03503D03*
X04066Y03456D03*
X03992Y03543D03*
X04035Y0358D03*
X04267Y03192D03*
X04304Y0302D03*
X03952Y02909D03*
X04952Y03741D03*
X03986Y02959D03*
X04915Y03741D03*
X03986Y02999D03*
X04879Y03741D03*
X04476Y03149D03*
Y03173D03*
X04343Y02961D03*
X04717Y03444D03*
X04868Y03483D03*
X04066Y03035D03*
X03838Y02952D03*
X03881Y03114D03*
X03838Y03074D03*
X0427Y02875D03*
X0395Y03111D03*
X0384Y02996D03*
X03559Y04342D03*
Y04539D03*
X03461Y03815D03*
X03022Y03871D03*
X03461Y03784D03*
X03022Y0384D03*
X03383Y03772D03*
X02373Y03772D03*
X03383Y03741D03*
X02373Y03741D03*
X03814Y02704D03*
X04047Y03685D03*
X03603Y04814D03*
Y04791D03*
Y04769D03*
Y04746D03*
Y04724D03*
Y04702D03*
X03607Y04504D03*
Y04479D03*
Y04455D03*
Y0443D03*
Y04406D03*
Y04382D03*
X0618Y03719D03*
X06181Y03746D03*
X04015Y0272D03*
X03984D03*
X03948D03*
X05055Y03573D03*
Y03541D03*
X06181Y02547D03*
Y02521D03*
X0348Y03125D03*
X03803Y03578D03*
X04299Y03417D03*
X03127Y03412D03*
X03078Y03137D03*
X03133Y0322D03*
X06331Y03771D03*
X05801Y03791D03*
X04992Y02741D03*
X04961D03*
X06331Y03796D03*
X05801Y03822D03*
X03607Y02841D03*
X04519Y03594D03*
Y03629D03*
X03755Y02704D03*
X03783D03*
X04346Y03027D03*
X04015Y03685D03*
X04114Y0359D03*
X0411Y03755D03*
X04078D03*
X03944Y03681D03*
X03724Y03539D03*
X0638Y04071D03*
X03724Y035D03*
X0638Y04097D03*
X04031Y03185D03*
X03685Y03342D03*
X04188Y03503D03*
X03417Y02838D03*
Y02862D03*
X03377Y02897D03*
Y02921D03*
X03527Y02917D03*
X06281Y02828D03*
X03555Y02956D03*
X06281Y02854D03*
X03639Y02952D03*
Y02991D03*
X06331Y03321D03*
Y03348D03*
X03568Y03157D03*
X06256Y03471D03*
X03567Y0326D03*
X06256Y03498D03*
X03567Y03221D03*
X06331Y03621D03*
Y03648D03*
X03346Y03248D03*
Y03114D03*
X03374D03*
X03314D03*
X04033Y03309D03*
X04106Y03383D03*
X04307Y03147D03*
X04315Y03271D03*
X06181Y02847D03*
Y02821D03*
X0395Y02958D03*
X0419Y03108D03*
X03618Y04563D03*
X03732Y04535D03*
X03737Y04348D03*
X0361Y0432D03*
X03507Y04835D03*
Y04678D03*
X0361Y04642D03*
X0374Y04666D03*
X03734Y04847D03*
X03612Y04872D03*
X03766Y0346D03*
X03761Y03421D03*
X03841Y03504D03*
X06333Y02707D03*
X06133Y0221D03*
X06183Y02259D03*
X05472Y04267D03*
X06131Y04158D03*
X06383Y02659D03*
X06329Y0251D03*
X06334Y02409D03*
X06383Y02259D03*
X06334Y02308D03*
Y02209D03*
X03883Y0338D03*
X04068Y03381D03*
Y03303D03*
Y03342D03*
X04994Y04052D03*
X04925Y04035D03*
X04915Y03822D03*
X04952Y03821D03*
X04843Y03741D03*
X03603Y03184D03*
X06003Y04037D03*
Y04131D03*
X03725Y03575D03*
X0375Y02799D03*
X03725Y033D03*
X03803D03*
X03883Y033D03*
X03646Y03575D03*
X03843Y03339D03*
X03946Y0334D03*
X03725Y03418D03*
X03803D03*
X03949Y03227D03*
X03986Y033D03*
X04104Y03339D03*
X04196Y03381D03*
X03803Y03038D03*
X03607Y03536D03*
X03764Y03077D03*
X03986Y03038D03*
X03947Y02999D03*
X03606Y02763D03*
X03567Y03301D03*
X03843Y03262D03*
X03946Y03261D03*
X03763D03*
X06383Y02709D03*
X06336Y02609D03*
Y04159D03*
X03563Y03426D03*
X04029Y03539D03*
X04068D03*
X04265D03*
X04147D03*
X04186D03*
X04265Y03421D03*
X03801Y02957D03*
X03764Y02959D03*
X06383Y02359D03*
Y02459D03*
X06331Y03048D03*
Y03021D03*
X03567Y02841D03*
X03522Y03462D03*
X03913Y03384D03*
X03759Y02996D03*
X03879Y02956D03*
X03681Y02917D03*
X03947Y03077D03*
X03527Y02996D03*
X04304Y02962D03*
X04196Y02959D03*
X04271Y03511D03*
X04188Y02799D03*
X04228D03*
X04267D03*
X04307D03*
X06382Y03298D03*
Y03271D03*
X04622Y03192D03*
X0459D03*
X03685Y02999D03*
X04868Y03452D03*
X03685Y03038D03*
X04429Y02799D03*
X04263Y03263D03*
X04307Y03389D03*
X04429Y02897D03*
Y02917D03*
Y03027D03*
Y03003D03*
X04437Y03283D03*
Y03259D03*
X04468Y03503D03*
Y0348D03*
X03526Y03577D03*
X06471Y03729D03*
X03526Y03537D03*
X06471Y03755D03*
X03425Y03322D03*
Y03299D03*
X03346Y03209D03*
X03472Y03232D03*
Y03212D03*
X03346Y03279D03*
X04429Y02822D03*
X03642Y03706D03*
X03712Y03704D03*
X03557Y03705D03*
X03736Y03704D03*
X03409Y03551D03*
Y03523D03*
X03127Y03443D03*
X03685Y03457D03*
Y03418D03*
X04519Y03665D03*
X03976Y03681D03*
X03882Y03575D03*
X03803Y03536D03*
Y03496D03*
X06382Y03871D03*
Y03898D03*
X04226Y03539D03*
X03843Y03457D03*
Y03418D03*
G54D105*
X02986Y03111D03*
X02328Y04419D03*
X02423D03*
X02454D03*
X02517D03*
X02486Y04308D03*
X02391D03*
X0289Y04417D03*
X02984D03*
X03015D03*
X03078D03*
X03047Y04306D03*
X02953D03*
X03937Y02456D03*
X04418Y03404D03*
X04308Y04927D03*
X04229Y04885D03*
X04156Y04818D03*
X04108Y04786D03*
X02685Y02488D03*
X0294Y03007D03*
X05271Y03354D03*
X04417Y03881D03*
X05173Y04362D03*
X04804Y05042D03*
X04597Y05043D03*
X03463Y04015D03*
X03662Y04075D03*
X04545Y03352D03*
X02279Y02953D03*
X01294Y03094D03*
X01329D03*
X01318Y02837D03*
X02438Y02843D03*
X0266Y02549D03*
X02476Y03187D03*
X04237Y01551D03*
X04117D03*
X03917D03*
X04197D03*
X04157D03*
X04077D03*
X03997D03*
X03957D03*
X04037D03*
X01445Y02014D03*
X01519Y01832D03*
X01467Y01833D03*
X02873Y03251D03*
X02839Y03214D03*
Y03251D03*
X02797Y03134D03*
Y03099D03*
X02063Y04138D03*
X01896Y01584D03*
X01549Y03661D03*
X01262Y04896D03*
X01284Y02948D03*
X0333Y04144D03*
Y04179D03*
X03332Y04702D03*
Y04735D03*
X02064Y04701D03*
Y04736D03*
X02063Y0417D03*
X0244Y04098D03*
X03Y041D03*
X02968Y04099D03*
X02408Y04098D03*
X05485Y05159D03*
X05436D03*
X05387D03*
X05338D03*
X01467Y01968D03*
X01519Y01966D03*
X0491Y05098D03*
X04757Y05216D03*
X04907Y05217D03*
X047Y05099D03*
Y05216D03*
X04553Y0522D03*
X04878Y0339D03*
X03897Y02667D03*
X0435Y02566D03*
X03775Y0252D03*
X0467Y0311D03*
X0513Y03103D03*
Y03455D03*
X03775Y02457D03*
Y02489D03*
X03506Y03892D03*
X01259Y03093D03*
X01539Y02985D03*
X01011Y04733D03*
X01042Y04734D03*
X01072D03*
X01011Y04703D03*
X01066Y04704D03*
X0101Y04673D03*
X01043Y04674D03*
X017Y03659D03*
X00999Y02973D03*
X01031D03*
X01062D03*
X01092D03*
X01122D03*
X01845Y02591D03*
X01888D03*
X01934D03*
X0198D03*
X02028D03*
Y02634D03*
X0198D03*
X01934D03*
X01888D03*
X01845D03*
X01718Y01819D03*
Y01857D03*
Y01894D03*
Y01934D03*
Y01975D03*
X01712Y01609D03*
X02476Y02332D03*
X02506D03*
X02459Y02056D03*
X02491Y0207D03*
X02843Y02143D03*
X02844Y02244D03*
X04141Y03927D03*
X0414Y04019D03*
X03908Y04018D03*
X03905Y03983D03*
X03912Y03893D03*
Y0382D03*
X03471Y03893D03*
X03945Y05023D03*
X03945Y05277D03*
X04986Y05027D03*
X05038Y05026D03*
X01795Y03384D03*
Y03419D03*
X01796Y03485D03*
X01795Y03454D03*
X01762Y03385D03*
Y0342D03*
X01763Y03485D03*
Y03454D03*
X04139Y03887D03*
X04138Y03843D03*
X03912Y03858D03*
X05487Y05002D03*
X05436Y04999D03*
X05387Y05004D03*
X05337D03*
X0514Y02973D03*
X04728Y03015D03*
X04748Y02811D03*
X04681D03*
X0435Y02538D03*
X04559Y02889D03*
Y02925D03*
X04606Y02751D03*
G54D106*
X02822Y02181D03*
X02802Y02167D03*
X02822Y02224D03*
X02677Y02035D03*
X02464Y02213D03*
X01901Y01992D03*
X02789Y01966D03*
X02696Y02405D03*
X03073Y02208D03*
X02254Y0215D03*
X02254Y02212D03*
X02449Y02194D03*
X02508Y025D03*
X01851Y02464D03*
X02509Y01906D03*
X02556Y0237D03*
X02559Y01986D03*
X02723Y01985D03*
X02577Y02407D03*
X02754Y02025D03*
X02537Y02032D03*
X02771Y01905D03*
X02654Y0203D03*
X01925Y01992D03*
X01944D03*
X01964D03*
X02677Y02389D03*
X02874Y01759D03*
X02893D03*
X02874Y01732D03*
X02893D03*
M02*