%FSTAX23Y23*%
%MOIN*%
%SFA1B1*%

%IPPOS*%
%AMD35*
4,1,8,0.025600,-0.026700,0.025600,0.026700,0.021700,0.030500,-0.021700,0.030500,-0.025600,0.026700,-0.025600,-0.026700,-0.021700,-0.030500,0.021700,-0.030500,0.025600,-0.026700,0.0*
1,1,0.007717,0.021700,-0.026700*
1,1,0.007717,0.021700,0.026700*
1,1,0.007717,-0.021700,0.026700*
1,1,0.007717,-0.021700,-0.026700*
%
%ADD11R,0.050000X0.029921*%
%ADD12O,0.050000X0.029921*%
%ADD13R,0.029724X0.011811*%
%ADD14R,0.011811X0.029724*%
%ADD15R,0.220472X0.220472*%
%ADD16R,0.031496X0.031496*%
%ADD17R,0.051181X0.021654*%
%ADD18R,0.021654X0.051181*%
%ADD19R,0.066929X0.070866*%
%ADD20R,0.010000X0.010000*%
%ADD21R,0.070866X0.066929*%
%ADD22R,0.010000X0.010000*%
%ADD23R,0.039370X0.023622*%
%ADD24R,0.021654X0.023622*%
%ADD25R,0.023622X0.021654*%
%ADD26R,0.023622X0.039370*%
%ADD27R,0.070079X0.140157*%
%ADD28R,0.019685X0.078740*%
%ADD29R,0.043307X0.059055*%
%ADD30R,0.027559X0.051181*%
%ADD31R,0.066929X0.035433*%
%ADD32R,0.051181X0.027559*%
%ADD33R,0.102362X0.035433*%
%ADD34R,0.035433X0.102362*%
G04~CAMADD=35~8~0.0~0.0~610.2~511.8~38.6~0.0~15~0.0~0.0~0.0~0.0~0~0.0~0.0~0.0~0.0~0~0.0~0.0~0.0~270.0~512.0~610.0*
%ADD35D35*%
%ADD37R,0.031693X0.009843*%
%ADD38R,0.009843X0.031693*%
%ADD39R,0.106299X0.059055*%
%ADD40R,0.106299X0.041339*%
%ADD41R,0.023622X0.043307*%
%ADD42R,0.029921X0.015945*%
%ADD43R,0.038976X0.015945*%
%ADD44R,0.067913X0.038976*%
%ADD45R,0.140157X0.070079*%
%ADD46R,0.039370X0.035433*%
%ADD47R,0.039370X0.019685*%
%ADD48R,0.078740X0.098425*%
%ADD49R,0.464566X0.078740*%
%ADD50C,0.019685*%
%ADD60C,0.010000*%
%ADD133C,0.196850*%
%ADD134C,0.035000*%
%LNatfc_paste_top-1*%
%LPD*%
G54D11*
X0734Y0382D03*
G54D12*
X0734Y0387D03*
Y0392D03*
Y0397D03*
X07041Y0382D03*
Y0387D03*
Y0392D03*
Y0397D03*
G54D13*
X04749Y02088D03*
Y02107D03*
Y02127D03*
Y02147D03*
Y02166D03*
Y02186D03*
Y02206D03*
Y02225D03*
Y02245D03*
Y02265D03*
Y02284D03*
Y02304D03*
X04479D03*
Y02284D03*
Y02265D03*
Y02245D03*
Y02225D03*
Y02206D03*
Y02186D03*
Y02166D03*
Y02147D03*
Y02127D03*
Y02107D03*
Y02088D03*
G54D14*
X04723Y02331D03*
X04703D03*
X04683D03*
X04664D03*
X04644D03*
X04624D03*
X04604D03*
X04585D03*
X04565D03*
X04545D03*
X04526D03*
X04506D03*
Y02061D03*
X04526D03*
X04545D03*
X04565D03*
X04585D03*
X04604D03*
X04624D03*
X04644D03*
X04664D03*
X04683D03*
X04703D03*
X04723D03*
G54D15*
X04614Y02196D03*
G54D16*
X03435Y01935D03*
Y0187D03*
X06122Y05339D03*
Y05274D03*
X06175Y0534D03*
Y05275D03*
X04911Y03228D03*
Y03293D03*
X03487Y01935D03*
Y0187D03*
G54D17*
X03775Y01657D03*
Y01582D03*
Y0162D03*
X03681Y01657D03*
Y01582D03*
X03574Y03547D03*
Y03622D03*
Y03584D03*
X03668Y03547D03*
Y03622D03*
G54D18*
X03241Y04849D03*
X03315D03*
X03278D03*
X03241Y04754D03*
X03315D03*
G54D19*
X03686Y01752D03*
X03816D03*
X0365Y03431D03*
X0352D03*
G54D20*
X03769Y01752D03*
X03733D03*
X03567Y03431D03*
X03603D03*
G54D21*
X03135Y04795D03*
Y04925D03*
G54D22*
X03135Y04878D03*
Y04842D03*
G54D23*
X03914Y02263D03*
Y02322D03*
X05671Y04788D03*
Y04847D03*
X05615Y04701D03*
Y04642D03*
X05675Y04725D03*
Y04666D03*
X05613Y04814D03*
Y04873D03*
X05671Y04476D03*
Y04535D03*
X05611Y04379D03*
Y0432D03*
X05672Y04407D03*
Y04348D03*
X05616Y04504D03*
Y04563D03*
X04909Y03128D03*
Y03187D03*
Y03033D03*
Y03092D03*
X04943Y02207D03*
Y02148D03*
X04851Y01776D03*
Y01717D03*
G54D24*
X04577Y02D03*
Y01966D03*
X03517Y03621D03*
Y03587D03*
X0383Y01584D03*
Y01618D03*
X04191Y02262D03*
Y02227D03*
Y02178D03*
Y02143D03*
X03517Y03545D03*
Y03511D03*
X03242Y04905D03*
Y0494D03*
X03438Y02912D03*
Y02878D03*
X05061Y02168D03*
Y02202D03*
X03205Y02912D03*
Y02878D03*
X03169Y02912D03*
Y02878D03*
X04725Y02443D03*
Y02409D03*
X04724Y01949D03*
Y01983D03*
X0451Y02445D03*
Y0241D03*
X04495Y01949D03*
Y01983D03*
X03367Y02912D03*
Y02878D03*
X06122Y05237D03*
Y05202D03*
X06174Y05234D03*
Y05199D03*
X06602Y02766D03*
Y02801D03*
X06775Y0277D03*
Y02805D03*
X05495Y04017D03*
Y03983D03*
X05461Y04017D03*
Y03983D03*
X06811Y03799D03*
Y03765D03*
X06884Y03799D03*
Y03765D03*
X0692Y03799D03*
Y03765D03*
X06847Y03799D03*
Y03765D03*
X04774Y03201D03*
Y03167D03*
X04842Y03201D03*
Y03167D03*
X04643Y01966D03*
Y01999D03*
X0461Y01966D03*
Y01999D03*
X04686Y02444D03*
Y0241D03*
X04691Y01949D03*
Y01982D03*
X04545Y02444D03*
Y0241D03*
X04528Y0195D03*
Y01983D03*
X04783Y01975D03*
Y02008D03*
X04426Y02274D03*
Y02241D03*
X04425Y02165D03*
Y02132D03*
X03402Y02911D03*
Y02878D03*
X03367Y02982D03*
Y02949D03*
X03322Y02911D03*
Y02878D03*
X04874Y03435D03*
Y03468D03*
X08374Y02147D03*
Y02114D03*
X0834Y02147D03*
Y02114D03*
X03286Y02912D03*
Y02878D03*
X07171Y04991D03*
Y04957D03*
X07106D03*
Y04991D03*
X07204D03*
Y04957D03*
X07139D03*
Y04991D03*
X07304D03*
Y04957D03*
X07239D03*
Y04991D03*
X07337D03*
Y04957D03*
X07272D03*
Y04991D03*
X08068Y04995D03*
Y04961D03*
X08005D03*
Y04995D03*
X081D03*
Y04961D03*
X08197Y04995D03*
Y04961D03*
X08134D03*
Y04995D03*
X08229D03*
Y04961D03*
X08037D03*
Y04995D03*
X08166Y04961D03*
Y04995D03*
G54D25*
X03315Y04904D03*
X0328D03*
X03829Y01657D03*
X03863D03*
X03478Y0295D03*
X03443D03*
X05022Y02207D03*
X04988D03*
X04665Y01905D03*
X04631D03*
X04738D03*
X04704D03*
X04553Y02499D03*
X04588D03*
X04478Y025D03*
X04513D03*
X04515Y01905D03*
X04481D03*
X0459D03*
X04556D03*
X04632Y0242D03*
X04598D03*
X0742Y0397D03*
X07385D03*
X0742Y03921D03*
X07385D03*
X0742Y0387D03*
X07385D03*
X0742Y03821D03*
X07385D03*
X04793Y0306D03*
X04828D03*
X04878Y02207D03*
X04845D03*
X03435Y03047D03*
X03402D03*
X03477Y02985D03*
X03443D03*
X03101Y03066D03*
X03134D03*
X05031Y03452D03*
X05065D03*
X05031Y03409D03*
X05065D03*
X03491Y02844D03*
X03526D03*
G54D26*
X05535Y04735D03*
X05475D03*
X05536Y04424D03*
X05476D03*
X0306Y04144D03*
X0312D03*
X03117Y03829D03*
X03057D03*
X0444Y03504D03*
X045D03*
X05535Y04782D03*
X05475D03*
X05536Y04474D03*
X05476D03*
G54D27*
X03987Y02482D03*
X04357D03*
X0399Y01905D03*
X0436D03*
G54D28*
X05032Y0404D03*
X05063D03*
X04843D03*
X04874D03*
X05079Y04363D03*
X05048D03*
X05016D03*
X04985D03*
X04953D03*
X04922D03*
X0489D03*
X04859D03*
X04827D03*
X04796D03*
X04811Y0404D03*
X04906D03*
X04937D03*
X04969D03*
X05D03*
X05095D03*
X04282D03*
X04518Y04363D03*
X04487D03*
X04455D03*
X04424D03*
X04392D03*
X04361D03*
X04329D03*
X04298D03*
X04266D03*
X04235D03*
X0425Y0404D03*
X04313D03*
X04345D03*
X04376D03*
X04408D03*
X04439D03*
X04471D03*
X04502D03*
X04534D03*
G54D29*
X05793Y05233D03*
Y05352D03*
X05733D03*
Y05233D03*
X06D03*
Y05352D03*
X0594D03*
Y05233D03*
G54D30*
X03282Y03367D03*
X03356D03*
X06387Y03161D03*
X06462D03*
Y03271D03*
X06387D03*
X05395Y03414D03*
X0532D03*
Y03535D03*
X05395D03*
X06379Y03492D03*
X06454D03*
Y02909D03*
X06379D03*
X05328Y0285D03*
X05403D03*
Y02909D03*
X05328D03*
X06454Y03015D03*
X06379D03*
X06453Y02807D03*
X06379D03*
X03282Y03431D03*
X03356D03*
G54D31*
X03819Y02151D03*
Y02037D03*
X0391Y02151D03*
Y02037D03*
G54D32*
X04853Y02244D03*
Y02319D03*
X04461Y0238D03*
Y02455D03*
X04854Y0214D03*
Y02065D03*
X04438Y0202D03*
Y01945D03*
X03044Y03044D03*
Y03119D03*
X02982Y03044D03*
Y03119D03*
X05692Y0369D03*
Y03765D03*
X05929Y03738D03*
Y03663D03*
G54D33*
X05314Y03021D03*
Y03135D03*
G54D34*
X05336Y03244D03*
X05222D03*
X06394Y03632D03*
X06508D03*
G54D35*
X04387Y035D03*
Y03187D03*
X04209Y035D03*
Y03187D03*
X03165Y03831D03*
Y04144D03*
X03343Y03831D03*
Y04144D03*
G54D37*
X03339Y03012D03*
Y03032D03*
Y03052D03*
Y03071D03*
Y03091D03*
Y03111D03*
X03185D03*
Y03091D03*
Y03071D03*
Y03052D03*
Y03032D03*
Y03012D03*
G54D38*
X03311Y03138D03*
X03292D03*
X03272D03*
X03252D03*
X03232D03*
X03213D03*
Y02985D03*
X03232D03*
X03252D03*
X03272D03*
X03292D03*
X03311D03*
G54D39*
X03262Y03037D03*
G54D40*
X03262Y03094D03*
G54D41*
X06727Y02845D03*
X06689D03*
X06652D03*
Y0275D03*
X06689D03*
X06727D03*
G54D42*
X04373Y02211D03*
Y02186D03*
Y02162D03*
Y02236D03*
G54D43*
X04256Y0216D03*
Y02186D03*
Y02212D03*
Y02238D03*
G54D44*
X04334Y02223D03*
Y02175D03*
G54D45*
X05118Y0172D03*
Y0209D03*
G54D46*
X04991Y03494D03*
X04917D03*
X04991Y03409D03*
X04917D03*
G54D47*
X04991Y03452D03*
X04917D03*
G54D48*
X03822Y02233D03*
Y0239D03*
G54D49*
X04945Y04706D03*
X04384D03*
G54D50*
X05745Y03563D03*
Y03602D03*
Y02775D03*
Y02815D03*
X0547Y02972D03*
Y03011D03*
Y03051D03*
Y0309D03*
Y03169D03*
Y03208D03*
Y03563D03*
Y03602D03*
X05666Y02854D03*
X0547Y03248D03*
Y03287D03*
X05666Y03563D03*
Y03602D03*
X05509Y02933D03*
Y02972D03*
X0547Y03366D03*
Y03405D03*
X05509Y02775D03*
X05588Y03563D03*
Y03602D03*
X06296Y02775D03*
X06257D03*
X06218D03*
X06178D03*
X06139D03*
X061D03*
X0606D03*
X06021D03*
X05981D03*
X05942D03*
X05903D03*
X05863D03*
X05824D03*
X05785D03*
X05706D03*
X05666D03*
X05627D03*
X05588D03*
X05548D03*
X06296Y02815D03*
X06257D03*
X06218D03*
X06178D03*
X06139D03*
X061D03*
X0606D03*
X06021D03*
X05981D03*
X05942D03*
X05903D03*
X05863D03*
X05824D03*
X05785D03*
X05706D03*
X05666D03*
X05627D03*
X05588D03*
X05548D03*
X05509D03*
X06296Y02854D03*
X06257D03*
X06218D03*
X06178D03*
X06139D03*
X061D03*
X0606D03*
X06021D03*
X05981D03*
X05942D03*
X05903D03*
X05863D03*
X05824D03*
X05785D03*
X05745D03*
X05706D03*
X05627D03*
X05588D03*
X05548D03*
X05509D03*
X06296Y02893D03*
X06257D03*
X06218D03*
X06178D03*
X06139D03*
X061D03*
X0606D03*
X06021D03*
X05981D03*
X05942D03*
X05903D03*
X05863D03*
X05824D03*
X05785D03*
X05745D03*
X05706D03*
X05666D03*
X05627D03*
X05588D03*
X05548D03*
X05509D03*
X06296Y02933D03*
X06257D03*
X06218D03*
X06178D03*
X06139D03*
X061D03*
X0606D03*
X06021D03*
X05981D03*
X05942D03*
X05903D03*
X05863D03*
X05824D03*
X05785D03*
X05745D03*
X05706D03*
X05666D03*
X05588D03*
X05548D03*
X0547D03*
X06296Y02972D03*
X06257D03*
X06218D03*
X06178D03*
X06139D03*
X061D03*
X0606D03*
X06021D03*
X05981D03*
X05942D03*
X05903D03*
X05863D03*
X05824D03*
X05785D03*
X05745D03*
X05706D03*
X05627D03*
X05588D03*
X05548D03*
X06296Y03011D03*
X06257D03*
X06218D03*
X06178D03*
X06139D03*
X061D03*
X0606D03*
X06021D03*
X05981D03*
X05942D03*
X05903D03*
X05863D03*
X05824D03*
X05785D03*
X05745D03*
X05706D03*
X05666D03*
X05627D03*
X05588D03*
X05548D03*
X05509D03*
X06296Y03051D03*
X06257D03*
X06218D03*
X06178D03*
X06139D03*
X061D03*
X0606D03*
X06021D03*
X05981D03*
X05942D03*
X05903D03*
X05863D03*
X05824D03*
X05785D03*
X05745D03*
X05706D03*
X05666D03*
X05627D03*
X05588D03*
X05548D03*
X05509D03*
X06296Y0309D03*
X06257D03*
X06218D03*
X06178D03*
X06139D03*
X061D03*
X0606D03*
X06021D03*
X05981D03*
X05942D03*
X05903D03*
X05863D03*
X05824D03*
X05785D03*
X05745D03*
X05706D03*
X05666D03*
X05627D03*
X05588D03*
X05548D03*
X05509D03*
X06296Y03129D03*
X06257D03*
X06218D03*
X06178D03*
X06139D03*
X061D03*
X0606D03*
X06021D03*
X05981D03*
X05942D03*
X05903D03*
X05863D03*
X05824D03*
X05785D03*
X05745D03*
X05706D03*
X05666D03*
X05627D03*
X05588D03*
X05548D03*
X05509D03*
X0547D03*
X06296Y03169D03*
X06257D03*
X06218D03*
X06178D03*
X06139D03*
X061D03*
X0606D03*
X06021D03*
X05981D03*
X05942D03*
X05903D03*
X05863D03*
X05824D03*
X05785D03*
X05745D03*
X05706D03*
X05666D03*
X05627D03*
X05588D03*
X05548D03*
X05509D03*
X06296Y03208D03*
X06257D03*
X06218D03*
X06178D03*
X06139D03*
X061D03*
X0606D03*
X06021D03*
X05981D03*
X05942D03*
X05903D03*
X05863D03*
X05824D03*
X05785D03*
X05745D03*
X05706D03*
X05666D03*
X05627D03*
X05588D03*
X05548D03*
X05509D03*
X06296Y03248D03*
X06257D03*
X06218D03*
X06178D03*
X06139D03*
X061D03*
X0606D03*
X06021D03*
X05981D03*
X05942D03*
X05903D03*
X05863D03*
X05824D03*
X05785D03*
X05745D03*
X05706D03*
X05666D03*
X05627D03*
X05588D03*
X05548D03*
X05509D03*
X06296Y03287D03*
X06257D03*
X06218D03*
X06178D03*
X06139D03*
X061D03*
X0606D03*
X06021D03*
X05981D03*
X05942D03*
X05903D03*
X05863D03*
X05824D03*
X05785D03*
X05745D03*
X05706D03*
X05666D03*
X05627D03*
X05588D03*
X05548D03*
X05509D03*
X06296Y03326D03*
X06257D03*
X06218D03*
X06178D03*
X06139D03*
X061D03*
X0606D03*
X06021D03*
X05981D03*
X05942D03*
X05903D03*
X05863D03*
X05824D03*
X05785D03*
X05745D03*
X05706D03*
X05666D03*
X05627D03*
X05588D03*
X05548D03*
X05509D03*
X0547D03*
X06296Y03366D03*
X06257D03*
X06218D03*
X06178D03*
X06139D03*
X061D03*
X0606D03*
X06021D03*
X05981D03*
X05942D03*
X05903D03*
X05863D03*
X05824D03*
X05785D03*
X05745D03*
X05706D03*
X05666D03*
X05627D03*
X05588D03*
X05548D03*
X05509D03*
X06296Y03405D03*
X06257D03*
X06218D03*
X06178D03*
X06139D03*
X061D03*
X0606D03*
X06021D03*
X05981D03*
X05942D03*
X05903D03*
X05863D03*
X05785D03*
X05745D03*
X05706D03*
X05666D03*
X05627D03*
X05588D03*
X05548D03*
X05509D03*
X06296Y03444D03*
X06257D03*
X06218D03*
X06178D03*
X06139D03*
X061D03*
X0606D03*
X06021D03*
X05981D03*
X05942D03*
X05903D03*
X05863D03*
X05824D03*
X05785D03*
X05745D03*
X05706D03*
X05666D03*
X05627D03*
X05588D03*
X05548D03*
X05509D03*
X06296Y03484D03*
X06257D03*
X06218D03*
X06178D03*
X06139D03*
X061D03*
X0606D03*
X06021D03*
X05981D03*
X05942D03*
X05903D03*
X05863D03*
X05824D03*
X05785D03*
X05745D03*
X05706D03*
X05666D03*
X05627D03*
X05588D03*
X05548D03*
X05509D03*
X06296Y03523D03*
X06257D03*
X06218D03*
X06178D03*
X06139D03*
X061D03*
X0606D03*
X06021D03*
X05981D03*
X05942D03*
X05903D03*
X05863D03*
X05824D03*
X05785D03*
X05745D03*
X05706D03*
X05666D03*
X05627D03*
X05588D03*
X05548D03*
X05509D03*
X0547D03*
X06296Y03563D03*
X06257D03*
X06218D03*
X06178D03*
X06139D03*
X061D03*
X0606D03*
X06021D03*
X05981D03*
X05942D03*
X05903D03*
X05863D03*
X05824D03*
X05785D03*
X05706D03*
X05627D03*
X05548D03*
X05509D03*
X06296Y03602D03*
X06257D03*
X06218D03*
X06178D03*
X06139D03*
X061D03*
X0606D03*
X06021D03*
X05981D03*
X05942D03*
X05903D03*
X05863D03*
X05824D03*
X05785D03*
X05706D03*
X05627D03*
X05548D03*
X05509D03*
X05666Y02972D03*
X05627Y02933D03*
X0547Y03484D03*
Y03444D03*
X05824Y03405D03*
X0547Y02815D03*
Y02775D03*
Y02893D03*
Y02854D03*
G54D60*
X0076Y06374D02*
X10798D01*
X0076Y00652D02*
X10798D01*
X0076D02*
Y06374D01*
X10798Y00669D02*
Y06374D01*
G54D133*
X1005Y05474D03*
Y01537D03*
G54D134*
X08565Y03187D03*
Y03137D03*
Y03337D03*
Y03287D03*
Y02887D03*
Y02837D03*
Y03937D03*
Y03887D03*
Y03487D03*
Y03437D03*
X08315Y03687D03*
Y03637D03*
Y03487D03*
Y03437D03*
X08365Y03337D03*
X08565Y04237D03*
Y04187D03*
Y04087D03*
Y04037D03*
Y02587D03*
Y02537D03*
X08315Y02387D03*
X08365D03*
X08515D03*
X08565D03*
Y02437D03*
X08315D03*
X08365D03*
X08565Y02487D03*
X08315D03*
X08365D03*
X08515Y02537D03*
X08315D03*
X08515Y02587D03*
X08315D03*
X08565Y02637D03*
X08365D03*
Y02687D03*
X08515Y02737D03*
X08315D03*
X08365D03*
X08515Y02787D03*
X08565D03*
X08315D03*
X08365D03*
X08515Y02837D03*
X08365D03*
X08515Y02887D03*
X08365D03*
X08565Y02937D03*
X08315D03*
X08365D03*
X08315Y02987D03*
X08365D03*
X08515Y03037D03*
Y03087D03*
X08565D03*
X08515Y03137D03*
X08315D03*
X08365D03*
X08515Y03187D03*
X08315D03*
X08365D03*
X08515Y03237D03*
X08565D03*
X08315D03*
X08365D03*
X08515Y03287D03*
X08315D03*
X08365D03*
X08515Y03337D03*
X08315D03*
X08515Y03387D03*
X08565D03*
X08315D03*
X08365D03*
X08515Y03437D03*
X08365D03*
X08515Y03487D03*
X08365D03*
X08515Y03537D03*
X08565D03*
X08315D03*
X08365D03*
X08515Y03587D03*
X08315D03*
X08365D03*
X08515Y03637D03*
Y03687D03*
X08565D03*
X08515Y03737D03*
X08315D03*
X08365D03*
X08515Y03787D03*
X08315D03*
X08365D03*
X08515Y03837D03*
X08565D03*
X08315D03*
X08365D03*
X08515Y03887D03*
X08315D03*
X08365D03*
X08515Y03937D03*
X08315D03*
X08365D03*
X08515Y03987D03*
X08565D03*
X08315D03*
X08365D03*
X08515Y04037D03*
X08315D03*
X08365D03*
X08515Y04087D03*
X08315D03*
X08365D03*
X08565Y04137D03*
X08315D03*
X08365D03*
X08315Y04187D03*
X08365D03*
X08515Y04237D03*
X08315D03*
X08365D03*
X08515Y04287D03*
X08565D03*
X08315D03*
X08365D03*
X08515Y04337D03*
X08565D03*
X08315D03*
X08365D03*
X08565Y02687D03*
Y02737D03*
Y02987D03*
Y03037D03*
Y03587D03*
Y03637D03*
Y03737D03*
Y03787D03*
X08365Y03037D03*
Y03087D03*
Y03637D03*
Y03687D03*
X08515Y02437D03*
Y02487D03*
X08315Y02637D03*
Y02687D03*
X08515Y02637D03*
Y02687D03*
X08315Y03037D03*
Y03087D03*
Y02887D03*
Y02837D03*
X08515Y02937D03*
Y02987D03*
Y04137D03*
Y04187D03*
X08365Y02537D03*
Y02587D03*
M02*