%FSTAX23Y23*%
%MOIN*%
%SFA1B1*%

%IPPOS*%
%ADD94C,0.002008*%
%ADD95C,0.050000*%
%ADD96O,0.145000X0.059370*%
%ADD97C,0.138110*%
%ADD98C,0.081023*%
%ADD99C,0.070000*%
%ADD100C,0.092834*%
%ADD101C,0.059370*%
%ADD102C,0.055433*%
%ADD103C,0.057401*%
%ADD104C,0.027992*%
%ADD105C,0.030000*%
%ADD106C,0.027008*%
%LNatfc_copper_plane_1-1*%
%LPD*%
G36*
X05759Y03551D02*
X05736D01*
Y03614*
X05759*
Y03551*
G37*
G36*
X05834D02*
X05814D01*
Y03614*
X05834*
Y03551*
G37*
G36*
X05598Y03555D02*
X05574D01*
X05566Y03562*
Y03614*
X05598*
Y03555*
G37*
G36*
X01978Y0D02*
X01968D01*
Y0001*
X01978*
Y0*
G37*
G36*
X08386Y02092D02*
X08326D01*
Y02166*
X08386*
Y02092*
G37*
G36*
X05079Y03397D02*
X05019D01*
Y03462*
X05079*
Y03397*
G37*
G36*
X05677Y03555D02*
X05653D01*
X05641Y03566*
Y03614*
X05677*
Y03555*
G37*
G36*
X05085Y04002D02*
X0501D01*
Y0408*
X05085*
Y04002*
G37*
G36*
X09029Y04351D02*
X08979D01*
Y04406*
X09029*
Y04351*
G37*
G36*
Y04411D02*
X08979D01*
Y04645*
X09029*
Y04411*
G37*
G36*
X04335Y04002D02*
X0426D01*
Y0408*
X04335*
Y04002*
G37*
G36*
X04525D02*
X0445D01*
Y0408*
X04525*
Y04002*
G37*
G36*
X04897D02*
X04822D01*
Y0408*
X04897*
Y04002*
G37*
G54D94*
X09003Y0144D02*
Y05587D01*
X02669Y0144D02*
X09003D01*
X02669D02*
Y05587D01*
X09003*
G54D95*
X08059Y05085D03*
X08159D03*
X08259D03*
X08359D03*
X08559D03*
X08059Y05185D03*
X08159D03*
X08259D03*
X08359D03*
X08559D03*
X07159Y05085D03*
X07259D03*
X07359D03*
X07459D03*
X07659D03*
X07159Y05185D03*
X07259D03*
X07359D03*
X07459D03*
X07659D03*
X0351Y03296D03*
Y03159D03*
G54D96*
X03145Y05086D03*
G54D97*
X08869Y05474D03*
X02769D03*
Y01537D03*
X08869D03*
G54D98*
X04756Y04202D03*
X05134D03*
X04195D03*
X04573D03*
G54D99*
X0832Y02291D03*
X0844Y04432D03*
G54D100*
X03608Y05084D03*
Y04902D03*
G54D101*
X06938Y04467D03*
G54D102*
X06899Y04428D03*
X06978D03*
X07056D03*
X07135D03*
X07214D03*
X07292D03*
X07371D03*
Y04507D03*
X04666Y03115D03*
X06364Y04817D03*
X06464D03*
X06364Y04717D03*
X06464D03*
X06364Y04617D03*
X06464D03*
X06364Y04517D03*
X06464D03*
X06364Y04417D03*
X06464D03*
X0296Y04815D03*
G54D103*
X05134Y03958D03*
X04945D03*
X04384D03*
X04573D03*
X05226Y04521D03*
X04104D03*
G54D104*
X05654Y02999D03*
X0659Y03192D03*
X05654Y03038D03*
X06559Y03192D03*
X08388Y03347D03*
X05575Y03339D03*
X08388Y03377D03*
X05575Y03378D03*
X08374Y02064D03*
X05811Y03457D03*
X08342Y02064D03*
X05811Y03418D03*
X0834Y02675D03*
X05772Y03536D03*
X0834Y02649D03*
X05772Y03496D03*
X0834Y02475D03*
X05692Y03539D03*
X08341Y02449D03*
X05692Y035D03*
X05495Y03577D03*
X07858Y01736D03*
X05495Y03537D03*
X07858Y01767D03*
X07724Y01817D03*
X05495Y0338D03*
X0849Y02827D03*
X05495Y0334D03*
X07724Y01849D03*
X0849Y02797D03*
X07298Y01865D03*
X05492Y03275D03*
X0849Y02977D03*
X07298Y01897D03*
X05492Y03236D03*
X0849Y02947D03*
X07477Y01897D03*
X05536Y0326D03*
X0859Y02727D03*
X07477Y01928D03*
X05536Y03221D03*
X0859Y02697D03*
X0839Y02897D03*
X05536Y03157D03*
X0839Y02927D03*
X05498Y03152D03*
X0849Y03097D03*
X05602Y03115D03*
X0849Y03127D03*
X05566Y03114D03*
X08491Y02675D03*
X07968Y01968D03*
X05607Y02952D03*
X08491Y02649D03*
X07968Y02D03*
X05607Y02991D03*
X0839Y03047D03*
X05536Y03038D03*
X0839Y03077D03*
X05496Y03038D03*
X0849Y03247D03*
X05523Y02956D03*
X0849Y03277D03*
X05488Y02917D03*
X0854Y02449D03*
X05575Y03038D03*
X07019Y02216D03*
X0854Y02475D03*
X05575Y02999D03*
X07019Y02248D03*
X08197Y04935D03*
X08229Y04935D03*
X05965Y03462D03*
X08134Y04932D03*
X06079Y0343D03*
X08163Y04932D03*
X06078Y03467D03*
X081Y04933D03*
X06236Y0354D03*
X08068Y04934D03*
X06199Y035D03*
X08037Y04934D03*
X06002Y03465D03*
X08005Y04934D03*
X05979Y03499D03*
X06121Y03465D03*
X0603Y03539D03*
X06Y0358D03*
X05882Y0338D03*
X06437Y0348D03*
Y03503D03*
X05851Y03377D03*
X06198Y03342D03*
X06316Y03425D03*
X0839Y03677D03*
X05721Y02877D03*
X0839Y03647D03*
X05723Y02912D03*
X0849Y03727D03*
X05803Y02842D03*
X0849Y03697D03*
X05802Y02877D03*
X06397Y02799D03*
X05759Y02917D03*
X0849Y03877D03*
X05803Y02917D03*
X0849Y03847D03*
X0839Y02412D03*
X08593Y02435D03*
X08566Y02362D03*
X08343Y02777D03*
Y02747D03*
X05385Y02862D03*
Y02838D03*
X05654Y02881D03*
X0849Y03397D03*
X05614Y02877D03*
X0849Y03427D03*
Y03577D03*
X05685Y02799D03*
X0849Y03547D03*
X05688Y02838D03*
X0839Y03527D03*
X05645Y02952D03*
X0839Y03497D03*
X05681Y02956D03*
X0757Y02707D03*
X05571Y02835D03*
X0757Y02739D03*
X05569Y02797D03*
X06561Y02527D03*
X08541Y02549D03*
X06561Y02496D03*
X05606Y02921D03*
X08541Y02575D03*
X05575Y02881D03*
X05917Y0272D03*
X05735Y02962D03*
X05769Y02957D03*
X05719Y02799D03*
X05649Y02917D03*
X05807Y02957D03*
X08412Y03865D03*
X05575Y03221D03*
X05614D03*
X0849Y04027D03*
Y03997D03*
X06444Y03149D03*
X06244Y03153D03*
X06275Y03147D03*
X05732Y03157D03*
X05807Y03185D03*
X05653Y035D03*
X06116Y03225D03*
X05688Y03035D03*
X0585Y03036D03*
X05917Y03161D03*
X05326Y03385D03*
X05685Y0311D03*
X0569Y03227D03*
X05646Y03073D03*
X05448Y03503D03*
X06035Y03456D03*
X0596Y03543D03*
X06236Y03192D03*
X06273Y0302D03*
X05921Y02909D03*
X0692Y0374D03*
X05955Y02959D03*
X06884Y0374D03*
X05955Y02999D03*
X06847Y0374D03*
X06444Y03173D03*
X06311Y0296D03*
X06685Y03444D03*
X06035Y03035D03*
X0585Y03114D03*
X05807Y03074D03*
X06238Y02875D03*
X05918Y0311D03*
X05808Y02996D03*
X05527Y04342D03*
Y04539D03*
X05783Y02704D03*
X06015Y03685D03*
X05571Y04814D03*
Y04791D03*
Y04769D03*
Y04746D03*
Y04724D03*
Y04702D03*
X05575Y04504D03*
Y04479D03*
Y04455D03*
Y0443D03*
Y04406D03*
Y04382D03*
X05984Y0272D03*
X05952D03*
X05448Y03125D03*
X05771Y03578D03*
X05095Y03412D03*
X05047Y03137D03*
X05102Y0322D03*
X06488Y03594D03*
Y03629D03*
X05724Y02704D03*
X05751D03*
X06314Y03027D03*
X05984Y03685D03*
X06082Y0359D03*
X06078Y03755D03*
X06047D03*
X05913Y03681D03*
X06Y03185D03*
X05346Y02897D03*
Y02921D03*
X05314Y03248D03*
Y03114D03*
X05342D03*
X05283D03*
X06001Y03309D03*
X06074Y03382D03*
X05918Y02957D03*
X06158Y03107D03*
X05586Y04562D03*
X05701Y04535D03*
X05705Y04348D03*
X05578Y0432D03*
X05475Y04835D03*
Y04678D03*
X05578Y04642D03*
X05708Y04666D03*
X05702Y04847D03*
X0558Y04872D03*
X05729Y0342D03*
X05809Y03504D03*
X06037Y03381D03*
Y03303D03*
Y03342D03*
X06962Y04052D03*
X06893Y04035D03*
X06884Y03822D03*
X0692Y0382D03*
X06811Y0374D03*
X05571Y03184D03*
X05693Y033D03*
X05772D03*
X05851Y033D03*
X05693Y03418D03*
X05917Y03227D03*
X05955Y033D03*
X06073Y03339D03*
X06165Y03381D03*
X05772Y03038D03*
X05575Y03536D03*
X05733Y03077D03*
X05955Y03038D03*
X05915Y02999D03*
X05574Y02762D03*
X05535Y033D03*
X05811Y03262D03*
X05914Y0326D03*
X05731D03*
X05531Y03425D03*
X05997Y03539D03*
X06115D03*
X06155D03*
X06233Y03421D03*
X05728Y02996D03*
X05848Y02956D03*
X05915Y03077D03*
X05496Y02996D03*
X06272Y02962D03*
X06165Y02959D03*
X06157Y02799D03*
X06196D03*
X06236D03*
X06275D03*
X06232Y03263D03*
X06397Y02897D03*
Y02917D03*
Y03027D03*
Y03003D03*
X06405Y03283D03*
Y03259D03*
X05393Y03322D03*
Y03299D03*
X05315Y03209D03*
X0544Y03232D03*
Y03212D03*
X05314Y03279D03*
X06397Y02822D03*
X0561Y03705D03*
X05681Y03704D03*
X05704D03*
X05095Y03443D03*
X05653Y03457D03*
Y03418D03*
X06488Y03665D03*
X05944Y03681D03*
X05851Y03575D03*
X06194Y03539D03*
X05693Y03575D03*
X05736Y03535D03*
X05734Y0346D03*
X05772Y03418D03*
X05914Y0334D03*
X05811Y03339D03*
X05733Y03337D03*
X05653Y03342D03*
X0829Y04287D03*
X0839Y04337D03*
Y04237D03*
X0829Y04187D03*
X0839Y04137D03*
X0829Y04087D03*
X0839Y03937D03*
X0859Y04337D03*
X0849Y04287D03*
X0839Y04037D03*
X05554Y02909D03*
X05326Y0344D03*
X05491Y03462D03*
X05377Y03555D03*
Y03535D03*
X05527Y0287D03*
X0624Y03511D03*
X06157Y03503D03*
X0627Y0342D03*
X05957Y03427D03*
X05614Y03575D03*
X05529Y03712D03*
X04341Y03741D03*
Y03772D03*
X05126D03*
X0499Y0384D03*
X05181Y03838D03*
X0499Y03871D03*
X05181Y0387D03*
X05126Y03741D03*
X05575Y033D03*
X0735Y0333D03*
X05575Y0326D03*
X0735Y03299D03*
X05851Y03225D03*
X05536Y02841D03*
X0839Y03197D03*
X05535Y02799D03*
X0839Y03227D03*
G54D105*
X08613Y05137D03*
X07938Y05157D03*
X06403Y03405D03*
X07082Y05144D03*
X07728Y05138D03*
X06318Y02537D03*
X04954Y0311D03*
X04297Y04419D03*
X04391D03*
X04422D03*
X04485D03*
X04454Y04307D03*
X0436D03*
X04858Y04417D03*
X04952D03*
X04984D03*
X05047D03*
X05015Y04305D03*
X04921D03*
X05905Y02456D03*
X04653Y02488D03*
X04909Y03007D03*
X0724Y03354D03*
X06385Y03881D03*
X07141Y04362D03*
X0594Y05177D03*
X05733Y05178D03*
X05431Y04015D03*
X0563Y04075D03*
X06513Y03352D03*
X04247Y02952D03*
X03262Y03094D03*
X03297D03*
X03286Y02837D03*
X04406Y02842D03*
X04628Y02549D03*
X04445Y03187D03*
X06205Y0155D03*
X06085D03*
X05885D03*
X06165D03*
X06125D03*
X06045D03*
X05965D03*
X05925D03*
X06005D03*
X03413Y02014D03*
X03487Y01832D03*
X03435Y01833D03*
X04841Y0325D03*
X04807Y03214D03*
Y0325D03*
X04765Y03134D03*
Y03099D03*
X04031Y04137D03*
X03865Y01584D03*
X03517Y0366D03*
X03352Y04904D03*
X03252Y02947D03*
X05298Y04144D03*
Y04179D03*
X053Y04702D03*
Y04735D03*
X04032Y047D03*
Y04735D03*
X04031Y0417D03*
X04408Y04097D03*
X04968Y041D03*
X04937D03*
X04377Y04097D03*
X0701Y03845D03*
X07009Y03895D03*
X0701Y03947D03*
X03435Y01968D03*
X03487Y01966D03*
X06046Y05232D03*
X05893Y0535D03*
X06043Y05352D03*
X05836Y05234D03*
Y0535D03*
X05689Y05355D03*
X06846Y0339D03*
X05865Y02667D03*
X06318Y02566D03*
X05743Y0252D03*
X06638Y0311D03*
X07099Y03102D03*
Y03455D03*
X05743Y02457D03*
Y02489D03*
X05474Y03892D03*
X03227Y03093D03*
X03507Y02985D03*
X03101Y04741D03*
X03132Y04742D03*
X03162D03*
X03101Y04711D03*
X03157Y04712D03*
X031Y04681D03*
X03133Y04682D03*
X03668Y03659D03*
X02967Y02973D03*
X02999D03*
X0303D03*
X0306D03*
X0309D03*
X03813Y0259D03*
X03856D03*
X03902D03*
X03948D03*
X03996D03*
Y02634D03*
X03948D03*
X03902D03*
X03856D03*
X03813D03*
X03686Y01819D03*
Y01857D03*
Y01894D03*
Y01934D03*
Y01975D03*
X03681Y01609D03*
X04444Y02332D03*
X04474D03*
X04427Y02055D03*
X04459Y0207D03*
X04811Y02142D03*
X04812Y02244D03*
X06109Y03927D03*
X06108Y04019D03*
X05876Y04017D03*
X05873Y03982D03*
X0588Y03892D03*
Y0382D03*
X05439Y03892D03*
X06122Y05162D03*
X06174Y0516D03*
X03763Y03384D03*
Y03419D03*
X03764Y03485D03*
X03763Y03454D03*
X0373Y03385D03*
Y0342D03*
X03731Y03485D03*
Y03454D03*
X06107Y03887D03*
X06106Y03842D03*
X0588Y03857D03*
X07108Y02973D03*
X06696Y03015D03*
X06527Y02889D03*
Y02925D03*
X06574Y02751D03*
X03514Y02065D03*
X07159Y0397D03*
X0716Y0392D03*
X07157Y0387D03*
X07162Y0382D03*
G54D106*
X0798Y01487D03*
X04967Y02682D03*
X04791Y02181D03*
X0477Y02167D03*
X04791Y02224D03*
X04645Y02035D03*
X04432Y02212D03*
X0387Y01992D03*
X04758Y01966D03*
X04665Y02405D03*
X04222Y0215D03*
X04222Y02212D03*
X04418Y02194D03*
X04476Y025D03*
X0382Y02464D03*
X04478Y01905D03*
X04525Y0237D03*
X04528Y01986D03*
X04692Y01985D03*
X04546Y02407D03*
X04723Y02025D03*
X04506Y02032D03*
X0474Y01905D03*
X04623Y0203D03*
X03893Y01992D03*
X03913D03*
X03933D03*
X04645Y02389D03*
X04842Y01759D03*
X04862D03*
X04842Y01732D03*
X04862D03*
X05041Y02207D03*
M02*