%FSTAX23Y23*%
%MOIN*%
%SFA1B1*%

%IPPOS*%
%ADD92C,0.002000*%
%ADD93C,0.055433*%
%ADD94C,0.057401*%
%ADD95C,0.081023*%
%ADD96C,0.050000*%
%ADD97C,0.059370*%
%ADD98C,0.092834*%
%ADD99C,0.070000*%
%ADD100C,0.126299*%
%ADD101O,0.145000X0.059370*%
%ADD102C,0.027000*%
%ADD103C,0.028000*%
%ADD104C,0.030000*%
%LNatfc_copper_plane_1-1*%
%LPD*%
G36*
X03791Y03551D02*
X03767D01*
Y03614*
X03791*
Y03551*
G37*
G36*
X03866D02*
X03846D01*
Y03614*
X03866*
Y03551*
G37*
G36*
X03629Y03555D02*
X03606D01*
X03598Y03562*
Y03614*
X03629*
Y03555*
G37*
G36*
X0001Y0D02*
X0D01*
Y0001*
X0001*
Y0*
G37*
G36*
X06417Y02092D02*
X06357D01*
Y02166*
X06417*
Y02092*
G37*
G36*
X03111Y03398D02*
X03051D01*
Y03463*
X03111*
Y03398*
G37*
G36*
X03708Y03555D02*
X03685D01*
X03673Y03566*
Y03614*
X03708*
Y03555*
G37*
G36*
X03117Y04002D02*
X03042D01*
Y0408*
X03117*
Y04002*
G37*
G36*
X07061Y04351D02*
X07011D01*
Y04406*
X07061*
Y04351*
G37*
G36*
Y04411D02*
X07011D01*
Y04645*
X07061*
Y04411*
G37*
G36*
X02367Y04002D02*
X02292D01*
Y0408*
X02367*
Y04002*
G37*
G36*
X02556D02*
X02481D01*
Y0408*
X02556*
Y04002*
G37*
G36*
X02928D02*
X02853D01*
Y0408*
X02928*
Y04002*
G37*
G54D92*
X00701Y05587D02*
X07035Y05586D01*
X00701Y01439D02*
Y05587D01*
Y01439D02*
X07035D01*
Y05586*
G54D93*
X00992Y04815D03*
X04496Y04418D03*
X04396D03*
X04496Y04518D03*
X04396D03*
X04496Y04618D03*
X04396D03*
X04496Y04718D03*
X04396D03*
X04496Y04818D03*
X04396D03*
X02698Y03115D03*
X05403Y04507D03*
Y04428D03*
X05324D03*
X05245D03*
X05167D03*
X05088D03*
X05009D03*
X0493D03*
G54D94*
X02135Y04521D03*
X03258D03*
X02605Y03958D03*
X02416D03*
X02977D03*
X03166D03*
G54D95*
X02605Y04202D03*
X02227D03*
X03166Y04202D03*
X02788D03*
G54D96*
X01542Y03159D03*
Y03296D03*
X05691Y05185D03*
X05491D03*
X05391D03*
X05291D03*
X0519D03*
X05691Y05085D03*
X05491D03*
X05391D03*
X05291D03*
X0519D03*
X06591Y05185D03*
X06391D03*
X06291D03*
X06191D03*
X06091D03*
X06591Y05085D03*
X06391D03*
X06291D03*
X06191D03*
X06091D03*
G54D97*
X0497Y04468D03*
G54D98*
X0164Y04902D03*
Y05084D03*
G54D99*
X06472Y04432D03*
X06352Y02291D03*
G54D100*
X069Y01536D03*
X00801D03*
Y05487D03*
X06901D03*
G54D101*
X01176Y05086D03*
G54D102*
X03073Y02208D03*
X02893Y01732D03*
X02874D03*
X02893Y01759D03*
X02874D03*
X02677Y02389D03*
X01964Y01992D03*
X01944D03*
X01925D03*
X02654Y0203D03*
X02771Y01905D03*
X02537Y02032D03*
X02754Y02025D03*
X02577Y02407D03*
X02723Y01985D03*
X02559Y01986D03*
X02556Y0237D03*
X02509Y01906D03*
X01851Y02464D03*
X02508Y025D03*
X02449Y02194D03*
X02254Y02212D03*
X02254Y0215D03*
X02696Y02405D03*
X02789Y01966D03*
X01901Y01992D03*
X02464Y02213D03*
X02677Y02035D03*
X02822Y02224D03*
X02802Y02167D03*
X02822Y02181D03*
X02999Y02682D03*
X06011Y01488D03*
G54D103*
X03158Y03741D03*
X03212Y0387D03*
X03022Y03871D03*
X03212Y03838D03*
X03022Y0384D03*
X03158Y03772D03*
X02373Y03772D03*
Y03741D03*
X03561Y03713D03*
X03646Y03575D03*
X03989Y03428D03*
X04622Y03192D03*
X03685Y02999D03*
X0459Y03192D03*
X03685Y03038D03*
X04302Y0342D03*
X04188Y03503D03*
X04271Y03511D03*
X03559Y0287D03*
X03409Y03535D03*
Y03555D03*
X03522Y03462D03*
X03358Y0344D03*
X03585Y02909D03*
X06422Y04037D03*
X06522Y04287D03*
X06622Y04337D03*
X06422Y03937D03*
X06322Y04087D03*
X06422Y04137D03*
X06322Y04187D03*
X06422Y04237D03*
Y04337D03*
X06322Y04287D03*
X03685Y03342D03*
X03765Y03338D03*
X03843Y03339D03*
X03946Y0334D03*
X03803Y03418D03*
X03766Y0346D03*
X03767Y03535D03*
X03725Y03575D03*
X04226Y03539D03*
X03882Y03575D03*
X03976Y03681D03*
X04519Y03665D03*
X03685Y03418D03*
Y03457D03*
X03127Y03443D03*
X03736Y03704D03*
X03712D03*
X03642Y03706D03*
X04429Y02822D03*
X03346Y03279D03*
X03472Y03212D03*
Y03232D03*
X03346Y03209D03*
X03425Y03299D03*
Y03322D03*
X04437Y03259D03*
Y03283D03*
X04429Y03003D03*
Y03027D03*
Y02917D03*
Y02897D03*
X04263Y03263D03*
X04307Y02799D03*
X04267D03*
X04228D03*
X04188D03*
X04196Y02959D03*
X04304Y02962D03*
X03527Y02996D03*
X03947Y03077D03*
X03879Y02956D03*
X03759Y02996D03*
X04265Y03421D03*
X04186Y03539D03*
X04147D03*
X04029D03*
X03563Y03426D03*
X03763Y03261D03*
X03946D03*
X03843Y03262D03*
X03567Y03301D03*
X03606Y02763D03*
X03947Y02999D03*
X03986Y03038D03*
X03764Y03077D03*
X03607Y03536D03*
X03803Y03038D03*
X04196Y03381D03*
X04104Y03339D03*
X03986Y033D03*
X03949Y03227D03*
X03725Y03418D03*
X03883Y033D03*
X03803Y033D03*
X03725D03*
X03603Y03184D03*
X04843Y03741D03*
X04952Y03821D03*
X04915Y03822D03*
X04925Y04035D03*
X04994Y04052D03*
X04068Y03342D03*
Y03303D03*
Y03381D03*
X03841Y03504D03*
X03761Y03421D03*
X03612Y04872D03*
X03734Y04847D03*
X0374Y04666D03*
X0361Y04642D03*
X03507Y04678D03*
Y04835D03*
X0361Y0432D03*
X03737Y04348D03*
X03732Y04535D03*
X03618Y04563D03*
X0419Y03108D03*
X0395Y02958D03*
X04106Y03383D03*
X04033Y03309D03*
X03314Y03114D03*
X03374D03*
X03346D03*
Y03248D03*
X03377Y02921D03*
Y02897D03*
X04031Y03185D03*
X03944Y03681D03*
X04078Y03755D03*
X0411D03*
X04114Y0359D03*
X04015Y03685D03*
X04346Y03027D03*
X03783Y02704D03*
X03755D03*
X04519Y03629D03*
Y03594D03*
X03133Y0322D03*
X03078Y03137D03*
X03127Y03412D03*
X03803Y03578D03*
X0348Y03125D03*
X03984Y0272D03*
X04015D03*
X03607Y04382D03*
Y04406D03*
Y0443D03*
Y04455D03*
Y04479D03*
Y04504D03*
X03603Y04702D03*
Y04724D03*
Y04746D03*
Y04769D03*
Y04791D03*
Y04814D03*
X04047Y03685D03*
X03814Y02704D03*
X03559Y04539D03*
Y04342D03*
X0384Y02996D03*
X0395Y03111D03*
X0427Y02875D03*
X03838Y03074D03*
X03881Y03114D03*
X04066Y03035D03*
X04717Y03444D03*
X04343Y02961D03*
X04476Y03173D03*
X04879Y03741D03*
X03986Y02999D03*
X04915Y03741D03*
X03986Y02959D03*
X04952Y03741D03*
X03952Y02909D03*
X04304Y0302D03*
X04267Y03192D03*
X03992Y03543D03*
X04066Y03456D03*
X0348Y03503D03*
X03678Y03073D03*
X03722Y03227D03*
X03716Y0311D03*
X03358Y03385D03*
X03884Y03226D03*
X03948Y03161D03*
X03881Y03036D03*
X0372Y03035D03*
X04148Y03225D03*
X03685Y03499D03*
X03607Y033D03*
X05381Y0333D03*
X03607Y0326D03*
X05381Y03299D03*
X03838Y03185D03*
X03763Y03157D03*
X04307Y03147D03*
X04275Y03153D03*
X04476Y03149D03*
X06522Y03997D03*
Y04027D03*
X03646Y03221D03*
X03607D03*
X06444Y03865D03*
X03839Y02957D03*
X03681Y02917D03*
X03751Y02799D03*
X03801Y02957D03*
X03767Y02962D03*
X03948Y0272D03*
X03607Y02881D03*
X06573Y02575D03*
X03637Y02921D03*
X04593Y02496D03*
X06573Y02549D03*
X04593Y02527D03*
X03601Y02798D03*
X05602Y02739D03*
X03603Y02835D03*
X05602Y02708D03*
X03712Y02956D03*
X06422Y03497D03*
X03677Y02952D03*
X06422Y03527D03*
X0372Y02838D03*
X06522Y03547D03*
X03716Y02799D03*
X06522Y03577D03*
Y03427D03*
X03645Y02877D03*
X06522Y03397D03*
X03685Y02881D03*
X03417Y02838D03*
Y02862D03*
X06375Y02747D03*
Y02777D03*
X06598Y02363D03*
X06624Y02436D03*
X06422Y02412D03*
X06522Y03847D03*
X03834Y02917D03*
X06522Y03877D03*
X03791Y02917D03*
X04429Y02799D03*
X03834Y02878D03*
X06522Y03697D03*
X03834Y02842D03*
X06522Y03727D03*
X03755Y02912D03*
X06422Y03647D03*
X03753Y02877D03*
X06422Y03677D03*
X04348Y03426D03*
X0423Y03343D03*
X03883Y03378D03*
X04468Y03503D03*
Y0348D03*
X03914Y03381D03*
X04032Y0358D03*
X04062Y03539D03*
X04153Y03466D03*
X04011Y03499D03*
X06037Y04934D03*
X04034Y03465D03*
X06069Y04934D03*
X04231Y03501D03*
X061Y04934D03*
X04268Y0354D03*
X06132Y04933D03*
X0411Y03468D03*
X06195Y04933D03*
X04111Y0343D03*
X06165Y04932D03*
X03997Y03463D03*
X0626Y04935D03*
X06229Y04936D03*
X03566Y02799D03*
X06422Y03227D03*
Y03197D03*
X03567Y02841D03*
X05051Y02248D03*
X03607Y02999D03*
X06572Y02475D03*
X05051Y02216D03*
X03607Y03038D03*
X06572Y02449D03*
X03519Y02917D03*
X06522Y03277D03*
X03555Y02956D03*
X06522Y03247D03*
X03528Y03038D03*
X06422Y03077D03*
X03567Y03038D03*
X06422Y03047D03*
X03639Y02991D03*
X05999Y02D03*
X06523Y02649D03*
X03639Y02952D03*
X05999Y01968D03*
X06523Y02675D03*
X03598Y03114D03*
X06522Y03127D03*
X03633Y03115D03*
X06522Y03097D03*
X0353Y03153D03*
X06422Y02927D03*
X03568Y03157D03*
X06422Y02897D03*
X06622Y02697D03*
X03567Y03221D03*
X05509Y01928D03*
X06622Y02727D03*
X03567Y0326D03*
X05509Y01897D03*
X06522Y02947D03*
X03523Y03236D03*
X0533Y01897D03*
X06522Y02977D03*
X03523Y03275D03*
X0533Y01866D03*
X06522Y02797D03*
X05755Y01849D03*
X03526Y0334D03*
X06522Y02827D03*
X03526Y0338D03*
X05755Y01818D03*
X05889Y01767D03*
X03526Y03537D03*
X05889Y01736D03*
X03526Y03577D03*
X03724Y035D03*
X06372Y02449D03*
X03724Y03539D03*
X06372Y02475D03*
X03803Y03496D03*
X06372Y02649D03*
X03803Y03536D03*
X06372Y02675D03*
X03843Y03418D03*
X06374Y02064D03*
X03843Y03457D03*
X06405Y02064D03*
X03607Y03378D03*
X0642Y03377D03*
X03607Y03339D03*
X0642Y03347D03*
G54D104*
X05194Y0382D03*
X05189Y0387D03*
X05192Y0392D03*
X0519Y0397D03*
X01546Y02066D03*
X04606Y02751D03*
X04559Y02925D03*
Y02889D03*
X04728Y03015D03*
X0514Y02973D03*
X03912Y03858D03*
X04138Y03843D03*
X04139Y03887D03*
X01763Y03454D03*
Y03485D03*
X01762Y0342D03*
Y03385D03*
X01795Y03454D03*
X01796Y03485D03*
X01795Y03419D03*
Y03384D03*
X04206Y05161D03*
X04154Y05162D03*
X03471Y03893D03*
X03912Y0382D03*
Y03893D03*
X03905Y03983D03*
X03908Y04018D03*
X0414Y04019D03*
X04141Y03927D03*
X02844Y02244D03*
X02843Y02143D03*
X02491Y0207D03*
X02459Y02056D03*
X02506Y02332D03*
X02476D03*
X01712Y01609D03*
X01718Y01975D03*
Y01934D03*
Y01894D03*
Y01857D03*
Y01819D03*
X01845Y02634D03*
X01888D03*
X01934D03*
X0198D03*
X02028D03*
Y02591D03*
X0198D03*
X01934D03*
X01888D03*
X01845D03*
X01122Y02973D03*
X01092D03*
X01062D03*
X01031D03*
X00999D03*
X017Y03659D03*
X01165Y04682D03*
X01132Y04681D03*
X01188Y04712D03*
X01133Y04711D03*
X01194Y04742D03*
X01164D03*
X01133Y04741D03*
X01539Y02985D03*
X01259Y03093D03*
X03506Y03892D03*
X03775Y02489D03*
Y02457D03*
X0513Y03455D03*
Y03103D03*
X0467Y0311D03*
X03775Y0252D03*
X0435Y02566D03*
X03897Y02667D03*
X04878Y0339D03*
X03721Y05355D03*
X03868Y05351D03*
Y05234D03*
X04075Y05352D03*
X03925Y05351D03*
X04078Y05233D03*
X01519Y01966D03*
X01467Y01968D03*
X05042Y03947D03*
X05041Y03895D03*
X05042Y03846D03*
X02408Y04098D03*
X02968Y04099D03*
X03Y041D03*
X0244Y04098D03*
X02063Y0417D03*
X02064Y04736D03*
Y04701D03*
X03332Y04735D03*
Y04702D03*
X0333Y04179D03*
Y04144D03*
X01284Y02948D03*
X01384Y04904D03*
X01549Y03661D03*
X01896Y01584D03*
X02063Y04138D03*
X02797Y03099D03*
Y03134D03*
X02839Y03251D03*
Y03214D03*
X02873Y03251D03*
X01467Y01833D03*
X01519Y01832D03*
X01445Y02014D03*
X04037Y01551D03*
X03957D03*
X03997D03*
X04077D03*
X04157D03*
X04197D03*
X03917D03*
X04117D03*
X04237D03*
X02476Y03187D03*
X0266Y02549D03*
X02438Y02843D03*
X01318Y02837D03*
X01329Y03094D03*
X01294D03*
X02279Y02953D03*
X04545Y03352D03*
X03662Y04075D03*
X03463Y04015D03*
X03765Y05178D03*
X03972Y05177D03*
X05173Y04362D03*
X04417Y03881D03*
X05271Y03354D03*
X0294Y03007D03*
X02685Y02488D03*
X03937Y02456D03*
X02953Y04306D03*
X03047D03*
X03078Y04417D03*
X03015D03*
X02984D03*
X0289D03*
X02391Y04308D03*
X02486D03*
X02517Y04419D03*
X02454D03*
X02423D03*
X02328D03*
X02986Y03111D03*
X0435Y02538D03*
X0576Y05138D03*
X05113Y05144D03*
X04435Y03405D03*
X0597Y05158D03*
X06645Y05138D03*
M02*