%FSTAX23Y23*%
%MOIN*%
%SFA1B1*%

%IPPOS*%
%ADD138C,0.005000*%
%LNatfc_drillmap_1-1*%
%LPD*%
G54D138*
X08044Y05085D02*
X08074D01*
X08059Y0507D02*
Y051D01*
X08144Y05085D02*
X08174D01*
X08159Y0507D02*
Y051D01*
X08244Y05085D02*
X08274D01*
X08259Y0507D02*
Y051D01*
X08344Y05085D02*
X08374D01*
X08359Y0507D02*
Y051D01*
X08444Y05085D02*
X08474D01*
X08459Y0507D02*
Y051D01*
X08544Y05085D02*
X08574D01*
X08559Y0507D02*
Y051D01*
X08044Y05185D02*
X08074D01*
X08059Y0517D02*
Y052D01*
X08144Y05185D02*
X08174D01*
X08159Y0517D02*
Y052D01*
X08244Y05185D02*
X08274D01*
X08259Y0517D02*
Y052D01*
X08344Y05185D02*
X08374D01*
X08359Y0517D02*
Y052D01*
X08444Y05185D02*
X08474D01*
X08459Y0517D02*
Y052D01*
X08544Y05185D02*
X08574D01*
X08559Y0517D02*
Y052D01*
X07144Y05085D02*
X07174D01*
X07159Y0507D02*
Y051D01*
X07244Y05085D02*
X07274D01*
X07259Y0507D02*
Y051D01*
X07344Y05085D02*
X07374D01*
X07359Y0507D02*
Y051D01*
X07444Y05085D02*
X07474D01*
X07459Y0507D02*
Y051D01*
X07544Y05085D02*
X07574D01*
X07559Y0507D02*
Y051D01*
X07644Y05085D02*
X07674D01*
X07659Y0507D02*
Y051D01*
X07144Y05185D02*
X07174D01*
X07159Y0517D02*
Y052D01*
X07244Y05185D02*
X07274D01*
X07259Y0517D02*
Y052D01*
X07344Y05185D02*
X07374D01*
X07359Y0517D02*
Y052D01*
X07444Y05185D02*
X07474D01*
X07459Y0517D02*
Y052D01*
X07544Y05185D02*
X07574D01*
X07559Y0517D02*
Y052D01*
X07644Y05185D02*
X07674D01*
X07659Y0517D02*
Y052D01*
X02936Y05204D02*
X02975D01*
X02956Y05185D02*
Y05224D01*
X03125Y05314D02*
X03164D01*
X03145Y05295D02*
Y05334D01*
X03125Y05086D02*
X03164D01*
X03145Y05066D02*
Y05106D01*
X08466Y02121D02*
X08572D01*
X08519Y02068D02*
Y02174D01*
X08466Y04602D02*
X08572D01*
X08519Y04548D02*
Y04655D01*
X0881Y05474D02*
X08928D01*
X08869Y05414D02*
Y05533D01*
X0271Y05474D02*
X02828D01*
X02769Y05414D02*
Y05533D01*
X0271Y01537D02*
X02828D01*
X02769Y01477D02*
Y01596D01*
X0881Y01537D02*
X08928D01*
X08869Y01477D02*
Y01596D01*
X04726Y04202D02*
X04787D01*
X04756Y04171D02*
Y04232D01*
X05104Y04202D02*
X05165D01*
X05134Y04171D02*
Y04232D01*
X08295Y02291D02*
X08345D01*
X0832Y02266D02*
Y02316D01*
X08415Y04432D02*
X08465D01*
X0844Y04407D02*
Y04457D01*
X03572Y05084D02*
X03644D01*
X03608Y05047D02*
Y0512D01*
X03572Y05265D02*
X03644D01*
X03608Y05228D02*
Y05301D01*
X03572Y04902D02*
X03644D01*
X03608Y04866D02*
Y04939D01*
X06918Y04467D02*
X06958D01*
X06938Y04448D02*
Y04487D01*
X06881Y04428D02*
X06917D01*
X06899Y0441D02*
Y04446D01*
X0696Y04428D02*
X06995D01*
X06978Y0441D02*
Y04446D01*
X07039Y04428D02*
X07074D01*
X07056Y0441D02*
Y04446D01*
X07117Y04428D02*
X07153D01*
X07135Y0441D02*
Y04446D01*
X07196Y04428D02*
X07231D01*
X07214Y0441D02*
Y04446D01*
X07275Y04428D02*
X0731D01*
X07292Y0441D02*
Y04446D01*
X07354Y04428D02*
X07389D01*
X07371Y0441D02*
Y04446D01*
X06881Y04507D02*
X06917D01*
X06899Y04489D02*
Y04525D01*
X0696Y04507D02*
X06995D01*
X06978Y04489D02*
Y04525D01*
X07039Y04507D02*
X07074D01*
X07056Y04489D02*
Y04525D01*
X07117Y04507D02*
X07153D01*
X07135Y04489D02*
Y04525D01*
X07196Y04507D02*
X07231D01*
X07214Y04489D02*
Y04525D01*
X07275Y04507D02*
X0731D01*
X07292Y04489D02*
Y04525D01*
X07354Y04507D02*
X07389D01*
X07371Y04489D02*
Y04525D01*
X04648Y03115D02*
X04684D01*
X04666Y03097D02*
Y03132D01*
X04648Y03215D02*
X04684D01*
X04666Y03197D02*
Y03232D01*
X03495Y03296D02*
X03525D01*
X0351Y03281D02*
Y03311D01*
X03495Y03159D02*
X03525D01*
X0351Y03144D02*
Y03174D01*
X04165Y04202D02*
X04226D01*
X04195Y04171D02*
Y04232D01*
X04543Y04202D02*
X04604D01*
X04573Y04171D02*
Y04232D01*
X05116Y03958D02*
X05153D01*
X05134Y03939D02*
Y03976D01*
X04927Y03958D02*
X04964D01*
X04945Y03939D02*
Y03976D01*
X04366Y03958D02*
X04403D01*
X04384Y03939D02*
Y03976D01*
X04555Y03958D02*
X04592D01*
X04573Y03939D02*
Y03976D01*
X05207Y04521D02*
X05245D01*
X05226Y04502D02*
Y04539D01*
X04085Y04521D02*
X04123D01*
X04104Y04502D02*
Y04539D01*
X05205Y05418D02*
X05247D01*
X05226Y05398D02*
Y05439D01*
X05205Y05025D02*
X05247D01*
X05226Y05004D02*
Y05045D01*
X05205Y04631D02*
X05247D01*
X05226Y0461D02*
Y04652D01*
X05207Y04336D02*
X05245D01*
X05226Y04317D02*
Y04354D01*
X05207Y04139D02*
X05245D01*
X05226Y0412D02*
Y04157D01*
X04083Y05221D02*
X04125D01*
X04104Y05201D02*
Y05242D01*
X04083Y04828D02*
X04125D01*
X04104Y04807D02*
Y04848D01*
X04083Y04434D02*
X04125D01*
X04104Y04413D02*
Y04455D01*
X04083Y0404D02*
X04125D01*
X04104Y0402D02*
Y04061D01*
X04646Y0404D02*
X04684D01*
X04665Y04022D02*
Y04059D01*
X04646Y04434D02*
X04684D01*
X04665Y04415D02*
Y04453D01*
X04646Y04828D02*
X04684D01*
X04665Y04809D02*
Y04846D01*
X04646Y05221D02*
X04684D01*
X04665Y05203D02*
Y0524D01*
X06346Y04917D02*
X06382D01*
X06364Y049D02*
Y04935D01*
X06446Y04917D02*
X06482D01*
X06464Y049D02*
Y04935D01*
X06346Y04817D02*
X06382D01*
X06364Y048D02*
Y04835D01*
X06446Y04817D02*
X06482D01*
X06464Y048D02*
Y04835D01*
X06346Y04717D02*
X06382D01*
X06364Y047D02*
Y04735D01*
X06446Y04717D02*
X06482D01*
X06464Y047D02*
Y04735D01*
X06346Y04617D02*
X06382D01*
X06364Y046D02*
Y04635D01*
X06446Y04617D02*
X06482D01*
X06464Y046D02*
Y04635D01*
X06346Y04517D02*
X06382D01*
X06364Y045D02*
Y04535D01*
X06446Y04517D02*
X06482D01*
X06464Y045D02*
Y04535D01*
X06346Y04417D02*
X06382D01*
X06364Y044D02*
Y04435D01*
X06446Y04417D02*
X06482D01*
X06464Y044D02*
Y04435D01*
X06351Y05167D02*
X06477D01*
X06414Y05105D02*
Y0523D01*
X02942Y04815D02*
X02978D01*
X0296Y04797D02*
Y04832D01*
X02942Y04715D02*
X02978D01*
X0296Y04697D02*
Y04732D01*
X04858Y01732D02*
X04865D01*
X04862Y01728D02*
Y01735D01*
X04839Y01732D02*
X04846D01*
X04842Y01728D02*
Y01735D01*
X04721Y02409D02*
X04728D01*
X04725Y02405D02*
Y02412D01*
X04473Y025D02*
X0448D01*
X04476Y02496D02*
Y02503D01*
X07415Y03845D02*
X07423D01*
X07419Y03842D02*
Y0385D01*
X0565Y02999D02*
X05658D01*
X05654Y02995D02*
Y03003D01*
X06586Y03192D02*
X06594D01*
X0659Y03188D02*
Y03196D01*
X0565Y03038D02*
X05658D01*
X05654Y03034D02*
Y03042D01*
X06555Y03192D02*
X06563D01*
X06559Y03188D02*
Y03196D01*
X05597Y03772D02*
X05605D01*
X05601Y03767D02*
Y03775D01*
X08384Y03347D02*
X08392D01*
X08388Y03343D02*
Y03351D01*
X05571Y03339D02*
X05579D01*
X05575Y03335D02*
Y03343D01*
X08384Y03377D02*
X08392D01*
X08388Y03373D02*
Y03381D01*
X05571Y03378D02*
X05579D01*
X05575Y03374D02*
Y03382D01*
X0837Y02064D02*
X08378D01*
X08374Y0206D02*
Y02068D01*
X05807Y03457D02*
X05815D01*
X05811Y03453D02*
Y03461D01*
X08338Y02064D02*
X08346D01*
X08342Y0206D02*
Y02068D01*
X05807Y03418D02*
X05815D01*
X05811Y03414D02*
Y03422D01*
X08336Y02675D02*
X08344D01*
X0834Y02671D02*
Y02679D01*
X05768Y03536D02*
X05776D01*
X05772Y03532D02*
Y0354D01*
X08336Y02649D02*
X08344D01*
X0834Y02645D02*
Y02653D01*
X05768Y03496D02*
X05776D01*
X05772Y03492D02*
Y035D01*
X08336Y02475D02*
X08344D01*
X0834Y02471D02*
Y02479D01*
X05688Y03539D02*
X05696D01*
X05692Y03535D02*
Y03543D01*
X08337Y02449D02*
X08345D01*
X08341Y02445D02*
Y02452D01*
X05688Y035D02*
X05696D01*
X05692Y03495D02*
Y03504D01*
X05491Y03577D02*
X05499D01*
X05495Y03573D02*
Y03581D01*
X07854Y01736D02*
X07862D01*
X07858Y01732D02*
Y0174D01*
X05491Y03537D02*
X05499D01*
X05495Y03533D02*
Y03541D01*
X07854Y01767D02*
X07862D01*
X07858Y01763D02*
Y01771D01*
X0772Y01817D02*
X07728D01*
X07724Y01814D02*
Y01822D01*
X05491Y0338D02*
X05499D01*
X05495Y03376D02*
Y03384D01*
X08486Y02827D02*
X08494D01*
X0849Y02823D02*
Y02831D01*
X05491Y0334D02*
X05499D01*
X05495Y03336D02*
Y03344D01*
X0772Y01849D02*
X07728D01*
X07724Y01845D02*
Y01853D01*
X08486Y02797D02*
X08494D01*
X0849Y02793D02*
Y02801D01*
X07294Y01865D02*
X07302D01*
X07298Y01862D02*
Y0187D01*
X05488Y03275D02*
X05496D01*
X05492Y03271D02*
Y03279D01*
X08486Y02977D02*
X08494D01*
X0849Y02973D02*
Y02981D01*
X07294Y01897D02*
X07302D01*
X07298Y01893D02*
Y01901D01*
X05488Y03236D02*
X05496D01*
X05492Y03232D02*
Y0324D01*
X08486Y02947D02*
X08494D01*
X0849Y02943D02*
Y02951D01*
X07473Y01897D02*
X07481D01*
X07477Y01892D02*
Y019D01*
X05532Y0326D02*
X0554D01*
X05536Y03256D02*
Y03264D01*
X08586Y02727D02*
X08594D01*
X0859Y02723D02*
Y02731D01*
X07473Y01928D02*
X07481D01*
X07477Y01924D02*
Y01932D01*
X05532Y03221D02*
X0554D01*
X05536Y03217D02*
Y03225D01*
X08586Y02697D02*
X08594D01*
X0859Y02693D02*
Y02701D01*
X08386Y02897D02*
X08394D01*
X0839Y02893D02*
Y02901D01*
X05532Y03157D02*
X0554D01*
X05536Y03152D02*
Y0316D01*
X08386Y02927D02*
X08394D01*
X0839Y02923D02*
Y02931D01*
X05494Y03152D02*
X05502D01*
X05498Y03149D02*
Y03157D01*
X08486Y03097D02*
X08494D01*
X0849Y03093D02*
Y03101D01*
X05598Y03115D02*
X05606D01*
X05602Y03111D02*
Y03119D01*
X08486Y03127D02*
X08494D01*
X0849Y03123D02*
Y03131D01*
X05562Y03114D02*
X0557D01*
X05566Y0311D02*
Y03118D01*
X08487Y02675D02*
X08495D01*
X08491Y02671D02*
Y02679D01*
X07964Y01968D02*
X07972D01*
X07968Y01964D02*
Y01972D01*
X05603Y02952D02*
X05611D01*
X05607Y02948D02*
Y02956D01*
X08487Y02649D02*
X08495D01*
X08491Y02645D02*
Y02653D01*
X07964Y02D02*
X07972D01*
X07968Y01995D02*
Y02004D01*
X05603Y02991D02*
X05611D01*
X05607Y02987D02*
Y02995D01*
X08386Y03047D02*
X08394D01*
X0839Y03043D02*
Y03051D01*
X05532Y03038D02*
X0554D01*
X05536Y03034D02*
Y03042D01*
X08386Y03077D02*
X08394D01*
X0839Y03073D02*
Y03081D01*
X05492Y03038D02*
X055D01*
X05496Y03034D02*
Y03042D01*
X08486Y03247D02*
X08494D01*
X0849Y03243D02*
Y03251D01*
X05519Y02956D02*
X05527D01*
X05523Y02952D02*
Y0296D01*
X08486Y03277D02*
X08494D01*
X0849Y03273D02*
Y03281D01*
X05484Y02917D02*
X05492D01*
X05488Y02913D02*
Y02921D01*
X08536Y02449D02*
X08544D01*
X0854Y02445D02*
Y02453D01*
X05571Y03038D02*
X05579D01*
X05575Y03034D02*
Y03042D01*
X07015Y02216D02*
X07023D01*
X07019Y02212D02*
Y0222D01*
X08536Y02475D02*
X08544D01*
X0854Y02471D02*
Y02479D01*
X05571Y02999D02*
X05579D01*
X05575Y02995D02*
Y03003D01*
X07015Y02248D02*
X07023D01*
X07019Y02244D02*
Y02252D01*
X08193Y04935D02*
X08201D01*
X08197Y04932D02*
Y0494D01*
X08225Y04935D02*
X08233D01*
X08229Y0493D02*
Y04939D01*
X05961Y03462D02*
X05969D01*
X05965Y03459D02*
Y03467D01*
X0813Y04932D02*
X08138D01*
X08134Y04928D02*
Y04936D01*
X06075Y0343D02*
X06083D01*
X06079Y03425D02*
Y03434D01*
X08159Y04932D02*
X08167D01*
X08163Y04929D02*
Y04937D01*
X06074Y03467D02*
X06082D01*
X06078Y03464D02*
Y03472D01*
X08096Y04933D02*
X08104D01*
X081Y04929D02*
Y04937D01*
X06232Y0354D02*
X0624D01*
X06236Y03535D02*
Y03544D01*
X08064Y04934D02*
X08072D01*
X08068Y0493D02*
Y04938D01*
X06195Y035D02*
X06203D01*
X06199Y03497D02*
Y03505D01*
X08033Y04934D02*
X08041D01*
X08037Y0493D02*
Y04938D01*
X05998Y03465D02*
X06006D01*
X06002Y03461D02*
Y03469D01*
X08001Y04934D02*
X08009D01*
X08005Y0493D02*
Y04937D01*
X05975Y03499D02*
X05983D01*
X05979Y03495D02*
Y03503D01*
X06117Y03465D02*
X06125D01*
X06121Y03462D02*
Y0347D01*
X0607Y03685D02*
X06078D01*
X06074Y03681D02*
Y03689D01*
X06047Y03685D02*
X06055D01*
X06051Y03681D02*
Y03689D01*
X06026Y03539D02*
X06034D01*
X0603Y03535D02*
Y03542D01*
X06073Y03535D02*
X06081D01*
X06077Y03532D02*
Y0354D01*
X05996Y0358D02*
X06004D01*
X06Y03575D02*
Y03584D01*
X05952Y035D02*
X0596D01*
X05956Y03495D02*
Y03504D01*
X05864Y03427D02*
X05872D01*
X05868Y03422D02*
Y0343D01*
X05878Y0338D02*
X05886D01*
X05882Y03377D02*
Y03385D01*
X05914Y03457D02*
X05922D01*
X05918Y03454D02*
Y03462D01*
X05911Y0338D02*
X05919D01*
X05915Y03377D02*
Y03385D01*
X05842Y03424D02*
X0585D01*
X05846Y0342D02*
Y03427D01*
X06231Y03457D02*
X06239D01*
X06235Y03454D02*
Y03462D01*
X06393Y0348D02*
X06401D01*
X06397Y03476D02*
Y03484D01*
X06432Y0348D02*
X06441D01*
X06437Y03476D02*
Y03484D01*
X06393Y03503D02*
X06401D01*
X06397Y03499D02*
Y03507D01*
X06432Y03503D02*
X06441D01*
X06437Y03499D02*
Y03507D01*
X05847Y03377D02*
X05855D01*
X05851Y03374D02*
Y03382D01*
X08608Y05137D02*
X08618D01*
X08613Y05132D02*
Y05142D01*
X08743Y05129D02*
X08753D01*
X08748Y05124D02*
Y05134D01*
X07933Y05157D02*
X07943D01*
X07938Y05152D02*
Y05162D01*
X07912Y05132D02*
X07922D01*
X07917Y05127D02*
Y05137D01*
X06194Y03342D02*
X06202D01*
X06198Y03339D02*
Y03347D01*
X06236Y03314D02*
X06244D01*
X0624Y0331D02*
Y03318D01*
X06346Y03425D02*
X06354D01*
X0635Y03422D02*
Y0343D01*
X06312Y03425D02*
X0632D01*
X06316Y03422D02*
Y0343D01*
X06398Y03405D02*
X06408D01*
X06403Y034D02*
Y0341D01*
X07077Y05144D02*
X07087D01*
X07082Y05139D02*
Y05149D01*
X07003Y05144D02*
X07013D01*
X07008Y05139D02*
Y05149D01*
X07798Y05137D02*
X07808D01*
X07803Y05132D02*
Y05142D01*
X07723Y05138D02*
X07733D01*
X07728Y05133D02*
Y05143D01*
X08386Y03677D02*
X08394D01*
X0839Y03673D02*
Y03681D01*
X05717Y02877D02*
X05725D01*
X05721Y02872D02*
Y0288D01*
X08386Y03647D02*
X08394D01*
X0839Y03643D02*
Y03651D01*
X05719Y02912D02*
X05727D01*
X05723Y02907D02*
Y02915D01*
X08486Y03727D02*
X08494D01*
X0849Y03723D02*
Y03731D01*
X05799Y02842D02*
X05807D01*
X05803Y02838D02*
Y02846D01*
X08486Y03697D02*
X08494D01*
X0849Y03693D02*
Y03701D01*
X05798Y02877D02*
X05806D01*
X05802Y02874D02*
Y02882D01*
X06393Y02799D02*
X06401D01*
X06397Y02795D02*
Y02803D01*
X06432Y02822D02*
X06441D01*
X06437Y02818D02*
Y02826D01*
X06432Y02799D02*
X06441D01*
X06437Y02795D02*
Y02803D01*
X06035Y02842D02*
X06043D01*
X06039Y02838D02*
Y02846D01*
X05755Y02917D02*
X05763D01*
X05759Y02913D02*
Y02921D01*
X08486Y03877D02*
X08494D01*
X0849Y03873D02*
Y03881D01*
X05799Y02917D02*
X05807D01*
X05803Y02913D02*
Y02921D01*
X08486Y03847D02*
X08494D01*
X0849Y03843D02*
Y03851D01*
X08386Y02412D02*
X08394D01*
X0839Y02407D02*
Y02415D01*
X08589Y02435D02*
X08597D01*
X08593Y02432D02*
Y0244D01*
X08562Y02362D02*
X0857D01*
X08566Y02359D02*
Y02367D01*
X08336Y02699D02*
X08344D01*
X0834Y02695D02*
Y02703D01*
X08487Y02699D02*
X08495D01*
X08491Y02695D02*
Y02703D01*
X08309Y02064D02*
X08317D01*
X08313Y0206D02*
Y02068D01*
X07976Y01487D02*
X07983D01*
X0798Y01484D02*
Y01491D01*
X04964Y02682D02*
X0497D01*
X04967Y02678D02*
Y02685D01*
X04984Y03118D02*
X04992D01*
X04988Y03114D02*
Y03122D01*
X08336Y02625D02*
X08344D01*
X0834Y02621D02*
Y02629D01*
X08336Y02499D02*
X08344D01*
X0834Y02495D02*
Y02503D01*
X05531Y03102D02*
X05539D01*
X05535Y03098D02*
Y03106D01*
X05523Y03188D02*
X05531D01*
X05527Y03184D02*
Y03192D01*
X08339Y02777D02*
X08347D01*
X08343Y02773D02*
Y02781D01*
X08339Y02747D02*
X08347D01*
X08343Y02743D02*
Y02751D01*
X05381Y02862D02*
X05389D01*
X05385Y02858D02*
Y02866D01*
X05381Y02838D02*
X05389D01*
X05385Y02834D02*
Y02842D01*
X0565Y02881D02*
X05658D01*
X05654Y02877D02*
Y02885D01*
X08486Y03397D02*
X08494D01*
X0849Y03393D02*
Y03401D01*
X0561Y02877D02*
X05618D01*
X05614Y02873D02*
Y02881D01*
X08486Y03427D02*
X08494D01*
X0849Y03423D02*
Y03431D01*
X08486Y03577D02*
X08494D01*
X0849Y03573D02*
Y03581D01*
X05681Y02799D02*
X05689D01*
X05685Y02795D02*
Y02803D01*
X08486Y03547D02*
X08494D01*
X0849Y03543D02*
Y03551D01*
X05684Y02838D02*
X05692D01*
X05688Y02834D02*
Y02842D01*
X08386Y03527D02*
X08394D01*
X0839Y03523D02*
Y03531D01*
X05641Y02952D02*
X05649D01*
X05645Y02948D02*
Y02956D01*
X08386Y03497D02*
X08394D01*
X0839Y03493D02*
Y03501D01*
X05677Y02956D02*
X05685D01*
X05681Y02952D02*
Y0296D01*
X07566Y02707D02*
X07574D01*
X0757Y02704D02*
Y02712D01*
X05567Y02835D02*
X05575D01*
X05571Y0283D02*
Y02839D01*
X07566Y02739D02*
X07574D01*
X0757Y02735D02*
Y02743D01*
X05565Y02797D02*
X05573D01*
X05569Y02794D02*
Y02802D01*
X07015Y02279D02*
X07023D01*
X07019Y02275D02*
Y02283D01*
X07566Y02676D02*
X07574D01*
X0757Y02672D02*
Y0268D01*
X07566Y0277D02*
X07574D01*
X0757Y02767D02*
Y02775D01*
X06557Y02527D02*
X06565D01*
X06561Y02523D02*
Y02532D01*
X06313Y02537D02*
X06323D01*
X06318Y02532D02*
Y02542D01*
X05642Y0284D02*
X0565D01*
X05646Y02837D02*
Y02845D01*
X08537Y02549D02*
X08545D01*
X08541Y02545D02*
Y02553D01*
X06557Y02496D02*
X06565D01*
X06561Y02492D02*
Y025D01*
X05602Y02921D02*
X0561D01*
X05606Y02917D02*
Y02925D01*
X08537Y02575D02*
X08545D01*
X08541Y02571D02*
Y02579D01*
X05571Y02881D02*
X05579D01*
X05575Y02877D02*
Y02885D01*
X05913Y0272D02*
X05921D01*
X05917Y02716D02*
Y02724D01*
X05798Y02762D02*
X05806D01*
X05802Y02759D02*
Y02767D01*
X05764Y02876D02*
X05772D01*
X05768Y02872D02*
Y0288D01*
X05731Y02962D02*
X05739D01*
X05735Y02957D02*
Y02965D01*
X05765Y02957D02*
X05773D01*
X05769Y02952D02*
Y0296D01*
X05715Y02799D02*
X05723D01*
X05719Y02795D02*
Y02802D01*
X05645Y02917D02*
X05653D01*
X05649Y02913D02*
Y02921D01*
X05803Y02957D02*
X05811D01*
X05807Y02952D02*
Y0296D01*
X05765Y02996D02*
X05773D01*
X05769Y02992D02*
Y03D01*
X05846Y02917D02*
X05854D01*
X0585Y02913D02*
Y02921D01*
X08408Y03865D02*
X08416D01*
X08412Y0386D02*
Y03869D01*
X05571Y03221D02*
X05579D01*
X05575Y03217D02*
Y03225D01*
X0561Y03221D02*
X05618D01*
X05614Y03217D02*
Y03225D01*
X08486Y04027D02*
X08494D01*
X0849Y04023D02*
Y04031D01*
X08486Y03997D02*
X08494D01*
X0849Y03993D02*
Y04001D01*
X06401Y03149D02*
X06409D01*
X06405Y03145D02*
Y03153D01*
X0644Y03149D02*
X06448D01*
X06444Y03145D02*
Y03153D01*
X06401Y03173D02*
X06409D01*
X06405Y03169D02*
Y03177D01*
X0624Y03153D02*
X06248D01*
X06244Y03149D02*
Y03157D01*
X06271Y03147D02*
X06279D01*
X06275Y03142D02*
Y0315D01*
X05728Y03157D02*
X05736D01*
X05732Y03153D02*
Y03161D01*
X05763Y03157D02*
X05771D01*
X05767Y03153D02*
Y03161D01*
X05803Y03185D02*
X05811D01*
X05807Y03181D02*
Y03189D01*
X05684Y03157D02*
X05692D01*
X05688Y03153D02*
Y03161D01*
X05644Y03271D02*
X05652D01*
X05648Y03267D02*
Y03275D01*
X05724Y0311D02*
X05732D01*
X05728Y03106D02*
Y03114D01*
X05763Y0311D02*
X05771D01*
X05767Y03106D02*
Y03114D01*
X05725Y03224D02*
X05733D01*
X05729Y0322D02*
Y03228D01*
X05765Y03224D02*
X05773D01*
X05769Y0322D02*
Y03228D01*
X06618Y03192D02*
X06626D01*
X06622Y03188D02*
Y03196D01*
X05649Y035D02*
X05657D01*
X05653Y03495D02*
Y03503D01*
X06228Y03036D02*
X06237D01*
X06232Y03032D02*
Y0304D01*
X06237Y02917D02*
X06245D01*
X06241Y02913D02*
Y02921D01*
X05645Y03114D02*
X05653D01*
X05649Y0311D02*
Y03118D01*
X06112Y03225D02*
X0612D01*
X06116Y0322D02*
Y03229D01*
X05724Y03035D02*
X05732D01*
X05728Y03031D02*
Y03039D01*
X05684Y03035D02*
X05692D01*
X05688Y03031D02*
Y03039D01*
X05606Y03417D02*
X05614D01*
X0561Y03413D02*
Y03421D01*
X05846Y03036D02*
X05854D01*
X0585Y03032D02*
Y0304D01*
X05913Y03161D02*
X05921D01*
X05917Y03157D02*
Y03165D01*
X04949Y0311D02*
X04959D01*
X04954Y03105D02*
Y03115D01*
X05385Y03389D02*
X05393D01*
X05389Y03385D02*
Y03393D01*
X05322Y03385D02*
X0533D01*
X05326Y03381D02*
Y03389D01*
X05681Y0311D02*
X05689D01*
X05685Y03106D02*
Y03114D01*
X05686Y03227D02*
X05694D01*
X0569Y03222D02*
Y0323D01*
X05642Y03073D02*
X0565D01*
X05646Y03069D02*
Y03077D01*
X05724Y03299D02*
X05732D01*
X05728Y03295D02*
Y03303D01*
X05444Y03503D02*
X05452D01*
X05448Y03499D02*
Y03507D01*
X06031Y03456D02*
X06039D01*
X06035Y03452D02*
Y0346D01*
X05956Y03543D02*
X05964D01*
X0596Y03539D02*
Y03547D01*
X05909Y03539D02*
X05917D01*
X05913Y03535D02*
Y03543D01*
X06409Y03665D02*
X06417D01*
X06413Y03661D02*
Y03669D01*
X06232Y03192D02*
X0624D01*
X06236Y03188D02*
Y03196D01*
X06269Y0302D02*
X06277D01*
X06273Y03016D02*
Y03024D01*
X05917Y02909D02*
X05925D01*
X05921Y02905D02*
Y02913D01*
X06916Y0374D02*
X06924D01*
X0692Y03737D02*
Y03745D01*
X05951Y02959D02*
X05959D01*
X05955Y02955D02*
Y02963D01*
X0688Y0374D02*
X06888D01*
X06884Y03737D02*
Y03745D01*
X05951Y02999D02*
X05959D01*
X05955Y02995D02*
Y03003D01*
X06843Y0374D02*
X06851D01*
X06847Y03737D02*
Y03745D01*
X0644Y03173D02*
X06448D01*
X06444Y03169D02*
Y03177D01*
X06307Y0296D02*
X06315D01*
X06311Y02957D02*
Y02965D01*
X06681Y03444D02*
X06689D01*
X06685Y0344D02*
Y03447D01*
X06547Y0335D02*
X06555D01*
X06551Y03346D02*
Y03354D01*
X06031Y03035D02*
X06039D01*
X06035Y03031D02*
Y03039D01*
X05846Y03114D02*
X05854D01*
X0585Y0311D02*
Y03118D01*
X05684Y03078D02*
X05692D01*
X05688Y03074D02*
Y03082D01*
X05763Y03078D02*
X05771D01*
X05767Y03074D02*
Y03082D01*
X05846Y03078D02*
X05854D01*
X0585Y03074D02*
Y03082D01*
X05956Y03075D02*
X05964D01*
X0596Y0307D02*
Y03079D01*
X05803Y03074D02*
X05811D01*
X05807Y0307D02*
Y03078D01*
X06234Y02875D02*
X06242D01*
X06238Y0287D02*
Y02879D01*
X0557Y02955D02*
X05578D01*
X05574Y02951D02*
Y02959D01*
X05914Y0311D02*
X05922D01*
X05918Y03107D02*
Y03115D01*
X05804Y02996D02*
X05812D01*
X05808Y02992D02*
Y03D01*
X05523Y04342D02*
X05531D01*
X05527Y04338D02*
Y04346D01*
X05523Y04539D02*
X05531D01*
X05527Y04535D02*
Y04543D01*
X04787Y02181D02*
X04794D01*
X04791Y02177D02*
Y02184D01*
X04767Y02167D02*
X04774D01*
X0477Y02163D02*
Y0217D01*
X04787Y02224D02*
X04794D01*
X04791Y0222D02*
Y02227D01*
X05779Y02704D02*
X05787D01*
X05783Y027D02*
Y02708D01*
X06011Y03685D02*
X06019D01*
X06015Y03681D02*
Y03689D01*
X05567Y04814D02*
X05575D01*
X05571Y0481D02*
Y04817D01*
X04292Y04419D02*
X04302D01*
X04297Y04414D02*
Y04424D01*
X05567Y04791D02*
X05575D01*
X05571Y04787D02*
Y04795D01*
X04386Y04419D02*
X04396D01*
X04391Y04414D02*
Y04424D01*
X05567Y04769D02*
X05575D01*
X05571Y04765D02*
Y04773D01*
X04417Y04419D02*
X04427D01*
X04422Y04414D02*
Y04424D01*
X05567Y04746D02*
X05575D01*
X05571Y04742D02*
Y0475D01*
X0448Y04419D02*
X0449D01*
X04485Y04414D02*
Y04424D01*
X05567Y04724D02*
X05575D01*
X05571Y0472D02*
Y04728D01*
X04449Y04307D02*
X04459D01*
X04454Y04302D02*
Y04312D01*
X05567Y04702D02*
X05575D01*
X05571Y04697D02*
Y04705D01*
X04355Y04307D02*
X04365D01*
X0436Y04302D02*
Y04312D01*
X05571Y04504D02*
X05579D01*
X05575Y045D02*
Y04507D01*
X04853Y04417D02*
X04863D01*
X04858Y04412D02*
Y04422D01*
X05571Y04479D02*
X05579D01*
X05575Y04475D02*
Y04483D01*
X04947Y04417D02*
X04957D01*
X04952Y04412D02*
Y04422D01*
X05571Y04455D02*
X05579D01*
X05575Y04451D02*
Y04459D01*
X04979Y04417D02*
X04989D01*
X04984Y04412D02*
Y04422D01*
X05571Y0443D02*
X05579D01*
X05575Y04426D02*
Y04434D01*
X05042Y04417D02*
X05052D01*
X05047Y04412D02*
Y04422D01*
X05571Y04406D02*
X05579D01*
X05575Y04402D02*
Y0441D01*
X0501Y04305D02*
X0502D01*
X05015Y043D02*
Y0431D01*
X05571Y04382D02*
X05579D01*
X05575Y04377D02*
Y04385D01*
X04916Y04305D02*
X04926D01*
X04921Y043D02*
Y0431D01*
X0598Y0272D02*
X05988D01*
X05984Y02716D02*
Y02724D01*
X05948Y0272D02*
X05956D01*
X05952Y02716D02*
Y02724D01*
X05913Y02606D02*
X05921D01*
X05917Y02602D02*
Y0261D01*
X059Y02456D02*
X0591D01*
X05905Y02451D02*
Y02461D01*
X05444Y03125D02*
X05452D01*
X05448Y03121D02*
Y0313D01*
X05854Y03622D02*
X05862D01*
X05858Y03618D02*
Y03626D01*
X05807Y03535D02*
X05815D01*
X05811Y03531D02*
Y03539D01*
X05767Y03578D02*
X05775D01*
X05771Y03574D02*
Y03582D01*
X05913Y035D02*
X05921D01*
X05917Y03495D02*
Y03504D01*
X04642Y02035D02*
X04649D01*
X04645Y02031D02*
Y02038D01*
X04429Y02212D02*
X04436D01*
X04432Y02209D02*
Y02216D01*
X05091Y03412D02*
X05099D01*
X05095Y03408D02*
Y03416D01*
X05043Y03137D02*
X05051D01*
X05047Y03133D02*
Y03141D01*
X04648Y02488D02*
X04658D01*
X04653Y02483D02*
Y02493D01*
X03866Y01992D02*
X03873D01*
X0387Y01988D02*
Y01995D01*
X03487Y03586D02*
X03497D01*
X03492Y03581D02*
Y03591D01*
X05846Y02996D02*
X05854D01*
X0585Y02992D02*
Y03D01*
X0648Y03472D02*
X06488D01*
X06484Y03468D02*
Y03476D01*
X05161Y0324D02*
X05169D01*
X05165Y03236D02*
Y03244D01*
X05098Y0322D02*
X05106D01*
X05102Y03216D02*
Y03224D01*
X04825Y03031D02*
X04835D01*
X0483Y03026D02*
Y03036D01*
X04904Y03007D02*
X04914D01*
X04909Y03002D02*
Y03012D01*
X07302Y03279D02*
X07312D01*
X07307Y03274D02*
Y03284D01*
X07235Y03354D02*
X07245D01*
X0724Y03349D02*
Y03359D01*
X0598Y02606D02*
X05988D01*
X05984Y02602D02*
Y0261D01*
X05944Y02606D02*
X05952D01*
X05948Y02602D02*
Y0261D01*
X05758Y03815D02*
X05766D01*
X05762Y03812D02*
Y0382D01*
X06484Y03594D02*
X06492D01*
X06488Y0359D02*
Y03598D01*
X06484Y03629D02*
X06492D01*
X06488Y03625D02*
Y03633D01*
X06409Y03594D02*
X06417D01*
X06413Y0359D02*
Y03598D01*
X06409Y03629D02*
X06417D01*
X06413Y03625D02*
Y03633D01*
X0638Y03881D02*
X0639D01*
X06385Y03876D02*
Y03886D01*
X05518Y04019D02*
X05528D01*
X05523Y04014D02*
Y04024D01*
X06246Y02527D02*
X06256D01*
X06251Y02522D02*
Y02532D01*
X0572Y02704D02*
X05728D01*
X05724Y027D02*
Y02708D01*
X05747Y02704D02*
X05755D01*
X05751Y027D02*
Y02708D01*
X05775Y02629D02*
X05783D01*
X05779Y02625D02*
Y02633D01*
X05747Y02629D02*
X05755D01*
X05751Y02625D02*
Y02633D01*
X0572Y02629D02*
X05728D01*
X05724Y02625D02*
Y02633D01*
X03542Y02877D02*
X03552D01*
X03547Y02872D02*
Y02882D01*
X0351Y02877D02*
X0352D01*
X03515Y02872D02*
Y02882D01*
X03483Y02877D02*
X03493D01*
X03488Y02872D02*
Y02882D01*
X03337Y03996D02*
X03347D01*
X03342Y03991D02*
Y04001D01*
X0631Y03027D02*
X06318D01*
X06314Y03023D02*
Y03031D01*
X0598Y03685D02*
X05988D01*
X05984Y03681D02*
Y03689D01*
X06078Y0359D02*
X06086D01*
X06082Y03586D02*
Y03594D01*
X06074Y03755D02*
X06082D01*
X06078Y03751D02*
Y03759D01*
X06043Y03755D02*
X06051D01*
X06047Y03751D02*
Y03759D01*
X06011Y03755D02*
X06019D01*
X06015Y03751D02*
Y03759D01*
X05984Y03755D02*
X05992D01*
X05988Y03751D02*
Y03759D01*
X05932Y03755D02*
X05941D01*
X05937Y03751D02*
Y03759D01*
X05909Y03755D02*
X05917D01*
X05913Y03751D02*
Y03759D01*
X05909Y03681D02*
X05917D01*
X05913Y03677D02*
Y03685D01*
X05995Y03185D02*
X06004D01*
X06Y03181D02*
Y03189D01*
X06157Y03153D02*
X06165D01*
X06161Y03149D02*
Y03157D01*
X05647Y03539D02*
X05655D01*
X05651Y03535D02*
Y03543D01*
X04754Y01966D02*
X04761D01*
X04758Y01963D02*
Y0197D01*
X04661Y02405D02*
X04668D01*
X04665Y02402D02*
Y02409D01*
X04488Y02409D02*
X04495D01*
X04492Y02405D02*
Y02412D01*
X04719Y0236D02*
X04726D01*
X04723Y02357D02*
Y02364D01*
X04699Y0236D02*
X04706D01*
X04703Y02357D02*
Y02364D01*
X05342Y02838D02*
X0535D01*
X05346Y02834D02*
Y02842D01*
X05342Y02862D02*
X0535D01*
X05346Y02858D02*
Y02866D01*
X05381Y02897D02*
X05389D01*
X05385Y02893D02*
Y02901D01*
X05381Y02921D02*
X05389D01*
X05385Y02917D02*
Y02925D01*
X05342Y02897D02*
X0535D01*
X05346Y02893D02*
Y02901D01*
X05342Y02921D02*
X0535D01*
X05346Y02917D02*
Y02925D01*
X0557Y02724D02*
X05578D01*
X05574Y0272D02*
Y02728D01*
X03833Y04629D02*
X03843D01*
X03838Y04624D02*
Y04634D01*
X03833Y04696D02*
X03843D01*
X03838Y04691D02*
Y04701D01*
X03829Y04251D02*
X03839D01*
X03834Y04246D02*
Y04256D01*
X03829Y04188D02*
X03839D01*
X03834Y04183D02*
Y04193D01*
X05424Y04661D02*
X05434D01*
X05429Y04656D02*
Y04666D01*
X05487Y04614D02*
X05497D01*
X05492Y04609D02*
Y04619D01*
X05483Y04267D02*
X05493D01*
X05488Y04262D02*
Y04272D01*
X05483Y04188D02*
X05493D01*
X05488Y04183D02*
Y04193D01*
X06448Y03972D02*
X06456D01*
X06452Y03968D02*
Y03976D01*
X07132Y04291D02*
X07142D01*
X07137Y04286D02*
Y04296D01*
X07136Y04362D02*
X07146D01*
X07141Y04357D02*
Y04367D01*
X07415Y03895D02*
X07423D01*
X07419Y0389D02*
Y03899D01*
X04203Y03334D02*
X04213D01*
X04208Y03329D02*
Y03339D01*
X0531Y03248D02*
X05318D01*
X05314Y03244D02*
Y03252D01*
X0524Y03248D02*
X05248D01*
X05244Y03244D02*
Y03252D01*
X05338Y03043D02*
X05346D01*
X05342Y03039D02*
Y03047D01*
X05307Y03043D02*
X05315D01*
X05311Y03039D02*
Y03047D01*
X05279Y03043D02*
X05287D01*
X05283Y03039D02*
Y03047D01*
X0531Y03114D02*
X05318D01*
X05314Y0311D02*
Y03118D01*
X05338Y03114D02*
X05346D01*
X05342Y0311D02*
Y03118D01*
X05279Y03114D02*
X05287D01*
X05283Y0311D02*
Y03118D01*
X03455Y02062D02*
X03465D01*
X0346Y02057D02*
Y02067D01*
X05525Y03503D02*
X05533D01*
X05529Y03499D02*
Y03507D01*
X04911Y03357D02*
X04921D01*
X04916Y03352D02*
Y03362D01*
X05935Y05177D02*
X05945D01*
X0594Y05172D02*
Y05182D01*
X05728Y05178D02*
X05738D01*
X05733Y05173D02*
Y05183D01*
X0617Y05372D02*
X0618D01*
X06175Y05367D02*
Y05377D01*
X06117Y05375D02*
X06127D01*
X06122Y0537D02*
Y0538D01*
X05426Y04015D02*
X05436D01*
X05431Y0401D02*
Y0402D01*
X05625Y04075D02*
X05635D01*
X0563Y0407D02*
Y0408D01*
X05997Y03309D02*
X06005D01*
X06001Y03305D02*
Y03312D01*
X06508Y03352D02*
X06518D01*
X06513Y03347D02*
Y03357D01*
X0607Y03382D02*
X06078D01*
X06074Y03379D02*
Y03387D01*
X05914Y02957D02*
X05922D01*
X05918Y02954D02*
Y02962D01*
X06154Y03107D02*
X06162D01*
X06158Y03104D02*
Y03112D01*
X05582Y04562D02*
X0559D01*
X05586Y04559D02*
Y04567D01*
X05697Y04535D02*
X05705D01*
X05701Y04531D02*
Y04539D01*
X05701Y04348D02*
X05709D01*
X05705Y04344D02*
Y04352D01*
X05574Y0432D02*
X05582D01*
X05578Y04315D02*
Y04324D01*
X05471Y04835D02*
X05479D01*
X05475Y04831D02*
Y04839D01*
X05471Y04678D02*
X05479D01*
X05475Y04674D02*
Y04682D01*
X05574Y04642D02*
X05582D01*
X05578Y04638D02*
Y04646D01*
X05704Y04666D02*
X05712D01*
X05708Y04662D02*
Y0467D01*
X05698Y04847D02*
X05706D01*
X05702Y04842D02*
Y0485D01*
X05576Y04872D02*
X05584D01*
X0558Y04867D02*
Y04875D01*
X04242Y02952D02*
X04252D01*
X04247Y02947D02*
Y02957D01*
X05725Y0342D02*
X05733D01*
X05729Y03417D02*
Y03425D01*
X05805Y03504D02*
X05813D01*
X05809Y035D02*
Y03507D01*
X03257Y03037D02*
X03265D01*
X03261Y03034D02*
Y03041D01*
X03259Y03094D02*
X03265D01*
X03262Y03091D02*
Y03098D01*
X03264Y03184D02*
X03274D01*
X03269Y03179D02*
Y03189D01*
X03294Y03038D02*
X033D01*
X03297Y03035D02*
Y03042D01*
X03294Y03094D02*
X033D01*
X03297Y03091D02*
Y03098D01*
X03227Y03183D02*
X03237D01*
X03232Y03178D02*
Y03188D01*
X03281Y02837D02*
X03291D01*
X03286Y02832D02*
Y02842D01*
X04401Y02842D02*
X04411D01*
X04406Y02837D02*
Y02847D01*
X04623Y02549D02*
X04633D01*
X04628Y02544D02*
Y02554D01*
X0444Y03187D02*
X0445D01*
X04445Y03182D02*
Y03192D01*
X062Y0155D02*
X0621D01*
X06205Y01545D02*
Y01555D01*
X0608Y0155D02*
X0609D01*
X06085Y01545D02*
Y01555D01*
X0588Y0155D02*
X0589D01*
X05885Y01545D02*
Y01555D01*
X0616Y0155D02*
X0617D01*
X06165Y01545D02*
Y01555D01*
X0612Y0155D02*
X0613D01*
X06125Y01545D02*
Y01555D01*
X0604Y0155D02*
X0605D01*
X06045Y01545D02*
Y01555D01*
X0596Y0155D02*
X0597D01*
X05965Y01545D02*
Y01555D01*
X0592Y0155D02*
X0593D01*
X05925Y01545D02*
Y01555D01*
X06Y0155D02*
X0601D01*
X06005Y01545D02*
Y01555D01*
X03408Y02014D02*
X03418D01*
X03413Y02009D02*
Y02019D01*
X03482Y01832D02*
X03492D01*
X03487Y01827D02*
Y01837D01*
X0343Y01833D02*
X0344D01*
X03435Y01828D02*
Y01838D01*
X04836Y0325D02*
X04846D01*
X04841Y03245D02*
Y03255D01*
X04802Y03214D02*
X04812D01*
X04807Y03209D02*
Y03219D01*
X04802Y0325D02*
X04812D01*
X04807Y03245D02*
Y03255D01*
X0476Y03134D02*
X0477D01*
X04765Y03129D02*
Y03139D01*
X0476Y03099D02*
X0477D01*
X04765Y03094D02*
Y03104D01*
X05091Y0338D02*
X05099D01*
X05095Y03377D02*
Y03385D01*
X06033Y03381D02*
X06041D01*
X06037Y03377D02*
Y03385D01*
X06033Y03303D02*
X06041D01*
X06037Y03299D02*
Y03307D01*
X06033Y03342D02*
X06041D01*
X06037Y03338D02*
Y03346D01*
X04026Y04137D02*
X04036D01*
X04031Y04132D02*
Y04142D01*
X04337Y0371D02*
X04345D01*
X04341Y03706D02*
Y03714D01*
X0386Y01584D02*
X0387D01*
X03865Y01579D02*
Y01589D01*
X03512Y0366D02*
X03522D01*
X03517Y03655D02*
Y03665D01*
X03347Y04904D02*
X03357D01*
X03352Y04899D02*
Y04909D01*
X03247Y02947D02*
X03257D01*
X03252Y02942D02*
Y02952D01*
X05293Y04144D02*
X05303D01*
X05298Y04139D02*
Y04149D01*
X05293Y04179D02*
X05303D01*
X05298Y04174D02*
Y04184D01*
X05295Y04702D02*
X05305D01*
X053Y04697D02*
Y04707D01*
X05295Y04735D02*
X05305D01*
X053Y0473D02*
Y0474D01*
X04027Y047D02*
X04037D01*
X04032Y04695D02*
Y04705D01*
X04027Y04735D02*
X04037D01*
X04032Y0473D02*
Y0474D01*
X04026Y0417D02*
X04036D01*
X04031Y04165D02*
Y04175D01*
X04773Y04865D02*
X04783D01*
X04778Y0486D02*
Y0487D01*
X04833Y04865D02*
X04843D01*
X04838Y0486D02*
Y0487D01*
X04893Y04865D02*
X04903D01*
X04898Y0486D02*
Y0487D01*
X04953Y04865D02*
X04963D01*
X04958Y0486D02*
Y0487D01*
X05013Y04865D02*
X05023D01*
X05018Y0486D02*
Y0487D01*
X05073Y04865D02*
X05083D01*
X05078Y0486D02*
Y0487D01*
X05133Y04865D02*
X05143D01*
X05138Y0486D02*
Y0487D01*
X04557Y04865D02*
X04567D01*
X04562Y0486D02*
Y0487D01*
X04497Y04865D02*
X04507D01*
X04502Y0486D02*
Y0487D01*
X04437Y04865D02*
X04447D01*
X04442Y0486D02*
Y0487D01*
X04377Y04865D02*
X04387D01*
X04382Y0486D02*
Y0487D01*
X04317Y04865D02*
X04327D01*
X04322Y0486D02*
Y0487D01*
X04257Y04865D02*
X04267D01*
X04262Y0486D02*
Y0487D01*
X04197Y04865D02*
X04207D01*
X04202Y0486D02*
Y0487D01*
X04403Y04097D02*
X04413D01*
X04408Y04092D02*
Y04102D01*
X06958Y04052D02*
X06966D01*
X06962Y04047D02*
Y04055D01*
X06889Y04035D02*
X06897D01*
X06893Y0403D02*
Y04039D01*
X0688Y03822D02*
X06888D01*
X06884Y03818D02*
Y03826D01*
X06916Y0382D02*
X06924D01*
X0692Y03817D02*
Y03825D01*
X06807Y0374D02*
X06815D01*
X06811Y03737D02*
Y03745D01*
X04246Y04097D02*
X04256D01*
X04251Y04092D02*
Y04102D01*
X0434Y04097D02*
X0435D01*
X04345Y04092D02*
Y04102D01*
X04806Y041D02*
X04816D01*
X04811Y04095D02*
Y04105D01*
X04901Y041D02*
X04911D01*
X04906Y04095D02*
Y04105D01*
X04323Y04307D02*
X04333D01*
X04328Y04302D02*
Y04312D01*
X04885Y04305D02*
X04895D01*
X0489Y043D02*
Y0431D01*
X04822Y04305D02*
X04832D01*
X04827Y043D02*
Y0431D01*
X05073Y04305D02*
X05083D01*
X05078Y043D02*
Y0431D01*
X0479Y04305D02*
X048D01*
X04795Y043D02*
Y0431D01*
X0426Y04307D02*
X0427D01*
X04265Y04302D02*
Y04312D01*
X04229Y04307D02*
X04239D01*
X04234Y04302D02*
Y04312D01*
X05089Y041D02*
X05099D01*
X05094Y04095D02*
Y04105D01*
X04995Y041D02*
X05005D01*
X05Y04095D02*
Y04105D01*
X04963Y041D02*
X04973D01*
X04968Y04095D02*
Y04105D01*
X04932Y041D02*
X04942D01*
X04937Y04095D02*
Y04105D01*
X04529Y04097D02*
X04539D01*
X04534Y04092D02*
Y04102D01*
X04435Y04097D02*
X04445D01*
X0444Y04092D02*
Y04102D01*
X04372Y04097D02*
X04382D01*
X04377Y04092D02*
Y04102D01*
X07005Y03845D02*
X07015D01*
X0701Y0384D02*
Y0385D01*
X07004Y03895D02*
X07014D01*
X07009Y0389D02*
Y039D01*
X07005Y03947D02*
X07015D01*
X0701Y03942D02*
Y03952D01*
X0343Y01968D02*
X0344D01*
X03435Y01963D02*
Y01973D01*
X03482Y01966D02*
X03492D01*
X03487Y01961D02*
Y01971D01*
X06041Y05232D02*
X06051D01*
X06046Y05227D02*
Y05237D01*
X05888Y0535D02*
X05898D01*
X05893Y05345D02*
Y05355D01*
X06038Y05352D02*
X06048D01*
X06043Y05347D02*
Y05357D01*
X05831Y05234D02*
X05841D01*
X05836Y05229D02*
Y05239D01*
X05831Y0535D02*
X05841D01*
X05836Y05345D02*
Y05355D01*
X05684Y05355D02*
X05694D01*
X05689Y0535D02*
Y0536D01*
X06841Y0339D02*
X06851D01*
X06846Y03385D02*
Y03395D01*
X05567Y03184D02*
X05575D01*
X05571Y0318D02*
Y03188D01*
X05686Y03381D02*
X05694D01*
X0569Y03377D02*
Y03385D01*
X06557Y02465D02*
X06565D01*
X06561Y0246D02*
Y02469D01*
X06557Y02559D02*
X06565D01*
X06561Y02555D02*
Y02563D01*
X0586Y02667D02*
X0587D01*
X05865Y02662D02*
Y02672D01*
X06313Y02566D02*
X06323D01*
X06318Y02561D02*
Y02571D01*
X05977Y0252D02*
X05987D01*
X05982Y02515D02*
Y02525D01*
X05689Y033D02*
X05697D01*
X05693Y03296D02*
Y03304D01*
X05768Y033D02*
X05776D01*
X05772Y03296D02*
Y03304D01*
X05847Y033D02*
X05855D01*
X05851Y03295D02*
Y03304D01*
X05689Y03418D02*
X05697D01*
X05693Y03414D02*
Y03422D01*
X05804Y03381D02*
X05812D01*
X05808Y03377D02*
Y03385D01*
X04986Y03807D02*
X04994D01*
X0499Y03803D02*
Y03811D01*
X05913Y03227D02*
X05921D01*
X05917Y03222D02*
Y0323D01*
X05738Y0252D02*
X05748D01*
X05743Y02515D02*
Y02525D01*
X057D02*
X0571D01*
X05705Y0252D02*
Y0253D01*
X05765Y03263D02*
X05773D01*
X05769Y03259D02*
Y03267D01*
X05951Y033D02*
X05959D01*
X05955Y03296D02*
Y03304D01*
X06069Y03339D02*
X06077D01*
X06073Y03335D02*
Y03343D01*
X06161Y03381D02*
X06169D01*
X06165Y03377D02*
Y03385D01*
X06633Y0311D02*
X06643D01*
X06638Y03105D02*
Y03115D01*
X07094Y03102D02*
X07104D01*
X07099Y03097D02*
Y03107D01*
X07094Y03455D02*
X07104D01*
X07099Y0345D02*
Y0346D01*
X05768Y03038D02*
X05776D01*
X05772Y03034D02*
Y03042D01*
X05568Y035D02*
X05576D01*
X05572Y03496D02*
Y03504D01*
X05571Y03536D02*
X05579D01*
X05575Y03532D02*
Y0354D01*
X05729Y03077D02*
X05737D01*
X05733Y03073D02*
Y03081D01*
X05951Y03038D02*
X05959D01*
X05955Y03034D02*
Y03042D01*
X05911Y02999D02*
X05919D01*
X05915Y02995D02*
Y03003D01*
X05738Y02457D02*
X05748D01*
X05743Y02452D02*
Y02462D01*
X05738Y02489D02*
X05748D01*
X05743Y02484D02*
Y02494D01*
X05091Y03475D02*
X05099D01*
X05095Y03471D02*
Y03479D01*
X0557Y02762D02*
X05578D01*
X05574Y02759D02*
Y02767D01*
X04337Y03804D02*
X04345D01*
X04341Y038D02*
Y03808D01*
X05469Y03892D02*
X05479D01*
X05474Y03887D02*
Y03897D01*
X04904Y02215D02*
X04911D01*
X04908Y02211D02*
Y02218D01*
X04904Y02197D02*
X04911D01*
X04908Y02193D02*
Y022D01*
X04868Y02064D02*
X04875D01*
X04872Y0206D02*
Y02067D01*
X0485Y02064D02*
X04857D01*
X04854Y0206D02*
Y02067D01*
X04832Y02064D02*
X04839D01*
X04836Y0206D02*
Y02067D01*
X04608Y02499D02*
X04615D01*
X04612Y02495D02*
Y02502D01*
X04219Y0215D02*
X04226D01*
X04222Y02146D02*
Y02153D01*
X04219Y02212D02*
X04226D01*
X04222Y02208D02*
Y02215D01*
X04414Y02194D02*
X04421D01*
X04418Y0219D02*
Y02197D01*
X04605Y0193D02*
X04612D01*
X04609Y01927D02*
Y01934D01*
X0463Y01944D02*
X04637D01*
X04634Y0194D02*
Y01947D01*
X04581Y01944D02*
X04588D01*
X04585Y0194D02*
Y01947D01*
X03816Y02464D02*
X03823D01*
X0382Y0246D02*
Y02467D01*
X04474Y01905D02*
X04481D01*
X04478Y01902D02*
Y01909D01*
X04686Y02117D02*
X04693D01*
X04689Y02113D02*
Y0212D01*
X04608Y02117D02*
X04615D01*
X04612Y02113D02*
Y0212D01*
X04531Y02117D02*
X04538D01*
X04534Y02113D02*
Y0212D01*
X04569Y02117D02*
X04576D01*
X04573Y02113D02*
Y0212D01*
X04647Y02117D02*
X04654D01*
X0465Y02113D02*
Y0212D01*
X04686Y02155D02*
X04693D01*
X04689Y02151D02*
Y02158D01*
X04608Y02155D02*
X04615D01*
X04612Y02151D02*
Y02158D01*
X04531Y02155D02*
X04538D01*
X04534Y02151D02*
Y02158D01*
X04569Y02155D02*
X04576D01*
X04573Y02151D02*
Y02158D01*
X04647Y02155D02*
X04654D01*
X0465Y02151D02*
Y02158D01*
X04687Y02232D02*
X04694D01*
X0469Y02229D02*
Y02236D01*
X04532Y02232D02*
X04539D01*
X04535Y02229D02*
Y02236D01*
X0457Y02232D02*
X04577D01*
X04574Y02229D02*
Y02236D01*
X04648Y02232D02*
X04655D01*
X04651Y02229D02*
Y02236D01*
X04687Y0227D02*
X04694D01*
X0469Y02267D02*
Y02274D01*
X04532Y0227D02*
X04539D01*
X04535Y02267D02*
Y02274D01*
X0457Y0227D02*
X04577D01*
X04574Y02267D02*
Y02274D01*
X04474Y02455D02*
X04481D01*
X04478Y02452D02*
Y02459D01*
X04458Y02455D02*
X04465D01*
X04461Y02452D02*
Y02459D01*
X04441Y02455D02*
X04448D01*
X04445Y02452D02*
Y02459D01*
X04521Y0237D02*
X04528D01*
X04525Y02366D02*
Y02373D01*
X04617Y0238D02*
X04624D01*
X0462Y02376D02*
Y02383D01*
X04524Y01986D02*
X04531D01*
X04528Y01983D02*
Y0199D01*
X04448Y01945D02*
X04455D01*
X04452Y01942D02*
Y01949D01*
X04431Y01945D02*
X04438D01*
X04435Y01942D02*
Y01949D01*
X04414Y01945D02*
X04421D01*
X04418Y01942D02*
Y01949D01*
X04491Y01987D02*
X04498D01*
X04495Y01983D02*
Y0199D01*
X04688Y01985D02*
X04695D01*
X04692Y01981D02*
Y01988D01*
X04719Y01987D02*
X04726D01*
X04723Y01983D02*
Y0199D01*
X04542Y02407D02*
X04549D01*
X04546Y02403D02*
Y0241D01*
X04719Y02025D02*
X04726D01*
X04723Y02022D02*
Y02029D01*
X04502Y02032D02*
X04509D01*
X04506Y02028D02*
Y02035D01*
X04826Y02317D02*
X04833D01*
X0483Y02314D02*
Y02321D01*
X04849Y02319D02*
X04856D01*
X04853Y02316D02*
Y02323D01*
X04874Y02317D02*
X04881D01*
X04878Y02313D02*
Y0232D01*
X04736Y01905D02*
X04743D01*
X0474Y01901D02*
Y01908D01*
X04648Y0227D02*
X04655D01*
X04652Y02267D02*
Y02274D01*
X04609Y0227D02*
X04616D01*
X04613Y02267D02*
Y02274D01*
X04608Y02232D02*
X04615D01*
X04612Y02229D02*
Y02236D01*
X03224Y03093D02*
X0323D01*
X03227Y0309D02*
Y03097D01*
X03225Y03037D02*
X03232D01*
X03228Y03034D02*
Y03041D01*
X03502Y02985D02*
X03512D01*
X03507Y0298D02*
Y0299D01*
X03096Y04741D02*
X03106D01*
X03101Y04736D02*
Y04746D01*
X03127Y04742D02*
X03137D01*
X03132Y04737D02*
Y04747D01*
X03157Y04742D02*
X03167D01*
X03162Y04737D02*
Y04747D01*
X03096Y04711D02*
X03106D01*
X03101Y04706D02*
Y04716D01*
X03152Y04712D02*
X03162D01*
X03157Y04707D02*
Y04717D01*
X03095Y04681D02*
X03105D01*
X031Y04676D02*
Y04686D01*
X03128Y04682D02*
X03138D01*
X03133Y04677D02*
Y04687D01*
X03663Y03659D02*
X03673D01*
X03668Y03654D02*
Y03664D01*
X02962Y02973D02*
X02972D01*
X02967Y02968D02*
Y02978D01*
X02994Y02973D02*
X03004D01*
X02999Y02968D02*
Y02978D01*
X03025Y02973D02*
X03035D01*
X0303Y02968D02*
Y02978D01*
X03055Y02973D02*
X03065D01*
X0306Y02968D02*
Y02978D01*
X03085Y02973D02*
X03095D01*
X0309Y02968D02*
Y02978D01*
X02964Y03151D02*
X02974D01*
X02969Y03146D02*
Y03156D01*
X02993Y03151D02*
X03003D01*
X02998Y03146D02*
Y03156D01*
X03025Y0315D02*
X03035D01*
X0303Y03145D02*
Y03155D01*
X03057Y03149D02*
X03067D01*
X03062Y03144D02*
Y03154D01*
X04619Y0203D02*
X04626D01*
X04623Y02026D02*
Y02033D01*
X03808Y0259D02*
X03818D01*
X03813Y02585D02*
Y02595D01*
X03851Y0259D02*
X03861D01*
X03856Y02585D02*
Y02595D01*
X03897Y0259D02*
X03907D01*
X03902Y02585D02*
Y02595D01*
X03943Y0259D02*
X03953D01*
X03948Y02585D02*
Y02595D01*
X03943Y02634D02*
X03953D01*
X03948Y02629D02*
Y02639D01*
X03897Y02634D02*
X03907D01*
X03902Y02629D02*
Y02639D01*
X03851Y02634D02*
X03861D01*
X03856Y02629D02*
Y02639D01*
X03808Y02634D02*
X03818D01*
X03813Y02629D02*
Y02639D01*
X03888Y02212D02*
X03898D01*
X03893Y02207D02*
Y02217D01*
X03926Y02214D02*
X03936D01*
X03931Y02209D02*
Y02219D01*
X03963Y02212D02*
X03973D01*
X03968Y02207D02*
Y02217D01*
X04002Y02214D02*
X04012D01*
X04007Y02209D02*
Y02219D01*
X03681Y01819D02*
X03691D01*
X03686Y01814D02*
Y01824D01*
X03681Y01857D02*
X03691D01*
X03686Y01852D02*
Y01862D01*
X03681Y01894D02*
X03691D01*
X03686Y01889D02*
Y01899D01*
X03681Y01934D02*
X03691D01*
X03686Y01929D02*
Y01939D01*
X03681Y01975D02*
X03691D01*
X03686Y0197D02*
Y0198D01*
X03676Y01609D02*
X03686D01*
X03681Y01604D02*
Y01614D01*
X03853Y01621D02*
X03863D01*
X03858Y01616D02*
Y01626D01*
X0444Y02332D02*
X04447D01*
X04444Y02328D02*
Y02335D01*
X0447Y02332D02*
X04477D01*
X04474Y02328D02*
Y02335D01*
X04424Y02055D02*
X04431D01*
X04427Y02052D02*
Y02059D01*
X04456Y0207D02*
X04462D01*
X04459Y02066D02*
Y02073D01*
X04807Y02142D02*
X04815D01*
X04811Y02139D02*
Y02146D01*
X04809Y02244D02*
X04815D01*
X04812Y02241D02*
Y02248D01*
X06104Y03927D02*
X06114D01*
X06109Y03922D02*
Y03932D01*
X06103Y04019D02*
X06113D01*
X06108Y04014D02*
Y04024D01*
X05871Y04017D02*
X05881D01*
X05876Y04012D02*
Y04022D01*
X05868Y03982D02*
X05878D01*
X05873Y03977D02*
Y03987D01*
X05875Y03892D02*
X05885D01*
X0588Y03887D02*
Y03897D01*
X05875Y0382D02*
X05885D01*
X0588Y03815D02*
Y03825D01*
X05835Y03939D02*
X05845D01*
X0584Y03934D02*
Y03944D01*
X06142Y03965D02*
X06152D01*
X06147Y0396D02*
Y0397D01*
X05434Y03892D02*
X05444D01*
X05439Y03887D02*
Y03897D01*
X0562Y03854D02*
X0563D01*
X05625Y03849D02*
Y03859D01*
X05534Y03952D02*
X05544D01*
X05539Y03947D02*
Y03957D01*
X05676Y03952D02*
X05686D01*
X05681Y03947D02*
Y03957D01*
X05778Y0249D02*
X05788D01*
X05783Y02485D02*
Y02495D01*
X06048Y02515D02*
X06058D01*
X06053Y0251D02*
Y0252D01*
X06349Y02482D02*
X06359D01*
X06354Y02477D02*
Y02487D01*
X06124Y0248D02*
X06134D01*
X06129Y02475D02*
Y02485D01*
X061Y02387D02*
X0611D01*
X06105Y02382D02*
Y02392D01*
X05531Y033D02*
X05539D01*
X05535Y03297D02*
Y03305D01*
X05807Y03262D02*
X05815D01*
X05811Y03257D02*
Y03265D01*
X0591Y0326D02*
X05918D01*
X05914Y03257D02*
Y03265D01*
X05727Y0326D02*
X05735D01*
X05731Y03257D02*
Y03265D01*
X05122Y0371D02*
X0513D01*
X05126Y03705D02*
Y03714D01*
X05177Y03901D02*
X05185D01*
X05181Y03897D02*
Y03905D01*
X05122Y03804D02*
X0513D01*
X05126Y038D02*
Y03808D01*
X04986Y03902D02*
X04994D01*
X0499Y03898D02*
Y03906D01*
X05527Y03425D02*
X05535D01*
X05531Y03422D02*
Y0343D01*
X05993Y03539D02*
X06001D01*
X05997Y03535D02*
Y03543D01*
X06111Y03539D02*
X06119D01*
X06115Y03535D02*
Y03543D01*
X06151Y03539D02*
X06159D01*
X06155Y03535D02*
Y03543D01*
X06696Y03157D02*
X06706D01*
X06701Y03152D02*
Y03162D01*
X06229Y03421D02*
X06237D01*
X06233Y03417D02*
Y03425D01*
X06117Y05162D02*
X06127D01*
X06122Y05157D02*
Y05167D01*
X06169Y0516D02*
X06179D01*
X06174Y05155D02*
Y05165D01*
X03758Y03384D02*
X03768D01*
X03763Y03379D02*
Y03389D01*
X03758Y03419D02*
X03768D01*
X03763Y03414D02*
Y03424D01*
X03759Y03485D02*
X03769D01*
X03764Y0348D02*
Y0349D01*
X03758Y03454D02*
X03768D01*
X03763Y03449D02*
Y03459D01*
X03725Y03385D02*
X03735D01*
X0373Y0338D02*
Y0339D01*
X03725Y0342D02*
X03735D01*
X0373Y03415D02*
Y03425D01*
X03726Y03485D02*
X03736D01*
X03731Y0348D02*
Y0349D01*
X03726Y03454D02*
X03736D01*
X03731Y03449D02*
Y03459D01*
X04512Y04307D02*
X04522D01*
X04517Y04302D02*
Y04312D01*
X05725Y035D02*
X05733D01*
X05729Y03496D02*
Y03504D01*
X05844Y03539D02*
X05852D01*
X05848Y03535D02*
Y03543D01*
X05844Y035D02*
X05852D01*
X05848Y03496D02*
Y03504D01*
X06102Y03887D02*
X06112D01*
X06107Y03882D02*
Y03892D01*
X06101Y03842D02*
X06111D01*
X06106Y03837D02*
Y03847D01*
X05875Y03857D02*
X05885D01*
X0588Y03852D02*
Y03862D01*
X05529Y03578D02*
X05537D01*
X05533Y03574D02*
Y03582D01*
X05529Y03539D02*
X05537D01*
X05533Y03535D02*
Y03543D01*
X05489Y03618D02*
X05497D01*
X05493Y03614D02*
Y03622D01*
X05529Y03618D02*
X05537D01*
X05533Y03614D02*
Y03622D01*
X05647Y03381D02*
X05655D01*
X05651Y03377D02*
Y03385D01*
X05725Y03381D02*
X05733D01*
X05729Y03377D02*
Y03385D01*
X05487Y03311D02*
X05495D01*
X05491Y03307D02*
Y03315D01*
X05686Y03263D02*
X05694D01*
X0569Y03259D02*
Y03267D01*
X05844Y03263D02*
X05852D01*
X05848Y03259D02*
Y03267D01*
X05773Y0362D02*
X05781D01*
X05777Y03615D02*
Y03624D01*
X05607Y03381D02*
X05615D01*
X05611Y03377D02*
Y03385D01*
X05606Y03467D02*
X05614D01*
X0561Y03462D02*
Y0347D01*
X05567Y03424D02*
X05575D01*
X05571Y0342D02*
Y03427D01*
X05687Y03462D02*
X05695D01*
X05691Y03457D02*
Y03465D01*
X05876Y03157D02*
X05884D01*
X0588Y03152D02*
Y0316D01*
X05724Y02996D02*
X05732D01*
X05728Y02992D02*
Y03D01*
X05844Y02956D02*
X05852D01*
X05848Y02952D02*
Y0296D01*
X05921Y02795D02*
X05929D01*
X05925Y02791D02*
Y02799D01*
X06192Y02759D02*
X062D01*
X06196Y02755D02*
Y02763D01*
X06322Y02814D02*
X0633D01*
X06326Y0281D02*
Y02818D01*
X05911Y03077D02*
X05919D01*
X05915Y03073D02*
Y03081D01*
X05803Y03039D02*
X05811D01*
X05807Y03035D02*
Y03043D01*
X05684Y02996D02*
X05692D01*
X05688Y02992D02*
Y03D01*
X05492Y02996D02*
X055D01*
X05496Y02992D02*
Y03D01*
X05913Y03303D02*
X05921D01*
X05917Y03299D02*
Y03307D01*
X06149Y02909D02*
X06157D01*
X06153Y02905D02*
Y02913D01*
X06268Y02962D02*
X06276D01*
X06272Y02957D02*
Y02965D01*
X06161Y02959D02*
X06169D01*
X06165Y02955D02*
Y02963D01*
X0611Y02996D02*
X06118D01*
X06114Y02992D02*
Y03D01*
X06035Y03114D02*
X06043D01*
X06039Y0311D02*
Y03118D01*
X05999Y03232D02*
X06007D01*
X06003Y03228D02*
Y03236D01*
X06118Y03275D02*
X06126D01*
X06122Y03271D02*
Y03279D01*
X05995Y03381D02*
X06004D01*
X06Y03377D02*
Y03385D01*
X06114Y03389D02*
X06122D01*
X06118Y03385D02*
Y03393D01*
X06192Y03578D02*
X062D01*
X06196Y03574D02*
Y03582D01*
X06307Y03618D02*
X06315D01*
X06311Y03614D02*
Y03622D01*
X05917Y03039D02*
X05925D01*
X05921Y03035D02*
Y03043D01*
X05992Y0296D02*
X06D01*
X05996Y02956D02*
Y02964D01*
X07103Y02973D02*
X07113D01*
X07108Y02968D02*
Y02978D01*
X06693Y02876D02*
X06703D01*
X06698Y02871D02*
Y02881D01*
X06691Y03015D02*
X06701D01*
X06696Y0301D02*
Y0302D01*
X06522Y02889D02*
X06532D01*
X06527Y02884D02*
Y02894D01*
X06153Y02799D02*
X06161D01*
X06157Y02795D02*
Y02803D01*
X06192Y02799D02*
X062D01*
X06196Y02795D02*
Y02803D01*
X06232Y02799D02*
X0624D01*
X06236Y02795D02*
Y02803D01*
X06271Y02799D02*
X06279D01*
X06275Y02795D02*
Y02803D01*
X06523Y03192D02*
X06531D01*
X06527Y03188D02*
Y03196D01*
X06271Y03188D02*
X06279D01*
X06275Y03184D02*
Y03192D01*
X06228Y03263D02*
X06236D01*
X06232Y03259D02*
Y03267D01*
X06393Y02897D02*
X06401D01*
X06397Y02893D02*
Y02901D01*
X06432Y02897D02*
X06441D01*
X06437Y02893D02*
Y02901D01*
X06432Y02917D02*
X06441D01*
X06437Y02913D02*
Y02921D01*
X06393Y02917D02*
X06401D01*
X06397Y02913D02*
Y02921D01*
X06393Y03027D02*
X06401D01*
X06397Y03023D02*
Y03031D01*
X06393Y03003D02*
X06401D01*
X06397Y02999D02*
Y03007D01*
X06432Y03027D02*
X06441D01*
X06437Y03023D02*
Y03031D01*
X06432Y03003D02*
X06441D01*
X06437Y02999D02*
Y03007D01*
X06401Y03283D02*
X06409D01*
X06405Y03279D02*
Y03287D01*
X06401Y03259D02*
X06409D01*
X06405Y03255D02*
Y03263D01*
X0644Y03283D02*
X06448D01*
X06444Y03279D02*
Y03287D01*
X0644Y03259D02*
X06448D01*
X06444Y03255D02*
Y03263D01*
X06522Y02925D02*
X06532D01*
X06527Y0292D02*
Y0293D01*
X05389Y03322D02*
X05397D01*
X05393Y03318D02*
Y03326D01*
X05389Y03299D02*
X05397D01*
X05393Y03295D02*
Y03303D01*
X05429Y03322D02*
X05437D01*
X05433Y03318D02*
Y03326D01*
X05429Y03299D02*
X05437D01*
X05433Y03295D02*
Y03303D01*
X05397Y03232D02*
X05405D01*
X05401Y03228D02*
Y03236D01*
X0524Y03209D02*
X05248D01*
X05244Y03205D02*
Y03213D01*
X05311Y03209D02*
X05319D01*
X05315Y03205D02*
Y03213D01*
X0524Y03279D02*
X05248D01*
X05244Y03275D02*
Y03283D01*
X05436Y03232D02*
X05444D01*
X0544Y03228D02*
Y03236D01*
X05436Y03212D02*
X05444D01*
X0544Y03208D02*
Y03216D01*
X05397Y03212D02*
X05405D01*
X05401Y03208D02*
Y03216D01*
X0531Y03279D02*
X05318D01*
X05314Y03275D02*
Y03283D01*
X06393Y02822D02*
X06401D01*
X06397Y02818D02*
Y02826D01*
X05913Y03618D02*
X05921D01*
X05917Y03614D02*
Y03622D01*
X0389Y01992D02*
X03897D01*
X03893Y01988D02*
Y01995D01*
X03909Y01992D02*
X03916D01*
X03913Y01988D02*
Y01995D01*
X03929Y01992D02*
X03936D01*
X03933Y01988D02*
Y01995D01*
X04642Y02389D02*
X04649D01*
X04645Y02386D02*
Y02393D01*
X05177Y03807D02*
X05185D01*
X05181Y03803D02*
Y03811D01*
X05606Y03705D02*
X05614D01*
X0561Y03702D02*
Y0371D01*
X05677Y03704D02*
X05685D01*
X05681Y037D02*
Y03708D01*
X057Y03704D02*
X05708D01*
X05704Y037D02*
Y03708D01*
X05677Y03751D02*
X05685D01*
X05681Y03747D02*
Y03755D01*
X057Y03751D02*
X05708D01*
X05704Y03747D02*
Y03755D01*
X05091Y03443D02*
X05099D01*
X05095Y0344D02*
Y03447D01*
X05649Y03457D02*
X05657D01*
X05653Y03453D02*
Y03461D01*
X05649Y03418D02*
X05657D01*
X05653Y03414D02*
Y03422D01*
X06484Y03665D02*
X06492D01*
X06488Y03661D02*
Y03669D01*
X0594Y03681D02*
X05948D01*
X05944Y03677D02*
Y03685D01*
X05847Y03575D02*
X05855D01*
X05851Y03571D02*
Y03579D01*
X05913Y03578D02*
X05921D01*
X05917Y03574D02*
Y03582D01*
X0619Y03539D02*
X06198D01*
X06194Y03535D02*
Y03543D01*
X04839Y01759D02*
X04846D01*
X04842Y01756D02*
Y01763D01*
X04858Y01759D02*
X04865D01*
X04862Y01756D02*
Y01763D01*
X06569Y02751D02*
X06579D01*
X06574Y02746D02*
Y02756D01*
X05689Y03575D02*
X05697D01*
X05693Y03571D02*
Y03579D01*
X05732Y03535D02*
X0574D01*
X05736Y03531D02*
Y03539D01*
X05686Y03618D02*
X05694D01*
X0569Y03614D02*
Y03622D01*
X0573Y0346D02*
X05738D01*
X05734Y03455D02*
Y03464D01*
X05765Y0346D02*
X05773D01*
X05769Y03456D02*
Y03464D01*
X05765Y03381D02*
X05773D01*
X05769Y03377D02*
Y03385D01*
X05768Y03418D02*
X05776D01*
X05772Y03414D02*
Y03422D01*
X08401Y02064D02*
X08409D01*
X08405Y0206D02*
Y02068D01*
X03509Y02065D02*
X03519D01*
X03514Y0206D02*
Y0207D01*
X0591Y0334D02*
X05918D01*
X05914Y03335D02*
Y03344D01*
X05844Y03342D02*
X05852D01*
X05848Y03338D02*
Y03346D01*
X05804Y03303D02*
X05812D01*
X05808Y03299D02*
Y03307D01*
X05807Y03339D02*
X05815D01*
X05811Y03335D02*
Y03343D01*
X05765Y03342D02*
X05773D01*
X05769Y03338D02*
Y03346D01*
X05729Y03337D02*
X05737D01*
X05733Y03334D02*
Y03342D01*
X05686Y03342D02*
X05694D01*
X0569Y03338D02*
Y03346D01*
X05649Y03342D02*
X05657D01*
X05653Y03338D02*
Y03346D01*
X08286Y04287D02*
X08294D01*
X0829Y04283D02*
Y04291D01*
X08386Y04337D02*
X08394D01*
X0839Y04333D02*
Y04341D01*
X08386Y04237D02*
X08394D01*
X0839Y04233D02*
Y04241D01*
X08286Y04187D02*
X08294D01*
X0829Y04183D02*
Y04191D01*
X08386Y04137D02*
X08394D01*
X0839Y04133D02*
Y04141D01*
X08286Y04087D02*
X08294D01*
X0829Y04083D02*
Y04091D01*
X08386Y03937D02*
X08394D01*
X0839Y03933D02*
Y03941D01*
X08586Y04337D02*
X08594D01*
X0859Y04333D02*
Y04341D01*
X08486Y04287D02*
X08494D01*
X0849Y04283D02*
Y04291D01*
X08386Y04037D02*
X08394D01*
X0839Y04033D02*
Y04041D01*
X08386Y04287D02*
X08394D01*
X0839Y04283D02*
Y04291D01*
X08386Y04087D02*
X08394D01*
X0839Y04083D02*
Y04091D01*
X08386Y03737D02*
X08394D01*
X0839Y03733D02*
Y03741D01*
X08386Y03587D02*
X08394D01*
X0839Y03583D02*
Y03591D01*
X08386Y03437D02*
X08394D01*
X0839Y03433D02*
Y03441D01*
X08386Y03287D02*
X08394D01*
X0839Y03283D02*
Y03291D01*
X08387Y03137D02*
X08395D01*
X08391Y03133D02*
Y03141D01*
X08386Y02987D02*
X08394D01*
X0839Y02983D02*
Y02991D01*
X08386Y02837D02*
X08394D01*
X0839Y02833D02*
Y02841D01*
X08286Y02387D02*
X08294D01*
X0829Y02383D02*
Y02391D01*
X08286Y02537D02*
X08294D01*
X0829Y02533D02*
Y02541D01*
X08286Y02587D02*
X08294D01*
X0829Y02583D02*
Y02591D01*
X08286Y02737D02*
X08294D01*
X0829Y02733D02*
Y02741D01*
X08286Y02787D02*
X08294D01*
X0829Y02783D02*
Y02791D01*
X08286Y02937D02*
X08294D01*
X0829Y02933D02*
Y02941D01*
X08286Y02987D02*
X08294D01*
X0829Y02983D02*
Y02991D01*
X08286Y03137D02*
X08294D01*
X0829Y03133D02*
Y03141D01*
X08286Y03187D02*
X08294D01*
X0829Y03183D02*
Y03191D01*
X08286Y03337D02*
X08294D01*
X0829Y03333D02*
Y03341D01*
X08286Y03407D02*
X08294D01*
X0829Y03403D02*
Y03411D01*
X08286Y03517D02*
X08294D01*
X0829Y03513D02*
Y03521D01*
X08286Y03587D02*
X08294D01*
X0829Y03583D02*
Y03591D01*
X08286Y03737D02*
X08294D01*
X0829Y03733D02*
Y03741D01*
X08286Y03787D02*
X08294D01*
X0829Y03783D02*
Y03791D01*
X08286Y03937D02*
X08294D01*
X0829Y03933D02*
Y03941D01*
X08286Y03987D02*
X08294D01*
X0829Y03983D02*
Y03991D01*
X08286Y04037D02*
X08294D01*
X0829Y04033D02*
Y04041D01*
X08286Y04137D02*
X08294D01*
X0829Y04133D02*
Y04141D01*
X08286Y04237D02*
X08294D01*
X0829Y04233D02*
Y04241D01*
X08286Y04337D02*
X08294D01*
X0829Y04333D02*
Y04341D01*
X08486Y02737D02*
X08494D01*
X0849Y02733D02*
Y02741D01*
X08486Y02887D02*
X08494D01*
X0849Y02883D02*
Y02891D01*
X08486Y03037D02*
X08494D01*
X0849Y03033D02*
Y03041D01*
X08486Y03187D02*
X08494D01*
X0849Y03183D02*
Y03191D01*
X08486Y03337D02*
X08494D01*
X0849Y03333D02*
Y03341D01*
X08486Y03487D02*
X08494D01*
X0849Y03483D02*
Y03491D01*
X08486Y03637D02*
X08494D01*
X0849Y03633D02*
Y03641D01*
X08486Y03787D02*
X08494D01*
X0849Y03783D02*
Y03791D01*
X08486Y03937D02*
X08494D01*
X0849Y03933D02*
Y03941D01*
X08486Y04087D02*
X08494D01*
X0849Y04083D02*
Y04091D01*
X08486Y04237D02*
X08494D01*
X0849Y04233D02*
Y04241D01*
X08486Y04337D02*
X08494D01*
X0849Y04333D02*
Y04341D01*
X08586Y04287D02*
X08594D01*
X0859Y04283D02*
Y04291D01*
X08586Y04137D02*
X08594D01*
X0859Y04133D02*
Y04141D01*
X08586Y03987D02*
X08594D01*
X0859Y03983D02*
Y03991D01*
X08586Y03837D02*
X08594D01*
X0859Y03833D02*
Y03841D01*
X08586Y03687D02*
X08594D01*
X0859Y03683D02*
Y03691D01*
X08486Y02387D02*
X08494D01*
X0849Y02383D02*
Y02391D01*
X08536Y02499D02*
X08544D01*
X0854Y02495D02*
Y02503D01*
X07346Y03362D02*
X07354D01*
X0735Y03358D02*
Y03366D01*
X07346Y03267D02*
X07354D01*
X0735Y03263D02*
Y03271D01*
X08535Y02525D02*
X08543D01*
X08539Y02521D02*
Y02529D01*
X08535Y02599D02*
X08543D01*
X08539Y02595D02*
Y02603D01*
X0555Y02909D02*
X05558D01*
X05554Y02905D02*
Y02913D01*
X07964Y02031D02*
X07972D01*
X07968Y02027D02*
Y02035D01*
X07964Y01937D02*
X07972D01*
X07968Y01932D02*
Y01941D01*
X08487Y02625D02*
X08495D01*
X08491Y02621D02*
Y02629D01*
X08336Y02425D02*
X08344D01*
X0834Y02421D02*
Y02429D01*
X08578Y02614D02*
X08586D01*
X08582Y0261D02*
Y02618D01*
X08539Y02763D02*
X08547D01*
X08543Y02759D02*
Y02767D01*
X08539Y02917D02*
X08547D01*
X08543Y02913D02*
Y02921D01*
X08539Y03066D02*
X08547D01*
X08543Y03062D02*
Y0307D01*
X08539Y03216D02*
X08547D01*
X08543Y03212D02*
Y0322D01*
X08539Y03366D02*
X08547D01*
X08543Y03362D02*
Y0337D01*
X0854Y03515D02*
X08548D01*
X08544Y03511D02*
Y03519D01*
X08338Y04169D02*
X08346D01*
X08342Y04165D02*
Y04173D01*
X08536Y02425D02*
X08544D01*
X0854Y02421D02*
Y02429D01*
X07015Y02185D02*
X07023D01*
X07019Y02181D02*
Y02189D01*
X05322Y0344D02*
X0533D01*
X05326Y03436D02*
Y03444D01*
X05487Y03462D02*
X05495D01*
X05491Y03458D02*
Y03466D01*
X05385Y0344D02*
X05393D01*
X05389Y03436D02*
Y03444D01*
X05334Y03555D02*
X05342D01*
X05338Y03551D02*
Y03559D01*
X05373Y03555D02*
X05381D01*
X05377Y03551D02*
Y03559D01*
X05373Y03535D02*
X05381D01*
X05377Y03531D02*
Y03539D01*
X05334Y03535D02*
X05342D01*
X05338Y03531D02*
Y03539D01*
X05484Y02952D02*
X05492D01*
X05488Y02948D02*
Y02956D01*
X05523Y0287D02*
X05531D01*
X05527Y02866D02*
Y02874D01*
X05492Y02799D02*
X055D01*
X05496Y02795D02*
Y02803D01*
X06015Y03938D02*
X06023D01*
X06019Y03934D02*
Y03942D01*
X06015Y03895D02*
X06023D01*
X06019Y03891D02*
Y03899D01*
X05972Y03895D02*
X05979D01*
X05976Y03891D02*
Y03899D01*
X05972Y03938D02*
X05979D01*
X05976Y03934D02*
Y03942D01*
X06236Y03511D02*
X06244D01*
X0624Y03507D02*
Y03515D01*
X06153Y03464D02*
X06161D01*
X06157Y0346D02*
Y03468D01*
X06153Y03503D02*
X06161D01*
X06157Y03499D02*
Y03507D01*
X06266Y0342D02*
X06274D01*
X0627Y03415D02*
Y03424D01*
X07416Y03945D02*
X07424D01*
X0742Y0394D02*
Y03949D01*
X07154Y0397D02*
X07164D01*
X07159Y03965D02*
Y03975D01*
X07155Y0392D02*
X07165D01*
X0716Y03915D02*
Y03925D01*
X07152Y0387D02*
X07162D01*
X07157Y03865D02*
Y03875D01*
Y0382D02*
X07167D01*
X07162Y03815D02*
Y03825D01*
X05953Y03427D02*
X05961D01*
X05957Y03424D02*
Y03432D01*
X0561Y03575D02*
X05618D01*
X05614Y03571D02*
Y03579D01*
X05607Y03618D02*
X05615D01*
X05611Y03614D02*
Y03622D01*
X05525Y03712D02*
X05533D01*
X05529Y03709D02*
Y03717D01*
X04337Y03741D02*
X04345D01*
X04341Y03737D02*
Y03745D01*
X04337Y03772D02*
X04345D01*
X04341Y03769D02*
Y03777D01*
X05122Y03772D02*
X0513D01*
X05126Y03768D02*
Y03777D01*
X04986Y0384D02*
X04994D01*
X0499Y03835D02*
Y03844D01*
X05177Y03838D02*
X05185D01*
X05181Y03834D02*
Y03842D01*
X04986Y03871D02*
X04994D01*
X0499Y03867D02*
Y03875D01*
X05177Y0387D02*
X05185D01*
X05181Y03866D02*
Y03874D01*
X05122Y03741D02*
X0513D01*
X05126Y03737D02*
Y03745D01*
X05038Y02207D02*
X05045D01*
X05041Y02204D02*
Y02211D01*
X05571Y033D02*
X05579D01*
X05575Y03296D02*
Y03304D01*
X07346Y0333D02*
X07354D01*
X0735Y03326D02*
Y03334D01*
X05571Y0326D02*
X05579D01*
X05575Y03256D02*
Y03264D01*
X07346Y03299D02*
X07354D01*
X0735Y03295D02*
Y03303D01*
X05802Y03232D02*
X0581D01*
X05806Y03228D02*
Y03236D01*
X05847Y03225D02*
X05855D01*
X05851Y0322D02*
Y03229D01*
X05802Y03112D02*
X0581D01*
X05806Y03107D02*
Y03115D01*
X05532Y02841D02*
X0554D01*
X05536Y02837D02*
Y02845D01*
X08386Y03197D02*
X08394D01*
X0839Y03193D02*
Y03201D01*
X05531Y02799D02*
X05539D01*
X05535Y02795D02*
Y02803D01*
X08386Y03227D02*
X08394D01*
X0839Y03223D02*
Y03231D01*
M02*