%FSTAX23Y23*%
%MOIN*%
%SFA1B1*%

%IPPOS*%
%ADD131C,0.005000*%
%ADD209C,0.015748*%
%ADD210C,0.001181*%
%LNatfc_mechanical_1-1*%
%LPD*%
G54D131*
X06271Y03178D02*
X06293D01*
X06298Y03177*
X06299Y03175*
X063Y03173*
Y0317*
X06299Y03167*
X06298Y03165*
X06293Y03164*
X0629*
X06276Y03186D02*
X06275Y03189D01*
X06271Y03193*
X063*
G54D209*
X00701Y01439D02*
Y05587D01*
X06812Y05586*
Y01439D02*
Y05586D01*
X00701Y01439D02*
X06812D01*
G54D210*
X01283Y05566D02*
X01291D01*
X01295Y05562*
X01291Y05559*
X01283*
X01289*
Y05566*
X01283Y05555D02*
Y05551D01*
Y05553*
X01295*
Y05555*
X01283Y05539D02*
Y05543D01*
X01285Y05545*
X01289*
X01291Y05543*
Y05539*
X01289Y05537*
X01287*
Y05545*
X01291Y05533D02*
X01283D01*
X01287*
X01289Y05531*
X01291Y05529*
Y05527*
X01293Y05519D02*
X01291D01*
Y05521*
Y05517*
Y05519*
X01285*
X01283Y05517*
Y055D02*
X01295D01*
Y05494*
X01293Y05492*
X01289*
X01287Y05494*
Y055*
X01293Y0548D02*
X01295Y05482D01*
Y05486*
X01293Y05488*
X01285*
X01283Y05486*
Y05482*
X01285Y0548*
X01295Y05476D02*
X01283D01*
Y0547*
X01285Y05468*
X01287*
X01289Y0547*
Y05476*
Y0547*
X01291Y05468*
X01293*
X01295Y0547*
Y05476*
X01283Y0545D02*
X01293D01*
X01289*
Y05452*
Y05448*
Y0545*
X01293*
X01295Y05448*
X01291Y0544D02*
Y05437D01*
X01289Y05435*
X01283*
Y0544*
X01285Y05442*
X01287Y0544*
Y05435*
X01295Y05431D02*
X01283D01*
Y05425*
X01285Y05423*
X01287*
X01289*
X01291Y05425*
Y05431*
X01293Y05405D02*
X01291D01*
Y05407*
Y05403*
Y05405*
X01285*
X01283Y05403*
Y05395D02*
Y05391D01*
X01285Y05389*
X01289*
X01291Y05391*
Y05395*
X01289Y05397*
X01285*
X01283Y05395*
Y05374D02*
Y05368D01*
X01285Y05366*
X01287Y05368*
Y05372*
X01289Y05374*
X01291Y05372*
Y05366*
X01283Y05362D02*
Y05358D01*
Y0536*
X01295*
Y05362*
X01283Y0535D02*
Y05346D01*
X01285Y05344*
X01289*
X01291Y05346*
Y0535*
X01289Y05352*
X01285*
X01283Y0535*
X01293Y05338D02*
X01291D01*
Y0534*
Y05336*
Y05338*
X01285*
X01283Y05336*
X01295Y05311D02*
X01283D01*
Y05317*
X01285Y05318*
X01289*
X01291Y05317*
Y05311*
X01283Y05301D02*
Y05305D01*
X01285Y05307*
X01289*
X01291Y05305*
Y05301*
X01289Y05299*
X01287*
Y05307*
X01293Y05293D02*
X01291D01*
Y05295*
Y05291*
Y05293*
X01285*
X01283Y05291*
X01291Y05283D02*
Y05279D01*
X01289Y05277*
X01283*
Y05283*
X01285Y05285*
X01287Y05283*
Y05277*
X01283Y05273D02*
Y05269D01*
Y05271*
X01291*
Y05273*
X01283Y05263D02*
Y05259D01*
Y05261*
X01295*
Y05263*
X01283Y05254D02*
Y05248D01*
X01285Y05246*
X01287Y05248*
Y05252*
X01289Y05254*
X01291Y05252*
Y05246*
X01303Y05566D02*
X01311D01*
X01314Y05562*
X01311Y05559*
X01303*
X01309*
Y05566*
X01303Y05555D02*
Y05549D01*
X01305Y05547*
X01307Y05549*
Y05553*
X01309Y05555*
X01311Y05553*
Y05547*
X01303Y05543D02*
Y05537D01*
X01305Y05535*
X01307Y05537*
Y05541*
X01309Y05543*
X01311Y05541*
Y05535*
X01303Y05531D02*
Y05527D01*
Y05529*
X01311*
Y05531*
X01299Y05517D02*
Y05515D01*
X01301Y05513*
X01311*
Y05519*
X01309Y05521*
X01305*
X01303Y05519*
Y05513*
Y05509D02*
X01311D01*
Y05503*
X01309Y05501*
X01303*
Y05486D02*
X01314D01*
X01307D02*
X01311Y0548D01*
X01307Y05486D02*
X01303Y0548D01*
Y05468D02*
Y05472D01*
X01305Y05474*
X01309*
X01311Y05472*
Y05468*
X01309Y05466*
X01307*
Y05474*
X01303Y05456D02*
Y0546D01*
X01305Y05462*
X01309*
X01311Y0546*
Y05456*
X01309Y05454*
X01307*
Y05462*
X01299Y0545D02*
X01311D01*
Y05444*
X01309Y05442*
X01305*
X01303Y05444*
Y0545*
X01309Y05439D02*
Y05431D01*
X01303Y05425D02*
Y05421D01*
X01305Y05419*
X01309*
X01311Y05421*
Y05425*
X01309Y05427*
X01305*
X01303Y05425*
X01311Y05415D02*
X01305D01*
X01303Y05413*
Y05407*
X01311*
X01312Y05401D02*
X01311D01*
Y05403*
Y05399*
Y05401*
X01305*
X01303Y05399*
X01311Y05379D02*
Y05376D01*
X01309Y05374*
X01303*
Y05379*
X01305Y05381*
X01307Y05379*
Y05374*
X01311Y0537D02*
X01303D01*
X01307*
X01309Y05368*
X01311Y05366*
Y05364*
X01303Y05352D02*
Y05356D01*
X01305Y05358*
X01309*
X01311Y05356*
Y05352*
X01309Y0535*
X01307*
Y05358*
X01311Y05344D02*
Y0534D01*
X01309Y05338*
X01303*
Y05344*
X01305Y05346*
X01307Y05344*
Y05338*
X01312Y0532D02*
X01311D01*
Y05322*
Y05318*
Y0532*
X01305*
X01303Y05318*
Y05311D02*
Y05307D01*
X01305Y05305*
X01309*
X01311Y05307*
Y05311*
X01309Y05313*
X01305*
X01303Y05311*
Y05289D02*
Y05283D01*
X01305Y05281*
X01307Y05283*
Y05287*
X01309Y05289*
X01311Y05287*
Y05281*
X01303Y05277D02*
Y05273D01*
Y05275*
X01314*
Y05277*
X01303Y05265D02*
Y05261D01*
X01305Y05259*
X01309*
X01311Y05261*
Y05265*
X01309Y05267*
X01305*
X01303Y05265*
X01312Y05254D02*
X01311D01*
Y05256*
Y05252*
Y05254*
X01305*
X01303Y05252*
X01263Y05566D02*
X01275D01*
X01271Y05562*
X01275Y05559*
X01263*
Y05549D02*
Y05553D01*
X01265Y05555*
X01269*
X01271Y05553*
Y05549*
X01269Y05547*
X01267*
Y05555*
X01271Y05535D02*
Y05541D01*
X01269Y05543*
X01265*
X01263Y05541*
Y05535*
X01275Y05531D02*
X01263D01*
X01269*
X01271Y05529*
Y05525*
X01269Y05523*
X01263*
Y05507D02*
Y05503D01*
Y05505*
X01275*
X01273Y05507*
X01269Y05486D02*
Y05478D01*
X01273Y05454D02*
X01275Y05456D01*
Y0546*
X01273Y05462*
X01271*
X01269Y0546*
Y05456*
X01267Y05454*
X01265*
X01263Y05456*
Y0546*
X01265Y05462*
X01263Y0545D02*
Y05446D01*
Y05448*
X01275*
Y0545*
X01263Y05439D02*
Y05435D01*
X01265Y05433*
X01269*
X01271Y05435*
Y05439*
X01269Y0544*
X01265*
X01263Y05439*
X01273Y05427D02*
X01271D01*
Y05429*
Y05425*
Y05427*
X01265*
X01263Y05425*
X01271Y05399D02*
Y05405D01*
X01269Y05407*
X01265*
X01263Y05405*
Y05399*
X01271Y05395D02*
X01265D01*
X01263Y05393*
Y05387*
X01271*
X01273Y05381D02*
X01271D01*
Y05383*
Y05379*
Y05381*
X01265*
X01263Y05379*
X01269Y05374D02*
Y05366D01*
X01263Y0536D02*
Y05356D01*
X01265Y05354*
X01269*
X01271Y05356*
Y0536*
X01269Y05362*
X01265*
X01263Y0536*
X01271Y0535D02*
X01265D01*
X01263Y05348*
Y05342*
X01271*
X01273Y05336D02*
X01271D01*
Y05338*
Y05334*
Y05336*
X01265*
X01263Y05334*
X01244Y05566D02*
X01255D01*
X01251Y05562*
X01255Y05559*
X01244*
Y05549D02*
Y05553D01*
X01246Y05555*
X01249*
X01251Y05553*
Y05549*
X01249Y05547*
X01248*
Y05555*
X01251Y05535D02*
Y05541D01*
X01249Y05543*
X01246*
X01244Y05541*
Y05535*
X01255Y05531D02*
X01244D01*
X01249*
X01251Y05529*
Y05525*
X01249Y05523*
X01244*
Y055D02*
Y05507D01*
X01251Y055*
X01253*
X01255Y05501*
Y05505*
X01253Y05507*
X01249Y05484D02*
Y05476D01*
X01253Y05452D02*
X01255Y05454D01*
Y05458*
X01253Y0546*
X01246*
X01244Y05458*
Y05454*
X01246Y05452*
X01244Y05448D02*
Y05444D01*
Y05446*
X01255*
Y05448*
X01244Y05433D02*
Y05437D01*
X01246Y05439*
X01249*
X01251Y05437*
Y05433*
X01249Y05431*
X01248*
Y05439*
X01251Y05425D02*
Y05421D01*
X01249Y05419*
X01244*
Y05425*
X01246Y05427*
X01248Y05425*
Y05419*
X01251Y05415D02*
X01244D01*
X01248*
X01249Y05413*
X01251Y05411*
Y05409*
Y05401D02*
Y05397D01*
X01249Y05395*
X01244*
Y05401*
X01246Y05403*
X01248Y05401*
Y05395*
X01244Y05391D02*
X01251D01*
Y05385*
X01249Y05383*
X01244*
X01251Y05372D02*
Y05378D01*
X01249Y05379*
X01246*
X01244Y05378*
Y05372*
Y05362D02*
Y05366D01*
X01246Y05368*
X01249*
X01251Y05366*
Y05362*
X01249Y0536*
X01248*
Y05368*
X01242Y05354D02*
X01244Y05352D01*
X01246*
Y05354*
X01244*
Y05352*
X01242Y05354*
X0124Y05356*
X01244Y05332D02*
X01251D01*
Y0533*
X01249Y05328*
X01244*
X01249*
X01251Y05326*
X01249Y05324*
X01244*
Y05318D02*
Y05315D01*
X01246Y05313*
X01249*
X01251Y05315*
Y05318*
X01249Y0532*
X01246*
X01244Y05318*
X01251Y05309D02*
X01244Y05305D01*
X01251Y05301*
X01244Y05291D02*
Y05295D01*
X01246Y05297*
X01249*
X01251Y05295*
Y05291*
X01249Y05289*
X01248*
Y05297*
X01253Y05271D02*
X01251D01*
Y05273*
Y05269*
Y05271*
X01246*
X01244Y05269*
Y05261D02*
Y05257D01*
X01246Y05256*
X01249*
X01251Y05257*
Y05261*
X01249Y05263*
X01246*
X01244Y05261*
Y0524D02*
Y05236D01*
Y05238*
X01251*
Y0524*
X01244Y0523D02*
X01251D01*
Y05224*
X01249Y05222*
X01244*
X01253Y05216D02*
X01251D01*
Y05218*
Y05214*
Y05216*
X01246*
X01244Y05214*
Y05202D02*
Y05206D01*
X01246Y05208*
X01249*
X01251Y05206*
Y05202*
X01249Y052*
X01248*
Y05208*
X01251Y05196D02*
X01244D01*
X01248*
X01249Y05195*
X01251Y05193*
Y05191*
X01244Y05185D02*
X01251D01*
Y05179*
X01249Y05177*
X01244*
X01251Y05171D02*
Y05167D01*
X01249Y05165*
X01244*
Y05171*
X01246Y05173*
X01248Y05171*
Y05165*
X01244Y05161D02*
Y05157D01*
Y05159*
X01255*
Y05161*
X0124Y05139D02*
X01251D01*
Y05133*
X01249Y05132*
X01246*
X01244Y05133*
Y05139*
Y05128D02*
Y05124D01*
Y05126*
X01255*
Y05128*
X01251Y05116D02*
Y05112D01*
X01249Y0511*
X01244*
Y05116*
X01246Y05118*
X01248Y05116*
Y0511*
X01244Y05106D02*
X01251D01*
Y051*
X01249Y05098*
X01244*
Y05088D02*
Y05092D01*
X01246Y05094*
X01249*
X01251Y05092*
Y05088*
X01249Y05086*
X01248*
Y05094*
X01244Y05071D02*
Y05067D01*
Y05069*
X01251*
Y05071*
X01244Y05059D02*
X01253D01*
X01249*
Y05061*
Y05057*
Y05059*
X01253*
X01255Y05057*
X0124Y05039D02*
X01251D01*
Y05033*
X01249Y05031*
X01246*
X01244Y05033*
Y05039*
X01251Y05027D02*
X01244D01*
X01248*
X01249Y05025*
X01251Y05023*
Y05021*
X01244Y0501D02*
Y05013D01*
X01246Y05015*
X01249*
X01251Y05013*
Y0501*
X01249Y05008*
X01248*
Y05015*
X01244Y05004D02*
Y04998D01*
X01246Y04996*
X01248Y04998*
Y05002*
X01249Y05004*
X01251Y05002*
Y04996*
X01244Y04986D02*
Y0499D01*
X01246Y04992*
X01249*
X01251Y0499*
Y04986*
X01249Y04984*
X01248*
Y04992*
X01244Y0498D02*
X01251D01*
Y04974*
X01249Y04972*
X01244*
X01253Y04966D02*
X01251D01*
Y04968*
Y04964*
Y04966*
X01246*
X01244Y04964*
M02*