%FSTAX23Y23*%
%MOIN*%
%SFA1B1*%

%IPPOS*%
%AMD177*
4,1,8,-0.014800,-0.029600,0.014800,-0.029600,0.029600,-0.014800,0.029600,0.014800,0.014800,0.029600,-0.014800,0.029600,-0.029600,0.014800,-0.029600,-0.014800,-0.014800,-0.029600,0.0*
%
%ADD87C,0.061024*%
%ADD104C,0.028000*%
%ADD136R,0.047370X0.031622*%
%ADD137R,0.031622X0.047370*%
%ADD138R,0.024535X0.031622*%
%ADD139O,0.024535X0.031622*%
%ADD140R,0.031622X0.029653*%
%ADD142R,0.029653X0.031622*%
%ADD145R,0.035559X0.059181*%
%ADD151R,0.059181X0.035559*%
%ADD152R,0.074929X0.043433*%
%ADD160R,0.110362X0.043433*%
%ADD175C,0.047370*%
%ADD176C,0.059181*%
G04~CAMADD=177~4~0.0~0.0~591.8~591.8~0.0~148.0~0~0.0~0.0~0.0~0.0~0~0.0~0.0~0.0~0.0~0~0.0~0.0~0.0~180.0~592.0~592.0*
%ADD177D177*%
%ADD178C,0.067055*%
%ADD179C,0.067055*%
%ADD180O,0.086740X0.165480*%
%ADD181O,0.165480X0.086740*%
%ADD182O,0.185165X0.086740*%
%ADD183R,0.067055X0.067055*%
%ADD184C,0.008000*%
%ADD185R,0.067055X0.067055*%
%ADD186C,0.114299*%
%ADD187C,0.068000*%
%ADD188C,0.045401*%
%ADD189C,0.024000*%
%ADD190C,0.023000*%
%ADD191C,0.033000*%
%ADD192C,0.027685*%
%ADD195R,0.070000X0.543999*%
%ADD196R,0.025716X0.021500*%
%ADD197R,0.043827X0.056031*%
%ADD198R,0.045401X0.031622*%
%ADD199R,0.051307X0.074929*%
%ADD200R,0.086740X0.039496*%
%ADD201R,0.086740X0.031622*%
%ADD202O,0.086740X0.031622*%
%ADD203R,0.043433X0.047370*%
%ADD204R,0.027685X0.047370*%
%ADD205O,0.045401X0.019811*%
%ADD206O,0.019811X0.045401*%
%ADD207R,0.090677X0.090677*%
%ADD208R,0.086740X0.086740*%
%LNatfc_soldermask_bot-1*%
%LPD*%
G54D87*
X02227Y04202D03*
X02605D03*
X02788Y04202D03*
X03166D03*
G54D104*
X02986Y03111D03*
X02328Y04419D03*
X02423D03*
X02454D03*
X02517D03*
X02486Y04308D03*
X02391D03*
X0289Y04417D03*
X02984D03*
X03015D03*
X03078D03*
X03047Y04306D03*
X02953D03*
X03937Y02456D03*
X04418Y03404D03*
X04308Y04927D03*
X04229Y04885D03*
X04156Y04818D03*
X04108Y04786D03*
X02685Y02488D03*
X01523Y03586D03*
X02862Y03031D03*
X0294Y03007D03*
X05338Y03279D03*
X05271Y03354D03*
X04417Y03881D03*
X03555Y04019D03*
X04283Y02527D03*
X01578Y02877D03*
X01547D03*
X01519D03*
X01374Y03996D03*
X0187Y04629D03*
Y04696D03*
X01866Y04251D03*
Y04188D03*
X0346Y04661D03*
X03523Y04614D03*
X03519Y04267D03*
Y04188D03*
X05169Y04291D03*
X05173Y04362D03*
X0224Y03334D03*
X01492Y02062D03*
X02948Y03357D03*
X04804Y05042D03*
X04597Y05043D03*
X05039Y05238D03*
X04986Y05239D03*
X03463Y04015D03*
X03662Y04075D03*
X04545Y03352D03*
X02279Y02953D03*
X01293Y03037D03*
X01294Y03094D03*
X01301Y03184D03*
X01329Y03038D03*
Y03094D03*
X01264Y03183D03*
X01318Y02837D03*
X02438Y02843D03*
X0266Y02549D03*
X02476Y03187D03*
X04237Y01551D03*
X04117D03*
X03917D03*
X04197D03*
X04157D03*
X04077D03*
X03997D03*
X03957D03*
X04037D03*
X01445Y02014D03*
X01519Y01832D03*
X01467Y01833D03*
X02873Y03251D03*
X02839Y03214D03*
Y03251D03*
X02797Y03134D03*
Y03099D03*
X02063Y04138D03*
X01896Y01584D03*
X01549Y03661D03*
X01262Y04896D03*
X01284Y02948D03*
X0333Y04144D03*
Y04179D03*
X03332Y04702D03*
Y04735D03*
X02064Y04701D03*
Y04736D03*
X02063Y0417D03*
X0281Y04866D03*
X0287D03*
X0293D03*
X0299D03*
X0305D03*
X0311D03*
X0317D03*
X02594Y04865D03*
X02534D03*
X02474D03*
X02414D03*
X02354D03*
X02294D03*
X02234D03*
X0244Y04098D03*
X02283D03*
X02377D03*
X02843Y041D03*
X02938D03*
X0236Y04308D03*
X02921Y04306D03*
X02858D03*
X0311D03*
X02827D03*
X02297Y04308D03*
X02265D03*
X03126Y041D03*
X03031D03*
X03D03*
X02968Y04099D03*
X02566Y04098D03*
X02471D03*
X02408D03*
X05485Y05159D03*
X05436D03*
X05387D03*
X05338D03*
X01467Y01968D03*
X01519Y01966D03*
X0491Y05098D03*
X04757Y05216D03*
X04907Y05217D03*
X047Y05099D03*
Y05216D03*
X04553Y0522D03*
X04878Y0339D03*
X03897Y02667D03*
X0435Y02566D03*
X04014Y02521D03*
X03775Y0252D03*
X03737Y02525D03*
X0467Y0311D03*
X0513Y03103D03*
Y03455D03*
X03775Y02457D03*
Y02489D03*
X03506Y03892D03*
X01259Y03093D03*
X0126Y03037D03*
X01539Y02985D03*
X01011Y04733D03*
X01042Y04734D03*
X01072D03*
X01011Y04703D03*
X01066Y04704D03*
X0101Y04673D03*
X01043Y04674D03*
X017Y03659D03*
X00999Y02973D03*
X01031D03*
X01062D03*
X01092D03*
X01122D03*
X01001Y03151D03*
X0103D03*
X01062Y0315D03*
X01094Y03149D03*
X01845Y02591D03*
X01888D03*
X01934D03*
X0198D03*
X02028D03*
Y02634D03*
X0198D03*
X01934D03*
X01888D03*
X01845D03*
X01925Y02213D03*
X01963Y02214D03*
X02Y02213D03*
X02039Y02214D03*
X01718Y01819D03*
Y01857D03*
Y01894D03*
Y01934D03*
Y01975D03*
X01712Y01609D03*
X01889Y01621D03*
X02476Y02332D03*
X02506D03*
X02459Y02056D03*
X02491Y0207D03*
X02843Y02143D03*
X02844Y02244D03*
X04141Y03927D03*
X0414Y04019D03*
X03908Y04018D03*
X03905Y03983D03*
X03912Y03893D03*
Y0382D03*
X03872Y03939D03*
X04179Y03966D03*
X03471Y03893D03*
X03657Y03854D03*
X0357Y03952D03*
X03712D03*
X03815Y02491D03*
X04085Y02515D03*
X04386Y02483D03*
X04161Y02481D03*
X04137Y02388D03*
X03945Y05023D03*
X03945Y05277D03*
X03944Y04943D03*
X03945Y05356D03*
X03995Y03752D03*
X04733Y03157D03*
X04986Y05027D03*
X05038Y05026D03*
X01795Y03384D03*
Y03419D03*
X01796Y03485D03*
X01795Y03454D03*
X01762Y03385D03*
Y0342D03*
X01763Y03485D03*
Y03454D03*
X02549Y04308D03*
X04139Y03887D03*
X04138Y03843D03*
X03912Y03858D03*
X05487Y05002D03*
X05436Y04999D03*
X05387Y05004D03*
X05337D03*
X0514Y02973D03*
X0473Y02876D03*
X04728Y03015D03*
X04748Y02811D03*
X04681D03*
X0435Y02538D03*
X04559Y02889D03*
Y02925D03*
X03562Y03755D03*
X04606Y02751D03*
G54D136*
X05272Y03216D03*
Y03157D03*
X04714Y03046D03*
Y03105D03*
X05267Y03407D03*
Y03466D03*
X02883Y01776D03*
Y01717D03*
X03746Y03952D03*
Y03893D03*
X03539D03*
Y03952D03*
X04163Y02567D03*
Y02508D03*
X04386Y02566D03*
Y02507D03*
X03815Y02457D03*
Y02516D03*
X04057Y02457D03*
Y02516D03*
G54D137*
X04217Y02437D03*
X04158D03*
Y02387D03*
X04217D03*
X05277Y03314D03*
X05336D03*
X04003Y03792D03*
X04062D03*
X03911Y03939D03*
X03852D03*
X04139Y03966D03*
X04198D03*
G54D138*
X05195Y04331D03*
X0517D03*
X05146D03*
X0517Y04257D03*
X05146D03*
G54D139*
X05195Y04257D03*
G54D140*
X01581Y02019D03*
X01547D03*
X03619Y03702D03*
X03585D03*
X03454Y04574D03*
X03421D03*
X0193Y04295D03*
X01963D03*
X01926Y0458D03*
X01959D03*
X01922Y04742D03*
X01955D03*
X03448Y04744D03*
X03415D03*
X03459Y043D03*
X03426D03*
X03459Y04139D03*
X03426D03*
X01932Y04132D03*
X01965D03*
X04451Y03979D03*
X04418D03*
X04304Y03381D03*
X0427D03*
X04186Y03389D03*
X04152D03*
X036Y03186D03*
X03567D03*
X03561Y03427D03*
X03594D03*
X03556Y03311D03*
X03522D03*
X0395Y03078D03*
X03983D03*
X03945Y03157D03*
X03912D03*
X0276Y02405D03*
X02727D03*
X03744Y03816D03*
X03777D03*
X0265Y02413D03*
X02615D03*
X02632Y02013D03*
X02597D03*
X02614Y0238D03*
X02649D03*
X02596Y0198D03*
X02631D03*
X03778Y03854D03*
X03744D03*
X03508Y03857D03*
X03542D03*
G54D142*
X01519Y01872D03*
Y01906D03*
X01467Y01872D03*
Y01906D03*
X02559Y0195D03*
Y01983D03*
X04014Y0246D03*
Y02493D03*
X03737Y02462D03*
Y02495D03*
X03042Y0312D03*
Y03086D03*
X03076Y0312D03*
Y03086D03*
X03838Y03225D03*
Y03191D03*
X04483Y03449D03*
Y03414D03*
X04516Y03449D03*
Y03414D03*
X04521Y03314D03*
Y0328D03*
X04566Y03324D03*
Y0329D03*
X03947Y02964D03*
Y02998D03*
X06314Y02502D03*
Y02468D03*
X06336Y02642D03*
Y02676D03*
X03585Y04075D03*
Y04041D03*
X03618Y04075D03*
Y04041D03*
X03188Y03222D03*
Y03187D03*
X03157Y03222D03*
Y03187D03*
X045Y02888D03*
Y02923D03*
X04531D03*
Y02888D03*
X04863Y05052D03*
Y05086D03*
X04657Y05052D03*
Y05086D03*
X04863Y05203D03*
Y05169D03*
X04804Y05202D03*
Y05168D03*
X04657Y05206D03*
Y05172D03*
X04597Y05206D03*
Y05172D03*
X04189Y03502D03*
Y03469D03*
X04114Y03579D03*
Y03546D03*
X0427Y02879D03*
Y02912D03*
X04191Y02952D03*
Y02919D03*
X04192Y03111D03*
Y03144D03*
X04034Y03193D03*
Y03226D03*
X04308Y03145D03*
Y03178D03*
X04149Y03233D03*
Y03266D03*
X04269Y03276D03*
Y03309D03*
X03685Y03343D03*
Y03376D03*
X03882Y03229D03*
Y03262D03*
X03724Y03297D03*
Y03264D03*
X03765Y0334D03*
Y03373D03*
X03881Y03038D03*
Y03071D03*
X03945Y03263D03*
Y03296D03*
X03946Y03343D03*
Y03376D03*
X03687Y03501D03*
Y03534D03*
X03648Y0361D03*
Y03577D03*
X02577Y02443D03*
Y0241D03*
X02722Y01949D03*
Y01982D03*
X02789Y01988D03*
Y02022D03*
X02754Y02023D03*
Y01989D03*
X03562Y03817D03*
Y03782D03*
X03884Y03303D03*
Y03336D03*
X03844Y03506D03*
Y03539D03*
X03807Y03613D03*
Y0358D03*
X03678Y03073D03*
Y03106D03*
X03602Y02916D03*
Y02949D03*
X03523Y02993D03*
Y02959D03*
X03602Y02764D03*
Y02731D03*
X04267Y035D03*
Y03467D03*
X03843Y03297D03*
Y03264D03*
X04372Y02845D03*
Y0288D03*
G54D145*
X03415Y03224D03*
X0349D03*
X03482Y03311D03*
X03407D03*
G54D151*
X04031Y03742D03*
Y03667D03*
X04094D03*
Y03742D03*
G54D152*
X01942Y02152D03*
Y02038D03*
G54D160*
X03786Y0261D03*
Y02725D03*
X03984Y02742D03*
Y02627D03*
G54D175*
X0497Y04468D03*
G54D176*
X0493Y04428D03*
X05009D03*
X05088D03*
X05167D03*
X05245D03*
X05324D03*
X05403D03*
X0493Y04507D03*
X05009D03*
X05088D03*
X05167D03*
X05245D03*
X05324D03*
G54D177*
X05403Y04507D03*
G54D178*
X00996Y05059D03*
X01095D03*
G54D179*
X00849Y05224D03*
Y05146D03*
X01085Y05303D03*
X01006D03*
X03925Y05203D03*
X04025Y05104D03*
Y05203D03*
X04125Y05104D03*
Y05203D03*
X04225Y05104D03*
Y05203D03*
X04325Y05104D03*
Y05203D03*
X02698Y03215D03*
G54D180*
X00849Y05185D03*
G54D181*
X01046Y05303D03*
G54D182*
X01046Y05059D03*
G54D183*
X03925Y05104D03*
G54D184*
X06401Y04254D03*
X06281Y02113D03*
G54D185*
X02698Y03115D03*
G54D186*
X0164Y05084D03*
Y05265D03*
Y04902D03*
G54D187*
X01542Y03296D03*
Y03159D03*
G54D188*
X03166Y03958D03*
X02977D03*
X02416D03*
X02605D03*
X03258Y04521D03*
X02135D03*
G54D189*
X04593Y02527D03*
Y02496D03*
X05103Y02544D03*
X05134D03*
X0539Y03359D03*
X06003Y041D03*
Y04069D03*
X05359Y03359D03*
X05055Y03602D03*
X04952Y03741D03*
X04915D03*
X04879D03*
X04717Y03444D03*
X04868Y03515D03*
Y03483D03*
Y0342D03*
X03559Y04342D03*
Y04539D03*
X03461Y03815D03*
X03022Y03871D03*
X03461Y03784D03*
X03022Y0384D03*
X03383Y03772D03*
X02373Y03772D03*
X03383Y03741D03*
X02373Y03741D03*
X03603Y04814D03*
Y04791D03*
Y04769D03*
Y04746D03*
Y04724D03*
Y04702D03*
X03607Y04504D03*
Y04479D03*
Y04455D03*
Y0443D03*
Y04406D03*
Y04382D03*
X05055Y03573D03*
Y03541D03*
X03127Y03412D03*
X05801Y03791D03*
X04992Y02741D03*
X04961D03*
X05801Y03822D03*
X03794Y03816D03*
X03618Y04563D03*
X03732Y04535D03*
X03737Y04348D03*
X0361Y0432D03*
X03507Y04835D03*
Y04678D03*
X0361Y04642D03*
X0374Y04666D03*
X03734Y04847D03*
X03612Y04872D03*
X03127Y03381D03*
X02373Y0371D03*
X04994Y04052D03*
X04925Y04035D03*
X04915Y03822D03*
X04952Y03821D03*
X05055Y0351D03*
X04843Y03741D03*
X05024Y02741D03*
X05421Y03359D03*
X05801Y03853D03*
X06003Y04037D03*
Y04131D03*
X04593Y02465D03*
Y02559D03*
X03022Y03807D03*
X03127Y03475D03*
X02373Y03804D03*
X03383Y0371D03*
X03461Y03847D03*
X03383Y03804D03*
X03022Y03902D03*
X05071Y02544D03*
X05166D03*
X05801Y03759D03*
X04929Y02741D03*
X04559Y03192D03*
X04653D03*
X04622D03*
X0459D03*
X04868Y03452D03*
X05327Y03359D03*
X03461Y03753D03*
X03127Y03443D03*
G54D190*
X02822Y02181D03*
X02802Y02167D03*
X02822Y02224D03*
X02677Y02035D03*
X02464Y02213D03*
X01901Y01992D03*
X02789Y01966D03*
X02696Y02405D03*
X02523Y02409D03*
X02755Y02393D03*
X02754Y0236D03*
X02734D03*
X03073Y02208D03*
X02939Y02215D03*
Y02197D03*
X02903Y02064D03*
X02885D03*
X02867D03*
X02643Y02499D03*
X02254Y0215D03*
X02254Y02212D03*
X02449Y02194D03*
X0264Y01931D03*
X02665Y01944D03*
X02616D03*
X02508Y025D03*
X01851Y02464D03*
X02509Y01906D03*
Y02456D03*
X02493Y02455D03*
X02476Y02456D03*
X02556Y0237D03*
X02652Y0238D03*
X02559Y01986D03*
X02483Y01946D03*
X02466D03*
X02449D03*
X02526Y01987D03*
X02723Y01985D03*
X02754Y01987D03*
X02577Y02407D03*
X02754Y02025D03*
X02537Y02032D03*
X02861Y02318D03*
X02884Y02319D03*
X02909Y02317D03*
X02771Y01905D03*
X02654Y0203D03*
X01925Y01992D03*
X01944D03*
X01964D03*
X02677Y02389D03*
X02874Y01759D03*
X02893D03*
X02874Y01732D03*
X02893D03*
G54D191*
X02721Y02117D03*
X02643D03*
X02566D03*
X02604D03*
X02682D03*
X02721Y02155D03*
X02643D03*
X02566D03*
X02604D03*
X02682D03*
X02722Y02233D03*
X02567D03*
X02605D03*
X02683D03*
X02722Y02271D03*
X02567D03*
X02605D03*
X02683D03*
X02644D03*
X02643Y02233D03*
G54D192*
X0405Y03938D03*
Y03895D03*
X04007D03*
Y03938D03*
G54D195*
X06812Y04366D03*
G54D196*
X01469Y02034D03*
Y02014D03*
Y01994D03*
X01518D03*
Y02014D03*
Y02034D03*
G54D197*
X03671Y03751D03*
X038D03*
G54D198*
X04314Y02491D03*
Y02566D03*
Y02529D03*
X04217Y02491D03*
Y02566D03*
X03965Y02494D03*
Y02531D03*
Y02456D03*
X03868D03*
Y02531D03*
Y02494D03*
X0369Y03818D03*
Y03893D03*
Y03856D03*
X03593Y03818D03*
Y03893D03*
G54D199*
X03412Y04503D03*
X03519D03*
X01971Y04368D03*
X01864D03*
X01971Y04508D03*
X01864D03*
X03412Y04378D03*
X03519D03*
G54D200*
X0339Y04699D03*
Y0462D03*
X01994Y04172D03*
Y04251D03*
X01987Y047D03*
Y04621D03*
X03395Y04181D03*
Y0426D03*
G54D201*
X05195Y03457D03*
G54D202*
X05195Y03407D03*
Y03357D03*
Y03307D03*
Y03257D03*
Y03207D03*
Y03157D03*
Y03107D03*
X04789Y03457D03*
Y03407D03*
Y03357D03*
Y03307D03*
Y03257D03*
Y03207D03*
Y03157D03*
Y03107D03*
G54D203*
X04391Y03844D03*
Y03919D03*
X04476Y03844D03*
Y03919D03*
G54D204*
X04434Y03844D03*
Y03919D03*
G54D205*
X04103Y03878D03*
Y03955D03*
Y03904D03*
Y03929D03*
X03955Y03878D03*
Y03955D03*
Y03904D03*
Y03929D03*
G54D206*
X04067Y03842D03*
Y0399D03*
X04041Y03842D03*
X04016D03*
X0399D03*
X04041Y0399D03*
X04016D03*
X0399D03*
G54D207*
X04029Y03916D03*
G54D208*
X03258Y05418D03*
Y05025D03*
Y04631D03*
Y04336D03*
Y04139D03*
X02135Y05221D03*
Y04828D03*
Y04434D03*
Y0404D03*
X02696D03*
Y04434D03*
Y04828D03*
Y05221D03*
M02*