%FSTAX23Y23*%
%MOIN*%
%SFA1B1*%

%IPPOS*%
%AMD83*
4,1,8,-0.012800,-0.025600,0.012800,-0.025600,0.025600,-0.012800,0.025600,0.012800,0.012800,0.025600,-0.012800,0.025600,-0.025600,0.012800,-0.025600,-0.012800,-0.012800,-0.025600,0.0*
%
%ADD10C,0.012008*%
%ADD51C,0.020000*%
%ADD52C,0.010000*%
%ADD53C,0.005984*%
%ADD64R,0.050000X0.005000*%
%ADD73R,0.060000X0.060000*%
%ADD74C,0.060000*%
%ADD75R,0.065000X0.160000*%
%ADD76R,0.160000X0.065000*%
%ADD77C,0.125984*%
%ADD78C,0.157480*%
%ADD79C,0.061024*%
%ADD80C,0.106299*%
%ADD81C,0.039370*%
%ADD82C,0.051181*%
G04~CAMADD=83~4~0.0~0.0~511.8~511.8~0.0~128.0~0~0.0~0.0~0.0~0.0~0~0.0~0.0~0.0~0.0~0~0.0~0.0~0.0~180.0~512.0~512.0*
%ADD83D83*%
%ADD84R,0.059055X0.059055*%
%ADD85C,0.059055*%
%ADD86C,0.037401*%
%ADD87R,0.078740X0.078740*%
%ADD88C,0.196850*%
%ADD89C,0.015984*%
%ADD90C,0.020000*%
%ADD91C,0.015000*%
%ADD92C,0.025000*%
%ADD93C,0.019685*%
%ADD108C,0.015984*%
%ADD109R,0.050000X0.359999*%
%LNatfc_copper_signal_2-1*%
%LPD*%
G36*
X05761Y02521D02*
X05751Y02514D01*
X05749Y02527*
X0575Y02527*
X0575*
X0575Y02527*
X05751Y02527*
X05751Y02528*
X05752Y02528*
X05752Y02529*
X05754Y0253*
X05755Y02531*
X05761Y02521*
G37*
G36*
X06569Y02527D02*
X06569Y02526D01*
X06569Y02525*
X06569Y02525*
X0657Y02524*
X0657Y02523*
X0657Y02523*
X06571Y02522*
X06571Y02522*
X06572Y02521*
X06568Y02517*
X06567Y02517*
X06566Y02518*
X06566Y02518*
X06565Y02519*
X06565Y02519*
X06564Y02519*
X06563Y02519*
X06562Y02519*
X06562Y02519*
X06561Y0252*
X06569Y02527*
X06569Y02527*
G37*
G36*
X08601Y02703D02*
X086Y02702D01*
X086Y02701*
X08599Y02701*
X08599Y027*
X08599Y027*
X08598Y02699*
X08598Y02699*
X08598Y02698*
X08598Y02698*
X08592Y02705*
X08592Y02705*
X08593Y02705*
X08593Y02705*
X08594Y02705*
X08594Y02705*
X08595Y02705*
X08595Y02706*
X08596Y02706*
X08596Y02707*
X08597Y02707*
X08601Y02703*
G37*
G36*
X08598Y02725D02*
X08598Y02725D01*
X08598Y02724*
X08599Y02724*
X08599Y02723*
X08599Y02723*
X086Y02722*
X086Y02722*
X086Y02721*
X08601Y0272*
X08597Y02716*
X08596Y02717*
X08595Y02718*
X08595Y02718*
X08594Y02718*
X08594Y02719*
X08593Y02719*
X08593Y02719*
X08592Y02719*
X08592Y02719*
X08598Y02725*
X08598Y02725*
G37*
G36*
X07581Y02714D02*
X0758Y02713D01*
X0758Y02713*
X07579Y02712*
X07579Y02712*
X07579Y02711*
X07578Y0271*
X07578Y0271*
X07578Y02709*
X07578Y02708*
X07578Y02708*
X0757Y02715*
X07571Y02716*
X07572Y02716*
X07572Y02716*
X07573Y02716*
X07574Y02716*
X07574Y02716*
X07575Y02717*
X07575Y02717*
X07576Y02718*
X07577Y02718*
X07581Y02714*
G37*
G36*
X0703Y02223D02*
X07029Y02222D01*
X07029Y02221*
X07029Y02221*
X07028Y0222*
X07028Y0222*
X07028Y02219*
X07027Y02218*
X07027Y02218*
X07027Y02217*
X07027Y02216*
X07019Y02224*
X0702Y02224*
X07021Y02224*
X07021Y02224*
X07022Y02224*
X07023Y02225*
X07023Y02225*
X07024Y02225*
X07025Y02226*
X07025Y02226*
X07026Y02227*
X0703Y02223*
G37*
G36*
X07976Y01999D02*
X07976Y01998D01*
X07976Y01997*
X07976Y01997*
X07977Y01996*
X07977Y01995*
X07977Y01995*
X07978Y01994*
X07978Y01994*
X07979Y01993*
X07975Y01989*
X07974Y01989*
X07973Y0199*
X07973Y0199*
X07972Y01991*
X07972Y01991*
X07971Y01991*
X0797Y01991*
X0797Y01991*
X07969Y01991*
X07968Y01992*
X07976Y01999*
X07976Y01999*
G37*
G36*
X04793Y02231D02*
X04784Y02226D01*
Y02226*
X04784Y02226*
X04783Y02226*
X04783Y02227*
X04783Y02227*
X04782Y02228*
X04781Y02229*
X04781Y0223*
X0479Y02234*
X04793Y02231*
G37*
G36*
X06572Y02503D02*
X06571Y02502D01*
X06571Y02501*
X0657Y02501*
X0657Y025*
X0657Y025*
X06569Y02499*
X06569Y02498*
X06569Y02497*
X06569Y02497*
X06569Y02496*
X06561Y02504*
X06562Y02504*
X06562Y02504*
X06563Y02504*
X06564Y02504*
X06565Y02505*
X06565Y02505*
X06566Y02505*
X06566Y02506*
X06567Y02506*
X06568Y02507*
X06572Y02503*
G37*
G36*
X07027Y02247D02*
X07027Y02246D01*
X07027Y02245*
X07028Y02245*
X07028Y02244*
X07028Y02243*
X07029Y02243*
X07029Y02242*
X07029Y02242*
X0703Y02241*
X07026Y02237*
X07025Y02237*
X07025Y02238*
X07024Y02238*
X07023Y02239*
X07023Y02239*
X07022Y02239*
X07021Y02239*
X07021Y02239*
X0702Y0224*
X07019Y0224*
X07027Y02247*
X07027Y02247*
G37*
G36*
X07578Y02738D02*
X07578Y02737D01*
X07578Y02737*
X07578Y02736*
X07579Y02735*
X07579Y02735*
X07579Y02734*
X0758Y02734*
X0758Y02733*
X07581Y02732*
X07577Y02728*
X07576Y02729*
X07575Y02729*
X07575Y0273*
X07574Y0273*
X07574Y0273*
X07573Y02731*
X07572Y02731*
X07572Y02731*
X07571Y02731*
X0757Y02731*
X07578Y02739*
X07578Y02738*
G37*
G36*
X08498Y02975D02*
X08498Y02975D01*
X08498Y02974*
X08499Y02974*
X08499Y02973*
X08499Y02973*
X085Y02972*
X085Y02972*
X085Y02971*
X08501Y0297*
X08497Y02966*
X08496Y02967*
X08495Y02968*
X08495Y02968*
X08494Y02968*
X08494Y02969*
X08493Y02969*
X08493Y02969*
X08492Y02969*
X08492Y02969*
X08498Y02975*
X08498Y02975*
G37*
G36*
Y02825D02*
X08498Y02825D01*
X08498Y02824*
X08499Y02824*
X08499Y02823*
X08499Y02823*
X085Y02822*
X085Y02822*
X085Y02821*
X08501Y0282*
X08497Y02816*
X08496Y02817*
X08495Y02818*
X08495Y02818*
X08494Y02818*
X08494Y02819*
X08493Y02819*
X08493Y02819*
X08492Y02819*
X08492Y02819*
X08498Y02825*
X08498Y02825*
G37*
G36*
X05997Y03772D02*
X05992Y03769D01*
X05988Y0377*
X05982Y03769*
X05978Y03765*
X05975Y03761*
X05973Y03755*
X05975Y0375*
X05978Y03745*
X05982Y03742*
X05988Y03741*
X05992Y03742*
X05997Y03739*
Y03701*
X05984*
X05977Y037*
X05972Y03696*
X05969Y03691*
X05967Y03685*
X05969Y03678*
X05972Y03673*
X05977Y03669*
X05984Y03668*
X05997*
Y03593*
X05995Y03593*
X0599Y0359*
X05987Y03585*
X05986Y0358*
X05987Y03574*
X0599Y03569*
X05992Y03568*
X05992Y03562*
X05978Y03548*
X05973Y03549*
X0597Y03553*
X05966Y03556*
X0596Y03557*
X05955Y03556*
X0595Y03553*
X05947Y03548*
X05946Y03543*
X05947Y03537*
X0595Y03533*
X05954Y0353*
X05955Y03525*
X05935Y03505*
X05933Y03505*
X0593Y03506*
X05929Y03507*
X05927Y0351*
X05922Y03513*
X05917Y03514*
X05911Y03513*
X05907Y0351*
X05904Y03505*
X05903Y035*
X05904Y03494*
X05907Y03489*
X0591Y03487*
X05911Y03482*
X0591Y03481*
X0591Y03479*
X05909Y03478*
Y03478*
X05897Y03467*
X05897*
X05896Y03466*
X05895Y03465*
X05873Y03444*
X05873Y03444*
X05873Y03443*
X05872Y03442*
X05871Y0344*
X05868Y03441*
X05863Y0344*
X05858Y03437*
X05856Y03434*
X05851Y03437*
X05846Y03438*
X05841Y03437*
X05836Y03434*
X05833Y03429*
X05832Y03424*
X05833Y03418*
X05836Y03413*
X05841Y0341*
X05846Y03409*
Y03391*
X05846Y03391*
X05841Y03388*
X05838Y03383*
X05837Y03377*
X05838Y03372*
X05838Y03372*
X05835Y03367*
X0582*
X05819Y0337*
X05818Y03372*
X05821Y03376*
X05822Y03381*
X05821Y03387*
X05818Y03392*
X05814Y03395*
X05808Y03396*
X05803Y03395*
X05798Y03392*
X05795Y03387*
X05794Y03381*
X05795Y03376*
X05798Y03372*
X05798Y0337*
X05796Y03367*
X05781*
X05779Y0337*
X05779Y03372*
X05782Y03376*
X05783Y03381*
X05782Y03387*
X05779Y03392*
X05774Y03395*
X05769Y03396*
X05763Y03395*
X05759Y03392*
X05756Y03387*
X05755Y03381*
X05756Y03376*
X05759Y03372*
X05758Y0337*
X05757Y03367*
X05741*
X0574Y0337*
X0574Y03372*
X05743Y03376*
X05744Y03381*
X05743Y03387*
X0574Y03392*
X05735Y03395*
X05729Y03396*
X05724Y03395*
X05719Y03392*
X05716Y03387*
X05715Y03381*
X05716Y03376*
X05719Y03372*
X05719Y0337*
X05718Y03367*
X05702*
X05701Y0337*
X057Y03372*
X05703Y03376*
X05704Y03381*
X05703Y03387*
X057Y03392*
X05696Y03395*
X0569Y03396*
X05685Y03395*
X0568Y03392*
X05677Y03387*
X05677Y03385*
X05671Y03384*
X05657Y03399*
X05659Y03404*
X05659Y03405*
X05664Y03408*
X05667Y03412*
X05668Y03418*
X05667Y03423*
X05664Y03428*
X05659Y03431*
X05653Y03432*
X05648Y03431*
X05643Y03428*
X05641Y03424*
X05638Y03422*
X05636Y03422*
X05612Y03447*
X05613Y03453*
X05615Y03453*
X0562Y03456*
X05623Y03461*
X05624Y03467*
X05623Y03472*
X0562Y03477*
X05615Y0348*
X0561Y03481*
X05605Y0348*
X056Y03477*
X05597Y03472*
X05597Y03471*
X05591Y03469*
X05579Y03482*
X0558Y03488*
X05582Y03489*
X05585Y03494*
X05586Y035*
X05585Y03505*
X05582Y0351*
X05579Y03512*
X05581Y03517*
X05684*
X05685Y03512*
X05682Y0351*
X05679Y03505*
X05678Y035*
X05679Y03494*
X05682Y03489*
X05687Y03486*
X05692Y03485*
X05698Y03486*
X05702Y03489*
X05706Y03494*
X05707Y035*
X05706Y03505*
X05702Y0351*
X057Y03512*
X05701Y03517*
X05721*
X05722Y03512*
X05719Y0351*
X05716Y03505*
X05715Y035*
X05716Y03494*
X05719Y03489*
X05724Y03486*
X05729Y03485*
X05735Y03486*
X0574Y03489*
X05743Y03494*
X05744Y035*
X05743Y03505*
X0574Y0351*
X05737Y03512*
X05738Y03517*
X05837*
X05846Y03525*
X05848Y03525*
X05853Y03526*
X05858Y03529*
X05861Y03533*
X05862Y03539*
X05861Y03541*
X05875Y03554*
Y04037*
X05997*
Y03772*
G37*
G36*
X05527Y03963D02*
X05524Y03959D01*
X05523Y03952*
X05524Y03946*
X05527Y03941*
X05533Y03937*
X05539Y03936*
X05545Y03937*
X05549Y0394*
X05585Y03905*
Y03805*
X05753*
X05757Y03802*
X05762Y03801*
X05767Y03802*
X05771Y03805*
X05869*
Y03637*
X05864Y03635*
X05863Y03635*
X05858Y03636*
X05852Y03635*
X05848Y03632*
X05845Y03627*
X05843Y03622*
X05845Y03616*
X05848Y03612*
X05852Y03608*
X05858Y03607*
X05863Y03608*
X05864Y03609*
X05869Y03606*
Y0356*
X05858Y03549*
X05853Y03552*
X05848Y03553*
X05842Y03552*
X05837Y03549*
X05834Y03544*
X05833Y03539*
X05834Y03533*
X05837Y03529*
X05832Y03523*
X05825*
X05823Y03528*
X05824Y03529*
X05825Y03535*
X05824Y0354*
X05821Y03545*
X05816Y03548*
X05811Y03549*
X05805Y03548*
X058Y03545*
X05797Y0354*
X05796Y03535*
X05797Y03529*
X05798Y03528*
X05796Y03523*
X05786*
X05783Y03528*
X05785Y0353*
X05786Y03536*
X05785Y03541*
X05782Y03546*
X05777Y03549*
X05772Y0355*
X05766Y03549*
X05762Y03546*
X05759Y03541*
X05758Y03536*
X05759Y0353*
X0576Y03528*
X05758Y03523*
X05738*
X05737Y03522*
X05735Y03522*
X05735Y03521*
X05734Y03521*
X05733Y0352*
X05732Y03519*
X05727*
X05726Y0352*
X05725Y03521*
X05724Y03521*
X05724Y03522*
X05722Y03522*
X05721Y03523*
X05703*
X05701Y03528*
X05702Y03529*
X05706Y03533*
X05707Y03539*
X05706Y03544*
X05702Y03549*
X05698Y03552*
X05692Y03553*
X05687Y03552*
X05682Y03549*
X05679Y03544*
X05678Y03539*
X05679Y03533*
X05682Y03529*
X05683Y03528*
X05682Y03523*
X05661*
X0566Y03528*
X05661Y03529*
X05664Y03533*
X05665Y03539*
X05664Y03544*
X05661Y03549*
X05656Y03552*
X05651Y03553*
X05645Y03552*
X05641Y03549*
X05638Y03544*
X05636Y03539*
X05638Y03533*
X05641Y03529*
X05642Y03528*
X0564Y03523*
X05581*
X05579Y03522*
X05578Y03522*
X05577Y03521*
X05576Y03521*
X05576Y0352*
X05575Y03519*
X05499*
X05498Y03524*
X055Y03524*
X05505Y03527*
X05508Y03532*
X05509Y03537*
X05508Y03543*
X05505Y03547*
X055Y0355*
X05495Y03551*
X0549Y0355*
X05485Y03547*
X05482Y03543*
X05481Y03537*
X05482Y03532*
X05485Y03527*
X0549Y03524*
X05492Y03524*
X05491Y03519*
X05421*
Y03666*
Y03675*
Y0403*
X05459*
X05527Y03963*
G37*
G36*
X08501Y02953D02*
X085Y02952D01*
X085Y02951*
X08499Y02951*
X08499Y0295*
X08499Y0295*
X08498Y02949*
X08498Y02949*
X08498Y02948*
X08498Y02948*
X08492Y02955*
X08492Y02955*
X08493Y02955*
X08493Y02955*
X08494Y02955*
X08494Y02955*
X08495Y02955*
X08495Y02956*
X08496Y02956*
X08496Y02957*
X08497Y02957*
X08501Y02953*
G37*
G36*
X08342Y02769D02*
X08342Y02769D01*
X08341Y02769*
X08341Y02769*
X0834Y02769*
X0834Y02768*
X08339Y02768*
X08339Y02768*
X08338Y02767*
X08338Y02767*
X08337Y02766*
X08333Y0277*
X08333Y02771*
X08334Y02772*
X08335Y02773*
X08335Y02773*
X08335Y02774*
X08335Y02774*
X08336Y02775*
X08336Y02775*
Y02775*
X08342Y02769*
G37*
G36*
X08338Y02757D02*
X08339Y02756D01*
X08339Y02755*
X0834Y02755*
X0834Y02755*
X08341Y02755*
X08341Y02755*
X08342Y02755*
X08342Y02755*
X08336Y02748*
Y02748*
X08336Y02749*
X08335Y02749*
X08335Y0275*
X08335Y0275*
X08335Y02751*
X08334Y02751*
X08334Y02752*
X08333Y02752*
X08333Y02753*
X08337Y02757*
X08338Y02757*
G37*
G36*
X05181Y05392D02*
Y05373D01*
X05271*
Y05392*
X06111*
X06113Y05387*
X0611Y05386*
X06107Y05381*
X06106Y05375*
X06107Y05368*
X0611Y05363*
X06116Y05359*
X06122Y05358*
X06128Y05359*
X06134Y05363*
X06137Y05368*
X06138Y05375*
X06137Y05381*
X06134Y05386*
X06131Y05387*
X06133Y05392*
X06168*
X06169Y05388*
X06163Y05384*
X0616Y05379*
X06159Y05372*
X0616Y05366*
X06163Y05361*
X06169Y05357*
X06175Y05356*
X06181Y05357*
X06187Y05361*
X0619Y05366*
X06191Y05372*
X0619Y05379*
X06187Y05384*
X06181Y05388*
X06182Y05392*
X08537*
X0872Y0521*
Y05097*
Y04374*
X08605Y04259*
X08466*
Y04359*
X08635Y04527*
Y05175*
X08546Y05265*
X06453*
X06446Y05267*
X0643Y05271*
X06414Y05272*
X06398Y05271*
X06382Y05267*
X06375Y05265*
X0471*
Y05267*
X0462*
Y05265*
X04149*
Y05267*
X04059*
Y05183*
X03929Y05054*
Y03512*
X0542*
X05421Y03512*
X05491*
X05493Y03512*
X05497*
X05499Y03512*
X05512*
X05515Y03507*
X05514Y03503*
X05515Y03498*
X05519Y03493*
X05523Y0349*
X05529Y03489*
X05534Y0349*
X05539Y03493*
X05542Y03498*
X05542Y03499*
X05547Y035*
X05608Y03436*
X05606Y0343*
X05604Y0343*
X056Y03427*
X05597Y03422*
X05595Y03417*
X05597Y03411*
X056Y03407*
X05604Y03404*
X0561Y03403*
X05615Y03404*
X0562Y03407*
X05623Y03411*
X05623Y03412*
X05629Y03414*
X05643Y03399*
X05642Y03392*
X05641Y03392*
X05638Y03387*
X05636Y03381*
X05638Y03376*
X05641Y03371*
X05645Y03368*
X05651Y03367*
X05656Y03368*
X05661Y03371*
X05661Y03372*
X05668Y03373*
X05682Y03358*
X05681Y03353*
X0568Y03352*
X05677Y03347*
X05676Y03342*
X05677Y03337*
X0568Y03332*
X05685Y03329*
X0569Y03328*
X05696Y03329*
X05698Y0333*
X05703Y03328*
Y03315*
X057Y03313*
X05698Y03313*
X05693Y03314*
X05688Y03313*
X05683Y0331*
X0568Y03305*
X05679Y033*
X0568Y03294*
X05683Y0329*
X05688Y03286*
X05693Y03285*
X05698Y03286*
X057Y03286*
X05703Y03284*
Y03277*
X05698Y03275*
X05696Y03277*
X0569Y03278*
X05685Y03277*
X0568Y03273*
X05677Y03269*
X05676Y03263*
X05677Y03258*
X0568Y03253*
X05685Y0325*
X0569Y03249*
X05696Y0325*
X05698Y03252*
X05703Y03249*
Y03241*
X05698Y03238*
X05695Y0324*
X0569Y03241*
X05685Y0324*
X0568Y03237*
X05677Y03232*
X05676Y03227*
X05677Y03221*
X0568Y03216*
X05685Y03213*
X0569Y03212*
X05695Y03213*
X05698Y03215*
X05703Y03212*
Y03169*
X05699Y03167*
X05698Y03167*
X05694Y0317*
X05688Y03171*
X05683Y0317*
X05678Y03167*
X05675Y03162*
X05674Y03157*
X05675Y03151*
X05678Y03147*
X05683Y03144*
X05688Y03142*
X05694Y03144*
X05698Y03147*
X05699Y03146*
X05703Y03145*
Y03114*
X05698Y03114*
X05698Y03115*
X05695Y0312*
X0569Y03123*
X05685Y03124*
X05679Y03123*
X05674Y0312*
X05671Y03115*
X0567Y0311*
X05671Y03104*
X05674Y031*
X05679Y03097*
X05682Y03096*
X05682Y03094*
X05682Y03091*
X05678Y03088*
X05675Y03084*
X05674Y03078*
X05675Y03073*
X05678Y03068*
X05683Y03065*
X05688Y03064*
X05694Y03065*
X05698Y03068*
X057Y03067*
X05703Y03066*
Y03047*
X057Y03046*
X05698Y03045*
X05694Y03048*
X05688Y03049*
X05683Y03048*
X05678Y03045*
X05675Y0304*
X05674Y03035*
X05675Y03029*
X05678Y03025*
X05683Y03022*
X05688Y03021*
X05694Y03022*
X05698Y03024*
X057Y03024*
X05703Y03022*
Y03008*
X057Y03007*
X05698Y03006*
X05694Y03009*
X05688Y0301*
X05683Y03009*
X05678Y03006*
X05675Y03001*
X05674Y02996*
X05675Y0299*
X05678Y02985*
X05683Y02982*
X05688Y02981*
X05694Y02982*
X05698Y02985*
X057Y02984*
X05703Y02983*
Y0285*
X057Y02848*
X05698Y02848*
X05694Y02851*
X05688Y02852*
X05683Y02851*
X05678Y02848*
X05675Y02843*
X05674Y02838*
X05675Y02834*
X05675Y02832*
X05678Y02828*
X05683Y02825*
X05688Y02823*
X05694Y02825*
X05698Y02827*
X05698Y02828*
X05701Y02832*
X05702Y02834*
X05736*
Y02775*
X05724Y02764*
X05665*
X05378*
X04812Y03329*
X04227*
X04224Y03333*
X04224Y03334*
X04223Y0334*
X0422Y03346*
X04214Y03349*
X04208Y0335*
X04202Y03349*
X04197Y03346*
X04193Y0334*
X04192Y03334*
X04192Y03333*
X04189Y03329*
X03714*
Y03512*
X03719*
X03718Y03516*
X03758Y03557*
Y05162*
X03988Y05392*
X05181*
G37*
G36*
X08501Y02803D02*
X085Y02802D01*
X085Y02801*
X08499Y02801*
X08499Y028*
X08499Y028*
X08498Y02799*
X08498Y02799*
X08498Y02798*
X08498Y02798*
X08492Y02805*
X08492Y02805*
X08493Y02805*
X08493Y02805*
X08494Y02805*
X08494Y02805*
X08495Y02805*
X08495Y02806*
X08496Y02806*
X08496Y02807*
X08497Y02807*
X08501Y02803*
G37*
G36*
X08522Y05504D02*
X08606D01*
Y05502*
X08822Y05285*
Y04287*
X08598Y04062*
X08275*
Y04125*
X0828Y04127*
X0828Y04127*
X08285Y04124*
X0829Y04122*
X08296Y04124*
X08301Y04127*
X08304Y04131*
X08305Y04137*
X08304Y04142*
X08301Y04147*
X08296Y0415*
X0829Y04151*
X08285Y0415*
X0828Y04147*
X0828Y04146*
X08275Y04148*
Y04208*
X08378*
Y04144*
X08377Y04142*
X08376Y04137*
X08377Y04131*
X0838Y04127*
X08385Y04124*
X0839Y04122*
X08396Y04124*
X08401Y04127*
X08404Y04131*
X08405Y04137*
X08404Y04142*
X08403Y04144*
Y04208*
X08586*
X08753Y04375*
Y05113*
X08754Y05113*
X0876Y05117*
X08763Y05122*
X08764Y05129*
X08763Y05135*
X0876Y0514*
X08754Y05144*
X08753Y05144*
Y0523*
X08564Y05419*
X05271*
Y05464*
X05181*
Y05419*
X03624*
X03405Y052*
Y04964*
X03697*
Y02194*
X03644Y02142*
X03642Y02137*
Y01763*
X03644Y01758*
X03649Y01757*
X03697*
Y01742*
X04023*
X04291Y0201*
Y02257*
X04409Y02375*
X04507*
X04511Y0237*
X04511Y0237*
X04512Y02364*
X04515Y0236*
X04519Y02357*
X04525Y02356*
X0453Y02357*
X04534Y0236*
X04537Y02364*
X04538Y0237*
X04538Y0237*
X04542Y02375*
X04607*
X04608Y02375*
X04608Y02374*
X04611Y0237*
X04615Y02367*
X0462Y02366*
X04626Y02367*
X0463Y0237*
X04633Y02374*
X04634Y02377*
X0464*
X04645Y02375*
X0465Y02377*
X04659*
X0466Y02376*
X04662Y02375*
X04662Y02375*
X04663Y02375*
X04691*
X04693Y02371*
X04693Y0237*
X0469Y02366*
X04689Y0236*
X0469Y02355*
X04693Y02351*
X04698Y02348*
X04703Y02347*
X04708Y02348*
X04709Y02348*
X04713Y02351*
X04717Y02348*
X04717Y02348*
X04723Y02347*
X04728Y02348*
X04732Y02351*
X04735Y02355*
X04736Y0236*
X04735Y02366*
X04733Y02369*
X04733Y0237*
X04733Y02373*
X04734Y02375*
X04736Y02375*
X04737Y02375*
X04738Y02375*
X0476*
Y02246*
X04761Y02242*
X04763Y02238*
X04776Y02226*
X04776Y02225*
X04777Y02225*
X04777Y02224*
Y02224*
X04778Y02219*
X04781Y02214*
X04786Y02211*
X04791Y0221*
X04796Y02211*
X04801Y02214*
X04804Y02219*
X04805Y02224*
X04804Y02229*
X04801Y02234*
X04797Y02236*
X04797Y02237*
X04795Y02238*
X04795Y02239*
X04782Y02251*
Y02375*
X04934*
X04982Y02327*
Y01952*
X04515Y01485*
X03697*
Y01484*
X02945*
Y04679*
X02996*
Y0475*
X02945*
Y04778*
X02949Y04781*
X02951Y0478*
X0296Y04779*
X02969Y0478*
X02978Y04783*
X02985Y04789*
X02991Y04797*
X02995Y04805*
X02996Y04815*
X02995Y04824*
X02991Y04832*
X02985Y0484*
X02978Y04846*
X02969Y04849*
X0296Y0485*
X02951Y04849*
X02949Y04848*
X02945Y04851*
Y04964*
X03282*
Y05504*
X08486*
X08522*
G37*
G36*
X07488Y01903D02*
X07487Y01902D01*
X07487Y01902*
X07486Y01901*
X07486Y01901*
X07486Y019*
X07485Y01899*
X07485Y01899*
X07485Y01898*
X07485Y01897*
Y01897*
X07477Y01905*
X07478Y01905*
X07479Y01905*
X07479Y01905*
X0748Y01905*
X07481Y01905*
X07481Y01905*
X07482Y01906*
X07482Y01906*
X07483Y01907*
X07484Y01907*
X07488Y01903*
G37*
G36*
X07306Y01896D02*
X07306Y01895D01*
X07306Y01895*
X07306Y01894*
X07307Y01893*
X07307Y01893*
X07307Y01892*
X07308Y01892*
X07308Y01891*
X07309Y0189*
X07305Y01886*
X07304Y01887*
X07303Y01887*
X07303Y01888*
X07302Y01888*
X07302Y01888*
X07301Y01889*
X073Y01889*
X073Y01889*
X07299Y01889*
X07298*
X07306Y01897*
X07306Y01896*
G37*
G36*
X07979Y01975D02*
X07978Y01974D01*
X07978Y01973*
X07977Y01973*
X07977Y01972*
X07977Y01972*
X07976Y01971*
X07976Y0197*
X07976Y0197*
X07976Y01969*
X07976Y01968*
X07968Y01976*
X07969Y01976*
X0797Y01976*
X0797Y01976*
X07971Y01976*
X07972Y01977*
X07972Y01977*
X07973Y01977*
X07973Y01978*
X07974Y01978*
X07975Y01979*
X07979Y01975*
G37*
G36*
X07485Y01927D02*
X07485Y01927D01*
X07485Y01926*
X07485Y01925*
X07486Y01925*
X07486Y01924*
X07486Y01923*
X07487Y01923*
X07487Y01922*
X07488Y01921*
X07484Y01917*
X07483Y01918*
X07482Y01918*
X07482Y01919*
X07481Y01919*
X07481Y01919*
X0748Y0192*
X07479Y0192*
X07479Y0192*
X07478Y0192*
X07477Y0192*
X07485Y01928*
Y01927*
G37*
G36*
X07735Y01824D02*
X07734Y01823D01*
X07734Y01823*
X07733Y01822*
X07733Y01822*
X07733Y01821*
X07732Y0182*
X07732Y0182*
X07732Y01819*
X07732Y01818*
Y01818*
X07724Y01825*
X07725Y01826*
X07726Y01826*
X07726Y01826*
X07727Y01826*
X07728Y01826*
X07728Y01826*
X07729Y01827*
X07729Y01827*
X0773Y01828*
X07731Y01828*
X07735Y01824*
G37*
G36*
X0603Y05232D02*
X06031Y05228D01*
X06031Y05226*
X06034Y05221*
X0604Y05217*
X06046Y05216*
X06052Y05217*
X06058Y05221*
X06061Y05226*
X06062Y05232*
X06326*
X06328Y05227*
X06321Y05215*
X06314Y052*
X06311Y05184*
X06309Y05167*
X06311Y05151*
X06314Y05135*
X06321Y0512*
X06329Y05106*
X0634Y05093*
X06352Y05083*
X06366Y05074*
X06382Y05068*
X06398Y05064*
X06414Y05063*
X0643Y05064*
X06446Y05068*
X06462Y05074*
X06476Y05083*
X06488Y05093*
X06499Y05106*
X06507Y0512*
X06514Y05135*
X06517Y05151*
X06519Y05167*
X06517Y05184*
X06514Y052*
X06507Y05215*
X065Y05227*
X06502Y05232*
X07476*
X08556*
X08623Y05165*
Y05065*
X08589Y0503*
X07476*
Y04462*
X08289*
X08421Y0433*
Y04224*
X08305*
X08302Y04229*
X08304Y04231*
X08305Y04237*
X08304Y04242*
X08301Y04247*
X08296Y0425*
X0829Y04251*
X08285Y0425*
X0828Y04247*
X08277Y04242*
X08276Y04237*
X08277Y04231*
X0828Y04227*
X08282Y04226*
X08282Y04219*
X08278Y04215*
X08275*
X0827Y04213*
X08269Y04208*
Y04206*
X08263Y042*
Y04007*
X08278Y03993*
X08277Y03992*
X08276Y03987*
X08277Y03981*
X0828Y03977*
X08285Y03974*
X0829Y03972*
X08296Y03974*
X08297Y03974*
X08307Y03964*
X08385*
X08397Y03952*
Y03921*
X08381Y03905*
X08287*
X08204Y03988*
Y04311*
X08137Y04377*
X07479*
X07476Y04381*
Y02451*
X06843*
X06769Y02525*
X06766Y02527*
X06763Y02527*
X06575*
Y02528*
X06575Y02529*
X06574Y02533*
X06571Y02538*
X06566Y02541*
X06566*
Y02546*
X06566*
X06571Y02549*
X06574Y02554*
X06575Y02559*
X06574Y02564*
X06571Y02569*
X06566Y02572*
X06561Y02573*
X06556Y02572*
X06551Y02569*
X06548Y02564*
X06547Y02559*
X06548Y02554*
X06551Y02549*
X06556Y02546*
X06556*
Y02541*
X06556*
X06551Y02538*
X06548Y02533*
X06547Y02527*
X06548Y02522*
X06551Y02517*
X06556Y02514*
X06556*
Y02509*
X06556*
X06551Y02506*
X06548Y02501*
X06547Y02496*
X06548Y02491*
X06551Y02486*
X06556Y02483*
X06556*
Y02478*
X06556*
X06551Y02475*
X06548Y0247*
X06547Y02465*
X06548Y02459*
X06551Y02454*
X06556Y02451*
X06561Y0245*
X06566Y02451*
X06571Y02454*
X06574Y02459*
X06575Y02465*
X06574Y0247*
X06571Y02475*
X06566Y02478*
X06566*
Y02483*
X06566*
X06571Y02486*
X06574Y02491*
X06575Y02495*
X06575Y02496*
Y02496*
X06754*
X06824Y02426*
X06828Y02422*
X06831Y0242*
X06834Y0242*
X07476*
Y02315*
X05891*
X05126*
X05059Y02381*
X04738*
X04736Y02386*
X04737Y02388*
X04738Y02393*
X04737Y02398*
X04734Y02403*
X04729Y02406*
X04724Y02407*
X04719Y02406*
X04714Y02403*
X04711Y02398*
X0471Y02393*
X04711Y02388*
X04712Y02386*
X0471Y02381*
X04663*
X0466Y02386*
X04661Y0239*
X04664Y02392*
X04665Y02391*
X0467Y02392*
X04675Y02395*
X04678Y024*
X04679Y02405*
X04678Y0241*
X04675Y02415*
X0467Y02418*
X04665Y02419*
X0466Y02418*
X04655Y02415*
X04652Y0241*
X04651Y02407*
X04651Y02405*
X04646Y02403*
X04645Y02403*
X0464Y02402*
X04635Y02399*
X04632Y02395*
X04632Y02394*
X04627Y02391*
X04626Y02392*
X0462Y02393*
X04615Y02392*
X04611Y02389*
X04608Y02385*
X04607Y02381*
X04531*
X0453Y02382*
X04525Y02383*
X04519Y02382*
X04518Y02381*
X04078*
X03926Y02229*
X03925Y02229*
X03919Y02225*
X03916Y0222*
X03913Y02218*
X03908Y02219*
X03905Y02224*
X03899Y02228*
X03893Y02229*
X03887Y02228*
X03881Y02224*
X03878Y02219*
X03877Y02212*
X03878Y02206*
X03881Y02201*
X03887Y02197*
X03887Y02197*
X03889Y02192*
X03719Y02022*
Y01763*
X03649*
Y02137*
X03988Y02476*
X04642*
X04647Y02473*
X04653Y02471*
X04659Y02473*
X04665Y02476*
X04788*
Y03265*
X04863*
Y02476*
X05157*
Y02476*
X05566*
Y02641*
X05645Y0272*
X05712*
Y02757*
X05724*
X05729Y02759*
X0574Y0277*
X05742Y02775*
Y02834*
X0574Y02839*
X05736Y02841*
X05712*
Y0286*
X05717Y02863*
X05721Y02862*
X05726Y02863*
X05731Y02866*
X05734Y02871*
X05735Y02877*
X05734Y02882*
X05731Y02887*
X05726Y0289*
X05721Y02891*
X05719Y0289*
X05715Y02894*
X05715Y02894*
X05715Y02895*
X05719Y02898*
X05723Y02897*
X05728Y02898*
X05733Y02901*
X05736Y02906*
X05737Y02912*
X05736Y02917*
X05733Y02922*
X05728Y02925*
X05723Y02926*
X05718Y02925*
X05717Y02924*
X05712Y02927*
Y0298*
X05799*
Y02968*
X05797Y02967*
X05794Y02962*
X05793Y02957*
X05794Y02951*
X05797Y02946*
X05799Y02945*
Y0293*
X05797Y0293*
X05793Y02927*
X05789Y02922*
X05788Y02917*
X05789Y02911*
X05793Y02907*
X05797Y02904*
X05799Y02903*
Y02891*
X05797Y02891*
X05792Y02888*
X05789Y02883*
X05788Y02877*
X05789Y02872*
X05792Y02867*
X05797Y02864*
X05799Y02864*
Y02856*
X05797Y02855*
X05793Y02852*
X05789Y02847*
X05788Y02842*
X05789Y02837*
X05793Y02832*
X05797Y02829*
X05799Y02829*
Y02776*
X05797Y02776*
X05792Y02773*
X05789Y02768*
X05788Y02762*
X05789Y02757*
X05792Y02752*
X05797Y02749*
X05799Y02749*
Y0272*
X05793Y02714*
X05788Y02717*
X05783Y02719*
X05777Y02717*
X05773Y02714*
X0577Y0271*
Y0271*
X05765*
Y0271*
X05762Y02714*
X05757Y02717*
X05751Y02719*
X05746Y02717*
X05741Y02714*
X05741Y02713*
X05735*
X05734Y02714*
X05729Y02717*
X05724Y02719*
X05718Y02717*
X05714Y02714*
X05711Y0271*
X0571Y02704*
X05711Y02699*
X05714Y02694*
X05718Y02691*
X05724Y0269*
X05729Y02691*
X05734Y02694*
X05735Y02695*
X05741*
X05741Y02694*
X05746Y02691*
X05751Y0269*
X05757Y02691*
X05762Y02694*
X05765Y02699*
Y02699*
X0577*
Y02699*
X05773Y02694*
X05722Y02643*
X05718Y02643*
X05714Y0264*
X05711Y02635*
X0571Y02631*
X05688Y0261*
Y02512*
X05653Y02476*
X05706Y02422*
X05891*
Y029*
X05894Y02904*
X05897Y02908*
X05899Y02914*
Y02941*
X05897Y02947*
X05894Y02951*
X05891Y02955*
Y03122*
X05891Y03123*
Y03147*
X05893Y03151*
X05895Y03157*
X05893Y03162*
X05891Y03166*
Y03368*
X05868*
X05866Y0337*
X05864Y03373*
X05865Y03377*
X05864Y03383*
X05862Y03387*
Y03408*
X05867Y03412*
X05868Y03412*
X05873Y03413*
X05878Y03416*
X05881Y03421*
X05882Y03427*
X05881Y03432*
X05878Y03437*
X05878Y03439*
X05891Y03452*
X05898Y03459*
X05899Y03461*
X05904Y03458*
X05904Y03457*
X05905Y03453*
X05905Y03452*
X05908Y03447*
X05913Y03444*
X05918Y03443*
X05923Y03444*
X05928Y03447*
X05931Y03452*
X05932Y03457*
X05931Y03463*
X05928Y03468*
X05923Y03471*
X0592Y03471*
X05918Y03472*
X05917Y03472*
X05915Y03476*
X05916Y03478*
X05937Y03499*
X05939Y03498*
X05941Y03497*
X05942Y03497*
X05943Y03496*
X05943Y03495*
X05943Y03494*
X05946Y03489*
X05951Y03486*
X05956Y03485*
X05962Y03486*
X05964Y03488*
X05969Y03489*
X05974Y03486*
X05979Y03485*
X05985Y03486*
X05989Y03489*
X05992Y03494*
X05993Y03499*
X05992Y03505*
X05989Y03509*
X05985Y03512*
X05979Y03514*
X05974Y03512*
X05971Y03511*
X05966Y0351*
X05962Y03513*
X0596Y03513*
X05958Y03518*
X0596Y0352*
X0596Y03521*
X05961Y03522*
X05961Y03523*
X05978Y0354*
X05979Y03539*
X05983Y03538*
X05984Y03533*
X05987Y03529*
X05992Y03526*
X05997Y03525*
X06003Y03526*
X06007Y03529*
X0601Y03533*
X06011Y03536*
X06011Y03537*
X06016*
X06016Y03536*
X06017Y03533*
X0602Y03528*
X06025Y03525*
X0603Y03524*
X06035Y03525*
X0604Y03528*
X06043Y03533*
X06044Y03539*
X06043Y03544*
X0604Y03549*
X06035Y03552*
X0603Y03553*
X06025Y03552*
X0602Y03549*
X06017Y03544*
X06016Y03542*
X06016Y03541*
X06011*
X06011Y03542*
X0601Y03544*
X06007Y03549*
X06003Y03552*
X05999Y03553*
X05998Y03555*
X05997Y03557*
Y03558*
X05998Y03558*
X05998Y0356*
X05999Y03562*
X05999Y03562*
X05999Y03563*
X05998Y03569*
X05998Y03569*
X05998Y0357*
X05997Y03571*
Y03587*
X05997Y03587*
X05998Y03587*
X06Y03588*
X06002Y03589*
X06002Y03589*
X06002Y0359*
X06003Y03591*
X06004Y03593*
Y03668*
X06002Y03673*
X05997Y03675*
Y03694*
X06002Y03696*
X06004Y03701*
Y03739*
X06003Y0374*
X06003Y03741*
X06007Y03744*
X0601Y03742*
X06015Y03741*
X06021Y03742*
X06025Y03745*
X06028Y0375*
X0603Y03755*
X06028Y03761*
X06025Y03765*
X06021Y03769*
X06015Y0377*
X0601Y03769*
X06007Y03767*
X06003Y0377*
X06003Y03771*
X06004Y03772*
Y0388*
X06005Y03881*
X06009Y03882*
X06013Y0388*
X06019Y03878*
X06025Y0388*
X0603Y03883*
X06034Y03888*
X06035Y03895*
X06034Y03901*
X0603Y03906*
X06025Y0391*
X06019Y03911*
X06013Y0391*
X06009Y03907*
X06005Y03908*
X06004Y03909*
Y03924*
X06005Y03925*
X06009Y03926*
X06013Y03923*
X06019Y03922*
X06025Y03923*
X0603Y03927*
X06034Y03932*
X06035Y03938*
X06034Y03944*
X0603Y03949*
X06025Y03953*
X06019Y03954*
X06013Y03953*
X06009Y0395*
X06005Y03951*
X06004Y03952*
Y04037*
X06002Y04041*
X05997Y04043*
Y0413*
X05278*
Y04461*
X0471*
Y04479*
X0462*
Y04461*
X04149*
Y04479*
X04059*
Y04461*
X04046*
Y04122*
X03962*
X03953Y04131*
Y04461*
X0395*
Y04591*
X03953*
Y04753*
X04037Y04754*
X04046Y04745*
Y04591*
X05181*
Y04586*
X05271*
Y04591*
X05278*
Y05228*
X05821*
X05821Y05227*
X05824Y05222*
X0583Y05218*
X05836Y05217*
X05842Y05218*
X05848Y05222*
X05851Y05227*
X05851Y05228*
X05997*
Y05232*
X0603*
G37*
G36*
X07309Y01872D02*
X07308Y01871D01*
X07308Y01871*
X07307Y0187*
X07307Y0187*
X07307Y01869*
X07306Y01868*
X07306Y01868*
X07306Y01867*
X07306Y01866*
X07306Y01866*
X07298Y01874*
X07299*
X073Y01874*
X073Y01874*
X07301Y01874*
X07302Y01874*
X07302Y01874*
X07303Y01875*
X07303Y01875*
X07304Y01876*
X07305Y01876*
X07309Y01872*
G37*
G36*
X07732Y01848D02*
X07732Y01847D01*
X07732Y01847*
X07732Y01846*
X07733Y01845*
X07733Y01845*
X07733Y01844*
X07734Y01844*
X07734Y01843*
X07735Y01842*
X07731Y01838*
X0773Y01839*
X07729Y01839*
X07729Y0184*
X07728Y0184*
X07728Y0184*
X07727Y01841*
X07726Y01841*
X07726Y01841*
X07725Y01841*
X07724Y01841*
X07732Y01849*
Y01848*
G37*
%LNatfc_copper_signal_2-2*%
%LPC*%
G36*
X05976Y03954D02*
X05969Y03953D01*
X05964Y03949*
X05961Y03944*
X05959Y03938*
X05961Y03932*
X05964Y03927*
X05969Y03923*
X05976Y03922*
X05982Y03923*
X05987Y03927*
X0599Y03932*
X05992Y03938*
X0599Y03944*
X05987Y03949*
X05982Y03953*
X05976Y03954*
G37*
G36*
Y03911D02*
X05969Y0391D01*
X05964Y03906*
X05961Y03901*
X05959Y03895*
X05961Y03888*
X05964Y03883*
X05969Y0388*
X05976Y03878*
X05982Y0388*
X05987Y03883*
X0599Y03888*
X05992Y03895*
X0599Y03901*
X05987Y03906*
X05982Y0391*
X05976Y03911*
G37*
G36*
X05729Y03435D02*
X05724Y03434D01*
X05719Y03431*
X05716Y03426*
X05715Y0342*
X05716Y03415*
X05719Y0341*
X05724Y03407*
X05729Y03406*
X05734Y03407*
X05739Y0341*
X05742Y03415*
X05743Y0342*
X05742Y03426*
X05739Y03431*
X05734Y03434*
X05729Y03435*
G37*
G36*
X05811Y03432D02*
X05806Y03431D01*
X05801Y03428*
X05798Y03423*
X05797Y03418*
X05798Y03412*
X05801Y03408*
X05806Y03405*
X05811Y03403*
X05817Y03405*
X05821Y03408*
X05824Y03412*
X05826Y03418*
X05824Y03423*
X05821Y03428*
X05817Y03431*
X05811Y03432*
G37*
G36*
Y03471D02*
X05806Y0347D01*
X05801Y03467*
X05798Y03463*
X05797Y03457*
X05798Y03452*
X05801Y03447*
X05806Y03444*
X05811Y03443*
X05817Y03444*
X05821Y03447*
X05824Y03452*
X05826Y03457*
X05824Y03463*
X05821Y03467*
X05817Y0347*
X05811Y03471*
G37*
G36*
X05769Y03474D02*
X05763Y03473D01*
X05759Y0347*
X05756Y03466*
X05755Y0346*
X05756Y03455*
X05759Y0345*
X05763Y03447*
X05769Y03446*
X05774Y03447*
X05779Y0345*
X05782Y03455*
X05783Y0346*
X05782Y03466*
X05779Y0347*
X05774Y03473*
X05769Y03474*
G37*
G36*
X05691Y03476D02*
X05686Y03475D01*
X05681Y03472*
X05678Y03467*
X05677Y03462*
X05678Y03456*
X05681Y03451*
X05686Y03448*
X05691Y03447*
X05696Y03448*
X05701Y03451*
X05704Y03456*
X05705Y03462*
X05704Y03467*
X05701Y03472*
X05696Y03475*
X05691Y03476*
G37*
G36*
X05653Y03471D02*
X05648Y0347D01*
X05643Y03467*
X0564Y03463*
X05639Y03457*
X0564Y03452*
X05643Y03447*
X05648Y03444*
X05653Y03443*
X05659Y03444*
X05664Y03447*
X05667Y03452*
X05668Y03457*
X05667Y03463*
X05664Y03467*
X05659Y0347*
X05653Y03471*
G37*
G36*
X05917Y03632D02*
X05911Y03631D01*
X05907Y03628*
X05904Y03623*
X05903Y03618*
X05904Y03612*
X05907Y03608*
X05911Y03604*
X05917Y03603*
X05922Y03604*
X05927Y03608*
X0593Y03612*
X05931Y03618*
X0593Y03623*
X05927Y03628*
X05922Y03631*
X05917Y03632*
G37*
G36*
X05937Y0377D02*
X05931Y03769D01*
X05926Y03765*
X05923*
X05918Y03769*
X05913Y0377*
X05907Y03769*
X05903Y03765*
X059Y03761*
X05899Y03755*
X059Y0375*
X05903Y03745*
X05907Y03742*
X05913Y03741*
X05918Y03742*
X05923Y03745*
X05926*
X05931Y03742*
X05937Y03741*
X05942Y03742*
X05947Y03745*
X0595Y0375*
X05951Y03755*
X0595Y03761*
X05947Y03765*
X05942Y03769*
X05937Y0377*
G37*
G36*
X05772Y03511D02*
X05766Y0351D01*
X05762Y03507*
X05759Y03502*
X05758Y03496*
X05759Y03491*
X05762Y03486*
X05766Y03483*
X05772Y03482*
X05777Y03483*
X05782Y03486*
X05785Y03491*
X05786Y03496*
X05785Y03502*
X05782Y03507*
X05777Y0351*
X05772Y03511*
G37*
G36*
X05848Y03514D02*
X05842Y03513D01*
X05837Y0351*
X05834Y03505*
X05833Y035*
X05834Y03494*
X05837Y03489*
X05842Y03486*
X05848Y03485*
X05853Y03486*
X05858Y03489*
X05861Y03494*
X05862Y035*
X05861Y03505*
X05858Y0351*
X05853Y03513*
X05848Y03514*
G37*
G36*
X05917Y03593D02*
X05911Y03591D01*
X05907Y03588*
X05904Y03584*
X05903Y03578*
X05904Y03573*
X05907Y03568*
X05911Y03565*
X05917Y03564*
X05922Y03565*
X05927Y03568*
X0593Y03573*
X05931Y03578*
X0593Y03584*
X05927Y03588*
X05922Y03591*
X05917Y03593*
G37*
G36*
X05913Y03553D02*
X05907Y03552D01*
X05903Y03549*
X059Y03544*
X05899Y03539*
X059Y03533*
X05903Y03529*
X05907Y03526*
X05913Y03525*
X05918Y03526*
X05923Y03529*
X05926Y03533*
X05927Y03539*
X05926Y03544*
X05923Y03549*
X05918Y03552*
X05913Y03553*
G37*
G36*
X0569Y03632D02*
X05685Y03631D01*
X0568Y03628*
X05677Y03623*
X05676Y03618*
X05677Y03612*
X0568Y03608*
X05685Y03604*
X0569Y03603*
X05696Y03604*
X057Y03608*
X05703Y03612*
X05704Y03618*
X05703Y03623*
X057Y03628*
X05696Y03631*
X0569Y03632*
G37*
G36*
X05611D02*
X05606Y03631D01*
X05601Y03628*
X05598Y03623*
X05597Y03618*
X05598Y03612*
X05601Y03608*
X05606Y03604*
X05611Y03603*
X05617Y03604*
X05621Y03608*
X05625Y03612*
X05626Y03618*
X05625Y03623*
X05621Y03628*
X05617Y03631*
X05611Y03632*
G37*
G36*
X05777Y03634D02*
X05772Y03633D01*
X05767Y0363*
X05764Y03625*
X05763Y0362*
X05764Y03614*
X05767Y03609*
X05772Y03606*
X05777Y03605*
X05782Y03606*
X05787Y03609*
X0579Y03614*
X05791Y0362*
X0579Y03625*
X05787Y0363*
X05782Y03633*
X05777Y03634*
G37*
G36*
X05533Y03632D02*
X05527Y03631D01*
X05523Y03628*
X05519Y03623*
X05518Y03618*
X05519Y03612*
X05523Y03608*
X05527Y03604*
X05533Y03603*
X05538Y03604*
X05543Y03608*
X05546Y03612*
X05547Y03618*
X05546Y03623*
X05543Y03628*
X05538Y03631*
X05533Y03632*
G37*
G36*
X05493D02*
X05488Y03631D01*
X05483Y03628*
X0548Y03623*
X05479Y03618*
X0548Y03612*
X05483Y03608*
X05488Y03604*
X05493Y03603*
X05499Y03604*
X05503Y03608*
X05506Y03612*
X05508Y03618*
X05506Y03623*
X05503Y03628*
X05499Y03631*
X05493Y03632*
G37*
G36*
X05601Y03786D02*
X05596Y03785D01*
X05591Y03782*
X05588Y03777*
X05587Y03772*
X05588Y03766*
X05591Y03761*
X05596Y03758*
X05601Y03757*
X05606Y03758*
X05611Y03761*
X05614Y03766*
X05615Y03772*
X05614Y03777*
X05611Y03782*
X05606Y03785*
X05601Y03786*
G37*
G36*
X05704Y03766D02*
X05699Y03765D01*
X05696Y03763*
X05692Y03762*
X05689Y03763*
X05686Y03765*
X05681Y03766*
X05675Y03765*
X05671Y03762*
X05667Y03757*
X05666Y03751*
X05667Y03746*
X05671Y03741*
X05675Y03738*
X05681Y03737*
X05686Y03738*
X05689Y0374*
X05692Y03741*
X05696Y0374*
X05699Y03738*
X05704Y03737*
X0571Y03738*
X05714Y03741*
X05717Y03746*
X05719Y03751*
X05717Y03757*
X05714Y03762*
X0571Y03765*
X05704Y03766*
G37*
G36*
X0561Y0372D02*
X05605Y03719D01*
X056Y03716*
X05597Y03711*
X05596Y03705*
X05597Y037*
X056Y03695*
X05605Y03692*
X0561Y03691*
X05615Y03692*
X0562Y03695*
X05623Y037*
X05624Y03705*
X05623Y03711*
X0562Y03716*
X05615Y03719*
X0561Y0372*
G37*
G36*
X05495Y03591D02*
X0549Y0359D01*
X05485Y03587*
X05482Y03582*
X05481Y03577*
X05482Y03571*
X05485Y03566*
X0549Y03563*
X05495Y03562*
X055Y03563*
X05505Y03566*
X05508Y03571*
X05509Y03577*
X05508Y03582*
X05505Y03587*
X055Y0359*
X05495Y03591*
G37*
G36*
X05533Y03593D02*
X05527Y03591D01*
X05523Y03588*
X05519Y03584*
X05518Y03578*
X05519Y03573*
X05523Y03568*
X05527Y03565*
X05533Y03564*
X05538Y03565*
X05543Y03568*
X05546Y03573*
X05547Y03578*
X05546Y03584*
X05543Y03588*
X05538Y03591*
X05533Y03593*
G37*
G36*
Y03553D02*
X05527Y03552D01*
X05523Y03549*
X05519Y03544*
X05518Y03539*
X05519Y03533*
X05523Y03529*
X05527Y03526*
X05533Y03525*
X05538Y03526*
X05543Y03529*
X05546Y03533*
X05547Y03539*
X05546Y03544*
X05543Y03549*
X05538Y03552*
X05533Y03553*
G37*
G36*
X05654Y03052D02*
X05648Y03051D01*
X05644Y03048*
X05641Y03043*
X0564Y03038*
X05641Y03033*
X05644Y03028*
X05648Y03025*
X05654Y03024*
X05659Y03025*
X05664Y03028*
X05667Y03033*
X05668Y03038*
X05667Y03043*
X05664Y03048*
X05659Y03051*
X05654Y03052*
G37*
G36*
X05575D02*
X0557Y03051D01*
X05565Y03048*
X05562Y03043*
X05561Y03038*
X05562Y03033*
X05565Y03028*
X0557Y03025*
X05575Y03024*
X05581Y03025*
X05585Y03028*
X05588Y03033*
X05589Y03038*
X05588Y03043*
X05585Y03048*
X05581Y03051*
X05575Y03052*
G37*
G36*
X05492Y0325D02*
X05486Y03249D01*
X05482Y03246*
X05478Y03241*
X05477Y03236*
X05478Y0323*
X05482Y03226*
X05486Y03223*
X05492Y03221*
X05497Y03223*
X05502Y03226*
X05505Y0323*
X05506Y03236*
X05505Y03241*
X05502Y03246*
X05497Y03249*
X05492Y0325*
G37*
G36*
X05165Y03254D02*
X05159Y03253D01*
X05155Y0325*
X05152Y03245*
X05151Y0324*
X05152Y03234*
X05155Y0323*
X05159Y03226*
X05165Y03225*
X0517Y03226*
X05175Y0323*
X05178Y03234*
X05179Y0324*
X05178Y03245*
X05175Y0325*
X0517Y03253*
X05165Y03254*
G37*
G36*
X05536Y03052D02*
X0553Y03051D01*
X05526Y03048*
X05522Y03043*
X05521Y03038*
X05522Y03033*
X05526Y03028*
X0553Y03025*
X05536Y03024*
X05541Y03025*
X05546Y03028*
X05549Y03033*
X0555Y03038*
X05549Y03043*
X05546Y03048*
X05541Y03051*
X05536Y03052*
G37*
G36*
X05496D02*
X05491Y03051D01*
X05486Y03048*
X05483Y03043*
X05482Y03038*
X05483Y03033*
X05486Y03028*
X05491Y03025*
X05496Y03024*
X05502Y03025*
X05506Y03028*
X0551Y03033*
X05511Y03038*
X0551Y03043*
X05506Y03048*
X05502Y03051*
X05496Y03052*
G37*
G36*
X05342Y03057D02*
X05337Y03056D01*
X05332Y03053*
X05329Y03048*
Y03048*
X05324*
Y03048*
X05321Y03053*
X05316Y03056*
X05311Y03057*
X05305Y03056*
X053Y03053*
X053Y03052*
X05294*
X05293Y03053*
X05288Y03056*
X05283Y03057*
X05277Y03056*
X05273Y03053*
X0527Y03048*
X05269Y03043*
X0527Y03037*
X05273Y03033*
X05277Y0303*
X05283Y03029*
X05288Y0303*
X05293Y03033*
X05294Y03034*
X053*
X053Y03033*
X05305Y0303*
X05311Y03029*
X05316Y0303*
X05321Y03033*
X05324Y03037*
Y03037*
X05329*
Y03037*
X05332Y03033*
X05337Y0303*
X05342Y03029*
X05347Y0303*
X05352Y03033*
X05355Y03037*
X05356Y03043*
X05355Y03048*
X05352Y03053*
X05347Y03056*
X05342Y03057*
G37*
G36*
X05681Y0297D02*
X05675Y02969D01*
X0567Y02966*
X05667Y02962*
X05666Y02956*
X05667Y02951*
X0567Y02946*
X05675Y02943*
X05681Y02942*
X05686Y02943*
X05691Y02946*
X05694Y02951*
X05695Y02956*
X05694Y02962*
X05691Y02966*
X05686Y02969*
X05681Y0297*
G37*
G36*
X05654Y03013D02*
X05648Y03012D01*
X05644Y03009*
X05641Y03004*
X0564Y02999*
X05641Y02993*
X05644Y02989*
X05648Y02985*
X05654Y02984*
X05659Y02985*
X05664Y02989*
X05667Y02993*
X05668Y02999*
X05667Y03004*
X05664Y03009*
X05659Y03012*
X05654Y03013*
G37*
G36*
X05575D02*
X0557Y03012D01*
X05565Y03009*
X05562Y03004*
X05561Y02999*
X05562Y02993*
X05565Y02989*
X0557Y02985*
X05575Y02984*
X05581Y02985*
X05585Y02989*
X05588Y02993*
X05593Y02992*
X05593Y02991*
X05594Y02986*
X05597Y02981*
X05602Y02978*
X05607Y02977*
X05613Y02978*
X05617Y02981*
X0562Y02986*
X05621Y02991*
X0562Y02997*
X05617Y03001*
X05613Y03005*
X05607Y03006*
X05602Y03005*
X05597Y03001*
X05594Y02997*
X05589Y02998*
X05589Y02999*
X05588Y03004*
X05585Y03009*
X05581Y03012*
X05575Y03013*
G37*
G36*
X05492Y03289D02*
X05486Y03288D01*
X05482Y03285*
X05478Y03281*
X05477Y03275*
X05478Y0327*
X05482Y03265*
X05486Y03262*
X05492Y03261*
X05497Y03262*
X05502Y03265*
X05505Y0327*
X05506Y03275*
X05505Y03281*
X05502Y03285*
X05497Y03288*
X05492Y03289*
G37*
G36*
X05536Y03171D02*
X05531Y0317D01*
X05526Y03167*
X05523Y03162*
X05522Y03157*
X05523Y03151*
X05526Y03146*
X05531Y03143*
X05536Y03142*
X05541Y03143*
X05546Y03146*
X05549Y03151*
X0555Y03157*
X05549Y03162*
X05546Y03167*
X05541Y0317*
X05536Y03171*
G37*
G36*
X05527Y03203D02*
X05522Y03202D01*
X05517Y03199*
X05514Y03194*
X05513Y03188*
X05514Y03183*
X05517Y03178*
X05522Y03175*
X05527Y03174*
X05533Y03175*
X05537Y03178*
X0554Y03183*
X05541Y03188*
X0554Y03194*
X05537Y03199*
X05533Y03202*
X05527Y03203*
G37*
G36*
X05498Y03167D02*
X05493Y03166D01*
X05488Y03163*
X05485Y03158*
X05484Y03152*
X05485Y03147*
X05488Y03142*
X05493Y03139*
X05498Y03138*
X05503Y03139*
X05508Y03142*
X05511Y03147*
X05512Y03152*
X05511Y03158*
X05508Y03163*
X05503Y03166*
X05498Y03167*
G37*
G36*
X05244Y03223D02*
X05239Y03222D01*
X05234Y03219*
X05231Y03215*
X0523Y03209*
X05231Y03204*
X05234Y03199*
X05239Y03196*
X05244Y03195*
X0525Y03196*
X05254Y03199*
X05257Y03204*
X05258Y03209*
X05257Y03215*
X05254Y03219*
X0525Y03222*
X05244Y03223*
G37*
G36*
X05401Y03246D02*
X05396Y03245D01*
X05391Y03242*
X05388Y03237*
X05387Y03232*
X05388Y03226*
X05391Y03222*
X05388Y03218*
X05387Y03212*
X05388Y03207*
X05391Y03202*
X05396Y03199*
X05401Y03198*
X05407Y03199*
X05411Y03202*
X05414Y03207*
X05415Y03212*
X05414Y03218*
X05411Y03222*
X05414Y03226*
X05415Y03232*
X05414Y03237*
X05411Y03242*
X05407Y03245*
X05401Y03246*
G37*
G36*
X05244Y03293D02*
X05238Y03292D01*
X05234Y03289*
X0523Y03285*
X05229Y03279*
X0523Y03274*
X05234Y03269*
X05238Y03266*
X05238*
Y03261*
X05238*
X05234Y03258*
X0523Y03253*
X05229Y03248*
X0523Y03242*
X05234Y03237*
X05238Y03234*
X05244Y03233*
X05249Y03234*
X05254Y03237*
X05257Y03242*
X05258Y03248*
X05257Y03253*
X05254Y03258*
X05249Y03261*
X05249*
Y03266*
X05249*
X05254Y03269*
X05257Y03274*
X05258Y03279*
X05257Y03285*
X05254Y03289*
X05249Y03292*
X05244Y03293*
G37*
G36*
X05102Y03234D02*
X05096Y03233D01*
X05092Y0323*
X05089Y03225*
X05088Y0322*
X05089Y03215*
X05092Y0321*
X05096Y03207*
X05102Y03206*
X05107Y03207*
X05112Y0321*
X05115Y03215*
X05116Y0322*
X05115Y03225*
X05112Y0323*
X05107Y03233*
X05102Y03234*
G37*
G36*
X05649Y03128D02*
X05644Y03127D01*
X05639Y03124*
X05636Y03119*
X05635Y03114*
X05636Y03108*
X05639Y03104*
X05644Y031*
X05649Y03099*
X05655Y031*
X05659Y03104*
X05662Y03108*
X05663Y03114*
X05662Y03119*
X05659Y03124*
X05655Y03127*
X05649Y03128*
G37*
G36*
X05575Y03235D02*
X0557Y03234D01*
X05565Y03231*
X05562Y03226*
X05561Y03221*
X05562Y03215*
X05565Y03211*
X0557Y03208*
X05575Y03207*
X05581Y03208*
X05585Y03211*
X05588Y03215*
X05589Y03221*
X05588Y03226*
X05585Y03231*
X05581Y03234*
X05575Y03235*
G37*
G36*
X05648Y03285D02*
X05642Y03284D01*
X05638Y03281*
X05634Y03277*
X05633Y03271*
X05634Y03266*
X05638Y03261*
X05642Y03258*
X05648Y03257*
X05653Y03258*
X05658Y03261*
X05661Y03266*
X05662Y03271*
X05661Y03277*
X05658Y03281*
X05653Y03284*
X05648Y03285*
G37*
G36*
X05535Y03116D02*
X05529Y03115D01*
X05525Y03112*
X05522Y03107*
X05521Y03102*
X05522Y03096*
X05525Y03092*
X05529Y03089*
X05535Y03088*
X0554Y03089*
X05545Y03092*
X05548Y03096*
X05549Y03102*
X05548Y03107*
X05545Y03112*
X0554Y03115*
X05535Y03116*
G37*
G36*
X05614Y03235D02*
X05609Y03234D01*
X05604Y03231*
X05601Y03226*
X056Y03221*
X05601Y03215*
X05604Y03211*
X05609Y03208*
X05614Y03207*
X0562Y03208*
X05625Y03211*
X05628Y03215*
X05629Y03221*
X05628Y03226*
X05625Y03231*
X0562Y03234*
X05614Y03235*
G37*
G36*
X05566Y03128D02*
X05561Y03127D01*
X05556Y03124*
X05553Y03119*
X05552Y03114*
X05553Y03108*
X05556Y03104*
X05561Y031*
X05566Y03099*
X05572Y031*
X05577Y03104*
X0558Y03108*
X05581Y03114*
X0558Y03119*
X05577Y03124*
X05572Y03127*
X05566Y03128*
G37*
G36*
X05536Y03275D02*
X0553Y03273D01*
X05526Y0327*
X05522Y03266*
X05521Y0326*
X05522Y03255*
X05526Y0325*
X0553Y03247*
X05536Y03246*
X05541Y03247*
X05546Y0325*
X05549Y03255*
X0555Y0326*
X05549Y03266*
X05546Y0327*
X05541Y03273*
X05536Y03275*
G37*
G36*
X05575D02*
X0557Y03273D01*
X05565Y0327*
X05562Y03266*
X05561Y0326*
X05562Y03255*
X05565Y0325*
X0557Y03247*
X05575Y03246*
X05581Y03247*
X05585Y0325*
X05588Y03255*
X05589Y0326*
X05588Y03266*
X05585Y0327*
X05581Y03273*
X05575Y03275*
G37*
G36*
X05342Y03128D02*
X05337Y03127D01*
X05332Y03124*
X05331Y03123*
X05325*
X05325Y03124*
X0532Y03127*
X05314Y03128*
X05309Y03127*
X05304Y03124*
X05301Y03119*
Y03119*
X05296*
Y03119*
X05293Y03124*
X05288Y03127*
X05283Y03128*
X05277Y03127*
X05273Y03124*
X0527Y03119*
X05269Y03114*
X0527Y03108*
X05273Y03104*
X05277Y031*
X05283Y03099*
X05288Y031*
X05293Y03104*
X05296Y03108*
Y03108*
X05301*
Y03108*
X05304Y03104*
X05309Y031*
X05314Y03099*
X0532Y031*
X05325Y03104*
X05325Y03105*
X05331*
X05332Y03104*
X05337Y031*
X05342Y03099*
X05347Y031*
X05352Y03104*
X05355Y03108*
X05356Y03114*
X05355Y03119*
X05352Y03124*
X05347Y03127*
X05342Y03128*
G37*
G36*
X05602Y0313D02*
X05596Y03129D01*
X05592Y03126*
X05589Y03121*
X05587Y03115*
X05589Y0311*
X05592Y03105*
X05596Y03102*
X05602Y03101*
X05607Y03102*
X05612Y03105*
X05615Y0311*
X05616Y03115*
X05615Y03121*
X05612Y03126*
X05607Y03129*
X05602Y0313*
G37*
G36*
X05536Y03235D02*
X0553Y03234D01*
X05526Y03231*
X05522Y03226*
X05521Y03221*
X05522Y03215*
X05526Y03211*
X0553Y03208*
X05536Y03207*
X05541Y03208*
X05546Y03211*
X05549Y03215*
X0555Y03221*
X05549Y03226*
X05546Y03231*
X05541Y03234*
X05536Y03235*
G37*
G36*
X05523Y0297D02*
X05518Y02969D01*
X05513Y02966*
X0551Y02962*
X05509Y02956*
X0551Y02951*
X05513Y02946*
X05518Y02943*
X05523Y02942*
X05529Y02943*
X05533Y02946*
X05536Y02951*
X05537Y02956*
X05536Y02962*
X05533Y02966*
X05529Y02969*
X05523Y0297*
G37*
G36*
X05654Y02895D02*
X05648Y02894D01*
X05644Y02891*
X05641Y02886*
X0564Y02881*
X05641Y02875*
X05644Y0287*
X05648Y02867*
X05654Y02866*
X05659Y02867*
X05664Y0287*
X05667Y02875*
X05668Y02881*
X05667Y02886*
X05664Y02891*
X05659Y02894*
X05654Y02895*
G37*
G36*
X05385Y02935D02*
X0538Y02934D01*
X05375Y02931*
X05372Y02926*
X05371Y02921*
X05372Y02915*
X05374Y02912*
X05375Y02909*
X05374Y02905*
X05372Y02903*
X05371Y02897*
X05372Y02892*
X05375Y02887*
X0538Y02884*
X05385Y02883*
X05391Y02884*
X05395Y02887*
X05399Y02892*
X054Y02897*
X05399Y02903*
X05397Y02905*
X05396Y02909*
X05397Y02912*
X05399Y02915*
X054Y02921*
X05399Y02926*
X05395Y02931*
X05391Y02934*
X05385Y02935*
G37*
G36*
X05575Y02895D02*
X0557Y02894D01*
X05565Y02891*
X05562Y02886*
X05561Y02881*
X05562Y02875*
X05565Y0287*
X0557Y02867*
X05575Y02866*
X05581Y02867*
X05585Y0287*
X05588Y02875*
X05589Y02881*
X05588Y02886*
X05585Y02891*
X05581Y02894*
X05575Y02895*
G37*
G36*
X05614Y02892D02*
X05608Y02891D01*
X05604Y02888*
X056Y02883*
X05599Y02877*
X056Y02872*
X05604Y02867*
X05608Y02864*
X05614Y02863*
X05619Y02864*
X05624Y02867*
X05627Y02872*
X05628Y02877*
X05627Y02883*
X05624Y02888*
X05619Y02891*
X05614Y02892*
G37*
G36*
X05574Y02969D02*
X05569Y02968D01*
X05564Y02965*
X05561Y02961*
X0556Y02955*
X05561Y0295*
X05564Y02945*
X05569Y02942*
X05574Y02941*
X0558Y02942*
X05584Y02945*
X05587Y0295*
X05588Y02952*
X05593Y02952*
X05593Y0295*
X05594Y02947*
X05597Y02942*
X05601Y02939*
X05601Y02937*
X056Y02934*
X056Y02934*
X05596Y02931*
X05593Y02926*
X05592Y02921*
X05593Y02915*
X05596Y02911*
X056Y02908*
X05606Y02906*
X05611Y02908*
X05616Y02911*
X05619Y02915*
X0562Y02921*
X05619Y02926*
X05616Y02931*
X05612Y02934*
X05612Y02936*
X05612Y02939*
X05613Y02939*
X05617Y02942*
X0562Y02947*
X05621Y02952*
X0562Y02957*
X05617Y02962*
X05613Y02965*
X05607Y02966*
X05602Y02965*
X05597Y02962*
X05594Y02957*
X05593Y02955*
X05589Y02955*
X05588Y02957*
X05587Y02961*
X05584Y02965*
X0558Y02968*
X05574Y02969*
G37*
G36*
X05488Y02967D02*
X05482Y02965D01*
X05478Y02962*
X05475Y02958*
X05473Y02952*
X05475Y02947*
X05478Y02942*
X05482Y02939*
X05488Y02938*
X05493Y02939*
X05498Y02942*
X05501Y02947*
X05502Y02952*
X05501Y02958*
X05498Y02962*
X05493Y02965*
X05488Y02967*
G37*
G36*
X05645Y02967D02*
X0564Y02965D01*
X05635Y02962*
X05632Y02958*
X05631Y02952*
X05632Y02947*
X05635Y02942*
X0564Y02939*
X05645Y02938*
X05651Y02939*
X05655Y02942*
X05658Y02947*
X05659Y02952*
X05658Y02958*
X05655Y02962*
X05651Y02965*
X05645Y02967*
G37*
G36*
X05488Y02931D02*
X05482Y0293D01*
X05478Y02927*
X05475Y02922*
X05473Y02917*
X05475Y02911*
X05478Y02907*
X05482Y02904*
X05488Y02903*
X05493Y02904*
X05498Y02907*
X05501Y02911*
X05502Y02917*
X05501Y02922*
X05498Y02927*
X05493Y0293*
X05488Y02931*
G37*
G36*
X05685Y02813D02*
X05679Y02812D01*
X05674Y02809*
X05671Y02804*
X0567Y02799*
X05671Y02793*
X05674Y02789*
X05679Y02786*
X05685Y02784*
X0569Y02786*
X05695Y02789*
X05698Y02793*
X05699Y02799*
X05698Y02804*
X05695Y02809*
X0569Y02812*
X05685Y02813*
G37*
G36*
X05535D02*
X05529Y02812D01*
X05525Y02809*
X05522Y02804*
X05521Y02799*
X05522Y02793*
X05525Y02789*
X05529Y02786*
X05535Y02784*
X0554Y02786*
X05545Y02789*
X05548Y02793*
X05549Y02799*
X05548Y02804*
X05545Y02809*
X0554Y02812*
X05535Y02813*
G37*
G36*
X05496Y02813D02*
X05491Y02812D01*
X05486Y02809*
X05483Y02804*
X05482Y02799*
X05483Y02793*
X05486Y02789*
X05491Y02786*
X05496Y02784*
X05501Y02786*
X05506Y02789*
X05509Y02793*
X0551Y02799*
X05509Y02804*
X05506Y02809*
X05501Y02812*
X05496Y02813*
G37*
G36*
X05569Y02812D02*
X05564Y02811D01*
X05559Y02808*
X05556Y02803*
X05555Y02797*
X05556Y02792*
X05559Y02787*
X05564Y02784*
X05569Y02783*
X05574Y02784*
X05579Y02787*
X05582Y02792*
X05583Y02797*
X05582Y02803*
X05579Y02808*
X05574Y02811*
X05569Y02812*
G37*
G36*
X05346Y02876D02*
X0534Y02875D01*
X05336Y02872*
X05333Y02867*
X05332Y02862*
X05333Y02856*
X05335Y02853*
X05335Y0285*
X05335Y02846*
X05333Y02844*
X05332Y02838*
X05333Y02833*
X05336Y02828*
X0534Y02825*
X05346Y02824*
X05351Y02825*
X05356Y02828*
X05359Y02833*
X0536Y02838*
X05359Y02844*
X05357Y02846*
X05356Y0285*
X05357Y02853*
X05359Y02856*
X0536Y02862*
X05359Y02867*
X05356Y02872*
X05351Y02875*
X05346Y02876*
G37*
G36*
X05571Y02849D02*
X05566Y02848D01*
X05561Y02845*
X05558Y0284*
X05557Y02835*
X05558Y02829*
X05561Y02824*
X05566Y02821*
X05571Y0282*
X05576Y02821*
X05581Y02824*
X05584Y02829*
X05585Y02835*
X05584Y0284*
X05581Y02845*
X05576Y02848*
X05571Y02849*
G37*
G36*
X05527Y02884D02*
X05522Y02883D01*
X05517Y0288*
X05514Y02875*
X05513Y0287*
X05514Y02864*
X05517Y0286*
X05522Y02856*
X05524Y02856*
X05525Y02854*
X05525Y02851*
X05522Y02847*
X05521Y02841*
X05522Y02836*
X05526Y02831*
X0553Y02828*
X05536Y02827*
X05541Y02828*
X05546Y02831*
X05549Y02836*
X0555Y02841*
X05549Y02847*
X05546Y02851*
X05541Y02854*
X05539Y02855*
X05538Y02857*
X05538Y0286*
X0554Y02864*
X05541Y0287*
X0554Y02875*
X05537Y0288*
X05533Y02883*
X05527Y02884*
G37*
G36*
X05646Y02855D02*
X05641Y02854D01*
X05636Y02851*
X05633Y02846*
X05632Y0284*
X05633Y02835*
X05636Y0283*
X05641Y02827*
X05646Y02826*
X05651Y02827*
X05656Y0283*
X05659Y02835*
X0566Y0284*
X05659Y02846*
X05656Y02851*
X05651Y02854*
X05646Y02855*
G37*
G36*
X05433Y03337D02*
X05427Y03336D01*
X05422Y03332*
X05419Y03328*
X05418Y03322*
X05419Y03317*
X05422Y03312*
Y03309*
X05419Y03304*
X05418Y03299*
X05419Y03293*
X05422Y03289*
X05427Y03286*
X05433Y03284*
X05438Y03286*
X05443Y03289*
X05446Y03293*
X05447Y03299*
X05446Y03304*
X05443Y03309*
Y03312*
X05446Y03317*
X05447Y03322*
X05446Y03328*
X05443Y03332*
X05438Y03336*
X05433Y03337*
G37*
G36*
X0849Y04351D02*
X08485Y0435D01*
X0848Y04347*
X08477Y04342*
X08476Y04337*
X08477Y04331*
X0848Y04327*
X08485Y04324*
X0849Y04322*
X08496Y04324*
X08501Y04327*
X08504Y04331*
X08505Y04337*
X08504Y04342*
X08501Y04347*
X08496Y0435*
X0849Y04351*
G37*
G36*
X0859Y04301D02*
X08585Y043D01*
X0858Y04297*
X08577Y04292*
X08576Y04287*
X08577Y04281*
X0858Y04277*
X08585Y04274*
X0859Y04272*
X08596Y04274*
X08601Y04277*
X08604Y04281*
X08605Y04287*
X08604Y04292*
X08601Y04297*
X08596Y043*
X0859Y04301*
G37*
G36*
X03834Y04268D02*
X03828Y04267D01*
X03823Y04263*
X03819Y04258*
X03818Y04251*
X03819Y04245*
X03823Y0424*
X03828Y04236*
X03834Y04235*
X0384Y04236*
X03846Y0424*
X03849Y04245*
X0385Y04251*
X03849Y04258*
X03846Y04263*
X0384Y04267*
X03834Y04268*
G37*
G36*
Y04205D02*
X03828Y04204D01*
X03823Y042*
X03819Y04195*
X03818Y04188*
X03819Y04182*
X03823Y04177*
X03828Y04173*
X03834Y04172*
X0384Y04173*
X03846Y04177*
X03849Y04182*
X0385Y04188*
X03849Y04195*
X03846Y042*
X0384Y04204*
X03834Y04205*
G37*
G36*
X05836Y05367D02*
X0583Y05366D01*
X05824Y05362*
X05821Y05357*
X0582Y0535*
X05821Y05344*
X05824Y05339*
X0583Y05335*
X05836Y05334*
X05842Y05335*
X05848Y05339*
X05851Y05344*
X05852Y0535*
X05851Y05357*
X05848Y05362*
X05842Y05366*
X05836Y05367*
G37*
G36*
X05893D02*
X05887Y05366D01*
X05881Y05362*
X05878Y05357*
X05877Y0535*
X05878Y05344*
X05881Y05339*
X05887Y05335*
X05893Y05334*
X05899Y05335*
X05905Y05339*
X05908Y05344*
X05909Y0535*
X05908Y05357*
X05905Y05362*
X05899Y05366*
X05893Y05367*
G37*
G36*
X05689Y05371D02*
X05683Y0537D01*
X05677Y05366*
X05674Y05361*
X05673Y05355*
X05674Y05348*
X05677Y05343*
X05683Y05339*
X05689Y05338*
X05695Y05339*
X05701Y05343*
X05704Y05348*
X05705Y05355*
X05704Y05361*
X05701Y05366*
X05695Y0537*
X05689Y05371*
G37*
G36*
X06043Y05368D02*
X06037Y05367D01*
X06031Y05363*
X06028Y05358*
X06027Y05352*
X06028Y05345*
X06031Y0534*
X06037Y05336*
X06043Y05335*
X06049Y05336*
X06055Y0534*
X06058Y05345*
X06059Y05352*
X06058Y05358*
X06055Y05363*
X06049Y05367*
X06043Y05368*
G37*
G36*
X03838Y04713D02*
X03832Y04711D01*
X03827Y04708*
X03823Y04703*
X03822Y04696*
X03823Y0469*
X03827Y04685*
X03832Y04681*
X03838Y0468*
X03844Y04681*
X0385Y04685*
X03853Y0469*
X03854Y04696*
X03853Y04703*
X0385Y04708*
X03844Y04711*
X03838Y04713*
G37*
G36*
Y04646D02*
X03832Y04645D01*
X03827Y04641*
X03823Y04636*
X03822Y04629*
X03823Y04623*
X03827Y04618*
X03832Y04614*
X03838Y04613*
X03844Y04614*
X0385Y04618*
X03853Y04623*
X03854Y04629*
X03853Y04636*
X0385Y04641*
X03844Y04645*
X03838Y04646*
G37*
G36*
X05571Y03438D02*
X05566Y03437D01*
X05561Y03434*
X05558Y03429*
X05557Y03424*
X05558Y03418*
X05561Y03413*
X05566Y0341*
X05571Y03409*
X05576Y0341*
X05581Y03413*
X05584Y03418*
X05585Y03424*
X05584Y03429*
X05581Y03434*
X05576Y03437*
X05571Y03438*
G37*
G36*
X05389Y03404D02*
X05384Y03402D01*
X05379Y03399*
X05376Y03395*
X05375Y03389*
X05376Y03384*
X05379Y03379*
X05384Y03376*
X05389Y03375*
X05395Y03376*
X05399Y03379*
X05402Y03384*
X05404Y03389*
X05402Y03395*
X05399Y03399*
X05395Y03402*
X05389Y03404*
G37*
G36*
X05491Y03477D02*
X05485Y03475D01*
X05481Y03472*
X05478Y03468*
X05476Y03462*
X05478Y03457*
X05481Y03452*
X05485Y03449*
X05491Y03448*
X05496Y03449*
X05501Y03452*
X05504Y03457*
X05505Y03462*
X05504Y03468*
X05501Y03472*
X05496Y03475*
X05491Y03477*
G37*
G36*
X05389Y03455D02*
X05384Y03454D01*
X05379Y03451*
X05376Y03446*
X05375Y0344*
X05376Y03435*
X05379Y0343*
X05384Y03427*
X05389Y03426*
X05395Y03427*
X05399Y0343*
X05402Y03435*
X05404Y0344*
X05402Y03446*
X05399Y03451*
X05395Y03454*
X05389Y03455*
G37*
G36*
X05326D02*
X05321Y03454D01*
X05316Y03451*
X05313Y03446*
X05312Y0344*
X05313Y03435*
X05316Y0343*
X05321Y03427*
X05326Y03426*
X05332Y03427*
X05336Y0343*
X05339Y03435*
X05341Y0344*
X05339Y03446*
X05336Y03451*
X05332Y03454*
X05326Y03455*
G37*
G36*
X05575Y03353D02*
X0557Y03352D01*
X05565Y03349*
X05562Y03344*
X05561Y03339*
X05562Y03334*
X05565Y03329*
X0557Y03326*
X05575Y03325*
X05581Y03326*
X05585Y03329*
X05588Y03334*
X05589Y03339*
X05588Y03344*
X05585Y03349*
X05581Y03352*
X05575Y03353*
G37*
G36*
Y03314D02*
X0557Y03313D01*
X05565Y0331*
X05562Y03305*
X05561Y033*
X05562Y03294*
X05565Y0329*
X0557Y03286*
X05575Y03285*
X05581Y03286*
X05585Y0329*
X05588Y03294*
X05589Y033*
X05588Y03305*
X05585Y0331*
X05581Y03313*
X05575Y03314*
G37*
G36*
X05495Y03355D02*
X0549Y03353D01*
X05485Y0335*
X05482Y03346*
X05481Y0334*
X05482Y03335*
X05485Y0333*
X05487Y03329*
X05486Y03324*
X05485Y03324*
X05481Y03321*
X05477Y03316*
X05476Y03311*
X05477Y03305*
X05481Y033*
X05485Y03297*
X05491Y03296*
X05496Y03297*
X05501Y033*
X05504Y03305*
X05505Y03311*
X05504Y03316*
X05501Y03321*
X05499Y03322*
X055Y03327*
X055Y03327*
X05505Y0333*
X05508Y03335*
X05509Y0334*
X05508Y03346*
X05505Y0335*
X055Y03353*
X05495Y03355*
G37*
G36*
X05611Y03396D02*
X05606Y03395D01*
X05601Y03392*
X05598Y03387*
X05597Y03381*
X05598Y03376*
X05601Y03371*
X05606Y03368*
X05611Y03367*
X05617Y03368*
X05621Y03371*
X05625Y03376*
X05626Y03381*
X05625Y03387*
X05621Y03392*
X05617Y03395*
X05611Y03396*
G37*
G36*
X05326Y034D02*
X05321Y03399D01*
X05316Y03395*
X05313Y03391*
X05312Y03385*
X05313Y0338*
X05316Y03375*
X05321Y03372*
X05326Y03371*
X05332Y03372*
X05336Y03375*
X05339Y0338*
X05341Y03385*
X05339Y03391*
X05336Y03395*
X05332Y03399*
X05326Y034*
G37*
G36*
X05575Y03393D02*
X0557Y03392D01*
X05565Y03388*
X05562Y03384*
X05561Y03378*
X05562Y03373*
X05565Y03368*
X0557Y03365*
X05575Y03364*
X05581Y03365*
X05585Y03368*
X05588Y03373*
X05589Y03378*
X05588Y03384*
X05585Y03388*
X05581Y03392*
X05575Y03393*
G37*
G36*
X04916Y03373D02*
X0491Y03372D01*
X04904Y03368*
X04901Y03363*
X049Y03357*
X04901Y0335*
X04904Y03345*
X0491Y03341*
X04916Y0334*
X04922Y03341*
X04928Y03345*
X04931Y0335*
X04932Y03357*
X04931Y03363*
X04928Y03368*
X04922Y03372*
X04916Y03373*
G37*
G36*
X05495Y03394D02*
X0549Y03393D01*
X05485Y0339*
X05482Y03385*
X05481Y0338*
X05482Y03374*
X05485Y0337*
X0549Y03366*
X05495Y03365*
X055Y03366*
X05505Y0337*
X05508Y03374*
X05509Y0338*
X05508Y03385*
X05505Y0339*
X055Y03393*
X05495Y03394*
G37*
G36*
X05095Y03489D02*
X0509Y03488D01*
X05085Y03485*
X05082Y0348*
X05081Y03475*
X05082Y0347*
X05085Y03465*
X0509Y03462*
X0509*
Y03457*
X0509Y03457*
X05085Y03454*
X05082Y03449*
X05081Y03443*
X05082Y03438*
X05085Y03433*
X0509Y0343*
X0509*
Y03425*
X0509Y03425*
X05085Y03422*
X05082Y03417*
X05081Y03412*
X05082Y03407*
X05085Y03402*
X0509Y03399*
X0509*
Y03394*
X0509Y03394*
X05085Y03391*
X05082Y03386*
X05081Y0338*
X05082Y03375*
X05085Y0337*
X0509Y03367*
X05095Y03366*
X051Y03367*
X05105Y0337*
X05108Y03375*
X05109Y0338*
X05108Y03386*
X05105Y03391*
X051Y03394*
X051Y03394*
Y03399*
X051*
X05105Y03402*
X05108Y03407*
X05109Y03412*
X05108Y03417*
X05105Y03422*
X051Y03425*
X051Y03425*
Y0343*
X051*
X05105Y03433*
X05108Y03438*
X05109Y03443*
X05108Y03449*
X05105Y03454*
X051Y03457*
X051Y03457*
Y03462*
X051*
X05105Y03465*
X05108Y0347*
X05109Y03475*
X05108Y0348*
X05105Y03485*
X051Y03488*
X05095Y03489*
G37*
G36*
X03315Y03122D02*
X03209D01*
X03204Y0312*
X03202Y03115*
Y03073*
X03204Y03069*
X03209Y03067*
X03315*
X0332Y03069*
X03322Y03073*
Y03115*
X0332Y0312*
X03315Y03122*
G37*
G36*
X03297Y03055D02*
X03291Y03053D01*
X03285Y0305*
X03282Y03045*
X03281Y03042*
X03276*
X03276Y03044*
X03273Y03049*
X03267Y03052*
X03261Y03054*
X03255Y03052*
X03249Y03049*
X03247Y03046*
X03242*
X0324Y03049*
X03234Y03052*
X03228Y03054*
X03222Y03052*
X03216Y03049*
X03213Y03044*
X03212Y03037*
X03213Y03031*
X03216Y03026*
X03222Y03022*
X03228Y03021*
X03234Y03022*
X0324Y03026*
X03242Y03029*
X03247*
X03249Y03026*
X03255Y03022*
X03261Y03021*
X03267Y03022*
X03273Y03026*
X03276Y03031*
X03277Y03034*
X03282*
X03282Y03032*
X03285Y03027*
X03291Y03023*
X03297Y03022*
X03303Y03023*
X03309Y03027*
X03312Y03032*
X03313Y03038*
X03312Y03045*
X03309Y0305*
X03303Y03053*
X03297Y03055*
G37*
G36*
X03507Y03002D02*
X03501Y03D01*
X03495Y02997*
X03492Y02992*
X03491Y02985*
X03492Y02979*
X03495Y02974*
X03501Y0297*
X03507Y02969*
X03513Y0297*
X03519Y02974*
X03522Y02979*
X03523Y02985*
X03522Y02992*
X03519Y02997*
X03513Y03*
X03507Y03002*
G37*
G36*
X0351Y03333D02*
X03501Y03331D01*
X03492Y03328*
X03484Y03322*
X03479Y03314*
X03475Y03306*
X03474Y03296*
X03475Y03287*
X03479Y03278*
X03484Y03271*
X03492Y03265*
X03501Y03261*
X0351Y0326*
X03519Y03261*
X03528Y03265*
X03536Y03271*
X03541Y03278*
X03545Y03287*
X03546Y03296*
X03545Y03306*
X03541Y03314*
X03536Y03322*
X03528Y03328*
X03519Y03331*
X0351Y03333*
G37*
G36*
X02998Y03168D02*
X02992Y03166D01*
X02986Y03163*
X02986Y03162*
X02981*
X02981Y03163*
X02975Y03166*
X02969Y03168*
X02963Y03166*
X02957Y03163*
X02954Y03158*
X02953Y03151*
X02954Y03145*
X02957Y0314*
X02963Y03136*
X02969Y03135*
X02975Y03136*
X02981Y0314*
X02981Y03141*
X02986*
X02986Y0314*
X02992Y03136*
X02998Y03135*
X03004Y03136*
X0301Y0314*
X03011Y03142*
X03017Y03142*
X03018Y03139*
X03024Y03135*
X0303Y03134*
X03036Y03135*
X03042Y03139*
X03043Y03141*
X03049Y03141*
X0305Y03138*
X03056Y03134*
X03062Y03133*
X03068Y03134*
X03074Y03138*
X03077Y03143*
X03078Y03149*
X03077Y03156*
X03074Y03161*
X03068Y03164*
X03062Y03166*
X03056Y03164*
X0305Y03161*
X03049Y03159*
X03043Y03159*
X03042Y03162*
X03036Y03165*
X0303Y03167*
X03024Y03165*
X03018Y03162*
X03017Y0316*
X03011Y0316*
X0301Y03163*
X03004Y03166*
X02998Y03168*
G37*
G36*
X03269Y03201D02*
X03263Y03199D01*
X03257Y03196*
X03254Y03191*
X03253Y03187*
X03253Y03186*
X03248*
X03248Y03187*
X03247Y0319*
X03244Y03195*
X03238Y03198*
X03232Y032*
X03226Y03198*
X0322Y03195*
X03217Y0319*
X03216Y03183*
X03217Y03177*
X0322Y03172*
X03226Y03168*
X03232Y03167*
X03238Y03168*
X03244Y03172*
X03247Y03177*
X03248Y03181*
X03248Y03182*
X03253*
X03253Y03181*
X03254Y03178*
X03257Y03173*
X03263Y03169*
X03269Y03168*
X03275Y03169*
X03281Y03173*
X03284Y03178*
X03285Y03184*
X03284Y03191*
X03281Y03196*
X03275Y03199*
X03269Y03201*
G37*
G36*
X0351Y03195D02*
X03501Y03194D01*
X03492Y0319*
X03484Y03184*
X03479Y03177*
X03475Y03168*
X03474Y03159*
X03475Y03149*
X03479Y0314*
X03484Y03133*
X03492Y03127*
X03501Y03123*
X0351Y03122*
X03519Y03123*
X03528Y03127*
X03536Y03133*
X03541Y0314*
X03545Y03149*
X03546Y03159*
X03545Y03168*
X03541Y03177*
X03536Y03184*
X03528Y0319*
X03519Y03194*
X0351Y03195*
G37*
G36*
X0469Y02289D02*
X04683Y02288D01*
X04677Y02284*
X04674Y02279*
X04673Y02279*
X04669*
X04668Y02279*
X04665Y02284*
X04659Y02288*
X04652Y02289*
X04644Y02288*
X04638Y02284*
X04635Y02279*
X04633Y02278*
X04631*
X04629Y02279*
X04626Y02284*
X0462Y02288*
X04613Y02289*
X04605Y02288*
X04599Y02284*
X04596Y02279*
X04595Y02279*
X04592*
X04591Y02279*
X04587Y02284*
X04581Y02288*
X04574Y02289*
X04567Y02288*
X04561Y02284*
X04557Y02279*
X04556Y02279*
X04553*
X04552Y02279*
X04549Y02284*
X04542Y02288*
X04535Y02289*
X04528Y02288*
X04522Y02284*
X04518Y02278*
X04516Y0227*
X04518Y02263*
X04522Y02257*
X04526Y02254*
Y02249*
X04522Y02246*
X04518Y0224*
X04516Y02232*
X04518Y02225*
X04522Y02219*
X04528Y02215*
X04535Y02214*
X04542Y02215*
X04549Y02219*
X04552Y02224*
X04553Y02224*
X04556*
X04557Y02224*
X04561Y02219*
X04567Y02215*
X04574Y02214*
X04581Y02215*
X04587Y02219*
X0459Y02223*
X04596*
X04598Y02219*
X04604Y02215*
X04612Y02214*
X04619Y02215*
X04625Y02219*
X04629Y02225*
X04631Y02225*
X04633*
X04634Y02225*
X04638Y02219*
X04644Y02215*
X04651Y02214*
X04659Y02215*
X04665Y02219*
X04668Y02224*
X04669Y02224*
X04672*
X04674Y02224*
X04677Y02219*
X04683Y02215*
X0469Y02214*
X04697Y02215*
X04704Y02219*
X04708Y02225*
X04709Y02232*
X04708Y0224*
X04704Y02246*
X04699Y02249*
Y02254*
X04704Y02257*
X04708Y02263*
X04709Y0227*
X04708Y02278*
X04704Y02284*
X04697Y02288*
X0469Y02289*
G37*
G36*
X04908Y02228D02*
X04902Y02227D01*
X04898Y02224*
X04895Y0222*
X04894Y02215*
X04895Y02209*
X04897Y02205*
X04895Y02202*
X04894Y02197*
X04895Y02191*
X04898Y02187*
X04902Y02184*
X04908Y02183*
X04913Y02184*
X04917Y02187*
X0492Y02191*
X04921Y02197*
X0492Y02202*
X04918Y02205*
X0492Y02209*
X04921Y02215*
X0492Y0222*
X04917Y02224*
X04913Y02227*
X04908Y02228*
G37*
G36*
X04853Y02333D02*
X04847Y02332D01*
X04844Y0233*
X04843Y02329*
X04837*
X04835Y0233*
X0483Y02331*
X04824Y0233*
X0482Y02327*
X04817Y02323*
X04816Y02317*
X04817Y02312*
X0482Y02308*
X04824Y02305*
X0483Y02304*
X04835Y02305*
X04839Y02308*
X04845Y02308*
X04847Y02306*
X04853Y02305*
X04858Y02306*
X04862Y02309*
X04867Y02308*
X04868Y02307*
X04872Y02304*
X04878Y02303*
X04883Y02304*
X04887Y02307*
X0489Y02311*
X04891Y02317*
X0489Y02322*
X04887Y02326*
X04883Y02329*
X04878Y0233*
X04872Y02329*
X04868Y02326*
X04863Y02328*
X04862Y02329*
X04858Y02332*
X04853Y02333*
G37*
G36*
X04791Y02194D02*
X04786Y02193D01*
X04781Y0219*
X04778Y02186*
X04778Y02183*
X04776Y0218*
X04772Y0218*
X0477Y0218*
X04765Y02179*
X0476Y02176*
X04757Y02172*
X04756Y02167*
X04757Y02161*
X0476Y02157*
X04765Y02154*
X0477Y02153*
X04775Y02154*
X0478Y02157*
X04783Y02161*
X04783Y02164*
X04785Y02167*
X04789Y02167*
X04791Y02167*
X04796Y02168*
X04801Y02171*
X04804Y02175*
X04805Y02181*
X04804Y02186*
X04801Y0219*
X04796Y02193*
X04791Y02194*
G37*
G36*
X04872Y02077D02*
X04866Y02076D01*
X04863Y02074*
X04859Y02076*
X04854Y02077*
X04848Y02076*
X04845Y02074*
X04841Y02076*
X04836Y02077*
X0483Y02076*
X04826Y02073*
X04823Y02069*
X04822Y02064*
X04823Y02058*
X04826Y02054*
X0483Y02051*
X04836Y0205*
X04841Y02051*
X04845Y02053*
X04848Y02051*
X04854Y0205*
X04859Y02051*
X04863Y02053*
X04866Y02051*
X04872Y0205*
X04877Y02051*
X04881Y02054*
X04884Y02058*
X04885Y02064*
X04884Y02069*
X04881Y02073*
X04877Y02076*
X04872Y02077*
G37*
G36*
X03514Y02082D02*
X03508Y02081D01*
X03502Y02077*
X03499Y02072*
X03498Y02065*
X03499Y02059*
X03502Y02054*
X03508Y0205*
X03514Y02049*
X0352Y0205*
X03526Y02054*
X03529Y02059*
X0353Y02065*
X03529Y02072*
X03526Y02077*
X0352Y02081*
X03514Y02082*
G37*
G36*
X04432Y02226D02*
X04427Y02225D01*
X04422Y02222*
X04419Y02218*
X04418Y02212*
X04418Y02212*
X04418Y02207*
X04412Y02206*
X04408Y02203*
X04405Y02199*
X04404Y02194*
X04405Y02188*
X04408Y02184*
X04412Y02181*
X04418Y0218*
X04423Y02181*
X04427Y02184*
X0443Y02188*
X04431Y02194*
X04431Y02194*
X04432Y02199*
X04437Y022*
X04442Y02203*
X04445Y02207*
X04446Y02212*
X04445Y02218*
X04442Y02222*
X04437Y02225*
X04432Y02226*
G37*
G36*
X04689Y02173D02*
X04682Y02172D01*
X04676Y02168*
X04673Y02163*
X04671Y02163*
X04668*
X04667Y02163*
X04664Y02168*
X04658Y02172*
X0465Y02173*
X04643Y02172*
X04637Y02168*
X04634Y02163*
X04633Y02163*
X04629*
X04628Y02163*
X04625Y02168*
X04619Y02172*
X04612Y02173*
X04604Y02172*
X04598Y02168*
X04595Y02163*
X04594Y02163*
X04591*
X0459Y02163*
X04586Y02168*
X0458Y02172*
X04573Y02173*
X04566Y02172*
X0456Y02168*
X04556Y02163*
X04555Y02163*
X04552*
X04551Y02163*
X04548Y02168*
X04541Y02172*
X04534Y02173*
X04527Y02172*
X04521Y02168*
X04517Y02162*
X04515Y02155*
X04517Y02147*
X04521Y02141*
X04525Y02138*
Y02133*
X04521Y0213*
X04517Y02124*
X04515Y02117*
X04517Y02109*
X04521Y02103*
X04527Y02099*
X04534Y02098*
X04541Y02099*
X04548Y02103*
X04551Y02108*
X04552Y02108*
X04555*
X04556Y02108*
X0456Y02103*
X04566Y02099*
X04573Y02098*
X0458Y02099*
X04586Y02103*
X0459Y02108*
X04591Y02108*
X04594*
X04595Y02108*
X04598Y02103*
X04604Y02099*
X04612Y02098*
X04619Y02099*
X04625Y02103*
X04628Y02108*
X04629Y02108*
X04633*
X04634Y02108*
X04637Y02103*
X04643Y02099*
X0465Y02098*
X04658Y02099*
X04664Y02103*
X04667Y02108*
X04668Y02108*
X04671*
X04673Y02108*
X04676Y02103*
X04682Y02099*
X04689Y02098*
X04696Y02099*
X04703Y02103*
X04707Y02109*
X04708Y02117*
X04707Y02124*
X04703Y0213*
X04698Y02133*
Y02138*
X04703Y02141*
X04707Y02147*
X04708Y02155*
X04707Y02162*
X04703Y02168*
X04696Y02172*
X04689Y02173*
G37*
G36*
X04634Y01957D02*
X04628Y01956D01*
X04624Y01953*
X04621Y01949*
X0462Y01945*
X04616Y01943*
X04615Y01942*
X04614Y01943*
X04609Y01944*
X04603Y01943*
X04603Y01943*
X04603Y01943*
X04598Y01946*
X04597Y01949*
X04594Y01953*
X0459Y01956*
X04585Y01957*
X04579Y01956*
X04575Y01953*
X04572Y01949*
X04571Y01944*
X04572Y01938*
X04575Y01934*
X04579Y01931*
X04585Y0193*
X0459Y01931*
X0459Y01931*
X04591Y01931*
X04595Y01928*
X04596Y01925*
X04599Y01921*
X04603Y01918*
X04609Y01917*
X04614Y01918*
X04618Y01921*
X04621Y01925*
X04622Y01929*
X04626Y01931*
X04627Y01932*
X04628Y01931*
X04634Y0193*
X04639Y01931*
X04643Y01934*
X04646Y01938*
X04647Y01944*
X04646Y01949*
X04643Y01953*
X04639Y01956*
X04634Y01957*
G37*
G36*
X04478Y01919D02*
X04472Y01918D01*
X04468Y01915*
X04465Y01911*
X04464Y01905*
X04465Y019*
X04468Y01896*
X04472Y01893*
X04478Y01892*
X04483Y01893*
X04487Y01896*
X0449Y019*
X04491Y01905*
X0449Y01911*
X04487Y01915*
X04483Y01918*
X04478Y01919*
G37*
G36*
X03435Y01984D02*
X03429Y01983D01*
X03423Y0198*
X0342Y01974*
X03419Y01968*
X0342Y01962*
X03423Y01956*
X03429Y01953*
X03435Y01952*
X03441Y01953*
X03447Y01956*
X0345Y01962*
X03451Y01968*
X0345Y01974*
X03447Y0198*
X03441Y01983*
X03435Y01984*
G37*
G36*
X03487Y01982D02*
X03481Y01981D01*
X03475Y01978*
X03472Y01972*
X03471Y01966*
X03472Y0196*
X03475Y01955*
X03481Y01951*
X03487Y0195*
X03493Y01951*
X03499Y01955*
X03502Y0196*
X03503Y01966*
X03502Y01972*
X03499Y01978*
X03493Y01981*
X03487Y01982*
G37*
G36*
X0474Y01918D02*
X04734Y01917D01*
X0473Y01914*
X04727Y0191*
X04726Y01905*
X04727Y01899*
X0473Y01895*
X04734Y01892*
X0474Y01891*
X04745Y01892*
X04749Y01895*
X04752Y01899*
X04753Y01905*
X04752Y0191*
X04749Y01914*
X04745Y01917*
X0474Y01918*
G37*
G36*
X03858Y01637D02*
X03851Y01636D01*
X03846Y01633*
X03843Y01627*
X03841Y01621*
X03843Y01615*
X03846Y0161*
X03851Y01606*
X03858Y01605*
X03864Y01606*
X03869Y0161*
X03873Y01615*
X03874Y01621*
X03873Y01627*
X03869Y01633*
X03864Y01636*
X03858Y01637*
G37*
G36*
X03865Y016D02*
X03859Y01599D01*
X03853Y01595*
X0385Y0159*
X03848Y01584*
X0385Y01577*
X03853Y01572*
X03859Y01569*
X03865Y01567*
X03871Y01569*
X03876Y01572*
X0388Y01577*
X03881Y01584*
X0388Y0159*
X03876Y01595*
X03871Y01599*
X03865Y016*
G37*
G36*
X03435Y01849D02*
X03429Y01848D01*
X03423Y01845*
X0342Y01839*
X03419Y01833*
X0342Y01827*
X03423Y01821*
X03429Y01818*
X03435Y01817*
X03441Y01818*
X03447Y01821*
X0345Y01827*
X03451Y01833*
X0345Y01839*
X03447Y01845*
X03441Y01848*
X03435Y01849*
G37*
G36*
X03487Y01848D02*
X03481Y01847D01*
X03475Y01844*
X03472Y01838*
X03471Y01832*
X03472Y01826*
X03475Y0182*
X03481Y01817*
X03487Y01816*
X03493Y01817*
X03499Y0182*
X03502Y01826*
X03503Y01832*
X03502Y01838*
X03499Y01844*
X03493Y01847*
X03487Y01848*
G37*
G36*
X04758Y0198D02*
X04752Y01979D01*
X04748Y01976*
X04745Y01972*
X04744Y01966*
X04745Y01961*
X04748Y01957*
X04752Y01954*
X04758Y01953*
X04763Y01954*
X04767Y01957*
X0477Y01961*
X04771Y01966*
X0477Y01972*
X04767Y01976*
X04763Y01979*
X04758Y0198*
G37*
G36*
X04506Y02045D02*
X045Y02044D01*
X04496Y02041*
X04493Y02037*
X04492Y02032*
X04493Y02026*
X04496Y02022*
X045Y02019*
X04506Y02018*
X04511Y02019*
X04515Y02022*
X04518Y02026*
X04519Y02032*
X04518Y02037*
X04515Y02041*
X04511Y02044*
X04506Y02045*
G37*
G36*
X04723Y02039D02*
X04717Y02038D01*
X04713Y02035*
X0471Y0203*
X04709Y02025*
X0471Y0202*
X04713Y02015*
X04717Y02012*
X04723Y02011*
X04728Y02012*
X04732Y02015*
X04735Y0202*
X04736Y02025*
X04735Y0203*
X04732Y02035*
X04728Y02038*
X04723Y02039*
G37*
G36*
X0346Y02079D02*
X03454Y02078D01*
X03449Y02074*
X03445Y02069*
X03444Y02062*
X03445Y02056*
X03449Y02051*
X03454Y02047*
X0346Y02046*
X03466Y02047*
X03472Y02051*
X03475Y02056*
X03476Y02062*
X03475Y02069*
X03472Y02074*
X03466Y02078*
X0346Y02079*
G37*
G36*
X04645Y02049D02*
X0464Y02048D01*
X04635Y02045*
X04635Y02044*
X04628Y02042*
X04628Y02042*
X04623Y02043*
X04617Y02042*
X04613Y02039*
X0461Y02035*
X04609Y0203*
X0461Y02024*
X04613Y0202*
X04617Y02017*
X04623Y02016*
X04628Y02017*
X04632Y0202*
X04633Y02021*
X0464Y02022*
X0464Y02022*
X04645Y02021*
X0465Y02022*
X04655Y02025*
X04658Y0203*
X04659Y02035*
X04658Y0204*
X04655Y02045*
X0465Y02048*
X04645Y02049*
G37*
G36*
X03413Y0203D02*
X03407Y02029D01*
X03402Y02026*
X03398Y0202*
X03397Y02014*
X03398Y02008*
X03402Y02002*
X03407Y01999*
X03413Y01998*
X0342Y01999*
X03425Y02002*
X03429Y02008*
X0343Y02014*
X03429Y0202*
X03425Y02026*
X0342Y02029*
X03413Y0203*
G37*
G36*
X04528Y02D02*
X04522Y01999D01*
X04518Y01996*
X04515Y01991*
X04514Y01986*
X04515Y01981*
X04518Y01976*
X04522Y01973*
X04528Y01972*
X04533Y01973*
X04537Y01976*
X0454Y01981*
X04541Y01986*
X0454Y01991*
X04537Y01996*
X04533Y01999*
X04528Y02*
G37*
G36*
X04452Y01959D02*
X04446Y01958D01*
X04443Y01956*
X0444Y01958*
X04435Y01959*
X04429Y01958*
X04426Y01956*
X04423Y01958*
X04418Y01959*
X04412Y01958*
X04408Y01955*
X04405Y01951*
X04404Y01945*
X04405Y0194*
X04408Y01936*
X04412Y01933*
X04418Y01932*
X04423Y01933*
X04426Y01935*
X04429Y01933*
X04435Y01932*
X0444Y01933*
X04443Y01935*
X04446Y01933*
X04452Y01932*
X04457Y01933*
X04461Y01936*
X04464Y0194*
X04465Y01945*
X04464Y01951*
X04461Y01955*
X04457Y01958*
X04452Y01959*
G37*
G36*
X04723Y02D02*
X04717Y01999D01*
X04713Y01996*
X0471Y01992*
X0471Y0199*
X04704*
X04704Y0199*
X04701Y01994*
X04697Y01997*
X04692Y01998*
X04686Y01997*
X04682Y01994*
X04679Y0199*
X04678Y01985*
X04679Y01979*
X04682Y01975*
X04686Y01972*
X04692Y01971*
X04697Y01972*
X04701Y01975*
X04704Y01979*
X04705Y01981*
X0471*
X0471Y01981*
X04713Y01977*
X04717Y01974*
X04723Y01973*
X04728Y01974*
X04732Y01977*
X04735Y01981*
X04736Y01987*
X04735Y01992*
X04732Y01996*
X04728Y01999*
X04723Y02*
G37*
G36*
X04495D02*
X04489Y01999D01*
X04485Y01996*
X04482Y01992*
X04481Y01987*
X04482Y01981*
X04485Y01977*
X04489Y01974*
X04495Y01973*
X045Y01974*
X04504Y01977*
X04507Y01981*
X04508Y01987*
X04507Y01992*
X04504Y01996*
X045Y01999*
X04495Y02*
G37*
G36*
X03547Y02894D02*
X0354Y02893D01*
X03535Y02889*
X03534Y02887*
X03528*
X03527Y02889*
X03522Y02893*
X03515Y02894*
X03509Y02893*
X03504Y02889*
X03499*
X03494Y02893*
X03488Y02894*
X03481Y02893*
X03476Y02889*
X03473Y02884*
X03471Y02877*
X03473Y02871*
X03476Y02866*
X03481Y02862*
X03488Y02861*
X03494Y02862*
X03499Y02866*
X03504*
X03509Y02862*
X03515Y02861*
X03522Y02862*
X03527Y02866*
X03528Y02868*
X03534*
X03535Y02866*
X0354Y02862*
X03547Y02861*
X03553Y02862*
X03558Y02866*
X03562Y02871*
X03563Y02877*
X03562Y02884*
X03558Y02889*
X03553Y02893*
X03547Y02894*
G37*
G36*
X03252Y02964D02*
X03246Y02963D01*
X0324Y02959*
X03237Y02954*
X03236Y02947*
X03237Y02941*
X0324Y02936*
X03246Y02932*
X03252Y02931*
X03258Y02932*
X03264Y02936*
X03267Y02941*
X03268Y02947*
X03267Y02954*
X03264Y02959*
X03258Y02963*
X03252Y02964*
G37*
G36*
X03286Y02853D02*
X0328Y02852D01*
X03275Y02848*
X03271Y02843*
X0327Y02837*
X03271Y0283*
X03275Y02825*
X0328Y02821*
X03286Y0282*
X03292Y02821*
X03298Y02825*
X03301Y0283*
X03303Y02837*
X03301Y02843*
X03298Y02848*
X03292Y02852*
X03286Y02853*
G37*
G36*
X0859Y04151D02*
X08585Y0415D01*
X0858Y04147*
X08577Y04142*
X08576Y04137*
X08577Y04131*
X0858Y04127*
X08585Y04124*
X0859Y04122*
X08596Y04124*
X08601Y04127*
X08604Y04131*
X08605Y04137*
X08604Y04142*
X08601Y04147*
X08596Y0415*
X0859Y04151*
G37*
G36*
X0849Y04101D02*
X08485Y041D01*
X0848Y04097*
X08477Y04092*
X08476Y04087*
X08477Y04081*
X0848Y04077*
X08485Y04074*
X0849Y04072*
X08496Y04074*
X08501Y04077*
X08504Y04081*
X08505Y04087*
X08504Y04092*
X08501Y04097*
X08496Y041*
X0849Y04101*
G37*
G36*
X08342Y04183D02*
X08337Y04182D01*
X08332Y04179*
X08329Y04174*
X08328Y04169*
X08329Y04163*
X08332Y04159*
X08337Y04156*
X08342Y04155*
X08347Y04156*
X08352Y04159*
X08355Y04163*
X08356Y04169*
X08355Y04174*
X08352Y04179*
X08347Y04182*
X08342Y04183*
G37*
G36*
X03342Y04012D02*
X03336Y04011D01*
X0333Y04007*
X03327Y04002*
X03326Y03996*
X03327Y03989*
X0333Y03984*
X03336Y0398*
X03342Y03979*
X03348Y0398*
X03354Y03984*
X03357Y03989*
X03358Y03996*
X03357Y04002*
X03354Y04007*
X03348Y04011*
X03342Y04012*
G37*
G36*
X0839Y04101D02*
X08385Y041D01*
X0838Y04097*
X08377Y04092*
X08376Y04087*
X08377Y04081*
X0838Y04077*
X08385Y04074*
X0839Y04072*
X08396Y04074*
X08401Y04077*
X08404Y04081*
X08405Y04087*
X08404Y04092*
X08401Y04097*
X08396Y041*
X0839Y04101*
G37*
G36*
X03352Y04921D02*
X03346Y04919D01*
X03341Y04916*
X03337Y04911*
X03336Y04904*
X03337Y04898*
X03341Y04893*
X03346Y04889*
X03352Y04888*
X03358Y04889*
X03364Y04893*
X03367Y04898*
X03368Y04904*
X03367Y04911*
X03364Y04916*
X03358Y04919*
X03357Y0492*
X03352Y04921*
G37*
G36*
X03517Y03677D02*
X03511Y03676D01*
X03505Y03672*
X03502Y03667*
X03501Y0366*
X03502Y03654*
X03505Y03649*
X03511Y03645*
X03517Y03644*
X03523Y03645*
X03529Y03649*
X03532Y03654*
X03533Y0366*
X03532Y03667*
X03529Y03672*
X03523Y03676*
X03517Y03677*
G37*
G36*
X03492Y03602D02*
X03485Y03601D01*
X0348Y03598*
X03477Y03592*
X03475Y03586*
X03477Y0358*
X0348Y03575*
X03485Y03571*
X03492Y0357*
X03498Y03571*
X03503Y03575*
X03507Y0358*
X03508Y03586*
X03507Y03592*
X03503Y03598*
X03498Y03601*
X03492Y03602*
G37*
G36*
X0483Y03047D02*
X04824Y03046D01*
X04819Y03043*
X04815Y03037*
X04814Y03031*
X04815Y03025*
X04819Y03019*
X04824Y03016*
X0483Y03015*
X04836Y03016*
X04842Y03019*
X04845Y03025*
X04847Y03031*
X04845Y03037*
X04842Y03043*
X04836Y03046*
X0483Y03047*
G37*
G36*
X06273Y03034D02*
X06267Y03033D01*
X06262Y0303*
X06259Y03025*
X06258Y0302*
X06259Y03014*
X06262Y03009*
X06267Y03006*
X06273Y03005*
X06278Y03006*
X06283Y03009*
X06286Y03014*
X06287Y0302*
X06286Y03025*
X06283Y0303*
X06278Y03033*
X06273Y03034*
G37*
G36*
X06232Y0305D02*
X06227Y03049D01*
X06222Y03046*
X06219Y03041*
X06218Y03036*
X06219Y0303*
X06222Y03026*
X06227Y03022*
X06232Y03021*
X06238Y03022*
X06243Y03026*
X06246Y0303*
X06247Y03036*
X06246Y03041*
X06243Y03046*
X06238Y03049*
X06232Y0305*
G37*
G36*
X05918Y03125D02*
X05913Y03124D01*
X05908Y03121*
X05905Y03116*
X05904Y0311*
X05905Y03105*
X05908Y031*
X05913Y03097*
X05916Y03097*
X05915Y03092*
X0591Y03091*
X05905Y03087*
X05902Y03083*
X05901Y03077*
X05902Y03072*
X05905Y03067*
X0591Y03064*
X05915Y03063*
X05921Y03064*
X05925Y03067*
X05929Y03072*
X0593Y03077*
X05929Y03083*
X05925Y03087*
X05921Y03091*
X05917Y03091*
X05918Y03096*
X05923Y03097*
X05928Y031*
X05931Y03105*
X05932Y0311*
X05931Y03116*
X05928Y03121*
X05923Y03124*
X05918Y03125*
G37*
G36*
X0596Y03089D02*
X05955Y03088D01*
X0595Y03085*
X05947Y0308*
X05946Y03075*
X05947Y03069*
X0595Y03064*
X05955Y03061*
X0596Y0306*
X05966Y03061*
X0597Y03064*
X05973Y03069*
X05974Y03075*
X05973Y0308*
X0597Y03085*
X05966Y03088*
X0596Y03089*
G37*
G36*
X07099Y03119D02*
X07093Y03118D01*
X07087Y03114*
X07084Y03109*
X07083Y03102*
X07084Y03096*
X07087Y03091*
X07093Y03087*
X07099Y03086*
X07105Y03087*
X07111Y03091*
X07114Y03096*
X07115Y03102*
X07114Y03109*
X07111Y03114*
X07105Y03118*
X07099Y03119*
G37*
G36*
X05921Y03053D02*
X05915Y03052D01*
X05911Y03049*
X05908Y03044*
X05906Y03039*
X05908Y03033*
X05911Y03029*
X05915Y03026*
X05921Y03025*
X05926Y03026*
X05931Y03029*
X05934Y03033*
X05935Y03039*
X05934Y03044*
X05931Y03049*
X05926Y03052*
X05921Y03053*
G37*
G36*
X05955Y03052D02*
X05949Y03051D01*
X05945Y03048*
X05942Y03043*
X0594Y03038*
X05942Y03033*
X05945Y03028*
X05949Y03025*
X05955Y03024*
X0596Y03025*
X05965Y03028*
X05968Y03033*
X05969Y03038*
X05968Y03043*
X05965Y03048*
X0596Y03051*
X05955Y03052*
G37*
G36*
X06003Y03246D02*
X05998Y03245D01*
X05993Y03242*
X0599Y03237*
X05989Y03232*
X0599Y03226*
X05993Y03222*
X05998Y03219*
X06003Y03217*
X06009Y03219*
X06014Y03222*
X06017Y03226*
X06018Y03232*
X06017Y03237*
X06014Y03242*
X06009Y03245*
X06003Y03246*
G37*
G36*
X06311Y02975D02*
X06306Y02974D01*
X06301Y02971*
X06298Y02966*
X06297Y0296*
X06298Y02955*
X06301Y0295*
X06306Y02947*
X06311Y02946*
X06316Y02947*
X06321Y0295*
X06324Y02955*
X06325Y0296*
X06324Y02966*
X06321Y02971*
X06316Y02974*
X06311Y02975*
G37*
G36*
X05996Y02974D02*
X0599Y02973D01*
X05985Y0297*
X05982Y02966*
X05981Y0296*
X05982Y02955*
X05985Y0295*
X0599Y02947*
X05996Y02946*
X06001Y02947*
X06006Y0295*
X06009Y02955*
X0601Y0296*
X06009Y02966*
X06006Y0297*
X06001Y02973*
X05996Y02974*
G37*
G36*
X06122Y03289D02*
X06116Y03288D01*
X06111Y03285*
X06108Y03281*
X06107Y03275*
X06108Y0327*
X06111Y03265*
X06116Y03262*
X06122Y03261*
X06127Y03262*
X06132Y03265*
X06135Y0327*
X06136Y03275*
X06135Y03281*
X06132Y03285*
X06127Y03288*
X06122Y03289*
G37*
G36*
X06272Y02976D02*
X06267Y02975D01*
X06262Y02972*
X06259Y02967*
X06258Y02962*
X06259Y02956*
X06262Y02951*
X06267Y02948*
X06272Y02947*
X06277Y02948*
X06282Y02951*
X06285Y02956*
X06286Y02962*
X06285Y02967*
X06282Y02972*
X06277Y02975*
X06272Y02976*
G37*
G36*
X05955Y02974D02*
X05949Y02972D01*
X05945Y02969*
X05942Y02965*
X0594Y02959*
X05942Y02954*
X05945Y02949*
X05949Y02946*
X05955Y02945*
X0596Y02946*
X05965Y02949*
X05968Y02954*
X05969Y02959*
X05968Y02965*
X05965Y02969*
X0596Y02972*
X05955Y02974*
G37*
G36*
X07307Y03295D02*
X073Y03294D01*
X07295Y03291*
X07292Y03285*
X0729Y03279*
X07292Y03273*
X07295Y03267*
X073Y03264*
X07307Y03263*
X07313Y03264*
X07318Y03267*
X07322Y03273*
X07323Y03279*
X07322Y03285*
X07318Y03291*
X07313Y03294*
X07307Y03295*
G37*
G36*
X05918Y02972D02*
X05913Y02971D01*
X05908Y02968*
X05905Y02963*
X05904Y02957*
X05905Y02952*
X05908Y02947*
X05913Y02944*
X05918Y02943*
X05923Y02944*
X05928Y02947*
X05931Y02952*
X05932Y02957*
X05931Y02963*
X05928Y02968*
X05923Y02971*
X05918Y02972*
G37*
G36*
X05769Y02971D02*
X05764Y0297D01*
X05759Y02967*
X05756Y02962*
X05755Y02957*
X05756Y02951*
X05759Y02946*
X05764Y02943*
X05769Y02942*
X05774Y02943*
X05779Y02946*
X05782Y02951*
X05783Y02957*
X05782Y02962*
X05779Y02967*
X05774Y0297*
X05769Y02971*
G37*
G36*
X06114Y0301D02*
X06108Y03009D01*
X06104Y03006*
X061Y03001*
X06099Y02996*
X061Y0299*
X06104Y02985*
X06108Y02982*
X06114Y02981*
X06119Y02982*
X06124Y02985*
X06127Y0299*
X06128Y02996*
X06127Y03001*
X06124Y03006*
X06119Y03009*
X06114Y0301*
G37*
G36*
X06437Y03041D02*
X06431Y0304D01*
X06426Y03037*
X06423Y03033*
X06422Y03027*
X06423Y03022*
X06425Y03019*
X06426Y03015*
X06425Y03012*
X06423Y03009*
X06422Y03003*
X06423Y02998*
X06426Y02993*
X06431Y0299*
X06437Y02989*
X06442Y0299*
X06447Y02993*
X0645Y02998*
X06451Y03003*
X0645Y03009*
X06448Y03012*
X06447Y03015*
X06448Y03019*
X0645Y03022*
X06451Y03027*
X0645Y03033*
X06447Y03037*
X06442Y0304*
X06437Y03041*
G37*
G36*
X05955Y03013D02*
X05949Y03012D01*
X05945Y03009*
X05942Y03004*
X0594Y02999*
X05942Y02993*
X05945Y02989*
X05949Y02985*
X05955Y02984*
X0596Y02985*
X05965Y02989*
X05968Y02993*
X05969Y02999*
X05968Y03004*
X05965Y03009*
X0596Y03012*
X05955Y03013*
G37*
G36*
X07108Y0299D02*
X07102Y02988D01*
X07097Y02985*
X07093Y0298*
X07092Y02973*
X07093Y02967*
X07097Y02962*
X07102Y02958*
X07108Y02957*
X07115Y02958*
X0712Y02962*
X07124Y02967*
X07125Y02973*
X07124Y0298*
X0712Y02985*
X07115Y02988*
X07108Y0299*
G37*
G36*
X05917Y03241D02*
X05912Y0324D01*
X05907Y03237*
X05904Y03232*
X05903Y03227*
X05904Y03221*
X05907Y03216*
X05912Y03213*
X05917Y03212*
X05922Y03213*
X05927Y03216*
X0593Y03221*
X05931Y03227*
X0593Y03232*
X05927Y03237*
X05922Y0324*
X05917Y03241*
G37*
G36*
X05917Y03175D02*
X05911Y03174D01*
X05907Y03171*
X05904Y03166*
X05903Y03161*
X05904Y03155*
X05907Y03151*
X05911Y03148*
X05917Y03147*
X05922Y03148*
X05927Y03151*
X0593Y03155*
X05931Y03161*
X0593Y03166*
X05927Y03171*
X05922Y03174*
X05917Y03175*
G37*
G36*
X06701Y03173D02*
X06695Y03172D01*
X06689Y03168*
X06686Y03163*
X06685Y03157*
X06686Y0315*
X06689Y03145*
X06695Y03141*
X06701Y0314*
X06707Y03141*
X06713Y03145*
X06716Y0315*
X06717Y03157*
X06716Y03163*
X06713Y03168*
X06707Y03172*
X06701Y03173*
G37*
G36*
X06444Y03297D02*
X06439Y03296D01*
X06434Y03293*
X06431Y03288*
X0643Y03283*
X06431Y03277*
X06433Y03275*
X06434Y03271*
X06433Y03268*
X06431Y03265*
X0643Y03259*
X06431Y03254*
X06434Y03249*
X06439Y03246*
X06444Y03245*
X0645Y03246*
X06454Y03249*
X06458Y03254*
X06459Y03259*
X06458Y03265*
X06456Y03268*
X06455Y03271*
X06456Y03275*
X06458Y03277*
X06459Y03283*
X06458Y03288*
X06454Y03293*
X0645Y03296*
X06444Y03297*
G37*
G36*
X06244Y03167D02*
X06238Y03166D01*
X06234Y03163*
X0623Y03159*
X06229Y03153*
X0623Y03148*
X06234Y03143*
X06238Y0314*
X06244Y03139*
X06249Y0314*
X06254Y03143*
X06257Y03148*
X06258Y03153*
X06257Y03159*
X06254Y03163*
X06249Y03166*
X06244Y03167*
G37*
G36*
X06161D02*
X06155Y03166D01*
X06151Y03163*
X06148Y03159*
X06147Y03153*
X06148Y03148*
X06151Y03143*
X06155Y0314*
X06161Y03139*
X06166Y0314*
X06171Y03143*
X06174Y03148*
X06175Y03153*
X06174Y03159*
X06171Y03163*
X06166Y03166*
X06161Y03167*
G37*
G36*
X06622Y03207D02*
X06616Y03206D01*
X06611Y03202*
X06608Y03198*
Y03198*
X06603*
Y03198*
X066Y03202*
X06596Y03206*
X0659Y03207*
X06585Y03206*
X0658Y03202*
X06577Y03198*
Y03198*
X06572*
Y03198*
X06569Y03202*
X06564Y03206*
X06559Y03207*
X06553Y03206*
X06548Y03202*
X06545Y03198*
Y03198*
X0654*
Y03198*
X06537Y03202*
X06533Y03206*
X06527Y03207*
X06522Y03206*
X06517Y03202*
X06514Y03198*
X06513Y03192*
X06514Y03187*
X06517Y03182*
X06522Y03179*
X06527Y03178*
X06533Y03179*
X06537Y03182*
X0654Y03187*
Y03187*
X06545*
Y03187*
X06548Y03182*
X06553Y03179*
X06559Y03178*
X06564Y03179*
X06569Y03182*
X06572Y03187*
Y03187*
X06577*
Y03187*
X0658Y03182*
X06585Y03179*
X0659Y03178*
X06596Y03179*
X066Y03182*
X06603Y03187*
Y03187*
X06608*
Y03187*
X06611Y03182*
X06616Y03179*
X06622Y03178*
X06627Y03179*
X06632Y03182*
X06635Y03187*
X06636Y03192*
X06635Y03198*
X06632Y03202*
X06627Y03206*
X06622Y03207*
G37*
G36*
X06236Y03207D02*
X0623Y03206D01*
X06226Y03202*
X06223Y03198*
X06221Y03192*
X06223Y03187*
X06226Y03182*
X0623Y03179*
X06236Y03178*
X06241Y03179*
X06246Y03182*
X06249Y03187*
X0625Y03192*
X06249Y03198*
X06246Y03202*
X06241Y03206*
X06236Y03207*
G37*
G36*
X06405Y03297D02*
X064Y03296D01*
X06395Y03293*
X06392Y03288*
X06391Y03283*
X06392Y03277*
X06394Y03275*
X06395Y03271*
X06394Y03268*
X06392Y03265*
X06391Y03259*
X06392Y03254*
X06395Y03249*
X064Y03246*
X06405Y03245*
X0641Y03246*
X06415Y03249*
X06418Y03254*
X06419Y03259*
X06418Y03265*
X06416Y03268*
X06415Y03271*
X06416Y03275*
X06418Y03277*
X06419Y03283*
X06418Y03288*
X06415Y03293*
X0641Y03296*
X06405Y03297*
G37*
G36*
X06275Y03203D02*
X0627Y03202D01*
X06265Y03199*
X06262Y03194*
X06261Y03188*
X06262Y03183*
X06265Y03178*
X0627Y03175*
X06275Y03174*
X06281Y03175*
X06285Y03178*
X06288Y03183*
X06289Y03188*
X06288Y03194*
X06285Y03199*
X06281Y03202*
X06275Y03203*
G37*
G36*
X0735Y03376D02*
X07344Y03375D01*
X0734Y03372*
X07337Y03367*
X07336Y03362*
X07337Y03356*
X0734Y03352*
X07344Y03349*
X07345*
Y03343*
X07344*
X0734Y0334*
X07337Y03336*
X07336Y0333*
X07337Y03325*
X0734Y0332*
X07344Y03317*
X07345*
Y03312*
X07344*
X0734Y03309*
X07337Y03304*
X07336Y03299*
X07337Y03293*
X0734Y03289*
X07344Y03286*
X07345*
Y0328*
X07344*
X0734Y03277*
X07337Y03273*
X07336Y03267*
X07337Y03262*
X0734Y03257*
X07344Y03254*
X0735Y03253*
X07355Y03254*
X0736Y03257*
X07363Y03262*
X07364Y03267*
X07363Y03273*
X0736Y03277*
X07355Y0328*
X07355*
Y03286*
X07355*
X0736Y03289*
X07363Y03293*
X07364Y03299*
X07363Y03304*
X0736Y03309*
X07355Y03312*
X07355*
Y03317*
X07355*
X0736Y0332*
X07363Y03325*
X07364Y0333*
X07363Y03336*
X0736Y0334*
X07355Y03343*
X07355*
Y03349*
X07355*
X0736Y03352*
X07363Y03356*
X07364Y03362*
X07363Y03367*
X0736Y03372*
X07355Y03375*
X0735Y03376*
G37*
G36*
X06039Y03128D02*
X06033Y03127D01*
X06029Y03124*
X06026Y03119*
X06025Y03114*
X06026Y03108*
X06029Y03104*
X06033Y031*
X06039Y03099*
X06044Y031*
X06049Y03104*
X06052Y03108*
X06053Y03114*
X06052Y03119*
X06049Y03124*
X06044Y03127*
X06039Y03128*
G37*
G36*
X06638Y03126D02*
X06632Y03125D01*
X06626Y03121*
X06623Y03116*
X06622Y0311*
X06623Y03103*
X06626Y03098*
X06632Y03094*
X06638Y03093*
X06644Y03094*
X0665Y03098*
X06653Y03103*
X06654Y0311*
X06653Y03116*
X0665Y03121*
X06644Y03125*
X06638Y03126*
G37*
G36*
X06444Y03187D02*
X06439Y03186D01*
X06434Y03183*
X06431Y03178*
X0643Y03173*
X06431Y03167*
X06433Y03164*
X06434Y03161*
X06433Y03157*
X06431Y03155*
X0643Y03149*
X06431Y03144*
X06434Y03139*
X06439Y03136*
X06444Y03135*
X0645Y03136*
X06454Y03139*
X06458Y03144*
X06459Y03149*
X06458Y03155*
X06456Y03157*
X06455Y03161*
X06456Y03164*
X06458Y03167*
X06459Y03173*
X06458Y03178*
X06454Y03183*
X0645Y03186*
X06444Y03187*
G37*
G36*
X06405D02*
X064Y03186D01*
X06395Y03183*
X06392Y03178*
X06391Y03173*
X06392Y03167*
X06394Y03164*
X06395Y03161*
X06394Y03157*
X06392Y03155*
X06391Y03149*
X06392Y03144*
X06395Y03139*
X064Y03136*
X06405Y03135*
X0641Y03136*
X06415Y03139*
X06418Y03144*
X06419Y03149*
X06418Y03155*
X06416Y03157*
X06415Y03161*
X06416Y03164*
X06418Y03167*
X06419Y03173*
X06418Y03178*
X06415Y03183*
X0641Y03186*
X06405Y03187*
G37*
G36*
X05914Y03275D02*
X05909Y03274D01*
X05904Y03271*
X05901Y03266*
X059Y0326*
X05901Y03255*
X05904Y0325*
X05909Y03247*
X05914Y03246*
X05919Y03247*
X05924Y0325*
X05927Y03255*
X05928Y0326*
X05927Y03266*
X05924Y03271*
X05919Y03274*
X05914Y03275*
G37*
G36*
X06105Y02404D02*
X06099Y02403D01*
X06093Y02399*
X0609Y02394*
X06089Y02387*
X0609Y02381*
X06093Y02376*
X06099Y02372*
X06105Y02371*
X06111Y02372*
X06117Y02376*
X0612Y02381*
X06121Y02387*
X0612Y02394*
X06117Y02399*
X06111Y02403*
X06105Y02404*
G37*
G36*
X04546Y02421D02*
X0454Y0242D01*
X04536Y02417*
X04533Y02412*
X04532Y02407*
X04533Y02402*
X04536Y02397*
X0454Y02394*
X04546Y02393*
X04551Y02394*
X04555Y02397*
X04558Y02402*
X04559Y02407*
X04558Y02412*
X04555Y02417*
X04551Y0242*
X04546Y02421*
G37*
G36*
X06251Y02543D02*
X06245Y02542D01*
X0624Y02539*
X06236Y02533*
X06235Y02527*
X06236Y02521*
X0624Y02516*
X06245Y02512*
X06251Y02511*
X06258Y02512*
X06263Y02516*
X06267Y02521*
X06268Y02527*
X06267Y02533*
X06263Y02539*
X06258Y02542*
X06251Y02543*
G37*
G36*
X05982Y02537D02*
X05976Y02536D01*
X0597Y02532*
X05967Y02527*
X05966Y0252*
X05967Y02514*
X0597Y02509*
X05976Y02505*
X05982Y02504*
X05988Y02505*
X05994Y02509*
X05997Y02514*
X05998Y0252*
X05997Y02527*
X05994Y02532*
X05988Y02536*
X05982Y02537*
G37*
G36*
X05948Y0262D02*
X05943Y02619D01*
X05938Y02616*
X05935Y02611*
Y02611*
X0593*
Y02611*
X05927Y02616*
X05922Y02619*
X05917Y0262*
X05911Y02619*
X05907Y02616*
X05904Y02611*
X05903Y02606*
X05904Y026*
X05907Y02596*
X05911Y02593*
X05917Y02592*
X05922Y02593*
X05927Y02596*
X0593Y026*
Y026*
X05935*
Y026*
X05938Y02596*
X05943Y02593*
X05948Y02592*
X05954Y02593*
X05958Y02596*
X05962Y026*
X05963Y02606*
X05962Y02611*
X05958Y02616*
X05954Y02619*
X05948Y0262*
G37*
G36*
X05984D02*
X05978Y02619D01*
X05974Y02616*
X05971Y02611*
X05969Y02606*
X05971Y026*
X05974Y02596*
X05978Y02593*
X05984Y02592*
X05989Y02593*
X05994Y02596*
X05997Y026*
X05998Y02606*
X05997Y02611*
X05994Y02616*
X05989Y02619*
X05984Y0262*
G37*
G36*
X06053Y02531D02*
X06047Y0253D01*
X06041Y02526*
X06038Y02521*
X06037Y02515*
X06038Y02508*
X06041Y02503*
X06047Y02499*
X06053Y02498*
X06059Y02499*
X06065Y02503*
X06068Y02508*
X06069Y02515*
X06068Y02521*
X06065Y02526*
X06059Y0253*
X06053Y02531*
G37*
G36*
X06129Y02497D02*
X06123Y02496D01*
X06117Y02492*
X06114Y02487*
X06113Y0248*
X06114Y02474*
X06117Y02469*
X06123Y02465*
X06129Y02464*
X06135Y02465*
X06141Y02469*
X06144Y02474*
X06145Y0248*
X06144Y02487*
X06141Y02492*
X06135Y02496*
X06129Y02497*
G37*
G36*
X04492Y02423D02*
X04486Y02422D01*
X04482Y02419*
X04479Y02414*
X04478Y02409*
X04479Y02404*
X04482Y02399*
X04486Y02396*
X04492Y02395*
X04497Y02396*
X04501Y02399*
X04504Y02404*
X04505Y02409*
X04504Y02414*
X04501Y02419*
X04497Y02422*
X04492Y02423*
G37*
G36*
X06354Y02499D02*
X06348Y02498D01*
X06342Y02494*
X06339Y02489*
X06338Y02482*
X06339Y02476*
X06342Y02471*
X06348Y02467*
X06354Y02466*
X0636Y02467*
X06366Y02471*
X06369Y02476*
X0637Y02482*
X06369Y02489*
X06366Y02494*
X0636Y02498*
X06354Y02499*
G37*
G36*
X04478Y02469D02*
X04472Y02468D01*
X04469Y02466*
X04467Y02468*
X04461Y02469*
X04456Y02468*
X04453Y02466*
X0445Y02468*
X04445Y02469*
X04439Y02468*
X04435Y02465*
X04432Y02461*
X04431Y02455*
X04432Y0245*
X04435Y02446*
X04439Y02443*
X04445Y02442*
X0445Y02443*
X04453Y02445*
X04456Y02442*
X04461Y02441*
X04467Y02442*
X0447Y02445*
X04472Y02443*
X04478Y02442*
X04483Y02443*
X04487Y02446*
X0449Y0245*
X04491Y02455*
X0449Y02461*
X04487Y02465*
X04483Y02468*
X04478Y02469*
G37*
G36*
X06527Y02906D02*
X06521Y02904D01*
X06516Y02901*
X06512Y02896*
X06511Y02889*
X06512Y02883*
X06516Y02878*
X06521Y02874*
X06527Y02873*
X06533Y02874*
X06539Y02878*
X06542Y02883*
X06543Y02889*
X06542Y02896*
X06539Y02901*
X06533Y02904*
X06527Y02906*
G37*
G36*
X06437Y02931D02*
X06431Y0293D01*
X06426Y02927*
X06423Y02922*
X06422Y02917*
X06423Y02911*
X06426Y02907*
X06423Y02903*
X06422Y02897*
X06423Y02892*
X06426Y02887*
X06431Y02884*
X06437Y02883*
X06442Y02884*
X06447Y02887*
X0645Y02892*
X06451Y02897*
X0645Y02903*
X06447Y02907*
X0645Y02911*
X06451Y02917*
X0645Y02922*
X06447Y02927*
X06442Y0293*
X06437Y02931*
G37*
G36*
X06698Y02892D02*
X06692Y02891D01*
X06686Y02887*
X06683Y02882*
X06682Y02876*
X06683Y0287*
X06686Y02864*
X06692Y02861*
X06698Y0286*
X06704Y02861*
X0671Y02864*
X06713Y0287*
X06714Y02876*
X06713Y02882*
X0671Y02887*
X06704Y02891*
X06698Y02892*
G37*
G36*
X06039Y02856D02*
X06033Y02855D01*
X06029Y02852*
X06026Y02847*
X06025Y02842*
X06026Y02837*
X06029Y02832*
X06033Y02829*
X06039Y02828*
X06044Y02829*
X06049Y02832*
X06052Y02837*
X06053Y02842*
X06052Y02847*
X06049Y02852*
X06044Y02855*
X06039Y02856*
G37*
G36*
X05768Y0289D02*
X05763Y02889D01*
X05758Y02886*
X05755Y02882*
X05754Y02876*
X05755Y02871*
X05758Y02866*
X05763Y02863*
X05768Y02862*
X05773Y02863*
X05778Y02866*
X05781Y02871*
X05782Y02876*
X05781Y02882*
X05778Y02886*
X05773Y02889*
X05768Y0289*
G37*
G36*
X06241Y02931D02*
X06236Y0293D01*
X06231Y02927*
X06228Y02922*
X06227Y02917*
X06228Y02911*
X06231Y02907*
X06236Y02904*
X06241Y02903*
X06247Y02904*
X06251Y02907*
X06254Y02911*
X06256Y02917*
X06254Y02922*
X06251Y02927*
X06247Y0293*
X06241Y02931*
G37*
G36*
X06153Y02923D02*
X06148Y02922D01*
X06143Y02919*
X0614Y02914*
X06139Y02909*
X0614Y02903*
X06143Y02899*
X06148Y02896*
X06153Y02895*
X06159Y02896*
X06163Y02899*
X06166Y02903*
X06167Y02909*
X06166Y02914*
X06163Y02919*
X06159Y02922*
X06153Y02923*
G37*
G36*
X05921Y02923D02*
X05915Y02922D01*
X05911Y02919*
X05908Y02914*
X05906Y02909*
X05908Y02903*
X05911Y02899*
X05915Y02896*
X05921Y02895*
X05926Y02896*
X05931Y02899*
X05934Y02903*
X05935Y02909*
X05934Y02914*
X05931Y02919*
X05926Y02922*
X05921Y02923*
G37*
G36*
X05759Y02931D02*
X05754Y0293D01*
X05749Y02927*
X05746Y02922*
X05745Y02917*
X05746Y02911*
X05749Y02907*
X05754Y02904*
X05759Y02903*
X05765Y02904*
X05769Y02907*
X05773Y02911*
X05774Y02917*
X05773Y02922*
X05769Y02927*
X05765Y0293*
X05759Y02931*
G37*
G36*
X06157Y02813D02*
X06152Y02812D01*
X06147Y02809*
X06144Y02804*
X06143Y02799*
X06144Y02793*
X06147Y02789*
X06152Y02786*
X06157Y02784*
X06162Y02786*
X06167Y02789*
X0617Y02793*
X06171Y02799*
X0617Y02804*
X06167Y02809*
X06162Y02812*
X06157Y02813*
G37*
G36*
X05984Y02734D02*
X05978Y02733D01*
X05974Y0273*
X05971Y02725*
Y02725*
X05965*
Y02725*
X05962Y0273*
X05958Y02733*
X05952Y02734*
X05947Y02733*
X05942Y0273*
X05939Y02725*
X05938Y0272*
X05939Y02715*
X05942Y0271*
X05947Y02707*
X05952Y02706*
X05958Y02707*
X05962Y0271*
X05965Y02715*
Y02715*
X05971*
Y02715*
X05974Y0271*
X05978Y02707*
X05984Y02706*
X05989Y02707*
X05994Y0271*
X05997Y02715*
X05998Y0272*
X05997Y02725*
X05994Y0273*
X05989Y02733*
X05984Y02734*
G37*
G36*
X05917D02*
X05911Y02733D01*
X05907Y0273*
X05904Y02725*
X05903Y0272*
X05904Y02715*
X05907Y0271*
X05911Y02707*
X05917Y02706*
X05922Y02707*
X05927Y0271*
X0593Y02715*
X05931Y0272*
X0593Y02725*
X05927Y0273*
X05922Y02733*
X05917Y02734*
G37*
G36*
X05925Y02809D02*
X05919Y02808D01*
X05915Y02805*
X05912Y028*
X0591Y02795*
X05912Y02789*
X05915Y02785*
X05919Y02782*
X05925Y0278*
X0593Y02782*
X05935Y02785*
X05938Y02789*
X05939Y02795*
X05938Y028*
X05935Y02805*
X0593Y02808*
X05925Y02809*
G37*
G36*
X06196Y02774D02*
X06191Y02773D01*
X06186Y02769*
X06183Y02765*
X06182Y02759*
X06183Y02754*
X06186Y02749*
X06191Y02746*
X06196Y02745*
X06202Y02746*
X06206Y02749*
X0621Y02754*
X06211Y02759*
X0621Y02765*
X06206Y02769*
X06202Y02773*
X06196Y02774*
G37*
G36*
Y02813D02*
X06191Y02812D01*
X06186Y02809*
X06183Y02804*
X06182Y02799*
X06183Y02793*
X06186Y02789*
X06191Y02786*
X06196Y02784*
X06202Y02786*
X06206Y02789*
X0621Y02793*
X06211Y02799*
X0621Y02804*
X06206Y02809*
X06202Y02812*
X06196Y02813*
G37*
G36*
X06275D02*
X0627Y02812D01*
X06265Y02809*
X06262Y02804*
X06261Y02799*
X06262Y02793*
X06265Y02789*
X0627Y02786*
X06275Y02784*
X06281Y02786*
X06285Y02789*
X06288Y02793*
X06289Y02799*
X06288Y02804*
X06285Y02809*
X06281Y02812*
X06275Y02813*
G37*
G36*
X06236D02*
X0623Y02812D01*
X06226Y02809*
X06223Y02804*
X06221Y02799*
X06223Y02793*
X06226Y02789*
X0623Y02786*
X06236Y02784*
X06241Y02786*
X06246Y02789*
X06249Y02793*
X0625Y02799*
X06249Y02804*
X06246Y02809*
X06241Y02812*
X06236Y02813*
G37*
G36*
X06326Y02829D02*
X06321Y02828D01*
X06316Y02825*
X06313Y0282*
X06312Y02814*
X06313Y02809*
X06316Y02804*
X06321Y02801*
X06326Y028*
X06332Y02801*
X06336Y02804*
X06339Y02809*
X06341Y02814*
X06339Y0282*
X06336Y02825*
X06332Y02828*
X06326Y02829*
G37*
G36*
X06437Y02837D02*
X06431Y02836D01*
X06426Y02832*
X06423Y02828*
X06422Y02822*
X06423Y02817*
X06425Y02814*
X06426Y02811*
X06425Y02807*
X06423Y02804*
X06422Y02799*
X06423Y02793*
X06426Y02789*
X06431Y02786*
X06437Y02784*
X06442Y02786*
X06447Y02789*
X0645Y02793*
X06451Y02799*
X0645Y02804*
X06448Y02807*
X06447Y02811*
X06448Y02814*
X0645Y02817*
X06451Y02822*
X0645Y02828*
X06447Y02832*
X06442Y02836*
X06437Y02837*
G37*
G36*
X05575Y04518D02*
X0557Y04517D01*
X05565Y04514*
X05562Y04509*
X05561Y04504*
X05562Y04498*
X05564Y04495*
X05565Y04491*
X05564Y04488*
X05562Y04485*
X05561Y04479*
X05562Y04474*
X05564Y0447*
X05565Y04467*
X05564Y04464*
X05562Y0446*
X05561Y04455*
X05562Y04449*
X05564Y04446*
X05565Y04442*
X05564Y04439*
X05562Y04436*
X05561Y0443*
X05562Y04425*
X05564Y04421*
X05565Y04418*
X05564Y04415*
X05562Y04411*
X05561Y04406*
X05562Y044*
X05564Y04397*
X05565Y04394*
X05564Y0439*
X05562Y04387*
X05561Y04382*
X05562Y04376*
X05565Y04371*
X0557Y04368*
X05575Y04367*
X0558Y04368*
X05585Y04371*
X05588Y04376*
X05589Y04382*
X05588Y04387*
X05586Y0439*
X05585Y04394*
X05586Y04397*
X05588Y044*
X05589Y04406*
X05588Y04411*
X05586Y04415*
X05585Y04418*
X05586Y04421*
X05588Y04425*
X05589Y0443*
X05588Y04436*
X05586Y04439*
X05585Y04442*
X05586Y04446*
X05588Y04449*
X05589Y04455*
X05588Y0446*
X05586Y04464*
X05585Y04467*
X05586Y0447*
X05588Y04474*
X05589Y04479*
X05588Y04485*
X05586Y04488*
X05585Y04491*
X05586Y04495*
X05588Y04498*
X05589Y04504*
X05588Y04509*
X05585Y04514*
X0558Y04517*
X05575Y04518*
G37*
G36*
X06364Y04453D02*
X06355Y04452D01*
X06346Y04449*
X06339Y04443*
X06333Y04435*
X06329Y04427*
X06328Y04417*
X06329Y04408*
X06333Y044*
X06339Y04392*
X06346Y04386*
X06355Y04383*
X06364Y04382*
X06373Y04383*
X06382Y04386*
X06389Y04392*
X06395Y044*
X06399Y04408*
X064Y04417*
X06399Y04427*
X06395Y04435*
X06389Y04443*
X06382Y04449*
X06373Y04452*
X06364Y04453*
G37*
G36*
X07056Y0446D02*
X07048Y04459D01*
X0704Y04456*
X07034Y04451*
X07029Y04444*
X07025Y04436*
X07024Y04428*
X07025Y0442*
X07029Y04412*
X07034Y04406*
X0704Y04401*
X07048Y04397*
X07056Y04396*
X07065Y04397*
X07072Y04401*
X07079Y04406*
X07084Y04412*
X07087Y0442*
X07088Y04428*
X07087Y04436*
X07084Y04444*
X07079Y04451*
X07072Y04456*
X07065Y04459*
X07056Y0446*
G37*
G36*
X06464Y04453D02*
X06455Y04452D01*
X06446Y04449*
X06439Y04443*
X06433Y04435*
X06429Y04427*
X06428Y04417*
X06429Y04408*
X06433Y044*
X06439Y04392*
X06446Y04386*
X06455Y04383*
X06464Y04382*
X06473Y04383*
X06482Y04386*
X06489Y04392*
X06495Y044*
X06499Y04408*
X065Y04417*
X06499Y04427*
X06495Y04435*
X06489Y04443*
X06482Y04449*
X06473Y04452*
X06464Y04453*
G37*
G36*
X0839Y04301D02*
X08385Y043D01*
X0838Y04297*
X08377Y04292*
X08376Y04287*
X08377Y04281*
X0838Y04277*
X08385Y04274*
X0839Y04272*
X08396Y04274*
X08401Y04277*
X08404Y04281*
X08405Y04287*
X08404Y04292*
X08401Y04297*
X08396Y043*
X0839Y04301*
G37*
G36*
X05488Y04284D02*
X05481Y04282D01*
X05476Y04279*
X05473Y04273*
X05471Y04267*
X05473Y04261*
X05476Y04256*
X05481Y04252*
X05488Y04251*
X05494Y04252*
X05499Y04256*
X05503Y04261*
X05504Y04267*
X05503Y04273*
X05499Y04279*
X05494Y04282*
X05488Y04284*
G37*
G36*
X0829Y04351D02*
X08285Y0435D01*
X0828Y04347*
X08277Y04342*
X08276Y04337*
X08277Y04331*
X0828Y04327*
X08285Y04324*
X0829Y04322*
X08296Y04324*
X08301Y04327*
X08304Y04331*
X08305Y04337*
X08304Y04342*
X08301Y04347*
X08296Y0435*
X0829Y04351*
G37*
G36*
X07137Y04307D02*
X07131Y04306D01*
X07126Y04302*
X07122Y04297*
X07121Y04291*
X07122Y04285*
X07126Y04279*
X07131Y04276*
X07137Y04275*
X07144Y04276*
X07149Y04279*
X07152Y04285*
X07154Y04291*
X07152Y04297*
X07149Y04302*
X07144Y04306*
X07137Y04307*
G37*
G36*
X07135Y0446D02*
X07127Y04459D01*
X07119Y04456*
X07112Y04451*
X07107Y04444*
X07104Y04436*
X07103Y04428*
X07104Y0442*
X07107Y04412*
X07112Y04406*
X07119Y04401*
X07127Y04397*
X07135Y04396*
X07143Y04397*
X07151Y04401*
X07158Y04406*
X07163Y04412*
X07166Y0442*
X07167Y04428*
X07166Y04436*
X07163Y04444*
X07158Y04451*
X07151Y04456*
X07143Y04459*
X07135Y0446*
G37*
G36*
X07387Y04538D02*
X07355D01*
X0734Y04523*
Y04491*
X07355Y04475*
X07387*
X07403Y04491*
Y04523*
X07387Y04538*
G37*
G36*
X07292Y04539D02*
X07284Y04538D01*
X07277Y04534*
X0727Y04529*
X07265Y04523*
X07262Y04515*
X07261Y04507*
X07262Y04499*
X07265Y04491*
X0727Y04484*
X07277Y04479*
X07284Y04476*
X07292Y04475*
X07301Y04476*
X07308Y04479*
X07315Y04484*
X0732Y04491*
X07323Y04499*
X07324Y04507*
X07323Y04515*
X0732Y04523*
X07315Y04529*
X07308Y04534*
X07301Y04538*
X07292Y04539*
G37*
G36*
X06364Y04553D02*
X06355Y04552D01*
X06346Y04549*
X06339Y04543*
X06333Y04535*
X06329Y04527*
X06328Y04517*
X06329Y04508*
X06333Y045*
X06339Y04492*
X06346Y04486*
X06355Y04483*
X06364Y04482*
X06373Y04483*
X06382Y04486*
X06389Y04492*
X06395Y045*
X06399Y04508*
X064Y04517*
X06399Y04527*
X06395Y04535*
X06389Y04543*
X06382Y04549*
X06373Y04552*
X06364Y04553*
G37*
G36*
X06978Y04539D02*
X06969Y04538D01*
X06962Y04534*
X06955Y04529*
X0695Y04523*
X06947Y04515*
X06946Y04507*
X06947Y04499*
X06947Y04497*
X06946Y04495*
X06944Y04493*
X06938Y04493*
X06932Y04493*
X0693Y04495*
X06929Y04497*
X0693Y04499*
X06931Y04507*
X0693Y04515*
X06926Y04523*
X06921Y04529*
X06915Y04534*
X06907Y04538*
X06899Y04539*
X06891Y04538*
X06883Y04534*
X06876Y04529*
X06871Y04523*
X06868Y04515*
X06867Y04507*
X06868Y04499*
X06871Y04491*
X06876Y04484*
X06883Y04479*
X06891Y04476*
X06899Y04475*
X06907Y04476*
X06909Y04477*
X06911Y04476*
X06913Y04473*
X06912Y04467*
X06913Y04462*
X06911Y04459*
X06909Y04458*
X06907Y04459*
X06899Y0446*
X06891Y04459*
X06883Y04456*
X06876Y04451*
X06871Y04444*
X06868Y04436*
X06867Y04428*
X06868Y0442*
X06871Y04412*
X06876Y04406*
X06883Y04401*
X06891Y04397*
X06899Y04396*
X06907Y04397*
X06915Y04401*
X06921Y04406*
X06926Y04412*
X0693Y0442*
X06931Y04428*
X0693Y04436*
X06929Y04438*
X0693Y0444*
X06932Y04442*
X06938Y04442*
X06944Y04442*
X06946Y0444*
X06947Y04438*
X06947Y04436*
X06946Y04428*
X06947Y0442*
X0695Y04412*
X06955Y04406*
X06962Y04401*
X06969Y04397*
X06978Y04396*
X06986Y04397*
X06993Y04401*
X07Y04406*
X07005Y04412*
X07008Y0442*
X07009Y04428*
X07008Y04436*
X07005Y04444*
X07Y04451*
X06993Y04456*
X06986Y04459*
X06978Y0446*
X06969Y04459*
X06967Y04458*
X06966Y04459*
X06963Y04462*
X06964Y04467*
X06963Y04473*
X06966Y04476*
X06967Y04477*
X06969Y04476*
X06978Y04475*
X06986Y04476*
X06993Y04479*
X07Y04484*
X07005Y04491*
X07008Y04499*
X07009Y04507*
X07008Y04515*
X07005Y04523*
X07Y04529*
X06993Y04534*
X06986Y04538*
X06978Y04539*
G37*
G36*
X06464Y04553D02*
X06455Y04552D01*
X06446Y04549*
X06439Y04543*
X06433Y04535*
X06429Y04527*
X06428Y04517*
X06429Y04508*
X06433Y045*
X06439Y04492*
X06446Y04486*
X06455Y04483*
X06464Y04482*
X06473Y04483*
X06482Y04486*
X06489Y04492*
X06495Y045*
X06499Y04508*
X065Y04517*
X06499Y04527*
X06495Y04535*
X06489Y04543*
X06482Y04549*
X06473Y04552*
X06464Y04553*
G37*
G36*
X07292Y0446D02*
X07284Y04459D01*
X07277Y04456*
X0727Y04451*
X07265Y04444*
X07262Y04436*
X07261Y04428*
X07262Y0442*
X07265Y04412*
X0727Y04406*
X07277Y04401*
X07284Y04397*
X07292Y04396*
X07301Y04397*
X07308Y04401*
X07315Y04406*
X0732Y04412*
X07323Y0442*
X07324Y04428*
X07323Y04436*
X0732Y04444*
X07315Y04451*
X07308Y04456*
X07301Y04459*
X07292Y0446*
G37*
G36*
X07214D02*
X07205Y04459D01*
X07198Y04456*
X07191Y04451*
X07186Y04444*
X07183Y04436*
X07182Y04428*
X07183Y0442*
X07186Y04412*
X07191Y04406*
X07198Y04401*
X07205Y04397*
X07214Y04396*
X07222Y04397*
X0723Y04401*
X07236Y04406*
X07241Y04412*
X07245Y0442*
X07246Y04428*
X07245Y04436*
X07241Y04444*
X07236Y04451*
X0723Y04456*
X07222Y04459*
X07214Y0446*
G37*
G36*
X07056Y04539D02*
X07048Y04538D01*
X0704Y04534*
X07034Y04529*
X07029Y04523*
X07025Y04515*
X07024Y04507*
X07025Y04499*
X07029Y04491*
X07034Y04484*
X0704Y04479*
X07048Y04476*
X07056Y04475*
X07065Y04476*
X07072Y04479*
X07079Y04484*
X07084Y04491*
X07087Y04499*
X07088Y04507*
X07087Y04515*
X07084Y04523*
X07079Y04529*
X07072Y04534*
X07065Y04538*
X07056Y04539*
G37*
G36*
X07214D02*
X07205Y04538D01*
X07198Y04534*
X07191Y04529*
X07186Y04523*
X07183Y04515*
X07182Y04507*
X07183Y04499*
X07186Y04491*
X07191Y04484*
X07198Y04479*
X07205Y04476*
X07214Y04475*
X07222Y04476*
X0723Y04479*
X07236Y04484*
X07241Y04491*
X07245Y04499*
X07246Y04507*
X07245Y04515*
X07241Y04523*
X07236Y04529*
X0723Y04534*
X07222Y04538*
X07214Y04539*
G37*
G36*
X07135D02*
X07127Y04538D01*
X07119Y04534*
X07112Y04529*
X07107Y04523*
X07104Y04515*
X07103Y04507*
X07104Y04499*
X07107Y04491*
X07112Y04484*
X07119Y04479*
X07127Y04476*
X07135Y04475*
X07143Y04476*
X07151Y04479*
X07158Y04484*
X07163Y04491*
X07166Y04499*
X07167Y04507*
X07166Y04515*
X07163Y04523*
X07158Y04529*
X07151Y04534*
X07143Y04538*
X07135Y04539*
G37*
G36*
X0716Y03936D02*
X07154Y03935D01*
X07148Y03931*
X07145Y03926*
X07144Y0392*
X07145Y03913*
X07148Y03908*
X07154Y03904*
X0716Y03903*
X07166Y03904*
X07172Y03908*
X07175Y03913*
X07176Y0392*
X07175Y03926*
X07172Y03931*
X07166Y03935*
X0716Y03936*
G37*
G36*
X0829Y03951D02*
X08285Y0395D01*
X0828Y03947*
X08277Y03942*
X08276Y03937*
X08277Y03931*
X0828Y03927*
X08285Y03924*
X0829Y03922*
X08296Y03924*
X08301Y03927*
X08304Y03931*
X08305Y03937*
X08304Y03942*
X08301Y03947*
X08296Y0395*
X0829Y03951*
G37*
G36*
X06147Y03982D02*
X06141Y03981D01*
X06135Y03977*
X06132Y03972*
X06131Y03965*
X06132Y03959*
X06135Y03954*
X06141Y0395*
X06147Y03949*
X06153Y0395*
X06159Y03954*
X06162Y03959*
X06163Y03965*
X06162Y03972*
X06159Y03977*
X06153Y03981*
X06147Y03982*
G37*
G36*
X0742Y03959D02*
X07415Y03958D01*
X0741Y03955*
X07407Y0395*
X07406Y03945*
X07407Y03939*
X0741Y03934*
X07415Y03931*
X0742Y0393*
X07425Y03931*
X0743Y03934*
X07433Y03939*
X07434Y03945*
X07433Y0395*
X0743Y03955*
X07425Y03958*
X0742Y03959*
G37*
G36*
X07419Y0386D02*
X07414Y03859D01*
X07409Y03856*
X07406Y03851*
X07405Y03845*
X07406Y0384*
X07409Y03835*
X07414Y03832*
X07419Y03831*
X07424Y03832*
X07429Y03835*
X07432Y0384*
X07433Y03845*
X07432Y03851*
X07429Y03856*
X07424Y03859*
X07419Y0386*
G37*
G36*
X06884Y03836D02*
X06878Y03835D01*
X06874Y03832*
X0687Y03827*
X06869Y03822*
X0687Y03816*
X06874Y03812*
X06878Y03809*
X06884Y03808*
X06889Y03809*
X06894Y03812*
X06897Y03816*
X06898Y03822*
X06897Y03827*
X06894Y03832*
X06889Y03835*
X06884Y03836*
G37*
G36*
X07157Y03886D02*
X07151Y03885D01*
X07145Y03881*
X07142Y03876*
X07141Y0387*
X07142Y03863*
X07145Y03858*
X07151Y03854*
X07157Y03853*
X07163Y03854*
X07169Y03858*
X07172Y03863*
X07173Y0387*
X07172Y03876*
X07169Y03881*
X07163Y03885*
X07157Y03886*
G37*
G36*
X07419Y03909D02*
X07414Y03908D01*
X07409Y03905*
X07406Y039*
X07405Y03895*
X07406Y03889*
X07409Y03884*
X07414Y03881*
X07419Y0388*
X07424Y03881*
X07429Y03884*
X07432Y03889*
X07433Y03895*
X07432Y039*
X07429Y03905*
X07424Y03908*
X07419Y03909*
G37*
G36*
X07159Y03986D02*
X07153Y03985D01*
X07147Y03981*
X07144Y03976*
X07143Y0397*
X07144Y03963*
X07147Y03958*
X07153Y03954*
X07159Y03953*
X07165Y03954*
X07171Y03958*
X07174Y03963*
X07175Y0397*
X07174Y03976*
X07171Y03981*
X07165Y03985*
X07159Y03986*
G37*
G36*
X05488Y04205D02*
X05481Y04204D01*
X05476Y042*
X05473Y04195*
X05471Y04188*
X05473Y04182*
X05476Y04177*
X05481Y04173*
X05488Y04172*
X05494Y04173*
X05499Y04177*
X05503Y04182*
X05504Y04188*
X05503Y04195*
X05499Y042*
X05494Y04204*
X05488Y04205*
G37*
G36*
X06452Y03986D02*
X06447Y03985D01*
X06442Y03982*
X06439Y03977*
X06438Y03972*
X06439Y03966*
X06442Y03962*
X06447Y03959*
X06452Y03958*
X06458Y03959*
X06462Y03962*
X06465Y03966*
X06467Y03972*
X06465Y03977*
X06462Y03982*
X06458Y03985*
X06452Y03986*
G37*
G36*
X06893Y04049D02*
X06888Y04048D01*
X06883Y04045*
X0688Y0404*
X06879Y04035*
X0688Y04029*
X06883Y04024*
X06888Y04021*
X06893Y0402*
X06898Y04021*
X06903Y04024*
X06906Y04029*
X06907Y04035*
X06906Y0404*
X06903Y04045*
X06898Y04048*
X06893Y04049*
G37*
G36*
X06962Y04066D02*
X06957Y04065D01*
X06952Y04062*
X06949Y04057*
X06948Y04052*
X06949Y04046*
X06952Y04041*
X06957Y04038*
X06962Y04037*
X06967Y04038*
X06972Y04041*
X06975Y04046*
X06976Y04052*
X06975Y04057*
X06972Y04062*
X06967Y04065*
X06962Y04066*
G37*
G36*
X04104Y04546D02*
X04094Y04544D01*
X04086Y04539*
X04081Y0453*
X04079Y04521*
X04081Y04511*
X04086Y04503*
X04094Y04497*
X04104Y04496*
X04114Y04497*
X04122Y04503*
X04127Y04511*
X04129Y04521*
X04127Y0453*
X04122Y04539*
X04114Y04544*
X04104Y04546*
G37*
G36*
X06122Y05178D02*
X06116Y05177D01*
X0611Y05173*
X06107Y05168*
X06106Y05162*
X06107Y05155*
X0611Y0515*
X06116Y05146*
X06122Y05145*
X06128Y05146*
X06134Y0515*
X06137Y05155*
X06138Y05162*
X06137Y05168*
X06134Y05173*
X06128Y05177*
X06122Y05178*
G37*
G36*
X06174Y05177D02*
X06168Y05176D01*
X06162Y05172*
X06159Y05167*
X06158Y0516*
X06159Y05154*
X06162Y05149*
X06168Y05145*
X06174Y05144*
X0618Y05145*
X06186Y05149*
X06189Y05154*
X0619Y0516*
X06189Y05167*
X06186Y05172*
X0618Y05176*
X06174Y05177*
G37*
G36*
X07159Y05221D02*
X0715Y0522D01*
X07141Y05216*
X07133Y0521*
X07128Y05203*
X07124Y05194*
X07123Y05185*
X07124Y05175*
X07128Y05166*
X07133Y05159*
X07141Y05153*
X0715Y05149*
X07159Y05148*
X07168Y05149*
X07177Y05153*
X07185Y05159*
X0719Y05166*
X07194Y05175*
X07195Y05185*
X07194Y05194*
X0719Y05203*
X07185Y0521*
X07177Y05216*
X07168Y0522*
X07159Y05221*
G37*
G36*
X07359D02*
X0735Y0522D01*
X07341Y05216*
X07333Y0521*
X07328Y05203*
X07324Y05194*
X07323Y05185*
X07324Y05175*
X07328Y05166*
X07333Y05159*
X07341Y05153*
X0735Y05149*
X07359Y05148*
X07368Y05149*
X07377Y05153*
X07385Y05159*
X0739Y05166*
X07394Y05175*
X07395Y05185*
X07394Y05194*
X0739Y05203*
X07385Y0521*
X07377Y05216*
X07368Y0522*
X07359Y05221*
G37*
G36*
X07259D02*
X0725Y0522D01*
X07241Y05216*
X07233Y0521*
X07228Y05203*
X07224Y05194*
X07223Y05185*
X07224Y05175*
X07228Y05166*
X07233Y05159*
X07241Y05153*
X0725Y05149*
X07259Y05148*
X07268Y05149*
X07277Y05153*
X07285Y05159*
X0729Y05166*
X07294Y05175*
X07295Y05185*
X07294Y05194*
X0729Y05203*
X07285Y0521*
X07277Y05216*
X07268Y0522*
X07259Y05221*
G37*
G36*
X08095Y0512D02*
X08023D01*
Y05049*
X08095*
Y0512*
G37*
G36*
X07195D02*
X07123D01*
Y05049*
X07195*
Y0512*
G37*
G36*
X07917Y05148D02*
X0791Y05147D01*
X07905Y05143*
X07902Y05138*
X079Y05132*
X07902Y05126*
X07905Y0512*
X0791Y05117*
X07917Y05116*
X07923Y05117*
X07928Y0512*
X07932Y05126*
X07933Y05132*
X07932Y05138*
X07928Y05143*
X07923Y05147*
X07917Y05148*
G37*
G36*
X07008Y0516D02*
X07001Y05159D01*
X06996Y05155*
X06993Y0515*
X06991Y05144*
X06993Y05138*
X06996Y05132*
X07001Y05129*
X07008Y05128*
X07014Y05129*
X07019Y05132*
X07023Y05138*
X07024Y05144*
X07023Y0515*
X07019Y05155*
X07014Y05159*
X07008Y0516*
G37*
G36*
X07803Y05154D02*
X07797Y05153D01*
X07791Y05149*
X07788Y05144*
X07787Y05137*
X07788Y05131*
X07791Y05126*
X07797Y05122*
X07803Y05121*
X07809Y05122*
X07815Y05126*
X07818Y05131*
X07819Y05137*
X07818Y05144*
X07815Y05149*
X07809Y05153*
X07803Y05154*
G37*
G36*
X07559Y05221D02*
X0755Y0522D01*
X07541Y05216*
X07533Y0521*
X07528Y05203*
X07524Y05194*
X07523Y05185*
X07524Y05175*
X07528Y05166*
X07533Y05159*
X07541Y05153*
X0755Y05149*
X07559Y05148*
X07568Y05149*
X07577Y05153*
X07585Y05159*
X0759Y05166*
X07594Y05175*
X07595Y05185*
X07594Y05194*
X0759Y05203*
X07585Y0521*
X07577Y05216*
X07568Y0522*
X07559Y05221*
G37*
G36*
X07459D02*
X0745Y0522D01*
X07441Y05216*
X07433Y0521*
X07428Y05203*
X07424Y05194*
X07423Y05185*
X07424Y05175*
X07428Y05166*
X07433Y05159*
X07441Y05153*
X0745Y05149*
X07459Y05148*
X07468Y05149*
X07472Y05151*
X07472Y0515*
X07472Y05151*
X07477Y05153*
X07485Y05159*
X0749Y05166*
X07494Y05175*
X07495Y05185*
X07494Y05194*
X0749Y05203*
X07485Y0521*
X07477Y05216*
X07475Y05217*
X07475Y05221*
X07472Y05218*
X07468Y0522*
X07459Y05221*
G37*
G36*
X08159D02*
X0815Y0522D01*
X08141Y05216*
X08133Y0521*
X08128Y05203*
X08124Y05194*
X08123Y05185*
X08124Y05175*
X08128Y05166*
X08133Y05159*
X08141Y05153*
X0815Y05149*
X08159Y05148*
X08168Y05149*
X08177Y05153*
X08185Y05159*
X0819Y05166*
X08194Y05175*
X08195Y05185*
X08194Y05194*
X0819Y05203*
X08185Y0521*
X08177Y05216*
X08168Y0522*
X08159Y05221*
G37*
G36*
X08059D02*
X0805Y0522D01*
X08041Y05216*
X08033Y0521*
X08028Y05203*
X08024Y05194*
X08023Y05185*
X08024Y05175*
X08028Y05166*
X08033Y05159*
X08041Y05153*
X0805Y05149*
X08059Y05148*
X08068Y05149*
X08077Y05153*
X08085Y05159*
X0809Y05166*
X08094Y05175*
X08095Y05185*
X08094Y05194*
X0809Y05203*
X08085Y0521*
X08077Y05216*
X08068Y0522*
X08059Y05221*
G37*
G36*
X08259D02*
X0825Y0522D01*
X08241Y05216*
X08233Y0521*
X08228Y05203*
X08224Y05194*
X08223Y05185*
X08224Y05175*
X08228Y05166*
X08233Y05159*
X08241Y05153*
X0825Y05149*
X08259Y05148*
X08268Y05149*
X08277Y05153*
X08285Y05159*
X0829Y05166*
X08294Y05175*
X08295Y05185*
X08294Y05194*
X0829Y05203*
X08285Y0521*
X08277Y05216*
X08268Y0522*
X08259Y05221*
G37*
G36*
X08459D02*
X0845Y0522D01*
X08441Y05216*
X08433Y0521*
X08428Y05203*
X08424Y05194*
X08423Y05185*
X08424Y05175*
X08428Y05166*
X08433Y05159*
X08441Y05153*
X0845Y05149*
X08459Y05148*
X08468Y05149*
X08477Y05153*
X08485Y05159*
X0849Y05166*
X08494Y05175*
X08495Y05185*
X08494Y05194*
X0849Y05203*
X08485Y0521*
X08477Y05216*
X08468Y0522*
X08459Y05221*
G37*
G36*
X08359D02*
X0835Y0522D01*
X08341Y05216*
X08333Y0521*
X08328Y05203*
X08324Y05194*
X08323Y05185*
X08324Y05175*
X08328Y05166*
X08333Y05159*
X08341Y05153*
X0835Y05149*
X08359Y05148*
X08368Y05149*
X08377Y05153*
X08385Y05159*
X0839Y05166*
X08394Y05175*
X08395Y05185*
X08394Y05194*
X0839Y05203*
X08385Y0521*
X08377Y05216*
X08368Y0522*
X08359Y05221*
G37*
G36*
X08459Y05121D02*
X0845Y0512D01*
X08441Y05116*
X08433Y0511*
X08428Y05103*
X08424Y05094*
X08423Y05085*
X08424Y05075*
X08428Y05066*
X08433Y05059*
X08441Y05053*
X0845Y05049*
X08459Y05048*
X08468Y05049*
X08477Y05053*
X08485Y05059*
X0849Y05066*
X08494Y05075*
X08495Y05085*
X08494Y05094*
X0849Y05103*
X08485Y0511*
X08477Y05116*
X08468Y0512*
X08459Y05121*
G37*
G36*
X05429Y04677D02*
X05422Y04676D01*
X05417Y04672*
X05414Y04667*
X05412Y04661*
X05414Y04655*
X05417Y04649*
X05422Y04646*
X05429Y04645*
X05435Y04646*
X0544Y04649*
X05444Y04655*
X05445Y04661*
X05444Y04667*
X0544Y04672*
X05435Y04676*
X05429Y04677*
G37*
G36*
X06464Y04753D02*
X06455Y04752D01*
X06446Y04749*
X06439Y04743*
X06433Y04735*
X06429Y04727*
X06428Y04717*
X06429Y04708*
X06433Y047*
X06439Y04692*
X06446Y04686*
X06455Y04683*
X06464Y04682*
X06473Y04683*
X06482Y04686*
X06489Y04692*
X06495Y047*
X06499Y04708*
X065Y04717*
X06499Y04727*
X06495Y04735*
X06489Y04743*
X06482Y04749*
X06473Y04752*
X06464Y04753*
G37*
G36*
X06364Y04853D02*
X06355Y04852D01*
X06346Y04849*
X06339Y04843*
X06333Y04835*
X06329Y04827*
X06328Y04817*
X06329Y04808*
X06333Y048*
X06339Y04792*
X06346Y04786*
X06355Y04783*
X06364Y04782*
X06373Y04783*
X06382Y04786*
X06389Y04792*
X06395Y048*
X06399Y04808*
X064Y04817*
X06399Y04827*
X06395Y04835*
X06389Y04843*
X06382Y04849*
X06373Y04852*
X06364Y04853*
G37*
G36*
X05571Y04828D02*
X05566Y04827D01*
X05561Y04824*
X05558Y04819*
X05557Y04814*
X05558Y04808*
X05559Y04806*
X05561Y04802*
X05559Y04799*
X05558Y04797*
X05557Y04791*
X05558Y04786*
X05559Y04784*
X05561Y0478*
X05559Y04776*
X05558Y04774*
X05557Y04769*
X05558Y04763*
X05559Y04761*
X05561Y04757*
X05559Y04754*
X05558Y04752*
X05557Y04746*
X05558Y04741*
X05559Y04739*
X05561Y04735*
X05559Y04731*
X05558Y04729*
X05557Y04724*
X05558Y04718*
X05559Y04716*
X05561Y04713*
X05559Y04709*
X05558Y04707*
X05557Y04702*
X05558Y04696*
X05561Y04691*
X05566Y04688*
X05571Y04687*
X05576Y04688*
X05581Y04691*
X05584Y04696*
X05585Y04702*
X05584Y04707*
X05583Y04709*
X05582Y04713*
X05583Y04716*
X05584Y04718*
X05585Y04724*
X05584Y04729*
X05583Y04731*
X05582Y04735*
X05583Y04739*
X05584Y04741*
X05585Y04746*
X05584Y04752*
X05583Y04754*
X05582Y04757*
X05583Y04761*
X05584Y04763*
X05585Y04769*
X05584Y04774*
X05583Y04776*
X05582Y0478*
X05583Y04784*
X05584Y04786*
X05585Y04791*
X05584Y04797*
X05583Y04799*
X05582Y04802*
X05583Y04806*
X05584Y04808*
X05585Y04814*
X05584Y04819*
X05581Y04824*
X05576Y04827*
X05571Y04828*
G37*
G36*
X06364Y04653D02*
X06355Y04652D01*
X06346Y04649*
X06339Y04643*
X06333Y04635*
X06329Y04627*
X06328Y04617*
X06329Y04608*
X06333Y046*
X06339Y04592*
X06346Y04586*
X06355Y04583*
X06364Y04582*
X06373Y04583*
X06382Y04586*
X06389Y04592*
X06395Y046*
X06399Y04608*
X064Y04617*
X06399Y04627*
X06395Y04635*
X06389Y04643*
X06382Y04649*
X06373Y04652*
X06364Y04653*
G37*
G36*
X05226Y04546D02*
X05216Y04544D01*
X05208Y04539*
X05203Y0453*
X05201Y04521*
X05203Y04511*
X05208Y04503*
X05216Y04497*
X05226Y04496*
X05236Y04497*
X05244Y04503*
X05249Y04511*
X05251Y04521*
X05249Y0453*
X05244Y04539*
X05236Y04544*
X05226Y04546*
G37*
G36*
X06464Y04653D02*
X06455Y04652D01*
X06446Y04649*
X06439Y04643*
X06433Y04635*
X06429Y04627*
X06428Y04617*
X06429Y04608*
X06433Y046*
X06439Y04592*
X06446Y04586*
X06455Y04583*
X06464Y04582*
X06473Y04583*
X06482Y04586*
X06489Y04592*
X06495Y046*
X06499Y04608*
X065Y04617*
X06499Y04627*
X06495Y04635*
X06489Y04643*
X06482Y04649*
X06473Y04652*
X06464Y04653*
G37*
G36*
X05492Y0463D02*
X05485Y04629D01*
X0548Y04625*
X05477Y0462*
X05475Y04614*
X05477Y04607*
X0548Y04602*
X05485Y04599*
X05492Y04597*
X05498Y04599*
X05503Y04602*
X05507Y04607*
X05508Y04614*
X05507Y0462*
X05503Y04625*
X05498Y04629*
X05492Y0463*
G37*
G36*
X06464Y04853D02*
X06455Y04852D01*
X06446Y04849*
X06439Y04843*
X06433Y04835*
X06429Y04827*
X06428Y04817*
X06429Y04808*
X06433Y048*
X06439Y04792*
X06446Y04786*
X06455Y04783*
X06464Y04782*
X06473Y04783*
X06482Y04786*
X06489Y04792*
X06495Y048*
X06499Y04808*
X065Y04817*
X06499Y04827*
X06495Y04835*
X06489Y04843*
X06482Y04849*
X06473Y04852*
X06464Y04853*
G37*
G36*
X07559Y05121D02*
X0755Y0512D01*
X07541Y05116*
X07533Y0511*
X07528Y05103*
X07524Y05094*
X07523Y05085*
X07524Y05075*
X07528Y05066*
X07533Y05059*
X07541Y05053*
X0755Y05049*
X07559Y05048*
X07568Y05049*
X07577Y05053*
X07585Y05059*
X0759Y05066*
X07594Y05075*
X07595Y05085*
X07594Y05094*
X0759Y05103*
X07585Y0511*
X07577Y05116*
X07568Y0512*
X07559Y05121*
G37*
G36*
X07459D02*
X0745Y0512D01*
X07441Y05116*
X07433Y0511*
X07428Y05103*
X07424Y05094*
X07423Y05085*
X07424Y05075*
X07428Y05066*
X07433Y05059*
X07441Y05053*
X0745Y05049*
X07459Y05048*
X07468Y05049*
X07468Y05049*
X07477Y05053*
X07485Y05059*
X0749Y05066*
X07494Y05075*
X07495Y05085*
X07494Y05094*
X0749Y05103*
X07485Y0511*
X07477Y05116*
X07472Y05118*
X07468Y0512*
X07459Y05121*
G37*
G36*
X08159D02*
X0815Y0512D01*
X08141Y05116*
X08133Y0511*
X08128Y05103*
X08124Y05094*
X08123Y05085*
X08124Y05075*
X08128Y05066*
X08133Y05059*
X08141Y05053*
X0815Y05049*
X08159Y05048*
X08168Y05049*
X08177Y05053*
X08185Y05059*
X0819Y05066*
X08194Y05075*
X08195Y05085*
X08194Y05094*
X0819Y05103*
X08185Y0511*
X08177Y05116*
X08168Y0512*
X08159Y05121*
G37*
G36*
X08359D02*
X0835Y0512D01*
X08341Y05116*
X08333Y0511*
X08328Y05103*
X08324Y05094*
X08323Y05085*
X08324Y05075*
X08328Y05066*
X08333Y05059*
X08341Y05053*
X0835Y05049*
X08359Y05048*
X08368Y05049*
X08377Y05053*
X08385Y05059*
X0839Y05066*
X08394Y05075*
X08395Y05085*
X08394Y05094*
X0839Y05103*
X08385Y0511*
X08377Y05116*
X08368Y0512*
X08359Y05121*
G37*
G36*
X08259D02*
X0825Y0512D01*
X08241Y05116*
X08233Y0511*
X08228Y05103*
X08224Y05094*
X08223Y05085*
X08224Y05075*
X08228Y05066*
X08233Y05059*
X08241Y05053*
X0825Y05049*
X08259Y05048*
X08268Y05049*
X08277Y05053*
X08285Y05059*
X0829Y05066*
X08294Y05075*
X08295Y05085*
X08294Y05094*
X0829Y05103*
X08285Y0511*
X08277Y05116*
X08268Y0512*
X08259Y05121*
G37*
G36*
X064Y04953D02*
X06328D01*
Y04882*
X064*
Y04953*
G37*
G36*
X06464Y04953D02*
X06455Y04952D01*
X06446Y04949*
X06439Y04943*
X06433Y04935*
X06429Y04927*
X06428Y04917*
X06429Y04908*
X06433Y049*
X06439Y04892*
X06446Y04886*
X06455Y04883*
X06464Y04882*
X06473Y04883*
X06482Y04886*
X06489Y04892*
X06495Y049*
X06499Y04908*
X065Y04917*
X06499Y04927*
X06495Y04935*
X06489Y04943*
X06482Y04949*
X06473Y04952*
X06464Y04953*
G37*
G36*
X07359Y05121D02*
X0735Y0512D01*
X07341Y05116*
X07333Y0511*
X07328Y05103*
X07324Y05094*
X07323Y05085*
X07324Y05075*
X07328Y05066*
X07333Y05059*
X07341Y05053*
X0735Y05049*
X07359Y05048*
X07368Y05049*
X07377Y05053*
X07385Y05059*
X0739Y05066*
X07394Y05075*
X07395Y05085*
X07394Y05094*
X0739Y05103*
X07385Y0511*
X07377Y05116*
X07368Y0512*
X07359Y05121*
G37*
G36*
X07259D02*
X0725Y0512D01*
X07241Y05116*
X07233Y0511*
X07228Y05103*
X07224Y05094*
X07223Y05085*
X07224Y05075*
X07228Y05066*
X07233Y05059*
X07241Y05053*
X0725Y05049*
X07259Y05048*
X07268Y05049*
X07277Y05053*
X07285Y05059*
X0729Y05066*
X07294Y05075*
X07295Y05085*
X07294Y05094*
X0729Y05103*
X07285Y0511*
X07277Y05116*
X07268Y0512*
X07259Y05121*
G37*
G36*
X0692Y03835D02*
X06915Y03834D01*
X0691Y03831*
X06907Y03826*
X06906Y0382*
X06907Y03815*
X0691Y0381*
X06915Y03807*
X0692Y03806*
X06925Y03807*
X0693Y0381*
X06933Y03815*
X06934Y0382*
X06933Y03826*
X0693Y03831*
X06925Y03834*
X0692Y03835*
G37*
G36*
X06233Y03435D02*
X06228Y03434D01*
X06223Y03431*
X0622Y03426*
X06219Y03421*
X0622Y03415*
X06223Y03411*
X06228Y03408*
X06233Y03407*
X06239Y03408*
X06243Y03411*
X06247Y03415*
X06248Y03421*
X06247Y03426*
X06243Y03431*
X06239Y03434*
X06233Y03435*
G37*
G36*
X05957Y03442D02*
X05952Y03441D01*
X05947Y03438*
X05944Y03433*
X05943Y03427*
X05944Y03422*
X05947Y03417*
X05952Y03414*
X05957Y03413*
X05962Y03414*
X05967Y03417*
X0597Y03422*
X05971Y03427*
X0597Y03433*
X05967Y03438*
X05962Y03441*
X05957Y03442*
G37*
G36*
X0635Y0344D02*
X06344Y03439D01*
X0634Y03436*
X06337Y03431*
X06335Y03425*
X06337Y0342*
X0634Y03415*
X06344Y03412*
X0635Y03411*
X06355Y03412*
X0636Y03415*
X06363Y0342*
X06364Y03425*
X06363Y03431*
X0636Y03436*
X06355Y03439*
X0635Y0344*
G37*
G36*
X06118Y03404D02*
X06112Y03402D01*
X06108Y03399*
X06104Y03395*
X06103Y03389*
X06104Y03384*
X06108Y03379*
X06112Y03376*
X06118Y03375*
X06123Y03376*
X06128Y03379*
X06131Y03384*
X06132Y03389*
X06131Y03395*
X06128Y03399*
X06123Y03402*
X06118Y03404*
G37*
G36*
X06403Y03421D02*
X06397Y0342D01*
X06391Y03416*
X06388Y03411*
X06387Y03405*
X06388Y03398*
X06391Y03393*
X06397Y03389*
X06403Y03388*
X06409Y03389*
X06415Y03393*
X06418Y03398*
X06419Y03405*
X06418Y03411*
X06415Y03416*
X06409Y0342*
X06403Y03421*
G37*
G36*
X0627Y03434D02*
X06265Y03433D01*
X0626Y0343*
X06257Y03425*
X06256Y0342*
X06257Y03414*
X0626Y03409*
X06265Y03406*
X0627Y03405*
X06275Y03406*
X0628Y03409*
X06283Y03414*
X06284Y0342*
X06283Y03425*
X0628Y0343*
X06275Y03433*
X0627Y03434*
G37*
G36*
X06079Y03444D02*
X06074Y03443D01*
X06069Y0344*
X06066Y03435*
X06065Y0343*
X06066Y03424*
X06069Y03419*
X06074Y03416*
X06079Y03415*
X06084Y03416*
X06089Y03419*
X06092Y03424*
X06093Y0343*
X06092Y03435*
X06089Y0344*
X06084Y03443*
X06079Y03444*
G37*
G36*
X06235Y03472D02*
X0623Y03471D01*
X06225Y03468*
X06222Y03463*
X06221Y03457*
X06222Y03452*
X06225Y03447*
X0623Y03444*
X06235Y03443*
X0624Y03444*
X06245Y03447*
X06248Y03452*
X06249Y03457*
X06248Y03463*
X06245Y03468*
X0624Y03471*
X06235Y03472*
G37*
G36*
X06685Y03458D02*
X0668Y03457D01*
X06675Y03454*
X06672Y03449*
X06671Y03444*
X06672Y03438*
X06675Y03433*
X0668Y0343*
X06685Y03429*
X0669Y0343*
X06695Y03433*
X06698Y03438*
X06699Y03444*
X06698Y03449*
X06695Y03454*
X0669Y03457*
X06685Y03458*
G37*
G36*
X07099Y03471D02*
X07093Y0347D01*
X07087Y03466*
X07084Y03461*
X07083Y03455*
X07084Y03448*
X07087Y03443*
X07093Y03439*
X07099Y03438*
X07105Y03439*
X07111Y03443*
X07114Y03448*
X07115Y03455*
X07114Y03461*
X07111Y03466*
X07105Y0347*
X07099Y03471*
G37*
G36*
X06846Y03406D02*
X0684Y03405D01*
X06834Y03401*
X06831Y03396*
X0683Y0339*
X06831Y03383*
X06834Y03378*
X0684Y03374*
X06846Y03373*
X06852Y03374*
X06858Y03378*
X06861Y03383*
X06862Y0339*
X06861Y03396*
X06858Y03401*
X06852Y03405*
X06846Y03406*
G37*
G36*
X0624Y03329D02*
X06234Y03328D01*
X0623Y03325*
X06226Y0332*
X06225Y03314*
X06226Y03309*
X0623Y03304*
X06234Y03301*
X0624Y033*
X06245Y03301*
X0625Y03304*
X06253Y03309*
X06254Y03314*
X06253Y0332*
X0625Y03325*
X06245Y03328*
X0624Y03329*
G37*
G36*
X05914Y03354D02*
X05909Y03353D01*
X05904Y0335*
X05901Y03345*
X059Y0334*
X05901Y03334*
X05904Y03329*
X05909Y03326*
X05914Y03325*
X05919Y03326*
X05924Y03329*
X05927Y03334*
X05928Y0334*
X05927Y03345*
X05924Y0335*
X05919Y03353*
X05914Y03354*
G37*
G36*
X06198Y03357D02*
X06193Y03356D01*
X06188Y03353*
X06185Y03348*
X06184Y03342*
X06185Y03337*
X06188Y03332*
X06193Y03329*
X06198Y03328*
X06203Y03329*
X06208Y03332*
X06211Y03337*
X06212Y03342*
X06211Y03348*
X06208Y03353*
X06203Y03356*
X06198Y03357*
G37*
G36*
X06037Y03356D02*
X06031Y03355D01*
X06026Y03352*
X06023Y03347*
X06022Y03342*
X06023Y03337*
X06026Y03332*
X06031Y03329*
X06037Y03328*
X06042Y03329*
X06047Y03332*
X0605Y03337*
X06051Y03342*
X0605Y03347*
X06047Y03352*
X06042Y03355*
X06037Y03356*
G37*
G36*
X05917Y03317D02*
X05911Y03316D01*
X05907Y03313*
X05904Y03308*
X05903Y03303*
X05904Y03297*
X05907Y03293*
X05911Y03289*
X05917Y03288*
X05922Y03289*
X05927Y03293*
X0593Y03297*
X05931Y03303*
X0593Y03308*
X05927Y03313*
X05922Y03316*
X05917Y03317*
G37*
G36*
X06037D02*
X06031Y03316D01*
X06026Y03313*
X06023Y03308*
X06022Y03303*
X06023Y03297*
X06026Y03293*
X06031Y0329*
X06037Y03288*
X06042Y0329*
X06047Y03293*
X0605Y03297*
X06051Y03303*
X0605Y03308*
X06047Y03313*
X06042Y03316*
X06037Y03317*
G37*
G36*
X06001Y03323D02*
X05996Y03322D01*
X05991Y03319*
X05988Y03314*
X05987Y03309*
X05988Y03303*
X05991Y03298*
X05996Y03295*
X06001Y03294*
X06006Y03295*
X06011Y03298*
X06014Y03303*
X06015Y03309*
X06014Y03314*
X06011Y03319*
X06006Y03322*
X06001Y03323*
G37*
G36*
X06551Y03364D02*
X06545Y03363D01*
X06541Y0336*
X06537Y03355*
X06536Y0335*
X06537Y03344*
X06541Y0334*
X06545Y03337*
X06551Y03336*
X06556Y03337*
X06561Y0334*
X06564Y03344*
X06565Y0335*
X06564Y03355*
X06561Y0336*
X06556Y03363*
X06551Y03364*
G37*
G36*
X06Y03396D02*
X05994Y03395D01*
X05989Y03391*
X05986Y03387*
X05985Y03381*
X05986Y03376*
X05989Y03371*
X05994Y03368*
X06Y03367*
X06005Y03368*
X0601Y03371*
X06013Y03376*
X06014Y03381*
X06013Y03387*
X0601Y03391*
X06005Y03395*
X06Y03396*
G37*
G36*
X06037D02*
X06031Y03395D01*
X06026Y03392*
X06023Y03387*
X06022Y03381*
X06023Y03376*
X06026Y03371*
X06031Y03368*
X06037Y03367*
X06042Y03368*
X06047Y03371*
X0605Y03376*
X06051Y03381*
X0605Y03387*
X06047Y03392*
X06042Y03395*
X06037Y03396*
G37*
G36*
X06074Y03397D02*
X06069Y03396D01*
X06064Y03393*
X06061Y03388*
X0606Y03382*
X06061Y03377*
X06064Y03372*
X06069Y03369*
X06074Y03368*
X06079Y03369*
X06084Y03372*
X06087Y03377*
X06088Y03382*
X06087Y03388*
X06084Y03393*
X06079Y03396*
X06074Y03397*
G37*
G36*
X05915Y03395D02*
X0591Y03394D01*
X05905Y03391*
X05902Y03386*
X05901Y0338*
X05902Y03375*
X05905Y0337*
X0591Y03367*
X05915Y03366*
X0592Y03367*
X05925Y0337*
X05928Y03375*
X05929Y0338*
X05928Y03386*
X05925Y03391*
X0592Y03394*
X05915Y03395*
G37*
G36*
X05965Y03477D02*
X0596Y03476D01*
X05955Y03473*
X05952Y03468*
X05951Y03462*
X05952Y03457*
X05955Y03452*
X05956Y03452*
X0596Y03449*
X05965Y03448*
X0597Y03449*
X05975Y03452*
X05978Y03457*
X05979Y03462*
X05978Y03468*
X05975Y03473*
X0597Y03476*
X05965Y03477*
G37*
G36*
X06413Y03644D02*
X06407Y03643D01*
X06403Y0364*
X064Y03635*
X06399Y03629*
X064Y03624*
X06403Y03619*
X06407Y03616*
X06413Y03615*
X06418Y03616*
X06423Y03619*
X06426Y03624*
X06427Y03629*
X06426Y03635*
X06423Y0364*
X06418Y03643*
X06413Y03644*
G37*
G36*
Y03608D02*
X06407Y03607D01*
X06403Y03604*
X064Y03599*
X06399Y03594*
X064Y03589*
X06403Y03584*
X06407Y03581*
X06413Y0358*
X06418Y03581*
X06423Y03584*
X06426Y03589*
X06427Y03594*
X06426Y03599*
X06423Y03604*
X06418Y03607*
X06413Y03608*
G37*
G36*
X06311Y03632D02*
X06305Y03631D01*
X063Y03628*
X06297Y03623*
X06296Y03618*
X06297Y03612*
X063Y03608*
X06305Y03604*
X06311Y03603*
X06316Y03604*
X06321Y03608*
X06324Y03612*
X06325Y03618*
X06324Y03623*
X06321Y03628*
X06316Y03631*
X06311Y03632*
G37*
G36*
X06413Y03679D02*
X06407Y03678D01*
X06403Y03675*
X064Y0367*
X06399Y03665*
X064Y03659*
X06403Y03655*
X06407Y03652*
X06413Y03651*
X06418Y03652*
X06423Y03655*
X06426Y03659*
X06427Y03665*
X06426Y0367*
X06423Y03675*
X06418Y03678*
X06413Y03679*
G37*
G36*
X0692Y03755D02*
X06915Y03754D01*
X0691Y03751*
X06907Y03746*
X06906Y0374*
X06907Y03735*
X0691Y0373*
X06915Y03727*
X0692Y03726*
X06925Y03727*
X0693Y0373*
X06933Y03735*
X06934Y0374*
X06933Y03746*
X0693Y03751*
X06925Y03754*
X0692Y03755*
G37*
G36*
X07162Y03836D02*
X07156Y03835D01*
X0715Y03831*
X07147Y03826*
X07146Y0382*
X07147Y03813*
X0715Y03808*
X07156Y03804*
X07162Y03803*
X07168Y03804*
X07174Y03808*
X07177Y03813*
X07178Y0382*
X07177Y03826*
X07174Y03831*
X07168Y03835*
X07162Y03836*
G37*
G36*
X06074Y03699D02*
X06069Y03698D01*
X06066Y03696*
X06062Y03695*
X06059Y03696*
X06056Y03698*
X06051Y03699*
X06045Y03698*
X06041Y03695*
X06037Y0369*
X06036Y03685*
X06037Y03679*
X06041Y03674*
X06045Y03671*
X06051Y0367*
X06056Y03671*
X06059Y03673*
X06062Y03674*
X06066Y03673*
X06069Y03671*
X06074Y0367*
X0608Y03671*
X06084Y03674*
X06087Y03679*
X06089Y03685*
X06087Y0369*
X06084Y03695*
X0608Y03698*
X06074Y03699*
G37*
G36*
X06811Y03755D02*
X06806Y03754D01*
X06801Y03751*
X06798Y03746*
X06797Y0374*
X06798Y03735*
X06801Y0373*
X06806Y03727*
X06811Y03726*
X06816Y03727*
X06821Y0373*
X06824Y03735*
X06825Y0374*
X06824Y03746*
X06821Y03751*
X06816Y03754*
X06811Y03755*
G37*
G36*
X06884D02*
X06878Y03754D01*
X06874Y03751*
X0687Y03746*
X06869Y0374*
X0687Y03735*
X06874Y0373*
X06878Y03727*
X06884Y03726*
X06889Y03727*
X06894Y0373*
X06897Y03735*
X06898Y0374*
X06897Y03746*
X06894Y03751*
X06889Y03754*
X06884Y03755*
G37*
G36*
X06847D02*
X06842Y03754D01*
X06837Y03751*
X06834Y03746*
X06833Y0374*
X06834Y03735*
X06837Y0373*
X06842Y03727*
X06847Y03726*
X06853Y03727*
X06857Y0373*
X06861Y03735*
X06862Y0374*
X06861Y03746*
X06857Y03751*
X06853Y03754*
X06847Y03755*
G37*
G36*
X06397Y03518D02*
X06392Y03517D01*
X06387Y03514*
X06384Y03509*
X06383Y03503*
X06384Y03498*
X06386Y03495*
X06387Y03492*
X06386Y03488*
X06384Y03485*
X06383Y0348*
X06384Y03474*
X06387Y0347*
X06392Y03467*
X06397Y03466*
X06403Y03467*
X06407Y0347*
X0641Y03474*
X06411Y0348*
X0641Y03485*
X06408Y03488*
X06408Y03492*
X06408Y03495*
X0641Y03498*
X06411Y03503*
X0641Y03509*
X06407Y03514*
X06403Y03517*
X06397Y03518*
G37*
G36*
X06077Y0355D02*
X06072Y03549D01*
X06067Y03546*
X06064Y03541*
X06063Y03535*
X06064Y0353*
X06067Y03525*
X06072Y03522*
X06077Y03521*
X06082Y03522*
X06087Y03525*
X0609Y0353*
X06091Y03535*
X0609Y03541*
X06087Y03546*
X06082Y03549*
X06077Y0355*
G37*
G36*
X06199Y03515D02*
X06194Y03514D01*
X06189Y03511*
X06186Y03506*
X06185Y035*
X06186Y03495*
X06189Y0349*
X06194Y03487*
X06199Y03486*
X06204Y03487*
X06209Y0349*
X06212Y03495*
X06213Y035*
X06212Y03506*
X06209Y03511*
X06204Y03514*
X06199Y03515*
G37*
G36*
X06002Y03479D02*
X05997Y03478D01*
X05992Y03475*
X05989Y0347*
X05988Y03465*
X05989Y0346*
X05992Y03455*
X05997Y03452*
X06002Y03451*
X06007Y03452*
X06012Y03455*
X06015Y0346*
X06016Y03465*
X06015Y0347*
X06012Y03475*
X06007Y03478*
X06002Y03479*
G37*
G36*
X06157Y03478D02*
X06152Y03477D01*
X06147Y03474*
X06144Y0347*
X06143Y03464*
X06144Y03459*
X06147Y03454*
X06152Y03451*
X06157Y0345*
X06162Y03451*
X06167Y03454*
X0617Y03459*
X06171Y03464*
X0617Y0347*
X06167Y03474*
X06162Y03477*
X06157Y03478*
G37*
G36*
X06121Y0348D02*
X06116Y03479D01*
X06111Y03476*
X06108Y03471*
X06107Y03465*
X06108Y0346*
X06111Y03455*
X06116Y03452*
X06121Y03451*
X06126Y03452*
X06131Y03455*
X06134Y0346*
X06135Y03465*
X06134Y03471*
X06131Y03476*
X06126Y03479*
X06121Y0348*
G37*
G36*
X06484Y03486D02*
X06478Y03485D01*
X06474Y03482*
X06471Y03477*
X06469Y03472*
X06471Y03466*
X06474Y03462*
X06478Y03459*
X06484Y03458*
X06489Y03459*
X06494Y03462*
X06497Y03466*
X06498Y03472*
X06497Y03477*
X06494Y03482*
X06489Y03485*
X06484Y03486*
G37*
G36*
X06078Y03482D02*
X06073Y03481D01*
X06068Y03478*
X06065Y03473*
X06064Y03467*
X06065Y03462*
X06068Y03457*
X06073Y03454*
X06078Y03453*
X06083Y03454*
X06088Y03457*
X06091Y03462*
X06092Y03467*
X06091Y03473*
X06088Y03478*
X06083Y03481*
X06078Y03482*
G37*
G36*
X06236Y03554D02*
X06231Y03553D01*
X06226Y0355*
X06223Y03545*
X06222Y0354*
X06223Y03534*
X06226Y03529*
X06231Y03526*
X06236Y03525*
X06241Y03526*
X06246Y03529*
X06249Y03534*
X0625Y0354*
X06249Y03545*
X06246Y0355*
X06241Y03553*
X06236Y03554*
G37*
G36*
X06196Y03593D02*
X06191Y03591D01*
X06186Y03588*
X06183Y03584*
X06182Y03578*
X06183Y03573*
X06186Y03568*
X06191Y03565*
X06196Y03564*
X06202Y03565*
X06206Y03568*
X0621Y03573*
X06211Y03578*
X0621Y03584*
X06206Y03588*
X06202Y03591*
X06196Y03593*
G37*
G36*
X06115Y03553D02*
X0611Y03552D01*
X06105Y03549*
X06102Y03544*
X06101Y03539*
X06102Y03533*
X06105Y03529*
X0611Y03526*
X06115Y03525*
X06121Y03526*
X06125Y03529*
X06128Y03533*
X0613Y03539*
X06128Y03544*
X06125Y03549*
X06121Y03552*
X06115Y03553*
G37*
G36*
X06194D02*
X06189Y03552D01*
X06184Y03549*
X06181Y03544*
X0618Y03539*
X06181Y03533*
X06184Y03529*
X06189Y03526*
X06194Y03525*
X062Y03526*
X06204Y03529*
X06207Y03533*
X06208Y03539*
X06207Y03544*
X06204Y03549*
X062Y03552*
X06194Y03553*
G37*
G36*
X06155D02*
X06149Y03552D01*
X06145Y03549*
X06141Y03544*
X0614Y03539*
X06141Y03533*
X06145Y03529*
X06149Y03526*
X06155Y03525*
X0616Y03526*
X06165Y03529*
X06168Y03533*
X06169Y03539*
X06168Y03544*
X06165Y03549*
X0616Y03552*
X06155Y03553*
G37*
%LNatfc_copper_signal_2-3*%
%LPD*%
G36*
X03315Y03073D02*
X03209D01*
Y03115*
X03315*
Y03073*
G37*
G54D10*
X05827Y03005D02*
Y03118D01*
Y03005D02*
X05828Y03004D01*
Y02987D02*
Y03004D01*
X05827Y02986D02*
X05828Y02987D01*
X05827Y02965D02*
Y02986D01*
Y02965D02*
X05827Y02965D01*
Y02742D02*
Y02965D01*
X05807Y03155D02*
Y03185D01*
Y03155D02*
X05827Y03134D01*
X05827Y03118D02*
Y03122D01*
X05827Y03118D02*
X05827Y03118D01*
X05837Y02604D02*
Y02733D01*
X05743Y0252D02*
X05752D01*
X05837Y02604*
X05827Y02742D02*
X05837Y02733D01*
X05827Y02964D02*
D01*
Y03122D02*
X05827Y03122D01*
X05827Y03122D02*
Y03134D01*
Y02964D02*
X05827Y02965D01*
X0839Y04137D02*
Y04237D01*
G54D51*
X05742Y02457D02*
Y02521D01*
X05984Y03685D02*
X06015D01*
X04854Y03007D02*
X04909D01*
G54D52*
X04771Y02246D02*
X04791Y02227D01*
Y02224D02*
Y02227D01*
X04771Y02246D02*
Y02397D01*
G54D53*
X07761Y01567D02*
Y01812D01*
X07724Y01817D02*
X07733Y01827D01*
X07746*
X07761Y01567D02*
X07783Y01545D01*
X08253*
X07746Y01827D02*
X07761Y01812D01*
X08253Y01545D02*
X08735Y02026D01*
X0849Y02827D02*
X08499Y02818D01*
X08637*
X08735Y02026D02*
Y0272D01*
X08637Y02818D02*
X08735Y0272D01*
X07733Y0184D02*
X07752D01*
X07724Y01849D02*
X07733Y0184D01*
X07774Y01572D02*
X07788Y01557D01*
X08248*
X07752Y0184D02*
X07774Y01818D01*
X08248Y01557D02*
X08722Y02032D01*
X07774Y01572D02*
Y01818D01*
X0849Y02797D02*
X08499Y02805D01*
X08722Y02032D02*
Y02715D01*
X08499Y02805D02*
X08631D01*
X08722Y02715*
X08754Y01971D02*
X08774Y01991D01*
X08754Y01971D02*
D01*
X08293Y0151D02*
X08754Y01971D01*
X0738Y01553D02*
X07423Y0151D01*
X08293*
X07298Y01865D02*
X07307Y01875D01*
X0849Y02977D02*
X08499Y02968D01*
X08774Y01991D02*
Y02767D01*
X08573Y02968D02*
X08774Y02767D01*
X08499Y02968D02*
X08573D01*
X0738Y01553D02*
Y01861D01*
X07307Y01875D02*
X07366D01*
X0738Y01861*
X08761Y01997D02*
Y02762D01*
X07298Y01897D02*
X07307Y01888D01*
X08288Y01524D02*
X08761Y01997D01*
X07428Y01524D02*
X08288D01*
X07393Y01559D02*
X07428Y01524D01*
X0849Y02947D02*
X08499Y02955D01*
X08567D02*
X08761Y02762D01*
X08499Y02955D02*
X08567D01*
X07307Y01888D02*
X07372D01*
X07393Y01867*
Y01559D02*
Y01867D01*
X08693Y02055D02*
Y0268D01*
X08669Y02032D02*
D01*
X08693Y02055*
X08111Y01885D02*
X08523D01*
X08669Y02032*
X0778Y01906D02*
X07854Y01832D01*
X08057D02*
X08111Y01885D01*
X07854Y01832D02*
X08057D01*
X07486Y01906D02*
X0778D01*
X07477Y01897D02*
X07486Y01906D01*
X08655Y02718D02*
X08693Y0268D01*
X08599Y02718D02*
X08655D01*
X0859Y02727D02*
X08599Y02718D01*
X0868Y02061D02*
Y02675D01*
X07486Y01919D02*
X07785D01*
X07477Y01928D02*
X07486Y01919D01*
X08106Y01898D02*
X08517D01*
X0868Y02061*
X08102Y01895D02*
X08106Y01898D01*
X08102Y01895D02*
D01*
X08052Y01845D02*
X08102Y01895D01*
X07785Y01919D02*
X07859Y01845D01*
X08052*
X08649Y02705D02*
X0868Y02675D01*
X08599Y02705D02*
X08649D01*
X0859Y02697D02*
X08599Y02705D01*
X08609Y02668D02*
X0865Y02627D01*
Y0209D02*
Y02627D01*
X08498Y02668D02*
X08609D01*
X08491Y02675D02*
X08498Y02668D01*
X07977Y01977D02*
X08537D01*
X0865Y0209*
X07968Y01968D02*
X07977Y01977D01*
X08604Y02655D02*
X08637Y02622D01*
X08498Y02655D02*
X08604D01*
X08491Y02649D02*
X08498Y02655D01*
X08637Y02096D02*
Y02622D01*
X08532Y0199D02*
X08637Y02096D01*
X07977Y0199D02*
X08532D01*
X07968Y02D02*
X07977Y0199D01*
X08534Y02455D02*
X0854Y02449D01*
X08512Y02455D02*
X08534D01*
X08503Y02432D02*
Y02446D01*
Y02432D02*
X08521Y02414D01*
X08503Y02446D02*
X08512Y02455D01*
X08521Y02335D02*
Y02414D01*
X08473Y02287D02*
X08521Y02335D01*
X08302Y02325D02*
X08368D01*
X08406Y02287*
X08473*
X08264D02*
X08302Y02325D01*
X08264Y02116D02*
Y02287D01*
X0825Y02102D02*
X08264Y02116D01*
X0769Y02102D02*
X0825D01*
X07131Y02278D02*
X07514D01*
X07666Y02125*
X07078Y02225D02*
X07131Y02278D01*
X07666Y02125D02*
D01*
X0769Y02102*
X07028Y02225D02*
X07078D01*
X07019Y02216D02*
X07028Y02225D01*
X08534Y02468D02*
X0854Y02475D01*
X08507Y02468D02*
X08534D01*
X08494Y02456D02*
X08507Y02468D01*
X08494Y02456D02*
D01*
X0849Y02452D02*
X08494Y02456D01*
X0849Y02426D02*
Y02452D01*
X08494Y02422D02*
D01*
X08508Y02409D01*
X0849Y02426D02*
X08494Y02422D01*
X08508Y0234D02*
Y02409D01*
X08468Y023D02*
X08508Y0234D01*
X08374Y02339D02*
X08412Y023D01*
X08251Y02293D02*
X08297Y02339D01*
X08374*
X08412Y023D02*
X08468D01*
X08244Y02115D02*
X08251Y02122D01*
Y02293*
X07519Y02291D02*
X07695Y02115D01*
X07125Y02291D02*
X07519D01*
X07073Y02238D02*
X07125Y02291D01*
X07028Y02238D02*
X07073D01*
X07695Y02115D02*
X08244D01*
X07019Y02248D02*
X07028Y02238D01*
X08335Y02768D02*
X08343Y02777D01*
X08335Y02755D02*
X08343Y02747D01*
X07901Y02597D02*
X07965Y02532D01*
X07901Y02597D02*
D01*
X0789Y02607D02*
X07901Y02597D01*
X07777Y02607D02*
X0789D01*
X07766Y02597D02*
X07777Y02607D01*
X07766Y02597D02*
D01*
X07611Y02442D02*
X07766Y02597D01*
X07885Y02595D02*
X07956Y02523D01*
X07782Y02595D02*
X07885D01*
X0762Y02433D02*
X07782Y02595D01*
X07774Y02755D02*
X08335D01*
X0757Y02707D02*
X07579Y02717D01*
X07768Y02768D02*
X08335D01*
X0757Y02739D02*
X07579Y0273D01*
X07735Y02717D02*
X07774Y02755D01*
X07579Y02717D02*
X07735D01*
X0773Y0273D02*
X07768Y02768D01*
X07579Y0273D02*
X0773D01*
X06561Y02527D02*
X0657Y02518D01*
X08536Y02555D02*
X08541Y02549D01*
X08056Y02555D02*
X08536D01*
X08025Y02523D02*
X08056Y02555D01*
X08025Y02523D02*
D01*
X08021Y02519D02*
X08025Y02523D01*
X07956D02*
X0796Y02519D01*
X08021*
X07956Y02523D02*
D01*
X0762Y02433D02*
D01*
X06758Y02505D02*
X0683Y02433D01*
X07616Y02429D02*
X0762Y02433D01*
X0683D02*
X06834Y02429D01*
X07616*
X0683Y02433D02*
D01*
X0657Y02505D02*
X06758D01*
X06561Y02496D02*
X0657Y02505D01*
X08534Y02568D02*
X08541Y02575D01*
X08051Y02568D02*
X08534D01*
X07965Y02532D02*
X08015D01*
X08051Y02568*
X06763Y02518D02*
X06839Y02442D01*
X07611*
X0657Y02518D02*
X06763D01*
G54D64*
X09004Y04519D03*
G54D73*
X08059Y05085D03*
X07159D03*
G54D74*
X08159Y05085D03*
X08259D03*
X08359D03*
X08459D03*
X08559D03*
X08059Y05185D03*
X08159D03*
X08259D03*
X08359D03*
X08459D03*
X08559D03*
X07259Y05085D03*
X07359D03*
X07459D03*
X07559D03*
X07659D03*
X07159Y05185D03*
X07259D03*
X07359D03*
X07459D03*
X07559D03*
X07659D03*
X0351Y03296D03*
Y03159D03*
G54D75*
X02956Y05204D03*
G54D76*
X03145Y05314D03*
Y05086D03*
G54D77*
X08519Y02121D03*
Y04602D03*
G54D78*
X08869Y05474D03*
X02769D03*
Y01537D03*
X08869D03*
G54D79*
X04756Y04202D03*
X05134D03*
X04195D03*
X04573D03*
G54D80*
X03608Y05084D03*
Y05265D03*
Y04902D03*
G54D81*
X06938Y04467D03*
G54D82*
X06899Y04428D03*
X06978D03*
X07056D03*
X07135D03*
X07214D03*
X07292D03*
X07371D03*
X06899Y04507D03*
X06978D03*
X07056D03*
X07135D03*
X07214D03*
X07292D03*
G54D83*
X07371Y04507D03*
G54D84*
X04666Y03115D03*
X06364Y04917D03*
X0296Y04715D03*
G54D85*
X04666Y03215D03*
X06464Y04917D03*
X06364Y04817D03*
X06464D03*
X06364Y04717D03*
X06464D03*
X06364Y04617D03*
X06464D03*
X06364Y04517D03*
X06464D03*
X06364Y04417D03*
X06464D03*
X0296Y04815D03*
G54D86*
X05134Y03958D03*
X04945D03*
X04384D03*
X04573D03*
X05226Y04521D03*
X04104D03*
G54D87*
X05226Y05418D03*
Y05025D03*
Y04631D03*
Y04336D03*
Y04139D03*
X04104Y05221D03*
Y04828D03*
Y04434D03*
Y0404D03*
X04665D03*
Y04434D03*
Y04828D03*
Y05221D03*
G54D88*
X06414Y05167D03*
G54D89*
X07419Y03845D03*
X05654Y02999D03*
X0659Y03192D03*
X05654Y03038D03*
X06559Y03192D03*
X05601Y03772D03*
X08388Y03347D03*
X05575Y03339D03*
X08388Y03377D03*
X05575Y03378D03*
X08374Y02064D03*
X05811Y03457D03*
X08342Y02064D03*
X05811Y03418D03*
X0834Y02675D03*
X05772Y03536D03*
X0834Y02649D03*
X05772Y03496D03*
X0834Y02475D03*
X05692Y03539D03*
X08341Y02449D03*
X05692Y035D03*
X05495Y03577D03*
X07858Y01736D03*
X05495Y03537D03*
X07858Y01767D03*
X07724Y01817D03*
X05495Y0338D03*
X0849Y02827D03*
X05495Y0334D03*
X07724Y01849D03*
X0849Y02797D03*
X07298Y01865D03*
X05492Y03275D03*
X0849Y02977D03*
X07298Y01897D03*
X05492Y03236D03*
X0849Y02947D03*
X07477Y01897D03*
X05536Y0326D03*
X0859Y02727D03*
X07477Y01928D03*
X05536Y03221D03*
X0859Y02697D03*
X0839Y02897D03*
X05536Y03157D03*
X0839Y02927D03*
X05498Y03152D03*
X0849Y03097D03*
X05602Y03115D03*
X0849Y03127D03*
X05566Y03114D03*
X08491Y02675D03*
X07968Y01968D03*
X05607Y02952D03*
X08491Y02649D03*
X07968Y02D03*
X05607Y02991D03*
X0839Y03047D03*
X05536Y03038D03*
X0839Y03077D03*
X05496Y03038D03*
X0849Y03247D03*
X05523Y02956D03*
X0849Y03277D03*
X05488Y02917D03*
X0854Y02449D03*
X05575Y03038D03*
X07019Y02216D03*
X0854Y02475D03*
X05575Y02999D03*
X07019Y02248D03*
X08197Y04935D03*
X08229Y04935D03*
X05965Y03462D03*
X08134Y04932D03*
X06079Y0343D03*
X08163Y04932D03*
X06078Y03467D03*
X081Y04933D03*
X06236Y0354D03*
X08068Y04934D03*
X06199Y035D03*
X08037Y04934D03*
X06002Y03465D03*
X08005Y04934D03*
X05979Y03499D03*
X06121Y03465D03*
X06074Y03685D03*
X06051D03*
X0603Y03539D03*
X06077Y03535D03*
X06Y0358D03*
X05956Y035D03*
X05868Y03427D03*
X05882Y0338D03*
X05918Y03457D03*
X05915Y0338D03*
X05846Y03424D03*
X06235Y03457D03*
X06397Y0348D03*
X06437D03*
X06397Y03503D03*
X06437D03*
X05851Y03377D03*
X06198Y03342D03*
X0624Y03314D03*
X0635Y03425D03*
X06316D03*
X0839Y03677D03*
X05721Y02877D03*
X0839Y03647D03*
X05723Y02912D03*
X0849Y03727D03*
X05803Y02842D03*
X0849Y03697D03*
X05802Y02877D03*
X06397Y02799D03*
X06437Y02822D03*
Y02799D03*
X06039Y02842D03*
X05759Y02917D03*
X0849Y03877D03*
X05803Y02917D03*
X0849Y03847D03*
X0839Y02412D03*
X08593Y02435D03*
X08566Y02362D03*
X0834Y02699D03*
X08491D03*
X08313Y02064D03*
X04988Y03118D03*
X0834Y02625D03*
Y02499D03*
X05535Y03102D03*
X05527Y03188D03*
X08343Y02777D03*
Y02747D03*
X05385Y02862D03*
Y02838D03*
X05654Y02881D03*
X0849Y03397D03*
X05614Y02877D03*
X0849Y03427D03*
Y03577D03*
X05685Y02799D03*
X0849Y03547D03*
X05688Y02838D03*
X0839Y03527D03*
X05645Y02952D03*
X0839Y03497D03*
X05681Y02956D03*
X0757Y02707D03*
X05571Y02835D03*
X0757Y02739D03*
X05569Y02797D03*
X07019Y02279D03*
X0757Y02676D03*
Y0277D03*
X06561Y02527D03*
X05646Y0284D03*
X08541Y02549D03*
X06561Y02496D03*
X05606Y02921D03*
X08541Y02575D03*
X05575Y02881D03*
X05917Y0272D03*
X05802Y02762D03*
X05768Y02876D03*
X05735Y02962D03*
X05769Y02957D03*
X05719Y02799D03*
X05649Y02917D03*
X05807Y02957D03*
X05769Y02996D03*
X0585Y02917D03*
X08412Y03865D03*
X05575Y03221D03*
X05614D03*
X0849Y04027D03*
Y03997D03*
X06405Y03149D03*
X06444D03*
X06405Y03173D03*
X06244Y03153D03*
X06275Y03147D03*
X05732Y03157D03*
X05767D03*
X05807Y03185D03*
X05688Y03157D03*
X05648Y03271D03*
X05728Y0311D03*
X05767D03*
X05729Y03224D03*
X05769D03*
X06622Y03192D03*
X05653Y035D03*
X06232Y03036D03*
X06241Y02917D03*
X05649Y03114D03*
X06116Y03225D03*
X05728Y03035D03*
X05688D03*
X0561Y03417D03*
X0585Y03036D03*
X05917Y03161D03*
X05389Y03389D03*
X05326Y03385D03*
X05685Y0311D03*
X0569Y03227D03*
X05646Y03073D03*
X05728Y03299D03*
X05448Y03503D03*
X06035Y03456D03*
X0596Y03543D03*
X05913Y03539D03*
X06413Y03665D03*
X06236Y03192D03*
X06273Y0302D03*
X05921Y02909D03*
X0692Y0374D03*
X05955Y02959D03*
X06884Y0374D03*
X05955Y02999D03*
X06847Y0374D03*
X06444Y03173D03*
X06311Y0296D03*
X06685Y03444D03*
X06551Y0335D03*
X06035Y03035D03*
X0585Y03114D03*
X05688Y03078D03*
X05767D03*
X0585D03*
X0596Y03075D03*
X05807Y03074D03*
X06238Y02875D03*
X05574Y02955D03*
X05918Y0311D03*
X05808Y02996D03*
X05527Y04342D03*
Y04539D03*
X05783Y02704D03*
X06015Y03685D03*
X05571Y04814D03*
Y04791D03*
Y04769D03*
Y04746D03*
Y04724D03*
Y04702D03*
X05575Y04504D03*
Y04479D03*
Y04455D03*
Y0443D03*
Y04406D03*
Y04382D03*
X05984Y0272D03*
X05952D03*
X05917Y02606D03*
X05448Y03125D03*
X05858Y03622D03*
X05811Y03535D03*
X05771Y03578D03*
X05917Y035D03*
X05095Y03412D03*
X05047Y03137D03*
X0585Y02996D03*
X06484Y03472D03*
X05165Y0324D03*
X05102Y0322D03*
X05984Y02606D03*
X05948D03*
X05762Y03815D03*
X06488Y03594D03*
Y03629D03*
X06413Y03594D03*
Y03629D03*
X05724Y02704D03*
X05751D03*
X05779Y02629D03*
X05751D03*
X05724D03*
X06314Y03027D03*
X05984Y03685D03*
X06082Y0359D03*
X06078Y03755D03*
X06047D03*
X06015D03*
X05988D03*
X05937D03*
X05913D03*
Y03681D03*
X06Y03185D03*
X06161Y03153D03*
X05651Y03539D03*
X05346Y02838D03*
Y02862D03*
X05385Y02897D03*
Y02921D03*
X05346Y02897D03*
Y02921D03*
X05574Y02724D03*
X06452Y03972D03*
X07419Y03895D03*
X05314Y03248D03*
X05244D03*
X05342Y03043D03*
X05311D03*
X05283D03*
X05314Y03114D03*
X05342D03*
X05283D03*
X05529Y03503D03*
X06001Y03309D03*
X06074Y03382D03*
X05918Y02957D03*
X06158Y03107D03*
X05586Y04562D03*
X05701Y04535D03*
X05705Y04348D03*
X05578Y0432D03*
X05475Y04835D03*
Y04678D03*
X05578Y04642D03*
X05708Y04666D03*
X05702Y04847D03*
X0558Y04872D03*
X05729Y0342D03*
X05809Y03504D03*
X05095Y0338D03*
X06037Y03381D03*
Y03303D03*
Y03342D03*
X04341Y0371D03*
X06962Y04052D03*
X06893Y04035D03*
X06884Y03822D03*
X0692Y0382D03*
X06811Y0374D03*
X05571Y03184D03*
X0569Y03381D03*
X06561Y02465D03*
Y02559D03*
X05693Y033D03*
X05772D03*
X05851Y033D03*
X05693Y03418D03*
X05808Y03381D03*
X0499Y03807D03*
X05917Y03227D03*
X05769Y03263D03*
X05955Y033D03*
X06073Y03339D03*
X06165Y03381D03*
X05772Y03038D03*
X05572Y035D03*
X05575Y03536D03*
X05733Y03077D03*
X05955Y03038D03*
X05915Y02999D03*
X05095Y03475D03*
X05574Y02762D03*
X04341Y03804D03*
X05535Y033D03*
X05811Y03262D03*
X05914Y0326D03*
X05731D03*
X05126Y0371D03*
X05181Y03901D03*
X05126Y03804D03*
X0499Y03902D03*
X05531Y03425D03*
X05997Y03539D03*
X06115D03*
X06155D03*
X06233Y03421D03*
X05729Y035D03*
X05848Y03539D03*
Y035D03*
X05533Y03578D03*
Y03539D03*
X05493Y03618D03*
X05533D03*
X05651Y03381D03*
X05729D03*
X05491Y03311D03*
X0569Y03263D03*
X05848D03*
X05777Y0362D03*
X05611Y03381D03*
X0561Y03467D03*
X05571Y03424D03*
X05691Y03462D03*
X0588Y03157D03*
X05728Y02996D03*
X05848Y02956D03*
X05925Y02795D03*
X06196Y02759D03*
X06326Y02814D03*
X05915Y03077D03*
X05807Y03039D03*
X05688Y02996D03*
X05496D03*
X05917Y03303D03*
X06153Y02909D03*
X06272Y02962D03*
X06165Y02959D03*
X06114Y02996D03*
X06039Y03114D03*
X06003Y03232D03*
X06122Y03275D03*
X06Y03381D03*
X06118Y03389D03*
X06196Y03578D03*
X06311Y03618D03*
X05921Y03039D03*
X05996Y0296D03*
X06157Y02799D03*
X06196D03*
X06236D03*
X06275D03*
X06527Y03192D03*
X06275Y03188D03*
X06232Y03263D03*
X06397Y02897D03*
X06437D03*
Y02917D03*
X06397D03*
Y03027D03*
Y03003D03*
X06437Y03027D03*
Y03003D03*
X06405Y03283D03*
Y03259D03*
X06444Y03283D03*
Y03259D03*
X05393Y03322D03*
Y03299D03*
X05433Y03322D03*
Y03299D03*
X05401Y03232D03*
X05244Y03209D03*
X05315D03*
X05244Y03279D03*
X0544Y03232D03*
Y03212D03*
X05401D03*
X05314Y03279D03*
X06397Y02822D03*
X05917Y03618D03*
X05181Y03807D03*
X0561Y03705D03*
X05681Y03704D03*
X05704D03*
X05681Y03751D03*
X05704D03*
X05095Y03443D03*
X05653Y03457D03*
Y03418D03*
X06488Y03665D03*
X05944Y03681D03*
X05851Y03575D03*
X05917Y03578D03*
X06194Y03539D03*
X05693Y03575D03*
X05736Y03535D03*
X0569Y03618D03*
X05734Y0346D03*
X05769Y0346D03*
Y03381D03*
X05772Y03418D03*
X08405Y02064D03*
X05914Y0334D03*
X05848Y03342D03*
X05808Y03303D03*
X05811Y03339D03*
X05769Y03342D03*
X05733Y03337D03*
X0569Y03342D03*
X05653Y03342D03*
X0829Y04287D03*
X0839Y04337D03*
Y04237D03*
X0829Y04187D03*
X0839Y04137D03*
X0829Y04087D03*
X0839Y03937D03*
X0859Y04337D03*
X0849Y04287D03*
X0839Y04037D03*
Y04287D03*
Y04087D03*
Y03737D03*
Y03587D03*
Y03437D03*
Y03287D03*
X08391Y03137D03*
X0839Y02987D03*
Y02837D03*
X0829Y02387D03*
Y02537D03*
Y02587D03*
Y02737D03*
Y02787D03*
Y02937D03*
Y02987D03*
Y03137D03*
Y03187D03*
Y03337D03*
Y03407D03*
Y03517D03*
Y03587D03*
Y03737D03*
Y03787D03*
Y03937D03*
Y03987D03*
Y04037D03*
Y04137D03*
Y04237D03*
Y04337D03*
X0849Y02737D03*
Y02887D03*
Y03037D03*
Y03187D03*
Y03337D03*
Y03487D03*
Y03637D03*
Y03787D03*
Y03937D03*
Y04087D03*
Y04237D03*
Y04337D03*
X0859Y04287D03*
Y04137D03*
Y03987D03*
Y03837D03*
Y03687D03*
X0849Y02387D03*
X0854Y02499D03*
X0735Y03362D03*
Y03267D03*
X08539Y02525D03*
Y02599D03*
X05554Y02909D03*
X07968Y02031D03*
Y01937D03*
X08491Y02625D03*
X0834Y02425D03*
X08582Y02614D03*
X08543Y02763D03*
Y02917D03*
Y03066D03*
Y03216D03*
Y03366D03*
X08544Y03515D03*
X08342Y04169D03*
X0854Y02425D03*
X07019Y02185D03*
X05326Y0344D03*
X05491Y03462D03*
X05389Y0344D03*
X05338Y03555D03*
X05377D03*
Y03535D03*
X05338D03*
X05488Y02952D03*
X05527Y0287D03*
X05496Y02799D03*
X0624Y03511D03*
X06157Y03464D03*
Y03503D03*
X0627Y0342D03*
X0742Y03945D03*
X05957Y03427D03*
X05614Y03575D03*
X05611Y03618D03*
X05529Y03712D03*
X04341Y03741D03*
Y03772D03*
X05126D03*
X0499Y0384D03*
X05181Y03838D03*
X0499Y03871D03*
X05181Y0387D03*
X05126Y03741D03*
X05575Y033D03*
X0735Y0333D03*
X05575Y0326D03*
X0735Y03299D03*
X05806Y03232D03*
X05851Y03225D03*
X05806Y03112D03*
X05536Y02841D03*
X0839Y03197D03*
X05535Y02799D03*
X0839Y03227D03*
G54D90*
X08613Y05137D03*
X08748Y05129D03*
X07938Y05157D03*
X07917Y05132D03*
X06403Y03405D03*
X07082Y05144D03*
X07008D03*
X07803Y05137D03*
X07728Y05138D03*
X06318Y02537D03*
X04954Y0311D03*
X04297Y04419D03*
X04391D03*
X04422D03*
X04485D03*
X04454Y04307D03*
X0436D03*
X04858Y04417D03*
X04952D03*
X04984D03*
X05047D03*
X05015Y04305D03*
X04921D03*
X05905Y02456D03*
X04653Y02488D03*
X03492Y03586D03*
X0483Y03031D03*
X04909Y03007D03*
X07307Y03279D03*
X0724Y03354D03*
X06385Y03881D03*
X05523Y04019D03*
X06251Y02527D03*
X03547Y02877D03*
X03515D03*
X03488D03*
X03342Y03996D03*
X03838Y04629D03*
Y04696D03*
X03834Y04251D03*
Y04188D03*
X05429Y04661D03*
X05492Y04614D03*
X05488Y04267D03*
Y04188D03*
X07137Y04291D03*
X07141Y04362D03*
X04208Y03334D03*
X0346Y02062D03*
X04916Y03357D03*
X0594Y05177D03*
X05733Y05178D03*
X06175Y05372D03*
X06122Y05375D03*
X05431Y04015D03*
X0563Y04075D03*
X06513Y03352D03*
X04247Y02952D03*
X03261Y03037D03*
X03262Y03094D03*
X03269Y03184D03*
X03297Y03038D03*
Y03094D03*
X03232Y03183D03*
X03286Y02837D03*
X04406Y02842D03*
X04628Y02549D03*
X04445Y03187D03*
X06205Y0155D03*
X06085D03*
X05885D03*
X06165D03*
X06125D03*
X06045D03*
X05965D03*
X05925D03*
X06005D03*
X03413Y02014D03*
X03487Y01832D03*
X03435Y01833D03*
X04841Y0325D03*
X04807Y03214D03*
Y0325D03*
X04765Y03134D03*
Y03099D03*
X04031Y04137D03*
X03865Y01584D03*
X03517Y0366D03*
X03352Y04904D03*
X03252Y02947D03*
X05298Y04144D03*
Y04179D03*
X053Y04702D03*
Y04735D03*
X04032Y047D03*
Y04735D03*
X04031Y0417D03*
X04778Y04865D03*
X04838D03*
X04898D03*
X04958D03*
X05018D03*
X05078D03*
X05138D03*
X04562Y04865D03*
X04502D03*
X04442D03*
X04382D03*
X04322D03*
X04262D03*
X04202D03*
X04408Y04097D03*
X04251D03*
X04345D03*
X04811Y041D03*
X04906D03*
X04328Y04307D03*
X0489Y04305D03*
X04827D03*
X05078D03*
X04795D03*
X04265Y04307D03*
X04234D03*
X05094Y041D03*
X05D03*
X04968D03*
X04937D03*
X04534Y04097D03*
X0444D03*
X04377D03*
X0701Y03845D03*
X07009Y03895D03*
X0701Y03947D03*
X03435Y01968D03*
X03487Y01966D03*
X06046Y05232D03*
X05893Y0535D03*
X06043Y05352D03*
X05836Y05234D03*
Y0535D03*
X05689Y05355D03*
X06846Y0339D03*
X05865Y02667D03*
X06318Y02566D03*
X05982Y0252D03*
X05743Y0252D03*
X05705Y02525D03*
X06638Y0311D03*
X07099Y03102D03*
Y03455D03*
X05743Y02457D03*
Y02489D03*
X05474Y03892D03*
X03227Y03093D03*
X03228Y03037D03*
X03507Y02985D03*
X03101Y04741D03*
X03132Y04742D03*
X03162D03*
X03101Y04711D03*
X03157Y04712D03*
X031Y04681D03*
X03133Y04682D03*
X03668Y03659D03*
X02967Y02973D03*
X02999D03*
X0303D03*
X0306D03*
X0309D03*
X02969Y03151D03*
X02998D03*
X0303Y0315D03*
X03062Y03149D03*
X03813Y0259D03*
X03856D03*
X03902D03*
X03948D03*
X03996D03*
Y02634D03*
X03948D03*
X03902D03*
X03856D03*
X03813D03*
X03893Y02212D03*
X03931Y02214D03*
X03968Y02212D03*
X04007Y02214D03*
X03686Y01819D03*
Y01857D03*
Y01894D03*
Y01934D03*
Y01975D03*
X03681Y01609D03*
X03858Y01621D03*
X04444Y02332D03*
X04474D03*
X04427Y02055D03*
X04459Y0207D03*
X04811Y02142D03*
X04812Y02244D03*
X06109Y03927D03*
X06108Y04019D03*
X05876Y04017D03*
X05873Y03982D03*
X0588Y03892D03*
Y0382D03*
X0584Y03939D03*
X06147Y03965D03*
X05439Y03892D03*
X05625Y03854D03*
X05539Y03952D03*
X05681D03*
X05783Y0249D03*
X06053Y02515D03*
X06354Y02482D03*
X06129Y0248D03*
X06105Y02387D03*
X06701Y03157D03*
X06122Y05162D03*
X06174Y0516D03*
X03763Y03384D03*
Y03419D03*
X03764Y03485D03*
X03763Y03454D03*
X0373Y03385D03*
Y0342D03*
X03731Y03485D03*
Y03454D03*
X04517Y04307D03*
X06107Y03887D03*
X06106Y03842D03*
X0588Y03857D03*
X07108Y02973D03*
X06698Y02876D03*
X06696Y03015D03*
X06527Y02889D03*
Y02925D03*
X06574Y02751D03*
X03514Y02065D03*
X07159Y0397D03*
X0716Y0392D03*
X07157Y0387D03*
X07162Y0382D03*
G54D91*
X0798Y01487D03*
X04967Y02682D03*
X04791Y02181D03*
X0477Y02167D03*
X04791Y02224D03*
X04645Y02035D03*
X04432Y02212D03*
X0387Y01992D03*
X04758Y01966D03*
X04665Y02405D03*
X04492Y02409D03*
X04724Y02393D03*
X04723Y0236D03*
X04703D03*
X04908Y02215D03*
Y02197D03*
X04872Y02064D03*
X04854D03*
X04836D03*
X04612Y02499D03*
X04222Y0215D03*
X04222Y02212D03*
X04418Y02194D03*
X04609Y0193D03*
X04634Y01944D03*
X04585D03*
X04476Y025D03*
X0382Y02464D03*
X04478Y01905D03*
Y02455D03*
X04461Y02455D03*
X04445Y02455D03*
X04525Y0237D03*
X0462Y0238D03*
X04528Y01986D03*
X04452Y01945D03*
X04435D03*
X04418D03*
X04495Y01987D03*
X04692Y01985D03*
X04723Y01987D03*
X04546Y02407D03*
X04723Y02025D03*
X04506Y02032D03*
X0483Y02317D03*
X04853Y02319D03*
X04878Y02317D03*
X0474Y01905D03*
X04623Y0203D03*
X03893Y01992D03*
X03913D03*
X03933D03*
X04645Y02389D03*
X04842Y01759D03*
X04862D03*
X04842Y01732D03*
X04862D03*
X05041Y02207D03*
G54D92*
X04689Y02117D03*
X04612D03*
X04534D03*
X04573D03*
X0465D03*
X04689Y02155D03*
X04612D03*
X04534D03*
X04573D03*
X0465D03*
X0469Y02232D03*
X04535D03*
X04574D03*
X04651D03*
X0469Y0227D03*
X04535D03*
X04574D03*
X04652D03*
X04613D03*
X04612Y02232D03*
G54D93*
X06019Y03938D03*
Y03895D03*
X05976D03*
Y03938D03*
G54D108*
X05884Y02914D02*
Y02941D01*
X05865Y02895D02*
X05884Y02914D01*
X05811Y03262D02*
X05829Y03244D01*
X05831Y03168D02*
Y0317D01*
Y03168D02*
X05877Y03122D01*
Y02949D02*
Y03122D01*
X05865Y02667D02*
Y02895D01*
X05877Y02949D02*
X05884Y02941D01*
X05829Y0317D02*
Y03244D01*
G54D109*
X09004Y04281D03*
M02*