%FSTAX23Y23*%
%MOIN*%
%SFA1B1*%

%IPPOS*%
%AMD79*
4,1,8,-0.012800,-0.025600,0.012800,-0.025600,0.025600,-0.012800,0.025600,0.012800,0.012800,0.025600,-0.012800,0.025600,-0.025600,0.012800,-0.025600,-0.012800,-0.012800,-0.025600,0.0*
%
%ADD10C,0.012000*%
%ADD11R,0.023622X0.021654*%
%ADD13R,0.021654X0.023622*%
%ADD17R,0.027559X0.051181*%
%ADD26R,0.023622X0.039370*%
%ADD38R,0.102362X0.035433*%
%ADD39R,0.051181X0.027559*%
%ADD40R,0.066929X0.035433*%
%ADD41R,0.039370X0.023622*%
%ADD50C,0.010000*%
%ADD51C,0.006000*%
%ADD52C,0.020000*%
%ADD53C,0.005000*%
%ADD54C,0.006614*%
%ADD55C,0.006890*%
%ADD56C,0.008000*%
%ADD59C,0.006614*%
%ADD68R,0.050000X0.005000*%
%ADD72R,0.059055X0.059055*%
%ADD73C,0.059055*%
%ADD74C,0.196850*%
%ADD75R,0.078740X0.078740*%
%ADD76C,0.037401*%
%ADD77C,0.061024*%
%ADD78C,0.060000*%
G04~CAMADD=79~4~0.0~0.0~511.8~511.8~0.0~128.0~0~0.0~0.0~0.0~0.0~0~0.0~0.0~0.0~0.0~0~0.0~0.0~0.0~180.0~512.0~512.0*
%ADD79D79*%
%ADD80C,0.051181*%
%ADD81C,0.039370*%
%ADD82C,0.106299*%
%ADD83C,0.125984*%
%ADD84R,0.160000X0.065000*%
%ADD85R,0.065000X0.160000*%
%ADD86R,0.060000X0.060000*%
%ADD87C,0.015000*%
%ADD88C,0.016000*%
%ADD89C,0.020000*%
%ADD90C,0.019685*%
%ADD91C,0.025000*%
%ADD112R,0.043307X0.066929*%
%ADD113R,0.035827X0.048031*%
%ADD114R,0.019685X0.039370*%
%ADD115R,0.035433X0.039370*%
%ADD116R,0.078740X0.031496*%
%ADD117R,0.017716X0.013500*%
%ADD118O,0.078740X0.023622*%
%ADD119R,0.078740X0.023622*%
%ADD120R,0.016535X0.023622*%
%ADD121O,0.016535X0.023622*%
%ADD122R,0.037401X0.023622*%
%ADD123O,0.011811X0.037401*%
%ADD124O,0.037401X0.011811*%
%ADD125R,0.082677X0.082677*%
%ADD126R,0.023622X0.016535*%
%ADD127O,0.023622X0.016535*%
%ADD128R,0.066929X0.079622*%
%ADD129R,0.050000X0.469999*%
%LNatfc_copper_signal_bot-1*%
%LPD*%
G36*
X01546Y02992D02*
X01546Y02992D01*
X01547Y02992*
X01547Y02992*
X01548Y02992*
X01549Y02991*
X01551Y02991*
X01553Y02991*
Y02979*
X01551Y02979*
X01548Y02979*
X01547Y02979*
X01547Y02979*
X01546Y02979*
X01546Y02979*
X01546Y02978*
Y02992*
X01546Y02992*
G37*
G36*
X05154Y02981D02*
X05153Y02981D01*
X05152Y0298*
X05152Y02979*
X05151Y02978*
X05151Y02978*
X05151Y02977*
X0515Y02976*
X0515Y02975*
X0515Y02974*
X0515Y02973*
X0514Y02983*
X05141Y02983*
X05142Y02984*
X05143Y02984*
X05143Y02984*
X05144Y02984*
X05145Y02985*
X05146Y02985*
X05146Y02986*
X05147Y02986*
X05148Y02987*
X05154Y02981*
G37*
G36*
X04312Y03021D02*
X04312Y03021D01*
X04312Y0302*
X04313Y0302*
X04313Y03019*
X04314Y03018*
X04315Y03017*
X04315Y03016*
X04312Y0301*
X04312Y0301*
X04311Y03011*
X04311Y03011*
X0431Y03012*
X0431Y03012*
X04309Y03012*
X04308Y03012*
X04308Y03012*
X04307Y03012*
X04307Y03012*
X04312Y03022*
X04312Y03021*
G37*
G36*
X03992Y03004D02*
X03993Y03003D01*
X03993Y03003*
X03994Y03003*
X03995Y03003*
X03995Y03002*
X03996Y03002*
X03997Y03002*
X03997Y03002*
X03998Y03002*
Y02995*
X03997Y02995*
X03997Y02995*
X03996Y02995*
X03995Y02995*
X03995Y02995*
X03994Y02994*
X03993Y02994*
X03993Y02994*
X03992Y02993*
X03992Y02993*
Y03004*
X03992Y03004*
G37*
G36*
X04298Y02956D02*
X04297Y02956D01*
X04297Y02957*
X04296Y02957*
X04296Y02957*
X04295Y02958*
X04294Y02958*
X04294Y02958*
X04293Y02958*
X04292Y02958*
X04291Y02958*
Y02965*
X04292Y02965*
X04293Y02965*
X04294Y02965*
X04294Y02965*
X04295Y02965*
X04296Y02966*
X04296Y02966*
X04297Y02966*
X04297Y02967*
X04298Y02967*
Y02956*
G37*
G36*
X03992Y02964D02*
X03993Y02964D01*
X03993Y02964*
X03994Y02964*
X03995Y02963*
X03995Y02963*
X03996Y02963*
X03997Y02963*
X03997Y02963*
X03998Y02963*
Y02956*
X03997Y02956*
X03997Y02956*
X03996Y02956*
X03995Y02955*
X03995Y02955*
X03994Y02955*
X03993Y02955*
X03993Y02954*
X03992Y02954*
X03992Y02954*
Y02965*
X03992Y02964*
G37*
G36*
X03834Y02967D02*
X03834Y02967D01*
X03835Y02966*
X03835Y02966*
X03836Y02965*
X03837Y02965*
X03837Y02965*
X03838Y02965*
X03838Y02965*
X03839Y02964*
X03831Y02957*
X03831Y02958*
X03831Y02959*
X0383Y02959*
X0383Y0296*
X0383Y0296*
X0383Y02961*
X03829Y02962*
X03829Y02962*
X03828Y02963*
X03828Y02963*
X03833Y02968*
X03834Y02967*
G37*
G36*
X03873Y02966D02*
X03874Y02966D01*
X03874Y02966*
X03875Y02965*
X03876Y02965*
X03876Y02965*
X03877Y02964*
X03878Y02964*
X03878Y02964*
X03879Y02964*
X03871Y02956*
X03871Y02957*
X03871Y02958*
X03871Y02958*
X03871Y02959*
X0387Y0296*
X0387Y0296*
X0387Y02961*
X03869Y02962*
X03869Y02962*
X03868Y02963*
X03873Y02967*
X03873Y02966*
G37*
G36*
X04722Y03028D02*
X04723Y03027D01*
X04724Y03027*
X04725Y03026*
X04725Y03026*
X04726Y03026*
X04727Y03025*
X04727Y03025*
X04728Y03025*
X04718Y03015*
X04718Y03016*
X04718Y03017*
X04718Y03017*
X04717Y03018*
X04717Y03018*
X04716Y03019*
X04716Y0302*
X04715Y03021*
X04714Y03022*
X04721Y03029*
X04722Y03028*
G37*
G36*
X02803Y03091D02*
X02802Y0309D01*
X02802Y03089*
X02801Y03088*
X02801Y03087*
X028Y03087*
X028Y03086*
X028Y03085*
X028Y03084*
X028Y03083*
X02793*
X02793Y03084*
X02793Y03085*
X02793Y03086*
X02793Y03087*
X02792Y03087*
X02792Y03088*
X02791Y03089*
X02791Y0309*
X0279Y03091*
X0279Y03091*
X02804*
X02803Y03091*
G37*
G36*
X02727Y03094D02*
X02726Y03093D01*
Y03093*
X02727Y03092*
X02727Y03091*
X02727Y0309*
X02728Y03089*
X02729Y03088*
X02732Y03085*
X02727Y0308*
X02726Y03082*
X02723Y03084*
X02722Y03085*
X02721Y03085*
X0272Y03085*
X02719Y03086*
X02719*
X02718Y03085*
X02718Y03085*
X02727Y03094*
X02727Y03094*
G37*
G36*
X04734Y03116D02*
X04734Y03116D01*
X04735Y03116*
X04737Y03116*
X04738Y03115*
X04742Y03115*
X04754Y03116*
X04755Y03116*
X04756Y03117*
X04759Y03095*
X04759Y03095*
X04758Y03095*
X04753Y03095*
Y03095*
X0475Y03095*
X04734Y03094*
X04734Y03094*
X04733Y03093*
Y03117*
X04734Y03116*
G37*
G36*
X03065Y03079D02*
X03065Y0308D01*
X03065Y0308*
X03064Y03081*
X03064Y03081*
X03063Y03081*
X03062Y03082*
X03061Y03082*
X0306Y03082*
X03059Y03082*
X03059Y03082*
X03058Y03082*
X03057Y03082*
X03056Y03082*
X03055Y03082*
X03054Y03081*
X03053Y03081*
X03053Y03081*
X03052Y0308*
X03052Y0308*
X03052Y03079*
Y03093*
X03052Y03092*
X03052Y03091*
X03053Y03091*
X03053Y0309*
X03054Y0309*
X03055Y0309*
X03056Y0309*
X03057Y03089*
X03058Y03089*
X03059Y03089*
X03059Y03089*
X0306Y03089*
X03061Y0309*
X03062Y0309*
X03063Y0309*
X03064Y0309*
X03064Y03091*
X03065Y03091*
X03065Y03092*
X03065Y03093*
Y03079*
G37*
G36*
X03992Y03043D02*
X03993Y03043D01*
X03993Y03043*
X03994Y03042*
X03995Y03042*
X03995Y03042*
X03996Y03042*
X03997Y03042*
X03997Y03041*
X03998Y03041*
Y03035*
X03997Y03035*
X03997Y03034*
X03996Y03034*
X03995Y03034*
X03995Y03034*
X03994Y03034*
X03993Y03034*
X03993Y03033*
X03992Y03033*
X03992Y03032*
Y03044*
X03992Y03043*
G37*
G36*
X04719Y03034D02*
X04719Y03034D01*
X04719Y03029*
X04709*
X04709Y03034*
X04719*
X04719Y03034*
G37*
G36*
X03086Y03091D02*
X03086Y03091D01*
X03087Y0309*
X03087Y0309*
X03088Y0309*
X03088Y03089*
X03089Y03089*
X0309Y03089*
X03091Y03089*
X03092Y03089*
Y03083*
X03091Y03083*
X0309Y03083*
X03089Y03082*
X03088Y03082*
X03088Y03082*
X03087Y03082*
X03087Y03081*
X03086Y03081*
X03086Y0308*
X03086Y0308*
Y03092*
X03086Y03091*
G37*
G36*
X01347Y03073D02*
X01241D01*
Y03115*
X01347*
Y03073*
G37*
G36*
X02446Y02848D02*
X02447Y02847D01*
X02447Y02847*
X02448Y02846*
X02449Y02846*
X0245Y02845*
X02451Y02845*
X02451Y02845*
X02452Y02845*
X02453Y02845*
X02453Y02838*
X02452Y02838*
X02451Y02838*
X0245Y02838*
X02449Y02838*
X02448Y02837*
X02447Y02837*
X02446Y02837*
X02446Y02836*
X02445Y02835*
X02444Y02835*
X02445Y02849*
X02446Y02848*
G37*
G36*
X0129Y02851D02*
X0129Y02849D01*
X01291Y02847*
X01291Y02846*
X01293Y02844*
X01294Y02843*
X01295Y02842*
X01297Y02842*
X01299Y02841*
X01302Y02841*
X01284Y02829*
X0127Y02841*
X01272Y02841*
X01273Y02842*
X01274Y02842*
X01275Y02843*
X01276Y02844*
X01276Y02846*
X01277Y02847*
X01277Y02849*
X01277Y02851*
X01278Y02853*
X0129*
X0129Y02851*
G37*
G36*
X03553Y02864D02*
X03552Y02864D01*
X03552Y02865*
X03551Y02865*
X03551Y02866*
X0355Y02866*
X03549Y02866*
X03549Y02866*
X03548Y02866*
X03547Y02867*
X03546Y02867*
Y02873*
X03547Y02873*
X03548Y02873*
X03549Y02873*
X03549Y02873*
X0355Y02873*
X03551Y02874*
X03551Y02874*
X03552Y02874*
X03552Y02875*
X03553Y02875*
Y02864*
G37*
G36*
X04361Y02839D02*
X04361Y0284D01*
X04361Y02841*
X0436Y02841*
X0436Y02841*
X04359Y02842*
X04359Y02842*
X04358Y02842*
X04357Y02842*
X04356Y02842*
X04355Y02842*
Y02848*
X04356Y02848*
X04357Y02849*
X04358Y02849*
X04359Y02849*
X04359Y02849*
X0436Y0285*
X0436Y0285*
X04361Y0285*
X04361Y02851*
X04361Y02851*
Y02839*
G37*
G36*
X04272Y02792D02*
X04272Y02792D01*
X04271Y02791*
X04271Y02791*
X04271Y0279*
X04271Y02789*
X0427Y02789*
X0427Y02788*
X0427Y02787*
X0427Y02786*
X04264*
X04264Y02787*
X04264Y02788*
X04264Y02789*
X04264Y02789*
X04264Y0279*
X04263Y02791*
X04263Y02791*
X04263Y02792*
X04262Y02792*
X04262Y02793*
X04273*
X04272Y02792*
G37*
G36*
X04194D02*
X04193Y02792D01*
X04193Y02791*
X04192Y02791*
X04192Y0279*
X04192Y02789*
X04192Y02789*
X04192Y02788*
X04192Y02787*
X04191Y02786*
X04185*
X04185Y02787*
X04185Y02788*
X04185Y02789*
X04185Y02789*
X04185Y0279*
X04185Y02791*
X04184Y02791*
X04184Y02792*
X04183Y02792*
X04183Y02793*
X04194*
X04194Y02792*
G37*
G36*
X01312Y02829D02*
X01311Y02829D01*
X01311Y02829*
X01311Y02829*
X0131Y02829*
X01309Y02829*
X01306Y02829*
X01305Y02829*
X01303Y02841*
X01304Y02841*
X01307Y02841*
X01308Y02842*
X01308Y02842*
X01309Y02842*
X01309Y02842*
X01309Y02842*
X0131Y02843*
X01312Y02829*
G37*
G36*
X04312Y02792D02*
X04311Y02792D01*
X04311Y02791*
X04311Y02791*
X0431Y0279*
X0431Y02789*
X0431Y02789*
X0431Y02788*
X0431Y02787*
X0431Y02786*
X04304*
X04304Y02787*
X04303Y02788*
X04303Y02789*
X04303Y02789*
X04303Y0279*
X04303Y02791*
X04302Y02791*
X04302Y02792*
X04301Y02792*
X04301Y02793*
X04312*
X04312Y02792*
G37*
G36*
X04553Y02881D02*
X04552Y02882D01*
X04551Y02882*
X0455Y02883*
X04549Y02883*
X04548Y02884*
X04547Y02884*
X04546Y02884*
X04546Y02884*
X04545Y02884*
X04544Y02884*
X04543Y02884*
X04543Y02883*
X04542Y02883*
X04542Y02882*
X04542Y02882*
X04542Y02881*
Y02894*
X04542Y02894*
X04542Y02893*
X04542Y02893*
X04543Y02892*
X04543Y02892*
X04544Y02892*
X04545Y02891*
X04545Y02891*
X04545Y02891*
X04546Y02892*
X04547Y02892*
X04548Y02893*
X04549Y02893*
X04549Y02894*
X0455Y02894*
X0455Y02895*
X04553Y02881*
G37*
G36*
X02289Y02951D02*
X02289Y0295D01*
X02289Y02949*
X02289Y02948*
X02289Y02947*
X0229Y02947*
X0229Y02946*
X0229Y02945*
X02291Y02944*
X02292Y02944*
X02287Y02939*
X02287Y0294*
X02286Y02941*
X02285Y02941*
X02284Y02941*
X02284Y02942*
X02283Y02942*
X02282Y02942*
X02281Y02942*
X0228Y02942*
X02279Y02943*
X02288Y02952*
X02289Y02951*
G37*
G36*
X0129Y0294D02*
X0129Y0294D01*
X0129Y02939*
X0129Y02939*
X0129Y02938*
X0129Y02937*
X0129Y02935*
X0129Y02934*
X01278*
X01277Y02935*
X01277Y02938*
X01277Y02939*
X01277Y02939*
X01277Y0294*
X01277Y0294*
X01277Y0294*
X01291*
X0129Y0294*
G37*
G36*
X03795Y02951D02*
X03794Y02951D01*
X03794Y02952*
X03793Y02952*
X03793Y02952*
X03792Y02953*
X03791Y02953*
X03791Y02953*
X0379Y02953*
X03789Y02953*
X03788Y02953*
Y0296*
X03789Y0296*
X0379Y0296*
X03791Y0296*
X03791Y0296*
X03792Y0296*
X03793Y02961*
X03793Y02961*
X03794Y02961*
X03794Y02962*
X03795Y02962*
Y02951*
G37*
G36*
X04351Y0296D02*
X04351Y02959D01*
X04351Y02959*
X04351Y02958*
X04351Y02957*
X04352Y02957*
X04352Y02956*
X04352Y02955*
X04353Y02955*
X04353Y02954*
X04349Y0295*
X04348Y0295*
X04348Y02951*
X04347Y02951*
X04346Y02951*
X04346Y02952*
X04345Y02952*
X04344Y02952*
X04344Y02952*
X04343Y02952*
X04343Y02953*
X0435Y0296*
X04351Y0296*
G37*
G36*
X0452Y02882D02*
X0452Y02882D01*
X0452Y02883*
X0452Y02883*
X04519Y02884*
X04519Y02884*
X04518Y02884*
X04517Y02885*
X04516Y02885*
X04515Y02885*
X04514Y02885*
X04513Y02885*
X04513Y02884*
X04512Y02884*
X04511Y02884*
X04511Y02883*
X0451Y02883*
X0451Y02882*
X0451Y02882*
Y02895*
X0451Y02894*
X0451Y02894*
X04511Y02893*
X04511Y02893*
X04512Y02892*
X04513Y02892*
X04513Y02892*
X04514Y02892*
X04515Y02892*
X04516Y02892*
X04517Y02892*
X04518Y02892*
X04519Y02892*
X04519Y02893*
X0452Y02893*
X0452Y02894*
X0452Y02894*
X0452Y02895*
Y02882*
G37*
G36*
X04375Y02897D02*
X04375Y02896D01*
X04375Y02895*
X04375Y02894*
X04376Y02893*
X04376Y02893*
X04376Y02892*
X04377Y02892*
X04377Y02892*
X04378Y02892*
X04365*
X04366Y02892*
X04366Y02892*
X04367Y02892*
X04367Y02893*
X04367Y02893*
X04368Y02894*
X04368Y02895*
X04368Y02896*
X04368Y02897*
X04368Y02898*
X04375*
X04375Y02897*
G37*
G36*
X04553Y02916D02*
X04552Y02917D01*
X0455Y02918*
X04549Y02919*
X04548Y02919*
X04547Y02919*
X04546Y0292*
X04546Y0292*
X04545Y0292*
X04545Y0292*
X04544Y02919*
X04543Y02919*
X04543Y02919*
X04542Y02918*
X04542Y02918*
X04542Y02917*
X04542Y02917*
Y02929*
X04542Y02928*
X04542Y02928*
X04542Y02927*
X04543Y02927*
X04543Y02927*
X04544Y02926*
X04545Y02926*
X04545Y02926*
X04545Y02926*
X04546Y02927*
X04547Y02927*
X04548Y02927*
X04548Y02928*
X04549Y02929*
X0455Y02929*
X0455Y0293*
X04553Y02916*
G37*
G36*
X03958Y02914D02*
X03959Y02914D01*
X03959Y02913*
X0396Y02913*
X03961Y02913*
X03961Y02913*
X03962Y02913*
X03963Y02912*
X03963Y02912*
X03964Y02912*
Y02905*
X03963Y02905*
X03963Y02905*
X03962Y02905*
X03961Y02905*
X03961Y02905*
X0396Y02905*
X03959Y02904*
X03959Y02904*
X03958Y02904*
X03958Y02903*
Y02915*
X03958Y02914*
G37*
G36*
X05348Y03295D02*
X05348Y03294D01*
X05348Y03292*
X05348Y03279*
X05328*
X05328Y03282*
X05327Y03289*
X05327Y03291*
X05327Y03292*
X05326Y03293*
X05326Y03294*
X05325Y03295*
X05324Y03295*
X05348*
X05348Y03295*
G37*
G36*
X04556Y03278D02*
X04556Y03278D01*
X04555Y03278*
X04555Y03277*
X04555Y03277*
X04554Y03277*
X04553Y03277*
X04552Y03276*
X04551Y03276*
X04549Y03276*
Y03283*
X0455Y03283*
X04551Y03283*
X04552Y03284*
X04553Y03284*
X04554Y03284*
X04555Y03284*
X04555Y03285*
X04556Y03285*
X04556Y03286*
X04556Y03287*
X04556Y03278*
G37*
G36*
X04027Y03319D02*
X04027Y03318D01*
X04028Y03318*
X04028Y03317*
X04029Y03317*
X0403Y03317*
X0403Y03317*
X04031Y03317*
X04032Y03317*
X04032Y03316*
X04025Y03309*
X04024Y03309*
X04024Y0331*
X04024Y03311*
X04024Y03311*
X04024Y03312*
X04024Y03313*
X04023Y03313*
X04023Y03314*
X04022Y03314*
X04022Y03315*
X04026Y03319*
X04027Y03319*
G37*
G36*
X04062Y03313D02*
X04063Y03312D01*
X04063Y03312*
X04064Y03312*
X04065Y03311*
X04065Y03311*
X04066Y03311*
X04067Y03311*
X04067Y03311*
X04068Y03311*
X0406Y03303*
X0406Y03303*
X0406Y03304*
X0406Y03305*
X0406Y03306*
X04059Y03306*
X04059Y03307*
X04059Y03307*
X04058Y03308*
X04058Y03309*
X04057Y03309*
X04062Y03313*
X04062Y03313*
G37*
G36*
X04527Y03268D02*
X04526Y03268D01*
X04526Y03268*
X04525Y03267*
X04525Y03266*
X04524Y03266*
X04524Y03265*
X04524Y03264*
X04524Y03263*
X04524Y03261*
X04517*
X04517Y03263*
X04517Y03264*
X04517Y03265*
X04517Y03266*
X04516Y03266*
X04516Y03267*
X04515Y03268*
X04515Y03268*
X04514Y03268*
X04514Y03268*
X04527*
X04527Y03268*
G37*
G36*
X03203Y03233D02*
X03203Y03232D01*
X03202Y03231*
X03201Y03231*
X03201Y03231*
X032Y03231*
X032Y03231*
X032Y03231*
X03199Y03232*
X03199Y03233*
X03199Y03234*
X03179Y03234*
X03178Y03234*
X03178Y03234*
X03178Y03235*
X03179Y03236*
X0318Y03237*
X03183Y0324*
X03189Y03247*
X03203Y03233*
G37*
G36*
X01566Y03314D02*
X01571Y0331D01*
X01574Y03308*
X01577Y03306*
X01579Y03305*
X01582Y03304*
X01584Y03303*
X01587Y03302*
X01589Y03302*
Y0329*
X01587Y0329*
X01584Y0329*
X01582Y03289*
X01579Y03288*
X01577Y03287*
X01574Y03285*
X01571Y03283*
X01569Y03281*
X01563Y03275*
Y03317*
X01566Y03314*
G37*
G36*
X04531Y03286D02*
X04531Y03285D01*
X04532Y03285*
X04532Y03284*
X04533Y03284*
X04534Y03284*
X04535Y03284*
X04536Y03283*
X04537Y03283*
X04538Y03283*
Y03276*
X04537Y03276*
X04536Y03276*
X04535Y03276*
X04534Y03276*
X04533Y03275*
X04532Y03275*
X04532Y03275*
X04531Y03274*
X04531Y03274*
X04531Y03273*
Y03287*
X04531Y03286*
G37*
G36*
X04589Y03339D02*
X04586Y03336D01*
X04578Y03327*
X04577Y03325*
X04577Y03324*
X04576Y03323*
X04577Y03322*
X04577Y03321*
X04556Y03336*
X04556Y03336*
X04557Y03337*
X04558Y03337*
X0456Y03338*
X04563Y03341*
X04572Y0335*
X04589Y03339*
G37*
G36*
X04113Y03384D02*
X04114Y03383D01*
X04114Y03383*
X04114Y03382*
X04115Y03381*
X04115Y03381*
X04115Y0338*
X04116Y03379*
X04117Y03378*
X04114Y03373*
X04113Y03373*
X04113Y03374*
X04112Y03374*
X04112Y03375*
X04111Y03375*
X0411Y03375*
X0411Y03375*
X04109Y03375*
X04108Y03375*
X04108Y03375*
X04113Y03385*
X04113Y03384*
G37*
G36*
X03876Y03373D02*
X03876Y03373D01*
X03876Y03373*
X03875Y03373*
X03875Y03373*
X03874Y03373*
X03874Y03373*
X03873Y03373*
X03873Y03372*
X03872Y03372*
X03872Y03371*
X03869Y03377*
X03876Y03383*
X03876Y03373*
G37*
G36*
X0487Y03383D02*
X0487Y03383D01*
X04869Y03384*
X04868Y03384*
X04868Y03384*
X04867Y03385*
X04866Y03385*
X04865Y03385*
X04864Y03385*
X04863Y03385*
X04862Y03386*
Y03394*
X04863Y03394*
X04864Y03394*
X04865Y03394*
X04866Y03394*
X04867Y03394*
X04868Y03395*
X04868Y03395*
X04869Y03395*
X0487Y03396*
X0487Y03397*
Y03383*
G37*
G36*
X04079Y03388D02*
X04078Y03387D01*
X04078Y03387*
X04077Y03386*
X04077Y03386*
X04077Y03385*
X04076Y03384*
X04076Y03384*
X04076Y03383*
X04076Y03382*
X04076Y03381*
X04068Y03389*
X04069Y03389*
X0407Y0339*
X0407Y0339*
X04071Y0339*
X04072Y0339*
X04072Y0339*
X04073Y03391*
X04073Y03391*
X04074Y03392*
X04075Y03392*
X04079Y03388*
G37*
G36*
X04544Y03342D02*
X04544Y03341D01*
X04544Y03341*
X04543Y03341*
X04543Y03341*
X04542Y0334*
X04541Y03339*
X0454Y03338*
X04539Y03337*
X0453Y03346*
X04531Y03347*
X04533Y03349*
X04534Y0335*
X04534Y0335*
X04534Y03351*
X04534Y03351*
X04535Y03351*
X04544Y03342*
G37*
G36*
X04236Y03348D02*
X04236Y03347D01*
X04237Y03347*
X04237Y03346*
X04238Y03346*
X04239Y03346*
X04239Y03346*
X0424Y03346*
X04241Y03346*
X04242Y03346*
Y0334*
X04241Y03339*
X0424Y03339*
X04239Y03339*
X04239Y03339*
X04238Y03339*
X04237Y03339*
X04237Y03338*
X04236Y03338*
X04236Y03337*
X04235Y03337*
Y03348*
X04236Y03348*
G37*
G36*
X04062Y03352D02*
X04063Y03352D01*
X04063Y03351*
X04064Y03351*
X04065Y03351*
X04065Y0335*
X04066Y0335*
X04067Y0335*
X04067Y0335*
X04068Y0335*
X0406Y03342*
X0406Y03343*
X0406Y03344*
X0406Y03344*
X0406Y03345*
X04059Y03346*
X04059Y03346*
X04059Y03347*
X04058Y03347*
X04058Y03348*
X04057Y03349*
X04062Y03353*
X04062Y03352*
G37*
G36*
X05293Y032D02*
X05244D01*
X0524Y03205*
X05241Y03207*
X05239Y03213*
X05235Y03219*
X0523Y03223*
X05223Y03225*
X05167*
X05164Y03224*
X05159Y03228*
Y03235*
X05164Y03239*
X05167Y03238*
X05223*
X0523Y0324*
X05235Y03244*
X05239Y0325*
X05241Y03257*
X05239Y03263*
X05235Y03269*
X0523Y03273*
X05223Y03275*
X05167*
X05164Y03274*
X05159Y03278*
Y03285*
X05164Y03289*
X05167Y03288*
X05223*
X0523Y0329*
X05235Y03294*
X05239Y033*
X05241Y03307*
X05239Y03313*
X05235Y03319*
X0523Y03323*
X05223Y03325*
X05167*
X05164Y03324*
X05159Y03328*
Y03335*
X05164Y03339*
X05167Y03338*
X05223*
X0523Y0334*
X05235Y03344*
X05239Y0335*
X05241Y03357*
X05239Y03363*
X05235Y03369*
X0523Y03373*
X05223Y03375*
X05167*
X05164Y03374*
X05159Y03378*
Y0342*
X05293*
Y032*
G37*
G36*
X03947Y03121D02*
X03948Y0312D01*
X03948Y0312*
X03949Y03119*
X0395Y03119*
X03951Y03118*
X03952Y03118*
X03942Y03113*
X03942Y03114*
X03942Y03114*
X03942Y03115*
X03942Y03116*
X03942Y03116*
X03942Y03117*
X03942Y03117*
X03941Y03118*
X03941Y03119*
X0394Y03119*
X03946Y03122*
X03947Y03121*
G37*
G36*
X03031Y03109D02*
X03031Y03108D01*
X0303Y03108*
X0303Y03108*
X03029Y03108*
X03028Y03108*
X03023Y03108*
X03019Y03108*
Y03128*
X03021Y03128*
X03029Y03128*
X0303Y03128*
X0303Y03129*
X03031Y03129*
X03031Y03129*
X03031Y03109*
G37*
G36*
X02804Y0314D02*
X02805Y03139D01*
X02806Y03138*
X02807Y03138*
X02808Y03138*
X02809Y03137*
X02809Y03137*
X0281Y03137*
X02811Y03137*
X02812Y03137*
Y03131*
X02811Y0313*
X0281Y0313*
X02809Y0313*
X02809Y0313*
X02808Y0313*
X02807Y03129*
X02806Y03129*
X02805Y03128*
X02804Y03127*
X02804Y03127*
Y03141*
X02804Y0314*
G37*
G36*
X02989Y03125D02*
X02989Y03124D01*
X02989Y03123*
X02989Y03123*
X0299Y03122*
X0299Y03121*
X0299Y0312*
X02991Y03119*
X02992Y03118*
X02993Y03118*
X02979*
X02979Y03118*
X0298Y03119*
X02981Y0312*
X02981Y03121*
X02982Y03122*
X02982Y03123*
X02982Y03123*
X02982Y03124*
X02982Y03125*
X02983Y03126*
X02989*
X02989Y03125*
G37*
G36*
X05162Y03096D02*
X05161Y03097D01*
X0516Y03097*
X05159Y03097*
X05158Y03098*
X05157Y03098*
X05156Y03098*
X05154Y03098*
X05152Y03098*
X05151Y03099*
X05148Y03107*
X0515Y03107*
X05153Y03107*
X05154Y03107*
X05155Y03107*
X05156Y03108*
X05156Y03108*
X05157Y03109*
X05157Y0311*
X05157Y0311*
X05162Y03096*
G37*
G36*
X05138Y03109D02*
X05139Y03108D01*
X0514Y03108*
X0514Y03108*
X05141Y03107*
X05142Y03107*
X05143Y03107*
X05144Y03107*
X05145Y03107*
X05146Y03107*
Y03099*
X05145Y03098*
X05144Y03098*
X05143Y03098*
X05142Y03098*
X05141Y03098*
X0514Y03097*
X0514Y03097*
X05139Y03097*
X05138Y03096*
X05138Y03096*
Y0311*
X05138Y03109*
G37*
G36*
X04677Y03116D02*
X04678Y03115D01*
X04679Y03115*
X04679Y03115*
X0468Y03114*
X04681Y03114*
X04682Y03114*
X04683Y03114*
X04684Y03114*
X04685Y03114*
Y03106*
X04684Y03105*
X04683Y03105*
X04682Y03105*
X04681Y03105*
X0468Y03105*
X04679Y03104*
X04679Y03104*
X04678Y03104*
X04677Y03103*
X04677Y03103*
Y03117*
X04677Y03116*
G37*
G36*
X04694Y03102D02*
X04694Y03102D01*
X04694Y03103*
X04694Y03104*
X04693Y03104*
X04692Y03105*
X04691Y03105*
X0469Y03105*
X04689Y03105*
X04688Y03105*
X04686Y03106*
Y03114*
X04688Y03114*
X0469Y03114*
X04691Y03114*
X04692Y03114*
X04693Y03115*
X04694Y03115*
X04694Y03116*
X04694Y03116*
X04694Y03117*
Y03102*
G37*
G36*
X05278Y03149D02*
X05278Y03148D01*
X05277Y03147*
X05277Y03145*
X0528*
X05279Y03145*
X05278Y03145*
X05278Y03145*
X05277Y03144*
X05277Y03143*
X05277Y03143*
X05276Y03138*
X05276Y03131*
X05276Y03128*
X05268*
X05268Y03131*
X05267Y03143*
X05267Y03143*
X05266Y03144*
X05266Y03145*
X05265Y03145*
X05265Y03145*
X05264Y03145*
X05267*
X05266Y03147*
X05266Y03148*
X05265Y03149*
X05265Y0315*
X05279*
X05278Y03149*
G37*
G36*
X03178Y03182D02*
X03178Y03182D01*
X03178Y03183*
X03177Y03183*
X03177Y03183*
X03176Y03184*
X03176Y03184*
X03175Y03184*
X03174Y03184*
X03173Y03184*
X03173Y03184*
X03173Y03184*
X03172Y03184*
X03171Y03184*
X0317Y03184*
X03169Y03184*
X03169Y03183*
X03168Y03183*
X03168Y03183*
X03168Y03182*
X03168Y03182*
Y03194*
X03168Y03193*
X03168Y03192*
X03168Y03192*
X03169Y03192*
X03169Y03191*
X0317Y03191*
X03171Y03191*
X03172Y03191*
X03173Y03191*
X03173Y03191*
X03173Y03191*
X03174Y03191*
X03175Y03191*
X03176Y03191*
X03176Y03191*
X03177Y03192*
X03177Y03192*
X03178Y03192*
X03178Y03193*
X03178Y03194*
Y03182*
G37*
G36*
X03199Y03193D02*
X03199Y03192D01*
X032Y03192*
X032Y03192*
X03201Y03191*
X03201Y03191*
X03202Y03191*
X03203Y03191*
X03204Y03191*
X03205Y03191*
Y03185*
X03204Y03184*
X03203Y03184*
X03202Y03184*
X03201Y03184*
X03201Y03184*
X032Y03183*
X032Y03183*
X03199Y03183*
X03199Y03182*
X03199Y03182*
Y03194*
X03199Y03193*
G37*
G36*
X03146Y0321D02*
X03146Y03211D01*
X03146Y03212*
X03145Y03212*
X03144Y03213*
X03143Y03213*
X03142Y03213*
X0314Y03214*
X03139Y03214*
X03134Y03214*
Y03226*
X03137Y03226*
X03139Y03226*
X0314Y03227*
X03142Y03227*
X03143Y03227*
X03144Y03228*
X03145Y03229*
X03146Y0323*
X03146Y03231*
X03146Y03232*
X03146Y0321*
G37*
G36*
X04266Y032D02*
X04259Y03193D01*
X04259Y03194*
X04259Y03194*
X04259Y03194*
X04259Y03195*
X04258Y03195*
X04258Y03195*
X04257Y03195*
X04257Y03195*
X04256Y03195*
X04255Y03196*
X04257Y03202*
X04266Y032*
G37*
G36*
X04756Y03146D02*
X04756Y03146D01*
X04755Y03146*
X04736Y03147*
Y03167*
X04756Y03167*
Y03146*
G37*
G36*
X0428Y03147D02*
X0428Y03146D01*
X0428Y03146*
X04279Y03145*
X04279Y03145*
X04279Y03144*
X04279Y03143*
X04279Y03143*
X04279Y03142*
X04279Y03141*
X04272*
X04272Y03142*
X04272Y03143*
X04271Y03143*
X04271Y03144*
X04271Y03145*
X04271Y03145*
X04271Y03146*
X0427Y03146*
X0427Y03147*
X04269Y03147*
X04281*
X0428Y03147*
G37*
G36*
X02484Y03193D02*
X02485Y03193D01*
X02486Y03192*
X02486Y03191*
X02487Y03191*
X02488Y03191*
X02489Y0319*
X0249Y0319*
X02491Y0319*
X02492Y0319*
Y03184*
X02491Y03184*
X0249Y03184*
X02489Y03184*
X02488Y03183*
X02487Y03183*
X02486Y03183*
X02486Y03182*
X02485Y03181*
X02484Y03181*
X02483Y0318*
Y03194*
X02484Y03193*
G37*
G36*
X05252Y03145D02*
X05252Y03146D01*
X05251Y03146*
X0525Y03146*
X05249Y03146*
X05247Y03147*
X05243Y03147*
X05228Y03146*
X05227Y03145*
X05226Y03145*
Y03168*
X05226Y03168*
X05227Y03168*
X05229Y03167*
X05235Y03167*
X05238Y03167*
X05251Y03168*
X05252Y03168*
X05252Y03169*
Y03145*
G37*
G36*
X04233Y02793D02*
X04233Y02792D01*
X04233Y02792*
X04233Y02791*
X04233Y02791*
X04233Y0279*
X04233Y0279*
X04234Y02789*
X04234Y02789*
X04235Y02788*
X04229Y02785*
X04223Y02792*
X04234Y02793*
X04233Y02793*
G37*
G36*
X01593Y02028D02*
X01593Y02027D01*
X01594Y02026*
X01594Y02025*
X01595Y02025*
X01597Y02024*
X01598Y02024*
X01599Y02024*
X01601Y02024*
X01603Y02024*
Y02014*
X01601Y02013*
X01599Y02013*
X01598Y02013*
X01597Y02013*
X01595Y02012*
X01594Y02012*
X01594Y02011*
X01593Y0201*
X01593Y02009*
X01593Y02009*
Y02029*
X01593Y02028*
G37*
G36*
X01453Y02021D02*
X01453Y0202D01*
X01454Y0202*
X01454Y0202*
X01455Y0202*
X01456Y02019*
X01456Y02019*
X01458Y02019*
X01459Y0202*
X01459Y0202*
X0146Y0202*
X0146Y0202*
X0146Y02021*
Y02007*
X0146Y02008*
X0146Y02008*
X01459Y02008*
X01459Y02008*
X01458Y02009*
X01457Y02009*
X01456Y02009*
X01456Y02009*
X01455Y02009*
X01454Y02008*
X01454Y02008*
X01453Y02008*
X01453Y02007*
X01452Y02007*
Y02009*
X0145Y02009*
Y02019*
X01452Y02019*
X01452Y02019*
Y02021*
X01453Y02021*
G37*
G36*
X0276Y0203D02*
X0276Y0203D01*
X0276Y0203*
X02761Y0203*
X02763Y0203*
X02764Y0203*
Y0202*
X0276Y0202*
Y0203*
X0276Y0203*
G37*
G36*
X02765Y02034D02*
X02765Y02033D01*
X02766Y02033*
X02766Y02032*
X02767Y02031*
X02768Y02031*
X0277Y02031*
X02771Y0203*
X02772Y0203*
X02774Y02031*
X02775Y02031*
X02776Y02031*
X02777Y02032*
X02778Y02032*
X02778Y02033*
X02778Y02033*
X02778Y02034*
Y02015*
X02778Y02016*
X02778Y02017*
X02778Y02018*
X02777Y02018*
X02776Y02019*
X02775Y02019*
X02774Y0202*
X02772Y0202*
X02772Y0202*
X02771Y0202*
X0277Y0202*
X02768Y02019*
X02767Y02019*
X02766Y02018*
X02766Y02018*
X02765Y02017*
X02765Y02016*
X02765Y02015*
Y02035*
X02765Y02034*
G37*
G36*
X01478Y02D02*
X01478Y02D01*
X01478Y02*
X01479Y01999*
X0148Y01999*
X01481Y01999*
X01482Y01999*
X01483Y01998*
X01486Y01998*
Y0199*
X01484Y0199*
X01482Y0199*
X01481Y0199*
X0148Y0199*
X01479Y01989*
X01478Y01989*
X01478Y01989*
X01478Y01988*
X01478Y01988*
Y02001*
X01478Y02*
G37*
G36*
X01711Y01988D02*
X01713Y01986D01*
X01714Y01986*
X01714Y01985*
X01715Y01985*
X01716Y01985*
X01716Y01985*
X01717Y01985*
X01717Y01984*
X01708Y01975*
X01707Y01975*
X01707Y01976*
X01707Y01976*
X01707Y01977*
X01707Y01978*
X01706Y01978*
X01706Y01979*
X01705Y0198*
X01704Y01981*
X01711Y01988*
X01711Y01988*
G37*
G36*
X02586Y02003D02*
X02586Y02003D01*
X02585Y02004*
X02585Y02005*
X02584Y02006*
X02583Y02006*
X02582Y02007*
X02581Y02007*
X02579Y02007*
X02578Y02007*
X02576Y02008*
Y02018*
X02578Y02018*
X02579Y02018*
X02581Y02018*
X02582Y02018*
X02583Y02019*
X02584Y02019*
X02585Y0202*
X02585Y02021*
X02586Y02022*
X02586Y02023*
Y02003*
G37*
G36*
X02605Y02002D02*
X02604Y02001D01*
X02603Y02001*
X02602Y02*
X02602Y01999*
X02601Y01998*
X02601Y01997*
X02601Y01996*
X02601Y01995*
X02601Y01994*
X02602Y01993*
X02602Y01992*
X02603Y01991*
X02604Y01991*
X02605Y0199*
X02606Y0199*
X02586*
X02586Y0199*
X02587Y01991*
X02588Y01991*
X02589Y01992*
X02589Y01993*
X0259Y01994*
X0259Y01995*
X0259Y01996*
X0259Y01997*
X0259Y01998*
X02589Y01999*
X02589Y02*
X02588Y02001*
X02587Y02001*
X02587Y02002*
X02586Y02002*
X02606*
X02605Y02002*
G37*
G36*
X01535Y0202D02*
X01539Y0202D01*
Y02008*
X01535Y02008*
Y02008*
X01535Y02008*
X01527Y02007*
Y02008*
X01523Y02008*
Y0202*
X01525Y0202*
X01527Y0202*
Y02021*
X01527Y02021*
X01527Y0202*
X01528Y0202*
X01529Y02021*
X01531Y02021*
X01532Y02022*
X01533Y02022*
X01534Y02023*
X01535Y02024*
X01535Y02025*
X01535Y02026*
X01535Y0202*
G37*
G36*
X01552Y02039D02*
X01552Y02037D01*
X01552Y02035*
X01552Y02033*
X01553Y02032*
X01554Y02031*
X01554Y0203*
X01555Y0203*
X01556Y02029*
X01558Y02029*
X01555Y02029*
X01555Y02029*
X01539*
X0154Y02029*
X0154Y02029*
X01535Y02029*
X01536Y02029*
X01537Y0203*
X01537Y0203*
X01538Y02031*
X01538Y02032*
X01539Y02034*
X01539Y02035*
X01539Y02037*
X01539Y02039*
X0154Y02041*
X01552*
X01552Y02039*
G37*
G36*
X01509Y02027D02*
X01509Y02028D01*
X01509Y02028*
X01509Y02028*
X01508Y02029*
X01507Y02029*
X01506Y02029*
X01505Y02029*
X01504Y0203*
X01501Y0203*
Y02038*
X01503Y02038*
X01505Y02038*
X01506Y02038*
X01507Y02038*
X01508Y02039*
X01509Y02039*
X01509Y02039*
X01509Y0204*
X01509Y0204*
Y02027*
G37*
G36*
X01498Y02055D02*
X01498Y02054D01*
X01497Y02053*
X01497Y02053*
X01496Y02052*
X01496Y02051*
X01496Y0205*
X01496Y02049*
X01496Y02048*
X01496Y02047*
X01488*
X01488Y02048*
X01488Y02049*
X01487Y0205*
X01487Y02051*
X01487Y02052*
X01487Y02053*
X01486Y02053*
X01486Y02054*
X01485Y02055*
X01485Y02055*
X01499*
X01498Y02055*
G37*
G36*
X02682Y0204D02*
X02682Y0204D01*
X02683Y0204*
X02683Y0204*
X02686Y0204*
X02687Y0204*
Y0203*
X02682Y0203*
Y0204*
X02682Y0204*
G37*
G36*
X02652Y02022D02*
X0265Y0202D01*
X02645Y02015*
X02644Y02013*
X02644Y02012*
X02643Y0201*
X02643Y02009*
X02643Y02009*
X02644Y02008*
X0263Y02023*
X02631Y02023*
X02632Y02022*
X02633Y02023*
X02634Y02023*
X02635Y02024*
X02637Y02025*
X02638Y02026*
X02642Y0203*
X02645Y02032*
X02652Y02022*
G37*
G36*
X02545Y02032D02*
X02545Y02032D01*
X02548Y02029*
X02542Y02021*
X02541Y02022*
X02539Y02024*
X02538Y02024*
X02538Y02024*
X02538Y02024*
X02545Y02032*
X02545Y02032*
G37*
G36*
X0146Y0204D02*
Y02027D01*
X0146Y02028*
X0146Y02028*
X01459Y02029*
X01459Y02029*
X01458Y0203*
X01457Y0203*
X01455Y0203*
X01454Y0203*
X01452Y0203*
X0145Y02031*
Y02041*
X0146Y0204*
G37*
G36*
X02603Y02031D02*
X02603Y0203D01*
X02603Y02028*
X02603Y02027*
X02604Y02026*
X02604Y02025*
X02605Y02024*
X02606Y02023*
X02607Y02023*
X02607Y02023*
X02587*
X02588Y02023*
X02589Y02023*
X0259Y02024*
X02591Y02025*
X02591Y02026*
X02592Y02027*
X02592Y02028*
X02592Y0203*
X02592Y02031*
X02592Y02033*
X02602*
X02603Y02031*
G37*
G36*
X01477Y01915D02*
X01478Y01914D01*
X01478Y01914*
X01479Y01913*
X0148Y01913*
X01481Y01912*
X01482Y01912*
X01484Y01911*
X01485Y01911*
X01487Y01911*
Y01901*
X01485Y01901*
X01484Y01901*
X01482Y01901*
X01481Y019*
X0148Y019*
X01479Y01899*
X01478Y01899*
X01478Y01898*
X01477Y01897*
X01477Y01896*
Y01916*
X01477Y01915*
G37*
G36*
X01711Y01907D02*
X01713Y01905D01*
X01714Y01905*
X01714Y01904*
X01715Y01904*
X01716Y01904*
X01716Y01904*
X01717Y01904*
X01717Y01903*
X01708Y01894*
X01707Y01894*
X01707Y01895*
X01707Y01895*
X01707Y01896*
X01707Y01897*
X01706Y01897*
X01706Y01898*
X01705Y01899*
X01704Y019*
X01711Y01907*
X01711Y01907*
G37*
G36*
X01529Y01915D02*
X0153Y01914D01*
X0153Y01914*
X01531Y01913*
X01532Y01913*
X01533Y01912*
X01534Y01912*
X01536Y01911*
X01537Y01911*
X01539Y01911*
Y01901*
X01537Y01901*
X01536Y01901*
X01534Y01901*
X01533Y019*
X01532Y019*
X01531Y01899*
X0153Y01899*
X0153Y01898*
X01529Y01897*
X01529Y01896*
Y01916*
X01529Y01915*
G37*
G36*
X01508Y01896D02*
X01508Y01897D01*
X01508Y01898*
X01507Y01899*
X01506Y01899*
X01505Y019*
X01504Y019*
X01503Y01901*
X01501Y01901*
X015Y01901*
X01498Y01901*
Y01911*
X015Y01911*
X01501Y01911*
X01503Y01912*
X01504Y01912*
X01505Y01913*
X01506Y01913*
X01507Y01914*
X01508Y01914*
X01508Y01915*
X01508Y01916*
Y01896*
G37*
G36*
X01889Y01577D02*
X01888Y01577D01*
X01888Y01578*
X01887Y01579*
X01886Y01579*
X01885Y0158*
X01884Y0158*
X01883Y0158*
X01883Y01581*
X01882Y01581*
X01881Y01581*
Y01587*
X01882Y01587*
X01883Y01587*
X01883Y01587*
X01884Y01587*
X01885Y01588*
X01886Y01588*
X01887Y01589*
X01888Y01589*
X01888Y0159*
X01889Y01591*
Y01577*
G37*
G36*
X06021Y01493D02*
X06021Y01493D01*
X06021Y01492*
X0602Y01492*
X0602Y01491*
X06019Y01491*
X06019Y0149*
X06019Y01489*
X06019Y01489*
X06019Y01488*
X06019Y01488*
X06011Y01495*
X06012Y01495*
X06013Y01495*
X06013Y01495*
X06014Y01495*
X06014Y01496*
X06015Y01496*
X06016Y01496*
X06016Y01497*
X06017Y01497*
X06017Y01498*
X06021Y01493*
G37*
G36*
X01529Y0186D02*
X01529Y01859D01*
X01529Y01858*
X01529Y01855*
X01529Y0184*
X01509*
X01508Y0186*
X01529*
X01529Y0186*
G37*
G36*
X01477D02*
X01477Y01859D01*
X01477Y01858*
X01477Y01855*
X01477Y0184*
X01457*
X01456Y0186*
X01477*
X01477Y0186*
G37*
G36*
X02711Y01937D02*
X02711Y01938D01*
X02711Y01938*
X02711Y01939*
X0271Y01939*
X02709Y0194*
X02708Y0194*
X02707Y0194*
X02705Y01941*
X02703Y01941*
X02701Y01941*
Y01951*
X02703Y01951*
X02705Y01951*
X02707Y01951*
X02708Y01952*
X02709Y01952*
X0271Y01953*
X02711Y01953*
X02711Y01954*
X02711Y01955*
X02712Y01956*
X02711Y01937*
G37*
G36*
X02641Y01969D02*
X02641Y01969D01*
X02641Y01968*
X0264Y01968*
X0264Y01967*
X0264Y01966*
X0264Y01966*
X0264Y01963*
X0264Y01962*
X0263*
X0263Y01963*
X0263Y01966*
X02629Y01967*
X02629Y01968*
X02629Y01968*
X02629Y01969*
X02629Y01969*
X02628Y01969*
X02641*
X02641Y01969*
G37*
G36*
X01459Y01961D02*
X01459Y01961D01*
X01458Y01962*
X01458Y01962*
X01457Y01962*
X01456Y01963*
X01456Y01963*
X01455Y01963*
X01454Y01963*
X01452Y01963*
Y01973*
X01453Y01973*
X01455Y01973*
X01456Y01973*
X01456Y01974*
X01457Y01974*
X01458Y01974*
X01458Y01974*
X01459Y01975*
X01459Y01975*
Y01961*
G37*
G36*
X01526Y01988D02*
X01525Y01987D01*
X01525Y01987*
X01524Y01986*
X01524Y01985*
X01524Y01984*
X01523Y01983*
X01523Y01981*
X01523Y0198*
X01523Y01978*
X01523Y01977*
X01524Y01976*
X01524Y01976*
X01524Y01975*
X01524Y01974*
X01525Y01974*
X01525Y01973*
X01511Y01973*
X01512Y01973*
X01512Y01974*
X01512Y01974*
X01512Y01975*
X01513Y01976*
X01513Y01977*
X01513Y01977*
X01513Y01979*
X01513Y0198*
X01513Y01983*
X01513Y01984*
X01512Y01985*
X01512Y01986*
X01511Y01987*
X01511Y01987*
X0151Y01988*
X01509Y01988*
X01527*
X01526Y01988*
G37*
G36*
X02798Y01976D02*
X02798Y01976D01*
X02797Y01975*
X02797Y01975*
X02796Y01974*
X02796Y01973*
X02796Y01971*
X02795Y0197*
X02795Y01968*
X02795Y01966*
X02783*
X02783Y01968*
X02783Y01971*
X02783Y01973*
X02782Y01974*
X02782Y01975*
X02781Y01975*
X02781Y01976*
X0278Y01976*
X0278Y01976*
X02799*
X02798Y01976*
G37*
G36*
X02677Y01941D02*
X02676Y01941D01*
X02673Y01941*
X02673Y01941*
X02672Y0194*
X02672Y0194*
X02672Y0194*
X02672Y0194*
X02669Y0195*
X02677Y01951*
X02677Y01941*
G37*
G36*
X02548Y01938D02*
X02548Y01939D01*
X02548Y01939*
X02548Y0194*
X02547Y0194*
X02546Y01941*
X02545Y01941*
X02544Y01941*
X02542Y01942*
X0254Y01942*
X02538Y01942*
Y01952*
X0254Y01952*
X02542Y01952*
X02544Y01952*
X02545Y01953*
X02546Y01953*
X02547Y01954*
X02548Y01954*
X02548Y01955*
X02548Y01956*
X02549Y01957*
X02548Y01938*
G37*
G36*
X02627Y01947D02*
X02624Y01944D01*
X02616Y01951*
X02616Y01951*
X02617Y01951*
X02617Y01951*
X02617Y01952*
X02619Y01954*
X0262Y01954*
X02627Y01947*
G37*
G36*
X02494Y01942D02*
X02493Y01942D01*
X0249Y01942*
X0249Y01942*
X0249Y01941*
X02489Y01941*
X02489Y01941*
X02488Y01952*
X02492Y01952*
X02494Y01942*
G37*
G36*
X02691Y0248D02*
X02691Y0248D01*
X02691Y0248*
X02691Y02479*
X02691Y02478*
X02691Y02477*
X02691Y02475*
X02691Y02474*
X02679*
X02679Y02475*
X02678Y02478*
X02678Y02479*
X02678Y0248*
X02678Y0248*
X02678Y0248*
X02678Y02481*
X02692*
X02691Y0248*
G37*
G36*
X04003Y02467D02*
X04003Y02467D01*
Y02447*
X04Y02447*
X03987Y02446*
X03985Y02446*
X03984Y02445*
X03984Y02445*
X03983Y02444*
Y02447*
X03983Y02447*
Y02467*
X03983Y02467*
Y02468*
X03984Y02468*
X03984Y02467*
X03985Y02467*
X03988Y02467*
X03989Y02467*
X03996Y02468*
X03998Y02468*
X04Y02469*
X04001Y02469*
X04002Y0247*
X04003Y02471*
X04003Y02471*
Y02467*
G37*
G36*
X03984Y02505D02*
X03984Y02504D01*
X03985Y02504*
X03987Y02504*
X03988Y02504*
X03991Y02504*
X04002Y02504*
X04003Y02505*
X04003Y02505*
Y02503*
X04003Y02503*
Y02483*
X04003Y02483*
Y02482*
X04003Y02482*
X04002Y02482*
X04001Y02482*
X04Y02483*
X03998Y02483*
X03995Y02483*
X03984Y02482*
X03984Y02482*
X03983Y02482*
Y02483*
X03983Y02483*
Y02503*
X03983Y02503*
Y02505*
X03984Y02505*
G37*
G36*
X04175Y02496D02*
X04174Y02496D01*
X04173Y02495*
X04173Y02494*
X04172Y02492*
X04171Y02491*
X04171Y02489*
X04171Y02486*
X04171Y02484*
X04171Y02481*
X04151*
X0415Y02484*
X0415Y02489*
X0415Y02491*
X04149Y02492*
X04148Y02494*
X04148Y02495*
X04147Y02496*
X04146Y02496*
X04145Y02496*
X04176*
X04175Y02496*
G37*
G36*
X03747Y02472D02*
X03748Y02471D01*
X03749Y0247*
X0375Y02469*
X03752Y02468*
X03754Y02468*
X03757Y02467*
X0376Y02467*
X03767Y02467*
Y02447*
X03763Y02447*
X03752Y02448*
X0375Y02448*
X03749Y02448*
X03748Y02449*
X03747Y02449*
X03747Y0245*
Y02473*
X03747Y02472*
G37*
G36*
X03795Y02445D02*
X03795Y02446D01*
X03794Y02446*
X03793Y02446*
X03792Y02446*
X03788Y02447*
X03775Y02447*
Y02467*
X03779Y02467*
X03793Y02468*
X03794Y02468*
X03795Y02468*
X03795Y02469*
Y02445*
G37*
G36*
X04234Y02479D02*
X04233Y02479D01*
X04232Y02478*
X04231Y02476*
X0423Y02474*
X04229Y02472*
X04229Y0247*
X04229Y02467*
X04229Y02466*
X04229Y02456*
X04205*
X04206Y02456*
X04206Y02457*
X04207Y02458*
X04207Y02459*
X04208Y02461*
X04208Y02463*
X04208Y02466*
X04208Y02467*
X04207Y0247*
X04207Y02472*
X04206Y02474*
X04205Y02476*
X04204Y02478*
X04202Y02479*
X04201Y02479*
X04199Y02479*
X04236*
X04234Y02479*
G37*
G36*
X04024Y02471D02*
X04025Y0247D01*
X04026Y02469*
X04027Y02469*
X04029Y02468*
X04031Y02468*
X04036Y02468*
X04037Y02468*
X04037Y02469*
Y02467*
X0404Y02467*
X04044Y02467*
Y02447*
X04037Y02447*
Y02445*
X04037Y02446*
X04036Y02446*
X04035Y02446*
X04034Y02446*
X04032Y02447*
X04024Y02447*
X04017Y02447*
Y02467*
X04021Y02467*
X04024Y02467*
Y02471*
X04024Y02471*
G37*
G36*
X04398Y02495D02*
X04397Y02495D01*
X04397Y02494*
X04397Y02493*
X04396Y02492*
X04396Y02491*
X04396Y02489*
X04396Y02485*
X04396Y02483*
X04376*
X04375Y02485*
X04375Y02491*
X04375Y02492*
X04374Y02493*
X04374Y02494*
X04374Y02495*
X04373Y02495*
X04373Y02495*
X04398*
X04398Y02495*
G37*
G36*
X04182Y02578D02*
X04183Y02578D01*
X04184Y02578*
X04185Y02578*
X04187Y02577*
X0419Y02577*
X04199Y02578*
Y02577*
X04202Y02577*
Y02557*
X04199Y02557*
Y02554*
X04198Y02555*
X04198Y02555*
X04197Y02556*
X04195Y02556*
X04194Y02556*
X04192Y02557*
X04183Y02556*
X04182Y02556*
X04182Y02555*
Y02557*
X04179Y02557*
Y02577*
X04182Y02577*
Y02579*
X04182Y02578*
G37*
G36*
X02673Y02557D02*
X02672Y02557D01*
X02671Y02556*
X02671Y02555*
X02671Y02554*
X0267Y02554*
X0267Y02553*
X0267Y02552*
X0267Y02551*
X0267Y0255*
X02669Y02549*
X0266Y02558*
X02661Y02559*
X02662Y02559*
X02663Y02559*
X02664Y02559*
X02665Y02559*
X02665Y0256*
X02666Y0256*
X02667Y0256*
X02668Y02561*
X02668Y02562*
X02673Y02557*
G37*
G36*
X03006Y02681D02*
X03006Y0268D01*
X03006Y0268*
X03006Y02679*
X03007Y02678*
X03007Y02678*
X03007Y02677*
X03008Y02677*
X03008Y02676*
X03009Y02676*
X03004Y02671*
X03004Y02672*
X03003Y02672*
X03003Y02673*
X03002Y02673*
X03002Y02673*
X03001Y02674*
X03Y02674*
X03Y02674*
X02999Y02674*
X02999Y02674*
X03006Y02681*
X03006Y02681*
G37*
G36*
X04366Y02554D02*
X04366Y02555D01*
X04365Y02555*
X04364Y02555*
X04363Y02555*
X04362Y02556*
X04358Y02556*
X0435Y02556*
X04346Y02556*
X04334Y02555*
X04333Y02555*
X04332Y02555*
X04332Y02554*
Y02578*
X04332Y02577*
X04333Y02577*
X04334Y02577*
X04335Y02577*
X04337Y02576*
X04341Y02576*
X0435Y02576*
X04353Y02576*
X04363Y02577*
X04364Y02577*
X04365Y02577*
X04366Y02577*
X04366Y02578*
Y02554*
G37*
G36*
X04024Y02505D02*
X04003D01*
X04003Y02505*
X04003Y02506*
X04003Y02506*
X04003Y02509*
X04004Y02521*
X04024*
X04024Y02505*
G37*
G36*
X03828Y02504D02*
X03827Y02504D01*
X03826Y02503*
X03826Y02502*
X03825Y02501*
X03825Y02499*
X03825Y02498*
X03825Y02496*
X03825Y02491*
X03805*
X03804Y02493*
X03804Y02498*
X03804Y02499*
X03804Y02501*
X03803Y02502*
X03803Y02503*
X03802Y02504*
X03801Y02504*
X03801Y02504*
X03828*
X03828Y02504*
G37*
G36*
X04295Y02517D02*
X04295Y02517D01*
X04295Y02517*
X04294Y02517*
X04283Y02517*
Y02537*
X04285Y02537*
X04292Y02538*
X04293Y02538*
X04294Y02538*
X04295Y02538*
X04295Y02539*
X04295Y02539*
X04295Y02517*
G37*
G36*
X03747Y02507D02*
X03726D01*
X03726Y02507*
X03726Y02508*
X03726Y02509*
X03726Y02511*
X03727Y02525*
X03747*
X03747Y02507*
G37*
G36*
X02562Y02375D02*
X02562Y02375D01*
X02562Y02375*
X02563Y02375*
X02565Y02375*
X02566Y02375*
Y02365*
X02562Y02364*
Y02375*
X02562Y02375*
G37*
G36*
X06602Y02356D02*
X06602Y02355D01*
X06601Y02355*
X06601Y02355*
X06601Y02354*
X06601Y02353*
X06601Y02353*
X06601Y02352*
X06601Y02351*
X06601Y02351*
X06595*
X06594Y02351*
X06594Y02353*
X06594Y02353*
X06594Y02354*
X06594Y02355*
X06594Y02355*
X06593Y02355*
X06593Y02356*
X06593Y02356*
X06602*
X06602Y02356*
G37*
G36*
X02622Y02402D02*
X02621Y02401D01*
X0262Y02401*
X02619Y024*
X02619Y02399*
X02618Y02398*
X02618Y02397*
X02618Y02396*
X02618Y02395*
X02618Y02394*
X02619Y02393*
X02619Y02392*
X0262Y02391*
X02621Y02391*
X02622Y0239*
X02623Y0239*
X02603*
X02604Y0239*
X02604Y02391*
X02605Y02391*
X02606Y02392*
X02606Y02393*
X02607Y02394*
X02607Y02395*
X02607Y02396*
X02607Y02397*
X02607Y02398*
X02607Y02399*
X02606Y024*
X02606Y02401*
X02605Y02401*
X02604Y02402*
X02604Y02402*
X02623*
X02622Y02402*
G37*
G36*
X02682Y02384D02*
X02682Y02384D01*
X02682Y02383*
X02682Y02383*
X02682Y0238*
X02682Y02379*
X02672*
X02671Y02384*
X02682*
X02682Y02384*
G37*
G36*
X01552Y02078D02*
X01552Y02075D01*
X01552Y02074*
X01552Y02074*
X01552Y02073*
X01552Y02073*
X01553Y02073*
X01539*
X01539Y02073*
X01539Y02073*
X01539Y02074*
X01539Y02074*
X01539Y02075*
X01539Y02076*
X01539Y02078*
X0154Y0208*
X01552*
X01552Y02078*
G37*
G36*
X01553Y02059D02*
X01552Y02058D01*
X01552Y02057*
X01552Y02057*
X01552Y02056*
X01552Y02055*
X01552Y02053*
X01552Y02052*
X01551*
X01551Y02051*
X01543Y0205*
X01543Y02051*
X01543Y02052*
X0154*
X01539Y02053*
X01539Y02056*
X01539Y02057*
X01539Y02057*
X01539Y02058*
X01539Y02058*
X01539Y02058*
X01546*
X01553Y02059*
X01553Y02059*
G37*
G36*
X02807Y02161D02*
X02807Y02161D01*
X02807Y02161*
X02807Y0216*
X02807Y02157*
X02807Y02156*
X02797*
X02796Y02161*
X02807*
X02807Y02161*
G37*
G36*
X02051Y02228D02*
X02062Y02216D01*
Y02188*
X02007Y02133*
X01909*
Y0222*
X01917Y02228*
X02051*
G37*
G36*
X04228Y02417D02*
X04229D01*
X04229Y02417*
X04228Y02416*
X04228Y02415*
X04229Y02406*
X04228*
X04228Y02397*
X04208*
X04208Y02401*
X04208Y02406*
X04205*
X04206Y02406*
X04206Y02407*
X04207Y02408*
X04207Y02409*
X04207Y02411*
X04207Y02414*
X04207Y02415*
X04206Y02416*
X04206Y02417*
X04205Y02417*
X04208*
X04208Y02422*
X04208Y02426*
X04228*
X04228Y02417*
G37*
G36*
X06625Y02446D02*
X06625Y02445D01*
X06625Y02445*
X06625Y02444*
X06625Y02444*
X06625Y02444*
X06625Y02444*
X06626Y02443*
X06626Y02443*
X06618Y0244*
X06618Y0244*
X06618Y02441*
X06618Y02441*
X06618Y02444*
X06618Y02445*
X06625Y02447*
X06625Y02446*
G37*
G36*
X02566Y02436D02*
X02566Y02437D01*
X02566Y02438*
X02566Y02439*
X02565Y02439*
X02564Y0244*
X02563Y0244*
X02562Y02441*
X0256Y02441*
X02558Y02441*
X02556Y02441*
Y02451*
X02558Y02451*
X02562Y02452*
X02563Y02452*
X02564Y02452*
X02565Y02453*
X02566Y02453*
X02566Y02454*
X02566Y02454*
X02566Y02455*
Y02436*
G37*
G36*
X02517Y02455D02*
X02517Y02455D01*
X02517Y02455*
X02517Y02454*
X02519Y02453*
X0252Y02452*
X02513Y02445*
X02509Y02448*
X02517Y02455*
X02517Y02455*
G37*
G36*
X03834Y02468D02*
X03835Y02468D01*
X03836Y02468*
X03837Y02467*
X03839Y02467*
X03839Y02467*
X0385Y02468*
Y02467*
X03854Y02467*
Y02447*
X0385Y02447*
X0385Y02447*
Y02444*
X03849Y02445*
X03849Y02445*
X03848Y02446*
X03846Y02446*
X03845Y02446*
X03843Y02446*
X03835Y02446*
X03834Y02446*
X03834Y02445*
Y02447*
X0383Y02447*
Y02467*
X03834Y02467*
Y02469*
X03834Y02468*
G37*
G36*
X02702Y0241D02*
X02703Y0241D01*
X02703Y02409*
X02704Y02409*
X02704Y02409*
X02705Y02409*
X02705Y02408*
X02706Y02408*
X02707Y02408*
X02708Y02408*
Y02402*
X02707Y02402*
X02706Y02402*
X02705Y02402*
X02705Y02401*
X02704Y02401*
X02704Y02401*
X02703Y02401*
X02703Y024*
X02702Y024*
X02702Y024*
Y0241*
X02702Y0241*
G37*
G36*
X02715Y02398D02*
X02715Y02399D01*
X02715Y024*
X02715Y024*
X02714Y02401*
X02714Y02401*
X02713Y02401*
X02712Y02401*
X02711Y02402*
X0271Y02402*
X02709Y02402*
Y02408*
X0271Y02408*
X02711Y02408*
X02712Y02409*
X02713Y02409*
X02714Y02409*
X02714Y0241*
X02715Y0241*
X02715Y0241*
X02715Y02411*
X02715Y02412*
Y02398*
G37*
G36*
X0267Y02424D02*
X02668Y02422D01*
X02664Y02417*
X02663Y02415*
X02661Y02413*
X02661Y02412*
X0266Y0241*
X0266Y02409*
X02661Y02408*
X02662Y02407*
X02644Y02423*
X02645Y02422*
X02646Y02422*
X02647Y02422*
X02649Y02423*
X0265Y02423*
X02652Y02424*
X02654Y02426*
X02656Y02427*
X02661Y02432*
X0267Y02424*
G37*
G36*
X06428Y02417D02*
X06428Y02416D01*
X06429Y02416*
X06429Y02415*
X0643Y02415*
X06431Y02415*
X06431Y02415*
X06432Y02415*
X06433Y02415*
X06434Y02415*
Y02409*
X06433Y02408*
X06432Y02408*
X06431Y02408*
X06431Y02408*
X0643Y02408*
X06429Y02408*
X06429Y02407*
X06428Y02407*
X06428Y02406*
X06427Y02406*
Y02417*
X06428Y02417*
G37*
G36*
X0529Y05055D02*
X05286Y05054D01*
X05278Y05054*
X05275Y05053*
X05272Y05053*
X05269Y05052*
X05266Y05051*
X05264Y0505*
X05262Y05049*
X0526Y05047*
X05253Y05054*
X05255Y05056*
X05256Y05058*
X05257Y0506*
X05258Y05063*
X05259Y05066*
X05259Y05069*
X0526Y05072*
X0526Y0508*
X05261Y05084*
X0529Y05055*
G37*
G36*
X01394Y04903D02*
X01394Y04902D01*
X01394Y04901*
X01394Y049*
X01394Y04899*
X01395Y04898*
X01395Y04898*
X01396Y04897*
X01396Y04896*
X01397Y04895*
X01393Y04891*
X01392Y04892*
X01391Y04892*
X0139Y04893*
X0139Y04893*
X01389Y04894*
X01388Y04894*
X01387Y04894*
X01386Y04894*
X01385Y04894*
X01384Y04894*
X01394Y04904*
X01394Y04903*
G37*
G36*
X05521Y0508D02*
X05521Y05072D01*
X05522Y05069*
X05522Y05066*
X05523Y05063*
X05524Y0506*
X05525Y05058*
X05526Y05056*
X05528Y05054*
X05521Y05047*
X05519Y05049*
X05517Y0505*
X05515Y05051*
X05512Y05052*
X05509Y05053*
X05506Y05053*
X05503Y05054*
X05495Y05054*
X05491Y05055*
X0552Y05084*
X05521Y0508*
G37*
G36*
X05421D02*
X05421Y05072D01*
X05422Y05069*
X05422Y05066*
X05423Y05063*
X05424Y0506*
X05425Y05058*
X05426Y05056*
X05428Y05054*
X05421Y05047*
X05419Y05049*
X05417Y0505*
X05415Y05051*
X05412Y05052*
X05409Y05053*
X05406Y05053*
X05403Y05054*
X05395Y05054*
X05391Y05055*
X0542Y05084*
X05421Y0508*
G37*
G36*
X02089Y04685D02*
X01945D01*
X01944Y04685*
Y04753*
X02089*
Y04685*
G37*
G36*
X04466Y04652D02*
X04468Y04651D01*
X0447Y0465*
X04473Y04649*
X04476Y04648*
X04479Y04648*
X04482Y04647*
X04491Y04647*
X04495Y04647*
X04466Y04618*
X04466Y04622*
X04465Y04634*
X04465Y04637*
X04464Y0464*
X04463Y04643*
X04462Y04645*
X04461Y04647*
X0446Y04648*
X04465Y04653*
X04466Y04652*
G37*
G36*
X0452Y04835D02*
X04529Y04827D01*
X04532Y04825*
X04534Y04824*
X04536Y04822*
X04539Y04822*
X04541Y04821*
X04543Y04821*
Y04814*
X04541Y04814*
X04539Y04813*
X04536Y04813*
X04534Y04811*
X04532Y0481*
X04529Y04808*
X04526Y04806*
X0452Y048*
X04517Y04797*
Y04838*
X0452Y04835*
G37*
G36*
X0343Y04753D02*
Y04686D01*
X03314*
Y04754*
X03425*
X0343Y04753*
G37*
G36*
X0619Y05055D02*
X06186Y05054D01*
X06178Y05054*
X06175Y05053*
X06172Y05053*
X06169Y05052*
X06166Y05051*
X06164Y0505*
X06162Y05049*
X0616Y05047*
X06153Y05054*
X06155Y05056*
X06156Y05058*
X06157Y0506*
X06158Y05063*
X06159Y05066*
X06159Y05069*
X0616Y05072*
X0616Y0508*
X06161Y05084*
X0619Y05055*
G37*
G36*
X06765Y05101D02*
X06764Y051D01*
X06763Y051*
X06762Y05099*
X06762Y05098*
X06761Y05097*
X06761Y05096*
X06761Y05094*
X06761Y05092*
X06761Y05091*
X06751*
X0675Y05092*
X0675Y05094*
X0675Y05096*
X0675Y05097*
X06749Y05098*
X06749Y05099*
X06748Y051*
X06747Y051*
X06746Y05101*
X06746Y05101*
X06766*
X06765Y05101*
G37*
G36*
X05932Y05101D02*
X05931Y051D01*
X05931Y05099*
X0593Y05098*
X0593Y05097*
X05929Y05096*
X05929Y05094*
X05929Y05093*
X05929Y05091*
X05929Y05089*
X05919*
X05918Y05091*
X05918Y05093*
X05918Y05094*
X05918Y05096*
X05917Y05097*
X05917Y05098*
X05916Y05099*
X05916Y051*
X05915Y05101*
X05914Y05102*
X05933*
X05932Y05101*
G37*
G36*
X06669Y05101D02*
X06669Y05101D01*
X06669Y05102*
X06668Y05102*
X06667Y05103*
X06667Y05103*
X06665Y05103*
X06664Y05103*
X06663Y05104*
X06659Y05104*
Y05114*
X06661Y05114*
X06664Y05114*
X06665Y05114*
X06667Y05114*
X06667Y05115*
X06668Y05115*
X06669Y05116*
X06669Y05116*
X06669Y05117*
Y05101*
G37*
G36*
X05872Y05106D02*
X05871Y05105D01*
X0587Y05105*
X05869Y05104*
X05869Y05103*
X05868Y05102*
X05868Y05101*
X05868Y05099*
X05868Y05097*
X05868Y05096*
X05858*
X05857Y05097*
X05857Y05099*
X05857Y05101*
X05857Y05102*
X05856Y05103*
X05856Y05104*
X05855Y05105*
X05854Y05105*
X05853Y05106*
X05853Y05106*
X05872*
X05872Y05106*
G37*
G36*
X06421Y0508D02*
X06421Y05072D01*
X06422Y05069*
X06422Y05066*
X06423Y05063*
X06424Y0506*
X06425Y05058*
X06426Y05056*
X06428Y05054*
X06421Y05047*
X06419Y05049*
X06417Y0505*
X06415Y05051*
X06412Y05052*
X06409Y05053*
X06406Y05053*
X06403Y05054*
X06395Y05054*
X06391Y05055*
X0642Y05084*
X06421Y0508*
G37*
G36*
X06321D02*
X06321Y05072D01*
X06322Y05069*
X06322Y05066*
X06323Y05063*
X06324Y0506*
X06325Y05058*
X06326Y05056*
X06328Y05054*
X06321Y05047*
X06319Y05049*
X06317Y0505*
X06315Y05051*
X06312Y05052*
X06309Y05053*
X06306Y05053*
X06303Y05054*
X06295Y05054*
X06291Y05055*
X0632Y05084*
X06321Y0508*
G37*
G36*
X06061Y05075D02*
X06061Y05075D01*
X0606Y05076*
X0606Y05077*
X06059Y05078*
X06058Y05078*
X06057Y05079*
X06056Y05079*
X06054Y05079*
X06053Y05079*
X06051Y0508*
Y0509*
X06053Y0509*
X06054Y0509*
X06056Y0509*
X06057Y0509*
X06058Y05091*
X06059Y05091*
X0606Y05092*
X0606Y05093*
X06061Y05094*
X06061Y05094*
Y05075*
G37*
G36*
X05161D02*
X05161Y05075D01*
X0516Y05076*
X0516Y05077*
X05159Y05078*
X05158Y05078*
X05157Y05079*
X05156Y05079*
X05154Y05079*
X05153Y05079*
X05151Y0508*
Y0509*
X05153Y0509*
X05154Y0509*
X05156Y0509*
X05157Y0509*
X05158Y05091*
X05159Y05091*
X0516Y05092*
X0516Y05093*
X05161Y05094*
X05161Y05094*
Y05075*
G37*
G36*
X0517Y04355D02*
X05176D01*
X05176Y04353*
X05178Y04353*
X05177Y04353*
X05177Y04352*
X05177Y04352*
X05177Y04351*
X05176Y04351*
X05176Y0435*
X05176Y0435*
X05177Y04346*
X05177Y04345*
X05177Y04344*
X05177Y04343*
X05178Y04343*
X05178Y04343*
X05162*
X05162Y04343*
X05163Y04343*
X05163Y04344*
X05163Y04345*
X05164Y04346*
X05164Y04347*
X05164Y04351*
X05164Y04355*
X05164*
X05164Y04357*
X0517Y04355*
G37*
G36*
X05149Y04349D02*
X05149Y04347D01*
X05149Y04346*
X0515Y04345*
X0515Y04345*
X0515Y04344*
X05151Y04344*
X05151Y04343*
X05152Y04343*
X05153Y04343*
X05139*
X05139Y04343*
X0514Y04343*
X05141Y04344*
X05141Y04344*
X05141Y04345*
X05142Y04345*
X05142Y04346*
X05142Y04347*
X05142Y04349*
X05142Y0435*
X05149*
X05149Y04349*
G37*
G36*
X05103Y04407D02*
X05098Y04402D01*
X05096Y04399*
X05095Y04397*
X05094Y04395*
X05093Y04393*
X05092Y04391*
X05091Y04389*
X05091Y04387*
X05084*
X05084Y04389*
X05084Y04391*
X05083Y04393*
X05082Y04395*
X05081Y04397*
X05079Y04399*
X05077Y04402*
X05073Y04407*
X0507Y0441*
X05106*
X05103Y04407*
G37*
G36*
X04525Y04413D02*
X04526Y04401D01*
X04526Y04398*
X04527Y04395*
X04528Y04392*
X04529Y0439*
X0453Y04388*
X04531Y04387*
X04526Y04382*
X04525Y04383*
X04523Y04384*
X04521Y04385*
X04518Y04386*
X04515Y04387*
X04512Y04387*
X04509Y04388*
X045Y04388*
X04496Y04388*
X04525Y04417*
X04525Y04413*
G37*
G36*
X05136Y04272D02*
X05138Y04269D01*
X0514Y04268*
X05141Y04268*
X05141Y04267*
X05142Y04267*
X05143Y04267*
X05143Y04268*
X05144Y04268*
X05138Y04255*
X05138Y04256*
X05138Y04256*
X05138Y04257*
X05138Y04258*
X05137Y04259*
X05137Y0426*
X05136Y04261*
X05135Y04262*
X05134Y04263*
X05133Y04265*
X05134Y04273*
X05136Y04272*
G37*
G36*
X05202Y04263D02*
X05202Y04262D01*
X05203Y04262*
X05203Y04261*
X05204Y04261*
X05205Y0426*
X05206Y0426*
X05207Y0426*
X05208Y0426*
X0521Y0426*
Y04253*
X05208Y04253*
X05207Y04253*
X05206Y04253*
X05205Y04253*
X05204Y04252*
X05203Y04252*
X05203Y04251*
X05202Y04251*
X05202Y0425*
X05202Y0425*
Y04263*
X05202Y04263*
G37*
G36*
X05208Y04339D02*
X05206Y04338D01*
X05204Y04336*
X05204Y04335*
X05203Y04334*
X05203Y04333*
X05202Y04332*
X05202Y04331*
X05202Y0433*
X05203Y0433*
X05196Y04343*
X05197Y04342*
X05197Y04342*
X05198Y04342*
X05199Y04342*
X052Y04343*
X05201Y04343*
X05202Y04344*
X05203Y04345*
X05206Y04348*
X05208Y04339*
G37*
G36*
X05176Y04284D02*
X05176Y04284D01*
X05176Y04283*
X05176Y04282*
X05175Y04282*
X05175Y04281*
X05175Y04279*
X05175Y04278*
X05175Y04278*
X05175Y04276*
X05175Y04273*
X05176Y04272*
X05176Y04271*
X05176Y0427*
X05177Y04269*
X05177Y04269*
X05178Y04268*
X05178Y04268*
X05162*
X05163Y04268*
X05163Y04269*
X05164Y04269*
X05164Y0427*
X05164Y04271*
X05165Y04272*
X05165Y04273*
X05165Y04275*
X05165Y04277*
X05165Y04279*
X05165Y04279*
X05165Y0428*
X05164Y04281*
X05164Y04281*
X05164Y04282*
X05163Y04282*
X05163Y04283*
X05177Y04285*
X05176Y04284*
G37*
G36*
X0526Y04407D02*
X05256Y04402D01*
X05254Y04399*
X05252Y04397*
X05251Y04395*
X0525Y04393*
X05249Y04391*
X05249Y04389*
X05249Y04387*
X05242*
X05242Y04389*
X05241Y04391*
X0524Y04393*
X05239Y04395*
X05238Y04397*
X05237Y04399*
X05235Y04402*
X0523Y04407*
X05227Y0441*
X05263*
X0526Y04407*
G37*
G36*
X02026Y04637D02*
X02035D01*
X02035Y04632*
X02036Y04632*
X02039Y04631*
X02046Y04631*
Y04611*
X02042Y04611*
X02036Y04611*
X02035Y0461*
X02036Y04469*
X02032Y04465*
X01947*
Y04637*
X02026*
Y04637*
X02026Y04637*
G37*
G36*
X0522Y04458D02*
X05222Y04457D01*
X05224Y04456*
X05226Y04456*
X05228Y04455*
X05231Y04455*
X05234Y04454*
X05241Y04454*
X05245Y04454*
X0522Y04428*
X0522Y04432*
X05219Y04439*
X05219Y04442*
X05218Y04445*
X05218Y04448*
X05217Y0445*
X05216Y04452*
X05215Y04453*
X05214Y04454*
X05219Y04459*
X0522Y04458*
G37*
G36*
X04466Y04552D02*
X04468Y04551D01*
X0447Y0455*
X04473Y04549*
X04476Y04548*
X04479Y04548*
X04482Y04547*
X04491Y04547*
X04495Y04547*
X04466Y04518*
X04466Y04522*
X04465Y04534*
X04465Y04537*
X04464Y0454*
X04463Y04543*
X04462Y04545*
X04461Y04547*
X0446Y04548*
X04465Y04553*
X04466Y04552*
G37*
G36*
X03434Y04474D02*
X0343Y0447D01*
X03345*
Y04642*
X03433*
X03434Y04474*
G37*
G36*
X05152Y04407D02*
X05152Y04407D01*
X05151Y04407*
X05151Y04407*
X05151Y04407*
X0515Y04407*
X0515Y04407*
X0515Y04406*
X05149Y04405*
X05148Y04405*
X05143Y0441*
X05144Y0441*
X05145Y04412*
X05145Y04412*
X05145Y04412*
X05146Y04413*
X05146Y04413*
X05146Y04413*
X05146Y04413*
X05152Y04407*
G37*
G36*
X05339Y04407D02*
X05335Y04402D01*
X05333Y04399*
X05331Y04397*
X0533Y04395*
X05329Y04393*
X05328Y04391*
X05328Y04389*
X05327Y04387*
X05321*
X0532Y04389*
X0532Y04391*
X05319Y04393*
X05318Y04395*
X05317Y04397*
X05315Y04399*
X05313Y04402*
X05309Y04407*
X05306Y0441*
X05342*
X05339Y04407*
G37*
G36*
X05141Y04458D02*
X05143Y04457D01*
X05145Y04456*
X05147Y04456*
X0515Y04455*
X05152Y04455*
X05155Y04454*
X05162Y04454*
X05166Y04454*
X05141Y04428*
X05141Y04432*
X0514Y04439*
X0514Y04442*
X0514Y04445*
X05139Y04448*
X05138Y0445*
X05137Y04452*
X05136Y04453*
X05135Y04454*
X0514Y04459*
X05141Y04458*
G37*
G36*
X05063D02*
X05064Y04457D01*
X05066Y04456*
X05068Y04456*
X05071Y04455*
X05074Y04455*
X05077Y04454*
X05084Y04454*
X05088Y04454*
X05062Y04428*
X05062Y04432*
X05062Y04439*
X05061Y04442*
X05061Y04445*
X0506Y04448*
X05059Y0445*
X05059Y04452*
X05058Y04453*
X05057Y04454*
X05061Y04459*
X05063Y04458*
G37*
G36*
X05167Y05166D02*
X05164Y05169D01*
X05159Y05174*
X05157Y05176*
X05154Y05178*
X05152Y0518*
X05149Y05181*
X05147Y05182*
X05145Y05182*
X05143Y05183*
X05144Y05193*
X05146Y05193*
X05148Y05193*
X0515Y05194*
X05153Y05195*
X05155Y05196*
X05158Y05198*
X05164Y05202*
X05168Y05205*
X05171Y05208*
X05167Y05166*
G37*
G36*
X06686Y05174D02*
X06686Y05172D01*
X06686Y05171*
X06686Y05169*
X06687Y05168*
X06687Y05167*
X06688Y05167*
X06689Y05166*
X0669Y05166*
X06691Y05166*
X06671*
X06672Y05166*
X06672Y05166*
X06673Y05167*
X06674Y05167*
X06674Y05168*
X06675Y05169*
X06675Y05171*
X06675Y05172*
X06676Y05174*
X06676Y05176*
X06686*
X06686Y05174*
G37*
G36*
X04036Y05175D02*
X04035Y05175D01*
X04035Y05175*
X04035Y05174*
X04034Y05174*
X04034Y05173*
X04034Y05172*
X04034Y05171*
X04034Y0517*
X04034Y05169*
X04028*
X04027Y0517*
X04027Y05171*
X04027Y05172*
X04027Y05173*
X04027Y05174*
X04026Y05174*
X04026Y05175*
X04026Y05175*
X04025Y05175*
X04025Y05175*
X04037*
X04036Y05175*
G37*
G36*
X03831Y05175D02*
X0383Y05175D01*
X0383Y05175*
X03829Y05174*
X03829Y05173*
X03828Y05173*
X03828Y05172*
X03828Y05171*
X03828Y0517*
X03828Y05168*
X03821*
X03821Y0517*
X03821Y05171*
X03821Y05172*
X03821Y05173*
X0382Y05173*
X0382Y05174*
X03819Y05175*
X03819Y05175*
X03818Y05175*
X03818Y05175*
X03831*
X03831Y05175*
G37*
G36*
X06079Y05157D02*
X06078Y05157D01*
X06076Y05157*
X06075Y05158*
X06074Y05157*
X06072Y05157*
X06071Y05157*
X0607Y05156*
X06069Y05155*
X06067Y05154*
X06066Y05153*
X06059Y0516*
X0606Y05161*
X06061Y05163*
X06062Y05164*
X06063Y05165*
X06063Y05166*
X06063Y05168*
X06064Y05169*
X06063Y0517*
X06063Y05172*
X06063Y05173*
X06079Y05157*
G37*
G36*
X06763Y05165D02*
X06764Y05164D01*
X06765Y05164*
X06766Y05163*
X06768Y05163*
X06769Y05163*
X06772Y05163*
X06774Y05163*
X06776Y05163*
Y05153*
X06774Y05152*
X06769Y05152*
X06768Y05152*
X06766Y05152*
X06765Y05151*
X06764Y05151*
X06763Y0515*
X06762Y0515*
Y05165*
X06763Y05165*
G37*
G36*
X05942Y05168D02*
X0594Y05166D01*
X05937Y05162*
X05936Y0516*
X05935Y05159*
X05934Y05157*
X05934Y05156*
X05934Y05155*
X05934Y05154*
X05935Y05154*
X05918Y05164*
X05918Y05164*
X05919Y05164*
X05921Y05164*
X05922Y05164*
X05923Y05165*
X05925Y05166*
X05926Y05167*
X05928Y05168*
X0593Y0517*
X05932Y05172*
X05942Y05168*
G37*
G36*
X05002Y0516D02*
X05002Y05161D01*
X05001Y05161*
X05001Y05162*
X05Y05162*
X04999Y05163*
X04998Y05163*
X04997Y05163*
X04995Y05163*
X04992Y05163*
Y05173*
X04994Y05173*
X04997Y05174*
X04998Y05174*
X04999Y05174*
X05Y05174*
X05001Y05175*
X05001Y05175*
X05002Y05176*
X05002Y05176*
Y0516*
G37*
G36*
X05793Y05179D02*
X05793Y05177D01*
X05793Y05176*
X05793Y05174*
X05794Y05173*
X05794Y05172*
X05795Y05172*
X05796Y05171*
X05797Y05171*
X05798Y05171*
X05778*
X05779Y05171*
X05779Y05171*
X0578Y05172*
X05781Y05172*
X05781Y05173*
X05782Y05174*
X05782Y05176*
X05782Y05177*
X05783Y05179*
X05783Y05181*
X05793*
X05793Y05179*
G37*
G36*
X04027Y05292D02*
X04027Y05292D01*
X04026Y05293*
X04026Y05293*
X04025Y05292*
X04024Y05292*
X04023Y05292*
X04022Y05291*
X04021Y0529*
X04019Y05288*
X04016Y05293*
X04017Y05294*
X04019Y05296*
X04019Y05297*
X0402Y05298*
X0402Y05299*
X0402Y053*
X0402Y053*
X0402Y05301*
X0402Y05301*
X04027Y05292*
G37*
G36*
X03968Y05291D02*
X03968Y05291D01*
X03967Y05292*
X03967Y05292*
X03966Y05291*
X03965Y05291*
X03964Y05291*
X03963Y0529*
X03962Y05289*
X0396Y05287*
X03957Y05292*
X03958Y05293*
X0396Y05295*
X0396Y05296*
X03961Y05297*
X03961Y05298*
X03961Y05299*
X03961Y05299*
X03961Y053*
X03961Y053*
X03968Y05291*
G37*
G36*
X03823Y05295D02*
X03822Y05295D01*
X03821Y05296*
X03821Y05296*
X0382Y05296*
X03819Y05295*
X03818Y05295*
X03817Y05294*
X03816Y05293*
X03813Y0529*
X03809Y05296*
X0381Y05297*
X03812Y053*
X03813Y05301*
X03814Y05302*
X03814Y05303*
X03814Y05304*
X03814Y05304*
X03814Y05305*
X03814Y05306*
X03823Y05295*
G37*
G36*
X03763D02*
X03762Y05295D01*
X03761Y05296*
X03761Y05296*
X0376Y05296*
X03759Y05295*
X03758Y05295*
X03757Y05294*
X03756Y05293*
X03753Y0529*
X03749Y05296*
X0375Y05297*
X03752Y053*
X03753Y05301*
X03754Y05302*
X03754Y05303*
X03754Y05304*
X03754Y05304*
X03754Y05305*
X03754Y05306*
X03763Y05295*
G37*
G36*
X05428Y05215D02*
X05426Y05213D01*
X05425Y05211*
X05424Y05209*
X05423Y05206*
X05422Y05203*
X05422Y052*
X05421Y05197*
X05421Y05189*
X0542Y05185*
X05391Y05214*
X05395Y05215*
X05403Y05215*
X05406Y05216*
X05409Y05216*
X05412Y05217*
X05415Y05218*
X05417Y05219*
X05419Y0522*
X05421Y05222*
X05428Y05215*
G37*
G36*
X05107Y0518D02*
X05105Y05178D01*
X05102Y05174*
X051Y05172*
X05099Y05171*
X05099Y05169*
X05099Y05168*
X05099Y05167*
X05099Y05166*
X051Y05166*
X05082Y05176*
X05083Y05176*
X05084Y05176*
X05085Y05176*
X05087Y05176*
X05088Y05177*
X05089Y05178*
X05091Y05179*
X05093Y0518*
X05095Y05182*
X05096Y05184*
X05107Y0518*
G37*
G36*
X06328Y05215D02*
X06326Y05213D01*
X06325Y05211*
X06324Y05209*
X06323Y05206*
X06322Y05203*
X06322Y052*
X06321Y05197*
X06321Y05189*
X0632Y05185*
X06291Y05214*
X06295Y05215*
X06303Y05215*
X06306Y05216*
X06309Y05216*
X06312Y05217*
X06315Y05218*
X06317Y05219*
X06319Y0522*
X06321Y05222*
X06328Y05215*
G37*
G36*
X06162Y0522D02*
X06164Y05219D01*
X06166Y05218*
X06169Y05217*
X06172Y05216*
X06175Y05216*
X06178Y05215*
X06186Y05215*
X0619Y05214*
X06161Y05185*
X0616Y05189*
X0616Y05197*
X06159Y052*
X06159Y05203*
X06158Y05206*
X06157Y05209*
X06156Y05211*
X06155Y05213*
X06153Y05215*
X0616Y05222*
X06162Y0522*
G37*
G36*
X051Y05152D02*
X051Y05151D01*
X05101Y05151*
X05102Y05151*
X05103Y0515*
X05104Y0515*
X05104Y0515*
X05105Y0515*
X05105Y05151*
X05106Y05151*
X05106Y05151*
Y0515*
X05108Y0515*
X05112Y0515*
Y05138*
X0511Y05138*
X05106Y05138*
Y05137*
X05106Y05137*
X05105Y05137*
X05105Y05137*
X05105Y05137*
X05103Y05137*
X05102Y05137*
X05101Y05137*
X051Y05137*
X051Y05136*
X051Y05136*
Y05138*
X05099Y05138*
Y0515*
X051Y0515*
Y05152*
X051Y05152*
G37*
G36*
X05025D02*
X05026Y05151D01*
X05026Y05151*
X05027Y05151*
X05028Y0515*
X0503Y0515*
X0503Y0515*
X0503Y0515*
X05031Y0515*
X05031Y05151*
X05032Y05151*
X05032Y05151*
Y0515*
X05033Y0515*
X05037Y0515*
Y05138*
X05035Y05138*
X05032Y05138*
Y05137*
X05032Y05137*
X05031Y05137*
X05031Y05137*
X0503Y05138*
X05028Y05137*
X05027Y05137*
X05026Y05137*
X05026Y05137*
X05025Y05136*
X05025Y05136*
Y05138*
X05025Y05138*
Y0515*
X05025Y0515*
Y05152*
X05025Y05152*
G37*
G36*
X05977Y05151D02*
X05977Y0515D01*
X05977Y0515*
X05977Y0515*
X05977Y05149*
X05978Y05149*
X05979Y05147*
X0598Y05146*
X0597Y05139*
X05964Y05149*
X05977Y05151*
X05977Y05151*
G37*
G36*
X06767Y0514D02*
X06767Y0514D01*
X06768Y0514*
X06768Y0514*
X06769Y0514*
X0677Y05139*
X06771Y05139*
X06773Y05139*
X06775Y05139*
Y05138*
X06776Y05138*
X06775Y05136*
Y05127*
X06773Y05127*
X06771Y05127*
X0677Y05126*
X0677Y05126*
X0677Y05126*
X06769Y05126*
X06769Y05127*
X06769Y05127*
X06768Y05126*
X06768Y05126*
X06767Y05126*
X06767Y05126*
X06767Y05125*
Y05127*
X06767Y05127*
X06765Y05127*
X06764Y05127*
X06765Y05139*
X06767Y05139*
Y05141*
X06767Y0514*
G37*
G36*
X05776Y05106D02*
X05776Y05106D01*
X05776Y05107*
X05775Y05107*
X05774Y05108*
X05774Y05108*
X05772Y05108*
X05771Y05108*
X0577Y05109*
X05766Y05109*
Y05119*
X05768Y05119*
X05771Y05119*
X05772Y05119*
X05774Y05119*
X05774Y0512*
X05775Y0512*
X05776Y05121*
X05776Y05121*
X05776Y05122*
Y05106*
G37*
G36*
X05022Y05113D02*
X05021Y05112D01*
X05021Y05111*
X0502Y0511*
X0502Y05109*
X05019Y05108*
X05019Y05106*
X05019Y05105*
X05019Y05103*
X05019Y05101*
X05009*
X05008Y05103*
X05008Y05105*
X05008Y05106*
X05008Y05108*
X05007Y05109*
X05007Y0511*
X05006Y05111*
X05006Y05112*
X05005Y05113*
X05004Y05114*
X05023*
X05022Y05113*
G37*
G36*
X05935Y0514D02*
X05936Y05139D01*
X05936Y05139*
X05937Y05139*
X05938Y05138*
X05939Y05138*
X0594Y05138*
X0594Y05139*
X05941Y05139*
X05941Y05139*
Y05138*
X05943Y05138*
X05947Y05138*
Y05126*
X05945Y05126*
X05941Y05126*
Y05125*
X05941Y05125*
X0594Y05125*
X0594Y05125*
X0594Y05125*
X05938Y05125*
X05937Y05125*
X05936Y05125*
X05936Y05125*
X05935Y05124*
X05935Y05124*
Y05126*
X05934Y05126*
Y05138*
X05935Y05138*
Y0514*
X05935Y0514*
G37*
G36*
X051Y05127D02*
X051Y05127D01*
X05101Y05126*
X05102Y05126*
X05102Y05125*
X05104Y05125*
X05105Y05125*
X05106Y05125*
X0511Y05125*
Y05115*
X05108Y05114*
X05105Y05114*
X05104Y05114*
X05102Y05114*
X05102Y05113*
X05101Y05113*
X051Y05112*
X051Y05112*
X051Y05111*
Y05128*
X051Y05127*
G37*
G36*
X06669Y05125D02*
X06669Y05125D01*
X06669Y05126*
X06668Y05126*
X06667Y05126*
X06666Y05127*
X06665Y05127*
X06661Y05127*
X06657Y05127*
Y05127*
X06648Y05128*
X06654Y05141*
X06654Y0514*
X06654Y0514*
X06655Y0514*
X06655Y0514*
X06656Y05139*
X06657Y05139*
X06657Y05139*
X06659Y05139*
X06659*
X06666Y0514*
X06667Y0514*
X06668Y0514*
X06669Y0514*
X06669Y05141*
X06669Y05141*
Y05125*
G37*
G36*
X05521Y0518D02*
X05521Y05172D01*
X05522Y05169*
X05522Y05166*
X05523Y05163*
X05524Y0516*
X05525Y05158*
X05526Y05156*
X05528Y05154*
X05521Y05147*
X05519Y05149*
X05517Y0515*
X05515Y05151*
X05512Y05152*
X05509Y05153*
X05506Y05153*
X05503Y05154*
X05495Y05154*
X05491Y05155*
X0552Y05184*
X05521Y0518*
G37*
G36*
X0529Y05155D02*
X05286Y05154D01*
X05278Y05154*
X05275Y05153*
X05272Y05153*
X05269Y05152*
X05266Y05151*
X05264Y0515*
X05262Y05149*
X0526Y05147*
X05253Y05154*
X05255Y05156*
X05256Y05158*
X05257Y0516*
X05258Y05163*
X05259Y05166*
X05259Y05169*
X0526Y05172*
X0526Y0518*
X05261Y05184*
X0529Y05155*
G37*
G36*
X0601Y05164D02*
X0601Y05163D01*
X06011Y05163*
X06012Y05162*
X06012Y05162*
X06014Y05162*
X06015Y05162*
X06016Y05161*
X0602Y05161*
Y05151*
X06018Y05151*
X06015Y05151*
X06014Y05151*
X06012Y05151*
X06012Y0515*
X06011Y0515*
X0601Y05149*
X0601Y05149*
X0601Y05148*
Y05164*
X0601Y05164*
G37*
G36*
X06421Y0518D02*
X06421Y05172D01*
X06422Y05169*
X06422Y05166*
X06423Y05163*
X06424Y0516*
X06425Y05158*
X06426Y05156*
X06428Y05154*
X06421Y05147*
X06419Y05149*
X06417Y0515*
X06415Y05151*
X06412Y05152*
X06409Y05153*
X06406Y05153*
X06403Y05154*
X06395Y05154*
X06391Y05155*
X0642Y05184*
X06421Y0518*
G37*
G36*
X05776Y0513D02*
X05776Y0513D01*
X05776Y05131*
X05775Y05131*
X05774Y05131*
X05773Y05132*
X05772Y05132*
X0577Y05132*
X05769Y05132*
X05769Y05132*
X05768Y05132*
X05768Y05131*
X05767Y05131*
X05767Y05131*
Y05132*
X05764Y05132*
Y05144*
X05766Y05144*
X05767Y05144*
Y05145*
X05767Y05145*
X05768Y05145*
X05768Y05145*
X05769Y05144*
X05769Y05144*
X05769*
X05773Y05145*
X05774Y05145*
X05775Y05145*
X05776Y05145*
X05776Y05146*
X05776Y05146*
Y0513*
G37*
G36*
X05851D02*
X05851Y0513D01*
X0585Y05131*
X0585Y05131*
X05849Y05131*
X05848Y05131*
X05845Y05131*
X05844Y05131*
X05843Y05131*
X05843Y05131*
X05842Y05131*
X05842Y05131*
X05842Y0513*
Y05131*
X05841Y05131*
X05839Y05132*
Y05143*
X05841Y05144*
X05842Y05144*
Y05145*
X05842Y05144*
X05842Y05144*
X05843Y05144*
X05843Y05144*
X05844Y05144*
X05844Y05144*
X05846Y05144*
X05848Y05144*
X05849Y05144*
X0585Y05145*
X0585Y05145*
X05851Y05146*
X05851Y05146*
Y0513*
G37*
G36*
X0416Y05154D02*
X04159Y05153D01*
X04159Y05152*
X04158Y05151*
X04158Y0515*
X04157Y0515*
X04157Y05149*
X04157Y05148*
X04157Y05147*
X04157Y05146*
X0415*
X0415Y05147*
X0415Y05148*
X0415Y05149*
X0415Y0515*
X04149Y0515*
X04149Y05151*
X04148Y05152*
X04148Y05153*
X04147Y05154*
X04147Y05154*
X04161*
X0416Y05154*
G37*
G36*
X04212Y05153D02*
X04211Y05152D01*
X04211Y05151*
X0421Y0515*
X0421Y05149*
X04209Y05149*
X04209Y05148*
X04209Y05147*
X04209Y05146*
X04209Y05145*
X04202*
X04202Y05146*
X04202Y05147*
X04202Y05148*
X04202Y05149*
X04201Y05149*
X04201Y0515*
X042Y05151*
X042Y05152*
X04199Y05153*
X04199Y05153*
X04213*
X04212Y05153*
G37*
G36*
X04837Y03735D02*
X04836Y03735D01*
X04836Y03736*
X04835Y03736*
X04835Y03736*
X04834Y03737*
X04834Y03737*
X04833Y03737*
X04832Y03737*
X04831Y03737*
X0483Y03737*
Y03744*
X04831Y03744*
X04832Y03744*
X04833Y03744*
X04834Y03744*
X04834Y03744*
X04835Y03745*
X04835Y03745*
X04836Y03745*
X04836Y03746*
X04837Y03746*
Y03735*
G37*
G36*
X04957Y03734D02*
X04956Y03734D01*
X04956Y03733*
X04956Y03733*
X04955Y03732*
X04955Y03732*
X04955Y03731*
X04955Y0373*
X04955Y03729*
X04955Y03728*
X04948*
X04948Y03729*
X04948Y0373*
X04948Y03731*
X04948Y03732*
X04948Y03732*
X04947Y03733*
X04947Y03733*
X04947Y03734*
X04946Y03734*
X04946Y03735*
X04957*
X04957Y03734*
G37*
G36*
X03573Y03791D02*
X03574Y0379D01*
X03574Y03789*
X03575Y03789*
X03576Y03788*
X03577Y03788*
X03578Y03787*
X0358Y03787*
X03581Y03787*
X03583Y03787*
Y03777*
X03581Y03777*
X0358Y03777*
X03578Y03777*
X03577Y03776*
X03576Y03776*
X03575Y03775*
X03574Y03775*
X03574Y03774*
X03573Y03773*
X03573Y03772*
Y03792*
X03573Y03791*
G37*
G36*
X03629Y03782D02*
X03631Y0378D01*
X03632Y0378*
X03632Y0378*
X03632Y0378*
X03632Y03779*
X03625Y03772*
X03624Y03772*
X03624Y03772*
X03624Y03772*
X03624Y03773*
X03624Y03773*
X03623Y03774*
X03621Y03776*
X03628Y03783*
X03629Y03782*
G37*
G36*
X03566Y03718D02*
X03567Y03718D01*
X03567Y03718*
X03567Y03718*
X03568Y03718*
X03569Y03718*
X03572Y03718*
Y03708*
X03571Y03707*
X03567Y03707*
X03567Y03707*
X03567Y03707*
X03566Y03707*
X03566Y03707*
Y03718*
X03566Y03718*
G37*
G36*
X03631Y03711D02*
X03631Y0371D01*
X03631Y0371*
X03632Y0371*
X03632Y03709*
X03633Y03709*
X03633Y03709*
X03634Y03709*
X03634Y0371*
X03635Y0371*
X03635Y03711*
X03636Y03711*
Y03709*
X03636Y03709*
X03637Y03709*
Y03703*
X03636Y03702*
X03636Y03702*
Y037*
X03635Y037*
X03635Y03701*
X03634Y03701*
X03634Y03702*
X03633Y03702*
X03633Y03702*
X03632Y03702*
X03632Y03701*
X03631Y03701*
X03631Y03701*
X03631Y037*
X03631Y037*
Y03702*
X03631Y03702*
X0363Y03702*
X03629Y03703*
Y03709*
X0363Y03709*
X03631Y03709*
X03631Y03709*
Y03712*
X03631Y03711*
G37*
G36*
X0492Y03734D02*
X0492Y03734D01*
X0492Y03733*
X04919Y03733*
X04919Y03732*
X04919Y03732*
X04919Y03731*
X04919Y0373*
X04919Y03729*
X04919Y03728*
X04912*
X04912Y03729*
X04912Y0373*
X04912Y03731*
X04911Y03732*
X04911Y03732*
X04911Y03733*
X04911Y03733*
X0491Y03734*
X0491Y03734*
X0491Y03735*
X04921*
X0492Y03734*
G37*
G36*
X04884Y03735D02*
X04884Y03734D01*
X04883Y03734*
X04883Y03733*
X04883Y03733*
X04883Y03732*
X04882Y03731*
X04882Y03731*
X04882Y0373*
X04882Y03729*
X04882Y03728*
X04875Y03729*
X04875Y03729*
X04875Y0373*
X04875Y03731*
X04875Y03732*
X04875Y03732*
X04874Y03733*
X04874Y03734*
X04874Y03734*
X04873Y03735*
X04873Y03735*
X04884Y03735*
G37*
G36*
X03671Y03806D02*
X03708D01*
X03706Y03806*
X03704Y03806*
X03702Y03805*
X03699Y03803*
X03696Y03801*
X03693Y03799*
X03686Y03794*
X03682Y0379*
X03681Y03789*
X03682Y03787*
X03682Y03784*
X03683Y03782*
X03683Y0378*
X03684Y03778*
X03685Y03777*
X03686Y03776*
X03688Y03776*
X03689Y03775*
X03654*
X03655Y03776*
X03656Y03776*
X03658Y03777*
X03659Y03778*
X03659Y0378*
X0366Y03782*
X03661Y03784*
X03661Y03787*
X03661Y0379*
X03661Y03793*
X03671*
X03664Y038*
X03666Y03802*
X03671Y03806*
X03671Y03807*
X03671Y03806*
G37*
G36*
X04021Y03827D02*
X04021Y03827D01*
X04021Y03826*
X04021Y03823*
X04021Y03817*
X04011*
X0401Y03827*
X04021*
X04021Y03827*
G37*
G36*
X03732Y03808D02*
X03732Y03809D01*
X03732Y0381*
X03731Y03811*
X03731Y03811*
X0373Y03812*
X03729Y03812*
X03727Y03813*
X03726Y03813*
X03724Y03813*
X03722Y03813*
Y03823*
X03724Y03823*
X03727Y03823*
X03728Y03824*
X0373Y03824*
X0373Y03824*
X03731Y03825*
X03732Y03825*
X03732Y03826*
X03732Y03826*
X03732Y03808*
G37*
G36*
X03708Y03827D02*
X03709Y03826D01*
X03709Y03826*
X0371Y03825*
X03711Y03824*
X03712Y03824*
X03713Y03824*
X03715Y03823*
X03716Y03823*
X03718Y03823*
X03718Y03823*
Y03813*
X03718*
X03716Y03813*
X03715Y03813*
X03713Y03813*
X03712Y03812*
X03711Y03812*
X0371Y03811*
X03709Y03811*
X03709Y0381*
X03708Y03809*
X03708Y03808*
Y03813*
X037Y03812*
X03698Y03812*
X03697Y03811*
X03697Y03811*
Y03825*
X03697Y03825*
X03698Y03824*
X037Y03824*
X03701Y03824*
X03706Y03823*
X03708Y03823*
Y03828*
X03708Y03827*
G37*
G36*
X04481Y03824D02*
X04481Y03824D01*
X0448Y03824*
X0448Y03824*
X0448Y03823*
X04479Y03822*
X04479Y03822*
X04479Y03821*
X04479Y0382*
X04479Y03819*
X04473*
X04473Y0382*
X04473Y03821*
X04473Y03822*
X04472Y03822*
X04472Y03823*
X04472Y03824*
X04471Y03824*
X04471Y03824*
X0447Y03824*
X0447Y03825*
X04482*
X04481Y03824*
G37*
G36*
X04023Y03968D02*
X03983D01*
X03974Y03959*
Y03805*
X03895*
Y04035*
X04023*
Y03968*
G37*
G36*
X04048Y03814D02*
X04052Y03811D01*
X04054Y0381*
X04055Y03809*
X04056Y03809*
X04057Y03809*
X04058Y03809*
X04059Y0381*
X0406Y03811*
X04051Y03786*
X04051Y03787*
X04051Y03789*
X04051Y0379*
X0405Y03792*
X0405Y03794*
X04049Y03795*
X04047Y03797*
X04046Y03799*
X04044Y03801*
X04042Y03803*
X04046Y03816*
X04048Y03814*
G37*
G36*
X05193Y0381D02*
X05192Y03809D01*
X05191Y03809*
X0519Y03809*
X05189Y03809*
X05188Y03809*
X05188Y03808*
X05187Y03808*
X05186Y03808*
X05185Y03807*
X05185Y03806*
X0518Y03811*
X05181Y03811*
X05182Y03812*
X05182Y03813*
X05182Y03814*
X05183Y03814*
X05183Y03815*
X05183Y03816*
X05183Y03817*
X05183Y03818*
X05184Y03819*
X05193Y0381*
G37*
G36*
X03575Y03828D02*
X03593Y03828D01*
Y03808*
X03589Y03808*
X03578Y03807*
X03576Y03807*
X03575Y03806*
X03574Y03806*
X03573Y03805*
X03573Y03805*
Y03807*
X03573Y03807*
X03572Y03808*
X0357Y03808*
X03567Y03808*
X03562Y03808*
Y03828*
X03565Y03828*
X03573Y03829*
X03574Y03829*
X03574Y03829*
X03575Y03829*
X03575Y0383*
Y03828*
G37*
G36*
X05156Y03447D02*
X05156Y03447D01*
X05156Y03448*
X05155Y03449*
X05155Y03449*
X05154Y0345*
X05153Y0345*
X05152Y0345*
X05151Y0345*
X05149Y0345*
X05148Y03451*
Y03459*
X05149Y03459*
X05151Y03459*
X05152Y03459*
X05153Y03459*
X05154Y0346*
X05155Y0346*
X05155Y0346*
X05156Y03461*
X05156Y03462*
X05156Y03463*
Y03447*
G37*
G36*
X05287Y03445D02*
X05204D01*
X05202Y0345*
X05202Y03451*
X05203Y03455*
X05202Y03458*
X052Y03462*
X05197Y03464*
X05193Y03465*
X05161*
Y03503*
X05161Y03504*
X05287*
Y03445*
G37*
G36*
X04752Y03451D02*
X04752Y03451D01*
X04751Y03451*
X04751Y03452*
X04751Y03452*
X0475Y03452*
X04749Y03452*
X04748Y03452*
X04746Y03452*
X04745Y03453*
Y03461*
X04746Y03461*
X04749Y03461*
X0475Y03461*
X04751Y03461*
X04751Y03461*
X04751Y03462*
X04752Y03462*
X04752Y03462*
Y03451*
G37*
G36*
X05138Y03461D02*
X05139Y0346D01*
X0514Y0346*
X0514Y0346*
X05141Y03459*
X05142Y03459*
X05143Y03459*
X05144Y03459*
X05145Y03459*
X05146Y03459*
Y03451*
X05145Y0345*
X05144Y0345*
X05143Y0345*
X05142Y0345*
X05141Y0345*
X0514Y03449*
X0514Y03449*
X05139Y03449*
X05138Y03448*
X05138Y03448*
Y03462*
X05138Y03461*
G37*
G36*
X04448Y03411D02*
X04448Y0341D01*
X04446Y03408*
X04445Y03408*
X04445Y03407*
X04445Y03407*
X04445Y03406*
X04444Y03406*
X04444Y03405*
X04434Y03414*
X04434Y03415*
X04434Y03415*
X04435Y03415*
X04435Y03415*
X04436Y03416*
X04438Y03417*
X04439Y03419*
X04448Y03411*
G37*
G36*
X04811Y03395D02*
X0481Y03395D01*
X04809Y03395*
X04809Y03394*
X04809Y03394*
X04809Y03394*
X04808Y03394*
X04809Y03393*
X04809Y03393*
X04809Y03392*
X04801Y03389*
X048Y0339*
X04798Y03392*
X04797Y03393*
X04796Y03393*
X04795Y03394*
X04794Y03394*
X04793Y03395*
X04792Y03395*
X04791Y03395*
X04812*
X04811Y03395*
G37*
G36*
X04723Y03449D02*
X04723Y03449D01*
X04723Y03448*
X04724Y03448*
X04725Y03448*
X04725Y03448*
X04726Y03448*
X04727Y03448*
X04728Y03448*
Y0344*
X04727Y03439*
X04726Y03439*
X04725Y03439*
X04725Y03439*
X04724Y03439*
X04723Y03439*
X04723Y03438*
X04723Y03438*
X04722Y03438*
Y03449*
X04723Y03449*
G37*
G36*
X04505Y03407D02*
X04505Y03407D01*
X04505Y03408*
X04504Y03408*
X04504Y03409*
X04503Y03409*
X04503Y03409*
X04502Y0341*
X04501Y0341*
X045Y0341*
X04499Y0341*
X04498Y0341*
X04497Y0341*
X04496Y0341*
X04495Y03409*
X04495Y03409*
X04494Y03409*
X04494Y03408*
X04493Y03408*
X04493Y03407*
X04493Y03407*
Y03419*
X04493Y03418*
X04493Y03418*
X04494Y03417*
X04494Y03417*
X04495Y03417*
X04495Y03416*
X04496Y03416*
X04497Y03416*
X04498Y03416*
X04499Y03416*
X045Y03416*
X04501Y03416*
X04502Y03416*
X04503Y03416*
X04503Y03417*
X04504Y03417*
X04504Y03417*
X04505Y03418*
X04505Y03418*
X04505Y03419*
Y03407*
G37*
G36*
X04161Y03465D02*
X04161Y03464D01*
X04161Y03463*
X04161Y03463*
X04161Y03462*
X04161Y03461*
X04162Y03461*
X04162Y0346*
X04163Y0346*
X04163Y03459*
X04159Y03455*
X04158Y03455*
X04158Y03456*
X04157Y03456*
X04157Y03457*
X04156Y03457*
X04155Y03457*
X04155Y03457*
X04154Y03457*
X04153Y03457*
X04153Y03458*
X0416Y03465*
X04161Y03465*
G37*
G36*
X04065Y0355D02*
X04065Y03549D01*
X04065Y03548*
X04065Y03547*
X04065Y03547*
X04066Y03546*
X04066Y03546*
X04066Y03545*
X04067Y03545*
X04067Y03544*
X04056*
X04056Y03545*
X04057Y03545*
X04057Y03546*
X04057Y03546*
X04058Y03547*
X04058Y03547*
X04058Y03548*
X04058Y03549*
X04058Y0355*
X04058Y03551*
X04065*
X04065Y0355*
G37*
G36*
X04034Y03549D02*
X04034Y03548D01*
X04035Y03546*
X04035Y03545*
X04035Y03544*
X04035Y03544*
X04035Y03543*
X04036Y03543*
X04025Y03546*
X04025Y03546*
X04026Y03547*
X04026Y03547*
X04027Y03548*
X04027Y03548*
X04027Y03549*
X04027Y03549*
X04027Y0355*
X04028Y03551*
X04028Y03552*
X04034Y03549*
G37*
G36*
X01563Y03671D02*
X01561Y03669D01*
X01561Y03669*
X0156Y03668*
X0156Y03667*
X0156Y03666*
X01559Y03666*
X01559Y03665*
X01559Y03664*
X01559Y03663*
X01559Y03662*
X01558Y03661*
X01556Y03663*
X01555Y03662*
X01555Y03661*
X01555Y03661*
X01555Y0366*
X01548Y03667*
X01549Y03667*
X01549Y03667*
X0155Y03667*
X01551Y03668*
X01551Y03668*
X01549Y0367*
X0155Y03671*
X01551Y03671*
X01552Y03671*
X01553Y03671*
X01554Y03671*
X01554Y03672*
X01555Y03672*
X01556Y03672*
X01557Y03673*
X01557Y03673*
X01559Y03675*
X01563Y03671*
G37*
G36*
X03993Y03555D02*
X03993Y03554D01*
X03993Y03553*
X03993Y03553*
X03993Y03552*
X03994Y03551*
X03994Y03551*
X03994Y03551*
X03995Y0355*
X03995Y0355*
X03985Y03547*
X03985Y03547*
X03985Y03548*
X03985Y03548*
X03985Y03549*
X03986Y03549*
X03986Y03551*
X03986Y03552*
X03986Y03553*
X03993Y03556*
X03993Y03555*
G37*
G36*
X04232Y03544D02*
X04232Y03544D01*
X04233Y03543*
X04234Y03543*
X04234Y03543*
X04235Y03542*
X04235Y03542*
X04236Y03542*
X04237Y03542*
X04238Y03542*
Y03536*
X04237Y03536*
X04236Y03536*
X04235Y03536*
X04235Y03535*
X04234Y03535*
X04234Y03535*
X04233Y03535*
X04232Y03534*
X04232Y03534*
X04231Y03533*
Y03544*
X04232Y03544*
G37*
G36*
X04526Y0347D02*
X04526Y0346D01*
X04526Y0346*
X04505*
X04505Y0346*
X04505Y03461*
X04505Y03461*
X04505Y03462*
X04505Y03464*
X04506Y03472*
X04526*
X04526Y0347*
G37*
G36*
X04197Y03545D02*
X04196Y03545D01*
X04196Y03544*
X04195Y03544*
X04195Y03543*
X04195Y03542*
X04195Y03542*
X04194Y03541*
X04194Y0354*
X04194Y0354*
X04194Y03539*
X04186Y03547*
X04187Y03547*
X04188Y03547*
X04188Y03547*
X04189Y03547*
X0419Y03548*
X0419Y03548*
X04191Y03548*
X04192Y03549*
X04192Y03549*
X04193Y0355*
X04197Y03545*
G37*
G36*
X04158D02*
X04157Y03545D01*
X04157Y03544*
X04156Y03544*
X04156Y03543*
X04155Y03542*
X04155Y03542*
X04155Y03541*
X04155Y0354*
X04155Y0354*
X04155Y03539*
X04147Y03547*
X04148Y03547*
X04148Y03547*
X04149Y03547*
X0415Y03547*
X0415Y03548*
X04151Y03548*
X04152Y03548*
X04152Y03549*
X04153Y03549*
X04153Y0355*
X04158Y03545*
G37*
G36*
X0443Y03959D02*
X04411Y0394D01*
Y03825*
X04376Y03824*
X04372Y03828*
X04373Y0399*
X0443*
Y03959*
G37*
G36*
X03607Y04036D02*
X03607Y04036D01*
X03607Y04037*
X03606Y04037*
X03606Y04037*
X03605Y04038*
X03605Y04038*
X03604Y04038*
X03603Y04038*
X03602Y04038*
X03601Y04038*
X036Y04038*
X03599Y04038*
X03598Y04038*
X03597Y04038*
X03597Y04038*
X03596Y04037*
X03596Y04037*
X03595Y04037*
X03595Y04036*
X03595Y04036*
Y04048*
X03595Y04047*
X03595Y04046*
X03596Y04046*
X03596Y04046*
X03597Y04045*
X03597Y04045*
X03598Y04045*
X03599Y04045*
X036Y04045*
X03601Y04045*
X03602Y04045*
X03603Y04045*
X03604Y04045*
X03605Y04045*
X03605Y04045*
X03606Y04046*
X03606Y04046*
X03607Y04046*
X03607Y04047*
X03607Y04048*
Y04036*
G37*
G36*
X04993Y04044D02*
X04993Y04043D01*
X04993Y04043*
X04993Y04043*
X04992Y04043*
X04992Y04043*
X04991Y04042*
X04989Y0404*
X04982Y04047*
X04983Y04048*
X04985Y0405*
X04985Y04051*
X04985Y04051*
X04985Y04051*
X04986Y04051*
X04993Y04044*
G37*
G36*
X03654Y04068D02*
X03653Y04069D01*
X03652Y0407*
X03652Y0407*
X03651Y04071*
X0365Y04071*
X03649Y04072*
X03648Y04072*
X03648Y04072*
X03647Y04072*
X03646Y04072*
X03646Y04078*
X03647Y04078*
X03648Y04078*
X03649Y04079*
X0365Y04079*
X03651Y04079*
X03651Y0408*
X03652Y0408*
X03653Y04081*
X03654Y04081*
X03655Y04082*
X03654Y04068*
G37*
G36*
X03574Y04065D02*
X03574Y04066D01*
X03574Y04067*
X03573Y04068*
X03572Y04068*
X03571Y04069*
X0357Y04069*
X03569Y0407*
X03567Y0407*
X03566Y0407*
X03564Y0407*
Y0408*
X03566Y0408*
X03567Y0408*
X03569Y04081*
X0357Y04081*
X03571Y04082*
X03572Y04082*
X03573Y04083*
X03574Y04083*
X03574Y04084*
X03574Y04085*
Y04065*
G37*
G36*
X05192Y0396D02*
X05191Y03959D01*
X05189Y03959*
X05188Y03959*
X05187Y03958*
X05186Y03958*
X05185Y03957*
X05184Y03957*
X05184Y03956*
X05183Y03956*
X05178Y03959*
X05179Y0396*
X05179Y03961*
X0518Y03962*
X0518Y03962*
X0518Y03963*
X05181Y03964*
X05181Y03965*
X05181Y03966*
X05181Y03967*
X05181Y03968*
X05192Y0396*
G37*
G36*
X03558Y03963D02*
X03559Y03963D01*
X03559Y03963*
X0356Y03963*
X03561Y03962*
X03562Y03962*
X03566Y03962*
X0357Y03962*
Y03942*
X03568Y03942*
X03561Y03942*
X0356Y03941*
X03559Y03941*
X03559Y03941*
X03558Y03941*
X03558Y0394*
Y03964*
X03558Y03963*
G37*
G36*
X03574Y04036D02*
X03574Y04036D01*
X03574Y04037*
X03573Y04037*
X03573Y04037*
X03572Y04038*
X03572Y04038*
X03571Y04038*
X0357Y04038*
X03569Y04038*
X03568Y04039*
Y04045*
X03569Y04045*
X0357Y04045*
X03571Y04045*
X03572Y04045*
X03572Y04045*
X03573Y04046*
X03573Y04046*
X03574Y04046*
X03574Y04047*
X03574Y04048*
Y04036*
G37*
G36*
X04924Y04027D02*
X04924Y04026D01*
X04924Y04026*
X04924Y04026*
X04923Y04026*
X04923Y04026*
X04922Y04025*
X0492Y04023*
X04913Y0403*
X04914Y04031*
X04916Y04033*
X04916Y04034*
X04916Y04034*
X04916Y04034*
X04917Y04034*
X04924Y04027*
G37*
G36*
X03628Y04081D02*
X03628Y0408D01*
X03629Y0408*
X03629Y04079*
X0363Y04079*
X0363Y04079*
X03631Y04079*
X03632Y04078*
X03633Y04078*
X03634Y04078*
Y04072*
X03633Y04072*
X03632Y04072*
X03631Y04072*
X0363Y04072*
X0363Y04072*
X03629Y04071*
X03629Y04071*
X03628Y0407*
X03628Y0407*
X03628Y04069*
Y04081*
X03628Y04081*
G37*
G36*
X02038Y04262D02*
X02039Y04262D01*
X02041Y04262*
X02043Y04261*
X02046Y04261*
X02054Y04261*
Y04241*
X0205Y04241*
X02043Y0424*
X02041Y0424*
X02039Y04239*
X02038Y04239*
Y0423*
X0195*
X01949Y04398*
X01953Y04402*
X02038*
Y04262*
G37*
G36*
X03434Y0413D02*
X03433Y04129D01*
X03307*
Y04197*
X03434*
Y0413*
G37*
G36*
X03438Y04243D02*
X0335D01*
X03349Y04249*
X03348Y04249*
X03345Y04249*
X03342Y0425*
X03335Y0425*
Y0427*
X03339Y0427*
X03345Y0427*
X03348Y04271*
X03349Y04271*
X03349Y04411*
X03353Y04415*
X03438*
Y04243*
G37*
G36*
X05198Y04245D02*
X05197Y04245D01*
X05197Y04245*
X05197Y04245*
X05194Y04242*
X0519Y04238*
X05184Y04242*
X05185Y04243*
X05187Y04245*
X05188Y04246*
X05188Y04247*
X05188Y04248*
X05188Y04248*
X05188Y04249*
X05188Y04249*
X05187Y0425*
X05198Y04245*
G37*
G36*
X02089Y04121D02*
X01954D01*
X01953Y04122*
Y04189*
X02089*
Y04121*
G37*
G36*
X03468Y04129D02*
X03467Y04129D01*
X03467Y04128*
X03466Y04127*
X03465Y04126*
X03465Y04125*
X03465Y04124*
X03464Y04122*
X03464Y04121*
X03464Y04119*
X03454*
X03454Y04121*
X03454Y04122*
X03454Y04124*
X03453Y04125*
X03453Y04126*
X03452Y04127*
X03452Y04128*
X03451Y04129*
X0345Y04129*
X03449Y04129*
X03469*
X03468Y04129*
G37*
G36*
X03543Y04129D02*
X03539Y04125D01*
X0348*
X03477Y04128*
X03476Y0413*
X03475Y04132*
X03474Y04134*
X03474Y04134*
X03473Y04134*
X03473Y04134*
X03471Y04135*
X03471Y04135*
X03471Y04135*
X03471Y04135*
X0347Y04135*
Y04139*
X0347Y04144*
X03467Y04147*
X03464Y0415*
X03459Y04151*
X03455Y0415*
X03451Y04147*
X03449Y04145*
X03446Y04145*
X03444Y04145*
Y04311*
X03496*
Y04562*
X0344*
Y04755*
X03543*
Y04129*
G37*
G36*
X01937Y04748D02*
Y04566D01*
X01885Y04566*
Y04307*
X01937*
X0194Y04303*
Y04122*
X01838*
Y04748*
X01842Y04751*
X01933*
X01937Y04748*
G37*
G36*
X03671Y03844D02*
X03657Y03844D01*
Y03864*
X0366Y03864*
X03666Y03864*
X03668Y03865*
X03669Y03865*
X0367Y03865*
X03671Y03866*
X03671Y03867*
X03671Y03867*
Y03844*
G37*
G36*
X0492Y03832D02*
X0492Y03829D01*
X0492Y03828*
X04921Y03828*
X04921Y03828*
X04921Y03828*
X0491*
X0491Y03828*
X0491Y03828*
X0491Y03828*
X0491Y03829*
X0491Y03829*
X0491Y0383*
X0491Y03833*
X0492*
X0492Y03832*
G37*
G36*
X04052Y03875D02*
X04051Y03875D01*
X0405Y03874*
X0405Y03873*
X04049Y03872*
X04048Y03871*
X04048Y03869*
X04048Y03867*
X04048Y03865*
X04047Y03863*
X04035*
X04035Y03865*
X04035Y03867*
X04035Y03869*
X04035Y03871*
X04034Y03872*
X04033Y03873*
X04033Y03874*
X04032Y03875*
X04031Y03875*
X04029Y03875*
X04053*
X04052Y03875*
G37*
G36*
X05188Y0386D02*
X05187Y03859D01*
X05186Y03859*
X05185Y03859*
X05184Y03859*
X05183Y03859*
X05183Y03858*
X05182Y03858*
X05181Y03858*
X0518Y03857*
X0518Y03856*
X05175Y03861*
X05176Y03861*
X05177Y03862*
X05177Y03863*
X05177Y03864*
X05178Y03864*
X05178Y03865*
X05178Y03866*
X05178Y03867*
X05178Y03868*
X05179Y03869*
X05188Y0386*
G37*
G36*
X03747Y03843D02*
X03746Y03842D01*
X03746Y03842*
X03745Y03841*
X03744Y0384*
X03744Y03839*
X03744Y03838*
X03743Y03836*
X03743Y03835*
X03743Y03834*
X03743Y03834*
X03743Y03833*
X03744Y03831*
X03744Y0383*
X03744Y03829*
X03745Y03828*
X03746Y03827*
X03746Y03827*
X03747Y03826*
X03748Y03826*
X03732Y03826*
X03732Y03826*
X03732Y03827*
X03733Y03827*
X03733Y03828*
X03733Y03829*
X03733Y03831*
X03733Y03835*
X03733Y03841*
X03733Y03842*
X03732Y03842*
X03732Y03843*
X03732Y03843*
X03748*
X03747Y03843*
G37*
G36*
X03554Y03846D02*
X03554Y03845D01*
X03555Y03844*
X03555Y03843*
X03555Y03839*
X03555Y03826*
X03535*
X03535Y0383*
X03534Y03839*
X03534Y03841*
X03534Y03843*
X03533Y03844*
X03532Y03845*
X03531Y03846*
X03531Y03846*
X03554*
X03554Y03846*
G37*
G36*
X04123Y04038D02*
Y04019D01*
X04124Y04012*
X04128Y04007*
X04133Y04003*
X0414Y04002*
X04146Y04003*
X04149Y04006*
X04154Y04004*
Y03827*
X04083*
Y03962*
X04074Y03971*
X04034*
Y04038*
X04123*
G37*
G36*
X04957Y03831D02*
X04957Y03827D01*
X04957Y03827*
X04957Y03827*
X04957Y03826*
X04957Y03826*
X04946*
X04946Y03826*
X04946Y03827*
X04946Y03827*
X04946Y03827*
X04946Y03828*
X04946Y03829*
X04947Y03832*
X04957*
X04957Y03831*
G37*
G36*
X03765Y03904D02*
X03766Y03904D01*
X03767Y03904*
X03768Y03904*
X0377Y03903*
X03778Y03903*
X03785Y03903*
Y03884*
X0379*
X0379Y03864*
X03767*
X03767Y03864*
X03768Y03865*
X03768Y03866*
X03769Y03867*
X03769Y03869*
X0377Y03871*
X0377Y03877*
X0377Y03882*
X03766Y03882*
X03765Y03882*
X03765Y03881*
Y03905*
X03765Y03904*
G37*
G36*
X03726Y03903D02*
X03728Y03903D01*
Y03883*
X03726Y03883*
Y03881*
X03726Y03882*
X03725Y03882*
X03724Y03882*
X03723Y03882*
X0372Y03883*
X03709Y03882*
X03709Y03882*
X03708Y03881*
Y03883*
X03706Y03883*
Y03903*
X03708Y03903*
Y03905*
X03709Y03904*
X03709Y03904*
X0371Y03904*
X03712Y03904*
X03713Y03903*
X03715Y03903*
X03724Y03904*
X03725Y03904*
X03726Y03904*
X03726Y03905*
Y03903*
G37*
G36*
X05191Y0391D02*
X0519Y03909D01*
X05189Y03909*
X05188Y03909*
X05187Y03909*
X05186Y03909*
X05186Y03908*
X05185Y03908*
X05184Y03908*
X05183Y03907*
X05183Y03906*
X05178Y03911*
X05179Y03911*
X0518Y03912*
X0518Y03913*
X0518Y03914*
X05181Y03914*
X05181Y03915*
X05181Y03916*
X05181Y03917*
X05181Y03918*
X05182Y03919*
X05191Y0391*
G37*
G36*
X03726Y0394D02*
X03726Y03941D01*
X03725Y03941*
X03725Y03941*
X03724Y03942*
X03722Y03942*
X03721Y03942*
X03717Y03942*
X03712Y03942*
Y03962*
X03715Y03962*
X03725Y03963*
X03725Y03963*
X03726Y03963*
X03726Y03964*
Y0394*
G37*
G36*
X04496Y03904D02*
X04493Y03901D01*
X04458*
Y0394*
X04439Y03959*
Y0399*
X04496*
Y03904*
G37*
G36*
X06438Y03879D02*
X06437Y03879D01*
X06437Y03879*
X06437Y03878*
X06437Y03878*
X06436Y03878*
X06436Y03877*
X06436Y03876*
X06436Y03875*
X06436Y03875*
X06437Y03875*
X06437Y03875*
X06438Y03874*
X06438Y03874*
X06439Y03873*
X0644Y03873*
X0644Y03873*
X06441Y03873*
X06442Y03873*
X06443Y03873*
X06443Y03872*
X06436Y03865*
X06435Y03865*
X06435Y03866*
X06435Y03867*
X06435Y03868*
X06435Y03868*
X06435Y03869*
X06434Y0387*
X06434Y0387*
X06433Y03871*
X06433Y03872*
X06436Y03875*
X06431*
X06431Y03875*
X06431Y03876*
X06431Y03877*
X06431Y03878*
X0643Y03878*
X0643Y03878*
X0643Y03879*
X0643Y03879*
X06429Y03879*
X06429Y03879*
X06438*
X06438Y03879*
G37*
G36*
X03558Y03904D02*
X03559Y03904D01*
X0356Y03904*
X03561Y03904*
X03563Y03903*
X03564Y03903*
X03574Y03904*
X03574Y03904*
X03575Y03905*
Y03903*
X03578Y03903*
Y03883*
X03575Y03883*
Y03881*
X03574Y03882*
X03574Y03882*
X03573Y03882*
X03571Y03882*
X0357Y03883*
X03569Y03883*
X03559Y03882*
X03558Y03882*
X03558Y03881*
Y03883*
X03555Y03883*
Y03903*
X03558Y03903*
Y03905*
X03558Y03904*
G37*
G36*
X03519Y03881D02*
X03519Y03881D01*
X03518Y03882*
X03518Y03882*
X03517Y03882*
X03516Y03882*
X03517Y03872*
X03517Y0387*
X03518Y03869*
X03518Y03868*
X03519Y03867*
X03519Y03867*
X03496*
X03496Y03867*
X03496Y03868*
X03496Y03887*
X03506*
Y03902*
X03508Y03902*
X03514Y03903*
X03516Y03903*
X03517Y03903*
X03518Y03903*
X03518Y03904*
X03519Y03904*
X03519Y03905*
Y03881*
G37*
%LNatfc_copper_signal_bot-2*%
%LPC*%
G36*
X03507Y04692D02*
X03502Y04691D01*
X03497Y04688*
X03494Y04683*
X03493Y04678*
X03494Y04673*
X03497Y04668*
X03502Y04665*
X03507Y04664*
X03512Y04665*
X03517Y04668*
X0352Y04673*
X03521Y04678*
X0352Y04683*
X03517Y04688*
X03512Y04691*
X03507Y04692*
G37*
%LNatfc_copper_signal_bot-3*%
%LPD*%
G54D10*
X04041Y03842D02*
Y03886D01*
Y03812D02*
Y03842D01*
X0405Y03895D02*
D01*
X04041Y03886D02*
X0405Y03895D01*
X01546Y02019D02*
Y02066D01*
Y02018D02*
Y02019D01*
X03157Y0322D02*
X03157D01*
X03133D02*
X03157D01*
X04041Y03812D02*
X04062Y03792D01*
X02634Y02013D02*
X02651Y0203D01*
X02654*
X01648Y03296D02*
X01682Y03262D01*
X01656Y02985D02*
X01682Y03011D01*
Y03262*
X01542Y03296D02*
X01648D01*
X01539Y02985D02*
X01656D01*
X01284Y02835D02*
Y02948D01*
X01549Y03661D02*
X0156D01*
X01518Y02014D02*
X01542D01*
X01546Y02018*
X01239Y02738D02*
X01546Y02431D01*
X01239Y02738D02*
Y02804D01*
X0127Y02835*
X01284*
X01316*
X01318Y02837*
X01546Y02066D02*
Y02431D01*
X04521Y03314D02*
Y03328D01*
X04545Y03352*
X0517Y04331D02*
Y04359D01*
X02789Y01966D02*
Y01988D01*
X02685Y02447D02*
Y02488D01*
X0265Y02413D02*
X02685Y02447D01*
X0576Y05138D02*
X05788D01*
X05835Y05138D02*
X05862D01*
X05863Y05138*
X05014Y05144D02*
X05039D01*
X05088D02*
X05113D01*
X04477Y03449D02*
X04483D01*
X04435Y03405D02*
Y03406D01*
X04477Y03449*
X05924Y05132D02*
X05948D01*
X0597Y05148D02*
Y05158D01*
Y05148D02*
X05986Y05132D01*
X05998*
X06756Y05133D02*
X06775D01*
X0678Y05129*
X06645Y05138D02*
X06649Y05133D01*
X06681*
G54D11*
X04418Y03979D03*
X04451D03*
X04381Y03426D03*
X04348D03*
X04152Y03389D03*
X04186D03*
X03567Y03186D03*
X036D03*
X03594Y03427D03*
X03561D03*
X03522Y03311D03*
X03556D03*
X03983Y03078D03*
X0395D03*
X03912Y03157D03*
X03945D03*
X03777Y03816D03*
X03744D03*
X03426Y04139D03*
X03459D03*
X03426Y043D03*
X03459D03*
X01955Y04742D03*
X01922D03*
X01959Y0458D03*
X01926D03*
X03415Y04744D03*
X03448D03*
X03421Y04574D03*
X03454D03*
X01965Y04132D03*
X01932D03*
X01963Y04295D03*
X0193D03*
X01547Y02019D03*
X01581D03*
X03585Y03702D03*
X03619D03*
X02615Y02413D03*
X0265D03*
X02597Y02013D03*
X02632D03*
X02649Y0238D03*
X02614D03*
X02631Y0198D03*
X02596D03*
X03744Y03854D03*
X03778D03*
X03542Y03857D03*
X03508D03*
X02727Y02405D03*
X0276D03*
G54D13*
X045Y02923D03*
Y02888D03*
X03838Y03191D03*
Y03225D03*
X04267Y03467D03*
Y035D03*
X04188Y03469D03*
Y03502D03*
X04114Y03546D03*
Y03579D03*
X04269Y02912D03*
Y02879D03*
X0419Y02919D03*
Y02952D03*
X04191Y03144D03*
Y03111D03*
X04033Y03226D03*
Y03193D03*
X03602Y02731D03*
Y02764D03*
Y02949D03*
Y02916D03*
X03523Y02959D03*
Y02993D03*
X03677Y03106D03*
Y03073D03*
X04307Y03178D03*
Y03145D03*
X04148Y03266D03*
Y03233D03*
X04268Y03309D03*
Y03276D03*
X03684Y03376D03*
Y03343D03*
X03842Y03264D03*
Y03297D03*
X03881Y03262D03*
Y03229D03*
X03723Y03264D03*
Y03297D03*
X03764Y03373D03*
Y0334D03*
X03881Y03071D03*
Y03038D03*
X03944Y03296D03*
Y03263D03*
X03947Y03373D03*
Y0334D03*
X03883Y03336D03*
Y03303D03*
X03843Y03539D03*
Y03506D03*
X03686Y03534D03*
Y03501D03*
X03806Y0358D03*
Y03613D03*
X03647Y03577D03*
Y0361D03*
X04013Y02493D03*
Y0246D03*
X03736Y02495D03*
Y02462D03*
X03947Y02998D03*
Y02964D03*
X04531Y02888D03*
Y02923D03*
X06434Y03891D03*
Y03925D03*
X06432Y04078D03*
Y04044D03*
X04372Y0288D03*
Y02845D03*
X04521Y0328D03*
Y03314D03*
X04566Y0329D03*
Y03324D03*
X03076Y03086D03*
Y0312D03*
X03042Y03086D03*
Y0312D03*
X04483Y03414D03*
Y03449D03*
X04516Y03414D03*
Y03449D03*
X03157Y03187D03*
Y03222D03*
X03188Y03187D03*
Y03222D03*
X03618Y04041D03*
Y04075D03*
X03585Y04041D03*
Y04075D03*
X03765Y05307D03*
Y05341D03*
X03825Y05307D03*
Y05341D03*
X03972Y05303D03*
Y05337D03*
X04031Y05304D03*
Y05338D03*
X03825Y05221D03*
Y05187D03*
X04031Y05221D03*
Y05187D03*
X01467Y01906D03*
Y01872D03*
X01519Y01906D03*
Y01872D03*
X02789Y02022D03*
Y01988D03*
X02754Y01989D03*
Y02023D03*
X03562Y03782D03*
Y03817D03*
X02559Y01983D03*
Y0195D03*
X02577Y0241D03*
Y02443D03*
X02722Y01982D03*
Y01949D03*
G54D17*
X03407Y03311D03*
X03482D03*
X0349Y03224D03*
X03415D03*
G54D26*
X05336Y03314D03*
X05277D03*
X04198Y03966D03*
X04139D03*
X03852Y03939D03*
X03911D03*
X04062Y03792D03*
X04003D03*
X04158Y02437D03*
X04217D03*
Y02387D03*
X04158D03*
G54D38*
X03984Y02627D03*
Y02742D03*
X03785Y02725D03*
Y0261D03*
G54D39*
X04094Y03742D03*
Y03667D03*
X04031D03*
Y03742D03*
G54D40*
X01942Y02038D03*
Y02152D03*
G54D41*
X03539Y03952D03*
Y03893D03*
X04386Y02507D03*
Y02566D03*
X04163Y02508D03*
Y02567D03*
X04057Y02516D03*
Y02457D03*
X03815Y02516D03*
Y02457D03*
X05267Y03466D03*
Y03407D03*
X04714Y03105D03*
Y03046D03*
X05272Y03157D03*
Y03216D03*
X02883Y01717D03*
Y01776D03*
X03746Y03893D03*
Y03952D03*
G54D50*
X02754Y02025D02*
X02789D01*
X02577Y02446D02*
X02577D01*
X02519D02*
X02577D01*
X02722Y01946D02*
X02722D01*
X02668D02*
X02722D01*
X02635Y0198D02*
Y01982D01*
Y01962D02*
Y0198D01*
X02559Y01947D02*
X02559D01*
X02485D02*
X02559D01*
X03561Y03713D02*
X03574D01*
X03582Y03705*
X02786Y02046D02*
X02877Y02137D01*
X02732Y02046D02*
X02786D01*
X02721Y02035D02*
X02732Y02046D01*
X02677Y02362D02*
X02728Y02311D01*
X02677Y02362D02*
Y02389D01*
X04714Y03029D02*
X04728Y03015D01*
X04714Y03029D02*
Y03046D01*
X03738Y03851D02*
X03741Y03854D01*
X03738Y03818D02*
Y03851D01*
X0369Y03818D02*
X03738D01*
X04016Y03808D02*
Y03842D01*
X04003Y03795D02*
X04016Y03808D01*
X04003Y03792D02*
Y03795D01*
X02538Y02032D02*
X02557Y02013D01*
X02595*
X02596Y01982D02*
Y02012D01*
X02616Y01944D02*
X02635Y01962D01*
X02603Y0237D02*
X02613Y0238D01*
Y02411*
X02509Y02456D02*
X02519Y02446D01*
X02556Y0237D02*
X02603D01*
X01518Y01966D02*
Y01994D01*
X04915Y03822D02*
Y04025D01*
X04925Y04035*
X04952Y03821D02*
Y0401D01*
X04994Y04052*
X01718Y01975D02*
X01722Y0197D01*
X02597Y02013D02*
Y02034D01*
X01467Y01906D02*
X01519D01*
X01705*
X01718Y01894*
X01445Y02014D02*
X01469D01*
X01581Y02019D02*
X01674D01*
X01718Y01975*
X01467Y02036D02*
X01469Y02034D01*
X01433Y02036D02*
X01467D01*
X01417Y02019D02*
X01433Y02036D01*
X01417Y01992D02*
Y02019D01*
Y01992D02*
X0144Y01968D01*
X01467*
X0517Y04257D02*
Y0429D01*
X03459Y04103D02*
Y04139D01*
Y04103D02*
X03487Y04075D01*
X03585*
X02877Y02137D02*
Y02251D01*
X02818Y02311D02*
X02877Y02251D01*
X02728Y02311D02*
X02818D01*
X02754Y02062D02*
X02802Y0211D01*
X02677Y02035D02*
X02721D01*
X02625Y02062D02*
X02754D01*
X02597Y02034D02*
X02625Y02062D01*
X02802Y0211D02*
Y02167D01*
X05863Y05078D02*
Y05114D01*
X05784Y04999D02*
X05863Y05078D01*
X05577Y04999D02*
X05784D01*
X05491Y05085D02*
X05577Y04999D01*
X05745Y05114D02*
X05788D01*
X05726Y05133D02*
X05745Y05114D01*
X05542Y05133D02*
X05726D01*
X05491Y05185D02*
X05542Y05133D01*
X05788Y05163D02*
Y05187D01*
X05728Y05247D02*
X05788Y05187D01*
X05454Y05247D02*
X05728D01*
X05391Y05185D02*
X05454Y05247D01*
X05863Y05163D02*
X05877D01*
X05892Y05149*
Y05053D02*
Y05149D01*
X05805Y04966D02*
X05892Y05053D01*
X05509Y04966D02*
X05805D01*
X05391Y05085D02*
X05509Y04966D01*
X05088Y05168D02*
X05107Y05188D01*
X05187*
X0519Y05185*
X05088Y0512D02*
X05129D01*
X05145Y05136*
X05242*
X05291Y05185*
X04985Y05168D02*
X05014D01*
X04955Y05138D02*
X04985Y05168D01*
X04955Y05063D02*
Y05138D01*
Y05063D02*
X05003Y05015D01*
X05221*
X05291Y05085*
X05014Y05097D02*
Y0512D01*
Y05097D02*
X05026Y05085D01*
X0519*
X05924Y05073D02*
Y05107D01*
Y05073D02*
X0597Y05027D01*
X06133*
X06191Y05085*
X05998Y05096D02*
Y05107D01*
Y05096D02*
X0601Y05085D01*
X06091*
X05998Y05156D02*
X06062D01*
X06091Y05185*
X05924Y05156D02*
X06003Y05236D01*
X06139*
X06191Y05185*
X06291D02*
X06367Y05262D01*
X06627*
X06681Y05207*
Y05158D02*
Y05207D01*
X06391Y05185D02*
X06442Y05133D01*
X06738Y04998D02*
X06805Y05064D01*
X06378Y04998D02*
X06738D01*
X06291Y05085D02*
X06378Y04998D01*
X06391Y05085D02*
X06449Y05027D01*
X06714*
X06756Y05068*
Y05109*
X06442Y05133D02*
X06603D01*
X06805Y05064D02*
Y05138D01*
X06756Y05158D02*
X06786D01*
X06805Y05138*
X06603Y05133D02*
X06628Y05109D01*
X06681*
X03562Y03782D02*
X03622D01*
X03633Y03772*
G54D51*
X03618Y04042D02*
X03626D01*
X03585D02*
X03618D01*
X03449D02*
X03585D01*
X03188Y03188D02*
X03514D01*
X03157D02*
X03188D01*
X04483Y03413D02*
X04516D01*
X0447D02*
X04483D01*
X03806Y0314D02*
X03815Y03149D01*
X0387*
X03625Y03157D02*
X0369D01*
X03707Y0314*
X03806*
X03836Y03128D02*
X03839Y03131D01*
X03692Y03137D02*
X03702Y03128D01*
X03836*
X03918Y03431D02*
Y0353D01*
X03418Y03744D02*
Y04011D01*
Y03744D02*
X03487Y03675D01*
X03418Y04011D02*
X03449Y04042D01*
X03958Y03398D02*
X03969Y03387D01*
X03963Y0341D02*
X03974Y03399D01*
X03968Y03422D02*
X03979Y03411D01*
X03994*
X03974Y03399D02*
X03989D01*
X03969Y03387D02*
X03984D01*
X03989Y03399D02*
X04027Y0336D01*
X03984Y03387D02*
X04015Y03355D01*
X03994Y03411D02*
X04006Y03398D01*
X04996Y03773D02*
X0519Y03968D01*
X04996Y03137D02*
Y03773D01*
X0519Y03968D02*
Y0397D01*
X05032Y0376D02*
X05192Y0392D01*
X05032Y03156D02*
Y0376D01*
X05066Y03747D02*
X05189Y0387D01*
X05066Y03173D02*
Y03747D01*
X05098Y03724D02*
X05194Y0382D01*
X05098Y03189D02*
Y03724D01*
X04361Y0399D02*
Y04229D01*
X04116Y04474D02*
X04361Y04229D01*
X04116Y04474D02*
Y04922D01*
X04031Y05007D02*
X04116Y04922D01*
X04031Y05007D02*
Y05187D01*
X0432Y03994D02*
Y04195D01*
X0407Y04445D02*
X0432Y04195D01*
X0407Y04445D02*
Y0491D01*
X0399Y0499D02*
X0407Y0491D01*
X0399Y0499D02*
Y05161D01*
X04295Y03687D02*
Y0417D01*
X04023Y04442D02*
X04295Y0417D01*
X04023Y04442D02*
Y04899D01*
X0394Y04982D02*
X04023Y04899D01*
X0394Y04982D02*
Y05271D01*
X0435Y0398D02*
X04361Y0399D01*
X04307Y0398D02*
X0432Y03994D01*
X0432D02*
X0432D01*
X04177Y03442D02*
X04204D01*
X03604Y03136D02*
X03625Y03157D01*
X03508Y03145D02*
X03518Y03136D01*
X03604*
X03504Y02838D02*
X03535Y0287D01*
X03559*
X03629Y03059D02*
X03672Y03016D01*
X03504Y02838D02*
X03504Y02838D01*
X03515Y02818D02*
X03519D01*
X03417Y0272D02*
X03515Y02818D01*
X03427Y02762D02*
X03504Y02838D01*
X02831Y0272D02*
X03417D01*
X01645Y04141D02*
X01924Y03862D01*
X02444*
X02614Y03692*
X03318*
X0349Y0352*
X01384Y04904D02*
X01645Y04643D01*
Y04141D02*
Y04643D01*
X0367Y03322D02*
X03699D01*
X03699Y03322D02*
X03747D01*
X03751Y03318D02*
X03778D01*
X03782Y03322D02*
X03835D01*
X03853Y03322D02*
X03862Y03331D01*
X03836Y03322D02*
X03853D01*
X03835Y03322D02*
X03836Y03322D01*
X03778Y03318D02*
X03782Y03322D01*
X03699Y03322D02*
X03699Y03322D01*
X0367D02*
X0367Y03322D01*
X03836Y0344D02*
X03852D01*
X03835Y0344D02*
X03836Y0344D01*
X03692Y0344D02*
X03835D01*
X03862Y03366D02*
X03876Y0338D01*
X03862Y03331D02*
Y03366D01*
X03718Y03558D02*
X03732D01*
X03717Y03559D02*
X03718Y03558D01*
X03665Y03559D02*
X03717D01*
X03662Y03556D02*
X03665Y03559D01*
X04692Y02976D02*
X04834D01*
X04457Y02741D02*
X04692Y02976D01*
X02866Y0333D02*
X03128D01*
X0279Y03406D02*
X02866Y0333D01*
X02316Y03406D02*
X0279D01*
X03732Y03559D02*
X03827D01*
X03732Y03558D02*
X03732Y03559D01*
X03662Y03556D02*
X03662D01*
X03625Y03519D02*
X03662Y03556D01*
X03875Y03558D02*
X03889D01*
X03873Y0356D02*
X03875Y03558D01*
X03436Y03464D02*
X035Y03401D01*
X03623Y03706D02*
X03642D01*
X03964Y03541D02*
Y03545D01*
X04015Y03326D02*
X04033Y03309D01*
X04015Y03326D02*
Y03355D01*
X04109Y03383D02*
X04128Y03364D01*
X03886Y03675D02*
X03917Y03643D01*
Y03578D02*
Y03643D01*
X03303Y03464D02*
X03436D01*
X03154Y03315D02*
X03303Y03464D01*
X04557Y02923D02*
X04559Y02925D01*
X04531Y02923D02*
X04557D01*
X04307Y02779D02*
Y02799D01*
X04267Y02775D02*
Y02799D01*
Y02775D02*
X04314Y02729D01*
X04251Y02744D02*
X04283Y02712D01*
X04251Y02744D02*
Y02767D01*
X04228Y02791D02*
X04251Y02767D01*
X04228Y02791D02*
Y02799D01*
X04188Y02748D02*
Y02799D01*
Y02748D02*
X0424Y02696D01*
X0247Y02762D02*
X03427D01*
X04133Y02866D02*
X04154Y02845D01*
X04372*
X03862Y02974D02*
X03879Y02956D01*
X01549Y03661D02*
X01656Y03768D01*
X01954*
X02316Y03406*
X03498Y0336D02*
X0355D01*
X02852Y03315D02*
X03154D01*
X02801Y03366D02*
X02852Y03315D01*
X02332Y03366D02*
X02801D01*
X02797Y03134D02*
X02875D01*
X01776Y01629D02*
Y0281D01*
X02332Y03366*
X0182Y01584D02*
X01896D01*
X01776Y01629D02*
X0182Y01584D01*
X02476Y03187D02*
X02598D01*
X02623Y03163*
X0289*
X02279Y02953D02*
X0247Y02762D01*
X0401Y03165D02*
X04138D01*
X04179Y03206*
X04248*
X04255Y03199*
X04265*
X04106Y03383D02*
X04109D01*
X03487Y03675D02*
X03886D01*
X03618Y04075D02*
X03661D01*
X03662Y04075*
X0401Y03251D02*
X04097D01*
X04128Y03282*
Y03364*
X0394Y05271D02*
X03972Y05303D01*
X0399Y05161D02*
X04007Y05178D01*
Y0528*
X04031Y05304*
X0266Y02549D02*
X02831Y0272D01*
X02875Y03134D02*
X02989Y03019D01*
X03476*
X03862Y02974D02*
Y03D01*
X03827Y03559D02*
X03829Y0356D01*
X03873*
X0395Y03111D02*
Y03114D01*
X03933Y03131D02*
X0395Y03114D01*
X04265Y03199D02*
X04267Y03196D01*
Y03192D02*
Y03196D01*
X04476Y03727D02*
Y03844D01*
X0424Y03539D02*
X04319Y03618D01*
X04226Y03539D02*
X0424D01*
X04203Y03556D02*
X0423D01*
X04186Y03539D02*
X04203Y03556D01*
X0423D02*
X04307Y03633D01*
X04319Y03618D02*
Y03618D01*
X04335Y03635*
X04335*
X0435Y03649*
Y0398*
X04307Y03633D02*
Y0398D01*
X03949Y03561D02*
X03964Y03545D01*
X03934Y03561D02*
X03949D01*
X03917Y03578D02*
X03934Y03561D01*
X04051Y03359D02*
X04068Y03342D01*
X04051Y03359D02*
Y03386D01*
X04068Y03381D02*
X04086Y03399D01*
Y0348*
X03692Y0344D02*
X03692Y0344D01*
X03639Y0344D02*
X03692D01*
X03595Y03484D02*
X03639Y0344D01*
X03282Y03484D02*
X03595D01*
X03569Y03519D02*
X03625D01*
X03567Y0352D02*
X03569Y03519D01*
X03553Y0352D02*
X03567D01*
X03553Y0352D02*
X03553Y0352D01*
X0349Y0352D02*
X03553D01*
X03614Y03322D02*
X03614Y03322D01*
X0367*
X03587Y03322D02*
X03614D01*
X0355Y0336D02*
X03587Y03322D01*
X03747Y03322D02*
X0375Y03319D01*
X03543Y03228D02*
X03555Y0324D01*
X03076Y03086D02*
X03393D01*
X03453Y03145*
X03508*
X03634Y03083D02*
X03653Y03102D01*
Y03125*
X03665Y03137*
X03839Y03131D02*
X03933D01*
X03665Y03137D02*
X03692D01*
X03891Y0317D02*
Y03171D01*
X0387Y03149D02*
X03891Y0317D01*
X03128Y0333D02*
X03282Y03484D01*
X03071Y03264D02*
X03137D01*
X03285Y03414*
X04307Y02779D02*
X04345Y02741D01*
X04457*
X04314Y02729D02*
X04462D01*
X04834Y02976D02*
X04996Y03137D01*
X04462Y02729D02*
X04694Y0296D01*
X04835*
X04696Y02944D02*
X04837D01*
X04464Y02712D02*
X04696Y02944D01*
X04283Y02712D02*
X04464D01*
X0424Y02696D02*
X04468D01*
X047Y02929*
X04838*
X05098Y03189*
X03444Y03414D02*
X03498Y0336D01*
X03285Y03414D02*
X03444D01*
X02986Y03178D02*
X03071Y03264D01*
X02986Y03111D02*
Y03178D01*
X03543Y03083D02*
X03634D01*
X03949Y0319D02*
X0401Y03251D01*
X03893Y0319D02*
X03949D01*
X03898Y03178D02*
X03996D01*
X03891Y03171D02*
X03898Y03178D01*
X03996D02*
X0401Y03165D01*
X03864Y03161D02*
X03893Y0319D01*
X035Y03401D02*
X03633D01*
X03634Y034*
X03648*
X03649Y03401*
X03404Y03074D02*
X03534D01*
X0299Y03062D02*
X03393D01*
X0289Y03163D02*
X0299Y03062D01*
X03393D02*
X03404Y03074D01*
X03534D02*
X03543Y03083D01*
X03846Y03016D02*
X03862Y03D01*
X03476Y03019D02*
X03515Y03059D01*
X03629*
X03833Y03161D02*
X03864D01*
X04147Y03539D02*
X04295Y03687D01*
X03673Y0324D02*
X03711Y03201D01*
X03793*
X03833Y03161*
X03742Y03042D02*
X03752Y03052D01*
X03766*
X03776Y03042*
X03672Y03016D02*
X03725D01*
X03742Y03033*
Y03042*
X03776Y03041D02*
Y03042D01*
Y03041D02*
X03802Y03016D01*
X03846*
X03737Y0286D02*
X03745D01*
X03897Y02866D02*
X04133D01*
X03746Y02859D02*
X03857D01*
X03745Y0286D02*
X03746Y02859D01*
X03857D02*
X03889Y02892D01*
X03519Y02818D02*
X0352Y02818D01*
X03849D02*
X03897Y02866D01*
X0352Y02818D02*
X03849D01*
X03543Y03216D02*
Y03228D01*
X03555Y0324D02*
X03673D01*
X03514Y03188D02*
X03543Y03216D01*
X02999Y02682D02*
X03633Y02048D01*
X05992*
X05992Y02048*
X06007*
X06007Y02048*
X06227*
X06538Y02291D02*
X06598Y02351D01*
X06227Y02048D02*
X0647Y02291D01*
X06538*
X06011Y01488D02*
X06503Y0198D01*
X06546*
X06679Y02113*
Y02374*
X06652Y02401D02*
X06679Y02374D01*
X06538Y02401D02*
X06652D01*
X06527Y02412D02*
X06538Y02401D01*
X06429Y02412D02*
X06527D01*
X06598Y02351D02*
Y02363D01*
X04837Y02944D02*
X05066Y03173D01*
X04835Y0296D02*
X05032Y03156D01*
X0423Y03343D02*
X04399D01*
X0447Y03413*
X03649Y03401D02*
X03858D01*
X03864Y03395*
X03876Y0338D02*
X03878Y03378D01*
X03883*
X03852Y0344D02*
X0386Y03432D01*
Y03416D02*
Y03432D01*
X04204Y03442D02*
X04205Y03441D01*
X04276*
X04287Y03451*
Y03467*
X04417Y03597*
Y03669*
X04476Y03727*
X0386Y03416D02*
X03869Y03407D01*
X03885*
X04038Y03398D02*
X04051Y03386D01*
X04027Y03343D02*
Y0336D01*
Y03343D02*
X04068Y03303D01*
X03943Y0341D02*
X03963D01*
X0394Y03413D02*
X03943Y0341D01*
X03963Y03425D02*
X03966Y03422D01*
X03968*
X04006Y03398D02*
X04038D01*
X03885Y03407D02*
X03888Y0341D01*
X03889Y03558D02*
X03918Y0353D01*
X03864Y03395D02*
X03902D01*
X03905Y03398*
X03912*
X03921*
X03958*
X03888Y0341D02*
X03907D01*
X03908Y03411*
X03921*
X03923Y03413*
X0394*
X03918Y03431D02*
X03924Y03425D01*
X03963*
X04048Y03519D02*
X04086Y0348D01*
X03964Y03541D02*
X03987Y03519D01*
X04048*
X04153Y03466D02*
X04177Y03442D01*
G54D52*
X03506Y03857D02*
Y03892D01*
X03825Y05354D02*
X03864D01*
X03825Y05233D02*
X03867D01*
X04031Y05351D02*
X04074D01*
X04031Y05233D02*
X04077D01*
X03562Y03818D02*
X03593D01*
X03546D02*
X03562D01*
X03545Y03819D02*
Y03857D01*
X04218Y02437D02*
Y02491D01*
X04218Y02387D02*
Y02437D01*
X04789Y03105D02*
X04793D01*
X04714D02*
X04789D01*
X03746Y03893D02*
X03789D01*
X0369D02*
X03746D01*
X0378Y03854D02*
Y03884D01*
X04013Y02457D02*
X04057D01*
X03966D02*
X04013D01*
X04218Y02566D02*
X04218Y02566D01*
X04217Y02567D02*
X04218Y02566D01*
X03815Y02457D02*
X03868D01*
X03775D02*
X03815D01*
X0339Y04602D02*
Y0462D01*
X03138Y0435D02*
X0339Y04602D01*
X03965Y02456D02*
X03965Y02456D01*
X04341Y02491D02*
X0435Y025D01*
X0378Y03854D02*
X03798D01*
X04733Y03157D02*
X04789D01*
X04137Y02567D02*
X04163D01*
X03965Y02456D02*
X03966Y02457D01*
X03868Y02457D02*
X03868Y02456D01*
X04163Y02567D02*
X04217D01*
X04119Y02553D02*
X04133Y02567D01*
X04119Y02458D02*
Y02553D01*
Y02458D02*
X0414Y02437D01*
X04218Y02387D02*
D01*
Y02437D02*
X04218Y02437D01*
X04315Y02491D02*
X04341D01*
X04373Y02566D02*
X04377Y02569D01*
X03471Y03893D02*
X03471Y03892D01*
X0378Y03884D02*
X03789Y03893D01*
X04123Y04075D02*
X0414Y04058D01*
Y04019D02*
Y04058D01*
X03538Y03892D02*
X03539Y03893D01*
X03545Y03819D02*
X03546Y03818D01*
X03539Y03893D02*
X03593D01*
X03506Y03892D02*
X03538D01*
X03471D02*
X03506D01*
X03897Y04075D02*
X04123D01*
X03775Y02457D02*
Y02489D01*
X052Y03157D02*
X05272D01*
X03775Y02489D02*
Y0252D01*
X04315Y02566D02*
X0435D01*
X04373*
X03721Y05355D02*
X03764D01*
X03925Y05351D02*
X03971D01*
X01519Y01832D02*
Y0187D01*
X01467Y01833D02*
Y01869D01*
X01987Y04621D02*
X02155D01*
X02233Y04544*
Y04288D02*
Y04544D01*
Y04288D02*
X02279Y04242D01*
X02373*
X0244Y04174*
Y04098D02*
Y04174D01*
X01994Y04251D02*
X0207D01*
X02176Y04146*
X02383*
X02408Y0412*
Y04098D02*
Y0412D01*
X03737Y02495D02*
Y02525D01*
X03815Y02491D02*
Y02516D01*
X04014Y02493D02*
Y02521D01*
X03965Y02493D02*
X04014D01*
X04283Y02527D02*
X04312D01*
X04161Y02481D02*
Y02506D01*
X04057Y02516D02*
X04083D01*
X04386Y02483D02*
Y02507D01*
X04137Y02388D02*
X04157D01*
X03539Y03952D02*
X0357D01*
X03712Y03952D02*
X03745D01*
X03657Y03854D02*
X03688D01*
X04393Y03881D02*
X04417D01*
X0369Y03812D02*
Y03818D01*
X03671Y03793D02*
X0369Y03812D01*
X03671Y03751D02*
Y03793D01*
X03777Y03816D02*
X03794D01*
X03798Y03854D02*
X03821Y0383D01*
X038Y03751D02*
X03821Y03772D01*
Y0383*
X05338Y03279D02*
Y03312D01*
X03188Y03222D02*
Y03232D01*
X03196Y0324*
X04516Y03449D02*
Y03472D01*
X03799Y03977D02*
X03897Y04075D01*
X03789Y03893D02*
X03799Y03903D01*
Y03977*
X03076Y0312D02*
X03078Y03123D01*
Y03137*
X03937Y02456D02*
X03965D01*
X04582Y03346D02*
Y0335D01*
X03138Y04294D02*
Y0435D01*
X02968Y04099D02*
Y04124D01*
X03138Y04294*
X03Y04114D02*
X03146Y0426D01*
X03395*
X03Y041D02*
Y04114D01*
X03737Y02457D02*
X03775D01*
X04133Y02567D02*
X04137D01*
X03897Y02667D02*
X04038D01*
X04137Y02567*
X04564Y03327D02*
X04582Y03346D01*
X0435Y02538D02*
Y02566D01*
Y025D02*
Y02538D01*
X03019Y03118D02*
X03039D01*
X0414Y02437D02*
X04158D01*
X04159*
G54D53*
X06434Y03875D02*
Y03891D01*
Y03875D02*
X06444Y03865D01*
G54D54*
X04306Y03021D02*
X04315Y03012D01*
X04304Y03023D02*
X04306Y03021D01*
X04589Y03594D02*
Y04002D01*
X04552Y03557D02*
X04589Y03594D01*
X04496Y04095D02*
X04589Y04002D01*
X04496Y04095D02*
Y04156D01*
X04206Y04446D02*
X04496Y04156D01*
X04206Y04446D02*
Y05161D01*
X04484Y0409D02*
Y04151D01*
X04154Y04481D02*
X04484Y04151D01*
X04154Y04481D02*
Y05162D01*
X04547Y0357D02*
X04577Y03599D01*
Y03997*
X04484Y0409D02*
X04577Y03997D01*
X04302Y0342D02*
Y0342D01*
X03455Y02809D02*
X03533Y02887D01*
X03566*
X03575Y02858D02*
Y02862D01*
X03576Y02862*
Y02877*
X03566Y02887D02*
X03576Y02877D01*
X03575Y02858D02*
X03599D01*
X0365D02*
X03653Y0286D01*
X045Y02888D02*
X04531D01*
X045Y02923D02*
Y02937D01*
X04452Y02985D02*
X045Y02937D01*
X04557Y02888D02*
X04559Y02889D01*
X04255Y02962D02*
X04304D01*
X02528Y02842D02*
X02561Y02809D01*
X02439Y02842D02*
X02528D01*
X04372Y0288D02*
Y02932D01*
X02561Y02809D02*
X03455D01*
X03889Y02892D02*
X0404D01*
X03599Y02858D02*
X03599Y02858D01*
X03614*
X03614Y02858*
X04343Y02961D02*
X04372Y02932D01*
X0435Y02985D02*
X04452D01*
X04323Y03012D02*
X0435Y02985D01*
X04304Y0302D02*
Y03023D01*
X04531Y02888D02*
X04557D01*
X04125Y02977D02*
X04239D01*
X0404Y02892D02*
X04125Y02977D01*
X04239D02*
X04255Y02962D01*
X04315Y03012D02*
X04323D01*
X03614Y02858D02*
X0365D01*
X03653Y0286D02*
X03737D01*
X04559Y02877D02*
Y02889D01*
X0454Y02858D02*
X04559Y02877D01*
X04432Y02858D02*
X0454D01*
X0436Y02786D02*
X04432Y02858D01*
X04345Y02786D02*
X0436D01*
X04309Y02822D02*
X04345Y02786D01*
X04159Y02822D02*
X04309D01*
X04147Y0281D02*
X04159Y02822D01*
X04147Y02718D02*
Y0281D01*
Y02718D02*
X04211Y02654D01*
X0556*
X05713Y02501*
X06328*
X06362Y02535*
X06473*
X06559Y02622*
X06582*
X06596Y02607*
Y02607D02*
Y02607D01*
Y02607D02*
X06598Y02605D01*
Y02471D02*
Y02605D01*
Y02471D02*
X06622Y02447D01*
Y02439D02*
Y02447D01*
Y02439D02*
X06624Y02436D01*
X04302Y0342D02*
X04439Y03557D01*
X04552*
X04434Y0357D02*
X04547D01*
X04301Y03437D02*
X04434Y0357D01*
X0429Y03437D02*
X04301D01*
X04265Y03421D02*
X04274D01*
X0429Y03437*
G54D55*
X04879Y03673D02*
Y03741D01*
X04031Y03539D02*
Y03555D01*
X04471Y04865D02*
X04866D01*
X04447Y04841D02*
X04471Y04865D01*
X04447Y04667D02*
Y04841D01*
X04866Y04865D02*
X05128Y04603D01*
X04447Y04667D02*
X04496Y04618D01*
X04822Y04995D02*
X05207Y0461D01*
X04368Y04995D02*
X04822D01*
X04317Y04944D02*
X04368Y04995D01*
X04317Y04614D02*
Y04944D01*
X05128Y04467D02*
Y04603D01*
Y04467D02*
X05167Y04428D01*
X04448Y04566D02*
X04496Y04518D01*
X04365Y04566D02*
X04448D01*
X04317Y04614D02*
X04365Y04566D01*
X05207Y04467D02*
Y0461D01*
Y04467D02*
X05245Y04428D01*
X04496Y04418D02*
X04718Y04196D01*
X05142*
X05181Y04235*
X05182*
X05195Y04247*
Y04257*
X04496Y04818D02*
X04832D01*
X05047Y04603*
Y04469D02*
Y04603D01*
Y04469D02*
X05088Y04428D01*
X03898Y04425D02*
X04252Y04071D01*
Y03752D02*
Y04071D01*
X04141Y03641D02*
X04252Y03752D01*
X03977Y0442D02*
Y04883D01*
X03825Y05035D02*
X03977Y04883D01*
X03825Y05035D02*
Y05187D01*
X03937Y04426D02*
Y04868D01*
X03793Y05011D02*
X03937Y04868D01*
X03793Y05011D02*
Y05276D01*
X03898Y04425D02*
Y04849D01*
X03736Y05011D02*
X03898Y04849D01*
X03736Y05011D02*
Y05278D01*
X03977Y0442D02*
X04277Y04119D01*
X04264Y03729D02*
Y04098D01*
X03937Y04426D02*
X04264Y04098D01*
X03952Y02909D02*
X04009D01*
X03793Y05276D02*
X03825Y05307D01*
X03817Y05179D02*
X03825Y05187D01*
X04336Y03134D02*
X04346D01*
X04521Y03245D02*
Y0328D01*
X04483Y03208D02*
X04521Y03245D01*
X03986Y03038D02*
X04018D01*
X03042Y03086D02*
X03076D01*
X04521Y0328D02*
X04556D01*
X03736Y05278D02*
X03765Y05307D01*
X05088Y04314D02*
Y04428D01*
Y04314D02*
X05146Y04257D01*
Y04331D02*
Y04407D01*
X05167Y04428*
X05195Y04331D02*
X05245Y04382D01*
Y04428*
X05195Y04257D02*
X05257D01*
X05324Y04324*
Y04428*
X04556Y0328D02*
X04566Y0329D01*
X04277Y03706D02*
Y04119D01*
X04637Y03371D02*
Y03531D01*
X04663Y03381D02*
X04704Y0334D01*
Y03156D02*
Y0334D01*
X0465Y03376D02*
X0469Y03336D01*
X04637Y03371D02*
X04674Y03334D01*
Y03162D02*
Y03334D01*
X04669Y03157D02*
X04674Y03162D01*
X0469Y0316D02*
Y03336D01*
X04674Y03144D02*
X0469Y0316D01*
X04679Y03131D02*
X04704Y03156D01*
X0442Y03208D02*
X04483D01*
X04346Y03134D02*
X0442Y03208D01*
X04489Y0306D02*
X0456Y03131D01*
X04484Y03073D02*
X04555Y03144D01*
X04479Y03086D02*
X0455Y03157D01*
X0432Y0306D02*
X04489D01*
X04637Y03531D02*
X04696Y0359D01*
X04795*
X04879Y03673*
X03986Y02999D02*
X04001D01*
X04063Y03061*
X04063Y03061*
X0465Y03526D02*
X04695Y0357D01*
X0465Y03376D02*
Y03526D01*
X04695Y0357D02*
X04794D01*
X04915Y03692*
Y03741*
X04663Y0352D02*
X04697Y03555D01*
X04663Y03381D02*
Y0352D01*
X04697Y03555D02*
X04796D01*
X04952Y0371*
Y03741*
X04002Y02959D02*
X0402Y02978D01*
X04049*
X0411Y03039*
X03986Y02959D02*
X04002D01*
X0411Y03039D02*
X0424D01*
X04018Y03038D02*
X04058Y03078D01*
X042*
X04238Y03116*
X04278Y03175D02*
X04287Y03185D01*
X04796Y03741D02*
X04843D01*
X04566Y0351D02*
X04796Y03741D01*
X04029Y03539D02*
X04031D01*
X03989Y03545D02*
X03992Y03543D01*
X04161Y03625D02*
X04264Y03729D01*
X04078Y03625D02*
X04161D01*
X04088Y03607D02*
X04121D01*
X04177Y03606D02*
X04277Y03706D01*
X04121Y03607D02*
X04122Y03606D01*
X04177*
X0427Y03086D02*
X04479D01*
X04275Y03073D02*
X04484D01*
X04063Y03061D02*
X04245D01*
X0427Y03086*
X0424Y03039D02*
X04275Y03073D01*
X04009Y02909D02*
X04113Y03013D01*
X04273*
X0432Y0306*
X04283Y03118D02*
X0432D01*
X04336Y03134*
X0456Y03131D02*
X04679D01*
X04555Y03144D02*
X04674D01*
X0455Y03157D02*
X04669D01*
X04275Y03125D02*
X04283Y03118D01*
X04275Y03125D02*
Y03153D01*
X04287Y03197D02*
X04458Y03368D01*
X04517*
X04566Y03417*
Y0351*
X04287Y03185D02*
Y03197D01*
X04238Y03116D02*
Y03145D01*
X04268Y03175*
X04278*
X04062Y03539D02*
Y03581D01*
X04014Y03572D02*
Y03587D01*
X04024Y03597*
X04039*
X04049Y03587*
X03989Y0358D02*
X0405Y03641D01*
X04049Y03587D02*
Y03596D01*
X04014Y03572D02*
X04031Y03555D01*
X04062Y03581D02*
X04088Y03607D01*
X04049Y03596D02*
X04078Y03625D01*
X03989Y03545D02*
Y0358D01*
X0405Y03641D02*
X04141D01*
G54D56*
X0514Y02973D02*
X05272Y03105D01*
Y03157*
X0467Y0311D02*
X04709D01*
X0513Y03103D02*
X05191D01*
X0513Y03455D02*
X05193D01*
X01547Y02019D02*
Y02064D01*
X01546Y02066D02*
X01547Y02064D01*
X01469Y01994D02*
X01486D01*
X01492Y02*
X01493Y02034D02*
X01518D01*
X01492Y02035D02*
X01493Y02034D01*
X01492Y02035D02*
Y02062D01*
Y02D02*
Y02035D01*
X04792Y03404D02*
X04806Y0339D01*
X04878*
X04732Y03444D02*
X04745Y03457D01*
X04789*
X04717Y03444D02*
X04732D01*
G54D59*
X03512Y02935D02*
X03558D01*
X03487Y02959D02*
X03512Y02935D01*
X02696Y02405D02*
X02727D01*
X02698Y03115D02*
X02853Y02959D01*
X02797Y03061D02*
Y03099D01*
Y03061D02*
X02881Y02976D01*
X03659Y02907D02*
Y02958D01*
X03645Y02973D02*
X03659Y02958D01*
X02881Y02976D02*
X03456D01*
X035Y03019*
X03589Y02973D02*
X03645D01*
X02853Y02959D02*
X03487D01*
X03558Y02935D02*
X03572Y02949D01*
Y02955*
X03589Y02973*
X035Y03019D02*
X03637D01*
X03723Y02976D02*
X03723Y02977D01*
X0368Y02976D02*
X03723D01*
X03668Y02898D02*
X03697D01*
X03659Y02907D02*
X03668Y02898D01*
X03742Y03003D02*
X03752Y03013D01*
X03767*
X03777Y03003*
Y02995D02*
Y03003D01*
X03723Y02977D02*
X03725D01*
X03742Y02993*
Y03003*
X03777Y02995D02*
X03795Y02977D01*
X03839Y02957D02*
Y02958D01*
X03819Y02977D02*
X03839Y02958D01*
X0374Y0294D02*
X03771D01*
X03795Y02977D02*
X03819D01*
X03771Y0294D02*
X03787Y02957D01*
X03801*
X03697Y02898D02*
X0374Y0294D01*
X03637Y03019D02*
X0368Y02976D01*
G54D68*
X07036Y04629D03*
G54D72*
X00992Y04715D03*
X04396Y04918D03*
X02698Y03115D03*
G54D73*
X00992Y04815D03*
X04496Y04418D03*
X04396D03*
X04496Y04518D03*
X04396D03*
X04496Y04618D03*
X04396D03*
X04496Y04718D03*
X04396D03*
X04496Y04818D03*
X04396D03*
X04496Y04918D03*
X02698Y03215D03*
G54D74*
X04446Y05168D03*
G54D75*
X02696Y05221D03*
Y04828D03*
Y04434D03*
Y0404D03*
X02135D03*
Y04434D03*
Y04828D03*
Y05221D03*
X03258Y04139D03*
Y04336D03*
Y04631D03*
Y05025D03*
Y05418D03*
G54D76*
X02135Y04521D03*
X03258D03*
X02605Y03958D03*
X02416D03*
X02977D03*
X03166D03*
G54D77*
X02605Y04202D03*
X02227D03*
X03166Y04202D03*
X02788D03*
G54D78*
X01542Y03159D03*
Y03296D03*
X05691Y05185D03*
X05591D03*
X05491D03*
X05391D03*
X05291D03*
X0519D03*
X05691Y05085D03*
X05591D03*
X05491D03*
X05391D03*
X05291D03*
X06591Y05185D03*
X06491D03*
X06391D03*
X06291D03*
X06191D03*
X06091D03*
X06591Y05085D03*
X06491D03*
X06391D03*
X06291D03*
X06191D03*
G54D79*
X05403Y04507D03*
G54D80*
X05324Y04507D03*
X05245D03*
X05167D03*
X05088D03*
X05009D03*
X0493D03*
X05403Y04428D03*
X05324D03*
X05245D03*
X05167D03*
X05088D03*
X05009D03*
X0493D03*
G54D81*
X0497Y04468D03*
G54D82*
X0164Y04902D03*
Y05265D03*
Y05084D03*
G54D83*
X069Y01536D03*
X00801D03*
Y05487D03*
X06901D03*
X06551Y04601D03*
Y02121D03*
G54D84*
X01176Y05086D03*
Y05314D03*
G54D85*
X00987Y05204D03*
G54D86*
X0519Y05085D03*
X06091D03*
G54D87*
X03073Y02208D03*
X02893Y01732D03*
X02874D03*
X02893Y01759D03*
X02874D03*
X02677Y02389D03*
X01964Y01992D03*
X01944D03*
X01925D03*
X02654Y0203D03*
X02771Y01905D03*
X02909Y02317D03*
X02884Y02319D03*
X02861Y02318D03*
X02537Y02032D03*
X02754Y02025D03*
X02577Y02407D03*
X02754Y01987D03*
X02723Y01985D03*
X02526Y01987D03*
X02449Y01946D03*
X02466D03*
X02483D03*
X02559Y01986D03*
X02652Y0238D03*
X02556Y0237D03*
X02476Y02456D03*
X02493Y02455D03*
X02509Y02456D03*
Y01906D03*
X01851Y02464D03*
X02508Y025D03*
X02616Y01944D03*
X02665D03*
X0264Y01931D03*
X02449Y02194D03*
X02254Y02212D03*
X02254Y0215D03*
X02643Y02499D03*
X02867Y02064D03*
X02885D03*
X02903D03*
X02939Y02197D03*
Y02215D03*
X02734Y0236D03*
X02754D03*
X02755Y02393D03*
X02523Y02409D03*
X02696Y02405D03*
X02789Y01966D03*
X01901Y01992D03*
X02464Y02213D03*
X02677Y02035D03*
X02822Y02224D03*
X02802Y02167D03*
X02822Y02181D03*
X02999Y02682D03*
X06011Y01488D03*
G54D88*
X03158Y03741D03*
X03212Y0387D03*
X03022Y03871D03*
X03212Y03838D03*
X03022Y0384D03*
X03158Y03772D03*
X02373Y03772D03*
Y03741D03*
X03561Y03713D03*
X03643Y03618D03*
X03646Y03575D03*
X03989Y03428D03*
X04622Y03192D03*
X03685Y02999D03*
X0459Y03192D03*
X03685Y03038D03*
X05341Y03946D03*
X04302Y0342D03*
X04188Y03503D03*
Y03464D03*
X04271Y03511D03*
X03528Y02799D03*
X03559Y0287D03*
X03519Y02952D03*
X0337Y03535D03*
X03409D03*
Y03555D03*
X0337D03*
X03421Y0344D03*
X03522Y03462D03*
X03358Y0344D03*
X05051Y02185D03*
X06572Y02425D03*
X06374Y04169D03*
X06575Y03515D03*
X06574Y03366D03*
Y03216D03*
Y03066D03*
Y02917D03*
Y02763D03*
X06614Y02614D03*
X06372Y02425D03*
X06523Y02625D03*
X05999Y01937D03*
Y02031D03*
X03585Y02909D03*
X06571Y02599D03*
Y02525D03*
X05381Y03267D03*
Y03362D03*
X06572Y02499D03*
X06522Y02387D03*
X06622Y03687D03*
Y03837D03*
Y03987D03*
Y04137D03*
Y04287D03*
X06522Y04337D03*
Y04237D03*
Y04087D03*
Y03937D03*
Y03787D03*
Y03637D03*
Y03487D03*
Y03337D03*
Y03187D03*
Y03037D03*
Y02887D03*
Y02737D03*
X06322Y04337D03*
Y04237D03*
Y04137D03*
Y04037D03*
Y03987D03*
Y03937D03*
Y03787D03*
Y03737D03*
Y03587D03*
Y03517D03*
Y03407D03*
Y03337D03*
Y03187D03*
Y03137D03*
Y02987D03*
Y02937D03*
Y02787D03*
Y02737D03*
Y02587D03*
Y02537D03*
Y02387D03*
X06422Y02837D03*
Y02987D03*
X06422Y03137D03*
X06422Y03287D03*
Y03437D03*
Y03587D03*
Y03737D03*
Y04087D03*
Y04287D03*
Y04037D03*
X06522Y04287D03*
X06622Y04337D03*
X06422Y03937D03*
X06322Y04087D03*
X06422Y04137D03*
X06322Y04187D03*
X06422Y04237D03*
Y04337D03*
X06322Y04287D03*
X03685Y03342D03*
X03722Y03342D03*
X03765Y03338D03*
X038Y03342D03*
X03843Y03339D03*
X0384Y03303D03*
X03879Y03342D03*
X03946Y0334D03*
X06437Y02064D03*
X03803Y03418D03*
X038Y03381D03*
Y0346D03*
X03766Y0346D03*
X03722Y03618D03*
X03767Y03535D03*
X03725Y03575D03*
X04226Y03539D03*
X03948Y03578D03*
X03882Y03575D03*
X03976Y03681D03*
X04519Y03665D03*
X03685Y03418D03*
Y03457D03*
X03127Y03443D03*
X03736Y03751D03*
X03712D03*
X03736Y03704D03*
X03712D03*
X03642Y03706D03*
X03212Y03807D03*
X03948Y03618D03*
X04429Y02822D03*
X03346Y03279D03*
X03433Y03212D03*
X03472D03*
Y03232D03*
X03275Y03279D03*
X03346Y03209D03*
X03276D03*
X03433Y03232D03*
X03464Y03299D03*
Y03322D03*
X03425Y03299D03*
Y03322D03*
X04476Y03259D03*
Y03283D03*
X04437Y03259D03*
Y03283D03*
X04468Y03003D03*
Y03027D03*
X04429Y03003D03*
Y03027D03*
Y02917D03*
X04468D03*
Y02897D03*
X04429D03*
X04263Y03263D03*
X04307Y03188D03*
X04559Y03192D03*
X04307Y02799D03*
X04267D03*
X04228D03*
X04188D03*
X04027Y0296D03*
X03952Y03039D03*
X04342Y03618D03*
X04228Y03578D03*
X04149Y03389D03*
X04031Y03381D03*
X04153Y03275D03*
X04035Y03232D03*
X0407Y03114D03*
X04145Y02996D03*
X04196Y02959D03*
X04304Y02962D03*
X04185Y02909D03*
X03948Y03303D03*
X03527Y02996D03*
X0372D03*
X03838Y03039D03*
X03947Y03077D03*
X04358Y02814D03*
X04228Y02759D03*
X03956Y02795D03*
X03879Y02956D03*
X03759Y02996D03*
X03912Y03157D03*
X03723Y03462D03*
X03603Y03424D03*
X03642Y03467D03*
X03643Y03381D03*
X03809Y0362D03*
X03879Y03263D03*
X03722D03*
X03522Y03311D03*
X03761Y03381D03*
X03682D03*
X03564Y03618D03*
X03525D03*
X03564Y03539D03*
Y03578D03*
X03879Y035D03*
Y03539D03*
X03761Y035D03*
X04265Y03421D03*
X04186Y03539D03*
X04147D03*
X04029D03*
X03563Y03426D03*
X03022Y03902D03*
X03158Y03804D03*
X03212Y03901D03*
X03158Y0371D03*
X03763Y03261D03*
X03946D03*
X03843Y03262D03*
X03567Y03301D03*
X02373Y03804D03*
X03606Y02763D03*
X03127Y03475D03*
X03947Y02999D03*
X03986Y03038D03*
X03764Y03077D03*
X03607Y03536D03*
X03603Y035D03*
X03803Y03038D03*
X04196Y03381D03*
X04104Y03339D03*
X03986Y033D03*
X038Y03263D03*
X03949Y03227D03*
X03022Y03807D03*
X0384Y03381D03*
X03725Y03418D03*
X03883Y033D03*
X03803Y033D03*
X03725D03*
X04593Y02559D03*
Y02465D03*
X03722Y03381D03*
X03603Y03184D03*
X04843Y03741D03*
X04952Y03821D03*
X04915Y03822D03*
X04925Y04035D03*
X04994Y04052D03*
X02373Y0371D03*
X04068Y03342D03*
Y03303D03*
Y03381D03*
X03127Y03381D03*
X03841Y03504D03*
X03761Y03421D03*
X03612Y04872D03*
X03734Y04847D03*
X0374Y04666D03*
X0361Y04642D03*
X03507Y04678D03*
Y04835D03*
X0361Y0432D03*
X03737Y04348D03*
X03732Y04535D03*
X03618Y04563D03*
X0419Y03108D03*
X0395Y02958D03*
X04106Y03383D03*
X04033Y03309D03*
X0356Y03503D03*
X03314Y03114D03*
X03374D03*
X03346D03*
X03314Y03043D03*
X03342D03*
X03374D03*
X03275Y03248D03*
X03346D03*
X05341Y03845D03*
X05342Y03896D03*
X04484Y03972D03*
X03606Y02724D03*
X03377Y02921D03*
Y02897D03*
X03417Y02921D03*
Y02897D03*
X03377Y02862D03*
Y02838D03*
X03682Y03539D03*
X04192Y03153D03*
X04031Y03185D03*
X03944Y03681D03*
Y03755D03*
X03968D03*
X04019D03*
X04047D03*
X04078D03*
X0411D03*
X04114Y0359D03*
X04015Y03685D03*
X04346Y03027D03*
X03755Y02629D03*
X03783D03*
X03811D03*
X03783Y02704D03*
X03755D03*
X04444Y03629D03*
Y03594D03*
X04519Y03629D03*
Y03594D03*
X03794Y03816D03*
X0398Y02606D03*
X04015D03*
X03133Y0322D03*
X03196Y0324D03*
X04515Y03472D03*
X03881Y02996D03*
X03078Y03137D03*
X03127Y03412D03*
X03948Y035D03*
X03803Y03578D03*
X03842Y03535D03*
X03889Y03622D03*
X0348Y03125D03*
X03948Y02606D03*
X03984Y0272D03*
X04015D03*
X03607Y04382D03*
Y04406D03*
Y0443D03*
Y04455D03*
Y04479D03*
Y04504D03*
X03603Y04702D03*
Y04724D03*
Y04746D03*
Y04769D03*
Y04791D03*
Y04814D03*
X04047Y03685D03*
X03814Y02704D03*
X03559Y04539D03*
Y04342D03*
X0384Y02996D03*
X0395Y03111D03*
X03606Y02955D03*
X0427Y02875D03*
X03838Y03074D03*
X03992Y03075D03*
X03881Y03078D03*
X03799D03*
X0372D03*
X03881Y03114D03*
X03834Y03106D03*
X04066Y03035D03*
X04582Y0335D03*
X04717Y03444D03*
X04343Y02961D03*
X04476Y03173D03*
X04879Y03741D03*
X03986Y02999D03*
X04915Y03741D03*
X03986Y02959D03*
X04952Y03741D03*
X03952Y02909D03*
X04304Y0302D03*
X04267Y03192D03*
X04444Y03665D03*
X03944Y03539D03*
X03992Y03543D03*
X04066Y03456D03*
X0348Y03503D03*
X03759Y03299D03*
X03678Y03073D03*
X03722Y03227D03*
X03716Y0311D03*
X03358Y03385D03*
X03421Y03389D03*
X03834Y03228D03*
X03884Y03226D03*
X03948Y03161D03*
X03881Y03036D03*
X03641Y03417D03*
X0372Y03035D03*
X03759D03*
X04148Y03225D03*
X03681Y03114D03*
X04273Y02917D03*
X04264Y03036D03*
X03685Y03499D03*
X04653Y03192D03*
X038Y03224D03*
X03761D03*
X03607Y033D03*
X05381Y0333D03*
X03607Y0326D03*
X05381Y03299D03*
X03799Y0311D03*
X03759D03*
X03679Y03271D03*
X0372Y03157D03*
X03838Y03185D03*
X03799Y03157D03*
X03763D03*
X04307Y03147D03*
X04275Y03153D03*
X04437Y03173D03*
X04476Y03149D03*
X04437D03*
X06522Y03997D03*
Y04027D03*
X03646Y03221D03*
X03607D03*
X06444Y03865D03*
X03881Y02917D03*
X038Y02996D03*
X03839Y02957D03*
X03681Y02917D03*
X03751Y02799D03*
X03801Y02957D03*
X03767Y02962D03*
X038Y02876D03*
X03834Y02763D03*
X03948Y0272D03*
X03607Y02881D03*
X06573Y02575D03*
X03637Y02921D03*
X04593Y02496D03*
X06573Y02549D03*
X03678Y02841D03*
X04593Y02527D03*
X05602Y0277D03*
Y02676D03*
X05051Y02279D03*
X03601Y02798D03*
X05602Y02739D03*
X03603Y02835D03*
X05602Y02708D03*
X03712Y02956D03*
X06422Y03497D03*
X03677Y02952D03*
X06422Y03527D03*
X0372Y02838D03*
X06522Y03547D03*
X03716Y02799D03*
X06522Y03577D03*
Y03427D03*
X03645Y02877D03*
X06522Y03397D03*
X03685Y02881D03*
X03417Y02838D03*
Y02862D03*
X06375Y02747D03*
Y02777D03*
X03559Y03188D03*
X03566Y03102D03*
X06372Y02499D03*
Y02625D03*
X03019Y03118D03*
X06344Y02064D03*
X06523Y02699D03*
X06372D03*
X06598Y02363D03*
X06624Y02436D03*
X06422Y02412D03*
X06522Y03847D03*
X03834Y02917D03*
X06522Y03877D03*
X03791Y02917D03*
X0407Y02842D03*
X04468Y02799D03*
Y02822D03*
X04429Y02799D03*
X03834Y02878D03*
X06522Y03697D03*
X03834Y02842D03*
X06522Y03727D03*
X03755Y02912D03*
X06422Y03647D03*
X03753Y02877D03*
X06422Y03677D03*
X04348Y03426D03*
X04381D03*
X04271Y03314D03*
X0423Y03343D03*
X03883Y03378D03*
X04468Y03503D03*
X04429D03*
X04468Y0348D03*
X04429D03*
X04267Y03458D03*
X03878Y03424D03*
X03947Y03381D03*
X0395Y03458D03*
X03914Y03381D03*
X039Y03427D03*
X03988Y035D03*
X04032Y0358D03*
X04109Y03536D03*
X04062Y03539D03*
X04082Y03685D03*
X04106D03*
X04153Y03466D03*
X04011Y03499D03*
X06037Y04934D03*
X04034Y03465D03*
X06069Y04934D03*
X04231Y03501D03*
X061Y04934D03*
X04268Y0354D03*
X06132Y04933D03*
X0411Y03468D03*
X06195Y04933D03*
X04111Y0343D03*
X06165Y04932D03*
X03997Y03463D03*
X0626Y04935D03*
X06229Y04936D03*
X03566Y02799D03*
X06422Y03227D03*
Y03197D03*
X03567Y02841D03*
X05051Y02248D03*
X03607Y02999D03*
X06572Y02475D03*
X05051Y02216D03*
X03607Y03038D03*
X06572Y02449D03*
X03519Y02917D03*
X06522Y03277D03*
X03555Y02956D03*
X06522Y03247D03*
X03528Y03038D03*
X06422Y03077D03*
X03567Y03038D03*
X06422Y03047D03*
X03639Y02991D03*
X05999Y02D03*
X06523Y02649D03*
X03639Y02952D03*
X05999Y01968D03*
X06523Y02675D03*
X03598Y03114D03*
X06522Y03127D03*
X03633Y03115D03*
X06522Y03097D03*
X0353Y03153D03*
X06422Y02927D03*
X03568Y03157D03*
X06422Y02897D03*
X06622Y02697D03*
X03567Y03221D03*
X05509Y01928D03*
X06622Y02727D03*
X03567Y0326D03*
X05509Y01897D03*
X06522Y02947D03*
X03523Y03236D03*
X0533Y01897D03*
X06522Y02977D03*
X03523Y03275D03*
X0533Y01866D03*
X06522Y02797D03*
X05755Y01849D03*
X03526Y0334D03*
X06522Y02827D03*
X03526Y0338D03*
X05755Y01818D03*
X05889Y01767D03*
X03526Y03537D03*
X05889Y01736D03*
X03526Y03577D03*
X03724Y035D03*
X06372Y02449D03*
X03724Y03539D03*
X06372Y02475D03*
X03803Y03496D03*
X06372Y02649D03*
X03803Y03536D03*
X06372Y02675D03*
X03843Y03418D03*
X06374Y02064D03*
X03843Y03457D03*
X06405Y02064D03*
X03607Y03378D03*
X0642Y03377D03*
X03607Y03339D03*
X0642Y03347D03*
X03633Y03772D03*
G54D89*
X05194Y0382D03*
X05189Y0387D03*
X05192Y0392D03*
X0519Y0397D03*
X01546Y02066D03*
X04606Y02751D03*
X04559Y02925D03*
Y02889D03*
X04728Y03015D03*
X0473Y02876D03*
X0514Y02973D03*
X03912Y03858D03*
X04138Y03843D03*
X04139Y03887D03*
X02549Y04308D03*
X01763Y03454D03*
Y03485D03*
X01762Y0342D03*
Y03385D03*
X01795Y03454D03*
X01796Y03485D03*
X01795Y03419D03*
Y03384D03*
X04206Y05161D03*
X04154Y05162D03*
X04733Y03157D03*
X02523Y02649D03*
X04137Y02388D03*
X04161Y02481D03*
X04386Y02483D03*
X04085Y02515D03*
X03815Y02491D03*
X03712Y03952D03*
X0357D03*
X03657Y03854D03*
X03471Y03893D03*
X04179Y03966D03*
X03872Y03939D03*
X03912Y0382D03*
Y03893D03*
X03905Y03983D03*
X03908Y04018D03*
X0414Y04019D03*
X04141Y03927D03*
X02844Y02244D03*
X02843Y02143D03*
X02491Y0207D03*
X02459Y02056D03*
X02506Y02332D03*
X02476D03*
X01889Y01621D03*
X01712Y01609D03*
X01718Y01975D03*
Y01934D03*
Y01894D03*
Y01857D03*
Y01819D03*
X02039Y02214D03*
X02Y02213D03*
X01963Y02214D03*
X01925Y02213D03*
X01845Y02634D03*
X01888D03*
X01934D03*
X0198D03*
X02028D03*
Y02591D03*
X0198D03*
X01934D03*
X01888D03*
X01845D03*
X01094Y03149D03*
X01062Y0315D03*
X0103Y03151D03*
X01001D03*
X01122Y02973D03*
X01092D03*
X01062D03*
X01031D03*
X00999D03*
X017Y03659D03*
X01165Y04682D03*
X01132Y04681D03*
X01188Y04712D03*
X01133Y04711D03*
X01194Y04742D03*
X01164D03*
X01133Y04741D03*
X01539Y02985D03*
X0126Y03037D03*
X01259Y03093D03*
X03506Y03892D03*
X03775Y02489D03*
Y02457D03*
X0513Y03455D03*
Y03103D03*
X0467Y0311D03*
X03737Y02525D03*
X03775Y0252D03*
X04014Y02521D03*
X0435Y02566D03*
X03897Y02667D03*
X04878Y0339D03*
X03721Y05355D03*
X03868Y05351D03*
Y05234D03*
X04075Y05352D03*
X03925Y05351D03*
X04078Y05233D03*
X01519Y01966D03*
X01467Y01968D03*
X05042Y03947D03*
X05041Y03895D03*
X05042Y03846D03*
X02408Y04098D03*
X02471D03*
X02566D03*
X02968Y04099D03*
X03Y041D03*
X03031D03*
X03126D03*
X02265Y04308D03*
X02297D03*
X02827Y04306D03*
X0311D03*
X02858D03*
X02921D03*
X0236Y04308D03*
X02938Y041D03*
X02843D03*
X02377Y04098D03*
X02283D03*
X0244D03*
X02234Y04865D03*
X02294D03*
X02354D03*
X02414D03*
X02474D03*
X02534D03*
X02594D03*
X0317Y04866D03*
X0311D03*
X0305D03*
X0299D03*
X0293D03*
X0287D03*
X0281D03*
X02063Y0417D03*
X02064Y04736D03*
Y04701D03*
X03332Y04735D03*
Y04702D03*
X0333Y04179D03*
Y04144D03*
X01284Y02948D03*
X01384Y04904D03*
X01549Y03661D03*
X01896Y01584D03*
X02063Y04138D03*
X02797Y03099D03*
Y03134D03*
X02839Y03251D03*
Y03214D03*
X02873Y03251D03*
X01467Y01833D03*
X01519Y01832D03*
X01445Y02014D03*
X04037Y01551D03*
X03957D03*
X03997D03*
X04077D03*
X04157D03*
X04197D03*
X03917D03*
X04117D03*
X04237D03*
X02476Y03187D03*
X0266Y02549D03*
X02438Y02843D03*
X01318Y02837D03*
X01264Y03183D03*
X01329Y03094D03*
Y03038D03*
X01301Y03184D03*
X01294Y03094D03*
X01293Y03037D03*
X02279Y02953D03*
X04545Y03352D03*
X03662Y04075D03*
X03463Y04015D03*
X04154Y05374D03*
X04207Y05373D03*
X03765Y05178D03*
X03972Y05177D03*
X02948Y03357D03*
X01492Y02062D03*
X0224Y03334D03*
X05173Y04362D03*
X05169Y04291D03*
X03519Y04188D03*
Y04267D03*
X03523Y04614D03*
X0346Y04661D03*
X01866Y04188D03*
Y04251D03*
X0187Y04696D03*
Y04629D03*
X01374Y03996D03*
X01519Y02877D03*
X01547D03*
X01578D03*
X04283Y02527D03*
X03555Y04019D03*
X04417Y03881D03*
X05271Y03354D03*
X05338Y03279D03*
X0294Y03007D03*
X02862Y03031D03*
X01523Y03586D03*
X02685Y02488D03*
X03937Y02456D03*
X02953Y04306D03*
X03047D03*
X03078Y04417D03*
X03015D03*
X02984D03*
X0289D03*
X02391Y04308D03*
X02486D03*
X02517Y04419D03*
X02454D03*
X02423D03*
X02328D03*
X02986Y03111D03*
X0435Y02538D03*
X0576Y05138D03*
X05835Y05138D03*
X05039Y05144D03*
X05113D03*
X04435Y03405D03*
X05948Y05132D03*
X0597Y05158D03*
X0678Y05129D03*
X06645Y05138D03*
G54D90*
X04007Y03938D03*
Y03895D03*
X0405D03*
Y03938D03*
G54D91*
X02643Y02233D03*
X02644Y02271D03*
X02683D03*
X02605D03*
X02567D03*
X02722D03*
X02683Y02233D03*
X02605D03*
X02567D03*
X02722D03*
X02682Y02155D03*
X02604D03*
X02566D03*
X02643D03*
X02721D03*
X02682Y02117D03*
X02604D03*
X02566D03*
X02643D03*
X02721D03*
G54D112*
X03519Y04378D03*
X03412D03*
X01864Y04508D03*
X01971D03*
X03519Y04503D03*
X03412D03*
X01864Y04368D03*
X0197D03*
G54D113*
X038Y03751D03*
X03671D03*
G54D114*
X04433Y03919D03*
Y03844D03*
G54D115*
X04476Y03919D03*
Y03844D03*
X04391Y03919D03*
Y03844D03*
G54D116*
X03394Y0426D03*
Y04181D03*
X01986Y04621D03*
Y047D03*
X03389Y0462D03*
Y04699D03*
X01994Y04251D03*
Y04172D03*
G54D117*
X01518Y02034D03*
Y02014D03*
Y01994D03*
X01469D03*
Y02014D03*
Y02034D03*
G54D118*
X04789Y03107D03*
Y03157D03*
Y03207D03*
Y03257D03*
Y03307D03*
Y03357D03*
Y03407D03*
Y03457D03*
X05195Y03107D03*
Y03157D03*
Y03207D03*
Y03257D03*
Y03307D03*
Y03357D03*
Y03407D03*
G54D119*
X05195Y03457D03*
G54D120*
X05146Y04257D03*
X0517D03*
X05146Y04331D03*
X0517D03*
X05195D03*
G54D121*
X05195Y04257D03*
G54D122*
X03593Y03893D03*
Y03818D03*
X0369Y03856D03*
Y03893D03*
Y03818D03*
X04217Y02566D03*
Y02491D03*
X04314Y02529D03*
Y02566D03*
Y02491D03*
X03868Y02494D03*
Y02531D03*
Y02456D03*
X03965D03*
Y02531D03*
Y02494D03*
G54D123*
X0399Y0399D03*
X04016D03*
X04041D03*
X0399Y03842D03*
X04016D03*
X04041D03*
X04067Y0399D03*
Y03842D03*
G54D124*
X03955Y03929D03*
Y03904D03*
Y03955D03*
Y03878D03*
X04102Y03929D03*
Y03904D03*
Y03955D03*
Y03878D03*
G54D125*
X04029Y03916D03*
G54D126*
X05788Y05114D03*
Y05138D03*
Y05163D03*
X05863Y05114D03*
Y05138D03*
X05088Y05168D03*
Y05144D03*
Y0512D03*
X05014Y05168D03*
Y05144D03*
X05924Y05132D03*
Y05156D03*
X05998Y05107D03*
Y05132D03*
Y05156D03*
X06756Y05133D03*
Y05109D03*
X06681Y05158D03*
Y05133D03*
Y05109D03*
G54D127*
X05863Y05163D03*
X05014Y0512D03*
X05924Y05107D03*
X06756Y05158D03*
G54D128*
X01946Y02016D03*
G54D129*
X07036Y04336D03*
M02*