G04 Layer_Color=2752767*
%FSLAX45Y45*%
%MOMM*%
%TF.FileFunction,Drawing*%
%TF.Part,Single*%
G01*
G75*
%TA.AperFunction,NonConductor*%
%ADD130C,0.10160*%
%ADD131C,0.12700*%
%ADD228C,0.16933*%
D130*
X7614920Y7901940D02*
G03*
X7614920Y7901940I-30480J0D01*
G01*
X5944940Y11226058D02*
G03*
X5944940Y11226058I-30480J0D01*
G01*
X6184940D02*
G03*
X6184940Y11226058I-30480J0D01*
G01*
X6264620D02*
G03*
X6264620Y11226058I-30480J0D01*
G01*
X6424640D02*
G03*
X6424640Y11226058I-30480J0D01*
G01*
X6344940Y10942320D02*
G03*
X6344940Y10942320I-30480J0D01*
G01*
X6104940D02*
G03*
X6104940Y10942320I-30480J0D01*
G01*
X7371100Y11220978D02*
G03*
X7371100Y11220978I-30480J0D01*
G01*
X7611100D02*
G03*
X7611100Y11220978I-30480J0D01*
G01*
X7691100D02*
G03*
X7691100Y11220978I-30480J0D01*
G01*
X7850800D02*
G03*
X7850800Y11220978I-30480J0D01*
G01*
X7771100Y10937240D02*
G03*
X7771100Y10937240I-30480J0D01*
G01*
X7531100D02*
G03*
X7531100Y10937240I-30480J0D01*
G01*
X10030480Y6240000D02*
G03*
X10030480Y6240000I-30480J0D01*
G01*
X11252200Y8646160D02*
G03*
X11252200Y8646160I-30480J0D01*
G01*
X10972800Y12514580D02*
G03*
X10972800Y12514580I-30480J0D01*
G01*
X10772140Y12409170D02*
G03*
X10772140Y12409170I-30480J0D01*
G01*
X10586720Y12237720D02*
G03*
X10586720Y12237720I-30480J0D01*
G01*
X10464800Y12156440D02*
G03*
X10464800Y12156440I-30480J0D01*
G01*
X6850466Y6319987D02*
G03*
X6850466Y6319987I-30480J0D01*
G01*
X3900480Y9110000D02*
G03*
X3900480Y9110000I-30480J0D01*
G01*
X7300480Y7700000D02*
G03*
X7300480Y7700000I-30480J0D01*
G01*
X7500480Y7640000D02*
G03*
X7500480Y7640000I-30480J0D01*
G01*
X13590480Y8330000D02*
G03*
X13590480Y8330000I-30480J0D01*
G01*
X13420480Y8520000D02*
G03*
X13420480Y8520000I-30480J0D01*
G01*
X11250480Y9860000D02*
G03*
X11250480Y9860000I-30480J0D01*
G01*
X9060480Y10210000D02*
G03*
X9060480Y10210000I-30480J0D01*
G01*
X10910480Y6420000D02*
G03*
X10910480Y6420000I-30480J0D01*
G01*
X4040480Y7310000D02*
G03*
X4040480Y7310000I-30480J0D01*
G01*
X3960480D02*
G03*
X3960480Y7310000I-30480J0D01*
G01*
X3890480D02*
G03*
X3890480Y7310000I-30480J0D01*
G01*
X3520480Y10150000D02*
G03*
X3520480Y10150000I-30480J0D01*
G01*
X4780480Y11760000D02*
G03*
X4780480Y11760000I-30480J0D01*
G01*
Y11930000D02*
G03*
X4780480Y11930000I-30480J0D01*
G01*
X4770480Y10800000D02*
G03*
X4770480Y10800000I-30480J0D01*
G01*
Y10640000D02*
G03*
X4770480Y10640000I-30480J0D01*
G01*
X8820480Y11840000D02*
G03*
X8820480Y11840000I-30480J0D01*
G01*
X8980480Y11720000D02*
G03*
X8980480Y11720000I-30480J0D01*
G01*
X8970480Y10840000D02*
G03*
X8970480Y10840000I-30480J0D01*
G01*
Y10640000D02*
G03*
X8970480Y10640000I-30480J0D01*
G01*
X13160480Y10900000D02*
G03*
X13160480Y10900000I-30480J0D01*
G01*
X13170480Y11080000D02*
G03*
X13170480Y11080000I-30480J0D01*
G01*
X5720480Y8470000D02*
G03*
X5720480Y8470000I-30480J0D01*
G01*
X3820480Y5240000D02*
G03*
X3820480Y5240000I-30480J0D01*
G01*
X7518400Y8526780D02*
G03*
X7518400Y8526780I-30480J0D01*
G01*
X12233840Y12807880D02*
G03*
X12233840Y12807880I-30480J0D01*
G01*
X11708060Y12810420D02*
G03*
X11708060Y12810420I-30480J0D01*
G01*
X12829539Y13304520D02*
G03*
X12829539Y13304520I-30480J0D01*
G01*
X12694920Y13309599D02*
G03*
X12694920Y13309599I-30480J0D01*
G01*
X8826500Y10198100D02*
G03*
X8826500Y10198100I-30480J0D01*
G01*
X9331960Y10350500D02*
G03*
X9331960Y10350500I-30480J0D01*
G01*
X11574780Y8514080D02*
G03*
X11574780Y8514080I-30480J0D01*
G01*
X5819140Y7500620D02*
G03*
X5819140Y7500620I-30480J0D01*
G01*
X3314700Y7716260D02*
G03*
X3314700Y7716260I-30480J0D01*
G01*
X3317240Y7861040D02*
G03*
X3317240Y7861040I-30480J0D01*
G01*
X3335020Y8089640D02*
G03*
X3335020Y8089640I-30480J0D01*
G01*
X3406140Y7718800D02*
G03*
X3406140Y7718800I-30480J0D01*
G01*
Y7861040D02*
G03*
X3406140Y7861040I-30480J0D01*
G01*
X3241040Y8087100D02*
G03*
X3241040Y8087100I-30480J0D01*
G01*
X3378720Y7205980D02*
G03*
X3378720Y7205980I-30480J0D01*
G01*
X6223000Y7221220D02*
G03*
X6223000Y7221220I-30480J0D01*
G01*
X6786880Y6474460D02*
G03*
X6786880Y6474460I-30480J0D01*
G01*
X6320800Y8096260D02*
G03*
X6320800Y8096260I-30480J0D01*
G01*
X10792460Y3939540D02*
G03*
X10792460Y3939540I-30480J0D01*
G01*
X10487660D02*
G03*
X10487660Y3939540I-30480J0D01*
G01*
X9979660D02*
G03*
X9979660Y3939540I-30480J0D01*
G01*
X10690860D02*
G03*
X10690860Y3939540I-30480J0D01*
G01*
X10589260D02*
G03*
X10589260Y3939540I-30480J0D01*
G01*
X10386060D02*
G03*
X10386060Y3939540I-30480J0D01*
G01*
X10182860D02*
G03*
X10182860Y3939540I-30480J0D01*
G01*
X10081260D02*
G03*
X10081260Y3939540I-30480J0D01*
G01*
X10284460D02*
G03*
X10284460Y3939540I-30480J0D01*
G01*
X3702000Y5116880D02*
G03*
X3702000Y5116880I-30480J0D01*
G01*
X3888740Y4654600D02*
G03*
X3888740Y4654600I-30480J0D01*
G01*
X3756660Y4657140D02*
G03*
X3756660Y4657140I-30480J0D01*
G01*
X7327900Y8257540D02*
G03*
X7327900Y8257540I-30480J0D01*
G01*
X7241540Y8163560D02*
G03*
X7241540Y8163560I-30480J0D01*
G01*
Y8257540D02*
G03*
X7241540Y8257540I-30480J0D01*
G01*
X7134860Y7960360D02*
G03*
X7134860Y7960360I-30480J0D01*
G01*
Y7871460D02*
G03*
X7134860Y7871460I-30480J0D01*
G01*
X5270500Y10510520D02*
G03*
X5270500Y10510520I-30480J0D01*
G01*
X4848340Y4023880D02*
G03*
X4848340Y4023880I-30480J0D01*
G01*
X3964940Y9298940D02*
G03*
X3964940Y9298940I-30480J0D01*
G01*
X3236220Y12438120D02*
G03*
X3236220Y12438120I-30480J0D01*
G01*
X3291840Y7487920D02*
G03*
X3291840Y7487920I-30480J0D01*
G01*
X8488680Y10525760D02*
G03*
X8488680Y10525760I-30480J0D01*
G01*
Y10614660D02*
G03*
X8488680Y10614660I-30480J0D01*
G01*
X8493760Y11943080D02*
G03*
X8493760Y11943080I-30480J0D01*
G01*
Y12026900D02*
G03*
X8493760Y12026900I-30480J0D01*
G01*
X5273040Y11940540D02*
G03*
X5273040Y11940540I-30480J0D01*
G01*
Y12029440D02*
G03*
X5273040Y12029440I-30480J0D01*
G01*
X5270500Y10591800D02*
G03*
X5270500Y10591800I-30480J0D01*
G01*
X7167880Y12359640D02*
G03*
X7167880Y12359640I-30480J0D01*
G01*
X7320280D02*
G03*
X7320280Y12359640I-30480J0D01*
G01*
X7472680D02*
G03*
X7472680Y12359640I-30480J0D01*
G01*
X7625080D02*
G03*
X7625080Y12359640I-30480J0D01*
G01*
X7777480D02*
G03*
X7777480Y12359640I-30480J0D01*
G01*
X7929880D02*
G03*
X7929880Y12359640I-30480J0D01*
G01*
X8082280D02*
G03*
X8082280Y12359640I-30480J0D01*
G01*
X6619240Y12357100D02*
G03*
X6619240Y12357100I-30480J0D01*
G01*
X6466840D02*
G03*
X6466840Y12357100I-30480J0D01*
G01*
X6314440D02*
G03*
X6314440Y12357100I-30480J0D01*
G01*
X6162040D02*
G03*
X6162040Y12357100I-30480J0D01*
G01*
X6009640D02*
G03*
X6009640Y12357100I-30480J0D01*
G01*
X5857240D02*
G03*
X5857240Y12357100I-30480J0D01*
G01*
X5704840D02*
G03*
X5704840Y12357100I-30480J0D01*
G01*
X6229300Y10408920D02*
G03*
X6229300Y10408920I-30480J0D01*
G01*
X5829300D02*
G03*
X5829300Y10408920I-30480J0D01*
G01*
X6069300D02*
G03*
X6069300Y10408920I-30480J0D01*
G01*
X7251700Y10414000D02*
G03*
X7251700Y10414000I-30480J0D01*
G01*
X7493260D02*
G03*
X7493260Y10414000I-30480J0D01*
G01*
X6024940Y10942320D02*
G03*
X6024940Y10942320I-30480J0D01*
G01*
X7451100Y10937240D02*
G03*
X7451100Y10937240I-30480J0D01*
G01*
X7291100D02*
G03*
X7291100Y10937240I-30480J0D01*
G01*
X7931100D02*
G03*
X7931100Y10937240I-30480J0D01*
G01*
X7211100D02*
G03*
X7211100Y10937240I-30480J0D01*
G01*
X5864940Y10942320D02*
G03*
X5864940Y10942320I-30480J0D01*
G01*
X5784940D02*
G03*
X5784940Y10942320I-30480J0D01*
G01*
X7971700Y10414000D02*
G03*
X7971700Y10414000I-30480J0D01*
G01*
X7731700D02*
G03*
X7731700Y10414000I-30480J0D01*
G01*
X7651700D02*
G03*
X7651700Y10414000I-30480J0D01*
G01*
X7571700Y10413999D02*
G03*
X7571700Y10413999I-30480J0D01*
G01*
X6549300Y10408920D02*
G03*
X6549300Y10408920I-30480J0D01*
G01*
X6309300D02*
G03*
X6309300Y10408920I-30480J0D01*
G01*
X6149300D02*
G03*
X6149300Y10408920I-30480J0D01*
G01*
X13962379Y13103860D02*
G03*
X13962379Y13103860I-30480J0D01*
G01*
X13840460D02*
G03*
X13840460Y13103860I-30480J0D01*
G01*
X13713460D02*
G03*
X13713460Y13103860I-30480J0D01*
G01*
X13589000D02*
G03*
X13589000Y13103860I-30480J0D01*
G01*
X3756660Y5000040D02*
G03*
X3756660Y5000040I-30480J0D01*
G01*
X3888740Y4994960D02*
G03*
X3888740Y4994960I-30480J0D01*
G01*
X12501880Y12948920D02*
G03*
X12501880Y12948920I-30480J0D01*
G01*
X12113260Y13248640D02*
G03*
X12113260Y13248640I-30480J0D01*
G01*
X12494260Y13251180D02*
G03*
X12494260Y13251180I-30480J0D01*
G01*
X11968480Y12951460D02*
G03*
X11968480Y12951460I-30480J0D01*
G01*
Y13248640D02*
G03*
X11968480Y13248640I-30480J0D01*
G01*
X11595100Y13258800D02*
G03*
X11595100Y13258800I-30480J0D01*
G01*
X12420600Y8610600D02*
G03*
X12420600Y8610600I-30480J0D01*
G01*
X9928860Y6774180D02*
G03*
X9928860Y6774180I-30480J0D01*
G01*
X11079480Y6518660D02*
G03*
X11079480Y6518660I-30480J0D01*
G01*
X10226040Y6403340D02*
G03*
X10226040Y6403340I-30480J0D01*
G01*
X9618980Y6400800D02*
G03*
X9618980Y6400800I-30480J0D01*
G01*
X9522460Y6413500D02*
G03*
X9522460Y6413500I-30480J0D01*
G01*
X11892280Y7899400D02*
G03*
X11892280Y7899400I-30480J0D01*
G01*
X13063220Y7881620D02*
G03*
X13063220Y7881620I-30480J0D01*
G01*
Y8775700D02*
G03*
X13063220Y8775700I-30480J0D01*
G01*
X9618980Y6241580D02*
G03*
X9618980Y6241580I-30480J0D01*
G01*
Y6322060D02*
G03*
X9618980Y6322060I-30480J0D01*
G01*
X8936520Y9887420D02*
G03*
X8936520Y9887420I-30480J0D01*
G01*
X6942290Y5377180D02*
G03*
X6942290Y5377180I-30480J0D01*
G01*
X6745440D02*
G03*
X6745440Y5377180I-30480J0D01*
G01*
X6548590D02*
G03*
X6548590Y5377180I-30480J0D01*
G01*
X6647015D02*
G03*
X6647015Y5377180I-30480J0D01*
G01*
X6843865D02*
G03*
X6843865Y5377180I-30480J0D01*
G01*
X6942290Y5473700D02*
G03*
X6942290Y5473700I-30480J0D01*
G01*
X6745440D02*
G03*
X6745440Y5473700I-30480J0D01*
G01*
X6548590D02*
G03*
X6548590Y5473700I-30480J0D01*
G01*
X6647015D02*
G03*
X6647015Y5473700I-30480J0D01*
G01*
X6843865D02*
G03*
X6843865Y5473700I-30480J0D01*
G01*
X6944830Y5671820D02*
G03*
X6944830Y5671820I-30480J0D01*
G01*
X6551130D02*
G03*
X6551130Y5671820I-30480J0D01*
G01*
X6649555D02*
G03*
X6649555Y5671820I-30480J0D01*
G01*
X6846405D02*
G03*
X6846405Y5671820I-30480J0D01*
G01*
X6944830Y5768340D02*
G03*
X6944830Y5768340I-30480J0D01*
G01*
X6551130D02*
G03*
X6551130Y5768340I-30480J0D01*
G01*
X6649555D02*
G03*
X6649555Y5768340I-30480J0D01*
G01*
X6847040D02*
G03*
X6847040Y5768340I-30480J0D01*
G01*
X6747980D02*
G03*
X6747980Y5768340I-30480J0D01*
G01*
X6745440Y5671820D02*
G03*
X6745440Y5671820I-30480J0D01*
G01*
X3228340Y7858500D02*
G03*
X3228340Y7858500I-30480J0D01*
G01*
X3230880Y7716260D02*
G03*
X3230880Y7716260I-30480J0D01*
G01*
X3939540Y7584180D02*
G03*
X3939540Y7584180I-30480J0D01*
G01*
X2598420Y12024100D02*
G03*
X2598420Y12024100I-30480J0D01*
G01*
X2677160Y12026640D02*
G03*
X2677160Y12026640I-30480J0D01*
G01*
X2753360D02*
G03*
X2753360Y12026640I-30480J0D01*
G01*
X2598420Y11947900D02*
G03*
X2598420Y11947900I-30480J0D01*
G01*
X2740480Y11950000D02*
G03*
X2740480Y11950000I-30480J0D01*
G01*
X2595880Y11871700D02*
G03*
X2595880Y11871700I-30480J0D01*
G01*
X2679700Y11874240D02*
G03*
X2679700Y11874240I-30480J0D01*
G01*
X4349100Y9295520D02*
G03*
X4349100Y9295520I-30480J0D01*
G01*
X2567940Y7553700D02*
G03*
X2567940Y7553700I-30480J0D01*
G01*
X2649220D02*
G03*
X2649220Y7553700I-30480J0D01*
G01*
X2727960D02*
G03*
X2727960Y7553700I-30480J0D01*
G01*
X2804160D02*
G03*
X2804160Y7553700I-30480J0D01*
G01*
X2880360D02*
G03*
X2880360Y7553700I-30480J0D01*
G01*
X2573020Y8005820D02*
G03*
X2573020Y8005820I-30480J0D01*
G01*
X2646680D02*
G03*
X2646680Y8005820I-30480J0D01*
G01*
X2727960Y8003280D02*
G03*
X2727960Y8003280I-30480J0D01*
G01*
X2809240Y8000740D02*
G03*
X2809240Y8000740I-30480J0D01*
G01*
X4716780Y6581140D02*
G03*
X4716780Y6581140I-30480J0D01*
G01*
X4826000D02*
G03*
X4826000Y6581140I-30480J0D01*
G01*
X4942840D02*
G03*
X4942840Y6581140I-30480J0D01*
G01*
X5059680D02*
G03*
X5059680Y6581140I-30480J0D01*
G01*
X5181600D02*
G03*
X5181600Y6581140I-30480J0D01*
G01*
Y6690360D02*
G03*
X5181600Y6690360I-30480J0D01*
G01*
X5059680D02*
G03*
X5059680Y6690360I-30480J0D01*
G01*
X4942840D02*
G03*
X4942840Y6690360I-30480J0D01*
G01*
X4826000D02*
G03*
X4826000Y6690360I-30480J0D01*
G01*
X4716780D02*
G03*
X4716780Y6690360I-30480J0D01*
G01*
X4919980Y5621020D02*
G03*
X4919980Y5621020I-30480J0D01*
G01*
X5016500Y5623560D02*
G03*
X5016500Y5623560I-30480J0D01*
G01*
X5110480Y5621020D02*
G03*
X5110480Y5621020I-30480J0D01*
G01*
X5209540Y5623560D02*
G03*
X5209540Y5623560I-30480J0D01*
G01*
X4394200Y4620260D02*
G03*
X4394200Y4620260I-30480J0D01*
G01*
Y4716780D02*
G03*
X4394200Y4716780I-30480J0D01*
G01*
Y4810760D02*
G03*
X4394200Y4810760I-30480J0D01*
G01*
Y4912360D02*
G03*
X4394200Y4912360I-30480J0D01*
G01*
Y5016500D02*
G03*
X4394200Y5016500I-30480J0D01*
G01*
X4380260Y4088100D02*
G03*
X4380260Y4088100I-30480J0D01*
G01*
X4830280Y4119080D02*
G03*
X4830280Y4119080I-30480J0D01*
G01*
X6319520Y5923280D02*
G03*
X6319520Y5923280I-30480J0D01*
G01*
X6395720D02*
G03*
X6395720Y5923280I-30480J0D01*
G01*
X6276340Y5222240D02*
G03*
X6276340Y5222240I-30480J0D01*
G01*
X6357620Y5257800D02*
G03*
X6357620Y5257800I-30480J0D01*
G01*
X7251700Y5443220D02*
G03*
X7251700Y5443220I-30480J0D01*
G01*
X7254240Y5702000D02*
G03*
X7254240Y5702000I-30480J0D01*
G01*
X10548620Y9974580D02*
G03*
X10548620Y9974580I-30480J0D01*
G01*
X10546080Y10208260D02*
G03*
X10546080Y10208260I-30480J0D01*
G01*
X9956800Y10205720D02*
G03*
X9956800Y10205720I-30480J0D01*
G01*
X9949180Y10116820D02*
G03*
X9949180Y10116820I-30480J0D01*
G01*
X9966960Y9888220D02*
G03*
X9966960Y9888220I-30480J0D01*
G01*
Y9702800D02*
G03*
X9966960Y9702800I-30480J0D01*
G01*
X9865360Y10005060D02*
G03*
X9865360Y10005060I-30480J0D01*
G01*
X10645140Y10073640D02*
G03*
X10645140Y10073640I-30480J0D01*
G01*
X8846820Y9888220D02*
G03*
X8846820Y9888220I-30480J0D01*
G01*
X9320480Y9790000D02*
G03*
X9320480Y9790000I-30480J0D01*
G01*
X9100480Y10040000D02*
G03*
X9100480Y10040000I-30480J0D01*
G01*
X9460480D02*
G03*
X9460480Y10040000I-30480J0D01*
G01*
X9720580Y6327140D02*
G03*
X9720580Y6327140I-30480J0D01*
G01*
X10406380Y6388100D02*
G03*
X10406380Y6388100I-30480J0D01*
G01*
X11170920Y6306820D02*
G03*
X11170920Y6306820I-30480J0D01*
G01*
X10599420Y6301740D02*
G03*
X10599420Y6301740I-30480J0D01*
G01*
X10538460Y6065520D02*
G03*
X10538460Y6065520I-30480J0D01*
G01*
X10051239Y12758420D02*
G03*
X10051239Y12758420I-30480J0D01*
G01*
X10050780Y13403580D02*
G03*
X10050780Y13403580I-30480J0D01*
G01*
X10048699Y12555220D02*
G03*
X10048699Y12555220I-30480J0D01*
G01*
X10050780Y13606779D02*
G03*
X10050780Y13606779I-30480J0D01*
G01*
X6440480Y6730000D02*
G03*
X6440480Y6730000I-30480J0D01*
G01*
X10177780Y9530080D02*
G03*
X10177780Y9530080I-30480J0D01*
G01*
X12052300Y8018780D02*
G03*
X12052300Y8018780I-30480J0D01*
G01*
X12694920Y12768580D02*
G03*
X12694920Y12768580I-30480J0D01*
G01*
X12827000Y12766040D02*
G03*
X12827000Y12766040I-30480J0D01*
G01*
X4589780Y8597640D02*
G03*
X4589780Y8597640I-30480J0D01*
G01*
Y8686540D02*
G03*
X4589780Y8686540I-30480J0D01*
G01*
X4592320Y8854180D02*
G03*
X4592320Y8854180I-30480J0D01*
G01*
X4589780Y8775440D02*
G03*
X4589780Y8775440I-30480J0D01*
G01*
X4505960Y8600180D02*
G03*
X4505960Y8600180I-30480J0D01*
G01*
Y8689080D02*
G03*
X4505960Y8689080I-30480J0D01*
G01*
X4508500Y8854180D02*
G03*
X4508500Y8854180I-30480J0D01*
G01*
Y8775440D02*
G03*
X4508500Y8775440I-30480J0D01*
G01*
X6504940Y10942320D02*
G03*
X6504940Y10942320I-30480J0D01*
G01*
X10543540Y9872980D02*
G03*
X10543540Y9872980I-30480J0D01*
G01*
X10541000Y9761220D02*
G03*
X10541000Y9761220I-30480J0D01*
G01*
X9966960Y9799320D02*
G03*
X9966960Y9799320I-30480J0D01*
G01*
X13967461Y12705080D02*
G03*
X13967461Y12705080I-30480J0D01*
G01*
X13840460Y12697460D02*
G03*
X13840460Y12697460I-30480J0D01*
G01*
X13713460Y12710160D02*
G03*
X13713460Y12710160I-30480J0D01*
G01*
X13586459D02*
G03*
X13586459Y12710160I-30480J0D01*
G01*
X13087280Y7553640D02*
G03*
X13087280Y7553640I-30480J0D01*
G01*
X12044680Y7305800D02*
G03*
X12044680Y7305800I-30480J0D01*
G01*
X12040480Y7660000D02*
G03*
X12040480Y7660000I-30480J0D01*
G01*
X12090480Y7140000D02*
G03*
X12090480Y7140000I-30480J0D01*
G01*
X11920480D02*
G03*
X11920480Y7140000I-30480J0D01*
G01*
X11079480Y6446520D02*
G03*
X11079480Y6446520I-30480J0D01*
G01*
X11610480Y7340000D02*
G03*
X11610480Y7340000I-30480J0D01*
G01*
Y7430000D02*
G03*
X11610480Y7430000I-30480J0D01*
G01*
X9080480Y9540000D02*
G03*
X9080480Y9540000I-30480J0D01*
G01*
X11730480Y6990000D02*
G03*
X11730480Y6990000I-30480J0D01*
G01*
D131*
X12573380Y11297920D02*
Y11399520D01*
X12674980D01*
Y11297920D01*
X12573380D01*
X2481040Y12800400D02*
Y12902000D01*
X2582640D01*
Y12800400D01*
X2481040D01*
X2106040Y13220399D02*
Y13322000D01*
X2207640D01*
Y13220399D01*
X2106040D01*
Y13020399D02*
Y13122000D01*
X2207640D01*
Y13020399D01*
X2106040D01*
X2706040Y13420399D02*
Y13522000D01*
X2807640D01*
Y13420399D01*
X2706040D01*
X2506040D02*
Y13522000D01*
X2607640D01*
Y13420399D01*
X2506040D01*
X2731040Y12800400D02*
Y12902000D01*
X2832640D01*
Y12800400D01*
X2731040D01*
X16258540Y10755630D02*
X16207739Y10857230D01*
X16309340D01*
X16258540Y10755630D01*
X15953740Y5317490D02*
X15902940Y5419090D01*
X16004539D01*
X15953740Y5317490D01*
X4165600Y12862560D02*
X4191000Y12887959D01*
X4216400D01*
X4191000Y12913361D01*
X4216400Y12938760D01*
X4191000D01*
X4165600Y12964160D01*
X4140200Y12938760D01*
X4114800D01*
X4140200Y12913361D01*
X4114800Y12887959D01*
X4140200D01*
X4165600Y12862560D01*
Y13322560D02*
X4191000Y13347960D01*
X4216400D01*
X4191000Y13373360D01*
X4216400Y13398759D01*
X4191000D01*
X4165600Y13424159D01*
X4140200Y13398759D01*
X4114800D01*
X4140200Y13373360D01*
X4114800Y13347960D01*
X4140200D01*
X4165600Y13322560D01*
Y12402560D02*
X4191000Y12427960D01*
X4216400D01*
X4191000Y12453360D01*
X4216400Y12478760D01*
X4191000D01*
X4165600Y12504160D01*
X4140200Y12478760D01*
X4114800D01*
X4140200Y12453360D01*
X4114800Y12427960D01*
X4140200D01*
X4165600Y12402560D01*
X3865880Y8323060D02*
X3891280Y8373860D01*
X3865880Y8424660D01*
X3916680Y8399260D01*
X3967480Y8424660D01*
X3942080Y8373860D01*
X3967480Y8323060D01*
X3916680Y8348460D01*
X3865880Y8323060D01*
Y7973060D02*
X3891280Y8023860D01*
X3865880Y8074660D01*
X3916680Y8049260D01*
X3967480Y8074660D01*
X3942080Y8023860D01*
X3967480Y7973060D01*
X3916680Y7998460D01*
X3865880Y7973060D01*
X5631920Y10648439D02*
Y10623039D01*
X5682720D01*
Y10648439D01*
X5708120D01*
Y10699239D01*
X5682720D01*
Y10724639D01*
X5631920D01*
Y10699239D01*
X5606520D01*
Y10648439D01*
X5631920D01*
X6591920D02*
Y10623039D01*
X6642720D01*
Y10648439D01*
X6668120D01*
Y10699239D01*
X6642720D01*
Y10724639D01*
X6591920D01*
Y10699239D01*
X6566520D01*
Y10648439D01*
X6591920D01*
X7056920Y10648440D02*
Y10623040D01*
X7107720D01*
Y10648440D01*
X7133120D01*
Y10699240D01*
X7107720D01*
Y10724640D01*
X7056920D01*
Y10699240D01*
X7031520D01*
Y10648440D01*
X7056920D01*
X8016920D02*
Y10623040D01*
X8067720D01*
Y10648440D01*
X8093120D01*
Y10699240D01*
X8067720D01*
Y10724640D01*
X8016920D01*
Y10699240D01*
X7991520D01*
Y10648440D01*
X8016920D01*
X7991520Y10003040D02*
X8016920D01*
X8042320Y10028440D01*
X8067720Y10003040D01*
X8093120D01*
Y10028440D01*
X8067720Y10053840D01*
X8093120Y10079240D01*
Y10104640D01*
X8067720D01*
X8042320Y10079240D01*
X8016920Y10104640D01*
X7991520D01*
Y10079240D01*
X8016920Y10053840D01*
X7991520Y10028440D01*
Y10003040D01*
X7511520D02*
X7536920D01*
X7562320Y10028440D01*
X7587720Y10003040D01*
X7613120D01*
Y10028440D01*
X7587720Y10053840D01*
X7613120Y10079240D01*
Y10104640D01*
X7587720D01*
X7562320Y10079240D01*
X7536920Y10104640D01*
X7511520D01*
Y10079240D01*
X7536920Y10053840D01*
X7511520Y10028440D01*
Y10003040D01*
X6086520D02*
X6111920D01*
X6137320Y10028440D01*
X6162720Y10003040D01*
X6188120D01*
Y10028440D01*
X6162720Y10053840D01*
X6188120Y10079240D01*
Y10104640D01*
X6162720D01*
X6137320Y10079240D01*
X6111920Y10104640D01*
X6086520D01*
Y10079240D01*
X6111920Y10053840D01*
X6086520Y10028440D01*
Y10003040D01*
X6566520D02*
X6591920D01*
X6617320Y10028440D01*
X6642720Y10003040D01*
X6668120D01*
Y10028440D01*
X6642720Y10053840D01*
X6668120Y10079240D01*
Y10104640D01*
X6642720D01*
X6617320Y10079240D01*
X6591920Y10104640D01*
X6566520D01*
Y10079240D01*
X6591920Y10053840D01*
X6566520Y10028440D01*
Y10003040D01*
X8224520Y11433040D02*
X8249920D01*
X8275320Y11458440D01*
X8300720Y11433040D01*
X8326120D01*
Y11458440D01*
X8300720Y11483840D01*
X8326120Y11509240D01*
Y11534640D01*
X8300720D01*
X8275320Y11509240D01*
X8249920Y11534640D01*
X8224520D01*
Y11509240D01*
X8249920Y11483840D01*
X8224520Y11458440D01*
Y11433040D01*
X5374520D02*
X5399920D01*
X5425320Y11458440D01*
X5450720Y11433040D01*
X5476120D01*
Y11458440D01*
X5450720Y11483840D01*
X5476120Y11509240D01*
Y11534640D01*
X5450720D01*
X5425320Y11509240D01*
X5399920Y11534640D01*
X5374520D01*
Y11509240D01*
X5399920Y11483840D01*
X5374520Y11458440D01*
Y11433040D01*
X8224520Y13763840D02*
X8275320Y13814639D01*
X8326120Y13763840D01*
X8275320Y13713040D01*
X8224520Y13763840D01*
Y12763840D02*
X8275320Y12814639D01*
X8326120Y12763840D01*
X8275320Y12713040D01*
X8224520Y12763840D01*
Y11763840D02*
X8275320Y11814640D01*
X8326120Y11763840D01*
X8275320Y11713040D01*
X8224520Y11763840D01*
Y10963040D02*
X8249920D01*
X8275320Y10988440D01*
X8300720Y10963040D01*
X8326120D01*
Y10988440D01*
X8300720Y11013840D01*
X8326120Y11039240D01*
Y11064640D01*
X8300720D01*
X8275320Y11039240D01*
X8249920Y11064640D01*
X8224520D01*
Y11039240D01*
X8249920Y11013840D01*
X8224520Y10988440D01*
Y10963040D01*
Y10463040D02*
X8249920D01*
X8275320Y10488440D01*
X8300720Y10463040D01*
X8326120D01*
Y10488440D01*
X8300720Y10513840D01*
X8326120Y10539240D01*
Y10564640D01*
X8300720D01*
X8275320Y10539240D01*
X8249920Y10564640D01*
X8224520D01*
Y10539240D01*
X8249920Y10513840D01*
X8224520Y10488440D01*
Y10463040D01*
X5374520Y13263840D02*
X5425320Y13314639D01*
X5476120Y13263840D01*
X5425320Y13213040D01*
X5374520Y13263840D01*
Y12263840D02*
X5425320Y12314640D01*
X5476120Y12263840D01*
X5425320Y12213040D01*
X5374520Y12263840D01*
Y11263840D02*
X5425320Y11314640D01*
X5476120Y11263840D01*
X5425320Y11213040D01*
X5374520Y11263840D01*
Y10263840D02*
X5425320Y10314640D01*
X5476120Y10263840D01*
X5425320Y10213040D01*
X5374520Y10263840D01*
X6799520Y10213040D02*
X6824920D01*
X6850320Y10238440D01*
X6875720Y10213040D01*
X6901120D01*
Y10238440D01*
X6875720Y10263840D01*
X6901120Y10289240D01*
Y10314640D01*
X6875720D01*
X6850320Y10289240D01*
X6824920Y10314640D01*
X6799520D01*
Y10289240D01*
X6824920Y10263840D01*
X6799520Y10238440D01*
Y10213040D01*
Y11213040D02*
X6824920D01*
X6850320Y11238440D01*
X6875720Y11213040D01*
X6901120D01*
Y11238440D01*
X6875720Y11263840D01*
X6901120Y11289240D01*
Y11314640D01*
X6875720D01*
X6850320Y11289240D01*
X6824920Y11314640D01*
X6799520D01*
Y11289240D01*
X6824920Y11263840D01*
X6799520Y11238440D01*
Y11213040D01*
Y12213040D02*
X6824920D01*
X6850320Y12238440D01*
X6875720Y12213040D01*
X6901120D01*
Y12238440D01*
X6875720Y12263840D01*
X6901120Y12289240D01*
Y12314640D01*
X6875720D01*
X6850320Y12289240D01*
X6824920Y12314640D01*
X6799520D01*
Y12289240D01*
X6824920Y12263840D01*
X6799520Y12238440D01*
Y12213040D01*
Y13213040D02*
X6824920D01*
X6850320Y13238440D01*
X6875720Y13213040D01*
X6901120D01*
Y13238440D01*
X6875720Y13263840D01*
X6901120Y13289240D01*
Y13314639D01*
X6875720D01*
X6850320Y13289240D01*
X6824920Y13314639D01*
X6799520D01*
Y13289240D01*
X6824920Y13263840D01*
X6799520Y13238440D01*
Y13213040D01*
X9689181Y7359185D02*
Y7460785D01*
X9790781D01*
Y7359185D01*
X9689181D01*
X9709501Y7379505D02*
Y7440465D01*
X9770461D01*
Y7379505D01*
X9709501D01*
X9579181Y7359185D02*
Y7460785D01*
X9680781D01*
Y7359185D01*
X9579181D01*
X9599501Y7379505D02*
Y7440465D01*
X9660461D01*
Y7379505D01*
X9599501D01*
X15648940Y8258810D02*
Y8360410D01*
X15750540D01*
Y8258810D01*
X15648940D01*
X15669260Y8279130D02*
Y8340090D01*
X15730220D01*
Y8279130D01*
X15669260D01*
X15648940Y8324450D02*
Y8426050D01*
X15750540D01*
Y8324450D01*
X15648940D01*
X15669260Y8344770D02*
Y8405730D01*
X15730220D01*
Y8344770D01*
X15669260D01*
X10589200Y8749200D02*
Y8850800D01*
X10690800D01*
Y8749200D01*
X10589200D01*
X10609520Y8769520D02*
Y8830480D01*
X10670480D01*
Y8769520D01*
X10609520D01*
X10809200Y7959200D02*
Y8060800D01*
X10910800D01*
Y7959200D01*
X10809200D01*
X10829520Y7979520D02*
Y8040480D01*
X10890480D01*
Y7979520D01*
X10829520D01*
X9309181Y8839182D02*
Y8940782D01*
X9410781D01*
Y8839182D01*
X9309181D01*
X9329501Y8859502D02*
Y8920462D01*
X9390461D01*
Y8859502D01*
X9329501D01*
X15521941Y10101580D02*
Y10203180D01*
X15623540D01*
Y10101580D01*
X15521941D01*
X15542261Y10121900D02*
Y10182860D01*
X15603220D01*
Y10121900D01*
X15542261D01*
X11615420Y6370300D02*
Y6471900D01*
X11717020D01*
Y6370300D01*
X11615420D01*
X11635740Y6390620D02*
Y6451580D01*
X11696700D01*
Y6390620D01*
X11635740D01*
X9189200Y7369200D02*
Y7470800D01*
X9290800D01*
Y7369200D01*
X9189200D01*
X9209520Y7389520D02*
Y7450480D01*
X9270480D01*
Y7389520D01*
X9209520D01*
X15521941Y10035540D02*
Y10137140D01*
X15623540D01*
Y10035540D01*
X15521941D01*
X15542261Y10055860D02*
Y10116820D01*
X15603220D01*
Y10055860D01*
X15542261D01*
X9111080Y7267040D02*
Y7368640D01*
X9212680D01*
Y7267040D01*
X9111080D01*
X9131400Y7287360D02*
Y7348320D01*
X9192360D01*
Y7287360D01*
X9131400D01*
X11615420Y6290300D02*
Y6391900D01*
X11717020D01*
Y6290300D01*
X11615420D01*
X11635740Y6310620D02*
Y6371580D01*
X11696700D01*
Y6310620D01*
X11635740D01*
X9209200Y7259200D02*
Y7360800D01*
X9310800D01*
Y7259200D01*
X9209200D01*
X9229520Y7279520D02*
Y7340480D01*
X9290480D01*
Y7279520D01*
X9229520D01*
X15648940Y7495540D02*
Y7597140D01*
X15750540D01*
Y7495540D01*
X15648940D01*
X15669260Y7515860D02*
Y7576820D01*
X15730220D01*
Y7515860D01*
X15669260D01*
X15648940Y7562450D02*
Y7664050D01*
X15750540D01*
Y7562450D01*
X15648940D01*
X15669260Y7582770D02*
Y7643730D01*
X15730220D01*
Y7582770D01*
X15669260D01*
X9311080Y7267040D02*
Y7368640D01*
X9412680D01*
Y7267040D01*
X9311080D01*
X9331400Y7287360D02*
Y7348320D01*
X9392360D01*
Y7287360D01*
X9331400D01*
X9398561Y7158355D02*
Y7259955D01*
X9500161D01*
Y7158355D01*
X9398561D01*
X9418881Y7178675D02*
Y7239635D01*
X9479841D01*
Y7178675D01*
X9418881D01*
X9279181Y7159186D02*
Y7260786D01*
X9380781D01*
Y7159186D01*
X9279181D01*
X9299501Y7179506D02*
Y7240466D01*
X9360461D01*
Y7179506D01*
X9299501D01*
X9489181Y7269185D02*
Y7370785D01*
X9590781D01*
Y7269185D01*
X9489181D01*
X9509501Y7289505D02*
Y7350465D01*
X9570461D01*
Y7289505D01*
X9509501D01*
X9579200Y7259200D02*
Y7360800D01*
X9680800D01*
Y7259200D01*
X9579200D01*
X9599520Y7279520D02*
Y7340480D01*
X9660480D01*
Y7279520D01*
X9599520D01*
X10780996Y7660996D02*
Y7762596D01*
X10882596D01*
Y7660996D01*
X10780996D01*
X10801316Y7681316D02*
Y7742276D01*
X10862276D01*
Y7681316D01*
X10801316D01*
X10803240Y7359200D02*
Y7460800D01*
X10904840D01*
Y7359200D01*
X10803240D01*
X10823560Y7379520D02*
Y7440480D01*
X10884520D01*
Y7379520D01*
X10823560D01*
X15811501Y9160510D02*
Y9262110D01*
X15913100D01*
Y9160510D01*
X15811501D01*
X15831821Y9180830D02*
Y9241790D01*
X15892780D01*
Y9180830D01*
X15831821D01*
X9211080Y8131480D02*
Y8233080D01*
X9312680D01*
Y8131480D01*
X9211080D01*
X9231400Y8151800D02*
Y8212760D01*
X9292360D01*
Y8151800D01*
X9231400D01*
X15811501Y9093200D02*
Y9194800D01*
X15913100D01*
Y9093200D01*
X15811501D01*
X15831821Y9113520D02*
Y9174480D01*
X15892780D01*
Y9113520D01*
X15831821D01*
X9111080Y8131480D02*
Y8233080D01*
X9212680D01*
Y8131480D01*
X9111080D01*
X9131400Y8151800D02*
Y8212760D01*
X9192360D01*
Y8151800D01*
X9131400D01*
X9599181Y7959184D02*
Y8060784D01*
X9700781D01*
Y7959184D01*
X9599181D01*
X9619501Y7979504D02*
Y8040464D01*
X9680461D01*
Y7979504D01*
X9619501D01*
X9009200Y7829200D02*
Y7930800D01*
X9110800D01*
Y7829200D01*
X9009200D01*
X9029520Y7849520D02*
Y7910480D01*
X9090480D01*
Y7849520D01*
X9029520D01*
X16029939Y8072120D02*
Y8173720D01*
X16131540D01*
Y8072120D01*
X16029939D01*
X16050259Y8092440D02*
Y8153400D01*
X16111220D01*
Y8092440D01*
X16050259D01*
X16029939Y8004810D02*
Y8106410D01*
X16131540D01*
Y8004810D01*
X16029939D01*
X16050259Y8025130D02*
Y8086090D01*
X16111220D01*
Y8025130D01*
X16050259D01*
X9178860Y7863700D02*
Y7965300D01*
X9280460D01*
Y7863700D01*
X9178860D01*
X9199180Y7884020D02*
Y7944980D01*
X9260140D01*
Y7884020D01*
X9199180D01*
X9299200Y7859200D02*
Y7960800D01*
X9400800D01*
Y7859200D01*
X9299200D01*
X9319520Y7879520D02*
Y7940480D01*
X9380480D01*
Y7879520D01*
X9319520D01*
X10485120Y8140700D02*
Y8242300D01*
X10586720D01*
Y8140700D01*
X10485120D01*
X10505440Y8161020D02*
Y8221980D01*
X10566400D01*
Y8161020D01*
X10505440D01*
X9689200Y7169200D02*
Y7270800D01*
X9790800D01*
Y7169200D01*
X9689200D01*
X9709520Y7189520D02*
Y7250480D01*
X9770480D01*
Y7189520D01*
X9709520D01*
X9679200Y7259200D02*
Y7360800D01*
X9780800D01*
Y7259200D01*
X9679200D01*
X9699520Y7279520D02*
Y7340480D01*
X9760480D01*
Y7279520D01*
X9699520D01*
X9489181Y7369185D02*
Y7470785D01*
X9590781D01*
Y7369185D01*
X9489181D01*
X9509501Y7389505D02*
Y7450465D01*
X9570461D01*
Y7389505D01*
X9509501D01*
X9499200Y7659200D02*
Y7760800D01*
X9600800D01*
Y7659200D01*
X9499200D01*
X9519520Y7679520D02*
Y7740480D01*
X9580480D01*
Y7679520D01*
X9519520D01*
X9399200Y7659200D02*
Y7760800D01*
X9500800D01*
Y7659200D01*
X9399200D01*
X9419520Y7679520D02*
Y7740480D01*
X9480480D01*
Y7679520D01*
X9419520D01*
X15648940Y9780270D02*
Y9881870D01*
X15750540D01*
Y9780270D01*
X15648940D01*
X15669260Y9800590D02*
Y9861550D01*
X15730220D01*
Y9800590D01*
X15669260D01*
X12910840Y6410960D02*
Y6512560D01*
X13012440D01*
Y6410960D01*
X12910840D01*
X12931160Y6431280D02*
Y6492240D01*
X12992120D01*
Y6431280D01*
X12931160D01*
X15648940Y9846310D02*
Y9947910D01*
X15750540D01*
Y9846310D01*
X15648940D01*
X15669260Y9866630D02*
Y9927590D01*
X15730220D01*
Y9866630D01*
X15669260D01*
X12990840Y6410960D02*
Y6512560D01*
X13092439D01*
Y6410960D01*
X12990840D01*
X13011160Y6431280D02*
Y6492240D01*
X13072121D01*
Y6431280D01*
X13011160D01*
X9111080Y7567040D02*
Y7668640D01*
X9212680D01*
Y7567040D01*
X9111080D01*
X9131400Y7587360D02*
Y7648320D01*
X9192360D01*
Y7587360D01*
X9131400D01*
X9111080Y7667040D02*
Y7768640D01*
X9212680D01*
Y7667040D01*
X9111080D01*
X9131400Y7687360D02*
Y7748320D01*
X9192360D01*
Y7687360D01*
X9131400D01*
X8940885Y7159820D02*
Y7261420D01*
X9042485D01*
Y7159820D01*
X8940885D01*
X8961205Y7180140D02*
Y7241100D01*
X9022165D01*
Y7180140D01*
X8961205D01*
X9009182Y7059186D02*
Y7160786D01*
X9110782D01*
Y7059186D01*
X9009182D01*
X9029502Y7079506D02*
Y7140466D01*
X9090462D01*
Y7079506D01*
X9029502D01*
X9389181Y7059186D02*
Y7160786D01*
X9490781D01*
Y7059186D01*
X9389181D01*
X9409501Y7079506D02*
Y7140466D01*
X9470461D01*
Y7079506D01*
X9409501D01*
X9109182Y7059186D02*
Y7160786D01*
X9210782D01*
Y7059186D01*
X9109182D01*
X9129502Y7079506D02*
Y7140466D01*
X9190462D01*
Y7079506D01*
X9129502D01*
X8910320Y7059200D02*
Y7160800D01*
X9011920D01*
Y7059200D01*
X8910320D01*
X8930640Y7079520D02*
Y7140480D01*
X8991600D01*
Y7079520D01*
X8930640D01*
X9079200Y7329200D02*
Y7430800D01*
X9180800D01*
Y7329200D01*
X9079200D01*
X9099520Y7349520D02*
Y7410480D01*
X9160480D01*
Y7349520D01*
X9099520D01*
X9379181Y7459185D02*
Y7560785D01*
X9480781D01*
Y7459185D01*
X9379181D01*
X9399501Y7479505D02*
Y7540465D01*
X9460461D01*
Y7479505D01*
X9399501D01*
X9289181Y7449185D02*
Y7550785D01*
X9390781D01*
Y7449185D01*
X9289181D01*
X9309501Y7469505D02*
Y7530465D01*
X9370461D01*
Y7469505D01*
X9309501D01*
X15648940Y8639810D02*
Y8741410D01*
X15750540D01*
Y8639810D01*
X15648940D01*
X15669260Y8660130D02*
Y8721090D01*
X15730220D01*
Y8660130D01*
X15669260D01*
X15648940Y8705450D02*
Y8807050D01*
X15750540D01*
Y8705450D01*
X15648940D01*
X15669260Y8725770D02*
Y8786730D01*
X15730220D01*
Y8725770D01*
X15669260D01*
X8899200Y8269200D02*
Y8370800D01*
X9000800D01*
Y8269200D01*
X8899200D01*
X8919520Y8289520D02*
Y8350480D01*
X8980480D01*
Y8289520D01*
X8919520D01*
X8899182Y8169184D02*
Y8270784D01*
X9000782D01*
Y8169184D01*
X8899182D01*
X8919502Y8189504D02*
Y8250464D01*
X8980462D01*
Y8189504D01*
X8919502D01*
X16159480Y8766810D02*
Y8868410D01*
X16261079D01*
Y8766810D01*
X16159480D01*
X16179800Y8787130D02*
Y8848090D01*
X16240759D01*
Y8787130D01*
X16179800D01*
X16159480Y8834120D02*
Y8935720D01*
X16261079D01*
Y8834120D01*
X16159480D01*
X16179800Y8854440D02*
Y8915400D01*
X16240759D01*
Y8854440D01*
X16179800D01*
X16271240Y8989060D02*
Y9090660D01*
X16372839D01*
Y8989060D01*
X16271240D01*
X16291560Y9009380D02*
Y9070340D01*
X16352521D01*
Y9009380D01*
X16291560D01*
X16158240Y8895050D02*
Y8996650D01*
X16259840D01*
Y8895050D01*
X16158240D01*
X16178560Y8915370D02*
Y8976330D01*
X16239520D01*
Y8915370D01*
X16178560D01*
X9519181Y8929182D02*
Y9030782D01*
X9620781D01*
Y8929182D01*
X9519181D01*
X9539501Y8949502D02*
Y9010462D01*
X9600461D01*
Y8949502D01*
X9539501D01*
X9199182Y8629183D02*
Y8730783D01*
X9300781D01*
Y8629183D01*
X9199182D01*
X9219501Y8649503D02*
Y8710463D01*
X9280461D01*
Y8649503D01*
X9219501D01*
X15648940Y7877810D02*
Y7979410D01*
X15750540D01*
Y7877810D01*
X15648940D01*
X15669260Y7898130D02*
Y7959090D01*
X15730220D01*
Y7898130D01*
X15669260D01*
X15648940Y7943450D02*
Y8045050D01*
X15750540D01*
Y7943450D01*
X15648940D01*
X15669260Y7963770D02*
Y8024730D01*
X15730220D01*
Y7963770D01*
X15669260D01*
X9809200Y7662900D02*
Y7764500D01*
X9910800D01*
Y7662900D01*
X9809200D01*
X9829520Y7683220D02*
Y7744180D01*
X9890480D01*
Y7683220D01*
X9829520D01*
X9979180Y7979184D02*
Y8080784D01*
X10080780D01*
Y7979184D01*
X9979180D01*
X9999500Y7999504D02*
Y8060464D01*
X10060460D01*
Y7999504D01*
X9999500D01*
X9815360Y8144840D02*
Y8246440D01*
X9916960D01*
Y8144840D01*
X9815360D01*
X9835680Y8165160D02*
Y8226120D01*
X9896640D01*
Y8165160D01*
X9835680D01*
X9699180Y8029184D02*
Y8130784D01*
X9800780D01*
Y8029184D01*
X9699180D01*
X9719500Y8049504D02*
Y8110464D01*
X9780460D01*
Y8049504D01*
X9719500D01*
X9689181Y8149184D02*
Y8250784D01*
X9790781D01*
Y8149184D01*
X9689181D01*
X9709501Y8169504D02*
Y8230464D01*
X9770461D01*
Y8169504D01*
X9709501D01*
X13641060Y8481060D02*
Y8582660D01*
X13742661D01*
Y8481060D01*
X13641060D01*
X13661380Y8501380D02*
Y8562340D01*
X13722340D01*
Y8501380D01*
X13661380D01*
X15196820Y10364460D02*
Y10466060D01*
X15298421D01*
Y10364460D01*
X15196820D01*
X15217140Y10384780D02*
Y10445740D01*
X15278101D01*
Y10384780D01*
X15217140D01*
X15648940Y10357280D02*
Y10458880D01*
X15750540D01*
Y10357280D01*
X15648940D01*
X15669260Y10377600D02*
Y10438560D01*
X15730220D01*
Y10377600D01*
X15669260D01*
X9111080Y8231480D02*
Y8333080D01*
X9212680D01*
Y8231480D01*
X9111080D01*
X9131400Y8251800D02*
Y8312760D01*
X9192360D01*
Y8251800D01*
X9131400D01*
X15648940Y10290810D02*
Y10392410D01*
X15750540D01*
Y10290810D01*
X15648940D01*
X15669260Y10311130D02*
Y10372090D01*
X15730220D01*
Y10311130D01*
X15669260D01*
X15196820Y10284460D02*
Y10386060D01*
X15298421D01*
Y10284460D01*
X15196820D01*
X15217140Y10304780D02*
Y10365740D01*
X15278101D01*
Y10304780D01*
X15217140D01*
X13561060Y8481060D02*
Y8582660D01*
X13662660D01*
Y8481060D01*
X13561060D01*
X13581380Y8501380D02*
Y8562340D01*
X13642340D01*
Y8501380D01*
X13581380D01*
X9111080Y8331480D02*
Y8433080D01*
X9212680D01*
Y8331480D01*
X9111080D01*
X9131400Y8351800D02*
Y8412760D01*
X9192360D01*
Y8351800D01*
X9131400D01*
X15648940Y6800450D02*
Y6902050D01*
X15750540D01*
Y6800450D01*
X15648940D01*
X15669260Y6820770D02*
Y6881730D01*
X15730220D01*
Y6820770D01*
X15669260D01*
X15648940Y6734810D02*
Y6836410D01*
X15750540D01*
Y6734810D01*
X15648940D01*
X15669260Y6755130D02*
Y6816090D01*
X15730220D01*
Y6755130D01*
X15669260D01*
X9011080Y7667040D02*
Y7768640D01*
X9112680D01*
Y7667040D01*
X9011080D01*
X9031400Y7687360D02*
Y7748320D01*
X9092360D01*
Y7687360D01*
X9031400D01*
X8911080Y7667040D02*
Y7768640D01*
X9012680D01*
Y7667040D01*
X8911080D01*
X8931400Y7687360D02*
Y7748320D01*
X8992360D01*
Y7687360D01*
X8931400D01*
X9089182Y7859184D02*
Y7960784D01*
X9190782D01*
Y7859184D01*
X9089182D01*
X9109502Y7879504D02*
Y7940464D01*
X9170462D01*
Y7879504D01*
X9109502D01*
X9111080Y8431480D02*
Y8533080D01*
X9212680D01*
Y8431480D01*
X9111080D01*
X9131400Y8451800D02*
Y8512760D01*
X9192360D01*
Y8451800D01*
X9131400D01*
X9111080Y8531480D02*
Y8633080D01*
X9212680D01*
Y8531480D01*
X9111080D01*
X9131400Y8551800D02*
Y8612760D01*
X9192360D01*
Y8551800D01*
X9131400D01*
X15626080Y3868420D02*
Y3970020D01*
X15727679D01*
Y3868420D01*
X15626080D01*
X15646400Y3888740D02*
Y3949700D01*
X15707359D01*
Y3888740D01*
X15646400D01*
X15692120Y3868420D02*
Y3970020D01*
X15793719D01*
Y3868420D01*
X15692120D01*
X15712440Y3888740D02*
Y3949700D01*
X15773399D01*
Y3888740D01*
X15712440D01*
X8907740Y8534820D02*
Y8636420D01*
X9009340D01*
Y8534820D01*
X8907740D01*
X8928060Y8555140D02*
Y8616100D01*
X8989020D01*
Y8555140D01*
X8928060D01*
X8907740Y8434820D02*
Y8536420D01*
X9009340D01*
Y8434820D01*
X8907740D01*
X8928060Y8455140D02*
Y8516100D01*
X8989020D01*
Y8455140D01*
X8928060D01*
X8639200Y8689200D02*
Y8790800D01*
X8740800D01*
Y8689200D01*
X8639200D01*
X8659520Y8709520D02*
Y8770480D01*
X8720480D01*
Y8709520D01*
X8659520D01*
X8639200Y8559200D02*
Y8660800D01*
X8740800D01*
Y8559200D01*
X8639200D01*
X8659520Y8579520D02*
Y8640480D01*
X8720480D01*
Y8579520D01*
X8659520D01*
X8479200Y8549200D02*
Y8650800D01*
X8580800D01*
Y8549200D01*
X8479200D01*
X8499520Y8569520D02*
Y8630480D01*
X8560480D01*
Y8569520D01*
X8499520D01*
X8479200Y8689200D02*
Y8790800D01*
X8580800D01*
Y8689200D01*
X8479200D01*
X8499520Y8709520D02*
Y8770480D01*
X8560480D01*
Y8709520D01*
X8499520D01*
X15648940Y7052310D02*
Y7153910D01*
X15750540D01*
Y7052310D01*
X15648940D01*
X15669260Y7072630D02*
Y7133590D01*
X15730220D01*
Y7072630D01*
X15669260D01*
X12789174Y9099182D02*
Y9200782D01*
X12890775D01*
Y9099182D01*
X12789174D01*
X12809494Y9119502D02*
Y9180462D01*
X12870454D01*
Y9119502D01*
X12809494D01*
X9398000Y7960360D02*
Y8061960D01*
X9499600D01*
Y7960360D01*
X9398000D01*
X9418320Y7980680D02*
Y8041640D01*
X9479280D01*
Y7980680D01*
X9418320D01*
X9505620Y7960360D02*
Y8061960D01*
X9607220D01*
Y7960360D01*
X9505620D01*
X9525940Y7980680D02*
Y8041640D01*
X9586900D01*
Y7980680D01*
X9525940D01*
X9389200Y7849200D02*
Y7950800D01*
X9490800D01*
Y7849200D01*
X9389200D01*
X9409520Y7869520D02*
Y7930480D01*
X9470480D01*
Y7869520D01*
X9409520D01*
X9403080Y8145780D02*
Y8247380D01*
X9504680D01*
Y8145780D01*
X9403080D01*
X9423400Y8166100D02*
Y8227060D01*
X9484360D01*
Y8166100D01*
X9423400D01*
X9599200Y7849200D02*
Y7950800D01*
X9700800D01*
Y7849200D01*
X9599200D01*
X9619520Y7869520D02*
Y7930480D01*
X9680480D01*
Y7869520D01*
X9619520D01*
X9499200Y7849200D02*
Y7950800D01*
X9600800D01*
Y7849200D01*
X9499200D01*
X9519520Y7869520D02*
Y7930480D01*
X9580480D01*
Y7869520D01*
X9519520D01*
X9503300Y8139260D02*
Y8240860D01*
X9604900D01*
Y8139260D01*
X9503300D01*
X9523620Y8159580D02*
Y8220540D01*
X9584580D01*
Y8159580D01*
X9523620D01*
X9291320Y7755300D02*
Y7856900D01*
X9392920D01*
Y7755300D01*
X9291320D01*
X9311640Y7775620D02*
Y7836580D01*
X9372600D01*
Y7775620D01*
X9311640D01*
X8915400Y7965440D02*
Y8067040D01*
X9017000D01*
Y7965440D01*
X8915400D01*
X8935720Y7985760D02*
Y8046720D01*
X8996680D01*
Y7985760D01*
X8935720D01*
X8989200Y8049200D02*
Y8150800D01*
X9090800D01*
Y8049200D01*
X8989200D01*
X9009520Y8069520D02*
Y8130480D01*
X9070480D01*
Y8069520D01*
X9009520D01*
X9499181Y8329183D02*
Y8430783D01*
X9600781D01*
Y8329183D01*
X9499181D01*
X9519501Y8349503D02*
Y8410463D01*
X9580461D01*
Y8349503D01*
X9519501D01*
X9512300Y8427720D02*
Y8529320D01*
X9613900D01*
Y8427720D01*
X9512300D01*
X9532620Y8448040D02*
Y8509000D01*
X9593580D01*
Y8448040D01*
X9532620D01*
X9803300Y8439260D02*
Y8540860D01*
X9904900D01*
Y8439260D01*
X9803300D01*
X9823620Y8459580D02*
Y8520540D01*
X9884580D01*
Y8459580D01*
X9823620D01*
X8789182Y8849182D02*
Y8950782D01*
X8890782D01*
Y8849182D01*
X8789182D01*
X8809502Y8869502D02*
Y8930462D01*
X8870462D01*
Y8869502D01*
X8809502D01*
X10279179Y8729182D02*
Y8830782D01*
X10380779D01*
Y8729182D01*
X10279179D01*
X10299499Y8749502D02*
Y8810462D01*
X10360459D01*
Y8749502D01*
X10299499D01*
X10089180Y8949182D02*
Y9050782D01*
X10190780D01*
Y8949182D01*
X10089180D01*
X10109500Y8969502D02*
Y9030462D01*
X10170460D01*
Y8969502D01*
X10109500D01*
X9969180Y8939182D02*
Y9040782D01*
X10070780D01*
Y8939182D01*
X9969180D01*
X9989500Y8959502D02*
Y9020462D01*
X10050460D01*
Y8959502D01*
X9989500D01*
X10198100Y9042400D02*
Y9144000D01*
X10299700D01*
Y9042400D01*
X10198100D01*
X10218420Y9062720D02*
Y9123680D01*
X10279380D01*
Y9062720D01*
X10218420D01*
X11239200Y9259200D02*
Y9360800D01*
X11340800D01*
Y9259200D01*
X11239200D01*
X11259520Y9279520D02*
Y9340480D01*
X11320480D01*
Y9279520D01*
X11259520D01*
X10789178Y8059184D02*
Y8160784D01*
X10890778D01*
Y8059184D01*
X10789178D01*
X10809498Y8079504D02*
Y8140464D01*
X10870458D01*
Y8079504D01*
X10809498D01*
X10882740Y7620077D02*
Y7721677D01*
X10984340D01*
Y7620077D01*
X10882740D01*
X10903060Y7640397D02*
Y7701357D01*
X10964020D01*
Y7640397D01*
X10903060D01*
X9989180Y7339185D02*
Y7440785D01*
X10090780D01*
Y7339185D01*
X9989180D01*
X10009500Y7359505D02*
Y7420465D01*
X10070460D01*
Y7359505D01*
X10009500D01*
X12527280Y9451340D02*
Y9552940D01*
X12628880D01*
Y9451340D01*
X12527280D01*
X12547600Y9471660D02*
Y9532620D01*
X12608560D01*
Y9471660D01*
X12547600D01*
X10075520Y7467040D02*
Y7568640D01*
X10177120D01*
Y7467040D01*
X10075520D01*
X10095840Y7487360D02*
Y7548320D01*
X10156800D01*
Y7487360D01*
X10095840D01*
X12434993Y9451340D02*
Y9552940D01*
X12536593D01*
Y9451340D01*
X12434993D01*
X12455313Y9471660D02*
Y9532620D01*
X12516273D01*
Y9471660D01*
X12455313D01*
X10075520Y7567040D02*
Y7668640D01*
X10177120D01*
Y7567040D01*
X10075520D01*
X10095840Y7587360D02*
Y7648320D01*
X10156800D01*
Y7587360D01*
X10095840D01*
X12342707Y9451340D02*
Y9552940D01*
X12444307D01*
Y9451340D01*
X12342707D01*
X12363027Y9471660D02*
Y9532620D01*
X12423987D01*
Y9471660D01*
X12363027D01*
X11319200Y7949200D02*
Y8050800D01*
X11420800D01*
Y7949200D01*
X11319200D01*
X11339520Y7969520D02*
Y8030480D01*
X11400480D01*
Y7969520D01*
X11339520D01*
X11219200Y7949200D02*
Y8050800D01*
X11320800D01*
Y7949200D01*
X11219200D01*
X11239520Y7969520D02*
Y8030480D01*
X11300480D01*
Y7969520D01*
X11239520D01*
X11319200Y8009200D02*
Y8110800D01*
X11420800D01*
Y8009200D01*
X11319200D01*
X11339520Y8029520D02*
Y8090480D01*
X11400480D01*
Y8029520D01*
X11339520D01*
X10980420Y7470140D02*
Y7571740D01*
X11082020D01*
Y7470140D01*
X10980420D01*
X11000740Y7490460D02*
Y7551420D01*
X11061700D01*
Y7490460D01*
X11000740D01*
X11930380Y8696960D02*
Y8798560D01*
X12031980D01*
Y8696960D01*
X11930380D01*
X11950700Y8717280D02*
Y8778240D01*
X12011660D01*
Y8717280D01*
X11950700D01*
X12313920Y8877300D02*
Y8978900D01*
X12415520D01*
Y8877300D01*
X12313920D01*
X12334240Y8897620D02*
Y8958580D01*
X12395200D01*
Y8897620D01*
X12334240D01*
X12313920Y8797300D02*
Y8898900D01*
X12415520D01*
Y8797300D01*
X12313920D01*
X12334240Y8817620D02*
Y8878580D01*
X12395200D01*
Y8817620D01*
X12334240D01*
X12313920Y8637300D02*
Y8738900D01*
X12415520D01*
Y8637300D01*
X12313920D01*
X12334240Y8657620D02*
Y8718580D01*
X12395200D01*
Y8657620D01*
X12334240D01*
X11589200Y8459200D02*
Y8560800D01*
X11690800D01*
Y8459200D01*
X11589200D01*
X11609520Y8479520D02*
Y8540480D01*
X11670480D01*
Y8479520D01*
X11609520D01*
X10279200Y7659200D02*
Y7760800D01*
X10380800D01*
Y7659200D01*
X10279200D01*
X10299520Y7679520D02*
Y7740480D01*
X10360480D01*
Y7679520D01*
X10299520D01*
X9699180Y7449185D02*
Y7550785D01*
X9800780D01*
Y7449185D01*
X9699180D01*
X9719500Y7469505D02*
Y7530465D01*
X9780460D01*
Y7469505D01*
X9719500D01*
X9689181Y7839184D02*
Y7940784D01*
X9790781D01*
Y7839184D01*
X9689181D01*
X9709501Y7859504D02*
Y7920464D01*
X9770461D01*
Y7859504D01*
X9709501D01*
X9809180Y7859184D02*
Y7960784D01*
X9910780D01*
Y7859184D01*
X9809180D01*
X9829500Y7879504D02*
Y7940464D01*
X9890460D01*
Y7879504D01*
X9829500D01*
X9399181Y7769184D02*
Y7870784D01*
X9500781D01*
Y7769184D01*
X9399181D01*
X9419501Y7789504D02*
Y7850464D01*
X9480461D01*
Y7789504D01*
X9419501D01*
X9599181Y7769184D02*
Y7870784D01*
X9700781D01*
Y7769184D01*
X9599181D01*
X9619501Y7789504D02*
Y7850464D01*
X9680461D01*
Y7789504D01*
X9619501D01*
X9809180Y7769184D02*
Y7870784D01*
X9910780D01*
Y7769184D01*
X9809180D01*
X9829500Y7789504D02*
Y7850464D01*
X9890460D01*
Y7789504D01*
X9829500D01*
X10089200Y7759700D02*
Y7861300D01*
X10190800D01*
Y7759700D01*
X10089200D01*
X10109520Y7780020D02*
Y7840980D01*
X10170480D01*
Y7780020D01*
X10109520D01*
X9699180Y7759184D02*
Y7860784D01*
X9800780D01*
Y7759184D01*
X9699180D01*
X9719500Y7779504D02*
Y7840464D01*
X9780460D01*
Y7779504D01*
X9719500D01*
X10795000Y7251700D02*
Y7353300D01*
X10896600D01*
Y7251700D01*
X10795000D01*
X10815320Y7272020D02*
Y7332980D01*
X10876280D01*
Y7272020D01*
X10815320D01*
X9109200Y7456660D02*
Y7558260D01*
X9210800D01*
Y7456660D01*
X9109200D01*
X9129520Y7476980D02*
Y7537940D01*
X9190480D01*
Y7476980D01*
X9129520D01*
X9982200Y7851140D02*
Y7952740D01*
X10083800D01*
Y7851140D01*
X9982200D01*
X10002520Y7871460D02*
Y7932420D01*
X10063480D01*
Y7871460D01*
X10002520D01*
X9703460Y7559420D02*
Y7661020D01*
X9805060D01*
Y7559420D01*
X9703460D01*
X9723780Y7579740D02*
Y7640700D01*
X9784740D01*
Y7579740D01*
X9723780D01*
X8989200Y10979200D02*
Y11080800D01*
X9090800D01*
Y10979200D01*
X8989200D01*
X9009520Y10999520D02*
Y11060480D01*
X9070480D01*
Y10999520D01*
X9009520D01*
X8989200Y11479200D02*
Y11580800D01*
X9090800D01*
Y11479200D01*
X8989200D01*
X9009520Y11499520D02*
Y11560480D01*
X9070480D01*
Y11499520D01*
X9009520D01*
X7169986Y5489189D02*
X7119186Y5590789D01*
X7220786D01*
X7169986Y5489189D01*
Y5509509D02*
X7139506Y5570469D01*
X7200466D01*
X7169986Y5509509D01*
X7117080Y5453380D02*
X7066280Y5554980D01*
X7167880D01*
X7117080Y5453380D01*
Y5473700D02*
X7086600Y5534660D01*
X7147560D01*
X7117080Y5473700D01*
X7169986Y5599189D02*
X7119186Y5700789D01*
X7220786D01*
X7169986Y5599189D01*
Y5619509D02*
X7139506Y5680469D01*
X7200466D01*
X7169986Y5619509D01*
X8740140Y9641820D02*
Y9743420D01*
X8841740D01*
Y9641820D01*
X8740140D01*
X8760460Y9662140D02*
Y9723100D01*
X8821420D01*
Y9662140D01*
X8760460D01*
X7625080Y9782800D02*
Y9884400D01*
X7726680D01*
Y9782800D01*
X7625080D01*
X7645400Y9803120D02*
Y9864080D01*
X7706360D01*
Y9803120D01*
X7645400D01*
X8740140Y9561820D02*
Y9663420D01*
X8841740D01*
Y9561820D01*
X8740140D01*
X8760460Y9582140D02*
Y9643100D01*
X8821420D01*
Y9582140D01*
X8760460D01*
X7625080Y9702800D02*
Y9804400D01*
X7726680D01*
Y9702800D01*
X7625080D01*
X7645400Y9723120D02*
Y9784080D01*
X7706360D01*
Y9723120D01*
X7645400D01*
X8542020Y9532600D02*
Y9634200D01*
X8643620D01*
Y9532600D01*
X8542020D01*
X8562340Y9552920D02*
Y9613880D01*
X8623300D01*
Y9552920D01*
X8562340D01*
X5976620Y9532616D02*
Y9634216D01*
X6078220D01*
Y9532616D01*
X5976620D01*
X5996940Y9552936D02*
Y9613896D01*
X6057900D01*
Y9552936D01*
X5996940D01*
X8542020Y9452600D02*
Y9554200D01*
X8643620D01*
Y9452600D01*
X8542020D01*
X8562340Y9472920D02*
Y9533880D01*
X8623300D01*
Y9472920D01*
X8562340D01*
X5976620Y9452616D02*
Y9554216D01*
X6078220D01*
Y9452616D01*
X5976620D01*
X5996940Y9472936D02*
Y9533896D01*
X6057900D01*
Y9472936D01*
X5996940D01*
X9403300Y9139260D02*
Y9240860D01*
X9504900D01*
Y9139260D01*
X9403300D01*
X9423620Y9159580D02*
Y9220540D01*
X9484580D01*
Y9159580D01*
X9423620D01*
X9689200Y6969200D02*
Y7070800D01*
X9790800D01*
Y6969200D01*
X9689200D01*
X9709520Y6989520D02*
Y7050480D01*
X9770480D01*
Y6989520D01*
X9709520D01*
X9639200Y6819200D02*
Y6920800D01*
X9740800D01*
Y6819200D01*
X9639200D01*
X9659520Y6839520D02*
Y6900480D01*
X9720480D01*
Y6839520D01*
X9659520D01*
X15839439Y8703310D02*
Y8804910D01*
X15941040D01*
Y8703310D01*
X15839439D01*
X15859760Y8723630D02*
Y8784590D01*
X15920720D01*
Y8723630D01*
X15859760D01*
X15648940Y8573770D02*
Y8675370D01*
X15750540D01*
Y8573770D01*
X15648940D01*
X15669260Y8594090D02*
Y8655050D01*
X15730220D01*
Y8594090D01*
X15669260D01*
X10319200Y9309200D02*
Y9410800D01*
X10420800D01*
Y9309200D01*
X10319200D01*
X10339520Y9329520D02*
Y9390480D01*
X10400480D01*
Y9329520D01*
X10339520D01*
X10229200Y9309200D02*
Y9410800D01*
X10330800D01*
Y9309200D01*
X10229200D01*
X10249520Y9329520D02*
Y9390480D01*
X10310480D01*
Y9329520D01*
X10249520D01*
X10379200Y9309200D02*
Y9410800D01*
X10480800D01*
Y9309200D01*
X10379200D01*
X10399520Y9329520D02*
Y9390480D01*
X10460480D01*
Y9329520D01*
X10399520D01*
X9100820Y12176760D02*
Y12278360D01*
X9202420D01*
Y12176760D01*
X9100820D01*
X9121140Y12197080D02*
Y12258040D01*
X9182100D01*
Y12197080D01*
X9121140D01*
X9100820Y12119864D02*
Y12221464D01*
X9202420D01*
Y12119864D01*
X9100820D01*
X9121140Y12140184D02*
Y12201144D01*
X9182100D01*
Y12140184D01*
X9121140D01*
X9100820Y12062968D02*
Y12164568D01*
X9202420D01*
Y12062968D01*
X9100820D01*
X9121140Y12083288D02*
Y12144248D01*
X9182100D01*
Y12083288D01*
X9121140D01*
X9100820Y12006072D02*
Y12107672D01*
X9202420D01*
Y12006072D01*
X9100820D01*
X9121140Y12026392D02*
Y12087352D01*
X9182100D01*
Y12026392D01*
X9121140D01*
X9100820Y11949176D02*
Y12050776D01*
X9202420D01*
Y11949176D01*
X9100820D01*
X9121140Y11969496D02*
Y12030456D01*
X9182100D01*
Y11969496D01*
X9121140D01*
X9100820Y11892280D02*
Y11993880D01*
X9202420D01*
Y11892280D01*
X9100820D01*
X9121140Y11912600D02*
Y11973560D01*
X9182100D01*
Y11912600D01*
X9121140D01*
X9110980Y11389360D02*
Y11490960D01*
X9212580D01*
Y11389360D01*
X9110980D01*
X9131300Y11409680D02*
Y11470640D01*
X9192260D01*
Y11409680D01*
X9131300D01*
X9110980Y11327384D02*
Y11428984D01*
X9212580D01*
Y11327384D01*
X9110980D01*
X9131300Y11347704D02*
Y11408664D01*
X9192260D01*
Y11347704D01*
X9131300D01*
X9110980Y11265408D02*
Y11367008D01*
X9212580D01*
Y11265408D01*
X9110980D01*
X9131300Y11285728D02*
Y11346688D01*
X9192260D01*
Y11285728D01*
X9131300D01*
X9110980Y11203432D02*
Y11305032D01*
X9212580D01*
Y11203432D01*
X9110980D01*
X9131300Y11223752D02*
Y11284712D01*
X9192260D01*
Y11223752D01*
X9131300D01*
X9110980Y11141456D02*
Y11243056D01*
X9212580D01*
Y11141456D01*
X9110980D01*
X9131300Y11161776D02*
Y11222736D01*
X9192260D01*
Y11161776D01*
X9131300D01*
X9110980Y11079480D02*
Y11181080D01*
X9212580D01*
Y11079480D01*
X9110980D01*
X9131300Y11099800D02*
Y11160760D01*
X9192260D01*
Y11099800D01*
X9131300D01*
X15648940Y8385810D02*
Y8487410D01*
X15750540D01*
Y8385810D01*
X15648940D01*
X15669260Y8406130D02*
Y8467090D01*
X15730220D01*
Y8406130D01*
X15669260D01*
X15648900Y9395460D02*
Y9497060D01*
X15750500D01*
Y9395460D01*
X15648900D01*
X15669220Y9415780D02*
Y9476740D01*
X15730180D01*
Y9415780D01*
X15669220D01*
X15648940Y9528810D02*
Y9630410D01*
X15750540D01*
Y9528810D01*
X15648940D01*
X15669260Y9549130D02*
Y9610090D01*
X15730220D01*
Y9549130D01*
X15669260D01*
X15648940Y9465310D02*
Y9566910D01*
X15750540D01*
Y9465310D01*
X15648940D01*
X15669260Y9485630D02*
Y9546590D01*
X15730220D01*
Y9485630D01*
X15669260D01*
X15534641Y9497060D02*
Y9598660D01*
X15636240D01*
Y9497060D01*
X15534641D01*
X15554961Y9517380D02*
Y9578340D01*
X15615919D01*
Y9517380D01*
X15554961D01*
X15648940Y9335770D02*
Y9437370D01*
X15750540D01*
Y9335770D01*
X15648940D01*
X15669260Y9356090D02*
Y9417050D01*
X15730220D01*
Y9356090D01*
X15669260D01*
X10149200Y6859200D02*
Y6960800D01*
X10250800D01*
Y6859200D01*
X10149200D01*
X10169520Y6879520D02*
Y6940480D01*
X10230480D01*
Y6879520D01*
X10169520D01*
X10069200Y6859200D02*
Y6960800D01*
X10170800D01*
Y6859200D01*
X10069200D01*
X10089520Y6879520D02*
Y6940480D01*
X10150480D01*
Y6879520D01*
X10089520D01*
X9979200Y6859200D02*
Y6960800D01*
X10080800D01*
Y6859200D01*
X9979200D01*
X9999520Y6879520D02*
Y6940480D01*
X10060480D01*
Y6879520D01*
X9999520D01*
X9979200Y6569200D02*
Y6670800D01*
X10080800D01*
Y6569200D01*
X9979200D01*
X9999520Y6589520D02*
Y6650480D01*
X10060480D01*
Y6589520D01*
X9999520D01*
X12791440Y9024620D02*
Y9126220D01*
X12893040D01*
Y9024620D01*
X12791440D01*
X12811760Y9044940D02*
Y9105900D01*
X12872720D01*
Y9044940D01*
X12811760D01*
X12791440Y8944620D02*
Y9046220D01*
X12893040D01*
Y8944620D01*
X12791440D01*
X12811760Y8964940D02*
Y9025900D01*
X12872720D01*
Y8964940D01*
X12811760D01*
X15648940Y6419450D02*
Y6521050D01*
X15750540D01*
Y6419450D01*
X15648940D01*
X15669260Y6439770D02*
Y6500730D01*
X15730220D01*
Y6439770D01*
X15669260D01*
X16162019Y6449060D02*
Y6550660D01*
X16263620D01*
Y6449060D01*
X16162019D01*
X16182339Y6469380D02*
Y6530340D01*
X16243300D01*
Y6469380D01*
X16182339D01*
X15648940Y6353810D02*
Y6455410D01*
X15750540D01*
Y6353810D01*
X15648940D01*
X15669260Y6374130D02*
Y6435090D01*
X15730220D01*
Y6374130D01*
X15669260D01*
X16162019Y6322060D02*
Y6423660D01*
X16263620D01*
Y6322060D01*
X16162019D01*
X16182339Y6342380D02*
Y6403340D01*
X16243300D01*
Y6342380D01*
X16182339D01*
X15648940Y6290310D02*
Y6391910D01*
X15750540D01*
Y6290310D01*
X15648940D01*
X15669260Y6310630D02*
Y6371590D01*
X15730220D01*
Y6310630D01*
X15669260D01*
X8789200Y7889200D02*
Y7990800D01*
X8890800D01*
Y7889200D01*
X8789200D01*
X8809520Y7909520D02*
Y7970480D01*
X8870480D01*
Y7909520D01*
X8809520D01*
X9829200Y9149360D02*
Y9250960D01*
X9930800D01*
Y9149360D01*
X9829200D01*
X9849520Y9169680D02*
Y9230640D01*
X9910480D01*
Y9169680D01*
X9849520D01*
X9709180Y8929182D02*
Y9030782D01*
X9810780D01*
Y8929182D01*
X9709180D01*
X9729500Y8949502D02*
Y9010462D01*
X9790460D01*
Y8949502D01*
X9729500D01*
X9609181Y9039182D02*
Y9140782D01*
X9710781D01*
Y9039182D01*
X9609181D01*
X9629501Y9059502D02*
Y9120462D01*
X9690461D01*
Y9059502D01*
X9629501D01*
X9979660Y8544560D02*
Y8646160D01*
X10081260D01*
Y8544560D01*
X9979660D01*
X9999980Y8564880D02*
Y8625840D01*
X10060940D01*
Y8564880D01*
X9999980D01*
X9979200Y8839200D02*
Y8940800D01*
X10080800D01*
Y8839200D01*
X9979200D01*
X9999520Y8859520D02*
Y8920480D01*
X10060480D01*
Y8859520D01*
X9999520D01*
X10869178Y8629183D02*
Y8730783D01*
X10970778D01*
Y8629183D01*
X10869178D01*
X10889498Y8649503D02*
Y8710463D01*
X10950458D01*
Y8649503D01*
X10889498D01*
X6799986Y5119190D02*
X6749186Y5220790D01*
X6850786D01*
X6799986Y5119190D01*
Y5139510D02*
X6769506Y5200470D01*
X6830466D01*
X6799986Y5139510D01*
X6258812Y5570220D02*
X6208012Y5671820D01*
X6309612D01*
X6258812Y5570220D01*
Y5590540D02*
X6228332Y5651500D01*
X6289292D01*
X6258812Y5590540D01*
X7891780Y8616940D02*
Y8718540D01*
X7993380D01*
Y8616940D01*
X7891780D01*
X7912100Y8637260D02*
Y8698220D01*
X7973060D01*
Y8637260D01*
X7912100D01*
X7619200Y7869200D02*
Y7970800D01*
X7720800D01*
Y7869200D01*
X7619200D01*
X7639520Y7889520D02*
Y7950480D01*
X7700480D01*
Y7889520D01*
X7639520D01*
X7769200Y7919200D02*
Y8020800D01*
X7870800D01*
Y7919200D01*
X7769200D01*
X7789520Y7939520D02*
Y8000480D01*
X7850480D01*
Y7939520D01*
X7789520D01*
X4830000Y5009200D02*
X4779200Y5110800D01*
X4880800D01*
X4830000Y5009200D01*
Y5029520D02*
X4799520Y5090480D01*
X4860480D01*
X4830000Y5029520D01*
X9603240Y7559200D02*
Y7660800D01*
X9704840D01*
Y7559200D01*
X9603240D01*
X9623560Y7579520D02*
Y7640480D01*
X9684520D01*
Y7579520D01*
X9623560D01*
X9809200Y7559200D02*
Y7660800D01*
X9910800D01*
Y7559200D01*
X9809200D01*
X9829520Y7579520D02*
Y7640480D01*
X9890480D01*
Y7579520D01*
X9829520D01*
X11419200Y8769200D02*
Y8870800D01*
X11520800D01*
Y8769200D01*
X11419200D01*
X11439520Y8789520D02*
Y8850480D01*
X11500480D01*
Y8789520D01*
X11439520D01*
X8069200Y8179200D02*
Y8280800D01*
X8170800D01*
Y8179200D01*
X8069200D01*
X8089520Y8199520D02*
Y8260480D01*
X8150480D01*
Y8199520D01*
X8089520D01*
X7909200Y8129200D02*
Y8230800D01*
X8010800D01*
Y8129200D01*
X7909200D01*
X7929520Y8149520D02*
Y8210480D01*
X7990480D01*
Y8149520D01*
X7929520D01*
X16029939Y9528810D02*
Y9630410D01*
X16131540D01*
Y9528810D01*
X16029939D01*
X16050259Y9549130D02*
Y9610090D01*
X16111220D01*
Y9549130D01*
X16050259D01*
X14683740Y9578340D02*
Y9679940D01*
X14785339D01*
Y9578340D01*
X14683740D01*
X14704060Y9598660D02*
Y9659620D01*
X14765021D01*
Y9598660D01*
X14704060D01*
X12630160Y6911340D02*
Y7012940D01*
X12731760D01*
Y6911340D01*
X12630160D01*
X12650480Y6931660D02*
Y6992620D01*
X12711440D01*
Y6931660D01*
X12650480D01*
X12550160Y6911340D02*
Y7012940D01*
X12651760D01*
Y6911340D01*
X12550160D01*
X12570480Y6931660D02*
Y6992620D01*
X12631440D01*
Y6931660D01*
X12570480D01*
X16029939Y9592310D02*
Y9693910D01*
X16131540D01*
Y9592310D01*
X16029939D01*
X16050259Y9612630D02*
Y9673590D01*
X16111220D01*
Y9612630D01*
X16050259D01*
X14683740Y9658340D02*
Y9759940D01*
X14785339D01*
Y9658340D01*
X14683740D01*
X14704060Y9678660D02*
Y9739620D01*
X14765021D01*
Y9678660D01*
X14704060D01*
X9111080Y7167040D02*
Y7268640D01*
X9212680D01*
Y7167040D01*
X9111080D01*
X9131400Y7187360D02*
Y7248320D01*
X9192360D01*
Y7187360D01*
X9131400D01*
X10149200Y6569200D02*
Y6670800D01*
X10250800D01*
Y6569200D01*
X10149200D01*
X10169520Y6589520D02*
Y6650480D01*
X10230480D01*
Y6589520D01*
X10169520D01*
X10059200Y6569200D02*
Y6670800D01*
X10160800D01*
Y6569200D01*
X10059200D01*
X10079520Y6589520D02*
Y6650480D01*
X10140480D01*
Y6589520D01*
X10079520D01*
X9585960Y9641840D02*
Y9743440D01*
X9687560D01*
Y9641840D01*
X9585960D01*
X9606280Y9662160D02*
Y9723120D01*
X9667240D01*
Y9662160D01*
X9606280D01*
X11429200Y9079200D02*
Y9180800D01*
X11530800D01*
Y9079200D01*
X11429200D01*
X11449520Y9099520D02*
Y9160480D01*
X11510480D01*
Y9099520D01*
X11449520D01*
X11429200Y9169200D02*
Y9270800D01*
X11530800D01*
Y9169200D01*
X11429200D01*
X11449520Y9189520D02*
Y9250480D01*
X11510480D01*
Y9189520D01*
X11449520D01*
X11239200Y9079200D02*
Y9180800D01*
X11340800D01*
Y9079200D01*
X11239200D01*
X11259520Y9099520D02*
Y9160480D01*
X11320480D01*
Y9099520D01*
X11259520D01*
X11239200Y9169200D02*
Y9270800D01*
X11340800D01*
Y9169200D01*
X11239200D01*
X11259520Y9189520D02*
Y9250480D01*
X11320480D01*
Y9189520D01*
X11259520D01*
X9489200Y6819200D02*
Y6920800D01*
X9590800D01*
Y6819200D01*
X9489200D01*
X9509520Y6839520D02*
Y6900480D01*
X9570480D01*
Y6839520D01*
X9509520D01*
X9559200Y6819200D02*
Y6920800D01*
X9660800D01*
Y6819200D01*
X9559200D01*
X9579520Y6839520D02*
Y6900480D01*
X9640480D01*
Y6839520D01*
X9579520D01*
X9629200Y6629200D02*
Y6730800D01*
X9730800D01*
Y6629200D01*
X9629200D01*
X9649520Y6649520D02*
Y6710480D01*
X9710480D01*
Y6649520D01*
X9649520D01*
X9559200Y6629200D02*
Y6730800D01*
X9660800D01*
Y6629200D01*
X9559200D01*
X9579520Y6649520D02*
Y6710480D01*
X9640480D01*
Y6649520D01*
X9579520D01*
X9489200Y6629200D02*
Y6730800D01*
X9590800D01*
Y6629200D01*
X9489200D01*
X9509520Y6649520D02*
Y6710480D01*
X9570480D01*
Y6649520D01*
X9509520D01*
X16269200Y10569200D02*
Y10670800D01*
X16370799D01*
Y10569200D01*
X16269200D01*
X16289520Y10589520D02*
Y10650480D01*
X16350481D01*
Y10589520D01*
X16289520D01*
X16279201Y10049200D02*
Y10150800D01*
X16380800D01*
Y10049200D01*
X16279201D01*
X16299519Y10069520D02*
Y10130480D01*
X16360480D01*
Y10069520D01*
X16299519D01*
X16259200Y8669200D02*
Y8770800D01*
X16360800D01*
Y8669200D01*
X16259200D01*
X16279520Y8689520D02*
Y8750480D01*
X16340480D01*
Y8689520D01*
X16279520D01*
X16029201Y8649200D02*
Y8750800D01*
X16130800D01*
Y8649200D01*
X16029201D01*
X16049519Y8669520D02*
Y8730480D01*
X16110480D01*
Y8669520D01*
X16049519D01*
X16099200Y8169200D02*
Y8270800D01*
X16200800D01*
Y8169200D01*
X16099200D01*
X16119521Y8189520D02*
Y8250480D01*
X16180479D01*
Y8189520D01*
X16119521D01*
X16139200Y7889200D02*
Y7990800D01*
X16240800D01*
Y7889200D01*
X16139200D01*
X16159520Y7909520D02*
Y7970480D01*
X16220480D01*
Y7909520D01*
X16159520D01*
X16144240Y7084060D02*
Y7185660D01*
X16245840D01*
Y7084060D01*
X16144240D01*
X16164560Y7104380D02*
Y7165340D01*
X16225520D01*
Y7104380D01*
X16164560D01*
X15749200Y6899200D02*
Y7000800D01*
X15850800D01*
Y6899200D01*
X15749200D01*
X15769521Y6919520D02*
Y6980480D01*
X15830479D01*
Y6919520D01*
X15769521D01*
X15534641Y7211060D02*
Y7312660D01*
X15636240D01*
Y7211060D01*
X15534641D01*
X15554961Y7231380D02*
Y7292340D01*
X15615919D01*
Y7231380D01*
X15554961D01*
X15759200Y7379200D02*
Y7480800D01*
X15860800D01*
Y7379200D01*
X15759200D01*
X15779520Y7399520D02*
Y7460480D01*
X15840480D01*
Y7399520D01*
X15779520D01*
X15534641Y7592060D02*
Y7693660D01*
X15636240D01*
Y7592060D01*
X15534641D01*
X15554961Y7612380D02*
Y7673340D01*
X15615919D01*
Y7612380D01*
X15554961D01*
X15749200Y7659200D02*
Y7760800D01*
X15850800D01*
Y7659200D01*
X15749200D01*
X15769521Y7679520D02*
Y7740480D01*
X15830479D01*
Y7679520D01*
X15769521D01*
X15749200Y8039200D02*
Y8140800D01*
X15850800D01*
Y8039200D01*
X15749200D01*
X15769521Y8059520D02*
Y8120480D01*
X15830479D01*
Y8059520D01*
X15769521D01*
X15539200Y9059200D02*
Y9160800D01*
X15640800D01*
Y9059200D01*
X15539200D01*
X15559520Y9079520D02*
Y9140480D01*
X15620480D01*
Y9079520D01*
X15559520D01*
X15759200Y9679200D02*
Y9780800D01*
X15860800D01*
Y9679200D01*
X15759200D01*
X15779520Y9699520D02*
Y9760480D01*
X15840480D01*
Y9699520D01*
X15779520D01*
X16042641Y7465060D02*
Y7566660D01*
X16144240D01*
Y7465060D01*
X16042641D01*
X16062959Y7485380D02*
Y7546340D01*
X16123920D01*
Y7485380D01*
X16062959D01*
X16271240Y7465060D02*
Y7566660D01*
X16372839D01*
Y7465060D01*
X16271240D01*
X16291560Y7485380D02*
Y7546340D01*
X16352521D01*
Y7485380D01*
X16291560D01*
X16271240Y7592060D02*
Y7693660D01*
X16372839D01*
Y7592060D01*
X16271240D01*
X16291560Y7612380D02*
Y7673340D01*
X16352521D01*
Y7612380D01*
X16291560D01*
X16169640Y7973060D02*
Y8074660D01*
X16271240D01*
Y7973060D01*
X16169640D01*
X16189960Y7993380D02*
Y8054340D01*
X16250920D01*
Y7993380D01*
X16189960D01*
X16169640Y8100060D02*
Y8201660D01*
X16271240D01*
Y8100060D01*
X16169640D01*
X16189960Y8120380D02*
Y8181340D01*
X16250920D01*
Y8120380D01*
X16189960D01*
X16271240Y8481060D02*
Y8582660D01*
X16372839D01*
Y8481060D01*
X16271240D01*
X16291560Y8501380D02*
Y8562340D01*
X16352521D01*
Y8501380D01*
X16291560D01*
X16042641Y8989060D02*
Y9090660D01*
X16144240D01*
Y8989060D01*
X16042641D01*
X16062959Y9009380D02*
Y9070340D01*
X16123920D01*
Y9009380D01*
X16062959D01*
X16169640Y9116060D02*
Y9217660D01*
X16271240D01*
Y9116060D01*
X16169640D01*
X16189960Y9136380D02*
Y9197340D01*
X16250920D01*
Y9136380D01*
X16189960D01*
X16144240Y9370060D02*
Y9471660D01*
X16245840D01*
Y9370060D01*
X16144240D01*
X16164560Y9390380D02*
Y9451340D01*
X16225520D01*
Y9390380D01*
X16164560D01*
X16169640Y9497060D02*
Y9598660D01*
X16271240D01*
Y9497060D01*
X16169640D01*
X16189960Y9517380D02*
Y9578340D01*
X16250920D01*
Y9517380D01*
X16189960D01*
X16169640Y9624060D02*
Y9725660D01*
X16271240D01*
Y9624060D01*
X16169640D01*
X16189960Y9644380D02*
Y9705340D01*
X16250920D01*
Y9644380D01*
X16189960D01*
X16042641Y9751060D02*
Y9852660D01*
X16144240D01*
Y9751060D01*
X16042641D01*
X16062959Y9771380D02*
Y9832340D01*
X16123920D01*
Y9771380D01*
X16062959D01*
X16169640Y10132060D02*
Y10233660D01*
X16271240D01*
Y10132060D01*
X16169640D01*
X16189960Y10152380D02*
Y10213340D01*
X16250920D01*
Y10152380D01*
X16189960D01*
X15661639Y10513060D02*
Y10614660D01*
X15763240D01*
Y10513060D01*
X15661639D01*
X15681960Y10533380D02*
Y10594340D01*
X15742920D01*
Y10533380D01*
X15681960D01*
X15534641Y10259060D02*
Y10360660D01*
X15636240D01*
Y10259060D01*
X15534641D01*
X15554961Y10279380D02*
Y10340340D01*
X15615919D01*
Y10279380D01*
X15554961D01*
X15661639Y10132060D02*
Y10233660D01*
X15763240D01*
Y10132060D01*
X15661639D01*
X15681960Y10152380D02*
Y10213340D01*
X15742920D01*
Y10152380D01*
X15681960D01*
X15661639Y10005060D02*
Y10106660D01*
X15763240D01*
Y10005060D01*
X15661639D01*
X15681960Y10025380D02*
Y10086340D01*
X15742920D01*
Y10025380D01*
X15681960D01*
X15534641Y9878060D02*
Y9979660D01*
X15636240D01*
Y9878060D01*
X15534641D01*
X15554961Y9898380D02*
Y9959340D01*
X15615919D01*
Y9898380D01*
X15554961D01*
X15661639Y9243060D02*
Y9344660D01*
X15763240D01*
Y9243060D01*
X15661639D01*
X15681960Y9263380D02*
Y9324340D01*
X15742920D01*
Y9263380D01*
X15681960D01*
X15661639Y8862060D02*
Y8963660D01*
X15763240D01*
Y8862060D01*
X15661639D01*
X15681960Y8882380D02*
Y8943340D01*
X15742920D01*
Y8882380D01*
X15681960D01*
X15534641Y8735060D02*
Y8836660D01*
X15636240D01*
Y8735060D01*
X15534641D01*
X15554961Y8755380D02*
Y8816340D01*
X15615919D01*
Y8755380D01*
X15554961D01*
X15661639Y8481060D02*
Y8582660D01*
X15763240D01*
Y8481060D01*
X15661639D01*
X15681960Y8501380D02*
Y8562340D01*
X15742920D01*
Y8501380D01*
X15681960D01*
X15534641Y8354060D02*
Y8455660D01*
X15636240D01*
Y8354060D01*
X15534641D01*
X15554961Y8374380D02*
Y8435340D01*
X15615919D01*
Y8374380D01*
X15554961D01*
X15534641Y7973060D02*
Y8074660D01*
X15636240D01*
Y7973060D01*
X15534641D01*
X15554961Y7993380D02*
Y8054340D01*
X15615919D01*
Y7993380D01*
X15554961D01*
X15534641Y6830060D02*
Y6931660D01*
X15636240D01*
Y6830060D01*
X15534641D01*
X15554961Y6850380D02*
Y6911340D01*
X15615919D01*
Y6850380D01*
X15554961D01*
X15534641Y6449060D02*
Y6550660D01*
X15636240D01*
Y6449060D01*
X15534641D01*
X15554961Y6469380D02*
Y6530340D01*
X15615919D01*
Y6469380D01*
X15554961D01*
X15661639Y6576060D02*
Y6677660D01*
X15763240D01*
Y6576060D01*
X15661639D01*
X15681960Y6596380D02*
Y6657340D01*
X15742920D01*
Y6596380D01*
X15681960D01*
X15661639Y5560060D02*
Y5661660D01*
X15763240D01*
Y5560060D01*
X15661639D01*
X15681960Y5580380D02*
Y5641340D01*
X15742920D01*
Y5580380D01*
X15681960D01*
X15534641Y5687060D02*
Y5788660D01*
X15636240D01*
Y5687060D01*
X15534641D01*
X15554961Y5707380D02*
Y5768340D01*
X15615919D01*
Y5707380D01*
X15554961D01*
X15661639Y5814060D02*
Y5915660D01*
X15763240D01*
Y5814060D01*
X15661639D01*
X15681960Y5834380D02*
Y5895340D01*
X15742920D01*
Y5834380D01*
X15681960D01*
X15534641Y6068060D02*
Y6169660D01*
X15636240D01*
Y6068060D01*
X15534641D01*
X15554961Y6088380D02*
Y6149340D01*
X15615919D01*
Y6088380D01*
X15554961D01*
X15661639Y6195060D02*
Y6296660D01*
X15763240D01*
Y6195060D01*
X15661639D01*
X15681960Y6215380D02*
Y6276340D01*
X15742920D01*
Y6215380D01*
X15681960D01*
X10989200Y7639200D02*
Y7740800D01*
X11090800D01*
Y7639200D01*
X10989200D01*
X11009520Y7659520D02*
Y7720480D01*
X11070480D01*
Y7659520D01*
X11009520D01*
X10149200Y9309200D02*
Y9410800D01*
X10250800D01*
Y9309200D01*
X10149200D01*
X10169520Y9329520D02*
Y9390480D01*
X10230480D01*
Y9329520D01*
X10169520D01*
X10399200Y9069200D02*
Y9170800D01*
X10500800D01*
Y9069200D01*
X10399200D01*
X10419520Y9089520D02*
Y9150480D01*
X10480480D01*
Y9089520D01*
X10419520D01*
X10389200Y9489200D02*
Y9590800D01*
X10490800D01*
Y9489200D01*
X10389200D01*
X10409520Y9509520D02*
Y9570480D01*
X10470480D01*
Y9509520D01*
X10409520D01*
X10309200Y9489200D02*
Y9590800D01*
X10410800D01*
Y9489200D01*
X10309200D01*
X10329520Y9509520D02*
Y9570480D01*
X10390480D01*
Y9509520D01*
X10329520D01*
X10229200Y9489200D02*
Y9590800D01*
X10330800D01*
Y9489200D01*
X10229200D01*
X10249520Y9509520D02*
Y9570480D01*
X10310480D01*
Y9509520D01*
X10249520D01*
X10159200Y9489200D02*
Y9590800D01*
X10260800D01*
Y9489200D01*
X10159200D01*
X10179520Y9509520D02*
Y9570480D01*
X10240480D01*
Y9509520D01*
X10179520D01*
X10029200Y9489200D02*
Y9590800D01*
X10130800D01*
Y9489200D01*
X10029200D01*
X10049520Y9509520D02*
Y9570480D01*
X10110480D01*
Y9509520D01*
X10049520D01*
X9969200Y9489200D02*
Y9590800D01*
X10070800D01*
Y9489200D01*
X9969200D01*
X9989520Y9509520D02*
Y9570480D01*
X10050480D01*
Y9509520D01*
X9989520D01*
X9969200Y9299200D02*
Y9400800D01*
X10070800D01*
Y9299200D01*
X9969200D01*
X9989520Y9319520D02*
Y9380480D01*
X10050480D01*
Y9319520D01*
X9989520D01*
X9409200Y8939200D02*
Y9040800D01*
X9510800D01*
Y8939200D01*
X9409200D01*
X9429520Y8959520D02*
Y9020480D01*
X9490480D01*
Y8959520D01*
X9429520D01*
X16156940Y10290810D02*
Y10392410D01*
X16258540D01*
Y10290810D01*
X16156940D01*
X16177260Y10311130D02*
Y10372090D01*
X16238220D01*
Y10311130D01*
X16177260D01*
X9409200Y8839200D02*
Y8940800D01*
X9510800D01*
Y8839200D01*
X9409200D01*
X9429520Y8859520D02*
Y8920480D01*
X9490480D01*
Y8859520D01*
X9429520D01*
X16156940Y10356450D02*
Y10458050D01*
X16258540D01*
Y10356450D01*
X16156940D01*
X16177260Y10376770D02*
Y10437730D01*
X16238220D01*
Y10376770D01*
X16177260D01*
X10189200Y8039200D02*
Y8140800D01*
X10290800D01*
Y8039200D01*
X10189200D01*
X10209520Y8059520D02*
Y8120480D01*
X10270480D01*
Y8059520D01*
X10209520D01*
X10599200Y7959200D02*
Y8060800D01*
X10700800D01*
Y7959200D01*
X10599200D01*
X10619520Y7979520D02*
Y8040480D01*
X10680480D01*
Y7979520D01*
X10619520D01*
X9309200Y8439200D02*
Y8540800D01*
X9410800D01*
Y8439200D01*
X9309200D01*
X9329520Y8459520D02*
Y8520480D01*
X9390480D01*
Y8459520D01*
X9329520D01*
X10589200Y8849200D02*
Y8950800D01*
X10690800D01*
Y8849200D01*
X10589200D01*
X10609520Y8869520D02*
Y8930480D01*
X10670480D01*
Y8869520D01*
X10609520D01*
X9303300Y8939260D02*
Y9040860D01*
X9404900D01*
Y8939260D01*
X9303300D01*
X9323620Y8959580D02*
Y9020540D01*
X9384580D01*
Y8959580D01*
X9323620D01*
X7085800Y4945000D02*
X7035000Y5046600D01*
X7136600D01*
X7085800Y4945000D01*
Y4965320D02*
X7055320Y5026280D01*
X7116280D01*
X7085800Y4965320D01*
X6850000Y6059200D02*
X6799200Y6160800D01*
X6900800D01*
X6850000Y6059200D01*
Y6079520D02*
X6819520Y6140480D01*
X6880480D01*
X6850000Y6079520D01*
X6410000Y6069200D02*
X6359200Y6170800D01*
X6460800D01*
X6410000Y6069200D01*
Y6089520D02*
X6379520Y6150480D01*
X6440480D01*
X6410000Y6089520D01*
X7000000Y6029200D02*
X6949200Y6130800D01*
X7050800D01*
X7000000Y6029200D01*
Y6049520D02*
X6969520Y6110480D01*
X7030480D01*
X7000000Y6049520D01*
X6996639Y5945839D02*
X6945839Y6047439D01*
X7047439D01*
X6996639Y5945839D01*
Y5966159D02*
X6966159Y6027119D01*
X7027119D01*
X6996639Y5966159D01*
X6946639Y5945839D02*
X6895839Y6047439D01*
X6997439D01*
X6946639Y5945839D01*
Y5966159D02*
X6916159Y6027119D01*
X6977119D01*
X6946639Y5966159D01*
X8529200Y7159200D02*
Y7260800D01*
X8630800D01*
Y7159200D01*
X8529200D01*
X8549520Y7179520D02*
Y7240480D01*
X8610480D01*
Y7179520D01*
X8549520D01*
X8529200Y7219200D02*
Y7320800D01*
X8630800D01*
Y7219200D01*
X8529200D01*
X8549520Y7239520D02*
Y7300480D01*
X8610480D01*
Y7239520D01*
X8549520D01*
X8629200Y7159200D02*
Y7260800D01*
X8730800D01*
Y7159200D01*
X8629200D01*
X8649520Y7179520D02*
Y7240480D01*
X8710480D01*
Y7179520D01*
X8649520D01*
X8629200Y7219200D02*
Y7320800D01*
X8730800D01*
Y7219200D01*
X8629200D01*
X8649520Y7239520D02*
Y7300480D01*
X8710480D01*
Y7239520D01*
X8649520D01*
X8629200Y7309200D02*
Y7410800D01*
X8730800D01*
Y7309200D01*
X8629200D01*
X8649520Y7329520D02*
Y7390480D01*
X8710480D01*
Y7329520D01*
X8649520D01*
X8629200Y7369200D02*
Y7470800D01*
X8730800D01*
Y7369200D01*
X8629200D01*
X8649520Y7389520D02*
Y7450480D01*
X8710480D01*
Y7389520D01*
X8649520D01*
X8529200Y7309200D02*
Y7410800D01*
X8630800D01*
Y7309200D01*
X8529200D01*
X8549520Y7329520D02*
Y7390480D01*
X8610480D01*
Y7329520D01*
X8549520D01*
X8529200Y7369200D02*
Y7470800D01*
X8630800D01*
Y7369200D01*
X8529200D01*
X8549520Y7389520D02*
Y7450480D01*
X8610480D01*
Y7389520D01*
X8549520D01*
X8909182Y7359185D02*
Y7460785D01*
X9010782D01*
Y7359185D01*
X8909182D01*
X8929502Y7379505D02*
Y7440465D01*
X8990462D01*
Y7379505D01*
X8929502D01*
X15902940Y7132320D02*
Y7233920D01*
X16004539D01*
Y7132320D01*
X15902940D01*
X15923260Y7152640D02*
Y7213600D01*
X15984219D01*
Y7152640D01*
X15923260D01*
X8979182Y7459185D02*
Y7560785D01*
X9080782D01*
Y7459185D01*
X8979182D01*
X8999502Y7479505D02*
Y7540465D01*
X9060462D01*
Y7479505D01*
X8999502D01*
X15902940Y7198360D02*
Y7299960D01*
X16004539D01*
Y7198360D01*
X15902940D01*
X15923260Y7218680D02*
Y7279640D01*
X15984219D01*
Y7218680D01*
X15923260D01*
X9192500Y7448460D02*
Y7550060D01*
X9294100D01*
Y7448460D01*
X9192500D01*
X9212820Y7468780D02*
Y7529740D01*
X9273780D01*
Y7468780D01*
X9212820D01*
X9192500Y7548460D02*
Y7650060D01*
X9294100D01*
Y7548460D01*
X9192500D01*
X9212820Y7568780D02*
Y7629740D01*
X9273780D01*
Y7568780D01*
X9212820D01*
X16029939Y8385810D02*
Y8487410D01*
X16131540D01*
Y8385810D01*
X16029939D01*
X16050259Y8406130D02*
Y8467090D01*
X16111220D01*
Y8406130D01*
X16050259D01*
X16029939Y8453120D02*
Y8554720D01*
X16131540D01*
Y8453120D01*
X16029939D01*
X16050259Y8473440D02*
Y8534400D01*
X16111220D01*
Y8473440D01*
X16050259D01*
X9011920Y7967980D02*
Y8069580D01*
X9113520D01*
Y7967980D01*
X9011920D01*
X9032240Y7988300D02*
Y8049260D01*
X9093200D01*
Y7988300D01*
X9032240D01*
X15839439Y8766810D02*
Y8868410D01*
X15941040D01*
Y8766810D01*
X15839439D01*
X15859760Y8787130D02*
Y8848090D01*
X15920720D01*
Y8787130D01*
X15859760D01*
X9011080Y8231480D02*
Y8333080D01*
X9112680D01*
Y8231480D01*
X9011080D01*
X9031400Y8251800D02*
Y8312760D01*
X9092360D01*
Y8251800D01*
X9031400D01*
X15839439Y8834120D02*
Y8935720D01*
X15941040D01*
Y8834120D01*
X15839439D01*
X15859760Y8854440D02*
Y8915400D01*
X15920720D01*
Y8854440D01*
X15859760D01*
X9011080Y8131480D02*
Y8233080D01*
X9112680D01*
Y8131480D01*
X9011080D01*
X9031400Y8151800D02*
Y8212760D01*
X9092360D01*
Y8151800D01*
X9031400D01*
X16029939Y9147810D02*
Y9249410D01*
X16131540D01*
Y9147810D01*
X16029939D01*
X16050259Y9168130D02*
Y9229090D01*
X16111220D01*
Y9168130D01*
X16050259D01*
X16029939Y9215120D02*
Y9316720D01*
X16131540D01*
Y9215120D01*
X16029939D01*
X16050259Y9235440D02*
Y9296400D01*
X16111220D01*
Y9235440D01*
X16050259D01*
X9109200Y6869200D02*
Y6970800D01*
X9210800D01*
Y6869200D01*
X9109200D01*
X9129520Y6889520D02*
Y6950480D01*
X9190480D01*
Y6889520D01*
X9129520D01*
X11339200Y10039200D02*
Y10140800D01*
X11440800D01*
Y10039200D01*
X11339200D01*
X11359520Y10059520D02*
Y10120480D01*
X11420480D01*
Y10059520D01*
X11359520D01*
X13789200Y12069200D02*
Y12170800D01*
X13890800D01*
Y12069200D01*
X13789200D01*
X13809520Y12089520D02*
Y12150480D01*
X13870480D01*
Y12089520D01*
X13809520D01*
X13669200Y12069200D02*
Y12170800D01*
X13770799D01*
Y12069200D01*
X13669200D01*
X13689520Y12089520D02*
Y12150480D01*
X13750481D01*
Y12089520D01*
X13689520D01*
X13539200Y12069200D02*
Y12170800D01*
X13640800D01*
Y12069200D01*
X13539200D01*
X13559520Y12089520D02*
Y12150480D01*
X13620480D01*
Y12089520D01*
X13559520D01*
X8449200Y8199200D02*
Y8300800D01*
X8550800D01*
Y8199200D01*
X8449200D01*
X8469520Y8219520D02*
Y8280480D01*
X8530480D01*
Y8219520D01*
X8469520D01*
X8269200Y8199200D02*
Y8300800D01*
X8370800D01*
Y8199200D01*
X8269200D01*
X8289520Y8219520D02*
Y8280480D01*
X8350480D01*
Y8219520D01*
X8289520D01*
X8519200Y7679200D02*
Y7780800D01*
X8620800D01*
Y7679200D01*
X8519200D01*
X8539520Y7699520D02*
Y7760480D01*
X8600480D01*
Y7699520D01*
X8539520D01*
X8439200Y7679200D02*
Y7780800D01*
X8540800D01*
Y7679200D01*
X8439200D01*
X8459520Y7699520D02*
Y7760480D01*
X8520480D01*
Y7699520D01*
X8459520D01*
X8369200Y7679200D02*
Y7780800D01*
X8470800D01*
Y7679200D01*
X8369200D01*
X8389520Y7699520D02*
Y7760480D01*
X8450480D01*
Y7699520D01*
X8389520D01*
X8449200Y7859200D02*
Y7960800D01*
X8550800D01*
Y7859200D01*
X8449200D01*
X8469520Y7879520D02*
Y7940480D01*
X8530480D01*
Y7879520D01*
X8469520D01*
X8519200Y7859200D02*
Y7960800D01*
X8620800D01*
Y7859200D01*
X8519200D01*
X8539520Y7879520D02*
Y7940480D01*
X8600480D01*
Y7879520D01*
X8539520D01*
X8369200Y7859200D02*
Y7960800D01*
X8470800D01*
Y7859200D01*
X8369200D01*
X8389520Y7879520D02*
Y7940480D01*
X8450480D01*
Y7879520D01*
X8389520D01*
X8993300Y8849260D02*
Y8950860D01*
X9094900D01*
Y8849260D01*
X8993300D01*
X9013620Y8869580D02*
Y8930540D01*
X9074580D01*
Y8869580D01*
X9013620D01*
X10193020Y8354060D02*
Y8455660D01*
X10294620D01*
Y8354060D01*
X10193020D01*
X10213340Y8374380D02*
Y8435340D01*
X10274300D01*
Y8374380D01*
X10213340D01*
X10378440Y8542020D02*
Y8643620D01*
X10480040D01*
Y8542020D01*
X10378440D01*
X10398760Y8562340D02*
Y8623300D01*
X10459720D01*
Y8562340D01*
X10398760D01*
X10888980Y7942580D02*
Y8044180D01*
X10990580D01*
Y7942580D01*
X10888980D01*
X10909300Y7962900D02*
Y8023860D01*
X10970260D01*
Y7962900D01*
X10909300D01*
Y8257540D02*
Y8359140D01*
X11010900D01*
Y8257540D01*
X10909300D01*
X10929620Y8277860D02*
Y8338820D01*
X10990580D01*
Y8277860D01*
X10929620D01*
X15648940Y7181450D02*
Y7283050D01*
X15750540D01*
Y7181450D01*
X15648940D01*
X15669260Y7201770D02*
Y7262730D01*
X15730220D01*
Y7201770D01*
X15669260D01*
X15648940Y7115810D02*
Y7217410D01*
X15750540D01*
Y7115810D01*
X15648940D01*
X15669260Y7136130D02*
Y7197090D01*
X15730220D01*
Y7136130D01*
X15669260D01*
X15648940Y7242810D02*
Y7344410D01*
X15750540D01*
Y7242810D01*
X15648940D01*
X15669260Y7263130D02*
Y7324090D01*
X15730220D01*
Y7263130D01*
X15669260D01*
X9982200Y7462520D02*
Y7564120D01*
X10083800D01*
Y7462520D01*
X9982200D01*
X10002520Y7482840D02*
Y7543800D01*
X10063480D01*
Y7482840D01*
X10002520D01*
X10591800Y7843520D02*
Y7945120D01*
X10693400D01*
Y7843520D01*
X10591800D01*
X10612120Y7863840D02*
Y7924800D01*
X10673080D01*
Y7863840D01*
X10612120D01*
X9138920Y11539220D02*
Y11640820D01*
X9240520D01*
Y11539220D01*
X9138920D01*
X9159240Y11559540D02*
Y11620500D01*
X9220200D01*
Y11559540D01*
X9159240D01*
X9429820Y11469440D02*
Y11571040D01*
X9531420D01*
Y11469440D01*
X9429820D01*
X9450140Y11489760D02*
Y11550720D01*
X9511100D01*
Y11489760D01*
X9450140D01*
X9442380Y10994320D02*
Y11095920D01*
X9543980D01*
Y10994320D01*
X9442380D01*
X9462700Y11014640D02*
Y11075600D01*
X9523660D01*
Y11014640D01*
X9462700D01*
X9118600Y10922000D02*
Y11023600D01*
X9220200D01*
Y10922000D01*
X9118600D01*
X9138920Y10942320D02*
Y11003280D01*
X9199880D01*
Y10942320D01*
X9138920D01*
X8858180Y12231300D02*
Y12332900D01*
X8959780D01*
Y12231300D01*
X8858180D01*
X8878500Y12251620D02*
Y12312580D01*
X8939460D01*
Y12251620D01*
X8878500D01*
X8858180Y11832520D02*
Y11934120D01*
X8959780D01*
Y11832520D01*
X8858180D01*
X8878500Y11852840D02*
Y11913800D01*
X8939460D01*
Y11852840D01*
X8878500D01*
X9119800Y11741080D02*
Y11842680D01*
X9221400D01*
Y11741080D01*
X9119800D01*
X9140120Y11761400D02*
Y11822360D01*
X9201080D01*
Y11761400D01*
X9140120D01*
X9450000Y11802040D02*
Y11903640D01*
X9551600D01*
Y11802040D01*
X9450000D01*
X9470320Y11822360D02*
Y11883320D01*
X9531280D01*
Y11822360D01*
X9470320D01*
X9433560Y12260580D02*
Y12362180D01*
X9535160D01*
Y12260580D01*
X9433560D01*
X9453880Y12280900D02*
Y12341860D01*
X9514840D01*
Y12280900D01*
X9453880D01*
X9123680Y12324080D02*
Y12425680D01*
X9225280D01*
Y12324080D01*
X9123680D01*
X9144000Y12344400D02*
Y12405360D01*
X9204960D01*
Y12344400D01*
X9144000D01*
X9514840Y8737600D02*
Y8839200D01*
X9616440D01*
Y8737600D01*
X9514840D01*
X9535160Y8757920D02*
Y8818880D01*
X9596120D01*
Y8757920D01*
X9535160D01*
X9502140Y8638540D02*
Y8740140D01*
X9603740D01*
Y8638540D01*
X9502140D01*
X9522460Y8658860D02*
Y8719820D01*
X9583420D01*
Y8658860D01*
X9522460D01*
X9705340Y8849360D02*
Y8950960D01*
X9806940D01*
Y8849360D01*
X9705340D01*
X9725660Y8869680D02*
Y8930640D01*
X9786620D01*
Y8869680D01*
X9725660D01*
X16035020Y6824980D02*
Y6926580D01*
X16136620D01*
Y6824980D01*
X16035020D01*
X16055341Y6845300D02*
Y6906260D01*
X16116299D01*
Y6845300D01*
X16055341D01*
X15648940Y6671310D02*
Y6772910D01*
X15750540D01*
Y6671310D01*
X15648940D01*
X15669260Y6691630D02*
Y6752590D01*
X15730220D01*
Y6691630D01*
X15669260D01*
X15527020Y5562600D02*
Y5664200D01*
X15628619D01*
Y5562600D01*
X15527020D01*
X15547340Y5582920D02*
Y5643880D01*
X15608299D01*
Y5582920D01*
X15547340D01*
X15654021Y5687060D02*
Y5788660D01*
X15755620D01*
Y5687060D01*
X15654021D01*
X15674339Y5707380D02*
Y5768340D01*
X15735300D01*
Y5707380D01*
X15674339D01*
X15811501Y9220200D02*
Y9321800D01*
X15913100D01*
Y9220200D01*
X15811501D01*
X15831821Y9240520D02*
Y9301480D01*
X15892780D01*
Y9240520D01*
X15831821D01*
X13848080Y10787380D02*
Y10888980D01*
X13949680D01*
Y10787380D01*
X13848080D01*
X13868401Y10807700D02*
Y10868660D01*
X13929359D01*
Y10807700D01*
X13868401D01*
X15521941Y10510520D02*
Y10612120D01*
X15623540D01*
Y10510520D01*
X15521941D01*
X15542261Y10530840D02*
Y10591800D01*
X15603220D01*
Y10530840D01*
X15542261D01*
X16281400Y7081520D02*
Y7183120D01*
X16383000D01*
Y7081520D01*
X16281400D01*
X16301720Y7101840D02*
Y7162800D01*
X16362680D01*
Y7101840D01*
X16301720D01*
X16162019Y6703060D02*
Y6804660D01*
X16263620D01*
Y6703060D01*
X16162019D01*
X16182339Y6723380D02*
Y6784340D01*
X16243300D01*
Y6723380D01*
X16182339D01*
X16024860Y6324600D02*
Y6426200D01*
X16126460D01*
Y6324600D01*
X16024860D01*
X16045180Y6344920D02*
Y6405880D01*
X16106140D01*
Y6344920D01*
X16045180D01*
X16037560Y6068060D02*
Y6169660D01*
X16139160D01*
Y6068060D01*
X16037560D01*
X16057880Y6088380D02*
Y6149340D01*
X16118840D01*
Y6088380D01*
X16057880D01*
X16037560Y5941060D02*
Y6042660D01*
X16139160D01*
Y5941060D01*
X16037560D01*
X16057880Y5961380D02*
Y6022340D01*
X16118840D01*
Y5961380D01*
X16057880D01*
X16162019Y5687060D02*
Y5788660D01*
X16263620D01*
Y5687060D01*
X16162019D01*
X16182339Y5707380D02*
Y5768340D01*
X16243300D01*
Y5707380D01*
X16182339D01*
X16037560Y5811520D02*
Y5913120D01*
X16139160D01*
Y5811520D01*
X16037560D01*
X16057880Y5831840D02*
Y5892800D01*
X16118840D01*
Y5831840D01*
X16057880D01*
X16035020Y5689600D02*
Y5791200D01*
X16136620D01*
Y5689600D01*
X16035020D01*
X16055341Y5709920D02*
Y5770880D01*
X16116299D01*
Y5709920D01*
X16055341D01*
X16037560Y5560060D02*
Y5661660D01*
X16139160D01*
Y5560060D01*
X16037560D01*
X16057880Y5580380D02*
Y5641340D01*
X16118840D01*
Y5580380D01*
X16057880D01*
X7891780Y8536940D02*
Y8638540D01*
X7993380D01*
Y8536940D01*
X7891780D01*
X7912100Y8557260D02*
Y8618220D01*
X7973060D01*
Y8557260D01*
X7912100D01*
X9812020Y8534400D02*
Y8636000D01*
X9913620D01*
Y8534400D01*
X9812020D01*
X9832340Y8554720D02*
Y8615680D01*
X9893300D01*
Y8554720D01*
X9832340D01*
X9890760Y8656320D02*
Y8757920D01*
X9992360D01*
Y8656320D01*
X9890760D01*
X9911080Y8676640D02*
Y8737600D01*
X9972040D01*
Y8676640D01*
X9911080D01*
X10283300Y8539260D02*
Y8640860D01*
X10384900D01*
Y8539260D01*
X10283300D01*
X10303620Y8559580D02*
Y8620540D01*
X10364580D01*
Y8559580D01*
X10303620D01*
X10283300Y8339260D02*
Y8440860D01*
X10384900D01*
Y8339260D01*
X10283300D01*
X10303620Y8359580D02*
Y8420540D01*
X10364580D01*
Y8359580D01*
X10303620D01*
X10283300Y8439260D02*
Y8540860D01*
X10384900D01*
Y8439260D01*
X10283300D01*
X10303620Y8459580D02*
Y8520540D01*
X10364580D01*
Y8459580D01*
X10303620D01*
X5976620Y9372616D02*
Y9474216D01*
X6078220D01*
Y9372616D01*
X5976620D01*
X5996940Y9392936D02*
Y9453896D01*
X6057900D01*
Y9392936D01*
X5996940D01*
X12633960Y10241280D02*
Y10342880D01*
X12735560D01*
Y10241280D01*
X12633960D01*
X12654280Y10261600D02*
Y10322560D01*
X12715240D01*
Y10261600D01*
X12654280D01*
X12458700Y10198100D02*
Y10299700D01*
X12560300D01*
Y10198100D01*
X12458700D01*
X12479020Y10218420D02*
Y10279380D01*
X12539980D01*
Y10218420D01*
X12479020D01*
X12434993Y9657927D02*
Y9759527D01*
X12536593D01*
Y9657927D01*
X12434993D01*
X12455313Y9678247D02*
Y9739207D01*
X12516273D01*
Y9678247D01*
X12455313D01*
X12527280Y9654540D02*
Y9756140D01*
X12628880D01*
Y9654540D01*
X12527280D01*
X12547600Y9674860D02*
Y9735820D01*
X12608560D01*
Y9674860D01*
X12547600D01*
X12791440Y8864620D02*
Y8966220D01*
X12893040D01*
Y8864620D01*
X12791440D01*
X12811760Y8884940D02*
Y8945900D01*
X12872720D01*
Y8884940D01*
X12811760D01*
X12250420Y9451340D02*
Y9552940D01*
X12352020D01*
Y9451340D01*
X12250420D01*
X12270740Y9471660D02*
Y9532620D01*
X12331700D01*
Y9471660D01*
X12270740D01*
X16029939Y8322310D02*
Y8423910D01*
X16131540D01*
Y8322310D01*
X16029939D01*
X16050259Y8342630D02*
Y8403590D01*
X16111220D01*
Y8342630D01*
X16050259D01*
X16029939Y8131810D02*
Y8233410D01*
X16131540D01*
Y8131810D01*
X16029939D01*
X16050259Y8152130D02*
Y8213090D01*
X16111220D01*
Y8152130D01*
X16050259D01*
X9100820Y8037700D02*
Y8139300D01*
X9202420D01*
Y8037700D01*
X9100820D01*
X9121140Y8058020D02*
Y8118980D01*
X9182100D01*
Y8058020D01*
X9121140D01*
X12710160Y6911340D02*
Y7012940D01*
X12811760D01*
Y6911340D01*
X12710160D01*
X12730480Y6931660D02*
Y6992620D01*
X12791440D01*
Y6931660D01*
X12730480D01*
X13721060Y8481060D02*
Y8582660D01*
X13822659D01*
Y8481060D01*
X13721060D01*
X13741380Y8501380D02*
Y8562340D01*
X13802341D01*
Y8501380D01*
X13741380D01*
X14683740Y9738340D02*
Y9839940D01*
X14785339D01*
Y9738340D01*
X14683740D01*
X14704060Y9758660D02*
Y9819620D01*
X14765021D01*
Y9758660D01*
X14704060D01*
X15196820Y10204460D02*
Y10306060D01*
X15298421D01*
Y10204460D01*
X15196820D01*
X15217140Y10224780D02*
Y10285740D01*
X15278101D01*
Y10224780D01*
X15217140D01*
X15196820Y10444460D02*
Y10546060D01*
X15298421D01*
Y10444460D01*
X15196820D01*
X15217140Y10464780D02*
Y10525740D01*
X15278101D01*
Y10464780D01*
X15217140D01*
X15648940Y10227310D02*
Y10328910D01*
X15750540D01*
Y10227310D01*
X15648940D01*
X15669260Y10247630D02*
Y10308590D01*
X15730220D01*
Y10247630D01*
X15669260D01*
X15521941Y10165080D02*
Y10266680D01*
X15623540D01*
Y10165080D01*
X15521941D01*
X15542261Y10185400D02*
Y10246360D01*
X15603220D01*
Y10185400D01*
X15542261D01*
X15521941Y9972040D02*
Y10073640D01*
X15623540D01*
Y9972040D01*
X15521941D01*
X15542261Y9992360D02*
Y10053320D01*
X15603220D01*
Y9992360D01*
X15542261D01*
X15648940Y10417810D02*
Y10519410D01*
X15750540D01*
Y10417810D01*
X15648940D01*
X15669260Y10438130D02*
Y10499090D01*
X15730220D01*
Y10438130D01*
X15669260D01*
X9796780Y8646160D02*
Y8747760D01*
X9898380D01*
Y8646160D01*
X9796780D01*
X9817100Y8666480D02*
Y8727440D01*
X9878060D01*
Y8666480D01*
X9817100D01*
X9403300Y8539260D02*
Y8640860D01*
X9504900D01*
Y8539260D01*
X9403300D01*
X9423620Y8559580D02*
Y8620540D01*
X9484580D01*
Y8559580D01*
X9423620D01*
X16042641Y10259060D02*
Y10360660D01*
X16144240D01*
Y10259060D01*
X16042641D01*
X16062959Y10279380D02*
Y10340340D01*
X16123920D01*
Y10279380D01*
X16062959D01*
X16156940Y10227310D02*
Y10328910D01*
X16258540D01*
Y10227310D01*
X16156940D01*
X16177260Y10247630D02*
Y10308590D01*
X16238220D01*
Y10247630D01*
X16177260D01*
X9411080Y9031480D02*
Y9133080D01*
X9512680D01*
Y9031480D01*
X9411080D01*
X9431400Y9051800D02*
Y9112760D01*
X9492360D01*
Y9051800D01*
X9431400D01*
X16278860Y6957060D02*
Y7058660D01*
X16380460D01*
Y6957060D01*
X16278860D01*
X16299181Y6977380D02*
Y7038340D01*
X16360139D01*
Y6977380D01*
X16299181D01*
X16162019Y5814060D02*
Y5915660D01*
X16263620D01*
Y5814060D01*
X16162019D01*
X16182339Y5834380D02*
Y5895340D01*
X16243300D01*
Y5834380D01*
X16182339D01*
X16162019Y5560060D02*
Y5661660D01*
X16263620D01*
Y5560060D01*
X16162019D01*
X16182339Y5580380D02*
Y5641340D01*
X16243300D01*
Y5580380D01*
X16182339D01*
X15648940Y6480810D02*
Y6582410D01*
X15750540D01*
Y6480810D01*
X15648940D01*
X15669260Y6501130D02*
Y6562090D01*
X15730220D01*
Y6501130D01*
X15669260D01*
X11615420Y6210300D02*
Y6311900D01*
X11717020D01*
Y6210300D01*
X11615420D01*
X11635740Y6230620D02*
Y6291580D01*
X11696700D01*
Y6230620D01*
X11635740D01*
X11615420Y6450300D02*
Y6551900D01*
X11717020D01*
Y6450300D01*
X11615420D01*
X11635740Y6470620D02*
Y6531580D01*
X11696700D01*
Y6470620D01*
X11635740D01*
X15648940Y8004810D02*
Y8106410D01*
X15750540D01*
Y8004810D01*
X15648940D01*
X15669260Y8025130D02*
Y8086090D01*
X15730220D01*
Y8025130D01*
X15669260D01*
X7806360Y5557520D02*
X7755560Y5659120D01*
X7857160D01*
X7806360Y5557520D01*
Y5577840D02*
X7775880Y5638800D01*
X7836840D01*
X7806360Y5577840D01*
X9474200Y7058660D02*
Y7160260D01*
X9575800D01*
Y7058660D01*
X9474200D01*
X9494520Y7078980D02*
Y7139940D01*
X9555480D01*
Y7078980D01*
X9494520D01*
X9411080Y8331480D02*
Y8433080D01*
X9512680D01*
Y8331480D01*
X9411080D01*
X9431400Y8351800D02*
Y8412760D01*
X9492360D01*
Y8351800D01*
X9431400D01*
X9611080Y8331480D02*
Y8433080D01*
X9712680D01*
Y8331480D01*
X9611080D01*
X9631400Y8351800D02*
Y8412760D01*
X9692360D01*
Y8351800D01*
X9631400D01*
X9812020Y8331200D02*
Y8432800D01*
X9913620D01*
Y8331200D01*
X9812020D01*
X9832340Y8351520D02*
Y8412480D01*
X9893300D01*
Y8351520D01*
X9832340D01*
X9211080Y9031480D02*
Y9133080D01*
X9312680D01*
Y9031480D01*
X9211080D01*
X9231400Y9051800D02*
Y9112760D01*
X9292360D01*
Y9051800D01*
X9231400D01*
X9403300Y8439260D02*
Y8540860D01*
X9504900D01*
Y8439260D01*
X9403300D01*
X9423620Y8459580D02*
Y8520540D01*
X9484580D01*
Y8459580D01*
X9423620D01*
X9603300Y8439260D02*
Y8540860D01*
X9704900D01*
Y8439260D01*
X9603300D01*
X9623620Y8459580D02*
Y8520540D01*
X9684580D01*
Y8459580D01*
X9623620D01*
X9711080Y8431480D02*
Y8533080D01*
X9812680D01*
Y8431480D01*
X9711080D01*
X9731400Y8451800D02*
Y8512760D01*
X9792360D01*
Y8451800D01*
X9731400D01*
X9972040Y8432800D02*
Y8534400D01*
X10073640D01*
Y8432800D01*
X9972040D01*
X9992360Y8453120D02*
Y8514080D01*
X10053320D01*
Y8453120D01*
X9992360D01*
X9411080Y8631480D02*
Y8733080D01*
X9512680D01*
Y8631480D01*
X9411080D01*
X9431400Y8651800D02*
Y8712760D01*
X9492360D01*
Y8651800D01*
X9431400D01*
X9603300Y8539260D02*
Y8640860D01*
X9704900D01*
Y8539260D01*
X9603300D01*
X9623620Y8559580D02*
Y8620540D01*
X9684580D01*
Y8559580D01*
X9623620D01*
X9703300Y8539260D02*
Y8640860D01*
X9804900D01*
Y8539260D01*
X9703300D01*
X9723620Y8559580D02*
Y8620540D01*
X9784580D01*
Y8559580D01*
X9723620D01*
X9611080Y8631480D02*
Y8733080D01*
X9712680D01*
Y8631480D01*
X9611080D01*
X9631400Y8651800D02*
Y8712760D01*
X9692360D01*
Y8651800D01*
X9631400D01*
X9603300Y8739260D02*
Y8840860D01*
X9704900D01*
Y8739260D01*
X9603300D01*
X9623620Y8759580D02*
Y8820540D01*
X9684580D01*
Y8759580D01*
X9623620D01*
X7625081Y9621119D02*
Y9722719D01*
X7726681D01*
Y9621119D01*
X7625081D01*
X7645401Y9641439D02*
Y9702399D01*
X7706361D01*
Y9641439D01*
X7645401D01*
X9979660Y8145780D02*
Y8247380D01*
X10081260D01*
Y8145780D01*
X9979660D01*
X9999980Y8166100D02*
Y8227060D01*
X10060940D01*
Y8166100D01*
X9999980D01*
X9603300Y8239260D02*
Y8340860D01*
X9704900D01*
Y8239260D01*
X9603300D01*
X9623620Y8259580D02*
Y8320540D01*
X9684580D01*
Y8259580D01*
X9623620D01*
X10075520Y8331480D02*
Y8433080D01*
X10177120D01*
Y8331480D01*
X10075520D01*
X10095840Y8351800D02*
Y8412760D01*
X10156800D01*
Y8351800D01*
X10095840D01*
X10375520Y8431480D02*
Y8533080D01*
X10477120D01*
Y8431480D01*
X10375520D01*
X10395840Y8451800D02*
Y8512760D01*
X10456800D01*
Y8451800D01*
X10395840D01*
X10609200Y8539200D02*
Y8640800D01*
X10710800D01*
Y8539200D01*
X10609200D01*
X10629520Y8559520D02*
Y8620480D01*
X10690480D01*
Y8559520D01*
X10629520D01*
X9611080Y7667040D02*
Y7768640D01*
X9712680D01*
Y7667040D01*
X9611080D01*
X9631400Y7687360D02*
Y7748320D01*
X9692360D01*
Y7687360D01*
X9631400D01*
X9103300Y8839260D02*
Y8940860D01*
X9204900D01*
Y8839260D01*
X9103300D01*
X9123620Y8859580D02*
Y8920540D01*
X9184580D01*
Y8859580D01*
X9123620D01*
X9111080Y8931480D02*
Y9033080D01*
X9212680D01*
Y8931480D01*
X9111080D01*
X9131400Y8951800D02*
Y9012760D01*
X9192360D01*
Y8951800D01*
X9131400D01*
X9511080Y7767040D02*
Y7868640D01*
X9612680D01*
Y7767040D01*
X9511080D01*
X9531400Y7787360D02*
Y7848320D01*
X9592360D01*
Y7787360D01*
X9531400D01*
X10075520Y7667040D02*
Y7768640D01*
X10177120D01*
Y7667040D01*
X10075520D01*
X10095840Y7687360D02*
Y7748320D01*
X10156800D01*
Y7687360D01*
X10095840D01*
X9975520Y7567040D02*
Y7668640D01*
X10077120D01*
Y7567040D01*
X9975520D01*
X9995840Y7587360D02*
Y7648320D01*
X10056800D01*
Y7587360D01*
X9995840D01*
X15648940Y8766810D02*
Y8868410D01*
X15750540D01*
Y8766810D01*
X15648940D01*
X15669260Y8787130D02*
Y8848090D01*
X15730220D01*
Y8787130D01*
X15669260D01*
X7891780Y8776940D02*
Y8878540D01*
X7993380D01*
Y8776940D01*
X7891780D01*
X7912100Y8797260D02*
Y8858220D01*
X7973060D01*
Y8797260D01*
X7912100D01*
X9108440Y6967220D02*
Y7068820D01*
X9210040D01*
Y6967220D01*
X9108440D01*
X9128760Y6987540D02*
Y7048500D01*
X9189720D01*
Y6987540D01*
X9128760D01*
X5976620Y9612616D02*
Y9714216D01*
X6078220D01*
Y9612616D01*
X5976620D01*
X5996940Y9632936D02*
Y9693896D01*
X6057900D01*
Y9632936D01*
X5996940D01*
X7466800Y5575300D02*
X7416000Y5676900D01*
X7517600D01*
X7466800Y5575300D01*
Y5595620D02*
X7436320Y5656580D01*
X7497280D01*
X7466800Y5595620D01*
Y5529580D02*
X7416000Y5631180D01*
X7517600D01*
X7466800Y5529580D01*
Y5549900D02*
X7436320Y5610860D01*
X7497280D01*
X7466800Y5549900D01*
X7375360Y5191760D02*
X7324560Y5293360D01*
X7426160D01*
X7375360Y5191760D01*
Y5212080D02*
X7344880Y5273040D01*
X7405840D01*
X7375360Y5212080D01*
X7329640Y5191760D02*
X7278840Y5293360D01*
X7380440D01*
X7329640Y5191760D01*
Y5212080D02*
X7299160Y5273040D01*
X7360120D01*
X7329640Y5212080D01*
X7283920Y5191760D02*
X7233120Y5293360D01*
X7334720D01*
X7283920Y5191760D01*
Y5212080D02*
X7253440Y5273040D01*
X7314400D01*
X7283920Y5212080D01*
X6714890Y6296660D02*
X6664090Y6398260D01*
X6765690D01*
X6714890Y6296660D01*
Y6316980D02*
X6684410Y6377940D01*
X6745370D01*
X6714890Y6316980D01*
X5725510Y5411350D02*
X5674710Y5512950D01*
X5776310D01*
X5725510Y5411350D01*
Y5431670D02*
X5695030Y5492630D01*
X5755990D01*
X5725510Y5431670D01*
X5726200Y5568380D02*
X5675400Y5669980D01*
X5777000D01*
X5726200Y5568380D01*
Y5588700D02*
X5695720Y5649660D01*
X5756680D01*
X5726200Y5588700D01*
X6222200Y5521960D02*
X6171400Y5623560D01*
X6273000D01*
X6222200Y5521960D01*
Y5542280D02*
X6191720Y5603240D01*
X6252680D01*
X6222200Y5542280D01*
X6707340Y4853940D02*
X6656540Y4955540D01*
X6758140D01*
X6707340Y4853940D01*
Y4874260D02*
X6676860Y4935220D01*
X6737820D01*
X6707340Y4874260D01*
X6770840Y4886960D02*
X6720040Y4988560D01*
X6821640D01*
X6770840Y4886960D01*
Y4907280D02*
X6740360Y4968240D01*
X6801320D01*
X6770840Y4907280D01*
X6646380Y4886960D02*
X6595580Y4988560D01*
X6697180D01*
X6646380Y4886960D01*
Y4907280D02*
X6615900Y4968240D01*
X6676860D01*
X6646380Y4907280D01*
X6371120Y6299200D02*
X6320320Y6400800D01*
X6421920D01*
X6371120Y6299200D01*
Y6319520D02*
X6340640Y6380480D01*
X6401600D01*
X6371120Y6319520D01*
X4703280Y6207760D02*
X4652480Y6309360D01*
X4754080D01*
X4703280Y6207760D01*
Y6228080D02*
X4672800Y6289040D01*
X4733760D01*
X4703280Y6228080D01*
X6374600Y4790440D02*
X6323800Y4892040D01*
X6425400D01*
X6374600Y4790440D01*
Y4810760D02*
X6344120Y4871720D01*
X6405080D01*
X6374600Y4810760D01*
Y6187440D02*
X6323800Y6289040D01*
X6425400D01*
X6374600Y6187440D01*
Y6207760D02*
X6344120Y6268720D01*
X6405080D01*
X6374600Y6207760D01*
X6333019Y6186640D02*
X6282219Y6288240D01*
X6383819D01*
X6333019Y6186640D01*
Y6206960D02*
X6302539Y6267920D01*
X6363499D01*
X6333019Y6206960D01*
X6290780Y6187440D02*
X6239980Y6289040D01*
X6341580D01*
X6290780Y6187440D01*
Y6207760D02*
X6260300Y6268720D01*
X6321260D01*
X6290780Y6207760D01*
X6493980Y5969000D02*
X6443180Y6070600D01*
X6544780D01*
X6493980Y5969000D01*
Y5989320D02*
X6463500Y6050280D01*
X6524460D01*
X6493980Y5989320D01*
X6737020Y5994400D02*
X6686220Y6096000D01*
X6787820D01*
X6737020Y5994400D01*
Y6014720D02*
X6706540Y6075680D01*
X6767500D01*
X6737020Y6014720D01*
X6501600Y4995380D02*
X6450800Y5096980D01*
X6552400D01*
X6501600Y4995380D01*
Y5015700D02*
X6471120Y5076660D01*
X6532080D01*
X6501600Y5015700D01*
X6308560Y4892040D02*
X6257760Y4993640D01*
X6359360D01*
X6308560Y4892040D01*
Y4912360D02*
X6278080Y4973320D01*
X6339040D01*
X6308560Y4912360D01*
X6265380Y4892040D02*
X6214580Y4993640D01*
X6316180D01*
X6265380Y4892040D01*
Y4912360D02*
X6234900Y4973320D01*
X6295860D01*
X6265380Y4912360D01*
X6222200Y4892040D02*
X6171400Y4993640D01*
X6273000D01*
X6222200Y4892040D01*
Y4912360D02*
X6191720Y4973320D01*
X6252680D01*
X6222200Y4912360D01*
X6417780Y4996180D02*
X6366980Y5097780D01*
X6468580D01*
X6417780Y4996180D01*
Y5016500D02*
X6387300Y5077460D01*
X6448260D01*
X6417780Y5016500D01*
X6918160Y4991100D02*
X6867360Y5092700D01*
X6968960D01*
X6918160Y4991100D01*
Y5011420D02*
X6887680Y5072380D01*
X6948640D01*
X6918160Y5011420D01*
X6996900Y4996180D02*
X6946100Y5097780D01*
X7047700D01*
X6996900Y4996180D01*
Y5016500D02*
X6966420Y5077460D01*
X7027380D01*
X6996900Y5016500D01*
X6547320Y6063780D02*
X6496520Y6165380D01*
X6598120D01*
X6547320Y6063780D01*
Y6084100D02*
X6516840Y6145060D01*
X6577800D01*
X6547320Y6084100D01*
X6996900Y5094440D02*
X6946100Y5196040D01*
X7047700D01*
X6996900Y5094440D01*
Y5114760D02*
X6966420Y5175720D01*
X7027380D01*
X6996900Y5114760D01*
X6445720Y5110480D02*
X6394920Y5212080D01*
X6496520D01*
X6445720Y5110480D01*
Y5130800D02*
X6415240Y5191760D01*
X6476200D01*
X6445720Y5130800D01*
X7268680Y5836920D02*
X7217880Y5938520D01*
X7319480D01*
X7268680Y5836920D01*
Y5857240D02*
X7238200Y5918200D01*
X7299160D01*
X7268680Y5857240D01*
X7326959Y5841200D02*
X7276159Y5942800D01*
X7377759D01*
X7326959Y5841200D01*
Y5861520D02*
X7296479Y5922480D01*
X7357439D01*
X7326959Y5861520D01*
X7390600Y5834380D02*
X7339800Y5935980D01*
X7441400D01*
X7390600Y5834380D01*
Y5854700D02*
X7360120Y5915660D01*
X7421080D01*
X7390600Y5854700D01*
X7040080Y4787900D02*
X6989280Y4889500D01*
X7090880D01*
X7040080Y4787900D01*
Y4808220D02*
X7009600Y4869180D01*
X7070560D01*
X7040080Y4808220D01*
X6742900Y5105400D02*
X6692100Y5207000D01*
X6793700D01*
X6742900Y5105400D01*
Y5125720D02*
X6712420Y5186680D01*
X6773380D01*
X6742900Y5125720D01*
X10289120Y9952860D02*
X10314520Y9978260D01*
X10339920D01*
X10314520Y10003660D01*
X10339920Y10029060D01*
X10314520D01*
X10289120Y10054460D01*
X10263720Y10029060D01*
X10238320D01*
X10263720Y10003660D01*
X10238320Y9978260D01*
X10263720D01*
X10289120Y9952860D01*
Y9973180D02*
X10304360Y9988420D01*
X10319600D01*
X10304360Y10003660D01*
X10319600Y10018900D01*
X10304360D01*
X10289120Y10034140D01*
X10273880Y10018900D01*
X10258640D01*
X10273880Y10003660D01*
X10258640Y9988420D01*
X10273880D01*
X10289120Y9973180D01*
Y9842860D02*
X10314520Y9868260D01*
X10339920D01*
X10314520Y9893660D01*
X10339920Y9919060D01*
X10314520D01*
X10289120Y9944460D01*
X10263720Y9919060D01*
X10238320D01*
X10263720Y9893660D01*
X10238320Y9868260D01*
X10263720D01*
X10289120Y9842860D01*
Y9863180D02*
X10304360Y9878420D01*
X10319600D01*
X10304360Y9893660D01*
X10319600Y9908900D01*
X10304360D01*
X10289120Y9924140D01*
X10273880Y9908900D01*
X10258640D01*
X10273880Y9893660D01*
X10258640Y9878420D01*
X10273880D01*
X10289120Y9863180D01*
X10179120Y9842860D02*
X10204520Y9868260D01*
X10229920D01*
X10204520Y9893660D01*
X10229920Y9919060D01*
X10204520D01*
X10179120Y9944460D01*
X10153720Y9919060D01*
X10128320D01*
X10153720Y9893660D01*
X10128320Y9868260D01*
X10153720D01*
X10179120Y9842860D01*
Y9863180D02*
X10194360Y9878420D01*
X10209600D01*
X10194360Y9893660D01*
X10209600Y9908900D01*
X10194360D01*
X10179120Y9924140D01*
X10163880Y9908900D01*
X10148640D01*
X10163880Y9893660D01*
X10148640Y9878420D01*
X10163880D01*
X10179120Y9863180D01*
Y9952860D02*
X10204520Y9978260D01*
X10229920D01*
X10204520Y10003660D01*
X10229920Y10029060D01*
X10204520D01*
X10179120Y10054460D01*
X10153720Y10029060D01*
X10128320D01*
X10153720Y10003660D01*
X10128320Y9978260D01*
X10153720D01*
X10179120Y9952860D01*
Y9973180D02*
X10194360Y9988420D01*
X10209600D01*
X10194360Y10003660D01*
X10209600Y10018900D01*
X10194360D01*
X10179120Y10034140D01*
X10163880Y10018900D01*
X10148640D01*
X10163880Y10003660D01*
X10148640Y9988420D01*
X10163880D01*
X10179120Y9973180D01*
X9009380Y8333740D02*
Y8435340D01*
X9110980D01*
Y8333740D01*
X9009380D01*
X9029700Y8354060D02*
Y8415020D01*
X9090660D01*
Y8354060D01*
X9029700D01*
X9710420Y8234680D02*
Y8336280D01*
X9812020D01*
Y8234680D01*
X9710420D01*
X9730740Y8255000D02*
Y8315960D01*
X9791700D01*
Y8255000D01*
X9730740D01*
X9972040Y8232140D02*
Y8333740D01*
X10073640D01*
Y8232140D01*
X9972040D01*
X9992360Y8252460D02*
Y8313420D01*
X10053320D01*
Y8252460D01*
X9992360D01*
X9507220Y8232140D02*
Y8333740D01*
X9608820D01*
Y8232140D01*
X9507220D01*
X9527540Y8252460D02*
Y8313420D01*
X9588500D01*
Y8252460D01*
X9527540D01*
X8542020Y9372600D02*
Y9474200D01*
X8643620D01*
Y9372600D01*
X8542020D01*
X8562340Y9392920D02*
Y9453880D01*
X8623300D01*
Y9392920D01*
X8562340D01*
X8740140Y9721820D02*
Y9823420D01*
X8841740D01*
Y9721820D01*
X8740140D01*
X8760460Y9742140D02*
Y9803100D01*
X8821420D01*
Y9742140D01*
X8760460D01*
X8542020Y9612600D02*
Y9714200D01*
X8643620D01*
Y9612600D01*
X8542020D01*
X8562340Y9632920D02*
Y9693880D01*
X8623300D01*
Y9632920D01*
X8562340D01*
X7625081Y9861119D02*
Y9962719D01*
X7726681D01*
Y9861119D01*
X7625081D01*
X7645401Y9881439D02*
Y9942399D01*
X7706361D01*
Y9881439D01*
X7645401D01*
X16042641Y10386060D02*
Y10487660D01*
X16144240D01*
Y10386060D01*
X16042641D01*
X16062959Y10406380D02*
Y10467340D01*
X16123920D01*
Y10406380D01*
X16062959D01*
X16159480Y9909810D02*
Y10011410D01*
X16261079D01*
Y9909810D01*
X16159480D01*
X16179800Y9930130D02*
Y9991090D01*
X16240759D01*
Y9930130D01*
X16179800D01*
X16042641Y9878060D02*
Y9979660D01*
X16144240D01*
Y9878060D01*
X16042641D01*
X16062959Y9898380D02*
Y9959340D01*
X16123920D01*
Y9898380D01*
X16062959D01*
X16029939Y9655810D02*
Y9757410D01*
X16131540D01*
Y9655810D01*
X16029939D01*
X16050259Y9676130D02*
Y9737090D01*
X16111220D01*
Y9676130D01*
X16050259D01*
X16159480Y9719310D02*
Y9820910D01*
X16261079D01*
Y9719310D01*
X16159480D01*
X16179800Y9739630D02*
Y9800590D01*
X16240759D01*
Y9739630D01*
X16179800D01*
X16385539Y9547860D02*
Y9649460D01*
X16487140D01*
Y9547860D01*
X16385539D01*
X16405859Y9568180D02*
Y9629140D01*
X16466820D01*
Y9568180D01*
X16405859D01*
X16029939Y9274810D02*
Y9376410D01*
X16131540D01*
Y9274810D01*
X16029939D01*
X16050259Y9295130D02*
Y9356090D01*
X16111220D01*
Y9295130D01*
X16050259D01*
X16029939Y9084310D02*
Y9185910D01*
X16131540D01*
Y9084310D01*
X16029939D01*
X16050259Y9104630D02*
Y9165590D01*
X16111220D01*
Y9104630D01*
X16050259D01*
X16159480Y8703310D02*
Y8804910D01*
X16261079D01*
Y8703310D01*
X16159480D01*
X16179800Y8723630D02*
Y8784590D01*
X16240759D01*
Y8723630D01*
X16179800D01*
X16159480Y8195310D02*
Y8296910D01*
X16261079D01*
Y8195310D01*
X16159480D01*
X16179800Y8215630D02*
Y8276590D01*
X16240759D01*
Y8215630D01*
X16179800D01*
X16029939Y7750810D02*
Y7852410D01*
X16131540D01*
Y7750810D01*
X16029939D01*
X16050259Y7771130D02*
Y7832090D01*
X16111220D01*
Y7771130D01*
X16050259D01*
X15902940Y7259320D02*
Y7360920D01*
X16004539D01*
Y7259320D01*
X15902940D01*
X15923260Y7279640D02*
Y7340600D01*
X15984219D01*
Y7279640D01*
X15923260D01*
X15902940Y7068820D02*
Y7170420D01*
X16004539D01*
Y7068820D01*
X15902940D01*
X15923260Y7089140D02*
Y7150100D01*
X15984219D01*
Y7089140D01*
X15923260D01*
X16162019Y6830060D02*
Y6931660D01*
X16263620D01*
Y6830060D01*
X16162019D01*
X16182339Y6850380D02*
Y6911340D01*
X16243300D01*
Y6850380D01*
X16182339D01*
X16042641Y6576060D02*
Y6677660D01*
X16144240D01*
Y6576060D01*
X16042641D01*
X16062959Y6596380D02*
Y6657340D01*
X16123920D01*
Y6596380D01*
X16062959D01*
X16042641Y10513060D02*
Y10614660D01*
X16144240D01*
Y10513060D01*
X16042641D01*
X16062959Y10533380D02*
Y10594340D01*
X16123920D01*
Y10533380D01*
X16062959D01*
X16156940Y10417810D02*
Y10519410D01*
X16258540D01*
Y10417810D01*
X16156940D01*
X16177260Y10438130D02*
Y10499090D01*
X16238220D01*
Y10438130D01*
X16177260D01*
X16029939Y8512810D02*
Y8614410D01*
X16131540D01*
Y8512810D01*
X16029939D01*
X16050259Y8533130D02*
Y8594090D01*
X16111220D01*
Y8533130D01*
X16050259D01*
X16029939Y9465310D02*
Y9566910D01*
X16131540D01*
Y9465310D01*
X16029939D01*
X16050259Y9485630D02*
Y9546590D01*
X16111220D01*
Y9485630D01*
X16050259D01*
X15839439Y8893810D02*
Y8995410D01*
X15941040D01*
Y8893810D01*
X15839439D01*
X15859760Y8914130D02*
Y8975090D01*
X15920720D01*
Y8914130D01*
X15859760D01*
X16029939Y7941310D02*
Y8042910D01*
X16131540D01*
Y7941310D01*
X16029939D01*
X16050259Y7961630D02*
Y8022590D01*
X16111220D01*
Y7961630D01*
X16050259D01*
X15648940Y6861810D02*
Y6963410D01*
X15750540D01*
Y6861810D01*
X15648940D01*
X15669260Y6882130D02*
Y6943090D01*
X15730220D01*
Y6882130D01*
X15669260D01*
X15648940Y7623810D02*
Y7725410D01*
X15750540D01*
Y7623810D01*
X15648940D01*
X15669260Y7644130D02*
Y7705090D01*
X15730220D01*
Y7644130D01*
X15669260D01*
X15648940Y7433310D02*
Y7534910D01*
X15750540D01*
Y7433310D01*
X15648940D01*
X15669260Y7453630D02*
Y7514590D01*
X15730220D01*
Y7453630D01*
X15669260D01*
X15648940Y7814310D02*
Y7915910D01*
X15750540D01*
Y7814310D01*
X15648940D01*
X15669260Y7834630D02*
Y7895590D01*
X15730220D01*
Y7834630D01*
X15669260D01*
X15648940Y8192770D02*
Y8294370D01*
X15750540D01*
Y8192770D01*
X15648940D01*
X15669260Y8213090D02*
Y8274050D01*
X15730220D01*
Y8213090D01*
X15669260D01*
X8999220Y8651240D02*
Y8752840D01*
X9100820D01*
Y8651240D01*
X8999220D01*
X9019540Y8671560D02*
Y8732520D01*
X9080500D01*
Y8671560D01*
X9019540D01*
X16385539Y9357360D02*
Y9458960D01*
X16487140D01*
Y9357360D01*
X16385539D01*
X16405859Y9377680D02*
Y9438640D01*
X16466820D01*
Y9377680D01*
X16405859D01*
X16159480Y8385810D02*
Y8487410D01*
X16261079D01*
Y8385810D01*
X16159480D01*
X16179800Y8406130D02*
Y8467090D01*
X16240759D01*
Y8406130D01*
X16179800D01*
X15811501Y9029700D02*
Y9131300D01*
X15913100D01*
Y9029700D01*
X15811501D01*
X15831821Y9050020D02*
Y9110980D01*
X15892780D01*
Y9050020D01*
X15831821D01*
X12830840Y6410960D02*
Y6512560D01*
X12932440D01*
Y6410960D01*
X12830840D01*
X12851160Y6431280D02*
Y6492240D01*
X12912120D01*
Y6431280D01*
X12851160D01*
X13070840Y6410960D02*
Y6512560D01*
X13172440D01*
Y6410960D01*
X13070840D01*
X13091161Y6431280D02*
Y6492240D01*
X13152119D01*
Y6431280D01*
X13091161D01*
X15648940Y9716770D02*
Y9818370D01*
X15750540D01*
Y9716770D01*
X15648940D01*
X15669260Y9737090D02*
Y9798050D01*
X15730220D01*
Y9737090D01*
X15669260D01*
X15648940Y9909810D02*
Y10011410D01*
X15750540D01*
Y9909810D01*
X15648940D01*
X15669260Y9930130D02*
Y9991090D01*
X15730220D01*
Y9930130D01*
X15669260D01*
X14683740Y9498340D02*
Y9599940D01*
X14785339D01*
Y9498340D01*
X14683740D01*
X14704060Y9518660D02*
Y9579620D01*
X14765021D01*
Y9518660D01*
X14704060D01*
X15755620Y3868420D02*
Y3970020D01*
X15857220D01*
Y3868420D01*
X15755620D01*
X15775940Y3888740D02*
Y3949700D01*
X15836900D01*
Y3888740D01*
X15775940D01*
X15565120Y3868420D02*
Y3970020D01*
X15666721D01*
Y3868420D01*
X15565120D01*
X15585440Y3888740D02*
Y3949700D01*
X15646400D01*
Y3888740D01*
X15585440D01*
X10183300Y8939260D02*
Y9040860D01*
X10284900D01*
Y8939260D01*
X10183300D01*
X10203620Y8959580D02*
Y9020540D01*
X10264580D01*
Y8959580D01*
X10203620D01*
X10283300Y8939260D02*
Y9040860D01*
X10384900D01*
Y8939260D01*
X10283300D01*
X10303620Y8959580D02*
Y9020540D01*
X10364580D01*
Y8959580D01*
X10303620D01*
X10783300Y8939260D02*
Y9040860D01*
X10884900D01*
Y8939260D01*
X10783300D01*
X10803620Y8959580D02*
Y9020540D01*
X10864580D01*
Y8959580D01*
X10803620D01*
X10483300Y8939260D02*
Y9040860D01*
X10584900D01*
Y8939260D01*
X10483300D01*
X10503620Y8959580D02*
Y9020540D01*
X10564580D01*
Y8959580D01*
X10503620D01*
X10583300Y8939260D02*
Y9040860D01*
X10684900D01*
Y8939260D01*
X10583300D01*
X10603620Y8959580D02*
Y9020540D01*
X10664580D01*
Y8959580D01*
X10603620D01*
X10783300Y8639260D02*
Y8740860D01*
X10884900D01*
Y8639260D01*
X10783300D01*
X10803620Y8659580D02*
Y8720540D01*
X10864580D01*
Y8659580D01*
X10803620D01*
X9603740Y7459980D02*
Y7561580D01*
X9705340D01*
Y7459980D01*
X9603740D01*
X9624060Y7480300D02*
Y7541260D01*
X9685020D01*
Y7480300D01*
X9624060D01*
X9511080Y7467040D02*
Y7568640D01*
X9612680D01*
Y7467040D01*
X9511080D01*
X9531400Y7487360D02*
Y7548320D01*
X9592360D01*
Y7487360D01*
X9531400D01*
X16029939Y7560310D02*
Y7661910D01*
X16131540D01*
Y7560310D01*
X16029939D01*
X16050259Y7580630D02*
Y7641590D01*
X16111220D01*
Y7580630D01*
X16050259D01*
X16162019Y5941060D02*
Y6042660D01*
X16263620D01*
Y5941060D01*
X16162019D01*
X16182339Y5961380D02*
Y6022340D01*
X16243300D01*
Y5961380D01*
X16182339D01*
X16162019Y6068060D02*
Y6169660D01*
X16263620D01*
Y6068060D01*
X16162019D01*
X16182339Y6088380D02*
Y6149340D01*
X16243300D01*
Y6088380D01*
X16182339D01*
X16162019Y6576060D02*
Y6677660D01*
X16263620D01*
Y6576060D01*
X16162019D01*
X16182339Y6596380D02*
Y6657340D01*
X16243300D01*
Y6596380D01*
X16182339D01*
X16162019Y6195060D02*
Y6296660D01*
X16263620D01*
Y6195060D01*
X16162019D01*
X16182339Y6215380D02*
Y6276340D01*
X16243300D01*
Y6215380D01*
X16182339D01*
X16042641Y6195060D02*
Y6296660D01*
X16144240D01*
Y6195060D01*
X16042641D01*
X16062959Y6215380D02*
Y6276340D01*
X16123920D01*
Y6215380D01*
X16062959D01*
X16029939Y7691120D02*
Y7792720D01*
X16131540D01*
Y7691120D01*
X16029939D01*
X16050259Y7711440D02*
Y7772400D01*
X16111220D01*
Y7711440D01*
X16050259D01*
X16029939Y7623810D02*
Y7725410D01*
X16131540D01*
Y7623810D01*
X16029939D01*
X16050259Y7644130D02*
Y7705090D01*
X16111220D01*
Y7644130D01*
X16050259D01*
X9011080Y7167040D02*
Y7268640D01*
X9112680D01*
Y7167040D01*
X9011080D01*
X9031400Y7187360D02*
Y7248320D01*
X9092360D01*
Y7187360D01*
X9031400D01*
X9503300Y8839260D02*
Y8940860D01*
X9604900D01*
Y8839260D01*
X9503300D01*
X9523620Y8859580D02*
Y8920540D01*
X9584580D01*
Y8859580D01*
X9523620D01*
X9803300Y8939260D02*
Y9040860D01*
X9904900D01*
Y8939260D01*
X9803300D01*
X9823620Y8959580D02*
Y9020540D01*
X9884580D01*
Y8959580D01*
X9823620D01*
X9803300Y8839260D02*
Y8940860D01*
X9904900D01*
Y8839260D01*
X9803300D01*
X9823620Y8859580D02*
Y8920540D01*
X9884580D01*
Y8859580D01*
X9823620D01*
X9003300Y9039260D02*
Y9140860D01*
X9104900D01*
Y9039260D01*
X9003300D01*
X9023620Y9059580D02*
Y9120540D01*
X9084580D01*
Y9059580D01*
X9023620D01*
X9003300Y8939260D02*
Y9040860D01*
X9104900D01*
Y8939260D01*
X9003300D01*
X9023620Y8959580D02*
Y9020540D01*
X9084580D01*
Y8959580D01*
X9023620D01*
X8903300Y9139260D02*
Y9240860D01*
X9004900D01*
Y9139260D01*
X8903300D01*
X8923620Y9159580D02*
Y9220540D01*
X8984580D01*
Y9159580D01*
X8923620D01*
X9003300Y9139260D02*
Y9240860D01*
X9104900D01*
Y9139260D01*
X9003300D01*
X9023620Y9159580D02*
Y9220540D01*
X9084580D01*
Y9159580D01*
X9023620D01*
X9303300Y8539260D02*
Y8640860D01*
X9404900D01*
Y8539260D01*
X9303300D01*
X9323620Y8559580D02*
Y8620540D01*
X9384580D01*
Y8559580D01*
X9323620D01*
X9503300Y8539260D02*
Y8640860D01*
X9604900D01*
Y8539260D01*
X9503300D01*
X9523620Y8559580D02*
Y8620540D01*
X9584580D01*
Y8559580D01*
X9523620D01*
X8896700Y8359200D02*
Y8460800D01*
X8998300D01*
Y8359200D01*
X8896700D01*
X8917020Y8379520D02*
Y8440480D01*
X8977980D01*
Y8379520D01*
X8917020D01*
X9403300Y8239260D02*
Y8340860D01*
X9504900D01*
Y8239260D01*
X9403300D01*
X9423620Y8259580D02*
Y8320540D01*
X9484580D01*
Y8259580D01*
X9423620D01*
X9703300Y8339260D02*
Y8440860D01*
X9804900D01*
Y8339260D01*
X9703300D01*
X9723620Y8359580D02*
Y8420540D01*
X9784580D01*
Y8359580D01*
X9723620D01*
X9803300Y8239260D02*
Y8340860D01*
X9904900D01*
Y8239260D01*
X9803300D01*
X9823620Y8259580D02*
Y8320540D01*
X9884580D01*
Y8259580D01*
X9823620D01*
X9624060Y9144000D02*
Y9245600D01*
X9725660D01*
Y9144000D01*
X9624060D01*
X9644380Y9164320D02*
Y9225280D01*
X9705340D01*
Y9164320D01*
X9644380D01*
X9203300Y8539260D02*
Y8640860D01*
X9304900D01*
Y8539260D01*
X9203300D01*
X9223620Y8559580D02*
Y8620540D01*
X9284580D01*
Y8559580D01*
X9223620D01*
X9199880Y8755380D02*
Y8856980D01*
X9301480D01*
Y8755380D01*
X9199880D01*
X9220200Y8775700D02*
Y8836660D01*
X9281160D01*
Y8775700D01*
X9220200D01*
X9100820Y8646160D02*
Y8747760D01*
X9202420D01*
Y8646160D01*
X9100820D01*
X9121140Y8666480D02*
Y8727440D01*
X9182100D01*
Y8666480D01*
X9121140D01*
X8896980Y8744580D02*
Y8846180D01*
X8998580D01*
Y8744580D01*
X8896980D01*
X8917300Y8764900D02*
Y8825860D01*
X8978260D01*
Y8764900D01*
X8917300D01*
X9405620Y8742680D02*
Y8844280D01*
X9507220D01*
Y8742680D01*
X9405620D01*
X9425940Y8763000D02*
Y8823960D01*
X9486900D01*
Y8763000D01*
X9425940D01*
X9888220Y8544560D02*
Y8646160D01*
X9989820D01*
Y8544560D01*
X9888220D01*
X9908540Y8564880D02*
Y8625840D01*
X9969500D01*
Y8564880D01*
X9908540D01*
X9992360Y8658860D02*
Y8760460D01*
X10093960D01*
Y8658860D01*
X9992360D01*
X10012680Y8679180D02*
Y8740140D01*
X10073640D01*
Y8679180D01*
X10012680D01*
X9291320Y8255000D02*
Y8356600D01*
X9392920D01*
Y8255000D01*
X9291320D01*
X9311640Y8275320D02*
Y8336280D01*
X9372600D01*
Y8275320D01*
X9311640D01*
X9886360Y7967980D02*
Y8069580D01*
X9987960D01*
Y7967980D01*
X9886360D01*
X9906680Y7988300D02*
Y8049260D01*
X9967640D01*
Y7988300D01*
X9906680D01*
X9603300Y8139260D02*
Y8240860D01*
X9704900D01*
Y8139260D01*
X9603300D01*
X9623620Y8159580D02*
Y8220540D01*
X9684580D01*
Y8159580D01*
X9623620D01*
X9499200Y7559200D02*
Y7660800D01*
X9600800D01*
Y7559200D01*
X9499200D01*
X9519520Y7579520D02*
Y7640480D01*
X9580480D01*
Y7579520D01*
X9519520D01*
X9803300Y7459260D02*
Y7560860D01*
X9904900D01*
Y7459260D01*
X9803300D01*
X9823620Y7479580D02*
Y7540540D01*
X9884580D01*
Y7479580D01*
X9823620D01*
X9809200Y7359200D02*
Y7460800D01*
X9910800D01*
Y7359200D01*
X9809200D01*
X9829520Y7379520D02*
Y7440480D01*
X9890480D01*
Y7379520D01*
X9829520D01*
X9999200Y7049200D02*
Y7150800D01*
X10100800D01*
Y7049200D01*
X9999200D01*
X10019520Y7069520D02*
Y7130480D01*
X10080480D01*
Y7069520D01*
X10019520D01*
X10289200Y7169200D02*
Y7270800D01*
X10390800D01*
Y7169200D01*
X10289200D01*
X10309520Y7189520D02*
Y7250480D01*
X10370480D01*
Y7189520D01*
X10309520D01*
X10689200Y6959200D02*
Y7060800D01*
X10790800D01*
Y6959200D01*
X10689200D01*
X10709520Y6979520D02*
Y7040480D01*
X10770480D01*
Y6979520D01*
X10709520D01*
X11019200Y7099200D02*
Y7200800D01*
X11120800D01*
Y7099200D01*
X11019200D01*
X11039520Y7119520D02*
Y7180480D01*
X11100480D01*
Y7119520D01*
X11039520D01*
X8889200Y7449200D02*
Y7550800D01*
X8990800D01*
Y7449200D01*
X8889200D01*
X8909520Y7469520D02*
Y7530480D01*
X8970480D01*
Y7469520D01*
X8909520D01*
X9299200Y7359200D02*
Y7460800D01*
X9400800D01*
Y7359200D01*
X9299200D01*
X9319520Y7379520D02*
Y7440480D01*
X9380480D01*
Y7379520D01*
X9319520D01*
X9975520Y7767040D02*
Y7868640D01*
X10077120D01*
Y7767040D01*
X9975520D01*
X9995840Y7787360D02*
Y7848320D01*
X10056800D01*
Y7787360D01*
X9995840D01*
X9699200Y7669200D02*
Y7770800D01*
X9800800D01*
Y7669200D01*
X9699200D01*
X9719520Y7689520D02*
Y7750480D01*
X9780480D01*
Y7689520D01*
X9719520D01*
X9399200Y7559200D02*
Y7660800D01*
X9500800D01*
Y7559200D01*
X9399200D01*
X9419520Y7579520D02*
Y7640480D01*
X9480480D01*
Y7579520D01*
X9419520D01*
X8909200Y7559200D02*
Y7660800D01*
X9010800D01*
Y7559200D01*
X8909200D01*
X8929520Y7579520D02*
Y7640480D01*
X8990480D01*
Y7579520D01*
X8929520D01*
X9979200Y8339200D02*
Y8440800D01*
X10080800D01*
Y8339200D01*
X9979200D01*
X9999520Y8359520D02*
Y8420480D01*
X10060480D01*
Y8359520D01*
X9999520D01*
X10579200Y7339200D02*
Y7440800D01*
X10680800D01*
Y7339200D01*
X10579200D01*
X10599520Y7359520D02*
Y7420480D01*
X10660480D01*
Y7359520D01*
X10599520D01*
X10881360Y7472680D02*
Y7574280D01*
X10982960D01*
Y7472680D01*
X10881360D01*
X10901680Y7493000D02*
Y7553960D01*
X10962640D01*
Y7493000D01*
X10901680D01*
X10609179Y7467199D02*
Y7568799D01*
X10710779D01*
Y7467199D01*
X10609179D01*
X10629499Y7487519D02*
Y7548479D01*
X10690459D01*
Y7487519D01*
X10629499D01*
X10479200Y7559200D02*
Y7660800D01*
X10580800D01*
Y7559200D01*
X10479200D01*
X10499520Y7579520D02*
Y7640480D01*
X10560480D01*
Y7579520D01*
X10499520D01*
X10289200Y7859200D02*
Y7960800D01*
X10390800D01*
Y7859200D01*
X10289200D01*
X10309520Y7879520D02*
Y7940480D01*
X10370480D01*
Y7879520D01*
X10309520D01*
X10199200Y8159200D02*
Y8260800D01*
X10300800D01*
Y8159200D01*
X10199200D01*
X10219520Y8179520D02*
Y8240480D01*
X10280480D01*
Y8179520D01*
X10219520D01*
X10499200Y8269200D02*
Y8370800D01*
X10600800D01*
Y8269200D01*
X10499200D01*
X10519520Y8289520D02*
Y8350480D01*
X10580480D01*
Y8289520D01*
X10519520D01*
X10189200Y8539200D02*
Y8640800D01*
X10290800D01*
Y8539200D01*
X10189200D01*
X10209520Y8559520D02*
Y8620480D01*
X10270480D01*
Y8559520D01*
X10209520D01*
X10489200Y8559200D02*
Y8660800D01*
X10590800D01*
Y8559200D01*
X10489200D01*
X10509520Y8579520D02*
Y8640480D01*
X10570480D01*
Y8579520D01*
X10509520D01*
X10789200Y8729200D02*
Y8830800D01*
X10890800D01*
Y8729200D01*
X10789200D01*
X10809520Y8749520D02*
Y8810480D01*
X10870480D01*
Y8749520D01*
X10809520D01*
X10799178Y8869182D02*
Y8970782D01*
X10900778D01*
Y8869182D01*
X10799178D01*
X10819498Y8889502D02*
Y8950462D01*
X10880458D01*
Y8889502D01*
X10819498D01*
X10689200Y9039200D02*
Y9140800D01*
X10790800D01*
Y9039200D01*
X10689200D01*
X10709520Y9059520D02*
Y9120480D01*
X10770480D01*
Y9059520D01*
X10709520D01*
X10979200Y9139200D02*
Y9240800D01*
X11080800D01*
Y9139200D01*
X10979200D01*
X10999520Y9159520D02*
Y9220480D01*
X11060480D01*
Y9159520D01*
X10999520D01*
X9989200Y7669200D02*
Y7770800D01*
X10090800D01*
Y7669200D01*
X9989200D01*
X10009520Y7689520D02*
Y7750480D01*
X10070480D01*
Y7689520D01*
X10009520D01*
X10179200Y7469200D02*
Y7570800D01*
X10280800D01*
Y7469200D01*
X10179200D01*
X10199520Y7489520D02*
Y7550480D01*
X10260480D01*
Y7489520D01*
X10199520D01*
X10799200Y8369200D02*
Y8470800D01*
X10900800D01*
Y8369200D01*
X10799200D01*
X10819520Y8389520D02*
Y8450480D01*
X10880480D01*
Y8389520D01*
X10819520D01*
X12470160Y6911340D02*
Y7012940D01*
X12571760D01*
Y6911340D01*
X12470160D01*
X12490480Y6931660D02*
Y6992620D01*
X12551440D01*
Y6931660D01*
X12490480D01*
X10589200Y7059200D02*
Y7160800D01*
X10690800D01*
Y7059200D01*
X10589200D01*
X10609520Y7079520D02*
Y7140480D01*
X10670480D01*
Y7079520D01*
X10609520D01*
X10689200Y7059200D02*
Y7160800D01*
X10790800D01*
Y7059200D01*
X10689200D01*
X10709520Y7079520D02*
Y7140480D01*
X10770480D01*
Y7079520D01*
X10709520D01*
X10789200Y7059200D02*
Y7160800D01*
X10890800D01*
Y7059200D01*
X10789200D01*
X10809520Y7079520D02*
Y7140480D01*
X10870480D01*
Y7079520D01*
X10809520D01*
X10889200Y7059200D02*
Y7160800D01*
X10990800D01*
Y7059200D01*
X10889200D01*
X10909520Y7079520D02*
Y7140480D01*
X10970480D01*
Y7079520D01*
X10909520D01*
X16159480Y8326120D02*
Y8427720D01*
X16261079D01*
Y8326120D01*
X16159480D01*
X16179800Y8346440D02*
Y8407400D01*
X16240759D01*
Y8346440D01*
X16179800D01*
X16159480Y8258810D02*
Y8360410D01*
X16261079D01*
Y8258810D01*
X16159480D01*
X16179800Y8279130D02*
Y8340090D01*
X16240759D01*
Y8279130D01*
X16179800D01*
X11529200Y8059200D02*
Y8160800D01*
X11630800D01*
Y8059200D01*
X11529200D01*
X11549520Y8079520D02*
Y8140480D01*
X11610480D01*
Y8079520D01*
X11549520D01*
X11769200Y8059200D02*
Y8160800D01*
X11870800D01*
Y8059200D01*
X11769200D01*
X11789520Y8079520D02*
Y8140480D01*
X11850480D01*
Y8079520D01*
X11789520D01*
X11689200Y8059200D02*
Y8160800D01*
X11790800D01*
Y8059200D01*
X11689200D01*
X11709520Y8079520D02*
Y8140480D01*
X11770480D01*
Y8079520D01*
X11709520D01*
X11609200Y8059200D02*
Y8160800D01*
X11710800D01*
Y8059200D01*
X11609200D01*
X11629520Y8079520D02*
Y8140480D01*
X11690480D01*
Y8079520D01*
X11629520D01*
X9311080Y7567040D02*
Y7668640D01*
X9412680D01*
Y7567040D01*
X9311080D01*
X9331400Y7587360D02*
Y7648320D01*
X9392360D01*
Y7587360D01*
X9331400D01*
X12313920Y8717300D02*
Y8818900D01*
X12415520D01*
Y8717300D01*
X12313920D01*
X12334240Y8737620D02*
Y8798580D01*
X12395200D01*
Y8737620D01*
X12334240D01*
X9311080Y7667040D02*
Y7768640D01*
X9412680D01*
Y7667040D01*
X9311080D01*
X9331400Y7687360D02*
Y7748320D01*
X9392360D01*
Y7687360D01*
X9331400D01*
X10889200Y8049200D02*
Y8150800D01*
X10990800D01*
Y8049200D01*
X10889200D01*
X10909520Y8069520D02*
Y8130480D01*
X10970480D01*
Y8069520D01*
X10909520D01*
X11199200Y7059200D02*
Y7160800D01*
X11300800D01*
Y7059200D01*
X11199200D01*
X11219520Y7079520D02*
Y7140480D01*
X11280480D01*
Y7079520D01*
X11219520D01*
X11299200Y7059200D02*
Y7160800D01*
X11400800D01*
Y7059200D01*
X11299200D01*
X11319520Y7079520D02*
Y7140480D01*
X11380480D01*
Y7079520D01*
X11319520D01*
X10779200Y8239200D02*
Y8340800D01*
X10880800D01*
Y8239200D01*
X10779200D01*
X10799520Y8259520D02*
Y8320480D01*
X10860480D01*
Y8259520D01*
X10799520D01*
X10779200Y8549200D02*
Y8650800D01*
X10880800D01*
Y8549200D01*
X10779200D01*
X10799520Y8569520D02*
Y8630480D01*
X10860480D01*
Y8569520D01*
X10799520D01*
X10889200Y8559200D02*
Y8660800D01*
X10990800D01*
Y8559200D01*
X10889200D01*
X10909520Y8579520D02*
Y8640480D01*
X10970480D01*
Y8579520D01*
X10909520D01*
X13481059Y8481060D02*
Y8582660D01*
X13582660D01*
Y8481060D01*
X13481059D01*
X13501379Y8501380D02*
Y8562340D01*
X13562340D01*
Y8501380D01*
X13501379D01*
X11199200Y7309200D02*
Y7410800D01*
X11300800D01*
Y7309200D01*
X11199200D01*
X11219520Y7329520D02*
Y7390480D01*
X11280480D01*
Y7329520D01*
X11219520D01*
X11299200Y7309200D02*
Y7410800D01*
X11400800D01*
Y7309200D01*
X11299200D01*
X11319520Y7329520D02*
Y7390480D01*
X11380480D01*
Y7329520D01*
X11319520D01*
X11299200Y7359200D02*
Y7460800D01*
X11400800D01*
Y7359200D01*
X11299200D01*
X11319520Y7379520D02*
Y7440480D01*
X11380480D01*
Y7379520D01*
X11319520D01*
X11199200Y7359200D02*
Y7460800D01*
X11300800D01*
Y7359200D01*
X11199200D01*
X11219520Y7379520D02*
Y7440480D01*
X11280480D01*
Y7379520D01*
X11219520D01*
X11199200Y7639200D02*
Y7740800D01*
X11300800D01*
Y7639200D01*
X11199200D01*
X11219520Y7659520D02*
Y7720480D01*
X11280480D01*
Y7659520D01*
X11219520D01*
X11199200Y7579200D02*
Y7680800D01*
X11300800D01*
Y7579200D01*
X11199200D01*
X11219520Y7599520D02*
Y7660480D01*
X11280480D01*
Y7599520D01*
X11219520D01*
X11299200Y7639200D02*
Y7740800D01*
X11400800D01*
Y7639200D01*
X11299200D01*
X11319520Y7659520D02*
Y7720480D01*
X11380480D01*
Y7659520D01*
X11319520D01*
X11299200Y7579200D02*
Y7680800D01*
X11400800D01*
Y7579200D01*
X11299200D01*
X11319520Y7599520D02*
Y7660480D01*
X11380480D01*
Y7599520D01*
X11319520D01*
X11219200Y8289200D02*
Y8390800D01*
X11320800D01*
Y8289200D01*
X11219200D01*
X11239520Y8309520D02*
Y8370480D01*
X11300480D01*
Y8309520D01*
X11239520D01*
X11219200Y8229200D02*
Y8330800D01*
X11320800D01*
Y8229200D01*
X11219200D01*
X11239520Y8249520D02*
Y8310480D01*
X11300480D01*
Y8249520D01*
X11239520D01*
X11319200Y8289200D02*
Y8390800D01*
X11420800D01*
Y8289200D01*
X11319200D01*
X11339520Y8309520D02*
Y8370480D01*
X11400480D01*
Y8309520D01*
X11339520D01*
X11319200Y8229200D02*
Y8330800D01*
X11420800D01*
Y8229200D01*
X11319200D01*
X11339520Y8249520D02*
Y8310480D01*
X11400480D01*
Y8249520D01*
X11339520D01*
X11219200Y8009200D02*
Y8110800D01*
X11320800D01*
Y8009200D01*
X11219200D01*
X11239520Y8029520D02*
Y8090480D01*
X11300480D01*
Y8029520D01*
X11239520D01*
X11199200Y8849200D02*
Y8950800D01*
X11300800D01*
Y8849200D01*
X11199200D01*
X11219520Y8869520D02*
Y8930480D01*
X11280480D01*
Y8869520D01*
X11219520D01*
X11199200Y8789200D02*
Y8890800D01*
X11300800D01*
Y8789200D01*
X11199200D01*
X11219520Y8809520D02*
Y8870480D01*
X11280480D01*
Y8809520D01*
X11219520D01*
X11299200Y8849200D02*
Y8950800D01*
X11400800D01*
Y8849200D01*
X11299200D01*
X11319520Y8869520D02*
Y8930480D01*
X11380480D01*
Y8869520D01*
X11319520D01*
X11299200Y8789200D02*
Y8890800D01*
X11400800D01*
Y8789200D01*
X11299200D01*
X11319520Y8809520D02*
Y8870480D01*
X11380480D01*
Y8809520D01*
X11319520D01*
X8907740Y9034820D02*
Y9136420D01*
X9009340D01*
Y9034820D01*
X8907740D01*
X8928060Y9055140D02*
Y9116100D01*
X8989020D01*
Y9055140D01*
X8928060D01*
X16385539Y9420860D02*
Y9522460D01*
X16487140D01*
Y9420860D01*
X16385539D01*
X16405859Y9441180D02*
Y9502140D01*
X16466820D01*
Y9441180D01*
X16405859D01*
X8907740Y8934820D02*
Y9036420D01*
X9009340D01*
Y8934820D01*
X8907740D01*
X8928060Y8955140D02*
Y9016100D01*
X8989020D01*
Y8955140D01*
X8928060D01*
X16385539Y9486900D02*
Y9588500D01*
X16487140D01*
Y9486900D01*
X16385539D01*
X16405859Y9507220D02*
Y9568180D01*
X16466820D01*
Y9507220D01*
X16405859D01*
X8649200Y8389200D02*
Y8490800D01*
X8750800D01*
Y8389200D01*
X8649200D01*
X8669520Y8409520D02*
Y8470480D01*
X8730480D01*
Y8409520D01*
X8669520D01*
X8649200Y8329200D02*
Y8430800D01*
X8750800D01*
Y8329200D01*
X8649200D01*
X8669520Y8349520D02*
Y8410480D01*
X8730480D01*
Y8349520D01*
X8669520D01*
X8749200Y8389200D02*
Y8490800D01*
X8850800D01*
Y8389200D01*
X8749200D01*
X8769520Y8409520D02*
Y8470480D01*
X8830480D01*
Y8409520D01*
X8769520D01*
X8749200Y8329200D02*
Y8430800D01*
X8850800D01*
Y8329200D01*
X8749200D01*
X8769520Y8349520D02*
Y8410480D01*
X8830480D01*
Y8349520D01*
X8769520D01*
X8669200Y8159200D02*
Y8260800D01*
X8770800D01*
Y8159200D01*
X8669200D01*
X8689520Y8179520D02*
Y8240480D01*
X8750480D01*
Y8179520D01*
X8689520D01*
X8270420Y8101520D02*
Y8203120D01*
X8372020D01*
Y8101520D01*
X8270420D01*
X8290740Y8121840D02*
Y8182800D01*
X8351700D01*
Y8121840D01*
X8290740D01*
X8450420Y8101520D02*
Y8203120D01*
X8552020D01*
Y8101520D01*
X8450420D01*
X8470740Y8121840D02*
Y8182800D01*
X8531700D01*
Y8121840D01*
X8470740D01*
X8269200Y8279200D02*
Y8380800D01*
X8370800D01*
Y8279200D01*
X8269200D01*
X8289520Y8299520D02*
Y8360480D01*
X8350480D01*
Y8299520D01*
X8289520D01*
X8769200Y8159200D02*
Y8260800D01*
X8870800D01*
Y8159200D01*
X8769200D01*
X8789520Y8179520D02*
Y8240480D01*
X8850480D01*
Y8179520D01*
X8789520D01*
X8769200Y8109200D02*
Y8210800D01*
X8870800D01*
Y8109200D01*
X8769200D01*
X8789520Y8129520D02*
Y8190480D01*
X8850480D01*
Y8129520D01*
X8789520D01*
X8669200Y8109200D02*
Y8210800D01*
X8770800D01*
Y8109200D01*
X8669200D01*
X8689520Y8129520D02*
Y8190480D01*
X8750480D01*
Y8129520D01*
X8689520D01*
X8449200Y8279200D02*
Y8380800D01*
X8550800D01*
Y8279200D01*
X8449200D01*
X8469520Y8299520D02*
Y8360480D01*
X8530480D01*
Y8299520D01*
X8469520D01*
X11199200Y7119200D02*
Y7220800D01*
X11300800D01*
Y7119200D01*
X11199200D01*
X11219520Y7139520D02*
Y7200480D01*
X11280480D01*
Y7139520D01*
X11219520D01*
X11299200Y7119200D02*
Y7220800D01*
X11400800D01*
Y7119200D01*
X11299200D01*
X11319520Y7139520D02*
Y7200480D01*
X11380480D01*
Y7139520D01*
X11319520D01*
X9979200Y9139200D02*
Y9240800D01*
X10080800D01*
Y9139200D01*
X9979200D01*
X9999520Y9159520D02*
Y9220480D01*
X10060480D01*
Y9159520D01*
X9999520D01*
X4890000Y5009200D02*
X4839200Y5110800D01*
X4940800D01*
X4890000Y5009200D01*
Y5029520D02*
X4859520Y5090480D01*
X4920480D01*
X4890000Y5029520D01*
X4940000Y5009200D02*
X4889200Y5110800D01*
X4990800D01*
X4940000Y5009200D01*
Y5029520D02*
X4909520Y5090480D01*
X4970480D01*
X4940000Y5029520D01*
X4990000Y5009200D02*
X4939200Y5110800D01*
X5040800D01*
X4990000Y5009200D01*
Y5029520D02*
X4959520Y5090480D01*
X5020480D01*
X4990000Y5029520D01*
X6800000Y6019200D02*
X6749200Y6120800D01*
X6850800D01*
X6800000Y6019200D01*
Y6039520D02*
X6769520Y6100480D01*
X6830480D01*
X6800000Y6039520D01*
X9203300Y9139260D02*
Y9240860D01*
X9304900D01*
Y9139260D01*
X9203300D01*
X9223620Y9159580D02*
Y9220540D01*
X9284580D01*
Y9159580D01*
X9223620D01*
X8740140Y9481820D02*
Y9583420D01*
X8841740D01*
Y9481820D01*
X8740140D01*
X8760460Y9502140D02*
Y9563100D01*
X8821420D01*
Y9502140D01*
X8760460D01*
X9199880Y9362440D02*
Y9464040D01*
X9301480D01*
Y9362440D01*
X9199880D01*
X9220200Y9382760D02*
Y9443720D01*
X9281160D01*
Y9382760D01*
X9220200D01*
X9379200Y9359200D02*
Y9460800D01*
X9480800D01*
Y9359200D01*
X9379200D01*
X9399520Y9379520D02*
Y9440480D01*
X9460480D01*
Y9379520D01*
X9399520D01*
X8983980Y9359900D02*
Y9461500D01*
X9085580D01*
Y9359900D01*
X8983980D01*
X9004300Y9380220D02*
Y9441180D01*
X9065260D01*
Y9380220D01*
X9004300D01*
X9439200Y9359200D02*
Y9460800D01*
X9540800D01*
Y9359200D01*
X9439200D01*
X9459520Y9379520D02*
Y9440480D01*
X9520480D01*
Y9379520D01*
X9459520D01*
X9379200Y9479200D02*
Y9580800D01*
X9480800D01*
Y9479200D01*
X9379200D01*
X9399520Y9499520D02*
Y9560480D01*
X9460480D01*
Y9499520D01*
X9399520D01*
X9439200Y9479200D02*
Y9580800D01*
X9540800D01*
Y9479200D01*
X9439200D01*
X9459520Y9499520D02*
Y9560480D01*
X9520480D01*
Y9499520D01*
X9459520D01*
X8609200Y8969200D02*
Y9070800D01*
X8710800D01*
Y8969200D01*
X8609200D01*
X8629520Y8989520D02*
Y9050480D01*
X8690480D01*
Y8989520D01*
X8629520D01*
X8509200Y8969200D02*
Y9070800D01*
X8610800D01*
Y8969200D01*
X8509200D01*
X8529520Y8989520D02*
Y9050480D01*
X8590480D01*
Y8989520D01*
X8529520D01*
X8609200Y8899200D02*
Y9000800D01*
X8710800D01*
Y8899200D01*
X8609200D01*
X8629520Y8919520D02*
Y8980480D01*
X8690480D01*
Y8919520D01*
X8629520D01*
X8509200Y8899200D02*
Y9000800D01*
X8610800D01*
Y8899200D01*
X8509200D01*
X8529520Y8919520D02*
Y8980480D01*
X8590480D01*
Y8919520D01*
X8529520D01*
X7891780Y8696940D02*
Y8798540D01*
X7993380D01*
Y8696940D01*
X7891780D01*
X7912100Y8717260D02*
Y8778220D01*
X7973060D01*
Y8717260D01*
X7912100D01*
X9310140Y8731480D02*
Y8833080D01*
X9411740D01*
Y8731480D01*
X9310140D01*
X9330460Y8751800D02*
Y8812760D01*
X9391420D01*
Y8751800D01*
X9330460D01*
X9310140Y8631480D02*
Y8733080D01*
X9411740D01*
Y8631480D01*
X9310140D01*
X9330460Y8651800D02*
Y8712760D01*
X9391420D01*
Y8651800D01*
X9330460D01*
X11429200Y9259200D02*
Y9360800D01*
X11530800D01*
Y9259200D01*
X11429200D01*
X11449520Y9279520D02*
Y9340480D01*
X11510480D01*
Y9279520D01*
X11449520D01*
X10049200Y9299200D02*
Y9400800D01*
X10150800D01*
Y9299200D01*
X10049200D01*
X10069520Y9319520D02*
Y9380480D01*
X10130480D01*
Y9319520D01*
X10069520D01*
X9811080Y9031480D02*
Y9133080D01*
X9912680D01*
Y9031480D01*
X9811080D01*
X9831400Y9051800D02*
Y9112760D01*
X9892360D01*
Y9051800D01*
X9831400D01*
X9979200Y9039200D02*
Y9140800D01*
X10080800D01*
Y9039200D01*
X9979200D01*
X9999520Y9059520D02*
Y9120480D01*
X10060480D01*
Y9059520D01*
X9999520D01*
X9611080Y8931480D02*
Y9033080D01*
X9712680D01*
Y8931480D01*
X9611080D01*
X9631400Y8951800D02*
Y9012760D01*
X9692360D01*
Y8951800D01*
X9631400D01*
X9611080Y8831480D02*
Y8933080D01*
X9712680D01*
Y8831480D01*
X9611080D01*
X9631400Y8851800D02*
Y8912760D01*
X9692360D01*
Y8851800D01*
X9631400D01*
X16159480Y9782810D02*
Y9884410D01*
X16261079D01*
Y9782810D01*
X16159480D01*
X16179800Y9803130D02*
Y9864090D01*
X16240759D01*
Y9803130D01*
X16179800D01*
X16159480Y9850120D02*
Y9951720D01*
X16261079D01*
Y9850120D01*
X16159480D01*
X16179800Y9870440D02*
Y9931400D01*
X16240759D01*
Y9870440D01*
X16179800D01*
X10389200Y8929200D02*
Y9030800D01*
X10490800D01*
Y8929200D01*
X10389200D01*
X10409520Y8949520D02*
Y9010480D01*
X10470480D01*
Y8949520D01*
X10409520D01*
X10683300Y8939260D02*
Y9040860D01*
X10784900D01*
Y8939260D01*
X10683300D01*
X10703620Y8959580D02*
Y9020540D01*
X10764580D01*
Y8959580D01*
X10703620D01*
X10079200Y8839200D02*
Y8940800D01*
X10180800D01*
Y8839200D01*
X10079200D01*
X10099520Y8859520D02*
Y8920480D01*
X10160480D01*
Y8859520D01*
X10099520D01*
X9711080Y8731480D02*
Y8833080D01*
X9812680D01*
Y8731480D01*
X9711080D01*
X9731400Y8751800D02*
Y8812760D01*
X9792360D01*
Y8751800D01*
X9731400D01*
X9711080Y8631480D02*
Y8733080D01*
X9812680D01*
Y8631480D01*
X9711080D01*
X9731400Y8651800D02*
Y8712760D01*
X9792360D01*
Y8651800D01*
X9731400D01*
X7300000Y4419200D02*
X7249200Y4520800D01*
X7350800D01*
X7300000Y4419200D01*
Y4439520D02*
X7269520Y4500480D01*
X7330480D01*
X7300000Y4439520D01*
X7350000Y4419200D02*
X7299200Y4520800D01*
X7400800D01*
X7350000Y4419200D01*
Y4439520D02*
X7319520Y4500480D01*
X7380480D01*
X7350000Y4439520D01*
X7300000Y4349200D02*
X7249200Y4450800D01*
X7350800D01*
X7300000Y4349200D01*
Y4369520D02*
X7269520Y4430480D01*
X7330480D01*
X7300000Y4369520D01*
X7350000Y4349200D02*
X7299200Y4450800D01*
X7400800D01*
X7350000Y4349200D01*
Y4369520D02*
X7319520Y4430480D01*
X7380480D01*
X7350000Y4369520D01*
D228*
X12574980Y11248720D02*
G03*
X12574980Y11248720I-50800J0D01*
G01*
X12774980D02*
G03*
X12774980Y11248720I-50800J0D01*
G01*
X12974980D02*
G03*
X12974980Y11248720I-50800J0D01*
G01*
X13174980D02*
G03*
X13174980Y11248720I-50800J0D01*
G01*
X13374980D02*
G03*
X13374980Y11248720I-50800J0D01*
G01*
X13574980D02*
G03*
X13574980Y11248720I-50800J0D01*
G01*
X13774980D02*
G03*
X13774980Y11248720I-50800J0D01*
G01*
X12574980Y11448720D02*
G03*
X12574980Y11448720I-50800J0D01*
G01*
X12774980D02*
G03*
X12774980Y11448720I-50800J0D01*
G01*
X12974980D02*
G03*
X12974980Y11448720I-50800J0D01*
G01*
X13174980D02*
G03*
X13174980Y11448720I-50800J0D01*
G01*
X13374980D02*
G03*
X13374980Y11448720I-50800J0D01*
G01*
X13574980D02*
G03*
X13574980Y11448720I-50800J0D01*
G01*
X13774980D02*
G03*
X13774980Y11448720I-50800J0D01*
G01*
X10020300Y12964160D02*
G03*
X10020300Y12964160I-50800J0D01*
G01*
Y13218159D02*
G03*
X10020300Y13218159I-50800J0D01*
G01*
X10274300Y12964160D02*
G03*
X10274300Y12964160I-50800J0D01*
G01*
Y13218159D02*
G03*
X10274300Y13218159I-50800J0D01*
G01*
X10528300Y12964160D02*
G03*
X10528300Y12964160I-50800J0D01*
G01*
Y13218159D02*
G03*
X10528300Y13218159I-50800J0D01*
G01*
X10782300Y12964160D02*
G03*
X10782300Y12964160I-50800J0D01*
G01*
Y13218159D02*
G03*
X10782300Y13218159I-50800J0D01*
G01*
X11036300Y12964160D02*
G03*
X11036300Y12964160I-50800J0D01*
G01*
Y13218159D02*
G03*
X11036300Y13218159I-50800J0D01*
G01*
X6903720Y7912100D02*
G03*
X6903720Y7912100I-50800J0D01*
G01*
Y8166100D02*
G03*
X6903720Y8166100I-50800J0D01*
G01*
X7635240Y7901940D02*
G03*
X7635240Y7901940I-50800J0D01*
G01*
X5965260Y11226058D02*
G03*
X5965260Y11226058I-50800J0D01*
G01*
X6205260D02*
G03*
X6205260Y11226058I-50800J0D01*
G01*
X6284940D02*
G03*
X6284940Y11226058I-50800J0D01*
G01*
X6444960D02*
G03*
X6444960Y11226058I-50800J0D01*
G01*
X6365260Y10942320D02*
G03*
X6365260Y10942320I-50800J0D01*
G01*
X6125260D02*
G03*
X6125260Y10942320I-50800J0D01*
G01*
X7391420Y11220978D02*
G03*
X7391420Y11220978I-50800J0D01*
G01*
X7631420D02*
G03*
X7631420Y11220978I-50800J0D01*
G01*
X7711420D02*
G03*
X7711420Y11220978I-50800J0D01*
G01*
X7871120D02*
G03*
X7871120Y11220978I-50800J0D01*
G01*
X7791420Y10937240D02*
G03*
X7791420Y10937240I-50800J0D01*
G01*
X7551420D02*
G03*
X7551420Y10937240I-50800J0D01*
G01*
X10050800Y6240000D02*
G03*
X10050800Y6240000I-50800J0D01*
G01*
X11272520Y8646160D02*
G03*
X11272520Y8646160I-50800J0D01*
G01*
X10993120Y12514580D02*
G03*
X10993120Y12514580I-50800J0D01*
G01*
X10792460Y12409170D02*
G03*
X10792460Y12409170I-50800J0D01*
G01*
X10607040Y12237720D02*
G03*
X10607040Y12237720I-50800J0D01*
G01*
X10485120Y12156440D02*
G03*
X10485120Y12156440I-50800J0D01*
G01*
X6870786Y6319987D02*
G03*
X6870786Y6319987I-50800J0D01*
G01*
X3920800Y9110000D02*
G03*
X3920800Y9110000I-50800J0D01*
G01*
X7320800Y7700000D02*
G03*
X7320800Y7700000I-50800J0D01*
G01*
X7520800Y7640000D02*
G03*
X7520800Y7640000I-50800J0D01*
G01*
X13610800Y8330000D02*
G03*
X13610800Y8330000I-50800J0D01*
G01*
X13440800Y8520000D02*
G03*
X13440800Y8520000I-50800J0D01*
G01*
X11270800Y9860000D02*
G03*
X11270800Y9860000I-50800J0D01*
G01*
X9080800Y10210000D02*
G03*
X9080800Y10210000I-50800J0D01*
G01*
X10930800Y6420000D02*
G03*
X10930800Y6420000I-50800J0D01*
G01*
X4060800Y7310000D02*
G03*
X4060800Y7310000I-50800J0D01*
G01*
X3980800D02*
G03*
X3980800Y7310000I-50800J0D01*
G01*
X3910800D02*
G03*
X3910800Y7310000I-50800J0D01*
G01*
X3540800Y10150000D02*
G03*
X3540800Y10150000I-50800J0D01*
G01*
X4800800Y11760000D02*
G03*
X4800800Y11760000I-50800J0D01*
G01*
Y11930000D02*
G03*
X4800800Y11930000I-50800J0D01*
G01*
X4790800Y10800000D02*
G03*
X4790800Y10800000I-50800J0D01*
G01*
Y10640000D02*
G03*
X4790800Y10640000I-50800J0D01*
G01*
X8840800Y11840000D02*
G03*
X8840800Y11840000I-50800J0D01*
G01*
X9000800Y11720000D02*
G03*
X9000800Y11720000I-50800J0D01*
G01*
X8990800Y10840000D02*
G03*
X8990800Y10840000I-50800J0D01*
G01*
Y10640000D02*
G03*
X8990800Y10640000I-50800J0D01*
G01*
X13180800Y10900000D02*
G03*
X13180800Y10900000I-50800J0D01*
G01*
X13190800Y11080000D02*
G03*
X13190800Y11080000I-50800J0D01*
G01*
X5740800Y8470000D02*
G03*
X5740800Y8470000I-50800J0D01*
G01*
X3840800Y5240000D02*
G03*
X3840800Y5240000I-50800J0D01*
G01*
X7538720Y8526780D02*
G03*
X7538720Y8526780I-50800J0D01*
G01*
X12254160Y12807880D02*
G03*
X12254160Y12807880I-50800J0D01*
G01*
X11728380Y12810420D02*
G03*
X11728380Y12810420I-50800J0D01*
G01*
X12849860Y13304520D02*
G03*
X12849860Y13304520I-50800J0D01*
G01*
X12715240Y13309599D02*
G03*
X12715240Y13309599I-50800J0D01*
G01*
X8846820Y10198100D02*
G03*
X8846820Y10198100I-50800J0D01*
G01*
X9352280Y10350500D02*
G03*
X9352280Y10350500I-50800J0D01*
G01*
X11595100Y8514080D02*
G03*
X11595100Y8514080I-50800J0D01*
G01*
X5839460Y7500620D02*
G03*
X5839460Y7500620I-50800J0D01*
G01*
X3335020Y7716260D02*
G03*
X3335020Y7716260I-50800J0D01*
G01*
X3337560Y7861040D02*
G03*
X3337560Y7861040I-50800J0D01*
G01*
X3355340Y8089640D02*
G03*
X3355340Y8089640I-50800J0D01*
G01*
X3426460Y7718800D02*
G03*
X3426460Y7718800I-50800J0D01*
G01*
Y7861040D02*
G03*
X3426460Y7861040I-50800J0D01*
G01*
X3261360Y8087100D02*
G03*
X3261360Y8087100I-50800J0D01*
G01*
X3399040Y7205980D02*
G03*
X3399040Y7205980I-50800J0D01*
G01*
X6243320Y7221220D02*
G03*
X6243320Y7221220I-50800J0D01*
G01*
X6807200Y6474460D02*
G03*
X6807200Y6474460I-50800J0D01*
G01*
X6341120Y8096260D02*
G03*
X6341120Y8096260I-50800J0D01*
G01*
X10812780Y3939540D02*
G03*
X10812780Y3939540I-50800J0D01*
G01*
X10507980D02*
G03*
X10507980Y3939540I-50800J0D01*
G01*
X9999980D02*
G03*
X9999980Y3939540I-50800J0D01*
G01*
X10711180D02*
G03*
X10711180Y3939540I-50800J0D01*
G01*
X10609580D02*
G03*
X10609580Y3939540I-50800J0D01*
G01*
X10406380D02*
G03*
X10406380Y3939540I-50800J0D01*
G01*
X10203180D02*
G03*
X10203180Y3939540I-50800J0D01*
G01*
X10101580D02*
G03*
X10101580Y3939540I-50800J0D01*
G01*
X10304780D02*
G03*
X10304780Y3939540I-50800J0D01*
G01*
X3722320Y5116880D02*
G03*
X3722320Y5116880I-50800J0D01*
G01*
X3909060Y4654600D02*
G03*
X3909060Y4654600I-50800J0D01*
G01*
X3776980Y4657140D02*
G03*
X3776980Y4657140I-50800J0D01*
G01*
X7348220Y8257540D02*
G03*
X7348220Y8257540I-50800J0D01*
G01*
X7261860Y8163560D02*
G03*
X7261860Y8163560I-50800J0D01*
G01*
Y8257540D02*
G03*
X7261860Y8257540I-50800J0D01*
G01*
X7155180Y7960360D02*
G03*
X7155180Y7960360I-50800J0D01*
G01*
Y7871460D02*
G03*
X7155180Y7871460I-50800J0D01*
G01*
X5290820Y10510520D02*
G03*
X5290820Y10510520I-50800J0D01*
G01*
X4868660Y4023880D02*
G03*
X4868660Y4023880I-50800J0D01*
G01*
X3985260Y9298940D02*
G03*
X3985260Y9298940I-50800J0D01*
G01*
X3256540Y12438120D02*
G03*
X3256540Y12438120I-50800J0D01*
G01*
X3312160Y7487920D02*
G03*
X3312160Y7487920I-50800J0D01*
G01*
X8509000Y10525760D02*
G03*
X8509000Y10525760I-50800J0D01*
G01*
Y10614660D02*
G03*
X8509000Y10614660I-50800J0D01*
G01*
X8514080Y11943080D02*
G03*
X8514080Y11943080I-50800J0D01*
G01*
Y12026900D02*
G03*
X8514080Y12026900I-50800J0D01*
G01*
X5293360Y11940540D02*
G03*
X5293360Y11940540I-50800J0D01*
G01*
Y12029440D02*
G03*
X5293360Y12029440I-50800J0D01*
G01*
X5290820Y10591800D02*
G03*
X5290820Y10591800I-50800J0D01*
G01*
X7188200Y12359640D02*
G03*
X7188200Y12359640I-50800J0D01*
G01*
X7340600D02*
G03*
X7340600Y12359640I-50800J0D01*
G01*
X7493000D02*
G03*
X7493000Y12359640I-50800J0D01*
G01*
X7645400D02*
G03*
X7645400Y12359640I-50800J0D01*
G01*
X7797800D02*
G03*
X7797800Y12359640I-50800J0D01*
G01*
X7950200D02*
G03*
X7950200Y12359640I-50800J0D01*
G01*
X8102600D02*
G03*
X8102600Y12359640I-50800J0D01*
G01*
X6639560Y12357100D02*
G03*
X6639560Y12357100I-50800J0D01*
G01*
X6487160D02*
G03*
X6487160Y12357100I-50800J0D01*
G01*
X6334760D02*
G03*
X6334760Y12357100I-50800J0D01*
G01*
X6182360D02*
G03*
X6182360Y12357100I-50800J0D01*
G01*
X6029960D02*
G03*
X6029960Y12357100I-50800J0D01*
G01*
X5877560D02*
G03*
X5877560Y12357100I-50800J0D01*
G01*
X5725160D02*
G03*
X5725160Y12357100I-50800J0D01*
G01*
X6249620Y10408920D02*
G03*
X6249620Y10408920I-50800J0D01*
G01*
X5849620D02*
G03*
X5849620Y10408920I-50800J0D01*
G01*
X6089620D02*
G03*
X6089620Y10408920I-50800J0D01*
G01*
X7272020Y10414000D02*
G03*
X7272020Y10414000I-50800J0D01*
G01*
X7513580D02*
G03*
X7513580Y10414000I-50800J0D01*
G01*
X6045260Y10942320D02*
G03*
X6045260Y10942320I-50800J0D01*
G01*
X7471420Y10937240D02*
G03*
X7471420Y10937240I-50800J0D01*
G01*
X7311420D02*
G03*
X7311420Y10937240I-50800J0D01*
G01*
X7951420D02*
G03*
X7951420Y10937240I-50800J0D01*
G01*
X7231420D02*
G03*
X7231420Y10937240I-50800J0D01*
G01*
X5885260Y10942320D02*
G03*
X5885260Y10942320I-50800J0D01*
G01*
X5805260D02*
G03*
X5805260Y10942320I-50800J0D01*
G01*
X7992020Y10414000D02*
G03*
X7992020Y10414000I-50800J0D01*
G01*
X7752020D02*
G03*
X7752020Y10414000I-50800J0D01*
G01*
X7672020D02*
G03*
X7672020Y10414000I-50800J0D01*
G01*
X7592020Y10413999D02*
G03*
X7592020Y10413999I-50800J0D01*
G01*
X6569620Y10408920D02*
G03*
X6569620Y10408920I-50800J0D01*
G01*
X6329620D02*
G03*
X6329620Y10408920I-50800J0D01*
G01*
X6169620D02*
G03*
X6169620Y10408920I-50800J0D01*
G01*
X13982700Y13103860D02*
G03*
X13982700Y13103860I-50800J0D01*
G01*
X13860780D02*
G03*
X13860780Y13103860I-50800J0D01*
G01*
X13733780D02*
G03*
X13733780Y13103860I-50800J0D01*
G01*
X13609320D02*
G03*
X13609320Y13103860I-50800J0D01*
G01*
X3776980Y5000040D02*
G03*
X3776980Y5000040I-50800J0D01*
G01*
X3909060Y4994960D02*
G03*
X3909060Y4994960I-50800J0D01*
G01*
X12522200Y12948920D02*
G03*
X12522200Y12948920I-50800J0D01*
G01*
X12133580Y13248640D02*
G03*
X12133580Y13248640I-50800J0D01*
G01*
X12514580Y13251180D02*
G03*
X12514580Y13251180I-50800J0D01*
G01*
X11988800Y12951460D02*
G03*
X11988800Y12951460I-50800J0D01*
G01*
Y13248640D02*
G03*
X11988800Y13248640I-50800J0D01*
G01*
X11615420Y13258800D02*
G03*
X11615420Y13258800I-50800J0D01*
G01*
X12440920Y8610600D02*
G03*
X12440920Y8610600I-50800J0D01*
G01*
X9949180Y6774180D02*
G03*
X9949180Y6774180I-50800J0D01*
G01*
X11099800Y6518660D02*
G03*
X11099800Y6518660I-50800J0D01*
G01*
X10246360Y6403340D02*
G03*
X10246360Y6403340I-50800J0D01*
G01*
X9639300Y6400800D02*
G03*
X9639300Y6400800I-50800J0D01*
G01*
X9542780Y6413500D02*
G03*
X9542780Y6413500I-50800J0D01*
G01*
X11912600Y7899400D02*
G03*
X11912600Y7899400I-50800J0D01*
G01*
X13083540Y7881620D02*
G03*
X13083540Y7881620I-50800J0D01*
G01*
Y8775700D02*
G03*
X13083540Y8775700I-50800J0D01*
G01*
X9639300Y6241580D02*
G03*
X9639300Y6241580I-50800J0D01*
G01*
Y6322060D02*
G03*
X9639300Y6322060I-50800J0D01*
G01*
X8956840Y9887420D02*
G03*
X8956840Y9887420I-50800J0D01*
G01*
X6962610Y5377180D02*
G03*
X6962610Y5377180I-50800J0D01*
G01*
X6765760D02*
G03*
X6765760Y5377180I-50800J0D01*
G01*
X6568910D02*
G03*
X6568910Y5377180I-50800J0D01*
G01*
X6667335D02*
G03*
X6667335Y5377180I-50800J0D01*
G01*
X6864185D02*
G03*
X6864185Y5377180I-50800J0D01*
G01*
X6962610Y5473700D02*
G03*
X6962610Y5473700I-50800J0D01*
G01*
X6765760D02*
G03*
X6765760Y5473700I-50800J0D01*
G01*
X6568910D02*
G03*
X6568910Y5473700I-50800J0D01*
G01*
X6667335D02*
G03*
X6667335Y5473700I-50800J0D01*
G01*
X6864185D02*
G03*
X6864185Y5473700I-50800J0D01*
G01*
X6965150Y5671820D02*
G03*
X6965150Y5671820I-50800J0D01*
G01*
X6571450D02*
G03*
X6571450Y5671820I-50800J0D01*
G01*
X6669875D02*
G03*
X6669875Y5671820I-50800J0D01*
G01*
X6866725D02*
G03*
X6866725Y5671820I-50800J0D01*
G01*
X6965150Y5768340D02*
G03*
X6965150Y5768340I-50800J0D01*
G01*
X6571450D02*
G03*
X6571450Y5768340I-50800J0D01*
G01*
X6669875D02*
G03*
X6669875Y5768340I-50800J0D01*
G01*
X6867360D02*
G03*
X6867360Y5768340I-50800J0D01*
G01*
X6768300D02*
G03*
X6768300Y5768340I-50800J0D01*
G01*
X6765760Y5671820D02*
G03*
X6765760Y5671820I-50800J0D01*
G01*
X3248660Y7858500D02*
G03*
X3248660Y7858500I-50800J0D01*
G01*
X3251200Y7716260D02*
G03*
X3251200Y7716260I-50800J0D01*
G01*
X3959860Y7584180D02*
G03*
X3959860Y7584180I-50800J0D01*
G01*
X2618740Y12024100D02*
G03*
X2618740Y12024100I-50800J0D01*
G01*
X2697480Y12026640D02*
G03*
X2697480Y12026640I-50800J0D01*
G01*
X2773680D02*
G03*
X2773680Y12026640I-50800J0D01*
G01*
X2618740Y11947900D02*
G03*
X2618740Y11947900I-50800J0D01*
G01*
X2760800Y11950000D02*
G03*
X2760800Y11950000I-50800J0D01*
G01*
X2616200Y11871700D02*
G03*
X2616200Y11871700I-50800J0D01*
G01*
X2700020Y11874240D02*
G03*
X2700020Y11874240I-50800J0D01*
G01*
X4369420Y9295520D02*
G03*
X4369420Y9295520I-50800J0D01*
G01*
X2588260Y7553700D02*
G03*
X2588260Y7553700I-50800J0D01*
G01*
X2669540D02*
G03*
X2669540Y7553700I-50800J0D01*
G01*
X2748280D02*
G03*
X2748280Y7553700I-50800J0D01*
G01*
X2824480D02*
G03*
X2824480Y7553700I-50800J0D01*
G01*
X2900680D02*
G03*
X2900680Y7553700I-50800J0D01*
G01*
X2593340Y8005820D02*
G03*
X2593340Y8005820I-50800J0D01*
G01*
X2667000D02*
G03*
X2667000Y8005820I-50800J0D01*
G01*
X2748280Y8003280D02*
G03*
X2748280Y8003280I-50800J0D01*
G01*
X2829560Y8000740D02*
G03*
X2829560Y8000740I-50800J0D01*
G01*
X4737100Y6581140D02*
G03*
X4737100Y6581140I-50800J0D01*
G01*
X4846320D02*
G03*
X4846320Y6581140I-50800J0D01*
G01*
X4963160D02*
G03*
X4963160Y6581140I-50800J0D01*
G01*
X5080000D02*
G03*
X5080000Y6581140I-50800J0D01*
G01*
X5201920D02*
G03*
X5201920Y6581140I-50800J0D01*
G01*
Y6690360D02*
G03*
X5201920Y6690360I-50800J0D01*
G01*
X5080000D02*
G03*
X5080000Y6690360I-50800J0D01*
G01*
X4963160D02*
G03*
X4963160Y6690360I-50800J0D01*
G01*
X4846320D02*
G03*
X4846320Y6690360I-50800J0D01*
G01*
X4737100D02*
G03*
X4737100Y6690360I-50800J0D01*
G01*
X4940300Y5621020D02*
G03*
X4940300Y5621020I-50800J0D01*
G01*
X5036820Y5623560D02*
G03*
X5036820Y5623560I-50800J0D01*
G01*
X5130800Y5621020D02*
G03*
X5130800Y5621020I-50800J0D01*
G01*
X5229860Y5623560D02*
G03*
X5229860Y5623560I-50800J0D01*
G01*
X4414520Y4620260D02*
G03*
X4414520Y4620260I-50800J0D01*
G01*
Y4716780D02*
G03*
X4414520Y4716780I-50800J0D01*
G01*
Y4810760D02*
G03*
X4414520Y4810760I-50800J0D01*
G01*
Y4912360D02*
G03*
X4414520Y4912360I-50800J0D01*
G01*
Y5016500D02*
G03*
X4414520Y5016500I-50800J0D01*
G01*
X4400580Y4088100D02*
G03*
X4400580Y4088100I-50800J0D01*
G01*
X4850600Y4119080D02*
G03*
X4850600Y4119080I-50800J0D01*
G01*
X6339840Y5923280D02*
G03*
X6339840Y5923280I-50800J0D01*
G01*
X6416040D02*
G03*
X6416040Y5923280I-50800J0D01*
G01*
X6296660Y5222240D02*
G03*
X6296660Y5222240I-50800J0D01*
G01*
X6377940Y5257800D02*
G03*
X6377940Y5257800I-50800J0D01*
G01*
X7272020Y5443220D02*
G03*
X7272020Y5443220I-50800J0D01*
G01*
X7274560Y5702000D02*
G03*
X7274560Y5702000I-50800J0D01*
G01*
X10568940Y9974580D02*
G03*
X10568940Y9974580I-50800J0D01*
G01*
X10566400Y10208260D02*
G03*
X10566400Y10208260I-50800J0D01*
G01*
X9977120Y10205720D02*
G03*
X9977120Y10205720I-50800J0D01*
G01*
X9969500Y10116820D02*
G03*
X9969500Y10116820I-50800J0D01*
G01*
X9987280Y9888220D02*
G03*
X9987280Y9888220I-50800J0D01*
G01*
Y9702800D02*
G03*
X9987280Y9702800I-50800J0D01*
G01*
X9885680Y10005060D02*
G03*
X9885680Y10005060I-50800J0D01*
G01*
X10665460Y10073640D02*
G03*
X10665460Y10073640I-50800J0D01*
G01*
X8867140Y9888220D02*
G03*
X8867140Y9888220I-50800J0D01*
G01*
X9340800Y9790000D02*
G03*
X9340800Y9790000I-50800J0D01*
G01*
X9120800Y10040000D02*
G03*
X9120800Y10040000I-50800J0D01*
G01*
X9480800D02*
G03*
X9480800Y10040000I-50800J0D01*
G01*
X9740900Y6327140D02*
G03*
X9740900Y6327140I-50800J0D01*
G01*
X10426700Y6388100D02*
G03*
X10426700Y6388100I-50800J0D01*
G01*
X11191240Y6306820D02*
G03*
X11191240Y6306820I-50800J0D01*
G01*
X10619740Y6301740D02*
G03*
X10619740Y6301740I-50800J0D01*
G01*
X10558780Y6065520D02*
G03*
X10558780Y6065520I-50800J0D01*
G01*
X10071559Y12758420D02*
G03*
X10071559Y12758420I-50800J0D01*
G01*
X10071100Y13403580D02*
G03*
X10071100Y13403580I-50800J0D01*
G01*
X10069019Y12555220D02*
G03*
X10069019Y12555220I-50800J0D01*
G01*
X10071100Y13606779D02*
G03*
X10071100Y13606779I-50800J0D01*
G01*
X6460800Y6730000D02*
G03*
X6460800Y6730000I-50800J0D01*
G01*
X10198100Y9530080D02*
G03*
X10198100Y9530080I-50800J0D01*
G01*
X12072620Y8018780D02*
G03*
X12072620Y8018780I-50800J0D01*
G01*
X12715240Y12768580D02*
G03*
X12715240Y12768580I-50800J0D01*
G01*
X12847321Y12766040D02*
G03*
X12847321Y12766040I-50800J0D01*
G01*
X4610100Y8597640D02*
G03*
X4610100Y8597640I-50800J0D01*
G01*
Y8686540D02*
G03*
X4610100Y8686540I-50800J0D01*
G01*
X4612640Y8854180D02*
G03*
X4612640Y8854180I-50800J0D01*
G01*
X4610100Y8775440D02*
G03*
X4610100Y8775440I-50800J0D01*
G01*
X4526280Y8600180D02*
G03*
X4526280Y8600180I-50800J0D01*
G01*
Y8689080D02*
G03*
X4526280Y8689080I-50800J0D01*
G01*
X4528820Y8854180D02*
G03*
X4528820Y8854180I-50800J0D01*
G01*
Y8775440D02*
G03*
X4528820Y8775440I-50800J0D01*
G01*
X6525260Y10942320D02*
G03*
X6525260Y10942320I-50800J0D01*
G01*
X10563860Y9872980D02*
G03*
X10563860Y9872980I-50800J0D01*
G01*
X10561320Y9761220D02*
G03*
X10561320Y9761220I-50800J0D01*
G01*
X9987280Y9799320D02*
G03*
X9987280Y9799320I-50800J0D01*
G01*
X13987781Y12705080D02*
G03*
X13987781Y12705080I-50800J0D01*
G01*
X13860780Y12697460D02*
G03*
X13860780Y12697460I-50800J0D01*
G01*
X13733780Y12710160D02*
G03*
X13733780Y12710160I-50800J0D01*
G01*
X13606779D02*
G03*
X13606779Y12710160I-50800J0D01*
G01*
X13107600Y7553640D02*
G03*
X13107600Y7553640I-50800J0D01*
G01*
X12065000Y7305800D02*
G03*
X12065000Y7305800I-50800J0D01*
G01*
X12060800Y7660000D02*
G03*
X12060800Y7660000I-50800J0D01*
G01*
X12110800Y7140000D02*
G03*
X12110800Y7140000I-50800J0D01*
G01*
X11940800D02*
G03*
X11940800Y7140000I-50800J0D01*
G01*
X11099800Y6446520D02*
G03*
X11099800Y6446520I-50800J0D01*
G01*
X11630800Y7340000D02*
G03*
X11630800Y7340000I-50800J0D01*
G01*
Y7430000D02*
G03*
X11630800Y7430000I-50800J0D01*
G01*
X9100800Y9540000D02*
G03*
X9100800Y9540000I-50800J0D01*
G01*
X11750800Y6990000D02*
G03*
X11750800Y6990000I-50800J0D01*
G01*
%TF.MD5,33791a927f200b19065f5f3679f38905*%
M02*
