G04 Layer_Physical_Order=6*
G04 Layer_Color=16711680*
%FSLAX45Y45*%
%MOMM*%
%TF.FileFunction,Copper,L6,Bot,Signal*%
%TF.Part,Single*%
G01*
G75*
%TA.AperFunction,Conductor*%
%ADD10C,0.30480*%
%TA.AperFunction,SMDPad,CuDef*%
%ADD11R,0.60000X0.55000*%
%ADD13R,0.55000X0.60000*%
%ADD17R,0.70000X1.30000*%
%ADD26R,0.60000X1.00000*%
%ADD38R,2.60000X0.90000*%
%ADD39R,1.30000X0.70000*%
%ADD40R,1.70000X0.90000*%
%ADD41R,1.00000X0.60000*%
%TA.AperFunction,Conductor*%
%ADD50C,0.25400*%
%ADD51C,0.15240*%
%ADD52C,0.50800*%
%ADD53C,0.12700*%
%ADD54C,0.16800*%
%ADD55C,0.17500*%
%ADD56C,0.20320*%
%ADD59C,0.16800*%
%TA.AperFunction,NonConductor*%
%ADD68R,1.27000X0.12700*%
%TA.AperFunction,ComponentPad*%
%ADD72R,1.50000X1.50000*%
%ADD73C,1.50000*%
%TA.AperFunction,ViaPad*%
%ADD74C,5.00000*%
%TA.AperFunction,ComponentPad*%
%ADD75R,2.00000X2.00000*%
%ADD76C,0.95000*%
%ADD77C,1.55000*%
%ADD78C,1.52400*%
G04:AMPARAMS|DCode=79|XSize=1.3mm|YSize=1.3mm|CornerRadius=0mm|HoleSize=0mm|Usage=FLASHONLY|Rotation=180.000|XOffset=0mm|YOffset=0mm|HoleType=Round|Shape=Octagon|*
%AMOCTAGOND79*
4,1,8,-0.65000,0.32500,-0.65000,-0.32500,-0.32500,-0.65000,0.32500,-0.65000,0.65000,-0.32500,0.65000,0.32500,0.32500,0.65000,-0.32500,0.65000,-0.65000,0.32500,0.0*
%
%ADD79OCTAGOND79*%

%ADD80C,1.30000*%
%ADD81C,1.00000*%
%ADD82C,2.70000*%
%TA.AperFunction,ViaPad*%
%ADD83C,3.20000*%
%TA.AperFunction,ComponentPad*%
%ADD84R,4.06400X1.65100*%
%ADD85R,1.65100X4.06400*%
%ADD86R,1.52400X1.52400*%
%TA.AperFunction,ViaPad*%
%ADD87C,0.38100*%
%ADD88C,0.40640*%
%ADD89C,0.50800*%
%ADD90C,0.50000*%
%ADD91C,0.63500*%
%TA.AperFunction,SMDPad,CuDef*%
%ADD112R,1.10000X1.70000*%
%ADD113R,0.91000X1.22000*%
%ADD114R,0.50000X1.00000*%
%ADD115R,0.90000X1.00000*%
%ADD116R,2.00000X0.80000*%
%ADD117R,0.45000X0.34290*%
%ADD118O,2.00000X0.60000*%
%ADD119R,2.00000X0.60000*%
%ADD120R,0.42000X0.60000*%
%ADD121O,0.42000X0.60000*%
%ADD122R,0.95000X0.60000*%
%ADD123O,0.30000X0.95000*%
%ADD124O,0.95000X0.30000*%
%ADD125R,2.10000X2.10000*%
%ADD126R,0.60000X0.42000*%
%ADD127O,0.60000X0.42000*%
%TA.AperFunction,Conductor*%
%ADD128R,1.70000X2.02240*%
%TA.AperFunction,NonConductor*%
%ADD129R,1.27000X11.93800*%
G36*
X3927821Y7601477D02*
X3928693Y7601046D01*
X3929813Y7600665D01*
X3931182Y7600334D01*
X3932799Y7600055D01*
X3936781Y7599649D01*
X3941758Y7599445D01*
X3944620Y7599420D01*
Y7568940D01*
X3941758Y7568915D01*
X3932799Y7568305D01*
X3931182Y7568026D01*
X3929813Y7567695D01*
X3928693Y7567314D01*
X3927821Y7566883D01*
X3927199Y7566400D01*
Y7601960D01*
X3927821Y7601477D01*
D02*
G37*
G36*
X13091222Y7573693D02*
X13089488Y7571852D01*
X13087939Y7569980D01*
X13086575Y7568077D01*
X13085396Y7566143D01*
X13084401Y7564179D01*
X13083591Y7562183D01*
X13082967Y7560157D01*
X13082526Y7558100D01*
X13082269Y7556013D01*
X13082199Y7553894D01*
X13057054Y7579039D01*
X13059174Y7579110D01*
X13061259Y7579365D01*
X13063316Y7579806D01*
X13065343Y7580431D01*
X13067339Y7581241D01*
X13069302Y7582236D01*
X13071237Y7583415D01*
X13073140Y7584779D01*
X13075012Y7586328D01*
X13076852Y7588062D01*
X13091222Y7573693D01*
D02*
G37*
G36*
X10953403Y7675617D02*
X10953993Y7674230D01*
X10954687Y7672832D01*
X10955486Y7671423D01*
X10957397Y7668573D01*
X10958510Y7667132D01*
X10961049Y7664218D01*
X10962476Y7662744D01*
X10954976Y7646486D01*
X10953456Y7647908D01*
X10951943Y7649128D01*
X10950435Y7650146D01*
X10948933Y7650962D01*
X10947437Y7651577D01*
X10945946Y7651990D01*
X10944461Y7652202D01*
X10942983Y7652212D01*
X10941510Y7652019D01*
X10940043Y7651626D01*
X10952918Y7676994D01*
X10953403Y7675617D01*
D02*
G37*
G36*
X10141957Y7631024D02*
X10143189Y7630093D01*
X10144527Y7629272D01*
X10145970Y7628561D01*
X10147519Y7627959D01*
X10149174Y7627466D01*
X10150935Y7627083D01*
X10152801Y7626809D01*
X10154773Y7626645D01*
X10156851Y7626590D01*
Y7609090D01*
X10154773Y7609035D01*
X10152801Y7608871D01*
X10150935Y7608597D01*
X10149174Y7608214D01*
X10147519Y7607721D01*
X10145970Y7607119D01*
X10144527Y7606408D01*
X10143189Y7605587D01*
X10141957Y7604656D01*
X10140831Y7603616D01*
Y7632064D01*
X10141957Y7631024D01*
D02*
G37*
G36*
X10917649Y7509256D02*
X10916459Y7510363D01*
X10915175Y7511353D01*
X10913794Y7512226D01*
X10912319Y7512983D01*
X10910748Y7513624D01*
X10909082Y7514148D01*
X10907321Y7514556D01*
X10905465Y7514847D01*
X10903513Y7515022D01*
X10901465Y7515080D01*
Y7531880D01*
X10903513Y7531938D01*
X10905465Y7532113D01*
X10907321Y7532404D01*
X10909082Y7532812D01*
X10910748Y7533336D01*
X10912319Y7533977D01*
X10913794Y7534734D01*
X10915175Y7535607D01*
X10916459Y7536597D01*
X10917649Y7537704D01*
Y7509256D01*
D02*
G37*
G36*
X10141957Y7531024D02*
X10143189Y7530093D01*
X10144527Y7529272D01*
X10145970Y7528561D01*
X10147519Y7527959D01*
X10149174Y7527466D01*
X10150935Y7527083D01*
X10152801Y7526809D01*
X10154773Y7526645D01*
X10156851Y7526590D01*
Y7509090D01*
X10154773Y7509035D01*
X10152801Y7508871D01*
X10150935Y7508597D01*
X10149174Y7508214D01*
X10147519Y7507721D01*
X10145970Y7507119D01*
X10144527Y7506408D01*
X10143189Y7505586D01*
X10141957Y7504656D01*
X10140831Y7503616D01*
Y7532064D01*
X10141957Y7531024D01*
D02*
G37*
G36*
X9738701Y7537633D02*
X9740195Y7536362D01*
X9741703Y7535225D01*
X9743226Y7534223D01*
X9744762Y7533355D01*
X9746312Y7532622D01*
X9747877Y7532024D01*
X9749455Y7531561D01*
X9751047Y7531232D01*
X9752654Y7531038D01*
X9730839Y7512778D01*
X9730916Y7514389D01*
X9730828Y7515987D01*
X9730575Y7517573D01*
X9730157Y7519146D01*
X9729574Y7520706D01*
X9728825Y7522254D01*
X9727912Y7523789D01*
X9726833Y7525312D01*
X9725590Y7526822D01*
X9724181Y7528320D01*
X9737220Y7539040D01*
X9738701Y7537633D01*
D02*
G37*
G36*
X9838989Y7536040D02*
X9840474Y7534836D01*
X9842002Y7533775D01*
X9843573Y7532858D01*
X9845186Y7532085D01*
X9846842Y7531456D01*
X9848542Y7530971D01*
X9850284Y7530630D01*
X9852069Y7530432D01*
X9853897Y7530379D01*
X9833781Y7510263D01*
X9833728Y7512091D01*
X9833530Y7513876D01*
X9833189Y7515618D01*
X9832704Y7517318D01*
X9832075Y7518974D01*
X9831302Y7520587D01*
X9830385Y7522158D01*
X9829324Y7523686D01*
X9828120Y7525171D01*
X9826771Y7526613D01*
X9837548Y7537389D01*
X9838989Y7536040D01*
D02*
G37*
G36*
X11994618Y7693415D02*
X11998381Y7690226D01*
X12000177Y7688933D01*
X12001916Y7687841D01*
X12003597Y7686950D01*
X12005220Y7686261D01*
X12006786Y7685772D01*
X12008295Y7685485D01*
X12009746Y7685399D01*
X11984601Y7660254D01*
X11984515Y7661705D01*
X11984228Y7663214D01*
X11983739Y7664780D01*
X11983050Y7666404D01*
X11982159Y7668084D01*
X11981067Y7669823D01*
X11979774Y7671619D01*
X11978280Y7673472D01*
X11974689Y7677350D01*
X11992650Y7695311D01*
X11994618Y7693415D01*
D02*
G37*
G36*
X7120378Y7851455D02*
X7118783Y7849536D01*
X7117376Y7847563D01*
X7116157Y7845536D01*
X7115125Y7843456D01*
X7114281Y7841322D01*
X7113624Y7839134D01*
X7113155Y7836893D01*
X7112874Y7834598D01*
X7112780Y7832249D01*
X7095980D01*
X7095886Y7834598D01*
X7095605Y7836893D01*
X7095136Y7839134D01*
X7094479Y7841322D01*
X7093635Y7843456D01*
X7092603Y7845536D01*
X7091384Y7847563D01*
X7089977Y7849536D01*
X7088382Y7851455D01*
X7086600Y7853321D01*
X7122160D01*
X7120378Y7851455D01*
D02*
G37*
G36*
X6926665Y7859857D02*
X6926190Y7858313D01*
Y7856531D01*
X6926665Y7854511D01*
X6927615Y7852254D01*
X6929040Y7849760D01*
X6930941Y7847027D01*
X6933317Y7844057D01*
X6939494Y7837405D01*
X6927615Y7825526D01*
X6924170Y7828852D01*
X6917993Y7834079D01*
X6915260Y7835980D01*
X6912766Y7837405D01*
X6910509Y7838355D01*
X6908489Y7838830D01*
X6906707D01*
X6905163Y7838355D01*
X6903856Y7837405D01*
X6927615Y7861164D01*
X6926665Y7859857D01*
D02*
G37*
G36*
X12024644Y7916919D02*
X12026168Y7916189D01*
X12028708Y7915544D01*
X12032264Y7914986D01*
X12036836Y7914514D01*
X12045221Y7914132D01*
X12077582Y7916178D01*
X12080054Y7916906D01*
X12081622Y7917719D01*
X12088845Y7862849D01*
X12088444Y7862809D01*
X12087039Y7862774D01*
X12074936Y7862739D01*
Y7862640D01*
X12065284Y7862597D01*
X12026168Y7859891D01*
X12024644Y7859161D01*
X12024136Y7858345D01*
Y7917735D01*
X12024644Y7916919D01*
D02*
G37*
G36*
X7786150Y7821620D02*
X7785972Y7823282D01*
X7785438Y7824770D01*
X7784547Y7826082D01*
X7783301Y7827220D01*
X7781698Y7828182D01*
X7779740Y7828970D01*
X7777425Y7829583D01*
X7774755Y7830020D01*
X7771728Y7830283D01*
X7769873Y7830331D01*
X7768050Y7830283D01*
X7765075Y7830020D01*
X7762450Y7829583D01*
X7760175Y7828970D01*
X7758250Y7828182D01*
X7756675Y7827220D01*
X7755450Y7826082D01*
X7754575Y7824770D01*
X7754050Y7823282D01*
X7753875Y7821620D01*
Y7856620D01*
X7754050Y7854958D01*
X7754575Y7853470D01*
X7755450Y7852158D01*
X7756675Y7851020D01*
X7758250Y7850057D01*
X7760175Y7849270D01*
X7762450Y7848657D01*
X7765075Y7848220D01*
X7768050Y7847957D01*
X7769873Y7847909D01*
X7771728Y7847957D01*
X7774755Y7848220D01*
X7777425Y7848657D01*
X7779740Y7849270D01*
X7781698Y7850057D01*
X7783301Y7851020D01*
X7784547Y7852158D01*
X7785438Y7853470D01*
X7785972Y7854958D01*
X7786150Y7856620D01*
Y7821620D01*
D02*
G37*
G36*
X10141957Y7731024D02*
X10143189Y7730094D01*
X10144527Y7729272D01*
X10145970Y7728561D01*
X10147519Y7727959D01*
X10149174Y7727466D01*
X10150935Y7727083D01*
X10152801Y7726809D01*
X10154773Y7726645D01*
X10156851Y7726590D01*
Y7709090D01*
X10154773Y7709035D01*
X10152801Y7708871D01*
X10150935Y7708597D01*
X10149174Y7708214D01*
X10147519Y7707721D01*
X10145970Y7707119D01*
X10144527Y7706408D01*
X10143189Y7705587D01*
X10141957Y7704656D01*
X10140831Y7703616D01*
Y7732064D01*
X10141957Y7731024D01*
D02*
G37*
G36*
X11987210Y7708519D02*
X11987196Y7708126D01*
X11987141Y7695559D01*
X11961741D01*
X11961655Y7708650D01*
X11987226D01*
X11987210Y7708519D01*
D02*
G37*
G36*
X7840387Y7852912D02*
X7840845Y7851617D01*
X7841607Y7850474D01*
X7842673Y7849483D01*
X7844045Y7848645D01*
X7845721Y7847959D01*
X7847703Y7847426D01*
X7849989Y7847045D01*
X7852579Y7846816D01*
X7855475Y7846740D01*
Y7831500D01*
X7852579Y7831424D01*
X7849989Y7831195D01*
X7847703Y7830814D01*
X7845721Y7830281D01*
X7844045Y7829595D01*
X7842673Y7828757D01*
X7841607Y7827766D01*
X7840845Y7826623D01*
X7840387Y7825328D01*
X7840235Y7823880D01*
Y7854360D01*
X7840387Y7852912D01*
D02*
G37*
G36*
X3421380Y7807700D02*
X3152140D01*
Y7914380D01*
X3421380D01*
Y7807700D01*
D02*
G37*
G36*
X6213992Y7235194D02*
X6215718Y7233491D01*
X6217527Y7231988D01*
X6219417Y7230686D01*
X6221389Y7229584D01*
X6223443Y7228683D01*
X6225578Y7227981D01*
X6227796Y7227481D01*
X6230094Y7227180D01*
X6232475Y7227080D01*
X6230683Y7210280D01*
X6228372Y7210195D01*
X6226088Y7209938D01*
X6223830Y7209509D01*
X6221600Y7208910D01*
X6219398Y7208139D01*
X6217222Y7207197D01*
X6215073Y7206083D01*
X6212952Y7204799D01*
X6210858Y7203342D01*
X6208790Y7201715D01*
X6212346Y7237097D01*
X6213992Y7235194D01*
D02*
G37*
G36*
X3276905Y7242689D02*
X3277819Y7237507D01*
X3279343Y7232935D01*
X3281477Y7228973D01*
X3284220Y7225620D01*
X3287573Y7222877D01*
X3291535Y7220743D01*
X3296107Y7219219D01*
X3301289Y7218305D01*
X3307080Y7218000D01*
X3261360Y7187520D01*
X3227660Y7218000D01*
X3231168Y7218305D01*
X3234306Y7219219D01*
X3237075Y7220743D01*
X3239474Y7222877D01*
X3241505Y7225620D01*
X3243166Y7228973D01*
X3244459Y7232935D01*
X3245382Y7237507D01*
X3245935Y7242689D01*
X3246120Y7248480D01*
X3276600D01*
X3276905Y7242689D01*
D02*
G37*
G36*
X9025489Y7275776D02*
X9024158Y7277031D01*
X9022756Y7278153D01*
X9021283Y7279144D01*
X9019739Y7280002D01*
X9018122Y7280729D01*
X9016435Y7281323D01*
X9014676Y7281786D01*
X9012846Y7282116D01*
X9010944Y7282314D01*
X9008971Y7282380D01*
Y7297620D01*
X9010944Y7297686D01*
X9012846Y7297884D01*
X9014676Y7298214D01*
X9016435Y7298677D01*
X9018122Y7299271D01*
X9019739Y7299997D01*
X9021283Y7300856D01*
X9022756Y7301846D01*
X9024158Y7302969D01*
X9025489Y7304224D01*
Y7275776D01*
D02*
G37*
G36*
X11077685Y7213440D02*
X11077533Y7214888D01*
X11077075Y7216183D01*
X11076313Y7217326D01*
X11075247Y7218317D01*
X11073875Y7219155D01*
X11072199Y7219841D01*
X11070217Y7220374D01*
X11067931Y7220755D01*
X11065341Y7220984D01*
X11062445Y7221060D01*
Y7236300D01*
X11065341Y7236376D01*
X11067931Y7236605D01*
X11070217Y7236986D01*
X11072199Y7237519D01*
X11073875Y7238205D01*
X11075247Y7239043D01*
X11076313Y7240034D01*
X11077075Y7241177D01*
X11077533Y7242472D01*
X11077685Y7243920D01*
Y7213440D01*
D02*
G37*
G36*
X10852969Y7094158D02*
X10851846Y7092756D01*
X10850856Y7091283D01*
X10849997Y7089739D01*
X10849271Y7088122D01*
X10848677Y7086435D01*
X10848214Y7084676D01*
X10847884Y7082846D01*
X10847686Y7080944D01*
X10847620Y7078971D01*
X10832380D01*
X10832314Y7080944D01*
X10832116Y7082846D01*
X10831786Y7084676D01*
X10831323Y7086435D01*
X10830729Y7088122D01*
X10830002Y7089739D01*
X10829144Y7091283D01*
X10828153Y7092756D01*
X10827031Y7094158D01*
X10825776Y7095489D01*
X10854224D01*
X10852969Y7094158D01*
D02*
G37*
G36*
X10652969D02*
X10651847Y7092756D01*
X10650856Y7091283D01*
X10649997Y7089739D01*
X10649271Y7088122D01*
X10648677Y7086435D01*
X10648214Y7084676D01*
X10647884Y7082846D01*
X10647686Y7080944D01*
X10647620Y7078971D01*
X10632380D01*
X10632314Y7080944D01*
X10632116Y7082846D01*
X10631786Y7084676D01*
X10631323Y7086435D01*
X10630729Y7088122D01*
X10630003Y7089739D01*
X10629144Y7091283D01*
X10628153Y7092756D01*
X10627031Y7094158D01*
X10625776Y7095489D01*
X10654224D01*
X10652969Y7094158D01*
D02*
G37*
G36*
X3332501Y7186044D02*
X3331995Y7186324D01*
X3331225Y7186575D01*
X3330190Y7186797D01*
X3328892Y7186989D01*
X3325502Y7187284D01*
X3318437Y7187505D01*
X3315553Y7187520D01*
X3310624Y7218000D01*
X3313472Y7218033D01*
X3320534Y7218531D01*
X3322394Y7218829D01*
X3324008Y7219194D01*
X3325375Y7219625D01*
X3326494Y7220123D01*
X3327367Y7220687D01*
X3327993Y7221317D01*
X3332501Y7186044D01*
D02*
G37*
G36*
X10952969Y7094158D02*
X10951847Y7092756D01*
X10950856Y7091283D01*
X10949997Y7089739D01*
X10949271Y7088122D01*
X10948677Y7086435D01*
X10948214Y7084676D01*
X10947884Y7082846D01*
X10947686Y7080944D01*
X10947620Y7078971D01*
X10932380D01*
X10932314Y7080944D01*
X10932116Y7082846D01*
X10931786Y7084676D01*
X10931323Y7086435D01*
X10930729Y7088122D01*
X10930003Y7089739D01*
X10929144Y7091283D01*
X10928153Y7092756D01*
X10927031Y7094158D01*
X10925776Y7095489D01*
X10954224D01*
X10952969Y7094158D01*
D02*
G37*
G36*
X11564725Y7319706D02*
X11562567Y7321244D01*
X11560394Y7322620D01*
X11558207Y7323834D01*
X11556005Y7324886D01*
X11553788Y7325777D01*
X11551556Y7326505D01*
X11549309Y7327072D01*
X11547516Y7327393D01*
X11545425Y7327044D01*
X11543241Y7326456D01*
X11541393Y7325700D01*
X11539881Y7324776D01*
X11538705Y7323684D01*
X11537865Y7322424D01*
X11537361Y7320996D01*
X11537193Y7319400D01*
Y7353000D01*
X11537361Y7351404D01*
X11537865Y7349976D01*
X11538705Y7348716D01*
X11539881Y7347624D01*
X11541393Y7346700D01*
X11543241Y7345944D01*
X11545425Y7345356D01*
X11545734Y7345304D01*
X11546676Y7345524D01*
X11548783Y7346242D01*
X11550793Y7347166D01*
X11552708Y7348296D01*
X11554526Y7349630D01*
X11556248Y7351170D01*
X11557875Y7352915D01*
X11559405Y7354866D01*
X11564725Y7319706D01*
D02*
G37*
G36*
X5814112Y7497583D02*
X5814329Y7494923D01*
X5814710Y7492387D01*
X5815254Y7489975D01*
X5815962Y7487686D01*
X5816834Y7485521D01*
X5817869Y7483480D01*
X5819069Y7481562D01*
X5820431Y7479769D01*
X5821958Y7478099D01*
X5811181Y7467322D01*
X5809511Y7468849D01*
X5807718Y7470211D01*
X5805800Y7471411D01*
X5803759Y7472446D01*
X5801594Y7473318D01*
X5799305Y7474026D01*
X5796893Y7474570D01*
X5794357Y7474951D01*
X5791697Y7475168D01*
X5788914Y7475221D01*
X5814059Y7500366D01*
X5814112Y7497583D01*
D02*
G37*
G36*
X3278657Y7469159D02*
X3278226Y7468287D01*
X3277845Y7467167D01*
X3277514Y7465798D01*
X3277235Y7464181D01*
X3276829Y7460199D01*
X3276625Y7455222D01*
X3276600Y7452360D01*
X3246120D01*
X3246095Y7455222D01*
X3245485Y7464181D01*
X3245206Y7465798D01*
X3244875Y7467167D01*
X3244494Y7468287D01*
X3244063Y7469159D01*
X3243580Y7469781D01*
X3279140D01*
X3278657Y7469159D01*
D02*
G37*
G36*
X9640029Y7496556D02*
X9638839Y7497663D01*
X9637555Y7498653D01*
X9636175Y7499526D01*
X9634699Y7500283D01*
X9633129Y7500924D01*
X9631463Y7501448D01*
X9629701Y7501856D01*
X9627845Y7502147D01*
X9625893Y7502322D01*
X9623846Y7502380D01*
Y7519180D01*
X9625893Y7519238D01*
X9627845Y7519413D01*
X9629701Y7519704D01*
X9631463Y7520112D01*
X9633129Y7520636D01*
X9634699Y7521277D01*
X9636175Y7522034D01*
X9637555Y7522907D01*
X9638839Y7523897D01*
X9640029Y7525004D01*
Y7496556D01*
D02*
G37*
G36*
X11051598Y7519113D02*
X11051806Y7517505D01*
X11052164Y7515911D01*
X11052672Y7514332D01*
X11053329Y7512769D01*
X11054137Y7511220D01*
X11055094Y7509687D01*
X11056201Y7508168D01*
X11057457Y7506664D01*
X11058864Y7505175D01*
X11046985Y7493296D01*
X11045496Y7494703D01*
X11043992Y7495959D01*
X11042473Y7497066D01*
X11040940Y7498023D01*
X11039391Y7498831D01*
X11037828Y7499488D01*
X11036249Y7499996D01*
X11034655Y7500354D01*
X11033047Y7500562D01*
X11031423Y7500621D01*
X11051539Y7520737D01*
X11051598Y7519113D01*
D02*
G37*
G36*
X11483108Y7320700D02*
X11482937Y7322296D01*
X11482424Y7323724D01*
X11481568Y7324984D01*
X11480371Y7326076D01*
X11478832Y7327000D01*
X11476950Y7327756D01*
X11474727Y7328344D01*
X11472161Y7328764D01*
X11470035Y7328948D01*
X11467947Y7328764D01*
X11465427Y7328344D01*
X11463243Y7327756D01*
X11461395Y7327000D01*
X11459883Y7326076D01*
X11458707Y7324984D01*
X11457867Y7323724D01*
X11457363Y7322296D01*
X11457195Y7320700D01*
Y7354299D01*
X11457363Y7352704D01*
X11457867Y7351276D01*
X11458707Y7350016D01*
X11459883Y7348924D01*
X11461395Y7348000D01*
X11463243Y7347244D01*
X11465427Y7346656D01*
X11467947Y7346236D01*
X11470035Y7346052D01*
X11472161Y7346236D01*
X11474727Y7346656D01*
X11476950Y7347244D01*
X11478832Y7348000D01*
X11480371Y7348924D01*
X11481568Y7350016D01*
X11482424Y7351276D01*
X11482937Y7352704D01*
X11483108Y7354299D01*
Y7320700D01*
D02*
G37*
G36*
X11113364Y7359625D02*
X11113616Y7356717D01*
X11114036Y7354152D01*
X11114624Y7351928D01*
X11115380Y7350047D01*
X11116304Y7348507D01*
X11117396Y7347310D01*
X11118656Y7346455D01*
X11120084Y7345941D01*
X11121680Y7345770D01*
X11088080D01*
X11089676Y7345941D01*
X11091104Y7346455D01*
X11092364Y7347310D01*
X11093456Y7348507D01*
X11094380Y7350047D01*
X11095136Y7351928D01*
X11095724Y7354152D01*
X11096144Y7356717D01*
X11096396Y7359625D01*
X11096480Y7362875D01*
X11113280D01*
X11113364Y7359625D01*
D02*
G37*
G36*
X11565548Y7409112D02*
X11563115Y7410721D01*
X11558343Y7413431D01*
X11556003Y7414532D01*
X11553693Y7415463D01*
X11551414Y7416225D01*
X11549165Y7416818D01*
X11546947Y7417241D01*
X11546828Y7417255D01*
X11544661Y7416894D01*
X11542679Y7416361D01*
X11541003Y7415675D01*
X11539631Y7414837D01*
X11538565Y7413846D01*
X11537803Y7412703D01*
X11537345Y7411408D01*
X11537193Y7409960D01*
Y7440440D01*
X11537345Y7438992D01*
X11537803Y7437697D01*
X11538565Y7436554D01*
X11539631Y7435563D01*
X11541003Y7434725D01*
X11542679Y7434039D01*
X11544661Y7433506D01*
X11544869Y7433471D01*
X11546245Y7433829D01*
X11548309Y7434614D01*
X11550285Y7435623D01*
X11552171Y7436856D01*
X11553969Y7438314D01*
X11555677Y7439996D01*
X11557297Y7441902D01*
X11558828Y7444032D01*
X11565548Y7409112D01*
D02*
G37*
G36*
X10055617Y7403169D02*
X10056849Y7402239D01*
X10058187Y7401418D01*
X10059630Y7400706D01*
X10061179Y7400104D01*
X10062834Y7399611D01*
X10064595Y7399228D01*
X10066461Y7398954D01*
X10068434Y7398790D01*
X10070511Y7398735D01*
Y7381235D01*
X10068434Y7381180D01*
X10066461Y7381016D01*
X10064595Y7380742D01*
X10062834Y7380359D01*
X10061179Y7379867D01*
X10059630Y7379265D01*
X10058187Y7378553D01*
X10056849Y7377732D01*
X10055617Y7376801D01*
X10054491Y7375761D01*
Y7404209D01*
X10055617Y7403169D01*
D02*
G37*
G36*
X13584828Y8369902D02*
X13584949Y8368693D01*
X13585146Y8363856D01*
X13585400Y8330000D01*
X13534599D01*
X13534508Y8337658D01*
X13533113Y8355795D01*
X13532275Y8360229D01*
X13531253Y8363856D01*
X13530045Y8366677D01*
X13528650Y8368693D01*
X13527071Y8369902D01*
X13525304Y8370305D01*
X13584694D01*
X13584828Y8369902D01*
D02*
G37*
G36*
X11572803Y8327805D02*
X11572628Y8326917D01*
X11572103Y8326122D01*
X11571228Y8325420D01*
X11570003Y8324813D01*
X11568428Y8324299D01*
X11566503Y8323878D01*
X11564228Y8323551D01*
X11561603Y8323317D01*
X11555303Y8323130D01*
Y8340630D01*
X11558663Y8340717D01*
X11561673Y8340980D01*
X11564331Y8341417D01*
X11566639Y8342030D01*
X11568595Y8342817D01*
X11570200Y8343780D01*
X11571453Y8344918D01*
X11572356Y8346230D01*
X11572907Y8347718D01*
X11573108Y8349380D01*
X11572803Y8327805D01*
D02*
G37*
G36*
X10228709Y8430840D02*
X10230194Y8429636D01*
X10231722Y8428575D01*
X10233292Y8427658D01*
X10234906Y8426885D01*
X10236562Y8426256D01*
X10238262Y8425771D01*
X10240004Y8425430D01*
X10241789Y8425232D01*
X10243617Y8425179D01*
X10223501Y8405063D01*
X10223448Y8406891D01*
X10223250Y8408676D01*
X10222909Y8410418D01*
X10222424Y8412118D01*
X10221795Y8413774D01*
X10221022Y8415388D01*
X10220105Y8416958D01*
X10219044Y8418486D01*
X10217840Y8419971D01*
X10216491Y8421413D01*
X10227267Y8432189D01*
X10228709Y8430840D01*
D02*
G37*
G36*
X10318989Y8416040D02*
X10320474Y8414836D01*
X10322002Y8413775D01*
X10323572Y8412858D01*
X10325186Y8412085D01*
X10326842Y8411456D01*
X10328542Y8410971D01*
X10330284Y8410630D01*
X10332069Y8410432D01*
X10333897Y8410379D01*
X10313781Y8390263D01*
X10313728Y8392091D01*
X10313530Y8393876D01*
X10313189Y8395618D01*
X10312704Y8397318D01*
X10312075Y8398974D01*
X10311302Y8400587D01*
X10310385Y8402158D01*
X10309324Y8403686D01*
X10308120Y8405171D01*
X10306771Y8406613D01*
X10317547Y8417389D01*
X10318989Y8416040D01*
D02*
G37*
G36*
X11499178Y8302312D02*
X11497690Y8301777D01*
X11496378Y8300887D01*
X11495240Y8299641D01*
X11494277Y8298038D01*
X11493490Y8296080D01*
X11492877Y8293765D01*
X11492440Y8291094D01*
X11492177Y8288068D01*
X11492090Y8284685D01*
X11474590D01*
X11474503Y8288068D01*
X11474240Y8291094D01*
X11473803Y8293765D01*
X11473190Y8296080D01*
X11472403Y8298038D01*
X11471440Y8299641D01*
X11470302Y8300887D01*
X11468990Y8301777D01*
X11467502Y8302312D01*
X11465840Y8302490D01*
X11500840D01*
X11499178Y8302312D01*
D02*
G37*
G36*
X8137961Y8212039D02*
X8135915Y8210130D01*
X8134085Y8208709D01*
X8132470Y8207775D01*
X8131071Y8207329D01*
X8129886Y8207371D01*
X8128917Y8207900D01*
X8128164Y8208917D01*
X8127626Y8210422D01*
X8127303Y8212415D01*
X8127195Y8214895D01*
X8074685Y8214590D01*
X8073870Y8214918D01*
X8073843Y8215914D01*
X8074606Y8217579D01*
X8076158Y8219913D01*
X8078498Y8222915D01*
X8085547Y8230927D01*
X8102039Y8247961D01*
X8137961Y8212039D01*
D02*
G37*
G36*
X3978479Y8419961D02*
X3992719Y8407769D01*
X3999577Y8402816D01*
X4006261Y8398625D01*
X4012770Y8395196D01*
X4019104Y8392529D01*
X4025264Y8390624D01*
X4031250Y8389481D01*
X4037061Y8389100D01*
Y8358620D01*
X4031250Y8358239D01*
X4025264Y8357096D01*
X4019104Y8355191D01*
X4012770Y8352524D01*
X4006261Y8349095D01*
X3999577Y8344904D01*
X3992719Y8339951D01*
X3985687Y8334236D01*
X3971098Y8320520D01*
Y8427200D01*
X3978479Y8419961D01*
D02*
G37*
G36*
X11510710Y8347718D02*
X11511235Y8346230D01*
X11512110Y8344918D01*
X11513335Y8343780D01*
X11514910Y8342817D01*
X11516835Y8342030D01*
X11519110Y8341417D01*
X11521735Y8340980D01*
X11524710Y8340717D01*
X11528035Y8340630D01*
Y8323130D01*
X11524710Y8323043D01*
X11521735Y8322780D01*
X11519110Y8322343D01*
X11516835Y8321730D01*
X11514910Y8320942D01*
X11513335Y8319980D01*
X11512110Y8318842D01*
X11511235Y8317530D01*
X11510710Y8316042D01*
X11510535Y8314380D01*
Y8349380D01*
X11510710Y8347718D01*
D02*
G37*
G36*
X11657961Y8482040D02*
X11650577Y8474516D01*
X11630545Y8451129D01*
X11627913Y8446958D01*
X11626232Y8443458D01*
X11625500Y8440629D01*
X11625719Y8438471D01*
X11626888Y8436983D01*
X11572803Y8474895D01*
X11574334Y8475254D01*
X11576461Y8476332D01*
X11579183Y8478128D01*
X11582500Y8480642D01*
X11590918Y8487827D01*
X11614895Y8510816D01*
X11657961Y8482040D01*
D02*
G37*
G36*
X10449394Y8596279D02*
X10449994Y8594584D01*
X10450686Y8592926D01*
X10451470Y8591305D01*
X10452345Y8589721D01*
X10453312Y8588174D01*
X10454371Y8586665D01*
X10456764Y8583757D01*
X10458097Y8582359D01*
X10450564Y8568339D01*
X10449085Y8569711D01*
X10447585Y8570887D01*
X10446064Y8571868D01*
X10444521Y8572655D01*
X10442958Y8573247D01*
X10441373Y8573644D01*
X10439768Y8573845D01*
X10438141Y8573853D01*
X10436493Y8573665D01*
X10434824Y8573282D01*
X10448886Y8598012D01*
X10449394Y8596279D01*
D02*
G37*
G36*
X9846645Y8567821D02*
X9845904Y8568609D01*
X9845073Y8569146D01*
X9844152Y8569432D01*
X9843139Y8569466D01*
X9842037Y8569248D01*
X9840843Y8568779D01*
X9839559Y8568059D01*
X9838185Y8567086D01*
X9836720Y8565863D01*
X9835164Y8564388D01*
X9828650Y8579426D01*
X9847431Y8593390D01*
X9846645Y8567821D01*
D02*
G37*
G36*
X12371981Y8592820D02*
X12370432Y8594268D01*
X12368775Y8595563D01*
X12367010Y8596706D01*
X12365135Y8597697D01*
X12363151Y8598535D01*
X12361059Y8599221D01*
X12358857Y8599754D01*
X12356547Y8600135D01*
X12354128Y8600364D01*
X12351600Y8600440D01*
Y8620760D01*
X12354128Y8620836D01*
X12356547Y8621065D01*
X12358857Y8621446D01*
X12361059Y8621979D01*
X12363151Y8622665D01*
X12365135Y8623503D01*
X12367010Y8624494D01*
X12368775Y8625637D01*
X12370432Y8626932D01*
X12371981Y8628380D01*
Y8592820D01*
D02*
G37*
G36*
X10361429Y8606612D02*
X10360080Y8605170D01*
X10358876Y8603686D01*
X10357815Y8602158D01*
X10356898Y8600587D01*
X10356125Y8598974D01*
X10355496Y8597318D01*
X10355011Y8595618D01*
X10354670Y8593876D01*
X10354472Y8592091D01*
X10354419Y8590263D01*
X10334303Y8610379D01*
X10336131Y8610432D01*
X10337916Y8610629D01*
X10339658Y8610971D01*
X10341358Y8611456D01*
X10343014Y8612085D01*
X10344628Y8612858D01*
X10346198Y8613775D01*
X10347726Y8614836D01*
X10349211Y8616040D01*
X10350653Y8617389D01*
X10361429Y8606612D01*
D02*
G37*
G36*
X11544046Y8488681D02*
X11543265Y8488582D01*
X11542343Y8488272D01*
X11541282Y8487749D01*
X11540081Y8487015D01*
X11538739Y8486068D01*
X11535636Y8483540D01*
X11531973Y8480165D01*
X11529931Y8478159D01*
X11508379Y8499711D01*
X11510385Y8501753D01*
X11516288Y8508519D01*
X11517235Y8509861D01*
X11517969Y8511062D01*
X11518492Y8512123D01*
X11518802Y8513045D01*
X11518901Y8513826D01*
X11544046Y8488681D01*
D02*
G37*
G36*
X10760042Y8504189D02*
X10761444Y8503067D01*
X10762917Y8502076D01*
X10764461Y8501217D01*
X10766078Y8500491D01*
X10767765Y8499897D01*
X10769524Y8499434D01*
X10771354Y8499104D01*
X10773256Y8498906D01*
X10775229Y8498840D01*
Y8483600D01*
X10773256Y8483534D01*
X10771354Y8483336D01*
X10769524Y8483006D01*
X10767765Y8482543D01*
X10766078Y8481949D01*
X10764461Y8481223D01*
X10762917Y8480364D01*
X10761444Y8479373D01*
X10760042Y8478251D01*
X10758711Y8476996D01*
Y8505444D01*
X10760042Y8504189D01*
D02*
G37*
G36*
X10318989Y8516040D02*
X10320474Y8514836D01*
X10322002Y8513775D01*
X10323572Y8512858D01*
X10325186Y8512085D01*
X10326842Y8511456D01*
X10328542Y8510971D01*
X10330284Y8510629D01*
X10332069Y8510432D01*
X10333897Y8510379D01*
X10313781Y8490263D01*
X10313728Y8492091D01*
X10313530Y8493876D01*
X10313189Y8495618D01*
X10312704Y8497318D01*
X10312075Y8498974D01*
X10311302Y8500587D01*
X10310385Y8502158D01*
X10309324Y8503686D01*
X10308120Y8505170D01*
X10306771Y8506612D01*
X10317547Y8517389D01*
X10318989Y8516040D01*
D02*
G37*
G36*
X13445100Y8128000D02*
X13322137D01*
X13311716Y8140700D01*
X13312726Y8145780D01*
X13309215Y8163432D01*
X13299216Y8178396D01*
X13284251Y8188395D01*
X13266600Y8191906D01*
X13126599D01*
X13117441Y8190084D01*
X13104741Y8199696D01*
Y8218864D01*
X13117441Y8228476D01*
X13126599Y8226654D01*
X13266600D01*
X13284251Y8230165D01*
X13299216Y8240164D01*
X13309215Y8255128D01*
X13312726Y8272780D01*
X13309215Y8290432D01*
X13299216Y8305396D01*
X13284251Y8315395D01*
X13266600Y8318906D01*
X13126599D01*
X13117441Y8317084D01*
X13104741Y8326696D01*
Y8345864D01*
X13117441Y8355476D01*
X13126599Y8353654D01*
X13266600D01*
X13284251Y8357165D01*
X13299216Y8367164D01*
X13309215Y8382128D01*
X13312726Y8399780D01*
X13309215Y8417432D01*
X13299216Y8432396D01*
X13284251Y8442395D01*
X13266600Y8445906D01*
X13126599D01*
X13117441Y8444084D01*
X13104741Y8453696D01*
Y8472864D01*
X13117441Y8482476D01*
X13126599Y8480654D01*
X13266600D01*
X13284251Y8484165D01*
X13299216Y8494164D01*
X13309215Y8509128D01*
X13312726Y8526780D01*
X13309215Y8544432D01*
X13299216Y8559396D01*
X13284251Y8569395D01*
X13266600Y8572906D01*
X13126599D01*
X13117441Y8571084D01*
X13104741Y8580696D01*
Y8686800D01*
X13445100D01*
Y8128000D01*
D02*
G37*
G36*
X10025449Y7929544D02*
X10028322Y7927122D01*
X10029803Y7926035D01*
X10032857Y7924110D01*
X10034429Y7923271D01*
X10037664Y7921841D01*
X10039327Y7921250D01*
X10013820Y7908652D01*
X10014284Y7910262D01*
X10014543Y7911857D01*
X10014597Y7913440D01*
X10014448Y7915008D01*
X10014093Y7916563D01*
X10013534Y7918104D01*
X10012771Y7919631D01*
X10011803Y7921145D01*
X10010630Y7922644D01*
X10009254Y7924130D01*
X10024058Y7930878D01*
X10025449Y7929544D01*
D02*
G37*
G36*
X7699485Y7897125D02*
X7699190Y7896645D01*
X7698306Y7896216D01*
X7696831Y7895837D01*
X7694767Y7895509D01*
X7692114Y7895231D01*
X7680615Y7894701D01*
X7670000Y7894600D01*
Y7945400D01*
X7675656Y7945441D01*
X7695012Y7946871D01*
X7697099Y7947402D01*
X7698591Y7948014D01*
X7699488Y7948709D01*
X7699790Y7949485D01*
X7699485Y7897125D01*
D02*
G37*
G36*
X7124525Y7976210D02*
X7126559Y7974482D01*
X7128622Y7972958D01*
X7130712Y7971638D01*
X7132831Y7970520D01*
X7134979Y7969606D01*
X7137154Y7968894D01*
X7139358Y7968386D01*
X7141590Y7968082D01*
X7143850Y7967980D01*
Y7952740D01*
X7141590Y7952638D01*
X7139358Y7952334D01*
X7137154Y7951826D01*
X7134979Y7951114D01*
X7132831Y7950200D01*
X7130712Y7949082D01*
X7128622Y7947762D01*
X7126559Y7946238D01*
X7124525Y7944510D01*
X7122519Y7942580D01*
Y7978140D01*
X7124525Y7976210D01*
D02*
G37*
G36*
X7592162Y7939150D02*
X7592466Y7936918D01*
X7592974Y7934714D01*
X7593686Y7932539D01*
X7594600Y7930391D01*
X7595718Y7928272D01*
X7597038Y7926182D01*
X7598562Y7924119D01*
X7600290Y7922085D01*
X7602220Y7920079D01*
X7566660D01*
X7568590Y7922085D01*
X7570318Y7924119D01*
X7571842Y7926182D01*
X7573162Y7928272D01*
X7574280Y7930391D01*
X7575194Y7932539D01*
X7575906Y7934714D01*
X7576414Y7936918D01*
X7576718Y7939150D01*
X7576820Y7941410D01*
X7592060D01*
X7592162Y7939150D01*
D02*
G37*
G36*
X13111623Y7865841D02*
X13110033Y7866909D01*
X13108191Y7867864D01*
X13106100Y7868707D01*
X13103758Y7869437D01*
X13101164Y7870055D01*
X13098322Y7870561D01*
X13091882Y7871235D01*
X13088286Y7871404D01*
X13084441Y7871460D01*
X13076326Y7891780D01*
X13081261Y7891880D01*
X13089348Y7892684D01*
X13092500Y7893387D01*
X13095061Y7894291D01*
X13097025Y7895396D01*
X13098396Y7896701D01*
X13099173Y7898208D01*
X13099356Y7899915D01*
X13098946Y7901823D01*
X13111623Y7865841D01*
D02*
G37*
G36*
X13052428Y7897952D02*
X13054085Y7896657D01*
X13055850Y7895514D01*
X13057726Y7894523D01*
X13059709Y7893685D01*
X13061801Y7892999D01*
X13064003Y7892466D01*
X13066313Y7892085D01*
X13068732Y7891856D01*
X13071260Y7891780D01*
Y7871460D01*
X13068732Y7871384D01*
X13066313Y7871155D01*
X13064003Y7870774D01*
X13061801Y7870241D01*
X13059709Y7869555D01*
X13057726Y7868717D01*
X13055850Y7867726D01*
X13054085Y7866583D01*
X13052428Y7865288D01*
X13050879Y7863840D01*
Y7899400D01*
X13052428Y7897952D01*
D02*
G37*
G36*
X11881488Y7915732D02*
X11883145Y7914437D01*
X11884910Y7913294D01*
X11886785Y7912303D01*
X11888769Y7911465D01*
X11890861Y7910779D01*
X11893063Y7910246D01*
X11895373Y7909865D01*
X11897792Y7909636D01*
X11900320Y7909560D01*
Y7889240D01*
X11897792Y7889164D01*
X11895373Y7888935D01*
X11893063Y7888554D01*
X11890861Y7888021D01*
X11888769Y7887335D01*
X11886785Y7886497D01*
X11884910Y7885506D01*
X11883145Y7884363D01*
X11881488Y7883068D01*
X11879939Y7881620D01*
Y7917180D01*
X11881488Y7915732D01*
D02*
G37*
G36*
X11924746Y7879080D02*
X11924543Y7881010D01*
X11923933Y7882738D01*
X11922917Y7884262D01*
X11921495Y7885582D01*
X11919666Y7886700D01*
X11917431Y7887614D01*
X11914789Y7888326D01*
X11911741Y7888834D01*
X11908287Y7889138D01*
X11904426Y7889240D01*
Y7909560D01*
X11908287Y7909642D01*
X11914789Y7910296D01*
X11917431Y7910868D01*
X11919666Y7911604D01*
X11921495Y7912503D01*
X11922917Y7913566D01*
X11923933Y7914792D01*
X11924543Y7916182D01*
X11924746Y7917735D01*
Y7879080D01*
D02*
G37*
G36*
X13408247Y8000062D02*
X13406920Y7997283D01*
X13405750Y7993694D01*
X13405032Y7990590D01*
X13412080D01*
X13410150Y7990384D01*
X13408423Y7989765D01*
X13406898Y7988734D01*
X13405579Y7987290D01*
X13404462Y7985434D01*
X13403860Y7983942D01*
X13402625Y7971242D01*
X13401999Y7955158D01*
X13401921Y7945901D01*
X13381601D01*
X13381523Y7955158D01*
X13379657Y7983956D01*
X13379060Y7985434D01*
X13377943Y7987290D01*
X13376622Y7988734D01*
X13375098Y7989765D01*
X13373370Y7990384D01*
X13371442Y7990590D01*
X13378490D01*
X13377773Y7993694D01*
X13376601Y7997283D01*
X13375273Y8000062D01*
X13373788Y8002031D01*
X13409734D01*
X13408247Y8000062D01*
D02*
G37*
G36*
X8073110Y8082280D02*
X8072954Y8083728D01*
X8072488Y8085023D01*
X8071711Y8086166D01*
X8070623Y8087157D01*
X8069224Y8087995D01*
X8067514Y8088681D01*
X8065493Y8089214D01*
X8063161Y8089595D01*
X8060519Y8089824D01*
X8060023Y8089836D01*
X8059537Y8089824D01*
X8056947Y8089595D01*
X8054661Y8089214D01*
X8052679Y8088681D01*
X8051003Y8087995D01*
X8049631Y8087157D01*
X8048565Y8086166D01*
X8047803Y8085023D01*
X8047345Y8083728D01*
X8047193Y8082280D01*
Y8112760D01*
X8047345Y8111312D01*
X8047803Y8110017D01*
X8048565Y8108874D01*
X8049631Y8107883D01*
X8051003Y8107045D01*
X8052679Y8106359D01*
X8054661Y8105826D01*
X8056947Y8105445D01*
X8059537Y8105216D01*
X8060023Y8105204D01*
X8060519Y8105216D01*
X8063161Y8105445D01*
X8065493Y8105826D01*
X8067514Y8106359D01*
X8069224Y8107045D01*
X8070623Y8107883D01*
X8071711Y8108874D01*
X8072488Y8110017D01*
X8072954Y8111312D01*
X8073110Y8112760D01*
Y8082280D01*
D02*
G37*
G36*
X8127347Y8111312D02*
X8127805Y8110017D01*
X8128567Y8108874D01*
X8129633Y8107883D01*
X8131005Y8107045D01*
X8132681Y8106359D01*
X8134663Y8105826D01*
X8136949Y8105445D01*
X8139539Y8105216D01*
X8142435Y8105140D01*
Y8089900D01*
X8139539Y8089824D01*
X8136949Y8089595D01*
X8134663Y8089214D01*
X8132681Y8088681D01*
X8131005Y8087995D01*
X8129633Y8087157D01*
X8128567Y8086166D01*
X8127805Y8085023D01*
X8127347Y8083728D01*
X8127195Y8082280D01*
Y8112760D01*
X8127347Y8111312D01*
D02*
G37*
G36*
X7992803Y8155505D02*
X7992498Y8157263D01*
X7991584Y8158837D01*
X7990060Y8160225D01*
X7987926Y8161428D01*
X7985183Y8162446D01*
X7981830Y8163279D01*
X7977868Y8163927D01*
X7973296Y8164390D01*
X7962323Y8164760D01*
Y8195240D01*
X7968157Y8195392D01*
X7973379Y8195849D01*
X7977988Y8196611D01*
X7981985Y8197678D01*
X7985369Y8199050D01*
X7988142Y8200726D01*
X7990302Y8202707D01*
X7991849Y8204993D01*
X7992785Y8207584D01*
X7993108Y8210480D01*
X7992803Y8155505D01*
D02*
G37*
G36*
X10837909Y8130198D02*
X10819741Y8111819D01*
X10819733Y8112963D01*
X10819488Y8113986D01*
X10819008Y8114890D01*
X10818292Y8115672D01*
X10817341Y8116335D01*
X10816153Y8116877D01*
X10814730Y8117298D01*
X10813071Y8117599D01*
X10811177Y8117780D01*
X10809046Y8117840D01*
X10814619Y8133080D01*
X10837909Y8130198D01*
D02*
G37*
G36*
X12081622Y7992841D02*
X12080980Y7992944D01*
X12079337Y7993035D01*
X12030120Y7993380D01*
Y8044180D01*
X12081622Y8044719D01*
Y7992841D01*
D02*
G37*
G36*
X10873184Y7994363D02*
X10872254Y7993131D01*
X10871432Y7991793D01*
X10870721Y7990350D01*
X10870119Y7988801D01*
X10869626Y7987146D01*
X10869243Y7985385D01*
X10868969Y7983519D01*
X10868805Y7981546D01*
X10868750Y7979468D01*
X10851250D01*
X10851195Y7981546D01*
X10851031Y7983519D01*
X10850757Y7985385D01*
X10850374Y7987146D01*
X10849882Y7988801D01*
X10849280Y7990350D01*
X10848568Y7991793D01*
X10847747Y7993131D01*
X10846816Y7994363D01*
X10845776Y7995489D01*
X10874224D01*
X10873184Y7994363D01*
D02*
G37*
G36*
X6310465Y8112110D02*
X6312499Y8110382D01*
X6314562Y8108858D01*
X6316652Y8107538D01*
X6318771Y8106420D01*
X6320919Y8105506D01*
X6323094Y8104794D01*
X6325298Y8104286D01*
X6327530Y8103982D01*
X6329790Y8103880D01*
Y8088640D01*
X6327530Y8088538D01*
X6325298Y8088234D01*
X6323094Y8087726D01*
X6320919Y8087014D01*
X6318771Y8086100D01*
X6316652Y8084982D01*
X6314562Y8083662D01*
X6312499Y8082138D01*
X6310465Y8080410D01*
X6308459Y8078480D01*
Y8114040D01*
X6310465Y8112110D01*
D02*
G37*
G36*
X13342065Y7990285D02*
X13341557Y7991101D01*
X13340034Y7991831D01*
X13337494Y7992476D01*
X13333939Y7993034D01*
X13329366Y7993506D01*
X13317754Y7994035D01*
X13280415Y7991552D01*
X13277008Y7990748D01*
X13274350Y7989849D01*
Y8047711D01*
X13275928Y8047268D01*
X13278407Y8046872D01*
X13281792Y8046522D01*
X13297363Y8045753D01*
X13304530Y8045673D01*
X13340034Y8048129D01*
X13341557Y8048859D01*
X13342065Y8049675D01*
Y7990285D01*
D02*
G37*
G36*
X10753641Y7094738D02*
X10753083Y7093700D01*
X10752775Y7092601D01*
X10752716Y7091439D01*
X10752908Y7090215D01*
X10753350Y7088928D01*
X10754042Y7087579D01*
X10754984Y7086168D01*
X10756176Y7084695D01*
X10757618Y7083159D01*
X10743551Y7075673D01*
X10728143Y7093498D01*
X10754449Y7095713D01*
X10753641Y7094738D01*
D02*
G37*
G36*
X4047405Y5151247D02*
X4048177Y5149088D01*
X4049462Y5147183D01*
X4051261Y5145532D01*
X4053575Y5144135D01*
X4056402Y5142992D01*
X4059744Y5142103D01*
X4063599Y5141468D01*
X4067969Y5141087D01*
X4072853Y5140960D01*
Y5115560D01*
X4067969Y5115433D01*
X4063599Y5115052D01*
X4059744Y5114417D01*
X4056402Y5113528D01*
X4053575Y5112385D01*
X4051261Y5110988D01*
X4049462Y5109337D01*
X4048177Y5107432D01*
X4047405Y5105273D01*
X4047148Y5102860D01*
Y5153660D01*
X4047405Y5151247D01*
D02*
G37*
G36*
X3690746Y5133695D02*
X3692016Y5132831D01*
X3693469Y5132069D01*
X3695105Y5131409D01*
X3696923Y5130850D01*
X3698925Y5130393D01*
X3699407Y5130314D01*
X3703713Y5130615D01*
X3705999Y5131071D01*
X3707777Y5131609D01*
X3709047Y5132230D01*
X3709809Y5132934D01*
X3710063Y5133720D01*
Y5100040D01*
X3709809Y5100826D01*
X3709047Y5101530D01*
X3707777Y5102151D01*
X3705999Y5102690D01*
X3703713Y5103145D01*
X3700919Y5103518D01*
X3700170Y5103570D01*
X3698925Y5103367D01*
X3696923Y5102910D01*
X3695105Y5102351D01*
X3693469Y5101691D01*
X3692016Y5100929D01*
X3690746Y5100065D01*
X3689659Y5099100D01*
Y5104090D01*
X3684663Y5104180D01*
Y5129580D01*
X3689489Y5129621D01*
X3689659Y5129633D01*
Y5134660D01*
X3690746Y5133695D01*
D02*
G37*
G36*
X7010737Y5158454D02*
X7011185Y5158346D01*
X7011848Y5158251D01*
X7013822Y5158099D01*
X7020357Y5157946D01*
X7022529Y5157940D01*
Y5132540D01*
X7010505Y5131905D01*
Y5158575D01*
X7010737Y5158454D01*
D02*
G37*
G36*
X7024349Y5167818D02*
X7025111Y5165745D01*
X7026381Y5163916D01*
X7028159Y5162330D01*
X7030445Y5160989D01*
X7033239Y5159891D01*
X7036541Y5159037D01*
X7040351Y5158428D01*
X7041339Y5158344D01*
X7046159Y5158794D01*
X7049461Y5159459D01*
X7052255Y5160314D01*
X7054541Y5161358D01*
X7056319Y5162593D01*
X7057589Y5164017D01*
X7058351Y5165631D01*
X7058605Y5167435D01*
Y5119840D01*
X7058351Y5122253D01*
X7057589Y5124412D01*
X7056319Y5126317D01*
X7054541Y5127968D01*
X7052255Y5129365D01*
X7049461Y5130508D01*
X7046159Y5131397D01*
X7042349Y5132032D01*
X7041350Y5132120D01*
X7040351Y5132032D01*
X7036541Y5131397D01*
X7033239Y5130508D01*
X7030445Y5129365D01*
X7028159Y5127968D01*
X7026381Y5126317D01*
X7025111Y5124412D01*
X7024349Y5122253D01*
X7024095Y5119840D01*
Y5170135D01*
X7024349Y5167818D01*
D02*
G37*
G36*
X3754657Y5082451D02*
X3755266Y5081315D01*
X3756282Y5080313D01*
X3757705Y5079445D01*
X3759534Y5078710D01*
X3761769Y5078109D01*
X3764410Y5077641D01*
X3767458Y5077307D01*
X3774774Y5077040D01*
Y5056720D01*
X3770913Y5056653D01*
X3764410Y5056119D01*
X3761769Y5055651D01*
X3759534Y5055050D01*
X3757705Y5054315D01*
X3756282Y5053447D01*
X3755266Y5052445D01*
X3754657Y5051309D01*
X3754454Y5050040D01*
Y5083720D01*
X3754657Y5082451D01*
D02*
G37*
G36*
X4348338Y5049915D02*
X4352101Y5046726D01*
X4353897Y5045433D01*
X4355635Y5044341D01*
X4357316Y5043450D01*
X4358940Y5042761D01*
X4360506Y5042272D01*
X4362015Y5041985D01*
X4363466Y5041899D01*
X4338321Y5016754D01*
X4338235Y5018205D01*
X4337948Y5019714D01*
X4337459Y5021280D01*
X4336770Y5022904D01*
X4335879Y5024585D01*
X4334787Y5026323D01*
X4333494Y5028119D01*
X4332000Y5029972D01*
X4328409Y5033850D01*
X4346370Y5051811D01*
X4348338Y5049915D01*
D02*
G37*
G36*
X6569407Y5087620D02*
X6569150Y5090033D01*
X6568379Y5092192D01*
X6567094Y5094097D01*
X6565295Y5095748D01*
X6562981Y5097145D01*
X6560154Y5098288D01*
X6556812Y5099177D01*
X6552956Y5099812D01*
X6548587Y5100193D01*
X6543703Y5100320D01*
Y5125720D01*
X6548587Y5125847D01*
X6552956Y5126228D01*
X6556812Y5126863D01*
X6560154Y5127752D01*
X6562981Y5128895D01*
X6565295Y5130292D01*
X6567094Y5131943D01*
X6568379Y5133848D01*
X6569150Y5136007D01*
X6569407Y5138420D01*
Y5087620D01*
D02*
G37*
G36*
X6616827Y5085571D02*
X6614668Y5084809D01*
X6612763Y5083539D01*
X6611112Y5081761D01*
X6609715Y5079475D01*
X6608572Y5076681D01*
X6607683Y5073379D01*
X6607305Y5071110D01*
X6607683Y5068841D01*
X6608572Y5065539D01*
X6609715Y5062745D01*
X6611112Y5060459D01*
X6612763Y5058681D01*
X6614668Y5057411D01*
X6616827Y5056649D01*
X6619240Y5056395D01*
X6568440D01*
X6570853Y5056649D01*
X6573012Y5057411D01*
X6574917Y5058681D01*
X6576568Y5060459D01*
X6577965Y5062745D01*
X6579108Y5065539D01*
X6579997Y5068841D01*
X6580395Y5071233D01*
X6580056Y5073379D01*
X6579214Y5076681D01*
X6578131Y5079475D01*
X6576807Y5081761D01*
X6575242Y5083539D01*
X6573436Y5084809D01*
X6571390Y5085571D01*
X6569103Y5085825D01*
X6619240D01*
X6616827Y5085571D01*
D02*
G37*
G36*
X3900568Y5132207D02*
X3909934Y5132120D01*
Y5101640D01*
X3900363Y5101138D01*
X3900363Y5101065D01*
X3900186Y5101128D01*
X3879454Y5100040D01*
Y5101563D01*
X3869883Y5101640D01*
Y5132120D01*
X3875714Y5132272D01*
X3879454Y5132600D01*
Y5133720D01*
X3879758Y5133416D01*
X3880673Y5133144D01*
X3882090Y5132921D01*
X3885541Y5133492D01*
X3889537Y5134558D01*
X3892921Y5135930D01*
X3895694Y5137606D01*
X3897855Y5139588D01*
X3899404Y5141874D01*
X3900342Y5144464D01*
X3900668Y5147360D01*
X3900568Y5132207D01*
D02*
G37*
G36*
X3942232Y5180101D02*
X3942690Y5174879D01*
X3943452Y5170269D01*
X3944518Y5166272D01*
X3945890Y5162887D01*
X3947566Y5160115D01*
X3949548Y5157955D01*
X3951834Y5156408D01*
X3954424Y5155473D01*
X3957320Y5155150D01*
X3950014Y5155189D01*
X3950380Y5155150D01*
X3909740D01*
X3911670Y5155356D01*
X3911775Y5155394D01*
X3900363Y5155455D01*
X3902498Y5155760D01*
X3904408Y5156674D01*
X3906094Y5158198D01*
X3907555Y5160332D01*
X3908791Y5163075D01*
X3909802Y5166428D01*
X3910589Y5170390D01*
X3911150Y5174962D01*
X3911488Y5180144D01*
X3911600Y5185935D01*
X3942080D01*
X3942232Y5180101D01*
D02*
G37*
G36*
X3835063Y5150040D02*
X3834860Y5151309D01*
X3834251Y5152445D01*
X3833235Y5153447D01*
X3831812Y5154315D01*
X3829983Y5155050D01*
X3827748Y5155651D01*
X3825107Y5156119D01*
X3822059Y5156453D01*
X3814743Y5156720D01*
Y5177040D01*
X3818604Y5177107D01*
X3825107Y5177641D01*
X3827748Y5178109D01*
X3829983Y5178710D01*
X3831812Y5179445D01*
X3833235Y5180313D01*
X3834251Y5181315D01*
X3834860Y5182451D01*
X3835063Y5183720D01*
Y5150040D01*
D02*
G37*
G36*
X3806332Y5220312D02*
X3805037Y5218655D01*
X3803894Y5216889D01*
X3802903Y5215015D01*
X3802065Y5213031D01*
X3801379Y5210939D01*
X3800846Y5208737D01*
X3800465Y5206427D01*
X3800236Y5204008D01*
X3800160Y5201480D01*
X3779840D01*
X3779764Y5204008D01*
X3779535Y5206427D01*
X3779154Y5208737D01*
X3778621Y5210939D01*
X3777935Y5213031D01*
X3777097Y5215015D01*
X3776106Y5216889D01*
X3774963Y5218655D01*
X3773668Y5220312D01*
X3772220Y5221861D01*
X3807780D01*
X3806332Y5220312D01*
D02*
G37*
G36*
X6813823Y5183204D02*
X6814271Y5183096D01*
X6814935Y5183001D01*
X6816908Y5182848D01*
X6823443Y5182696D01*
X6825616Y5182690D01*
Y5157290D01*
X6813591Y5156655D01*
Y5183325D01*
X6813823Y5183204D01*
D02*
G37*
G36*
X6737746Y5137913D02*
X6732352Y5132373D01*
X6720449Y5118262D01*
X6717907Y5114395D01*
X6716078Y5110947D01*
X6714961Y5107917D01*
X6714557Y5105306D01*
X6714866Y5103113D01*
X6715888Y5101339D01*
X6681921Y5139910D01*
X6683527Y5138720D01*
X6685589Y5138280D01*
X6688107Y5138591D01*
X6691081Y5139651D01*
X6694510Y5141462D01*
X6698396Y5144023D01*
X6702737Y5147334D01*
X6712786Y5156206D01*
X6718495Y5161768D01*
X6737746Y5137913D01*
D02*
G37*
G36*
X6464784Y5162787D02*
X6465028Y5162528D01*
X6472792Y5154708D01*
X6457137Y5134442D01*
X6455596Y5135968D01*
X6449140Y5141685D01*
X6448529Y5142065D01*
X6448051Y5142281D01*
X6447705Y5142334D01*
X6464702Y5162886D01*
X6464784Y5162787D01*
D02*
G37*
G36*
X3710063Y5183720D02*
Y5150040D01*
X3709809Y5151702D01*
X3709047Y5153190D01*
X3707777Y5154502D01*
X3705999Y5155640D01*
X3703713Y5156602D01*
X3700919Y5157390D01*
X3697617Y5158002D01*
X3693807Y5158440D01*
X3689489Y5158702D01*
X3684663Y5158790D01*
Y5184190D01*
X3710063Y5183720D01*
D02*
G37*
G36*
X6611627Y5160731D02*
X6612008Y5156361D01*
X6612643Y5152506D01*
X6613532Y5149164D01*
X6614675Y5146336D01*
X6616072Y5144023D01*
X6617723Y5142224D01*
X6619628Y5140938D01*
X6621787Y5140167D01*
X6624200Y5139910D01*
X6573400D01*
X6575813Y5140167D01*
X6577972Y5140938D01*
X6579877Y5142224D01*
X6581528Y5144023D01*
X6582925Y5146336D01*
X6584068Y5149164D01*
X6584957Y5152506D01*
X6585592Y5156361D01*
X6585973Y5160731D01*
X6586100Y5165615D01*
X6611500D01*
X6611627Y5160731D01*
D02*
G37*
G36*
X3753629Y4866247D02*
X3754391Y4864088D01*
X3755661Y4862183D01*
X3757439Y4860532D01*
X3759725Y4859135D01*
X3762519Y4857992D01*
X3765821Y4857103D01*
X3769631Y4856468D01*
X3773949Y4856087D01*
X3778775Y4855960D01*
Y4830560D01*
X3773949Y4830433D01*
X3769631Y4830052D01*
X3765821Y4829417D01*
X3762519Y4828528D01*
X3759725Y4827385D01*
X3757439Y4825988D01*
X3755661Y4824337D01*
X3754391Y4822432D01*
X3753629Y4820273D01*
X3753375Y4817860D01*
Y4868660D01*
X3753629Y4866247D01*
D02*
G37*
G36*
X4348338Y4844175D02*
X4352101Y4840986D01*
X4353897Y4839693D01*
X4355635Y4838601D01*
X4357316Y4837710D01*
X4358940Y4837021D01*
X4360506Y4836532D01*
X4362015Y4836245D01*
X4363466Y4836159D01*
X4338321Y4811014D01*
X4338235Y4812465D01*
X4337948Y4813974D01*
X4337459Y4815540D01*
X4336770Y4817164D01*
X4335879Y4818845D01*
X4334787Y4820583D01*
X4333494Y4822379D01*
X4332000Y4824232D01*
X4328409Y4828110D01*
X4346370Y4846071D01*
X4348338Y4844175D01*
D02*
G37*
G36*
X3885709Y4866247D02*
X3886471Y4864088D01*
X3887741Y4862183D01*
X3889519Y4860532D01*
X3891805Y4859135D01*
X3894599Y4857992D01*
X3897901Y4857103D01*
X3901711Y4856468D01*
X3906029Y4856087D01*
X3910855Y4855960D01*
Y4830560D01*
X3906029Y4830433D01*
X3901711Y4830052D01*
X3897901Y4829417D01*
X3894599Y4828528D01*
X3891805Y4827385D01*
X3889519Y4825988D01*
X3887741Y4824337D01*
X3886471Y4822432D01*
X3885709Y4820273D01*
X3885455Y4817860D01*
Y4868660D01*
X3885709Y4866247D01*
D02*
G37*
G36*
X3831370Y4817860D02*
X3831113Y4820273D01*
X3830342Y4822432D01*
X3829056Y4824337D01*
X3827257Y4825988D01*
X3824944Y4827385D01*
X3822116Y4828528D01*
X3818774Y4829417D01*
X3814919Y4830052D01*
X3810549Y4830433D01*
X3805665Y4830560D01*
Y4855960D01*
X3810549Y4856087D01*
X3814919Y4856468D01*
X3818774Y4857103D01*
X3822116Y4857992D01*
X3824944Y4859135D01*
X3827257Y4860532D01*
X3829056Y4862183D01*
X3830342Y4864088D01*
X3831113Y4866247D01*
X3831370Y4868660D01*
Y4817860D01*
D02*
G37*
G36*
X4799721Y4006100D02*
X4797715Y4008030D01*
X4795681Y4009758D01*
X4793618Y4011282D01*
X4791528Y4012602D01*
X4789409Y4013720D01*
X4787261Y4014634D01*
X4785086Y4015346D01*
X4782882Y4015854D01*
X4780650Y4016158D01*
X4778390Y4016260D01*
Y4031500D01*
X4780650Y4031602D01*
X4782882Y4031906D01*
X4785086Y4032414D01*
X4787261Y4033126D01*
X4789409Y4034040D01*
X4791528Y4035158D01*
X4793618Y4036478D01*
X4795681Y4038002D01*
X4797715Y4039730D01*
X4799721Y4041660D01*
Y4006100D01*
D02*
G37*
G36*
X15295816Y3794560D02*
X15294516Y3793179D01*
X15293355Y3791775D01*
X15292332Y3790348D01*
X15291447Y3788897D01*
X15290701Y3787424D01*
X15290094Y3785927D01*
X15289626Y3784408D01*
X15289294Y3782865D01*
X15289104Y3781300D01*
X15289049Y3779711D01*
X15270190Y3798569D01*
X15271780Y3798622D01*
X15273344Y3798814D01*
X15274889Y3799145D01*
X15276408Y3799613D01*
X15277904Y3800221D01*
X15279378Y3800967D01*
X15280827Y3801851D01*
X15282256Y3802875D01*
X15283659Y3804036D01*
X15285040Y3805336D01*
X15295816Y3794560D01*
D02*
G37*
G36*
X3885114Y4725357D02*
X3884809Y4723833D01*
X3884540Y4721293D01*
X3884109Y4713165D01*
X3883660Y4675065D01*
X3832860D01*
X3831065Y4725865D01*
X3885455D01*
X3885114Y4725357D01*
D02*
G37*
G36*
X3753034D02*
X3752729Y4723833D01*
X3752460Y4721293D01*
X3752029Y4713165D01*
X3751580Y4675065D01*
X3700780D01*
X3698985Y4725865D01*
X3753375D01*
X3753034Y4725357D01*
D02*
G37*
G36*
X6888423Y4921445D02*
X6888169Y4923249D01*
X6887407Y4924863D01*
X6886137Y4926287D01*
X6884359Y4927522D01*
X6882073Y4928566D01*
X6879279Y4929421D01*
X6875977Y4930086D01*
X6872167Y4930560D01*
X6867849Y4930845D01*
X6863023Y4930940D01*
Y4956340D01*
X6867892Y4956467D01*
X6872251Y4956848D01*
X6876098Y4957483D01*
X6879435Y4958372D01*
X6882261Y4959515D01*
X6884576Y4960912D01*
X6886380Y4962563D01*
X6887674Y4964468D01*
X6888456Y4966627D01*
X6888728Y4969040D01*
X6888423Y4921445D01*
D02*
G37*
G36*
X6709849Y5002139D02*
X6709154Y5001626D01*
X6708542Y5000772D01*
X6708010Y4999575D01*
X6707561Y4998037D01*
X6707193Y4996157D01*
X6706907Y4993936D01*
X6706581Y4988467D01*
X6706540Y4985220D01*
X6681140D01*
X6681099Y4988467D01*
X6680486Y4996157D01*
X6680118Y4998037D01*
X6679669Y4999575D01*
X6679138Y5000772D01*
X6678525Y5001626D01*
X6677831Y5002139D01*
X6677055Y5002310D01*
X6710625D01*
X6709849Y5002139D01*
D02*
G37*
G36*
X3708041Y4982260D02*
X3706953Y4983225D01*
X3705683Y4984089D01*
X3704231Y4984851D01*
X3702595Y4985511D01*
X3700777Y4986070D01*
X3698775Y4986527D01*
X3696592Y4986883D01*
X3694225Y4987137D01*
X3688943Y4987340D01*
Y5012740D01*
X3691675Y5012791D01*
X3696592Y5013197D01*
X3698775Y5013553D01*
X3700777Y5014010D01*
X3702595Y5014569D01*
X3704231Y5015229D01*
X3705683Y5015991D01*
X3706953Y5016855D01*
X3708041Y5017820D01*
Y4982260D01*
D02*
G37*
G36*
X3877650Y5049786D02*
X3876036Y5049024D01*
X3874612Y5047754D01*
X3873378Y5045976D01*
X3872334Y5043690D01*
X3871479Y5040896D01*
X3870815Y5037594D01*
X3870340Y5033784D01*
X3870058Y5029508D01*
X3870442Y5025111D01*
X3870817Y5022937D01*
X3871299Y5020949D01*
X3871887Y5019145D01*
X3872583Y5017527D01*
X3873386Y5016095D01*
X3874296Y5014847D01*
X3875313Y5013785D01*
X3839780Y5012385D01*
X3840688Y5013490D01*
X3841501Y5014776D01*
X3842218Y5016243D01*
X3842839Y5017892D01*
X3843365Y5019721D01*
X3843796Y5021732D01*
X3844130Y5023924D01*
X3844485Y5028491D01*
X3844466Y5029466D01*
X3843706Y5037594D01*
X3843041Y5040896D01*
X3842186Y5043690D01*
X3841142Y5045976D01*
X3839907Y5047754D01*
X3838482Y5049024D01*
X3836868Y5049786D01*
X3835063Y5050040D01*
X3879454D01*
X3877650Y5049786D01*
D02*
G37*
G36*
X7108577Y5020401D02*
X7106995Y5019656D01*
X7105599Y5018413D01*
X7104390Y5016674D01*
X7103366Y5014437D01*
X7102529Y5011704D01*
X7101877Y5008473D01*
X7101412Y5004746D01*
X7101133Y5000521D01*
X7101040Y4995800D01*
X7070560D01*
X7070467Y5000521D01*
X7069722Y5008473D01*
X7069071Y5011704D01*
X7068234Y5014437D01*
X7067210Y5016674D01*
X7066000Y5018413D01*
X7064605Y5019656D01*
X7063023Y5020401D01*
X7061255Y5020650D01*
X7110345D01*
X7108577Y5020401D01*
D02*
G37*
G36*
X6800057Y4930940D02*
X6797896Y4930923D01*
X6791350Y4930524D01*
X6790239Y4930341D01*
X6789338Y4930125D01*
X6788648Y4929875D01*
X6788167Y4929592D01*
X6787896Y4929275D01*
X6779664Y4954643D01*
X6800390Y4956340D01*
X6800057Y4930940D01*
D02*
G37*
G36*
X6474403Y4923985D02*
X6474149Y4925789D01*
X6473387Y4927403D01*
X6472117Y4928827D01*
X6470339Y4930062D01*
X6468053Y4931106D01*
X6465259Y4931961D01*
X6461957Y4932626D01*
X6458147Y4933100D01*
X6453829Y4933385D01*
X6449003Y4933480D01*
Y4958880D01*
X6453872Y4959007D01*
X6458231Y4959388D01*
X6462078Y4960023D01*
X6465415Y4960912D01*
X6468241Y4962055D01*
X6470556Y4963452D01*
X6472360Y4965103D01*
X6473654Y4967008D01*
X6474436Y4969167D01*
X6474708Y4971580D01*
X6474403Y4923985D01*
D02*
G37*
G36*
X6673483Y4946902D02*
X6665429Y4937950D01*
X6646570Y4956809D01*
X6646820Y4956888D01*
X6647213Y4957128D01*
X6647749Y4957530D01*
X6649253Y4958818D01*
X6653981Y4963331D01*
X6655522Y4964863D01*
X6673483Y4946902D01*
D02*
G37*
G36*
X6336582Y4933480D02*
X6334417Y4933466D01*
X6326712Y4932982D01*
X6325795Y4932802D01*
X6325086Y4932595D01*
X6324585Y4932360D01*
X6324292Y4932097D01*
X6319616Y4958354D01*
X6330267Y4958880D01*
X6336582Y4933480D01*
D02*
G37*
G36*
X6837284Y6301226D02*
X6836852Y6300355D01*
X6836471Y6299235D01*
X6836141Y6297866D01*
X6835861Y6296248D01*
X6835455Y6292266D01*
X6835252Y6287289D01*
X6835226Y6284427D01*
X6804746D01*
X6804721Y6287289D01*
X6804111Y6296248D01*
X6803832Y6297866D01*
X6803502Y6299235D01*
X6803121Y6300355D01*
X6802689Y6301226D01*
X6802206Y6301848D01*
X6837766D01*
X6837284Y6301226D01*
D02*
G37*
G36*
X10168363Y6267398D02*
X10169674Y6267380D01*
Y6216580D01*
X10160022Y6216515D01*
X10127002Y6214235D01*
X10123446Y6213388D01*
X10120906Y6212410D01*
X10119382Y6211303D01*
X10118874Y6210065D01*
Y6216593D01*
X10117563Y6216580D01*
Y6267380D01*
X10118874Y6267396D01*
Y6269455D01*
X10119382Y6269061D01*
X10120906Y6268708D01*
X10123446Y6268397D01*
X10131574Y6267899D01*
X10132467Y6267887D01*
X10150075Y6269203D01*
X10155663Y6270229D01*
X10160235Y6271482D01*
X10163791Y6272964D01*
X10166331Y6274673D01*
X10167855Y6276610D01*
X10168363Y6278775D01*
Y6267398D01*
D02*
G37*
G36*
X10119382Y6363510D02*
X10120906Y6362664D01*
X10123446Y6361918D01*
X10127002Y6361271D01*
X10131574Y6360724D01*
X10138262Y6360287D01*
X10166331Y6362229D01*
X10167855Y6362959D01*
X10168363Y6363775D01*
Y6359503D01*
X10169674Y6359480D01*
Y6308680D01*
X10168363Y6308675D01*
Y6304385D01*
X10167855Y6305201D01*
X10166331Y6305931D01*
X10163791Y6306575D01*
X10160235Y6307134D01*
X10155663Y6307606D01*
X10148109Y6307950D01*
X10120906Y6306366D01*
X10119382Y6305752D01*
X10118874Y6305065D01*
Y6308668D01*
X10117563Y6308680D01*
Y6359480D01*
X10118874Y6359486D01*
Y6364455D01*
X10119382Y6363510D01*
D02*
G37*
G36*
X10606235Y6341726D02*
X10603738Y6340514D01*
X10601536Y6338495D01*
X10599627Y6335667D01*
X10598011Y6332032D01*
X10596689Y6327589D01*
X10595662Y6322339D01*
X10594928Y6316280D01*
X10594487Y6309414D01*
X10594340Y6301740D01*
X10543540D01*
X10543393Y6309414D01*
X10542218Y6322339D01*
X10541190Y6327589D01*
X10539869Y6332032D01*
X10538253Y6335667D01*
X10536344Y6338495D01*
X10534142Y6340514D01*
X10531645Y6341726D01*
X10528855Y6342130D01*
X10609025D01*
X10606235Y6341726D01*
D02*
G37*
G36*
X9519681Y6280649D02*
X9521205Y6277780D01*
X9523745Y6275249D01*
X9527301Y6273055D01*
X9531873Y6271199D01*
X9537461Y6269680D01*
X9544065Y6268499D01*
X9551685Y6267655D01*
X9569973Y6266980D01*
Y6216180D01*
X9560321Y6216263D01*
X9531873Y6218251D01*
X9527301Y6219163D01*
X9523745Y6220240D01*
X9521205Y6221482D01*
X9519681Y6222891D01*
X9519173Y6224465D01*
Y6283855D01*
X9519681Y6280649D01*
D02*
G37*
G36*
X9640405Y6212285D02*
X9639897Y6213025D01*
X9638373Y6213687D01*
X9635833Y6214272D01*
X9632277Y6214778D01*
X9622117Y6215557D01*
X9589605Y6216180D01*
Y6266980D01*
X9599257Y6267027D01*
X9635833Y6269281D01*
X9638373Y6269985D01*
X9639897Y6270783D01*
X9640405Y6271675D01*
Y6212285D01*
D02*
G37*
G36*
X10756676Y6298457D02*
X10753403Y6296933D01*
X10750514Y6294393D01*
X10748011Y6290837D01*
X10745893Y6286265D01*
X10744161Y6280677D01*
X10742813Y6274073D01*
X10741850Y6266453D01*
X10741675Y6263832D01*
X10742214Y6239675D01*
X10682824D01*
X10684240Y6240183D01*
X10685508Y6241707D01*
X10686626Y6244247D01*
X10687596Y6247803D01*
X10688416Y6252375D01*
X10689087Y6257963D01*
X10689487Y6264321D01*
X10689307Y6266453D01*
X10688090Y6274073D01*
X10686386Y6280677D01*
X10684196Y6286265D01*
X10681519Y6290837D01*
X10678355Y6294393D01*
X10674705Y6296933D01*
X10670567Y6298457D01*
X10665944Y6298965D01*
X10760334D01*
X10756676Y6298457D01*
D02*
G37*
G36*
X10223261Y6276610D02*
X10224785Y6274673D01*
X10227325Y6272964D01*
X10230881Y6271482D01*
X10235453Y6270229D01*
X10240666Y6269272D01*
X10253053Y6270129D01*
X10254577Y6270859D01*
X10255085Y6271675D01*
Y6267988D01*
X10263901Y6267494D01*
X10273553Y6267380D01*
Y6216580D01*
X10255085Y6217600D01*
Y6212285D01*
X10254577Y6213101D01*
X10253053Y6213831D01*
X10250513Y6214476D01*
X10246957Y6215034D01*
X10242385Y6215506D01*
X10222573Y6216408D01*
X10204285Y6216580D01*
Y6267380D01*
X10213937Y6267423D01*
X10222753Y6268033D01*
Y6278775D01*
X10223261Y6276610D01*
D02*
G37*
G36*
X11171562Y6339262D02*
X11170361Y6338279D01*
X11169302Y6336640D01*
X11168383Y6334346D01*
X11167606Y6331397D01*
X11166970Y6327793D01*
X11166476Y6323532D01*
X11165911Y6313046D01*
X11165840Y6306820D01*
X11115040D01*
X11114969Y6313046D01*
X11113910Y6327793D01*
X11113274Y6331397D01*
X11112497Y6334346D01*
X11111578Y6336640D01*
X11110519Y6338279D01*
X11109318Y6339262D01*
X11107975Y6339590D01*
X11172905D01*
X11171562Y6339262D01*
D02*
G37*
G36*
X10624223Y6550399D02*
X10625747Y6549669D01*
X10628287Y6549024D01*
X10631843Y6548466D01*
X10636415Y6547994D01*
X10642821Y6547702D01*
X10665944Y6548355D01*
Y6547000D01*
X10674515Y6546920D01*
Y6496120D01*
X10665944Y6496082D01*
Y6488965D01*
X10665436Y6490324D01*
X10663912Y6491541D01*
X10661372Y6492614D01*
X10657816Y6493544D01*
X10653244Y6494331D01*
X10648135Y6494920D01*
X10625747Y6493371D01*
X10624223Y6492641D01*
X10623715Y6491825D01*
Y6495986D01*
X10615144Y6496120D01*
Y6546920D01*
X10623715Y6547162D01*
Y6551215D01*
X10624223Y6550399D01*
D02*
G37*
G36*
X6789698Y6496981D02*
X6788171Y6495311D01*
X6786809Y6493518D01*
X6785609Y6491600D01*
X6784574Y6489559D01*
X6783702Y6487394D01*
X6782994Y6485105D01*
X6782450Y6482693D01*
X6782069Y6480157D01*
X6781852Y6477497D01*
X6781799Y6474714D01*
X6756654Y6499859D01*
X6759437Y6499912D01*
X6762097Y6500129D01*
X6764633Y6500510D01*
X6767045Y6501054D01*
X6769334Y6501762D01*
X6771499Y6502634D01*
X6773540Y6503669D01*
X6775458Y6504869D01*
X6777251Y6506231D01*
X6778921Y6507758D01*
X6789698Y6496981D01*
D02*
G37*
G36*
X7636562Y6810500D02*
X7636754Y6808935D01*
X7637085Y6807392D01*
X7637553Y6805873D01*
X7638161Y6804376D01*
X7638907Y6802903D01*
X7639791Y6801452D01*
X7640815Y6800025D01*
X7641976Y6798621D01*
X7643276Y6797240D01*
X7632500Y6786464D01*
X7631119Y6787764D01*
X7629715Y6788925D01*
X7628288Y6789949D01*
X7626837Y6790833D01*
X7625364Y6791579D01*
X7623867Y6792187D01*
X7622348Y6792655D01*
X7620805Y6792986D01*
X7619240Y6793178D01*
X7617650Y6793231D01*
X7636509Y6812089D01*
X7636562Y6810500D01*
D02*
G37*
G36*
X11090745Y6489285D02*
X11090327Y6490040D01*
X11089075Y6490716D01*
X11086988Y6491312D01*
X11084066Y6491829D01*
X11080309Y6492266D01*
X11070290Y6492902D01*
X11049000Y6493260D01*
X11040704Y6493217D01*
X11009264Y6491155D01*
X11007081Y6490511D01*
X11005771Y6489781D01*
X11005334Y6488965D01*
Y6548355D01*
X11005771Y6547539D01*
X11007081Y6546809D01*
X11009264Y6546165D01*
X11012321Y6545606D01*
X11016251Y6545134D01*
X11026730Y6544447D01*
X11049000Y6544060D01*
X11056931Y6544106D01*
X11084066Y6545721D01*
X11086988Y6546321D01*
X11089075Y6547014D01*
X11090327Y6547798D01*
X11090745Y6548675D01*
Y6489285D01*
D02*
G37*
G36*
X10222753Y6363775D02*
X10168363D01*
X10168704Y6364171D01*
X10169010Y6365358D01*
X10169279Y6367336D01*
X10169711Y6373666D01*
X10170160Y6403340D01*
X10220960D01*
X10222753Y6363775D01*
D02*
G37*
G36*
X9723393Y6362235D02*
X9721737Y6361172D01*
X9720275Y6359399D01*
X9719008Y6356918D01*
X9717936Y6353727D01*
X9717059Y6349828D01*
X9716377Y6345219D01*
X9715890Y6339902D01*
X9715500Y6327140D01*
X9664700D01*
X9664602Y6333876D01*
X9663823Y6345219D01*
X9663141Y6349828D01*
X9662264Y6353727D01*
X9661192Y6356918D01*
X9659925Y6359399D01*
X9658463Y6361172D01*
X9656807Y6362235D01*
X9654955Y6362590D01*
X9725245D01*
X9723393Y6362235D01*
D02*
G37*
G36*
X10910944Y6393965D02*
X10910634Y6394086D01*
X10909706Y6394193D01*
X10908159Y6394289D01*
X10880000Y6394600D01*
Y6445400D01*
X10885932Y6445455D01*
X10903421Y6446786D01*
X10906234Y6447396D01*
X10908424Y6448116D01*
X10909989Y6448948D01*
X10910931Y6449890D01*
X10911248Y6450944D01*
X10910944Y6393965D01*
D02*
G37*
G36*
X9519173Y6368855D02*
X9464783D01*
X9465124Y6369302D01*
X9465430Y6370641D01*
X9465699Y6372873D01*
X9466131Y6380016D01*
X9466580Y6413500D01*
X9517380D01*
X9519173Y6368855D01*
D02*
G37*
G36*
X6507817Y6033014D02*
X6508265Y6032906D01*
X6508928Y6032811D01*
X6510902Y6032659D01*
X6517436Y6032506D01*
X6519609Y6032500D01*
Y6007100D01*
X6507584Y6006465D01*
Y6033135D01*
X6507817Y6033014D01*
D02*
G37*
G36*
X16769969Y5984829D02*
X16769249Y5983983D01*
X16768614Y5982981D01*
X16768063Y5981820D01*
X16767598Y5980501D01*
X16767216Y5979025D01*
X16766920Y5977391D01*
X16766708Y5975598D01*
X16766582Y5973648D01*
X16766541Y5971540D01*
X16751300D01*
X16751257Y5973648D01*
X16750919Y5977391D01*
X16750623Y5979025D01*
X16750243Y5980501D01*
X16749776Y5981820D01*
X16749226Y5982981D01*
X16748592Y5983983D01*
X16747871Y5984829D01*
X16747067Y5985515D01*
X16770773D01*
X16769969Y5984829D01*
D02*
G37*
G36*
X6660007Y6101571D02*
X6657848Y6100809D01*
X6655943Y6099539D01*
X6654292Y6097761D01*
X6652895Y6095475D01*
X6651752Y6092681D01*
X6650863Y6089379D01*
X6650485Y6087110D01*
X6650863Y6084841D01*
X6651752Y6081539D01*
X6652895Y6078745D01*
X6654292Y6076459D01*
X6655943Y6074681D01*
X6657848Y6073411D01*
X6660007Y6072649D01*
X6662420Y6072395D01*
X6612123D01*
X6614440Y6072649D01*
X6616514Y6073411D01*
X6618343Y6074681D01*
X6619929Y6076459D01*
X6621271Y6078745D01*
X6622369Y6081539D01*
X6623222Y6084841D01*
X6623643Y6087473D01*
X6623465Y6089379D01*
X6622800Y6092681D01*
X6621946Y6095475D01*
X6620901Y6097761D01*
X6619666Y6099539D01*
X6618242Y6100809D01*
X6616627Y6101571D01*
X6614823Y6101825D01*
X6662420D01*
X6660007Y6101571D01*
D02*
G37*
G36*
X6813214Y6056163D02*
X6813107Y6055715D01*
X6813011Y6055052D01*
X6812859Y6053078D01*
X6812706Y6046544D01*
X6812700Y6044371D01*
X6787300D01*
X6786665Y6056396D01*
X6813335D01*
X6813214Y6056163D01*
D02*
G37*
G36*
X3942105Y5280338D02*
X3942715Y5271379D01*
X3942994Y5269762D01*
X3943325Y5268393D01*
X3943706Y5267273D01*
X3944137Y5266401D01*
X3944620Y5265779D01*
X3909060D01*
X3909543Y5266401D01*
X3909974Y5267273D01*
X3910355Y5268393D01*
X3910686Y5269762D01*
X3910965Y5271379D01*
X3911371Y5275361D01*
X3911575Y5280338D01*
X3911600Y5283200D01*
X3942080D01*
X3942105Y5280338D01*
D02*
G37*
G36*
X3945530Y5230195D02*
X3944416Y5228400D01*
X3943433Y5226515D01*
X3942989Y5225488D01*
X3942715Y5223901D01*
X3942309Y5219919D01*
X3942105Y5214942D01*
X3942080Y5212080D01*
X3940253D01*
X3940220Y5210810D01*
X3919900Y5207966D01*
X3919816Y5210513D01*
X3919652Y5212080D01*
X3911600D01*
X3911575Y5214942D01*
X3910965Y5223901D01*
X3910686Y5225518D01*
X3910355Y5226887D01*
X3909974Y5228007D01*
X3909543Y5228879D01*
X3909060Y5229501D01*
X3927995D01*
X3946776Y5231901D01*
X3945530Y5230195D01*
D02*
G37*
G36*
X7130294Y5490343D02*
X7130186Y5489895D01*
X7130091Y5489232D01*
X7129939Y5487258D01*
X7129786Y5480724D01*
X7129780Y5478551D01*
X7104380D01*
X7103745Y5490576D01*
X7130415D01*
X7130294Y5490343D01*
D02*
G37*
G36*
X5210000Y5660000D02*
X5240000Y5630000D01*
Y5560000D01*
X5100000Y5420000D01*
X4850000D01*
Y5640000D01*
X4870000Y5660000D01*
X5210000D01*
Y5660000D01*
D02*
G37*
G36*
X10741261Y6140285D02*
X10742214D01*
X10741881Y6139777D01*
X10741583Y6138253D01*
X10741394Y6136431D01*
X10742214Y6112675D01*
X10740660D01*
X10740460Y6089485D01*
X10689660D01*
X10689592Y6099137D01*
X10688611Y6112675D01*
X10682824D01*
X10684123Y6113183D01*
X10685285Y6114707D01*
X10686310Y6117247D01*
X10687199Y6120803D01*
X10687770Y6124275D01*
X10687199Y6132157D01*
X10686310Y6135713D01*
X10685285Y6138253D01*
X10684123Y6139777D01*
X10682824Y6140285D01*
X10688984D01*
X10689592Y6153823D01*
X10689660Y6163475D01*
X10740460D01*
X10741261Y6140285D01*
D02*
G37*
G36*
X16828305Y6213957D02*
X16828511Y6211532D01*
X16828691Y6210531D01*
X16828922Y6209671D01*
X16829205Y6208952D01*
X16829538Y6208373D01*
X16829924Y6207936D01*
X16830360Y6207638D01*
X16830849Y6207482D01*
X16811159Y6199517D01*
X16811220Y6199722D01*
X16811275Y6200161D01*
X16811322Y6200835D01*
X16811478Y6209814D01*
X16811481Y6212133D01*
X16828281Y6215380D01*
X16828305Y6213957D01*
D02*
G37*
G36*
X6520123Y6189180D02*
X6519869Y6191593D01*
X6519107Y6193752D01*
X6517837Y6195657D01*
X6516059Y6197308D01*
X6513773Y6198705D01*
X6510979Y6199848D01*
X6507677Y6200737D01*
X6503867Y6201372D01*
X6499549Y6201753D01*
X6494723Y6201880D01*
Y6227280D01*
X6499549Y6227375D01*
X6507677Y6228134D01*
X6510979Y6228799D01*
X6513773Y6229654D01*
X6516059Y6230698D01*
X6517837Y6231933D01*
X6519107Y6233357D01*
X6519869Y6234971D01*
X6520123Y6236775D01*
Y6189180D01*
D02*
G37*
G36*
X6393728Y6237800D02*
X6393968Y6237407D01*
X6394370Y6236870D01*
X6395658Y6235367D01*
X6400171Y6230639D01*
X6401703Y6229098D01*
X6383742Y6211137D01*
X6374790Y6219191D01*
X6393649Y6238049D01*
X6393728Y6237800D01*
D02*
G37*
G36*
X9740303Y6270783D02*
X9741827Y6269985D01*
X9744367Y6269281D01*
X9747923Y6268670D01*
X9752495Y6268154D01*
X9752632Y6268147D01*
X9779484Y6269455D01*
Y6267094D01*
X9790595Y6266980D01*
Y6216180D01*
X9780943Y6216141D01*
X9779484Y6216050D01*
Y6210065D01*
X9778976Y6211227D01*
X9777452Y6212266D01*
X9774912Y6213184D01*
X9771356Y6213979D01*
X9766784Y6214651D01*
X9762576Y6214989D01*
X9741827Y6213687D01*
X9740303Y6213025D01*
X9739795Y6212285D01*
Y6215944D01*
X9728684Y6216180D01*
Y6266980D01*
X9739795Y6267522D01*
Y6271675D01*
X9740303Y6270783D01*
D02*
G37*
G36*
X6864624Y6122397D02*
X6865749Y6121558D01*
X6866979Y6120818D01*
X6868314Y6120176D01*
X6869754Y6119634D01*
X6871299Y6119190D01*
X6872949Y6118844D01*
X6874704Y6118597D01*
X6876563Y6118449D01*
X6878528Y6118400D01*
Y6101600D01*
X6876563Y6101551D01*
X6874704Y6101403D01*
X6872949Y6101156D01*
X6871299Y6100810D01*
X6869754Y6100366D01*
X6868314Y6099823D01*
X6866979Y6099182D01*
X6865749Y6098441D01*
X6864624Y6097603D01*
X6863605Y6096665D01*
Y6123335D01*
X6864624Y6122397D01*
D02*
G37*
G36*
X6898110Y6093200D02*
X6897939Y6094796D01*
X6897425Y6096224D01*
X6896570Y6097484D01*
X6895373Y6098576D01*
X6893833Y6099500D01*
X6891952Y6100256D01*
X6889728Y6100844D01*
X6887163Y6101264D01*
X6884255Y6101516D01*
X6881005Y6101600D01*
Y6118400D01*
X6884255Y6118484D01*
X6887163Y6118736D01*
X6889728Y6119156D01*
X6891952Y6119744D01*
X6893833Y6120500D01*
X6895373Y6121424D01*
X6896570Y6122516D01*
X6897425Y6123776D01*
X6897939Y6125204D01*
X6898110Y6126800D01*
Y6093200D01*
D02*
G37*
G36*
X6783466Y6158713D02*
X6777289Y6152324D01*
X6767596Y6140931D01*
X6764080Y6135928D01*
X6761451Y6131386D01*
X6759708Y6127307D01*
X6758853Y6123689D01*
X6758884Y6120533D01*
X6759803Y6117840D01*
X6761608Y6115608D01*
X6716310Y6155910D01*
X6718765Y6154328D01*
X6721632Y6153583D01*
X6724912Y6153676D01*
X6728604Y6154606D01*
X6732708Y6156373D01*
X6737225Y6158977D01*
X6742154Y6162419D01*
X6747495Y6166698D01*
X6759415Y6177768D01*
X6783466Y6158713D01*
D02*
G37*
G36*
X16327722Y6139449D02*
X16329124Y6138327D01*
X16330597Y6137336D01*
X16332141Y6136477D01*
X16333759Y6135751D01*
X16335445Y6135157D01*
X16337204Y6134694D01*
X16339034Y6134364D01*
X16340936Y6134166D01*
X16342909Y6134100D01*
Y6118860D01*
X16340936Y6118794D01*
X16339034Y6118596D01*
X16337204Y6118266D01*
X16335445Y6117803D01*
X16333759Y6117209D01*
X16332141Y6116483D01*
X16330597Y6115624D01*
X16329124Y6114633D01*
X16327722Y6113511D01*
X16326392Y6112256D01*
Y6140704D01*
X16327722Y6139449D01*
D02*
G37*
G36*
X13438377Y12839703D02*
X13427377Y12839624D01*
X13407664Y12838301D01*
X13398950Y12837057D01*
X13390997Y12835428D01*
X13383807Y12833411D01*
X13377377Y12831004D01*
X13371712Y12828212D01*
X13366806Y12825031D01*
X13362663Y12821463D01*
X13344704Y12839423D01*
X13348271Y12843565D01*
X13351453Y12848471D01*
X13354245Y12854138D01*
X13356650Y12860567D01*
X13358669Y12867757D01*
X13360298Y12875710D01*
X13361542Y12884424D01*
X13362865Y12904138D01*
X13362944Y12915138D01*
X13438377Y12839703D01*
D02*
G37*
G36*
X3541192Y12455083D02*
X3541409Y12452423D01*
X3541790Y12449887D01*
X3542335Y12447474D01*
X3543043Y12445186D01*
X3543914Y12443021D01*
X3544950Y12440980D01*
X3546149Y12439062D01*
X3547512Y12437268D01*
X3549038Y12435598D01*
X3538262Y12424822D01*
X3536592Y12426349D01*
X3534798Y12427711D01*
X3532880Y12428910D01*
X3530839Y12429946D01*
X3528674Y12430817D01*
X3526386Y12431526D01*
X3523973Y12432070D01*
X3521437Y12432451D01*
X3518778Y12432668D01*
X3515994Y12432721D01*
X3541139Y12457866D01*
X3541192Y12455083D01*
D02*
G37*
G36*
X14023416Y12904138D02*
X14024739Y12884424D01*
X14025983Y12875710D01*
X14027612Y12867757D01*
X14029630Y12860567D01*
X14032034Y12854138D01*
X14034828Y12848471D01*
X14038010Y12843565D01*
X14041577Y12839423D01*
X14023618Y12821463D01*
X14019473Y12825031D01*
X14014569Y12828212D01*
X14008902Y12831004D01*
X14002473Y12833411D01*
X13995284Y12835428D01*
X13987331Y12837057D01*
X13978616Y12838301D01*
X13958902Y12839624D01*
X13947902Y12839703D01*
X14023335Y12915138D01*
X14023416Y12904138D01*
D02*
G37*
G36*
X13769415D02*
X13770740Y12884424D01*
X13771982Y12875710D01*
X13773611Y12867757D01*
X13775630Y12860567D01*
X13778035Y12854138D01*
X13780827Y12848471D01*
X13784009Y12843565D01*
X13787576Y12839423D01*
X13769617Y12821463D01*
X13765474Y12825031D01*
X13760568Y12828212D01*
X13754903Y12831004D01*
X13748473Y12833411D01*
X13741283Y12835428D01*
X13733330Y12837057D01*
X13724615Y12838301D01*
X13704903Y12839624D01*
X13693903Y12839703D01*
X13769336Y12915138D01*
X13769415Y12904138D01*
D02*
G37*
G36*
X5306060Y11899900D02*
X4940300D01*
X4937760Y11900952D01*
Y12072620D01*
X5306060D01*
Y11899900D01*
D02*
G37*
G36*
X11345245Y11817308D02*
X11349853Y11814557D01*
X11355360Y11812143D01*
X11361766Y11810068D01*
X11369072Y11808330D01*
X11377277Y11806931D01*
X11386381Y11805870D01*
X11407288Y11804763D01*
X11419090Y11804716D01*
X11344844Y11730470D01*
X11344797Y11742272D01*
X11342629Y11772283D01*
X11341230Y11780488D01*
X11339492Y11787794D01*
X11337417Y11794200D01*
X11335003Y11799707D01*
X11332252Y11804315D01*
X11329162Y11808023D01*
X11341537Y11820398D01*
X11345245Y11817308D01*
D02*
G37*
G36*
X11481779Y12281908D02*
X11504533Y12262220D01*
X11511324Y12257408D01*
X11517719Y12253470D01*
X11523716Y12250408D01*
X11529317Y12248220D01*
X11534521Y12246907D01*
X11539328Y12246470D01*
Y12228970D01*
X11534521Y12228533D01*
X11529317Y12227220D01*
X11523716Y12225032D01*
X11517719Y12221970D01*
X11511324Y12218032D01*
X11504533Y12213220D01*
X11497345Y12207533D01*
X11481779Y12193532D01*
X11473401Y12185220D01*
Y12290220D01*
X11481779Y12281908D01*
D02*
G37*
G36*
X8712200Y12072620D02*
Y11902440D01*
X8417560D01*
Y12075160D01*
X8700552D01*
X8712200Y12072620D01*
D02*
G37*
G36*
X15724377Y12839703D02*
X15713377Y12839624D01*
X15693665Y12838301D01*
X15684950Y12837057D01*
X15676997Y12835428D01*
X15669807Y12833411D01*
X15663377Y12831004D01*
X15657710Y12828212D01*
X15652806Y12825031D01*
X15648663Y12821463D01*
X15630704Y12839423D01*
X15634271Y12843565D01*
X15637453Y12848471D01*
X15640245Y12854138D01*
X15642650Y12860567D01*
X15644669Y12867757D01*
X15646298Y12875710D01*
X15647540Y12884424D01*
X15648865Y12904138D01*
X15648944Y12915138D01*
X15724377Y12839703D01*
D02*
G37*
G36*
X17183228Y12956673D02*
X17181068Y12955902D01*
X17179163Y12954616D01*
X17177512Y12952817D01*
X17176115Y12950504D01*
X17174973Y12947676D01*
X17174083Y12944334D01*
X17173448Y12940479D01*
X17173067Y12936108D01*
X17172940Y12931226D01*
X17147540D01*
X17147414Y12936108D01*
X17147032Y12940479D01*
X17146397Y12944334D01*
X17145508Y12947676D01*
X17144365Y12950504D01*
X17142969Y12952817D01*
X17141318Y12954616D01*
X17139412Y12955902D01*
X17137253Y12956673D01*
X17134840Y12956931D01*
X17185640D01*
X17183228Y12956673D01*
D02*
G37*
G36*
X15068748Y12957742D02*
X15066841Y12955766D01*
X15065158Y12953474D01*
X15063699Y12950867D01*
X15062465Y12947940D01*
X15061455Y12944698D01*
X15060670Y12941138D01*
X15060109Y12937260D01*
X15059772Y12933066D01*
X15059660Y12928555D01*
X15034261D01*
X15034148Y12933066D01*
X15033810Y12937260D01*
X15033250Y12941138D01*
X15032465Y12944698D01*
X15031454Y12947940D01*
X15030222Y12950867D01*
X15028761Y12953474D01*
X15027078Y12955766D01*
X15025172Y12957742D01*
X15023039Y12959399D01*
X15070880D01*
X15068748Y12957742D01*
D02*
G37*
G36*
X16940546Y12956625D02*
X16940291Y12958144D01*
X16939529Y12959503D01*
X16938258Y12960703D01*
X16936481Y12961742D01*
X16934195Y12962622D01*
X16931401Y12963341D01*
X16928099Y12963901D01*
X16924289Y12964301D01*
X16915144Y12964619D01*
Y12990021D01*
X16919971Y12990100D01*
X16928099Y12990739D01*
X16931401Y12991299D01*
X16934195Y12992020D01*
X16936481Y12992899D01*
X16938258Y12993938D01*
X16939529Y12995137D01*
X16940291Y12996497D01*
X16940546Y12998015D01*
Y12956625D01*
D02*
G37*
G36*
X14915007Y12969373D02*
X14912848Y12968602D01*
X14910944Y12967316D01*
X14909293Y12965517D01*
X14907895Y12963203D01*
X14906752Y12960376D01*
X14905862Y12957034D01*
X14905228Y12953178D01*
X14904848Y12948808D01*
X14904720Y12943925D01*
X14879320D01*
X14879193Y12948808D01*
X14878812Y12953178D01*
X14878177Y12957034D01*
X14877287Y12960376D01*
X14876144Y12963203D01*
X14874748Y12965517D01*
X14873097Y12967316D01*
X14871191Y12968602D01*
X14869032Y12969373D01*
X14866620Y12969630D01*
X14917419D01*
X14915007Y12969373D01*
D02*
G37*
G36*
X16309416Y12904138D02*
X16310739Y12884424D01*
X16311983Y12875710D01*
X16313612Y12867757D01*
X16315630Y12860567D01*
X16318034Y12854138D01*
X16320828Y12848471D01*
X16324010Y12843565D01*
X16327577Y12839423D01*
X16309618Y12821463D01*
X16305473Y12825031D01*
X16300569Y12828212D01*
X16294902Y12831004D01*
X16288474Y12833411D01*
X16281284Y12835428D01*
X16273331Y12837057D01*
X16264616Y12838301D01*
X16244902Y12839624D01*
X16233902Y12839703D01*
X16309335Y12915138D01*
X16309416Y12904138D01*
D02*
G37*
G36*
X16055415D02*
X16056738Y12884424D01*
X16057982Y12875710D01*
X16059612Y12867757D01*
X16061630Y12860567D01*
X16064035Y12854138D01*
X16066827Y12848471D01*
X16070009Y12843565D01*
X16073576Y12839423D01*
X16055617Y12821463D01*
X16051474Y12825031D01*
X16046568Y12828212D01*
X16040903Y12831004D01*
X16034473Y12833411D01*
X16027283Y12835428D01*
X16019330Y12837057D01*
X16010616Y12838301D01*
X15990903Y12839624D01*
X15979903Y12839703D01*
X16055336Y12915138D01*
X16055415Y12904138D01*
D02*
G37*
G36*
X15395551Y12890500D02*
X15395293Y12892912D01*
X15394521Y12895071D01*
X15393236Y12896977D01*
X15391437Y12898628D01*
X15389124Y12900024D01*
X15386296Y12901167D01*
X15382954Y12902057D01*
X15379099Y12902692D01*
X15374728Y12903073D01*
X15369846Y12903200D01*
Y12928600D01*
X15374728Y12928728D01*
X15379099Y12929108D01*
X15382954Y12929742D01*
X15386296Y12930632D01*
X15389124Y12931775D01*
X15391437Y12933173D01*
X15393236Y12934824D01*
X15394521Y12936728D01*
X15395293Y12938887D01*
X15395551Y12941299D01*
Y12890500D01*
D02*
G37*
G36*
X13109550D02*
X13109293Y12892912D01*
X13108521Y12895071D01*
X13107236Y12896977D01*
X13105437Y12898628D01*
X13103123Y12900024D01*
X13100296Y12901167D01*
X13096954Y12902057D01*
X13093098Y12902692D01*
X13088728Y12903073D01*
X13083846Y12903200D01*
Y12928600D01*
X13088728Y12928728D01*
X13093098Y12929108D01*
X13096954Y12929742D01*
X13100296Y12930632D01*
X13103123Y12931775D01*
X13105437Y12933173D01*
X13107236Y12934824D01*
X13108521Y12936728D01*
X13109293Y12938887D01*
X13109550Y12941299D01*
Y12890500D01*
D02*
G37*
G36*
X13133563Y11062955D02*
X13148540D01*
X13148579Y11058849D01*
X13152367Y11057813D01*
X13151639Y11057260D01*
X13150987Y11056452D01*
X13150415Y11055390D01*
X13149918Y11054074D01*
X13149496Y11052504D01*
X13149152Y11050679D01*
X13149113Y11050386D01*
X13149904Y11040095D01*
X13150504Y11037352D01*
X13151213Y11035218D01*
X13152031Y11033694D01*
X13152959Y11032780D01*
X13153995Y11032475D01*
X13112605D01*
X13113641Y11032780D01*
X13114569Y11033694D01*
X13115387Y11035218D01*
X13116096Y11037352D01*
X13116696Y11040095D01*
X13117188Y11043448D01*
X13117842Y11051982D01*
X13118060Y11062955D01*
X13118063D01*
X13118065Y11067193D01*
X13133563Y11062955D01*
D02*
G37*
G36*
X13080138Y11046592D02*
X13080400Y11043565D01*
X13080838Y11040895D01*
X13081450Y11038580D01*
X13082237Y11036622D01*
X13083200Y11035019D01*
X13084338Y11033773D01*
X13085651Y11032882D01*
X13087138Y11032348D01*
X13088800Y11032170D01*
X13053799D01*
X13055463Y11032348D01*
X13056950Y11032882D01*
X13058263Y11033773D01*
X13059399Y11035019D01*
X13060362Y11036622D01*
X13061150Y11038580D01*
X13061763Y11040895D01*
X13062199Y11043565D01*
X13062463Y11046592D01*
X13062550Y11049975D01*
X13080051D01*
X13080138Y11046592D01*
D02*
G37*
G36*
X12962698Y11195247D02*
X12950938Y11182042D01*
X12946159Y11175892D01*
X12942117Y11170042D01*
X12938811Y11164494D01*
X12936238Y11159247D01*
X12934399Y11154301D01*
X12933298Y11149656D01*
X12932930Y11145311D01*
X12915430D01*
X12915063Y11149656D01*
X12913960Y11154301D01*
X12912123Y11159247D01*
X12909550Y11164494D01*
X12906242Y11170042D01*
X12902200Y11175892D01*
X12897423Y11182042D01*
X12885663Y11195247D01*
X12878680Y11202301D01*
X12969679D01*
X12962698Y11195247D01*
D02*
G37*
G36*
X11494883Y11209168D02*
X11497051Y11179157D01*
X11498450Y11170952D01*
X11500188Y11163646D01*
X11502263Y11157240D01*
X11504677Y11151733D01*
X11507428Y11147125D01*
X11510518Y11143417D01*
X11498143Y11131042D01*
X11494435Y11134132D01*
X11489827Y11136883D01*
X11484320Y11139297D01*
X11477914Y11141372D01*
X11470608Y11143110D01*
X11462403Y11144509D01*
X11453299Y11145570D01*
X11432392Y11146677D01*
X11420590Y11146724D01*
X11494836Y11220970D01*
X11494883Y11209168D01*
D02*
G37*
G36*
X13045621Y10850954D02*
X13052626Y10844915D01*
X13055614Y10842772D01*
X13058260Y10841212D01*
X13060564Y10840236D01*
X13062524Y10839844D01*
X13064143Y10840035D01*
X13065421Y10840811D01*
X13066354Y10842170D01*
X13050909Y10808726D01*
X13051469Y10810460D01*
X13051624Y10812358D01*
X13051370Y10814422D01*
X13050713Y10816649D01*
X13049646Y10819042D01*
X13048177Y10821599D01*
X13046300Y10824321D01*
X13044016Y10827208D01*
X13041325Y10830259D01*
X13038231Y10833475D01*
X13041605Y10854850D01*
X13045621Y10850954D01*
D02*
G37*
G36*
X13214453Y10828481D02*
X13215042Y10827022D01*
X13216025Y10825735D01*
X13217400Y10824619D01*
X13219168Y10823675D01*
X13221329Y10822903D01*
X13223882Y10822302D01*
X13226830Y10821873D01*
X13230168Y10821616D01*
X13233900Y10821530D01*
Y10804030D01*
X13230168Y10803944D01*
X13226830Y10803687D01*
X13223882Y10803258D01*
X13221329Y10802657D01*
X13219168Y10801885D01*
X13217400Y10800941D01*
X13216025Y10799825D01*
X13215042Y10798538D01*
X13214453Y10797079D01*
X13214256Y10795449D01*
Y10830111D01*
X13214453Y10828481D01*
D02*
G37*
G36*
X13228371Y11023475D02*
X13225310Y11020291D01*
X13220406Y11014397D01*
X13218559Y11011686D01*
X13217120Y11009132D01*
X13216084Y11006736D01*
X13215456Y11004497D01*
X13215230Y11002416D01*
X13215410Y11000492D01*
X13215994Y10998726D01*
X13200246Y11032475D01*
X13201202Y11031080D01*
X13202496Y11030270D01*
X13204128Y11030045D01*
X13206096Y11030405D01*
X13208401Y11031350D01*
X13211046Y11032880D01*
X13214027Y11034995D01*
X13217345Y11037695D01*
X13224995Y11044849D01*
X13228371Y11023475D01*
D02*
G37*
G36*
X13149229Y10883217D02*
X13148550Y10881927D01*
X13147952Y10880454D01*
X13147435Y10878799D01*
X13146997Y10876961D01*
X13146638Y10874940D01*
X13146159Y10870352D01*
X13146040Y10867784D01*
X13146022Y10866549D01*
X13146080Y10863049D01*
X13146719Y10854921D01*
X13147279Y10851619D01*
X13148000Y10848825D01*
X13148878Y10846539D01*
X13149918Y10844761D01*
X13151117Y10843491D01*
X13152477Y10842729D01*
X13153995Y10842475D01*
X13112605D01*
X13114124Y10842729D01*
X13115483Y10843491D01*
X13116682Y10844761D01*
X13117722Y10846539D01*
X13118600Y10848825D01*
X13119321Y10851619D01*
X13119881Y10854921D01*
X13120280Y10858731D01*
X13120482Y10864505D01*
X13120071Y10868763D01*
X13119661Y10870908D01*
X13119131Y10872860D01*
X13118486Y10874617D01*
X13117723Y10876180D01*
X13116843Y10877549D01*
X13115843Y10878723D01*
X13114726Y10879704D01*
X13149986Y10884325D01*
X13149229Y10883217D01*
D02*
G37*
G36*
X13362698Y11195247D02*
X13350938Y11182042D01*
X13346159Y11175892D01*
X13342117Y11170042D01*
X13338811Y11164494D01*
X13336238Y11159247D01*
X13334399Y11154301D01*
X13333298Y11149656D01*
X13332930Y11145311D01*
X13315430D01*
X13315063Y11149656D01*
X13313960Y11154301D01*
X13312122Y11159247D01*
X13309550Y11164494D01*
X13306242Y11170042D01*
X13302200Y11175892D01*
X13297421Y11182042D01*
X13285663Y11195247D01*
X13278680Y11202301D01*
X13369679D01*
X13362698Y11195247D01*
D02*
G37*
G36*
X5146796Y11777980D02*
X5168900D01*
X5168971Y11766020D01*
X5171565Y11765627D01*
X5179185Y11764912D01*
X5197473Y11764340D01*
Y11713540D01*
X5187821Y11713397D01*
X5171565Y11712254D01*
X5169293Y11711910D01*
X5171440Y11351260D01*
X5161280Y11341100D01*
X4945380D01*
Y11777980D01*
X5146673D01*
Y11778636D01*
X5146796Y11777980D01*
D02*
G37*
G36*
X13260577Y11325216D02*
X13264642Y11322711D01*
X13269440Y11320513D01*
X13274968Y11318622D01*
X13281230Y11317037D01*
X13288225Y11315759D01*
X13295952Y11314789D01*
X13313605Y11313767D01*
X13323531Y11313717D01*
X13259183Y11249370D01*
X13259132Y11259295D01*
X13258112Y11276948D01*
X13257141Y11284675D01*
X13255862Y11291670D01*
X13254279Y11297932D01*
X13252386Y11303461D01*
X13250189Y11308258D01*
X13247684Y11312322D01*
X13244872Y11315654D01*
X13257246Y11328028D01*
X13260577Y11325216D01*
D02*
G37*
G36*
X11345245Y11563308D02*
X11349853Y11560557D01*
X11355360Y11558143D01*
X11361766Y11556068D01*
X11369072Y11554330D01*
X11377277Y11552931D01*
X11386381Y11551870D01*
X11407288Y11550763D01*
X11419090Y11550716D01*
X11344844Y11476470D01*
X11344797Y11488272D01*
X11342629Y11518283D01*
X11341230Y11526488D01*
X11339492Y11533794D01*
X11337417Y11540200D01*
X11335003Y11545707D01*
X11332252Y11550315D01*
X11329162Y11554023D01*
X11341537Y11566398D01*
X11345245Y11563308D01*
D02*
G37*
G36*
X8722360Y11363960D02*
X8712200Y11353800D01*
X8496300D01*
Y11790680D01*
X8719820D01*
X8722360Y11363960D01*
D02*
G37*
G36*
X13087003Y11195401D02*
X13086508Y11195623D01*
X13085912Y11195667D01*
X13085214Y11195534D01*
X13084415Y11195224D01*
X13083514Y11194738D01*
X13082512Y11194075D01*
X13081409Y11193235D01*
X13078896Y11191024D01*
X13077487Y11189653D01*
X13065112Y11202027D01*
X13066484Y11203436D01*
X13069534Y11207052D01*
X13070198Y11208054D01*
X13070685Y11208955D01*
X13070995Y11209754D01*
X13071127Y11210452D01*
X13071083Y11211048D01*
X13070860Y11211543D01*
X13087003Y11195401D01*
D02*
G37*
G36*
X13562698Y11195247D02*
X13550938Y11182042D01*
X13546159Y11175892D01*
X13542117Y11170042D01*
X13538811Y11164494D01*
X13536238Y11159247D01*
X13534399Y11154301D01*
X13533298Y11149656D01*
X13532930Y11145311D01*
X13515430D01*
X13515062Y11149656D01*
X13513960Y11154301D01*
X13512122Y11159247D01*
X13509550Y11164494D01*
X13506242Y11170042D01*
X13502200Y11175892D01*
X13497421Y11182042D01*
X13485661Y11195247D01*
X13478680Y11202301D01*
X13569679D01*
X13562698Y11195247D01*
D02*
G37*
G36*
X13060577Y11325216D02*
X13064642Y11322711D01*
X13069440Y11320513D01*
X13074968Y11318622D01*
X13081230Y11317037D01*
X13088225Y11315759D01*
X13095952Y11314789D01*
X13113605Y11313767D01*
X13123531Y11313717D01*
X13059183Y11249370D01*
X13059132Y11259295D01*
X13058112Y11276948D01*
X13057141Y11284675D01*
X13055862Y11291670D01*
X13054279Y11297932D01*
X13052386Y11303461D01*
X13050189Y11308258D01*
X13047684Y11312322D01*
X13044872Y11315654D01*
X13057246Y11328028D01*
X13060577Y11325216D01*
D02*
G37*
G36*
X12860577D02*
X12864642Y11322711D01*
X12869440Y11320513D01*
X12874968Y11318622D01*
X12881232Y11317037D01*
X12888225Y11315759D01*
X12895952Y11314789D01*
X12913605Y11313767D01*
X12923531Y11313717D01*
X12859183Y11249370D01*
X12859132Y11259295D01*
X12858112Y11276948D01*
X12857141Y11284675D01*
X12855862Y11291670D01*
X12854279Y11297932D01*
X12852386Y11303461D01*
X12850189Y11308258D01*
X12847684Y11312322D01*
X12844872Y11315654D01*
X12857246Y11328028D01*
X12860577Y11325216D01*
D02*
G37*
G36*
X13125636Y13122301D02*
X13118884Y13130386D01*
X13105734Y13144006D01*
X13099335Y13149539D01*
X13093051Y13154221D01*
X13086885Y13158051D01*
X13080835Y13161031D01*
X13074902Y13163158D01*
X13069086Y13164433D01*
X13063387Y13164861D01*
X13065990Y13190260D01*
X13071114Y13190642D01*
X13076662Y13191788D01*
X13082635Y13193697D01*
X13089034Y13196368D01*
X13095857Y13199805D01*
X13103107Y13204005D01*
X13118883Y13214696D01*
X13127409Y13221185D01*
X13136360Y13228439D01*
X13125636Y13122301D01*
D02*
G37*
G36*
X16983067Y13142589D02*
X16983447Y13138271D01*
X16984084Y13134460D01*
X16984972Y13131158D01*
X16986115Y13128365D01*
X16987512Y13126079D01*
X16989163Y13124301D01*
X16991068Y13123032D01*
X16993227Y13122269D01*
X16995641Y13122015D01*
X16944839D01*
X16947253Y13122269D01*
X16949413Y13123032D01*
X16951317Y13124301D01*
X16952968Y13126079D01*
X16954366Y13128365D01*
X16955508Y13131158D01*
X16956396Y13134460D01*
X16957031Y13138271D01*
X16957413Y13142589D01*
X16957539Y13147415D01*
X16982941D01*
X16983067Y13142589D01*
D02*
G37*
G36*
X10252532Y13146114D02*
X10251237Y13145648D01*
X10250094Y13144872D01*
X10249103Y13143782D01*
X10248265Y13142383D01*
X10247579Y13140672D01*
X10247046Y13138654D01*
X10246665Y13136320D01*
X10246436Y13133678D01*
X10246360Y13130725D01*
X10231120D01*
X10231044Y13133678D01*
X10230815Y13136320D01*
X10230434Y13138654D01*
X10229901Y13140672D01*
X10229215Y13142383D01*
X10228377Y13143782D01*
X10227386Y13144872D01*
X10226243Y13145648D01*
X10224948Y13146114D01*
X10223500Y13146271D01*
X10253980D01*
X10252532Y13146114D01*
D02*
G37*
G36*
X9731338Y13146092D02*
X9729850Y13145557D01*
X9728538Y13144667D01*
X9727400Y13143420D01*
X9726437Y13141818D01*
X9725650Y13139861D01*
X9725037Y13137544D01*
X9724600Y13134874D01*
X9724337Y13131848D01*
X9724250Y13128465D01*
X9706750D01*
X9706663Y13131848D01*
X9706400Y13134874D01*
X9705963Y13137544D01*
X9705350Y13139861D01*
X9704563Y13141818D01*
X9703600Y13143420D01*
X9702462Y13144667D01*
X9701150Y13145557D01*
X9699662Y13146092D01*
X9698000Y13146271D01*
X9733000D01*
X9731338Y13146092D01*
D02*
G37*
G36*
X15442020Y13099483D02*
X15438715Y13100610D01*
X15435397Y13101262D01*
X15432072Y13101437D01*
X15428738Y13101137D01*
X15425397Y13100362D01*
X15422043Y13099109D01*
X15418681Y13097380D01*
X15415311Y13095177D01*
X15411929Y13092496D01*
X15408540Y13089340D01*
X15390581Y13107300D01*
X15393736Y13110690D01*
X15396416Y13114070D01*
X15398621Y13117441D01*
X15400349Y13120802D01*
X15401601Y13124156D01*
X15402377Y13127499D01*
X15402678Y13130833D01*
X15402502Y13134158D01*
X15401851Y13137474D01*
X15400723Y13140781D01*
X15442020Y13099483D01*
D02*
G37*
G36*
X17179483Y13119524D02*
X17181918Y13118369D01*
X17184621Y13117349D01*
X17187592Y13116466D01*
X17190831Y13115718D01*
X17194337Y13115108D01*
X17202155Y13114291D01*
X17206465Y13114088D01*
X17211044Y13114020D01*
Y13088620D01*
X17206465Y13088551D01*
X17194337Y13087534D01*
X17190831Y13086922D01*
X17187592Y13086174D01*
X17184621Y13085291D01*
X17181918Y13084271D01*
X17179483Y13083118D01*
X17177315Y13081825D01*
Y13120815D01*
X17179483Y13119524D01*
D02*
G37*
G36*
X15094617Y13128015D02*
X15089156Y13122377D01*
X15080656Y13112466D01*
X15077618Y13108192D01*
X15075388Y13104373D01*
X15073965Y13101009D01*
X15073351Y13098099D01*
X15073541Y13095642D01*
X15074542Y13093642D01*
X15076350Y13092094D01*
X15031734Y13118710D01*
X15034084Y13117705D01*
X15036710Y13117329D01*
X15039612Y13117583D01*
X15042790Y13118466D01*
X15046243Y13119978D01*
X15049974Y13122119D01*
X15053979Y13124889D01*
X15058263Y13128288D01*
X15062820Y13132318D01*
X15067654Y13136977D01*
X15094617Y13128015D01*
D02*
G37*
G36*
X12705865Y13108105D02*
X12705611Y13109624D01*
X12704849Y13110983D01*
X12703579Y13112183D01*
X12701801Y13113222D01*
X12699515Y13114101D01*
X12696721Y13114821D01*
X12693419Y13115379D01*
X12689609Y13115781D01*
X12680465Y13116100D01*
Y13141499D01*
X12685291Y13141580D01*
X12693419Y13142220D01*
X12696721Y13142780D01*
X12699515Y13143498D01*
X12701801Y13144379D01*
X12703579Y13145416D01*
X12704849Y13146617D01*
X12705611Y13147977D01*
X12705865Y13149495D01*
Y13108105D01*
D02*
G37*
G36*
X14714847Y13155289D02*
X14715228Y13150970D01*
X14715863Y13147160D01*
X14716753Y13143858D01*
X14717896Y13141064D01*
X14719292Y13138779D01*
X14720943Y13137001D01*
X14722849Y13135732D01*
X14725008Y13134969D01*
X14727420Y13134715D01*
X14676620D01*
X14679033Y13134969D01*
X14681192Y13135732D01*
X14683096Y13137001D01*
X14684747Y13138779D01*
X14686145Y13141064D01*
X14687288Y13143858D01*
X14688177Y13147160D01*
X14688812Y13150970D01*
X14689194Y13155289D01*
X14689320Y13160115D01*
X14714720D01*
X14714847Y13155289D01*
D02*
G37*
G36*
X10230598Y13442986D02*
X10229525Y13443959D01*
X10228211Y13444478D01*
X10226657Y13444540D01*
X10224863Y13444147D01*
X10222828Y13443297D01*
X10220552Y13441992D01*
X10218036Y13440230D01*
X10215280Y13438013D01*
X10209045Y13432208D01*
X10200769Y13445485D01*
X10203674Y13448499D01*
X10208265Y13453951D01*
X10209952Y13456392D01*
X10211233Y13458643D01*
X10212107Y13460703D01*
X10212576Y13462572D01*
X10212638Y13464252D01*
X10212295Y13465739D01*
X10211545Y13467038D01*
X10230598Y13442986D01*
D02*
G37*
G36*
X10080738Y13440445D02*
X10079665Y13441418D01*
X10078351Y13441937D01*
X10076797Y13442001D01*
X10075003Y13441608D01*
X10072968Y13440758D01*
X10070692Y13439452D01*
X10068176Y13437691D01*
X10065420Y13435472D01*
X10059185Y13429669D01*
X10050909Y13442944D01*
X10053814Y13445958D01*
X10058405Y13451411D01*
X10060092Y13453851D01*
X10061373Y13456104D01*
X10062247Y13458163D01*
X10062716Y13460033D01*
X10062778Y13461711D01*
X10062435Y13463200D01*
X10061685Y13464497D01*
X10080738Y13440445D01*
D02*
G37*
G36*
X9710554Y13450604D02*
X9709305Y13451707D01*
X9707784Y13452290D01*
X9705990Y13452351D01*
X9703924Y13451895D01*
X9701585Y13450917D01*
X9698974Y13449420D01*
X9696091Y13447401D01*
X9692935Y13444865D01*
X9685805Y13438229D01*
X9675931Y13453105D01*
X9679283Y13456581D01*
X9684578Y13462866D01*
X9686520Y13465674D01*
X9687993Y13468260D01*
X9688995Y13470624D01*
X9689527Y13472765D01*
X9689590Y13474684D01*
X9689183Y13476379D01*
X9688305Y13477853D01*
X9710554Y13450604D01*
D02*
G37*
G36*
X9558154D02*
X9556905Y13451707D01*
X9555384Y13452290D01*
X9553590Y13452351D01*
X9551524Y13451895D01*
X9549185Y13450917D01*
X9546574Y13449420D01*
X9543691Y13447401D01*
X9540535Y13444865D01*
X9533405Y13438229D01*
X9523531Y13453105D01*
X9526883Y13456581D01*
X9532178Y13462866D01*
X9534120Y13465674D01*
X9535593Y13468260D01*
X9536595Y13470624D01*
X9537127Y13472765D01*
X9537190Y13474684D01*
X9536783Y13476379D01*
X9535905Y13477853D01*
X9558154Y13450604D01*
D02*
G37*
G36*
X13787576Y13246378D02*
X13784009Y13242233D01*
X13780827Y13237329D01*
X13778035Y13231662D01*
X13775630Y13225233D01*
X13773611Y13218044D01*
X13771982Y13210091D01*
X13770740Y13201376D01*
X13769415Y13181662D01*
X13769336Y13170662D01*
X13693903Y13246095D01*
X13704903Y13246176D01*
X13724615Y13247499D01*
X13733330Y13248743D01*
X13741283Y13250372D01*
X13748473Y13252390D01*
X13754903Y13254794D01*
X13760568Y13257588D01*
X13765474Y13260770D01*
X13769617Y13264337D01*
X13787576Y13246378D01*
D02*
G37*
G36*
X12973216Y13158495D02*
X12967755Y13152856D01*
X12959256Y13142946D01*
X12956218Y13138672D01*
X12953987Y13134853D01*
X12952565Y13131488D01*
X12951949Y13128578D01*
X12952142Y13126122D01*
X12953142Y13124121D01*
X12954950Y13122574D01*
X12910333Y13149190D01*
X12912685Y13148186D01*
X12915311Y13147810D01*
X12918211Y13148064D01*
X12921388Y13148946D01*
X12924844Y13150458D01*
X12928574Y13152599D01*
X12932581Y13155370D01*
X12936862Y13158769D01*
X12941422Y13162798D01*
X12946255Y13167456D01*
X12973216Y13158495D01*
D02*
G37*
G36*
X16073576Y13246378D02*
X16070009Y13242233D01*
X16066827Y13237329D01*
X16064035Y13231662D01*
X16061630Y13225233D01*
X16059612Y13218044D01*
X16057982Y13210091D01*
X16056738Y13201376D01*
X16055415Y13181662D01*
X16055336Y13170662D01*
X15979903Y13246095D01*
X15990903Y13246176D01*
X16010616Y13247499D01*
X16019330Y13248743D01*
X16027283Y13250372D01*
X16034473Y13252390D01*
X16040903Y13254794D01*
X16046568Y13257588D01*
X16051474Y13260770D01*
X16055617Y13264337D01*
X16073576Y13246378D01*
D02*
G37*
G36*
X15652806Y13260770D02*
X15657710Y13257588D01*
X15663377Y13254794D01*
X15669807Y13252390D01*
X15676997Y13250372D01*
X15684950Y13248743D01*
X15693665Y13247499D01*
X15713377Y13246176D01*
X15724377Y13246095D01*
X15648944Y13170662D01*
X15648865Y13181662D01*
X15647540Y13201376D01*
X15646298Y13210091D01*
X15644669Y13218044D01*
X15642650Y13225233D01*
X15640245Y13231662D01*
X15637453Y13237329D01*
X15634271Y13242233D01*
X15630704Y13246378D01*
X15648663Y13264337D01*
X15652806Y13260770D01*
D02*
G37*
G36*
X12955560Y13086458D02*
X12956474Y13085532D01*
X12957999Y13084714D01*
X12960132Y13084004D01*
X12962875Y13083405D01*
X12966190Y13082918D01*
X12966399Y13082954D01*
X12967767Y13083284D01*
X12968887Y13083665D01*
X12969759Y13084097D01*
X12970381Y13084579D01*
Y13082594D01*
X12974762Y13082259D01*
X12985735Y13082040D01*
Y13051559D01*
X12979944Y13051505D01*
X12970381Y13050772D01*
Y13049020D01*
X12969759Y13049503D01*
X12968887Y13049934D01*
X12967767Y13050314D01*
X12966962Y13050510D01*
X12962875Y13050195D01*
X12960132Y13049596D01*
X12957999Y13048888D01*
X12956474Y13048068D01*
X12955560Y13047141D01*
X12955255Y13046104D01*
Y13051540D01*
X12952960Y13051559D01*
Y13082040D01*
X12955255Y13082060D01*
Y13087495D01*
X12955560Y13086458D01*
D02*
G37*
G36*
X12765560D02*
X12766474Y13085532D01*
X12767998Y13084714D01*
X12770132Y13084004D01*
X12772875Y13083405D01*
X12776228Y13082913D01*
X12777592Y13082808D01*
X12778439Y13082954D01*
X12779807Y13083284D01*
X12780927Y13083665D01*
X12781799Y13084097D01*
X12782421Y13084579D01*
Y13082439D01*
X12784762Y13082259D01*
X12795735Y13082040D01*
Y13051559D01*
X12789944Y13051505D01*
X12782421Y13050928D01*
Y13049020D01*
X12781799Y13049503D01*
X12780927Y13049934D01*
X12779807Y13050314D01*
X12778510Y13050629D01*
X12772875Y13050195D01*
X12770132Y13049596D01*
X12767998Y13048888D01*
X12766474Y13048068D01*
X12765560Y13047141D01*
X12765255Y13046104D01*
Y13051558D01*
X12765000Y13051559D01*
Y13082040D01*
X12765255Y13082042D01*
Y13087495D01*
X12765560Y13086458D01*
D02*
G37*
G36*
X15182304Y13083691D02*
X15182297Y13083012D01*
X15182541Y13082164D01*
X15183037Y13081143D01*
X15183784Y13079951D01*
X15184784Y13078589D01*
X15187540Y13075349D01*
X15191301Y13071426D01*
X15165215Y13054407D01*
X15149504Y13080325D01*
X15182562Y13084200D01*
X15182304Y13083691D01*
D02*
G37*
G36*
X17189828Y13058096D02*
X17190427Y13057355D01*
X17191422Y13056699D01*
X17192816Y13056131D01*
X17194608Y13055650D01*
X17196799Y13055258D01*
X17199387Y13054953D01*
X17205757Y13054604D01*
X17209540Y13054559D01*
Y13051868D01*
X17212585Y13051555D01*
X17209540Y13045457D01*
Y13024080D01*
X17205757Y13024036D01*
X17198581Y13023512D01*
X17196922Y13020190D01*
X17196547Y13020930D01*
X17195895Y13021591D01*
X17194971Y13022176D01*
X17193771Y13022681D01*
X17193619Y13022723D01*
X17192816Y13022508D01*
X17191422Y13021941D01*
X17190427Y13021288D01*
X17189828Y13020544D01*
X17189630Y13019714D01*
Y13023582D01*
X17188527Y13023730D01*
X17183659Y13024042D01*
X17180814Y13024080D01*
X17183394Y13054559D01*
X17189630Y13053918D01*
Y13058925D01*
X17189828Y13058096D01*
D02*
G37*
G36*
X14672325Y12969325D02*
X14672070Y12970844D01*
X14671309Y12972203D01*
X14670039Y12973402D01*
X14668262Y12974442D01*
X14665974Y12975322D01*
X14663181Y12976041D01*
X14659879Y12976601D01*
X14656068Y12977000D01*
X14646925Y12977319D01*
Y13002721D01*
X14651752Y13002800D01*
X14659879Y13003439D01*
X14663181Y13003999D01*
X14665974Y13004720D01*
X14668262Y13005598D01*
X14670039Y13006638D01*
X14671309Y13007837D01*
X14672070Y13009196D01*
X14672325Y13010715D01*
Y12969325D01*
D02*
G37*
G36*
X12757348Y12988222D02*
X12755441Y12986247D01*
X12753758Y12983955D01*
X12752299Y12981346D01*
X12751065Y12978419D01*
X12750055Y12975177D01*
X12749270Y12971617D01*
X12748709Y12967740D01*
X12748372Y12963547D01*
X12748260Y12959036D01*
X12722860D01*
X12722748Y12963547D01*
X12722411Y12967740D01*
X12721850Y12971617D01*
X12721065Y12975177D01*
X12720055Y12978419D01*
X12718821Y12981346D01*
X12717362Y12983955D01*
X12715679Y12986247D01*
X12713772Y12988222D01*
X12711640Y12989880D01*
X12759480D01*
X12757348Y12988222D01*
D02*
G37*
G36*
X15076961Y13055978D02*
X15077875Y13055051D01*
X15079398Y13054233D01*
X15081532Y13053523D01*
X15084274Y13052924D01*
X15087315Y13052478D01*
X15088667Y13052805D01*
X15089787Y13053185D01*
X15090659Y13053616D01*
X15091281Y13054100D01*
Y13052151D01*
X15096162Y13051778D01*
X15107135Y13051559D01*
Y13021080D01*
X15101344Y13021025D01*
X15091281Y13020253D01*
Y13018539D01*
X15090659Y13019022D01*
X15089787Y13019453D01*
X15088667Y13019835D01*
X15087984Y13020000D01*
X15084274Y13019716D01*
X15081532Y13019116D01*
X15079398Y13018407D01*
X15077875Y13017589D01*
X15076961Y13016661D01*
X15076656Y13015625D01*
Y13021056D01*
X15073860Y13021080D01*
Y13051559D01*
X15076656Y13051585D01*
Y13057014D01*
X15076961Y13055978D01*
D02*
G37*
G36*
X12955508Y13023976D02*
X12956271Y13022617D01*
X12957541Y13021419D01*
X12959319Y13020378D01*
X12961604Y13019499D01*
X12964400Y13018779D01*
X12967702Y13018221D01*
X12971510Y13017821D01*
X12980655Y13017500D01*
Y12992101D01*
X12975829Y12992020D01*
X12967702Y12991380D01*
X12964400Y12990820D01*
X12961604Y12990102D01*
X12959319Y12989223D01*
X12957541Y12988182D01*
X12956271Y12986983D01*
X12955508Y12985625D01*
X12955255Y12984105D01*
Y13025494D01*
X12955508Y13023976D01*
D02*
G37*
G36*
X16940546Y13018625D02*
X16940240Y13019662D01*
X16939326Y13020589D01*
X16937802Y13021407D01*
X16935667Y13022116D01*
X16932925Y13022716D01*
X16929572Y13023207D01*
X16921037Y13023862D01*
X16910065Y13024080D01*
Y13024652D01*
X16887218Y13026736D01*
X16902422Y13058479D01*
X16902815Y13057735D01*
X16903482Y13057069D01*
X16904420Y13056480D01*
X16905634Y13055971D01*
X16907117Y13055540D01*
X16908871Y13055186D01*
X16910899Y13054913D01*
X16915573Y13054613D01*
X16915855Y13054614D01*
X16932925Y13055923D01*
X16935667Y13056525D01*
X16937802Y13057233D01*
X16939326Y13058051D01*
X16940240Y13058978D01*
X16940546Y13060014D01*
Y13018625D01*
D02*
G37*
G36*
X14023416Y13158138D02*
X14024739Y13138425D01*
X14025983Y13129710D01*
X14027612Y13121758D01*
X14029630Y13114568D01*
X14032034Y13108138D01*
X14034828Y13102470D01*
X14038010Y13097566D01*
X14041577Y13093423D01*
X14023618Y13075462D01*
X14019473Y13079031D01*
X14014569Y13082211D01*
X14008902Y13085005D01*
X14002473Y13087410D01*
X13995284Y13089429D01*
X13987331Y13091058D01*
X13978616Y13092300D01*
X13958902Y13093623D01*
X13947902Y13093704D01*
X14023335Y13169138D01*
X14023416Y13158138D01*
D02*
G37*
G36*
X13438377Y13093704D02*
X13427377Y13093623D01*
X13407664Y13092300D01*
X13398950Y13091058D01*
X13390997Y13089429D01*
X13383807Y13087410D01*
X13377377Y13085005D01*
X13371712Y13082211D01*
X13366806Y13079031D01*
X13362663Y13075462D01*
X13344704Y13093423D01*
X13348271Y13097566D01*
X13351453Y13102470D01*
X13354245Y13108138D01*
X13356650Y13114568D01*
X13358669Y13121758D01*
X13360298Y13129710D01*
X13361542Y13138425D01*
X13362865Y13158138D01*
X13362944Y13169138D01*
X13438377Y13093704D01*
D02*
G37*
G36*
X15266908Y13117496D02*
X15267671Y13116138D01*
X15268941Y13114937D01*
X15270718Y13113898D01*
X15273006Y13113017D01*
X15275800Y13112299D01*
X15279102Y13111739D01*
X15282912Y13111340D01*
X15292055Y13111020D01*
Y13085620D01*
X15287228Y13085539D01*
X15279102Y13084900D01*
X15275800Y13084341D01*
X15273006Y13083621D01*
X15270718Y13082741D01*
X15268941Y13081702D01*
X15267671Y13080502D01*
X15266908Y13079144D01*
X15266655Y13077625D01*
Y13119016D01*
X15266908Y13117496D01*
D02*
G37*
G36*
X16309416Y13158138D02*
X16310739Y13138425D01*
X16311983Y13129710D01*
X16313612Y13121758D01*
X16315630Y13114568D01*
X16318034Y13108138D01*
X16320828Y13102470D01*
X16324010Y13097566D01*
X16327577Y13093423D01*
X16309618Y13075462D01*
X16305473Y13079031D01*
X16300569Y13082211D01*
X16294902Y13085005D01*
X16288474Y13087410D01*
X16281284Y13089429D01*
X16273331Y13091058D01*
X16264616Y13092300D01*
X16244902Y13093623D01*
X16233902Y13093704D01*
X16309335Y13169138D01*
X16309416Y13158138D01*
D02*
G37*
G36*
X14672325Y13031325D02*
X14672020Y13032362D01*
X14671106Y13033289D01*
X14669582Y13034106D01*
X14667448Y13034816D01*
X14664705Y13035416D01*
X14661353Y13035907D01*
X14656808Y13036256D01*
X14655179Y13036145D01*
X14653561Y13035866D01*
X14652193Y13035536D01*
X14651073Y13035155D01*
X14650201Y13034723D01*
X14649579Y13034241D01*
Y13036626D01*
X14641846Y13036780D01*
Y13067261D01*
X14647636Y13067316D01*
X14649579Y13067464D01*
Y13069800D01*
X14650201Y13069318D01*
X14651073Y13068886D01*
X14652193Y13068504D01*
X14653561Y13068175D01*
X14655179Y13067896D01*
X14655190Y13067894D01*
X14664705Y13068623D01*
X14667448Y13069225D01*
X14669582Y13069933D01*
X14671106Y13070750D01*
X14672020Y13071680D01*
X14672325Y13072716D01*
Y13031325D01*
D02*
G37*
G36*
X14862325D02*
X14862019Y13032076D01*
X14861105Y13032748D01*
X14859583Y13033342D01*
X14857448Y13033856D01*
X14854704Y13034291D01*
X14847984Y13034872D01*
X14844640Y13034645D01*
X14843022Y13034366D01*
X14841653Y13034035D01*
X14840533Y13033653D01*
X14839661Y13033223D01*
X14839040Y13032739D01*
Y13035194D01*
X14837636Y13035240D01*
X14831845Y13035280D01*
Y13065759D01*
X14837636Y13065829D01*
X14839040Y13065936D01*
Y13068300D01*
X14839661Y13067818D01*
X14840533Y13067386D01*
X14841653Y13067004D01*
X14843022Y13066673D01*
X14844640Y13066396D01*
X14844823Y13066376D01*
X14851352Y13066873D01*
X14854704Y13067499D01*
X14857448Y13068263D01*
X14859583Y13069168D01*
X14861105Y13070210D01*
X14862019Y13071394D01*
X14862325Y13072716D01*
Y13031325D01*
D02*
G37*
G36*
X10567158Y13091475D02*
X10565563Y13089555D01*
X10564156Y13087582D01*
X10562937Y13085556D01*
X10561905Y13083476D01*
X10561061Y13081342D01*
X10560404Y13079153D01*
X10559935Y13076913D01*
X10559654Y13074619D01*
X10559560Y13072269D01*
X10542760D01*
X10542666Y13074619D01*
X10542385Y13076913D01*
X10541916Y13079153D01*
X10541259Y13081342D01*
X10540415Y13083476D01*
X10539383Y13085556D01*
X10538164Y13087582D01*
X10536757Y13089555D01*
X10535162Y13091475D01*
X10533380Y13093341D01*
X10568940D01*
X10567158Y13091475D01*
D02*
G37*
G36*
X10699238Y13088934D02*
X10697643Y13087016D01*
X10696236Y13085043D01*
X10695017Y13083015D01*
X10693985Y13080936D01*
X10693141Y13078802D01*
X10692484Y13076614D01*
X10692015Y13074373D01*
X10691734Y13072078D01*
X10691640Y13069730D01*
X10674840D01*
X10674746Y13072078D01*
X10674465Y13074373D01*
X10673996Y13076614D01*
X10673339Y13078802D01*
X10672495Y13080936D01*
X10671463Y13083015D01*
X10670244Y13085043D01*
X10668837Y13087016D01*
X10667242Y13088934D01*
X10665460Y13090800D01*
X10701020D01*
X10699238Y13088934D01*
D02*
G37*
G36*
X12286709Y9487916D02*
X12285583Y9488956D01*
X12284351Y9489887D01*
X12283013Y9490708D01*
X12281570Y9491419D01*
X12280021Y9492021D01*
X12278366Y9492514D01*
X12276605Y9492897D01*
X12274739Y9493171D01*
X12272766Y9493335D01*
X12270688Y9493390D01*
Y9510890D01*
X12272766Y9510945D01*
X12274739Y9511109D01*
X12276605Y9511383D01*
X12278366Y9511766D01*
X12280021Y9512259D01*
X12281570Y9512861D01*
X12283013Y9513572D01*
X12284351Y9514393D01*
X12285583Y9515324D01*
X12286709Y9516364D01*
Y9487916D01*
D02*
G37*
G36*
X12591264Y9486503D02*
X12590333Y9485271D01*
X12589512Y9483934D01*
X12588800Y9482490D01*
X12588198Y9480941D01*
X12587706Y9479286D01*
X12587323Y9477525D01*
X12587049Y9475659D01*
X12586885Y9473687D01*
X12586830Y9471609D01*
X12569330D01*
X12569275Y9473687D01*
X12569111Y9475659D01*
X12568837Y9477525D01*
X12568454Y9479286D01*
X12567961Y9480941D01*
X12567359Y9482490D01*
X12566647Y9483934D01*
X12565826Y9485271D01*
X12564896Y9486503D01*
X12563856Y9487629D01*
X12592304D01*
X12591264Y9486503D01*
D02*
G37*
G36*
X9077447Y9630487D02*
X9078209Y9628328D01*
X9079479Y9626423D01*
X9081257Y9624772D01*
X9083543Y9623375D01*
X9086337Y9622232D01*
X9089639Y9621343D01*
X9093449Y9620708D01*
X9097767Y9620327D01*
X9102593Y9620200D01*
Y9594800D01*
X9097767Y9594673D01*
X9093449Y9594292D01*
X9089639Y9593657D01*
X9086337Y9592768D01*
X9083543Y9591625D01*
X9081257Y9590228D01*
X9079479Y9588577D01*
X9078209Y9586672D01*
X9077447Y9584513D01*
X9077193Y9582100D01*
Y9632900D01*
X9077447Y9630487D01*
D02*
G37*
G36*
X9218603Y9608079D02*
X9224888Y9602548D01*
X9225762Y9601955D01*
X9226508Y9601532D01*
X9227126Y9601280D01*
X9227617Y9601199D01*
X9207501Y9581083D01*
X9207420Y9581574D01*
X9207168Y9582192D01*
X9206745Y9582938D01*
X9206152Y9583812D01*
X9205387Y9584814D01*
X9203346Y9587200D01*
X9199002Y9591737D01*
X9216963Y9609698D01*
X9218603Y9608079D01*
D02*
G37*
G36*
X9059856Y9444954D02*
X9060471Y9444695D01*
X9061298Y9444467D01*
X9062335Y9444269D01*
X9063584Y9444101D01*
X9066715Y9443857D01*
X9072994Y9443720D01*
Y9418320D01*
X9070690Y9418305D01*
X9062335Y9417771D01*
X9061298Y9417573D01*
X9060471Y9417345D01*
X9059856Y9417086D01*
X9059451Y9416796D01*
Y9445244D01*
X9059856Y9444954D01*
D02*
G37*
G36*
X9223824Y9427032D02*
X9224290Y9425737D01*
X9225067Y9424594D01*
X9226156Y9423603D01*
X9227555Y9422765D01*
X9228475Y9422396D01*
X9228802Y9422511D01*
X9230419Y9423237D01*
X9231963Y9424096D01*
X9233436Y9425087D01*
X9234838Y9426209D01*
X9236169Y9427464D01*
Y9420944D01*
X9236260Y9420936D01*
X9239213Y9420860D01*
Y9405620D01*
X9236260Y9405544D01*
X9236169Y9405536D01*
Y9399016D01*
X9234838Y9400271D01*
X9233436Y9401393D01*
X9231963Y9402384D01*
X9230419Y9403243D01*
X9228802Y9403969D01*
X9228475Y9404084D01*
X9227555Y9403715D01*
X9226156Y9402877D01*
X9225067Y9401886D01*
X9224290Y9400743D01*
X9223824Y9399448D01*
X9223668Y9398000D01*
Y9405330D01*
X9223526Y9405356D01*
X9221624Y9405554D01*
X9219651Y9405620D01*
Y9420860D01*
X9221624Y9420926D01*
X9223526Y9421124D01*
X9223668Y9421150D01*
Y9428480D01*
X9223824Y9427032D01*
D02*
G37*
G36*
X12498977Y9486503D02*
X12498047Y9485271D01*
X12497225Y9483933D01*
X12496514Y9482490D01*
X12495912Y9480941D01*
X12495419Y9479286D01*
X12495036Y9477525D01*
X12494762Y9475659D01*
X12494598Y9473686D01*
X12494543Y9471608D01*
X12477043D01*
X12476988Y9473686D01*
X12476824Y9475659D01*
X12476550Y9477525D01*
X12476167Y9479286D01*
X12475675Y9480941D01*
X12475073Y9482490D01*
X12474361Y9483933D01*
X12473540Y9485271D01*
X12472609Y9486503D01*
X12471569Y9487629D01*
X12500017D01*
X12498977Y9486503D01*
D02*
G37*
G36*
X12407114Y9487049D02*
X12406030Y9485965D01*
X12405060Y9484770D01*
X12404205Y9483465D01*
X12403463Y9482049D01*
X12402836Y9480522D01*
X12402323Y9478885D01*
X12401923Y9477136D01*
X12401638Y9475278D01*
X12401467Y9473308D01*
X12401410Y9471228D01*
X12383910Y9472037D01*
X12383858Y9474113D01*
X12383701Y9476088D01*
X12383440Y9477962D01*
X12383075Y9479734D01*
X12382605Y9481404D01*
X12382031Y9482973D01*
X12381352Y9484441D01*
X12380569Y9485806D01*
X12379682Y9487071D01*
X12378690Y9488234D01*
X12407114Y9487049D01*
D02*
G37*
G36*
X9325984Y9669545D02*
X9420374D01*
X9415132Y9669035D01*
X9409367Y9667505D01*
X9403081Y9664955D01*
X9396272Y9661384D01*
X9388942Y9656794D01*
X9381089Y9651183D01*
X9363819Y9636901D01*
X9354401Y9628231D01*
X9352226Y9626111D01*
X9352692Y9620010D01*
X9353682Y9613140D01*
X9355067Y9607185D01*
X9356849Y9602146D01*
X9359026Y9598024D01*
X9361600Y9594817D01*
X9364569Y9592527D01*
X9367934Y9591153D01*
X9371695Y9590695D01*
X9281305D01*
X9285066Y9591153D01*
X9288431Y9592527D01*
X9291400Y9594817D01*
X9293974Y9598024D01*
X9296151Y9602146D01*
X9297933Y9607185D01*
X9299318Y9613140D01*
X9300308Y9620010D01*
X9300902Y9627797D01*
X9301100Y9636500D01*
X9326500D01*
X9308539Y9654461D01*
X9311854Y9657752D01*
X9325286Y9669697D01*
X9325809Y9669819D01*
X9325984Y9669545D01*
D02*
G37*
G36*
X10215244Y9722347D02*
X10215050Y9721295D01*
X10214879Y9719768D01*
X10214502Y9712346D01*
X10214319Y9695816D01*
X10188919D01*
X10187776Y9722926D01*
X10215461D01*
X10215244Y9722347D01*
D02*
G37*
G36*
X9481048Y9673840D02*
X9480775Y9676253D01*
X9479992Y9678412D01*
X9478699Y9680317D01*
X9476894Y9681968D01*
X9474579Y9683365D01*
X9471753Y9684508D01*
X9468417Y9685397D01*
X9464570Y9686032D01*
X9460211Y9686413D01*
X9455343Y9686540D01*
Y9711940D01*
X9460169Y9712019D01*
X9468297Y9712651D01*
X9471599Y9713203D01*
X9474393Y9713914D01*
X9476679Y9714782D01*
X9478457Y9715809D01*
X9479727Y9716993D01*
X9480489Y9718335D01*
X9480743Y9719835D01*
X9481048Y9673840D01*
D02*
G37*
G36*
X9420628Y9722227D02*
X9421390Y9720068D01*
X9422660Y9718163D01*
X9424438Y9716512D01*
X9426724Y9715115D01*
X9429518Y9713972D01*
X9432820Y9713083D01*
X9436630Y9712448D01*
X9440948Y9712067D01*
X9445719Y9711942D01*
X9445977Y9711940D01*
Y9686540D01*
X9445719Y9686539D01*
X9440948Y9686413D01*
X9436630Y9686032D01*
X9432820Y9685397D01*
X9429518Y9684508D01*
X9426724Y9683365D01*
X9424438Y9681968D01*
X9422660Y9680317D01*
X9421390Y9678412D01*
X9420628Y9676253D01*
X9420374Y9673840D01*
Y9685420D01*
X9398282Y9683957D01*
X9395012Y9683166D01*
X9392628Y9682270D01*
X9391129Y9681268D01*
Y9717212D01*
X9392628Y9716210D01*
X9395012Y9715314D01*
X9398282Y9714523D01*
X9402438Y9713838D01*
X9413408Y9712784D01*
X9420374Y9712545D01*
Y9724640D01*
X9420628Y9722227D01*
D02*
G37*
G36*
X11383652Y9715432D02*
X11382357Y9714975D01*
X11381214Y9714213D01*
X11380223Y9713146D01*
X11379385Y9711775D01*
X11378699Y9710098D01*
X11378166Y9708117D01*
X11377785Y9705831D01*
X11377556Y9703240D01*
X11377480Y9700345D01*
X11362240D01*
X11362164Y9703240D01*
X11361935Y9705831D01*
X11361554Y9708117D01*
X11361021Y9710098D01*
X11360335Y9711775D01*
X11359497Y9713146D01*
X11358506Y9714213D01*
X11357363Y9714975D01*
X11356068Y9715432D01*
X11354620Y9715585D01*
X11385100D01*
X11383652Y9715432D01*
D02*
G37*
G36*
X10220741Y10080740D02*
X10119141D01*
X10096281Y10057880D01*
X10096280Y9664700D01*
X9895620Y9664700D01*
X9895620Y10250920D01*
X10220741Y10250920D01*
Y10080740D01*
D02*
G37*
G36*
X10283053Y9689512D02*
X10292938Y9681328D01*
X10297166Y9678587D01*
X10300917Y9676748D01*
X10304192Y9675810D01*
X10306991Y9675773D01*
X10309314Y9676637D01*
X10311160Y9678403D01*
X10312531Y9681070D01*
X10289729Y9618271D01*
X10290529Y9621508D01*
X10290666Y9624983D01*
X10290139Y9628697D01*
X10288948Y9632650D01*
X10287094Y9636841D01*
X10284577Y9641271D01*
X10281396Y9645940D01*
X10277551Y9650846D01*
X10273043Y9655992D01*
X10267872Y9661376D01*
X10277396Y9694956D01*
X10283053Y9689512D01*
D02*
G37*
G36*
X13192506Y9677401D02*
X13189723Y9677348D01*
X13187064Y9677131D01*
X13184528Y9676750D01*
X13182115Y9676206D01*
X13179826Y9675498D01*
X13177661Y9674626D01*
X13175620Y9673591D01*
X13173701Y9672391D01*
X13171909Y9671029D01*
X13170239Y9669502D01*
X13159462Y9680279D01*
X13160989Y9681949D01*
X13162350Y9683742D01*
X13163551Y9685660D01*
X13164586Y9687701D01*
X13165459Y9689866D01*
X13166167Y9692155D01*
X13166710Y9694567D01*
X13167091Y9697103D01*
X13167308Y9699763D01*
X13167361Y9702546D01*
X13192506Y9677401D01*
D02*
G37*
G36*
X9080984Y9724798D02*
X9127993Y9724640D01*
Y9673840D01*
X9118341Y9673757D01*
X9089893Y9671756D01*
X9085321Y9670839D01*
X9081765Y9669756D01*
X9079225Y9668506D01*
X9077701Y9667089D01*
X9077193Y9665505D01*
Y9671993D01*
X9076026Y9672294D01*
X9073237Y9672767D01*
X9069829Y9673153D01*
X9061153Y9673668D01*
X9049998Y9673840D01*
Y9724640D01*
X9055885Y9724683D01*
X9076026Y9726187D01*
X9078195Y9726745D01*
X9079744Y9727389D01*
X9080674Y9728119D01*
X9080984Y9728935D01*
Y9724798D01*
D02*
G37*
G36*
X13097208Y8755380D02*
X13097002Y8757310D01*
X13096382Y8759038D01*
X13095351Y8760562D01*
X13093907Y8761882D01*
X13092052Y8763000D01*
X13089783Y8763914D01*
X13087102Y8764626D01*
X13084007Y8765134D01*
X13080501Y8765438D01*
X13076582Y8765540D01*
Y8785860D01*
X13080501Y8785962D01*
X13084007Y8786266D01*
X13087102Y8786774D01*
X13089783Y8787486D01*
X13092052Y8788400D01*
X13093907Y8789518D01*
X13095351Y8790838D01*
X13096382Y8792362D01*
X13097002Y8794090D01*
X13097208Y8796020D01*
Y8755380D01*
D02*
G37*
G36*
X13430000Y8750300D02*
X13220345D01*
X13213582Y8763000D01*
X13215446Y8765789D01*
X13217416Y8775700D01*
X13215446Y8785611D01*
X13209831Y8794012D01*
X13201430Y8799626D01*
X13191519Y8801598D01*
X13109821D01*
Y8897620D01*
X13110873Y8900160D01*
X13430000D01*
Y8750300D01*
D02*
G37*
G36*
X12070679Y8766551D02*
X12070496Y8767324D01*
X12069944Y8768016D01*
X12069025Y8768626D01*
X12067739Y8769155D01*
X12066085Y8769603D01*
X12064063Y8769969D01*
X12061673Y8770254D01*
X12055792Y8770579D01*
X12052300Y8770620D01*
Y8790940D01*
X12055792Y8790981D01*
X12064063Y8791591D01*
X12066085Y8791957D01*
X12067739Y8792405D01*
X12069025Y8792934D01*
X12069944Y8793544D01*
X12070496Y8794236D01*
X12070679Y8795009D01*
Y8766551D01*
D02*
G37*
G36*
X13052428Y8792032D02*
X13054085Y8790737D01*
X13055850Y8789594D01*
X13057726Y8788603D01*
X13059709Y8787765D01*
X13061801Y8787079D01*
X13064003Y8786546D01*
X13066313Y8786165D01*
X13068732Y8785936D01*
X13071260Y8785860D01*
Y8765540D01*
X13068732Y8765464D01*
X13066313Y8765235D01*
X13064003Y8764854D01*
X13061801Y8764321D01*
X13059709Y8763635D01*
X13057726Y8762797D01*
X13055850Y8761806D01*
X13054085Y8760663D01*
X13052428Y8759368D01*
X13050879Y8757920D01*
Y8793480D01*
X13052428Y8792032D01*
D02*
G37*
G36*
X11300351Y8665503D02*
X11298356Y8663465D01*
X11293677Y8658135D01*
X11292552Y8656620D01*
X11291646Y8655236D01*
X11290957Y8653982D01*
X11290485Y8652860D01*
X11290231Y8651868D01*
X11290195Y8651007D01*
X11263099Y8674036D01*
X11263753Y8674181D01*
X11264562Y8674535D01*
X11265526Y8675096D01*
X11266644Y8675866D01*
X11269344Y8678031D01*
X11272664Y8681029D01*
X11276602Y8684859D01*
X11300351Y8665503D01*
D02*
G37*
G36*
X12220717Y8624070D02*
X12218800Y8623879D01*
X12217259Y8623562D01*
X12216092Y8623118D01*
X12215300Y8622546D01*
X12214883Y8621848D01*
X12214841Y8621022D01*
X12215174Y8620070D01*
X12215881Y8618991D01*
X12216964Y8617784D01*
X12196551Y8609460D01*
X12193645Y8612248D01*
X12188007Y8616943D01*
X12185275Y8618851D01*
X12182600Y8620465D01*
X12179983Y8621786D01*
X12177424Y8622813D01*
X12174923Y8623546D01*
X12172479Y8623987D01*
X12170094Y8624133D01*
X12223008D01*
X12220717Y8624070D01*
D02*
G37*
G36*
X11996561Y8761212D02*
X11997577Y8760521D01*
X11998740Y8759911D01*
X12000048Y8759383D01*
X12001503Y8758936D01*
X12003104Y8758570D01*
X12004851Y8758286D01*
X12006744Y8758083D01*
X12010970Y8757920D01*
Y8737600D01*
X12008784Y8737559D01*
X12004851Y8737234D01*
X12003104Y8736950D01*
X12001503Y8736584D01*
X12000048Y8736137D01*
X11998740Y8735609D01*
X11997577Y8734999D01*
X11996561Y8734308D01*
X11995691Y8733536D01*
Y8761984D01*
X11996561Y8761212D01*
D02*
G37*
G36*
X11443750Y8654760D02*
X11443594Y8656208D01*
X11443128Y8657503D01*
X11442351Y8658646D01*
X11441263Y8659637D01*
X11439864Y8660475D01*
X11438154Y8661161D01*
X11436133Y8661694D01*
X11433801Y8662075D01*
X11431158Y8662304D01*
X11428735Y8662366D01*
X11426359Y8662304D01*
X11423769Y8662075D01*
X11421483Y8661694D01*
X11419501Y8661161D01*
X11417825Y8660475D01*
X11416453Y8659637D01*
X11415387Y8658646D01*
X11414625Y8657503D01*
X11414167Y8656208D01*
X11414015Y8654760D01*
Y8685240D01*
X11414167Y8683792D01*
X11414625Y8682497D01*
X11415387Y8681354D01*
X11416453Y8680363D01*
X11417825Y8679525D01*
X11419501Y8678839D01*
X11421483Y8678306D01*
X11423769Y8677925D01*
X11426359Y8677696D01*
X11428735Y8677634D01*
X11431158Y8677696D01*
X11433801Y8677925D01*
X11436133Y8678306D01*
X11438154Y8678839D01*
X11439864Y8679525D01*
X11441263Y8680363D01*
X11442351Y8681354D01*
X11443128Y8682497D01*
X11443594Y8683792D01*
X11443750Y8685240D01*
Y8654760D01*
D02*
G37*
G36*
X10568992Y8801609D02*
X10569190Y8799824D01*
X10569531Y8798082D01*
X10570016Y8796382D01*
X10570645Y8794726D01*
X10571418Y8793112D01*
X10572335Y8791542D01*
X10573396Y8790014D01*
X10574600Y8788529D01*
X10575949Y8787087D01*
X10565173Y8776311D01*
X10563731Y8777660D01*
X10562246Y8778864D01*
X10560718Y8779925D01*
X10559148Y8780842D01*
X10557534Y8781615D01*
X10555878Y8782244D01*
X10554178Y8782729D01*
X10552436Y8783070D01*
X10550651Y8783268D01*
X10548823Y8783321D01*
X10568939Y8803437D01*
X10568992Y8801609D01*
D02*
G37*
G36*
X10326285Y9017514D02*
X10326449Y9015541D01*
X10326723Y9013675D01*
X10327106Y9011914D01*
X10327599Y9010259D01*
X10328201Y9008710D01*
X10328912Y9007267D01*
X10329733Y9005929D01*
X10330664Y9004697D01*
X10331704Y9003571D01*
X10303256D01*
X10304296Y9004697D01*
X10305227Y9005929D01*
X10306048Y9007267D01*
X10306759Y9008710D01*
X10307361Y9010259D01*
X10307854Y9011914D01*
X10308237Y9013675D01*
X10308511Y9015541D01*
X10308675Y9017514D01*
X10308730Y9019592D01*
X10326230D01*
X10326285Y9017514D01*
D02*
G37*
G36*
X10248810Y9016270D02*
X10248841Y9014175D01*
X10249313Y9008482D01*
X10249596Y9006782D01*
X10250351Y9003678D01*
X10250823Y9002273D01*
X10251357Y9000968D01*
X10251955Y8999761D01*
X10224758Y9008105D01*
X10226003Y9008858D01*
X10227116Y9009761D01*
X10228099Y9010814D01*
X10228951Y9012017D01*
X10229672Y9013370D01*
X10230261Y9014872D01*
X10230720Y9016524D01*
X10231048Y9018326D01*
X10231244Y9020278D01*
X10231310Y9022379D01*
X10248810Y9016270D01*
D02*
G37*
G36*
X3970733Y9324437D02*
X3967354Y9321020D01*
X3966231Y9319791D01*
X3964869Y9317998D01*
X3963669Y9316080D01*
X3962634Y9314039D01*
X3961762Y9311874D01*
X3961054Y9309585D01*
X3960510Y9307173D01*
X3960129Y9304637D01*
X3959912Y9301977D01*
X3959859Y9299194D01*
X3953627Y9305426D01*
X3951594Y9303106D01*
X3950542Y9301383D01*
X3949911Y9299991D01*
X3949700Y9298930D01*
X3934450Y9314180D01*
X3935511Y9314391D01*
X3936903Y9315022D01*
X3938626Y9316074D01*
X3940680Y9317547D01*
X3941133Y9317920D01*
X3934714Y9324339D01*
X3937497Y9324392D01*
X3940157Y9324609D01*
X3942693Y9324990D01*
X3945105Y9325534D01*
X3947394Y9326242D01*
X3949559Y9327114D01*
X3951600Y9328149D01*
X3953518Y9329349D01*
X3955311Y9330711D01*
X3956540Y9331834D01*
X3959957Y9335213D01*
X3970733Y9324437D01*
D02*
G37*
G36*
X10142915Y9030189D02*
X10143112Y9028237D01*
X10143439Y9026434D01*
X10143897Y9024780D01*
X10144486Y9023276D01*
X10145207Y9021920D01*
X10146058Y9020713D01*
X10147039Y9019656D01*
X10148152Y9018748D01*
X10149396Y9017989D01*
X10122165Y9009757D01*
X10122770Y9010967D01*
X10123312Y9012275D01*
X10123789Y9013681D01*
X10124203Y9015186D01*
X10124554Y9016789D01*
X10125063Y9020289D01*
X10125222Y9022186D01*
X10125350Y9026276D01*
X10142850Y9032290D01*
X10142915Y9030189D01*
D02*
G37*
G36*
X10749942Y9003029D02*
X10751343Y9001906D01*
X10752817Y9000916D01*
X10754361Y9000057D01*
X10755977Y8999331D01*
X10757665Y8998736D01*
X10759424Y8998274D01*
X10761254Y8997944D01*
X10763156Y8997746D01*
X10765129Y8997680D01*
Y8982440D01*
X10763156Y8982374D01*
X10761254Y8982176D01*
X10759424Y8981845D01*
X10757665Y8981383D01*
X10755977Y8980789D01*
X10754361Y8980062D01*
X10752817Y8979204D01*
X10751343Y8978213D01*
X10749942Y8977091D01*
X10748611Y8975836D01*
Y9004284D01*
X10749942Y9003029D01*
D02*
G37*
G36*
X11496058Y8813841D02*
X11497494Y8790605D01*
X11497835Y8790315D01*
X11443445D01*
X11443786Y8790605D01*
X11444091Y8791477D01*
X11444360Y8792929D01*
X11444594Y8794962D01*
X11444953Y8800771D01*
X11445240Y8819360D01*
X11496040D01*
X11496058Y8813841D01*
D02*
G37*
G36*
X10661429Y9006612D02*
X10660080Y9005170D01*
X10658876Y9003686D01*
X10657815Y9002158D01*
X10656898Y9000587D01*
X10656125Y8998974D01*
X10655496Y8997318D01*
X10655011Y8995618D01*
X10654670Y8993876D01*
X10654472Y8992091D01*
X10654419Y8990263D01*
X10634303Y9010379D01*
X10636131Y9010432D01*
X10637916Y9010629D01*
X10639658Y9010971D01*
X10641358Y9011456D01*
X10643014Y9012085D01*
X10644627Y9012858D01*
X10646198Y9013775D01*
X10647726Y9014836D01*
X10649211Y9016040D01*
X10650653Y9017389D01*
X10661429Y9006612D01*
D02*
G37*
G36*
X10561429D02*
X10560080Y9005170D01*
X10558876Y9003686D01*
X10557815Y9002158D01*
X10556898Y9000587D01*
X10556125Y8998974D01*
X10555496Y8997318D01*
X10555011Y8995618D01*
X10554670Y8993876D01*
X10554472Y8992091D01*
X10554419Y8990263D01*
X10534303Y9010379D01*
X10536131Y9010432D01*
X10537916Y9010629D01*
X10539658Y9010971D01*
X10541358Y9011456D01*
X10543014Y9012085D01*
X10544628Y9012858D01*
X10546198Y9013775D01*
X10547726Y9014836D01*
X10549211Y9016040D01*
X10550653Y9017389D01*
X10561429Y9006612D01*
D02*
G37*
G36*
X11252200Y10055860D02*
X11203940Y10007600D01*
X11203940Y9715500D01*
X11116399Y9715499D01*
X11107419Y9724480D01*
X11107420Y10134600D01*
X11252200D01*
Y10055860D01*
D02*
G37*
G36*
X9162830Y10251440D02*
X9162674Y10252888D01*
X9162208Y10254183D01*
X9161431Y10255326D01*
X9160343Y10256317D01*
X9158944Y10257155D01*
X9157234Y10257841D01*
X9155213Y10258374D01*
X9152881Y10258755D01*
X9150238Y10258984D01*
X9147815Y10259046D01*
X9145439Y10258984D01*
X9142849Y10258755D01*
X9140563Y10258374D01*
X9138581Y10257841D01*
X9136905Y10257155D01*
X9135533Y10256317D01*
X9134467Y10255326D01*
X9133705Y10254183D01*
X9133247Y10252888D01*
X9133095Y10251440D01*
Y10281920D01*
X9133247Y10280472D01*
X9133705Y10279177D01*
X9134467Y10278034D01*
X9135533Y10277043D01*
X9136905Y10276205D01*
X9138581Y10275519D01*
X9140563Y10274986D01*
X9142849Y10274605D01*
X9145439Y10274376D01*
X9147815Y10274314D01*
X9150238Y10274376D01*
X9152881Y10274605D01*
X9155213Y10274986D01*
X9157234Y10275519D01*
X9158944Y10276205D01*
X9160343Y10277043D01*
X9161431Y10278034D01*
X9162208Y10279177D01*
X9162674Y10280472D01*
X9162830Y10281920D01*
Y10251440D01*
D02*
G37*
G36*
X12684557Y10271761D02*
X12684066Y10271680D01*
X12683448Y10271428D01*
X12682702Y10271005D01*
X12681828Y10270412D01*
X12680826Y10269647D01*
X12678440Y10267606D01*
X12673903Y10263262D01*
X12655942Y10281223D01*
X12657561Y10282863D01*
X12663092Y10289148D01*
X12663685Y10290022D01*
X12664108Y10290768D01*
X12664360Y10291386D01*
X12664441Y10291877D01*
X12684557Y10271761D01*
D02*
G37*
G36*
X9281984Y10334219D02*
X9280173Y10336248D01*
X9278309Y10338064D01*
X9276391Y10339666D01*
X9274420Y10341055D01*
X9272394Y10342230D01*
X9270316Y10343191D01*
X9268183Y10343939D01*
X9265997Y10344473D01*
X9263758Y10344793D01*
X9261465Y10344900D01*
X9262740Y10360140D01*
X9264962Y10360235D01*
X9267181Y10360521D01*
X9269396Y10360997D01*
X9271608Y10361664D01*
X9273817Y10362522D01*
X9276023Y10363570D01*
X9278225Y10364808D01*
X9280424Y10366237D01*
X9282620Y10367856D01*
X9284812Y10369666D01*
X9281984Y10334219D01*
D02*
G37*
G36*
X9079010Y10327120D02*
X9078753Y10329533D01*
X9077982Y10331692D01*
X9076696Y10333597D01*
X9074897Y10335248D01*
X9072584Y10336645D01*
X9069756Y10337788D01*
X9066414Y10338677D01*
X9062559Y10339312D01*
X9058189Y10339693D01*
X9053305Y10339820D01*
Y10365220D01*
X9058189Y10365347D01*
X9062559Y10365728D01*
X9066414Y10366363D01*
X9069756Y10367252D01*
X9072584Y10368395D01*
X9074897Y10369792D01*
X9076696Y10371443D01*
X9077982Y10373348D01*
X9078753Y10375507D01*
X9079010Y10377920D01*
Y10327120D01*
D02*
G37*
G36*
X13188248Y10058591D02*
X13185397Y10058172D01*
X13180112Y10056978D01*
X13177673Y10056204D01*
X13175374Y10055310D01*
X13173212Y10054298D01*
X13171185Y10053168D01*
X13169296Y10051919D01*
X13167545Y10050551D01*
X13165930Y10049064D01*
X13153645Y10058331D01*
X13155202Y10060044D01*
X13156555Y10061862D01*
X13157703Y10063784D01*
X13158646Y10065812D01*
X13159383Y10067946D01*
X13159917Y10070184D01*
X13160245Y10072528D01*
X13160367Y10074977D01*
X13160284Y10077531D01*
X13159998Y10080190D01*
X13188248Y10058591D01*
D02*
G37*
G36*
X9039062Y10068299D02*
X9039982Y10067569D01*
X9041515Y10066925D01*
X9043661Y10066366D01*
X9046421Y10065894D01*
X9049794Y10065507D01*
X9058381Y10064992D01*
X9069420Y10064820D01*
Y10014020D01*
X9063594Y10013977D01*
X9046421Y10012946D01*
X9043661Y10012474D01*
X9041515Y10011915D01*
X9039982Y10011271D01*
X9039062Y10010541D01*
X9038755Y10009725D01*
Y10069115D01*
X9039062Y10068299D01*
D02*
G37*
G36*
X9079010Y10251440D02*
X9078854Y10252888D01*
X9078388Y10254183D01*
X9077611Y10255326D01*
X9076523Y10256317D01*
X9075124Y10257155D01*
X9073414Y10257841D01*
X9071393Y10258374D01*
X9069061Y10258755D01*
X9066418Y10258984D01*
X9063465Y10259060D01*
Y10274300D01*
X9066418Y10274376D01*
X9069061Y10274605D01*
X9071393Y10274986D01*
X9073414Y10275519D01*
X9075124Y10276205D01*
X9076523Y10277043D01*
X9077611Y10278034D01*
X9078388Y10279177D01*
X9078854Y10280472D01*
X9079010Y10281920D01*
Y10251440D01*
D02*
G37*
G36*
X12509297Y10228581D02*
X12508806Y10228500D01*
X12508188Y10228248D01*
X12507442Y10227825D01*
X12506568Y10227232D01*
X12505566Y10226467D01*
X12503180Y10224426D01*
X12498643Y10220082D01*
X12480682Y10238043D01*
X12482301Y10239683D01*
X12487832Y10245968D01*
X12488425Y10246842D01*
X12488848Y10247588D01*
X12489100Y10248206D01*
X12489181Y10248697D01*
X12509297Y10228581D01*
D02*
G37*
G36*
X9217067Y10366312D02*
X9217525Y10365017D01*
X9218287Y10363874D01*
X9219353Y10362883D01*
X9220725Y10362045D01*
X9222401Y10361359D01*
X9224383Y10360826D01*
X9226669Y10360445D01*
X9229259Y10360216D01*
X9232155Y10360140D01*
Y10344900D01*
X9229259Y10344824D01*
X9226669Y10344595D01*
X9224383Y10344214D01*
X9222401Y10343681D01*
X9220725Y10342995D01*
X9219353Y10342157D01*
X9218287Y10341166D01*
X9217525Y10340023D01*
X9217067Y10338728D01*
X9216915Y10337280D01*
Y10367760D01*
X9217067Y10366312D01*
D02*
G37*
G36*
X5178680Y10827753D02*
X5179313Y10827535D01*
X5184901Y10826248D01*
X5191505Y10825248D01*
X5199125Y10824533D01*
X5217413Y10823961D01*
Y10773161D01*
X5207761Y10773018D01*
X5191505Y10771875D01*
X5184901Y10770874D01*
X5179313Y10769587D01*
X5178680Y10769370D01*
Y10744281D01*
X4955160D01*
X4952620Y11171001D01*
X4962780Y11181161D01*
X5178680D01*
Y10827753D01*
D02*
G37*
G36*
X8722360Y10490200D02*
X8719820Y10487660D01*
X8399780D01*
Y10660380D01*
X8722360D01*
Y10490200D01*
D02*
G37*
G36*
X8732520Y10777220D02*
X8509000D01*
X8508907Y10792825D01*
X8505315Y10793652D01*
X8498711Y10794653D01*
X8491091Y10795368D01*
X8472803Y10795940D01*
Y10846740D01*
X8482455Y10846883D01*
X8498711Y10848026D01*
X8505315Y10849027D01*
X8508568Y10849776D01*
X8506460Y11203940D01*
X8516620Y11214100D01*
X8732520D01*
Y10777220D01*
D02*
G37*
G36*
X13203375Y10784286D02*
X13202888Y10784039D01*
X13202058Y10783426D01*
X13200888Y10782446D01*
X13192790Y10774854D01*
X13183130Y10765308D01*
X13168936Y10775863D01*
X13171899Y10778949D01*
X13176340Y10784373D01*
X13177818Y10786712D01*
X13178801Y10788801D01*
X13179289Y10790642D01*
X13179285Y10792234D01*
X13178784Y10793577D01*
X13177788Y10794671D01*
X13176299Y10795516D01*
X13203375Y10784286D01*
D02*
G37*
G36*
X5306060Y10467947D02*
X4963832D01*
X4962780Y10470487D01*
Y10640667D01*
X5306060D01*
Y10467947D01*
D02*
G37*
G36*
X8810707Y10488452D02*
X8808548Y10487681D01*
X8806643Y10486396D01*
X8804992Y10484597D01*
X8803595Y10482283D01*
X8802452Y10479456D01*
X8801563Y10476114D01*
X8800928Y10472258D01*
X8800547Y10467888D01*
X8800420Y10463004D01*
X8775020D01*
X8774893Y10467888D01*
X8774512Y10472258D01*
X8773877Y10476114D01*
X8772988Y10479456D01*
X8771845Y10482283D01*
X8770448Y10484597D01*
X8768797Y10486396D01*
X8766892Y10487681D01*
X8764733Y10488452D01*
X8762320Y10488709D01*
X8813120D01*
X8810707Y10488452D01*
D02*
G37*
G36*
X9000000Y10490000D02*
X8990000Y10480000D01*
X8839755D01*
X8832235Y10486460D01*
X8829523Y10490457D01*
X8826891Y10495287D01*
X8824784Y10500374D01*
X8824715Y10500402D01*
X8823927Y10500729D01*
X8823483Y10501543D01*
X8818204Y10503099D01*
X8817885Y10503231D01*
X8817768Y10503360D01*
X8817547Y10503371D01*
X8816207Y10503926D01*
Y10515599D01*
X8814039Y10526501D01*
X8807864Y10535743D01*
X8798622Y10541918D01*
X8787720Y10544087D01*
X8776818Y10541918D01*
X8767576Y10535743D01*
X8762700Y10528445D01*
X8754300Y10529028D01*
X8750000Y10530557D01*
Y10950000D01*
X8880000Y10950000D01*
X8880000Y11590000D01*
X8740000Y11590000D01*
X8740000Y12080000D01*
X9000000D01*
Y10490000D01*
D02*
G37*
G36*
X4920000Y12060000D02*
Y11600000D01*
X4790000Y11599999D01*
X4790000Y10940000D01*
X4920000D01*
X4930000Y10930000D01*
Y10470000D01*
X4670000D01*
Y12060000D01*
X4680000Y12070000D01*
X4910000D01*
X4920000Y12060000D01*
D02*
G37*
G36*
X9325984Y9764545D02*
X9290000Y9764600D01*
Y9815400D01*
X9296837Y9815485D01*
X9313030Y9816765D01*
X9316988Y9817534D01*
X9320226Y9818473D01*
X9322745Y9819582D01*
X9324544Y9820863D01*
X9325624Y9822313D01*
X9325984Y9823935D01*
Y9764545D01*
D02*
G37*
G36*
X12498508Y9734477D02*
X12499042Y9726122D01*
X12499240Y9725084D01*
X12499469Y9724258D01*
X12499728Y9723642D01*
X12500017Y9723238D01*
X12471569D01*
X12471859Y9723642D01*
X12472118Y9724258D01*
X12472346Y9725084D01*
X12472545Y9726122D01*
X12472712Y9727371D01*
X12472956Y9730502D01*
X12473093Y9736781D01*
X12498493D01*
X12498508Y9734477D01*
D02*
G37*
G36*
X10294204Y9843962D02*
X10291614Y9843038D01*
X10289328Y9841499D01*
X10287346Y9839344D01*
X10285670Y9836573D01*
X10284298Y9833187D01*
X10283232Y9829185D01*
X10282470Y9824567D01*
X10282012Y9819334D01*
X10281860Y9813485D01*
X10251380D01*
X10251228Y9819334D01*
X10250770Y9824567D01*
X10250008Y9829185D01*
X10248942Y9833187D01*
X10247570Y9836573D01*
X10245894Y9839344D01*
X10243912Y9841499D01*
X10241626Y9843038D01*
X10239036Y9843962D01*
X10236140Y9844270D01*
X10297100D01*
X10294204Y9843962D01*
D02*
G37*
G36*
X13179807Y9804401D02*
X13177023Y9804348D01*
X13174364Y9804131D01*
X13171828Y9803750D01*
X13169415Y9803206D01*
X13167126Y9802498D01*
X13164961Y9801626D01*
X13162920Y9800591D01*
X13161002Y9799391D01*
X13159209Y9798029D01*
X13157539Y9796502D01*
X13146762Y9807279D01*
X13148289Y9808949D01*
X13149651Y9810742D01*
X13150851Y9812660D01*
X13151886Y9814701D01*
X13152757Y9816866D01*
X13153465Y9819155D01*
X13154010Y9821567D01*
X13154391Y9824103D01*
X13154608Y9826763D01*
X13154662Y9829546D01*
X13179807Y9804401D01*
D02*
G37*
G36*
X9519327Y9761711D02*
X9517168Y9760949D01*
X9515263Y9759679D01*
X9513612Y9757901D01*
X9512215Y9755615D01*
X9511072Y9752821D01*
X9510183Y9749519D01*
X9509548Y9745709D01*
X9509167Y9741391D01*
X9509153Y9740882D01*
X9509167Y9740368D01*
X9509548Y9736012D01*
X9510183Y9732165D01*
X9511072Y9728829D01*
X9512215Y9726004D01*
X9513612Y9723688D01*
X9515263Y9721883D01*
X9517168Y9720589D01*
X9519327Y9719804D01*
X9521740Y9719530D01*
X9480743Y9719835D01*
X9481293Y9720089D01*
X9481786Y9720851D01*
X9482220Y9722121D01*
X9482597Y9723899D01*
X9482916Y9726185D01*
X9483379Y9732281D01*
X9483574Y9741985D01*
X9482597Y9757901D01*
X9482220Y9759679D01*
X9481786Y9760949D01*
X9481293Y9761711D01*
X9480743Y9761965D01*
X9521740D01*
X9519327Y9761711D01*
D02*
G37*
G36*
X9028842Y9769077D02*
X9029388Y9767553D01*
X9029869Y9765013D01*
X9030285Y9761457D01*
X9030927Y9751297D01*
X9031440Y9718785D01*
X8980640D01*
X8980522Y9728437D01*
X8978752Y9751297D01*
X8977691Y9756885D01*
X8976393Y9761457D01*
X8974859Y9765013D01*
X8973090Y9767553D01*
X8971084Y9769077D01*
X8968843Y9769585D01*
X9028233D01*
X9028842Y9769077D01*
D02*
G37*
G36*
X10474164Y10258540D02*
Y10208260D01*
X10477318Y10192403D01*
X10486300Y10178960D01*
X10499743Y10169978D01*
X10515600Y10166824D01*
X10531457Y10169978D01*
X10540780Y10176207D01*
X10553480Y10170682D01*
X10553480Y9720580D01*
X10373140Y9720580D01*
X10373141Y10065500D01*
X10350281Y10088360D01*
X10248681D01*
Y10258540D01*
X10474164Y10258540D01*
D02*
G37*
G36*
X12590795Y9731090D02*
X12591328Y9722735D01*
X12591527Y9721697D01*
X12591755Y9720871D01*
X12592014Y9720255D01*
X12592304Y9719851D01*
X12563856D01*
X12564145Y9720255D01*
X12564404Y9720871D01*
X12564633Y9721697D01*
X12564831Y9722735D01*
X12564999Y9723984D01*
X12565243Y9727115D01*
X12565380Y9733394D01*
X12590780D01*
X12590795Y9731090D01*
D02*
G37*
G36*
X9565043Y9918265D02*
X9566567Y9917504D01*
X9569107Y9916833D01*
X9572663Y9916251D01*
X9577235Y9915759D01*
X9597047Y9914819D01*
X9615335Y9914640D01*
Y9867100D01*
X9628340D01*
X9627833Y9816355D01*
X9568443D01*
X9570171Y9816863D01*
X9571718Y9818385D01*
X9573082Y9820922D01*
X9574265Y9824474D01*
X9575266Y9829041D01*
X9576084Y9834623D01*
X9577176Y9848832D01*
X9577437Y9861927D01*
X9566567Y9861206D01*
X9565043Y9860507D01*
X9564535Y9859725D01*
Y9919115D01*
X9565043Y9918265D01*
D02*
G37*
G36*
X9465145Y9914697D02*
X9471174Y9914640D01*
Y9863840D01*
X9465145Y9863813D01*
Y9859725D01*
X9464637Y9860507D01*
X9463113Y9861206D01*
X9460573Y9861824D01*
X9457017Y9862358D01*
X9449513Y9862967D01*
X9422406Y9861091D01*
X9420882Y9860361D01*
X9420374Y9859545D01*
Y9863814D01*
X9414345Y9863840D01*
Y9914640D01*
X9420374Y9914668D01*
Y9918935D01*
X9420882Y9918119D01*
X9422406Y9917389D01*
X9424946Y9916745D01*
X9428502Y9916186D01*
X9433074Y9915714D01*
X9437832Y9915497D01*
X9460573Y9916833D01*
X9463113Y9917504D01*
X9464637Y9918265D01*
X9465145Y9919115D01*
Y9914697D01*
D02*
G37*
G36*
X13187427Y9931401D02*
X13184644Y9931348D01*
X13181982Y9931131D01*
X13179446Y9930750D01*
X13177036Y9930206D01*
X13174747Y9929498D01*
X13172581Y9928626D01*
X13170540Y9927591D01*
X13168622Y9926391D01*
X13166829Y9925029D01*
X13165160Y9923502D01*
X13154382Y9934279D01*
X13155910Y9935949D01*
X13157271Y9937742D01*
X13158472Y9939660D01*
X13159506Y9941701D01*
X13160378Y9943866D01*
X13161086Y9946155D01*
X13161630Y9948567D01*
X13162012Y9951103D01*
X13162228Y9953763D01*
X13162280Y9956546D01*
X13187427Y9931401D01*
D02*
G37*
G36*
X9465145Y10009725D02*
X9464793Y10010651D01*
X9463739Y10011480D01*
X9461982Y10012211D01*
X9459522Y10012845D01*
X9456359Y10013381D01*
X9452493Y10013820D01*
X9442652Y10014405D01*
X9430000Y10014600D01*
Y10065400D01*
X9436678Y10065437D01*
X9461982Y10067220D01*
X9463739Y10067778D01*
X9464793Y10068409D01*
X9465145Y10069115D01*
Y10009725D01*
D02*
G37*
G36*
X11421110Y9916160D02*
X11413490Y9908540D01*
X11324590D01*
Y10007600D01*
X11276330Y10055860D01*
Y10134600D01*
X11421110D01*
Y9916160D01*
D02*
G37*
G36*
X16352983Y9854310D02*
X16352086Y9853952D01*
X16351295Y9853356D01*
X16350609Y9852521D01*
X16350029Y9851447D01*
X16349554Y9850135D01*
X16349185Y9848584D01*
X16348921Y9846795D01*
X16348763Y9844767D01*
X16348712Y9842592D01*
X16349980Y9843860D01*
X16351335Y9842616D01*
X16352780Y9841506D01*
X16354314Y9840529D01*
X16355937Y9839685D01*
X16357651Y9838974D01*
X16359451Y9838397D01*
X16361343Y9837952D01*
X16363326Y9837641D01*
X16365398Y9837463D01*
X16367557Y9837419D01*
X16347441Y9817303D01*
X16347397Y9819463D01*
X16347218Y9821534D01*
X16346909Y9823516D01*
X16346463Y9825408D01*
X16345886Y9827210D01*
X16345175Y9828923D01*
X16344331Y9830546D01*
X16343353Y9832080D01*
X16342244Y9833525D01*
X16341000Y9834880D01*
X16348621Y9842500D01*
X16336011D01*
X16335957Y9844767D01*
X16335799Y9846795D01*
X16335535Y9848584D01*
X16335165Y9850135D01*
X16334691Y9851447D01*
X16334111Y9852521D01*
X16333424Y9853356D01*
X16332634Y9853952D01*
X16331737Y9854310D01*
X16330734Y9854430D01*
X16353986D01*
X16352983Y9854310D01*
D02*
G37*
G36*
X9039263Y9918299D02*
X9040787Y9917569D01*
X9043327Y9916925D01*
X9046883Y9916367D01*
X9051455Y9915894D01*
X9053802Y9915787D01*
X9078952Y9917454D01*
X9080476Y9918153D01*
X9080984Y9918935D01*
Y9914901D01*
X9089555Y9914820D01*
Y9864020D01*
X9080984Y9863982D01*
Y9859545D01*
X9080476Y9860395D01*
X9078952Y9861156D01*
X9076412Y9861827D01*
X9072856Y9862409D01*
X9068284Y9862901D01*
X9065950Y9863012D01*
X9040787Y9861271D01*
X9039263Y9860541D01*
X9038755Y9859725D01*
Y9863936D01*
X9030184Y9864020D01*
Y9914820D01*
X9038755Y9914857D01*
Y9919115D01*
X9039263Y9918299D01*
D02*
G37*
G36*
X8939365Y9859725D02*
X8939032Y9860161D01*
X8938032Y9860551D01*
X8936366Y9860895D01*
X8934033Y9861194D01*
X8931821Y9861346D01*
X8933713Y9836675D01*
X8934713Y9832103D01*
X8935896Y9828547D01*
X8937259Y9826007D01*
X8938805Y9824483D01*
X8940533Y9823975D01*
X8881143D01*
X8881047Y9824483D01*
X8880962Y9826007D01*
X8880640Y9874775D01*
X8906040D01*
Y9912820D01*
X8912372Y9912883D01*
X8927368Y9913827D01*
X8931034Y9914394D01*
X8934033Y9915086D01*
X8936366Y9915905D01*
X8938032Y9916849D01*
X8939032Y9917919D01*
X8939365Y9919115D01*
Y9859725D01*
D02*
G37*
%LPC*%
G36*
X8908980Y11919577D02*
X8895105Y11916817D01*
X8883343Y11908958D01*
X8875483Y11897195D01*
X8872723Y11883320D01*
X8875483Y11869445D01*
X8883343Y11857683D01*
X8895105Y11849823D01*
X8908980Y11847063D01*
X8922855Y11849823D01*
X8934618Y11857683D01*
X8942477Y11869445D01*
X8945237Y11883320D01*
X8942477Y11897195D01*
X8934618Y11908958D01*
X8922855Y11916817D01*
X8908980Y11919577D01*
D02*
G37*
%LPD*%
D10*
X10266620Y9761160D02*
Y9871160D01*
Y9684180D02*
Y9761160D01*
X10289119Y9893660D02*
X10289120Y9893660D01*
X10266620Y9871160D02*
X10289119Y9893660D01*
X3926840Y5128260D02*
Y5247640D01*
Y5125720D02*
Y5128260D01*
X8019998Y8180000D02*
X8020000D01*
X7960000D02*
X8019998D01*
X10266620Y9684180D02*
X10319120Y9631680D01*
X6691300Y5113020D02*
X6734480Y5156200D01*
X6742900D01*
X4186180Y8373860D02*
X4272280Y8287760D01*
X4206240Y7584180D02*
X4272280Y7650220D01*
Y8287760D01*
X3916680Y8373860D02*
X4186180D01*
X3909060Y7584180D02*
X4206240D01*
X3261360Y7202760D02*
Y7487920D01*
X3934460Y9298940D02*
X3962400D01*
X3857261Y5116880D02*
X3918000D01*
X3926840Y5125720D01*
X3147060Y6954520D02*
X3926840Y6174740D01*
X3147060Y6954520D02*
Y7122160D01*
X3227660Y7202760D01*
X3261360D01*
X3345020D01*
X3348240Y7205980D01*
X3926840Y5247640D02*
Y6174740D01*
X11483340Y8419580D02*
Y8453120D01*
X11544300Y8514080D01*
X13133299Y11002780D02*
Y11073300D01*
X7085800Y4995800D02*
Y5050040D01*
X6819986Y6216786D02*
Y6319987D01*
X6732220Y6129020D02*
X6819986Y6216786D01*
X14631441Y13052020D02*
X14702020D01*
X14820900Y13050520D02*
X14890520D01*
X14892020Y13052020D01*
X12735560Y13066800D02*
X12800560D01*
X12925560D02*
X12988519D01*
X11373915Y8760620D02*
X11386820D01*
X11264900Y8648700D02*
Y8651605D01*
X11373915Y8760620D01*
X15046960Y13036320D02*
X15109419D01*
X15163800Y13077374D02*
Y13101320D01*
Y13077374D02*
X15204855Y13036320D01*
X15236960D01*
X17160240Y13039320D02*
X17209540D01*
X17221201Y13027660D01*
X16878300Y13050520D02*
X16889500Y13039320D01*
X16970239D01*
D11*
X11222398Y10106660D02*
D03*
X11307398D02*
D03*
X11129600Y8702040D02*
D03*
X11044600D02*
D03*
X10547500Y8610000D02*
D03*
X10632500D02*
D03*
X9060858Y8092440D02*
D03*
X9145858D02*
D03*
X9130618Y8704580D02*
D03*
X9045618D02*
D03*
X8947500Y8410000D02*
D03*
X9032500D02*
D03*
X10118678Y7818120D02*
D03*
X10033678D02*
D03*
X9937158Y8018780D02*
D03*
X10022158D02*
D03*
X9595438Y9692640D02*
D03*
X9510438D02*
D03*
X8702718Y10515599D02*
D03*
X8787718D02*
D03*
X8702718Y10924539D02*
D03*
X8787718D02*
D03*
X4967558Y12044681D02*
D03*
X4882558D02*
D03*
X4977718Y11633201D02*
D03*
X4892718D02*
D03*
X8674778Y12049760D02*
D03*
X8759778D02*
D03*
X8690018Y11617960D02*
D03*
X8775018D02*
D03*
X4992578Y10495361D02*
D03*
X4907578D02*
D03*
X4987498Y10909381D02*
D03*
X4902498D02*
D03*
X3930058Y5128260D02*
D03*
X4017758D02*
D03*
X9106578Y9403080D02*
D03*
X9194278D02*
D03*
X6644518Y6129020D02*
D03*
X6732218D02*
D03*
X6598798Y5113020D02*
D03*
X6686498D02*
D03*
X6729518Y6045200D02*
D03*
X6641818D02*
D03*
X6683798Y5029200D02*
D03*
X6596098D02*
D03*
X9510438Y9789160D02*
D03*
X9598138D02*
D03*
X8998538Y9796780D02*
D03*
X8910838D02*
D03*
X6927500Y6110000D02*
D03*
X7012500D02*
D03*
D13*
X11430000Y7425200D02*
D03*
Y7337500D02*
D03*
X9750000Y8107500D02*
D03*
Y8192500D02*
D03*
X10840000Y8807500D02*
D03*
Y8892500D02*
D03*
X10640058Y8811940D02*
D03*
Y8896940D02*
D03*
X10449998Y9007500D02*
D03*
Y9092500D02*
D03*
X10845798Y7398340D02*
D03*
Y7313340D02*
D03*
X10645138Y7414940D02*
D03*
Y7499940D02*
D03*
X10647678Y7987620D02*
D03*
Y7902620D02*
D03*
X10246358Y8195900D02*
D03*
Y8110900D02*
D03*
X9149998Y6937500D02*
D03*
Y7022500D02*
D03*
Y7492500D02*
D03*
Y7407500D02*
D03*
X8949998Y7517500D02*
D03*
Y7602500D02*
D03*
X9342118Y7891100D02*
D03*
Y7806100D02*
D03*
X10942318Y8073980D02*
D03*
Y7988980D02*
D03*
X10538458Y8297500D02*
D03*
Y8212500D02*
D03*
X10843258Y8406720D02*
D03*
Y8321720D02*
D03*
X9359898Y8576900D02*
D03*
Y8491900D02*
D03*
X9761218Y8291240D02*
D03*
Y8376240D02*
D03*
X9860278Y8287340D02*
D03*
Y8202340D02*
D03*
X9458958Y8291240D02*
D03*
Y8376240D02*
D03*
X9563098Y8569280D02*
D03*
Y8484280D02*
D03*
X9859998Y7802500D02*
D03*
Y7717500D02*
D03*
X10020298Y8373700D02*
D03*
Y8288700D02*
D03*
X10025380Y8569280D02*
D03*
Y8484280D02*
D03*
X9865358Y8475300D02*
D03*
Y8390300D02*
D03*
X9763758Y8990920D02*
D03*
Y8905920D02*
D03*
X9364978Y8978220D02*
D03*
Y8893220D02*
D03*
X9669778Y9093880D02*
D03*
Y9178880D02*
D03*
X9265918Y9086260D02*
D03*
Y9171260D02*
D03*
X10195558Y6334080D02*
D03*
Y6249080D02*
D03*
X9491978Y6339160D02*
D03*
Y6254160D02*
D03*
X10025380Y7616940D02*
D03*
Y7529240D02*
D03*
X11509998Y7337500D02*
D03*
Y7425200D02*
D03*
X16342360Y9883820D02*
D03*
Y9971520D02*
D03*
X16339819Y10359980D02*
D03*
Y10272280D02*
D03*
X11104880Y7316380D02*
D03*
Y7228680D02*
D03*
X11483340Y8331880D02*
D03*
Y8419580D02*
D03*
X11599998Y8357500D02*
D03*
Y8445200D02*
D03*
X7813040Y7839120D02*
D03*
Y7926820D02*
D03*
X7726680Y7839120D02*
D03*
Y7926820D02*
D03*
X11386820Y8672920D02*
D03*
Y8760620D02*
D03*
X11470640Y8672920D02*
D03*
Y8760620D02*
D03*
X8019998Y8097500D02*
D03*
Y8185200D02*
D03*
X8100000Y8097500D02*
D03*
Y8185200D02*
D03*
X9189720Y10264820D02*
D03*
Y10352520D02*
D03*
X9105900Y10264820D02*
D03*
Y10352520D02*
D03*
X9563100Y13480299D02*
D03*
Y13567999D02*
D03*
X9715500Y13480299D02*
D03*
Y13567999D02*
D03*
X10088880Y13470140D02*
D03*
Y13557840D02*
D03*
X10238740Y13472681D02*
D03*
Y13560381D02*
D03*
X9715500Y13263361D02*
D03*
Y13175661D02*
D03*
X10238740Y13263361D02*
D03*
Y13175661D02*
D03*
X3726180Y4843260D02*
D03*
Y4755560D02*
D03*
X3858260Y4843260D02*
D03*
Y4755560D02*
D03*
X7085800Y5137740D02*
D03*
Y5050040D02*
D03*
X6996900Y5052740D02*
D03*
Y5140440D02*
D03*
X9049998Y9607500D02*
D03*
Y9695200D02*
D03*
X6501598Y5038680D02*
D03*
Y4953680D02*
D03*
X6547318Y6122080D02*
D03*
Y6207080D02*
D03*
X6915618Y5036140D02*
D03*
Y4951140D02*
D03*
D17*
X8654999Y8410000D02*
D03*
X8844999D02*
D03*
X8864999Y8190000D02*
D03*
X8674999D02*
D03*
D26*
X13554999Y8420000D02*
D03*
X13404999D02*
D03*
X10664039Y10075660D02*
D03*
X10514039D02*
D03*
X9785279Y10005060D02*
D03*
X9935279D02*
D03*
X10319119Y9631680D02*
D03*
X10169119D02*
D03*
X10562519Y6189980D02*
D03*
X10712519D02*
D03*
X10712519Y6062980D02*
D03*
X10562519D02*
D03*
D38*
X10119998Y6675000D02*
D03*
Y6965000D02*
D03*
X9616438Y6921720D02*
D03*
Y6631720D02*
D03*
D39*
X10399998Y9505000D02*
D03*
Y9315000D02*
D03*
X10240000Y9315000D02*
D03*
Y9505000D02*
D03*
D40*
X4933479Y5177020D02*
D03*
Y5467020D02*
D03*
D41*
X8989060Y10039420D02*
D03*
Y9889420D02*
D03*
X11140440Y6368980D02*
D03*
Y6518980D02*
D03*
X10574020Y6371520D02*
D03*
Y6521520D02*
D03*
X10304780Y6391980D02*
D03*
Y6241980D02*
D03*
X9690100Y6391980D02*
D03*
Y6241980D02*
D03*
X13379997Y8805000D02*
D03*
Y8655000D02*
D03*
X11974441Y7888040D02*
D03*
Y7738040D02*
D03*
X13391760Y8019980D02*
D03*
Y8169980D02*
D03*
X7324560Y4362380D02*
D03*
Y4512380D02*
D03*
X9514840Y9889420D02*
D03*
Y10039420D02*
D03*
D50*
X6996900Y5145240D02*
X7085800D01*
X6547318Y6214580D02*
X6547320D01*
X6398260D02*
X6547318D01*
X6915618Y4943640D02*
X6915620D01*
X6776720D02*
X6915618D01*
X6693840Y5029200D02*
Y5034280D01*
Y4985220D02*
Y5029200D01*
X6501598Y4946180D02*
X6501600D01*
X6311900D02*
X6501598D01*
X9044940Y9431020D02*
X9078640D01*
X9098960Y9410700D01*
X7078380Y5198380D02*
X7310000Y5430000D01*
X6941440Y5198380D02*
X7078380D01*
X6913049Y5169990D02*
X6941440Y5198380D01*
X6800000Y6000000D02*
X6930000Y5870000D01*
X6800000Y6000000D02*
Y6070000D01*
X11974441Y7695559D02*
X12010000Y7660000D01*
X11974441Y7695559D02*
Y7738040D01*
X9496340Y9782560D02*
X9502940Y9789160D01*
X9496340Y9699240D02*
Y9782560D01*
X9373180Y9699240D02*
X9496340D01*
X10201620Y9673000D02*
Y9761160D01*
X10169120Y9640500D02*
X10201620Y9673000D01*
X10169120Y9631680D02*
Y9640500D01*
X6448260Y5161280D02*
X6496520Y5113020D01*
X6591300D01*
X6593840Y5034280D02*
Y5110480D01*
X6646380Y4937760D02*
X6693840Y4985220D01*
X6611620Y6019800D02*
X6637020Y6045200D01*
Y6123940D01*
X6374600Y6238240D02*
X6398260Y6214580D01*
X6493980Y6019800D02*
X6611620D01*
X3857261Y4995960D02*
Y5066880D01*
X12485793Y9708727D02*
Y10225193D01*
X12509500Y10248900D01*
X12578080Y9705340D02*
Y10185400D01*
X12684760Y10292080D01*
X4363720Y5016500D02*
X4375150Y5005070D01*
X6598800Y5113020D02*
Y5168780D01*
X3726180Y4843260D02*
X3858260D01*
X4331220D01*
X4363720Y4810760D01*
X3671520Y5116880D02*
X3732261D01*
X4017760Y5128260D02*
X4251960D01*
X4363720Y5016500D01*
X3727650Y5171490D02*
X3732261Y5166880D01*
X3641490Y5171490D02*
X3727650D01*
X3600000Y5130000D02*
X3641490Y5171490D01*
X3600000Y5060000D02*
Y5130000D01*
Y5060000D02*
X3659960Y5000040D01*
X3726180D01*
X13133299Y10812780D02*
Y10896700D01*
X8787720Y10422280D02*
Y10515599D01*
Y10422280D02*
X8857480Y10352520D01*
X9105900D01*
X7310000Y5430000D02*
Y5720000D01*
X7160000Y5870000D02*
X7310000Y5720000D01*
X6930000Y5870000D02*
X7160000D01*
X6996700Y5239020D02*
X7117080Y5359400D01*
X6799986Y5169990D02*
X6913049D01*
X6669040Y5239020D02*
X6996700D01*
X6598800Y5168780D02*
X6669040Y5239020D01*
X7117080Y5359400D02*
Y5504180D01*
X14892020Y12898120D02*
Y12990021D01*
X14691360Y12697460D02*
X14892020Y12898120D01*
X14165581Y12697460D02*
X14691360D01*
X13947141Y12915900D02*
X14165581Y12697460D01*
X14594380Y12990021D02*
X14702020D01*
X14544040Y13040359D02*
X14594380Y12990021D01*
X14076680Y13040359D02*
X14544040D01*
X13947141Y13169901D02*
X14076680Y13040359D01*
X14702020Y13114020D02*
Y13177020D01*
X14549120Y13329919D02*
X14702020Y13177020D01*
X13853160Y13329919D02*
X14549120D01*
X13693140Y13169901D02*
X13853160Y13329919D01*
X14892020Y13114020D02*
X14930119D01*
X14965680Y13078461D01*
Y12834621D02*
Y13078461D01*
X14744701Y12613640D02*
X14965680Y12834621D01*
X13995399Y12613640D02*
X14744701D01*
X13693140Y12915900D02*
X13995399Y12613640D01*
X12925560Y13128799D02*
X12974319Y13177560D01*
X13177480D01*
X13185139Y13169901D01*
X12925560Y13004800D02*
X13027660D01*
X13068300Y13045441D01*
X13314680D01*
X13439140Y13169901D01*
X12663980Y13128799D02*
X12735560D01*
X12585700Y13050520D02*
X12663980Y13128799D01*
X12585700Y12860020D02*
Y13050520D01*
Y12860020D02*
X12707620Y12738100D01*
X13261340D01*
X13439140Y12915900D01*
X12735560Y12946381D02*
Y13004800D01*
Y12946381D02*
X12766040Y12915900D01*
X13185139D01*
X15046960Y12885420D02*
Y12974319D01*
Y12885420D02*
X15163800Y12768580D01*
X15577820D01*
X15725140Y12915900D01*
X15236960Y12944341D02*
Y12974319D01*
Y12944341D02*
X15265401Y12915900D01*
X15471140D01*
X15236960Y13098320D02*
X15399561D01*
X15471140Y13169901D01*
X15046960Y13098320D02*
X15248080Y13299440D01*
X15595599D01*
X15725140Y13169901D01*
X15979140D02*
X16174719Y13365480D01*
X16832581D01*
X16970239Y13227820D01*
Y13101320D02*
Y13227820D01*
X16233141Y13169901D02*
X16362680Y13040359D01*
X17117059Y12694920D02*
X17284700Y12862560D01*
X16200121Y12694920D02*
X17117059D01*
X15979140Y12915900D02*
X16200121Y12694920D01*
X16233141Y12915900D02*
X16380460Y12768580D01*
X17053560D01*
X17160240Y12875259D01*
Y12977319D01*
X16362680Y13040359D02*
X16774159D01*
X17284700Y12862560D02*
Y13053059D01*
X17160240Y13101320D02*
X17236440D01*
X17284700Y13053059D01*
X16774159Y13040359D02*
X16837199Y12977319D01*
X16970239D01*
X9049998Y9607500D02*
X9201200D01*
X9227820Y9580880D01*
D51*
X9189720Y10266680D02*
X9210040D01*
X9105900D02*
X9189720D01*
X8760460D02*
X9105900D01*
X8100000Y8097520D02*
X8927520D01*
X8020000D02*
X8100000D01*
X11386820Y8670000D02*
X11470640D01*
X11354450D02*
X11386820D01*
X9667262Y7976200D02*
X9691062Y8000000D01*
X9830000D01*
X9210000Y8020000D02*
X9373105D01*
X9416905Y7976200D01*
X9667262D01*
X9745720Y7945720D02*
X9753164Y7953164D01*
X9380000Y7970000D02*
X9404280Y7945720D01*
X9745720D01*
X9951720Y8714740D02*
Y8966200D01*
X8681720Y9509760D02*
Y10187940D01*
Y9509760D02*
X8856980Y9334500D01*
X8681720Y10187940D02*
X8760460Y10266680D01*
X10053569Y8630920D02*
X10081509Y8602980D01*
X10066194Y8661400D02*
X10094134Y8633460D01*
X10078819Y8691880D02*
X10106759Y8663940D01*
X10146430D01*
X10094134Y8633460D02*
X10133805D01*
X10081509Y8602980D02*
X10121180D01*
X10133805Y8633460D02*
X10230480Y8536785D01*
X10121180Y8602980D02*
X10200000Y8524160D01*
X10146430Y8663940D02*
X10177190Y8633180D01*
X12690000Y9583910D02*
X13185139Y10079050D01*
X12690000Y7970000D02*
Y9583910D01*
X13185139Y10079050D02*
Y10083800D01*
X12781280Y9550400D02*
X13187680Y9956800D01*
X12781280Y8018175D02*
Y9550400D01*
X12867641Y9517380D02*
X13180060Y9829800D01*
X12867641Y8061430D02*
Y9517380D01*
X12950000Y9460040D02*
X13192760Y9702800D01*
X12950000Y8100685D02*
Y9460040D01*
X11076940Y10136940D02*
Y10741660D01*
X10454640Y11363960D02*
X11076940Y10741660D01*
X10454640Y11363960D02*
Y12501880D01*
X10238740Y12717780D02*
X10454640Y12501880D01*
X10238740Y12717780D02*
Y13175661D01*
X10972800Y10144760D02*
Y10655300D01*
X10337800Y11290300D02*
X10972800Y10655300D01*
X10337800Y11290300D02*
Y12471400D01*
X10134600Y12674600D02*
X10337800Y12471400D01*
X10134600Y12674600D02*
Y13111034D01*
X10909300Y9365260D02*
Y10591800D01*
X10218420Y11282680D02*
X10909300Y10591800D01*
X10218420Y11282680D02*
Y12443460D01*
X10007600Y12654280D02*
X10218420Y12443460D01*
X10007600Y12654280D02*
Y13388860D01*
X11050000Y10110000D02*
X11076940Y10136940D01*
X10939780Y10109780D02*
X10974760Y10144760D01*
X10972800D02*
X10974760D01*
X10609580Y8742680D02*
X10678160D01*
X9155440Y7965440D02*
X9210000Y8020000D01*
X8910934Y7990700D02*
X8936194Y7965440D01*
X9155440D01*
X8901253Y7209986D02*
X8981268Y7290000D01*
X9040000D01*
X9220000Y7770000D02*
X9328980Y7661020D01*
X8900619Y7210620D02*
X8901253Y7209986D01*
X8930000Y7160000D02*
X8938902D01*
X8680000Y6910000D02*
X8930000Y7160000D01*
X8705480Y7015480D02*
X8900619Y7210620D01*
X7191940Y6910000D02*
X8680000D01*
X4180000Y10518980D02*
X4888980Y9810000D01*
X6210000D01*
X6640000Y9380000D01*
X8429534D01*
X8867094Y8942440D01*
X3515740Y12458120D02*
X4180000Y11793860D01*
Y10518980D02*
Y11793860D01*
X9322931Y8439040D02*
X9396869D01*
X9397829Y8440000D02*
X9517551D01*
X9528920Y8428631D02*
X9597280D01*
X9608649Y8440000D02*
X9743094D01*
X9787840Y8439100D02*
X9810000Y8461260D01*
X9743994Y8439100D02*
X9787840D01*
X9743094Y8440000D02*
X9743994Y8439100D01*
X9597280Y8428631D02*
X9608649Y8440000D01*
X9396869Y8439040D02*
X9397829Y8440000D01*
X9321971D02*
X9322931Y8439040D01*
X9743994Y8739100D02*
X9785580D01*
X9743094Y8740000D02*
X9743994Y8739100D01*
X9379726Y8740000D02*
X9743094D01*
X9810000Y8550000D02*
X9845200Y8585200D01*
X9810000Y8461260D02*
Y8550000D01*
X9443995Y9039100D02*
X9479766D01*
X9443234Y9039860D02*
X9443995Y9039100D01*
X9309348Y9039860D02*
X9443234D01*
X9302888Y9033400D02*
X9309348Y9039860D01*
X11920000Y7560000D02*
X12280000D01*
X11322540Y6962540D02*
X11920000Y7560000D01*
X7280000Y8460000D02*
X7946920D01*
X7088760Y8651240D02*
X7280000Y8460000D01*
X5882640Y8651240D02*
X7088760D01*
X9480526Y9039860D02*
X9722871D01*
X9479766Y9039100D02*
X9480526Y9039860D01*
X9302640Y9033400D02*
X9302888D01*
X9208340Y8939100D02*
X9302640Y9033400D01*
X9843995Y9039100D02*
X9878820D01*
X9839314Y9043780D02*
X9843995Y9039100D01*
X8728540Y8800000D02*
X8890000Y8638540D01*
X9204440Y9413240D02*
X9250680D01*
X10070640Y8996046D02*
Y9006834D01*
X10200000Y8448680D02*
X10243820Y8404860D01*
X10200000Y8448680D02*
Y8524160D01*
X10436860Y8592820D02*
X10485120Y8544560D01*
X9870440Y9334500D02*
X9950000Y9254940D01*
Y9089840D02*
Y9254940D01*
X8391060Y8800000D02*
X8728540D01*
X8011160Y8420100D02*
X8391060Y8800000D01*
X11575200Y7425200D02*
X11580000Y7430000D01*
X11510000Y7425200D02*
X11575200D01*
X10940000Y7060000D02*
Y7110000D01*
X10840000Y7050000D02*
Y7110000D01*
Y7050000D02*
X10957940Y6932060D01*
X10800000Y6970000D02*
X10880000Y6890000D01*
X10800000Y6970000D02*
Y7030000D01*
X10740000Y7090000D02*
X10800000Y7030000D01*
X10740000Y7090000D02*
Y7110000D01*
X10640000Y6980000D02*
Y7110000D01*
Y6980000D02*
X10770000Y6850000D01*
X6273800Y7015480D02*
X8705480D01*
X10500000Y7280000D02*
X10551320Y7228680D01*
X11104880D01*
X9810000Y7554160D02*
X9854100Y7510060D01*
X3934460Y9298940D02*
X4206240Y9570720D01*
X4963160D01*
X5882640Y8651240D01*
X8884920Y8534400D02*
X9017000D01*
X7244080Y8420100D02*
X8011160D01*
X7114540Y8549640D02*
X7244080Y8420100D01*
X5923280Y8549640D02*
X7114540D01*
X7104380Y7960360D02*
X7302500D01*
X4511040Y4137660D02*
Y7137400D01*
X5923280Y8549640D01*
X4624820Y4023880D02*
X4817860D01*
X4511040Y4137660D02*
X4624820Y4023880D01*
X6290320Y8096260D02*
X6600180D01*
X6662420Y8034020D01*
X7340600D01*
X5788660Y7500620D02*
X6273800Y7015480D01*
X10185400Y8039100D02*
X10510520D01*
X10614660Y8143240D01*
X10789920D01*
X10807700Y8125460D01*
X10833100D01*
X10429240Y8592820D02*
X10436860D01*
X8856980Y9334500D02*
X9870440D01*
X9189720Y10352520D02*
X9299460D01*
X9301480Y10350500D01*
X10185400Y8257540D02*
X10406380D01*
X10485120Y8336280D01*
Y8544560D01*
X10007600Y13388860D02*
X10088880Y13470140D01*
X10134600Y13111034D02*
X10177780Y13154213D01*
Y13411720D01*
X10238740Y13472681D01*
X6756400Y6474460D02*
X7191940Y6910000D01*
X7302500Y7960360D02*
X7593500Y7669360D01*
X8829360D01*
X9810000Y7554160D02*
Y7620000D01*
X9722871Y9039860D02*
X9726791Y9043780D01*
X9839314D01*
X10033000Y7901940D02*
Y7911160D01*
X9990996Y7953164D02*
X10033000Y7911160D01*
X10833100Y8125460D02*
X10839978Y8118582D01*
Y8109984D02*
Y8118582D01*
X11369860Y9468794D02*
Y9765280D01*
X10770060Y8990060D02*
X10970260Y9190260D01*
X10734100Y8990060D02*
X10770060D01*
X10677280Y9033240D02*
X10744305D01*
X10634100Y8990060D02*
X10677280Y9033240D01*
X10744305D02*
X10939780Y9228714D01*
X10970260Y9190260D02*
Y9191326D01*
X11012114Y9233180D01*
X11013180D01*
X11050000Y9270000D01*
Y10110000D01*
X10939780Y9228714D02*
Y10109780D01*
X10030654Y9046820D02*
X10070640Y9006834D01*
X9993020Y9046820D02*
X10030654D01*
X9950000Y9089840D02*
X9993020Y9046820D01*
X10290000Y8534160D02*
X10334100Y8490060D01*
X10290000Y8534160D02*
Y8601066D01*
X10334100Y8590060D02*
X10380000Y8635960D01*
Y8840180D01*
X9378826Y8739100D02*
X9379726Y8740000D01*
X9243994Y8739100D02*
X9378826D01*
X9133094Y8850000D02*
X9243994Y8739100D01*
X8336920Y8850000D02*
X9133094D01*
X9066126Y8939100D02*
X9208340D01*
X9061986Y8943240D02*
X9066126Y8939100D01*
X9026215Y8943240D02*
X9061986D01*
X9025415Y8942440D02*
X9026215Y8943240D01*
X8867094Y8942440D02*
X9025415D01*
X9179766Y8439100D02*
X9180666Y8440000D01*
X9321971D01*
X9112300Y8439100D02*
X9179766D01*
X9017000Y8534400D02*
X9112300Y8439100D01*
X9517551Y8440000D02*
X9526131Y8431420D01*
X9000000Y8200000D02*
X9030000Y8230000D01*
X7813040Y7839120D02*
X8619120D01*
X8770700Y7990700D01*
X8910934D01*
X9231600Y7831600D02*
X9280000Y7880000D01*
Y7940000D01*
X9310000Y7970000D01*
X9753164Y7953164D02*
X9990996D01*
X9310000Y7970000D02*
X9380000D01*
X9884300Y8054300D02*
Y8055749D01*
X9830000Y8000000D02*
X9884300Y8054300D01*
X7946920Y8460000D02*
X8336920Y8850000D01*
X7802658Y8292658D02*
X7970000D01*
X8343900Y8671560D01*
X10940000Y7060000D02*
X11037460Y6962540D01*
X11322540D01*
X10957940Y6932060D02*
X11335165D01*
X12280000Y7560000D02*
X12690000Y7970000D01*
X11335165Y6932060D02*
X11923105Y7520000D01*
X12283105D01*
X11930000Y7480000D02*
X12286210D01*
X11340000Y6890000D02*
X11930000Y7480000D01*
X10880000Y6890000D02*
X11340000D01*
X10770000Y6850000D02*
X11350000D01*
X11940000Y7440000D01*
X12289316D01*
X12950000Y8100685D01*
X8747760Y8671560D02*
X8884920Y8534400D01*
X8343900Y8671560D02*
X8747760D01*
X7584440Y8074440D02*
X7802658Y8292658D01*
X7584440Y7901940D02*
Y8074440D01*
X9000000Y7831600D02*
X9231600D01*
X10031504Y8103644D02*
X10185400Y8257540D01*
X9889090Y8103644D02*
X10031504D01*
X9901715Y8073164D02*
X10151336D01*
X9884300Y8055749D02*
X9901715Y8073164D01*
X10151336D02*
X10185400Y8039100D01*
X9815926Y8030480D02*
X9889090Y8103644D01*
X8890000Y8638540D02*
X9230358D01*
X9232096Y8636803D01*
X9267867D01*
X9269605Y8638540D01*
X8648241Y7810000D02*
X8978400D01*
X7594620Y7780000D02*
X8618241D01*
X7340600Y8034020D02*
X7594620Y7780000D01*
X8618241D02*
X8648241Y7810000D01*
X8978400D02*
X9000000Y7831600D01*
X9768980Y7661020D02*
X9810000Y7620000D01*
X8829360Y7669360D02*
X8930000Y7770000D01*
X9220000D01*
X9737191Y8030480D02*
X9815926D01*
X10534100Y8990060D02*
X10909300Y9365260D01*
X9330000Y8230000D02*
X9427518Y8132482D01*
X9635189D01*
X9737191Y8030480D01*
X9506820Y7727886D02*
X9532114Y7753180D01*
X9567886D01*
X9593180Y7727886D01*
X9328980Y7661020D02*
X9462085D01*
X9506820Y7705754D01*
Y7727886D01*
X9593180Y7725475D02*
Y7727886D01*
Y7725475D02*
X9657634Y7661020D01*
X9768980D01*
X9493180Y7266820D02*
X9512314D01*
X9900000Y7280000D02*
X10500000D01*
X9515798Y7263336D02*
X9797496D01*
X9512314Y7266820D02*
X9515798Y7263336D01*
X9797496D02*
X9880185Y7346025D01*
X8938902Y7160000D02*
X8941182Y7157720D01*
X9777720D02*
X9900000Y7280000D01*
X8941182Y7157720D02*
X9777720D01*
X9000000Y8170000D02*
Y8200000D01*
X9030000Y8230000D02*
X9330000D01*
X8927520Y8097520D02*
X9000000Y8170000D01*
X7617460Y6812280D02*
X9227820Y5201920D01*
X15220854D01*
X15222115Y5203180D01*
X15257886D01*
X15259146Y5201920D01*
X15816580D01*
X16606520Y5819140D02*
X16758920Y5971540D01*
X15816580Y5201920D02*
X16433800Y5819140D01*
X16606520D01*
X15270000Y3779520D02*
X16519679Y5029200D01*
X16626840D01*
X16964661Y5367020D01*
Y6029960D01*
X16896080Y6098540D02*
X16964661Y6029960D01*
X16606520Y6098540D02*
X16896080D01*
X16578580Y6126480D02*
X16606520Y6098540D01*
X16329660Y6126480D02*
X16578580D01*
X16758920Y5971540D02*
Y6002020D01*
X12286210Y7480000D02*
X12867641Y8061430D01*
X12283105Y7520000D02*
X12781280Y8018175D01*
X10744200Y8491220D02*
X11175670D01*
X11354450Y8670000D01*
X9269605Y8638540D02*
X9801829D01*
X9817069Y8623300D01*
X9845200Y8585200D02*
X9850280Y8580120D01*
X9862820D01*
X9785580Y8739100D02*
X9805060Y8719620D01*
Y8678414D02*
Y8719620D01*
X10678160Y8742680D02*
X10680700Y8740140D01*
X10862469D01*
X10890360Y8768031D01*
Y8807560D01*
X11220326Y9137526D01*
Y9319260D01*
X11369860Y9468794D01*
X9805060Y8678414D02*
X9829694Y8653780D01*
X9868006D01*
X10257886Y8633180D02*
X10290000Y8601066D01*
X10230480Y8493680D02*
Y8536785D01*
Y8493680D02*
X10334100Y8390060D01*
X10017654Y8661400D02*
X10066194D01*
X10010034Y8669020D02*
X10017654Y8661400D01*
X10066020Y8699500D02*
X10073640Y8691880D01*
X10078819D01*
X10177190Y8633180D02*
X10257886D01*
X9868006Y8653780D02*
X9875626Y8661400D01*
X9878820Y9039100D02*
X9951720Y8966200D01*
X9817069Y8623300D02*
X9911478D01*
X9919098Y8630920D01*
X9936511D01*
X9936511Y8630920D01*
X9959950D01*
X9959950Y8630920D01*
X10053569D01*
X9875626Y8661400D02*
X9923886D01*
X9926426Y8663940D01*
X9959446D01*
X9964526Y8669020D01*
X10010034D01*
X9951720Y8714740D02*
X9966960Y8699500D01*
X10066020D01*
X10281920Y8938260D02*
X10380000Y8840180D01*
X10070640Y8996046D02*
X10128426Y8938260D01*
X10281920D01*
X10548620Y8803640D02*
X10609580Y8742680D01*
D52*
X8906040Y9796780D02*
Y9887420D01*
X9715500Y13600500D02*
X9815760D01*
X9715500Y13293159D02*
X9823520D01*
X10238740Y13592880D02*
X10349300D01*
X10238740Y13293159D02*
X10356780D01*
X9049998Y9699240D02*
X9128180D01*
X9007060D02*
X9049998D01*
X9006040Y9700260D02*
Y9796780D01*
X10715680Y6190600D02*
Y6328660D01*
X10715060Y6062980D02*
Y6189980D01*
X12166597Y7888040D02*
X12175141D01*
X11974441D02*
X12166597D01*
X9514840Y9889240D02*
X9625080D01*
X9373180D02*
X9514840D01*
X9602940Y9789160D02*
Y9867100D01*
X10195558Y6241980D02*
X10304780D01*
X10073900D02*
X10195558D01*
X10714409Y6519931D02*
X10715680Y6518660D01*
X10712820Y6521520D02*
X10714409Y6519931D01*
X9690100Y6241580D02*
X9824860D01*
X9588500D02*
X9690100D01*
X8610600Y11689080D02*
Y11736400D01*
X7970520Y11049000D02*
X8610600Y11689080D01*
X10071440Y6240000D02*
X10071680Y6239760D01*
X11027160Y6328660D02*
X11049000Y6350500D01*
X9602940Y9789160D02*
X9647620D01*
X12021820Y8018780D02*
X12166599D01*
X10509180Y6521520D02*
X10574020D01*
X10071680Y6239760D02*
X10073900Y6241980D01*
X9824860Y6241580D02*
X9826680Y6239760D01*
X10574020Y6521520D02*
X10712820D01*
X10462260Y6484620D02*
X10499160Y6521520D01*
X10462260Y6243320D02*
Y6484620D01*
Y6243320D02*
X10515600Y6189980D01*
X10715060Y6062980D02*
X10715060Y6062980D01*
X10715060Y6189980D02*
X10715680Y6190600D01*
X10960680Y6328660D02*
X11027160D01*
X11109640Y6518660D02*
X11117580Y6526600D01*
X8816340Y9888220D02*
X8817140Y9887420D01*
X9602940Y9867100D02*
X9625080Y9889240D01*
X10472420Y10350500D02*
X10515600Y10307320D01*
Y10208260D02*
Y10307320D01*
X8987060Y9887420D02*
X8989060Y9889420D01*
X9006040Y9700260D02*
X9007060Y9699240D01*
X8989060Y9889420D02*
X9128000D01*
X8906040Y9887420D02*
X8987060D01*
X8817140D02*
X8906040D01*
X9898380Y10350500D02*
X10472420D01*
X9588500Y6241580D02*
Y6322060D01*
X13210081Y8019980D02*
X13391760D01*
X9588500Y6322060D02*
Y6400800D01*
X10960680Y6518660D02*
X11049000D01*
X11109640D01*
X9451340Y13601700D02*
X9561900D01*
X9969500Y13591541D02*
X10087680D01*
X3858260Y4654600D02*
Y4750440D01*
X3726180Y4657140D02*
Y4747900D01*
X5046980Y11738940D02*
X5474640D01*
X5671820Y11541760D01*
Y10891520D02*
Y11541760D01*
Y10891520D02*
X5788660Y10774680D01*
X6027420D01*
X6198820Y10603280D01*
Y10408920D02*
Y10603280D01*
X5066920Y10798561D02*
X5259319D01*
X5527040Y10530840D01*
X6052820D01*
X6118820Y10464840D01*
Y10408920D02*
Y10464840D01*
X9491980Y6339160D02*
Y6413500D01*
X9690100Y6327140D02*
Y6391980D01*
X10195560Y6334080D02*
Y6403340D01*
X10072360Y6334080D02*
X10195560D01*
X10880000Y6420000D02*
X10954480D01*
X10568940Y6301740D02*
Y6366440D01*
X10304780Y6391980D02*
X10372020D01*
X11140440Y6306820D02*
Y6368980D01*
X10507980Y6065520D02*
X10559980D01*
X8989060Y10039420D02*
X9069420D01*
X9430000Y10040000D02*
X9514260D01*
X9290000Y9790000D02*
X9368940D01*
X11160000Y9860000D02*
X11220000D01*
X9373180Y9683180D02*
Y9699240D01*
X9326500Y9636500D02*
X9373180Y9683180D01*
X9326500Y9530000D02*
Y9636500D01*
X9595440Y9692640D02*
X9636760D01*
X9647620Y9789160D02*
X9706280Y9730500D01*
X9653500Y9530000D02*
X9706280Y9582780D01*
Y9730500D01*
X13560001Y8330000D02*
Y8415000D01*
X8100000Y8185200D02*
Y8210000D01*
X8120000Y8230000D01*
X11470640Y8760620D02*
Y8819360D01*
X9649460Y10101580D02*
X9898380Y10350500D01*
X9625080Y9889240D02*
X9649460Y9913620D01*
Y10101580D01*
X7813040Y7926820D02*
X7820000Y7933780D01*
Y7970000D01*
X10000000Y6240000D02*
X10071440D01*
X11640000Y8500000D02*
Y8510000D01*
X7970520Y10906760D02*
Y11049000D01*
X7541220Y10413999D02*
Y10477460D01*
X7970520Y10906760D01*
X7621220Y10451220D02*
X7991340Y10821340D01*
X8623300D01*
X7621220Y10414000D02*
Y10451220D01*
X9491980Y6241580D02*
X9588500D01*
X10499160Y6521520D02*
X10509180D01*
X9898380Y6774180D02*
X10256520D01*
X10509180Y6521520D01*
X11592600Y8452600D02*
X11640000Y8500000D01*
X11049000Y6446520D02*
Y6518660D01*
Y6350500D02*
Y6446520D01*
X7670000Y7920000D02*
X7719860D01*
X10515600Y6189980D02*
X10562519D01*
X10565060D01*
D53*
X16342360Y9842500D02*
Y9883820D01*
Y9842500D02*
X16367760Y9817100D01*
D54*
X10938002Y7675339D02*
X10962237Y7651104D01*
X10933540Y7679800D02*
X10938002Y7675339D01*
X11657620Y9129833D02*
Y10165651D01*
X11563547Y9035760D02*
X11657620Y9129833D01*
X11421400Y10401871D02*
X11657620Y10165651D01*
X11421400Y10401871D02*
Y10556811D01*
X10683240Y11294971D02*
X11421400Y10556811D01*
X10683240Y11294971D02*
Y13108940D01*
X11389360Y10388600D02*
Y10543540D01*
X10551160Y11381740D02*
X11389360Y10543540D01*
X10551160Y11381740D02*
Y13111481D01*
X11550276Y9067800D02*
X11625580Y9143104D01*
Y10152380D01*
X11389360Y10388600D02*
X11625580Y10152380D01*
X10927080Y8686800D02*
Y8687084D01*
X8777020Y7134860D02*
X8976119Y7333960D01*
X9058208D01*
X9081889Y7260000D02*
Y7269720D01*
X9083960Y7271791D01*
Y7308208D01*
X9058208Y7333960D02*
X9083960Y7308208D01*
X9081889Y7260000D02*
X9141872D01*
X9272168D02*
X9278988Y7266820D01*
X11430000Y7337500D02*
X11510000D01*
X11430000Y7425200D02*
Y7460000D01*
X11308100Y7581900D02*
X11430000Y7460000D01*
X11576200Y7336200D02*
X11580000Y7340000D01*
X10807700Y7523480D02*
X10932160D01*
X6421120Y7218680D02*
X6504940Y7134860D01*
X6195060Y7218680D02*
X6421120D01*
X11104880Y7316380D02*
Y7447280D01*
X6504940Y7134860D02*
X8777020D01*
X9880185Y7346025D02*
X10261945D01*
X9141872Y7260000D02*
X9143672Y7261800D01*
X9180089D01*
X9181888Y7260000D01*
X11031220Y7520940D02*
X11104880Y7447280D01*
X11051384Y7581900D02*
X11308100D01*
X10982180Y7651104D02*
X11051384Y7581900D01*
X10933540Y7670877D02*
Y7679800D01*
X11510000Y7336200D02*
X11576200D01*
X10477878Y7561958D02*
X10769222D01*
X10261945Y7346025D02*
X10477878Y7561958D01*
X10769222D02*
X10807700Y7523480D01*
X10962237Y7651104D02*
X10982180D01*
X9181888Y7260000D02*
X9272168D01*
X9278988Y7266820D02*
X9493180D01*
X11580000Y7307720D02*
Y7340000D01*
X11531600Y7259320D02*
X11580000Y7307720D01*
X11257280Y7259320D02*
X11531600D01*
X11074400Y7076440D02*
X11257280Y7259320D01*
X11036300Y7076440D02*
X11074400D01*
X10944860Y7167880D02*
X11036300Y7076440D01*
X10563860Y7167880D02*
X10944860D01*
X10533380Y7137400D02*
X10563860Y7167880D01*
X10533380Y6903720D02*
Y7137400D01*
Y6903720D02*
X10695940Y6741160D01*
X14122400D01*
X14511020Y6352540D01*
X16073120D01*
X16159480Y6438900D01*
X16441420D01*
X16662399Y6659880D01*
X16718280D01*
X16756039Y6622120D01*
Y6621791D02*
Y6622120D01*
Y6621791D02*
X16758920Y6618912D01*
Y6276340D02*
Y6618912D01*
Y6276340D02*
X16819881Y6215380D01*
Y6195060D02*
Y6215380D01*
Y6195060D02*
X16827499Y6187440D01*
X10927080Y8687084D02*
X11275756Y9035760D01*
X11563547D01*
X11262485Y9067800D02*
X11550276D01*
X10925445Y8730760D02*
X11262485Y9067800D01*
X10897296Y8730760D02*
X10925445D01*
X10834100Y8690060D02*
X10856597D01*
X10897296Y8730760D01*
D55*
X12392660Y9331019D02*
Y9502140D01*
X10240060Y8990060D02*
Y9031756D01*
X11356340Y12357100D02*
X12359640D01*
X11295380Y12296140D02*
X11356340Y12357100D01*
X11295380Y11854180D02*
Y12296140D01*
X12359640Y12357100D02*
X13025121Y11691620D01*
X11295380Y11854180D02*
X11419840Y11729720D01*
X12247880Y12687300D02*
X13225780Y11709400D01*
X11094720Y12687300D02*
X12247880D01*
X10965180Y12557760D02*
X11094720Y12687300D01*
X10965180Y11719560D02*
Y12557760D01*
X13025121Y11347780D02*
Y11691620D01*
Y11347780D02*
X13124181Y11248720D01*
X11297920Y11597640D02*
X11419840Y11475720D01*
X11087100Y11597640D02*
X11297920D01*
X10965180Y11719560D02*
X11087100Y11597640D01*
X13225780Y11347120D02*
Y11709400D01*
Y11347120D02*
X13324181Y11248720D01*
X11419840Y11221720D02*
X11983720Y10657840D01*
X13060680D01*
X13161630Y10758790D01*
X13164236D01*
X13195300Y10789853D01*
Y10812780D01*
X11419840Y12237720D02*
X12273280D01*
X12819380Y11691620D01*
Y11353520D02*
Y11691620D01*
Y11353520D02*
X12924181Y11248720D01*
X9900920Y11239980D02*
X10800080Y10340820D01*
Y9530080D02*
Y10340820D01*
X10520000Y9250000D02*
X10800080Y9530080D01*
X10101580Y11226800D02*
Y12402820D01*
X9715500Y12788900D02*
X10101580Y12402820D01*
X9715500Y12788900D02*
Y13175661D01*
X9999980Y11242040D02*
Y12364720D01*
X9636720Y12727980D02*
X9999980Y12364720D01*
X9636720Y12727980D02*
Y13401520D01*
X9900920Y11239980D02*
Y12316460D01*
X9489440Y12727940D02*
X9900920Y12316460D01*
X9489440Y12727940D02*
Y13406641D01*
X10101580Y11226800D02*
X10865560Y10462820D01*
X10832820Y9472820D02*
Y10409200D01*
X9999980Y11242040D02*
X10832820Y10409200D01*
X10039980Y7389985D02*
X10183985D01*
X9636720Y13401520D02*
X9715500Y13480299D01*
X9696720Y13156880D02*
X9715500Y13175661D01*
X11013440Y7960360D02*
X11040360D01*
X11483340Y8243340D02*
Y8331880D01*
X11389270Y8149270D02*
X11483340Y8243340D01*
X10126320Y7717840D02*
X10206940D01*
X7726680Y7839120D02*
X7813040D01*
X11483340Y8331880D02*
X11574380D01*
X9489440Y13406641D02*
X9563100Y13480299D01*
X12924181Y10959900D02*
Y11248720D01*
Y10959900D02*
X13071300Y10812780D01*
Y11002780D02*
Y11195840D01*
X13124181Y11248720D01*
X13195300Y11002780D02*
X13324181Y11131660D01*
Y11248720D01*
X13195300Y10812780D02*
X13352780D01*
X13524181Y10984180D01*
Y11248720D01*
X11574380Y8331880D02*
X11600000Y8357500D01*
X10865560Y9415560D02*
Y10462820D01*
X11780000Y8562877D02*
Y8970000D01*
X11845480Y8590000D02*
X11950000Y8485480D01*
Y8017397D02*
Y8485480D01*
X11812740Y8576439D02*
X11913220Y8475959D01*
X11780000Y8562877D02*
X11873699Y8469179D01*
Y8033699D02*
Y8469179D01*
X11860000Y8020000D02*
X11873699Y8033699D01*
X11913220Y8026918D02*
Y8475959D01*
X11873562Y7987260D02*
X11913220Y8026918D01*
X11887123Y7954520D02*
X11950000Y8017397D01*
X11229270Y8149270D02*
X11389270D01*
X11040360Y7960360D02*
X11229270Y8149270D01*
X11404520Y7774520D02*
X11584520Y7954520D01*
X11390958Y7807260D02*
X11570958Y7987260D01*
X11377397Y7840000D02*
X11557397Y8020000D01*
X10974520Y7774520D02*
X11404520D01*
X11780000Y8970000D02*
X11930000Y9120000D01*
X12181641D01*
X12392660Y9331019D01*
X10126320Y7617840D02*
X10162920D01*
X10321290Y7776210D01*
X10321430Y7776070D01*
X11812740Y8956439D02*
X11926301Y9070000D01*
X11812740Y8576439D02*
Y8956439D01*
X11926301Y9070000D02*
X12177943D01*
X12485793Y9377850D01*
Y9502140D01*
X11845480Y8942877D02*
X11932603Y9030000D01*
X11845480Y8590000D02*
Y8942877D01*
X11932603Y9030000D02*
X12184244D01*
X12578080Y9423836D01*
Y9502140D01*
X10165176Y7517840D02*
X10211646Y7564310D01*
X10285250D01*
X10440000Y7719060D01*
X10126320Y7517840D02*
X10165176D01*
X10440000Y7719060D02*
X10772060D01*
X10206940Y7717840D02*
X10309100Y7820000D01*
X10669880D01*
X10764520Y7914640D01*
X10866458Y8065674D02*
X10890830Y8090046D01*
X12182140Y9502140D02*
X12301220D01*
X11597640Y8917640D02*
X12182140Y9502140D01*
X10234100Y8990060D02*
X10240060D01*
X10134100Y9005862D02*
X10139980Y8999982D01*
X10570000Y9210000D02*
X10832820Y9472820D01*
X10360000Y9210000D02*
X10570000D01*
X10384310Y9164310D02*
X10468354D01*
X10611770Y9161770D02*
X10865560Y9415560D01*
X10468354Y9164310D02*
X10470894Y9161770D01*
X10611770D01*
X10846699Y7840000D02*
X11377397D01*
X10860260Y7807260D02*
X11390958D01*
X10321430Y7776070D02*
X10782769D01*
X10846699Y7840000D01*
X10772060Y7719060D02*
X10860260Y7807260D01*
X10183985Y7389985D02*
X10448310Y7654310D01*
X10854310D01*
X10974520Y7774520D01*
X10879000Y7920000D02*
X10973080D01*
X11013440Y7960360D01*
X11584520Y7954520D02*
X11887123D01*
X11570958Y7987260D02*
X11873562D01*
X11557397Y8020000D02*
X11860000D01*
X10860000Y7939000D02*
X10879000Y7920000D01*
X10860000Y7939000D02*
Y8010000D01*
X10890830Y8122230D02*
X11323320Y8554720D01*
X11473180D01*
X11597640Y8679180D01*
Y8917640D01*
X10890830Y8090046D02*
Y8122230D01*
X10764520Y7914640D02*
Y7988300D01*
X10841894Y8065674D01*
X10866458D01*
X10317480Y8989060D02*
Y9097480D01*
X10196970Y9074846D02*
Y9111554D01*
X10222926Y9137510D01*
X10259634D01*
X10285421Y9111722D01*
X10134100Y9094985D02*
X10289115Y9250000D01*
X10285421Y9111722D02*
Y9135421D01*
X10196970Y9074846D02*
X10240060Y9031756D01*
X10317480Y9097480D02*
X10384310Y9164310D01*
X10285421Y9135421D02*
X10360000Y9210000D01*
X10134100Y9005862D02*
Y9094985D01*
X10289115Y9250000D02*
X10520000D01*
D56*
X13056799Y7553640D02*
X13391760Y7888601D01*
Y8019980D01*
X11861800Y7899400D02*
X11963081D01*
X13032739Y7881620D02*
X13186440D01*
X13032739Y8775700D02*
X13191519D01*
X3930060Y5128260D02*
Y5244420D01*
X3926840Y5247640D02*
X3930060Y5244420D01*
X3732261Y5066880D02*
X3776880D01*
X3790000Y5080000D01*
X3793120Y5166880D02*
X3857261D01*
X3790000Y5170000D02*
X3793120Y5166880D01*
X3790000Y5170000D02*
Y5240000D01*
Y5080000D02*
Y5170000D01*
X12174219Y8646160D02*
X12209779Y8610600D01*
X12390120D01*
X12019280Y8747760D02*
X12052300Y8780780D01*
X12166599D01*
X11981180Y8747760D02*
X12019280D01*
D59*
X8920528Y7456040D02*
X9038206D01*
X8858428Y7518140D02*
X8920528Y7456040D01*
X6850000Y6110000D02*
X6927500D01*
X6852920Y7912100D02*
X7246880Y7518140D01*
X7104380Y7775620D02*
Y7871460D01*
Y7775620D02*
X7320000Y7560000D01*
X9296021Y7383979D02*
Y7513979D01*
X9258580Y7551420D02*
X9296021Y7513979D01*
X7320000Y7560000D02*
X8780000D01*
X8890000Y7670000D01*
X9117988Y7551420D02*
X9258580D01*
X7246880Y7518140D02*
X8858428D01*
X9038206Y7456040D02*
X9073942Y7491776D01*
Y7507374D01*
X9117988Y7551420D01*
X8890000Y7670000D02*
X9240000D01*
X9457157Y7561420D02*
X9457537Y7561800D01*
X9348580Y7561420D02*
X9457157D01*
X9318200Y7361800D02*
X9391800D01*
X9296021Y7383979D02*
X9318200Y7361800D01*
X9506040Y7628209D02*
X9531791Y7653960D01*
X9568209D01*
X9593960Y7628209D01*
Y7607911D02*
Y7628209D01*
X9457537Y7561800D02*
X9463969D01*
X9506040Y7603871D01*
Y7628209D01*
X9593960Y7607911D02*
X9640071Y7561800D01*
X9751060Y7510780D02*
Y7513320D01*
X9702580Y7561800D02*
X9751060Y7513320D01*
X9500000Y7470000D02*
X9580000D01*
X9640071Y7561800D02*
X9702580D01*
X9580000Y7470000D02*
X9620780Y7510780D01*
X9654540D01*
X9391800Y7361800D02*
X9500000Y7470000D01*
X9240000Y7670000D02*
X9348580Y7561420D01*
D68*
X17872479Y11758610D02*
D03*
D72*
X2519680Y11976100D02*
D03*
X11165840Y12491720D02*
D03*
X6852920Y7912100D02*
D03*
D73*
X2519680Y12230100D02*
D03*
X11419840Y11221720D02*
D03*
X11165840D02*
D03*
X11419840Y11475720D02*
D03*
X11165840D02*
D03*
X11419840Y11729720D02*
D03*
X11165840D02*
D03*
X11419840Y11983720D02*
D03*
X11165840D02*
D03*
X11419840Y12237720D02*
D03*
X11165840D02*
D03*
X11419840Y12491720D02*
D03*
X6852920Y8166100D02*
D03*
D74*
X11292840Y13126720D02*
D03*
D75*
X6850320Y13263840D02*
D03*
Y12263840D02*
D03*
Y11263840D02*
D03*
Y10263840D02*
D03*
X5425320D02*
D03*
Y11263840D02*
D03*
Y12263840D02*
D03*
Y13263840D02*
D03*
X8275320Y10513840D02*
D03*
Y11013840D02*
D03*
Y11763840D02*
D03*
Y12763840D02*
D03*
Y13763840D02*
D03*
D76*
X5425320Y11483840D02*
D03*
X8275320D02*
D03*
X6617320Y10053840D02*
D03*
X6137320D02*
D03*
X7562320D02*
D03*
X8042320D02*
D03*
D77*
X6617320Y10673839D02*
D03*
X5657320D02*
D03*
X8042320Y10673840D02*
D03*
X7082320D02*
D03*
D78*
X3916680Y8023860D02*
D03*
Y8373860D02*
D03*
X14455141Y13169901D02*
D03*
X14201140D02*
D03*
X13947141D02*
D03*
X13693140D02*
D03*
X13439140D02*
D03*
X13185139D02*
D03*
X14455141Y12915900D02*
D03*
X14201140D02*
D03*
X13947141D02*
D03*
X13693140D02*
D03*
X13439140D02*
D03*
X16741141Y13169901D02*
D03*
X16487140D02*
D03*
X16233141D02*
D03*
X15979140D02*
D03*
X15725140D02*
D03*
X15471140D02*
D03*
X16741141Y12915900D02*
D03*
X16487140D02*
D03*
X16233141D02*
D03*
X15979140D02*
D03*
X15725140D02*
D03*
D79*
X13724181Y11448720D02*
D03*
D80*
X13524181D02*
D03*
X13324181D02*
D03*
X13124181D02*
D03*
X12924181D02*
D03*
X12724180D02*
D03*
X12524180D02*
D03*
X13724181Y11248720D02*
D03*
X13524181D02*
D03*
X13324181D02*
D03*
X13124181D02*
D03*
X12924181D02*
D03*
X12724180D02*
D03*
X12524180D02*
D03*
D81*
X12624180Y11348720D02*
D03*
D82*
X4165600Y12453360D02*
D03*
Y13373360D02*
D03*
Y12913361D02*
D03*
D83*
X17528539Y3903979D02*
D03*
X2034540D02*
D03*
X2034540Y13936980D02*
D03*
X17528540Y13936980D02*
D03*
X16639999Y11689070D02*
D03*
Y5389070D02*
D03*
D84*
X2988280Y12919881D02*
D03*
Y13499879D02*
D03*
D85*
X2508280Y13219881D02*
D03*
D86*
X13185139Y12915900D02*
D03*
X15471140D02*
D03*
D87*
X7806360Y5608320D02*
D03*
X7350000Y4400000D02*
D03*
X7300000D02*
D03*
X7350000Y4470000D02*
D03*
X7300000D02*
D03*
X6800000Y6070000D02*
D03*
X4990000Y5060000D02*
D03*
X4940000D02*
D03*
X4890000D02*
D03*
X6742900Y5156200D02*
D03*
X7040080Y4838700D02*
D03*
X7390600Y5885180D02*
D03*
X7326959Y5892000D02*
D03*
X7268680Y5887720D02*
D03*
X6445720Y5161280D02*
D03*
X6996900Y5145240D02*
D03*
X6547320Y6114580D02*
D03*
X6996900Y5046980D02*
D03*
X6918160Y5041900D02*
D03*
X6417780Y5046980D02*
D03*
X6222200Y4942840D02*
D03*
X6265380D02*
D03*
X6308560D02*
D03*
X6501600Y5046180D02*
D03*
X6737020Y6045200D02*
D03*
X6493980Y6019800D02*
D03*
X6290780Y6238240D02*
D03*
X6333019Y6237440D02*
D03*
X6374600Y6238240D02*
D03*
Y4841240D02*
D03*
X4703280Y6258560D02*
D03*
X6371120Y6350000D02*
D03*
X6646380Y4937760D02*
D03*
X6770840D02*
D03*
X6707340Y4904740D02*
D03*
X6222200Y5572760D02*
D03*
X5726200Y5619180D02*
D03*
X5725510Y5462150D02*
D03*
X6714890Y6347460D02*
D03*
X7283920Y5242560D02*
D03*
X7329640D02*
D03*
X7375360D02*
D03*
X7466800Y5580380D02*
D03*
Y5626100D02*
D03*
X6946639Y5996639D02*
D03*
X6996639D02*
D03*
X7000000Y6080000D02*
D03*
X6410000Y6120000D02*
D03*
X6850000Y6110000D02*
D03*
X7085800Y4995800D02*
D03*
X4830000Y5060000D02*
D03*
X6258812Y5621020D02*
D03*
X6799986Y5169990D02*
D03*
X7169986Y5649989D02*
D03*
X7117080Y5504180D02*
D03*
X7169986Y5539989D02*
D03*
X7617460Y6812280D02*
D03*
X15270000Y3779520D02*
D03*
D88*
X8021320Y9503400D02*
D03*
X8160000Y9830000D02*
D03*
X7675880Y9833600D02*
D03*
X8160000Y9750000D02*
D03*
X7675880Y9753600D02*
D03*
X8021320Y9583400D02*
D03*
X6027420Y9583416D02*
D03*
Y9503416D02*
D03*
X9044940Y9431020D02*
D03*
X9254100Y9190060D02*
D03*
X9261880Y9082280D02*
D03*
X10132060Y8707120D02*
D03*
X11740000Y8110000D02*
D03*
X9361880Y7617840D02*
D03*
X11660000Y8110000D02*
D03*
X9361880Y7717840D02*
D03*
X13566141Y10022840D02*
D03*
X10927080Y8686800D02*
D03*
X10640000Y8900000D02*
D03*
Y8800000D02*
D03*
X10849978Y8919982D02*
D03*
X8961120Y7110000D02*
D03*
X9040000Y7290000D02*
D03*
X8940000Y7500000D02*
D03*
X8560000Y8980000D02*
D03*
X8660000D02*
D03*
Y9030000D02*
D03*
X8560000D02*
D03*
X8690000Y8740000D02*
D03*
X8947780Y8795380D02*
D03*
X8530000Y8740000D02*
D03*
X12830000Y5550000D02*
D03*
X16694000Y6160020D02*
D03*
X16189967Y10589979D02*
D03*
X16703000Y8930000D02*
D03*
X16700000Y8550000D02*
D03*
Y8170000D02*
D03*
Y7790000D02*
D03*
Y7410000D02*
D03*
Y7020000D02*
D03*
X16800000Y6640000D02*
D03*
X16186000Y6160020D02*
D03*
X16569540Y6668020D02*
D03*
X15239999Y4920000D02*
D03*
Y5160000D02*
D03*
X9107817Y7389500D02*
D03*
X16691460Y6601980D02*
D03*
Y6414020D02*
D03*
X13670000Y8300000D02*
D03*
Y8540000D02*
D03*
X16694000Y6347980D02*
D03*
X16567000Y6063500D02*
D03*
X16821001Y9365500D02*
D03*
Y9746500D02*
D03*
Y10127500D02*
D03*
Y10508500D02*
D03*
Y10889500D02*
D03*
X16567000Y11016500D02*
D03*
Y10762500D02*
D03*
Y10381500D02*
D03*
Y10000500D02*
D03*
Y9619500D02*
D03*
Y9238500D02*
D03*
Y8857500D02*
D03*
Y8476500D02*
D03*
Y8095500D02*
D03*
Y7714500D02*
D03*
Y7333500D02*
D03*
Y6952500D02*
D03*
X16059000Y11016500D02*
D03*
Y10762500D02*
D03*
Y10508500D02*
D03*
Y10254500D02*
D03*
Y10127500D02*
D03*
Y10000500D02*
D03*
Y9619500D02*
D03*
Y9492500D02*
D03*
Y9111500D02*
D03*
Y8933700D02*
D03*
Y8654300D02*
D03*
Y8476500D02*
D03*
Y8095500D02*
D03*
Y7968500D02*
D03*
Y7587500D02*
D03*
Y7460500D02*
D03*
Y7079500D02*
D03*
Y6952500D02*
D03*
Y6571500D02*
D03*
Y6444500D02*
D03*
Y6063500D02*
D03*
X16313000Y7206500D02*
D03*
Y7587500D02*
D03*
X16313499Y7970000D02*
D03*
X16313000Y8349500D02*
D03*
Y8730500D02*
D03*
Y9111500D02*
D03*
Y9492500D02*
D03*
Y10381500D02*
D03*
Y10889500D02*
D03*
Y10254500D02*
D03*
X16567000Y10889500D02*
D03*
X16821001Y11016500D02*
D03*
X16313000Y10000500D02*
D03*
X16059000Y10381500D02*
D03*
X16313000Y10508500D02*
D03*
X16059000Y10635500D02*
D03*
X16313000Y10762500D02*
D03*
Y11016500D02*
D03*
X16059000Y10889500D02*
D03*
X9360000Y8490000D02*
D03*
X9454100Y8490060D02*
D03*
X9563100Y8478520D02*
D03*
X9654100Y8490060D02*
D03*
X9761880Y8482280D02*
D03*
X9754100Y8390060D02*
D03*
X9854100Y8490060D02*
D03*
X10022840Y8483600D02*
D03*
X16350000Y5245000D02*
D03*
X9661880Y8682280D02*
D03*
X9654100Y8590060D02*
D03*
Y8790060D02*
D03*
X9565640Y8788400D02*
D03*
X9454100Y9190060D02*
D03*
X9569981Y8979982D02*
D03*
X9461880Y9082280D02*
D03*
X10734100Y8990060D02*
D03*
X10030000Y9090000D02*
D03*
X9861880Y9082280D02*
D03*
X10100000Y9350000D02*
D03*
X11480000Y9310000D02*
D03*
X9360940Y8682280D02*
D03*
Y8782280D02*
D03*
X7942580Y8747740D02*
D03*
X9490000Y9530000D02*
D03*
X9430000D02*
D03*
X9490000Y9410000D02*
D03*
X9430000D02*
D03*
X9250680Y9413240D02*
D03*
X8160000Y9670000D02*
D03*
X10030000Y9190000D02*
D03*
X11250000Y7170000D02*
D03*
X8500000Y8330000D02*
D03*
X8720000Y8160000D02*
D03*
X8820000D02*
D03*
Y8210000D02*
D03*
X8320000Y8330000D02*
D03*
X8501220Y8152320D02*
D03*
X8321220D02*
D03*
X8720000Y8210000D02*
D03*
X8800000Y8380000D02*
D03*
Y8440000D02*
D03*
X8700000Y8380000D02*
D03*
Y8440000D02*
D03*
X11370000Y8280000D02*
D03*
Y8340000D02*
D03*
X11270000Y8280000D02*
D03*
Y8340000D02*
D03*
X11350000Y7630000D02*
D03*
Y7690000D02*
D03*
X11250000Y7630000D02*
D03*
Y7690000D02*
D03*
Y7410000D02*
D03*
X11350000D02*
D03*
Y7360000D02*
D03*
X11250000D02*
D03*
X10830000Y8290000D02*
D03*
X10940000Y8100000D02*
D03*
X11580000Y8110000D02*
D03*
X10940000Y7110000D02*
D03*
X10840000D02*
D03*
X10740000D02*
D03*
X10640000D02*
D03*
X10230000Y7520000D02*
D03*
X10040000Y7720000D02*
D03*
X11030000Y9190000D02*
D03*
X10740000Y9090000D02*
D03*
X10540000Y8610000D02*
D03*
X10240000Y8590000D02*
D03*
X10550000Y8320000D02*
D03*
X10250000Y8210000D02*
D03*
X10340000Y7910000D02*
D03*
X10530000Y7610000D02*
D03*
X10659979Y7517999D02*
D03*
X10932160Y7523480D02*
D03*
X10630000Y7390000D02*
D03*
X10030000Y8390000D02*
D03*
X8960000Y7610000D02*
D03*
X9450000D02*
D03*
X9750000Y7720000D02*
D03*
X10026320Y7817840D02*
D03*
X11070000Y7150000D02*
D03*
X10740000Y7010000D02*
D03*
X10050000Y7100000D02*
D03*
X9854100Y7510060D02*
D03*
X9550000Y7610000D02*
D03*
X9937160Y8018780D02*
D03*
X9456420Y8793480D02*
D03*
X9151620Y8696960D02*
D03*
X9250680Y8806180D02*
D03*
X9254100Y8590060D02*
D03*
X9674860Y9194800D02*
D03*
X9854100Y8290060D02*
D03*
X9454100D02*
D03*
X8947500Y8410000D02*
D03*
X9554100Y8590060D02*
D03*
X9354100D02*
D03*
X9054100Y9190060D02*
D03*
X8954100D02*
D03*
X9054100Y8990060D02*
D03*
Y9090060D02*
D03*
X9854100Y8890060D02*
D03*
Y8990060D02*
D03*
X9554100Y8890060D02*
D03*
X10834100Y8690060D02*
D03*
X10634100Y8990060D02*
D03*
X10534100D02*
D03*
X10234100D02*
D03*
X9050020Y8702040D02*
D03*
X7675881Y9911919D02*
D03*
X8021320Y9663400D02*
D03*
X8160000Y9910000D02*
D03*
X8021320Y9423400D02*
D03*
X9558020Y8282940D02*
D03*
X10022840D02*
D03*
X9761220Y8285480D02*
D03*
X9060180Y8384540D02*
D03*
X6027420Y9663416D02*
D03*
X9159240Y7018020D02*
D03*
X7942580Y8827740D02*
D03*
X10026320Y7617840D02*
D03*
X10126320Y7717840D02*
D03*
X9561880Y7817840D02*
D03*
X9161880Y8982280D02*
D03*
X9154100Y8890060D02*
D03*
X9661880Y7717840D02*
D03*
X10660000Y8590000D02*
D03*
X10426320Y8482280D02*
D03*
X10126320Y8382280D02*
D03*
X9654100Y8290060D02*
D03*
X10030460Y8196580D02*
D03*
X7675881Y9671919D02*
D03*
X9754100Y8590060D02*
D03*
X9461880Y8682280D02*
D03*
X9862820Y8382000D02*
D03*
X9661880Y8382280D02*
D03*
X9461880D02*
D03*
X11666220Y6501100D02*
D03*
Y6261100D02*
D03*
X9454100Y8590060D02*
D03*
X9151620Y8088500D02*
D03*
X12301220Y9502140D02*
D03*
X12578080Y9705340D02*
D03*
X12485793Y9708727D02*
D03*
X12509500Y10248900D02*
D03*
X12684760Y10292080D02*
D03*
X6027420Y9423416D02*
D03*
X10334100Y8490060D02*
D03*
Y8390060D02*
D03*
Y8590060D02*
D03*
X7942580Y8587740D02*
D03*
X9756140Y8900160D02*
D03*
X9552940Y8689340D02*
D03*
X9174480Y12374880D02*
D03*
X9484360Y12311380D02*
D03*
X9500800Y11852840D02*
D03*
X9170600Y11791880D02*
D03*
X8908980Y11883320D02*
D03*
Y12282100D02*
D03*
X9169400Y10972800D02*
D03*
X9493180Y11045120D02*
D03*
X9480620Y11520240D02*
D03*
X9189720Y11590020D02*
D03*
X10642600Y7894320D02*
D03*
X10033000Y7513320D02*
D03*
X10429240Y8592820D02*
D03*
X10243820Y8404860D02*
D03*
X9044100Y8900060D02*
D03*
X8420000Y7910000D02*
D03*
X8570000D02*
D03*
X8500000D02*
D03*
X8420000Y7730000D02*
D03*
X8490000D02*
D03*
X8570000D02*
D03*
X8320000Y8250000D02*
D03*
X8500000D02*
D03*
X13566141Y9766300D02*
D03*
X13568680Y9895840D02*
D03*
X11390000Y10090000D02*
D03*
X9160000Y6920000D02*
D03*
X8580000Y7420000D02*
D03*
Y7360000D02*
D03*
X8680000Y7420000D02*
D03*
Y7360000D02*
D03*
X8580000Y7270000D02*
D03*
Y7210000D02*
D03*
X9354100Y8990060D02*
D03*
X10650000Y8010000D02*
D03*
X10240000Y8090000D02*
D03*
X10020000Y9350000D02*
D03*
Y9540000D02*
D03*
X10080000D02*
D03*
X10210000D02*
D03*
X10280000D02*
D03*
X10360000D02*
D03*
X10440000D02*
D03*
X10450000Y9120000D02*
D03*
X10200000Y9360000D02*
D03*
X11040000Y7690000D02*
D03*
X9540000Y6680000D02*
D03*
X9610000D02*
D03*
X9680000D02*
D03*
X9610000Y6870000D02*
D03*
X9540000D02*
D03*
X11290000Y9220000D02*
D03*
Y9130000D02*
D03*
X11480000Y9220000D02*
D03*
Y9130000D02*
D03*
X9636760Y9692640D02*
D03*
X10110000Y6620000D02*
D03*
X10200000D02*
D03*
X7960000Y8180000D02*
D03*
X8120000Y8230000D02*
D03*
X11470000Y8820000D02*
D03*
X9860000Y7610000D02*
D03*
X7820000Y7970000D02*
D03*
X7942580Y8667740D02*
D03*
X10030000Y8890000D02*
D03*
X9659981Y9089982D02*
D03*
X9759980Y8979982D02*
D03*
X9880000Y9200160D02*
D03*
X8840000Y7940000D02*
D03*
X10030000Y6620000D02*
D03*
X10120000Y6910000D02*
D03*
X10200000D02*
D03*
X9161780Y11130280D02*
D03*
Y11192256D02*
D03*
Y11254232D02*
D03*
Y11316208D02*
D03*
Y11378184D02*
D03*
Y11440160D02*
D03*
X9151620Y11943080D02*
D03*
Y11999976D02*
D03*
Y12056872D02*
D03*
Y12113768D02*
D03*
Y12170664D02*
D03*
Y12227560D02*
D03*
X10280000Y9360000D02*
D03*
X9690000Y6870000D02*
D03*
X9040000Y11530000D02*
D03*
Y11030000D02*
D03*
X9754260Y7610220D02*
D03*
X10033000Y7901940D02*
D03*
X9160000Y7507460D02*
D03*
X10845800Y7302500D02*
D03*
X9749980Y7809984D02*
D03*
X10140000Y7810500D02*
D03*
X9859980Y7819984D02*
D03*
X9649981D02*
D03*
X9449981D02*
D03*
X9859980Y7909984D02*
D03*
X9739981Y7889984D02*
D03*
X10330000Y7710000D02*
D03*
X11640000Y8510000D02*
D03*
X11981180Y8747760D02*
D03*
X11031220Y7520940D02*
D03*
X11370000Y8060000D02*
D03*
X12393507Y9502140D02*
D03*
X10126320Y7617840D02*
D03*
X12485793Y9502140D02*
D03*
X10126320Y7517840D02*
D03*
X12578080Y9502140D02*
D03*
X10039980Y7389985D02*
D03*
X10933540Y7670877D02*
D03*
X10839978Y8109984D02*
D03*
X11290000Y9310000D02*
D03*
X10019980Y8989982D02*
D03*
X10139980Y8999982D02*
D03*
X10329979Y8779982D02*
D03*
X8839982Y8899982D02*
D03*
X9549981Y8379983D02*
D03*
X9342120Y7806100D02*
D03*
X9453880Y8196580D02*
D03*
X9440000Y7900000D02*
D03*
X8530000Y8600000D02*
D03*
X8690000Y8610000D02*
D03*
X9739981Y8199984D02*
D03*
X9866160Y8195640D02*
D03*
X10029980Y8029984D02*
D03*
X9860000Y7713700D02*
D03*
X9249981Y8679983D02*
D03*
X9450000Y7710000D02*
D03*
X9550000D02*
D03*
X10535920Y8191500D02*
D03*
X9350000Y7910000D02*
D03*
X10854040Y7410000D02*
D03*
X10831796Y7711796D02*
D03*
X9359981Y8889982D02*
D03*
X11820000Y8110000D02*
D03*
X9654100Y8190060D02*
D03*
X9554100D02*
D03*
X9161880Y8382280D02*
D03*
X13670000Y8460000D02*
D03*
X9161880Y8282280D02*
D03*
X13670000Y8380000D02*
D03*
X9650000Y7900000D02*
D03*
X9550000D02*
D03*
X9346206Y8309887D02*
D03*
X9449064Y8019380D02*
D03*
X9749980Y8089984D02*
D03*
X9649981Y8019984D02*
D03*
X9559981D02*
D03*
X10939780Y7993380D02*
D03*
X10860000Y8010000D02*
D03*
X11270000Y8060000D02*
D03*
X11370000Y8000000D02*
D03*
X11270000D02*
D03*
X16567000Y10152900D02*
D03*
Y10229100D02*
D03*
X9261880Y8182280D02*
D03*
X9161880D02*
D03*
X16367760Y9817100D02*
D03*
X9860000Y7410000D02*
D03*
X9654040Y7610000D02*
D03*
X9751060Y7510780D02*
D03*
X9350000Y7410000D02*
D03*
X9527540Y7109460D02*
D03*
X9654540Y7510780D02*
D03*
X9568180Y7523480D02*
D03*
X9652000Y7306516D02*
D03*
X9738360Y7018020D02*
D03*
X10030000Y6910000D02*
D03*
X9161880Y7317840D02*
D03*
X16696539Y6541020D02*
D03*
X9240000Y7420000D02*
D03*
X11666220Y6341100D02*
D03*
X16696539Y6474980D02*
D03*
X9342120Y7216140D02*
D03*
X11666220Y6421100D02*
D03*
X14229080Y7038320D02*
D03*
Y6798320D02*
D03*
X12830000Y5790000D02*
D03*
X9146540Y7106920D02*
D03*
X14229080Y6958320D02*
D03*
X9151620Y7200900D02*
D03*
X14229080Y6878320D02*
D03*
X9429981Y7509985D02*
D03*
X16313000Y8882900D02*
D03*
X9339981Y7499985D02*
D03*
X16313000Y8959100D02*
D03*
X9449361Y7209155D02*
D03*
X16567000Y9009900D02*
D03*
X9439981Y7109986D02*
D03*
X16567000Y9086100D02*
D03*
Y8705100D02*
D03*
X9260000Y7310000D02*
D03*
X16567000Y8628900D02*
D03*
X9361880Y7317840D02*
D03*
X8680000Y7210000D02*
D03*
Y7270000D02*
D03*
X16193620Y6977900D02*
D03*
Y7054100D02*
D03*
X9040000Y8100000D02*
D03*
X9060000Y7880000D02*
D03*
X16186000Y6347980D02*
D03*
Y6668020D02*
D03*
X7670000Y7920000D02*
D03*
X16115437Y5242734D02*
D03*
X16569540Y6855980D02*
D03*
X16186000D02*
D03*
X16758920Y6002020D02*
D03*
X16827499Y6187440D02*
D03*
X16311880Y6126480D02*
D03*
X16567000Y9771900D02*
D03*
X9739981Y7409985D02*
D03*
X16567000Y9848100D02*
D03*
X9629981Y7409985D02*
D03*
X10340000Y7220000D02*
D03*
X11350000Y7110000D02*
D03*
Y7170000D02*
D03*
X11250000Y7110000D02*
D03*
X9738360Y7310120D02*
D03*
X16567000Y9390900D02*
D03*
X9740000Y7220000D02*
D03*
X16567000Y9467100D02*
D03*
X9537700Y7396480D02*
D03*
X16313000Y9263900D02*
D03*
X9532620Y7307580D02*
D03*
X16313000Y9340100D02*
D03*
X11044600Y8702040D02*
D03*
X11129600D02*
D03*
X10850000Y8420000D02*
D03*
X10744200Y8491220D02*
D03*
X9862820Y8580120D02*
D03*
X11350000Y8900000D02*
D03*
X11250000D02*
D03*
X11350000Y8840000D02*
D03*
X11250000D02*
D03*
X10838180Y8783320D02*
D03*
X9850120Y8696960D02*
D03*
X10025380Y8587740D02*
D03*
X10033000Y8783320D02*
D03*
X9942064Y8587740D02*
D03*
X9906000Y8704580D02*
D03*
X10130000Y8890000D02*
D03*
X10241280Y9093200D02*
D03*
X10436860Y8981440D02*
D03*
X10317480Y8989060D02*
D03*
X10370000Y9360000D02*
D03*
X10430000D02*
D03*
X10548620Y8803640D02*
D03*
X10188220Y8889500D02*
D03*
X15333980Y12532360D02*
D03*
X10246360Y8802320D02*
D03*
X15415623Y12532723D02*
D03*
X10746740Y8892540D02*
D03*
X15494725Y12533085D02*
D03*
X10840720Y8991600D02*
D03*
X15576369Y12530908D02*
D03*
X10439400Y8808720D02*
D03*
X15735300Y12529820D02*
D03*
X10441940Y8712200D02*
D03*
X15660551Y12528731D02*
D03*
X10152380Y8796020D02*
D03*
X15902939Y12534901D02*
D03*
X15821660Y12537440D02*
D03*
X9059982Y7109986D02*
D03*
X16313000Y8197100D02*
D03*
Y8120900D02*
D03*
X9061880Y7217840D02*
D03*
X12830000Y5710000D02*
D03*
X9161880Y7617840D02*
D03*
X16694000Y6287020D02*
D03*
X12830000Y5630000D02*
D03*
X9161880Y7717840D02*
D03*
X16694000Y6220980D02*
D03*
X8939982Y7409985D02*
D03*
X16567000Y8324100D02*
D03*
X9029982Y7509985D02*
D03*
X16567000Y8247900D02*
D03*
X8961880Y7717840D02*
D03*
X16313000Y7816100D02*
D03*
X9061880Y7717840D02*
D03*
X16313000Y7739900D02*
D03*
X9243300Y7599260D02*
D03*
X15239999Y5080000D02*
D03*
X16569540Y6728980D02*
D03*
X9243300Y7499260D02*
D03*
X15239999Y5000000D02*
D03*
X16569540Y6795020D02*
D03*
X9139982Y7909984D02*
D03*
X16567000Y7943100D02*
D03*
X9229660Y7914500D02*
D03*
X16567000Y7866900D02*
D03*
X8966200Y8008620D02*
D03*
X16313000Y7435100D02*
D03*
X9062720Y8018780D02*
D03*
X16313000Y7358900D02*
D03*
X16821001Y6850900D02*
D03*
X9061880Y8182280D02*
D03*
X13992860Y4898380D02*
D03*
X16821001Y6927100D02*
D03*
X9061880Y8282280D02*
D03*
X13992860Y4818380D02*
D03*
X16567000Y7485900D02*
D03*
X8949982Y8219984D02*
D03*
X13538200Y4819640D02*
D03*
X16567000Y7562100D02*
D03*
X8950000Y8320000D02*
D03*
X13538200Y4739640D02*
D03*
X16567000Y7104900D02*
D03*
X14620239Y4697720D02*
D03*
X8958540Y8485620D02*
D03*
X16567000Y7181100D02*
D03*
X8958540Y8585620D02*
D03*
X14620239Y4617720D02*
D03*
X14960001Y4490000D02*
D03*
X8958540Y8985620D02*
D03*
X14960001Y4410000D02*
D03*
X8958540Y9085620D02*
D03*
X9460000Y8890000D02*
D03*
X16186501Y6220480D02*
D03*
X9460000Y8990000D02*
D03*
X16186000Y6287020D02*
D03*
X9661880Y8882280D02*
D03*
X16186000Y6728980D02*
D03*
X9661880Y8982280D02*
D03*
X16186000Y6795020D02*
D03*
X9761880Y8682280D02*
D03*
X16189999Y5245000D02*
D03*
X9761880Y8782280D02*
D03*
X16270000Y5245000D02*
D03*
X9161880Y8582280D02*
D03*
X16307919Y8578100D02*
D03*
X9161880Y8482280D02*
D03*
X16307919Y8501900D02*
D03*
X9227820Y9580880D02*
D03*
D89*
X13192760Y9702800D02*
D03*
X13180060Y9829800D02*
D03*
X13187680Y9956800D02*
D03*
X13185139Y10083800D02*
D03*
X3926840Y5247640D02*
D03*
X11700000Y6990000D02*
D03*
X11580000Y7430000D02*
D03*
Y7340000D02*
D03*
X12010000Y7660000D02*
D03*
X12014200Y7305800D02*
D03*
X13056799Y7553640D02*
D03*
X9936480Y9799320D02*
D03*
X10510520Y9761220D02*
D03*
X10513060Y9872980D02*
D03*
X6474460Y10942320D02*
D03*
X4478020Y8775440D02*
D03*
Y8854180D02*
D03*
X4475480Y8689080D02*
D03*
Y8600180D02*
D03*
X4559300Y8775440D02*
D03*
X4561840Y8854180D02*
D03*
X4559300Y8686540D02*
D03*
Y8597640D02*
D03*
X10683240Y13108940D02*
D03*
X10551160Y13111481D02*
D03*
X12021820Y8018780D02*
D03*
X6410000Y6730000D02*
D03*
X10507980Y6065520D02*
D03*
X10568940Y6301740D02*
D03*
X11140440Y6306820D02*
D03*
X10375900Y6388100D02*
D03*
X9690100Y6327140D02*
D03*
X9430000Y10040000D02*
D03*
X9070000D02*
D03*
X9290000Y9790000D02*
D03*
X8816340Y9888220D02*
D03*
X10614660Y10073640D02*
D03*
X9834880Y10005060D02*
D03*
X9936480Y9702800D02*
D03*
Y9888220D02*
D03*
X9918700Y10116820D02*
D03*
X9926320Y10205720D02*
D03*
X10515600Y10208260D02*
D03*
X10518140Y9974580D02*
D03*
X7223760Y5702000D02*
D03*
X7221220Y5443220D02*
D03*
X6327140Y5257800D02*
D03*
X6245860Y5222240D02*
D03*
X6365240Y5923280D02*
D03*
X6289040D02*
D03*
X4799800Y4119080D02*
D03*
X4349780Y4088100D02*
D03*
X4363720Y5016500D02*
D03*
Y4912360D02*
D03*
Y4810760D02*
D03*
Y4716780D02*
D03*
Y4620260D02*
D03*
X5179060Y5623560D02*
D03*
X5080000Y5621020D02*
D03*
X4986020Y5623560D02*
D03*
X4889500Y5621020D02*
D03*
X4686300Y6690360D02*
D03*
X4795520D02*
D03*
X4912360D02*
D03*
X5029200D02*
D03*
X5151120D02*
D03*
Y6581140D02*
D03*
X5029200D02*
D03*
X4912360D02*
D03*
X4795520D02*
D03*
X4686300D02*
D03*
X2778760Y8000740D02*
D03*
X2697480Y8003280D02*
D03*
X2616200Y8005820D02*
D03*
X2542540D02*
D03*
X2849880Y7553700D02*
D03*
X2773680D02*
D03*
X2697480D02*
D03*
X2618740D02*
D03*
X2537460D02*
D03*
X4318620Y9295520D02*
D03*
X2959220Y11894240D02*
D03*
X2875400Y11891700D02*
D03*
X3020000Y11970000D02*
D03*
X2877940Y11967900D02*
D03*
X3032880Y12046640D02*
D03*
X2956680D02*
D03*
X2877940Y12044100D02*
D03*
X3909060Y7584180D02*
D03*
X3200400Y7716260D02*
D03*
X3197860Y7858500D02*
D03*
X8906040Y9887420D02*
D03*
X9588500Y6322060D02*
D03*
Y6241580D02*
D03*
X13032739Y8775700D02*
D03*
Y7881620D02*
D03*
X11861800Y7899400D02*
D03*
X9491980Y6413500D02*
D03*
X9588500Y6400800D02*
D03*
X10195560Y6403340D02*
D03*
X11049000Y6518660D02*
D03*
X9898380Y6774180D02*
D03*
X12390120Y8610600D02*
D03*
X9451340Y13601700D02*
D03*
X9824720Y13591541D02*
D03*
Y13294360D02*
D03*
X10350500Y13594080D02*
D03*
X9969500Y13591541D02*
D03*
X10358120Y13291820D02*
D03*
X3858260Y4994960D02*
D03*
X3726180Y5000040D02*
D03*
X12806680Y10025380D02*
D03*
X12804140Y9893300D02*
D03*
X12806680Y9768840D02*
D03*
X6118820Y10408920D02*
D03*
X6278820D02*
D03*
X6518820D02*
D03*
X7541220Y10413999D02*
D03*
X7621220Y10414000D02*
D03*
X7701220D02*
D03*
X7941220D02*
D03*
X5754460Y10942320D02*
D03*
X5834460D02*
D03*
X7180620Y10937240D02*
D03*
X7900620D02*
D03*
X7260620D02*
D03*
X7420620D02*
D03*
X5994460Y10942320D02*
D03*
X7462780Y10414000D02*
D03*
X7221220D02*
D03*
X6038820Y10408920D02*
D03*
X5798820D02*
D03*
X6198820D02*
D03*
X5674360Y12357100D02*
D03*
X5826760D02*
D03*
X5979160D02*
D03*
X6131560D02*
D03*
X6283960D02*
D03*
X6436360D02*
D03*
X6588760D02*
D03*
X8051800Y12359640D02*
D03*
X7899400D02*
D03*
X7747000D02*
D03*
X7594600D02*
D03*
X7442200D02*
D03*
X7289800D02*
D03*
X7137400D02*
D03*
X5240020Y10591800D02*
D03*
X5242560Y12029440D02*
D03*
Y11940540D02*
D03*
X8463280Y12026900D02*
D03*
Y11943080D02*
D03*
X8458200Y10614660D02*
D03*
Y10525760D02*
D03*
X3261360Y7487920D02*
D03*
X3515740Y12458120D02*
D03*
X3934460Y9298940D02*
D03*
X4817860Y4023880D02*
D03*
X5240020Y10510520D02*
D03*
X7104380Y7871460D02*
D03*
Y7960360D02*
D03*
X7211060Y8257540D02*
D03*
Y8163560D02*
D03*
X7297420Y8257540D02*
D03*
X3726180Y4657140D02*
D03*
X3858260Y4654600D02*
D03*
X3671520Y5116880D02*
D03*
X10253980Y3939540D02*
D03*
X10050780D02*
D03*
X10152380D02*
D03*
X10355580D02*
D03*
X10558780D02*
D03*
X10660380D02*
D03*
X9949180D02*
D03*
X10457180D02*
D03*
X10761980D02*
D03*
X6290320Y8096260D02*
D03*
X6756400Y6474460D02*
D03*
X6192520Y7221220D02*
D03*
X3348240Y7205980D02*
D03*
X3210560Y8087100D02*
D03*
X3375660Y7861040D02*
D03*
Y7718800D02*
D03*
X3304540Y8089640D02*
D03*
X3286760Y7861040D02*
D03*
X3284220Y7716260D02*
D03*
X5788660Y7500620D02*
D03*
X11544300Y8514080D02*
D03*
X9301480Y10350500D02*
D03*
X8796020Y10198100D02*
D03*
X10551160Y13652499D02*
D03*
X10685780Y13647420D02*
D03*
X9564300Y13153320D02*
D03*
X10090080Y13150780D02*
D03*
X7487920Y8526780D02*
D03*
X3790000Y5240000D02*
D03*
X5690000Y8470000D02*
D03*
X13139999Y11080000D02*
D03*
X13130000Y10900000D02*
D03*
X8940000Y10640000D02*
D03*
Y10840000D02*
D03*
X8950000Y11720000D02*
D03*
X8790000Y11840000D02*
D03*
X4740000Y10640000D02*
D03*
Y10800000D02*
D03*
X4750000Y11930000D02*
D03*
Y11760000D02*
D03*
X3490000Y10150000D02*
D03*
X3860000Y7310000D02*
D03*
X3930000D02*
D03*
X4010000D02*
D03*
X10880000Y6420000D02*
D03*
X9030000Y10210000D02*
D03*
X11220000Y9860000D02*
D03*
X13389999Y8520000D02*
D03*
X13560001Y8330000D02*
D03*
X7470000Y7640000D02*
D03*
X7270000Y7700000D02*
D03*
X3870000Y9110000D02*
D03*
X6819986Y6319987D02*
D03*
X10000000Y6240000D02*
D03*
X7500620Y10937240D02*
D03*
X7740620D02*
D03*
X7820320Y11220978D02*
D03*
X7660620D02*
D03*
X7580620D02*
D03*
X7340620D02*
D03*
X6074460Y10942320D02*
D03*
X6314460D02*
D03*
X6394160Y11226058D02*
D03*
X6234140D02*
D03*
X6154460D02*
D03*
X5914460D02*
D03*
X7584440Y7901940D02*
D03*
X11049000Y6446520D02*
D03*
X14631441Y13052020D02*
D03*
X14820900Y13050520D02*
D03*
X12800560Y13066800D02*
D03*
X12988519D02*
D03*
X11264900Y8648700D02*
D03*
X15109419Y13036320D02*
D03*
X15163800Y13101320D02*
D03*
X17221201Y13027660D02*
D03*
X16878300Y13050520D02*
D03*
D90*
X10179119Y10003660D02*
D03*
Y9893660D02*
D03*
X10289119D02*
D03*
Y10003660D02*
D03*
D91*
X6714960Y5671820D02*
D03*
X6717500Y5768340D02*
D03*
X6816560D02*
D03*
X6619075D02*
D03*
X6520650D02*
D03*
X6914350D02*
D03*
X6815925Y5671820D02*
D03*
X6619075D02*
D03*
X6520650D02*
D03*
X6914350D02*
D03*
X6813385Y5473700D02*
D03*
X6616535D02*
D03*
X6518110D02*
D03*
X6714960D02*
D03*
X6911810D02*
D03*
X6813385Y5377180D02*
D03*
X6616535D02*
D03*
X6518110D02*
D03*
X6714960D02*
D03*
X6911810D02*
D03*
D112*
X8938638Y11121640D02*
D03*
X8668638D02*
D03*
X4736718Y11451340D02*
D03*
X5006718D02*
D03*
X8938638Y11437620D02*
D03*
X8668638D02*
D03*
X4736338Y11094720D02*
D03*
X5006338D02*
D03*
D113*
X9653500Y9530000D02*
D03*
X9326500D02*
D03*
D114*
X11262359Y9955280D02*
D03*
Y9765280D02*
D03*
D115*
X11369859Y9955280D02*
D03*
Y9765280D02*
D03*
X11154859Y9955280D02*
D03*
Y9765280D02*
D03*
D116*
X8623298Y10821340D02*
D03*
Y10621339D02*
D03*
X5046978Y11738940D02*
D03*
Y11938941D02*
D03*
X8610598Y11736400D02*
D03*
Y11936400D02*
D03*
X5066918Y10798561D02*
D03*
Y10598561D02*
D03*
D117*
X3857258Y5166880D02*
D03*
Y5116880D02*
D03*
Y5066880D02*
D03*
X3732258D02*
D03*
Y5116880D02*
D03*
Y5166880D02*
D03*
D118*
X12166597Y7891780D02*
D03*
Y8018780D02*
D03*
Y8145780D02*
D03*
Y8272780D02*
D03*
Y8399780D02*
D03*
Y8526780D02*
D03*
Y8653780D02*
D03*
Y8780780D02*
D03*
X13196597Y7891780D02*
D03*
Y8018780D02*
D03*
Y8145780D02*
D03*
Y8272780D02*
D03*
Y8399780D02*
D03*
Y8526780D02*
D03*
Y8653780D02*
D03*
D119*
Y8780780D02*
D03*
D120*
X13071300Y10812780D02*
D03*
X13133299D02*
D03*
X13071300Y11002780D02*
D03*
X13133299D02*
D03*
X13195300D02*
D03*
D121*
Y10812780D02*
D03*
D122*
X9128179Y9889240D02*
D03*
Y9699240D02*
D03*
X9373179Y9794240D02*
D03*
Y9889240D02*
D03*
Y9699240D02*
D03*
X10713139Y6518660D02*
D03*
Y6328660D02*
D03*
X10958139Y6423660D02*
D03*
Y6518660D02*
D03*
Y6328660D02*
D03*
X9826679Y6334760D02*
D03*
Y6429760D02*
D03*
Y6239760D02*
D03*
X10071679D02*
D03*
Y6429760D02*
D03*
Y6334760D02*
D03*
D123*
X10136619Y10136160D02*
D03*
X10201619D02*
D03*
X10266619D02*
D03*
X10136619Y9761160D02*
D03*
X10201619D02*
D03*
X10266619D02*
D03*
X10331619Y10136160D02*
D03*
Y9761160D02*
D03*
D124*
X10046619Y9981160D02*
D03*
Y9916160D02*
D03*
Y10046160D02*
D03*
Y9851160D02*
D03*
X10421619Y9981160D02*
D03*
Y9916160D02*
D03*
Y10046160D02*
D03*
Y9851160D02*
D03*
D125*
X10234119Y9948660D02*
D03*
D126*
X14702020Y12990021D02*
D03*
Y13052020D02*
D03*
Y13114020D02*
D03*
X14892020Y12990021D02*
D03*
Y13052020D02*
D03*
X12925560Y13128799D02*
D03*
Y13066800D02*
D03*
Y13004800D02*
D03*
X12735560Y13128799D02*
D03*
Y13066800D02*
D03*
X15046960Y13036320D02*
D03*
Y13098320D02*
D03*
X15236960Y12974319D02*
D03*
Y13036320D02*
D03*
Y13098320D02*
D03*
X17160240Y13039320D02*
D03*
Y12977319D02*
D03*
X16970239Y13101320D02*
D03*
Y13039320D02*
D03*
Y12977319D02*
D03*
D127*
X14892020Y13114020D02*
D03*
X12735560Y13004800D02*
D03*
X15046960Y12974319D02*
D03*
X17160240Y13101320D02*
D03*
D128*
X4945000Y5121120D02*
D03*
D129*
X17872479Y11015660D02*
D03*
%TF.MD5,58d14c052f52031826db48411f30d391*%
M02*
