G04 Layer_Color=65535*
%FSLAX43Y43*%
%MOMM*%
%TF.FileFunction,Legend,Top*%
%TF.Part,Single*%
G01*
G75*
%TA.AperFunction,NonConductor*%
%ADD60C,0.254*%
%ADD93C,0.051*%
%ADD134C,0.100*%
%ADD135C,0.250*%
%ADD136C,0.200*%
%ADD137C,0.102*%
%ADD138C,0.127*%
%ADD144C,0.152*%
%ADD145C,0.076*%
G36*
X121534Y57345D02*
X121280D01*
Y57726D01*
X121534D01*
Y57345D01*
D02*
G37*
G36*
X113152Y55845D02*
X112898D01*
Y56226D01*
X113152D01*
Y55845D01*
D02*
G37*
G36*
X116157Y51468D02*
X115776D01*
Y51722D01*
X116157D01*
Y51468D01*
D02*
G37*
G36*
X116657Y59850D02*
X116276D01*
Y60104D01*
X116657D01*
Y59850D01*
D02*
G37*
G36*
X137941Y91501D02*
Y92501D01*
X138941D01*
X137941Y91501D01*
D02*
G37*
G36*
X82808Y80381D02*
X82427D01*
Y80635D01*
X82808D01*
Y80381D01*
D02*
G37*
G36*
X82308Y74909D02*
X81927D01*
Y75163D01*
X82308D01*
Y74909D01*
D02*
G37*
D60*
X92917Y81989D02*
G03*
X92917Y81989I-3750J0D01*
G01*
X124547Y89840D02*
G03*
X124547Y89840I-100J0D01*
G01*
X217894Y127584D02*
X218631D01*
X218681Y127635D01*
Y141859D01*
X203441Y127584D02*
X217894D01*
X203441D02*
Y141859D01*
X218681D01*
X195034Y127584D02*
X195771D01*
X195821Y127635D01*
Y141859D01*
X180581Y127584D02*
X195034D01*
X180581D02*
Y141859D01*
X195821D01*
X75083Y128299D02*
X84083D01*
X75083D02*
Y142799D01*
X84083Y128299D02*
Y142799D01*
X75083D02*
X84083D01*
X120123Y102488D02*
X131123D01*
X120123D02*
Y110718D01*
X130366D01*
X131123Y109962D01*
Y102488D02*
Y109962D01*
X144615Y131775D02*
X146139D01*
X144615D02*
Y133680D01*
X207288Y57079D02*
X211098D01*
Y56317D02*
Y57079D01*
X207288D02*
Y114737D01*
X211098Y56317D02*
X217702D01*
Y57079D01*
X221512D01*
X207288Y114737D02*
X221512D01*
Y57079D02*
Y114737D01*
X88156Y122634D02*
Y135634D01*
X95156Y122634D02*
Y135634D01*
X88156Y122634D02*
X95156D01*
X88156Y135634D02*
X95156D01*
X172917Y116637D02*
X189567D01*
X172917Y110337D02*
X189567D01*
Y116637D01*
X172917Y110337D02*
Y116637D01*
X105873Y102488D02*
X116873D01*
X105873D02*
Y110718D01*
X116116D01*
X116873Y109962D01*
Y102488D02*
Y109962D01*
X149873Y131775D02*
X151397D01*
X149873D02*
Y133680D01*
X103253Y99838D02*
Y142138D01*
X133753Y99838D02*
Y142138D01*
X103253D02*
X133753D01*
X103253Y99838D02*
X133753D01*
X174485Y119735D02*
X173977D01*
X174231D01*
Y118466D01*
X173977Y118212D01*
X173723D01*
X173469Y118466D01*
X174993Y119735D02*
X176009D01*
X175501D01*
Y118212D01*
X176516D02*
Y119227D01*
X177024Y119735D01*
X177532Y119227D01*
Y118212D01*
Y118973D01*
X176516D01*
X179056Y119481D02*
X178802Y119735D01*
X178294D01*
X178040Y119481D01*
Y118466D01*
X178294Y118212D01*
X178802D01*
X179056Y118466D01*
Y118973D01*
X178548D01*
D93*
X116667Y50267D02*
Y50470D01*
X115880Y50267D02*
Y50470D01*
X89751Y91437D02*
Y91641D01*
X88964Y91437D02*
Y91641D01*
X96882Y40589D02*
Y40792D01*
X97670Y40589D02*
Y40792D01*
X83656Y124175D02*
X83859D01*
X83656Y124962D02*
X83859D01*
X106879Y56903D02*
Y57106D01*
X106091Y56903D02*
Y57106D01*
X106879Y54770D02*
Y54973D01*
X106091Y54770D02*
Y54973D01*
X89751Y89507D02*
Y89710D01*
X88964Y89507D02*
Y89710D01*
X97619Y42520D02*
X97822D01*
X97619Y41732D02*
X97822D01*
X81954Y124962D02*
Y125165D01*
X82742Y124962D02*
Y125165D01*
X87744Y73429D02*
Y73632D01*
X86957Y73429D02*
Y73632D01*
X87795Y74546D02*
X87998D01*
X87795Y75334D02*
X87998D01*
X127030Y55677D02*
X127233D01*
X127030Y56464D02*
X127233D01*
X128148Y55423D02*
Y55626D01*
X128935Y55423D02*
Y55626D01*
X117953Y47988D02*
X118156D01*
X117953Y48775D02*
X118156D01*
X119807Y47988D02*
X120010D01*
X119807Y48775D02*
X120010D01*
X116015Y63881D02*
X116218D01*
X116015Y63094D02*
X116218D01*
X114110Y63906D02*
X114313D01*
X114110Y63119D02*
X114313D01*
X114143Y47988D02*
X114346D01*
X114143Y48775D02*
X114346D01*
X116048Y47988D02*
X116251D01*
X116048Y48775D02*
X116251D01*
X81826Y73429D02*
Y73632D01*
X81039Y73429D02*
Y73632D01*
X80912Y73429D02*
Y73632D01*
X80124Y73429D02*
Y73632D01*
X120426Y61519D02*
Y61722D01*
X119639Y61519D02*
Y61722D01*
X119588Y49860D02*
Y50063D01*
X120375Y49860D02*
Y50063D01*
X114981Y61551D02*
Y61755D01*
X114194Y61551D02*
Y61755D01*
X113771Y49860D02*
Y50063D01*
X114559Y49860D02*
Y50063D01*
X85941Y73429D02*
Y73632D01*
X85154Y73429D02*
Y73632D01*
X117124Y61087D02*
X117327D01*
X117124Y61874D02*
X117327D01*
X187922Y100452D02*
X188125D01*
X187922Y101240D02*
X188125D01*
X187922Y99208D02*
X188125D01*
X187922Y99995D02*
X188125D01*
X187922Y97912D02*
X188125D01*
X187922Y98700D02*
X188125D01*
X187922Y96668D02*
X188125D01*
X187922Y97455D02*
X188125D01*
X155893Y132500D02*
Y132703D01*
X155105Y132500D02*
Y132703D01*
X157213Y132418D02*
Y132621D01*
X156426Y132418D02*
Y132621D01*
X167319Y70598D02*
Y70802D01*
X168106Y70598D02*
Y70802D01*
X171719Y70698D02*
Y70902D01*
X172506Y70698D02*
Y70902D01*
X139992Y101498D02*
Y101702D01*
X139205Y101498D02*
Y101702D01*
X139129Y101498D02*
Y101702D01*
X138341Y101498D02*
Y101702D01*
X173419Y95961D02*
Y96164D01*
X172631Y95961D02*
Y96164D01*
X175264Y95961D02*
Y96164D01*
X174477Y95961D02*
Y96164D01*
X176187Y95961D02*
Y96164D01*
X175400Y95961D02*
Y96164D01*
X173554Y95961D02*
Y96164D01*
X174341Y95961D02*
Y96164D01*
X122111Y78130D02*
X122314D01*
X122111Y77343D02*
X122314D01*
X121679Y80772D02*
Y80975D01*
X120891Y80772D02*
Y80975D01*
X123406Y80772D02*
Y80975D01*
X122619Y80772D02*
Y80975D01*
X83884Y73429D02*
Y73632D01*
X83096Y73429D02*
Y73632D01*
X182570Y126236D02*
Y126440D01*
X181782Y126236D02*
Y126440D01*
X180099Y126263D02*
Y126467D01*
X180886Y126263D02*
Y126467D01*
X183412Y126236D02*
Y126440D01*
X182624Y126236D02*
Y126440D01*
X180941Y126263D02*
Y126467D01*
X181728Y126263D02*
Y126467D01*
X185937Y126236D02*
Y126440D01*
X185150Y126236D02*
Y126440D01*
X183466Y126263D02*
Y126467D01*
X184254Y126263D02*
Y126467D01*
X186779Y126236D02*
Y126440D01*
X185992Y126236D02*
Y126440D01*
X184308Y126263D02*
Y126467D01*
X185095Y126263D02*
Y126467D01*
X205354Y126338D02*
Y126541D01*
X204566Y126338D02*
Y126541D01*
X202933Y126365D02*
Y126568D01*
X203721Y126365D02*
Y126568D01*
X206170Y126338D02*
Y126541D01*
X205383Y126338D02*
Y126541D01*
X208619Y126338D02*
Y126541D01*
X207832Y126338D02*
Y126541D01*
X206199Y126365D02*
Y126568D01*
X206987Y126365D02*
Y126568D01*
X209436Y126338D02*
Y126541D01*
X208648Y126338D02*
Y126541D01*
X203750Y126365D02*
Y126568D01*
X204537Y126365D02*
Y126568D01*
X207016Y126365D02*
Y126568D01*
X207803Y126365D02*
Y126568D01*
X89040Y72644D02*
X89243D01*
X89040Y71857D02*
X89243D01*
D134*
X99954Y57963D02*
Y58522D01*
X98887Y57963D02*
Y58522D01*
X144590Y122098D02*
Y122657D01*
X143523Y122098D02*
Y122657D01*
X142100Y118389D02*
Y118948D01*
X143167Y118389D02*
Y118948D01*
X143624Y118999D02*
Y119558D01*
X144691Y118999D02*
Y119558D01*
X139560Y120828D02*
X140119D01*
X139560Y119761D02*
X140119D01*
X143116Y122758D02*
Y123317D01*
X142050Y122758D02*
Y123317D01*
X144590Y114173D02*
Y114732D01*
X143523Y114173D02*
Y114732D01*
X141999Y110211D02*
Y110769D01*
X143066Y110211D02*
Y110769D01*
X143548Y110922D02*
Y111481D01*
X144615Y110922D02*
Y111481D01*
X139586Y112903D02*
X140145D01*
X139586Y111836D02*
X140145D01*
X143193Y114884D02*
Y115443D01*
X142126Y114884D02*
Y115443D01*
X78219Y105791D02*
X78778D01*
X78219Y104724D02*
X78778D01*
X78143Y96723D02*
X78702D01*
X78143Y97790D02*
X78702D01*
X113271Y89535D02*
X113830D01*
X113271Y88468D02*
X113830D01*
X125235Y79934D02*
Y80493D01*
X124168Y79934D02*
Y80493D01*
X125235Y77521D02*
Y78080D01*
X124168Y77521D02*
Y78080D01*
X83884Y86230D02*
X84747D01*
X83884Y84859D02*
X84747D01*
X125024Y55042D02*
Y55601D01*
X126090Y55042D02*
Y55601D01*
X122687Y44094D02*
Y44653D01*
X123754Y44094D02*
Y44653D01*
X97066Y55252D02*
X98023D01*
Y51163D02*
Y55252D01*
X96023Y51163D02*
X98023D01*
X96023D02*
Y55252D01*
X97066D01*
X99377D02*
X100335D01*
Y51163D02*
Y55252D01*
X98335Y51163D02*
X100335D01*
X98335D02*
Y55252D01*
X99377D01*
X123955Y57538D02*
Y58402D01*
X122584Y57538D02*
Y58402D01*
X114016Y60993D02*
Y61856D01*
X112644Y60993D02*
Y61856D01*
X122611Y52984D02*
Y53848D01*
X123982Y52984D02*
Y53848D01*
X112044Y49936D02*
Y50800D01*
X113416Y49936D02*
Y50800D01*
X78016Y77848D02*
Y78712D01*
X76645Y77848D02*
Y78712D01*
X75070Y77848D02*
Y78712D01*
X76441Y77848D02*
Y78712D01*
X145286Y94268D02*
Y95132D01*
X143914Y94268D02*
Y95132D01*
X149914Y93568D02*
Y94432D01*
X151286Y93568D02*
Y94432D01*
X162768Y80986D02*
X163632D01*
X162768Y79614D02*
X163632D01*
X162768Y82414D02*
X163632D01*
X162768Y83786D02*
X163632D01*
X136270Y77463D02*
Y78928D01*
X133755Y77540D02*
Y78887D01*
X135668Y87401D02*
X136532D01*
X135668Y86030D02*
X136532D01*
X135668Y89114D02*
X136532D01*
X135668Y90486D02*
X136532D01*
X133440Y83645D02*
X134787D01*
X133363Y81130D02*
X134828D01*
X162568Y89386D02*
X163432D01*
X162568Y88014D02*
X163432D01*
X162568Y73214D02*
X163432D01*
X162568Y74586D02*
X163432D01*
X135868Y71714D02*
X136732D01*
X135868Y73086D02*
X136732D01*
X135868Y74586D02*
X136732D01*
X135868Y73214D02*
X136732D01*
X162568Y75914D02*
X163432D01*
X162568Y77286D02*
X163432D01*
X162547Y70637D02*
X163411D01*
X162547Y72009D02*
X163411D01*
X163208Y93523D02*
X164555D01*
X163132Y91008D02*
X164597D01*
X139560Y122022D02*
X140119D01*
X139560Y120955D02*
X140119D01*
X139586Y114173D02*
X140145D01*
X139586Y113106D02*
X140145D01*
X107896Y54212D02*
Y57512D01*
Y54212D02*
X111196D01*
X107896Y57512D02*
X111196D01*
X111198Y54212D02*
Y57512D01*
X124574Y85903D02*
X127241D01*
Y89459D01*
X124574D02*
X127241D01*
X124574Y85903D02*
Y89459D01*
X83884Y87856D02*
X84747D01*
X83884Y86484D02*
X84747D01*
X107387Y57973D02*
X107653Y57706D01*
X107387D02*
X107653Y57973D01*
X107387Y57840D02*
X107653D01*
X107520Y57706D02*
Y57973D01*
D135*
X96023Y39373D02*
G03*
X96023Y39373I-125J0D01*
G01*
X85175Y123165D02*
G03*
X85175Y123165I-125J0D01*
G01*
X90911Y92831D02*
G03*
X90911Y92831I-125J0D01*
G01*
X171842Y72269D02*
G03*
X171842Y72269I-125J0D01*
G01*
X137416Y92351D02*
G03*
X137416Y92351I-125J0D01*
G01*
D136*
X182971Y96418D02*
G03*
X182336Y96418I-317J0D01*
G01*
X182971D02*
X184979D01*
X180329D02*
X182336D01*
X180329D02*
Y101498D01*
X184979D01*
Y96418D02*
Y101498D01*
X94548Y42598D02*
X94848D01*
Y39698D02*
Y42598D01*
X94548Y39698D02*
Y42598D01*
Y39698D02*
X94848D01*
X81825Y121815D02*
Y122115D01*
X84725D01*
X81825Y121815D02*
X84725D01*
Y122115D01*
X91836Y89606D02*
X92136D01*
X91836D02*
Y92506D01*
X92136Y89606D02*
Y92506D01*
X91836D02*
X92136D01*
X171467Y70819D02*
Y71319D01*
X168367Y70819D02*
Y71319D01*
X171467D01*
X168367Y70819D02*
X171467D01*
X119799Y77851D02*
Y82931D01*
X117259D02*
X119799D01*
X117259Y77851D02*
Y82931D01*
Y77851D02*
X119799D01*
X96144Y58191D02*
Y59233D01*
X98023Y58191D02*
Y59233D01*
X160388Y126187D02*
X165468D01*
Y110947D02*
Y126187D01*
X160388Y110947D02*
X165468D01*
X160388D02*
Y126187D01*
X73927Y118491D02*
Y123571D01*
Y118491D02*
X76467D01*
Y123571D01*
X73927D02*
X76467D01*
X160941Y69501D02*
Y92501D01*
X137941D02*
X160941D01*
X137941Y91501D02*
X138941Y92501D01*
X137941Y69501D02*
X160941D01*
X137941D02*
Y92501D01*
D137*
X118242Y50267D02*
Y50470D01*
X117632Y50267D02*
Y50470D01*
X117404Y50267D02*
Y50470D01*
X116794Y50267D02*
Y50470D01*
X123397Y56370D02*
X123600D01*
X123397Y55760D02*
X123600D01*
X118740Y61551D02*
Y61755D01*
X119350Y61551D02*
Y61755D01*
X119461Y49835D02*
Y50038D01*
X118851Y49835D02*
Y50038D01*
X115159Y61551D02*
Y61755D01*
X115769Y61551D02*
Y61755D01*
X115321Y49860D02*
Y50063D01*
X114711Y49860D02*
Y50063D01*
X121805Y50498D02*
Y50702D01*
X121195Y50498D02*
Y50702D01*
X112120Y57252D02*
Y57455D01*
X112730Y57252D02*
Y57455D01*
X112095Y54483D02*
Y54686D01*
X112705Y54483D02*
Y54686D01*
X86746Y77721D02*
X86949D01*
X86746Y77112D02*
X86949D01*
X86119Y73429D02*
Y73632D01*
X86728Y73429D02*
Y73632D01*
X85230Y75232D02*
Y75435D01*
X85839Y75232D02*
Y75435D01*
X84087Y73429D02*
Y73632D01*
X84696Y73429D02*
Y73632D01*
X87795Y76147D02*
X87998D01*
X87795Y75537D02*
X87998D01*
X79098Y77595D02*
X79302D01*
X79098Y78205D02*
X79302D01*
X124117Y87579D02*
Y87782D01*
X123508Y87579D02*
Y87782D01*
X128130Y87376D02*
X128334D01*
X128130Y87986D02*
X128334D01*
X128130Y86284D02*
X128334D01*
X128130Y86893D02*
X128334D01*
X212395Y54023D02*
Y54227D01*
X213005Y54023D02*
Y54227D01*
X211532Y54023D02*
Y54227D01*
X212141Y54023D02*
Y54227D01*
D138*
X110706Y84938D02*
G03*
X110706Y84938I-1524J0D01*
G01*
X110401D02*
G03*
X110401Y84938I-1219J0D01*
G01*
X84188Y101295D02*
G03*
X84188Y101295I-1524J0D01*
G01*
X83884D02*
G03*
X83884Y101295I-1219J0D01*
G01*
X86792Y48108D02*
X87706D01*
X86792D02*
X87249Y48565D01*
X87706Y48108D01*
X155042Y134570D02*
X155956D01*
X155042D02*
X155499Y135027D01*
X155956Y134570D01*
X156388Y134595D02*
X157302D01*
X156388D02*
X156845Y135052D01*
X157302Y134595D01*
X124740Y83071D02*
X125197Y82614D01*
X124282D02*
X124740Y83071D01*
X124282Y82614D02*
X125197D01*
X107182Y82067D02*
X111189D01*
X109690Y87788D02*
X111189D01*
X107182D02*
X108682D01*
X109690D02*
Y88038D01*
X108682D02*
X109690D01*
X108682Y87788D02*
Y88038D01*
X110985Y83922D02*
Y85938D01*
Y83922D02*
X111189D01*
X111392D01*
Y85938D01*
X111189D02*
X111392D01*
X110985D02*
X111189D01*
X106982Y83922D02*
Y85938D01*
Y83922D02*
X107182D01*
X107382D01*
Y85938D01*
X107182D02*
X107382D01*
X106982D02*
X107182D01*
X111189D02*
Y87788D01*
Y82067D02*
Y83922D01*
X107182Y82067D02*
Y83922D01*
Y85938D02*
Y87788D01*
X88113Y48108D02*
X89027D01*
X88113D02*
X88570Y48565D01*
X89027Y48108D01*
X80658Y104165D02*
X84664D01*
X80658Y98445D02*
X82156D01*
X83164D02*
X84664D01*
X82156Y98195D02*
Y98445D01*
Y98195D02*
X83164D01*
Y98445D01*
X80861Y100295D02*
Y102311D01*
X80658D02*
X80861D01*
X80455D02*
X80658D01*
X80455Y100295D02*
Y102311D01*
Y100295D02*
X80658D01*
X80861D01*
X84864D02*
Y102311D01*
X84664D02*
X84864D01*
X84464D02*
X84664D01*
X84464Y100295D02*
Y102311D01*
Y100295D02*
X84664D01*
X84864D01*
X80658Y98445D02*
Y100295D01*
Y102311D02*
Y104165D01*
X84664Y102311D02*
Y104165D01*
Y98445D02*
Y100295D01*
X105982Y91059D02*
Y90424D01*
X106299D01*
X106405Y90530D01*
Y90636D01*
X106299Y90741D01*
X105982D01*
X106299D01*
X106405Y90847D01*
Y90953D01*
X106299Y91059D01*
X105982D01*
X106616Y90424D02*
X106828D01*
X106722D01*
Y91059D01*
X106616Y90953D01*
X82000Y107235D02*
Y106600D01*
X82317D01*
X82423Y106706D01*
Y106812D01*
X82317Y106917D01*
X82000D01*
X82317D01*
X82423Y107023D01*
Y107129D01*
X82317Y107235D01*
X82000D01*
X83058Y106600D02*
X82635D01*
X83058Y107023D01*
Y107129D01*
X82952Y107235D01*
X82741D01*
X82635Y107129D01*
X211471Y51123D02*
X211365Y51017D01*
Y50806D01*
X211471Y50700D01*
X211894D01*
X212000Y50806D01*
Y51017D01*
X211894Y51123D01*
X211471Y51335D02*
X211365Y51441D01*
Y51652D01*
X211471Y51758D01*
X211577D01*
X211683Y51652D01*
Y51546D01*
Y51652D01*
X211788Y51758D01*
X211894D01*
X212000Y51652D01*
Y51441D01*
X211894Y51335D01*
X212571Y51123D02*
X212465Y51017D01*
Y50806D01*
X212571Y50700D01*
X212994D01*
X213100Y50806D01*
Y51017D01*
X212994Y51123D01*
X213100Y51652D02*
X212465D01*
X212783Y51335D01*
Y51758D01*
X128122Y85848D02*
X128016Y85953D01*
X127804D01*
X127699Y85848D01*
Y85424D01*
X127804Y85319D01*
X128016D01*
X128122Y85424D01*
X128757Y85953D02*
X128545Y85848D01*
X128333Y85636D01*
Y85424D01*
X128439Y85319D01*
X128651D01*
X128757Y85424D01*
Y85530D01*
X128651Y85636D01*
X128333D01*
X128173Y88870D02*
X128067Y88976D01*
X127855D01*
X127749Y88870D01*
Y88447D01*
X127855Y88341D01*
X128067D01*
X128173Y88447D01*
X128384Y88976D02*
X128807D01*
Y88870D01*
X128384Y88447D01*
Y88341D01*
X122623Y88129D02*
X122517Y88235D01*
X122306D01*
X122200Y88129D01*
Y87706D01*
X122306Y87600D01*
X122517D01*
X122623Y87706D01*
X122835Y88129D02*
X122941Y88235D01*
X123152D01*
X123258Y88129D01*
Y88023D01*
X123152Y87917D01*
X123258Y87812D01*
Y87706D01*
X123152Y87600D01*
X122941D01*
X122835Y87706D01*
Y87812D01*
X122941Y87917D01*
X122835Y88023D01*
Y88129D01*
X122941Y87917D02*
X123152D01*
X162412Y94839D02*
X162306Y94945D01*
X162094D01*
X161989Y94839D01*
Y94416D01*
X162094Y94310D01*
X162306D01*
X162412Y94416D01*
X162623D02*
X162729Y94310D01*
X162941D01*
X163047Y94416D01*
Y94839D01*
X162941Y94945D01*
X162729D01*
X162623Y94839D01*
Y94733D01*
X162729Y94628D01*
X163047D01*
X162594Y72791D02*
X162488Y72897D01*
X162277D01*
X162171Y72791D01*
Y72368D01*
X162277Y72262D01*
X162488D01*
X162594Y72368D01*
X163229Y72262D02*
X162806D01*
X163229Y72686D01*
Y72791D01*
X163123Y72897D01*
X162912D01*
X162806Y72791D01*
X163441D02*
X163546Y72897D01*
X163758D01*
X163864Y72791D01*
Y72686D01*
X163758Y72580D01*
X163864Y72474D01*
Y72368D01*
X163758Y72262D01*
X163546D01*
X163441Y72368D01*
Y72474D01*
X163546Y72580D01*
X163441Y72686D01*
Y72791D01*
X163546Y72580D02*
X163758D01*
X162590Y78405D02*
X162484Y78511D01*
X162272D01*
X162166Y78405D01*
Y77982D01*
X162272Y77876D01*
X162484D01*
X162590Y77982D01*
X163224Y77876D02*
X162801D01*
X163224Y78300D01*
Y78405D01*
X163119Y78511D01*
X162907D01*
X162801Y78405D01*
X163436Y77982D02*
X163542Y77876D01*
X163753D01*
X163859Y77982D01*
Y78405D01*
X163753Y78511D01*
X163542D01*
X163436Y78405D01*
Y78300D01*
X163542Y78194D01*
X163859D01*
X133354Y74113D02*
X133248Y74219D01*
X133037D01*
X132931Y74113D01*
Y73690D01*
X133037Y73584D01*
X133248D01*
X133354Y73690D01*
X133566Y74113D02*
X133672Y74219D01*
X133883D01*
X133989Y74113D01*
Y74007D01*
X133883Y73901D01*
X133777D01*
X133883D01*
X133989Y73795D01*
Y73690D01*
X133883Y73584D01*
X133672D01*
X133566Y73690D01*
X134518Y73584D02*
Y74219D01*
X134201Y73901D01*
X134624D01*
X133380Y72589D02*
X133274Y72695D01*
X133062D01*
X132956Y72589D01*
Y72166D01*
X133062Y72060D01*
X133274D01*
X133380Y72166D01*
X133591Y72589D02*
X133697Y72695D01*
X133909D01*
X134014Y72589D01*
Y72483D01*
X133909Y72377D01*
X133803D01*
X133909D01*
X134014Y72271D01*
Y72166D01*
X133909Y72060D01*
X133697D01*
X133591Y72166D01*
X134649Y72695D02*
X134226D01*
Y72377D01*
X134438Y72483D01*
X134543D01*
X134649Y72377D01*
Y72166D01*
X134543Y72060D01*
X134332D01*
X134226Y72166D01*
X162623Y75429D02*
X162517Y75535D01*
X162306D01*
X162200Y75429D01*
Y75006D01*
X162306Y74900D01*
X162517D01*
X162623Y75006D01*
X163152Y74900D02*
Y75535D01*
X162835Y75217D01*
X163258D01*
X163470Y75429D02*
X163575Y75535D01*
X163787D01*
X163893Y75429D01*
Y75006D01*
X163787Y74900D01*
X163575D01*
X163470Y75006D01*
Y75429D01*
X162717Y90318D02*
X162611Y90424D01*
X162399D01*
X162293Y90318D01*
Y89895D01*
X162399Y89789D01*
X162611D01*
X162717Y89895D01*
X163246Y89789D02*
Y90424D01*
X162928Y90106D01*
X163351D01*
X163563Y89789D02*
X163775D01*
X163669D01*
Y90424D01*
X163563Y90318D01*
X133623Y84629D02*
X133517Y84735D01*
X133306D01*
X133200Y84629D01*
Y84206D01*
X133306Y84100D01*
X133517D01*
X133623Y84206D01*
X134152Y84100D02*
Y84735D01*
X133835Y84417D01*
X134258D01*
X134470Y84629D02*
X134575Y84735D01*
X134787D01*
X134893Y84629D01*
Y84523D01*
X134787Y84417D01*
X134893Y84312D01*
Y84206D01*
X134787Y84100D01*
X134575D01*
X134470Y84206D01*
Y84312D01*
X134575Y84417D01*
X134470Y84523D01*
Y84629D01*
X134575Y84417D02*
X134787D01*
X133145Y90050D02*
X133039Y90155D01*
X132828D01*
X132722Y90050D01*
Y89626D01*
X132828Y89521D01*
X133039D01*
X133145Y89626D01*
X133780Y90155D02*
X133357D01*
Y89838D01*
X133568Y89944D01*
X133674D01*
X133780Y89838D01*
Y89626D01*
X133674Y89521D01*
X133462D01*
X133357Y89626D01*
X133991Y90050D02*
X134097Y90155D01*
X134309D01*
X134415Y90050D01*
Y89944D01*
X134309Y89838D01*
X134203D01*
X134309D01*
X134415Y89732D01*
Y89626D01*
X134309Y89521D01*
X134097D01*
X133991Y89626D01*
X133123Y86929D02*
X133017Y87035D01*
X132806D01*
X132700Y86929D01*
Y86506D01*
X132806Y86400D01*
X133017D01*
X133123Y86506D01*
X133758Y87035D02*
X133335D01*
Y86717D01*
X133546Y86823D01*
X133652D01*
X133758Y86717D01*
Y86506D01*
X133652Y86400D01*
X133441D01*
X133335Y86506D01*
X134287Y86400D02*
Y87035D01*
X133970Y86717D01*
X134393D01*
X132671Y77723D02*
X132565Y77617D01*
Y77406D01*
X132671Y77300D01*
X133094D01*
X133200Y77406D01*
Y77617D01*
X133094Y77723D01*
X132565Y78358D02*
Y77935D01*
X132883D01*
X132777Y78146D01*
Y78252D01*
X132883Y78358D01*
X133094D01*
X133200Y78252D01*
Y78041D01*
X133094Y77935D01*
X132565Y78993D02*
Y78570D01*
X132883D01*
X132777Y78781D01*
Y78887D01*
X132883Y78993D01*
X133094D01*
X133200Y78887D01*
Y78675D01*
X133094Y78570D01*
X162844Y84806D02*
X162738Y84912D01*
X162526D01*
X162420Y84806D01*
Y84383D01*
X162526Y84277D01*
X162738D01*
X162844Y84383D01*
X163478Y84912D02*
X163055D01*
Y84595D01*
X163267Y84700D01*
X163373D01*
X163478Y84595D01*
Y84383D01*
X163373Y84277D01*
X163161D01*
X163055Y84383D01*
X163690Y84912D02*
X164113D01*
Y84806D01*
X163690Y84383D01*
Y84277D01*
X162818Y81834D02*
X162712Y81940D01*
X162501D01*
X162395Y81834D01*
Y81411D01*
X162501Y81305D01*
X162712D01*
X162818Y81411D01*
X163453Y81940D02*
X163030D01*
Y81623D01*
X163241Y81729D01*
X163347D01*
X163453Y81623D01*
Y81411D01*
X163347Y81305D01*
X163136D01*
X163030Y81411D01*
X163665Y81834D02*
X163770Y81940D01*
X163982D01*
X164088Y81834D01*
Y81729D01*
X163982Y81623D01*
X164088Y81517D01*
Y81411D01*
X163982Y81305D01*
X163770D01*
X163665Y81411D01*
Y81517D01*
X163770Y81623D01*
X163665Y81729D01*
Y81834D01*
X163770Y81623D02*
X163982D01*
X149429Y94277D02*
X149535Y94383D01*
Y94594D01*
X149429Y94700D01*
X149006D01*
X148900Y94594D01*
Y94383D01*
X149006Y94277D01*
X149535Y93642D02*
X149429Y93854D01*
X149217Y94065D01*
X149006D01*
X148900Y93959D01*
Y93748D01*
X149006Y93642D01*
X149112D01*
X149217Y93748D01*
Y94065D01*
X149429Y93430D02*
X149535Y93325D01*
Y93113D01*
X149429Y93007D01*
X149323D01*
X149217Y93113D01*
X149112Y93007D01*
X149006D01*
X148900Y93113D01*
Y93325D01*
X149006Y93430D01*
X149112D01*
X149217Y93325D01*
X149323Y93430D01*
X149429D01*
X149217Y93325D02*
Y93113D01*
X146229Y95077D02*
X146335Y95183D01*
Y95394D01*
X146229Y95500D01*
X145806D01*
X145700Y95394D01*
Y95183D01*
X145806Y95077D01*
X146335Y94442D02*
X146229Y94654D01*
X146017Y94865D01*
X145806D01*
X145700Y94759D01*
Y94548D01*
X145806Y94442D01*
X145912D01*
X146017Y94548D01*
Y94865D01*
X145806Y94230D02*
X145700Y94125D01*
Y93913D01*
X145806Y93807D01*
X146229D01*
X146335Y93913D01*
Y94125D01*
X146229Y94230D01*
X146123D01*
X146017Y94125D01*
Y93807D01*
X97206Y63864D02*
X97312Y63970D01*
Y64182D01*
X97206Y64287D01*
X96783D01*
X96677Y64182D01*
Y63970D01*
X96783Y63864D01*
X97206Y63653D02*
X97312Y63547D01*
Y63335D01*
X97206Y63229D01*
X97100D01*
X96995Y63335D01*
X96889Y63229D01*
X96783D01*
X96677Y63335D01*
Y63547D01*
X96783Y63653D01*
X96889D01*
X96995Y63547D01*
X97100Y63653D01*
X97206D01*
X96995Y63547D02*
Y63335D01*
X97206Y63018D02*
X97312Y62912D01*
Y62700D01*
X97206Y62595D01*
X97100D01*
X96995Y62700D01*
X96889Y62595D01*
X96783D01*
X96677Y62700D01*
Y62912D01*
X96783Y63018D01*
X96889D01*
X96995Y62912D01*
X97100Y63018D01*
X97206D01*
X96995Y62912D02*
Y62700D01*
X75531Y81040D02*
X75426Y80934D01*
Y80723D01*
X75531Y80617D01*
X75955D01*
X76060Y80723D01*
Y80934D01*
X75955Y81040D01*
X76060Y81252D02*
Y81463D01*
Y81358D01*
X75426D01*
X75531Y81252D01*
Y81781D02*
X75426Y81887D01*
Y82098D01*
X75531Y82204D01*
X75955D01*
X76060Y82098D01*
Y81887D01*
X75955Y81781D01*
X75531D01*
X76060Y82839D02*
Y82416D01*
X75637Y82839D01*
X75531D01*
X75426Y82733D01*
Y82521D01*
X75531Y82416D01*
X77132Y81040D02*
X77026Y80934D01*
Y80723D01*
X77132Y80617D01*
X77555D01*
X77661Y80723D01*
Y80934D01*
X77555Y81040D01*
X77661Y81252D02*
Y81463D01*
Y81358D01*
X77026D01*
X77132Y81252D01*
Y81781D02*
X77026Y81887D01*
Y82098D01*
X77132Y82204D01*
X77555D01*
X77661Y82098D01*
Y81887D01*
X77555Y81781D01*
X77132D01*
Y82416D02*
X77026Y82521D01*
Y82733D01*
X77132Y82839D01*
X77237D01*
X77343Y82733D01*
Y82627D01*
Y82733D01*
X77449Y82839D01*
X77555D01*
X77661Y82733D01*
Y82521D01*
X77555Y82416D01*
X78662Y80652D02*
X78557Y80758D01*
X78345D01*
X78239Y80652D01*
Y80229D01*
X78345Y80123D01*
X78557D01*
X78662Y80229D01*
X78874Y80123D02*
X79086D01*
X78980D01*
Y80758D01*
X78874Y80652D01*
X79403D02*
X79509Y80758D01*
X79720D01*
X79826Y80652D01*
Y80229D01*
X79720Y80123D01*
X79509D01*
X79403Y80229D01*
Y80652D01*
X80461Y80758D02*
X80038D01*
Y80440D01*
X80249Y80546D01*
X80355D01*
X80461Y80440D01*
Y80229D01*
X80355Y80123D01*
X80144D01*
X80038Y80229D01*
X90047Y76091D02*
X89941Y76197D01*
X89730D01*
X89624Y76091D01*
Y75668D01*
X89730Y75562D01*
X89941D01*
X90047Y75668D01*
X90259Y75562D02*
X90470D01*
X90365D01*
Y76197D01*
X90259Y76091D01*
X90788D02*
X90894Y76197D01*
X91105D01*
X91211Y76091D01*
Y75668D01*
X91105Y75562D01*
X90894D01*
X90788Y75668D01*
Y76091D01*
X91846Y76197D02*
X91634Y76091D01*
X91423Y75880D01*
Y75668D01*
X91528Y75562D01*
X91740D01*
X91846Y75668D01*
Y75774D01*
X91740Y75880D01*
X91423D01*
X84641Y72015D02*
X84747Y72121D01*
Y72332D01*
X84641Y72438D01*
X84218D01*
X84112Y72332D01*
Y72121D01*
X84218Y72015D01*
X84112Y71803D02*
Y71592D01*
Y71698D01*
X84747D01*
X84641Y71803D01*
Y71274D02*
X84747Y71169D01*
Y70957D01*
X84641Y70851D01*
X84218D01*
X84112Y70957D01*
Y71169D01*
X84218Y71274D01*
X84641D01*
Y70640D02*
X84747Y70534D01*
Y70322D01*
X84641Y70216D01*
X84535D01*
X84430Y70322D01*
X84324Y70216D01*
X84218D01*
X84112Y70322D01*
Y70534D01*
X84218Y70640D01*
X84324D01*
X84430Y70534D01*
X84535Y70640D01*
X84641D01*
X84430Y70534D02*
Y70322D01*
X85759Y71939D02*
X85865Y72045D01*
Y72256D01*
X85759Y72362D01*
X85336D01*
X85230Y72256D01*
Y72045D01*
X85336Y71939D01*
X85230Y71727D02*
Y71516D01*
Y71621D01*
X85865D01*
X85759Y71727D01*
Y71198D02*
X85865Y71092D01*
Y70881D01*
X85759Y70775D01*
X85336D01*
X85230Y70881D01*
Y71092D01*
X85336Y71198D01*
X85759D01*
X85336Y70563D02*
X85230Y70458D01*
Y70246D01*
X85336Y70140D01*
X85759D01*
X85865Y70246D01*
Y70458D01*
X85759Y70563D01*
X85653D01*
X85547Y70458D01*
Y70140D01*
X86648Y72040D02*
X86754Y72146D01*
Y72358D01*
X86648Y72464D01*
X86225D01*
X86119Y72358D01*
Y72146D01*
X86225Y72040D01*
X86119Y71829D02*
Y71617D01*
Y71723D01*
X86754D01*
X86648Y71829D01*
X86119Y71300D02*
Y71088D01*
Y71194D01*
X86754D01*
X86648Y71300D01*
Y70771D02*
X86754Y70665D01*
Y70453D01*
X86648Y70348D01*
X86225D01*
X86119Y70453D01*
Y70665D01*
X86225Y70771D01*
X86648D01*
X88423Y77629D02*
X88317Y77735D01*
X88106D01*
X88000Y77629D01*
Y77206D01*
X88106Y77100D01*
X88317D01*
X88423Y77206D01*
X88635Y77100D02*
X88846D01*
X88741D01*
Y77735D01*
X88635Y77629D01*
X89164Y77100D02*
X89375D01*
X89270D01*
Y77735D01*
X89164Y77629D01*
X89693Y77100D02*
X89904D01*
X89799D01*
Y77735D01*
X89693Y77629D01*
X111623Y53429D02*
X111517Y53535D01*
X111306D01*
X111200Y53429D01*
Y53006D01*
X111306Y52900D01*
X111517D01*
X111623Y53006D01*
X111835Y53535D02*
X112258D01*
Y53429D01*
X111835Y53006D01*
Y52900D01*
X112470Y53006D02*
X112575Y52900D01*
X112787D01*
X112893Y53006D01*
Y53429D01*
X112787Y53535D01*
X112575D01*
X112470Y53429D01*
Y53323D01*
X112575Y53217D01*
X112893D01*
X112129Y59677D02*
X112235Y59783D01*
Y59994D01*
X112129Y60100D01*
X111706D01*
X111600Y59994D01*
Y59783D01*
X111706Y59677D01*
X112129Y59465D02*
X112235Y59359D01*
Y59148D01*
X112129Y59042D01*
X112023D01*
X111917Y59148D01*
X111812Y59042D01*
X111706D01*
X111600Y59148D01*
Y59359D01*
X111706Y59465D01*
X111812D01*
X111917Y59359D01*
X112023Y59465D01*
X112129D01*
X111917Y59359D02*
Y59148D01*
X112235Y58407D02*
Y58830D01*
X111917D01*
X112023Y58619D01*
Y58513D01*
X111917Y58407D01*
X111706D01*
X111600Y58513D01*
Y58725D01*
X111706Y58830D01*
X121726Y48798D02*
X121831Y48904D01*
Y49115D01*
X121726Y49221D01*
X121302D01*
X121197Y49115D01*
Y48904D01*
X121302Y48798D01*
Y48586D02*
X121197Y48481D01*
Y48269D01*
X121302Y48163D01*
X121726D01*
X121831Y48269D01*
Y48481D01*
X121726Y48586D01*
X121620D01*
X121514Y48481D01*
Y48163D01*
X121726Y47952D02*
X121831Y47846D01*
Y47634D01*
X121726Y47528D01*
X121302D01*
X121197Y47634D01*
Y47846D01*
X121302Y47952D01*
X121726D01*
X115292Y46737D02*
X115398Y46843D01*
Y47055D01*
X115292Y47161D01*
X114869D01*
X114763Y47055D01*
Y46843D01*
X114869Y46737D01*
X115398Y46526D02*
Y46103D01*
X115292D01*
X114869Y46526D01*
X114763D01*
X115292Y45891D02*
X115398Y45785D01*
Y45574D01*
X115292Y45468D01*
X115187D01*
X115081Y45574D01*
X114975Y45468D01*
X114869D01*
X114763Y45574D01*
Y45785D01*
X114869Y45891D01*
X114975D01*
X115081Y45785D01*
X115187Y45891D01*
X115292D01*
X115081Y45785D02*
Y45574D01*
X115829Y65477D02*
X115935Y65583D01*
Y65794D01*
X115829Y65900D01*
X115406D01*
X115300Y65794D01*
Y65583D01*
X115406Y65477D01*
X115829Y65265D02*
X115935Y65159D01*
Y64948D01*
X115829Y64842D01*
X115723D01*
X115617Y64948D01*
X115512Y64842D01*
X115406D01*
X115300Y64948D01*
Y65159D01*
X115406Y65265D01*
X115512D01*
X115617Y65159D01*
X115723Y65265D01*
X115829D01*
X115617Y65159D02*
Y64948D01*
X115300Y64313D02*
X115935D01*
X115617Y64630D01*
Y64207D01*
X119407Y46763D02*
X119513Y46869D01*
Y47080D01*
X119407Y47186D01*
X118984D01*
X118878Y47080D01*
Y46869D01*
X118984Y46763D01*
X119407Y46551D02*
X119513Y46445D01*
Y46234D01*
X119407Y46128D01*
X119301D01*
X119196Y46234D01*
X119090Y46128D01*
X118984D01*
X118878Y46234D01*
Y46445D01*
X118984Y46551D01*
X119090D01*
X119196Y46445D01*
X119301Y46551D01*
X119407D01*
X119196Y46445D02*
Y46234D01*
X119513Y45916D02*
Y45493D01*
X119407D01*
X118984Y45916D01*
X118878D01*
X119329Y64077D02*
X119435Y64183D01*
Y64394D01*
X119329Y64500D01*
X118906D01*
X118800Y64394D01*
Y64183D01*
X118906Y64077D01*
Y63865D02*
X118800Y63759D01*
Y63548D01*
X118906Y63442D01*
X119329D01*
X119435Y63548D01*
Y63759D01*
X119329Y63865D01*
X119223D01*
X119117Y63759D01*
Y63442D01*
X118800Y62913D02*
X119435D01*
X119117Y63230D01*
Y62807D01*
X112929Y48294D02*
X113035Y48400D01*
Y48611D01*
X112929Y48717D01*
X112506D01*
X112400Y48611D01*
Y48400D01*
X112506Y48294D01*
X113035Y48082D02*
Y47659D01*
X112929D01*
X112506Y48082D01*
X112400D01*
Y47024D02*
Y47448D01*
X112823Y47024D01*
X112929D01*
X113035Y47130D01*
Y47342D01*
X112929Y47448D01*
X123495Y51139D02*
X123601Y51245D01*
Y51456D01*
X123495Y51562D01*
X123072D01*
X122966Y51456D01*
Y51245D01*
X123072Y51139D01*
X123601Y50927D02*
Y50504D01*
X123495D01*
X123072Y50927D01*
X122966D01*
X123495Y50292D02*
X123601Y50187D01*
Y49975D01*
X123495Y49869D01*
X123389D01*
X123284Y49975D01*
Y50081D01*
Y49975D01*
X123178Y49869D01*
X123072D01*
X122966Y49975D01*
Y50187D01*
X123072Y50292D01*
X112729Y64277D02*
X112835Y64383D01*
Y64594D01*
X112729Y64700D01*
X112306D01*
X112200Y64594D01*
Y64383D01*
X112306Y64277D01*
X112835Y64065D02*
Y63642D01*
X112729D01*
X112306Y64065D01*
X112200D01*
Y63113D02*
X112835D01*
X112517Y63430D01*
Y63007D01*
X123521Y61096D02*
X123626Y61201D01*
Y61413D01*
X123521Y61519D01*
X123097D01*
X122992Y61413D01*
Y61201D01*
X123097Y61096D01*
X123626Y60884D02*
Y60461D01*
X123521D01*
X123097Y60884D01*
X122992D01*
X123626Y59826D02*
Y60249D01*
X123309D01*
X123415Y60038D01*
Y59932D01*
X123309Y59826D01*
X123097D01*
X122992Y59932D01*
Y60143D01*
X123097Y60249D01*
X123067Y55393D02*
X122961Y55499D01*
X122750D01*
X122644Y55393D01*
Y54970D01*
X122750Y54864D01*
X122961D01*
X123067Y54970D01*
X123279Y55499D02*
X123702D01*
Y55393D01*
X123279Y54970D01*
Y54864D01*
X124337Y55499D02*
X124125Y55393D01*
X123914Y55181D01*
Y54970D01*
X124019Y54864D01*
X124231D01*
X124337Y54970D01*
Y55076D01*
X124231Y55181D01*
X123914D01*
X99629Y49577D02*
X99735Y49683D01*
Y49894D01*
X99629Y50000D01*
X99206D01*
X99100Y49894D01*
Y49683D01*
X99206Y49577D01*
X99629Y49365D02*
X99735Y49259D01*
Y49048D01*
X99629Y48942D01*
X99523D01*
X99417Y49048D01*
X99312Y48942D01*
X99206D01*
X99100Y49048D01*
Y49259D01*
X99206Y49365D01*
X99312D01*
X99417Y49259D01*
X99523Y49365D01*
X99629D01*
X99417Y49259D02*
Y49048D01*
X99629Y48730D02*
X99735Y48625D01*
Y48413D01*
X99629Y48307D01*
X99206D01*
X99100Y48413D01*
Y48625D01*
X99206Y48730D01*
X99629D01*
X97229Y49577D02*
X97335Y49683D01*
Y49894D01*
X97229Y50000D01*
X96806D01*
X96700Y49894D01*
Y49683D01*
X96806Y49577D01*
X97229Y49365D02*
X97335Y49259D01*
Y49048D01*
X97229Y48942D01*
X97123D01*
X97017Y49048D01*
X96912Y48942D01*
X96806D01*
X96700Y49048D01*
Y49259D01*
X96806Y49365D01*
X96912D01*
X97017Y49259D01*
X97123Y49365D01*
X97229D01*
X97017Y49259D02*
Y49048D01*
X96700Y48307D02*
Y48730D01*
X97123Y48307D01*
X97229D01*
X97335Y48413D01*
Y48625D01*
X97229Y48730D01*
X123529Y46777D02*
X123635Y46883D01*
Y47094D01*
X123529Y47200D01*
X123106D01*
X123000Y47094D01*
Y46883D01*
X123106Y46777D01*
Y46565D02*
X123000Y46459D01*
Y46248D01*
X123106Y46142D01*
X123529D01*
X123635Y46248D01*
Y46459D01*
X123529Y46565D01*
X123423D01*
X123317Y46459D01*
Y46142D01*
X123000Y45930D02*
Y45719D01*
Y45825D01*
X123635D01*
X123529Y45930D01*
X125713Y57971D02*
X125819Y58077D01*
Y58289D01*
X125713Y58395D01*
X125290D01*
X125184Y58289D01*
Y58077D01*
X125290Y57971D01*
Y57760D02*
X125184Y57654D01*
Y57442D01*
X125290Y57337D01*
X125713D01*
X125819Y57442D01*
Y57654D01*
X125713Y57760D01*
X125607D01*
X125501Y57654D01*
Y57337D01*
X125819Y56702D02*
Y57125D01*
X125501D01*
X125607Y56913D01*
Y56808D01*
X125501Y56702D01*
X125290D01*
X125184Y56808D01*
Y57019D01*
X125290Y57125D01*
X80023Y85729D02*
X79917Y85835D01*
X79706D01*
X79600Y85729D01*
Y85306D01*
X79706Y85200D01*
X79917D01*
X80023Y85306D01*
X80341Y85200D02*
X80552D01*
X80658Y85306D01*
Y85517D01*
X80552Y85623D01*
X80341D01*
X80235Y85517D01*
Y85306D01*
X80341Y85200D01*
X80870Y85623D02*
Y85306D01*
X80975Y85200D01*
X81293D01*
Y85623D01*
X81610Y85729D02*
Y85623D01*
X81504D01*
X81716D01*
X81610D01*
Y85306D01*
X81716Y85200D01*
X82033D02*
X82245D01*
X82139D01*
Y85835D01*
X82033Y85729D01*
X79923Y87429D02*
X79817Y87535D01*
X79606D01*
X79500Y87429D01*
Y87006D01*
X79606Y86900D01*
X79817D01*
X79923Y87006D01*
X80241Y86900D02*
X80452D01*
X80558Y87006D01*
Y87217D01*
X80452Y87323D01*
X80241D01*
X80135Y87217D01*
Y87006D01*
X80241Y86900D01*
X80770Y87323D02*
Y87006D01*
X80875Y86900D01*
X81193D01*
Y87323D01*
X81510Y87429D02*
Y87323D01*
X81404D01*
X81616D01*
X81510D01*
Y87006D01*
X81616Y86900D01*
X82357D02*
X81933D01*
X82357Y87323D01*
Y87429D01*
X82251Y87535D01*
X82039D01*
X81933Y87429D01*
X117350Y47144D02*
X117456Y47250D01*
Y47461D01*
X117350Y47567D01*
X116927D01*
X116821Y47461D01*
Y47250D01*
X116927Y47144D01*
Y46932D02*
X116821Y46826D01*
Y46615D01*
X116927Y46509D01*
X117350D01*
X117456Y46615D01*
Y46826D01*
X117350Y46932D01*
X117244D01*
X117138Y46826D01*
Y46509D01*
X117456Y45874D02*
X117350Y46086D01*
X117138Y46297D01*
X116927D01*
X116821Y46192D01*
Y45980D01*
X116927Y45874D01*
X117032D01*
X117138Y45980D01*
Y46297D01*
X118163Y47195D02*
X118268Y47300D01*
Y47512D01*
X118163Y47618D01*
X117739D01*
X117634Y47512D01*
Y47300D01*
X117739Y47195D01*
Y46983D02*
X117634Y46877D01*
Y46666D01*
X117739Y46560D01*
X118163D01*
X118268Y46666D01*
Y46877D01*
X118163Y46983D01*
X118057D01*
X117951Y46877D01*
Y46560D01*
X118268Y46348D02*
Y45925D01*
X118163D01*
X117739Y46348D01*
X117634D01*
X125600Y83135D02*
Y82500D01*
X125917D01*
X126023Y82606D01*
Y83029D01*
X125917Y83135D01*
X125600D01*
X126235Y82500D02*
X126446D01*
X126341D01*
Y83135D01*
X126235Y83029D01*
X144615Y138074D02*
Y137439D01*
X144932D01*
X145038Y137545D01*
Y137968D01*
X144932Y138074D01*
X144615D01*
X145673Y137439D02*
X145250D01*
X145673Y137863D01*
Y137968D01*
X145567Y138074D01*
X145356D01*
X145250Y137968D01*
X150457Y137973D02*
Y137338D01*
X150774D01*
X150880Y137444D01*
Y137867D01*
X150774Y137973D01*
X150457D01*
X151092Y137867D02*
X151198Y137973D01*
X151409D01*
X151515Y137867D01*
Y137761D01*
X151409Y137655D01*
X151303D01*
X151409D01*
X151515Y137549D01*
Y137444D01*
X151409Y137338D01*
X151198D01*
X151092Y137444D01*
X125565Y90525D02*
X125777D01*
X125671D01*
Y89891D01*
X125565D01*
X125777D01*
X126517Y90420D02*
X126411Y90525D01*
X126200D01*
X126094Y90420D01*
Y89996D01*
X126200Y89891D01*
X126411D01*
X126517Y89996D01*
X127152Y89891D02*
X126729D01*
X127152Y90314D01*
Y90420D01*
X127046Y90525D01*
X126835D01*
X126729Y90420D01*
X132723Y99135D02*
X132512D01*
X132617D01*
Y98606D01*
X132512Y98500D01*
X132406D01*
X132300Y98606D01*
X132935Y99029D02*
X133041Y99135D01*
X133252D01*
X133358Y99029D01*
Y98923D01*
X133252Y98817D01*
X133146D01*
X133252D01*
X133358Y98712D01*
Y98606D01*
X133252Y98500D01*
X133041D01*
X132935Y98606D01*
X115823Y99035D02*
X115612D01*
X115717D01*
Y98506D01*
X115612Y98400D01*
X115506D01*
X115400Y98506D01*
X116352Y98400D02*
Y99035D01*
X116035Y98717D01*
X116458D01*
X103700Y43135D02*
Y42500D01*
X104123D01*
X104335D02*
X104546D01*
X104441D01*
Y43135D01*
X104335Y43029D01*
X99174Y69342D02*
Y68707D01*
X99598D01*
X100232D02*
X99809D01*
X100232Y69130D01*
Y69236D01*
X100127Y69342D01*
X99915D01*
X99809Y69236D01*
X133873Y54735D02*
Y54100D01*
X134296D01*
X134508Y54629D02*
X134613Y54735D01*
X134825D01*
X134931Y54629D01*
Y54523D01*
X134825Y54417D01*
X134719D01*
X134825D01*
X134931Y54312D01*
Y54206D01*
X134825Y54100D01*
X134613D01*
X134508Y54206D01*
X93500Y79535D02*
Y78900D01*
X93923D01*
X94452D02*
Y79535D01*
X94135Y79217D01*
X94558D01*
X117285Y83668D02*
Y84302D01*
X117602D01*
X117708Y84197D01*
Y83985D01*
X117602Y83879D01*
X117285D01*
X117919Y83668D02*
X118131D01*
X118025D01*
Y84302D01*
X117919Y84197D01*
X171971Y111303D02*
X171336D01*
Y111620D01*
X171442Y111726D01*
X171653D01*
X171759Y111620D01*
Y111303D01*
X171971Y112361D02*
Y111938D01*
X171548Y112361D01*
X171442D01*
X171336Y112255D01*
Y112043D01*
X171442Y111938D01*
X109923Y58006D02*
Y58429D01*
X109817Y58535D01*
X109606D01*
X109500Y58429D01*
Y58006D01*
X109606Y57900D01*
X109817D01*
X109712Y58112D02*
X109923Y57900D01*
X109817D02*
X109923Y58006D01*
X110558Y57900D02*
X110135D01*
X110558Y58323D01*
Y58429D01*
X110452Y58535D01*
X110241D01*
X110135Y58429D01*
X125844Y77470D02*
Y78105D01*
X126162D01*
X126268Y77999D01*
Y77787D01*
X126162Y77682D01*
X125844D01*
X126056D02*
X126268Y77470D01*
X126479D02*
X126691D01*
X126585D01*
Y78105D01*
X126479Y77999D01*
X123355Y78969D02*
X122720D01*
Y79286D01*
X122826Y79392D01*
X123038D01*
X123144Y79286D01*
Y78969D01*
Y79180D02*
X123355Y79392D01*
Y79921D02*
X122720D01*
X123038Y79603D01*
Y80027D01*
X121500Y82100D02*
X120865D01*
Y82417D01*
X120971Y82523D01*
X121183D01*
X121288Y82417D01*
Y82100D01*
Y82312D02*
X121500Y82523D01*
X120865Y83158D02*
Y82735D01*
X121183D01*
X121077Y82946D01*
Y83052D01*
X121183Y83158D01*
X121394D01*
X121500Y83052D01*
Y82841D01*
X121394Y82735D01*
X120000Y76900D02*
Y77535D01*
X120317D01*
X120423Y77429D01*
Y77217D01*
X120317Y77112D01*
X120000D01*
X120212D02*
X120423Y76900D01*
X121058Y77535D02*
X120846Y77429D01*
X120635Y77217D01*
Y77006D01*
X120741Y76900D01*
X120952D01*
X121058Y77006D01*
Y77112D01*
X120952Y77217D01*
X120635D01*
X125692Y79883D02*
Y80518D01*
X126009D01*
X126115Y80412D01*
Y80200D01*
X126009Y80095D01*
X125692D01*
X125904D02*
X126115Y79883D01*
X126327Y80412D02*
X126433Y80518D01*
X126644D01*
X126750Y80412D01*
Y80306D01*
X126644Y80200D01*
X126750Y80095D01*
Y79989D01*
X126644Y79883D01*
X126433D01*
X126327Y79989D01*
Y80095D01*
X126433Y80200D01*
X126327Y80306D01*
Y80412D01*
X126433Y80200D02*
X126644D01*
X174206Y97384D02*
X173571D01*
Y97701D01*
X173677Y97807D01*
X173889D01*
X173994Y97701D01*
Y97384D01*
Y97595D02*
X174206Y97807D01*
X174100Y98018D02*
X174206Y98124D01*
Y98336D01*
X174100Y98442D01*
X173677D01*
X173571Y98336D01*
Y98124D01*
X173677Y98018D01*
X173783D01*
X173889Y98124D01*
Y98442D01*
X176043Y97333D02*
X175408D01*
Y97650D01*
X175514Y97756D01*
X175726D01*
X175832Y97650D01*
Y97333D01*
Y97544D02*
X176043Y97756D01*
Y97968D02*
Y98179D01*
Y98073D01*
X175408D01*
X175514Y97968D01*
Y98497D02*
X175408Y98602D01*
Y98814D01*
X175514Y98920D01*
X175937D01*
X176043Y98814D01*
Y98602D01*
X175937Y98497D01*
X175514D01*
X175188Y97358D02*
X174553D01*
Y97676D01*
X174659Y97781D01*
X174871D01*
X174977Y97676D01*
Y97358D01*
Y97570D02*
X175188Y97781D01*
Y97993D02*
Y98205D01*
Y98099D01*
X174553D01*
X174659Y97993D01*
X175188Y98522D02*
Y98734D01*
Y98628D01*
X174553D01*
X174659Y98522D01*
X112535Y90246D02*
Y90881D01*
X112852D01*
X112958Y90775D01*
Y90564D01*
X112852Y90458D01*
X112535D01*
X112746D02*
X112958Y90246D01*
X113170D02*
X113381D01*
X113275D01*
Y90881D01*
X113170Y90775D01*
X114122Y90246D02*
X113699D01*
X114122Y90669D01*
Y90775D01*
X114016Y90881D01*
X113804D01*
X113699Y90775D01*
X173215Y97333D02*
X172581D01*
Y97650D01*
X172686Y97756D01*
X172898D01*
X173004Y97650D01*
Y97333D01*
Y97544D02*
X173215Y97756D01*
Y97968D02*
Y98179D01*
Y98073D01*
X172581D01*
X172686Y97968D01*
X173215Y98814D02*
X172581D01*
X172898Y98497D01*
Y98920D01*
X77500Y98300D02*
Y98935D01*
X77817D01*
X77923Y98829D01*
Y98617D01*
X77817Y98512D01*
X77500D01*
X77712D02*
X77923Y98300D01*
X78135D02*
X78346D01*
X78241D01*
Y98935D01*
X78135Y98829D01*
X79087Y98935D02*
X78664D01*
Y98617D01*
X78875Y98723D01*
X78981D01*
X79087Y98617D01*
Y98406D01*
X78981Y98300D01*
X78770D01*
X78664Y98406D01*
X77800Y106600D02*
Y107235D01*
X78117D01*
X78223Y107129D01*
Y106917D01*
X78117Y106812D01*
X77800D01*
X78012D02*
X78223Y106600D01*
X78435D02*
X78646D01*
X78541D01*
Y107235D01*
X78435Y107129D01*
X79387Y107235D02*
X79175Y107129D01*
X78964Y106917D01*
Y106706D01*
X79070Y106600D01*
X79281D01*
X79387Y106706D01*
Y106812D01*
X79281Y106917D01*
X78964D01*
X90335Y71857D02*
Y72491D01*
X90653D01*
X90758Y72386D01*
Y72174D01*
X90653Y72068D01*
X90335D01*
X90547D02*
X90758Y71857D01*
X91393D02*
X90970D01*
X91393Y72280D01*
Y72386D01*
X91287Y72491D01*
X91076D01*
X90970Y72386D01*
X92028Y71857D02*
X91605D01*
X92028Y72280D01*
Y72386D01*
X91922Y72491D01*
X91711D01*
X91605Y72386D01*
X135900Y101400D02*
Y102035D01*
X136217D01*
X136323Y101929D01*
Y101717D01*
X136217Y101612D01*
X135900D01*
X136112D02*
X136323Y101400D01*
X136535Y101929D02*
X136641Y102035D01*
X136852D01*
X136958Y101929D01*
Y101823D01*
X136852Y101717D01*
X136746D01*
X136852D01*
X136958Y101612D01*
Y101506D01*
X136852Y101400D01*
X136641D01*
X136535Y101506D01*
X137170Y101400D02*
X137381D01*
X137275D01*
Y102035D01*
X137170Y101929D01*
X140900Y101300D02*
Y101935D01*
X141217D01*
X141323Y101829D01*
Y101617D01*
X141217Y101512D01*
X140900D01*
X141112D02*
X141323Y101300D01*
X141535Y101829D02*
X141641Y101935D01*
X141852D01*
X141958Y101829D01*
Y101723D01*
X141852Y101617D01*
X141746D01*
X141852D01*
X141958Y101512D01*
Y101406D01*
X141852Y101300D01*
X141641D01*
X141535Y101406D01*
X142593Y101300D02*
X142170D01*
X142593Y101723D01*
Y101829D01*
X142487Y101935D01*
X142275D01*
X142170Y101829D01*
X172800Y70500D02*
Y71135D01*
X173117D01*
X173223Y71029D01*
Y70817D01*
X173117Y70712D01*
X172800D01*
X173012D02*
X173223Y70500D01*
X173435Y71029D02*
X173541Y71135D01*
X173752D01*
X173858Y71029D01*
Y70923D01*
X173752Y70817D01*
X173646D01*
X173752D01*
X173858Y70712D01*
Y70606D01*
X173752Y70500D01*
X173541D01*
X173435Y70606D01*
X174493Y71135D02*
X174070D01*
Y70817D01*
X174281Y70923D01*
X174387D01*
X174493Y70817D01*
Y70606D01*
X174387Y70500D01*
X174175D01*
X174070Y70606D01*
X165367Y70637D02*
Y71272D01*
X165684D01*
X165790Y71166D01*
Y70955D01*
X165684Y70849D01*
X165367D01*
X165578D02*
X165790Y70637D01*
X166002Y71166D02*
X166107Y71272D01*
X166319D01*
X166425Y71166D01*
Y71061D01*
X166319Y70955D01*
X166213D01*
X166319D01*
X166425Y70849D01*
Y70743D01*
X166319Y70637D01*
X166107D01*
X166002Y70743D01*
X167060Y71272D02*
X166848Y71166D01*
X166636Y70955D01*
Y70743D01*
X166742Y70637D01*
X166954D01*
X167060Y70743D01*
Y70849D01*
X166954Y70955D01*
X166636D01*
X157167Y128829D02*
X156532D01*
Y129146D01*
X156638Y129252D01*
X156850D01*
X156956Y129146D01*
Y128829D01*
Y129041D02*
X157167Y129252D01*
Y129781D02*
X156532D01*
X156850Y129464D01*
Y129887D01*
X157167Y130522D02*
Y130099D01*
X156744Y130522D01*
X156638D01*
X156532Y130416D01*
Y130204D01*
X156638Y130099D01*
X155767Y128829D02*
X155132D01*
Y129146D01*
X155238Y129252D01*
X155450D01*
X155556Y129146D01*
Y128829D01*
Y129041D02*
X155767Y129252D01*
Y129781D02*
X155132D01*
X155450Y129464D01*
Y129887D01*
X155238Y130099D02*
X155132Y130204D01*
Y130416D01*
X155238Y130522D01*
X155344D01*
X155450Y130416D01*
Y130310D01*
Y130416D01*
X155556Y130522D01*
X155661D01*
X155767Y130416D01*
Y130204D01*
X155661Y130099D01*
X189040Y96719D02*
Y97353D01*
X189357D01*
X189463Y97248D01*
Y97036D01*
X189357Y96930D01*
X189040D01*
X189251D02*
X189463Y96719D01*
X189992D02*
Y97353D01*
X189674Y97036D01*
X190098D01*
X190309Y97248D02*
X190415Y97353D01*
X190627D01*
X190732Y97248D01*
Y97142D01*
X190627Y97036D01*
X190732Y96930D01*
Y96824D01*
X190627Y96719D01*
X190415D01*
X190309Y96824D01*
Y96930D01*
X190415Y97036D01*
X190309Y97142D01*
Y97248D01*
X190415Y97036D02*
X190627D01*
X189014Y97989D02*
Y98623D01*
X189332D01*
X189437Y98518D01*
Y98306D01*
X189332Y98200D01*
X189014D01*
X189226D02*
X189437Y97989D01*
X189966D02*
Y98623D01*
X189649Y98306D01*
X190072D01*
X190284Y98094D02*
X190390Y97989D01*
X190601D01*
X190707Y98094D01*
Y98518D01*
X190601Y98623D01*
X190390D01*
X190284Y98518D01*
Y98412D01*
X190390Y98306D01*
X190707D01*
X189040Y99284D02*
Y99919D01*
X189357D01*
X189463Y99813D01*
Y99601D01*
X189357Y99496D01*
X189040D01*
X189251D02*
X189463Y99284D01*
X190098Y99919D02*
X189674D01*
Y99601D01*
X189886Y99707D01*
X189992D01*
X190098Y99601D01*
Y99390D01*
X189992Y99284D01*
X189780D01*
X189674Y99390D01*
X190309Y99813D02*
X190415Y99919D01*
X190627D01*
X190732Y99813D01*
Y99390D01*
X190627Y99284D01*
X190415D01*
X190309Y99390D01*
Y99813D01*
X189040Y100529D02*
Y101163D01*
X189357D01*
X189463Y101058D01*
Y100846D01*
X189357Y100740D01*
X189040D01*
X189251D02*
X189463Y100529D01*
X190098Y101163D02*
X189674D01*
Y100846D01*
X189886Y100952D01*
X189992D01*
X190098Y100846D01*
Y100634D01*
X189992Y100529D01*
X189780D01*
X189674Y100634D01*
X190309Y100529D02*
X190521D01*
X190415D01*
Y101163D01*
X190309Y101058D01*
X116500Y62100D02*
Y62735D01*
X116817D01*
X116923Y62629D01*
Y62417D01*
X116817Y62312D01*
X116500D01*
X116712D02*
X116923Y62100D01*
X117135Y62735D02*
X117558D01*
Y62629D01*
X117135Y62206D01*
Y62100D01*
X118193Y62735D02*
X117770D01*
Y62417D01*
X117981Y62523D01*
X118087D01*
X118193Y62417D01*
Y62206D01*
X118087Y62100D01*
X117875D01*
X117770Y62206D01*
X85204Y69695D02*
X85839D01*
Y69378D01*
X85733Y69272D01*
X85522D01*
X85416Y69378D01*
Y69695D01*
Y69483D02*
X85204Y69272D01*
X85733Y69060D02*
X85839Y68954D01*
Y68743D01*
X85733Y68637D01*
X85628D01*
X85522Y68743D01*
X85416Y68637D01*
X85310D01*
X85204Y68743D01*
Y68954D01*
X85310Y69060D01*
X85416D01*
X85522Y68954D01*
X85628Y69060D01*
X85733D01*
X85522Y68954D02*
Y68743D01*
X85204Y68002D02*
Y68425D01*
X85628Y68002D01*
X85733D01*
X85839Y68108D01*
Y68320D01*
X85733Y68425D01*
X142300Y116600D02*
Y117235D01*
X142617D01*
X142723Y117129D01*
Y116917D01*
X142617Y116812D01*
X142300D01*
X142512D02*
X142723Y116600D01*
X142935Y117129D02*
X143041Y117235D01*
X143252D01*
X143358Y117129D01*
Y117023D01*
X143252Y116917D01*
X143358Y116812D01*
Y116706D01*
X143252Y116600D01*
X143041D01*
X142935Y116706D01*
Y116812D01*
X143041Y116917D01*
X142935Y117023D01*
Y117129D01*
X143041Y116917D02*
X143252D01*
X143887Y116600D02*
Y117235D01*
X143570Y116917D01*
X143993D01*
X136700Y112100D02*
Y112735D01*
X137017D01*
X137123Y112629D01*
Y112417D01*
X137017Y112312D01*
X136700D01*
X136912D02*
X137123Y112100D01*
X137335Y112629D02*
X137441Y112735D01*
X137652D01*
X137758Y112629D01*
Y112523D01*
X137652Y112417D01*
X137758Y112312D01*
Y112206D01*
X137652Y112100D01*
X137441D01*
X137335Y112206D01*
Y112312D01*
X137441Y112417D01*
X137335Y112523D01*
Y112629D01*
X137441Y112417D02*
X137652D01*
X138393Y112735D02*
X137970D01*
Y112417D01*
X138181Y112523D01*
X138287D01*
X138393Y112417D01*
Y112206D01*
X138287Y112100D01*
X138075D01*
X137970Y112206D01*
X145100Y111100D02*
Y111735D01*
X145417D01*
X145523Y111629D01*
Y111417D01*
X145417Y111312D01*
X145100D01*
X145312D02*
X145523Y111100D01*
X145735Y111629D02*
X145841Y111735D01*
X146052D01*
X146158Y111629D01*
Y111523D01*
X146052Y111417D01*
X146158Y111312D01*
Y111206D01*
X146052Y111100D01*
X145841D01*
X145735Y111206D01*
Y111312D01*
X145841Y111417D01*
X145735Y111523D01*
Y111629D01*
X145841Y111417D02*
X146052D01*
X146793Y111735D02*
X146581Y111629D01*
X146370Y111417D01*
Y111206D01*
X146475Y111100D01*
X146687D01*
X146793Y111206D01*
Y111312D01*
X146687Y111417D01*
X146370D01*
X142100Y108300D02*
Y108935D01*
X142417D01*
X142523Y108829D01*
Y108617D01*
X142417Y108512D01*
X142100D01*
X142312D02*
X142523Y108300D01*
X142735Y108829D02*
X142841Y108935D01*
X143052D01*
X143158Y108829D01*
Y108723D01*
X143052Y108617D01*
X143158Y108512D01*
Y108406D01*
X143052Y108300D01*
X142841D01*
X142735Y108406D01*
Y108512D01*
X142841Y108617D01*
X142735Y108723D01*
Y108829D01*
X142841Y108617D02*
X143052D01*
X143370Y108935D02*
X143793D01*
Y108829D01*
X143370Y108406D01*
Y108300D01*
X145100Y114000D02*
Y114635D01*
X145417D01*
X145523Y114529D01*
Y114317D01*
X145417Y114212D01*
X145100D01*
X145312D02*
X145523Y114000D01*
X145735Y114529D02*
X145841Y114635D01*
X146052D01*
X146158Y114529D01*
Y114423D01*
X146052Y114317D01*
X146158Y114212D01*
Y114106D01*
X146052Y114000D01*
X145841D01*
X145735Y114106D01*
Y114212D01*
X145841Y114317D01*
X145735Y114423D01*
Y114529D01*
X145841Y114317D02*
X146052D01*
X146370Y114529D02*
X146475Y114635D01*
X146687D01*
X146793Y114529D01*
Y114423D01*
X146687Y114317D01*
X146793Y114212D01*
Y114106D01*
X146687Y114000D01*
X146475D01*
X146370Y114106D01*
Y114212D01*
X146475Y114317D01*
X146370Y114423D01*
Y114529D01*
X146475Y114317D02*
X146687D01*
X136700Y113300D02*
Y113935D01*
X137017D01*
X137123Y113829D01*
Y113617D01*
X137017Y113512D01*
X136700D01*
X136912D02*
X137123Y113300D01*
X137335Y113829D02*
X137441Y113935D01*
X137652D01*
X137758Y113829D01*
Y113723D01*
X137652Y113617D01*
X137758Y113512D01*
Y113406D01*
X137652Y113300D01*
X137441D01*
X137335Y113406D01*
Y113512D01*
X137441Y113617D01*
X137335Y113723D01*
Y113829D01*
X137441Y113617D02*
X137652D01*
X137970Y113406D02*
X138075Y113300D01*
X138287D01*
X138393Y113406D01*
Y113829D01*
X138287Y113935D01*
X138075D01*
X137970Y113829D01*
Y113723D01*
X138075Y113617D01*
X138393D01*
X142900Y124600D02*
X142265D01*
Y124917D01*
X142371Y125023D01*
X142583D01*
X142688Y124917D01*
Y124600D01*
Y124812D02*
X142900Y125023D01*
X142794Y125235D02*
X142900Y125341D01*
Y125552D01*
X142794Y125658D01*
X142371D01*
X142265Y125552D01*
Y125341D01*
X142371Y125235D01*
X142477D01*
X142583Y125341D01*
Y125658D01*
X142371Y125870D02*
X142265Y125975D01*
Y126187D01*
X142371Y126293D01*
X142794D01*
X142900Y126187D01*
Y125975D01*
X142794Y125870D01*
X142371D01*
X136700Y120000D02*
Y120635D01*
X137017D01*
X137123Y120529D01*
Y120317D01*
X137017Y120212D01*
X136700D01*
X136912D02*
X137123Y120000D01*
X137335Y120106D02*
X137441Y120000D01*
X137652D01*
X137758Y120106D01*
Y120529D01*
X137652Y120635D01*
X137441D01*
X137335Y120529D01*
Y120423D01*
X137441Y120317D01*
X137758D01*
X137970Y120000D02*
X138181D01*
X138075D01*
Y120635D01*
X137970Y120529D01*
X145100Y119700D02*
Y120335D01*
X145417D01*
X145523Y120229D01*
Y120017D01*
X145417Y119912D01*
X145100D01*
X145312D02*
X145523Y119700D01*
X145735Y119806D02*
X145841Y119700D01*
X146052D01*
X146158Y119806D01*
Y120229D01*
X146052Y120335D01*
X145841D01*
X145735Y120229D01*
Y120123D01*
X145841Y120017D01*
X146158D01*
X146793Y119700D02*
X146370D01*
X146793Y120123D01*
Y120229D01*
X146687Y120335D01*
X146475D01*
X146370Y120229D01*
X139800Y118300D02*
Y118935D01*
X140117D01*
X140223Y118829D01*
Y118617D01*
X140117Y118512D01*
X139800D01*
X140012D02*
X140223Y118300D01*
X140435Y118406D02*
X140541Y118300D01*
X140752D01*
X140858Y118406D01*
Y118829D01*
X140752Y118935D01*
X140541D01*
X140435Y118829D01*
Y118723D01*
X140541Y118617D01*
X140858D01*
X141070Y118829D02*
X141175Y118935D01*
X141387D01*
X141493Y118829D01*
Y118723D01*
X141387Y118617D01*
X141281D01*
X141387D01*
X141493Y118512D01*
Y118406D01*
X141387Y118300D01*
X141175D01*
X141070Y118406D01*
X145100Y121300D02*
Y121935D01*
X145417D01*
X145523Y121829D01*
Y121617D01*
X145417Y121512D01*
X145100D01*
X145312D02*
X145523Y121300D01*
X145735Y121406D02*
X145841Y121300D01*
X146052D01*
X146158Y121406D01*
Y121829D01*
X146052Y121935D01*
X145841D01*
X145735Y121829D01*
Y121723D01*
X145841Y121617D01*
X146158D01*
X146687Y121300D02*
Y121935D01*
X146370Y121617D01*
X146793D01*
X136600Y121200D02*
Y121835D01*
X136917D01*
X137023Y121729D01*
Y121517D01*
X136917Y121412D01*
X136600D01*
X136812D02*
X137023Y121200D01*
X137235Y121306D02*
X137341Y121200D01*
X137552D01*
X137658Y121306D01*
Y121729D01*
X137552Y121835D01*
X137341D01*
X137235Y121729D01*
Y121623D01*
X137341Y121517D01*
X137658D01*
X138293Y121835D02*
X137870D01*
Y121517D01*
X138081Y121623D01*
X138187D01*
X138293Y121517D01*
Y121306D01*
X138187Y121200D01*
X137975D01*
X137870Y121306D01*
X113822Y47142D02*
X114457D01*
Y46825D01*
X114351Y46719D01*
X114140D01*
X114034Y46825D01*
Y47142D01*
Y46931D02*
X113822Y46719D01*
X114457Y46084D02*
X114351Y46296D01*
X114140Y46508D01*
X113928D01*
X113822Y46402D01*
Y46190D01*
X113928Y46084D01*
X114034D01*
X114140Y46190D01*
Y46508D01*
X114351Y45873D02*
X114457Y45767D01*
Y45555D01*
X114351Y45450D01*
X113928D01*
X113822Y45555D01*
Y45767D01*
X113928Y45873D01*
X114351D01*
X114400Y65900D02*
X115035D01*
Y65583D01*
X114929Y65477D01*
X114717D01*
X114612Y65583D01*
Y65900D01*
Y65688D02*
X114400Y65477D01*
X115035Y64842D02*
X114929Y65054D01*
X114717Y65265D01*
X114506D01*
X114400Y65159D01*
Y64948D01*
X114506Y64842D01*
X114612D01*
X114717Y64948D01*
Y65265D01*
X115035Y64207D02*
Y64630D01*
X114717D01*
X114823Y64419D01*
Y64313D01*
X114717Y64207D01*
X114506D01*
X114400Y64313D01*
Y64525D01*
X114506Y64630D01*
X119742Y47186D02*
X120377D01*
Y46869D01*
X120271Y46763D01*
X120059D01*
X119953Y46869D01*
Y47186D01*
Y46974D02*
X119742Y46763D01*
X120377Y46128D02*
X120271Y46340D01*
X120059Y46551D01*
X119848D01*
X119742Y46445D01*
Y46234D01*
X119848Y46128D01*
X119953D01*
X120059Y46234D01*
Y46551D01*
X120377Y45916D02*
Y45493D01*
X120271D01*
X119848Y45916D01*
X119742D01*
X119800Y64300D02*
X120435D01*
Y63983D01*
X120329Y63877D01*
X120117D01*
X120012Y63983D01*
Y64300D01*
Y64088D02*
X119800Y63877D01*
X120435Y63665D02*
Y63242D01*
X120329D01*
X119906Y63665D01*
X119800D01*
Y63030D02*
Y62819D01*
Y62925D01*
X120435D01*
X120329Y63030D01*
X80175Y72337D02*
X80810D01*
Y72019D01*
X80704Y71913D01*
X80493D01*
X80387Y72019D01*
Y72337D01*
Y72125D02*
X80175Y71913D01*
Y71384D02*
Y71596D01*
X80281Y71702D01*
X80493D01*
X80598Y71596D01*
Y71384D01*
X80493Y71279D01*
X80387D01*
Y71702D01*
X80175Y71067D02*
X80598D01*
Y70750D01*
X80493Y70644D01*
X80175D01*
Y70432D02*
Y70221D01*
Y70326D01*
X80810D01*
X80704Y70432D01*
X81115Y72311D02*
X81750D01*
Y71994D01*
X81644Y71888D01*
X81432D01*
X81327Y71994D01*
Y72311D01*
Y72100D02*
X81115Y71888D01*
Y71359D02*
Y71571D01*
X81221Y71676D01*
X81432D01*
X81538Y71571D01*
Y71359D01*
X81432Y71253D01*
X81327D01*
Y71676D01*
X81115Y71042D02*
X81538D01*
Y70724D01*
X81432Y70618D01*
X81115D01*
Y69984D02*
Y70407D01*
X81538Y69984D01*
X81644D01*
X81750Y70089D01*
Y70301D01*
X81644Y70407D01*
X117048Y44552D02*
Y43917D01*
X116731D01*
X116625Y44023D01*
Y44234D01*
X116731Y44340D01*
X117048D01*
X116836D02*
X116625Y44552D01*
X115990Y43917D02*
X116413D01*
Y44234D01*
X116202Y44128D01*
X116096D01*
X115990Y44234D01*
Y44446D01*
X116096Y44552D01*
X116307D01*
X116413Y44446D01*
X115778D02*
X115673Y44552D01*
X115461D01*
X115355Y44446D01*
Y44023D01*
X115461Y43917D01*
X115673D01*
X115778Y44023D01*
Y44128D01*
X115673Y44234D01*
X115355D01*
X115168Y44552D02*
Y43917D01*
X114851D01*
X114745Y44023D01*
Y44234D01*
X114851Y44340D01*
X115168D01*
X114957D02*
X114745Y44552D01*
X114110Y43917D02*
X114322Y44023D01*
X114534Y44234D01*
Y44446D01*
X114428Y44552D01*
X114216D01*
X114110Y44446D01*
Y44340D01*
X114216Y44234D01*
X114534D01*
X113899Y44552D02*
X113687D01*
X113793D01*
Y43917D01*
X113899Y44023D01*
X113400Y66300D02*
Y66935D01*
X113717D01*
X113823Y66829D01*
Y66617D01*
X113717Y66512D01*
X113400D01*
X113612D02*
X113823Y66300D01*
X114458Y66935D02*
X114246Y66829D01*
X114035Y66617D01*
Y66406D01*
X114141Y66300D01*
X114352D01*
X114458Y66406D01*
Y66512D01*
X114352Y66617D01*
X114035D01*
X115093Y66935D02*
X114881Y66829D01*
X114670Y66617D01*
Y66406D01*
X114775Y66300D01*
X114987D01*
X115093Y66406D01*
Y66512D01*
X114987Y66617D01*
X114670D01*
X115400Y66300D02*
Y66935D01*
X115717D01*
X115823Y66829D01*
Y66617D01*
X115717Y66512D01*
X115400D01*
X115612D02*
X115823Y66300D01*
X116458Y66935D02*
X116246Y66829D01*
X116035Y66617D01*
Y66406D01*
X116141Y66300D01*
X116352D01*
X116458Y66406D01*
Y66512D01*
X116352Y66617D01*
X116035D01*
X116670Y66829D02*
X116775Y66935D01*
X116987D01*
X117093Y66829D01*
Y66723D01*
X116987Y66617D01*
X117093Y66512D01*
Y66406D01*
X116987Y66300D01*
X116775D01*
X116670Y66406D01*
Y66512D01*
X116775Y66617D01*
X116670Y66723D01*
Y66829D01*
X116775Y66617D02*
X116987D01*
X120909Y44552D02*
Y43917D01*
X120591D01*
X120486Y44023D01*
Y44234D01*
X120591Y44340D01*
X120909D01*
X120697D02*
X120486Y44552D01*
X119851Y43917D02*
X120062Y44023D01*
X120274Y44234D01*
Y44446D01*
X120168Y44552D01*
X119957D01*
X119851Y44446D01*
Y44340D01*
X119957Y44234D01*
X120274D01*
X119639Y44446D02*
X119533Y44552D01*
X119322D01*
X119216Y44446D01*
Y44023D01*
X119322Y43917D01*
X119533D01*
X119639Y44023D01*
Y44128D01*
X119533Y44234D01*
X119216D01*
X118978Y44552D02*
Y43917D01*
X118661D01*
X118555Y44023D01*
Y44234D01*
X118661Y44340D01*
X118978D01*
X118767D02*
X118555Y44552D01*
X118344Y43917D02*
X117920D01*
Y44023D01*
X118344Y44446D01*
Y44552D01*
X117709Y44023D02*
X117603Y43917D01*
X117391D01*
X117286Y44023D01*
Y44446D01*
X117391Y44552D01*
X117603D01*
X117709Y44446D01*
Y44023D01*
X129477Y55397D02*
Y56032D01*
X129794D01*
X129900Y55926D01*
Y55715D01*
X129794Y55609D01*
X129477D01*
X129688D02*
X129900Y55397D01*
X130111Y56032D02*
X130535D01*
Y55926D01*
X130111Y55503D01*
Y55397D01*
X131169D02*
X130746D01*
X131169Y55821D01*
Y55926D01*
X131064Y56032D01*
X130852D01*
X130746Y55926D01*
X126400Y57000D02*
Y57635D01*
X126717D01*
X126823Y57529D01*
Y57317D01*
X126717Y57212D01*
X126400D01*
X126612D02*
X126823Y57000D01*
X127035Y57635D02*
X127458D01*
Y57529D01*
X127035Y57106D01*
Y57000D01*
X127670Y57529D02*
X127775Y57635D01*
X127987D01*
X128093Y57529D01*
Y57423D01*
X127987Y57317D01*
X127881D01*
X127987D01*
X128093Y57212D01*
Y57106D01*
X127987Y57000D01*
X127775D01*
X127670Y57106D01*
X88989Y74473D02*
Y75108D01*
X89306D01*
X89412Y75002D01*
Y74790D01*
X89306Y74684D01*
X88989D01*
X89201D02*
X89412Y74473D01*
X89730D02*
Y75002D01*
Y74790D01*
X89624D01*
X89835D01*
X89730D01*
Y75002D01*
X89835Y75108D01*
X90153Y74473D02*
X90364D01*
X90259D01*
Y75108D01*
X90153Y75002D01*
X87008Y72272D02*
X87643D01*
Y71955D01*
X87537Y71849D01*
X87325D01*
X87219Y71955D01*
Y72272D01*
Y72061D02*
X87008Y71849D01*
Y71532D02*
X87537D01*
X87325D01*
Y71638D01*
Y71426D01*
Y71532D01*
X87537D01*
X87643Y71426D01*
X87008Y70685D02*
Y71109D01*
X87431Y70685D01*
X87537D01*
X87643Y70791D01*
Y71003D01*
X87537Y71109D01*
X82258Y126416D02*
Y127051D01*
X82575D01*
X82681Y126945D01*
Y126733D01*
X82575Y126627D01*
X82258D01*
X82470D02*
X82681Y126416D01*
X82893D02*
X83104D01*
X82999D01*
Y126839D01*
X82893D01*
X83422Y126416D02*
Y126839D01*
X83739D01*
X83845Y126733D01*
Y126416D01*
X84057D02*
X84268D01*
X84162D01*
Y127051D01*
X84057Y126945D01*
X98900Y41800D02*
Y42435D01*
X99217D01*
X99323Y42329D01*
Y42117D01*
X99217Y42012D01*
X98900D01*
X99112D02*
X99323Y41800D01*
X99535D02*
X99746D01*
X99641D01*
Y42223D01*
X99535D01*
X100064Y41800D02*
Y42223D01*
X100381D01*
X100487Y42117D01*
Y41800D01*
X101122D02*
X100699D01*
X101122Y42223D01*
Y42329D01*
X101016Y42435D01*
X100804D01*
X100699Y42329D01*
X86400Y89300D02*
Y89935D01*
X86717D01*
X86823Y89829D01*
Y89617D01*
X86717Y89512D01*
X86400D01*
X86612D02*
X86823Y89300D01*
X87035D02*
X87246D01*
X87141D01*
Y89723D01*
X87035D01*
X87564Y89300D02*
Y89723D01*
X87881D01*
X87987Y89617D01*
Y89300D01*
X88199Y89829D02*
X88304Y89935D01*
X88516D01*
X88622Y89829D01*
Y89723D01*
X88516Y89617D01*
X88410D01*
X88516D01*
X88622Y89512D01*
Y89406D01*
X88516Y89300D01*
X88304D01*
X88199Y89406D01*
X104100Y54500D02*
Y55135D01*
X104417D01*
X104523Y55029D01*
Y54817D01*
X104417Y54712D01*
X104100D01*
X104312D02*
X104523Y54500D01*
X105158Y55135D02*
X104946Y55029D01*
X104735Y54817D01*
Y54606D01*
X104841Y54500D01*
X105052D01*
X105158Y54606D01*
Y54712D01*
X105052Y54817D01*
X104735D01*
X105370Y55029D02*
X105475Y55135D01*
X105687D01*
X105793Y55029D01*
Y54923D01*
X105687Y54817D01*
X105581D01*
X105687D01*
X105793Y54712D01*
Y54606D01*
X105687Y54500D01*
X105475D01*
X105370Y54606D01*
X104100Y56700D02*
Y57335D01*
X104417D01*
X104523Y57229D01*
Y57017D01*
X104417Y56912D01*
X104100D01*
X104312D02*
X104523Y56700D01*
X105158Y57335D02*
X104946Y57229D01*
X104735Y57017D01*
Y56806D01*
X104841Y56700D01*
X105052D01*
X105158Y56806D01*
Y56912D01*
X105052Y57017D01*
X104735D01*
X105687Y56700D02*
Y57335D01*
X105370Y57017D01*
X105793D01*
X83299Y125298D02*
Y125933D01*
X83617D01*
X83723Y125827D01*
Y125616D01*
X83617Y125510D01*
X83299D01*
X83511D02*
X83723Y125298D01*
X84040D02*
X84252D01*
X84357Y125404D01*
Y125616D01*
X84252Y125721D01*
X84040D01*
X83934Y125616D01*
Y125404D01*
X84040Y125298D01*
X84569Y125721D02*
Y125404D01*
X84675Y125298D01*
X84992D01*
Y125721D01*
X85310Y125827D02*
Y125721D01*
X85204D01*
X85415D01*
X85310D01*
Y125404D01*
X85415Y125298D01*
X85733D02*
X85944D01*
X85839D01*
Y125933D01*
X85733Y125827D01*
X97100Y38900D02*
Y39535D01*
X97417D01*
X97523Y39429D01*
Y39217D01*
X97417Y39112D01*
X97100D01*
X97312D02*
X97523Y38900D01*
X97841D02*
X98052D01*
X98158Y39006D01*
Y39217D01*
X98052Y39323D01*
X97841D01*
X97735Y39217D01*
Y39006D01*
X97841Y38900D01*
X98370Y39323D02*
Y39006D01*
X98475Y38900D01*
X98793D01*
Y39323D01*
X99110Y39429D02*
Y39323D01*
X99004D01*
X99216D01*
X99110D01*
Y39006D01*
X99216Y38900D01*
X99957D02*
X99533D01*
X99957Y39323D01*
Y39429D01*
X99851Y39535D01*
X99639D01*
X99533Y39429D01*
X85700Y91700D02*
Y92335D01*
X86017D01*
X86123Y92229D01*
Y92017D01*
X86017Y91912D01*
X85700D01*
X85912D02*
X86123Y91700D01*
X86441D02*
X86652D01*
X86758Y91806D01*
Y92017D01*
X86652Y92123D01*
X86441D01*
X86335Y92017D01*
Y91806D01*
X86441Y91700D01*
X86970Y92123D02*
Y91806D01*
X87075Y91700D01*
X87393D01*
Y92123D01*
X87710Y92229D02*
Y92123D01*
X87604D01*
X87816D01*
X87710D01*
Y91806D01*
X87816Y91700D01*
X88133Y92229D02*
X88239Y92335D01*
X88451D01*
X88557Y92229D01*
Y92123D01*
X88451Y92017D01*
X88345D01*
X88451D01*
X88557Y91912D01*
Y91806D01*
X88451Y91700D01*
X88239D01*
X88133Y91806D01*
X115905Y47523D02*
X116540D01*
Y47206D01*
X116434Y47100D01*
X116222D01*
X116117Y47206D01*
Y47523D01*
Y47312D02*
X115905Y47100D01*
X116540Y46889D02*
Y46465D01*
X116434D01*
X116011Y46889D01*
X115905D01*
Y45936D02*
X116540D01*
X116222Y46254D01*
Y45831D01*
X83200Y71300D02*
X83835D01*
Y70983D01*
X83729Y70877D01*
X83517D01*
X83412Y70983D01*
Y71300D01*
Y71088D02*
X83200Y70877D01*
X83729Y70559D02*
X83623D01*
Y70665D01*
Y70454D01*
Y70559D01*
X83306D01*
X83200Y70454D01*
Y70136D02*
Y69925D01*
Y70030D01*
X83835D01*
X83729Y70136D01*
X180725Y102459D02*
X180619Y102565D01*
X180408D01*
X180302Y102459D01*
Y102353D01*
X180408Y102248D01*
X180619D01*
X180725Y102142D01*
Y102036D01*
X180619Y101930D01*
X180408D01*
X180302Y102036D01*
X180937Y101930D02*
X181148D01*
X181043D01*
Y102565D01*
X180937Y102459D01*
X94123Y121629D02*
X94017Y121735D01*
X93806D01*
X93700Y121629D01*
Y121523D01*
X93806Y121417D01*
X94017D01*
X94123Y121312D01*
Y121206D01*
X94017Y121100D01*
X93806D01*
X93700Y121206D01*
X94335Y121735D02*
Y121100D01*
X94546Y121312D01*
X94758Y121100D01*
Y121735D01*
X94970Y121100D02*
X95181D01*
X95075D01*
Y121735D01*
X94970Y121629D01*
X138976Y93523D02*
Y92994D01*
X139082Y92888D01*
X139294D01*
X139399Y92994D01*
Y93523D01*
X140034Y92888D02*
X139611D01*
X140034Y93311D01*
Y93417D01*
X139928Y93523D01*
X139717D01*
X139611Y93417D01*
X168300Y73935D02*
Y73406D01*
X168406Y73300D01*
X168617D01*
X168723Y73406D01*
Y73935D01*
X169252Y73300D02*
Y73935D01*
X168935Y73617D01*
X169358D01*
X121272Y52908D02*
Y52379D01*
X121378Y52273D01*
X121590D01*
X121696Y52379D01*
Y52908D01*
X121907Y52802D02*
X122013Y52908D01*
X122225D01*
X122330Y52802D01*
Y52696D01*
X122225Y52591D01*
X122330Y52485D01*
Y52379D01*
X122225Y52273D01*
X122013D01*
X121907Y52379D01*
Y52485D01*
X122013Y52591D01*
X121907Y52696D01*
Y52802D01*
X122013Y52591D02*
X122225D01*
X81800Y82235D02*
Y81706D01*
X81906Y81600D01*
X82117D01*
X82223Y81706D01*
Y82235D01*
X82435Y81600D02*
X82646D01*
X82541D01*
Y82235D01*
X82435Y82129D01*
X82964D02*
X83070Y82235D01*
X83281D01*
X83387Y82129D01*
Y82023D01*
X83281Y81917D01*
X83175D01*
X83281D01*
X83387Y81812D01*
Y81706D01*
X83281Y81600D01*
X83070D01*
X82964Y81706D01*
X99619Y61629D02*
X99725Y61735D01*
Y61946D01*
X99619Y62052D01*
X99196D01*
X99090Y61946D01*
Y61735D01*
X99196Y61629D01*
X99619Y61417D02*
X99725Y61312D01*
Y61100D01*
X99619Y60994D01*
X99513D01*
X99408Y61100D01*
X99302Y60994D01*
X99196D01*
X99090Y61100D01*
Y61312D01*
X99196Y61417D01*
X99302D01*
X99408Y61312D01*
X99513Y61417D01*
X99619D01*
X99408Y61312D02*
Y61100D01*
X99196Y60783D02*
X99090Y60677D01*
Y60465D01*
X99196Y60359D01*
X99619D01*
X99725Y60465D01*
Y60677D01*
X99619Y60783D01*
X99513D01*
X99408Y60677D01*
Y60359D01*
X77900Y122600D02*
X77265D01*
Y122917D01*
X77371Y123023D01*
X77583D01*
X77688Y122917D01*
Y122600D01*
Y122812D02*
X77900Y123023D01*
X77265Y123658D02*
Y123235D01*
X77583D01*
X77477Y123446D01*
Y123552D01*
X77583Y123658D01*
X77794D01*
X77900Y123552D01*
Y123341D01*
X77794Y123235D01*
X77265Y124293D02*
Y123870D01*
X77583D01*
X77477Y124081D01*
Y124187D01*
X77583Y124293D01*
X77794D01*
X77900Y124187D01*
Y123975D01*
X77794Y123870D01*
X95000Y45900D02*
Y46535D01*
X95317D01*
X95423Y46429D01*
Y46217D01*
X95317Y46112D01*
X95000D01*
X95212D02*
X95423Y45900D01*
X96058Y46535D02*
X95846Y46429D01*
X95635Y46217D01*
Y46006D01*
X95741Y45900D01*
X95952D01*
X96058Y46006D01*
Y46112D01*
X95952Y46217D01*
X95635D01*
X96693Y45900D02*
X96270D01*
X96693Y46323D01*
Y46429D01*
X96587Y46535D01*
X96375D01*
X96270Y46429D01*
X85400Y122335D02*
Y121806D01*
X85506Y121700D01*
X85717D01*
X85823Y121806D01*
Y122335D01*
X86035Y121806D02*
X86141Y121700D01*
X86352D01*
X86458Y121806D01*
Y122229D01*
X86352Y122335D01*
X86141D01*
X86035Y122229D01*
Y122123D01*
X86141Y122017D01*
X86458D01*
X90700Y42635D02*
Y42106D01*
X90806Y42000D01*
X91017D01*
X91123Y42106D01*
Y42635D01*
X91335Y42000D02*
X91546D01*
X91441D01*
Y42635D01*
X91335Y42529D01*
X91864D02*
X91970Y42635D01*
X92181D01*
X92287Y42529D01*
Y42106D01*
X92181Y42000D01*
X91970D01*
X91864Y42106D01*
Y42529D01*
X94500Y92735D02*
Y92206D01*
X94606Y92100D01*
X94817D01*
X94923Y92206D01*
Y92735D01*
X95135Y92100D02*
X95346D01*
X95241D01*
Y92735D01*
X95135Y92629D01*
X96087Y92100D02*
X95664D01*
X96087Y92523D01*
Y92629D01*
X95981Y92735D01*
X95770D01*
X95664Y92629D01*
X72750Y131064D02*
X72538D01*
X72644D01*
Y130535D01*
X72538Y130429D01*
X72432D01*
X72327Y130535D01*
X73385Y130429D02*
X72961D01*
X73385Y130852D01*
Y130958D01*
X73279Y131064D01*
X73067D01*
X72961Y130958D01*
X93400Y84400D02*
Y85035D01*
X93717D01*
X93823Y84929D01*
Y84717D01*
X93717Y84612D01*
X93400D01*
X93612D02*
X93823Y84400D01*
X94035Y85035D02*
X94458D01*
Y84929D01*
X94035Y84506D01*
Y84400D01*
X94670Y84506D02*
X94775Y84400D01*
X94987D01*
X95093Y84506D01*
Y84929D01*
X94987Y85035D01*
X94775D01*
X94670Y84929D01*
Y84823D01*
X94775Y84717D01*
X95093D01*
X156532Y137129D02*
X157167D01*
Y137446D01*
X157061Y137552D01*
X156638D01*
X156532Y137446D01*
Y137129D01*
X157167Y138081D02*
X156532D01*
X156850Y137764D01*
Y138187D01*
X155132Y137129D02*
X155767D01*
Y137446D01*
X155661Y137552D01*
X155238D01*
X155132Y137446D01*
Y137129D01*
Y138187D02*
Y137764D01*
X155450D01*
X155344Y137975D01*
Y138081D01*
X155450Y138187D01*
X155661D01*
X155767Y138081D01*
Y137870D01*
X155661Y137764D01*
X85100Y48635D02*
Y48000D01*
X85417D01*
X85523Y48106D01*
Y48529D01*
X85417Y48635D01*
X85100D01*
X86158D02*
X85946Y48529D01*
X85735Y48317D01*
Y48106D01*
X85841Y48000D01*
X86052D01*
X86158Y48106D01*
Y48212D01*
X86052Y48317D01*
X85735D01*
X89500Y48635D02*
Y48000D01*
X89817D01*
X89923Y48106D01*
Y48529D01*
X89817Y48635D01*
X89500D01*
X90135D02*
X90558D01*
Y48529D01*
X90135Y48106D01*
Y48000D01*
X221123Y55735D02*
X220912D01*
X221017D01*
Y55206D01*
X220912Y55100D01*
X220806D01*
X220700Y55206D01*
X221335Y55100D02*
X221546D01*
X221441D01*
Y55735D01*
X221335Y55629D01*
X178295Y138430D02*
Y139065D01*
X178613D01*
X178719Y138959D01*
Y138747D01*
X178613Y138642D01*
X178295D01*
X178930Y138959D02*
X179036Y139065D01*
X179248D01*
X179353Y138959D01*
Y138853D01*
X179248Y138747D01*
X179142D01*
X179248D01*
X179353Y138642D01*
Y138536D01*
X179248Y138430D01*
X179036D01*
X178930Y138536D01*
X201613Y138303D02*
Y138938D01*
X201930D01*
X202036Y138832D01*
Y138620D01*
X201930Y138515D01*
X201613D01*
X202565Y138303D02*
Y138938D01*
X202247Y138620D01*
X202671D01*
X182432Y123241D02*
X181797D01*
Y123558D01*
X181903Y123664D01*
X182115D01*
X182220Y123558D01*
Y123241D01*
Y123452D02*
X182432Y123664D01*
X181903Y123876D02*
X181797Y123981D01*
Y124193D01*
X181903Y124299D01*
X182009D01*
X182115Y124193D01*
X182220Y124299D01*
X182326D01*
X182432Y124193D01*
Y123981D01*
X182326Y123876D01*
X182220D01*
X182115Y123981D01*
X182009Y123876D01*
X181903D01*
X182115Y123981D02*
Y124193D01*
X181903Y124510D02*
X181797Y124616D01*
Y124828D01*
X181903Y124934D01*
X182326D01*
X182432Y124828D01*
Y124616D01*
X182326Y124510D01*
X181903D01*
X180683Y123241D02*
X180048D01*
Y123558D01*
X180154Y123664D01*
X180366D01*
X180471Y123558D01*
Y123241D01*
Y123452D02*
X180683Y123664D01*
X180577Y123876D02*
X180683Y123981D01*
Y124193D01*
X180577Y124299D01*
X180154D01*
X180048Y124193D01*
Y123981D01*
X180154Y123876D01*
X180260D01*
X180366Y123981D01*
Y124299D01*
X180048Y124510D02*
Y124934D01*
X180154D01*
X180577Y124510D01*
X180683D01*
X183306Y123241D02*
X182672D01*
Y123558D01*
X182777Y123664D01*
X182989D01*
X183095Y123558D01*
Y123241D01*
Y123452D02*
X183306Y123664D01*
X183201Y123876D02*
X183306Y123981D01*
Y124193D01*
X183201Y124299D01*
X182777D01*
X182672Y124193D01*
Y123981D01*
X182777Y123876D01*
X182883D01*
X182989Y123981D01*
Y124299D01*
X182777Y124510D02*
X182672Y124616D01*
Y124828D01*
X182777Y124934D01*
X182883D01*
X182989Y124828D01*
X183095Y124934D01*
X183201D01*
X183306Y124828D01*
Y124616D01*
X183201Y124510D01*
X183095D01*
X182989Y124616D01*
X182883Y124510D01*
X182777D01*
X182989Y124616D02*
Y124828D01*
X181557Y123241D02*
X180923D01*
Y123558D01*
X181028Y123664D01*
X181240D01*
X181346Y123558D01*
Y123241D01*
Y123452D02*
X181557Y123664D01*
X181452Y123876D02*
X181557Y123981D01*
Y124193D01*
X181452Y124299D01*
X181028D01*
X180923Y124193D01*
Y123981D01*
X181028Y123876D01*
X181134D01*
X181240Y123981D01*
Y124299D01*
X181452Y124510D02*
X181557Y124616D01*
Y124828D01*
X181452Y124934D01*
X181028D01*
X180923Y124828D01*
Y124616D01*
X181028Y124510D01*
X181134D01*
X181240Y124616D01*
Y124934D01*
X185930Y122976D02*
X185295D01*
Y123294D01*
X185401Y123399D01*
X185613D01*
X185718Y123294D01*
Y122976D01*
Y123188D02*
X185930Y123399D01*
Y123611D02*
Y123823D01*
Y123717D01*
X185295D01*
X185401Y123611D01*
Y124140D02*
X185295Y124246D01*
Y124457D01*
X185401Y124563D01*
X185824D01*
X185930Y124457D01*
Y124246D01*
X185824Y124140D01*
X185401D01*
Y124775D02*
X185295Y124881D01*
Y125092D01*
X185401Y125198D01*
X185824D01*
X185930Y125092D01*
Y124881D01*
X185824Y124775D01*
X185401D01*
X184181Y123082D02*
X183546D01*
Y123399D01*
X183652Y123505D01*
X183864D01*
X183969Y123399D01*
Y123082D01*
Y123294D02*
X184181Y123505D01*
Y123717D02*
Y123928D01*
Y123823D01*
X183546D01*
X183652Y123717D01*
Y124246D02*
X183546Y124352D01*
Y124563D01*
X183652Y124669D01*
X184075D01*
X184181Y124563D01*
Y124352D01*
X184075Y124246D01*
X183652D01*
X184181Y124881D02*
Y125092D01*
Y124986D01*
X183546D01*
X183652Y124881D01*
X186804Y122976D02*
X186170D01*
Y123294D01*
X186275Y123399D01*
X186487D01*
X186593Y123294D01*
Y122976D01*
Y123188D02*
X186804Y123399D01*
Y123611D02*
Y123823D01*
Y123717D01*
X186170D01*
X186275Y123611D01*
Y124140D02*
X186170Y124246D01*
Y124457D01*
X186275Y124563D01*
X186699D01*
X186804Y124457D01*
Y124246D01*
X186699Y124140D01*
X186275D01*
X186804Y125198D02*
Y124775D01*
X186381Y125198D01*
X186275D01*
X186170Y125092D01*
Y124881D01*
X186275Y124775D01*
X185055Y122976D02*
X184421D01*
Y123294D01*
X184526Y123399D01*
X184738D01*
X184844Y123294D01*
Y122976D01*
Y123188D02*
X185055Y123399D01*
Y123611D02*
Y123823D01*
Y123717D01*
X184421D01*
X184526Y123611D01*
Y124140D02*
X184421Y124246D01*
Y124457D01*
X184526Y124563D01*
X184950D01*
X185055Y124457D01*
Y124246D01*
X184950Y124140D01*
X184526D01*
Y124775D02*
X184421Y124881D01*
Y125092D01*
X184526Y125198D01*
X184632D01*
X184738Y125092D01*
Y124986D01*
Y125092D01*
X184844Y125198D01*
X184950D01*
X185055Y125092D01*
Y124881D01*
X184950Y124775D01*
X204958Y122606D02*
X204323D01*
Y122923D01*
X204429Y123029D01*
X204641D01*
X204747Y122923D01*
Y122606D01*
Y122817D02*
X204958Y123029D01*
Y123241D02*
Y123452D01*
Y123346D01*
X204323D01*
X204429Y123241D01*
Y123770D02*
X204323Y123875D01*
Y124087D01*
X204429Y124193D01*
X204852D01*
X204958Y124087D01*
Y123875D01*
X204852Y123770D01*
X204429D01*
X204958Y124722D02*
X204323D01*
X204641Y124404D01*
Y124828D01*
X203086Y122606D02*
X202451D01*
Y122923D01*
X202557Y123029D01*
X202768D01*
X202874Y122923D01*
Y122606D01*
Y122817D02*
X203086Y123029D01*
Y123241D02*
Y123452D01*
Y123346D01*
X202451D01*
X202557Y123241D01*
Y123770D02*
X202451Y123875D01*
Y124087D01*
X202557Y124193D01*
X202980D01*
X203086Y124087D01*
Y123875D01*
X202980Y123770D01*
X202557D01*
X202451Y124828D02*
Y124404D01*
X202768D01*
X202663Y124616D01*
Y124722D01*
X202768Y124828D01*
X202980D01*
X203086Y124722D01*
Y124510D01*
X202980Y124404D01*
X205894Y122606D02*
X205260D01*
Y122923D01*
X205365Y123029D01*
X205577D01*
X205683Y122923D01*
Y122606D01*
Y122817D02*
X205894Y123029D01*
Y123241D02*
Y123452D01*
Y123346D01*
X205260D01*
X205365Y123241D01*
Y123770D02*
X205260Y123875D01*
Y124087D01*
X205365Y124193D01*
X205789D01*
X205894Y124087D01*
Y123875D01*
X205789Y123770D01*
X205365D01*
X205260Y124828D02*
X205365Y124616D01*
X205577Y124404D01*
X205789D01*
X205894Y124510D01*
Y124722D01*
X205789Y124828D01*
X205683D01*
X205577Y124722D01*
Y124404D01*
X204022Y122606D02*
X203387D01*
Y122923D01*
X203493Y123029D01*
X203705D01*
X203810Y122923D01*
Y122606D01*
Y122817D02*
X204022Y123029D01*
Y123241D02*
Y123452D01*
Y123346D01*
X203387D01*
X203493Y123241D01*
Y123770D02*
X203387Y123875D01*
Y124087D01*
X203493Y124193D01*
X203916D01*
X204022Y124087D01*
Y123875D01*
X203916Y123770D01*
X203493D01*
X203387Y124404D02*
Y124828D01*
X203493D01*
X203916Y124404D01*
X204022D01*
X208703Y122606D02*
X208068D01*
Y122923D01*
X208174Y123029D01*
X208385D01*
X208491Y122923D01*
Y122606D01*
Y122817D02*
X208703Y123029D01*
Y123241D02*
Y123452D01*
Y123346D01*
X208068D01*
X208174Y123241D01*
Y123770D02*
X208068Y123875D01*
Y124087D01*
X208174Y124193D01*
X208597D01*
X208703Y124087D01*
Y123875D01*
X208597Y123770D01*
X208174D01*
Y124404D02*
X208068Y124510D01*
Y124722D01*
X208174Y124828D01*
X208280D01*
X208385Y124722D01*
X208491Y124828D01*
X208597D01*
X208703Y124722D01*
Y124510D01*
X208597Y124404D01*
X208491D01*
X208385Y124510D01*
X208280Y124404D01*
X208174D01*
X208385Y124510D02*
Y124722D01*
X206830Y122606D02*
X206196D01*
Y122923D01*
X206301Y123029D01*
X206513D01*
X206619Y122923D01*
Y122606D01*
Y122817D02*
X206830Y123029D01*
Y123241D02*
Y123452D01*
Y123346D01*
X206196D01*
X206301Y123241D01*
Y123770D02*
X206196Y123875D01*
Y124087D01*
X206301Y124193D01*
X206725D01*
X206830Y124087D01*
Y123875D01*
X206725Y123770D01*
X206301D01*
X206725Y124404D02*
X206830Y124510D01*
Y124722D01*
X206725Y124828D01*
X206301D01*
X206196Y124722D01*
Y124510D01*
X206301Y124404D01*
X206407D01*
X206513Y124510D01*
Y124828D01*
X209639Y122659D02*
X209004D01*
Y122976D01*
X209110Y123082D01*
X209322D01*
X209427Y122976D01*
Y122659D01*
Y122870D02*
X209639Y123082D01*
Y123293D02*
Y123505D01*
Y123399D01*
X209004D01*
X209110Y123293D01*
X209639Y123822D02*
Y124034D01*
Y123928D01*
X209004D01*
X209110Y123822D01*
Y124351D02*
X209004Y124457D01*
Y124669D01*
X209110Y124775D01*
X209533D01*
X209639Y124669D01*
Y124457D01*
X209533Y124351D01*
X209110D01*
X207767Y122765D02*
X207132D01*
Y123082D01*
X207238Y123188D01*
X207449D01*
X207555Y123082D01*
Y122765D01*
Y122976D02*
X207767Y123188D01*
Y123399D02*
Y123611D01*
Y123505D01*
X207132D01*
X207238Y123399D01*
X207767Y123928D02*
Y124140D01*
Y124034D01*
X207132D01*
X207238Y123928D01*
X207767Y124457D02*
Y124669D01*
Y124563D01*
X207132D01*
X207238Y124457D01*
X158915Y126619D02*
Y127254D01*
X159233D01*
X159338Y127148D01*
Y126936D01*
X159233Y126831D01*
X158915D01*
X159973Y127254D02*
X159550D01*
Y126936D01*
X159762Y127042D01*
X159867D01*
X159973Y126936D01*
Y126725D01*
X159867Y126619D01*
X159656D01*
X159550Y126725D01*
X72784Y124003D02*
Y124638D01*
X73101D01*
X73207Y124532D01*
Y124320D01*
X73101Y124214D01*
X72784D01*
X73842Y124638D02*
X73630Y124532D01*
X73419Y124320D01*
Y124109D01*
X73524Y124003D01*
X73736D01*
X73842Y124109D01*
Y124214D01*
X73736Y124320D01*
X73419D01*
X98354Y62408D02*
Y62069D01*
X98523Y62239D02*
X98184D01*
X165900Y122834D02*
X166323D01*
X166112D01*
Y122199D01*
X166535Y122834D02*
Y122199D01*
X166852D01*
X166958Y122305D01*
Y122728D01*
X166852Y122834D01*
X166535D01*
X167170D02*
X167381D01*
X167276D01*
Y122199D01*
X167170D01*
X167381D01*
X165900Y117627D02*
X166323D01*
X166112D01*
Y116992D01*
X166535Y117627D02*
Y116992D01*
X166852D01*
X166958Y117098D01*
Y117521D01*
X166852Y117627D01*
X166535D01*
X167487D02*
X167275D01*
X167170Y117521D01*
Y117098D01*
X167275Y116992D01*
X167487D01*
X167593Y117098D01*
Y117521D01*
X167487Y117627D01*
X165900Y115087D02*
X166323D01*
X166112D01*
Y114452D01*
X166958Y114981D02*
X166852Y115087D01*
X166641D01*
X166535Y114981D01*
Y114558D01*
X166641Y114452D01*
X166852D01*
X166958Y114558D01*
X167170Y115087D02*
Y114452D01*
Y114664D01*
X167593Y115087D01*
X167275Y114770D01*
X167593Y114452D01*
X165900Y112573D02*
X166323D01*
X166112D01*
Y111938D01*
X166535D02*
Y112573D01*
X166746Y112361D01*
X166958Y112573D01*
Y111938D01*
X167593Y112467D02*
X167487Y112573D01*
X167275D01*
X167170Y112467D01*
Y112361D01*
X167275Y112255D01*
X167487D01*
X167593Y112149D01*
Y112044D01*
X167487Y111938D01*
X167275D01*
X167170Y112044D01*
X158382Y120087D02*
X158488Y120193D01*
X158699D01*
X158805Y120087D01*
Y119981D01*
X158699Y119875D01*
X158593D01*
X158699D01*
X158805Y119769D01*
Y119664D01*
X158699Y119558D01*
X158488D01*
X158382Y119664D01*
X159017Y120193D02*
Y119769D01*
X159228Y119558D01*
X159440Y119769D01*
Y120193D01*
X159651Y120087D02*
X159757Y120193D01*
X159969D01*
X160075Y120087D01*
Y119981D01*
X159969Y119875D01*
X159863D01*
X159969D01*
X160075Y119769D01*
Y119664D01*
X159969Y119558D01*
X159757D01*
X159651Y119664D01*
X158678Y125167D02*
X158572Y125273D01*
X158361D01*
X158255Y125167D01*
Y124744D01*
X158361Y124638D01*
X158572D01*
X158678Y124744D01*
Y124955D01*
X158466D01*
X158890Y124638D02*
Y125273D01*
X159313Y124638D01*
Y125273D01*
X159524D02*
Y124638D01*
X159842D01*
X159948Y124744D01*
Y125167D01*
X159842Y125273D01*
X159524D01*
X166247Y125167D02*
X166141Y125273D01*
X165930D01*
X165824Y125167D01*
Y124744D01*
X165930Y124638D01*
X166141D01*
X166247Y124744D01*
Y124955D01*
X166036D01*
X166459Y124638D02*
Y125273D01*
X166882Y124638D01*
Y125273D01*
X167094D02*
Y124638D01*
X167411D01*
X167517Y124744D01*
Y125167D01*
X167411Y125273D01*
X167094D01*
D144*
X113716Y52286D02*
Y52553D01*
Y59286D02*
X113984D01*
X120449Y52286D02*
X120716D01*
X120449Y59286D02*
X120716D01*
X113716Y59018D02*
Y59286D01*
Y52286D02*
X113984D01*
X120716D02*
Y52553D01*
Y59018D02*
Y59286D01*
X80818Y75722D02*
Y76064D01*
Y79822D02*
X81160D01*
X84575Y75722D02*
X84918D01*
X84575Y79822D02*
X84918D01*
X80818Y79480D02*
Y79822D01*
Y75722D02*
X81160D01*
X84918D02*
Y76064D01*
Y79480D02*
Y79822D01*
D145*
X121941Y51172D02*
X121094Y52018D01*
X121941D02*
X121094Y51172D01*
X121941Y51595D02*
X121094D01*
X121518Y52018D02*
Y51172D01*
X84874Y74431D02*
X84028Y75277D01*
X84874D02*
X84028Y74431D01*
X84874Y74854D02*
X84028D01*
X84451Y75277D02*
Y74431D01*
%TF.MD5,18d4f2970bce0ac80453884bcbbd377e*%
M02*
