G04 Layer_Color=255*
%FSLAX45Y45*%
%MOMM*%
%TF.FileFunction,Pads,Bot*%
%TF.Part,Single*%
G01*
G75*
%TA.AperFunction,SMDPad,CuDef*%
%ADD14R,1.00000X0.60000*%
%ADD15R,0.60000X1.00000*%
%ADD16R,0.42000X0.60000*%
%ADD17O,0.42000X0.60000*%
%ADD18R,0.60000X0.55000*%
%ADD20R,0.55000X0.60000*%
%ADD23R,0.70000X1.30000*%
%ADD29R,1.30000X0.70000*%
%ADD30R,1.70000X0.90000*%
%ADD38R,2.60000X0.90000*%
%TA.AperFunction,ComponentPad*%
%ADD75C,1.00000*%
%ADD76C,1.30000*%
G04:AMPARAMS|DCode=77|XSize=1.3mm|YSize=1.3mm|CornerRadius=0mm|HoleSize=0mm|Usage=FLASHONLY|Rotation=180.000|XOffset=0mm|YOffset=0mm|HoleType=Round|Shape=Octagon|*
%AMOCTAGOND77*
4,1,8,-0.65000,0.32500,-0.65000,-0.32500,-0.32500,-0.65000,0.32500,-0.65000,0.65000,-0.32500,0.65000,0.32500,0.32500,0.65000,-0.32500,0.65000,-0.65000,0.32500,0.0*
%
%ADD77OCTAGOND77*%

%ADD78C,1.50000*%
%ADD79C,1.50000*%
%TA.AperFunction,SMDPad,CuDef*%
%ADD80O,2.00000X4.00000*%
%ADD81O,4.00000X2.00000*%
%ADD82O,4.50000X2.00000*%
%TA.AperFunction,ComponentPad*%
%ADD83R,1.50000X1.50000*%
%ADD84R,1.50000X1.50000*%
%ADD85C,2.70000*%
%ADD86C,1.52400*%
%ADD87C,1.55000*%
%ADD88C,0.95000*%
%ADD89R,2.00000X2.00000*%
%TA.AperFunction,SMDPad,CuDef*%
%ADD112R,0.45000X0.34290*%
%ADD113R,0.91000X1.22000*%
%ADD114R,0.95000X0.60000*%
%ADD115R,1.10000X1.70000*%
%ADD116R,2.00000X0.80000*%
%ADD117R,2.00000X0.60000*%
%ADD118O,2.00000X0.60000*%
%ADD119R,0.90000X1.00000*%
%ADD120R,0.50000X1.00000*%
%ADD121O,0.95000X0.30000*%
%ADD122O,0.30000X0.95000*%
%ADD123R,2.10000X2.10000*%
D14*
X13391760Y8169980D02*
D03*
Y8019980D02*
D03*
X11974441Y7738040D02*
D03*
Y7888040D02*
D03*
X13380000Y8655000D02*
D03*
Y8805000D02*
D03*
X7324560Y4512380D02*
D03*
Y4362380D02*
D03*
X9514840Y10039420D02*
D03*
Y9889420D02*
D03*
X8989060Y9889420D02*
D03*
Y10039420D02*
D03*
X10574020Y6521520D02*
D03*
Y6371520D02*
D03*
X11140440Y6518980D02*
D03*
Y6368980D02*
D03*
X9690100Y6241980D02*
D03*
Y6391980D02*
D03*
X10304780Y6241980D02*
D03*
Y6391980D02*
D03*
D15*
X10712520Y6189980D02*
D03*
X10562520D02*
D03*
X10562520Y6062980D02*
D03*
X10712520D02*
D03*
X13405000Y8420000D02*
D03*
X13555000D02*
D03*
X10169120Y9631680D02*
D03*
X10319120D02*
D03*
X9935280Y10005060D02*
D03*
X9785280D02*
D03*
X10514040Y10075660D02*
D03*
X10664040D02*
D03*
D16*
X13195300Y11002780D02*
D03*
X13133299D02*
D03*
X13071300D02*
D03*
X13133299Y10812780D02*
D03*
X13071300D02*
D03*
D17*
X13195300D02*
D03*
D18*
X4017760Y5128260D02*
D03*
X3930060D02*
D03*
X9194280Y9403080D02*
D03*
X9106580D02*
D03*
X8775020Y11617960D02*
D03*
X8690020D02*
D03*
X4902500Y10909381D02*
D03*
X4987500D02*
D03*
X4892720Y11633201D02*
D03*
X4977720D02*
D03*
X4882560Y12044681D02*
D03*
X4967560D02*
D03*
X8759780Y12049760D02*
D03*
X8674780D02*
D03*
X8787720Y10924539D02*
D03*
X8702720D02*
D03*
X8787720Y10515599D02*
D03*
X8702720D02*
D03*
X4907580Y10495361D02*
D03*
X4992580D02*
D03*
X11307400Y10106660D02*
D03*
X11222400D02*
D03*
X10932500Y8590000D02*
D03*
X10847500D02*
D03*
X10632500Y8610000D02*
D03*
X10547500D02*
D03*
X9145860Y8092440D02*
D03*
X9060860D02*
D03*
X9045620Y8704580D02*
D03*
X9130620D02*
D03*
X9032500Y8410000D02*
D03*
X8947500D02*
D03*
X10033680Y7818120D02*
D03*
X10118680D02*
D03*
X10022160Y8018780D02*
D03*
X9937160D02*
D03*
X7012500Y6110000D02*
D03*
X6927500D02*
D03*
X9510440Y9692640D02*
D03*
X9595440D02*
D03*
X6732220Y6129020D02*
D03*
X6644520D02*
D03*
X6686500Y5113020D02*
D03*
X6598800D02*
D03*
X6641820Y6045200D02*
D03*
X6729520D02*
D03*
X6596100Y5029200D02*
D03*
X6683800D02*
D03*
X9598140Y9789160D02*
D03*
X9510440D02*
D03*
X8910840Y9796780D02*
D03*
X8998540D02*
D03*
D20*
X3858260Y4755560D02*
D03*
Y4843260D02*
D03*
X3726180Y4755560D02*
D03*
Y4843260D02*
D03*
X6501600Y4953680D02*
D03*
Y5038680D02*
D03*
X10195560Y6249080D02*
D03*
Y6334080D02*
D03*
X9491980Y6254160D02*
D03*
Y6339160D02*
D03*
X7726680Y7926820D02*
D03*
Y7839120D02*
D03*
X7813040Y7926820D02*
D03*
Y7839120D02*
D03*
X9750000Y8192500D02*
D03*
Y8107500D02*
D03*
X11386820Y8760620D02*
D03*
Y8672920D02*
D03*
X11470640Y8760620D02*
D03*
Y8672920D02*
D03*
X11483340Y8419580D02*
D03*
Y8331880D02*
D03*
X11600000Y8445200D02*
D03*
Y8357500D02*
D03*
X10025380Y7529240D02*
D03*
Y7616940D02*
D03*
X16037560Y6357100D02*
D03*
Y6269400D02*
D03*
X16093440Y6711200D02*
D03*
Y6798900D02*
D03*
X9105900Y10352520D02*
D03*
Y10264820D02*
D03*
X9189720Y10352520D02*
D03*
Y10264820D02*
D03*
X8100000Y8185200D02*
D03*
Y8097500D02*
D03*
X8020000Y8185200D02*
D03*
Y8097500D02*
D03*
X11430000Y7337500D02*
D03*
Y7425200D02*
D03*
X11510000D02*
D03*
Y7337500D02*
D03*
X12352020Y12832761D02*
D03*
Y12920461D02*
D03*
X11828780Y12832761D02*
D03*
Y12920461D02*
D03*
X12352020Y13217480D02*
D03*
Y13129781D02*
D03*
X12202160Y13214940D02*
D03*
Y13127240D02*
D03*
X11828780Y13225101D02*
D03*
Y13137399D02*
D03*
X11676380Y13225101D02*
D03*
Y13137399D02*
D03*
X10640060Y8896940D02*
D03*
Y8811940D02*
D03*
X10450000Y9092500D02*
D03*
Y9007500D02*
D03*
X10845800Y7313340D02*
D03*
Y7398340D02*
D03*
X10645140Y7499940D02*
D03*
Y7414940D02*
D03*
X10647680Y7902620D02*
D03*
Y7987620D02*
D03*
X10246360Y8110900D02*
D03*
Y8195900D02*
D03*
X10942320Y7988980D02*
D03*
Y8073980D02*
D03*
X10538460Y8212500D02*
D03*
Y8297500D02*
D03*
X10843260Y8321720D02*
D03*
Y8406720D02*
D03*
X9359900Y8491900D02*
D03*
Y8576900D02*
D03*
X9860280Y8202340D02*
D03*
Y8287340D02*
D03*
X9458960Y8376240D02*
D03*
Y8291240D02*
D03*
X9563100Y8484280D02*
D03*
Y8569280D02*
D03*
X9860000Y7717500D02*
D03*
Y7802500D02*
D03*
X10020300Y8288700D02*
D03*
Y8373700D02*
D03*
X10022840Y8491900D02*
D03*
Y8576900D02*
D03*
X9364980Y8893220D02*
D03*
Y8978220D02*
D03*
X9265920Y9171260D02*
D03*
Y9086260D02*
D03*
X6547320Y6207080D02*
D03*
Y6122080D02*
D03*
X6915620Y4951140D02*
D03*
Y5036140D02*
D03*
X7085800Y5050040D02*
D03*
Y5137740D02*
D03*
X6996900Y5140440D02*
D03*
Y5052740D02*
D03*
X9050000Y9695200D02*
D03*
Y9607500D02*
D03*
X9865360Y8390300D02*
D03*
Y8475300D02*
D03*
X9763760Y8905920D02*
D03*
Y8990920D02*
D03*
X9669780Y9178880D02*
D03*
Y9093880D02*
D03*
X9342120Y7806100D02*
D03*
Y7891100D02*
D03*
X9150000Y7407500D02*
D03*
Y7492500D02*
D03*
X8950000Y7602500D02*
D03*
Y7517500D02*
D03*
X9150000Y7022500D02*
D03*
Y6937500D02*
D03*
X10840000Y8892500D02*
D03*
Y8807500D02*
D03*
X9761220Y8376240D02*
D03*
Y8291240D02*
D03*
X11104880Y7228680D02*
D03*
Y7316380D02*
D03*
D23*
X8675000Y8190000D02*
D03*
X8865000D02*
D03*
X8845000Y8410000D02*
D03*
X8655000D02*
D03*
D29*
X10240000Y9505000D02*
D03*
Y9315000D02*
D03*
X10400000Y9315000D02*
D03*
Y9505000D02*
D03*
D30*
X4933479Y5467020D02*
D03*
Y5177020D02*
D03*
D38*
X9616440Y6631720D02*
D03*
Y6921720D02*
D03*
X10120000Y6965000D02*
D03*
Y6675000D02*
D03*
D75*
X12624180Y11348720D02*
D03*
D76*
X12524180Y11248720D02*
D03*
X12724180D02*
D03*
X12924181D02*
D03*
X13124181D02*
D03*
X13324181D02*
D03*
X13524181D02*
D03*
X13724181D02*
D03*
X12524180Y11448720D02*
D03*
X12724180D02*
D03*
X12924181D02*
D03*
X13124181D02*
D03*
X13324181D02*
D03*
X13524181D02*
D03*
D77*
X13724181D02*
D03*
D78*
X2531840Y12851199D02*
D03*
X2781840D02*
D03*
D79*
X2156840Y13271201D02*
D03*
Y13071201D02*
D03*
X2756840Y13471201D02*
D03*
X2556840D02*
D03*
X9969500Y13218159D02*
D03*
X10223500Y12964160D02*
D03*
Y13218159D02*
D03*
X10477500Y12964160D02*
D03*
Y13218159D02*
D03*
X10731500Y12964160D02*
D03*
Y13218159D02*
D03*
X10985500Y12964160D02*
D03*
Y13218159D02*
D03*
X6852920Y8166100D02*
D03*
D80*
X2156840Y13171201D02*
D03*
D81*
X2656840Y13471201D02*
D03*
D82*
Y12851199D02*
D03*
D83*
X9969500Y12964160D02*
D03*
D84*
X6852920Y7912100D02*
D03*
D85*
X4165600Y12913361D02*
D03*
Y13373360D02*
D03*
Y12453360D02*
D03*
D86*
X3916680Y8373860D02*
D03*
Y8023860D02*
D03*
D87*
X5657320Y10673839D02*
D03*
X6617320D02*
D03*
X7082320Y10673840D02*
D03*
X8042320D02*
D03*
D88*
Y10053840D02*
D03*
X7562320D02*
D03*
X6137320D02*
D03*
X6617320D02*
D03*
X8275320Y11483840D02*
D03*
X5425320D02*
D03*
D89*
X8275320Y13763840D02*
D03*
Y12763840D02*
D03*
Y11763840D02*
D03*
Y11013840D02*
D03*
Y10513840D02*
D03*
X5425320Y13263840D02*
D03*
Y12263840D02*
D03*
Y11263840D02*
D03*
Y10263840D02*
D03*
X6850320D02*
D03*
Y11263840D02*
D03*
Y12263840D02*
D03*
Y13263840D02*
D03*
D112*
X3732261Y5166880D02*
D03*
Y5116880D02*
D03*
Y5066880D02*
D03*
X3857261D02*
D03*
Y5116880D02*
D03*
Y5166880D02*
D03*
D113*
X9326500Y9530000D02*
D03*
X9653500D02*
D03*
D114*
X10958140Y6328660D02*
D03*
Y6518660D02*
D03*
Y6423660D02*
D03*
X10713140Y6328660D02*
D03*
Y6518660D02*
D03*
X10071680Y6334760D02*
D03*
Y6429760D02*
D03*
Y6239760D02*
D03*
X9826680D02*
D03*
Y6429760D02*
D03*
Y6334760D02*
D03*
X9373180Y9699240D02*
D03*
Y9889240D02*
D03*
Y9794240D02*
D03*
X9128180Y9699240D02*
D03*
Y9889240D02*
D03*
D115*
X8668640Y11437620D02*
D03*
X8938640D02*
D03*
X5006340Y11094720D02*
D03*
X4736340D02*
D03*
X5006720Y11451340D02*
D03*
X4736720D02*
D03*
X8668640Y11121640D02*
D03*
X8938640D02*
D03*
D116*
X8610600Y11936400D02*
D03*
Y11736400D02*
D03*
X5066920Y10598561D02*
D03*
Y10798561D02*
D03*
X5046980Y11938941D02*
D03*
Y11738940D02*
D03*
X8623300Y10621339D02*
D03*
Y10821340D02*
D03*
D117*
X13196599Y8780780D02*
D03*
D118*
Y8653780D02*
D03*
Y8526780D02*
D03*
Y8399780D02*
D03*
Y8272780D02*
D03*
Y8145780D02*
D03*
Y8018780D02*
D03*
Y7891780D02*
D03*
X12166599Y8780780D02*
D03*
Y8653780D02*
D03*
Y8526780D02*
D03*
Y8399780D02*
D03*
Y8272780D02*
D03*
Y8145780D02*
D03*
Y8018780D02*
D03*
Y7891780D02*
D03*
D119*
X11154860Y9765280D02*
D03*
Y9955280D02*
D03*
X11369860Y9765280D02*
D03*
Y9955280D02*
D03*
D120*
X11262360Y9765280D02*
D03*
Y9955280D02*
D03*
D121*
X10421620Y9851160D02*
D03*
Y10046160D02*
D03*
Y9916160D02*
D03*
Y9981160D02*
D03*
X10046620Y9851160D02*
D03*
Y10046160D02*
D03*
Y9916160D02*
D03*
Y9981160D02*
D03*
D122*
X10331620Y9761160D02*
D03*
Y10136160D02*
D03*
X10266620Y9761160D02*
D03*
X10201620D02*
D03*
X10136620D02*
D03*
X10266620Y10136160D02*
D03*
X10201620D02*
D03*
X10136620D02*
D03*
D123*
X10234120Y9948660D02*
D03*
%TF.MD5,c1e449aeda209df8b4d42f29ae91c0ba*%
M02*
