G04 Layer_Physical_Order=6*
G04 Layer_Color=16711680*
%FSLAX45Y45*%
%MOMM*%
%TF.FileFunction,Copper,L6,Bot,Signal*%
%TF.Part,Single*%
G01*
G75*
%TA.AperFunction,Conductor*%
%ADD10C,0.30480*%
%ADD11C,0.12700*%
%TA.AperFunction,SMDPad,CuDef*%
%ADD14R,1.00000X0.60000*%
%ADD15R,0.60000X1.00000*%
%ADD16R,0.42000X0.60000*%
%ADD17O,0.42000X0.60000*%
%ADD18R,0.60000X0.55000*%
%ADD20R,0.55000X0.60000*%
%ADD23R,0.70000X1.30000*%
%ADD29R,1.30000X0.70000*%
%ADD30R,1.70000X0.90000*%
%ADD38R,2.60000X0.90000*%
%TA.AperFunction,Conductor*%
%ADD53C,0.25400*%
%ADD54C,0.15240*%
%ADD55C,0.16800*%
%ADD56C,0.17500*%
%ADD57C,0.20320*%
%ADD58C,0.50800*%
%ADD61C,0.16800*%
%TA.AperFunction,NonConductor*%
%ADD66R,1.27000X0.12700*%
%TA.AperFunction,ComponentPad*%
%ADD75C,1.00000*%
%ADD76C,1.30000*%
G04:AMPARAMS|DCode=77|XSize=1.3mm|YSize=1.3mm|CornerRadius=0mm|HoleSize=0mm|Usage=FLASHONLY|Rotation=180.000|XOffset=0mm|YOffset=0mm|HoleType=Round|Shape=Octagon|*
%AMOCTAGOND77*
4,1,8,-0.65000,0.32500,-0.65000,-0.32500,-0.32500,-0.65000,0.32500,-0.65000,0.65000,-0.32500,0.65000,0.32500,0.32500,0.65000,-0.32500,0.65000,-0.65000,0.32500,0.0*
%
%ADD77OCTAGOND77*%

%ADD78C,1.50000*%
%ADD79C,1.50000*%
%TA.AperFunction,SMDPad,CuDef*%
%ADD80O,2.00000X4.00000*%
%ADD81O,4.00000X2.00000*%
%ADD82O,4.50000X2.00000*%
%TA.AperFunction,ComponentPad*%
%ADD83R,1.50000X1.50000*%
%ADD84R,1.50000X1.50000*%
%ADD85C,2.70000*%
%ADD86C,1.52400*%
%ADD87C,1.55000*%
%ADD88C,0.95000*%
%ADD89R,2.00000X2.00000*%
%TA.AperFunction,ViaPad*%
%ADD90C,0.40640*%
%ADD91C,0.50800*%
%ADD92C,0.38100*%
%ADD93C,0.63500*%
%ADD94C,0.50000*%
%TA.AperFunction,SMDPad,CuDef*%
%ADD112R,0.45000X0.34290*%
%ADD113R,0.91000X1.22000*%
%ADD114R,0.95000X0.60000*%
%ADD115R,1.10000X1.70000*%
%ADD116R,2.00000X0.80000*%
%ADD117R,2.00000X0.60000*%
%ADD118O,2.00000X0.60000*%
%ADD119R,0.90000X1.00000*%
%ADD120R,0.50000X1.00000*%
%ADD121O,0.95000X0.30000*%
%ADD122O,0.30000X0.95000*%
%ADD123R,2.10000X2.10000*%
%TA.AperFunction,NonConductor*%
%ADD124R,1.27000X11.93800*%
%TA.AperFunction,Conductor*%
%ADD125R,1.70000X2.02240*%
G36*
X10474164Y10258540D02*
Y10208260D01*
X10477318Y10192403D01*
X10486300Y10178960D01*
X10499743Y10169978D01*
X10515600Y10166824D01*
X10531457Y10169978D01*
X10540780Y10176207D01*
X10553480Y10170682D01*
X10553480Y9720580D01*
X10373140Y9720580D01*
X10373141Y10065500D01*
X10350281Y10088360D01*
X10248681D01*
Y10258540D01*
X10474164Y10258540D01*
D02*
G37*
G36*
X11252200Y10055860D02*
X11203940Y10007600D01*
X11203940Y9715500D01*
X11116399Y9715499D01*
X11107419Y9724480D01*
X11107420Y10134600D01*
X11252200D01*
Y10055860D01*
D02*
G37*
G36*
X5306060Y10467947D02*
X4963832D01*
X4962780Y10470487D01*
Y10640667D01*
X5306060D01*
Y10467947D01*
D02*
G37*
G36*
X11421110Y9916160D02*
X11413490Y9908540D01*
X11324590D01*
Y10007600D01*
X11276330Y10055860D01*
Y10134600D01*
X11421110D01*
Y9916160D01*
D02*
G37*
G36*
X10220741Y10080740D02*
X10119141D01*
X10096281Y10057880D01*
X10096280Y9664700D01*
X9895620Y9664700D01*
X9895620Y10250920D01*
X10220741Y10250920D01*
Y10080740D01*
D02*
G37*
G36*
X3421380Y7807700D02*
X3152140D01*
Y7914380D01*
X3421380D01*
Y7807700D01*
D02*
G37*
G36*
X5210000Y5660000D02*
X5240000Y5630000D01*
Y5560000D01*
X5100000Y5420000D01*
X4850000D01*
Y5640000D01*
X4870000Y5660000D01*
X5210000D01*
Y5660000D01*
D02*
G37*
G36*
X13430000Y8750300D02*
X13220345D01*
X13213582Y8763000D01*
X13215446Y8765789D01*
X13217416Y8775700D01*
X13215446Y8785611D01*
X13209831Y8794012D01*
X13201430Y8799626D01*
X13191519Y8801598D01*
X13109821D01*
Y8897620D01*
X13110873Y8900160D01*
X13430000D01*
Y8750300D01*
D02*
G37*
G36*
X13445100Y8128000D02*
X13322137D01*
X13311716Y8140700D01*
X13312726Y8145780D01*
X13309215Y8163432D01*
X13299216Y8178396D01*
X13284251Y8188395D01*
X13266600Y8191906D01*
X13126599D01*
X13117441Y8190084D01*
X13104741Y8199696D01*
Y8218864D01*
X13117441Y8228476D01*
X13126599Y8226654D01*
X13266600D01*
X13284251Y8230165D01*
X13299216Y8240164D01*
X13309215Y8255128D01*
X13312726Y8272780D01*
X13309215Y8290432D01*
X13299216Y8305396D01*
X13284251Y8315395D01*
X13266600Y8318906D01*
X13126599D01*
X13117441Y8317084D01*
X13104741Y8326696D01*
Y8345864D01*
X13117441Y8355476D01*
X13126599Y8353654D01*
X13266600D01*
X13284251Y8357165D01*
X13299216Y8367164D01*
X13309215Y8382128D01*
X13312726Y8399780D01*
X13309215Y8417432D01*
X13299216Y8432396D01*
X13284251Y8442395D01*
X13266600Y8445906D01*
X13126599D01*
X13117441Y8444084D01*
X13104741Y8453696D01*
Y8472864D01*
X13117441Y8482476D01*
X13126599Y8480654D01*
X13266600D01*
X13284251Y8484165D01*
X13299216Y8494164D01*
X13309215Y8509128D01*
X13312726Y8526780D01*
X13309215Y8544432D01*
X13299216Y8559396D01*
X13284251Y8569395D01*
X13266600Y8572906D01*
X13126599D01*
X13117441Y8571084D01*
X13104741Y8580696D01*
Y8686800D01*
X13445100D01*
Y8128000D01*
D02*
G37*
G36*
X4920000Y12060000D02*
Y11600000D01*
X4790000Y11599999D01*
X4790000Y10940000D01*
X4920000D01*
X4930000Y10930000D01*
Y10470000D01*
X4670000D01*
Y12060000D01*
X4680000Y12070000D01*
X4910000D01*
X4920000Y12060000D01*
D02*
G37*
G36*
X8722360Y11363960D02*
X8712200Y11353800D01*
X8496300D01*
Y11790680D01*
X8719820D01*
X8722360Y11363960D01*
D02*
G37*
G36*
X5171440Y11351260D02*
X5161280Y11341100D01*
X4945380D01*
Y11777980D01*
X5168900D01*
X5171440Y11351260D01*
D02*
G37*
G36*
X8712200Y12072620D02*
Y11902440D01*
X8417560D01*
Y12075160D01*
X8700552D01*
X8712200Y12072620D01*
D02*
G37*
G36*
X5306060Y11899900D02*
X4940300D01*
X4937760Y11900952D01*
Y12072620D01*
X5306060D01*
Y11899900D01*
D02*
G37*
G36*
X9000000Y10490000D02*
X8990000Y10480000D01*
X8816207D01*
Y10515599D01*
X8814039Y10526501D01*
X8807864Y10535743D01*
X8798622Y10541918D01*
X8787720Y10544087D01*
X8776818Y10541918D01*
X8767576Y10535743D01*
X8762700Y10528445D01*
X8754300Y10529028D01*
X8750000Y10530557D01*
Y10950000D01*
X8880000Y10950000D01*
X8880000Y11590000D01*
X8740000Y11590000D01*
X8740000Y12080000D01*
X9000000D01*
Y10490000D01*
D02*
G37*
G36*
X8722360Y10490200D02*
X8719820Y10487660D01*
X8399780D01*
Y10660380D01*
X8722360D01*
Y10490200D01*
D02*
G37*
G36*
X8732520Y10777220D02*
X8509000D01*
X8506460Y11203940D01*
X8516620Y11214100D01*
X8732520D01*
Y10777220D01*
D02*
G37*
G36*
X5178680Y10744281D02*
X4955160D01*
X4952620Y11171001D01*
X4962780Y11181161D01*
X5178680D01*
Y10744281D01*
D02*
G37*
%LPC*%
G36*
X8908980Y11919577D02*
X8895105Y11916817D01*
X8883343Y11908958D01*
X8875483Y11897195D01*
X8872723Y11883320D01*
X8875483Y11869445D01*
X8883343Y11857683D01*
X8895105Y11849823D01*
X8908980Y11847063D01*
X8922855Y11849823D01*
X8934618Y11857683D01*
X8942477Y11869445D01*
X8945237Y11883320D01*
X8942477Y11897195D01*
X8934618Y11908958D01*
X8922855Y11916817D01*
X8908980Y11919577D01*
D02*
G37*
%LPD*%
D10*
X10266620Y9871160D02*
X10289120Y9893660D01*
X3926840Y5125720D02*
Y5247640D01*
X11282220Y8760000D02*
X11386820D01*
X7960000Y8180000D02*
X8020000D01*
X11221720Y8646160D02*
Y8699500D01*
X6732220Y6129020D02*
X6819986Y6216786D01*
Y6319987D01*
X7085800Y4995800D02*
Y5050040D01*
X13133299Y11002780D02*
Y11073300D01*
X11483340Y8453120D02*
X11544300Y8514080D01*
X11483340Y8419580D02*
Y8453120D01*
X3926840Y5247640D02*
Y6174740D01*
X3345020Y7202760D02*
X3348240Y7205980D01*
X3261360Y7202760D02*
X3345020D01*
X3227660D02*
X3261360D01*
X3147060Y7122160D02*
X3227660Y7202760D01*
X3147060Y6954520D02*
Y7122160D01*
Y6954520D02*
X3926840Y6174740D01*
X3918000Y5116880D02*
X3926840Y5125720D01*
X3857261Y5116880D02*
X3918000D01*
X3934460Y9298940D02*
X3962400D01*
X3261360Y7202760D02*
Y7487920D01*
X3909060Y7584180D02*
X4206240D01*
X3916680Y8373860D02*
X4186180D01*
X4272280Y7650220D02*
Y8287760D01*
X4206240Y7584180D02*
X4272280Y7650220D01*
X4186180Y8373860D02*
X4272280Y8287760D01*
X6734480Y5156200D02*
X6742900D01*
X6691300Y5113020D02*
X6734480Y5156200D01*
X10266620Y9684180D02*
X10319120Y9631680D01*
X10266620Y9684180D02*
Y9761160D01*
Y9871160D01*
X11221720Y8699500D02*
X11282220Y8760000D01*
D11*
X16085820Y6806520D02*
X16093440Y6798900D01*
X16055859Y6375400D02*
X16075661D01*
X16053320Y6372860D02*
X16055859Y6375400D01*
D14*
X13391760Y8169980D02*
D03*
Y8019980D02*
D03*
X11974441Y7738040D02*
D03*
Y7888040D02*
D03*
X13380000Y8655000D02*
D03*
Y8805000D02*
D03*
X7324560Y4512380D02*
D03*
Y4362380D02*
D03*
X9514840Y10039420D02*
D03*
Y9889420D02*
D03*
X8989060Y9889420D02*
D03*
Y10039420D02*
D03*
X10574020Y6521520D02*
D03*
Y6371520D02*
D03*
X11140440Y6518980D02*
D03*
Y6368980D02*
D03*
X9690100Y6241980D02*
D03*
Y6391980D02*
D03*
X10304780Y6241980D02*
D03*
Y6391980D02*
D03*
D15*
X10712520Y6189980D02*
D03*
X10562520D02*
D03*
X10562520Y6062980D02*
D03*
X10712520D02*
D03*
X13405000Y8420000D02*
D03*
X13555000D02*
D03*
X10169120Y9631680D02*
D03*
X10319120D02*
D03*
X9935280Y10005060D02*
D03*
X9785280D02*
D03*
X10514040Y10075660D02*
D03*
X10664040D02*
D03*
D16*
X13195300Y11002780D02*
D03*
X13133299D02*
D03*
X13071300D02*
D03*
X13133299Y10812780D02*
D03*
X13071300D02*
D03*
D17*
X13195300D02*
D03*
D18*
X4017760Y5128260D02*
D03*
X3930060D02*
D03*
X9194280Y9403080D02*
D03*
X9106580D02*
D03*
X8775020Y11617960D02*
D03*
X8690020D02*
D03*
X4902500Y10909381D02*
D03*
X4987500D02*
D03*
X4892720Y11633201D02*
D03*
X4977720D02*
D03*
X4882560Y12044681D02*
D03*
X4967560D02*
D03*
X8759780Y12049760D02*
D03*
X8674780D02*
D03*
X8787720Y10924539D02*
D03*
X8702720D02*
D03*
X8787720Y10515599D02*
D03*
X8702720D02*
D03*
X4907580Y10495361D02*
D03*
X4992580D02*
D03*
X11307400Y10106660D02*
D03*
X11222400D02*
D03*
X10932500Y8590000D02*
D03*
X10847500D02*
D03*
X10632500Y8610000D02*
D03*
X10547500D02*
D03*
X9145860Y8092440D02*
D03*
X9060860D02*
D03*
X9045620Y8704580D02*
D03*
X9130620D02*
D03*
X9032500Y8410000D02*
D03*
X8947500D02*
D03*
X10033680Y7818120D02*
D03*
X10118680D02*
D03*
X10022160Y8018780D02*
D03*
X9937160D02*
D03*
X7012500Y6110000D02*
D03*
X6927500D02*
D03*
X9510440Y9692640D02*
D03*
X9595440D02*
D03*
X6732220Y6129020D02*
D03*
X6644520D02*
D03*
X6686500Y5113020D02*
D03*
X6598800D02*
D03*
X6641820Y6045200D02*
D03*
X6729520D02*
D03*
X6596100Y5029200D02*
D03*
X6683800D02*
D03*
X9598140Y9789160D02*
D03*
X9510440D02*
D03*
X8910840Y9796780D02*
D03*
X8998540D02*
D03*
D20*
X3858260Y4755560D02*
D03*
Y4843260D02*
D03*
X3726180Y4755560D02*
D03*
Y4843260D02*
D03*
X6501600Y4953680D02*
D03*
Y5038680D02*
D03*
X10195560Y6249080D02*
D03*
Y6334080D02*
D03*
X9491980Y6254160D02*
D03*
Y6339160D02*
D03*
X7726680Y7926820D02*
D03*
Y7839120D02*
D03*
X7813040Y7926820D02*
D03*
Y7839120D02*
D03*
X9750000Y8192500D02*
D03*
Y8107500D02*
D03*
X11386820Y8760620D02*
D03*
Y8672920D02*
D03*
X11470640Y8760620D02*
D03*
Y8672920D02*
D03*
X11483340Y8419580D02*
D03*
Y8331880D02*
D03*
X11600000Y8445200D02*
D03*
Y8357500D02*
D03*
X10025380Y7529240D02*
D03*
Y7616940D02*
D03*
X16037560Y6357100D02*
D03*
Y6269400D02*
D03*
X16093440Y6711200D02*
D03*
Y6798900D02*
D03*
X9105900Y10352520D02*
D03*
Y10264820D02*
D03*
X9189720Y10352520D02*
D03*
Y10264820D02*
D03*
X8100000Y8185200D02*
D03*
Y8097500D02*
D03*
X8020000Y8185200D02*
D03*
Y8097500D02*
D03*
X11430000Y7337500D02*
D03*
Y7425200D02*
D03*
X11510000D02*
D03*
Y7337500D02*
D03*
X12352020Y12832761D02*
D03*
Y12920461D02*
D03*
X11828780Y12832761D02*
D03*
Y12920461D02*
D03*
X12352020Y13217480D02*
D03*
Y13129781D02*
D03*
X12202160Y13214940D02*
D03*
Y13127240D02*
D03*
X11828780Y13225101D02*
D03*
Y13137399D02*
D03*
X11676380Y13225101D02*
D03*
Y13137399D02*
D03*
X10640060Y8896940D02*
D03*
Y8811940D02*
D03*
X10450000Y9092500D02*
D03*
Y9007500D02*
D03*
X10845800Y7313340D02*
D03*
Y7398340D02*
D03*
X10645140Y7499940D02*
D03*
Y7414940D02*
D03*
X10647680Y7902620D02*
D03*
Y7987620D02*
D03*
X10246360Y8110900D02*
D03*
Y8195900D02*
D03*
X10942320Y7988980D02*
D03*
Y8073980D02*
D03*
X10538460Y8212500D02*
D03*
Y8297500D02*
D03*
X10843260Y8321720D02*
D03*
Y8406720D02*
D03*
X9359900Y8491900D02*
D03*
Y8576900D02*
D03*
X9860280Y8202340D02*
D03*
Y8287340D02*
D03*
X9458960Y8376240D02*
D03*
Y8291240D02*
D03*
X9563100Y8484280D02*
D03*
Y8569280D02*
D03*
X9860000Y7717500D02*
D03*
Y7802500D02*
D03*
X10020300Y8288700D02*
D03*
Y8373700D02*
D03*
X10022840Y8491900D02*
D03*
Y8576900D02*
D03*
X9364980Y8893220D02*
D03*
Y8978220D02*
D03*
X9265920Y9171260D02*
D03*
Y9086260D02*
D03*
X6547320Y6207080D02*
D03*
Y6122080D02*
D03*
X6915620Y4951140D02*
D03*
Y5036140D02*
D03*
X7085800Y5050040D02*
D03*
Y5137740D02*
D03*
X6996900Y5140440D02*
D03*
Y5052740D02*
D03*
X9050000Y9695200D02*
D03*
Y9607500D02*
D03*
X9865360Y8390300D02*
D03*
Y8475300D02*
D03*
X9763760Y8905920D02*
D03*
Y8990920D02*
D03*
X9669780Y9178880D02*
D03*
Y9093880D02*
D03*
X9342120Y7806100D02*
D03*
Y7891100D02*
D03*
X9150000Y7407500D02*
D03*
Y7492500D02*
D03*
X8950000Y7602500D02*
D03*
Y7517500D02*
D03*
X9150000Y7022500D02*
D03*
Y6937500D02*
D03*
X10840000Y8892500D02*
D03*
Y8807500D02*
D03*
X9761220Y8376240D02*
D03*
Y8291240D02*
D03*
X11104880Y7228680D02*
D03*
Y7316380D02*
D03*
D23*
X8675000Y8190000D02*
D03*
X8865000D02*
D03*
X8845000Y8410000D02*
D03*
X8655000D02*
D03*
D29*
X10240000Y9505000D02*
D03*
Y9315000D02*
D03*
X10400000Y9315000D02*
D03*
Y9505000D02*
D03*
D30*
X4933479Y5467020D02*
D03*
Y5177020D02*
D03*
D38*
X9616440Y6631720D02*
D03*
Y6921720D02*
D03*
X10120000Y6965000D02*
D03*
Y6675000D02*
D03*
D53*
X6398260Y6214580D02*
X6547320D01*
X6776720Y4943640D02*
X6915620D01*
X6693840Y4985220D02*
Y5034280D01*
X6311900Y4946180D02*
X6501600D01*
X7117080Y5359400D02*
Y5504180D01*
X6598800Y5168780D02*
X6669040Y5239020D01*
X6996700D01*
X6799986Y5169990D02*
X6913049D01*
X6923039Y5160000D01*
X6996700Y5239020D02*
X7117080Y5359400D01*
X7038513Y5195840D02*
X7075840D01*
X7035973Y5198380D02*
X7038513Y5195840D01*
X6957827Y5198380D02*
X7035973D01*
X6941460Y5182013D02*
X6957827Y5198380D01*
X6941460Y5178421D02*
Y5182013D01*
X6923039Y5160000D02*
X6941460Y5178421D01*
X6930000Y5870000D02*
X7160000D01*
X7310000Y5720000D01*
Y5430000D02*
Y5720000D01*
X7075840Y5195840D02*
X7310000Y5430000D01*
X8857480Y10352520D02*
X9105900D01*
X8787720Y10422280D02*
X8857480Y10352520D01*
X8787720Y10422280D02*
Y10515599D01*
X13133299Y10812780D02*
Y10896700D01*
X3659960Y5000040D02*
X3726180D01*
X3600000Y5060000D02*
X3659960Y5000040D01*
X3600000Y5060000D02*
Y5130000D01*
X3641490Y5171490D01*
X3727650D01*
X3732261Y5166880D01*
X4251960Y5128260D02*
X4363720Y5016500D01*
X4017760Y5128260D02*
X4251960D01*
X16093440Y6626860D02*
Y6711200D01*
X3671520Y5116880D02*
X3732261D01*
X4331220Y4843260D02*
X4363720Y4810760D01*
X3858260Y4843260D02*
X4331220D01*
X3726180D02*
X3858260D01*
X6598800Y5113020D02*
Y5168780D01*
X4363720Y5016500D02*
X4375150Y5005070D01*
X12578080Y10185400D02*
X12684760Y10292080D01*
X12578080Y9705340D02*
Y10185400D01*
X12485793Y10225193D02*
X12509500Y10248900D01*
X12485793Y9708727D02*
Y10225193D01*
X3857261Y4995960D02*
Y5066880D01*
X6493980Y6019800D02*
X6611620D01*
X6374600Y6238240D02*
X6398260Y6214580D01*
X6637020Y6045200D02*
Y6123940D01*
X6611620Y6019800D02*
X6637020Y6045200D01*
X6646380Y4937760D02*
X6693840Y4985220D01*
X6593840Y5034280D02*
Y5110480D01*
X6496520Y5113020D02*
X6591300D01*
X6448260Y5161280D02*
X6496520Y5113020D01*
X10169120Y9631680D02*
Y9640500D01*
X10201620Y9673000D01*
Y9761160D01*
X9373180Y9699240D02*
X9496340D01*
Y9782560D01*
X9502940Y9789160D01*
X11974441Y7695559D02*
Y7738040D01*
Y7695559D02*
X12010000Y7660000D01*
X6800000Y6000000D02*
Y6070000D01*
Y6000000D02*
X6930000Y5870000D01*
X9034780Y9410700D02*
X9098960D01*
X6996900Y5145240D02*
X7085800D01*
D54*
X10909300Y10182860D02*
X12120880Y11394440D01*
X10909300Y9365260D02*
Y10182860D01*
X10534100Y8990060D02*
X10909300Y9365260D01*
X10042806Y8938260D02*
X10080000Y8901066D01*
Y8810000D02*
Y8901066D01*
Y8810000D02*
X10256820Y8633180D01*
X9446574Y8070000D02*
X9651030D01*
X9396574Y8020000D02*
X9446574Y8070000D01*
X9210000Y8020000D02*
X9396574D01*
X8020000Y8097520D02*
X8927520D01*
X9427518Y8132482D02*
X9635189D01*
X9737191Y8030480D02*
X9815926D01*
X9635189Y8132482D02*
X9737191Y8030480D01*
X9714836Y8005164D02*
Y8006195D01*
X9651030Y8070000D02*
X9714836Y8006195D01*
Y8005164D02*
X9720000Y8000000D01*
X9491420Y7268580D02*
X9510000Y7250000D01*
X9650000D01*
X8939556Y7159346D02*
X9779346D01*
X8938902Y7160000D02*
X8939556Y7159346D01*
X9779346D02*
X9900000Y7280000D01*
X9650000Y7250000D02*
X9670000Y7270000D01*
X9708935D01*
X9712114Y7266820D01*
X9800980D01*
X9890000Y7355840D01*
X9220000Y7770000D02*
X9328980Y7661020D01*
X8930000Y7770000D02*
X9220000D01*
X8829360Y7669360D02*
X8930000Y7770000D01*
X9328980Y7661020D02*
X9768980D01*
X9810000Y7620000D01*
X8978400Y7810000D02*
X9000000Y7831600D01*
X8618241Y7780000D02*
X8648241Y7810000D01*
X7340600Y8034020D02*
X7594620Y7780000D01*
X8618241D01*
X8648241Y7810000D02*
X8978400D01*
X8705480Y7015480D02*
X8900619Y7210620D01*
X8991685D01*
X8930000Y7160000D02*
X8938902D01*
X9269605Y8638540D02*
X10085620D01*
X9267867Y8636803D02*
X9269605Y8638540D01*
X9232096Y8636803D02*
X9267867D01*
X9230358Y8638540D02*
X9232096Y8636803D01*
X8890000Y8638540D02*
X9230358D01*
X9815926Y8030480D02*
X9889090Y8103644D01*
X10151336Y8073164D02*
X10185400Y8039100D01*
X9884300Y8055749D02*
X9901715Y8073164D01*
X10151336D01*
X9889090Y8103644D02*
X10031504D01*
X10185400Y8257540D01*
X9720000Y8000000D02*
X9830000D01*
X9000000Y7831600D02*
X9231600D01*
X7584440Y7901940D02*
Y8074440D01*
X7802658Y8292658D01*
X8343900Y8671560D02*
X8747760D01*
X8884920Y8534400D01*
X13780000Y12060000D02*
X13850000Y11990000D01*
X13780000Y12060000D02*
Y12122020D01*
X13682980Y12219040D02*
X13780000Y12122020D01*
X13530000Y12198480D02*
X13555980Y12224460D01*
X13530000Y12030000D02*
Y12198480D01*
Y12030000D02*
X13639999Y11920000D01*
X12283105Y7520000D02*
X12720480Y7957375D01*
Y9963201D02*
X13783640Y11026360D01*
X12720480Y7957375D02*
Y9963201D01*
X12919521Y10049104D02*
X13840208Y10969792D01*
X12919521Y8113310D02*
Y10049104D01*
X12286210Y7480000D02*
X12919521Y8113310D01*
X12950000Y9980589D02*
X13889706Y10920295D01*
X12950000Y8100685D02*
Y9980589D01*
X12289316Y7440000D02*
X12950000Y8100685D01*
X11940000Y7440000D02*
X12289316D01*
X11350000Y6850000D02*
X11940000Y7440000D01*
X10770000Y6850000D02*
X11350000D01*
X10880000Y6890000D02*
X11340000D01*
X11930000Y7480000D01*
X12286210D01*
X11923105Y7520000D02*
X12283105D01*
X11335165Y6932060D02*
X11923105Y7520000D01*
X12690000Y7970000D02*
Y10060000D01*
X12280000Y7560000D02*
X12690000Y7970000D01*
X11850000Y7560000D02*
X12280000D01*
X10957940Y6932060D02*
X11335165D01*
X11037460Y6962540D02*
X11322540D01*
X11630000Y7270000D01*
Y7340000D01*
X11850000Y7560000D01*
X10940000Y7060000D02*
X11037460Y6962540D01*
X7970000Y8292658D02*
X8343900Y8671560D01*
X7802658Y8292658D02*
X7970000D01*
X7946920Y8460000D02*
X8336920Y8850000D01*
X7361660Y8460000D02*
X7946920D01*
X7170420Y8651240D02*
X7361660Y8460000D01*
X9000000Y8170000D02*
Y8200000D01*
X8927520Y8097520D02*
X9000000Y8170000D01*
X9330000Y8230000D02*
X9427518Y8132482D01*
X9400000Y7950000D02*
X9750000D01*
X9380000Y7970000D02*
X9400000Y7950000D01*
X9830000Y8000000D02*
X9884300Y8054300D01*
Y8055749D01*
X9310000Y7970000D02*
X9380000D01*
X9753164Y7953164D02*
X9990996D01*
X9750000Y7950000D02*
X9753164Y7953164D01*
X9280000Y7940000D02*
X9310000Y7970000D01*
X9280000Y7880000D02*
Y7940000D01*
X9160000Y7970000D02*
X9210000Y8020000D01*
X8931634Y7970000D02*
X9160000D01*
X9231600Y7831600D02*
X9280000Y7880000D01*
X8770700Y7990700D02*
X8910934D01*
X8619120Y7839120D02*
X8770700Y7990700D01*
X7813040Y7839120D02*
X8619120D01*
X9030000Y8230000D02*
X9330000D01*
X9000000Y8200000D02*
X9030000Y8230000D01*
X9528920Y8428631D02*
X9597280D01*
X9608649Y8440000D01*
X9517551D02*
X9526131Y8431420D01*
X9787840Y8439100D02*
X9810000Y8461260D01*
X9017000Y8534400D02*
X9112300Y8439100D01*
X9743994D02*
X9787840D01*
X9112300D02*
X9179766D01*
X9743094Y8440000D02*
X9743994Y8439100D01*
X9608649Y8440000D02*
X9743094D01*
X9180666D02*
X9321971D01*
X9179766Y8439100D02*
X9180666Y8440000D01*
X9397829D02*
X9517551D01*
X9396869Y8439040D02*
X9397829Y8440000D01*
X9322931Y8439040D02*
X9396869D01*
X9321971Y8440000D02*
X9322931Y8439040D01*
X9810000Y8461260D02*
Y8550000D01*
X9845200Y8585200D01*
X9862820D01*
X9509760Y9034780D02*
X9514840Y9039860D01*
X8867094Y8942440D02*
X9025415D01*
X9026215Y8943240D01*
X9061986D01*
X9066126Y8939100D01*
X9208340D01*
X8795880Y8945880D02*
X8863654D01*
X8740000Y8890000D02*
X8795880Y8945880D01*
X7548880Y8890000D02*
X8740000D01*
X8336920Y8850000D02*
X9133094D01*
X9243994Y8739100D01*
X9785580D02*
X9804400Y8757920D01*
X9743994Y8739100D02*
X9785580D01*
X9243994D02*
X9378826D01*
X9743094Y8740000D02*
X9743994Y8739100D01*
X9379726Y8740000D02*
X9743094D01*
X9378826Y8739100D02*
X9379726Y8740000D01*
X8760460Y10266680D02*
X9210040D01*
X10281920Y8938260D02*
X10380000Y8840180D01*
Y8635960D02*
Y8840180D01*
X10334100Y8590060D02*
X10380000Y8635960D01*
X10145000Y8623935D02*
Y8695000D01*
X10290000Y8534160D02*
Y8601066D01*
X10257886Y8633180D02*
X10290000Y8601066D01*
X10145000Y8623935D02*
X10222114Y8546820D01*
X10223180D02*
X10287000Y8483000D01*
X10222114Y8546820D02*
X10223180D01*
X10256820Y8633180D02*
X10257886D01*
X10290000Y8534160D02*
X10334100Y8490060D01*
X9950000Y9089840D02*
X9993020Y9046820D01*
X10030654D01*
X10070640Y9006834D01*
X10939780Y9228714D02*
Y10109780D01*
X12247880Y11417880D01*
Y12768133D01*
X12278360Y11338360D02*
Y12348360D01*
X12352020Y12422020D02*
Y12832761D01*
X12278360Y12348360D02*
X12352020Y12422020D01*
X11050000Y10110000D02*
X12278360Y11338360D01*
X11050000Y9270000D02*
Y10110000D01*
X11013180Y9233180D02*
X11050000Y9270000D01*
X11012114Y9233180D02*
X11013180D01*
X10970260Y9191326D02*
X11012114Y9233180D01*
X10970260Y9190260D02*
Y9191326D01*
X10744305Y9033240D02*
X10939780Y9228714D01*
X10634100Y8990060D02*
X10677280Y9033240D01*
X10744305D01*
X10734100Y8990060D02*
X10770060D01*
X10970260Y9190260D01*
X11369860Y9468794D02*
Y9765280D01*
X10834100Y8990060D02*
X10891126D01*
X11369860Y9468794D01*
X10839978Y8109984D02*
Y8118582D01*
X10833100Y8125460D02*
X10839978Y8118582D01*
X9990996Y7953164D02*
X10033000Y7911160D01*
Y7901940D02*
Y7911160D01*
X9839314Y9043780D02*
X9843995Y9039100D01*
X9726791Y9043780D02*
X9839314D01*
X9722871Y9039860D02*
X9726791Y9043780D01*
X9514840Y9039860D02*
X9722871D01*
X9878820Y9039100D02*
X9908540Y9009380D01*
X9843995Y9039100D02*
X9878820D01*
X9936480Y8938260D02*
X10042806D01*
X9810000Y7554160D02*
Y7620000D01*
X7593500Y7669360D02*
X8829360D01*
X8863654Y8945880D02*
X8864554Y8944980D01*
X7409180Y8750300D02*
X7548880Y8890000D01*
X7302500Y7960360D02*
X7593500Y7669360D01*
X7191940Y6910000D02*
X8680000D01*
X6756400Y6474460D02*
X7191940Y6910000D01*
X12291060Y13068820D02*
X12352020Y13129781D01*
X12291060Y12811313D02*
Y13068820D01*
X12247880Y12768133D02*
X12291060Y12811313D01*
X12120880Y13045959D02*
X12202160Y13127240D01*
X12120880Y11394440D02*
Y13045959D01*
X8681720Y10187940D02*
X8760460Y10266680D01*
X8681720Y9509760D02*
Y10187940D01*
X10485120Y8336280D02*
Y8544560D01*
X10406380Y8257540D02*
X10485120Y8336280D01*
X10185400Y8257540D02*
X10406380D01*
X9299460Y10352520D02*
X9301480Y10350500D01*
X9189720Y10352520D02*
X9299460D01*
X8681720Y9509760D02*
X8856980Y9334500D01*
X9870440D01*
X10429240Y8592820D02*
X10436860D01*
X10960100Y8308340D02*
X10979740D01*
X10807700Y8125460D02*
X10833100D01*
X10789920Y8143240D02*
X10807700Y8125460D01*
X10614660Y8143240D02*
X10789920D01*
X10510520Y8039100D02*
X10614660Y8143240D01*
X10185400Y8039100D02*
X10510520D01*
X5788660Y7500620D02*
X6273800Y7015480D01*
X15295880Y10838180D02*
X15572740Y10561320D01*
X13898880Y10838180D02*
X15295880D01*
X6662420Y8034020D02*
X7340600D01*
X6600180Y8096260D02*
X6662420Y8034020D01*
X6290320Y8096260D02*
X6600180D01*
X4511040Y4137660D02*
X4624820Y4023880D01*
X4817860D01*
X4511040Y7137400D02*
X5923280Y8549640D01*
X4511040Y4137660D02*
Y7137400D01*
X7104380Y7960360D02*
X7302500D01*
X5923280Y8549640D02*
X7114540D01*
X7244080Y8420100D01*
X8011160D01*
X5882640Y8651240D02*
X7170420D01*
X5948680Y8750300D02*
X7409180D01*
X8884920Y8534400D02*
X9017000D01*
X4963160Y9570720D02*
X5882640Y8651240D01*
X4206240Y9570720D02*
X4963160D01*
X3934460Y9298940D02*
X4206240Y9570720D01*
X4048760Y10650220D02*
X5948680Y8750300D01*
X4048760Y10650220D02*
Y11595100D01*
X3205740Y12438120D02*
X4048760Y11595100D01*
X9908540Y8966200D02*
Y9009380D01*
X9304020Y9034780D02*
X9509760D01*
X9208340Y8939100D02*
X9304020Y9034780D01*
X9810000Y7554160D02*
X9854100Y7510060D01*
X8910934Y7990700D02*
X8931634Y7970000D01*
X14130000Y11090000D02*
X14589999Y11550000D01*
X14193640Y11026360D02*
X14680000Y11512721D01*
X14250208Y10969792D02*
X14760001Y11479584D01*
X14299706Y10920295D02*
X14830000Y11450589D01*
X13720000Y11090000D02*
X14130000D01*
X12690000Y10060000D02*
X13720000Y11090000D01*
X13783640Y11026360D02*
X14193640D01*
X13840208Y10969792D02*
X14250208D01*
X13889706Y10920295D02*
X14299706D01*
X14580000Y12150000D02*
X14830000Y11900000D01*
X14010001Y12150000D02*
X14580000D01*
X14560001Y12070000D02*
X14760001Y11870000D01*
X13960440Y12070000D02*
X14560001D01*
X14539999Y11990000D02*
X14680000Y11850000D01*
X13850000Y11990000D02*
X14539999D01*
X14589999Y11550000D02*
Y11830000D01*
X14500000Y11920000D02*
X14589999Y11830000D01*
X13639999Y11920000D02*
X14500000D01*
X14830000Y11450589D02*
Y11900000D01*
X14760001Y11479584D02*
Y11870000D01*
X14680000Y11512721D02*
Y11850000D01*
X10551320Y7228680D02*
X11104880D01*
X10500000Y7280000D02*
X10551320Y7228680D01*
X9900000Y7280000D02*
X10500000D01*
X6273800Y7015480D02*
X8705480D01*
X8680000Y6910000D02*
X8930000Y7160000D01*
X10640000Y6980000D02*
X10770000Y6850000D01*
X10640000Y6980000D02*
Y7110000D01*
X10740000Y7090000D02*
Y7110000D01*
Y7090000D02*
X10800000Y7030000D01*
Y6970000D02*
Y7030000D01*
Y6970000D02*
X10880000Y6890000D01*
X10840000Y7050000D02*
X10957940Y6932060D01*
X10840000Y7050000D02*
Y7110000D01*
X10940000Y7060000D02*
Y7110000D01*
X11510000Y7425200D02*
X11575200D01*
X11580000Y7430000D01*
X10979740Y8308340D02*
X11341400Y8670000D01*
X8011160Y8420100D02*
X8391060Y8800000D01*
X8728540D01*
X9908540Y8966200D02*
X9936480Y8938260D01*
X9950000Y9089840D02*
Y9254940D01*
X9870440Y9334500D02*
X9950000Y9254940D01*
X10436860Y8592820D02*
X10485120Y8544560D01*
X10085620Y8638540D02*
X10200000Y8524160D01*
Y8448680D02*
Y8524160D01*
Y8448680D02*
X10243820Y8404860D01*
X10287000Y8437160D02*
X10334100Y8390060D01*
X9804400Y8757920D02*
X10082080D01*
X10287000Y8437160D02*
Y8483000D01*
X10082080Y8757920D02*
X10145000Y8695000D01*
X10070640Y8996046D02*
X10128426Y8938260D01*
X10281920D01*
X10070640Y8996046D02*
Y9006834D01*
X13936980Y12223020D02*
Y12705080D01*
Y12223020D02*
X14010001Y12150000D01*
X13809979Y12220460D02*
Y12697460D01*
Y12220460D02*
X13960440Y12070000D01*
X13682980Y12219040D02*
Y12710160D01*
X13555980Y12224460D02*
Y12710160D01*
X9204440Y9413240D02*
X9250680D01*
X8728540Y8800000D02*
X8890000Y8638540D01*
X11341400Y8670000D02*
X11386820D01*
X11470640D01*
D55*
X9181888Y7260000D02*
X9272168D01*
X9280749Y7268580D01*
X9491420D01*
X10933540Y7679800D02*
X10962237Y7651104D01*
X10982180D01*
X9890000Y7355840D02*
X10011957D01*
X10769222Y7561958D02*
X10807700Y7523480D01*
X10261945Y7346025D02*
X10477878Y7561958D01*
X10769222D01*
X11510000Y7336200D02*
X11576200D01*
X12330140Y11961431D02*
X12664440Y12295731D01*
X12330140Y9847665D02*
Y11961431D01*
X12362180Y11948160D02*
X12796520Y12382500D01*
X12362180Y9834394D02*
Y11948160D01*
X11550276Y9067800D02*
X12330140Y9847665D01*
X11563547Y9035760D02*
X12362180Y9834394D01*
X11222489Y9067800D02*
X11550276D01*
X11167929Y9013240D02*
X11222489Y9067800D01*
X11157280Y9013240D02*
X11167929D01*
X10900500Y8756460D02*
X11157280Y9013240D01*
X11235760Y9035760D02*
X11563547D01*
X10970000Y8770000D02*
X11235760Y9035760D01*
X10970000Y8730004D02*
Y8770000D01*
X10919978Y8679983D02*
X10970000Y8730004D01*
X10933540Y7670877D02*
Y7679800D01*
X10982180Y7651104D02*
X11051384Y7581900D01*
X11308100D01*
X11031220Y7520940D02*
X11104880Y7447280D01*
X8777020Y7134860D02*
X8903960Y7261800D01*
X9080089D01*
X9180089D02*
X9181888Y7260000D01*
X9143672Y7261800D02*
X9180089D01*
X9141872Y7260000D02*
X9143672Y7261800D01*
X9081889Y7260000D02*
X9141872D01*
X9080089Y7261800D02*
X9081889Y7260000D01*
X10021771Y7346025D02*
X10261945D01*
X10011957Y7355840D02*
X10021771Y7346025D01*
X6504940Y7134860D02*
X8777020D01*
X11104880Y7316380D02*
Y7447280D01*
X6195060Y7218680D02*
X6421120D01*
X6504940Y7134860D01*
X10834100Y8690060D02*
X10900500Y8756460D01*
X12664440Y12295731D02*
Y12768580D01*
X12796520Y12382500D02*
Y12766040D01*
X10807700Y7523480D02*
X10932160D01*
X11576200Y7336200D02*
X11580000Y7340000D01*
X11308100Y7581900D02*
X11430000Y7460000D01*
Y7425200D02*
Y7460000D01*
Y7337500D02*
X11510000D01*
D56*
X10973080Y7920000D02*
X11013440Y7960360D01*
X10879000Y7920000D02*
X10973080D01*
X10860000Y7939000D02*
X10879000Y7920000D01*
X10860000Y7939000D02*
Y8010000D01*
X10854310Y7654310D02*
X10974520Y7774520D01*
X10448310Y7654310D02*
X10854310D01*
X10192620Y7398620D02*
X10448310Y7654310D01*
X10772060Y7719060D02*
X10860260Y7807260D01*
X10782769Y7776070D02*
X10846699Y7840000D01*
X10321430Y7776070D02*
X10782769D01*
X10860260Y7807260D02*
X11390958D01*
X10846699Y7840000D02*
X11377397D01*
X10470894Y9161770D02*
X10611770D01*
X10468354Y9164310D02*
X10470894Y9161770D01*
X10611770D02*
X10865560Y9415560D01*
X10334100Y9114100D02*
X10384310Y9164310D01*
X10468354D01*
X10334100Y8990060D02*
Y9114100D01*
X10360000Y9210000D02*
X10570000D01*
X10301360Y9151360D02*
X10360000Y9210000D01*
X10301360Y9051360D02*
Y9151360D01*
X10570000Y9210000D02*
X10832820Y9472820D01*
X10520000Y9250000D02*
X10780000Y9510000D01*
X10320000Y9250000D02*
X10520000D01*
X10134100Y9064100D02*
X10320000Y9250000D01*
X10134100Y9005862D02*
Y9064100D01*
Y9005862D02*
X10139980Y8999982D01*
X10780000Y10360900D02*
X11602720Y11183620D01*
X10780000Y9510000D02*
Y10360900D01*
X10832820Y9472820D02*
Y10309580D01*
X10240060Y8990060D02*
X10301360Y9051360D01*
X10234100Y8990060D02*
X10240060D01*
X10832820Y10309580D02*
X11750000Y11226760D01*
X11253370Y9003371D02*
X11683371D01*
X11010000Y8760000D02*
X11253370Y9003371D01*
X11683371D02*
X12182140Y9502140D01*
X12301220D01*
X11010000Y8480160D02*
Y8760000D01*
X10894750Y8281783D02*
Y8364910D01*
X11010000Y8480160D01*
X10890830Y8277863D02*
X10894750Y8281783D01*
X10890830Y8090046D02*
Y8277863D01*
X10866458Y8065674D02*
X10890830Y8090046D01*
X10811414Y8065674D02*
X10866458D01*
X10764520Y8018780D02*
X10811414Y8065674D01*
X10669880Y7820000D02*
X10764520Y7914640D01*
X10309100Y7820000D02*
X10669880D01*
X10206940Y7717840D02*
X10309100Y7820000D01*
X12392660Y9331019D02*
Y9502140D01*
X10440000Y7719060D02*
X10772060D01*
X10126320Y7517840D02*
X10165176D01*
X10285250Y7564310D02*
X10440000Y7719060D01*
X10211646Y7564310D02*
X10285250D01*
X10165176Y7517840D02*
X10211646Y7564310D01*
X10181255Y7409985D02*
X10192620Y7398620D01*
X10161255Y7389985D02*
X10181255Y7409985D01*
X10039980Y7389985D02*
X10161255D01*
X12578080Y9423836D02*
Y9502140D01*
X12184244Y9030000D02*
X12578080Y9423836D01*
X11932603Y9030000D02*
X12184244D01*
X11845480Y8590000D02*
Y8942877D01*
X11932603Y9030000D01*
X12485793Y9377850D02*
Y9502140D01*
X12177943Y9070000D02*
X12485793Y9377850D01*
X11926301Y9070000D02*
X12177943D01*
X11812740Y8576439D02*
Y8956439D01*
X11926301Y9070000D01*
X10321290Y7776210D02*
X10321430Y7776070D01*
X10162920Y7617840D02*
X10321290Y7776210D01*
X10126320Y7617840D02*
X10162920D01*
X12181641Y9120000D02*
X12392660Y9331019D01*
X11930000Y9120000D02*
X12181641D01*
X11780000Y8970000D02*
X11930000Y9120000D01*
X10974520Y7774520D02*
X11404520D01*
X11377397Y7840000D02*
X11557397Y8020000D01*
X11390958Y7807260D02*
X11570958Y7987260D01*
X11404520Y7774520D02*
X11584520Y7954520D01*
X11040360Y7960360D02*
X11229270Y8149270D01*
X11389270D01*
X11584520Y7954520D02*
X11887123D01*
X11570958Y7987260D02*
X11873562D01*
X11557397Y8020000D02*
X11860000D01*
X11887123Y7954520D02*
X11950000Y8017397D01*
X11873562Y7987260D02*
X11913220Y8026918D01*
Y8475959D01*
X11860000Y8020000D02*
X11873699Y8033699D01*
Y8469179D01*
X11780000Y8562877D02*
X11873699Y8469179D01*
X11812740Y8576439D02*
X11913220Y8475959D01*
X11950000Y8017397D02*
Y8485480D01*
X11845480Y8590000D02*
X11950000Y8485480D01*
X11780000Y8562877D02*
Y8970000D01*
X10865560Y9415560D02*
Y10228020D01*
X10942320Y12514580D02*
Y12595860D01*
X10596880Y12941299D02*
Y13098779D01*
Y12941299D02*
X10942320Y12595860D01*
X10477500Y13218159D02*
X10596880Y13098779D01*
X10741660Y12409170D02*
Y12641580D01*
X10477500Y12905740D02*
X10741660Y12641580D01*
X10477500Y12905740D02*
Y12964160D01*
X10556240Y12237720D02*
Y12707620D01*
X10342880Y12920979D02*
X10556240Y12707620D01*
X10223500Y13218159D02*
X10342880Y13098779D01*
Y12920979D02*
Y13098779D01*
X10223500Y12964160D02*
X10434320Y12753340D01*
Y12156440D02*
Y12753340D01*
X11574380Y8331880D02*
X11600000Y8357500D01*
X13524181Y10984180D02*
Y11248720D01*
X13352780Y10812780D02*
X13524181Y10984180D01*
X13195300Y10812780D02*
X13352780D01*
X13324181Y11131660D02*
Y11248720D01*
X13195300Y11002780D02*
X13324181Y11131660D01*
X13071300Y11195840D02*
X13124181Y11248720D01*
X13071300Y11002780D02*
Y11195840D01*
X12924181Y10959900D02*
X13071300Y10812780D01*
X12924181Y10959900D02*
Y11248720D01*
X11602720Y13063741D02*
X11676380Y13137399D01*
X11602720Y11183620D02*
Y13063741D01*
X10764520Y7914640D02*
Y8018780D01*
X11483340Y8331880D02*
X11574380D01*
X7726680Y7839120D02*
X7813040D01*
X10126320Y7717840D02*
X10206940D01*
X11389270Y8149270D02*
X11483340Y8243340D01*
Y8331880D01*
X11013440Y7960360D02*
X11040360D01*
X10865560Y10228020D02*
X11810000Y11172460D01*
Y12813980D01*
X11828780Y12832761D01*
X11750000Y11226760D02*
Y13058620D01*
X11828780Y13137399D01*
D57*
X13274440Y7035560D02*
X16055580D01*
X13170000Y7140000D02*
X13274440Y7035560D01*
X16055580D02*
X16210280Y6880860D01*
X13200000Y7000000D02*
X16030180D01*
X16160001Y6870180D01*
X13160001Y7040000D02*
X13200000Y7000000D01*
X11981180Y8747760D02*
X12019280D01*
X12052300Y8780780D02*
X12166599D01*
X12019280Y8747760D02*
X12052300Y8780780D01*
X12209779Y8610600D02*
X12390120D01*
X12174219Y8646160D02*
X12209779Y8610600D01*
X16160001Y6801600D02*
Y6870180D01*
Y6801600D02*
X16207739Y6753860D01*
X3790000Y5080000D02*
Y5170000D01*
Y5240000D01*
Y5170000D02*
X3793120Y5166880D01*
X3857261D01*
X3776880Y5066880D02*
X3790000Y5080000D01*
X3732261Y5066880D02*
X3776880D01*
X16207739Y6753860D02*
X16210280D01*
X16085820Y6806520D02*
Y6875780D01*
X3926840Y5247640D02*
X3930060Y5244420D01*
X3870960Y5303520D02*
X3926840Y5247640D01*
X16093440Y10563860D02*
X16383000D01*
X16530321Y10416540D01*
Y5057140D02*
Y10416540D01*
X16177260Y4704080D02*
X16530321Y5057140D01*
X10353040Y4704080D02*
X16177260D01*
X9519920Y3870960D02*
X10353040Y4704080D01*
X3997960Y3870960D02*
X9519920D01*
X3398520Y4470400D02*
X3997960Y3870960D01*
X3398520Y4470400D02*
Y5044440D01*
X3657600Y5303520D01*
X3870960D01*
X3930060Y5128260D02*
Y5244420D01*
X13032739Y8775700D02*
X13191519D01*
X13032739Y7881620D02*
X13186440D01*
X11861800Y7899400D02*
X11963081D01*
X13391760Y7888601D02*
Y8019980D01*
X13056799Y7553640D02*
X13391760Y7888601D01*
X11890000Y7140000D02*
X11990000Y7040000D01*
X13160001D01*
X12060000Y7140000D02*
X13170000D01*
D58*
X9373180Y9889240D02*
X9625080D01*
X9602940Y9789160D02*
Y9867100D01*
X10073900Y6241980D02*
X10304780D01*
X11592600Y8452600D02*
X11640000Y8500000D01*
X10712820Y6521520D02*
X10715680Y6518660D01*
X10256520Y6774180D02*
X10509180Y6521520D01*
X9898380Y6774180D02*
X10256520D01*
X10499160Y6521520D02*
X10509180D01*
X8906040Y9796780D02*
Y9887420D01*
X9588500Y6241580D02*
X9824860D01*
X9491980D02*
X9588500D01*
X7621220Y10414000D02*
Y10451220D01*
X7991340Y10821340D02*
X8623300D01*
X7621220Y10451220D02*
X7991340Y10821340D01*
X7541220Y10477460D02*
X7970520Y10906760D01*
X7541220Y10413999D02*
Y10477460D01*
X7970520Y10906760D02*
Y11049000D01*
X11974441Y7888040D02*
X12175141D01*
X12352020Y13249980D02*
X12462580D01*
X12352020Y12950259D02*
X12470060D01*
X11828780Y13257600D02*
X11929040D01*
X11828780Y12950259D02*
X11936800D01*
X11640000Y8500000D02*
Y8510000D01*
X10000000Y6240000D02*
X10071440D01*
X7670000Y7920000D02*
X7719860D01*
X7820000Y7933780D02*
Y7970000D01*
X7813040Y7926820D02*
X7820000Y7933780D01*
X9649460Y9913620D02*
Y10101580D01*
X9625080Y9889240D02*
X9649460Y9913620D01*
Y10101580D02*
X9898380Y10350500D01*
X11470640Y8760620D02*
Y8819360D01*
X8100000Y8210000D02*
X8120000Y8230000D01*
X8100000Y8185200D02*
Y8210000D01*
X13560001Y8330000D02*
Y8415000D01*
X9706280Y9582780D02*
Y9730500D01*
X9653500Y9530000D02*
X9706280Y9582780D01*
X9647620Y9789160D02*
X9706280Y9730500D01*
X9595440Y9692640D02*
X9636760D01*
X9326500Y9530000D02*
Y9636500D01*
X9373180Y9683180D01*
Y9699240D01*
X11160000Y9860000D02*
X11220000D01*
X9290000Y9790000D02*
X9368940D01*
X9430000Y10040000D02*
X9514260D01*
X8989060Y10039420D02*
X9069420D01*
X10507980Y6065520D02*
X10559980D01*
X11140440Y6306820D02*
Y6368980D01*
X10304780Y6391980D02*
X10372020D01*
X10568940Y6301740D02*
Y6366440D01*
X10880000Y6420000D02*
X10954480D01*
X10072360Y6334080D02*
X10195560D01*
Y6403340D01*
X9690100Y6327140D02*
Y6391980D01*
X9491980Y6339160D02*
Y6413500D01*
X16037560Y6269400D02*
X16061099Y6245860D01*
X16093440D01*
X7970520Y11049000D02*
X8442960Y11521440D01*
Y11568760D01*
X8610600Y11736400D01*
X6118820Y10408920D02*
Y10464840D01*
X6052820Y10530840D02*
X6118820Y10464840D01*
X5527040Y10530840D02*
X6052820D01*
X5259319Y10798561D02*
X5527040Y10530840D01*
X5066920Y10798561D02*
X5259319D01*
X6198820Y10408920D02*
Y10603280D01*
X6027420Y10774680D02*
X6198820Y10603280D01*
X5788660Y10774680D02*
X6027420D01*
X5671820Y10891520D02*
X5788660Y10774680D01*
X5671820Y10891520D02*
Y11541760D01*
X5474640Y11738940D02*
X5671820Y11541760D01*
X5046980Y11738940D02*
X5474640D01*
X3726180Y4657140D02*
Y4747900D01*
X3858260Y4654600D02*
Y4750440D01*
X12082780Y13248640D02*
X12200960D01*
X11564620Y13258800D02*
X11675180D01*
X11049000Y6518660D02*
X11109640D01*
X10960680D02*
X11049000D01*
X9588500Y6322060D02*
Y6400800D01*
X13210081Y8019980D02*
X13391760D01*
X9588500Y6241580D02*
Y6322060D01*
X9898380Y10350500D02*
X10472420D01*
X8817140Y9887420D02*
X8906040D01*
X8987060D01*
X10562520Y6189980D02*
X10565060D01*
X10515600D02*
X10562520D01*
X8989060Y9889420D02*
X9128000D01*
X9006040Y9700260D02*
X9007060Y9699240D01*
X8987060Y9887420D02*
X8989060Y9889420D01*
X10515600Y10208260D02*
Y10307320D01*
X10472420Y10350500D02*
X10515600Y10307320D01*
X9602940Y9867100D02*
X9625080Y9889240D01*
X8816340Y9888220D02*
X8817140Y9887420D01*
X11109640Y6518660D02*
X11117580Y6526600D01*
X10960680Y6328660D02*
X11027160D01*
X10715060Y6189980D02*
X10715680Y6190600D01*
X10715060Y6062980D02*
X10715060Y6062980D01*
X10462260Y6243320D02*
X10515600Y6189980D01*
X10462260Y6243320D02*
Y6484620D01*
X10499160Y6521520D01*
X10574020D02*
X10712820D01*
X9824860Y6241580D02*
X9826680Y6239760D01*
X10071680D02*
X10073900Y6241980D01*
X10509180Y6521520D02*
X10574020D01*
X12021820Y8018780D02*
X12166599D01*
X9602940Y9789160D02*
X9647620D01*
X11027160Y6328660D02*
X11049000Y6350500D01*
Y6446520D02*
Y6518660D01*
Y6350500D02*
Y6446520D01*
X10071440Y6240000D02*
X10071680Y6239760D01*
X9050000Y9540000D02*
Y9607500D01*
X10715060Y6062980D02*
Y6189980D01*
X10715680Y6190600D02*
Y6328660D01*
X9006040Y9700260D02*
Y9796780D01*
X9007060Y9699240D02*
X9050000D01*
X9128180D01*
D61*
X9296021Y7383979D02*
X9318200Y7361800D01*
X9391800D01*
X9620780Y7510780D02*
X9654540D01*
X9391800Y7361800D02*
X9500000Y7470000D01*
X9580000D01*
X9620780Y7510780D01*
X9348580Y7561420D02*
X9457157D01*
X9240000Y7670000D02*
X9348580Y7561420D01*
X9457157D02*
X9457537Y7561800D01*
X8890000Y7670000D02*
X9240000D01*
X9749980Y7499985D02*
Y7514400D01*
X9702580Y7561800D02*
X9749980Y7514400D01*
X9073942Y7507374D02*
X9117988Y7551420D01*
X9073942Y7491776D02*
Y7507374D01*
X9038206Y7456040D02*
X9073942Y7491776D01*
X8920528Y7456040D02*
X9038206D01*
X8858428Y7518140D02*
X8920528Y7456040D01*
X7246880Y7518140D02*
X8858428D01*
X9117988Y7551420D02*
X9258580D01*
X8780000Y7560000D02*
X8890000Y7670000D01*
X7320000Y7560000D02*
X8780000D01*
X9258580Y7551420D02*
X9296021Y7513979D01*
Y7383979D02*
Y7513979D01*
X9457537Y7561800D02*
X9702580D01*
X7104380Y7775620D02*
X7320000Y7560000D01*
X7104380Y7775620D02*
Y7871460D01*
X6852920Y7912100D02*
X7246880Y7518140D01*
X6850000Y6110000D02*
X6927500D01*
D66*
X17302480Y11738610D02*
D03*
D75*
X12624180Y11348720D02*
D03*
D76*
X12524180Y11248720D02*
D03*
X12724180D02*
D03*
X12924181D02*
D03*
X13124181D02*
D03*
X13324181D02*
D03*
X13524181D02*
D03*
X13724181D02*
D03*
X12524180Y11448720D02*
D03*
X12724180D02*
D03*
X12924181D02*
D03*
X13124181D02*
D03*
X13324181D02*
D03*
X13524181D02*
D03*
D77*
X13724181D02*
D03*
D78*
X2531840Y12851199D02*
D03*
X2781840D02*
D03*
D79*
X2156840Y13271201D02*
D03*
Y13071201D02*
D03*
X2756840Y13471201D02*
D03*
X2556840D02*
D03*
X9969500Y13218159D02*
D03*
X10223500Y12964160D02*
D03*
Y13218159D02*
D03*
X10477500Y12964160D02*
D03*
Y13218159D02*
D03*
X10731500Y12964160D02*
D03*
Y13218159D02*
D03*
X10985500Y12964160D02*
D03*
Y13218159D02*
D03*
X6852920Y8166100D02*
D03*
D80*
X2156840Y13171201D02*
D03*
D81*
X2656840Y13471201D02*
D03*
D82*
Y12851199D02*
D03*
D83*
X9969500Y12964160D02*
D03*
D84*
X6852920Y7912100D02*
D03*
D85*
X4165600Y12913361D02*
D03*
Y13373360D02*
D03*
Y12453360D02*
D03*
D86*
X3916680Y8373860D02*
D03*
Y8023860D02*
D03*
D87*
X5657320Y10673839D02*
D03*
X6617320D02*
D03*
X7082320Y10673840D02*
D03*
X8042320D02*
D03*
D88*
Y10053840D02*
D03*
X7562320D02*
D03*
X6137320D02*
D03*
X6617320D02*
D03*
X8275320Y11483840D02*
D03*
X5425320D02*
D03*
D89*
X8275320Y13763840D02*
D03*
Y12763840D02*
D03*
Y11763840D02*
D03*
Y11013840D02*
D03*
Y10513840D02*
D03*
X5425320Y13263840D02*
D03*
Y12263840D02*
D03*
Y11263840D02*
D03*
Y10263840D02*
D03*
X6850320D02*
D03*
Y11263840D02*
D03*
Y12263840D02*
D03*
Y13263840D02*
D03*
D90*
X9739981Y7409985D02*
D03*
X9629981D02*
D03*
X15699741Y8309610D02*
D03*
Y8375250D02*
D03*
X10640000Y8800000D02*
D03*
X10860000Y8010000D02*
D03*
X9359981Y8889982D02*
D03*
X15572740Y10152380D02*
D03*
X11666220Y6421100D02*
D03*
X9240000Y7420000D02*
D03*
X15572740Y10086340D02*
D03*
X9161880Y7317840D02*
D03*
X11666220Y6341100D02*
D03*
X9260000Y7310000D02*
D03*
X15699741Y7546340D02*
D03*
Y7613250D02*
D03*
X9361880Y7317840D02*
D03*
X9449361Y7209155D02*
D03*
X9329981Y7209986D02*
D03*
X9539981Y7319985D02*
D03*
X9630000Y7310000D02*
D03*
X10831796Y7711796D02*
D03*
X10854040Y7410000D02*
D03*
X15862300Y9211310D02*
D03*
X9261880Y8182280D02*
D03*
X15862300Y9144000D02*
D03*
X9161880Y8182280D02*
D03*
X9649981Y8009984D02*
D03*
X9060000Y7880000D02*
D03*
X16080740Y8122920D02*
D03*
Y8055610D02*
D03*
X9229660Y7914500D02*
D03*
X9350000Y7910000D02*
D03*
X10535920Y8191500D02*
D03*
X9740000Y7220000D02*
D03*
X9730000Y7310000D02*
D03*
X9539981Y7419985D02*
D03*
X9550000Y7710000D02*
D03*
X9450000D02*
D03*
X15699741Y9831070D02*
D03*
X12961639Y6461760D02*
D03*
X15699741Y9897110D02*
D03*
X13041640Y6461760D02*
D03*
X9161880Y7617840D02*
D03*
Y7717840D02*
D03*
X8991685Y7210620D02*
D03*
X9059982Y7109986D02*
D03*
X9439981D02*
D03*
X9159982D02*
D03*
X8961120Y7110000D02*
D03*
X9130000Y7380000D02*
D03*
X9429981Y7509985D02*
D03*
X9339981Y7499985D02*
D03*
X15699741Y8690610D02*
D03*
Y8756250D02*
D03*
X8950000Y8320000D02*
D03*
X8949982Y8219984D02*
D03*
X16210280Y8817610D02*
D03*
Y8884920D02*
D03*
X16322040Y9039860D02*
D03*
X16209039Y8945850D02*
D03*
X9569981Y8979982D02*
D03*
X9249981Y8679983D02*
D03*
X15699741Y7928610D02*
D03*
Y7994250D02*
D03*
X9860000Y7713700D02*
D03*
X10029980Y8029984D02*
D03*
X9866160Y8195640D02*
D03*
X9749980Y8079984D02*
D03*
X9739981Y8199984D02*
D03*
X13691859Y8531860D02*
D03*
X15247620Y10415260D02*
D03*
X15699741Y10408080D02*
D03*
X9161880Y8282280D02*
D03*
X15699741Y10341610D02*
D03*
X15247620Y10335260D02*
D03*
X13611861Y8531860D02*
D03*
X9161880Y8382280D02*
D03*
X15699741Y6851250D02*
D03*
Y6785610D02*
D03*
X9061880Y7717840D02*
D03*
X8961880D02*
D03*
X9139982Y7909984D02*
D03*
X9161880Y8482280D02*
D03*
Y8582280D02*
D03*
X15676880Y3919220D02*
D03*
X15742920D02*
D03*
X8958540Y8585620D02*
D03*
Y8485620D02*
D03*
X8690000Y8740000D02*
D03*
Y8610000D02*
D03*
X8530000Y8600000D02*
D03*
Y8740000D02*
D03*
X15699741Y7103110D02*
D03*
X12839973Y9149982D02*
D03*
X9448800Y8011160D02*
D03*
X9556420D02*
D03*
X9440000Y7900000D02*
D03*
X9453880Y8196580D02*
D03*
X9650000Y7900000D02*
D03*
X9550000D02*
D03*
X9554100Y8190060D02*
D03*
X9342120Y7806100D02*
D03*
X8966200Y8016240D02*
D03*
X9040000Y8100000D02*
D03*
X9549981Y8379983D02*
D03*
X9563100Y8478520D02*
D03*
X9854100Y8490060D02*
D03*
X8839982Y8899982D02*
D03*
X10329979Y8779982D02*
D03*
X10139980Y8999982D02*
D03*
X10019980Y8989982D02*
D03*
X10248900Y9093200D02*
D03*
X11290000Y9310000D02*
D03*
X10839978Y8109984D02*
D03*
X10933540Y7670877D02*
D03*
X10039980Y7389985D02*
D03*
X12578080Y9502140D02*
D03*
X10126320Y7517840D02*
D03*
X12485793Y9502140D02*
D03*
X10126320Y7617840D02*
D03*
X12393507Y9502140D02*
D03*
X11370000Y8000000D02*
D03*
X11270000D02*
D03*
X11370000Y8060000D02*
D03*
X11031220Y7520940D02*
D03*
X11981180Y8747760D02*
D03*
X12364720Y8928100D02*
D03*
Y8848100D02*
D03*
Y8688100D02*
D03*
X11640000Y8510000D02*
D03*
X10330000Y7710000D02*
D03*
X9749980Y7499985D02*
D03*
X9739981Y7889984D02*
D03*
X9859980Y7909984D02*
D03*
X9449981Y7819984D02*
D03*
X9649981D02*
D03*
X9859980D02*
D03*
X10140000Y7810500D02*
D03*
X9749980Y7809984D02*
D03*
X10845800Y7302500D02*
D03*
X9160000Y7507460D02*
D03*
X10033000Y7901940D02*
D03*
X9754260Y7610220D02*
D03*
X9040000Y11030000D02*
D03*
Y11530000D02*
D03*
X8790940Y9692620D02*
D03*
X7675880Y9833600D02*
D03*
X8790940Y9612620D02*
D03*
X7675880Y9753600D02*
D03*
X8592820Y9583400D02*
D03*
X6027420Y9583416D02*
D03*
X8592820Y9503400D02*
D03*
X6027420Y9503416D02*
D03*
X9454100Y9190060D02*
D03*
X9740000Y7020000D02*
D03*
X9690000Y6870000D02*
D03*
X15890240Y8754110D02*
D03*
X15699741Y8624570D02*
D03*
X10370000Y9360000D02*
D03*
X10280000D02*
D03*
X10430000D02*
D03*
X9151620Y12227560D02*
D03*
Y12170664D02*
D03*
Y12113768D02*
D03*
Y12056872D02*
D03*
Y11999976D02*
D03*
Y11943080D02*
D03*
X9161780Y11440160D02*
D03*
Y11378184D02*
D03*
Y11316208D02*
D03*
Y11254232D02*
D03*
Y11192256D02*
D03*
Y11130280D02*
D03*
X15699741Y8436610D02*
D03*
X15699699Y9446260D02*
D03*
X15699741Y9579610D02*
D03*
Y9516110D02*
D03*
X15585440Y9547860D02*
D03*
X15699741Y9386570D02*
D03*
X10200000Y6910000D02*
D03*
X10120000D02*
D03*
X10030000D02*
D03*
Y6620000D02*
D03*
X12842239Y9075420D02*
D03*
Y8995420D02*
D03*
X15699741Y6470250D02*
D03*
X16212820Y6499860D02*
D03*
X15699741Y6404610D02*
D03*
X16212820Y6372860D02*
D03*
X15699741Y6341110D02*
D03*
X8840000Y7940000D02*
D03*
X9880000Y9200160D02*
D03*
X9759980Y8979982D02*
D03*
X9659981Y9089982D02*
D03*
X10030460Y8595360D02*
D03*
X10030000Y8890000D02*
D03*
X10919978Y8679983D02*
D03*
X7942580Y8667740D02*
D03*
X7670000Y7920000D02*
D03*
X7820000Y7970000D02*
D03*
X9654040Y7610000D02*
D03*
X9860000D02*
D03*
X11470000Y8820000D02*
D03*
X8120000Y8230000D02*
D03*
X7960000Y8180000D02*
D03*
X16080740Y9579610D02*
D03*
X14734540Y9629140D02*
D03*
X12680960Y6962140D02*
D03*
X12600960D02*
D03*
X16080740Y9643110D02*
D03*
X14734540Y9709140D02*
D03*
X9161880Y7217840D02*
D03*
X10200000Y6620000D02*
D03*
X10110000D02*
D03*
X9636760Y9692640D02*
D03*
X11480000Y9130000D02*
D03*
Y9220000D02*
D03*
X11290000Y9130000D02*
D03*
Y9220000D02*
D03*
X9540000Y6870000D02*
D03*
X9610000D02*
D03*
X9680000Y6680000D02*
D03*
X9610000D02*
D03*
X9540000D02*
D03*
X16320000Y10620000D02*
D03*
X16330000Y10100000D02*
D03*
X16310001Y8720000D02*
D03*
X16080000Y8700000D02*
D03*
X16150000Y8220000D02*
D03*
X16189999Y7940000D02*
D03*
X16195039Y7134860D02*
D03*
X15800000Y6950000D02*
D03*
X15585440Y7261860D02*
D03*
X15810001Y7430000D02*
D03*
X15585440Y7642860D02*
D03*
X15800000Y7710000D02*
D03*
Y8090000D02*
D03*
X15589999Y9110000D02*
D03*
X15810001Y9730000D02*
D03*
X16093440Y7515860D02*
D03*
X16322040D02*
D03*
Y7642860D02*
D03*
X16220441Y8023860D02*
D03*
Y8150860D02*
D03*
X16322040Y8531860D02*
D03*
X16093440Y9039860D02*
D03*
X16220441Y9166860D02*
D03*
X16195039Y9420860D02*
D03*
X16220441Y9547860D02*
D03*
Y9674860D02*
D03*
X16093440Y9801860D02*
D03*
X16220441Y10182860D02*
D03*
X15712440Y10563860D02*
D03*
X15585440Y10309860D02*
D03*
X15712440Y10182860D02*
D03*
Y10055860D02*
D03*
X15585440Y9928860D02*
D03*
X15712440Y9293860D02*
D03*
Y8912860D02*
D03*
X15585440Y8785860D02*
D03*
X15712440Y8531860D02*
D03*
X15585440Y8404860D02*
D03*
Y8023860D02*
D03*
Y6880860D02*
D03*
Y6499860D02*
D03*
X15712440Y6626860D02*
D03*
Y5610860D02*
D03*
X15585440Y5737860D02*
D03*
X15712440Y5864860D02*
D03*
X15585440Y6118860D02*
D03*
X15712440Y6245860D02*
D03*
X11040000Y7690000D02*
D03*
X10200000Y9360000D02*
D03*
X10450000Y9120000D02*
D03*
X10440000Y9540000D02*
D03*
X10360000D02*
D03*
X10280000D02*
D03*
X10210000D02*
D03*
X10080000D02*
D03*
X10020000D02*
D03*
Y9350000D02*
D03*
X9460000Y8990000D02*
D03*
X16207739Y10341610D02*
D03*
X9460000Y8890000D02*
D03*
X16207739Y10407250D02*
D03*
X10240000Y8090000D02*
D03*
X10650000Y8010000D02*
D03*
X9360000Y8490000D02*
D03*
X10640000Y8900000D02*
D03*
X9354100Y8990060D02*
D03*
X8580000Y7210000D02*
D03*
Y7270000D02*
D03*
X8680000Y7210000D02*
D03*
Y7270000D02*
D03*
Y7360000D02*
D03*
Y7420000D02*
D03*
X8580000Y7360000D02*
D03*
Y7420000D02*
D03*
X8959982Y7409985D02*
D03*
X15953740Y7183120D02*
D03*
X9029982Y7509985D02*
D03*
X15953740Y7249160D02*
D03*
X9243300Y7499260D02*
D03*
Y7599260D02*
D03*
X16080740Y8436610D02*
D03*
Y8503920D02*
D03*
X9062720Y8018780D02*
D03*
X15890240Y8817610D02*
D03*
X9061880Y8282280D02*
D03*
X15890240Y8884920D02*
D03*
X9061880Y8182280D02*
D03*
X16080740Y9198610D02*
D03*
Y9265920D02*
D03*
X9160000Y6920000D02*
D03*
X11390000Y10090000D02*
D03*
X13839999Y12120000D02*
D03*
X13720000D02*
D03*
X13589999D02*
D03*
X8500000Y8250000D02*
D03*
X8320000D02*
D03*
X8570000Y7730000D02*
D03*
X8490000D02*
D03*
X8420000D02*
D03*
X8500000Y7910000D02*
D03*
X8570000D02*
D03*
X8420000D02*
D03*
X9044100Y8900060D02*
D03*
X10243820Y8404860D02*
D03*
X10429240Y8592820D02*
D03*
X10939780Y7993380D02*
D03*
X10960100Y8308340D02*
D03*
X15699741Y7232250D02*
D03*
Y7166610D02*
D03*
Y7293610D02*
D03*
X10033000Y7513320D02*
D03*
X10642600Y7894320D02*
D03*
X9189720Y11590020D02*
D03*
X9480620Y11520240D02*
D03*
X9493180Y11045120D02*
D03*
X9169400Y10972800D02*
D03*
X8908980Y12282100D02*
D03*
Y11883320D02*
D03*
X9170600Y11791880D02*
D03*
X9500800Y11852840D02*
D03*
X9484360Y12311380D02*
D03*
X9174480Y12374880D02*
D03*
X9565640Y8788400D02*
D03*
X9552940Y8689340D02*
D03*
X9756140Y8900160D02*
D03*
X16085820Y6875780D02*
D03*
X15699741Y6722110D02*
D03*
X15577820Y5613400D02*
D03*
X15704820Y5737860D02*
D03*
X15862300Y9271000D02*
D03*
X13898880Y10838180D02*
D03*
X15572740Y10561320D02*
D03*
X16332201Y7132320D02*
D03*
X16212820Y6753860D02*
D03*
X16075661Y6375400D02*
D03*
X16088361Y6118860D02*
D03*
Y5991860D02*
D03*
X16212820Y5737860D02*
D03*
X16088361Y5862320D02*
D03*
X16085820Y5740400D02*
D03*
X16088361Y5610860D02*
D03*
X7942580Y8587740D02*
D03*
X9862820Y8585200D02*
D03*
X9941560Y8707120D02*
D03*
X10334100Y8590060D02*
D03*
Y8390060D02*
D03*
Y8490060D02*
D03*
X6027420Y9423416D02*
D03*
X12684760Y10292080D02*
D03*
X12509500Y10248900D02*
D03*
X12485793Y9708727D02*
D03*
X12578080Y9705340D02*
D03*
X12842239Y8915420D02*
D03*
X12301220Y9502140D02*
D03*
X16080740Y8373110D02*
D03*
Y8182610D02*
D03*
X9151620Y8088500D02*
D03*
X12760960Y6962140D02*
D03*
X13771860Y8531860D02*
D03*
X14734540Y9789140D02*
D03*
X15247620Y10255260D02*
D03*
Y10495260D02*
D03*
X15699741Y10278110D02*
D03*
X15572740Y10215880D02*
D03*
Y10022840D02*
D03*
X15699741Y10468610D02*
D03*
X9847580Y8696960D02*
D03*
X9454100Y8590060D02*
D03*
X16093440Y10309860D02*
D03*
X16207739Y10278110D02*
D03*
X9461880Y9082280D02*
D03*
X16329660Y7007860D02*
D03*
X16212820Y5864860D02*
D03*
Y5610860D02*
D03*
X15699741Y6531610D02*
D03*
X11666220Y6261100D02*
D03*
Y6501100D02*
D03*
X15699741Y8055610D02*
D03*
X9525000Y7109460D02*
D03*
X9461880Y8382280D02*
D03*
X9661880D02*
D03*
X9862820Y8382000D02*
D03*
X9261880Y9082280D02*
D03*
X9454100Y8490060D02*
D03*
X9654100D02*
D03*
X9761880Y8482280D02*
D03*
X10022840Y8483600D02*
D03*
X9461880Y8682280D02*
D03*
X9654100Y8590060D02*
D03*
X9754100D02*
D03*
X9661880Y8682280D02*
D03*
X9654100Y8790060D02*
D03*
X7675881Y9671919D02*
D03*
X10030460Y8196580D02*
D03*
X9654100Y8290060D02*
D03*
X10126320Y8382280D02*
D03*
X10426320Y8482280D02*
D03*
X10660000Y8590000D02*
D03*
X9661880Y7717840D02*
D03*
X9154100Y8890060D02*
D03*
X9161880Y8982280D02*
D03*
X9561880Y7817840D02*
D03*
X10126320Y7717840D02*
D03*
X10026320Y7617840D02*
D03*
X15699741Y8817610D02*
D03*
X7942580Y8827740D02*
D03*
X9159240Y7018020D02*
D03*
X6027420Y9663416D02*
D03*
X9060180Y8384540D02*
D03*
X9761220Y8285480D02*
D03*
X10022840Y8282940D02*
D03*
X9558020D02*
D03*
X8592820Y9423400D02*
D03*
X8790940Y9772620D02*
D03*
X8592820Y9663400D02*
D03*
X7675881Y9911919D02*
D03*
X16093440Y10436860D02*
D03*
X16210280Y9960610D02*
D03*
X16093440Y9928860D02*
D03*
X16080740Y9706610D02*
D03*
X16210280Y9770110D02*
D03*
X16436340Y9598660D02*
D03*
X16080740Y9325610D02*
D03*
Y9135110D02*
D03*
X16210280Y8754110D02*
D03*
Y8246110D02*
D03*
X16080740Y7801610D02*
D03*
X15953740Y7310120D02*
D03*
Y7119620D02*
D03*
X16212820Y6880860D02*
D03*
X16093440Y6626860D02*
D03*
Y10563860D02*
D03*
X16207739Y10468610D02*
D03*
X16080740Y8563610D02*
D03*
Y9516110D02*
D03*
X15890240Y8944610D02*
D03*
X16080740Y7992110D02*
D03*
X15699741Y6912610D02*
D03*
Y7674610D02*
D03*
Y7484110D02*
D03*
Y7865110D02*
D03*
Y8243570D02*
D03*
X9050020Y8702040D02*
D03*
X16436340Y9408160D02*
D03*
X16210280Y8436610D02*
D03*
X15862300Y9080500D02*
D03*
X12881641Y6461760D02*
D03*
X13121640D02*
D03*
X15699741Y9767570D02*
D03*
Y9960610D02*
D03*
X14734540Y9549140D02*
D03*
X15806419Y3919220D02*
D03*
X15615919D02*
D03*
X10234100Y8990060D02*
D03*
X10334100D02*
D03*
X10834100D02*
D03*
X10534100D02*
D03*
X10634100D02*
D03*
X10834100Y8690060D02*
D03*
X9654540Y7510780D02*
D03*
X9561880Y7517840D02*
D03*
X16080740Y7611110D02*
D03*
X16212820Y5991860D02*
D03*
Y6118860D02*
D03*
Y6626860D02*
D03*
Y6245860D02*
D03*
X16093440D02*
D03*
X16080740Y7741920D02*
D03*
Y7674610D02*
D03*
X9061880Y7217840D02*
D03*
X9554100Y8890060D02*
D03*
X9854100Y8990060D02*
D03*
Y8890060D02*
D03*
X9054100Y9090060D02*
D03*
Y8990060D02*
D03*
X8954100Y9190060D02*
D03*
X9054100D02*
D03*
X9354100Y8590060D02*
D03*
X9554100D02*
D03*
X8947500Y8410000D02*
D03*
X9454100Y8290060D02*
D03*
X9754100Y8390060D02*
D03*
X9854100Y8290060D02*
D03*
X9674860Y9194800D02*
D03*
X9254100Y8590060D02*
D03*
X9250680Y8806180D02*
D03*
X9151620Y8696960D02*
D03*
X8947780Y8795380D02*
D03*
X9456420Y8793480D02*
D03*
X9939020Y8595360D02*
D03*
X10043160Y8709660D02*
D03*
X9342120Y8305800D02*
D03*
X9937160Y8018780D02*
D03*
X9654100Y8190060D02*
D03*
X9550000Y7610000D02*
D03*
X9854100Y7510060D02*
D03*
X9860000Y7410000D02*
D03*
X10050000Y7100000D02*
D03*
X10340000Y7220000D02*
D03*
X10740000Y7010000D02*
D03*
X11070000Y7150000D02*
D03*
X8940000Y7500000D02*
D03*
X9350000Y7410000D02*
D03*
X10026320Y7817840D02*
D03*
X9750000Y7720000D02*
D03*
X9450000Y7610000D02*
D03*
X8960000D02*
D03*
X10030000Y8390000D02*
D03*
X10630000Y7390000D02*
D03*
X10932160Y7523480D02*
D03*
X10659979Y7517999D02*
D03*
X10530000Y7610000D02*
D03*
X10340000Y7910000D02*
D03*
X10250000Y8210000D02*
D03*
X10550000Y8320000D02*
D03*
X10240000Y8590000D02*
D03*
X10540000Y8610000D02*
D03*
X10840000Y8780000D02*
D03*
X10849978Y8919982D02*
D03*
X10740000Y9090000D02*
D03*
X11030000Y9190000D02*
D03*
X10040000Y7720000D02*
D03*
X10230000Y7520000D02*
D03*
X10850000Y8420000D02*
D03*
X12520960Y6962140D02*
D03*
X10640000Y7110000D02*
D03*
X10740000D02*
D03*
X10840000D02*
D03*
X10940000D02*
D03*
X16210280Y8376920D02*
D03*
Y8309610D02*
D03*
X11580000Y8110000D02*
D03*
X11820000D02*
D03*
X11740000D02*
D03*
X11660000D02*
D03*
X9361880Y7617840D02*
D03*
X12364720Y8768100D02*
D03*
X9361880Y7717840D02*
D03*
X10940000Y8100000D02*
D03*
X11250000Y7110000D02*
D03*
X11350000D02*
D03*
X10830000Y8290000D02*
D03*
Y8600000D02*
D03*
X10940000Y8610000D02*
D03*
X13531860Y8531860D02*
D03*
X11250000Y7360000D02*
D03*
X11350000D02*
D03*
Y7410000D02*
D03*
X11250000D02*
D03*
Y7690000D02*
D03*
Y7630000D02*
D03*
X11350000Y7690000D02*
D03*
Y7630000D02*
D03*
X11270000Y8340000D02*
D03*
Y8280000D02*
D03*
X11370000Y8340000D02*
D03*
Y8280000D02*
D03*
X11270000Y8060000D02*
D03*
X11250000Y8900000D02*
D03*
Y8840000D02*
D03*
X11350000Y8900000D02*
D03*
Y8840000D02*
D03*
X8958540Y9085620D02*
D03*
X16436340Y9471660D02*
D03*
X8958540Y8985620D02*
D03*
X16436340Y9537700D02*
D03*
X8700000Y8440000D02*
D03*
Y8380000D02*
D03*
X8800000Y8440000D02*
D03*
Y8380000D02*
D03*
X8720000Y8210000D02*
D03*
X8321220Y8152320D02*
D03*
X8501220D02*
D03*
X8320000Y8330000D02*
D03*
X8820000Y8210000D02*
D03*
Y8160000D02*
D03*
X8720000D02*
D03*
X8500000Y8330000D02*
D03*
X11250000Y7170000D02*
D03*
X11350000D02*
D03*
X10030000Y9190000D02*
D03*
X9254100Y9190060D02*
D03*
X8790940Y9532620D02*
D03*
X9250680Y9413240D02*
D03*
X9430000Y9410000D02*
D03*
X9034780Y9410700D02*
D03*
X9490000Y9410000D02*
D03*
X9430000Y9530000D02*
D03*
X9490000D02*
D03*
X8660000Y9020000D02*
D03*
X8560000D02*
D03*
X8660000Y8950000D02*
D03*
X8560000D02*
D03*
X7942580Y8747740D02*
D03*
X9360940Y8782280D02*
D03*
Y8682280D02*
D03*
X11480000Y9310000D02*
D03*
X10100000Y9350000D02*
D03*
X9861880Y9082280D02*
D03*
X10030000Y9090000D02*
D03*
X9661880Y8982280D02*
D03*
Y8882280D02*
D03*
X16210280Y9833610D02*
D03*
Y9900920D02*
D03*
X10440000Y8980000D02*
D03*
X10734100Y8990060D02*
D03*
X10130000Y8890000D02*
D03*
X9761880Y8782280D02*
D03*
Y8682280D02*
D03*
D91*
X7584440Y7901940D02*
D03*
X5914460Y11226058D02*
D03*
X6154460D02*
D03*
X6234140D02*
D03*
X6394160D02*
D03*
X6314460Y10942320D02*
D03*
X6074460D02*
D03*
X7340620Y11220978D02*
D03*
X7580620D02*
D03*
X7660620D02*
D03*
X7820320D02*
D03*
X7740620Y10937240D02*
D03*
X7500620D02*
D03*
X10000000Y6240000D02*
D03*
X11221720Y8646160D02*
D03*
X10942320Y12514580D02*
D03*
X10741660Y12409170D02*
D03*
X10556240Y12237720D02*
D03*
X10434320Y12156440D02*
D03*
X6819986Y6319987D02*
D03*
X3870000Y9110000D02*
D03*
X7270000Y7700000D02*
D03*
X7470000Y7640000D02*
D03*
X13560001Y8330000D02*
D03*
X13389999Y8520000D02*
D03*
X11220000Y9860000D02*
D03*
X9030000Y10210000D02*
D03*
X10880000Y6420000D02*
D03*
X4010000Y7310000D02*
D03*
X3930000D02*
D03*
X3860000D02*
D03*
X3490000Y10150000D02*
D03*
X4750000Y11760000D02*
D03*
Y11930000D02*
D03*
X4740000Y10800000D02*
D03*
Y10640000D02*
D03*
X8790000Y11840000D02*
D03*
X8950000Y11720000D02*
D03*
X8940000Y10840000D02*
D03*
Y10640000D02*
D03*
X13130000Y10900000D02*
D03*
X13139999Y11080000D02*
D03*
X5690000Y8470000D02*
D03*
X3790000Y5240000D02*
D03*
X7487920Y8526780D02*
D03*
X12203360Y12807880D02*
D03*
X11677580Y12810420D02*
D03*
X12799060Y13304520D02*
D03*
X12664440Y13309599D02*
D03*
X8796020Y10198100D02*
D03*
X9301480Y10350500D02*
D03*
X11544300Y8514080D02*
D03*
X5788660Y7500620D02*
D03*
X3284220Y7716260D02*
D03*
X3286760Y7861040D02*
D03*
X3304540Y8089640D02*
D03*
X3375660Y7718800D02*
D03*
Y7861040D02*
D03*
X3210560Y8087100D02*
D03*
X3348240Y7205980D02*
D03*
X6192520Y7221220D02*
D03*
X6756400Y6474460D02*
D03*
X6290320Y8096260D02*
D03*
X10761980Y3939540D02*
D03*
X10457180D02*
D03*
X9949180D02*
D03*
X10660380D02*
D03*
X10558780D02*
D03*
X10355580D02*
D03*
X10152380D02*
D03*
X10050780D02*
D03*
X10253980D02*
D03*
X3671520Y5116880D02*
D03*
X3858260Y4654600D02*
D03*
X3726180Y4657140D02*
D03*
X7297420Y8257540D02*
D03*
X7211060Y8163560D02*
D03*
Y8257540D02*
D03*
X7104380Y7960360D02*
D03*
Y7871460D02*
D03*
X5240020Y10510520D02*
D03*
X4817860Y4023880D02*
D03*
X3934460Y9298940D02*
D03*
X3205740Y12438120D02*
D03*
X3261360Y7487920D02*
D03*
X8458200Y10525760D02*
D03*
Y10614660D02*
D03*
X8463280Y11943080D02*
D03*
Y12026900D02*
D03*
X5242560Y11940540D02*
D03*
Y12029440D02*
D03*
X5240020Y10591800D02*
D03*
X7137400Y12359640D02*
D03*
X7289800D02*
D03*
X7442200D02*
D03*
X7594600D02*
D03*
X7747000D02*
D03*
X7899400D02*
D03*
X8051800D02*
D03*
X6588760Y12357100D02*
D03*
X6436360D02*
D03*
X6283960D02*
D03*
X6131560D02*
D03*
X5979160D02*
D03*
X5826760D02*
D03*
X5674360D02*
D03*
X6198820Y10408920D02*
D03*
X5798820D02*
D03*
X6038820D02*
D03*
X7221220Y10414000D02*
D03*
X7462780D02*
D03*
X5994460Y10942320D02*
D03*
X7420620Y10937240D02*
D03*
X7260620D02*
D03*
X7900620D02*
D03*
X7180620D02*
D03*
X5834460Y10942320D02*
D03*
X5754460D02*
D03*
X7941220Y10414000D02*
D03*
X7701220D02*
D03*
X7621220D02*
D03*
X7541220Y10413999D02*
D03*
X6518820Y10408920D02*
D03*
X6278820D02*
D03*
X6118820D02*
D03*
X13931900Y13103860D02*
D03*
X13809979D02*
D03*
X13682980D02*
D03*
X13558521D02*
D03*
X3726180Y5000040D02*
D03*
X3858260Y4994960D02*
D03*
X12471400Y12948920D02*
D03*
X12082780Y13248640D02*
D03*
X12463780Y13251180D02*
D03*
X11938000Y12951460D02*
D03*
Y13248640D02*
D03*
X11564620Y13258800D02*
D03*
X12390120Y8610600D02*
D03*
X9898380Y6774180D02*
D03*
X11049000Y6518660D02*
D03*
X10195560Y6403340D02*
D03*
X9588500Y6400800D02*
D03*
X9491980Y6413500D02*
D03*
X11861800Y7899400D02*
D03*
X13032739Y7881620D02*
D03*
Y8775700D02*
D03*
X9588500Y6241580D02*
D03*
Y6322060D02*
D03*
X8906040Y9887420D02*
D03*
X3197860Y7858500D02*
D03*
X3200400Y7716260D02*
D03*
X3909060Y7584180D02*
D03*
X2567940Y12024100D02*
D03*
X2646680Y12026640D02*
D03*
X2722880D02*
D03*
X2567940Y11947900D02*
D03*
X2710000Y11950000D02*
D03*
X2565400Y11871700D02*
D03*
X2649220Y11874240D02*
D03*
X4318620Y9295520D02*
D03*
X2537460Y7553700D02*
D03*
X2618740D02*
D03*
X2697480D02*
D03*
X2773680D02*
D03*
X2849880D02*
D03*
X2542540Y8005820D02*
D03*
X2616200D02*
D03*
X2697480Y8003280D02*
D03*
X2778760Y8000740D02*
D03*
X4686300Y6581140D02*
D03*
X4795520D02*
D03*
X4912360D02*
D03*
X5029200D02*
D03*
X5151120D02*
D03*
Y6690360D02*
D03*
X5029200D02*
D03*
X4912360D02*
D03*
X4795520D02*
D03*
X4686300D02*
D03*
X4889500Y5621020D02*
D03*
X4986020Y5623560D02*
D03*
X5080000Y5621020D02*
D03*
X5179060Y5623560D02*
D03*
X4363720Y4620260D02*
D03*
Y4716780D02*
D03*
Y4810760D02*
D03*
Y4912360D02*
D03*
Y5016500D02*
D03*
X4349780Y4088100D02*
D03*
X4799800Y4119080D02*
D03*
X6289040Y5923280D02*
D03*
X6365240D02*
D03*
X6245860Y5222240D02*
D03*
X6327140Y5257800D02*
D03*
X7221220Y5443220D02*
D03*
X7223760Y5702000D02*
D03*
X10518140Y9974580D02*
D03*
X10515600Y10208260D02*
D03*
X9926320Y10205720D02*
D03*
X9918700Y10116820D02*
D03*
X9936480Y9888220D02*
D03*
Y9702800D02*
D03*
X9834880Y10005060D02*
D03*
X10614660Y10073640D02*
D03*
X8816340Y9888220D02*
D03*
X9290000Y9790000D02*
D03*
X9070000Y10040000D02*
D03*
X9430000D02*
D03*
X9690100Y6327140D02*
D03*
X10375900Y6388100D02*
D03*
X11140440Y6306820D02*
D03*
X10568940Y6301740D02*
D03*
X10507980Y6065520D02*
D03*
X10020759Y12758420D02*
D03*
X10020300Y13403580D02*
D03*
X10018219Y12555220D02*
D03*
X10020300Y13606779D02*
D03*
X6410000Y6730000D02*
D03*
X10147300Y9530080D02*
D03*
X12021820Y8018780D02*
D03*
X12664440Y12768580D02*
D03*
X12796520Y12766040D02*
D03*
X4559300Y8597640D02*
D03*
Y8686540D02*
D03*
X4561840Y8854180D02*
D03*
X4559300Y8775440D02*
D03*
X4475480Y8600180D02*
D03*
Y8689080D02*
D03*
X4478020Y8854180D02*
D03*
Y8775440D02*
D03*
X6474460Y10942320D02*
D03*
X10513060Y9872980D02*
D03*
X10510520Y9761220D02*
D03*
X9936480Y9799320D02*
D03*
X13936980Y12705080D02*
D03*
X13809979Y12697460D02*
D03*
X13682980Y12710160D02*
D03*
X13555980D02*
D03*
X13056799Y7553640D02*
D03*
X12014200Y7305800D02*
D03*
X12010000Y7660000D02*
D03*
X12060000Y7140000D02*
D03*
X11890000D02*
D03*
X11049000Y6446520D02*
D03*
X11580000Y7340000D02*
D03*
Y7430000D02*
D03*
X9050000Y9540000D02*
D03*
X11700000Y6990000D02*
D03*
D92*
X7169986Y5539989D02*
D03*
X7117080Y5504180D02*
D03*
X7169986Y5649989D02*
D03*
X6799986Y5169990D02*
D03*
X6258812Y5621020D02*
D03*
X4830000Y5060000D02*
D03*
X7085800Y4995800D02*
D03*
X6850000Y6110000D02*
D03*
X6410000Y6120000D02*
D03*
X7000000Y6080000D02*
D03*
X6996639Y5996639D02*
D03*
X6946639D02*
D03*
X7806360Y5608320D02*
D03*
X7466800Y5626100D02*
D03*
Y5580380D02*
D03*
X7375360Y5242560D02*
D03*
X7329640D02*
D03*
X7283920D02*
D03*
X6714890Y6347460D02*
D03*
X5725510Y5462150D02*
D03*
X5726200Y5619180D02*
D03*
X6222200Y5572760D02*
D03*
X6707340Y4904740D02*
D03*
X6770840Y4937760D02*
D03*
X6646380D02*
D03*
X6371120Y6350000D02*
D03*
X4703280Y6258560D02*
D03*
X6374600Y4841240D02*
D03*
Y6238240D02*
D03*
X6333019Y6237440D02*
D03*
X6290780Y6238240D02*
D03*
X6493980Y6019800D02*
D03*
X6737020Y6045200D02*
D03*
X6501600Y5046180D02*
D03*
X6308560Y4942840D02*
D03*
X6265380D02*
D03*
X6222200D02*
D03*
X6417780Y5046980D02*
D03*
X6918160Y5041900D02*
D03*
X6996900Y5046980D02*
D03*
X6547320Y6114580D02*
D03*
X6996900Y5145240D02*
D03*
X6445720Y5161280D02*
D03*
X7268680Y5887720D02*
D03*
X7326959Y5892000D02*
D03*
X7390600Y5885180D02*
D03*
X7040080Y4838700D02*
D03*
X6742900Y5156200D02*
D03*
X4890000Y5060000D02*
D03*
X4940000D02*
D03*
X4990000D02*
D03*
X6800000Y6070000D02*
D03*
X7300000Y4470000D02*
D03*
X7350000D02*
D03*
X7300000Y4400000D02*
D03*
X7350000D02*
D03*
D93*
X6911810Y5377180D02*
D03*
X6714960D02*
D03*
X6518110D02*
D03*
X6616535D02*
D03*
X6813385D02*
D03*
X6911810Y5473700D02*
D03*
X6714960D02*
D03*
X6518110D02*
D03*
X6616535D02*
D03*
X6813385D02*
D03*
X6914350Y5671820D02*
D03*
X6520650D02*
D03*
X6619075D02*
D03*
X6815925D02*
D03*
X6914350Y5768340D02*
D03*
X6520650D02*
D03*
X6619075D02*
D03*
X6816560D02*
D03*
X6717500D02*
D03*
X6714960Y5671820D02*
D03*
D94*
X10289120Y10003660D02*
D03*
Y9893660D02*
D03*
X10179120D02*
D03*
Y10003660D02*
D03*
D112*
X3732261Y5166880D02*
D03*
Y5116880D02*
D03*
Y5066880D02*
D03*
X3857261D02*
D03*
Y5116880D02*
D03*
Y5166880D02*
D03*
D113*
X9326500Y9530000D02*
D03*
X9653500D02*
D03*
D114*
X10958140Y6328660D02*
D03*
Y6518660D02*
D03*
Y6423660D02*
D03*
X10713140Y6328660D02*
D03*
Y6518660D02*
D03*
X10071680Y6334760D02*
D03*
Y6429760D02*
D03*
Y6239760D02*
D03*
X9826680D02*
D03*
Y6429760D02*
D03*
Y6334760D02*
D03*
X9373180Y9699240D02*
D03*
Y9889240D02*
D03*
Y9794240D02*
D03*
X9128180Y9699240D02*
D03*
Y9889240D02*
D03*
D115*
X8668640Y11437620D02*
D03*
X8938640D02*
D03*
X5006340Y11094720D02*
D03*
X4736340D02*
D03*
X5006720Y11451340D02*
D03*
X4736720D02*
D03*
X8668640Y11121640D02*
D03*
X8938640D02*
D03*
D116*
X8610600Y11936400D02*
D03*
Y11736400D02*
D03*
X5066920Y10598561D02*
D03*
Y10798561D02*
D03*
X5046980Y11938941D02*
D03*
Y11738940D02*
D03*
X8623300Y10621339D02*
D03*
Y10821340D02*
D03*
D117*
X13196599Y8780780D02*
D03*
D118*
Y8653780D02*
D03*
Y8526780D02*
D03*
Y8399780D02*
D03*
Y8272780D02*
D03*
Y8145780D02*
D03*
Y8018780D02*
D03*
Y7891780D02*
D03*
X12166599Y8780780D02*
D03*
Y8653780D02*
D03*
Y8526780D02*
D03*
Y8399780D02*
D03*
Y8272780D02*
D03*
Y8145780D02*
D03*
Y8018780D02*
D03*
Y7891780D02*
D03*
D119*
X11154860Y9765280D02*
D03*
Y9955280D02*
D03*
X11369860Y9765280D02*
D03*
Y9955280D02*
D03*
D120*
X11262360Y9765280D02*
D03*
Y9955280D02*
D03*
D121*
X10421620Y9851160D02*
D03*
Y10046160D02*
D03*
Y9916160D02*
D03*
Y9981160D02*
D03*
X10046620Y9851160D02*
D03*
Y10046160D02*
D03*
Y9916160D02*
D03*
Y9981160D02*
D03*
D122*
X10331620Y9761160D02*
D03*
Y10136160D02*
D03*
X10266620Y9761160D02*
D03*
X10201620D02*
D03*
X10136620D02*
D03*
X10266620Y10136160D02*
D03*
X10201620D02*
D03*
X10136620D02*
D03*
D123*
X10234120Y9948660D02*
D03*
D124*
X17302480Y10995660D02*
D03*
D125*
X4945000Y5121120D02*
D03*
%TF.MD5,7317b01925e201e9c1d4fd25b8985e85*%
M02*
