G04 Layer_Color=16711935*
%FSLAX45Y45*%
%MOMM*%
%TF.FileFunction,Other,Mechanical_1*%
%TF.Part,Single*%
G01*
G75*
%TA.AperFunction,NonConductor*%
%ADD131C,0.12700*%
%ADD209C,0.40000*%
%ADD210C,0.03000*%
D131*
X15928348Y8073935D02*
X15986394D01*
X15997276Y8070307D01*
X16000903Y8066679D01*
X16004532Y8059423D01*
Y8052168D01*
X16000903Y8044912D01*
X15997276Y8041284D01*
X15986394Y8037657D01*
X15979137D01*
X15942859Y8093525D02*
X15939232Y8100780D01*
X15928348Y8111663D01*
X16004532D01*
D209*
X1780540Y3657599D02*
X1780540Y14190981D01*
X17302480Y14190979D01*
X17302480Y3657599D02*
X17302480Y14190979D01*
X1780540Y3657599D02*
X17302480D01*
D210*
X3260000Y14139999D02*
X3279994D01*
X3289990Y14130003D01*
X3279994Y14120006D01*
X3260000D01*
X3274995D01*
Y14139999D01*
X3260000Y14110010D02*
Y14100014D01*
Y14105011D01*
X3289990D01*
Y14110010D01*
X3260000Y14070023D02*
Y14080019D01*
X3264999Y14085017D01*
X3274995D01*
X3279994Y14080019D01*
Y14070023D01*
X3274995Y14065024D01*
X3269997D01*
Y14085017D01*
X3279994Y14055028D02*
X3260000D01*
X3269997D01*
X3274995Y14050029D01*
X3279994Y14045032D01*
Y14040031D01*
X3284992Y14020039D02*
X3279994D01*
Y14025037D01*
Y14015041D01*
Y14020039D01*
X3264999D01*
X3260000Y14015041D01*
Y13970055D02*
X3289990D01*
Y13955060D01*
X3284992Y13950063D01*
X3274995D01*
X3269997Y13955060D01*
Y13970055D01*
X3284992Y13920071D02*
X3289990Y13925070D01*
Y13935066D01*
X3284992Y13940065D01*
X3264999D01*
X3260000Y13935066D01*
Y13925070D01*
X3264999Y13920071D01*
X3289990Y13910075D02*
X3260000D01*
Y13895079D01*
X3264999Y13890080D01*
X3269997D01*
X3274995Y13895079D01*
Y13910075D01*
Y13895079D01*
X3279994Y13890080D01*
X3284992D01*
X3289990Y13895079D01*
Y13910075D01*
X3260000Y13845094D02*
X3284992D01*
X3274995D01*
Y13850095D01*
Y13840097D01*
Y13845094D01*
X3284992D01*
X3289990Y13840097D01*
X3279994Y13820103D02*
Y13810107D01*
X3274995Y13805109D01*
X3260000D01*
Y13820103D01*
X3264999Y13825102D01*
X3269997Y13820103D01*
Y13805109D01*
X3289990Y13795113D02*
X3260000D01*
Y13780116D01*
X3264999Y13775117D01*
X3269997D01*
X3274995D01*
X3279994Y13780116D01*
Y13795113D01*
X3284992Y13730133D02*
X3279994D01*
Y13735130D01*
Y13725134D01*
Y13730133D01*
X3264999D01*
X3260000Y13725134D01*
Y13705141D02*
Y13695145D01*
X3264999Y13690146D01*
X3274995D01*
X3279994Y13695145D01*
Y13705141D01*
X3274995Y13710139D01*
X3264999D01*
X3260000Y13705141D01*
Y13650159D02*
Y13635164D01*
X3264999Y13630165D01*
X3269997Y13635164D01*
Y13645160D01*
X3274995Y13650159D01*
X3279994Y13645160D01*
Y13630165D01*
X3260000Y13620169D02*
Y13610172D01*
Y13615170D01*
X3289990D01*
Y13620169D01*
X3260000Y13590178D02*
Y13580182D01*
X3264999Y13575183D01*
X3274995D01*
X3279994Y13580182D01*
Y13590178D01*
X3274995Y13595177D01*
X3264999D01*
X3260000Y13590178D01*
X3284992Y13560188D02*
X3279994D01*
Y13565186D01*
Y13555190D01*
Y13560188D01*
X3264999D01*
X3260000Y13555190D01*
X3289990Y13490211D02*
X3260000D01*
Y13505206D01*
X3264999Y13510204D01*
X3274995D01*
X3279994Y13505206D01*
Y13490211D01*
X3260000Y13465219D02*
Y13475217D01*
X3264999Y13480214D01*
X3274995D01*
X3279994Y13475217D01*
Y13465219D01*
X3274995Y13460220D01*
X3269997D01*
Y13480214D01*
X3284992Y13445226D02*
X3279994D01*
Y13450224D01*
Y13440227D01*
Y13445226D01*
X3264999D01*
X3260000Y13440227D01*
X3279994Y13420235D02*
Y13410237D01*
X3274995Y13405238D01*
X3260000D01*
Y13420235D01*
X3264999Y13425232D01*
X3269997Y13420235D01*
Y13405238D01*
X3260000Y13395242D02*
Y13385245D01*
Y13390244D01*
X3279994D01*
Y13395242D01*
X3260000Y13370250D02*
Y13360252D01*
Y13365251D01*
X3289990D01*
Y13370250D01*
X3260000Y13345258D02*
Y13330263D01*
X3264999Y13325264D01*
X3269997Y13330263D01*
Y13340260D01*
X3274995Y13345258D01*
X3279994Y13340260D01*
Y13325264D01*
X3310000Y14139999D02*
X3329994D01*
X3339990Y14130003D01*
X3329994Y14120006D01*
X3310000D01*
X3324995D01*
Y14139999D01*
X3310000Y14110010D02*
Y14095013D01*
X3314998Y14090016D01*
X3319997Y14095013D01*
Y14105011D01*
X3324995Y14110010D01*
X3329994Y14105011D01*
Y14090016D01*
X3310000Y14080019D02*
Y14065024D01*
X3314998Y14060027D01*
X3319997Y14065024D01*
Y14075021D01*
X3324995Y14080019D01*
X3329994Y14075021D01*
Y14060027D01*
X3310000Y14050029D02*
Y14040031D01*
Y14045032D01*
X3329994D01*
Y14050029D01*
X3300003Y14015041D02*
Y14010042D01*
X3305002Y14005045D01*
X3329994D01*
Y14020039D01*
X3324995Y14025037D01*
X3314998D01*
X3310000Y14020039D01*
Y14005045D01*
Y13995047D02*
X3329994D01*
Y13980052D01*
X3324995Y13975053D01*
X3310000D01*
Y13935066D02*
X3339990D01*
X3319997D02*
X3329994Y13920071D01*
X3319997Y13935066D02*
X3310000Y13920071D01*
Y13890080D02*
Y13900078D01*
X3314998Y13905077D01*
X3324995D01*
X3329994Y13900078D01*
Y13890080D01*
X3324995Y13885081D01*
X3319997D01*
Y13905077D01*
X3310000Y13860091D02*
Y13870087D01*
X3314998Y13875085D01*
X3324995D01*
X3329994Y13870087D01*
Y13860091D01*
X3324995Y13855092D01*
X3319997D01*
Y13875085D01*
X3300003Y13845094D02*
X3329994D01*
Y13830099D01*
X3324995Y13825102D01*
X3314998D01*
X3310000Y13830099D01*
Y13845094D01*
X3324995Y13815105D02*
Y13795113D01*
X3310000Y13780116D02*
Y13770120D01*
X3314998Y13765121D01*
X3324995D01*
X3329994Y13770120D01*
Y13780116D01*
X3324995Y13785115D01*
X3314998D01*
X3310000Y13780116D01*
X3329994Y13755125D02*
X3314998D01*
X3310000Y13750127D01*
Y13735130D01*
X3329994D01*
X3334992Y13720135D02*
X3329994D01*
Y13725134D01*
Y13715138D01*
Y13720135D01*
X3314998D01*
X3310000Y13715138D01*
X3329994Y13665154D02*
Y13655157D01*
X3324995Y13650159D01*
X3310000D01*
Y13665154D01*
X3314998Y13670152D01*
X3319997Y13665154D01*
Y13650159D01*
X3329994Y13640163D02*
X3310000D01*
X3319997D01*
X3324995Y13635162D01*
X3329994Y13630165D01*
Y13625166D01*
X3310000Y13595177D02*
Y13605173D01*
X3314998Y13610172D01*
X3324995D01*
X3329994Y13605173D01*
Y13595177D01*
X3324995Y13590178D01*
X3319997D01*
Y13610172D01*
X3329994Y13575183D02*
Y13565186D01*
X3324995Y13560188D01*
X3310000D01*
Y13575183D01*
X3314998Y13580180D01*
X3319997Y13575183D01*
Y13560188D01*
X3334992Y13515202D02*
X3329994D01*
Y13520201D01*
Y13510204D01*
Y13515202D01*
X3314998D01*
X3310000Y13510204D01*
Y13490211D02*
Y13480214D01*
X3314998Y13475215D01*
X3324995D01*
X3329994Y13480214D01*
Y13490211D01*
X3324995Y13495209D01*
X3314998D01*
X3310000Y13490211D01*
Y13435228D02*
Y13420233D01*
X3314998Y13415234D01*
X3319997Y13420233D01*
Y13430231D01*
X3324995Y13435228D01*
X3329994Y13430231D01*
Y13415234D01*
X3310000Y13405238D02*
Y13395241D01*
Y13400240D01*
X3339990D01*
Y13405238D01*
X3310000Y13375249D02*
Y13365251D01*
X3314998Y13360252D01*
X3324995D01*
X3329994Y13365251D01*
Y13375249D01*
X3324995Y13380246D01*
X3314998D01*
X3310000Y13375249D01*
X3334992Y13345258D02*
X3329994D01*
Y13350256D01*
Y13340259D01*
Y13345258D01*
X3314998D01*
X3310000Y13340259D01*
X3210000Y14139999D02*
X3239990D01*
X3229994Y14130003D01*
X3239990Y14120006D01*
X3210000D01*
Y14095013D02*
Y14105011D01*
X3214998Y14110010D01*
X3224995D01*
X3229994Y14105011D01*
Y14095013D01*
X3224995Y14090016D01*
X3219997D01*
Y14110010D01*
X3229994Y14060027D02*
Y14075021D01*
X3224995Y14080019D01*
X3214998D01*
X3210000Y14075021D01*
Y14060027D01*
X3239990Y14050029D02*
X3210000D01*
X3224995D01*
X3229994Y14045032D01*
Y14035034D01*
X3224995Y14030035D01*
X3210000D01*
Y13990048D02*
Y13980052D01*
Y13985049D01*
X3239990D01*
X3234992Y13990048D01*
X3224995Y13935066D02*
Y13915073D01*
X3234992Y13855092D02*
X3239990Y13860091D01*
Y13870087D01*
X3234992Y13875085D01*
X3229994D01*
X3224995Y13870087D01*
Y13860091D01*
X3219997Y13855092D01*
X3214998D01*
X3210000Y13860091D01*
Y13870087D01*
X3214998Y13875085D01*
X3210000Y13845094D02*
Y13835098D01*
Y13840097D01*
X3239990D01*
Y13845094D01*
X3210000Y13815105D02*
Y13805109D01*
X3214998Y13800110D01*
X3224995D01*
X3229994Y13805109D01*
Y13815105D01*
X3224995Y13820103D01*
X3214998D01*
X3210000Y13815105D01*
X3234992Y13785115D02*
X3229994D01*
Y13790112D01*
Y13780116D01*
Y13785115D01*
X3214998D01*
X3210000Y13780116D01*
X3229994Y13715138D02*
Y13730133D01*
X3224995Y13735130D01*
X3214998D01*
X3210000Y13730133D01*
Y13715138D01*
X3229994Y13705141D02*
X3214998D01*
X3210000Y13700143D01*
Y13685147D01*
X3229994D01*
X3234992Y13670152D02*
X3229994D01*
Y13675151D01*
Y13665154D01*
Y13670152D01*
X3214998D01*
X3210000Y13665154D01*
X3224995Y13650159D02*
Y13630165D01*
X3210000Y13615170D02*
Y13605173D01*
X3214998Y13600175D01*
X3224995D01*
X3229994Y13605173D01*
Y13615170D01*
X3224995Y13620169D01*
X3214998D01*
X3210000Y13615170D01*
X3229994Y13590178D02*
X3214998D01*
X3210000Y13585181D01*
Y13570184D01*
X3229994D01*
X3234992Y13555190D02*
X3229994D01*
Y13560188D01*
Y13550191D01*
Y13555190D01*
X3214998D01*
X3210000Y13550191D01*
X3160000Y14139999D02*
X3189990D01*
X3179994Y14130003D01*
X3189990Y14120006D01*
X3160000D01*
Y14095013D02*
Y14105011D01*
X3164998Y14110010D01*
X3174995D01*
X3179994Y14105011D01*
Y14095013D01*
X3174995Y14090016D01*
X3169997D01*
Y14110010D01*
X3179994Y14060027D02*
Y14075021D01*
X3174995Y14080019D01*
X3164998D01*
X3160000Y14075021D01*
Y14060027D01*
X3189990Y14050029D02*
X3160000D01*
X3174995D01*
X3179994Y14045032D01*
Y14035034D01*
X3174995Y14030035D01*
X3160000D01*
Y13970055D02*
Y13990048D01*
X3179994Y13970055D01*
X3184992D01*
X3189990Y13975053D01*
Y13985049D01*
X3184992Y13990048D01*
X3174995Y13930067D02*
Y13910074D01*
X3184992Y13850095D02*
X3189990Y13855092D01*
Y13865089D01*
X3184992Y13870087D01*
X3164998D01*
X3160000Y13865089D01*
Y13855092D01*
X3164998Y13850095D01*
X3160000Y13840097D02*
Y13830099D01*
Y13835098D01*
X3189990D01*
Y13840097D01*
X3160000Y13800110D02*
Y13810107D01*
X3164998Y13815105D01*
X3174995D01*
X3179994Y13810107D01*
Y13800110D01*
X3174995Y13795113D01*
X3169997D01*
Y13815105D01*
X3179994Y13780116D02*
Y13770120D01*
X3174995Y13765121D01*
X3160000D01*
Y13780116D01*
X3164998Y13785115D01*
X3169997Y13780116D01*
Y13765121D01*
X3179994Y13755125D02*
X3160000D01*
X3169997D01*
X3174995Y13750127D01*
X3179994Y13745128D01*
Y13740129D01*
Y13720135D02*
Y13710139D01*
X3174995Y13705141D01*
X3160000D01*
Y13720135D01*
X3164998Y13725134D01*
X3169997Y13720135D01*
Y13705141D01*
X3160000Y13695145D02*
X3179994D01*
Y13680148D01*
X3174995Y13675150D01*
X3160000D01*
X3179994Y13645160D02*
Y13660155D01*
X3174995Y13665154D01*
X3164998D01*
X3160000Y13660155D01*
Y13645160D01*
Y13620168D02*
Y13630165D01*
X3164998Y13635162D01*
X3174995D01*
X3179994Y13630165D01*
Y13620168D01*
X3174995Y13615170D01*
X3169997D01*
Y13635162D01*
X3155002Y13600175D02*
X3160000Y13595177D01*
X3164998D01*
Y13600175D01*
X3160000D01*
Y13595177D01*
X3155002Y13600175D01*
X3150003Y13605173D01*
X3160000Y13545193D02*
X3179994D01*
Y13540195D01*
X3174995Y13535196D01*
X3160000D01*
X3174995D01*
X3179994Y13530197D01*
X3174995Y13525198D01*
X3160000D01*
Y13510204D02*
Y13500208D01*
X3164998Y13495209D01*
X3174995D01*
X3179994Y13500208D01*
Y13510204D01*
X3174995Y13515202D01*
X3164998D01*
X3160000Y13510204D01*
X3179994Y13485213D02*
X3160000Y13475215D01*
X3179994Y13465218D01*
X3160000Y13440227D02*
Y13450223D01*
X3164998Y13455222D01*
X3174995D01*
X3179994Y13450223D01*
Y13440227D01*
X3174995Y13435228D01*
X3169997D01*
Y13455222D01*
X3184992Y13390244D02*
X3179994D01*
Y13395241D01*
Y13385245D01*
Y13390244D01*
X3164998D01*
X3160000Y13385245D01*
Y13365251D02*
Y13355254D01*
X3164998Y13350256D01*
X3174995D01*
X3179994Y13355254D01*
Y13365251D01*
X3174995Y13370248D01*
X3164998D01*
X3160000Y13365251D01*
Y13310269D02*
Y13300272D01*
Y13305270D01*
X3179994D01*
Y13310269D01*
X3160000Y13285277D02*
X3179994D01*
Y13270282D01*
X3174995Y13265283D01*
X3160000D01*
X3184992Y13250288D02*
X3179994D01*
Y13255287D01*
Y13245290D01*
Y13250288D01*
X3164998D01*
X3160000Y13245290D01*
Y13215300D02*
Y13225296D01*
X3164998Y13230295D01*
X3174995D01*
X3179994Y13225296D01*
Y13215300D01*
X3174995Y13210301D01*
X3169997D01*
Y13230295D01*
X3179994Y13200305D02*
X3160000D01*
X3169997D01*
X3174995Y13195306D01*
X3179994Y13190308D01*
Y13185309D01*
X3160000Y13170314D02*
X3179994D01*
Y13155319D01*
X3174995Y13150320D01*
X3160000D01*
X3179994Y13135326D02*
Y13125330D01*
X3174995Y13120329D01*
X3160000D01*
Y13135326D01*
X3164998Y13140324D01*
X3169997Y13135326D01*
Y13120329D01*
X3160000Y13110333D02*
Y13100337D01*
Y13105334D01*
X3189990D01*
Y13110333D01*
X3150003Y13055351D02*
X3179994D01*
Y13040356D01*
X3174995Y13035358D01*
X3164998D01*
X3160000Y13040356D01*
Y13055351D01*
Y13025362D02*
Y13015366D01*
Y13020363D01*
X3189990D01*
Y13025362D01*
X3179994Y12995370D02*
Y12985374D01*
X3174995Y12980376D01*
X3160000D01*
Y12995370D01*
X3164998Y13000369D01*
X3169997Y12995370D01*
Y12980376D01*
X3160000Y12970380D02*
X3179994D01*
Y12955383D01*
X3174995Y12950386D01*
X3160000D01*
Y12925394D02*
Y12935390D01*
X3164998Y12940388D01*
X3174995D01*
X3179994Y12935390D01*
Y12925394D01*
X3174995Y12920395D01*
X3169997D01*
Y12940388D01*
X3160000Y12880408D02*
Y12870412D01*
Y12875410D01*
X3179994D01*
Y12880408D01*
X3160000Y12850418D02*
X3184992D01*
X3174995D01*
Y12855417D01*
Y12845419D01*
Y12850418D01*
X3184992D01*
X3189990Y12845419D01*
X3150003Y12800433D02*
X3179994D01*
Y12785439D01*
X3174995Y12780441D01*
X3164998D01*
X3160000Y12785439D01*
Y12800433D01*
X3179994Y12770444D02*
X3160000D01*
X3169997D01*
X3174995Y12765446D01*
X3179994Y12760447D01*
Y12755449D01*
X3160000Y12725459D02*
Y12735455D01*
X3164998Y12740454D01*
X3174995D01*
X3179994Y12735455D01*
Y12725459D01*
X3174995Y12720460D01*
X3169997D01*
Y12740454D01*
X3160000Y12710464D02*
Y12695468D01*
X3164998Y12690470D01*
X3169997Y12695468D01*
Y12705465D01*
X3174995Y12710464D01*
X3179994Y12705465D01*
Y12690470D01*
X3160000Y12665478D02*
Y12675475D01*
X3164998Y12680473D01*
X3174995D01*
X3179994Y12675475D01*
Y12665478D01*
X3174995Y12660480D01*
X3169997D01*
Y12680473D01*
X3160000Y12650483D02*
X3179994D01*
Y12635488D01*
X3174995Y12630489D01*
X3160000D01*
X3184992Y12615494D02*
X3179994D01*
Y12620493D01*
Y12610496D01*
Y12615494D01*
X3164998D01*
X3160000Y12610496D01*
%TF.MD5,cba6a590637559e63d877a5ec1c95ffa*%
M02*
