M48
;Layer_Color=9474304
;FILE_FORMAT=2:5
INCH,LZ
;TYPE=PLATED
T1F00S00C0.00700
T2F00S00C0.00787
T3F00S00C0.00800
T4F00S00C0.01000
T5F00S00C0.03000
T6F00S00C0.03543
T7F00S00C0.03543
T8F00S00C0.03740
T9F00S00C0.03937
T10F00S00C0.04134
T11F00S00C0.06102
T12F00S00C0.07283
T13F00S00C0.10630
;TYPE=NON_PLATED
T14F00S00C0.05000
%
T01
X0601181Y01488
X028937Y0173228
X0287402
Y0175984
X028937
X0277168Y01905
X0278969Y0196685
X0275468Y01987
X0272369Y01985
X0275468Y0202569
X0267716Y0203543
X0265469Y0203
X0266568Y01944
X0264069Y01931
X0261668Y01944
X0255968Y0198669
X0252668Y01987
X0253768Y02032
X0248369Y01946
X0246669
X0244969
X0250969Y01906
X0244969Y02194
X024641Y02213
X0225441Y0221228
X0225414Y0215045
X0196457Y0199213
X0194488
X019252
X0190157
X0185169Y02464
X0247669Y02456
X0249331Y0245568
X0250969Y02456
X0250832Y025
X0252362Y0240945
X0257769Y0240732
X0255668Y0237
X0265237Y0238
X0267717Y0238976
X0269685Y0240551
X027559Y023937
X0275458Y0236088
X027349
X0286169Y02318
X0288463Y0231968
X0290968Y02317
X0293969Y02215
Y02197
X0282283Y021811
X02802Y02167
X0282283Y0222441
X0286769Y02064
X0288568
X0290369
X0307337Y02208
X02999Y02682
X0264366Y02499
T02
X0400753Y0389514
X0405083
Y0393845
X0400753
T03
X0634466Y0206407
X0637402Y0206496
X0640551
X0643701
X06422Y02412
X0637244Y024252
X0637264Y0244901
X0637244Y024752
Y0249921
X0632244Y025372
Y025872
X0637244Y0262521
Y026492
Y026752
Y026992
X0637544Y0274721
Y027772
X0632244Y027872
Y0273721
X0642244Y028372
Y0289721
Y0292721
Y0298721
Y030472
Y030772
X0652244Y030972
Y030372
Y0297721
Y0294721
Y028872
Y028272
Y027972
Y0273721
X0652344Y026992
Y026752
Y026492
Y0262521
X0657144Y0259921
X0657344Y0257521
Y0254921
X0657144Y025252
X0657244Y0249921
Y024752
Y024492
Y024252
X06625Y02436
X06598Y02363
X0652244Y023872
X0632244
X0661417Y0261417
X0662244Y0269721
Y0272721
X065748Y0276378
Y0291732
Y0306693
X0632244Y0298721
Y0293721
X05602Y0277099
Y027395
Y02708
Y026765
X05509Y019285
Y01897
X0533Y018975
Y01866
X05756Y018495
Y01818
X0588976Y0176772
Y0173622
X06Y0193701
Y019685
Y02
Y020315
X0505118Y0218504
Y0221654
Y0224803
Y0227953
X04593Y02465
Y024965
Y0252799
Y0255949
X044685Y0279921
Y0282283
X0442913
Y0279921
X0435827Y0281496
X0430709Y0279921
X0426772
X0422835
Y0275984
X0418898Y0279921
X0418504Y0290945
X0419684Y0295984
X0414567Y0299606
X0406693Y0303543
X0407087Y0311417
X0399213Y03075
X0398674Y0303852
X0395276Y0303937
X0394737Y0307789
X0395Y03111
X0388188Y0311417
Y0307873
X0388189Y0303689
Y0299606
X0387957Y0295672
X03839Y02957
X03801
X03767Y02962
X0375984Y0299606
Y0303543
X0372047
X0368578Y0303852
Y0299915
X0372047Y0299606
X0371259Y0295669
X0367716Y0295275
X036391Y0295247
X0363779Y0292126
X036811Y0291732
X0368578Y0288104
X0364567Y0287795
X0360704Y0288104
X0358576Y0290925
X0355906Y0287008
X0356767Y0284167
X03603Y02835
X03601Y02798
X0356692Y0279921
X03528Y0279921
X03606Y02763
X036063Y0272441
X037559Y0270472
X0378346
X0381496
X03834Y02763
X0383465Y0284252
X03834Y02878
X038Y0287658
X03753Y02877
X03755Y02912
X0379133Y0291732
X0383464
X0388189Y0291732
X0395275Y0290944
X0395Y02958
X0398674Y0295978
Y0299915
X0394737
X0384026Y0299615
X038008Y0299606
X0380389Y0303852
X0383858Y0303937
X0383857Y030748
X0383464Y0310629
X0379921Y0311024
X0379921Y0307873
X0376452Y0307789
X0375984Y0311024
X0371654
X0372046Y0307873
X03678Y0307327
X036811Y0311417
X0363372Y0311595
X0359842Y0311417
X0356693Y0310236
X0356767Y0303852
X0360704
Y0299915
X036391Y0299184
X036063Y0295569
X0355511Y0295669
X0351969Y0295276
X0351968Y0291732
X0352756Y0299606
X035283Y0303852
X0337402Y0304331
X0334252
X0331496
Y0311417
X0334646
X0337402
X0337795Y0292126
Y0289764
Y0286221
Y0283858
X0341732
Y0286221
Y0289764
Y0292126
X03678Y02841
X0372022Y0283825
X0371653Y0279921
X03751Y02799
X037559Y0262992
X0378346
X0381102
X0394882Y026063
X0398031
X0401575
Y0272047
X0398425
X0394882
X0395669Y0279528
X0407087Y0284252
X0402756Y0296063
X04304Y02962
X04343Y02961
X0434646Y0302756
X0430454Y0302003
X0426449Y0303614
X0427324Y0291732
X0427Y02875
X0442913Y0289764
Y0291732
X044685
Y0289764
Y0300394
Y0302756
X0442913
Y0300394
X0419Y03108
X0301969Y0311811
X0307874Y0313779
X03022Y0380784
X03022Y0384
Y038715
X03022Y0390233
X02373Y0380449
Y03773
Y037415
Y0371001
X03158Y0371
Y037415
Y0377299
Y0380449
X032126Y0380709
Y0383858
Y0387008
Y0390158
X0337008Y0355512
Y0353543
X0340945
Y0355512
X0348031Y0350393
X0352698Y0353765
Y0357702
X0356461Y0357876
Y0353939
X0356067Y0350396
X0360398Y0350002
X0360704Y0353633
X0368272Y0353939
X0368503Y0349999
X0372441Y035
X0376146Y0350002
X0376771Y0353543
X0380389Y0353633
Y0349696
X0380083Y0346065
X03766Y0346
X03761Y03421
X0372515Y0341822
X0372209Y0338191
X0368272
X0368541Y0341822
Y0345759
X03723Y03462
X0372441Y0353937
X0372515Y035757
X0372209Y0361813
X0364335
X0364641Y035757
X03642Y03467
X0364173Y0341732
X0364335Y0338191
X0360704Y0337885
Y0333948
Y0330011
Y0326074
X0356767
Y0322137
X0360704
X0364641
X03603Y0318445
X0355906Y0318898
X03568Y03157
X0353Y03153
X0348031Y0312598
X0347244Y032126
Y0323228
X0343307
Y032126
X0334694Y0320957
X0334646Y0324803
Y0327953
X0327559
Y0324803
X0327607Y0320957
X0319685Y0324016
X0313386Y0322047
X03127Y03381
Y034125
Y0344399
Y0347549
X0335827Y0344094
Y0338583
X0342126Y0338976
Y0344094
X034252Y0332283
Y0329921
X0346457
Y0332283
X0352264Y0331102
X0352698Y033408
Y0338017
X03563Y03426
X03603Y03424
X0352275Y0346275
X0352524Y0361813
X0356461
X03557Y03705
X03642Y03706
X037126Y0370472
X0373622
Y0375197
X037126
X03794Y03816
X0394488Y037559
X039685
X0401968
X0404724
X0407874
X0411024
X041063Y0368504
X0408268
X0404724
X0401575
X0397638Y036811
X0394488
X0394882Y0361811
Y0357874
X0394487Y0353936
X0394882Y035
X0398819
X0399212Y035433
X0402917Y0353939
X0406854
X0411024Y0353543
X0414728Y0353939
X0418665
X0418898Y0350394
Y0346457
X0426772Y0345669
X0426539Y0342128
X0426378Y0338583
X0430709Y0338976
X042992Y0341732
X0427165Y035118
X0426539Y0353939
X0422602
X0422835Y0357874
X0411417Y0359055
X04035Y0358
X0406692Y0345669
X0406854Y0338191
X040315Y0338189
X04033Y03309
X0406854Y0330317
Y0334254
X0410485Y0333948
X04106Y03383
X0414961Y0338976
X0419685Y0338189
X0427165Y0331496
X0426378Y0326378
X04315Y03271
X0430709Y0318898
X04307Y03147
X0427559Y0315354
X0426771Y0319291
X0419291Y0315354
X04148Y03225
X0415354Y0327559
X0403543Y0323228
X040315Y0318504
X0394881Y0316141
X0391227Y03157
X0388432Y0322663
X0387957Y032638
X03843Y03262
X0383464Y0322834
X0380083Y0322443
X0376146
X03763Y03261
X0380083Y032638
X0380389Y0330011
X038402Y0330317
X0384326Y0333948
X0387957Y0334254
X03883Y0338
X03913Y03384
X03949
X03946Y0334
X0394882Y0330315
X0398674Y0330011
X03946Y03261
X03949Y03227
X03883Y033
X0375984Y0329921
X0372515Y0330011
X0372209Y032638
X03722Y03227
X037201Y0315724
X0376377Y0315747
X0379921
X0383857Y0318503
X0380083Y0334254
Y0338191
X0376146
X03765Y03338
X0372209Y0334254
X0368504Y0334252
X0367961Y0327161
X03567Y03301
X0352362Y0327559
X0352361Y0323621
X038402Y0338191
X0384326Y0341822
X0380389
X0384326Y0345759
X03841Y03504
X0384251Y0353543
X0387957Y0353939
Y0350002
X03877Y03424
X03914Y03428
X03954Y03429
X0388263Y035757
X0388976Y0362211
X03809Y0362
X0380314Y0357873
X0434252Y0361811
X0444488Y0362992
Y0366535
Y0359449
X0451968
Y0362992
Y0366535
X0451575Y0347244
X044685Y0348031
Y0350394
X0442913
Y0348031
X0443701Y0328346
Y0325984
X0447638
Y0328346
Y0317323
Y0314961
X0443701
Y0317323
X0455905Y0319291
X0459055
X0462205
X0465354
X0458268Y0335039
X0448425Y0397244
X0373747Y0434847
X0361Y0432
X03607Y04382
Y044064
Y044308
Y044552
Y044796
Y04504
X03618Y04563
X0355906Y0453937
X0361047Y0464247
X0350747Y0467847
X0374047Y0466647
X0373253Y0453553
X0355906Y0434252
X04925Y04035
X04994Y04052
X04952Y03821
X0491567Y0382233
Y03741
X0487933
X04843
X04952Y03741
X04717Y03444
X0538189Y0336221
Y0333071
Y0329921
Y0326772
X0632244Y033372
Y0340721
Y035172
Y035872
X0642244
Y035272
Y0349721
Y0343721
X0641944Y033772
Y033472
X0642244Y032872
Y0322721
Y0319721
X0642264Y0313779
X0632244Y031372
Y0318721
X0652244
Y031272
Y0324721
Y032772
Y033372
Y0339721
Y0342721
Y0348721
Y035472
Y035772
Y036372
Y0369721
Y0372721
Y037872
Y038472
Y038772
Y0393721
Y0399721
Y040272
Y040872
X0642244
Y0413721
X06374Y0416928
X0632244Y041872
Y0413721
Y040872
Y0403721
Y0398721
Y0393721
X0642244
X06444Y03865
X0642244Y0373721
Y0367721
Y0364721
X0632244Y0373721
Y037872
X0642244Y0403721
Y0423721
Y0428721
Y043372
X0632244
Y0428721
Y0423721
X0652244
Y0428721
Y043372
X0662244
Y0428721
Y0413721
Y0398721
Y038372
Y0368721
X0657598Y0351575
X065748Y0336614
Y0321654
X0544882Y0477165
X0540158
X0535039
X03734Y04847
X03612Y04872
X03603Y04814
Y047916
Y047692
Y047468
Y047244
Y04702
X0350747Y0483547
T04
X03917Y01551
X03957
X03997
X04037
X04077
X04117
X04157
X04197
X04237
X0473Y028763
X0472835Y0301575
X0514047Y0297387
X05131Y03103
X0467Y0311
X0455905Y029252
Y0288976
X046063Y0275197
X0435Y025664
Y02538
X0428346Y0252756
X04386Y02483
X04161Y02481
X04085Y02515
X04014Y02521
X0393701Y0245669
X03815Y02491
X03775Y02489
Y0252
X03737Y02525
X03775Y0245731
X03897Y02667
X04137Y02388
X02844Y0224488
X02843Y02143
X0272118Y02155
Y02117
X0268244
Y02155
X0264369
Y02117
X0260493
Y02155
X0256618
Y02117
X0256718Y02233
Y02271
X0260594
Y02233
X0264369
X0264469Y02271
X0268369
X0268343Y02233
X0272218
Y02271
X0268503Y0248818
X0266Y02549
X0252362Y0264961
X02438Y02843
X02279Y02953
X02028Y02634
Y02591
X0198
Y02634
X01934
Y02591
X01888
X01845
Y02634
X01888
X01925Y02213
X01963Y02214
X02Y02213
X02039Y02214
X02476Y02332
X02506
X02491Y0207
X02459Y02056
X01718Y01975
Y01934
Y01894
Y01857
Y01819
X0171251Y0160949
X0188969Y0162169
X018968Y0158421
X0157874Y0287795
X0286221Y030315
X0294094Y0300787
X02986Y03111
X02797Y03099
X01539Y029859
X0154724Y0287795
X0151969
X013182Y02837
X01284Y02948
X01293Y030379
X0126
X01259Y030939
X01294Y030949
X01329
Y030389
X01122Y029739
X01092
X01062
X01031
X00999
X0149213Y0206299
X01546Y02066
X01519Y0196652
X01467Y0196852
X0144548Y0201452
X01467Y0183352
X01519Y0183252
X01301Y031849
X01264Y031839
X01094Y031499
X01062Y031509
X0103Y031519
X01001
X0152362Y0358661
X01549Y03661
X0137402Y0399606
X0116505Y0468277
X0113205Y0468177
X0187008Y0462992
X0186614Y0425197
Y0418898
X02063Y0417
Y04138
X02283Y04098
X0237749
X0240898
X0244048
X0247198
X0256646
X02549Y04308
X0248601
X0239152
X0236002
X0229703
X0226554
X0232853Y0441971
X0242302
X0245439
X0251739
X0289001Y0441771
X029845
X0301599
X0307887
X0304749Y04306
X0311048
X02953
X029215
X0285851
X0282702
X02843Y041
X029381
X0296898Y041
X0300048Y041
X0303198
X02948Y03357
X02873Y03251
X02839
Y03214
X02797Y03134
X024765Y031875
X0224016Y0333465
X01795Y033849
X01762Y033859
Y034209
X01795Y034199
Y034549
X01796Y034859
X01763
Y034549
X0170024Y0365965
X0312647Y041
X0333Y04144
Y04179
X0351969Y0418898
Y0426772
X0355512Y0401968
X0357087Y0395276
X0350631Y0389268
X03471Y03893
X03463Y04015
X03662Y04075
X037126Y0395276
X0365748Y0385433
X0359055Y0375984
X03912Y0382
Y03858
Y03893
X03872Y03939
X03905Y03983
X03908Y04018
X0414Y04019
X04179Y03966
X04141Y03927
X04139Y03887
X04138Y03843
X0441732Y0388189
X04418Y03404
X04545Y03352
X0352362Y0461417
X0346063Y0466142
X0517323Y0436221
X0516929Y0429134
X05131Y03455
X0527165Y0335433
X0533858Y0327953
X04878Y0339
X04733Y03157
X0480447Y0504247
X047Y05099
Y05216
X04757
X04907Y05217
X04986Y0524
X05039Y05238
X05038Y05026
X04986Y05027
X0491Y05098
X05338Y05159
X05387
X05437
X05485
X05487Y05002
X05437Y04999
X05387Y05004
X05337
X0459747Y0504347
X04553Y0522
X04308Y04927
X04229Y048855
X04156Y04818
X04108Y04786
X0394418Y04943
X0394518Y05023
X03945Y05277
Y05357
X03332Y04735
Y04702
X0317Y04866
X0311
X0305
X0299
X0293
X0287
X0281
X02594Y04865
X02534
X02474
X02414
X02354
X02294
X02234
X02064Y04736
Y04701
X0187008Y0469685
X0138415Y0490477
X0119405Y0474277
X0116405
X0113305Y0474177
Y0471177
X0118898Y047126
T05
X01542Y03159
Y0329679
T06
X0493078Y0442863
X0500952
X0508826
X05167
X0524574
X0532448
X0540322
Y0450737
X0532448
X0524574
X05167
X0508826
X0500952
X0493078
T07
X02698Y03115
Y03215
X03925Y05104
Y05204
X04025
Y05104
X04125
Y05204
X04225
Y05104
X04325
Y05204
T08
X0241627Y039582
X0260524
X0269698Y0404088
X0297729Y039582
X0269698Y0443458
X0213595Y045212
X03258
Y0433616
Y0413931
X0316627Y039582
X0269698Y0482828
Y0522198
T09
X0497015Y04468
X0124213Y0507874
X011437
X0099606Y0516535
Y0524409
X0115354Y0532283
X0123228
T10
X0213595Y0404088
Y0443458
X03258Y0463143
Y0502513
Y0541884
X0213595Y0522198
Y0482828
T11
X0222729Y042023
X0260524
X0278832Y042023
X0316627
T12
X0164Y049029
Y05084
Y052651
T13
X00801Y01537
X06901
X0655118Y0212168
Y04602
X06901Y05487
X00801Y05487
T14
X0635244Y022917
X0647244Y044327
M30
