G04 Layer_Color=8421504*
%FSLAX43Y43*%
%MOMM*%
%TF.FileFunction,Paste,Top*%
%TF.Part,Single*%
G01*
G75*
%TA.AperFunction,SMDPad,CuDef*%
%ADD11R,1.270X0.760*%
%ADD12O,1.270X0.760*%
%ADD13R,0.755X0.300*%
%ADD14R,0.300X0.755*%
%TA.AperFunction,SMDPad,SMDef*%
%ADD15R,5.600X5.600*%
%TA.AperFunction,SMDPad,CuDef*%
%ADD16R,0.800X0.800*%
%ADD17R,1.300X0.550*%
%ADD18R,0.550X1.300*%
%ADD19R,1.700X1.800*%
%ADD20R,0.254X0.254*%
%ADD21R,1.800X1.700*%
%ADD22R,0.254X0.254*%
%ADD23R,1.000X0.600*%
%ADD24R,0.550X0.600*%
%ADD25R,0.600X0.550*%
%ADD26R,0.600X1.000*%
%ADD27R,1.780X3.560*%
%ADD28R,0.500X2.000*%
%ADD29R,1.100X1.500*%
%ADD30R,0.700X1.300*%
%ADD31R,1.700X0.900*%
%ADD32R,1.300X0.700*%
%ADD33R,2.600X0.900*%
%ADD34R,0.900X2.600*%
G04:AMPARAMS|DCode=35|XSize=1.55mm|YSize=1.3mm|CornerRadius=0.098mm|HoleSize=0mm|Usage=FLASHONLY|Rotation=270.000|XOffset=0mm|YOffset=0mm|HoleType=Round|Shape=RoundedRectangle|*
%AMROUNDEDRECTD35*
21,1,1.550,1.105,0,0,270.0*
21,1,1.355,1.300,0,0,270.0*
1,1,0.195,-0.552,-0.677*
1,1,0.195,-0.552,0.677*
1,1,0.195,0.552,0.677*
1,1,0.195,0.552,-0.677*
%
%ADD35ROUNDEDRECTD35*%
%ADD37R,0.805X0.250*%
%ADD38R,0.250X0.805*%
%ADD39R,2.700X1.500*%
%ADD40R,2.700X1.050*%
%ADD41R,0.600X1.100*%
%ADD42R,0.760X0.405*%
%ADD43R,0.990X0.405*%
%ADD44R,1.725X0.990*%
%ADD45R,3.560X1.780*%
%ADD46R,1.000X0.900*%
%ADD47R,1.000X0.500*%
%ADD48R,2.000X2.500*%
%ADD49R,11.800X2.000*%
%TA.AperFunction,BGAPad,CuDef*%
%ADD50C,0.500*%
%TA.AperFunction,NonConductor*%
%ADD60C,0.254*%
%TA.AperFunction,SMDPad,CuDef*%
%ADD132C,5.000*%
%TA.AperFunction,BGAPad,CuDef*%
%ADD133C,0.889*%
D11*
X186449Y97053D02*
D03*
D12*
Y98323D02*
D03*
Y99593D02*
D03*
Y100863D02*
D03*
X178859Y97053D02*
D03*
Y98323D02*
D03*
Y99593D02*
D03*
Y100863D02*
D03*
D13*
X120649Y53036D02*
D03*
Y53536D02*
D03*
Y54036D02*
D03*
Y54536D02*
D03*
Y55036D02*
D03*
Y55536D02*
D03*
Y56036D02*
D03*
Y56536D02*
D03*
Y57036D02*
D03*
Y57536D02*
D03*
Y58036D02*
D03*
Y58536D02*
D03*
X113784D02*
D03*
Y58036D02*
D03*
Y57536D02*
D03*
Y57036D02*
D03*
Y56536D02*
D03*
Y56036D02*
D03*
Y55536D02*
D03*
Y55036D02*
D03*
Y54536D02*
D03*
Y54036D02*
D03*
Y53536D02*
D03*
Y53036D02*
D03*
D14*
X119966Y59218D02*
D03*
X119466D02*
D03*
X118966D02*
D03*
X118466D02*
D03*
X117966D02*
D03*
X117466D02*
D03*
X116966D02*
D03*
X116466D02*
D03*
X115966D02*
D03*
X115466D02*
D03*
X114966D02*
D03*
X114466D02*
D03*
Y52353D02*
D03*
X114966D02*
D03*
X115466D02*
D03*
X115966D02*
D03*
X116466D02*
D03*
X116966D02*
D03*
X117466D02*
D03*
X117966D02*
D03*
X118466D02*
D03*
X118966D02*
D03*
X119466D02*
D03*
X119966D02*
D03*
D15*
X117216Y55786D02*
D03*
D16*
X87262Y49149D02*
D03*
Y47499D02*
D03*
X155512Y135611D02*
D03*
Y133961D02*
D03*
X156858Y135636D02*
D03*
Y133986D02*
D03*
X124752Y82004D02*
D03*
Y83654D02*
D03*
X88583Y49149D02*
D03*
Y47499D02*
D03*
D17*
X95898Y42098D02*
D03*
Y40198D02*
D03*
Y41148D02*
D03*
X93498Y42098D02*
D03*
Y40198D02*
D03*
X90786Y90106D02*
D03*
Y92006D02*
D03*
Y91056D02*
D03*
X93186Y90106D02*
D03*
Y92006D02*
D03*
D18*
X82325Y123165D02*
D03*
X84225D02*
D03*
X83275D02*
D03*
X82325Y120765D02*
D03*
X84225D02*
D03*
D19*
X93632Y44526D02*
D03*
X96932D02*
D03*
X92722Y87170D02*
D03*
X89422D02*
D03*
D20*
X95739Y44526D02*
D03*
X94825D02*
D03*
X90615Y87170D02*
D03*
X91529D02*
D03*
D21*
X79643Y121814D02*
D03*
Y125114D02*
D03*
D22*
Y123921D02*
D03*
Y123006D02*
D03*
D23*
X99420Y57492D02*
D03*
Y58992D02*
D03*
X144056Y121627D02*
D03*
Y123127D02*
D03*
X142634Y119419D02*
D03*
Y117919D02*
D03*
X144158Y120028D02*
D03*
Y118528D02*
D03*
X142583Y122288D02*
D03*
Y123788D02*
D03*
X144056Y113702D02*
D03*
Y115202D02*
D03*
X142532Y111240D02*
D03*
Y109740D02*
D03*
X144082Y111951D02*
D03*
Y110451D02*
D03*
X142659Y114414D02*
D03*
Y115914D02*
D03*
X124701Y79463D02*
D03*
Y80963D02*
D03*
Y77050D02*
D03*
Y78550D02*
D03*
X125557Y56071D02*
D03*
Y54571D02*
D03*
X123220Y45124D02*
D03*
Y43624D02*
D03*
D24*
X116261Y50820D02*
D03*
Y49943D02*
D03*
X89345Y91991D02*
D03*
Y91114D02*
D03*
X97289Y40239D02*
D03*
Y41116D02*
D03*
X106472Y57457D02*
D03*
Y56580D02*
D03*
Y55323D02*
D03*
Y54446D02*
D03*
X89345Y90061D02*
D03*
Y89184D02*
D03*
X82361Y124612D02*
D03*
Y125489D02*
D03*
X87338Y73982D02*
D03*
Y73105D02*
D03*
X128554Y55072D02*
D03*
Y55949D02*
D03*
X81420Y73982D02*
D03*
Y73105D02*
D03*
X80505Y73982D02*
D03*
Y73105D02*
D03*
X120020Y62072D02*
D03*
Y61195D02*
D03*
X119994Y49510D02*
D03*
Y50387D02*
D03*
X114575Y62105D02*
D03*
Y61228D02*
D03*
X114178Y49510D02*
D03*
Y50387D02*
D03*
X85535Y73982D02*
D03*
Y73105D02*
D03*
X155512Y133026D02*
D03*
Y132149D02*
D03*
X156832Y132945D02*
D03*
Y132068D02*
D03*
X167700Y70275D02*
D03*
Y71152D02*
D03*
X172100Y70375D02*
D03*
Y71252D02*
D03*
X139586Y102052D02*
D03*
Y101175D02*
D03*
X138722Y102052D02*
D03*
Y101175D02*
D03*
X173012Y96515D02*
D03*
Y95638D02*
D03*
X174858Y96515D02*
D03*
Y95638D02*
D03*
X175781Y96515D02*
D03*
Y95638D02*
D03*
X173935Y96515D02*
D03*
Y95638D02*
D03*
X121272Y81326D02*
D03*
Y80449D02*
D03*
X123000Y81326D02*
D03*
Y80449D02*
D03*
X117937Y49943D02*
D03*
Y50793D02*
D03*
X117099Y49943D02*
D03*
Y50793D02*
D03*
X119045Y62078D02*
D03*
Y61228D02*
D03*
X119156Y49511D02*
D03*
Y50361D02*
D03*
X115464Y62078D02*
D03*
Y61228D02*
D03*
X115016Y49537D02*
D03*
Y50387D02*
D03*
X121500Y50175D02*
D03*
Y51025D02*
D03*
X112425Y57778D02*
D03*
Y56928D02*
D03*
X112400Y55010D02*
D03*
Y54160D02*
D03*
X86424Y73955D02*
D03*
Y73105D02*
D03*
X85535Y75759D02*
D03*
Y74909D02*
D03*
X84392Y73955D02*
D03*
Y73105D02*
D03*
X123812Y87256D02*
D03*
Y88106D02*
D03*
X212700Y54550D02*
D03*
Y53700D02*
D03*
X211836Y54550D02*
D03*
Y53700D02*
D03*
X83477Y73982D02*
D03*
Y73105D02*
D03*
X182163Y126790D02*
D03*
Y125913D02*
D03*
X180505D02*
D03*
Y126790D02*
D03*
X183005D02*
D03*
Y125913D02*
D03*
X181347D02*
D03*
Y126790D02*
D03*
X185531D02*
D03*
Y125913D02*
D03*
X183873D02*
D03*
Y126790D02*
D03*
X186373D02*
D03*
Y125913D02*
D03*
X184714D02*
D03*
Y126790D02*
D03*
X204947Y126892D02*
D03*
Y126015D02*
D03*
X203340D02*
D03*
Y126892D02*
D03*
X205764D02*
D03*
Y126015D02*
D03*
X208213Y126892D02*
D03*
Y126015D02*
D03*
X206606D02*
D03*
Y126892D02*
D03*
X209029D02*
D03*
Y126015D02*
D03*
X204156D02*
D03*
Y126892D02*
D03*
X207422Y126015D02*
D03*
Y126892D02*
D03*
D25*
X84210Y124581D02*
D03*
X83333D02*
D03*
X97268Y42113D02*
D03*
X98145D02*
D03*
X88349Y74953D02*
D03*
X87472D02*
D03*
X127584Y56083D02*
D03*
X126707D02*
D03*
X118507Y48394D02*
D03*
X117630D02*
D03*
X120361D02*
D03*
X119484D02*
D03*
X115664Y63475D02*
D03*
X116541D02*
D03*
X113759Y63500D02*
D03*
X114636D02*
D03*
X114697Y48394D02*
D03*
X113820D02*
D03*
X116602D02*
D03*
X115725D02*
D03*
X117678Y61493D02*
D03*
X116801D02*
D03*
X188476Y100859D02*
D03*
X187599D02*
D03*
X188476Y99614D02*
D03*
X187599D02*
D03*
X188476Y98319D02*
D03*
X187599D02*
D03*
X188476Y97074D02*
D03*
X187599D02*
D03*
X121760Y77724D02*
D03*
X122637D02*
D03*
X123923Y56065D02*
D03*
X123073D02*
D03*
X87272Y77417D02*
D03*
X86422D02*
D03*
X88322Y75842D02*
D03*
X87472D02*
D03*
X78775Y77900D02*
D03*
X79625D02*
D03*
X127807Y87681D02*
D03*
X128657D02*
D03*
X127807Y86589D02*
D03*
X128657D02*
D03*
X88689Y72238D02*
D03*
X89566D02*
D03*
D26*
X140590Y120294D02*
D03*
X139090D02*
D03*
X140615Y112370D02*
D03*
X139115D02*
D03*
X77749Y105258D02*
D03*
X79249D02*
D03*
X79173Y97257D02*
D03*
X77673D02*
D03*
X112801Y89002D02*
D03*
X114301D02*
D03*
X140590Y121488D02*
D03*
X139090D02*
D03*
X140615Y113640D02*
D03*
X139115Y113640D02*
D03*
D27*
X101290Y63050D02*
D03*
X110690D02*
D03*
X101366Y48394D02*
D03*
X110766D02*
D03*
D28*
X127823Y102638D02*
D03*
X128623D02*
D03*
X123023D02*
D03*
X123823D02*
D03*
X129023Y110838D02*
D03*
X128223D02*
D03*
X127423D02*
D03*
X126623D02*
D03*
X125823D02*
D03*
X125023D02*
D03*
X124223D02*
D03*
X123423D02*
D03*
X122623D02*
D03*
X121823D02*
D03*
X122223Y102638D02*
D03*
X124623D02*
D03*
X125423D02*
D03*
X126223D02*
D03*
X127023D02*
D03*
X129423D02*
D03*
X108773Y102638D02*
D03*
X114773Y110838D02*
D03*
X113973D02*
D03*
X113173D02*
D03*
X112373D02*
D03*
X111573D02*
D03*
X110773D02*
D03*
X109973D02*
D03*
X109173D02*
D03*
X108373D02*
D03*
X107573D02*
D03*
X107973Y102638D02*
D03*
X109573D02*
D03*
X110373D02*
D03*
X111173D02*
D03*
X111973D02*
D03*
X112773D02*
D03*
X113573D02*
D03*
X114373D02*
D03*
X115173D02*
D03*
D29*
X147143Y132942D02*
D03*
Y135942D02*
D03*
X145643D02*
D03*
Y132942D02*
D03*
X152401D02*
D03*
Y135942D02*
D03*
X150901D02*
D03*
Y132942D02*
D03*
D30*
X83365Y85545D02*
D03*
X85265D02*
D03*
X162250Y80300D02*
D03*
X164150D02*
D03*
X164150Y83100D02*
D03*
X162250D02*
D03*
X137050Y86716D02*
D03*
X135150D02*
D03*
X135150Y89800D02*
D03*
X137050D02*
D03*
X162050Y88700D02*
D03*
X163950D02*
D03*
X163950Y73900D02*
D03*
X162050D02*
D03*
X135350Y72400D02*
D03*
X137250D02*
D03*
X137250Y73900D02*
D03*
X135350D02*
D03*
X163950Y76600D02*
D03*
X162050D02*
D03*
X163929Y71323D02*
D03*
X162029D02*
D03*
X83365Y87170D02*
D03*
X85265D02*
D03*
D31*
X97023Y54645D02*
D03*
Y51745D02*
D03*
X99335Y54645D02*
D03*
Y51745D02*
D03*
D32*
X123270Y57020D02*
D03*
Y58920D02*
D03*
X113330Y60474D02*
D03*
Y62374D02*
D03*
X123296Y54366D02*
D03*
Y52466D02*
D03*
X112730Y51318D02*
D03*
Y49418D02*
D03*
X77330Y77330D02*
D03*
Y79230D02*
D03*
X75756Y77330D02*
D03*
Y79230D02*
D03*
X144600Y93750D02*
D03*
Y95650D02*
D03*
X150600Y94950D02*
D03*
Y93050D02*
D03*
D33*
X135000Y76750D02*
D03*
Y79650D02*
D03*
D34*
X135550Y82400D02*
D03*
X132650D02*
D03*
X162418Y92278D02*
D03*
X165318D02*
D03*
D35*
X111432Y88913D02*
D03*
Y80963D02*
D03*
X106932Y88913D02*
D03*
Y80963D02*
D03*
X80414Y97320D02*
D03*
Y105270D02*
D03*
X84914Y97320D02*
D03*
Y105270D02*
D03*
D37*
X84820Y76522D02*
D03*
Y77022D02*
D03*
Y77522D02*
D03*
Y78022D02*
D03*
Y78522D02*
D03*
Y79022D02*
D03*
X80915D02*
D03*
Y78522D02*
D03*
Y78022D02*
D03*
Y77522D02*
D03*
Y77022D02*
D03*
Y76522D02*
D03*
D38*
X84118Y79725D02*
D03*
X83618D02*
D03*
X83118D02*
D03*
X82618D02*
D03*
X82118D02*
D03*
X81618D02*
D03*
Y75820D02*
D03*
X82118D02*
D03*
X82618D02*
D03*
X83118D02*
D03*
X83618D02*
D03*
X84118D02*
D03*
D39*
X82868Y77163D02*
D03*
D40*
Y78610D02*
D03*
D41*
X170867Y72269D02*
D03*
X169917D02*
D03*
X168967D02*
D03*
Y69869D02*
D03*
X169917D02*
D03*
X170867D02*
D03*
D42*
X111096Y56177D02*
D03*
Y55547D02*
D03*
Y54917D02*
D03*
Y56807D02*
D03*
D43*
X108111Y54872D02*
D03*
Y55532D02*
D03*
Y56192D02*
D03*
Y56852D02*
D03*
D44*
X110103Y56469D02*
D03*
X110103Y55254D02*
D03*
D45*
X130017Y43694D02*
D03*
Y53094D02*
D03*
D46*
X126794Y88756D02*
D03*
X124894D02*
D03*
X126794Y86606D02*
D03*
X124894D02*
D03*
D47*
X126794Y87681D02*
D03*
X124894D02*
D03*
D48*
X97084Y56725D02*
D03*
Y60725D02*
D03*
D49*
X125628Y119538D02*
D03*
X111378D02*
D03*
D50*
X145941Y90501D02*
D03*
Y91501D02*
D03*
Y70501D02*
D03*
Y71501D02*
D03*
X138941Y75501D02*
D03*
Y76501D02*
D03*
Y77501D02*
D03*
Y78501D02*
D03*
Y80501D02*
D03*
Y81501D02*
D03*
Y90501D02*
D03*
Y91501D02*
D03*
X143941Y72501D02*
D03*
X138941Y82501D02*
D03*
Y83501D02*
D03*
X143941Y90501D02*
D03*
Y91501D02*
D03*
X139941Y74501D02*
D03*
Y75501D02*
D03*
X138941Y85501D02*
D03*
Y86501D02*
D03*
X139941Y70501D02*
D03*
X141941Y90501D02*
D03*
Y91501D02*
D03*
X159941Y70501D02*
D03*
X158941D02*
D03*
X157941D02*
D03*
X156941D02*
D03*
X155941D02*
D03*
X154941D02*
D03*
X153941D02*
D03*
X152941D02*
D03*
X151941D02*
D03*
X150941D02*
D03*
X149941D02*
D03*
X148941D02*
D03*
X147941D02*
D03*
X146941D02*
D03*
X144941D02*
D03*
X143941D02*
D03*
X142941D02*
D03*
X141941D02*
D03*
X140941D02*
D03*
X159941Y71501D02*
D03*
X158941D02*
D03*
X157941D02*
D03*
X156941D02*
D03*
X155941D02*
D03*
X154941D02*
D03*
X153941D02*
D03*
X152941D02*
D03*
X151941D02*
D03*
X150941D02*
D03*
X149941D02*
D03*
X148941D02*
D03*
X147941D02*
D03*
X146941D02*
D03*
X144941D02*
D03*
X143941D02*
D03*
X142941D02*
D03*
X141941D02*
D03*
X140941D02*
D03*
X139941D02*
D03*
X159941Y72501D02*
D03*
X158941D02*
D03*
X157941D02*
D03*
X156941D02*
D03*
X155941D02*
D03*
X154941D02*
D03*
X153941D02*
D03*
X152941D02*
D03*
X151941D02*
D03*
X150941D02*
D03*
X149941D02*
D03*
X148941D02*
D03*
X147941D02*
D03*
X146941D02*
D03*
X145941D02*
D03*
X144941D02*
D03*
X142941D02*
D03*
X141941D02*
D03*
X140941D02*
D03*
X139941D02*
D03*
X159941Y73501D02*
D03*
X158941D02*
D03*
X157941D02*
D03*
X156941D02*
D03*
X155941D02*
D03*
X154941D02*
D03*
X153941D02*
D03*
X152941D02*
D03*
X151941D02*
D03*
X150941D02*
D03*
X149941D02*
D03*
X148941D02*
D03*
X147941D02*
D03*
X146941D02*
D03*
X145941D02*
D03*
X144941D02*
D03*
X143941D02*
D03*
X142941D02*
D03*
X141941D02*
D03*
X140941D02*
D03*
X139941D02*
D03*
X159941Y74501D02*
D03*
X158941D02*
D03*
X157941D02*
D03*
X156941D02*
D03*
X155941D02*
D03*
X154941D02*
D03*
X153941D02*
D03*
X152941D02*
D03*
X151941D02*
D03*
X150941D02*
D03*
X149941D02*
D03*
X148941D02*
D03*
X147941D02*
D03*
X146941D02*
D03*
X145941D02*
D03*
X144941D02*
D03*
X143941D02*
D03*
X141941D02*
D03*
X140941D02*
D03*
X138941D02*
D03*
X159941Y75501D02*
D03*
X158941D02*
D03*
X157941D02*
D03*
X156941D02*
D03*
X155941D02*
D03*
X154941D02*
D03*
X153941D02*
D03*
X152941D02*
D03*
X151941D02*
D03*
X150941D02*
D03*
X149941D02*
D03*
X148941D02*
D03*
X147941D02*
D03*
X146941D02*
D03*
X145941D02*
D03*
X144941D02*
D03*
X142941D02*
D03*
X141941D02*
D03*
X140941D02*
D03*
X159941Y76501D02*
D03*
X158941D02*
D03*
X157941D02*
D03*
X156941D02*
D03*
X155941D02*
D03*
X154941D02*
D03*
X153941D02*
D03*
X152941D02*
D03*
X151941D02*
D03*
X150941D02*
D03*
X149941D02*
D03*
X148941D02*
D03*
X147941D02*
D03*
X146941D02*
D03*
X145941D02*
D03*
X144941D02*
D03*
X143941D02*
D03*
X142941D02*
D03*
X141941D02*
D03*
X140941D02*
D03*
X139941D02*
D03*
X159941Y77501D02*
D03*
X158941D02*
D03*
X157941D02*
D03*
X156941D02*
D03*
X155941D02*
D03*
X154941D02*
D03*
X153941D02*
D03*
X152941D02*
D03*
X151941D02*
D03*
X150941D02*
D03*
X149941D02*
D03*
X148941D02*
D03*
X147941D02*
D03*
X146941D02*
D03*
X145941D02*
D03*
X144941D02*
D03*
X143941D02*
D03*
X142941D02*
D03*
X141941D02*
D03*
X140941D02*
D03*
X139941D02*
D03*
X159941Y78501D02*
D03*
X158941D02*
D03*
X157941D02*
D03*
X156941D02*
D03*
X155941D02*
D03*
X154941D02*
D03*
X153941D02*
D03*
X152941D02*
D03*
X151941D02*
D03*
X150941D02*
D03*
X149941D02*
D03*
X148941D02*
D03*
X147941D02*
D03*
X146941D02*
D03*
X145941D02*
D03*
X144941D02*
D03*
X143941D02*
D03*
X142941D02*
D03*
X141941D02*
D03*
X140941D02*
D03*
X139941D02*
D03*
X159941Y79501D02*
D03*
X158941D02*
D03*
X157941D02*
D03*
X156941D02*
D03*
X155941D02*
D03*
X154941D02*
D03*
X153941D02*
D03*
X152941D02*
D03*
X151941D02*
D03*
X150941D02*
D03*
X149941D02*
D03*
X148941D02*
D03*
X147941D02*
D03*
X146941D02*
D03*
X145941D02*
D03*
X144941D02*
D03*
X143941D02*
D03*
X142941D02*
D03*
X141941D02*
D03*
X140941D02*
D03*
X139941D02*
D03*
X138941D02*
D03*
X159941Y80501D02*
D03*
X158941D02*
D03*
X157941D02*
D03*
X156941D02*
D03*
X155941D02*
D03*
X154941D02*
D03*
X153941D02*
D03*
X152941D02*
D03*
X151941D02*
D03*
X150941D02*
D03*
X149941D02*
D03*
X148941D02*
D03*
X147941D02*
D03*
X146941D02*
D03*
X145941D02*
D03*
X144941D02*
D03*
X143941D02*
D03*
X142941D02*
D03*
X141941D02*
D03*
X140941D02*
D03*
X139941D02*
D03*
X159941Y81501D02*
D03*
X158941D02*
D03*
X157941D02*
D03*
X156941D02*
D03*
X155941D02*
D03*
X154941D02*
D03*
X153941D02*
D03*
X152941D02*
D03*
X151941D02*
D03*
X150941D02*
D03*
X149941D02*
D03*
X148941D02*
D03*
X147941D02*
D03*
X146941D02*
D03*
X145941D02*
D03*
X144941D02*
D03*
X143941D02*
D03*
X142941D02*
D03*
X141941D02*
D03*
X140941D02*
D03*
X139941D02*
D03*
X159941Y82501D02*
D03*
X158941D02*
D03*
X157941D02*
D03*
X156941D02*
D03*
X155941D02*
D03*
X154941D02*
D03*
X153941D02*
D03*
X152941D02*
D03*
X151941D02*
D03*
X150941D02*
D03*
X149941D02*
D03*
X148941D02*
D03*
X147941D02*
D03*
X146941D02*
D03*
X145941D02*
D03*
X144941D02*
D03*
X143941D02*
D03*
X142941D02*
D03*
X141941D02*
D03*
X140941D02*
D03*
X139941D02*
D03*
X159941Y83501D02*
D03*
X158941D02*
D03*
X157941D02*
D03*
X156941D02*
D03*
X155941D02*
D03*
X154941D02*
D03*
X153941D02*
D03*
X152941D02*
D03*
X151941D02*
D03*
X150941D02*
D03*
X149941D02*
D03*
X148941D02*
D03*
X147941D02*
D03*
X146941D02*
D03*
X145941D02*
D03*
X144941D02*
D03*
X143941D02*
D03*
X142941D02*
D03*
X141941D02*
D03*
X140941D02*
D03*
X139941D02*
D03*
X159941Y84501D02*
D03*
X158941D02*
D03*
X157941D02*
D03*
X156941D02*
D03*
X155941D02*
D03*
X154941D02*
D03*
X153941D02*
D03*
X152941D02*
D03*
X151941D02*
D03*
X150941D02*
D03*
X149941D02*
D03*
X148941D02*
D03*
X147941D02*
D03*
X146941D02*
D03*
X145941D02*
D03*
X144941D02*
D03*
X143941D02*
D03*
X142941D02*
D03*
X141941D02*
D03*
X140941D02*
D03*
X139941D02*
D03*
X138941D02*
D03*
X159941Y85501D02*
D03*
X158941D02*
D03*
X157941D02*
D03*
X156941D02*
D03*
X155941D02*
D03*
X154941D02*
D03*
X153941D02*
D03*
X152941D02*
D03*
X151941D02*
D03*
X150941D02*
D03*
X149941D02*
D03*
X148941D02*
D03*
X147941D02*
D03*
X146941D02*
D03*
X145941D02*
D03*
X144941D02*
D03*
X143941D02*
D03*
X142941D02*
D03*
X141941D02*
D03*
X140941D02*
D03*
X139941D02*
D03*
X159941Y86501D02*
D03*
X158941D02*
D03*
X157941D02*
D03*
X156941D02*
D03*
X155941D02*
D03*
X154941D02*
D03*
X153941D02*
D03*
X152941D02*
D03*
X151941D02*
D03*
X150941D02*
D03*
X149941D02*
D03*
X148941D02*
D03*
X146941D02*
D03*
X145941D02*
D03*
X144941D02*
D03*
X143941D02*
D03*
X142941D02*
D03*
X141941D02*
D03*
X140941D02*
D03*
X139941D02*
D03*
X159941Y87501D02*
D03*
X158941D02*
D03*
X157941D02*
D03*
X156941D02*
D03*
X155941D02*
D03*
X154941D02*
D03*
X153941D02*
D03*
X152941D02*
D03*
X151941D02*
D03*
X150941D02*
D03*
X149941D02*
D03*
X148941D02*
D03*
X147941D02*
D03*
X146941D02*
D03*
X145941D02*
D03*
X144941D02*
D03*
X143941D02*
D03*
X142941D02*
D03*
X141941D02*
D03*
X140941D02*
D03*
X139941D02*
D03*
X159941Y88501D02*
D03*
X158941D02*
D03*
X157941D02*
D03*
X156941D02*
D03*
X155941D02*
D03*
X154941D02*
D03*
X153941D02*
D03*
X152941D02*
D03*
X151941D02*
D03*
X150941D02*
D03*
X149941D02*
D03*
X148941D02*
D03*
X147941D02*
D03*
X146941D02*
D03*
X145941D02*
D03*
X144941D02*
D03*
X143941D02*
D03*
X142941D02*
D03*
X141941D02*
D03*
X140941D02*
D03*
X139941D02*
D03*
X159941Y89501D02*
D03*
X158941D02*
D03*
X157941D02*
D03*
X156941D02*
D03*
X155941D02*
D03*
X154941D02*
D03*
X153941D02*
D03*
X152941D02*
D03*
X151941D02*
D03*
X150941D02*
D03*
X149941D02*
D03*
X148941D02*
D03*
X147941D02*
D03*
X146941D02*
D03*
X145941D02*
D03*
X144941D02*
D03*
X143941D02*
D03*
X142941D02*
D03*
X141941D02*
D03*
X140941D02*
D03*
X139941D02*
D03*
X138941D02*
D03*
X159941Y90501D02*
D03*
X158941D02*
D03*
X157941D02*
D03*
X156941D02*
D03*
X155941D02*
D03*
X154941D02*
D03*
X153941D02*
D03*
X152941D02*
D03*
X151941D02*
D03*
X150941D02*
D03*
X149941D02*
D03*
X148941D02*
D03*
X147941D02*
D03*
X146941D02*
D03*
X144941D02*
D03*
X142941D02*
D03*
X140941D02*
D03*
X139941D02*
D03*
X159941Y91501D02*
D03*
X158941D02*
D03*
X157941D02*
D03*
X156941D02*
D03*
X155941D02*
D03*
X154941D02*
D03*
X153941D02*
D03*
X152941D02*
D03*
X151941D02*
D03*
X150941D02*
D03*
X149941D02*
D03*
X148941D02*
D03*
X147941D02*
D03*
X146941D02*
D03*
X144941D02*
D03*
X142941D02*
D03*
X140941D02*
D03*
X139941D02*
D03*
X143941Y75501D02*
D03*
X142941Y74501D02*
D03*
X138941Y88501D02*
D03*
Y87501D02*
D03*
X147941Y86501D02*
D03*
X138941Y71501D02*
D03*
Y70501D02*
D03*
Y73501D02*
D03*
Y72501D02*
D03*
D60*
X19305Y161910D02*
X274285D01*
X19305Y16576D02*
X274285D01*
X19305Y16576D02*
Y161910D01*
X274285Y17008D02*
Y161910D01*
D132*
X255285Y139040D02*
D03*
Y39040D02*
D03*
D133*
X217575Y80955D02*
D03*
Y79685D02*
D03*
Y84765D02*
D03*
Y83495D02*
D03*
Y73335D02*
D03*
Y72065D02*
D03*
Y100005D02*
D03*
Y98735D02*
D03*
Y88575D02*
D03*
Y87305D02*
D03*
X211225Y93655D02*
D03*
Y92385D02*
D03*
Y88575D02*
D03*
Y87305D02*
D03*
X212495Y84765D02*
D03*
X217575Y107625D02*
D03*
Y106355D02*
D03*
Y103815D02*
D03*
Y102545D02*
D03*
Y65715D02*
D03*
Y64445D02*
D03*
X211225Y60635D02*
D03*
X212495D02*
D03*
X216305D02*
D03*
X217575D02*
D03*
Y61905D02*
D03*
X211225D02*
D03*
X212495D02*
D03*
X217575Y63175D02*
D03*
X211225D02*
D03*
X212495D02*
D03*
X216305Y64445D02*
D03*
X211225D02*
D03*
X216305Y65715D02*
D03*
X211225D02*
D03*
X217575Y66985D02*
D03*
X212495D02*
D03*
Y68255D02*
D03*
X216305Y69525D02*
D03*
X211225D02*
D03*
X212495D02*
D03*
X216305Y70795D02*
D03*
X217575D02*
D03*
X211225D02*
D03*
X212495D02*
D03*
X216305Y72065D02*
D03*
X212495D02*
D03*
X216305Y73335D02*
D03*
X212495D02*
D03*
X217575Y74605D02*
D03*
X211225D02*
D03*
X212495D02*
D03*
X211225Y75875D02*
D03*
X212495D02*
D03*
X216305Y77145D02*
D03*
Y78415D02*
D03*
X217575D02*
D03*
X216305Y79685D02*
D03*
X211225D02*
D03*
X212495D02*
D03*
X216305Y80955D02*
D03*
X211225D02*
D03*
X212495D02*
D03*
X216305Y82225D02*
D03*
X217575D02*
D03*
X211225D02*
D03*
X212495D02*
D03*
X216305Y83495D02*
D03*
X211225D02*
D03*
X212495D02*
D03*
X216305Y84765D02*
D03*
X211225D02*
D03*
X216305Y86035D02*
D03*
X217575D02*
D03*
X211225D02*
D03*
X212495D02*
D03*
X216305Y87305D02*
D03*
X212495D02*
D03*
X216305Y88575D02*
D03*
X212495D02*
D03*
X216305Y89845D02*
D03*
X217575D02*
D03*
X211225D02*
D03*
X212495D02*
D03*
X216305Y91115D02*
D03*
X211225D02*
D03*
X212495D02*
D03*
X216305Y92385D02*
D03*
Y93655D02*
D03*
X217575D02*
D03*
X216305Y94925D02*
D03*
X211225D02*
D03*
X212495D02*
D03*
X216305Y96195D02*
D03*
X211225D02*
D03*
X212495D02*
D03*
X216305Y97465D02*
D03*
X217575D02*
D03*
X211225D02*
D03*
X212495D02*
D03*
X216305Y98735D02*
D03*
X211225D02*
D03*
X212495D02*
D03*
X216305Y100005D02*
D03*
X211225D02*
D03*
X212495D02*
D03*
X216305Y101275D02*
D03*
X217575D02*
D03*
X211225D02*
D03*
X212495D02*
D03*
X216305Y102545D02*
D03*
X211225D02*
D03*
X212495D02*
D03*
X216305Y103815D02*
D03*
X211225D02*
D03*
X212495D02*
D03*
X217575Y105085D02*
D03*
X211225D02*
D03*
X212495D02*
D03*
X211225Y106355D02*
D03*
X212495D02*
D03*
X216305Y107625D02*
D03*
X211225D02*
D03*
X212495D02*
D03*
X216305Y108895D02*
D03*
X217575D02*
D03*
X211225D02*
D03*
X212495D02*
D03*
X216305Y110165D02*
D03*
X217575D02*
D03*
X211225D02*
D03*
X212495D02*
D03*
X217575Y68255D02*
D03*
Y69525D02*
D03*
Y75875D02*
D03*
Y77145D02*
D03*
Y91115D02*
D03*
Y92385D02*
D03*
Y94925D02*
D03*
Y96195D02*
D03*
X212495Y77145D02*
D03*
Y78415D02*
D03*
Y92385D02*
D03*
Y93655D02*
D03*
X216305Y61905D02*
D03*
Y63175D02*
D03*
X211225Y66985D02*
D03*
Y68255D02*
D03*
X216305Y66985D02*
D03*
Y68255D02*
D03*
X211225Y77145D02*
D03*
Y78415D02*
D03*
Y73335D02*
D03*
Y72065D02*
D03*
X216305Y74605D02*
D03*
Y75875D02*
D03*
Y105085D02*
D03*
Y106355D02*
D03*
X212495Y64445D02*
D03*
Y65715D02*
D03*
%TF.MD5,4afd9caaa11fb7159b0b2c3704cf0805*%
M02*
