G04 Layer_Color=8388736*
%FSLAX45Y45*%
%MOMM*%
%TF.FileFunction,Soldermask,Top*%
%TF.Part,Single*%
G01*
G75*
%TA.AperFunction,NonConductor*%
%ADD57C,0.25400*%
%TA.AperFunction,ComponentPad*%
%ADD77C,1.55000*%
%TA.AperFunction,ViaPad*%
%ADD102C,0.68580*%
%TA.AperFunction,NonConductor*%
%ADD130C,0.02540*%
%ADD131C,0.38100*%
%ADD132C,0.02032*%
%ADD133C,0.20320*%
%ADD134R,1.77800X14.24940*%
%TA.AperFunction,SMDPad,CuDef*%
%ADD135R,0.65080X0.60080*%
%TA.AperFunction,BGAPad,CuDef*%
%ADD136C,0.55080*%
%TA.AperFunction,SMDPad,CuDef*%
%ADD137R,0.60080X0.65080*%
%ADD138R,11.85080X2.05080*%
G04:AMPARAMS|DCode=139|XSize=1.6008mm|YSize=1.3508mm|CornerRadius=0.1229mm|HoleSize=0mm|Usage=FLASHONLY|Rotation=90.000|XOffset=0mm|YOffset=0mm|HoleType=Round|Shape=RoundedRectangle|*
%AMROUNDEDRECTD139*
21,1,1.60080,1.10500,0,0,90.0*
21,1,1.35500,1.35080,0,0,90.0*
1,1,0.24580,0.55250,0.67750*
1,1,0.24580,0.55250,-0.67750*
1,1,0.24580,-0.55250,-0.67750*
1,1,0.24580,-0.55250,0.67750*
%
%ADD139ROUNDEDRECTD139*%
%ADD140R,2.05080X2.55080*%
%ADD141R,0.75080X1.35080*%
%ADD142R,1.15080X1.55080*%
%ADD143R,1.05080X0.55080*%
%ADD144R,1.05080X0.95080*%
%ADD145R,0.55080X2.05080*%
%ADD146R,3.61080X1.83080*%
%ADD147R,1.77580X1.04080*%
%ADD148R,1.04080X0.45580*%
%ADD149R,0.81080X0.45580*%
%ADD150R,0.65080X1.05080*%
%ADD151R,0.65080X1.15080*%
%ADD152R,2.75080X1.10080*%
%ADD153R,2.75080X1.55080*%
%ADD154R,0.30080X0.85560*%
%ADD155R,0.85560X0.30080*%
%ADD156R,1.35080X0.60080*%
%ADD157R,0.30480X0.30480*%
%ADD158R,1.75080X1.85080*%
%ADD159R,0.85080X0.85080*%
%TA.AperFunction,BGAPad,CuDef*%
%ADD160C,0.73660*%
%TA.AperFunction,SMDPad,CuDef*%
%ADD161R,0.95080X2.65080*%
%ADD162R,2.65080X0.95080*%
%ADD163R,1.35080X0.75080*%
%ADD164R,1.75080X0.95080*%
%ADD165R,1.05080X0.65080*%
%ADD166R,1.83080X3.61080*%
%ADD167R,0.30480X0.30480*%
%ADD168R,1.85080X1.75080*%
%ADD169R,0.60080X1.35080*%
%ADD170O,2.25080X0.65080*%
%TA.AperFunction,SMDPad,SMDef*%
%ADD171R,0.03740X0.03740*%
%TA.AperFunction,SMDPad,CuDef*%
%ADD172R,0.35080X0.80560*%
%ADD173R,0.80560X0.35080*%
%TA.AperFunction,ComponentPad*%
%ADD174R,1.55080X1.55080*%
%ADD175C,1.55080*%
%TA.AperFunction,ViaPad*%
%ADD176C,5.05080*%
%TA.AperFunction,ComponentPad*%
%ADD177C,1.00080*%
%ADD178C,1.57480*%
G04:AMPARAMS|DCode=179|XSize=1.3508mm|YSize=1.3508mm|CornerRadius=0mm|HoleSize=0mm|Usage=FLASHONLY|Rotation=180.000|XOffset=0mm|YOffset=0mm|HoleType=Round|Shape=Octagon|*
%AMOCTAGOND179*
4,1,8,-0.67540,0.33770,-0.67540,-0.33770,-0.33770,-0.67540,0.33770,-0.67540,0.67540,-0.33770,0.67540,0.33770,0.33770,0.67540,-0.33770,0.67540,-0.67540,0.33770,0.0*
%
%ADD179OCTAGOND179*%

%ADD180C,1.35080*%
%ADD181C,1.05080*%
%ADD182C,2.75080*%
%ADD183C,0.05080*%
%TA.AperFunction,ViaPad*%
%ADD184C,3.25080*%
%TA.AperFunction,ComponentPad*%
%ADD185R,4.11480X1.70180*%
%ADD186R,1.70180X4.11480*%
%ADD187R,1.57480X1.57480*%
%TA.AperFunction,ViaPad*%
%ADD188C,0.43180*%
%ADD189C,0.45720*%
%ADD190C,0.55880*%
%ADD191C,0.55080*%
D57*
X31021497Y18520470D02*
Y18368118D01*
X31097675D01*
X31123065Y18393510D01*
Y18418901D01*
X31097675Y18444293D01*
X31021497D01*
X31097675D01*
X31123065Y18469685D01*
Y18495078D01*
X31097675Y18520470D01*
X31021497D01*
X31199240Y18368118D02*
X31250024D01*
X31275415Y18393510D01*
Y18444293D01*
X31250024Y18469685D01*
X31199240D01*
X31173849Y18444293D01*
Y18393510D01*
X31199240Y18368118D01*
X31351593Y18469685D02*
X31402374D01*
X31427768Y18444293D01*
Y18368118D01*
X31351593D01*
X31326199Y18393510D01*
X31351593Y18418901D01*
X31427768D01*
X31478549Y18469685D02*
Y18368118D01*
Y18418901D01*
X31503943Y18444293D01*
X31529333Y18469685D01*
X31554727D01*
X31732468Y18520470D02*
Y18368118D01*
X31656293D01*
X31630902Y18393510D01*
Y18444293D01*
X31656293Y18469685D01*
X31732468D01*
X31935602Y18520470D02*
Y18368118D01*
X32037170D01*
X32113345Y18469685D02*
X32164130D01*
X32189520Y18444293D01*
Y18368118D01*
X32113345D01*
X32087952Y18393510D01*
X32113345Y18418901D01*
X32189520D01*
X32240305Y18469685D02*
Y18393510D01*
X32265695Y18368118D01*
X32341870D01*
Y18342726D01*
X32316479Y18317334D01*
X32291089D01*
X32341870Y18368118D02*
Y18469685D01*
X32468829Y18368118D02*
X32418048D01*
X32392654Y18393510D01*
Y18444293D01*
X32418048Y18469685D01*
X32468829D01*
X32494223Y18444293D01*
Y18418901D01*
X32392654D01*
X32545007Y18469685D02*
Y18368118D01*
Y18418901D01*
X32570398Y18444293D01*
X32595789Y18469685D01*
X32621182D01*
X32951273Y18495078D02*
X32925882Y18520470D01*
X32875098D01*
X32849707Y18495078D01*
Y18469685D01*
X32875098Y18444293D01*
X32925882D01*
X32951273Y18418901D01*
Y18393510D01*
X32925882Y18368118D01*
X32875098D01*
X32849707Y18393510D01*
X33027451Y18495078D02*
Y18469685D01*
X33002057D01*
X33052841D01*
X33027451D01*
Y18393510D01*
X33052841Y18368118D01*
X33154407Y18469685D02*
X33205191D01*
X33230585Y18444293D01*
Y18368118D01*
X33154407D01*
X33129016Y18393510D01*
X33154407Y18418901D01*
X33230585D01*
X33382935Y18469685D02*
X33306760D01*
X33281366Y18444293D01*
Y18393510D01*
X33306760Y18368118D01*
X33382935D01*
X33433719D02*
Y18520470D01*
Y18418901D02*
X33509894Y18469685D01*
X33433719Y18418901D02*
X33509894Y18368118D01*
X28177502Y18520470D02*
Y18368118D01*
X28253680D01*
X28279071Y18393510D01*
Y18418901D01*
X28253680Y18444293D01*
X28177502D01*
X28253680D01*
X28279071Y18469685D01*
Y18495078D01*
X28253680Y18520470D01*
X28177502D01*
X28355246Y18368118D02*
X28406030D01*
X28431421Y18393510D01*
Y18444293D01*
X28406030Y18469685D01*
X28355246D01*
X28329855Y18444293D01*
Y18393510D01*
X28355246Y18368118D01*
X28507596Y18469685D02*
X28558380D01*
X28583771Y18444293D01*
Y18368118D01*
X28507596D01*
X28482205Y18393510D01*
X28507596Y18418901D01*
X28583771D01*
X28634555Y18469685D02*
Y18368118D01*
Y18418901D01*
X28659946Y18444293D01*
X28685339Y18469685D01*
X28710730D01*
X28888474Y18520470D02*
Y18368118D01*
X28812299D01*
X28786905Y18393510D01*
Y18444293D01*
X28812299Y18469685D01*
X28888474D01*
X29091608Y18520470D02*
Y18368118D01*
X29193176D01*
X29269351Y18469685D02*
X29320135D01*
X29345526Y18444293D01*
Y18368118D01*
X29269351D01*
X29243958Y18393510D01*
X29269351Y18418901D01*
X29345526D01*
X29396310Y18469685D02*
Y18393510D01*
X29421701Y18368118D01*
X29497876D01*
Y18342726D01*
X29472485Y18317334D01*
X29447092D01*
X29497876Y18368118D02*
Y18469685D01*
X29624835Y18368118D02*
X29574051D01*
X29548660Y18393510D01*
Y18444293D01*
X29574051Y18469685D01*
X29624835D01*
X29650226Y18444293D01*
Y18418901D01*
X29548660D01*
X29701010Y18469685D02*
Y18368118D01*
Y18418901D01*
X29726401Y18444293D01*
X29751794Y18469685D01*
X29777185D01*
X30107278Y18495078D02*
X30081888Y18520470D01*
X30031104D01*
X30005713Y18495078D01*
Y18469685D01*
X30031104Y18444293D01*
X30081888D01*
X30107278Y18418901D01*
Y18393510D01*
X30081888Y18368118D01*
X30031104D01*
X30005713Y18393510D01*
X30183453Y18495078D02*
Y18469685D01*
X30158063D01*
X30208847D01*
X30183453D01*
Y18393510D01*
X30208847Y18368118D01*
X30310413Y18469685D02*
X30361197D01*
X30386588Y18444293D01*
Y18368118D01*
X30310413D01*
X30285022Y18393510D01*
X30310413Y18418901D01*
X30386588D01*
X30538940Y18469685D02*
X30462766D01*
X30437372Y18444293D01*
Y18393510D01*
X30462766Y18368118D01*
X30538940D01*
X30589722D02*
Y18520470D01*
Y18418901D02*
X30665897Y18469685D01*
X30589722Y18418901D02*
X30665897Y18368118D01*
X26730057Y17885477D02*
X26755447Y17910869D01*
X26806232D01*
X26831625Y17885477D01*
Y17860085D01*
X26806232Y17834692D01*
X26780841D01*
X26806232D01*
X26831625Y17809302D01*
Y17783910D01*
X26806232Y17758517D01*
X26755447D01*
X26730057Y17783910D01*
X26882407Y17758517D02*
Y17783910D01*
X26907800D01*
Y17758517D01*
X26882407D01*
X27110934Y17910869D02*
X27009366D01*
Y17834692D01*
X27060150Y17860085D01*
X27085541D01*
X27110934Y17834692D01*
Y17783910D01*
X27085541Y17758517D01*
X27034760D01*
X27009366Y17783910D01*
X26806232Y17148918D02*
Y17301270D01*
X26730057Y17225093D01*
X26831625D01*
X26882407Y17148918D02*
Y17174310D01*
X26907800D01*
Y17148918D01*
X26882407D01*
X27110934D02*
X27009366D01*
X27110934Y17250485D01*
Y17275877D01*
X27085541Y17301270D01*
X27034760D01*
X27009366Y17275877D01*
X26806232Y16539317D02*
Y16691669D01*
X26730057Y16615492D01*
X26831625D01*
X26882407Y16539317D02*
Y16564709D01*
X26907800D01*
Y16539317D01*
X26882407D01*
X27110934D02*
X27009366D01*
X27110934Y16640884D01*
Y16666277D01*
X27085541Y16691669D01*
X27034760D01*
X27009366Y16666277D01*
X26806232Y15929718D02*
Y16082069D01*
X26730057Y16005893D01*
X26831625D01*
X26882407Y15929718D02*
Y15955110D01*
X26907800D01*
Y15929718D01*
X26882407D01*
X27110934D02*
X27009366D01*
X27110934Y16031285D01*
Y16056677D01*
X27085541Y16082069D01*
X27034760D01*
X27009366Y16056677D01*
X26806232Y15320119D02*
Y15472469D01*
X26730057Y15396294D01*
X26831625D01*
X26882407Y15320119D02*
Y15345509D01*
X26907800D01*
Y15320119D01*
X26882407D01*
X27110934D02*
X27009366D01*
X27110934Y15421684D01*
Y15447076D01*
X27085541Y15472469D01*
X27034760D01*
X27009366Y15447076D01*
X26806232Y14710518D02*
Y14862869D01*
X26730057Y14786693D01*
X26831625D01*
X26882407Y14710518D02*
Y14735910D01*
X26907800D01*
Y14710518D01*
X26882407D01*
X27110934D02*
X27009366D01*
X27110934Y14812085D01*
Y14837477D01*
X27085541Y14862869D01*
X27034760D01*
X27009366Y14837477D01*
X26730057Y14227876D02*
X26755447Y14253268D01*
X26806232D01*
X26831625Y14227876D01*
Y14202486D01*
X26806232Y14177094D01*
X26780841D01*
X26806232D01*
X26831625Y14151701D01*
Y14126311D01*
X26806232Y14100919D01*
X26755447D01*
X26730057Y14126311D01*
X26882407Y14100919D02*
Y14126311D01*
X26907800D01*
Y14100919D01*
X26882407D01*
X27110934Y14253268D02*
X27009366D01*
Y14177094D01*
X27060150Y14202486D01*
X27085541D01*
X27110934Y14177094D01*
Y14126311D01*
X27085541Y14100919D01*
X27034760D01*
X27009366Y14126311D01*
X26831625Y18495078D02*
X26806232Y18520470D01*
X26755447D01*
X26730057Y18495078D01*
Y18393510D01*
X26755447Y18368118D01*
X26806232D01*
X26831625Y18393510D01*
X26907800Y18368118D02*
X26958582D01*
X26983975Y18393510D01*
Y18444293D01*
X26958582Y18469685D01*
X26907800D01*
X26882407Y18444293D01*
Y18393510D01*
X26907800Y18368118D01*
X27034760D02*
Y18469685D01*
X27110934D01*
X27136325Y18444293D01*
Y18368118D01*
X27187109D02*
X27263284D01*
X27288675Y18393510D01*
X27263284Y18418901D01*
X27212500D01*
X27187109Y18444293D01*
X27212500Y18469685D01*
X27288675D01*
X27364850Y18495078D02*
Y18469685D01*
X27339459D01*
X27390244D01*
X27364850D01*
Y18393510D01*
X27390244Y18368118D01*
X27491809Y18469685D02*
X27542593D01*
X27567987Y18444293D01*
Y18368118D01*
X27491809D01*
X27466418Y18393510D01*
X27491809Y18418901D01*
X27567987D01*
X27618768Y18368118D02*
Y18469685D01*
X27694943D01*
X27720337Y18444293D01*
Y18368118D01*
X27796512Y18495078D02*
Y18469685D01*
X27771121D01*
X27821902D01*
X27796512D01*
Y18393510D01*
X27821902Y18368118D01*
X25079475Y17885477D02*
X25104868Y17910869D01*
X25155650D01*
X25181042Y17885477D01*
Y17783910D01*
X25155650Y17758517D01*
X25104868D01*
X25079475Y17783910D01*
Y17885477D01*
X25231825Y17758517D02*
Y17783910D01*
X25257217D01*
Y17758517D01*
X25231825D01*
X25358784Y17885477D02*
X25384177Y17910869D01*
X25434959D01*
X25460352Y17885477D01*
Y17783910D01*
X25434959Y17758517D01*
X25384177D01*
X25358784Y17783910D01*
Y17885477D01*
X25612704Y17758517D02*
X25511136D01*
X25612704Y17860085D01*
Y17885477D01*
X25587311Y17910869D01*
X25536528D01*
X25511136Y17885477D01*
X25765054Y17910869D02*
X25663486D01*
Y17834692D01*
X25714270Y17860085D01*
X25739661D01*
X25765054Y17834692D01*
Y17783910D01*
X25739661Y17758517D01*
X25688879D01*
X25663486Y17783910D01*
X25815836Y17758517D02*
Y17860085D01*
X25841229D01*
X25866620Y17834692D01*
Y17758517D01*
Y17834692D01*
X25892010Y17860085D01*
X25917404Y17834692D01*
Y17758517D01*
X25968188D02*
Y17860085D01*
X25993579D01*
X26018970Y17834692D01*
Y17758517D01*
Y17834692D01*
X26044363Y17860085D01*
X26069754Y17834692D01*
Y17758517D01*
X25079475Y17580676D02*
X25104868Y17606068D01*
X25155650D01*
X25181042Y17580676D01*
Y17479111D01*
X25155650Y17453719D01*
X25104868D01*
X25079475Y17479111D01*
Y17580676D01*
X25231825Y17453719D02*
Y17479111D01*
X25257217D01*
Y17453719D01*
X25231825D01*
X25358784Y17580676D02*
X25384177Y17606068D01*
X25434959D01*
X25460352Y17580676D01*
Y17479111D01*
X25434959Y17453719D01*
X25384177D01*
X25358784Y17479111D01*
Y17580676D01*
X25511136D02*
X25536528Y17606068D01*
X25587311D01*
X25612704Y17580676D01*
Y17555286D01*
X25587311Y17529893D01*
X25561919D01*
X25587311D01*
X25612704Y17504501D01*
Y17479111D01*
X25587311Y17453719D01*
X25536528D01*
X25511136Y17479111D01*
X25765054Y17606068D02*
X25663486D01*
Y17529893D01*
X25714270Y17555286D01*
X25739661D01*
X25765054Y17529893D01*
Y17479111D01*
X25739661Y17453719D01*
X25688879D01*
X25663486Y17479111D01*
X25815836Y17453719D02*
Y17555286D01*
X25841229D01*
X25866620Y17529893D01*
Y17453719D01*
Y17529893D01*
X25892010Y17555286D01*
X25917404Y17529893D01*
Y17453719D01*
X25968188D02*
Y17555286D01*
X25993579D01*
X26018970Y17529893D01*
Y17453719D01*
Y17529893D01*
X26044363Y17555286D01*
X26069754Y17529893D01*
Y17453719D01*
X25079475Y17275877D02*
X25104868Y17301270D01*
X25155650D01*
X25181042Y17275877D01*
Y17174310D01*
X25155650Y17148918D01*
X25104868D01*
X25079475Y17174310D01*
Y17275877D01*
X25231825Y17148918D02*
Y17174310D01*
X25257217D01*
Y17148918D01*
X25231825D01*
X25358784D02*
X25409567D01*
X25384177D01*
Y17301270D01*
X25358784Y17275877D01*
X25485744Y17148918D02*
X25536526D01*
X25511136D01*
Y17301270D01*
X25485744Y17275877D01*
X25714270Y17301270D02*
X25612704D01*
Y17225093D01*
X25663486Y17250485D01*
X25688879D01*
X25714270Y17225093D01*
Y17174310D01*
X25688879Y17148918D01*
X25638095D01*
X25612704Y17174310D01*
X25765054Y17148918D02*
Y17250485D01*
X25790445D01*
X25815836Y17225093D01*
Y17148918D01*
Y17225093D01*
X25841229Y17250485D01*
X25866620Y17225093D01*
Y17148918D01*
X25917404D02*
Y17250485D01*
X25942795D01*
X25968188Y17225093D01*
Y17148918D01*
Y17225093D01*
X25993579Y17250485D01*
X26018970Y17225093D01*
Y17148918D01*
X25079475Y16971077D02*
X25104868Y16996469D01*
X25155650D01*
X25181042Y16971077D01*
Y16869510D01*
X25155650Y16844118D01*
X25104868D01*
X25079475Y16869510D01*
Y16971077D01*
X25231825Y16844118D02*
Y16869510D01*
X25257217D01*
Y16844118D01*
X25231825D01*
X25358784Y16971077D02*
X25384177Y16996469D01*
X25434959D01*
X25460352Y16971077D01*
Y16869510D01*
X25434959Y16844118D01*
X25384177D01*
X25358784Y16869510D01*
Y16971077D01*
X25511136D02*
X25536528Y16996469D01*
X25587311D01*
X25612704Y16971077D01*
Y16945685D01*
X25587311Y16920293D01*
X25561919D01*
X25587311D01*
X25612704Y16894901D01*
Y16869510D01*
X25587311Y16844118D01*
X25536528D01*
X25511136Y16869510D01*
X25765054Y16996469D02*
X25663486D01*
Y16920293D01*
X25714270Y16945685D01*
X25739661D01*
X25765054Y16920293D01*
Y16869510D01*
X25739661Y16844118D01*
X25688879D01*
X25663486Y16869510D01*
X25815836Y16844118D02*
Y16945685D01*
X25841229D01*
X25866620Y16920293D01*
Y16844118D01*
Y16920293D01*
X25892010Y16945685D01*
X25917404Y16920293D01*
Y16844118D01*
X25968188D02*
Y16945685D01*
X25993579D01*
X26018970Y16920293D01*
Y16844118D01*
Y16920293D01*
X26044363Y16945685D01*
X26069754Y16920293D01*
Y16844118D01*
X25079475Y16666277D02*
X25104868Y16691669D01*
X25155650D01*
X25181042Y16666277D01*
Y16564709D01*
X25155650Y16539317D01*
X25104868D01*
X25079475Y16564709D01*
Y16666277D01*
X25231825Y16539317D02*
Y16564709D01*
X25257217D01*
Y16539317D01*
X25231825D01*
X25434959D02*
Y16691669D01*
X25358784Y16615492D01*
X25460352D01*
X25511136Y16666277D02*
X25536528Y16691669D01*
X25587311D01*
X25612704Y16666277D01*
Y16564709D01*
X25587311Y16539317D01*
X25536528D01*
X25511136Y16564709D01*
Y16666277D01*
X25663486D02*
X25688879Y16691669D01*
X25739661D01*
X25765054Y16666277D01*
Y16564709D01*
X25739661Y16539317D01*
X25688879D01*
X25663486Y16564709D01*
Y16666277D01*
X25815836Y16539317D02*
Y16640884D01*
X25841229D01*
X25866620Y16615492D01*
Y16539317D01*
Y16615492D01*
X25892010Y16640884D01*
X25917404Y16615492D01*
Y16539317D01*
X25968188D02*
Y16640884D01*
X25993579D01*
X26018970Y16615492D01*
Y16539317D01*
Y16615492D01*
X26044363Y16640884D01*
X26069754Y16615492D01*
Y16539317D01*
X25079475Y16361478D02*
X25104868Y16386868D01*
X25155650D01*
X25181042Y16361478D01*
Y16259911D01*
X25155650Y16234518D01*
X25104868D01*
X25079475Y16259911D01*
Y16361478D01*
X25231825Y16234518D02*
Y16259911D01*
X25257217D01*
Y16234518D01*
X25231825D01*
X25358784Y16361478D02*
X25384177Y16386868D01*
X25434959D01*
X25460352Y16361478D01*
Y16259911D01*
X25434959Y16234518D01*
X25384177D01*
X25358784Y16259911D01*
Y16361478D01*
X25511136D02*
X25536528Y16386868D01*
X25587311D01*
X25612704Y16361478D01*
Y16336086D01*
X25587311Y16310693D01*
X25561919D01*
X25587311D01*
X25612704Y16285301D01*
Y16259911D01*
X25587311Y16234518D01*
X25536528D01*
X25511136Y16259911D01*
X25765054Y16386868D02*
X25663486D01*
Y16310693D01*
X25714270Y16336086D01*
X25739661D01*
X25765054Y16310693D01*
Y16259911D01*
X25739661Y16234518D01*
X25688879D01*
X25663486Y16259911D01*
X25815836Y16234518D02*
Y16336086D01*
X25841229D01*
X25866620Y16310693D01*
Y16234518D01*
Y16310693D01*
X25892010Y16336086D01*
X25917404Y16310693D01*
Y16234518D01*
X25968188D02*
Y16336086D01*
X25993579D01*
X26018970Y16310693D01*
Y16234518D01*
Y16310693D01*
X26044363Y16336086D01*
X26069754Y16310693D01*
Y16234518D01*
X25079475Y16056677D02*
X25104868Y16082069D01*
X25155650D01*
X25181042Y16056677D01*
Y15955110D01*
X25155650Y15929718D01*
X25104868D01*
X25079475Y15955110D01*
Y16056677D01*
X25231825Y15929718D02*
Y15955110D01*
X25257217D01*
Y15929718D01*
X25231825D01*
X25460352D02*
X25358784D01*
X25460352Y16031285D01*
Y16056677D01*
X25434959Y16082069D01*
X25384177D01*
X25358784Y16056677D01*
X25511136Y15955110D02*
X25536528Y15929718D01*
X25587311D01*
X25612704Y15955110D01*
Y16056677D01*
X25587311Y16082069D01*
X25536528D01*
X25511136Y16056677D01*
Y16031285D01*
X25536528Y16005893D01*
X25612704D01*
X25765054Y16082069D02*
X25714270Y16056677D01*
X25663486Y16005893D01*
Y15955110D01*
X25688879Y15929718D01*
X25739661D01*
X25765054Y15955110D01*
Y15980501D01*
X25739661Y16005893D01*
X25663486D01*
X25815836Y15929718D02*
Y16031285D01*
X25841229D01*
X25866620Y16005893D01*
Y15929718D01*
Y16005893D01*
X25892010Y16031285D01*
X25917404Y16005893D01*
Y15929718D01*
X25968188D02*
Y16031285D01*
X25993579D01*
X26018970Y16005893D01*
Y15929718D01*
Y16005893D01*
X26044363Y16031285D01*
X26069754Y16005893D01*
Y15929718D01*
X25079475Y15751877D02*
X25104868Y15777269D01*
X25155650D01*
X25181042Y15751877D01*
Y15650310D01*
X25155650Y15624918D01*
X25104868D01*
X25079475Y15650310D01*
Y15751877D01*
X25231825Y15624918D02*
Y15650310D01*
X25257217D01*
Y15624918D01*
X25231825D01*
X25358784Y15751877D02*
X25384177Y15777269D01*
X25434959D01*
X25460352Y15751877D01*
Y15650310D01*
X25434959Y15624918D01*
X25384177D01*
X25358784Y15650310D01*
Y15751877D01*
X25511136D02*
X25536528Y15777269D01*
X25587311D01*
X25612704Y15751877D01*
Y15726485D01*
X25587311Y15701093D01*
X25561919D01*
X25587311D01*
X25612704Y15675700D01*
Y15650310D01*
X25587311Y15624918D01*
X25536528D01*
X25511136Y15650310D01*
X25765054Y15777269D02*
X25663486D01*
Y15701093D01*
X25714270Y15726485D01*
X25739661D01*
X25765054Y15701093D01*
Y15650310D01*
X25739661Y15624918D01*
X25688879D01*
X25663486Y15650310D01*
X25815836Y15624918D02*
Y15726485D01*
X25841229D01*
X25866620Y15701093D01*
Y15624918D01*
Y15701093D01*
X25892010Y15726485D01*
X25917404Y15701093D01*
Y15624918D01*
X25968188D02*
Y15726485D01*
X25993579D01*
X26018970Y15701093D01*
Y15624918D01*
Y15701093D01*
X26044363Y15726485D01*
X26069754Y15701093D01*
Y15624918D01*
X25079475Y15447076D02*
X25104868Y15472469D01*
X25155650D01*
X25181042Y15447076D01*
Y15345509D01*
X25155650Y15320119D01*
X25104868D01*
X25079475Y15345509D01*
Y15447076D01*
X25231825Y15320119D02*
Y15345509D01*
X25257217D01*
Y15320119D01*
X25231825D01*
X25434959D02*
Y15472469D01*
X25358784Y15396294D01*
X25460352D01*
X25511136Y15447076D02*
X25536528Y15472469D01*
X25587311D01*
X25612704Y15447076D01*
Y15345509D01*
X25587311Y15320119D01*
X25536528D01*
X25511136Y15345509D01*
Y15447076D01*
X25663486D02*
X25688879Y15472469D01*
X25739661D01*
X25765054Y15447076D01*
Y15345509D01*
X25739661Y15320119D01*
X25688879D01*
X25663486Y15345509D01*
Y15447076D01*
X25815836Y15320119D02*
Y15421684D01*
X25841229D01*
X25866620Y15396294D01*
Y15320119D01*
Y15396294D01*
X25892010Y15421684D01*
X25917404Y15396294D01*
Y15320119D01*
X25968188D02*
Y15421684D01*
X25993579D01*
X26018970Y15396294D01*
Y15320119D01*
Y15396294D01*
X26044363Y15421684D01*
X26069754Y15396294D01*
Y15320119D01*
X25079475Y15142278D02*
X25104868Y15167670D01*
X25155650D01*
X25181042Y15142278D01*
Y15040710D01*
X25155650Y15015318D01*
X25104868D01*
X25079475Y15040710D01*
Y15142278D01*
X25231825Y15015318D02*
Y15040710D01*
X25257217D01*
Y15015318D01*
X25231825D01*
X25358784Y15142278D02*
X25384177Y15167670D01*
X25434959D01*
X25460352Y15142278D01*
Y15040710D01*
X25434959Y15015318D01*
X25384177D01*
X25358784Y15040710D01*
Y15142278D01*
X25511136D02*
X25536528Y15167670D01*
X25587311D01*
X25612704Y15142278D01*
Y15116885D01*
X25587311Y15091493D01*
X25561919D01*
X25587311D01*
X25612704Y15066101D01*
Y15040710D01*
X25587311Y15015318D01*
X25536528D01*
X25511136Y15040710D01*
X25765054Y15167670D02*
X25663486D01*
Y15091493D01*
X25714270Y15116885D01*
X25739661D01*
X25765054Y15091493D01*
Y15040710D01*
X25739661Y15015318D01*
X25688879D01*
X25663486Y15040710D01*
X25815836Y15015318D02*
Y15116885D01*
X25841229D01*
X25866620Y15091493D01*
Y15015318D01*
Y15091493D01*
X25892010Y15116885D01*
X25917404Y15091493D01*
Y15015318D01*
X25968188D02*
Y15116885D01*
X25993579D01*
X26018970Y15091493D01*
Y15015318D01*
Y15091493D01*
X26044363Y15116885D01*
X26069754Y15091493D01*
Y15015318D01*
X25079475Y14837477D02*
X25104868Y14862869D01*
X25155650D01*
X25181042Y14837477D01*
Y14735910D01*
X25155650Y14710518D01*
X25104868D01*
X25079475Y14735910D01*
Y14837477D01*
X25231825Y14710518D02*
Y14735910D01*
X25257217D01*
Y14710518D01*
X25231825D01*
X25358784D02*
X25409567D01*
X25384177D01*
Y14862869D01*
X25358784Y14837477D01*
X25485744Y14710518D02*
X25536526D01*
X25511136D01*
Y14862869D01*
X25485744Y14837477D01*
X25714270Y14862869D02*
X25612704D01*
Y14786693D01*
X25663486Y14812085D01*
X25688879D01*
X25714270Y14786693D01*
Y14735910D01*
X25688879Y14710518D01*
X25638095D01*
X25612704Y14735910D01*
X25765054Y14710518D02*
Y14812085D01*
X25790445D01*
X25815836Y14786693D01*
Y14710518D01*
Y14786693D01*
X25841229Y14812085D01*
X25866620Y14786693D01*
Y14710518D01*
X25917404D02*
Y14812085D01*
X25942795D01*
X25968188Y14786693D01*
Y14710518D01*
Y14786693D01*
X25993579Y14812085D01*
X26018970Y14786693D01*
Y14710518D01*
X25079475Y14532677D02*
X25104868Y14558069D01*
X25155650D01*
X25181042Y14532677D01*
Y14431110D01*
X25155650Y14405717D01*
X25104868D01*
X25079475Y14431110D01*
Y14532677D01*
X25231825Y14405717D02*
Y14431110D01*
X25257217D01*
Y14405717D01*
X25231825D01*
X25358784Y14532677D02*
X25384177Y14558069D01*
X25434959D01*
X25460352Y14532677D01*
Y14431110D01*
X25434959Y14405717D01*
X25384177D01*
X25358784Y14431110D01*
Y14532677D01*
X25511136D02*
X25536528Y14558069D01*
X25587311D01*
X25612704Y14532677D01*
Y14507285D01*
X25587311Y14481892D01*
X25561919D01*
X25587311D01*
X25612704Y14456500D01*
Y14431110D01*
X25587311Y14405717D01*
X25536528D01*
X25511136Y14431110D01*
X25765054Y14558069D02*
X25663486D01*
Y14481892D01*
X25714270Y14507285D01*
X25739661D01*
X25765054Y14481892D01*
Y14431110D01*
X25739661Y14405717D01*
X25688879D01*
X25663486Y14431110D01*
X25815836Y14405717D02*
Y14507285D01*
X25841229D01*
X25866620Y14481892D01*
Y14405717D01*
Y14481892D01*
X25892010Y14507285D01*
X25917404Y14481892D01*
Y14405717D01*
X25968188D02*
Y14507285D01*
X25993579D01*
X26018970Y14481892D01*
Y14405717D01*
Y14481892D01*
X26044363Y14507285D01*
X26069754Y14481892D01*
Y14405717D01*
X25079475Y14227876D02*
X25104868Y14253268D01*
X25155650D01*
X25181042Y14227876D01*
Y14126311D01*
X25155650Y14100919D01*
X25104868D01*
X25079475Y14126311D01*
Y14227876D01*
X25231825Y14100919D02*
Y14126311D01*
X25257217D01*
Y14100919D01*
X25231825D01*
X25358784Y14227876D02*
X25384177Y14253268D01*
X25434959D01*
X25460352Y14227876D01*
Y14126311D01*
X25434959Y14100919D01*
X25384177D01*
X25358784Y14126311D01*
Y14227876D01*
X25612704Y14100919D02*
X25511136D01*
X25612704Y14202486D01*
Y14227876D01*
X25587311Y14253268D01*
X25536528D01*
X25511136Y14227876D01*
X25765054Y14253268D02*
X25663486D01*
Y14177094D01*
X25714270Y14202486D01*
X25739661D01*
X25765054Y14177094D01*
Y14126311D01*
X25739661Y14100919D01*
X25688879D01*
X25663486Y14126311D01*
X25815836Y14100919D02*
Y14202486D01*
X25841229D01*
X25866620Y14177094D01*
Y14100919D01*
Y14177094D01*
X25892010Y14202486D01*
X25917404Y14177094D01*
Y14100919D01*
X25968188D02*
Y14202486D01*
X25993579D01*
X26018970Y14177094D01*
Y14100919D01*
Y14177094D01*
X26044363Y14202486D01*
X26069754Y14177094D01*
Y14100919D01*
X25079475Y18520470D02*
X25181042D01*
X25130260D01*
Y18368118D01*
X25231825Y18520470D02*
Y18368118D01*
Y18444293D01*
X25257217Y18469685D01*
X25308002D01*
X25333392Y18444293D01*
Y18368118D01*
X25384177D02*
X25434959D01*
X25409569D01*
Y18469685D01*
X25384177D01*
X25612704D02*
X25536528D01*
X25511136Y18444293D01*
Y18393510D01*
X25536528Y18368118D01*
X25612704D01*
X25663486D02*
Y18520470D01*
Y18418901D02*
X25739661Y18469685D01*
X25663486Y18418901D02*
X25739661Y18368118D01*
X25815836D02*
Y18469685D01*
X25892010D01*
X25917404Y18444293D01*
Y18368118D01*
X26044363D02*
X25993579D01*
X25968188Y18393510D01*
Y18444293D01*
X25993579Y18469685D01*
X26044363D01*
X26069754Y18444293D01*
Y18418901D01*
X25968188D01*
X26120538Y18368118D02*
X26196713D01*
X26222107Y18393510D01*
X26196713Y18418901D01*
X26145929D01*
X26120538Y18444293D01*
X26145929Y18469685D01*
X26222107D01*
X26272888Y18368118D02*
X26349066D01*
X26374457Y18393510D01*
X26349066Y18418901D01*
X26298282D01*
X26272888Y18444293D01*
X26298282Y18469685D01*
X26374457D01*
X22997234Y17885477D02*
X22971841Y17910869D01*
X22921059D01*
X22895667Y17885477D01*
Y17860085D01*
X22921059Y17834692D01*
X22971841D01*
X22997234Y17809302D01*
Y17783910D01*
X22971841Y17758517D01*
X22921059D01*
X22895667Y17783910D01*
X23073410Y17758517D02*
X23124193D01*
X23149585Y17783910D01*
Y17834692D01*
X23124193Y17860085D01*
X23073410D01*
X23048018Y17834692D01*
Y17783910D01*
X23073410Y17758517D01*
X23200368D02*
X23251152D01*
X23225760D01*
Y17910869D01*
X23200368D01*
X23428894D02*
Y17758517D01*
X23352719D01*
X23327327Y17783910D01*
Y17834692D01*
X23352719Y17860085D01*
X23428894D01*
X23555853Y17758517D02*
X23505070D01*
X23479678Y17783910D01*
Y17834692D01*
X23505070Y17860085D01*
X23555853D01*
X23581245Y17834692D01*
Y17809302D01*
X23479678D01*
X23632030Y17860085D02*
Y17758517D01*
Y17809302D01*
X23657420Y17834692D01*
X23682812Y17860085D01*
X23708205D01*
X23936729Y17758517D02*
Y17910869D01*
X24012904D01*
X24038297Y17885477D01*
Y17834692D01*
X24012904Y17809302D01*
X23936729D01*
X23987514D02*
X24038297Y17758517D01*
X24165256D02*
X24114473D01*
X24089081Y17783910D01*
Y17834692D01*
X24114473Y17860085D01*
X24165256D01*
X24190648Y17834692D01*
Y17809302D01*
X24089081D01*
X24241432Y17758517D02*
X24317607D01*
X24342999Y17783910D01*
X24317607Y17809302D01*
X24266823D01*
X24241432Y17834692D01*
X24266823Y17860085D01*
X24342999D01*
X24393782Y17758517D02*
X24444566D01*
X24419174D01*
Y17860085D01*
X24393782D01*
X24520741Y17758517D02*
X24596918D01*
X24622308Y17783910D01*
X24596918Y17809302D01*
X24546133D01*
X24520741Y17834692D01*
X24546133Y17860085D01*
X24622308D01*
X24698483Y17885477D02*
Y17860085D01*
X24673093D01*
X24723875D01*
X24698483D01*
Y17783910D01*
X24723875Y17758517D01*
X22997234Y17580676D02*
X22971841Y17606068D01*
X22921059D01*
X22895667Y17580676D01*
Y17479111D01*
X22921059Y17453719D01*
X22971841D01*
X22997234Y17479111D01*
X23073410Y17453719D02*
X23124193D01*
X23149585Y17479111D01*
Y17529893D01*
X23124193Y17555286D01*
X23073410D01*
X23048018Y17529893D01*
Y17479111D01*
X23073410Y17453719D01*
X23200368Y17402934D02*
Y17555286D01*
X23276544D01*
X23301936Y17529893D01*
Y17479111D01*
X23276544Y17453719D01*
X23200368D01*
X23352719Y17402934D02*
Y17555286D01*
X23428894D01*
X23454286Y17529893D01*
Y17479111D01*
X23428894Y17453719D01*
X23352719D01*
X23581245D02*
X23530463D01*
X23505070Y17479111D01*
Y17529893D01*
X23530463Y17555286D01*
X23581245D01*
X23606638Y17529893D01*
Y17504501D01*
X23505070D01*
X23657420Y17555286D02*
Y17453719D01*
Y17504501D01*
X23682812Y17529893D01*
X23708205Y17555286D01*
X23733595D01*
X22997234Y16971077D02*
X22971841Y16996469D01*
X22921059D01*
X22895667Y16971077D01*
Y16869510D01*
X22921059Y16844118D01*
X22971841D01*
X22997234Y16869510D01*
X23073410Y16844118D02*
X23124193D01*
X23149585Y16869510D01*
Y16920293D01*
X23124193Y16945685D01*
X23073410D01*
X23048018Y16920293D01*
Y16869510D01*
X23073410Y16844118D01*
X23200368Y16793333D02*
Y16945685D01*
X23276544D01*
X23301936Y16920293D01*
Y16869510D01*
X23276544Y16844118D01*
X23200368D01*
X23352719Y16793333D02*
Y16945685D01*
X23428894D01*
X23454286Y16920293D01*
Y16869510D01*
X23428894Y16844118D01*
X23352719D01*
X23581245D02*
X23530463D01*
X23505070Y16869510D01*
Y16920293D01*
X23530463Y16945685D01*
X23581245D01*
X23606638Y16920293D01*
Y16894901D01*
X23505070D01*
X23657420Y16945685D02*
Y16844118D01*
Y16894901D01*
X23682812Y16920293D01*
X23708205Y16945685D01*
X23733595D01*
X22997234Y16361478D02*
X22971841Y16386868D01*
X22921059D01*
X22895667Y16361478D01*
Y16259911D01*
X22921059Y16234518D01*
X22971841D01*
X22997234Y16259911D01*
X23073410Y16234518D02*
X23124193D01*
X23149585Y16259911D01*
Y16310693D01*
X23124193Y16336086D01*
X23073410D01*
X23048018Y16310693D01*
Y16259911D01*
X23073410Y16234518D01*
X23200368Y16183734D02*
Y16336086D01*
X23276544D01*
X23301936Y16310693D01*
Y16259911D01*
X23276544Y16234518D01*
X23200368D01*
X23352719Y16183734D02*
Y16336086D01*
X23428894D01*
X23454286Y16310693D01*
Y16259911D01*
X23428894Y16234518D01*
X23352719D01*
X23581245D02*
X23530463D01*
X23505070Y16259911D01*
Y16310693D01*
X23530463Y16336086D01*
X23581245D01*
X23606638Y16310693D01*
Y16285301D01*
X23505070D01*
X23657420Y16336086D02*
Y16234518D01*
Y16285301D01*
X23682812Y16310693D01*
X23708205Y16336086D01*
X23733595D01*
X22997234Y15751877D02*
X22971841Y15777269D01*
X22921059D01*
X22895667Y15751877D01*
Y15650310D01*
X22921059Y15624918D01*
X22971841D01*
X22997234Y15650310D01*
X23073410Y15624918D02*
X23124193D01*
X23149585Y15650310D01*
Y15701093D01*
X23124193Y15726485D01*
X23073410D01*
X23048018Y15701093D01*
Y15650310D01*
X23073410Y15624918D01*
X23200368Y15574133D02*
Y15726485D01*
X23276544D01*
X23301936Y15701093D01*
Y15650310D01*
X23276544Y15624918D01*
X23200368D01*
X23352719Y15574133D02*
Y15726485D01*
X23428894D01*
X23454286Y15701093D01*
Y15650310D01*
X23428894Y15624918D01*
X23352719D01*
X23581245D02*
X23530463D01*
X23505070Y15650310D01*
Y15701093D01*
X23530463Y15726485D01*
X23581245D01*
X23606638Y15701093D01*
Y15675700D01*
X23505070D01*
X23657420Y15726485D02*
Y15624918D01*
Y15675700D01*
X23682812Y15701093D01*
X23708205Y15726485D01*
X23733595D01*
X22997234Y15142278D02*
X22971841Y15167670D01*
X22921059D01*
X22895667Y15142278D01*
Y15040710D01*
X22921059Y15015318D01*
X22971841D01*
X22997234Y15040710D01*
X23073410Y15015318D02*
X23124193D01*
X23149585Y15040710D01*
Y15091493D01*
X23124193Y15116885D01*
X23073410D01*
X23048018Y15091493D01*
Y15040710D01*
X23073410Y15015318D01*
X23200368Y14964534D02*
Y15116885D01*
X23276544D01*
X23301936Y15091493D01*
Y15040710D01*
X23276544Y15015318D01*
X23200368D01*
X23352719Y14964534D02*
Y15116885D01*
X23428894D01*
X23454286Y15091493D01*
Y15040710D01*
X23428894Y15015318D01*
X23352719D01*
X23581245D02*
X23530463D01*
X23505070Y15040710D01*
Y15091493D01*
X23530463Y15116885D01*
X23581245D01*
X23606638Y15091493D01*
Y15066101D01*
X23505070D01*
X23657420Y15116885D02*
Y15015318D01*
Y15066101D01*
X23682812Y15091493D01*
X23708205Y15116885D01*
X23733595D01*
X22997234Y14532677D02*
X22971841Y14558069D01*
X22921059D01*
X22895667Y14532677D01*
Y14431110D01*
X22921059Y14405717D01*
X22971841D01*
X22997234Y14431110D01*
X23073410Y14405717D02*
X23124193D01*
X23149585Y14431110D01*
Y14481892D01*
X23124193Y14507285D01*
X23073410D01*
X23048018Y14481892D01*
Y14431110D01*
X23073410Y14405717D01*
X23200368Y14354935D02*
Y14507285D01*
X23276544D01*
X23301936Y14481892D01*
Y14431110D01*
X23276544Y14405717D01*
X23200368D01*
X23352719Y14354935D02*
Y14507285D01*
X23428894D01*
X23454286Y14481892D01*
Y14431110D01*
X23428894Y14405717D01*
X23352719D01*
X23581245D02*
X23530463D01*
X23505070Y14431110D01*
Y14481892D01*
X23530463Y14507285D01*
X23581245D01*
X23606638Y14481892D01*
Y14456500D01*
X23505070D01*
X23657420Y14507285D02*
Y14405717D01*
Y14456500D01*
X23682812Y14481892D01*
X23708205Y14507285D01*
X23733595D01*
X22997234Y14227876D02*
X22971841Y14253268D01*
X22921059D01*
X22895667Y14227876D01*
Y14202486D01*
X22921059Y14177094D01*
X22971841D01*
X22997234Y14151701D01*
Y14126311D01*
X22971841Y14100919D01*
X22921059D01*
X22895667Y14126311D01*
X23073410Y14100919D02*
X23124193D01*
X23149585Y14126311D01*
Y14177094D01*
X23124193Y14202486D01*
X23073410D01*
X23048018Y14177094D01*
Y14126311D01*
X23073410Y14100919D01*
X23200368D02*
X23251152D01*
X23225760D01*
Y14253268D01*
X23200368D01*
X23428894D02*
Y14100919D01*
X23352719D01*
X23327327Y14126311D01*
Y14177094D01*
X23352719Y14202486D01*
X23428894D01*
X23555853Y14100919D02*
X23505070D01*
X23479678Y14126311D01*
Y14177094D01*
X23505070Y14202486D01*
X23555853D01*
X23581245Y14177094D01*
Y14151701D01*
X23479678D01*
X23632030Y14202486D02*
Y14100919D01*
Y14151701D01*
X23657420Y14177094D01*
X23682812Y14202486D01*
X23708205D01*
X23936729Y14100919D02*
Y14253268D01*
X24012904D01*
X24038297Y14227876D01*
Y14177094D01*
X24012904Y14151701D01*
X23936729D01*
X23987514D02*
X24038297Y14100919D01*
X24165256D02*
X24114473D01*
X24089081Y14126311D01*
Y14177094D01*
X24114473Y14202486D01*
X24165256D01*
X24190648Y14177094D01*
Y14151701D01*
X24089081D01*
X24241432Y14100919D02*
X24317607D01*
X24342999Y14126311D01*
X24317607Y14151701D01*
X24266823D01*
X24241432Y14177094D01*
X24266823Y14202486D01*
X24342999D01*
X24393782Y14100919D02*
X24444566D01*
X24419174D01*
Y14202486D01*
X24393782D01*
X24520741Y14100919D02*
X24596918D01*
X24622308Y14126311D01*
X24596918Y14151701D01*
X24546133D01*
X24520741Y14177094D01*
X24546133Y14202486D01*
X24622308D01*
X24698483Y14227876D02*
Y14202486D01*
X24673093D01*
X24723875D01*
X24698483D01*
Y14126311D01*
X24723875Y14100919D01*
X22895667Y18368118D02*
Y18520470D01*
X22946449Y18469685D01*
X22997234Y18520470D01*
Y18368118D01*
X23073410Y18469685D02*
X23124193D01*
X23149585Y18444293D01*
Y18368118D01*
X23073410D01*
X23048018Y18393510D01*
X23073410Y18418901D01*
X23149585D01*
X23225760Y18495078D02*
Y18469685D01*
X23200368D01*
X23251152D01*
X23225760D01*
Y18393510D01*
X23251152Y18368118D01*
X23403503D02*
X23352719D01*
X23327327Y18393510D01*
Y18444293D01*
X23352719Y18469685D01*
X23403503D01*
X23428894Y18444293D01*
Y18418901D01*
X23327327D01*
X23479678Y18469685D02*
Y18368118D01*
Y18418901D01*
X23505070Y18444293D01*
X23530461Y18469685D01*
X23555853D01*
X23632030Y18368118D02*
X23682812D01*
X23657420D01*
Y18469685D01*
X23632030D01*
X23784380D02*
X23835162D01*
X23860555Y18444293D01*
Y18368118D01*
X23784380D01*
X23758987Y18393510D01*
X23784380Y18418901D01*
X23860555D01*
X23911337Y18368118D02*
X23962122D01*
X23936729D01*
Y18520470D01*
X23911337D01*
X19950105Y18215669D02*
X20051672D01*
X20000888D01*
Y18063318D01*
X20127847D02*
X20178632D01*
X20204024Y18088710D01*
Y18139493D01*
X20178632Y18164885D01*
X20127847D01*
X20102457Y18139493D01*
Y18088710D01*
X20127847Y18063318D01*
X20254807Y18012534D02*
Y18164885D01*
X20330981D01*
X20356374Y18139493D01*
Y18088710D01*
X20330981Y18063318D01*
X20254807D01*
X20635683Y18215669D02*
X20584900D01*
X20559508Y18190277D01*
Y18088710D01*
X20584900Y18063318D01*
X20635683D01*
X20661075Y18088710D01*
Y18190277D01*
X20635683Y18215669D01*
X20711858Y18164885D02*
X20762642Y18063318D01*
X20813426Y18164885D01*
X20940385Y18063318D02*
X20889601D01*
X20864209Y18088710D01*
Y18139493D01*
X20889601Y18164885D01*
X20940385D01*
X20965776Y18139493D01*
Y18114101D01*
X20864209D01*
X21016560Y18164885D02*
Y18063318D01*
Y18114101D01*
X21041953Y18139493D01*
X21067343Y18164885D01*
X21092735D01*
X21168912Y18063318D02*
X21219695D01*
X21194302D01*
Y18215669D01*
X21168912D01*
X21321262Y18164885D02*
X21372044D01*
X21397437Y18139493D01*
Y18063318D01*
X21321262D01*
X21295869Y18088710D01*
X21321262Y18114101D01*
X21397437D01*
X21448219Y18164885D02*
Y18088710D01*
X21473611Y18063318D01*
X21549786D01*
Y18037926D01*
X21524396Y18012534D01*
X21499004D01*
X21549786Y18063318D02*
Y18164885D01*
X19950105Y17910869D02*
X20051672D01*
X20000888D01*
Y17758517D01*
X20127847D02*
X20178632D01*
X20204024Y17783910D01*
Y17834692D01*
X20178632Y17860085D01*
X20127847D01*
X20102457Y17834692D01*
Y17783910D01*
X20127847Y17758517D01*
X20254807Y17707735D02*
Y17860085D01*
X20330981D01*
X20356374Y17834692D01*
Y17783910D01*
X20330981Y17758517D01*
X20254807D01*
X20661075Y17885477D02*
X20635683Y17910869D01*
X20584900D01*
X20559508Y17885477D01*
Y17860085D01*
X20584900Y17834692D01*
X20635683D01*
X20661075Y17809302D01*
Y17783910D01*
X20635683Y17758517D01*
X20584900D01*
X20559508Y17783910D01*
X20737250Y17758517D02*
X20788034D01*
X20813426Y17783910D01*
Y17834692D01*
X20788034Y17860085D01*
X20737250D01*
X20711858Y17834692D01*
Y17783910D01*
X20737250Y17758517D01*
X20864209D02*
X20914993D01*
X20889601D01*
Y17910869D01*
X20864209D01*
X21092735D02*
Y17758517D01*
X21016560D01*
X20991168Y17783910D01*
Y17834692D01*
X21016560Y17860085D01*
X21092735D01*
X21219695Y17758517D02*
X21168912D01*
X21143520Y17783910D01*
Y17834692D01*
X21168912Y17860085D01*
X21219695D01*
X21245087Y17834692D01*
Y17809302D01*
X21143520D01*
X21295869Y17860085D02*
Y17758517D01*
Y17809302D01*
X21321262Y17834692D01*
X21346654Y17860085D01*
X21372044D01*
X20051672Y17580676D02*
X20026280Y17606068D01*
X19975497D01*
X19950105Y17580676D01*
Y17479111D01*
X19975497Y17453719D01*
X20026280D01*
X20051672Y17479111D01*
X20127847Y17453719D02*
X20178632D01*
X20204024Y17479111D01*
Y17529893D01*
X20178632Y17555286D01*
X20127847D01*
X20102457Y17529893D01*
Y17479111D01*
X20127847Y17453719D01*
X20254807D02*
Y17555286D01*
X20280199D01*
X20305589Y17529893D01*
Y17453719D01*
Y17529893D01*
X20330981Y17555286D01*
X20356374Y17529893D01*
Y17453719D01*
X20407156Y17402934D02*
Y17555286D01*
X20483331D01*
X20508723Y17529893D01*
Y17479111D01*
X20483331Y17453719D01*
X20407156D01*
X20584900D02*
X20635683D01*
X20661075Y17479111D01*
Y17529893D01*
X20635683Y17555286D01*
X20584900D01*
X20559508Y17529893D01*
Y17479111D01*
X20584900Y17453719D01*
X20711858D02*
Y17555286D01*
X20788034D01*
X20813426Y17529893D01*
Y17453719D01*
X20940385D02*
X20889601D01*
X20864209Y17479111D01*
Y17529893D01*
X20889601Y17555286D01*
X20940385D01*
X20965776Y17529893D01*
Y17504501D01*
X20864209D01*
X21016560Y17453719D02*
Y17555286D01*
X21092735D01*
X21118127Y17529893D01*
Y17453719D01*
X21194302Y17580676D02*
Y17555286D01*
X21168912D01*
X21219695D01*
X21194302D01*
Y17479111D01*
X21219695Y17453719D01*
X21549786Y17580676D02*
X21524396Y17606068D01*
X21473611D01*
X21448219Y17580676D01*
Y17555286D01*
X21473611Y17529893D01*
X21524396D01*
X21549786Y17504501D01*
Y17479111D01*
X21524396Y17453719D01*
X21473611D01*
X21448219Y17479111D01*
X21600571Y17453719D02*
X21651353D01*
X21625963D01*
Y17555286D01*
X21600571D01*
X21829097Y17606068D02*
Y17453719D01*
X21752922D01*
X21727530Y17479111D01*
Y17529893D01*
X21752922Y17555286D01*
X21829097D01*
X21956056Y17453719D02*
X21905272D01*
X21879881Y17479111D01*
Y17529893D01*
X21905272Y17555286D01*
X21956056D01*
X21981448Y17529893D01*
Y17504501D01*
X21879881D01*
X19950105Y17148918D02*
Y17301270D01*
X20026280D01*
X20051672Y17275877D01*
Y17225093D01*
X20026280Y17199701D01*
X19950105D01*
X20102457Y17250485D02*
Y17148918D01*
Y17199701D01*
X20127847Y17225093D01*
X20153239Y17250485D01*
X20178632D01*
X20330981Y17148918D02*
X20280199D01*
X20254807Y17174310D01*
Y17225093D01*
X20280199Y17250485D01*
X20330981D01*
X20356374Y17225093D01*
Y17199701D01*
X20254807D01*
X20407156Y17098134D02*
Y17250485D01*
X20483331D01*
X20508723Y17225093D01*
Y17174310D01*
X20483331Y17148918D01*
X20407156D01*
X20635683D02*
X20584900D01*
X20559508Y17174310D01*
Y17225093D01*
X20584900Y17250485D01*
X20635683D01*
X20661075Y17225093D01*
Y17199701D01*
X20559508D01*
X20762642Y17098134D02*
X20788034D01*
X20813426Y17123526D01*
Y17250485D01*
X20737250D01*
X20711858Y17225093D01*
Y17174310D01*
X20737250Y17148918D01*
X20813426D01*
X21016560D02*
X21067343D01*
X21041953D01*
Y17301270D01*
X21016560Y17275877D01*
X20051672Y16971077D02*
X20026280Y16996469D01*
X19975497D01*
X19950105Y16971077D01*
Y16869510D01*
X19975497Y16844118D01*
X20026280D01*
X20051672Y16869510D01*
Y16920293D01*
X20000888D01*
X20102457Y16945685D02*
Y16844118D01*
Y16894901D01*
X20127847Y16920293D01*
X20153239Y16945685D01*
X20178632D01*
X20280199Y16844118D02*
X20330981D01*
X20356374Y16869510D01*
Y16920293D01*
X20330981Y16945685D01*
X20280199D01*
X20254807Y16920293D01*
Y16869510D01*
X20280199Y16844118D01*
X20407156Y16945685D02*
Y16869510D01*
X20432549Y16844118D01*
X20508723D01*
Y16945685D01*
X20559508Y16844118D02*
Y16945685D01*
X20635683D01*
X20661075Y16920293D01*
Y16844118D01*
X20813426Y16996469D02*
Y16844118D01*
X20737250D01*
X20711858Y16869510D01*
Y16920293D01*
X20737250Y16945685D01*
X20813426D01*
X21016560Y16844118D02*
Y16996469D01*
X21092735D01*
X21118127Y16971077D01*
Y16920293D01*
X21092735Y16894901D01*
X21016560D01*
X21168912Y16844118D02*
X21219695D01*
X21194302D01*
Y16996469D01*
X21168912D01*
X21321262Y16945685D02*
X21372044D01*
X21397437Y16920293D01*
Y16844118D01*
X21321262D01*
X21295869Y16869510D01*
X21321262Y16894901D01*
X21397437D01*
X21448219Y16844118D02*
Y16945685D01*
X21524396D01*
X21549786Y16920293D01*
Y16844118D01*
X21676746D02*
X21625963D01*
X21600571Y16869510D01*
Y16920293D01*
X21625963Y16945685D01*
X21676746D01*
X21702138Y16920293D01*
Y16894901D01*
X21600571D01*
X21956056Y16844118D02*
X21905272Y16894901D01*
Y16945685D01*
X21956056Y16996469D01*
X22133800Y16971077D02*
X22108408Y16996469D01*
X22057623D01*
X22032231Y16971077D01*
Y16869510D01*
X22057623Y16844118D01*
X22108408D01*
X22133800Y16869510D01*
Y16920293D01*
X22083015D01*
X22184583Y16844118D02*
Y16996469D01*
X22286150Y16844118D01*
Y16996469D01*
X22336932D02*
Y16844118D01*
X22413107D01*
X22438499Y16869510D01*
Y16971077D01*
X22413107Y16996469D01*
X22336932D01*
X22489284Y16844118D02*
X22540067Y16894901D01*
Y16945685D01*
X22489284Y16996469D01*
X19950105Y16691669D02*
Y16539317D01*
X20026280D01*
X20051672Y16564709D01*
Y16666277D01*
X20026280Y16691669D01*
X19950105D01*
X20102457Y16539317D02*
X20153239D01*
X20127847D01*
Y16640884D01*
X20102457D01*
X20305589Y16539317D02*
X20254807D01*
X20229414Y16564709D01*
Y16615492D01*
X20254807Y16640884D01*
X20305589D01*
X20330981Y16615492D01*
Y16590102D01*
X20229414D01*
X20381766Y16539317D02*
X20432549D01*
X20407156D01*
Y16691669D01*
X20381766D01*
X20584898Y16539317D02*
X20534116D01*
X20508723Y16564709D01*
Y16615492D01*
X20534116Y16640884D01*
X20584898D01*
X20610291Y16615492D01*
Y16590102D01*
X20508723D01*
X20762642Y16640884D02*
X20686467D01*
X20661075Y16615492D01*
Y16564709D01*
X20686467Y16539317D01*
X20762642D01*
X20838817Y16666277D02*
Y16640884D01*
X20813425D01*
X20864209D01*
X20838817D01*
Y16564709D01*
X20864209Y16539317D01*
X20940384Y16640884D02*
Y16539317D01*
Y16590102D01*
X20965776Y16615492D01*
X20991168Y16640884D01*
X21016560D01*
X21092735Y16539317D02*
X21143520D01*
X21118127D01*
Y16640884D01*
X21092735D01*
X21321262D02*
X21245087D01*
X21219695Y16615492D01*
Y16564709D01*
X21245087Y16539317D01*
X21321262D01*
X21524396D02*
X21575179D01*
X21549786D01*
Y16691669D01*
X21524396Y16666277D01*
X21651353D02*
X21676746Y16691669D01*
X21727530D01*
X21752921Y16666277D01*
Y16564709D01*
X21727530Y16539317D01*
X21676746D01*
X21651353Y16564709D01*
Y16666277D01*
X20051672Y16361478D02*
X20026280Y16386868D01*
X19975497D01*
X19950105Y16361478D01*
Y16259911D01*
X19975497Y16234518D01*
X20026280D01*
X20051672Y16259911D01*
Y16310693D01*
X20000888D01*
X20102457Y16234518D02*
Y16386868D01*
X20204024Y16234518D01*
Y16386868D01*
X20254807D02*
Y16234518D01*
X20330981D01*
X20356374Y16259911D01*
Y16361478D01*
X20330981Y16386868D01*
X20254807D01*
X20407156Y16234518D02*
X20508723Y16336086D01*
X20661075Y16361478D02*
X20635683Y16386868D01*
X20584900D01*
X20559508Y16361478D01*
Y16336086D01*
X20584900Y16310693D01*
X20635683D01*
X20661075Y16285301D01*
Y16259911D01*
X20635683Y16234518D01*
X20584900D01*
X20559508Y16259911D01*
X20711858Y16234518D02*
X20762642D01*
X20737250D01*
Y16336086D01*
X20711858D01*
X20889601Y16183734D02*
X20914993D01*
X20940385Y16209126D01*
Y16336086D01*
X20864209D01*
X20838817Y16310693D01*
Y16259911D01*
X20864209Y16234518D01*
X20940385D01*
X20991168D02*
Y16336086D01*
X21067343D01*
X21092735Y16310693D01*
Y16234518D01*
X21168912Y16336086D02*
X21219695D01*
X21245087Y16310693D01*
Y16234518D01*
X21168912D01*
X21143520Y16259911D01*
X21168912Y16285301D01*
X21245087D01*
X21295869Y16234518D02*
X21346654D01*
X21321262D01*
Y16386868D01*
X21295869D01*
X19950105Y16082069D02*
Y15929718D01*
X20026280D01*
X20051672Y15955110D01*
Y16056677D01*
X20026280Y16082069D01*
X19950105D01*
X20102457Y15929718D02*
X20153239D01*
X20127847D01*
Y16031285D01*
X20102457D01*
X20305589Y15929718D02*
X20254807D01*
X20229414Y15955110D01*
Y16005893D01*
X20254807Y16031285D01*
X20305589D01*
X20330981Y16005893D01*
Y15980501D01*
X20229414D01*
X20381766Y15929718D02*
X20432549D01*
X20407156D01*
Y16082069D01*
X20381766D01*
X20584898Y15929718D02*
X20534116D01*
X20508723Y15955110D01*
Y16005893D01*
X20534116Y16031285D01*
X20584898D01*
X20610291Y16005893D01*
Y15980501D01*
X20508723D01*
X20762642Y16031285D02*
X20686467D01*
X20661075Y16005893D01*
Y15955110D01*
X20686467Y15929718D01*
X20762642D01*
X20838817Y16056677D02*
Y16031285D01*
X20813425D01*
X20864209D01*
X20838817D01*
Y15955110D01*
X20864209Y15929718D01*
X20940384Y16031285D02*
Y15929718D01*
Y15980501D01*
X20965776Y16005893D01*
X20991168Y16031285D01*
X21016560D01*
X21092735Y15929718D02*
X21143520D01*
X21118127D01*
Y16031285D01*
X21092735D01*
X21321262D02*
X21245087D01*
X21219695Y16005893D01*
Y15955110D01*
X21245087Y15929718D01*
X21321262D01*
X21524396Y16082069D02*
X21625963D01*
Y16056677D01*
X21524396Y15955110D01*
Y15929718D01*
X19950105Y15777269D02*
Y15675700D01*
X20000888Y15624918D01*
X20051672Y15675700D01*
Y15777269D01*
X20204024Y15751877D02*
X20178632Y15777269D01*
X20127847D01*
X20102457Y15751877D01*
Y15650310D01*
X20127847Y15624918D01*
X20178632D01*
X20204024Y15650310D01*
X20356374Y15751877D02*
X20330981Y15777269D01*
X20280199D01*
X20254807Y15751877D01*
Y15650310D01*
X20280199Y15624918D01*
X20330981D01*
X20356374Y15650310D01*
X20483331Y15777269D02*
X20432549D01*
X20407156Y15751877D01*
Y15650310D01*
X20432549Y15624918D01*
X20483331D01*
X20508723Y15650310D01*
Y15751877D01*
X20483331Y15777269D01*
X20559508Y15624918D02*
X20661075Y15726485D01*
X20813426Y15751877D02*
X20788034Y15777269D01*
X20737250D01*
X20711858Y15751877D01*
Y15726485D01*
X20737250Y15701093D01*
X20788034D01*
X20813426Y15675700D01*
Y15650310D01*
X20788034Y15624918D01*
X20737250D01*
X20711858Y15650310D01*
X20864209Y15624918D02*
X20914993D01*
X20889601D01*
Y15726485D01*
X20864209D01*
X21041953Y15574133D02*
X21067343D01*
X21092735Y15599525D01*
Y15726485D01*
X21016560D01*
X20991168Y15701093D01*
Y15650310D01*
X21016560Y15624918D01*
X21092735D01*
X21143520D02*
Y15726485D01*
X21219695D01*
X21245087Y15701093D01*
Y15624918D01*
X21321262Y15726485D02*
X21372044D01*
X21397437Y15701093D01*
Y15624918D01*
X21321262D01*
X21295869Y15650310D01*
X21321262Y15675700D01*
X21397437D01*
X21448219Y15624918D02*
X21499004D01*
X21473611D01*
Y15777269D01*
X21448219D01*
X19950105Y15472469D02*
Y15320119D01*
X20026280D01*
X20051672Y15345509D01*
Y15447076D01*
X20026280Y15472469D01*
X19950105D01*
X20102457Y15320119D02*
X20153239D01*
X20127847D01*
Y15421684D01*
X20102457D01*
X20305589Y15320119D02*
X20254807D01*
X20229414Y15345509D01*
Y15396294D01*
X20254807Y15421684D01*
X20305589D01*
X20330981Y15396294D01*
Y15370901D01*
X20229414D01*
X20381766Y15320119D02*
X20432549D01*
X20407156D01*
Y15472469D01*
X20381766D01*
X20584898Y15320119D02*
X20534116D01*
X20508723Y15345509D01*
Y15396294D01*
X20534116Y15421684D01*
X20584898D01*
X20610291Y15396294D01*
Y15370901D01*
X20508723D01*
X20762642Y15421684D02*
X20686467D01*
X20661075Y15396294D01*
Y15345509D01*
X20686467Y15320119D01*
X20762642D01*
X20838817Y15447076D02*
Y15421684D01*
X20813425D01*
X20864209D01*
X20838817D01*
Y15345509D01*
X20864209Y15320119D01*
X20940384Y15421684D02*
Y15320119D01*
Y15370901D01*
X20965776Y15396294D01*
X20991168Y15421684D01*
X21016560D01*
X21092735Y15320119D02*
X21143520D01*
X21118127D01*
Y15421684D01*
X21092735D01*
X21321262D02*
X21245087D01*
X21219695Y15396294D01*
Y15345509D01*
X21245087Y15320119D01*
X21321262D01*
X21625963Y15472469D02*
X21575179Y15447076D01*
X21524396Y15396294D01*
Y15345509D01*
X21549786Y15320119D01*
X21600571D01*
X21625963Y15345509D01*
Y15370901D01*
X21600571Y15396294D01*
X21524396D01*
X19950105Y15167670D02*
Y15066101D01*
X20000888Y15015318D01*
X20051672Y15066101D01*
Y15167670D01*
X20204024Y15142278D02*
X20178632Y15167670D01*
X20127847D01*
X20102457Y15142278D01*
Y15040710D01*
X20127847Y15015318D01*
X20178632D01*
X20204024Y15040710D01*
X20356374Y15142278D02*
X20330981Y15167670D01*
X20280199D01*
X20254807Y15142278D01*
Y15040710D01*
X20280199Y15015318D01*
X20330981D01*
X20356374Y15040710D01*
X20407156Y15167670D02*
X20457941D01*
X20432549D01*
Y15015318D01*
X20407156D01*
X20457941D01*
X20534116D02*
Y15167670D01*
X20635683Y15015318D01*
Y15167670D01*
X20686467D02*
X20788034D01*
X20737250D01*
Y15015318D01*
X20838817D02*
X20940385Y15116885D01*
X20991168Y15167670D02*
Y15066101D01*
X21041953Y15015318D01*
X21092735Y15066101D01*
Y15167670D01*
X21245087Y15142278D02*
X21219695Y15167670D01*
X21168912D01*
X21143520Y15142278D01*
Y15040710D01*
X21168912Y15015318D01*
X21219695D01*
X21245087Y15040710D01*
X21397437Y15142278D02*
X21372044Y15167670D01*
X21321262D01*
X21295869Y15142278D01*
Y15040710D01*
X21321262Y15015318D01*
X21372044D01*
X21397437Y15040710D01*
X21448219Y15015318D02*
Y15116885D01*
X21499004Y15167670D01*
X21549786Y15116885D01*
Y15015318D01*
Y15091493D01*
X21448219D01*
X21600571Y15167670D02*
Y15040710D01*
X21625963Y15015318D01*
X21676746D01*
X21702138Y15040710D01*
Y15167670D01*
X21752922D02*
X21854489Y15015318D01*
Y15167670D02*
X21752922Y15015318D01*
X19950105Y14862869D02*
Y14710518D01*
X20026280D01*
X20051672Y14735910D01*
Y14837477D01*
X20026280Y14862869D01*
X19950105D01*
X20102457Y14710518D02*
X20153239D01*
X20127847D01*
Y14812085D01*
X20102457D01*
X20305589Y14710518D02*
X20254807D01*
X20229414Y14735910D01*
Y14786693D01*
X20254807Y14812085D01*
X20305589D01*
X20330981Y14786693D01*
Y14761301D01*
X20229414D01*
X20381766Y14710518D02*
X20432549D01*
X20407156D01*
Y14862869D01*
X20381766D01*
X20584898Y14710518D02*
X20534116D01*
X20508723Y14735910D01*
Y14786693D01*
X20534116Y14812085D01*
X20584898D01*
X20610291Y14786693D01*
Y14761301D01*
X20508723D01*
X20762642Y14812085D02*
X20686467D01*
X20661075Y14786693D01*
Y14735910D01*
X20686467Y14710518D01*
X20762642D01*
X20838817Y14837477D02*
Y14812085D01*
X20813425D01*
X20864209D01*
X20838817D01*
Y14735910D01*
X20864209Y14710518D01*
X20940384Y14812085D02*
Y14710518D01*
Y14761301D01*
X20965776Y14786693D01*
X20991168Y14812085D01*
X21016560D01*
X21092735Y14710518D02*
X21143520D01*
X21118127D01*
Y14812085D01*
X21092735D01*
X21321262D02*
X21245087D01*
X21219695Y14786693D01*
Y14735910D01*
X21245087Y14710518D01*
X21321262D01*
X21524396Y14735910D02*
X21549786Y14710518D01*
X21600571D01*
X21625963Y14735910D01*
Y14837477D01*
X21600571Y14862869D01*
X21549786D01*
X21524396Y14837477D01*
Y14812085D01*
X21549786Y14786693D01*
X21625963D01*
X19950105Y14558069D02*
Y14405717D01*
X20026280D01*
X20051672Y14431110D01*
Y14456500D01*
X20026280Y14481892D01*
X19950105D01*
X20026280D01*
X20051672Y14507285D01*
Y14532677D01*
X20026280Y14558069D01*
X19950105D01*
X20127847Y14405717D02*
X20178632D01*
X20204024Y14431110D01*
Y14481892D01*
X20178632Y14507285D01*
X20127847D01*
X20102457Y14481892D01*
Y14431110D01*
X20127847Y14405717D01*
X20280199Y14532677D02*
Y14507285D01*
X20254807D01*
X20305589D01*
X20280199D01*
Y14431110D01*
X20305589Y14405717D01*
X20407156Y14532677D02*
Y14507285D01*
X20381766D01*
X20432549D01*
X20407156D01*
Y14431110D01*
X20432549Y14405717D01*
X20534116D02*
X20584898D01*
X20610291Y14431110D01*
Y14481892D01*
X20584898Y14507285D01*
X20534116D01*
X20508723Y14481892D01*
Y14431110D01*
X20534116Y14405717D01*
X20661075D02*
Y14507285D01*
X20686467D01*
X20711858Y14481892D01*
Y14405717D01*
Y14481892D01*
X20737250Y14507285D01*
X20762642Y14481892D01*
Y14405717D01*
X21067343Y14532677D02*
X21041953Y14558069D01*
X20991168D01*
X20965776Y14532677D01*
Y14507285D01*
X20991168Y14481892D01*
X21041953D01*
X21067343Y14456500D01*
Y14431110D01*
X21041953Y14405717D01*
X20991168D01*
X20965776Y14431110D01*
X21118127Y14405717D02*
X21168910D01*
X21143520D01*
Y14507285D01*
X21118127D01*
X21346654Y14558069D02*
Y14405717D01*
X21270477D01*
X21245087Y14431110D01*
Y14481892D01*
X21270477Y14507285D01*
X21346654D01*
X21473611Y14405717D02*
X21422829D01*
X21397437Y14431110D01*
Y14481892D01*
X21422829Y14507285D01*
X21473611D01*
X21499004Y14481892D01*
Y14456500D01*
X21397437D01*
X19950105Y14253268D02*
Y14100919D01*
X20026280D01*
X20051672Y14126311D01*
Y14151701D01*
X20026280Y14177094D01*
X19950105D01*
X20026280D01*
X20051672Y14202486D01*
Y14227876D01*
X20026280Y14253268D01*
X19950105D01*
X20127847Y14100919D02*
X20178632D01*
X20204024Y14126311D01*
Y14177094D01*
X20178632Y14202486D01*
X20127847D01*
X20102457Y14177094D01*
Y14126311D01*
X20127847Y14100919D01*
X20280199Y14227876D02*
Y14202486D01*
X20254807D01*
X20305589D01*
X20280199D01*
Y14126311D01*
X20305589Y14100919D01*
X20407156Y14227876D02*
Y14202486D01*
X20381766D01*
X20432549D01*
X20407156D01*
Y14126311D01*
X20432549Y14100919D01*
X20534116D02*
X20584898D01*
X20610291Y14126311D01*
Y14177094D01*
X20584898Y14202486D01*
X20534116D01*
X20508723Y14177094D01*
Y14126311D01*
X20534116Y14100919D01*
X20661075D02*
Y14202486D01*
X20686467D01*
X20711858Y14177094D01*
Y14100919D01*
Y14177094D01*
X20737250Y14202486D01*
X20762642Y14177094D01*
Y14100919D01*
X21067343Y14227876D02*
X21041953Y14253268D01*
X20991168D01*
X20965776Y14227876D01*
Y14202486D01*
X20991168Y14177094D01*
X21041953D01*
X21067343Y14151701D01*
Y14126311D01*
X21041953Y14100919D01*
X20991168D01*
X20965776Y14126311D01*
X21143520Y14100919D02*
X21194302D01*
X21219695Y14126311D01*
Y14177094D01*
X21194302Y14202486D01*
X21143520D01*
X21118127Y14177094D01*
Y14126311D01*
X21143520Y14100919D01*
X21270477D02*
X21321262D01*
X21295869D01*
Y14253268D01*
X21270477D01*
X21499004D02*
Y14100919D01*
X21422829D01*
X21397437Y14126311D01*
Y14177094D01*
X21422829Y14202486D01*
X21499004D01*
X21625963Y14100919D02*
X21575179D01*
X21549786Y14126311D01*
Y14177094D01*
X21575179Y14202486D01*
X21625963D01*
X21651353Y14177094D01*
Y14151701D01*
X21549786D01*
X21702138Y14202486D02*
Y14100919D01*
Y14151701D01*
X21727530Y14177094D01*
X21752921Y14202486D01*
X21778313D01*
X19950105Y13948470D02*
Y13796118D01*
X20026280D01*
X20051672Y13821510D01*
Y13846901D01*
X20026280Y13872293D01*
X19950105D01*
X20026280D01*
X20051672Y13897685D01*
Y13923077D01*
X20026280Y13948470D01*
X19950105D01*
X20127847Y13796118D02*
X20178632D01*
X20204024Y13821510D01*
Y13872293D01*
X20178632Y13897685D01*
X20127847D01*
X20102457Y13872293D01*
Y13821510D01*
X20127847Y13796118D01*
X20280199Y13923077D02*
Y13897685D01*
X20254807D01*
X20305589D01*
X20280199D01*
Y13821510D01*
X20305589Y13796118D01*
X20407156Y13923077D02*
Y13897685D01*
X20381766D01*
X20432549D01*
X20407156D01*
Y13821510D01*
X20432549Y13796118D01*
X20534116D02*
X20584898D01*
X20610291Y13821510D01*
Y13872293D01*
X20584898Y13897685D01*
X20534116D01*
X20508723Y13872293D01*
Y13821510D01*
X20534116Y13796118D01*
X20661075D02*
Y13897685D01*
X20686467D01*
X20711858Y13872293D01*
Y13796118D01*
Y13872293D01*
X20737250Y13897685D01*
X20762642Y13872293D01*
Y13796118D01*
X21041953Y13948470D02*
X20991168D01*
X20965776Y13923077D01*
Y13821510D01*
X20991168Y13796118D01*
X21041953D01*
X21067343Y13821510D01*
Y13923077D01*
X21041953Y13948470D01*
X21118127Y13897685D02*
X21168910Y13796118D01*
X21219695Y13897685D01*
X21346654Y13796118D02*
X21295869D01*
X21270477Y13821510D01*
Y13872293D01*
X21295869Y13897685D01*
X21346654D01*
X21372044Y13872293D01*
Y13846901D01*
X21270477D01*
X21422829Y13897685D02*
Y13796118D01*
Y13846901D01*
X21448219Y13872293D01*
X21473611Y13897685D01*
X21499004D01*
X21575179Y13796118D02*
X21625963D01*
X21600571D01*
Y13948470D01*
X21575179D01*
X21727530Y13897685D02*
X21778313D01*
X21803705Y13872293D01*
Y13796118D01*
X21727530D01*
X21702138Y13821510D01*
X21727530Y13846901D01*
X21803705D01*
X21854489Y13897685D02*
Y13821510D01*
X21879881Y13796118D01*
X21956056D01*
Y13770726D01*
X21930664Y13745334D01*
X21905272D01*
X21956056Y13796118D02*
Y13897685D01*
X19950105Y18368118D02*
Y18520470D01*
X20051672Y18368118D01*
Y18520470D01*
X20127847Y18469685D02*
X20178632D01*
X20204024Y18444293D01*
Y18368118D01*
X20127847D01*
X20102457Y18393510D01*
X20127847Y18418901D01*
X20204024D01*
X20254807Y18368118D02*
Y18469685D01*
X20280199D01*
X20305589Y18444293D01*
Y18368118D01*
Y18444293D01*
X20330981Y18469685D01*
X20356374Y18444293D01*
Y18368118D01*
X20483331D02*
X20432549D01*
X20407156Y18393510D01*
Y18444293D01*
X20432549Y18469685D01*
X20483331D01*
X20508723Y18444293D01*
Y18418901D01*
X20407156D01*
X18908926Y18063318D02*
X18959711D01*
X18934319D01*
Y18215669D01*
X18908926Y18190277D01*
X19010493Y17758517D02*
X18908926D01*
X19010493Y17860085D01*
Y17885477D01*
X18985101Y17910869D01*
X18934319D01*
X18908926Y17885477D01*
Y17580676D02*
X18934319Y17606068D01*
X18985101D01*
X19010493Y17580676D01*
Y17555286D01*
X18985101Y17529893D01*
X18959711D01*
X18985101D01*
X19010493Y17504501D01*
Y17479111D01*
X18985101Y17453719D01*
X18934319D01*
X18908926Y17479111D01*
X18985101Y17148918D02*
Y17301270D01*
X18908926Y17225093D01*
X19010493D01*
Y16996469D02*
X18908926D01*
Y16920293D01*
X18959711Y16945685D01*
X18985101D01*
X19010493Y16920293D01*
Y16869510D01*
X18985101Y16844118D01*
X18934319D01*
X18908926Y16869510D01*
X19010493Y16691669D02*
X18959711Y16666277D01*
X18908926Y16615492D01*
Y16564709D01*
X18934319Y16539317D01*
X18985101D01*
X19010493Y16564709D01*
Y16590102D01*
X18985101Y16615492D01*
X18908926D01*
Y16386868D02*
X19010493D01*
Y16361478D01*
X18908926Y16259911D01*
Y16234518D01*
Y16056677D02*
X18934319Y16082069D01*
X18985101D01*
X19010493Y16056677D01*
Y16031285D01*
X18985101Y16005893D01*
X19010493Y15980501D01*
Y15955110D01*
X18985101Y15929718D01*
X18934319D01*
X18908926Y15955110D01*
Y15980501D01*
X18934319Y16005893D01*
X18908926Y16031285D01*
Y16056677D01*
X18934319Y16005893D02*
X18985101D01*
X18908926Y15650310D02*
X18934319Y15624918D01*
X18985101D01*
X19010493Y15650310D01*
Y15751877D01*
X18985101Y15777269D01*
X18934319D01*
X18908926Y15751877D01*
Y15726485D01*
X18934319Y15701093D01*
X19010493D01*
X18908926Y15320119D02*
X18959711D01*
X18934319D01*
Y15472469D01*
X18908926Y15447076D01*
X19035886D02*
X19061276Y15472469D01*
X19112061D01*
X19137453Y15447076D01*
Y15345509D01*
X19112061Y15320119D01*
X19061276D01*
X19035886Y15345509D01*
Y15447076D01*
X18908926Y15015318D02*
X18959711D01*
X18934319D01*
Y15167670D01*
X18908926Y15142278D01*
X19035886Y15015318D02*
X19086668D01*
X19061276D01*
Y15167670D01*
X19035886Y15142278D01*
X18908926Y14710518D02*
X18959711D01*
X18934319D01*
Y14862869D01*
X18908926Y14837477D01*
X19137453Y14710518D02*
X19035886D01*
X19137453Y14812085D01*
Y14837477D01*
X19112061Y14862869D01*
X19061276D01*
X19035886Y14837477D01*
X18908926Y14405717D02*
X18959711D01*
X18934319D01*
Y14558069D01*
X18908926Y14532677D01*
X19035886D02*
X19061276Y14558069D01*
X19112061D01*
X19137453Y14532677D01*
Y14507285D01*
X19112061Y14481892D01*
X19086668D01*
X19112061D01*
X19137453Y14456500D01*
Y14431110D01*
X19112061Y14405717D01*
X19061276D01*
X19035886Y14431110D01*
X18908926Y14100919D02*
X18959711D01*
X18934319D01*
Y14253268D01*
X18908926Y14227876D01*
X19112061Y14100919D02*
Y14253268D01*
X19035886Y14177094D01*
X19137453D01*
X18908926Y13796118D02*
X18959711D01*
X18934319D01*
Y13948470D01*
X18908926Y13923077D01*
X19137453Y13948470D02*
X19035886D01*
Y13872293D01*
X19086668Y13897685D01*
X19112061D01*
X19137453Y13872293D01*
Y13821510D01*
X19112061Y13796118D01*
X19061276D01*
X19035886Y13821510D01*
X18908926Y18520470D02*
Y18368118D01*
X19010493D01*
X19086668Y18469685D02*
X19137453D01*
X19162845Y18444293D01*
Y18368118D01*
X19086668D01*
X19061276Y18393510D01*
X19086668Y18418901D01*
X19162845D01*
X19213628Y18469685D02*
Y18393510D01*
X19239020Y18368118D01*
X19315195D01*
Y18342726D01*
X19289803Y18317334D01*
X19264412D01*
X19315195Y18368118D02*
Y18469685D01*
X19442154Y18368118D02*
X19391371D01*
X19365979Y18393510D01*
Y18444293D01*
X19391371Y18469685D01*
X19442154D01*
X19467546Y18444293D01*
Y18418901D01*
X19365979D01*
X19518330Y18469685D02*
Y18368118D01*
Y18418901D01*
X19543721Y18444293D01*
X19569113Y18469685D01*
X19594505D01*
D77*
X6617320Y10673839D02*
D03*
X5657320D02*
D03*
X8042320Y10673840D02*
D03*
X7082320D02*
D03*
D102*
X6714960Y5671820D02*
D03*
X6717500Y5768340D02*
D03*
X6816560D02*
D03*
X6619075D02*
D03*
X6520650D02*
D03*
X6914350D02*
D03*
X6815925Y5671820D02*
D03*
X6619075D02*
D03*
X6520650D02*
D03*
X6914350D02*
D03*
X6813385Y5473700D02*
D03*
X6616535D02*
D03*
X6518110D02*
D03*
X6714960D02*
D03*
X6911810D02*
D03*
X6813385Y5377180D02*
D03*
X6616535D02*
D03*
X6518110D02*
D03*
X6714960D02*
D03*
X6911810D02*
D03*
D130*
X33652246Y13645094D02*
X33713095Y13584245D01*
X33499847Y13645094D02*
X33713095Y13431845D01*
X33347446Y13645094D02*
X33713095Y13279445D01*
X33195047Y13645094D02*
X33713095Y13127045D01*
X33042645Y13645094D02*
X33713095Y12974644D01*
X32890247Y13645094D02*
X33713095Y12822244D01*
X32737845Y13645094D02*
X33713095Y12669845D01*
X32585446Y13645094D02*
X33713095Y12517445D01*
X32433047Y13645094D02*
X33713095Y12365045D01*
X32280646Y13645094D02*
X33713095Y12212645D01*
X32128247Y13645094D02*
X33713095Y12060245D01*
X31975845Y13645094D02*
X33713095Y11907846D01*
X31823447Y13645094D02*
X33713095Y11755446D01*
X31671045Y13645094D02*
X33713095Y11603046D01*
X31518646Y13645094D02*
X33713095Y11450646D01*
X31366245Y13645094D02*
X33713095Y11298246D01*
X31213846Y13645094D02*
X33713095Y11145846D01*
X31061447Y13645094D02*
X33713095Y10993446D01*
X30909045Y13645094D02*
X33713095Y10841046D01*
X30756647Y13645094D02*
X33713095Y10688646D01*
X30604245Y13645094D02*
X33713095Y10536246D01*
X30451846Y13645094D02*
X33713095Y10383846D01*
X30299445Y13645094D02*
X33713095Y10231446D01*
X30147046Y13645094D02*
X33713095Y10079046D01*
X29994647Y13645094D02*
X33713095Y9926646D01*
X29842245Y13645094D02*
X33713095Y9774246D01*
X29689847Y13645094D02*
X33713095Y9621846D01*
X29537445Y13645094D02*
X33713095Y9469446D01*
X29385046Y13645094D02*
X33713095Y9317046D01*
X29232645Y13645094D02*
X33713095Y9164646D01*
X29080246Y13645094D02*
X33713095Y9012246D01*
X28927847Y13645094D02*
X33713095Y8859846D01*
X28775446Y13645094D02*
X33713095Y8707446D01*
X28623047Y13645094D02*
X33713095Y8555046D01*
X28470645Y13645094D02*
X33713095Y8402646D01*
X28318246Y13645094D02*
X33713095Y8250246D01*
X28165845Y13645094D02*
X33713095Y8097846D01*
X28013446Y13645094D02*
X33713095Y7945446D01*
X27861047Y13645094D02*
X33713095Y7793046D01*
X27708646Y13645094D02*
X33713095Y7640646D01*
X27556247Y13645094D02*
X33713095Y7488246D01*
X27403845Y13645094D02*
X33713095Y7335846D01*
X27251447Y13645094D02*
X33713095Y7183446D01*
X27099045Y13645094D02*
X33713095Y7031046D01*
X26946646Y13645094D02*
X33713095Y6878646D01*
X26794247Y13645094D02*
X33713095Y6726246D01*
X26641846Y13645094D02*
X33713095Y6573846D01*
X26489447Y13645094D02*
X33713095Y6421446D01*
X26337045Y13645094D02*
X33713095Y6269046D01*
X26184647Y13645094D02*
X33713095Y6116646D01*
X26032245Y13645094D02*
X33713095Y5964246D01*
X25879846Y13645094D02*
X33713095Y5811846D01*
X25727448Y13645094D02*
X33713095Y5659446D01*
X25575046Y13645094D02*
X33713095Y5507046D01*
X25422646Y13645094D02*
X33713095Y5354646D01*
X25270245Y13645094D02*
X33713095Y5202246D01*
X25117847Y13645094D02*
X33713095Y5049846D01*
X24965446Y13645094D02*
X33713095Y4897446D01*
X24813046Y13645094D02*
X33713095Y4745046D01*
X24660646Y13645094D02*
X33713095Y4592646D01*
X24508246Y13645094D02*
X33713095Y4440246D01*
X24355846Y13645094D02*
X33713095Y4287846D01*
X24203445Y13645094D02*
X33713095Y4135446D01*
X24051047Y13645094D02*
X33713095Y3983046D01*
X23898647Y13645094D02*
X33693100Y3850640D01*
X23746246Y13645094D02*
X33540701Y3850640D01*
X23593846Y13645094D02*
X33388300Y3850640D01*
X23441446Y13645094D02*
X33235901Y3850640D01*
X23289046Y13645094D02*
X33083499Y3850640D01*
X23136646Y13645094D02*
X32931100Y3850640D01*
X22984245Y13645094D02*
X32778699Y3850640D01*
X22831847Y13645094D02*
X32626300Y3850640D01*
X22679446Y13645094D02*
X32473901Y3850640D01*
X22527046Y13645094D02*
X32321500Y3850640D01*
X22374646Y13645094D02*
X32169101Y3850640D01*
X22222246Y13645094D02*
X32016699Y3850640D01*
X22069846Y13645094D02*
X31864301Y3850640D01*
X21917445Y13645094D02*
X31711899Y3850640D01*
X21765047Y13645094D02*
X31559500Y3850640D01*
X21612646Y13645094D02*
X31407101Y3850640D01*
X21460246Y13645094D02*
X31254700Y3850640D01*
X21307846Y13645094D02*
X31102301Y3850640D01*
X21155446Y13645094D02*
X30949899Y3850640D01*
X21003046Y13645094D02*
X30797501Y3850640D01*
X20850645Y13645094D02*
X30645099Y3850640D01*
X20698245Y13645094D02*
X30492700Y3850640D01*
X20545847Y13645094D02*
X30340302Y3850640D01*
X20393446Y13645094D02*
X30187900Y3850640D01*
X20241046Y13645094D02*
X30035501Y3850640D01*
X20088646Y13645094D02*
X29883099Y3850640D01*
X19936246Y13645094D02*
X29730701Y3850640D01*
X19783846Y13645094D02*
X29578299Y3850640D01*
X19631445Y13645094D02*
X29425900Y3850640D01*
X19479047Y13645094D02*
X29273499Y3850640D01*
X19326646Y13645094D02*
X29121100Y3850640D01*
X19174246Y13645094D02*
X28968701Y3850640D01*
X19021846Y13645094D02*
X28816299Y3850640D01*
X18869446Y13645094D02*
X28663901Y3850640D01*
X18756526Y13605614D02*
X28511499Y3850640D01*
X18756526Y13453214D02*
X28359100Y3850640D01*
X18756526Y13300813D02*
X28206699Y3850640D01*
X18756526Y13148415D02*
X28054300Y3850640D01*
X18756526Y12996014D02*
X27901901Y3850640D01*
X18756526Y12843614D02*
X27749500Y3850640D01*
X18756526Y12691214D02*
X27597101Y3850640D01*
X18756526Y12538814D02*
X27444699Y3850640D01*
X18756526Y12386414D02*
X27292300Y3850640D01*
X18756526Y12234014D02*
X27139899Y3850640D01*
X18756526Y12081614D02*
X26987500Y3850640D01*
X18756526Y11929214D02*
X26835101Y3850640D01*
X18756526Y11776814D02*
X26682700Y3850640D01*
X18756526Y11624414D02*
X26530301Y3850640D01*
X18756526Y11472014D02*
X26377899Y3850640D01*
X18756526Y11319614D02*
X26225500Y3850640D01*
X18756526Y11167214D02*
X26073099Y3850640D01*
X18756526Y11014814D02*
X25920700Y3850640D01*
X18756526Y10862414D02*
X25768301Y3850640D01*
X18756526Y10710014D02*
X25615900Y3850640D01*
X18756526Y10557614D02*
X25463499Y3850640D01*
X18756526Y10405214D02*
X25311099Y3850640D01*
X18756526Y10252814D02*
X25158701Y3850640D01*
X18756526Y10100414D02*
X25006300Y3850640D01*
X18756526Y9948014D02*
X24853900Y3850640D01*
X18756526Y9795614D02*
X24701500Y3850640D01*
X18756526Y9643214D02*
X24549100Y3850640D01*
X18756526Y9490814D02*
X24396700Y3850640D01*
X18756526Y9338414D02*
X24244299Y3850640D01*
X18756526Y9186014D02*
X24091901Y3850640D01*
X18756526Y9033614D02*
X23939500Y3850640D01*
X18756526Y8881214D02*
X23787100Y3850640D01*
X18756525Y8728815D02*
X23634700Y3850640D01*
X18756525Y8576415D02*
X23482300Y3850640D01*
X18756525Y8424015D02*
X23329900Y3850640D01*
X18756525Y8271615D02*
X23177499Y3850640D01*
X18756525Y8119215D02*
X23025101Y3850640D01*
X18756525Y7966815D02*
X22872701Y3850640D01*
X18756525Y7814415D02*
X22720300Y3850640D01*
X18756525Y7662015D02*
X22567900Y3850640D01*
X18756525Y7509615D02*
X22415500Y3850640D01*
X18756525Y7357215D02*
X22263100Y3850640D01*
X18756525Y7204815D02*
X22110699Y3850640D01*
X18756525Y7052415D02*
X21958299Y3850640D01*
X18756525Y6900015D02*
X21805901Y3850640D01*
X18756525Y6747615D02*
X21653500Y3850640D01*
X18756525Y6595215D02*
X21501100Y3850640D01*
X18756525Y6442815D02*
X21348700Y3850640D01*
X18756525Y6290415D02*
X21196300Y3850640D01*
X18756525Y6138015D02*
X21043900Y3850640D01*
X18756525Y5985615D02*
X20891499Y3850640D01*
X18756525Y5833215D02*
X20739101Y3850640D01*
X18756525Y5680815D02*
X20586700Y3850640D01*
X18756525Y5528415D02*
X20434300Y3850640D01*
X18756525Y5376015D02*
X20281900Y3850640D01*
X18756525Y5223615D02*
X20129500Y3850640D01*
X18756525Y5071215D02*
X19977100Y3850640D01*
X18756525Y4918815D02*
X19824699Y3850640D01*
X18756525Y4766415D02*
X19672301Y3850640D01*
X18756525Y4614015D02*
X19519901Y3850640D01*
X18756525Y4461615D02*
X19367500Y3850640D01*
X18756525Y4309215D02*
X19215100Y3850640D01*
X18756525Y4156815D02*
X19062700Y3850640D01*
X18756525Y4004415D02*
X18910300Y3850640D01*
X33612299Y18291917D02*
X33713092Y18191122D01*
X33459897Y18291917D02*
X33713092Y18038724D01*
X33307498Y18291917D02*
X33612299Y17987119D01*
X33155099Y18291917D02*
X33459897Y17987119D01*
X33002698Y18291917D02*
X33307498Y17987119D01*
X32850299Y18291917D02*
X33155099Y17987119D01*
X32697897Y18291917D02*
X33002698Y17987119D01*
X32545499Y18291917D02*
X32850299Y17987119D01*
X32393097Y18291917D02*
X32697897Y17987119D01*
X32240698Y18291917D02*
X32545499Y17987119D01*
X32088297Y18291917D02*
X32393097Y17987119D01*
X31935898Y18291917D02*
X32240698Y17987119D01*
X31783499Y18291917D02*
X32088297Y17987119D01*
X31631097Y18291917D02*
X31935898Y17987119D01*
X31478699Y18291917D02*
X31783499Y17987119D01*
X31326297Y18291917D02*
X31631097Y17987119D01*
X31173898Y18291917D02*
X31478699Y17987119D01*
X31021497Y18291917D02*
X31326297Y17987119D01*
X30869098Y18291917D02*
X31173898Y17987119D01*
X30869098Y18139519D02*
X31021497Y17987119D01*
X33612299D02*
X33713092Y17886324D01*
X33459897Y17987119D02*
X33713092Y17733923D01*
X33307498Y17987119D02*
X33612299Y17682318D01*
X33155099Y17987119D02*
X33459897Y17682318D01*
X33002698Y17987119D02*
X33307498Y17682318D01*
X32850299Y17987119D02*
X33155099Y17682318D01*
X32697897Y17987119D02*
X33002698Y17682318D01*
X32545499Y17987119D02*
X32850299Y17682318D01*
X32393097Y17987119D02*
X32697897Y17682318D01*
X32240698Y17987119D02*
X32545499Y17682318D01*
X32088297Y17987119D02*
X32393097Y17682318D01*
X31935898Y17987119D02*
X32240698Y17682318D01*
X31783499Y17987119D02*
X32088297Y17682318D01*
X31631097Y17987119D02*
X31935898Y17682318D01*
X31478699Y17987119D02*
X31783499Y17682318D01*
X31326297Y17987119D02*
X31631097Y17682318D01*
X31173898Y17987119D02*
X31478699Y17682318D01*
X31021497Y17987119D02*
X31326297Y17682318D01*
X30869098Y17987119D02*
X31173898Y17682318D01*
X30869098Y17834718D02*
X31021497Y17682318D01*
X33612299D02*
X33713092Y17581523D01*
X33459897Y17682318D02*
X33713092Y17429123D01*
X33307498Y17682318D02*
X33612299Y17377518D01*
X33155099Y17682318D02*
X33459897Y17377518D01*
X33002698Y17682318D02*
X33307498Y17377518D01*
X32850299Y17682318D02*
X33155099Y17377518D01*
X32697897Y17682318D02*
X33002698Y17377518D01*
X32545499Y17682318D02*
X32850299Y17377518D01*
X32393097Y17682318D02*
X32697897Y17377518D01*
X32240698Y17682318D02*
X32545499Y17377518D01*
X32088297Y17682318D02*
X32393097Y17377518D01*
X31935898Y17682318D02*
X32240698Y17377518D01*
X31783499Y17682318D02*
X32088297Y17377518D01*
X31631097Y17682318D02*
X31935898Y17377518D01*
X31478699Y17682318D02*
X31783499Y17377518D01*
X31326297Y17682318D02*
X31631097Y17377518D01*
X31173898Y17682318D02*
X31478699Y17377518D01*
X31021497Y17682318D02*
X31326297Y17377518D01*
X30869098Y17682318D02*
X31173898Y17377518D01*
X30869098Y17529918D02*
X31021497Y17377518D01*
X33612299D02*
X33713092Y17276723D01*
X33459897Y17377518D02*
X33713092Y17124323D01*
X33307498Y17377518D02*
X33612299Y17072717D01*
X33155099Y17377518D02*
X33459897Y17072717D01*
X33002698Y17377518D02*
X33307498Y17072717D01*
X32850299Y17377518D02*
X33155099Y17072717D01*
X32697897Y17377518D02*
X33002698Y17072717D01*
X32545499Y17377518D02*
X32850299Y17072717D01*
X32393097Y17377518D02*
X32697897Y17072717D01*
X32240698Y17377518D02*
X32545499Y17072717D01*
X32088297Y17377518D02*
X32393097Y17072717D01*
X31935898Y17377518D02*
X32240698Y17072717D01*
X31783499Y17377518D02*
X32088297Y17072717D01*
X31631097Y17377518D02*
X31935898Y17072717D01*
X31478699Y17377518D02*
X31783499Y17072717D01*
X31326297Y17377518D02*
X31631097Y17072717D01*
X31173898Y17377518D02*
X31478699Y17072717D01*
X31021497Y17377518D02*
X31326297Y17072717D01*
X30869098Y17377518D02*
X31173898Y17072717D01*
X30869098Y17225117D02*
X31021497Y17072717D01*
X33612299D02*
X33713092Y16971922D01*
X33459897Y17072717D02*
X33713092Y16819524D01*
X33307498Y17072717D02*
X33612299Y16767918D01*
X33155099Y17072717D02*
X33459897Y16767918D01*
X33002698Y17072717D02*
X33307498Y16767918D01*
X32850299Y17072717D02*
X33155099Y16767918D01*
X32697897Y17072717D02*
X33002698Y16767918D01*
X32545499Y17072717D02*
X32850299Y16767918D01*
X32393097Y17072717D02*
X32697897Y16767918D01*
X32240698Y17072717D02*
X32545499Y16767918D01*
X32088297Y17072717D02*
X32393097Y16767918D01*
X31935898Y17072717D02*
X32240698Y16767918D01*
X31783499Y17072717D02*
X32088297Y16767918D01*
X31631097Y17072717D02*
X31935898Y16767918D01*
X31478699Y17072717D02*
X31783499Y16767918D01*
X31326297Y17072717D02*
X31631097Y16767918D01*
X31173898Y17072717D02*
X31478699Y16767918D01*
X31021497Y17072717D02*
X31326297Y16767918D01*
X30869098Y17072717D02*
X31173898Y16767918D01*
X30869098Y16920319D02*
X31021497Y16767918D01*
X33612299D02*
X33713092Y16667123D01*
X33459897Y16767918D02*
X33713092Y16514723D01*
X33307498Y16767918D02*
X33612299Y16463118D01*
X33155099Y16767918D02*
X33459897Y16463118D01*
X33002698Y16767918D02*
X33307498Y16463118D01*
X32850299Y16767918D02*
X33155099Y16463118D01*
X32697897Y16767918D02*
X33002698Y16463118D01*
X32545499Y16767918D02*
X32850299Y16463118D01*
X32393097Y16767918D02*
X32697897Y16463118D01*
X32240698Y16767918D02*
X32545499Y16463118D01*
X32088297Y16767918D02*
X32393097Y16463118D01*
X31935898Y16767918D02*
X32240698Y16463118D01*
X31783499Y16767918D02*
X32088297Y16463118D01*
X31631097Y16767918D02*
X31935898Y16463118D01*
X31478699Y16767918D02*
X31783499Y16463118D01*
X31326297Y16767918D02*
X31631097Y16463118D01*
X31173898Y16767918D02*
X31478699Y16463118D01*
X31021497Y16767918D02*
X31326297Y16463118D01*
X30869098Y16767918D02*
X31173898Y16463118D01*
X30869098Y16615518D02*
X31021497Y16463118D01*
X33612299D02*
X33713092Y16362323D01*
X33459897Y16463118D02*
X33713092Y16209923D01*
X33307498Y16463118D02*
X33612299Y16158318D01*
X33155099Y16463118D02*
X33459897Y16158318D01*
X33002698Y16463118D02*
X33307498Y16158318D01*
X32850299Y16463118D02*
X33155099Y16158318D01*
X32697897Y16463118D02*
X33002698Y16158318D01*
X32545499Y16463118D02*
X32850299Y16158318D01*
X32393097Y16463118D02*
X32697897Y16158318D01*
X32240698Y16463118D02*
X32545499Y16158318D01*
X32088297Y16463118D02*
X32393097Y16158318D01*
X31935898Y16463118D02*
X32240698Y16158318D01*
X31783499Y16463118D02*
X32088297Y16158318D01*
X31631097Y16463118D02*
X31935898Y16158318D01*
X31478699Y16463118D02*
X31783499Y16158318D01*
X31326297Y16463118D02*
X31631097Y16158318D01*
X31173898Y16463118D02*
X31478699Y16158318D01*
X31021497Y16463118D02*
X31326297Y16158318D01*
X30869098Y16463118D02*
X31173898Y16158318D01*
X30869098Y16310718D02*
X31021497Y16158318D01*
X33612299D02*
X33713092Y16057523D01*
X33459897Y16158318D02*
X33713092Y15905122D01*
X33307498Y16158318D02*
X33612299Y15853519D01*
X33155099Y16158318D02*
X33459897Y15853519D01*
X33002698Y16158318D02*
X33307498Y15853519D01*
X32850299Y16158318D02*
X33155099Y15853519D01*
X32697897Y16158318D02*
X33002698Y15853519D01*
X32545499Y16158318D02*
X32850299Y15853519D01*
X32393097Y16158318D02*
X32697897Y15853519D01*
X32240698Y16158318D02*
X32545499Y15853519D01*
X32088297Y16158318D02*
X32393097Y15853519D01*
X31935898Y16158318D02*
X32240698Y15853519D01*
X31783499Y16158318D02*
X32088297Y15853519D01*
X31631097Y16158318D02*
X31935898Y15853519D01*
X31478699Y16158318D02*
X31783499Y15853519D01*
X31326297Y16158318D02*
X31631097Y15853519D01*
X31173898Y16158318D02*
X31478699Y15853519D01*
X31021497Y16158318D02*
X31326297Y15853519D01*
X30869098Y16158318D02*
X31173898Y15853519D01*
X30869098Y16005917D02*
X31021497Y15853519D01*
X33612299D02*
X33713092Y15752724D01*
X33459897Y15853519D02*
X33713092Y15600323D01*
X33307498Y15853519D02*
X33612299Y15548718D01*
X33155099Y15853519D02*
X33459897Y15548718D01*
X33002698Y15853519D02*
X33307498Y15548718D01*
X32850299Y15853519D02*
X33155099Y15548718D01*
X32697897Y15853519D02*
X33002698Y15548718D01*
X32545499Y15853519D02*
X32850299Y15548718D01*
X32393097Y15853519D02*
X32697897Y15548718D01*
X32240698Y15853519D02*
X32545499Y15548718D01*
X32088297Y15853519D02*
X32393097Y15548718D01*
X31935898Y15853519D02*
X32240698Y15548718D01*
X31783499Y15853519D02*
X32088297Y15548718D01*
X31631097Y15853519D02*
X31935898Y15548718D01*
X31478699Y15853519D02*
X31783499Y15548718D01*
X31326297Y15853519D02*
X31631097Y15548718D01*
X31173898Y15853519D02*
X31478699Y15548718D01*
X31021497Y15853519D02*
X31326297Y15548718D01*
X30869098Y15853519D02*
X31173898Y15548718D01*
X30869098Y15701118D02*
X31021497Y15548718D01*
X33612299D02*
X33713092Y15447923D01*
X33459897Y15548718D02*
X33713092Y15295523D01*
X33307498Y15548718D02*
X33612299Y15243918D01*
X33155099Y15548718D02*
X33459897Y15243918D01*
X33002698Y15548718D02*
X33307498Y15243918D01*
X32850299Y15548718D02*
X33155099Y15243918D01*
X32697897Y15548718D02*
X33002698Y15243918D01*
X32545499Y15548718D02*
X32850299Y15243918D01*
X32393097Y15548718D02*
X32697897Y15243918D01*
X32240698Y15548718D02*
X32545499Y15243918D01*
X32088297Y15548718D02*
X32393097Y15243918D01*
X31935898Y15548718D02*
X32240698Y15243918D01*
X31783499Y15548718D02*
X32088297Y15243918D01*
X31631097Y15548718D02*
X31935898Y15243918D01*
X31478699Y15548718D02*
X31783499Y15243918D01*
X31326297Y15548718D02*
X31631097Y15243918D01*
X31173898Y15548718D02*
X31478699Y15243918D01*
X31021497Y15548718D02*
X31326297Y15243918D01*
X30869098Y15548718D02*
X31173898Y15243918D01*
X30869098Y15396318D02*
X31021497Y15243918D01*
X33612299D02*
X33713092Y15143123D01*
X33459897Y15243918D02*
X33713092Y14990723D01*
X33307498Y15243918D02*
X33612299Y14939117D01*
X33155099Y15243918D02*
X33459897Y14939117D01*
X33002698Y15243918D02*
X33307498Y14939117D01*
X32850299Y15243918D02*
X33155099Y14939117D01*
X32697897Y15243918D02*
X33002698Y14939117D01*
X32545499Y15243918D02*
X32850299Y14939117D01*
X32393097Y15243918D02*
X32697897Y14939117D01*
X32240698Y15243918D02*
X32545499Y14939117D01*
X32088297Y15243918D02*
X32393097Y14939117D01*
X31935898Y15243918D02*
X32240698Y14939117D01*
X31783499Y15243918D02*
X32088297Y14939117D01*
X31631097Y15243918D02*
X31935898Y14939117D01*
X31478699Y15243918D02*
X31783499Y14939117D01*
X31326297Y15243918D02*
X31631097Y14939117D01*
X31173898Y15243918D02*
X31478699Y14939117D01*
X31021497Y15243918D02*
X31326297Y14939117D01*
X30869098Y15243918D02*
X31173898Y14939117D01*
X30869098Y15091518D02*
X31021497Y14939117D01*
X33612299D02*
X33713092Y14838322D01*
X33459897Y14939117D02*
X33713092Y14685922D01*
X33307498Y14939117D02*
X33612299Y14634319D01*
X33155099Y14939117D02*
X33459897Y14634319D01*
X33002698Y14939117D02*
X33307498Y14634319D01*
X32850299Y14939117D02*
X33155099Y14634319D01*
X32697897Y14939117D02*
X33002698Y14634319D01*
X32545499Y14939117D02*
X32850299Y14634319D01*
X32393097Y14939117D02*
X32697897Y14634319D01*
X32240698Y14939117D02*
X32545499Y14634319D01*
X32088297Y14939117D02*
X32393097Y14634319D01*
X31935898Y14939117D02*
X32240698Y14634319D01*
X31783499Y14939117D02*
X32088297Y14634319D01*
X31631097Y14939117D02*
X31935898Y14634319D01*
X31478699Y14939117D02*
X31783499Y14634319D01*
X31326297Y14939117D02*
X31631097Y14634319D01*
X31173898Y14939117D02*
X31478699Y14634319D01*
X31021497Y14939117D02*
X31326297Y14634319D01*
X30869098Y14939117D02*
X31173898Y14634319D01*
X30869098Y14786719D02*
X31021497Y14634319D01*
X33612299D02*
X33713092Y14533524D01*
X33459897Y14634319D02*
X33713092Y14381123D01*
X33307498Y14634319D02*
X33612299Y14329518D01*
X33155099Y14634319D02*
X33459897Y14329518D01*
X33002698Y14634319D02*
X33307498Y14329518D01*
X32850299Y14634319D02*
X33155099Y14329518D01*
X32697897Y14634319D02*
X33002698Y14329518D01*
X32545499Y14634319D02*
X32850299Y14329518D01*
X32393097Y14634319D02*
X32697897Y14329518D01*
X32240698Y14634319D02*
X32545499Y14329518D01*
X32088297Y14634319D02*
X32393097Y14329518D01*
X31935898Y14634319D02*
X32240698Y14329518D01*
X31783499Y14634319D02*
X32088297Y14329518D01*
X31631097Y14634319D02*
X31935898Y14329518D01*
X31478699Y14634319D02*
X31783499Y14329518D01*
X31326297Y14634319D02*
X31631097Y14329518D01*
X31173898Y14634319D02*
X31478699Y14329518D01*
X31021497Y14634319D02*
X31326297Y14329518D01*
X30869098Y14634319D02*
X31173898Y14329518D01*
X30869098Y14481918D02*
X31021497Y14329518D01*
X33612299D02*
X33713092Y14228723D01*
X33459897Y14329518D02*
X33713092Y14076323D01*
X33307498Y14329518D02*
X33612299Y14024718D01*
X33155099Y14329518D02*
X33459897Y14024718D01*
X33002698Y14329518D02*
X33307498Y14024718D01*
X32850299Y14329518D02*
X33155099Y14024718D01*
X32697897Y14329518D02*
X33002698Y14024718D01*
X32545499Y14329518D02*
X32850299Y14024718D01*
X32393097Y14329518D02*
X32697897Y14024718D01*
X32240698Y14329518D02*
X32545499Y14024718D01*
X32088297Y14329518D02*
X32393097Y14024718D01*
X31935898Y14329518D02*
X32240698Y14024718D01*
X31783499Y14329518D02*
X32088297Y14024718D01*
X31631097Y14329518D02*
X31935898Y14024718D01*
X31478699Y14329518D02*
X31783499Y14024718D01*
X31326297Y14329518D02*
X31631097Y14024718D01*
X31173898Y14329518D02*
X31478699Y14024718D01*
X31021497Y14329518D02*
X31326297Y14024718D01*
X30869098Y14329518D02*
X31173898Y14024718D01*
X30869098Y14177118D02*
X31021497Y14024718D01*
X33612299D02*
X33713092Y13923923D01*
X33459897Y14024718D02*
X33713092Y13771523D01*
X33307498Y14024718D02*
X33612299Y13719917D01*
X33155099Y14024718D02*
X33459897Y13719917D01*
X33002698Y14024718D02*
X33307498Y13719917D01*
X32850299Y14024718D02*
X33155099Y13719917D01*
X32697897Y14024718D02*
X33002698Y13719917D01*
X32545499Y14024718D02*
X32850299Y13719917D01*
X32393097Y14024718D02*
X32697897Y13719917D01*
X32240698Y14024718D02*
X32545499Y13719917D01*
X32088297Y14024718D02*
X32393097Y13719917D01*
X31935898Y14024718D02*
X32240698Y13719917D01*
X31783499Y14024718D02*
X32088297Y13719917D01*
X31631097Y14024718D02*
X31935898Y13719917D01*
X31478699Y14024718D02*
X31783499Y13719917D01*
X31326297Y14024718D02*
X31631097Y13719917D01*
X31173898Y14024718D02*
X31478699Y13719917D01*
X31021497Y14024718D02*
X31326297Y13719917D01*
X30869098Y14024718D02*
X31173898Y13719917D01*
X30869098Y13872318D02*
X31021497Y13719917D01*
X28025104Y18191122D02*
X28125897Y18291917D01*
X28025104Y18038724D02*
X28278299Y18291917D01*
X28125897Y17987119D02*
X28430698Y18291917D01*
X28278299Y17987119D02*
X28583099Y18291917D01*
X28430698Y17987119D02*
X28735498Y18291917D01*
X28583099Y17987119D02*
X28887897Y18291917D01*
X28735498Y17987119D02*
X29040298Y18291917D01*
X28887897Y17987119D02*
X29192697Y18291917D01*
X29040298Y17987119D02*
X29345099Y18291917D01*
X29192697Y17987119D02*
X29497498Y18291917D01*
X29345099Y17987119D02*
X29649899Y18291917D01*
X29497498Y17987119D02*
X29802298Y18291917D01*
X29649899Y17987119D02*
X29954697Y18291917D01*
X29802298Y17987119D02*
X30107098Y18291917D01*
X29954697Y17987119D02*
X30259497Y18291917D01*
X30107098Y17987119D02*
X30411899Y18291917D01*
X30259497Y17987119D02*
X30564297Y18291917D01*
X30411899Y17987119D02*
X30716699Y18291917D01*
X30564297Y17987119D02*
X30869098Y18291917D01*
X30716699Y17987119D02*
X30869098Y18139519D01*
X28025104Y17886324D02*
X28125897Y17987119D01*
X28025104Y17733923D02*
X28278299Y17987119D01*
X28125897Y17682318D02*
X28430698Y17987119D01*
X28278299Y17682318D02*
X28583099Y17987119D01*
X28430698Y17682318D02*
X28735498Y17987119D01*
X28583099Y17682318D02*
X28887897Y17987119D01*
X28735498Y17682318D02*
X29040298Y17987119D01*
X28887897Y17682318D02*
X29192697Y17987119D01*
X29040298Y17682318D02*
X29345099Y17987119D01*
X29192697Y17682318D02*
X29497498Y17987119D01*
X29345099Y17682318D02*
X29649899Y17987119D01*
X29497498Y17682318D02*
X29802298Y17987119D01*
X29649899Y17682318D02*
X29954697Y17987119D01*
X29802298Y17682318D02*
X30107098Y17987119D01*
X29954697Y17682318D02*
X30259497Y17987119D01*
X30107098Y17682318D02*
X30411899Y17987119D01*
X30259497Y17682318D02*
X30564297Y17987119D01*
X30411899Y17682318D02*
X30716699Y17987119D01*
X30564297Y17682318D02*
X30869098Y17987119D01*
X30716699Y17682318D02*
X30869098Y17834718D01*
X28025104Y17581523D02*
X28125897Y17682318D01*
X28025104Y17429123D02*
X28278299Y17682318D01*
X28125897Y17377518D02*
X28430698Y17682318D01*
X28278299Y17377518D02*
X28583099Y17682318D01*
X28430698Y17377518D02*
X28735498Y17682318D01*
X28583099Y17377518D02*
X28887897Y17682318D01*
X28735498Y17377518D02*
X29040298Y17682318D01*
X28887897Y17377518D02*
X29192697Y17682318D01*
X29040298Y17377518D02*
X29345099Y17682318D01*
X29192697Y17377518D02*
X29497498Y17682318D01*
X29345099Y17377518D02*
X29649899Y17682318D01*
X29497498Y17377518D02*
X29802298Y17682318D01*
X29649899Y17377518D02*
X29954697Y17682318D01*
X29802298Y17377518D02*
X30107098Y17682318D01*
X29954697Y17377518D02*
X30259497Y17682318D01*
X30107098Y17377518D02*
X30411899Y17682318D01*
X30259497Y17377518D02*
X30564297Y17682318D01*
X30411899Y17377518D02*
X30716699Y17682318D01*
X30564297Y17377518D02*
X30869098Y17682318D01*
X30716699Y17377518D02*
X30869098Y17529918D01*
X28025104Y17276723D02*
X28125897Y17377518D01*
X28025104Y17124323D02*
X28278299Y17377518D01*
X28125897Y17072717D02*
X28430698Y17377518D01*
X28278299Y17072717D02*
X28583099Y17377518D01*
X28430698Y17072717D02*
X28735498Y17377518D01*
X28583099Y17072717D02*
X28887897Y17377518D01*
X28735498Y17072717D02*
X29040298Y17377518D01*
X28887897Y17072717D02*
X29192697Y17377518D01*
X29040298Y17072717D02*
X29345099Y17377518D01*
X29192697Y17072717D02*
X29497498Y17377518D01*
X29345099Y17072717D02*
X29649899Y17377518D01*
X29497498Y17072717D02*
X29802298Y17377518D01*
X29649899Y17072717D02*
X29954697Y17377518D01*
X29802298Y17072717D02*
X30107098Y17377518D01*
X29954697Y17072717D02*
X30259497Y17377518D01*
X30107098Y17072717D02*
X30411899Y17377518D01*
X30259497Y17072717D02*
X30564297Y17377518D01*
X30411899Y17072717D02*
X30716699Y17377518D01*
X30564297Y17072717D02*
X30869098Y17377518D01*
X30716699Y17072717D02*
X30869098Y17225117D01*
X28025104Y16971922D02*
X28125897Y17072717D01*
X28025104Y16819524D02*
X28278299Y17072717D01*
X28125897Y16767918D02*
X28430698Y17072717D01*
X28278299Y16767918D02*
X28583099Y17072717D01*
X28430698Y16767918D02*
X28735498Y17072717D01*
X28583099Y16767918D02*
X28887897Y17072717D01*
X28735498Y16767918D02*
X29040298Y17072717D01*
X28887897Y16767918D02*
X29192697Y17072717D01*
X29040298Y16767918D02*
X29345099Y17072717D01*
X29192697Y16767918D02*
X29497498Y17072717D01*
X29345099Y16767918D02*
X29649899Y17072717D01*
X29497498Y16767918D02*
X29802298Y17072717D01*
X29649899Y16767918D02*
X29954697Y17072717D01*
X29802298Y16767918D02*
X30107098Y17072717D01*
X29954697Y16767918D02*
X30259497Y17072717D01*
X30107098Y16767918D02*
X30411899Y17072717D01*
X30259497Y16767918D02*
X30564297Y17072717D01*
X30411899Y16767918D02*
X30716699Y17072717D01*
X30564297Y16767918D02*
X30869098Y17072717D01*
X30716699Y16767918D02*
X30869098Y16920319D01*
X28025104Y16667123D02*
X28125897Y16767918D01*
X28025104Y16514723D02*
X28278299Y16767918D01*
X28125897Y16463118D02*
X28430698Y16767918D01*
X28278299Y16463118D02*
X28583099Y16767918D01*
X28430698Y16463118D02*
X28735498Y16767918D01*
X28583099Y16463118D02*
X28887897Y16767918D01*
X28735498Y16463118D02*
X29040298Y16767918D01*
X28887897Y16463118D02*
X29192697Y16767918D01*
X29040298Y16463118D02*
X29345099Y16767918D01*
X29192697Y16463118D02*
X29497498Y16767918D01*
X29345099Y16463118D02*
X29649899Y16767918D01*
X29497498Y16463118D02*
X29802298Y16767918D01*
X29649899Y16463118D02*
X29954697Y16767918D01*
X29802298Y16463118D02*
X30107098Y16767918D01*
X29954697Y16463118D02*
X30259497Y16767918D01*
X30107098Y16463118D02*
X30411899Y16767918D01*
X30259497Y16463118D02*
X30564297Y16767918D01*
X30411899Y16463118D02*
X30716699Y16767918D01*
X30564297Y16463118D02*
X30869098Y16767918D01*
X30716699Y16463118D02*
X30869098Y16615518D01*
X28025104Y16362323D02*
X28125897Y16463118D01*
X28025104Y16209923D02*
X28278299Y16463118D01*
X28125897Y16158318D02*
X28430698Y16463118D01*
X28278299Y16158318D02*
X28583099Y16463118D01*
X28430698Y16158318D02*
X28735498Y16463118D01*
X28583099Y16158318D02*
X28887897Y16463118D01*
X28735498Y16158318D02*
X29040298Y16463118D01*
X28887897Y16158318D02*
X29192697Y16463118D01*
X29040298Y16158318D02*
X29345099Y16463118D01*
X29192697Y16158318D02*
X29497498Y16463118D01*
X29345099Y16158318D02*
X29649899Y16463118D01*
X29497498Y16158318D02*
X29802298Y16463118D01*
X29649899Y16158318D02*
X29954697Y16463118D01*
X29802298Y16158318D02*
X30107098Y16463118D01*
X29954697Y16158318D02*
X30259497Y16463118D01*
X30107098Y16158318D02*
X30411899Y16463118D01*
X30259497Y16158318D02*
X30564297Y16463118D01*
X30411899Y16158318D02*
X30716699Y16463118D01*
X30564297Y16158318D02*
X30869098Y16463118D01*
X30716699Y16158318D02*
X30869098Y16310718D01*
X28025104Y16057523D02*
X28125897Y16158318D01*
X28025104Y15905122D02*
X28278299Y16158318D01*
X28125897Y15853519D02*
X28430698Y16158318D01*
X28278299Y15853519D02*
X28583099Y16158318D01*
X28430698Y15853519D02*
X28735498Y16158318D01*
X28583099Y15853519D02*
X28887897Y16158318D01*
X28735498Y15853519D02*
X29040298Y16158318D01*
X28887897Y15853519D02*
X29192697Y16158318D01*
X29040298Y15853519D02*
X29345099Y16158318D01*
X29192697Y15853519D02*
X29497498Y16158318D01*
X29345099Y15853519D02*
X29649899Y16158318D01*
X29497498Y15853519D02*
X29802298Y16158318D01*
X29649899Y15853519D02*
X29954697Y16158318D01*
X29802298Y15853519D02*
X30107098Y16158318D01*
X29954697Y15853519D02*
X30259497Y16158318D01*
X30107098Y15853519D02*
X30411899Y16158318D01*
X30259497Y15853519D02*
X30564297Y16158318D01*
X30411899Y15853519D02*
X30716699Y16158318D01*
X30564297Y15853519D02*
X30869098Y16158318D01*
X30716699Y15853519D02*
X30869098Y16005917D01*
X28025104Y15752724D02*
X28125897Y15853519D01*
X28025104Y15600323D02*
X28278299Y15853519D01*
X28125897Y15548718D02*
X28430698Y15853519D01*
X28278299Y15548718D02*
X28583099Y15853519D01*
X28430698Y15548718D02*
X28735498Y15853519D01*
X28583099Y15548718D02*
X28887897Y15853519D01*
X28735498Y15548718D02*
X29040298Y15853519D01*
X28887897Y15548718D02*
X29192697Y15853519D01*
X29040298Y15548718D02*
X29345099Y15853519D01*
X29192697Y15548718D02*
X29497498Y15853519D01*
X29345099Y15548718D02*
X29649899Y15853519D01*
X29497498Y15548718D02*
X29802298Y15853519D01*
X29649899Y15548718D02*
X29954697Y15853519D01*
X29802298Y15548718D02*
X30107098Y15853519D01*
X29954697Y15548718D02*
X30259497Y15853519D01*
X30107098Y15548718D02*
X30411899Y15853519D01*
X30259497Y15548718D02*
X30564297Y15853519D01*
X30411899Y15548718D02*
X30716699Y15853519D01*
X30564297Y15548718D02*
X30869098Y15853519D01*
X30716699Y15548718D02*
X30869098Y15701118D01*
X28025104Y15447923D02*
X28125897Y15548718D01*
X28025104Y15295523D02*
X28278299Y15548718D01*
X28125897Y15243918D02*
X28430698Y15548718D01*
X28278299Y15243918D02*
X28583099Y15548718D01*
X28430698Y15243918D02*
X28735498Y15548718D01*
X28583099Y15243918D02*
X28887897Y15548718D01*
X28735498Y15243918D02*
X29040298Y15548718D01*
X28887897Y15243918D02*
X29192697Y15548718D01*
X29040298Y15243918D02*
X29345099Y15548718D01*
X29192697Y15243918D02*
X29497498Y15548718D01*
X29345099Y15243918D02*
X29649899Y15548718D01*
X29497498Y15243918D02*
X29802298Y15548718D01*
X29649899Y15243918D02*
X29954697Y15548718D01*
X29802298Y15243918D02*
X30107098Y15548718D01*
X29954697Y15243918D02*
X30259497Y15548718D01*
X30107098Y15243918D02*
X30411899Y15548718D01*
X30259497Y15243918D02*
X30564297Y15548718D01*
X30411899Y15243918D02*
X30716699Y15548718D01*
X30564297Y15243918D02*
X30869098Y15548718D01*
X30716699Y15243918D02*
X30869098Y15396318D01*
X28025104Y15143123D02*
X28125897Y15243918D01*
X28025104Y14990723D02*
X28278299Y15243918D01*
X28125897Y14939117D02*
X28430698Y15243918D01*
X28278299Y14939117D02*
X28583099Y15243918D01*
X28430698Y14939117D02*
X28735498Y15243918D01*
X28583099Y14939117D02*
X28887897Y15243918D01*
X28735498Y14939117D02*
X29040298Y15243918D01*
X28887897Y14939117D02*
X29192697Y15243918D01*
X29040298Y14939117D02*
X29345099Y15243918D01*
X29192697Y14939117D02*
X29497498Y15243918D01*
X29345099Y14939117D02*
X29649899Y15243918D01*
X29497498Y14939117D02*
X29802298Y15243918D01*
X29649899Y14939117D02*
X29954697Y15243918D01*
X29802298Y14939117D02*
X30107098Y15243918D01*
X29954697Y14939117D02*
X30259497Y15243918D01*
X30107098Y14939117D02*
X30411899Y15243918D01*
X30259497Y14939117D02*
X30564297Y15243918D01*
X30411899Y14939117D02*
X30716699Y15243918D01*
X30564297Y14939117D02*
X30869098Y15243918D01*
X30716699Y14939117D02*
X30869098Y15091518D01*
X28025104Y14838322D02*
X28125897Y14939117D01*
X28025104Y14685922D02*
X28278299Y14939117D01*
X28125897Y14634319D02*
X28430698Y14939117D01*
X28278299Y14634319D02*
X28583099Y14939117D01*
X28430698Y14634319D02*
X28735498Y14939117D01*
X28583099Y14634319D02*
X28887897Y14939117D01*
X28735498Y14634319D02*
X29040298Y14939117D01*
X28887897Y14634319D02*
X29192697Y14939117D01*
X29040298Y14634319D02*
X29345099Y14939117D01*
X29192697Y14634319D02*
X29497498Y14939117D01*
X29345099Y14634319D02*
X29649899Y14939117D01*
X29497498Y14634319D02*
X29802298Y14939117D01*
X29649899Y14634319D02*
X29954697Y14939117D01*
X29802298Y14634319D02*
X30107098Y14939117D01*
X29954697Y14634319D02*
X30259497Y14939117D01*
X30107098Y14634319D02*
X30411899Y14939117D01*
X30259497Y14634319D02*
X30564297Y14939117D01*
X30411899Y14634319D02*
X30716699Y14939117D01*
X30564297Y14634319D02*
X30869098Y14939117D01*
X30716699Y14634319D02*
X30869098Y14786719D01*
X28025104Y14533524D02*
X28125897Y14634319D01*
X28025104Y14381123D02*
X28278299Y14634319D01*
X28125897Y14329518D02*
X28430698Y14634319D01*
X28278299Y14329518D02*
X28583099Y14634319D01*
X28430698Y14329518D02*
X28735498Y14634319D01*
X28583099Y14329518D02*
X28887897Y14634319D01*
X28735498Y14329518D02*
X29040298Y14634319D01*
X28887897Y14329518D02*
X29192697Y14634319D01*
X29040298Y14329518D02*
X29345099Y14634319D01*
X29192697Y14329518D02*
X29497498Y14634319D01*
X29345099Y14329518D02*
X29649899Y14634319D01*
X29497498Y14329518D02*
X29802298Y14634319D01*
X29649899Y14329518D02*
X29954697Y14634319D01*
X29802298Y14329518D02*
X30107098Y14634319D01*
X29954697Y14329518D02*
X30259497Y14634319D01*
X30107098Y14329518D02*
X30411899Y14634319D01*
X30259497Y14329518D02*
X30564297Y14634319D01*
X30411899Y14329518D02*
X30716699Y14634319D01*
X30564297Y14329518D02*
X30869098Y14634319D01*
X30716699Y14329518D02*
X30869098Y14481918D01*
X28025104Y14228723D02*
X28125897Y14329518D01*
X28025104Y14076323D02*
X28278299Y14329518D01*
X28125897Y14024718D02*
X28430698Y14329518D01*
X28278299Y14024718D02*
X28583099Y14329518D01*
X28430698Y14024718D02*
X28735498Y14329518D01*
X28583099Y14024718D02*
X28887897Y14329518D01*
X28735498Y14024718D02*
X29040298Y14329518D01*
X28887897Y14024718D02*
X29192697Y14329518D01*
X29040298Y14024718D02*
X29345099Y14329518D01*
X29192697Y14024718D02*
X29497498Y14329518D01*
X29345099Y14024718D02*
X29649899Y14329518D01*
X29497498Y14024718D02*
X29802298Y14329518D01*
X29649899Y14024718D02*
X29954697Y14329518D01*
X29802298Y14024718D02*
X30107098Y14329518D01*
X29954697Y14024718D02*
X30259497Y14329518D01*
X30107098Y14024718D02*
X30411899Y14329518D01*
X30259497Y14024718D02*
X30564297Y14329518D01*
X30411899Y14024718D02*
X30716699Y14329518D01*
X30564297Y14024718D02*
X30869098Y14329518D01*
X30716699Y14024718D02*
X30869098Y14177118D01*
X28025104Y13923923D02*
X28125897Y14024718D01*
X28025104Y13771523D02*
X28278299Y14024718D01*
X28125897Y13719917D02*
X28430698Y14024718D01*
X28278299Y13719917D02*
X28583099Y14024718D01*
X28430698Y13719917D02*
X28735498Y14024718D01*
X28583099Y13719917D02*
X28887897Y14024718D01*
X28735498Y13719917D02*
X29040298Y14024718D01*
X28887897Y13719917D02*
X29192697Y14024718D01*
X29040298Y13719917D02*
X29345099Y14024718D01*
X29192697Y13719917D02*
X29497498Y14024718D01*
X29345099Y13719917D02*
X29649899Y14024718D01*
X29497498Y13719917D02*
X29802298Y14024718D01*
X29649899Y13719917D02*
X29954697Y14024718D01*
X29802298Y13719917D02*
X30107098Y14024718D01*
X29954697Y13719917D02*
X30259497Y14024718D01*
X30107098Y13719917D02*
X30411899Y14024718D01*
X30259497Y13719917D02*
X30564297Y14024718D01*
X30411899Y13719917D02*
X30716699Y14024718D01*
X30564297Y13719917D02*
X30869098Y14024718D01*
X30716699Y13719917D02*
X30869098Y13872318D01*
D131*
X18756525Y3852015D02*
X18756526Y13643719D01*
X33713095Y13643719D01*
X33713095Y3852015D02*
X33713095Y13643719D01*
X18756525Y3852015D02*
X33713095D01*
X33713092Y13719917D02*
Y18596718D01*
X30869098Y17987119D02*
X33713092D01*
X30869098Y17682318D02*
X33713092D01*
X30869098Y17377518D02*
X33713092D01*
X30869098Y17072717D02*
X33713092D01*
X30869098Y16767918D02*
X33713092D01*
X30869098Y16463118D02*
X33713092D01*
X30869098Y16158318D02*
X33713092D01*
X30869098Y15853519D02*
X33713092D01*
X30869098Y15548718D02*
X33713092D01*
X30869098Y15243918D02*
X33713092D01*
X30869098Y14939117D02*
X33713092D01*
X30869098Y14634319D02*
X33713092D01*
X30869098Y14329518D02*
X33713092D01*
X30869098Y14024718D02*
X33713092D01*
X30869098Y13719917D02*
X33713092D01*
X30869098D02*
Y18596718D01*
X28025104Y17987119D02*
X30869098D01*
X28025104Y17682318D02*
X30869098D01*
X28025104Y17377518D02*
X30869098D01*
X28025104Y17072717D02*
X30869098D01*
X28025104Y16767918D02*
X30869098D01*
X28025104Y16463118D02*
X30869098D01*
X28025104Y16158318D02*
X30869098D01*
X28025104Y15853519D02*
X30869098D01*
X28025104Y15548718D02*
X30869098D01*
X28025104Y15243918D02*
X30869098D01*
X28025104Y14939117D02*
X30869098D01*
X28025104Y14634319D02*
X30869098D01*
X28025104Y14329518D02*
X30869098D01*
X28025104Y14024718D02*
X30869098D01*
X28025104Y13719917D02*
X30869098D01*
X28025104D02*
Y18596718D01*
X26577658Y17987119D02*
X28025104D01*
X26577658Y17682318D02*
X28025104D01*
X26577658Y17377518D02*
X28025104D01*
X26577658Y17072717D02*
X28025104D01*
X26577658Y16767918D02*
X28025104D01*
X26577658Y16463118D02*
X28025104D01*
X26577658Y16158318D02*
X28025104D01*
X26577658Y15853519D02*
X28025104D01*
X26577658Y15548718D02*
X28025104D01*
X26577658Y15243918D02*
X28025104D01*
X26577658Y14939117D02*
X28025104D01*
X26577658Y14634319D02*
X28025104D01*
X26577658Y14329518D02*
X28025104D01*
X26577658Y14024718D02*
X28025104D01*
X26577658Y13719917D02*
X28025104D01*
X26577658D02*
Y18596718D01*
X24927075Y17987119D02*
X26577658D01*
X24927075Y17682318D02*
X26577658D01*
X24927075Y17377518D02*
X26577658D01*
X24927075Y17072717D02*
X26577658D01*
X24927075Y16767918D02*
X26577658D01*
X24927075Y16463118D02*
X26577658D01*
X24927075Y16158318D02*
X26577658D01*
X24927075Y15853519D02*
X26577658D01*
X24927075Y15548718D02*
X26577658D01*
X24927075Y15243918D02*
X26577658D01*
X24927075Y14939117D02*
X26577658D01*
X24927075Y14634319D02*
X26577658D01*
X24927075Y14329518D02*
X26577658D01*
X24927075Y14024718D02*
X26577658D01*
X24927075Y13719917D02*
X26577658D01*
X24927075D02*
Y18596718D01*
X22743266Y17987119D02*
X24927075D01*
X22743266Y17682318D02*
X24927075D01*
X22743266Y17377518D02*
X24927075D01*
X22743266Y17072717D02*
X24927075D01*
X22743266Y16767918D02*
X24927075D01*
X22743266Y16463118D02*
X24927075D01*
X22743266Y16158318D02*
X24927075D01*
X22743266Y15853519D02*
X24927075D01*
X22743266Y15548718D02*
X24927075D01*
X22743266Y15243918D02*
X24927075D01*
X22743266Y14939117D02*
X24927075D01*
X22743266Y14634319D02*
X24927075D01*
X22743266Y14329518D02*
X24927075D01*
X22743266Y14024718D02*
X24927075D01*
X22743266Y13719917D02*
X24927075D01*
X22743266D02*
Y18596718D01*
X19797705Y17987119D02*
X22743266D01*
X19797705Y17682318D02*
X22743266D01*
X19797705Y17377518D02*
X22743266D01*
X19797705Y17072717D02*
X22743266D01*
X19797705Y16767918D02*
X22743266D01*
X19797705Y16463118D02*
X22743266D01*
X19797705Y16158318D02*
X22743266D01*
X19797705Y15853519D02*
X22743266D01*
X19797705Y15548718D02*
X22743266D01*
X19797705Y15243918D02*
X22743266D01*
X19797705Y14939117D02*
X22743266D01*
X19797705Y14634319D02*
X22743266D01*
X19797705Y14329518D02*
X22743266D01*
X19797705Y14024718D02*
X22743266D01*
X19797705Y13719917D02*
X22743266D01*
X19797705D02*
Y18596718D01*
X18756528Y17987119D02*
X19797705D01*
X18756528Y17682318D02*
X19797705D01*
X18756528Y17377518D02*
X19797705D01*
X18756528Y17072717D02*
X19797705D01*
X18756528Y16767918D02*
X19797705D01*
X18756528Y16463118D02*
X19797705D01*
X18756528Y16158318D02*
X19797705D01*
X18756528Y15853519D02*
X19797705D01*
X18756528Y15548718D02*
X19797705D01*
X18756528Y15243918D02*
X19797705D01*
X18756528Y14939117D02*
X19797705D01*
X18756528Y14634319D02*
X19797705D01*
X18756528Y14329518D02*
X19797705D01*
X18756528Y14024718D02*
X19797705D01*
X18756528Y13719917D02*
X19797705D01*
X18756528D02*
Y18596718D01*
X33713092D01*
X18756528Y18291917D02*
X33713092D01*
D132*
X2537968Y5577332D02*
Y5640324D01*
X2540000Y5561076D02*
Y5656580D01*
X2542032Y5548884D02*
Y5670804D01*
X2544064Y5538724D02*
Y5678932D01*
X2546096Y5530596D02*
Y5689092D01*
X2548128Y5524500D02*
Y5697220D01*
X2550160Y5516372D02*
Y5703316D01*
X2552192Y5510276D02*
Y5709412D01*
X2554224Y5506212D02*
Y5715508D01*
X2556256Y5500116D02*
Y5721604D01*
Y5941060D02*
Y6113780D01*
X2558288Y4766564D02*
Y4941316D01*
Y5089652D02*
Y5264404D01*
Y5496052D02*
Y5727700D01*
Y5941060D02*
Y6113780D01*
X2560320Y4766564D02*
Y4941316D01*
Y5089652D02*
Y5264404D01*
Y5489956D02*
Y5731764D01*
Y5941060D02*
Y6113780D01*
X2562352Y4585716D02*
Y4587748D01*
Y4766564D02*
Y4941316D01*
Y5089652D02*
Y5264404D01*
Y5485892D02*
Y5735828D01*
Y5941060D02*
Y6113780D01*
X2564384Y4585716D02*
Y4589780D01*
Y4766564D02*
Y4941316D01*
Y5089652D02*
Y5264404D01*
Y5481828D02*
Y5741924D01*
Y5941060D02*
Y6113780D01*
X2566416Y4583684D02*
Y4589780D01*
Y4766564D02*
Y4941316D01*
Y5089652D02*
Y5264404D01*
Y5477764D02*
Y5745988D01*
Y5941060D02*
Y6113780D01*
X2568448Y4581652D02*
Y4593844D01*
Y4766564D02*
Y4941316D01*
Y5089652D02*
Y5264404D01*
Y5473700D02*
Y5750052D01*
Y5941060D02*
Y6113780D01*
X2570480Y4581652D02*
Y4593844D01*
Y4766564D02*
Y4941316D01*
Y5089652D02*
Y5264404D01*
Y5469636D02*
Y5754116D01*
Y5941060D02*
Y6113780D01*
X2572512Y4581652D02*
Y4593844D01*
Y4766564D02*
Y4941316D01*
Y5089652D02*
Y5264404D01*
Y5465572D02*
Y5758180D01*
Y5941060D02*
Y6113780D01*
X2574544Y4581652D02*
Y4593844D01*
Y4766564D02*
Y4941316D01*
Y5089652D02*
Y5264404D01*
Y5463540D02*
Y5762244D01*
Y5941060D02*
Y6113780D01*
X2576576Y4581652D02*
Y4593844D01*
Y4766564D02*
Y4941316D01*
Y5089652D02*
Y5264404D01*
Y5459476D02*
Y5766308D01*
Y5941060D02*
Y6113780D01*
X2578608Y4581652D02*
Y4593844D01*
Y4766564D02*
Y4941316D01*
Y5089652D02*
Y5264404D01*
Y5455412D02*
Y5768340D01*
Y5941060D02*
Y6113780D01*
X2580640Y4581652D02*
Y4593844D01*
Y4766564D02*
Y4941316D01*
Y5089652D02*
Y5264404D01*
Y5453380D02*
Y5772404D01*
Y5941060D02*
Y6113780D01*
X2582672Y4581652D02*
Y4593844D01*
Y4766564D02*
Y4941316D01*
Y5089652D02*
Y5264404D01*
Y5449316D02*
Y5774436D01*
Y5941060D02*
Y6113780D01*
X2584704Y4581652D02*
Y4593844D01*
Y4766564D02*
Y4941316D01*
Y5089652D02*
Y5264404D01*
Y5447284D02*
Y5778500D01*
Y5941060D02*
Y6113780D01*
X2586736Y4577588D02*
Y4595876D01*
Y4766564D02*
Y4941316D01*
Y5089652D02*
Y5264404D01*
Y5443220D02*
Y5782564D01*
Y5941060D02*
Y6113780D01*
X2588768Y4579620D02*
Y4595876D01*
Y4766564D02*
Y4941316D01*
Y5089652D02*
Y5264404D01*
Y5441188D02*
Y5784596D01*
Y5941060D02*
Y6113780D01*
X2590800Y4577588D02*
Y4595876D01*
Y4766564D02*
Y4941316D01*
Y5089652D02*
Y5264404D01*
Y5439156D02*
Y5786628D01*
Y5941060D02*
Y6113780D01*
X2592832Y4575556D02*
Y4599940D01*
Y4766564D02*
Y4941316D01*
Y5089652D02*
Y5264404D01*
Y5435092D02*
Y5790692D01*
Y5941060D02*
Y6113780D01*
X2594864Y4573524D02*
Y4601972D01*
Y4766564D02*
Y4941316D01*
Y5089652D02*
Y5264404D01*
Y5433060D02*
Y5792724D01*
Y5941060D02*
Y6113780D01*
X2596896Y4569460D02*
Y4606036D01*
Y4766564D02*
Y4941316D01*
Y5089652D02*
Y5264404D01*
Y5431028D02*
Y5796788D01*
Y5941060D02*
Y6113780D01*
X2598928Y4565396D02*
Y4608068D01*
Y4766564D02*
Y4941316D01*
Y5089652D02*
Y5264404D01*
Y5428996D02*
Y5798820D01*
Y5941060D02*
Y6113780D01*
X2600960Y4563364D02*
Y4610100D01*
Y4766564D02*
Y4941316D01*
Y5089652D02*
Y5264404D01*
Y5424932D02*
Y5800852D01*
Y5941060D02*
Y6113780D01*
X2602992Y4561332D02*
Y4612132D01*
Y4766564D02*
Y4941316D01*
Y5089652D02*
Y5264404D01*
Y5422900D02*
Y5802884D01*
Y5941060D02*
Y6113780D01*
X2605024Y4559300D02*
Y4614164D01*
Y4766564D02*
Y4941316D01*
Y5089652D02*
Y5264404D01*
Y5420868D02*
Y5806948D01*
Y5941060D02*
Y6113780D01*
X2607056Y4557268D02*
Y4616196D01*
Y4766564D02*
Y4941316D01*
Y5089652D02*
Y5264404D01*
Y5418836D02*
Y5808980D01*
Y5941060D02*
Y6113780D01*
X2609088Y4557268D02*
Y4618228D01*
Y4766564D02*
Y4941316D01*
Y5089652D02*
Y5264404D01*
Y5416804D02*
Y5811012D01*
Y5941060D02*
Y6113780D01*
X2611120Y4555236D02*
Y4618228D01*
Y4766564D02*
Y4941316D01*
Y5089652D02*
Y5264404D01*
Y5414772D02*
Y5813044D01*
Y5941060D02*
Y6113780D01*
X2613152Y4553204D02*
Y4620260D01*
Y4766564D02*
Y4941316D01*
Y5089652D02*
Y5264404D01*
Y5412740D02*
Y5815076D01*
Y5941060D02*
Y6113780D01*
X2615184Y4553204D02*
Y4620260D01*
Y4766564D02*
Y4941316D01*
Y5089652D02*
Y5264404D01*
Y5410708D02*
Y5817108D01*
Y5941060D02*
Y6113780D01*
X2617216Y4553204D02*
Y4622292D01*
Y4766564D02*
Y4941316D01*
Y5089652D02*
Y5264404D01*
Y5408676D02*
Y5819140D01*
Y5941060D02*
Y6113780D01*
X2619248Y4551172D02*
Y4622292D01*
Y4766564D02*
Y4941316D01*
Y5089652D02*
Y5264404D01*
Y5406644D02*
Y5821172D01*
Y5941060D02*
Y6113780D01*
X2621280Y4551172D02*
Y4622292D01*
Y4766564D02*
Y4941316D01*
Y5089652D02*
Y5264404D01*
Y5404612D02*
Y5823204D01*
Y5941060D02*
Y6113780D01*
X2623312Y4551172D02*
Y4624324D01*
Y4766564D02*
Y4941316D01*
Y5089652D02*
Y5264404D01*
Y5402580D02*
Y5825236D01*
Y5941060D02*
Y6113780D01*
X2625344Y4551172D02*
Y4624324D01*
Y4766564D02*
Y4941316D01*
Y5089652D02*
Y5264404D01*
Y5400548D02*
Y5827268D01*
Y5941060D02*
Y6113780D01*
X2627376Y4549140D02*
Y4624324D01*
Y4766564D02*
Y4941316D01*
Y5089652D02*
Y5264404D01*
Y5398516D02*
Y5829300D01*
Y5941060D02*
Y6113780D01*
X2629408Y4549140D02*
Y4624324D01*
Y4766564D02*
Y4941316D01*
Y5089652D02*
Y5264404D01*
Y5398516D02*
Y5831332D01*
Y5941060D02*
Y6113780D01*
X2631440Y4549140D02*
Y4624324D01*
Y4766564D02*
Y4941316D01*
Y5089652D02*
Y5264404D01*
Y5396484D02*
Y5833364D01*
Y5941060D02*
Y6113780D01*
X2633472Y4549140D02*
Y4624324D01*
Y4766564D02*
Y4941316D01*
Y5089652D02*
Y5264404D01*
Y5394452D02*
Y5835396D01*
Y5941060D02*
Y6113780D01*
X2635504Y4549140D02*
Y4626356D01*
Y4766564D02*
Y4941316D01*
Y5089652D02*
Y5264404D01*
Y5392420D02*
Y5837428D01*
Y5941060D02*
Y6113780D01*
X2637536Y4547108D02*
Y4626356D01*
Y4766564D02*
Y4941316D01*
Y5089652D02*
Y5264404D01*
Y5390388D02*
Y5839460D01*
Y5941060D02*
Y6113780D01*
X2639568Y4545076D02*
Y4628388D01*
Y4766564D02*
Y4941316D01*
Y5089652D02*
Y5264404D01*
Y5390388D02*
Y5841492D01*
Y5941060D02*
Y6113780D01*
X2641600Y4543044D02*
Y4630420D01*
Y4766564D02*
Y4941316D01*
Y5089652D02*
Y5264404D01*
Y5388356D02*
Y5843524D01*
Y5941060D02*
Y6113780D01*
X2643632Y4545076D02*
Y4630420D01*
Y4766564D02*
Y4941316D01*
Y5089652D02*
Y5264404D01*
Y5386324D02*
Y5843524D01*
Y5941060D02*
Y6113780D01*
X2645664Y4545076D02*
Y4628388D01*
Y4766564D02*
Y4941316D01*
Y5089652D02*
Y5264404D01*
Y5384292D02*
Y5845556D01*
Y5941060D02*
Y6113780D01*
X2647696Y4547108D02*
Y4628388D01*
Y4766564D02*
Y4941316D01*
Y5089652D02*
Y5264404D01*
Y5384292D02*
Y5847588D01*
Y5941060D02*
Y6113780D01*
X2649728Y4547108D02*
Y4628388D01*
Y4766564D02*
Y4941316D01*
Y5089652D02*
Y5264404D01*
Y5382260D02*
Y5849620D01*
Y5941060D02*
Y6113780D01*
X2651760Y4547108D02*
Y4585716D01*
Y4589780D02*
Y4628388D01*
Y4766564D02*
Y4941316D01*
Y5089652D02*
Y5264404D01*
Y5380228D02*
Y5849620D01*
Y5941060D02*
Y6113780D01*
X2653792Y4545076D02*
Y4575556D01*
Y4597908D02*
Y4628388D01*
Y4766564D02*
Y4941316D01*
Y5089652D02*
Y5264404D01*
Y5378196D02*
Y5851652D01*
Y5941060D02*
Y6113780D01*
X2655824Y4545076D02*
Y4565396D01*
Y4608068D02*
Y4630420D01*
Y4766564D02*
Y4941316D01*
Y5089652D02*
Y5264404D01*
Y5378196D02*
Y5853684D01*
Y5941060D02*
Y6113780D01*
X2657856Y4545076D02*
Y4557268D01*
Y4618228D02*
Y4630420D01*
Y4766564D02*
Y4941316D01*
Y5089652D02*
Y5264404D01*
Y5376164D02*
Y5855716D01*
Y5941060D02*
Y6113780D01*
X2659888Y4545076D02*
Y4547108D01*
Y4577588D02*
Y4595876D01*
Y4626356D02*
Y4630420D01*
Y4766564D02*
Y4941316D01*
Y5089652D02*
Y5264404D01*
Y5374132D02*
Y5855716D01*
Y5941060D02*
Y6113780D01*
X2661920Y4567428D02*
Y4606036D01*
Y4766564D02*
Y4941316D01*
Y5089652D02*
Y5264404D01*
Y5374132D02*
Y5857748D01*
Y5941060D02*
Y6113780D01*
X2663952Y4559300D02*
Y4616196D01*
Y4766564D02*
Y4941316D01*
Y5089652D02*
Y5264404D01*
Y5372100D02*
Y5857748D01*
Y5941060D02*
Y6113780D01*
X2665984Y4549140D02*
Y4624324D01*
Y4766564D02*
Y4941316D01*
Y5089652D02*
Y5264404D01*
Y5372100D02*
Y5859780D01*
Y5941060D02*
Y6113780D01*
X2668016Y4538980D02*
Y4634484D01*
Y4766564D02*
Y4941316D01*
Y5089652D02*
Y5264404D01*
Y5370068D02*
Y5861812D01*
Y5941060D02*
Y6113780D01*
X2670048Y4530852D02*
Y4644644D01*
Y4766564D02*
Y4941316D01*
Y5089652D02*
Y5264404D01*
Y5368036D02*
Y5603748D01*
Y5628132D02*
Y5861812D01*
Y5941060D02*
Y6113780D01*
X2672080Y4520692D02*
Y4652772D01*
Y4766564D02*
Y4941316D01*
Y5089652D02*
Y5264404D01*
Y5368036D02*
Y5591556D01*
Y5640324D02*
Y5863844D01*
Y5941060D02*
Y6113780D01*
X2674112Y4510532D02*
Y4662932D01*
Y4766564D02*
Y4941316D01*
Y5089652D02*
Y5264404D01*
Y5366004D02*
Y5583428D01*
Y5648452D02*
Y5863844D01*
Y5941060D02*
Y6113780D01*
X2676144Y4502404D02*
Y4673092D01*
Y4766564D02*
Y4941316D01*
Y5089652D02*
Y5264404D01*
Y5366004D02*
Y5577332D01*
Y5654548D02*
Y5865876D01*
Y5941060D02*
Y6113780D01*
X2678176Y4494276D02*
Y4679188D01*
Y4766564D02*
Y4941316D01*
Y5089652D02*
Y5264404D01*
Y5363972D02*
Y5573268D01*
Y5660644D02*
Y5867908D01*
Y5941060D02*
Y6113780D01*
X2680208Y4494276D02*
Y4679188D01*
Y4766564D02*
Y4941316D01*
Y5089652D02*
Y5264404D01*
Y5363972D02*
Y5567172D01*
Y5664708D02*
Y5867908D01*
Y5941060D02*
Y6113780D01*
X2682240Y4494276D02*
Y4679188D01*
Y4766564D02*
Y4941316D01*
Y5089652D02*
Y5264404D01*
Y5361940D02*
Y5563108D01*
Y5668772D02*
Y5869940D01*
Y5941060D02*
Y6113780D01*
X2684272Y4496308D02*
Y4677156D01*
Y4766564D02*
Y4941316D01*
Y5089652D02*
Y5264404D01*
Y5361940D02*
Y5561076D01*
Y5670804D02*
Y5869940D01*
Y5941060D02*
Y6113780D01*
X2686304Y4498340D02*
Y4677156D01*
Y4766564D02*
Y4941316D01*
Y5089652D02*
Y5264404D01*
Y5359908D02*
Y5557012D01*
Y5674868D02*
Y5871972D01*
Y5941060D02*
Y6113780D01*
X2688336Y4498340D02*
Y4675124D01*
Y4766564D02*
Y4941316D01*
Y5089652D02*
Y5264404D01*
Y5359908D02*
Y5554980D01*
Y5676900D02*
Y5871972D01*
Y5941060D02*
Y6113780D01*
X2690368Y4498340D02*
Y4675124D01*
Y4766564D02*
Y4941316D01*
Y5089652D02*
Y5264404D01*
Y5357876D02*
Y5550916D01*
Y5680964D02*
Y5865876D01*
Y5941060D02*
Y6113780D01*
X2692400Y4498340D02*
Y4675124D01*
Y4766564D02*
Y4941316D01*
Y5089652D02*
Y5264404D01*
Y5357876D02*
Y5548884D01*
Y5682996D02*
Y5861812D01*
Y5941060D02*
Y6113780D01*
X2694432Y4504436D02*
Y4518660D01*
Y4534916D02*
Y4549140D01*
Y4565396D02*
Y4579620D01*
Y4595876D02*
Y4610100D01*
Y4626356D02*
Y4640580D01*
Y4656836D02*
Y4671060D01*
Y4766564D02*
Y4941316D01*
Y5089652D02*
Y5264404D01*
Y5355844D02*
Y5546852D01*
Y5685028D02*
Y5857748D01*
Y5941060D02*
Y6113780D01*
X2696464Y4504436D02*
Y4516628D01*
Y4534916D02*
Y4547108D01*
Y4565396D02*
Y4577588D01*
Y4595876D02*
Y4608068D01*
Y4626356D02*
Y4638548D01*
Y4656836D02*
Y4669028D01*
Y4766564D02*
Y4941316D01*
Y5089652D02*
Y5264404D01*
Y5355844D02*
Y5544820D01*
Y5687060D02*
Y5853684D01*
Y5941060D02*
Y6113780D01*
X2698496Y4506468D02*
Y4516628D01*
Y4536948D02*
Y4547108D01*
Y4567428D02*
Y4577588D01*
Y4597908D02*
Y4608068D01*
Y4628388D02*
Y4638548D01*
Y4658868D02*
Y4669028D01*
Y4766564D02*
Y4941316D01*
Y5089652D02*
Y5264404D01*
Y5353812D02*
Y5542788D01*
Y5689092D02*
Y5849620D01*
Y5941060D02*
Y6113780D01*
X2700528Y4504436D02*
Y4516628D01*
Y4534916D02*
Y4547108D01*
Y4565396D02*
Y4577588D01*
Y4595876D02*
Y4608068D01*
Y4626356D02*
Y4638548D01*
Y4656836D02*
Y4669028D01*
Y4766564D02*
Y4941316D01*
Y5089652D02*
Y5264404D01*
Y5353812D02*
Y5540756D01*
Y5693156D02*
Y5845556D01*
Y5941060D02*
Y6113780D01*
X2702560Y4506468D02*
Y4516628D01*
Y4536948D02*
Y4547108D01*
Y4567428D02*
Y4577588D01*
Y4597908D02*
Y4608068D01*
Y4628388D02*
Y4638548D01*
Y4658868D02*
Y4669028D01*
Y4766564D02*
Y4941316D01*
Y5089652D02*
Y5264404D01*
Y5351780D02*
Y5538724D01*
Y5693156D02*
Y5841492D01*
Y5941060D02*
Y6113780D01*
X2704592Y4506468D02*
Y4516628D01*
Y4536948D02*
Y4547108D01*
Y4567428D02*
Y4577588D01*
Y4597908D02*
Y4608068D01*
Y4628388D02*
Y4638548D01*
Y4658868D02*
Y4669028D01*
Y4766564D02*
Y4941316D01*
Y5089652D02*
Y5264404D01*
Y5351780D02*
Y5536692D01*
Y5695188D02*
Y5837428D01*
Y5941060D02*
Y6113780D01*
X2706624Y4506468D02*
Y4516628D01*
Y4536948D02*
Y4547108D01*
Y4567428D02*
Y4577588D01*
Y4597908D02*
Y4608068D01*
Y4628388D02*
Y4638548D01*
Y4658868D02*
Y4669028D01*
Y4766564D02*
Y4941316D01*
Y5089652D02*
Y5264404D01*
Y5349748D02*
Y5534660D01*
Y5697220D02*
Y5833364D01*
Y5941060D02*
Y6113780D01*
X2708656Y4506468D02*
Y4516628D01*
Y4536948D02*
Y4547108D01*
Y4567428D02*
Y4577588D01*
Y4597908D02*
Y4608068D01*
Y4628388D02*
Y4638548D01*
Y4658868D02*
Y4669028D01*
Y4766564D02*
Y4941316D01*
Y5089652D02*
Y5264404D01*
Y5349748D02*
Y5532628D01*
Y5699252D02*
Y5829300D01*
Y5941060D02*
Y6113780D01*
X2710688Y4506468D02*
Y4516628D01*
Y4536948D02*
Y4547108D01*
Y4567428D02*
Y4577588D01*
Y4597908D02*
Y4608068D01*
Y4628388D02*
Y4638548D01*
Y4658868D02*
Y4669028D01*
Y4766564D02*
Y4941316D01*
Y5089652D02*
Y5264404D01*
Y5349748D02*
Y5530596D01*
Y5701284D02*
Y5825236D01*
Y5941060D02*
Y6113780D01*
X2712720Y4506468D02*
Y4516628D01*
Y4536948D02*
Y4547108D01*
Y4567428D02*
Y4577588D01*
Y4597908D02*
Y4608068D01*
Y4628388D02*
Y4638548D01*
Y4658868D02*
Y4669028D01*
Y4766564D02*
Y4941316D01*
Y5089652D02*
Y5264404D01*
Y5347716D02*
Y5530596D01*
Y5703316D02*
Y5821172D01*
Y5941060D02*
Y6113780D01*
X2714752Y4506468D02*
Y4516628D01*
Y4536948D02*
Y4547108D01*
Y4567428D02*
Y4577588D01*
Y4597908D02*
Y4608068D01*
Y4628388D02*
Y4638548D01*
Y4658868D02*
Y4669028D01*
Y4766564D02*
Y4941316D01*
Y5089652D02*
Y5264404D01*
Y5347716D02*
Y5528564D01*
Y5703316D02*
Y5817108D01*
Y5941060D02*
Y6113780D01*
X2716784Y4506468D02*
Y4516628D01*
Y4536948D02*
Y4547108D01*
Y4567428D02*
Y4577588D01*
Y4597908D02*
Y4608068D01*
Y4628388D02*
Y4638548D01*
Y4658868D02*
Y4669028D01*
Y4766564D02*
Y4941316D01*
Y5089652D02*
Y5264404D01*
Y5347716D02*
Y5526532D01*
Y5705348D02*
Y5813044D01*
Y5941060D02*
Y6113780D01*
X2718816Y4506468D02*
Y4516628D01*
Y4536948D02*
Y4547108D01*
Y4567428D02*
Y4577588D01*
Y4597908D02*
Y4608068D01*
Y4628388D02*
Y4638548D01*
Y4658868D02*
Y4669028D01*
Y4766564D02*
Y4941316D01*
Y5089652D02*
Y5264404D01*
Y5345684D02*
Y5526532D01*
Y5707380D02*
Y5808980D01*
Y5941060D02*
Y6113780D01*
X2720848Y4506468D02*
Y4516628D01*
Y4536948D02*
Y4547108D01*
Y4567428D02*
Y4577588D01*
Y4597908D02*
Y4608068D01*
Y4628388D02*
Y4638548D01*
Y4658868D02*
Y4669028D01*
Y4766564D02*
Y4941316D01*
Y5089652D02*
Y5264404D01*
Y5345684D02*
Y5524500D01*
Y5707380D02*
Y5804916D01*
Y5941060D02*
Y6113780D01*
X2722880Y4506468D02*
Y4516628D01*
Y4536948D02*
Y4547108D01*
Y4567428D02*
Y4577588D01*
Y4597908D02*
Y4608068D01*
Y4628388D02*
Y4638548D01*
Y4658868D02*
Y4669028D01*
Y4766564D02*
Y4941316D01*
Y5089652D02*
Y5264404D01*
Y5343652D02*
Y5522468D01*
Y5709412D02*
Y5800852D01*
Y5941060D02*
Y6113780D01*
X2724912Y4506468D02*
Y4516628D01*
Y4536948D02*
Y4547108D01*
Y4567428D02*
Y4577588D01*
Y4597908D02*
Y4608068D01*
Y4628388D02*
Y4638548D01*
Y4658868D02*
Y4669028D01*
Y4766564D02*
Y4941316D01*
Y5089652D02*
Y5264404D01*
Y5343652D02*
Y5522468D01*
Y5711444D02*
Y5796788D01*
Y5941060D02*
Y6113780D01*
X2726944Y4506468D02*
Y4516628D01*
Y4536948D02*
Y4547108D01*
Y4567428D02*
Y4577588D01*
Y4597908D02*
Y4608068D01*
Y4628388D02*
Y4638548D01*
Y4658868D02*
Y4669028D01*
Y4766564D02*
Y4941316D01*
Y5089652D02*
Y5264404D01*
Y5343652D02*
Y5520436D01*
Y5711444D02*
Y5792724D01*
Y5941060D02*
Y6113780D01*
X2728976Y4506468D02*
Y4516628D01*
Y4536948D02*
Y4547108D01*
Y4567428D02*
Y4577588D01*
Y4597908D02*
Y4608068D01*
Y4628388D02*
Y4638548D01*
Y4658868D02*
Y4669028D01*
Y4766564D02*
Y4941316D01*
Y5089652D02*
Y5264404D01*
Y5341620D02*
Y5520436D01*
Y5713476D02*
Y5788660D01*
Y5941060D02*
Y6113780D01*
X2731008Y4506468D02*
Y4516628D01*
Y4536948D02*
Y4547108D01*
Y4567428D02*
Y4577588D01*
Y4597908D02*
Y4608068D01*
Y4628388D02*
Y4638548D01*
Y4658868D02*
Y4669028D01*
Y4766564D02*
Y4941316D01*
Y5089652D02*
Y5264404D01*
Y5341620D02*
Y5518404D01*
Y5713476D02*
Y5784596D01*
Y5941060D02*
Y6113780D01*
X2733040Y4506468D02*
Y4516628D01*
Y4536948D02*
Y4547108D01*
Y4567428D02*
Y4577588D01*
Y4597908D02*
Y4608068D01*
Y4628388D02*
Y4638548D01*
Y4658868D02*
Y4669028D01*
Y4766564D02*
Y4941316D01*
Y5089652D02*
Y5264404D01*
Y5341620D02*
Y5518404D01*
Y5715508D02*
Y5780532D01*
Y5941060D02*
Y6113780D01*
X2735072Y4506468D02*
Y4516628D01*
Y4536948D02*
Y4547108D01*
Y4567428D02*
Y4577588D01*
Y4597908D02*
Y4608068D01*
Y4628388D02*
Y4638548D01*
Y4658868D02*
Y4669028D01*
Y4766564D02*
Y4941316D01*
Y5089652D02*
Y5264404D01*
Y5339588D02*
Y5516372D01*
Y5717540D02*
Y5776468D01*
Y5941060D02*
Y6113780D01*
X2737104Y4506468D02*
Y4516628D01*
Y4536948D02*
Y4547108D01*
Y4567428D02*
Y4577588D01*
Y4597908D02*
Y4608068D01*
Y4628388D02*
Y4638548D01*
Y4658868D02*
Y4669028D01*
Y4766564D02*
Y4941316D01*
Y5089652D02*
Y5264404D01*
Y5339588D02*
Y5516372D01*
Y5717540D02*
Y5772404D01*
Y5941060D02*
Y6113780D01*
X2739136Y4506468D02*
Y4516628D01*
Y4536948D02*
Y4547108D01*
Y4567428D02*
Y4577588D01*
Y4597908D02*
Y4608068D01*
Y4628388D02*
Y4638548D01*
Y4658868D02*
Y4669028D01*
Y4766564D02*
Y4941316D01*
Y5089652D02*
Y5264404D01*
Y5339588D02*
Y5514340D01*
Y5719572D02*
Y5768340D01*
Y5941060D02*
Y6113780D01*
X2741168Y4506468D02*
Y4516628D01*
Y4536948D02*
Y4547108D01*
Y4567428D02*
Y4577588D01*
Y4597908D02*
Y4608068D01*
Y4628388D02*
Y4638548D01*
Y4658868D02*
Y4669028D01*
Y4766564D02*
Y4941316D01*
Y5089652D02*
Y5264404D01*
Y5339588D02*
Y5514340D01*
Y5719572D02*
Y5764276D01*
Y5941060D02*
Y6113780D01*
X2743200Y4506468D02*
Y4516628D01*
Y4536948D02*
Y4547108D01*
Y4567428D02*
Y4577588D01*
Y4597908D02*
Y4608068D01*
Y4628388D02*
Y4638548D01*
Y4658868D02*
Y4669028D01*
Y4766564D02*
Y4941316D01*
Y5089652D02*
Y5264404D01*
Y5337556D02*
Y5514340D01*
Y5721604D02*
Y5760212D01*
Y5941060D02*
Y6113780D01*
X2745232Y4506468D02*
Y4516628D01*
Y4536948D02*
Y4547108D01*
Y4567428D02*
Y4577588D01*
Y4597908D02*
Y4608068D01*
Y4628388D02*
Y4638548D01*
Y4658868D02*
Y4669028D01*
Y4766564D02*
Y4941316D01*
Y5089652D02*
Y5264404D01*
Y5337556D02*
Y5512308D01*
Y5721604D02*
Y5756148D01*
Y5941060D02*
Y6113780D01*
X2747264Y4506468D02*
Y4516628D01*
Y4536948D02*
Y4547108D01*
Y4567428D02*
Y4577588D01*
Y4597908D02*
Y4608068D01*
Y4628388D02*
Y4638548D01*
Y4658868D02*
Y4669028D01*
Y4766564D02*
Y4941316D01*
Y5089652D02*
Y5264404D01*
Y5337556D02*
Y5512308D01*
Y5723636D02*
Y5752084D01*
Y5941060D02*
Y6113780D01*
X2749296Y4506468D02*
Y4516628D01*
Y4536948D02*
Y4547108D01*
Y4567428D02*
Y4577588D01*
Y4597908D02*
Y4608068D01*
Y4628388D02*
Y4638548D01*
Y4658868D02*
Y4669028D01*
Y4766564D02*
Y4941316D01*
Y5089652D02*
Y5264404D01*
Y5335524D02*
Y5510276D01*
Y5723636D02*
Y5748020D01*
Y5941060D02*
Y6113780D01*
X2751328Y4506468D02*
Y4516628D01*
Y4536948D02*
Y4547108D01*
Y4567428D02*
Y4577588D01*
Y4597908D02*
Y4608068D01*
Y4628388D02*
Y4638548D01*
Y4658868D02*
Y4669028D01*
Y4766564D02*
Y4941316D01*
Y5089652D02*
Y5264404D01*
Y5335524D02*
Y5510276D01*
Y5723636D02*
Y5743956D01*
Y5941060D02*
Y6113780D01*
X2753360Y4506468D02*
Y4516628D01*
Y4536948D02*
Y4547108D01*
Y4567428D02*
Y4577588D01*
Y4597908D02*
Y4608068D01*
Y4628388D02*
Y4638548D01*
Y4658868D02*
Y4669028D01*
Y4766564D02*
Y4941316D01*
Y5089652D02*
Y5264404D01*
Y5335524D02*
Y5510276D01*
Y5725668D02*
Y5739892D01*
Y5941060D02*
Y6113780D01*
X2755392Y4504436D02*
Y4516628D01*
Y4534916D02*
Y4547108D01*
Y4565396D02*
Y4577588D01*
Y4595876D02*
Y4608068D01*
Y4626356D02*
Y4638548D01*
Y4656836D02*
Y4669028D01*
Y4766564D02*
Y4941316D01*
Y5089652D02*
Y5264404D01*
Y5335524D02*
Y5510276D01*
Y5725668D02*
Y5735828D01*
Y5941060D02*
Y6113780D01*
X2757424Y4504436D02*
Y4518660D01*
Y4534916D02*
Y4549140D01*
Y4565396D02*
Y4579620D01*
Y4595876D02*
Y4610100D01*
Y4626356D02*
Y4640580D01*
Y4656836D02*
Y4671060D01*
Y4766564D02*
Y4941316D01*
Y5089652D02*
Y5264404D01*
Y5335524D02*
Y5508244D01*
Y5727700D02*
Y5731764D01*
Y5941060D02*
Y6113780D01*
X2759456Y4504436D02*
Y4671060D01*
Y4766564D02*
Y4941316D01*
Y5089652D02*
Y5264404D01*
Y5333492D02*
Y5508244D01*
Y5941060D02*
Y6113780D01*
X2761488Y4504436D02*
Y4671060D01*
Y4766564D02*
Y4941316D01*
Y5089652D02*
Y5264404D01*
Y5333492D02*
Y5508244D01*
Y5941060D02*
Y6113780D01*
X2763520Y4502404D02*
Y4671060D01*
Y4766564D02*
Y4941316D01*
Y5089652D02*
Y5264404D01*
Y5333492D02*
Y5508244D01*
Y5941060D02*
Y6113780D01*
X2765552Y4496308D02*
Y4677156D01*
Y4766564D02*
Y4941316D01*
Y5089652D02*
Y5264404D01*
Y5333492D02*
Y5506212D01*
Y5941060D02*
Y6113780D01*
X2767584Y4496308D02*
Y4677156D01*
Y4766564D02*
Y4941316D01*
Y5089652D02*
Y5264404D01*
Y5331460D02*
Y5506212D01*
Y5941060D02*
Y6113780D01*
X2769616Y4496308D02*
Y4677156D01*
Y4766564D02*
Y4941316D01*
Y5089652D02*
Y5264404D01*
Y5331460D02*
Y5506212D01*
Y5941060D02*
Y6113780D01*
X2771648Y4496308D02*
Y4677156D01*
Y4766564D02*
Y4941316D01*
Y5089652D02*
Y5264404D01*
Y5331460D02*
Y5506212D01*
Y5941060D02*
Y6113780D01*
X2773680Y4496308D02*
Y4677156D01*
Y4766564D02*
Y4941316D01*
Y5089652D02*
Y5264404D01*
Y5331460D02*
Y5504180D01*
Y5941060D02*
Y6113780D01*
X2775712Y4496308D02*
Y4677156D01*
Y4766564D02*
Y4941316D01*
Y5089652D02*
Y5264404D01*
Y5331460D02*
Y5504180D01*
Y5941060D02*
Y6113780D01*
X2777744Y4488180D02*
Y4685284D01*
Y4766564D02*
Y4941316D01*
Y5089652D02*
Y5264404D01*
Y5331460D02*
Y5504180D01*
Y5941060D02*
Y6113780D01*
X2779776Y4488180D02*
Y4685284D01*
Y4766564D02*
Y4941316D01*
Y5089652D02*
Y5264404D01*
Y5329428D02*
Y5504180D01*
Y5941060D02*
Y6113780D01*
X2781808Y4488180D02*
Y4685284D01*
Y4766564D02*
Y4941316D01*
Y5089652D02*
Y5264404D01*
Y5329428D02*
Y5504180D01*
Y5941060D02*
Y6113780D01*
X2783840Y4488180D02*
Y4685284D01*
Y4766564D02*
Y4941316D01*
Y5089652D02*
Y5264404D01*
Y5329428D02*
Y5504180D01*
Y5941060D02*
Y6113780D01*
X2785872Y4488180D02*
Y4685284D01*
Y4766564D02*
Y4941316D01*
Y5089652D02*
Y5264404D01*
Y5329428D02*
Y5504180D01*
Y5941060D02*
Y6113780D01*
X2787904Y4490212D02*
Y4685284D01*
Y4766564D02*
Y4941316D01*
Y5089652D02*
Y5264404D01*
Y5329428D02*
Y5502148D01*
Y5941060D02*
Y6113780D01*
X2789936Y4766564D02*
Y4941316D01*
Y5089652D02*
Y5264404D01*
Y5329428D02*
Y5502148D01*
Y5941060D02*
Y6113780D01*
X2791968Y4766564D02*
Y4941316D01*
Y5089652D02*
Y5264404D01*
Y5329428D02*
Y5502148D01*
Y5941060D02*
Y6113780D01*
X2794000Y4766564D02*
Y4941316D01*
Y5089652D02*
Y5264404D01*
Y5327396D02*
Y5502148D01*
Y5941060D02*
Y6113780D01*
X2796032Y4766564D02*
Y4941316D01*
Y5089652D02*
Y5264404D01*
Y5327396D02*
Y5502148D01*
Y5941060D02*
Y6113780D01*
X2798064Y4766564D02*
Y4941316D01*
Y5089652D02*
Y5264404D01*
Y5327396D02*
Y5502148D01*
Y5941060D02*
Y6113780D01*
X2800096Y4766564D02*
Y4941316D01*
Y5089652D02*
Y5264404D01*
Y5327396D02*
Y5502148D01*
Y5941060D02*
Y6113780D01*
X2802128Y4766564D02*
Y4941316D01*
Y5089652D02*
Y5264404D01*
Y5327396D02*
Y5502148D01*
Y5941060D02*
Y6113780D01*
X2804160Y4766564D02*
Y4941316D01*
Y5089652D02*
Y5264404D01*
Y5327396D02*
Y5502148D01*
Y5941060D02*
Y6113780D01*
X2806192Y4766564D02*
Y4941316D01*
Y5089652D02*
Y5264404D01*
Y5327396D02*
Y5502148D01*
Y5941060D02*
Y6113780D01*
X2808224Y4766564D02*
Y4941316D01*
Y5089652D02*
Y5264404D01*
Y5327396D02*
Y5502148D01*
Y5941060D02*
Y6113780D01*
X2810256Y4766564D02*
Y4941316D01*
Y5089652D02*
Y5264404D01*
Y5327396D02*
Y5502148D01*
Y5941060D02*
Y6113780D01*
X2812288Y4766564D02*
Y4941316D01*
Y5089652D02*
Y5264404D01*
Y5327396D02*
Y5502148D01*
Y5941060D02*
Y6113780D01*
X2814320Y4766564D02*
Y4941316D01*
Y5089652D02*
Y5264404D01*
Y5327396D02*
Y5502148D01*
Y5941060D02*
Y6113780D01*
X2816352Y4766564D02*
Y4941316D01*
Y5089652D02*
Y5264404D01*
Y5327396D02*
Y5502148D01*
Y5941060D02*
Y6113780D01*
X2818384Y4766564D02*
Y4941316D01*
Y5089652D02*
Y5264404D01*
Y5327396D02*
Y5502148D01*
Y5941060D02*
Y6113780D01*
X2820416Y4766564D02*
Y4941316D01*
Y5089652D02*
Y5264404D01*
Y5327396D02*
Y5502148D01*
Y5941060D02*
Y6113780D01*
X2822448Y4766564D02*
Y4941316D01*
Y5089652D02*
Y5264404D01*
Y5327396D02*
Y5502148D01*
Y5941060D02*
Y6113780D01*
X2824480Y4766564D02*
Y4941316D01*
Y5089652D02*
Y5264404D01*
Y5327396D02*
Y5502148D01*
Y5941060D02*
Y6113780D01*
X2826512Y4766564D02*
Y4941316D01*
Y5089652D02*
Y5264404D01*
Y5325364D02*
Y5502148D01*
Y5941060D02*
Y6113780D01*
X2828544Y4766564D02*
Y4941316D01*
Y5089652D02*
Y5264404D01*
Y5325364D02*
Y5502148D01*
Y5941060D02*
Y6113780D01*
X2830576Y4766564D02*
Y4941316D01*
Y5089652D02*
Y5264404D01*
Y5325364D02*
Y5502148D01*
Y5941060D02*
Y6113780D01*
X2832608Y4766564D02*
Y4941316D01*
Y5089652D02*
Y5264404D01*
Y5325364D02*
Y5502148D01*
Y5941060D02*
Y6113780D01*
X2834640Y4766564D02*
Y4941316D01*
Y5089652D02*
Y5264404D01*
Y5327396D02*
Y5502148D01*
Y5941060D02*
Y6113780D01*
X2836672Y4766564D02*
Y4941316D01*
Y5089652D02*
Y5264404D01*
Y5327396D02*
Y5502148D01*
Y5941060D02*
Y6113780D01*
X2838704Y4766564D02*
Y4941316D01*
Y5089652D02*
Y5264404D01*
Y5327396D02*
Y5502148D01*
Y5941060D02*
Y6113780D01*
X2840736Y4766564D02*
Y4941316D01*
Y5089652D02*
Y5264404D01*
Y5327396D02*
Y5502148D01*
Y5941060D02*
Y6113780D01*
X2842768Y4766564D02*
Y4941316D01*
Y5089652D02*
Y5264404D01*
Y5327396D02*
Y5502148D01*
Y5941060D02*
Y6113780D01*
X2844800Y4766564D02*
Y4941316D01*
Y5089652D02*
Y5264404D01*
Y5327396D02*
Y5502148D01*
Y5941060D02*
Y6113780D01*
X2846832Y4766564D02*
Y4941316D01*
Y5089652D02*
Y5264404D01*
Y5327396D02*
Y5502148D01*
Y5941060D02*
Y6113780D01*
X2848864Y4766564D02*
Y4941316D01*
Y5089652D02*
Y5264404D01*
Y5327396D02*
Y5502148D01*
Y5941060D02*
Y6113780D01*
X2850896Y4766564D02*
Y4941316D01*
Y5089652D02*
Y5264404D01*
Y5327396D02*
Y5502148D01*
Y5941060D02*
Y6113780D01*
X2852928Y4766564D02*
Y4941316D01*
Y5089652D02*
Y5264404D01*
Y5327396D02*
Y5504180D01*
Y5941060D02*
Y6113780D01*
X2854960Y4766564D02*
Y4941316D01*
Y5089652D02*
Y5264404D01*
Y5327396D02*
Y5504180D01*
Y5941060D02*
Y6113780D01*
X2856992Y4766564D02*
Y4941316D01*
Y5089652D02*
Y5264404D01*
Y5327396D02*
Y5504180D01*
Y5941060D02*
Y6113780D01*
X2859024Y4766564D02*
Y4941316D01*
Y5089652D02*
Y5264404D01*
Y5327396D02*
Y5504180D01*
Y5941060D02*
Y6113780D01*
X2861056Y4766564D02*
Y4941316D01*
Y5089652D02*
Y5264404D01*
Y5327396D02*
Y5504180D01*
Y5941060D02*
Y6113780D01*
X2863088Y4766564D02*
Y4941316D01*
Y5089652D02*
Y5264404D01*
Y5327396D02*
Y5504180D01*
Y5941060D02*
Y6113780D01*
X2865120Y4766564D02*
Y4941316D01*
Y5089652D02*
Y5264404D01*
Y5327396D02*
Y5504180D01*
Y5941060D02*
Y6113780D01*
X2867152Y4766564D02*
Y4941316D01*
Y5089652D02*
Y5264404D01*
Y5329428D02*
Y5506212D01*
Y5941060D02*
Y6113780D01*
X2869184Y4766564D02*
Y4941316D01*
Y5089652D02*
Y5264404D01*
Y5329428D02*
Y5506212D01*
Y5941060D02*
Y6113780D01*
X2871216Y4766564D02*
Y4941316D01*
Y5089652D02*
Y5264404D01*
Y5329428D02*
Y5506212D01*
Y5941060D02*
Y6113780D01*
X2873248Y4766564D02*
Y4941316D01*
Y5089652D02*
Y5264404D01*
Y5329428D02*
Y5506212D01*
Y5941060D02*
Y6113780D01*
X2875280Y4766564D02*
Y4941316D01*
Y5089652D02*
Y5264404D01*
Y5329428D02*
Y5506212D01*
Y5941060D02*
Y6113780D01*
X2877312Y4766564D02*
Y4941316D01*
Y5089652D02*
Y5264404D01*
Y5329428D02*
Y5508244D01*
Y5941060D02*
Y6113780D01*
X2879344Y4766564D02*
Y4941316D01*
Y5089652D02*
Y5264404D01*
Y5329428D02*
Y5508244D01*
Y5941060D02*
Y6113780D01*
X2881376Y4766564D02*
Y4941316D01*
Y5089652D02*
Y5264404D01*
Y5329428D02*
Y5508244D01*
Y5941060D02*
Y6113780D01*
X2883408Y4766564D02*
Y4941316D01*
Y5089652D02*
Y5264404D01*
Y5331460D02*
Y5508244D01*
Y5941060D02*
Y6113780D01*
X2885440Y4766564D02*
Y4941316D01*
Y5089652D02*
Y5264404D01*
Y5331460D02*
Y5510276D01*
Y5941060D02*
Y6113780D01*
X2887472Y4768596D02*
Y4941316D01*
Y5089652D02*
Y5262372D01*
Y5331460D02*
Y5510276D01*
Y5941060D02*
Y6113780D01*
X2889504Y4768596D02*
Y4941316D01*
Y5089652D02*
Y5262372D01*
Y5331460D02*
Y5510276D01*
Y5725668D02*
Y5731764D01*
Y5941060D02*
Y6113780D01*
X2891536Y4768596D02*
Y4941316D01*
Y5089652D02*
Y5262372D01*
Y5331460D02*
Y5510276D01*
Y5725668D02*
Y5733796D01*
Y5941060D02*
Y6113780D01*
X2893568Y4768596D02*
Y4941316D01*
Y5089652D02*
Y5262372D01*
Y5333492D02*
Y5512308D01*
Y5723636D02*
Y5739892D01*
Y5941060D02*
Y6113780D01*
X2895600Y4768596D02*
Y4941316D01*
Y5089652D02*
Y5262372D01*
Y5333492D02*
Y5512308D01*
Y5723636D02*
Y5743956D01*
Y5941060D02*
Y6113780D01*
X2897632Y4768596D02*
Y4941316D01*
Y5089652D02*
Y5262372D01*
Y5333492D02*
Y5512308D01*
Y5723636D02*
Y5748020D01*
Y5941060D02*
Y6113780D01*
X2899664Y4768596D02*
Y4941316D01*
Y5089652D02*
Y5262372D01*
Y5333492D02*
Y5514340D01*
Y5721604D02*
Y5752084D01*
Y5941060D02*
Y6113780D01*
X2901696Y4768596D02*
Y4941316D01*
Y5089652D02*
Y5262372D01*
Y5333492D02*
Y5514340D01*
Y5721604D02*
Y5756148D01*
Y5941060D02*
Y6113780D01*
X2903728Y4768596D02*
Y4941316D01*
Y5089652D02*
Y5262372D01*
Y5335524D02*
Y5514340D01*
Y5719572D02*
Y5760212D01*
Y5941060D02*
Y6113780D01*
X2905760Y4768596D02*
Y4941316D01*
Y5089652D02*
Y5262372D01*
Y5335524D02*
Y5516372D01*
Y5719572D02*
Y5764276D01*
Y5941060D02*
Y6113780D01*
X2907792Y4768596D02*
Y4941316D01*
Y5089652D02*
Y5262372D01*
Y5335524D02*
Y5516372D01*
Y5717540D02*
Y5768340D01*
Y5941060D02*
Y6113780D01*
X2909824Y4768596D02*
Y4941316D01*
Y5089652D02*
Y5262372D01*
Y5335524D02*
Y5518404D01*
Y5717540D02*
Y5772404D01*
Y5941060D02*
Y6113780D01*
X2911856Y4768596D02*
Y4941316D01*
Y5089652D02*
Y5262372D01*
Y5337556D02*
Y5518404D01*
Y5715508D02*
Y5776468D01*
Y5941060D02*
Y6113780D01*
X2913888Y4768596D02*
Y4941316D01*
Y5089652D02*
Y5260340D01*
Y5337556D02*
Y5518404D01*
Y5715508D02*
Y5780532D01*
Y5941060D02*
Y6113780D01*
X2915920Y4768596D02*
Y4941316D01*
Y5089652D02*
Y5260340D01*
Y5337556D02*
Y5520436D01*
Y5713476D02*
Y5784596D01*
Y5941060D02*
Y6113780D01*
X2917952Y4768596D02*
Y4941316D01*
Y5089652D02*
Y5260340D01*
Y5337556D02*
Y5520436D01*
Y5713476D02*
Y5788660D01*
Y5941060D02*
Y6113780D01*
X2919984Y4768596D02*
Y4941316D01*
Y5089652D02*
Y5260340D01*
Y5339588D02*
Y5522468D01*
Y5711444D02*
Y5794756D01*
Y5941060D02*
Y6113780D01*
X2922016Y4768596D02*
Y4941316D01*
Y5089652D02*
Y5260340D01*
Y5339588D02*
Y5522468D01*
Y5711444D02*
Y5798820D01*
Y5941060D02*
Y6113780D01*
X2924048Y4768596D02*
Y4941316D01*
Y5087620D02*
Y5260340D01*
Y5339588D02*
Y5524500D01*
Y5709412D02*
Y5802884D01*
Y5941060D02*
Y6113780D01*
X2926080Y4770628D02*
Y4943348D01*
Y5087620D02*
Y5260340D01*
Y5341620D02*
Y5526532D01*
Y5707380D02*
Y5806948D01*
Y5941060D02*
Y6113780D01*
X2928112Y4770628D02*
Y4943348D01*
Y5087620D02*
Y5260340D01*
Y5341620D02*
Y5526532D01*
Y5707380D02*
Y5811012D01*
Y5941060D02*
Y6113780D01*
X2930144Y4770628D02*
Y4943348D01*
Y5087620D02*
Y5258308D01*
Y5341620D02*
Y5528564D01*
Y5705348D02*
Y5815076D01*
Y5941060D02*
Y6113780D01*
X2932176Y4770628D02*
Y4943348D01*
Y5085588D02*
Y5258308D01*
Y5343652D02*
Y5528564D01*
Y5703316D02*
Y5819140D01*
Y5941060D02*
Y6113780D01*
X2934208Y4770628D02*
Y4945380D01*
Y5085588D02*
Y5258308D01*
Y5343652D02*
Y5530596D01*
Y5703316D02*
Y5823204D01*
Y5941060D02*
Y6113780D01*
X2936240Y4770628D02*
Y4945380D01*
Y5085588D02*
Y5258308D01*
Y5343652D02*
Y5532628D01*
Y5701284D02*
Y5827268D01*
Y5941060D02*
Y6113780D01*
X2938272Y4770628D02*
Y4945380D01*
Y5083556D02*
Y5258308D01*
Y5345684D02*
Y5534660D01*
Y5699252D02*
Y5831332D01*
Y5941060D02*
Y6113780D01*
X2940304Y4770628D02*
Y4947412D01*
Y5083556D02*
Y5258308D01*
Y5345684D02*
Y5534660D01*
Y5697220D02*
Y5835396D01*
Y5941060D02*
Y6113780D01*
X2942336Y4770628D02*
Y4947412D01*
Y5083556D02*
Y5256276D01*
Y5345684D02*
Y5536692D01*
Y5695188D02*
Y5839460D01*
Y5941060D02*
Y6113780D01*
X2944368Y4772660D02*
Y4949444D01*
Y5081524D02*
Y5256276D01*
Y5347716D02*
Y5538724D01*
Y5693156D02*
Y5843524D01*
Y5941060D02*
Y6113780D01*
X2946400Y4772660D02*
Y4949444D01*
Y5081524D02*
Y5256276D01*
Y5347716D02*
Y5540756D01*
Y5693156D02*
Y5849620D01*
Y5941060D02*
Y6113780D01*
X2948432Y4772660D02*
Y4951476D01*
Y5079492D02*
Y5256276D01*
Y5349748D02*
Y5542788D01*
Y5689092D02*
Y5853684D01*
Y5941060D02*
Y6113780D01*
X2950464Y4772660D02*
Y4953508D01*
Y5077460D02*
Y5254244D01*
Y5349748D02*
Y5544820D01*
Y5687060D02*
Y5857748D01*
Y5941060D02*
Y6113780D01*
X2952496Y4772660D02*
Y4953508D01*
Y5077460D02*
Y5254244D01*
Y5349748D02*
Y5546852D01*
Y5685028D02*
Y5861812D01*
Y5941060D02*
Y6113780D01*
X2954528Y4772660D02*
Y4955540D01*
Y5075428D02*
Y5254244D01*
Y5351780D02*
Y5548884D01*
Y5682996D02*
Y5865876D01*
Y5941060D02*
Y6113780D01*
X2956560Y4774692D02*
Y4957572D01*
Y5073396D02*
Y5254244D01*
Y5351780D02*
Y5552948D01*
Y5680964D02*
Y5869940D01*
Y5941060D02*
Y6337300D01*
X2958592Y4774692D02*
Y4959604D01*
Y5071364D02*
Y5252212D01*
Y5353812D02*
Y5554980D01*
Y5676900D02*
Y5871972D01*
Y5941060D02*
Y6337300D01*
X2960624Y4774692D02*
Y4961636D01*
Y5069332D02*
Y5252212D01*
Y5353812D02*
Y5559044D01*
Y5674868D02*
Y5871972D01*
Y5941060D02*
Y6337300D01*
X2962656Y4774692D02*
Y4963668D01*
Y5067300D02*
Y5252212D01*
Y5355844D02*
Y5561076D01*
Y5670804D02*
Y5869940D01*
Y5941060D02*
Y6337300D01*
X2964688Y4776724D02*
Y4965700D01*
Y5065268D02*
Y5250180D01*
Y5355844D02*
Y5565140D01*
Y5666740D02*
Y5869940D01*
Y5941060D02*
Y6337300D01*
X2966720Y4776724D02*
Y4967732D01*
Y5061204D02*
Y5250180D01*
Y5357876D02*
Y5569204D01*
Y5662676D02*
Y5867908D01*
Y5941060D02*
Y6337300D01*
X2968752Y4776724D02*
Y4971796D01*
Y5057140D02*
Y5250180D01*
Y5357876D02*
Y5573268D01*
Y5658612D02*
Y5867908D01*
Y5941060D02*
Y6337300D01*
X2970784Y4776724D02*
Y4975860D01*
Y5055108D02*
Y5250180D01*
Y5359908D02*
Y5579364D01*
Y5652516D02*
Y5865876D01*
Y5941060D02*
Y6337300D01*
X2972816Y4778756D02*
Y4979924D01*
Y5049012D02*
Y5248148D01*
Y5359908D02*
Y5585460D01*
Y5646420D02*
Y5865876D01*
Y5941060D02*
Y6337300D01*
X2974848Y4778756D02*
Y4983988D01*
Y5044948D02*
Y5248148D01*
Y5361940D02*
Y5595620D01*
Y5636260D02*
Y5863844D01*
Y5941060D02*
Y6337300D01*
X2976880Y4778756D02*
Y4992116D01*
Y5036820D02*
Y5246116D01*
Y5361940D02*
Y5863844D01*
Y5941060D02*
Y6337300D01*
X2978912Y4780788D02*
Y5004308D01*
Y5024628D02*
Y5246116D01*
Y5363972D02*
Y5861812D01*
Y5941060D02*
Y6337300D01*
X2980944Y4780788D02*
Y5246116D01*
Y5363972D02*
Y5859780D01*
Y5941060D02*
Y6337300D01*
X2982976Y4780788D02*
Y5244084D01*
Y5366004D02*
Y5859780D01*
Y5941060D02*
Y6337300D01*
X2985008Y4782820D02*
Y5244084D01*
Y5366004D02*
Y5857748D01*
Y5941060D02*
Y6337300D01*
X2987040Y4782820D02*
Y5242052D01*
Y5368036D02*
Y5857748D01*
Y5941060D02*
Y6337300D01*
X2989072Y4782820D02*
Y5242052D01*
Y5370068D02*
Y5855716D01*
Y5941060D02*
Y6337300D01*
X2991104Y4784852D02*
Y5240020D01*
Y5370068D02*
Y5853684D01*
Y5941060D02*
Y6337300D01*
X2993136Y4784852D02*
Y5240020D01*
Y5372100D02*
Y5853684D01*
Y5941060D02*
Y6337300D01*
X2995168Y4786884D02*
Y5237988D01*
Y5372100D02*
Y5851652D01*
Y5941060D02*
Y6337300D01*
X2997200Y4786884D02*
Y5237988D01*
Y5374132D02*
Y5849620D01*
Y5941060D02*
Y6337300D01*
X2999232Y4788916D02*
Y5237988D01*
Y5376164D02*
Y5849620D01*
Y5941060D02*
Y6337300D01*
X3001264Y4788916D02*
Y5235956D01*
Y5376164D02*
Y5847588D01*
Y5941060D02*
Y6337300D01*
X3003296Y4790948D02*
Y5233924D01*
Y5378196D02*
Y5845556D01*
Y5941060D02*
Y6337300D01*
X3005328Y4790948D02*
Y5233924D01*
Y5380228D02*
Y5845556D01*
Y5941060D02*
Y6337300D01*
X3007360Y4792980D02*
Y5231892D01*
Y5382260D02*
Y5843524D01*
Y5941060D02*
Y6337300D01*
X3009392Y4792980D02*
Y5231892D01*
Y5382260D02*
Y5841492D01*
Y5941060D02*
Y6337300D01*
X3011424Y4795012D02*
Y5229860D01*
Y5384292D02*
Y5839460D01*
Y5941060D02*
Y6337300D01*
X3013456Y4795012D02*
Y5227828D01*
Y5386324D02*
Y5839460D01*
Y5941060D02*
Y6337300D01*
X3015488Y4797044D02*
Y5227828D01*
Y5388356D02*
Y5837428D01*
Y5941060D02*
Y6337300D01*
X3017520Y4799076D02*
Y5225796D01*
Y5388356D02*
Y5835396D01*
Y5941060D02*
Y6337300D01*
X3019552Y4799076D02*
Y5223764D01*
Y5390388D02*
Y5833364D01*
Y5941060D02*
Y6337300D01*
X3021584Y4801108D02*
Y5223764D01*
Y5392420D02*
Y5831332D01*
Y5941060D02*
Y6337300D01*
X3023616Y4803140D02*
Y5221732D01*
Y5394452D02*
Y5831332D01*
Y5941060D02*
Y6337300D01*
X3025648Y4803140D02*
Y5219700D01*
Y5396484D02*
Y5829300D01*
Y5941060D02*
Y6337300D01*
X3027680Y4805172D02*
Y5217668D01*
Y5398516D02*
Y5827268D01*
Y5941060D02*
Y6337300D01*
X3029712Y4807204D02*
Y5217668D01*
Y5398516D02*
Y5825236D01*
Y5941060D02*
Y6337300D01*
X3031744Y4809236D02*
Y5215636D01*
Y5400548D02*
Y5823204D01*
Y5941060D02*
Y6337300D01*
X3033776Y4811268D02*
Y5213604D01*
Y5402580D02*
Y5821172D01*
Y5941060D02*
Y6337300D01*
X3035808Y4813300D02*
Y5211572D01*
Y5404612D02*
Y5819140D01*
Y5941060D02*
Y6337300D01*
X3037840Y4813300D02*
Y5209540D01*
Y5406644D02*
Y5817108D01*
Y5941060D02*
Y6337300D01*
X3039872Y4815332D02*
Y5207508D01*
Y5408676D02*
Y5815076D01*
Y5941060D02*
Y6337300D01*
X3041904Y4817364D02*
Y5205476D01*
Y5410708D02*
Y5813044D01*
Y5941060D02*
Y6337300D01*
X3043936Y4819396D02*
Y5203444D01*
Y5412740D02*
Y5808980D01*
Y5941060D02*
Y6337300D01*
X3045968Y4821428D02*
Y5201412D01*
Y5414772D02*
Y5806948D01*
Y5941060D02*
Y6337300D01*
X3048000Y4823460D02*
Y5199380D01*
Y5416804D02*
Y5804916D01*
Y5941060D02*
Y6337300D01*
X3050032Y4825492D02*
Y5197348D01*
Y5420868D02*
Y5802884D01*
Y5941060D02*
Y6337300D01*
X3052064Y4827524D02*
Y5195316D01*
Y5422900D02*
Y5800852D01*
Y5941060D02*
Y6337300D01*
X3054096Y4831588D02*
Y5193284D01*
Y5424932D02*
Y5796788D01*
Y5941060D02*
Y6337300D01*
X3056128Y4833620D02*
Y5191252D01*
Y5426964D02*
Y5794756D01*
Y5941060D02*
Y6337300D01*
X3058160Y4835652D02*
Y5187188D01*
Y5431028D02*
Y5792724D01*
Y5941060D02*
Y6337300D01*
X3060192Y4837684D02*
Y5185156D01*
Y5433060D02*
Y5788660D01*
Y5941060D02*
Y6337300D01*
X3062224Y4841748D02*
Y5183124D01*
Y5435092D02*
Y5786628D01*
Y5941060D02*
Y6337300D01*
D133*
X5608320Y7861300D02*
Y7962867D01*
X5659103D01*
X5676031Y7945939D01*
Y7912083D01*
X5659103Y7895156D01*
X5608320D01*
X5709887Y7929011D02*
Y7861300D01*
Y7895156D01*
X5726815Y7912083D01*
X5743743Y7929011D01*
X5760671D01*
X5828382Y7861300D02*
X5862238D01*
X5879166Y7878228D01*
Y7912083D01*
X5862238Y7929011D01*
X5828382D01*
X5811454Y7912083D01*
Y7878228D01*
X5828382Y7861300D01*
X5946877Y7827444D02*
X5963805D01*
X5980733Y7844372D01*
Y7929011D01*
X5929950D01*
X5913022Y7912083D01*
Y7878228D01*
X5929950Y7861300D01*
X5980733D01*
X6014589Y7929011D02*
Y7861300D01*
Y7895156D01*
X6031517Y7912083D01*
X6048445Y7929011D01*
X6065372D01*
X6133084D02*
X6166940D01*
X6183867Y7912083D01*
Y7861300D01*
X6133084D01*
X6116156Y7878228D01*
X6133084Y7895156D01*
X6183867D01*
X6217723Y7861300D02*
Y7929011D01*
X6234651D01*
X6251579Y7912083D01*
Y7861300D01*
Y7912083D01*
X6268507Y7929011D01*
X6285435Y7912083D01*
Y7861300D01*
X3053080Y9489440D02*
Y9591007D01*
X3103863D01*
X3120791Y9574079D01*
Y9540223D01*
X3103863Y9523296D01*
X3053080D01*
X3086936D02*
X3120791Y9489440D01*
X3205431D02*
X3171575D01*
X3154647Y9506368D01*
Y9540223D01*
X3171575Y9557151D01*
X3205431D01*
X3222359Y9540223D01*
Y9523296D01*
X3154647D01*
X3256214Y9489440D02*
X3306998D01*
X3323926Y9506368D01*
X3306998Y9523296D01*
X3273142D01*
X3256214Y9540223D01*
X3273142Y9557151D01*
X3323926D01*
X3408565Y9489440D02*
X3374710D01*
X3357782Y9506368D01*
Y9540223D01*
X3374710Y9557151D01*
X3408565D01*
X3425493Y9540223D01*
Y9523296D01*
X3357782D01*
X3476277Y9574079D02*
Y9557151D01*
X3459349D01*
X3493205D01*
X3476277D01*
Y9506368D01*
X3493205Y9489440D01*
D134*
X17872479Y11088050D02*
D03*
D135*
X3956640Y7223760D02*
D03*
X3868940D02*
D03*
X7865700Y8658860D02*
D03*
X7780700D02*
D03*
X7865700Y8768080D02*
D03*
X7780700D02*
D03*
X2962500Y7790000D02*
D03*
X2877500D02*
D03*
X3747180Y7584180D02*
D03*
X3832180D02*
D03*
X3642240Y7741660D02*
D03*
X3727240D02*
D03*
X7307319Y5606500D02*
D03*
X7392319D02*
D03*
X7263720Y7772400D02*
D03*
X7176020D02*
D03*
X13480460Y9705340D02*
D03*
X13568159D02*
D03*
X13480460Y9829800D02*
D03*
X13568159D02*
D03*
X13480460Y9959340D02*
D03*
X13568159D02*
D03*
X13480460Y10083800D02*
D03*
X13568159D02*
D03*
X6680080Y6149340D02*
D03*
X6767780D02*
D03*
X6572459Y4839420D02*
D03*
X6660159D02*
D03*
X6381959D02*
D03*
X6469659D02*
D03*
X6463620Y6350000D02*
D03*
X6375920D02*
D03*
X6654120Y6347460D02*
D03*
X6566420D02*
D03*
X6948379Y4839420D02*
D03*
X7036079D02*
D03*
X6762959D02*
D03*
X6850659D02*
D03*
X7670680Y5608320D02*
D03*
X7758380D02*
D03*
X3747180Y7495280D02*
D03*
X3834880D02*
D03*
X4814540Y4211320D02*
D03*
X4726840D02*
D03*
X3333280Y12458120D02*
D03*
X3420980D02*
D03*
D136*
X8894100Y7250060D02*
D03*
Y7350060D02*
D03*
Y7050060D02*
D03*
Y7150060D02*
D03*
X9794100Y8650060D02*
D03*
X8894100Y8750060D02*
D03*
Y8850060D02*
D03*
X9294100Y7450060D02*
D03*
X9394100Y7550060D02*
D03*
X8994100Y9150060D02*
D03*
X9094100D02*
D03*
X9294100D02*
D03*
X9494100D02*
D03*
X9694100D02*
D03*
X9794100D02*
D03*
X9894100D02*
D03*
X9994100D02*
D03*
X10094100D02*
D03*
X10194100D02*
D03*
X10294100D02*
D03*
X10394100D02*
D03*
X10494100D02*
D03*
X10594100D02*
D03*
X10694100D02*
D03*
X10794100D02*
D03*
X10894100D02*
D03*
X10994100D02*
D03*
X8994100Y9050060D02*
D03*
X9094100D02*
D03*
X9294100D02*
D03*
X9494100D02*
D03*
X9694100D02*
D03*
X9794100D02*
D03*
X9894100D02*
D03*
X9994100D02*
D03*
X10094100D02*
D03*
X10194100D02*
D03*
X10294100D02*
D03*
X10394100D02*
D03*
X10494100D02*
D03*
X10594100D02*
D03*
X10694100D02*
D03*
X10794100D02*
D03*
X10894100D02*
D03*
X10994100D02*
D03*
X8894100Y8950060D02*
D03*
X8994100D02*
D03*
X9094100D02*
D03*
X9194100D02*
D03*
X9294100D02*
D03*
X9394100D02*
D03*
X9494100D02*
D03*
X9594100D02*
D03*
X9694100D02*
D03*
X9794100D02*
D03*
X9894100D02*
D03*
X9994100D02*
D03*
X10094100D02*
D03*
X10194100D02*
D03*
X10294100D02*
D03*
X10394100D02*
D03*
X10494100D02*
D03*
X10594100D02*
D03*
X10694100D02*
D03*
X10794100D02*
D03*
X10894100D02*
D03*
X10994100D02*
D03*
X8994100Y8850060D02*
D03*
X9094100D02*
D03*
X9194100D02*
D03*
X9294100D02*
D03*
X9394100D02*
D03*
X9494100D02*
D03*
X9594100D02*
D03*
X9694100D02*
D03*
X9794100D02*
D03*
X9894100D02*
D03*
X9994100D02*
D03*
X10094100D02*
D03*
X10194100D02*
D03*
X10294100D02*
D03*
X10394100D02*
D03*
X10494100D02*
D03*
X10594100D02*
D03*
X10694100D02*
D03*
X10794100D02*
D03*
X10894100D02*
D03*
X10994100D02*
D03*
X8994100Y8750060D02*
D03*
X9094100D02*
D03*
X9194100D02*
D03*
X9294100D02*
D03*
X9394100D02*
D03*
X9494100D02*
D03*
X9594100D02*
D03*
X9694100D02*
D03*
X9794100D02*
D03*
X9894100D02*
D03*
X9994100D02*
D03*
X10094100D02*
D03*
X10194100D02*
D03*
X10294100D02*
D03*
X10394100D02*
D03*
X10494100D02*
D03*
X10594100D02*
D03*
X10694100D02*
D03*
X10794100D02*
D03*
X10894100D02*
D03*
X10994100D02*
D03*
X8994100Y8650060D02*
D03*
X9094100D02*
D03*
X9194100D02*
D03*
X9294100D02*
D03*
X9394100D02*
D03*
X9494100D02*
D03*
X9594100D02*
D03*
X9694100D02*
D03*
X9894100D02*
D03*
X9994100D02*
D03*
X10094100D02*
D03*
X10194100D02*
D03*
X10294100D02*
D03*
X10394100D02*
D03*
X10494100D02*
D03*
X10594100D02*
D03*
X10694100D02*
D03*
X10794100D02*
D03*
X10894100D02*
D03*
X10994100D02*
D03*
X8994100Y8550060D02*
D03*
X9094100D02*
D03*
X9194100D02*
D03*
X9294100D02*
D03*
X9394100D02*
D03*
X9494100D02*
D03*
X9594100D02*
D03*
X9694100D02*
D03*
X9794100D02*
D03*
X9894100D02*
D03*
X9994100D02*
D03*
X10094100D02*
D03*
X10194100D02*
D03*
X10294100D02*
D03*
X10394100D02*
D03*
X10494100D02*
D03*
X10594100D02*
D03*
X10694100D02*
D03*
X10794100D02*
D03*
X10894100D02*
D03*
X10994100D02*
D03*
X8894100Y8450060D02*
D03*
X8994100D02*
D03*
X9094100D02*
D03*
X9194100D02*
D03*
X9294100D02*
D03*
X9394100D02*
D03*
X9494100D02*
D03*
X9594100D02*
D03*
X9694100D02*
D03*
X9794100D02*
D03*
X9894100D02*
D03*
X9994100D02*
D03*
X10094100D02*
D03*
X10194100D02*
D03*
X10294100D02*
D03*
X10394100D02*
D03*
X10494100D02*
D03*
X10594100D02*
D03*
X10694100D02*
D03*
X10794100D02*
D03*
X10894100D02*
D03*
X10994100D02*
D03*
X8994100Y8350060D02*
D03*
X9094100D02*
D03*
X9194100D02*
D03*
X9294100D02*
D03*
X9394100D02*
D03*
X9494100D02*
D03*
X9594100D02*
D03*
X9694100D02*
D03*
X9794100D02*
D03*
X9894100D02*
D03*
X9994100D02*
D03*
X10094100D02*
D03*
X10194100D02*
D03*
X10294100D02*
D03*
X10394100D02*
D03*
X10494100D02*
D03*
X10594100D02*
D03*
X10694100D02*
D03*
X10794100D02*
D03*
X10894100D02*
D03*
X10994100D02*
D03*
X8994100Y8250060D02*
D03*
X9094100D02*
D03*
X9194100D02*
D03*
X9294100D02*
D03*
X9394100D02*
D03*
X9494100D02*
D03*
X9594100D02*
D03*
X9694100D02*
D03*
X9794100D02*
D03*
X9894100D02*
D03*
X9994100D02*
D03*
X10094100D02*
D03*
X10194100D02*
D03*
X10294100D02*
D03*
X10394100D02*
D03*
X10494100D02*
D03*
X10594100D02*
D03*
X10694100D02*
D03*
X10794100D02*
D03*
X10894100D02*
D03*
X10994100D02*
D03*
X8994100Y8150060D02*
D03*
X9094100D02*
D03*
X9194100D02*
D03*
X9294100D02*
D03*
X9394100D02*
D03*
X9494100D02*
D03*
X9594100D02*
D03*
X9694100D02*
D03*
X9794100D02*
D03*
X9894100D02*
D03*
X9994100D02*
D03*
X10094100D02*
D03*
X10194100D02*
D03*
X10294100D02*
D03*
X10394100D02*
D03*
X10494100D02*
D03*
X10594100D02*
D03*
X10694100D02*
D03*
X10794100D02*
D03*
X10894100D02*
D03*
X10994100D02*
D03*
X8994100Y8050060D02*
D03*
X9094100D02*
D03*
X9194100D02*
D03*
X9294100D02*
D03*
X9394100D02*
D03*
X9494100D02*
D03*
X9594100D02*
D03*
X9694100D02*
D03*
X9794100D02*
D03*
X9894100D02*
D03*
X9994100D02*
D03*
X10094100D02*
D03*
X10194100D02*
D03*
X10294100D02*
D03*
X10394100D02*
D03*
X10494100D02*
D03*
X10594100D02*
D03*
X10694100D02*
D03*
X10794100D02*
D03*
X10894100D02*
D03*
X10994100D02*
D03*
X8894100Y7950060D02*
D03*
X8994100D02*
D03*
X9094100D02*
D03*
X9194100D02*
D03*
X9294100D02*
D03*
X9394100D02*
D03*
X9494100D02*
D03*
X9594100D02*
D03*
X9694100D02*
D03*
X9794100D02*
D03*
X9894100D02*
D03*
X9994100D02*
D03*
X10094100D02*
D03*
X10194100D02*
D03*
X10294100D02*
D03*
X10394100D02*
D03*
X10494100D02*
D03*
X10594100D02*
D03*
X10694100D02*
D03*
X10794100D02*
D03*
X10894100D02*
D03*
X10994100D02*
D03*
X8994100Y7850060D02*
D03*
X9094100D02*
D03*
X9194100D02*
D03*
X9294100D02*
D03*
X9394100D02*
D03*
X9494100D02*
D03*
X9594100D02*
D03*
X9694100D02*
D03*
X9794100D02*
D03*
X9894100D02*
D03*
X9994100D02*
D03*
X10094100D02*
D03*
X10194100D02*
D03*
X10294100D02*
D03*
X10394100D02*
D03*
X10494100D02*
D03*
X10594100D02*
D03*
X10694100D02*
D03*
X10794100D02*
D03*
X10894100D02*
D03*
X10994100D02*
D03*
X8994100Y7750060D02*
D03*
X9094100D02*
D03*
X9194100D02*
D03*
X9294100D02*
D03*
X9394100D02*
D03*
X9494100D02*
D03*
X9594100D02*
D03*
X9694100D02*
D03*
X9794100D02*
D03*
X9894100D02*
D03*
X9994100D02*
D03*
X10094100D02*
D03*
X10194100D02*
D03*
X10294100D02*
D03*
X10394100D02*
D03*
X10494100D02*
D03*
X10594100D02*
D03*
X10694100D02*
D03*
X10794100D02*
D03*
X10894100D02*
D03*
X10994100D02*
D03*
X8994100Y7650060D02*
D03*
X9094100D02*
D03*
X9194100D02*
D03*
X9294100D02*
D03*
X9394100D02*
D03*
X9494100D02*
D03*
X9594100D02*
D03*
X9694100D02*
D03*
X9794100D02*
D03*
X9894100D02*
D03*
X9994100D02*
D03*
X10094100D02*
D03*
X10194100D02*
D03*
X10294100D02*
D03*
X10394100D02*
D03*
X10494100D02*
D03*
X10594100D02*
D03*
X10694100D02*
D03*
X10794100D02*
D03*
X10894100D02*
D03*
X10994100D02*
D03*
X9094100Y7550060D02*
D03*
X9194100D02*
D03*
X9294100D02*
D03*
X9494100D02*
D03*
X9594100D02*
D03*
X9694100D02*
D03*
X9794100D02*
D03*
X9894100D02*
D03*
X9994100D02*
D03*
X10094100D02*
D03*
X10194100D02*
D03*
X10294100D02*
D03*
X10394100D02*
D03*
X10494100D02*
D03*
X10594100D02*
D03*
X10694100D02*
D03*
X10794100D02*
D03*
X10894100D02*
D03*
X10994100D02*
D03*
X8894100Y7450060D02*
D03*
X9094100D02*
D03*
X9194100D02*
D03*
X9394100D02*
D03*
X9494100D02*
D03*
X9594100D02*
D03*
X9694100D02*
D03*
X9794100D02*
D03*
X9894100D02*
D03*
X9994100D02*
D03*
X10094100D02*
D03*
X10194100D02*
D03*
X10294100D02*
D03*
X10394100D02*
D03*
X10494100D02*
D03*
X10594100D02*
D03*
X10694100D02*
D03*
X10794100D02*
D03*
X10894100D02*
D03*
X10994100D02*
D03*
X8994100Y7350060D02*
D03*
X9094100D02*
D03*
X9194100D02*
D03*
X9294100D02*
D03*
X9394100D02*
D03*
X9494100D02*
D03*
X9594100D02*
D03*
X9694100D02*
D03*
X9794100D02*
D03*
X9894100D02*
D03*
X9994100D02*
D03*
X10094100D02*
D03*
X10194100D02*
D03*
X10294100D02*
D03*
X10394100D02*
D03*
X10494100D02*
D03*
X10594100D02*
D03*
X10694100D02*
D03*
X10794100D02*
D03*
X10894100D02*
D03*
X10994100D02*
D03*
X8994100Y7250060D02*
D03*
X9094100D02*
D03*
X9194100D02*
D03*
X9294100D02*
D03*
X9494100D02*
D03*
X9594100D02*
D03*
X9694100D02*
D03*
X9794100D02*
D03*
X9894100D02*
D03*
X9994100D02*
D03*
X10094100D02*
D03*
X10194100D02*
D03*
X10294100D02*
D03*
X10394100D02*
D03*
X10494100D02*
D03*
X10594100D02*
D03*
X10694100D02*
D03*
X10794100D02*
D03*
X10894100D02*
D03*
X10994100D02*
D03*
X8994100Y7150060D02*
D03*
X9094100D02*
D03*
X9194100D02*
D03*
X9294100D02*
D03*
X9394100D02*
D03*
X9494100D02*
D03*
X9694100D02*
D03*
X9794100D02*
D03*
X9894100D02*
D03*
X9994100D02*
D03*
X10094100D02*
D03*
X10194100D02*
D03*
X10294100D02*
D03*
X10394100D02*
D03*
X10494100D02*
D03*
X10594100D02*
D03*
X10694100D02*
D03*
X10794100D02*
D03*
X10894100D02*
D03*
X10994100D02*
D03*
X9094100Y7050060D02*
D03*
X9194100D02*
D03*
X9294100D02*
D03*
X9394100D02*
D03*
X9494100D02*
D03*
X9694100D02*
D03*
X9794100D02*
D03*
X9894100D02*
D03*
X9994100D02*
D03*
X10094100D02*
D03*
X10194100D02*
D03*
X10294100D02*
D03*
X10394100D02*
D03*
X10494100D02*
D03*
X10594100D02*
D03*
X10694100D02*
D03*
X10794100D02*
D03*
X10894100D02*
D03*
X10994100D02*
D03*
X9194100Y9150060D02*
D03*
Y9050060D02*
D03*
X8994100Y7050060D02*
D03*
X8894100Y8650060D02*
D03*
Y8550060D02*
D03*
X8994100Y7550060D02*
D03*
Y7450060D02*
D03*
X9394100Y9150060D02*
D03*
Y9050060D02*
D03*
X8894100Y8350060D02*
D03*
Y8250060D02*
D03*
X9394100Y7250060D02*
D03*
X8894100Y9150060D02*
D03*
Y9050060D02*
D03*
Y8150060D02*
D03*
Y8050060D02*
D03*
Y7850060D02*
D03*
Y7750060D02*
D03*
Y7650060D02*
D03*
Y7550060D02*
D03*
X9594100Y7150060D02*
D03*
Y7050060D02*
D03*
Y9150060D02*
D03*
Y9050060D02*
D03*
D137*
X15742194Y12689160D02*
D03*
Y12601460D02*
D03*
X15415623Y12689160D02*
D03*
Y12601460D02*
D03*
X15902939D02*
D03*
Y12689160D02*
D03*
X15660551D02*
D03*
Y12601460D02*
D03*
X15821297D02*
D03*
Y12689160D02*
D03*
X15576369Y12601460D02*
D03*
Y12689160D02*
D03*
X15333980D02*
D03*
Y12601460D02*
D03*
X15494725D02*
D03*
Y12689160D02*
D03*
X13471434Y12679000D02*
D03*
Y12591300D02*
D03*
X13637259D02*
D03*
Y12679000D02*
D03*
X13387251D02*
D03*
Y12591300D02*
D03*
X13553076D02*
D03*
Y12679000D02*
D03*
X13134703D02*
D03*
Y12591300D02*
D03*
X13300528D02*
D03*
Y12679000D02*
D03*
X13050520D02*
D03*
Y12591300D02*
D03*
X13216345D02*
D03*
Y12679000D02*
D03*
X3347720Y7310540D02*
D03*
Y7398240D02*
D03*
X16183640Y5370000D02*
D03*
Y5455000D02*
D03*
X16270000Y5370000D02*
D03*
Y5455000D02*
D03*
X7381240Y8810580D02*
D03*
Y8725580D02*
D03*
X3439160Y7310540D02*
D03*
Y7395540D02*
D03*
X3553460Y7490880D02*
D03*
Y7575880D02*
D03*
X3642360Y7310540D02*
D03*
Y7395540D02*
D03*
X6239980Y5415960D02*
D03*
Y5500960D02*
D03*
X6242520Y5692820D02*
D03*
Y5777820D02*
D03*
X7150000Y5102500D02*
D03*
Y5017500D02*
D03*
X6501600Y5038680D02*
D03*
Y4953680D02*
D03*
X6546379Y6122800D02*
D03*
Y6207800D02*
D03*
X6915620Y5036140D02*
D03*
Y4951140D02*
D03*
X6904519Y6122801D02*
D03*
Y6207801D02*
D03*
X6709880Y5079320D02*
D03*
Y4994320D02*
D03*
X6793700Y5079320D02*
D03*
Y4994320D02*
D03*
X7299960Y8044860D02*
D03*
Y8132560D02*
D03*
X7127240Y8044860D02*
D03*
Y8132560D02*
D03*
X12393507Y9563780D02*
D03*
Y9651480D02*
D03*
X12578080Y9563780D02*
D03*
Y9651480D02*
D03*
X12485793Y9563780D02*
D03*
Y9651480D02*
D03*
X12301220Y9563780D02*
D03*
Y9651480D02*
D03*
X8872220Y10117500D02*
D03*
Y10205200D02*
D03*
X8958580Y10117500D02*
D03*
Y10205200D02*
D03*
X12210000Y7125200D02*
D03*
Y7037500D02*
D03*
X11770000Y7115200D02*
D03*
Y7027500D02*
D03*
X10683240Y13206779D02*
D03*
Y13294479D02*
D03*
X10551160Y13214920D02*
D03*
Y13302620D02*
D03*
X3553460Y7310540D02*
D03*
Y7398240D02*
D03*
X6417780Y5038680D02*
D03*
Y4950980D02*
D03*
X6457479Y6122800D02*
D03*
Y6210500D02*
D03*
X6999440Y5038680D02*
D03*
Y4950980D02*
D03*
X7001980Y6119540D02*
D03*
Y6207240D02*
D03*
X3050540Y7310540D02*
D03*
Y7398240D02*
D03*
X3141980Y7310540D02*
D03*
Y7398240D02*
D03*
X7855420Y5594940D02*
D03*
Y5507240D02*
D03*
X3733800Y7310540D02*
D03*
Y7398240D02*
D03*
X3236080Y12548880D02*
D03*
Y12461180D02*
D03*
X3934460Y8918360D02*
D03*
Y9006060D02*
D03*
X5647219Y5444620D02*
D03*
Y5532320D02*
D03*
Y5657980D02*
D03*
Y5745680D02*
D03*
X4728860Y4111580D02*
D03*
Y4023880D02*
D03*
X3934460Y9111400D02*
D03*
Y9199100D02*
D03*
X6626060Y4994320D02*
D03*
Y5082020D02*
D03*
D138*
X6137820Y11953840D02*
D03*
X7562820D02*
D03*
D139*
X3491440Y10527020D02*
D03*
Y9732020D02*
D03*
X3041440Y10527020D02*
D03*
Y9732020D02*
D03*
X5693200Y8096260D02*
D03*
Y8891260D02*
D03*
X6143200Y8096260D02*
D03*
Y8891260D02*
D03*
D140*
X4708360Y6072480D02*
D03*
Y5672480D02*
D03*
D141*
X3526540Y8717020D02*
D03*
X3336540D02*
D03*
X11202920Y7132320D02*
D03*
X11392920D02*
D03*
X11205000Y7660000D02*
D03*
X11395000D02*
D03*
X8535000Y7390000D02*
D03*
X8725000D02*
D03*
X8725000Y7240000D02*
D03*
X8535000D02*
D03*
X11205000Y7390000D02*
D03*
X11395000D02*
D03*
X11395000Y8870000D02*
D03*
X11205000D02*
D03*
X8705000Y8980000D02*
D03*
X8515000D02*
D03*
X8515000Y8671560D02*
D03*
X8705000D02*
D03*
X11225000Y8310000D02*
D03*
X11415000D02*
D03*
X11415000Y8030000D02*
D03*
X11225000D02*
D03*
X3526540Y8554460D02*
D03*
X3336540D02*
D03*
D142*
X10090080Y13294220D02*
D03*
Y13594220D02*
D03*
X10240080D02*
D03*
Y13294220D02*
D03*
X9564300D02*
D03*
Y13594220D02*
D03*
X9714300D02*
D03*
Y13294220D02*
D03*
D143*
X7489440Y8768080D02*
D03*
X7679440D02*
D03*
D144*
X7489440Y8660580D02*
D03*
X7679440D02*
D03*
X7489440Y8875580D02*
D03*
X7679440D02*
D03*
D145*
X6517320Y10263840D02*
D03*
X6437320D02*
D03*
X6357320D02*
D03*
X6277320D02*
D03*
X6197320D02*
D03*
X6117320D02*
D03*
X6037320D02*
D03*
X5957320D02*
D03*
X5797320D02*
D03*
X5757320Y11083840D02*
D03*
X5837320D02*
D03*
X5917320D02*
D03*
X5997320D02*
D03*
X6077320D02*
D03*
X6157320D02*
D03*
X6237320D02*
D03*
X6317320D02*
D03*
X6397320D02*
D03*
X6477320D02*
D03*
X5877320Y10263840D02*
D03*
X7942320Y10263840D02*
D03*
X7702320D02*
D03*
X7622320D02*
D03*
X7542320D02*
D03*
X7462320D02*
D03*
X7222320D02*
D03*
X7182320Y11083840D02*
D03*
X7262320D02*
D03*
X7342320D02*
D03*
X7422320D02*
D03*
X7502320D02*
D03*
X7582320D02*
D03*
X7662320D02*
D03*
X7742320D02*
D03*
X7822320D02*
D03*
X7902320D02*
D03*
X7382320Y10263840D02*
D03*
X7302320D02*
D03*
X7862320D02*
D03*
X7782320D02*
D03*
D146*
X8001699Y5309420D02*
D03*
Y4369420D02*
D03*
D147*
X6010259Y5525380D02*
D03*
X6010309Y5646930D02*
D03*
D148*
X5811059Y5685180D02*
D03*
Y5619180D02*
D03*
Y5553180D02*
D03*
Y5487180D02*
D03*
D149*
X6109559Y5680680D02*
D03*
Y5491680D02*
D03*
Y5554680D02*
D03*
Y5617680D02*
D03*
D150*
X8911520Y11363960D02*
D03*
X9061520Y11363960D02*
D03*
X8908980Y12148820D02*
D03*
X9058980D02*
D03*
X6430080Y8900160D02*
D03*
X6280080D02*
D03*
X2767260Y9725660D02*
D03*
X2917260D02*
D03*
X2924880Y10525760D02*
D03*
X2774880D02*
D03*
X8911520Y11236960D02*
D03*
X9061520D02*
D03*
X8908980Y12029440D02*
D03*
X9058980D02*
D03*
D151*
X12086699Y6986920D02*
D03*
X11991699D02*
D03*
X11896699D02*
D03*
Y7226920D02*
D03*
X11991699D02*
D03*
X12086699D02*
D03*
D152*
X3286760Y7861040D02*
D03*
D153*
Y7716260D02*
D03*
D154*
X3411760Y7581986D02*
D03*
X3361760D02*
D03*
X3311760D02*
D03*
X3261760D02*
D03*
X3211760D02*
D03*
X3161760D02*
D03*
Y7972453D02*
D03*
X3211760D02*
D03*
X3261760D02*
D03*
X3311760D02*
D03*
X3361760D02*
D03*
X3411760D02*
D03*
D155*
X3091526Y7652220D02*
D03*
Y7702220D02*
D03*
Y7752220D02*
D03*
Y7802220D02*
D03*
Y7852220D02*
D03*
Y7902220D02*
D03*
X3481994D02*
D03*
Y7852220D02*
D03*
Y7802220D02*
D03*
Y7752220D02*
D03*
Y7702220D02*
D03*
Y7652220D02*
D03*
D156*
X4318620Y9200640D02*
D03*
Y9010640D02*
D03*
X4078620Y9105640D02*
D03*
Y9200640D02*
D03*
Y9010640D02*
D03*
X4349780Y4019800D02*
D03*
Y4209800D02*
D03*
X4589780Y4114800D02*
D03*
Y4019800D02*
D03*
Y4209800D02*
D03*
D157*
X4152900Y8717020D02*
D03*
X4061460D02*
D03*
X4482480Y4452620D02*
D03*
X4573920D02*
D03*
D158*
X3942180Y8717020D02*
D03*
X4272180D02*
D03*
X4693200Y4452620D02*
D03*
X4363200D02*
D03*
D159*
X3858260Y4749900D02*
D03*
Y4914900D02*
D03*
X7475220Y8365440D02*
D03*
Y8200440D02*
D03*
X10685780Y13398599D02*
D03*
Y13563600D02*
D03*
X10551160Y13396060D02*
D03*
Y13561060D02*
D03*
X3726180Y4749900D02*
D03*
Y4914900D02*
D03*
D160*
X16249500Y6571500D02*
D03*
Y6444500D02*
D03*
X16630499Y10635500D02*
D03*
Y10508500D02*
D03*
Y7587500D02*
D03*
Y7460500D02*
D03*
X16122501Y7206500D02*
D03*
Y7333500D02*
D03*
Y7841500D02*
D03*
Y7714500D02*
D03*
X16630499Y6825500D02*
D03*
Y6698500D02*
D03*
X16122501Y6825500D02*
D03*
Y6698500D02*
D03*
X16630499Y6317500D02*
D03*
Y6190500D02*
D03*
X16249500Y9365500D02*
D03*
Y9238500D02*
D03*
Y7841500D02*
D03*
Y7714500D02*
D03*
X16757500Y9619500D02*
D03*
Y9492500D02*
D03*
Y9238500D02*
D03*
Y9111500D02*
D03*
Y7714500D02*
D03*
Y7587500D02*
D03*
Y6952500D02*
D03*
Y6825500D02*
D03*
X16249500Y11016500D02*
D03*
X16122501D02*
D03*
X16757500D02*
D03*
X16630499D02*
D03*
X16249500Y10889500D02*
D03*
X16122501D02*
D03*
X16757500D02*
D03*
X16630499D02*
D03*
X16249500Y10762500D02*
D03*
X16122501D02*
D03*
X16630499D02*
D03*
X16249500Y10635500D02*
D03*
X16122501D02*
D03*
X16249500Y10508500D02*
D03*
X16122501D02*
D03*
X16757500D02*
D03*
X16249500Y10381500D02*
D03*
X16122501D02*
D03*
X16630499D02*
D03*
X16249500Y10254500D02*
D03*
X16122501D02*
D03*
X16630499D02*
D03*
X16249500Y10127500D02*
D03*
X16122501D02*
D03*
X16757500D02*
D03*
X16630499D02*
D03*
X16249500Y10000500D02*
D03*
X16122501D02*
D03*
X16630499D02*
D03*
X16249500Y9873500D02*
D03*
X16122501D02*
D03*
X16630499D02*
D03*
X16249500Y9746500D02*
D03*
X16122501D02*
D03*
X16757500D02*
D03*
X16630499D02*
D03*
X16249500Y9619500D02*
D03*
X16122501D02*
D03*
X16630499D02*
D03*
X16249500Y9492500D02*
D03*
X16122501D02*
D03*
X16630499D02*
D03*
X16757500Y9365500D02*
D03*
X16630499D02*
D03*
Y9238500D02*
D03*
X16249500Y9111500D02*
D03*
X16122501D02*
D03*
X16630499D02*
D03*
X16249500Y8984500D02*
D03*
X16122501D02*
D03*
X16757500D02*
D03*
X16630499D02*
D03*
X16249500Y8857500D02*
D03*
X16630499D02*
D03*
X16249500Y8730500D02*
D03*
X16630499D02*
D03*
X16249500Y8603500D02*
D03*
X16122501D02*
D03*
X16757500D02*
D03*
X16630499D02*
D03*
X16122501Y8476500D02*
D03*
X16630499D02*
D03*
X16249500Y8349500D02*
D03*
X16122501D02*
D03*
X16630499D02*
D03*
X16249500Y8222500D02*
D03*
X16122501D02*
D03*
X16757500D02*
D03*
X16630499D02*
D03*
X16249500Y8095500D02*
D03*
X16122501D02*
D03*
X16630499D02*
D03*
X16249500Y7968500D02*
D03*
X16122501D02*
D03*
X16630499D02*
D03*
X16757500Y7841500D02*
D03*
X16630499D02*
D03*
Y7714500D02*
D03*
X16249500Y7587500D02*
D03*
X16122501D02*
D03*
X16249500Y7460500D02*
D03*
X16122501D02*
D03*
X16757500D02*
D03*
X16249500Y7333500D02*
D03*
X16630499D02*
D03*
X16249500Y7206500D02*
D03*
X16630499D02*
D03*
X16249500Y7079500D02*
D03*
X16122501D02*
D03*
X16757500D02*
D03*
X16630499D02*
D03*
X16249500Y6952500D02*
D03*
X16122501D02*
D03*
X16630499D02*
D03*
X16249500Y6825500D02*
D03*
Y6698500D02*
D03*
X16757500D02*
D03*
X16122501Y6571500D02*
D03*
X16630499D02*
D03*
X16122501Y6444500D02*
D03*
X16630499D02*
D03*
X16249500Y6317500D02*
D03*
X16122501D02*
D03*
X16757500D02*
D03*
X16249500Y6190500D02*
D03*
X16122501D02*
D03*
X16757500D02*
D03*
Y6063500D02*
D03*
X16630499D02*
D03*
X16249500D02*
D03*
X16122501D02*
D03*
X16757500Y6444500D02*
D03*
Y6571500D02*
D03*
Y10254500D02*
D03*
Y10381500D02*
D03*
Y10635500D02*
D03*
Y10762500D02*
D03*
X16249500Y8476500D02*
D03*
X16122501Y8730500D02*
D03*
Y8857500D02*
D03*
Y9238500D02*
D03*
Y9365500D02*
D03*
X16757500Y8730500D02*
D03*
Y8857500D02*
D03*
Y9873500D02*
D03*
Y10000500D02*
D03*
Y7206500D02*
D03*
Y7333500D02*
D03*
Y8349500D02*
D03*
Y8476500D02*
D03*
Y7968500D02*
D03*
Y8095500D02*
D03*
D161*
X11531819Y9227820D02*
D03*
X11241820D02*
D03*
X8265000Y8240000D02*
D03*
X8555000D02*
D03*
D162*
X8500000Y7965000D02*
D03*
Y7675000D02*
D03*
D163*
X10060000Y9305000D02*
D03*
Y9495000D02*
D03*
X9460000Y9565000D02*
D03*
Y9375000D02*
D03*
X2575560Y7923020D02*
D03*
Y7733020D02*
D03*
X2733040Y7923020D02*
D03*
Y7733020D02*
D03*
X6273000Y4941820D02*
D03*
Y5131820D02*
D03*
X7329640Y5246620D02*
D03*
Y5436620D02*
D03*
X6333019Y6237440D02*
D03*
Y6047440D02*
D03*
X7326959Y5892000D02*
D03*
Y5702000D02*
D03*
D164*
X4933479Y5174480D02*
D03*
Y5464480D02*
D03*
X4702339Y5174480D02*
D03*
Y5464480D02*
D03*
D165*
X7322020Y4362380D02*
D03*
Y4512380D02*
D03*
X7555700Y5457120D02*
D03*
Y5607120D02*
D03*
X7470140Y7855020D02*
D03*
Y7705020D02*
D03*
Y8096320D02*
D03*
Y7946320D02*
D03*
X9265920Y11591360D02*
D03*
Y11441360D02*
D03*
X9408160Y11045120D02*
D03*
Y11195120D02*
D03*
X9253220Y10974000D02*
D03*
Y11124000D02*
D03*
X9405620Y11520240D02*
D03*
Y11370240D02*
D03*
X9258300Y12378760D02*
D03*
Y12228760D02*
D03*
X9415780Y11852840D02*
D03*
Y12002840D02*
D03*
X9263380Y11791880D02*
D03*
Y11941880D02*
D03*
X9405620Y12312720D02*
D03*
Y12162720D02*
D03*
X4942040Y5899220D02*
D03*
Y5749220D02*
D03*
D166*
X6076579Y4839420D02*
D03*
X5136579D02*
D03*
X6068959Y6305000D02*
D03*
X5128959D02*
D03*
D167*
X2964300Y12300640D02*
D03*
Y12392080D02*
D03*
D168*
Y12511360D02*
D03*
Y12181360D02*
D03*
D169*
X3422520Y12076500D02*
D03*
X3232520D02*
D03*
X3327520Y12316500D02*
D03*
X3422520D02*
D03*
X3232520D02*
D03*
D170*
X13326080Y9702800D02*
D03*
Y9829800D02*
D03*
Y9956800D02*
D03*
Y10083800D02*
D03*
X12846080Y9702800D02*
D03*
Y9829800D02*
D03*
Y9956800D02*
D03*
Y10083800D02*
D03*
D171*
X6721639Y5578560D02*
D03*
D172*
X6996639Y5235300D02*
D03*
X6946639D02*
D03*
X6896639D02*
D03*
X6846639D02*
D03*
X6796639D02*
D03*
X6746639D02*
D03*
X6696639D02*
D03*
X6646639D02*
D03*
X6596639D02*
D03*
X6546639D02*
D03*
X6496639D02*
D03*
X6446639D02*
D03*
Y5921820D02*
D03*
X6496639D02*
D03*
X6546639D02*
D03*
X6596639D02*
D03*
X6646639D02*
D03*
X6696639D02*
D03*
X6746639D02*
D03*
X6796639D02*
D03*
X6846639D02*
D03*
X6896639D02*
D03*
X6946639D02*
D03*
X6996639D02*
D03*
D173*
X6378379Y5303560D02*
D03*
Y5353560D02*
D03*
Y5403560D02*
D03*
Y5453560D02*
D03*
Y5503560D02*
D03*
Y5553560D02*
D03*
Y5603560D02*
D03*
Y5653560D02*
D03*
Y5703560D02*
D03*
Y5753560D02*
D03*
Y5803560D02*
D03*
Y5853560D02*
D03*
X7064899D02*
D03*
Y5803560D02*
D03*
Y5753560D02*
D03*
Y5703560D02*
D03*
Y5653560D02*
D03*
Y5603560D02*
D03*
Y5553560D02*
D03*
Y5503560D02*
D03*
Y5453560D02*
D03*
Y5403560D02*
D03*
Y5353560D02*
D03*
Y5303560D02*
D03*
D174*
X2519680Y11976100D02*
D03*
X11165840Y12491720D02*
D03*
X6852920Y7912100D02*
D03*
D175*
X2519680Y12230100D02*
D03*
X11419840Y11221720D02*
D03*
X11165840D02*
D03*
X11419840Y11475720D02*
D03*
X11165840D02*
D03*
X11419840Y11729720D02*
D03*
X11165840D02*
D03*
X11419840Y11983720D02*
D03*
X11165840D02*
D03*
X11419840Y12237720D02*
D03*
X11165840D02*
D03*
X11419840Y12491720D02*
D03*
X6852920Y8166100D02*
D03*
D176*
X11292840Y13126720D02*
D03*
D177*
X5425320Y11483840D02*
D03*
X8275320D02*
D03*
X6617320Y10053840D02*
D03*
X6137320D02*
D03*
X7562320D02*
D03*
X8042320D02*
D03*
D178*
X3916680Y8023860D02*
D03*
Y8373860D02*
D03*
X14455141Y13169901D02*
D03*
X14201140D02*
D03*
X13947141D02*
D03*
X13693140D02*
D03*
X13439140D02*
D03*
X13185139D02*
D03*
X14455141Y12915900D02*
D03*
X14201140D02*
D03*
X13947141D02*
D03*
X13693140D02*
D03*
X13439140D02*
D03*
X16741141Y13169901D02*
D03*
X16487140D02*
D03*
X16233141D02*
D03*
X15979140D02*
D03*
X15725140D02*
D03*
X15471140D02*
D03*
X16741141Y12915900D02*
D03*
X16487140D02*
D03*
X16233141D02*
D03*
X15979140D02*
D03*
X15725140D02*
D03*
D179*
X13724181Y11448720D02*
D03*
D180*
X13524181D02*
D03*
X13324181D02*
D03*
X13124181D02*
D03*
X12924181D02*
D03*
X12724180D02*
D03*
X12524180D02*
D03*
X13724181Y11248720D02*
D03*
X13524181D02*
D03*
X13324181D02*
D03*
X13124181D02*
D03*
X12924181D02*
D03*
X12724180D02*
D03*
X12524180D02*
D03*
D181*
X12624180Y11348720D02*
D03*
D182*
X4165600Y12453360D02*
D03*
Y13373360D02*
D03*
Y12913361D02*
D03*
D183*
X16439999Y11259070D02*
D03*
X16135201Y5820930D02*
D03*
D184*
X17528539Y3903979D02*
D03*
X2034540D02*
D03*
X2034540Y13936980D02*
D03*
X17528540Y13936980D02*
D03*
X16639999Y11689070D02*
D03*
Y5389070D02*
D03*
D185*
X2988280Y12919881D02*
D03*
Y13499879D02*
D03*
D186*
X2508280Y13219881D02*
D03*
D187*
X13185139Y12915900D02*
D03*
X15471140D02*
D03*
D188*
X7806360Y5608320D02*
D03*
X7350000Y4400000D02*
D03*
X7300000D02*
D03*
X7350000Y4470000D02*
D03*
X7300000D02*
D03*
X6800000Y6070000D02*
D03*
X4990000Y5060000D02*
D03*
X4940000D02*
D03*
X4890000D02*
D03*
X6742900Y5156200D02*
D03*
X7040080Y4838700D02*
D03*
X7390600Y5885180D02*
D03*
X7326959Y5892000D02*
D03*
X7268680Y5887720D02*
D03*
X6445720Y5161280D02*
D03*
X6996900Y5145240D02*
D03*
X6547320Y6114580D02*
D03*
X6996900Y5046980D02*
D03*
X6918160Y5041900D02*
D03*
X6417780Y5046980D02*
D03*
X6222200Y4942840D02*
D03*
X6265380D02*
D03*
X6308560D02*
D03*
X6501600Y5046180D02*
D03*
X6737020Y6045200D02*
D03*
X6493980Y6019800D02*
D03*
X6290780Y6238240D02*
D03*
X6333019Y6237440D02*
D03*
X6374600Y6238240D02*
D03*
Y4841240D02*
D03*
X4703280Y6258560D02*
D03*
X6371120Y6350000D02*
D03*
X6646380Y4937760D02*
D03*
X6770840D02*
D03*
X6707340Y4904740D02*
D03*
X6222200Y5572760D02*
D03*
X5726200Y5619180D02*
D03*
X5725510Y5462150D02*
D03*
X6714890Y6347460D02*
D03*
X7283920Y5242560D02*
D03*
X7329640D02*
D03*
X7375360D02*
D03*
X7466800Y5580380D02*
D03*
Y5626100D02*
D03*
X6946639Y5996639D02*
D03*
X6996639D02*
D03*
X7000000Y6080000D02*
D03*
X6410000Y6120000D02*
D03*
X6850000Y6110000D02*
D03*
X7085800Y4995800D02*
D03*
X4830000Y5060000D02*
D03*
X6258812Y5621020D02*
D03*
X6799986Y5169990D02*
D03*
X7169986Y5649989D02*
D03*
X7117080Y5504180D02*
D03*
X7169986Y5539989D02*
D03*
X7617460Y6812280D02*
D03*
X15270000Y3779520D02*
D03*
D189*
X8021320Y9503400D02*
D03*
X8160000Y9830000D02*
D03*
X7675880Y9833600D02*
D03*
X8160000Y9750000D02*
D03*
X7675880Y9753600D02*
D03*
X8021320Y9583400D02*
D03*
X6027420Y9583416D02*
D03*
Y9503416D02*
D03*
X11740000Y8110000D02*
D03*
X11660000D02*
D03*
X12830000Y5550000D02*
D03*
X16694000Y6160020D02*
D03*
X16189967Y10589979D02*
D03*
X16703000Y8930000D02*
D03*
X16700000Y8550000D02*
D03*
Y8170000D02*
D03*
Y7790000D02*
D03*
Y7410000D02*
D03*
Y7020000D02*
D03*
X16800000Y6640000D02*
D03*
X16186000Y6160020D02*
D03*
X16569540Y6668020D02*
D03*
X15239999Y4920000D02*
D03*
Y5160000D02*
D03*
X16691460Y6601980D02*
D03*
Y6414020D02*
D03*
X13670000Y8300000D02*
D03*
Y8540000D02*
D03*
X16694000Y6347980D02*
D03*
X16567000Y6063500D02*
D03*
X16821001Y9365500D02*
D03*
Y9746500D02*
D03*
Y10127500D02*
D03*
Y10508500D02*
D03*
Y10889500D02*
D03*
X16567000Y11016500D02*
D03*
Y10762500D02*
D03*
Y10381500D02*
D03*
Y10000500D02*
D03*
Y9619500D02*
D03*
Y9238500D02*
D03*
Y8857500D02*
D03*
Y8476500D02*
D03*
Y8095500D02*
D03*
Y7714500D02*
D03*
Y7333500D02*
D03*
Y6952500D02*
D03*
X16059000Y11016500D02*
D03*
Y10762500D02*
D03*
Y10508500D02*
D03*
Y10254500D02*
D03*
Y10127500D02*
D03*
Y10000500D02*
D03*
Y9619500D02*
D03*
Y9492500D02*
D03*
Y9111500D02*
D03*
Y8933700D02*
D03*
Y8654300D02*
D03*
Y8476500D02*
D03*
Y8095500D02*
D03*
Y7968500D02*
D03*
Y7587500D02*
D03*
Y7460500D02*
D03*
Y7079500D02*
D03*
Y6952500D02*
D03*
Y6571500D02*
D03*
Y6444500D02*
D03*
Y6063500D02*
D03*
X16313000Y7206500D02*
D03*
Y7587500D02*
D03*
X16313499Y7970000D02*
D03*
X16313000Y8349500D02*
D03*
Y8730500D02*
D03*
Y9111500D02*
D03*
Y9492500D02*
D03*
Y10381500D02*
D03*
Y10889500D02*
D03*
Y10254500D02*
D03*
X16567000Y10889500D02*
D03*
X16821001Y11016500D02*
D03*
X16313000Y10000500D02*
D03*
X16059000Y10381500D02*
D03*
X16313000Y10508500D02*
D03*
X16059000Y10635500D02*
D03*
X16313000Y10762500D02*
D03*
Y11016500D02*
D03*
X16059000Y10889500D02*
D03*
X16350000Y5245000D02*
D03*
X7942580Y8747740D02*
D03*
X8160000Y9670000D02*
D03*
X11580000Y8110000D02*
D03*
X7675881Y9911919D02*
D03*
X8021320Y9663400D02*
D03*
X8160000Y9910000D02*
D03*
X8021320Y9423400D02*
D03*
X6027420Y9663416D02*
D03*
X7942580Y8827740D02*
D03*
X7675881Y9671919D02*
D03*
X11666220Y6501100D02*
D03*
Y6261100D02*
D03*
X12301220Y9502140D02*
D03*
X12578080Y9705340D02*
D03*
X12485793Y9708727D02*
D03*
X12509500Y10248900D02*
D03*
X12684760Y10292080D02*
D03*
X6027420Y9423416D02*
D03*
X7942580Y8587740D02*
D03*
X9174480Y12374880D02*
D03*
X9484360Y12311380D02*
D03*
X9500800Y11852840D02*
D03*
X9170600Y11791880D02*
D03*
X8908980Y11883320D02*
D03*
Y12282100D02*
D03*
X9169400Y10972800D02*
D03*
X9493180Y11045120D02*
D03*
X9480620Y11520240D02*
D03*
X9189720Y11590020D02*
D03*
X9636760Y9692640D02*
D03*
X7942580Y8667740D02*
D03*
X9161780Y11130280D02*
D03*
Y11192256D02*
D03*
Y11254232D02*
D03*
Y11316208D02*
D03*
Y11378184D02*
D03*
Y11440160D02*
D03*
X9151620Y11943080D02*
D03*
Y11999976D02*
D03*
Y12056872D02*
D03*
Y12113768D02*
D03*
Y12170664D02*
D03*
Y12227560D02*
D03*
X9040000Y11530000D02*
D03*
Y11030000D02*
D03*
X11981180Y8747760D02*
D03*
X12393507Y9502140D02*
D03*
X12485793D02*
D03*
X12578080Y9502140D02*
D03*
X11820000Y8110000D02*
D03*
X13670000Y8460000D02*
D03*
Y8380000D02*
D03*
X16567000Y10152900D02*
D03*
Y10229100D02*
D03*
X16367760Y9817100D02*
D03*
X16696539Y6541020D02*
D03*
X11666220Y6341100D02*
D03*
X16696539Y6474980D02*
D03*
X11666220Y6421100D02*
D03*
X14229080Y7038320D02*
D03*
Y6798320D02*
D03*
X12830000Y5790000D02*
D03*
X14229080Y6958320D02*
D03*
Y6878320D02*
D03*
X16313000Y8882900D02*
D03*
Y8959100D02*
D03*
X16567000Y9009900D02*
D03*
Y9086100D02*
D03*
Y8705100D02*
D03*
Y8628900D02*
D03*
X16193620Y6977900D02*
D03*
Y7054100D02*
D03*
X16186000Y6347980D02*
D03*
Y6668020D02*
D03*
X16115437Y5242734D02*
D03*
X16569540Y6855980D02*
D03*
X16186000D02*
D03*
X16758920Y6002020D02*
D03*
X16827499Y6187440D02*
D03*
X16311880Y6126480D02*
D03*
X16567000Y9771900D02*
D03*
Y9848100D02*
D03*
Y9390900D02*
D03*
Y9467100D02*
D03*
X16313000Y9263900D02*
D03*
Y9340100D02*
D03*
X15333980Y12532360D02*
D03*
X15415623Y12532723D02*
D03*
X15494725Y12533085D02*
D03*
X15576369Y12530908D02*
D03*
X15735300Y12529820D02*
D03*
X15660551Y12528731D02*
D03*
X15902939Y12534901D02*
D03*
X15821660Y12537440D02*
D03*
X16313000Y8197100D02*
D03*
Y8120900D02*
D03*
X12830000Y5710000D02*
D03*
X16694000Y6287020D02*
D03*
X12830000Y5630000D02*
D03*
X16694000Y6220980D02*
D03*
X16567000Y8324100D02*
D03*
Y8247900D02*
D03*
X16313000Y7816100D02*
D03*
Y7739900D02*
D03*
X15239999Y5080000D02*
D03*
X16569540Y6728980D02*
D03*
X15239999Y5000000D02*
D03*
X16569540Y6795020D02*
D03*
X16567000Y7943100D02*
D03*
Y7866900D02*
D03*
X16313000Y7435100D02*
D03*
Y7358900D02*
D03*
X16821001Y6850900D02*
D03*
X13992860Y4898380D02*
D03*
X16821001Y6927100D02*
D03*
X13992860Y4818380D02*
D03*
X16567000Y7485900D02*
D03*
X13538200Y4819640D02*
D03*
X16567000Y7562100D02*
D03*
X13538200Y4739640D02*
D03*
X16567000Y7104900D02*
D03*
X14620239Y4697720D02*
D03*
X16567000Y7181100D02*
D03*
X14620239Y4617720D02*
D03*
X14960001Y4490000D02*
D03*
Y4410000D02*
D03*
X16186501Y6220480D02*
D03*
X16186000Y6287020D02*
D03*
Y6728980D02*
D03*
Y6795020D02*
D03*
X16189999Y5245000D02*
D03*
X16270000D02*
D03*
X16307919Y8578100D02*
D03*
Y8501900D02*
D03*
D190*
X13192760Y9702800D02*
D03*
X13180060Y9829800D02*
D03*
X13187680Y9956800D02*
D03*
X13185139Y10083800D02*
D03*
X3926840Y5247640D02*
D03*
X11700000Y6990000D02*
D03*
X11580000Y7430000D02*
D03*
Y7340000D02*
D03*
X12010000Y7660000D02*
D03*
X12014200Y7305800D02*
D03*
X13056799Y7553640D02*
D03*
X9936480Y9799320D02*
D03*
X10510520Y9761220D02*
D03*
X10513060Y9872980D02*
D03*
X6474460Y10942320D02*
D03*
X4478020Y8775440D02*
D03*
Y8854180D02*
D03*
X4475480Y8689080D02*
D03*
Y8600180D02*
D03*
X4559300Y8775440D02*
D03*
X4561840Y8854180D02*
D03*
X4559300Y8686540D02*
D03*
Y8597640D02*
D03*
X10683240Y13108940D02*
D03*
X10551160Y13111481D02*
D03*
X12021820Y8018780D02*
D03*
X10507980Y6065520D02*
D03*
X10568940Y6301740D02*
D03*
X11140440Y6306820D02*
D03*
X10375900Y6388100D02*
D03*
X9690100Y6327140D02*
D03*
X9430000Y10040000D02*
D03*
X9070000D02*
D03*
X9290000Y9790000D02*
D03*
X8816340Y9888220D02*
D03*
X10614660Y10073640D02*
D03*
X9834880Y10005060D02*
D03*
X9936480Y9702800D02*
D03*
Y9888220D02*
D03*
X9918700Y10116820D02*
D03*
X9926320Y10205720D02*
D03*
X10515600Y10208260D02*
D03*
X10518140Y9974580D02*
D03*
X7223760Y5702000D02*
D03*
X7221220Y5443220D02*
D03*
X6327140Y5257800D02*
D03*
X6245860Y5222240D02*
D03*
X6365240Y5923280D02*
D03*
X6289040D02*
D03*
X4799800Y4119080D02*
D03*
X4349780Y4088100D02*
D03*
X4363720Y5016500D02*
D03*
Y4912360D02*
D03*
Y4810760D02*
D03*
Y4716780D02*
D03*
Y4620260D02*
D03*
X5179060Y5623560D02*
D03*
X5080000Y5621020D02*
D03*
X4986020Y5623560D02*
D03*
X4889500Y5621020D02*
D03*
X4686300Y6690360D02*
D03*
X4795520D02*
D03*
X4912360D02*
D03*
X5029200D02*
D03*
X5151120D02*
D03*
Y6581140D02*
D03*
X5029200D02*
D03*
X4912360D02*
D03*
X4795520D02*
D03*
X4686300D02*
D03*
X2778760Y8000740D02*
D03*
X2697480Y8003280D02*
D03*
X2616200Y8005820D02*
D03*
X2542540D02*
D03*
X2849880Y7553700D02*
D03*
X2773680D02*
D03*
X2697480D02*
D03*
X2618740D02*
D03*
X2537460D02*
D03*
X4318620Y9295520D02*
D03*
X2959220Y11894240D02*
D03*
X2875400Y11891700D02*
D03*
X3020000Y11970000D02*
D03*
X2877940Y11967900D02*
D03*
X3032880Y12046640D02*
D03*
X2956680D02*
D03*
X2877940Y12044100D02*
D03*
X3909060Y7584180D02*
D03*
X3200400Y7716260D02*
D03*
X3197860Y7858500D02*
D03*
X8906040Y9887420D02*
D03*
X9588500Y6322060D02*
D03*
Y6241580D02*
D03*
X13032739Y8775700D02*
D03*
Y7881620D02*
D03*
X11861800Y7899400D02*
D03*
X9491980Y6413500D02*
D03*
X9588500Y6400800D02*
D03*
X10195560Y6403340D02*
D03*
X11049000Y6518660D02*
D03*
X9898380Y6774180D02*
D03*
X12390120Y8610600D02*
D03*
X9451340Y13601700D02*
D03*
X9824720Y13591541D02*
D03*
Y13294360D02*
D03*
X10350500Y13594080D02*
D03*
X9969500Y13591541D02*
D03*
X10358120Y13291820D02*
D03*
X3858260Y4994960D02*
D03*
X3726180Y5000040D02*
D03*
X12806680Y10025380D02*
D03*
X12804140Y9893300D02*
D03*
X12806680Y9768840D02*
D03*
X6118820Y10408920D02*
D03*
X6278820D02*
D03*
X6518820D02*
D03*
X7541220Y10413999D02*
D03*
X7621220Y10414000D02*
D03*
X7701220D02*
D03*
X7941220D02*
D03*
X5754460Y10942320D02*
D03*
X5834460D02*
D03*
X7180620Y10937240D02*
D03*
X7900620D02*
D03*
X7260620D02*
D03*
X7420620D02*
D03*
X5994460Y10942320D02*
D03*
X7462780Y10414000D02*
D03*
X7221220D02*
D03*
X6038820Y10408920D02*
D03*
X5798820D02*
D03*
X6198820D02*
D03*
X5674360Y12357100D02*
D03*
X5826760D02*
D03*
X5979160D02*
D03*
X6131560D02*
D03*
X6283960D02*
D03*
X6436360D02*
D03*
X6588760D02*
D03*
X8051800Y12359640D02*
D03*
X7899400D02*
D03*
X7747000D02*
D03*
X7594600D02*
D03*
X7442200D02*
D03*
X7289800D02*
D03*
X7137400D02*
D03*
X5240020Y10591800D02*
D03*
X5242560Y12029440D02*
D03*
Y11940540D02*
D03*
X8463280Y12026900D02*
D03*
Y11943080D02*
D03*
X8458200Y10614660D02*
D03*
Y10525760D02*
D03*
X3261360Y7487920D02*
D03*
X3515740Y12458120D02*
D03*
X3934460Y9298940D02*
D03*
X4817860Y4023880D02*
D03*
X5240020Y10510520D02*
D03*
X7104380Y7871460D02*
D03*
Y7960360D02*
D03*
X7211060Y8257540D02*
D03*
Y8163560D02*
D03*
X7297420Y8257540D02*
D03*
X3726180Y4657140D02*
D03*
X3858260Y4654600D02*
D03*
X3671520Y5116880D02*
D03*
X10253980Y3939540D02*
D03*
X10050780D02*
D03*
X10152380D02*
D03*
X10355580D02*
D03*
X10558780D02*
D03*
X10660380D02*
D03*
X9949180D02*
D03*
X10457180D02*
D03*
X10761980D02*
D03*
X6290320Y8096260D02*
D03*
X6756400Y6474460D02*
D03*
X6192520Y7221220D02*
D03*
X3348240Y7205980D02*
D03*
X3210560Y8087100D02*
D03*
X3375660Y7861040D02*
D03*
Y7718800D02*
D03*
X3304540Y8089640D02*
D03*
X3286760Y7861040D02*
D03*
X3284220Y7716260D02*
D03*
X5788660Y7500620D02*
D03*
X11544300Y8514080D02*
D03*
X9301480Y10350500D02*
D03*
X8796020Y10198100D02*
D03*
X10551160Y13652499D02*
D03*
X10685780Y13647420D02*
D03*
X9564300Y13153320D02*
D03*
X10090080Y13150780D02*
D03*
X7487920Y8526780D02*
D03*
X3790000Y5240000D02*
D03*
X5690000Y8470000D02*
D03*
X13139999Y11080000D02*
D03*
X13130000Y10900000D02*
D03*
X8940000Y10640000D02*
D03*
Y10840000D02*
D03*
X8950000Y11720000D02*
D03*
X8790000Y11840000D02*
D03*
X4740000Y10640000D02*
D03*
Y10800000D02*
D03*
X4750000Y11930000D02*
D03*
Y11760000D02*
D03*
X3490000Y10150000D02*
D03*
X3860000Y7310000D02*
D03*
X3930000D02*
D03*
X4010000D02*
D03*
X10880000Y6420000D02*
D03*
X9030000Y10210000D02*
D03*
X11220000Y9860000D02*
D03*
X13389999Y8520000D02*
D03*
X13560001Y8330000D02*
D03*
X7470000Y7640000D02*
D03*
X7270000Y7700000D02*
D03*
X3870000Y9110000D02*
D03*
X6819986Y6319987D02*
D03*
X10000000Y6240000D02*
D03*
X7500620Y10937240D02*
D03*
X7740620D02*
D03*
X7820320Y11220978D02*
D03*
X7660620D02*
D03*
X7580620D02*
D03*
X7340620D02*
D03*
X6074460Y10942320D02*
D03*
X6314460D02*
D03*
X6394160Y11226058D02*
D03*
X6234140D02*
D03*
X6154460D02*
D03*
X5914460D02*
D03*
X7584440Y7901940D02*
D03*
X11049000Y6446520D02*
D03*
X14631441Y13052020D02*
D03*
X14820900Y13050520D02*
D03*
X12800560Y13066800D02*
D03*
X12988519D02*
D03*
X11264900Y8648700D02*
D03*
X15109419Y13036320D02*
D03*
X15163800Y13101320D02*
D03*
X17221201Y13027660D02*
D03*
X16878300Y13050520D02*
D03*
D191*
X10179119Y10003660D02*
D03*
Y9893660D02*
D03*
X10289119D02*
D03*
Y10003660D02*
D03*
%TF.MD5,08c9fbaec7f75d9b12bb0f05daf40066*%
M02*
