G04 Layer_Color=128*
%FSLAX45Y45*%
%MOMM*%
%TF.FileFunction,Paste,Bot*%
%TF.Part,Single*%
G01*
G75*
%TA.AperFunction,SMDPad,CuDef*%
%ADD11R,0.60000X0.55000*%
%ADD13R,0.55000X0.60000*%
%ADD17R,0.70000X1.30000*%
%ADD26R,0.60000X1.00000*%
%ADD38R,2.60000X0.90000*%
%ADD39R,1.30000X0.70000*%
%ADD40R,1.70000X0.90000*%
%ADD41R,1.00000X0.60000*%
%ADD112R,1.10000X1.70000*%
%ADD113R,0.91000X1.22000*%
%ADD114R,0.50000X1.00000*%
%ADD115R,0.90000X1.00000*%
%ADD116R,2.00000X0.80000*%
%ADD117R,0.45000X0.34290*%
%ADD118O,2.00000X0.60000*%
%ADD119R,2.00000X0.60000*%
%ADD120R,0.42000X0.60000*%
%ADD121O,0.42000X0.60000*%
%ADD122R,0.95000X0.60000*%
%ADD123O,0.30000X0.95000*%
%ADD124O,0.95000X0.30000*%
%ADD125R,2.10000X2.10000*%
%ADD126R,0.60000X0.42000*%
%ADD127O,0.60000X0.42000*%
D11*
X11222398Y10106660D02*
D03*
X11307398D02*
D03*
X11129600Y8702040D02*
D03*
X11044600D02*
D03*
X10547500Y8610000D02*
D03*
X10632500D02*
D03*
X9060858Y8092440D02*
D03*
X9145858D02*
D03*
X9130618Y8704580D02*
D03*
X9045618D02*
D03*
X8947500Y8410000D02*
D03*
X9032500D02*
D03*
X10118678Y7818120D02*
D03*
X10033678D02*
D03*
X9937158Y8018780D02*
D03*
X10022158D02*
D03*
X9595438Y9692640D02*
D03*
X9510438D02*
D03*
X8702718Y10515599D02*
D03*
X8787718D02*
D03*
X8702718Y10924539D02*
D03*
X8787718D02*
D03*
X4967558Y12044681D02*
D03*
X4882558D02*
D03*
X4977718Y11633201D02*
D03*
X4892718D02*
D03*
X8674778Y12049760D02*
D03*
X8759778D02*
D03*
X8690018Y11617960D02*
D03*
X8775018D02*
D03*
X4992578Y10495361D02*
D03*
X4907578D02*
D03*
X4987498Y10909381D02*
D03*
X4902498D02*
D03*
X3930058Y5128260D02*
D03*
X4017758D02*
D03*
X9106578Y9403080D02*
D03*
X9194278D02*
D03*
X6644518Y6129020D02*
D03*
X6732218D02*
D03*
X6598798Y5113020D02*
D03*
X6686498D02*
D03*
X6729518Y6045200D02*
D03*
X6641818D02*
D03*
X6683798Y5029200D02*
D03*
X6596098D02*
D03*
X9510438Y9789160D02*
D03*
X9598138D02*
D03*
X8998538Y9796780D02*
D03*
X8910838D02*
D03*
X6927500Y6110000D02*
D03*
X7012500D02*
D03*
D13*
X11430000Y7425200D02*
D03*
Y7337500D02*
D03*
X9750000Y8107500D02*
D03*
Y8192500D02*
D03*
X10840000Y8807500D02*
D03*
Y8892500D02*
D03*
X10640058Y8811940D02*
D03*
Y8896940D02*
D03*
X10449998Y9007500D02*
D03*
Y9092500D02*
D03*
X10845798Y7398340D02*
D03*
Y7313340D02*
D03*
X10645138Y7414940D02*
D03*
Y7499940D02*
D03*
X10647678Y7987620D02*
D03*
Y7902620D02*
D03*
X10246358Y8195900D02*
D03*
Y8110900D02*
D03*
X9149998Y6937500D02*
D03*
Y7022500D02*
D03*
Y7492500D02*
D03*
Y7407500D02*
D03*
X8949998Y7517500D02*
D03*
Y7602500D02*
D03*
X9342118Y7891100D02*
D03*
Y7806100D02*
D03*
X10942318Y8073980D02*
D03*
Y7988980D02*
D03*
X10538458Y8297500D02*
D03*
Y8212500D02*
D03*
X10843258Y8406720D02*
D03*
Y8321720D02*
D03*
X9359898Y8576900D02*
D03*
Y8491900D02*
D03*
X9761218Y8291240D02*
D03*
Y8376240D02*
D03*
X9860278Y8287340D02*
D03*
Y8202340D02*
D03*
X9458958Y8291240D02*
D03*
Y8376240D02*
D03*
X9563098Y8569280D02*
D03*
Y8484280D02*
D03*
X9859998Y7802500D02*
D03*
Y7717500D02*
D03*
X10020298Y8373700D02*
D03*
Y8288700D02*
D03*
X10025380Y8569280D02*
D03*
Y8484280D02*
D03*
X9865358Y8475300D02*
D03*
Y8390300D02*
D03*
X9763758Y8990920D02*
D03*
Y8905920D02*
D03*
X9364978Y8978220D02*
D03*
Y8893220D02*
D03*
X9669778Y9093880D02*
D03*
Y9178880D02*
D03*
X9265918Y9086260D02*
D03*
Y9171260D02*
D03*
X10195558Y6334080D02*
D03*
Y6249080D02*
D03*
X9491978Y6339160D02*
D03*
Y6254160D02*
D03*
X10025380Y7616940D02*
D03*
Y7529240D02*
D03*
X11509998Y7337500D02*
D03*
Y7425200D02*
D03*
X16342360Y9883820D02*
D03*
Y9971520D02*
D03*
X16339819Y10359980D02*
D03*
Y10272280D02*
D03*
X11104880Y7316380D02*
D03*
Y7228680D02*
D03*
X11483340Y8331880D02*
D03*
Y8419580D02*
D03*
X11599998Y8357500D02*
D03*
Y8445200D02*
D03*
X7813040Y7839120D02*
D03*
Y7926820D02*
D03*
X7726680Y7839120D02*
D03*
Y7926820D02*
D03*
X11386820Y8672920D02*
D03*
Y8760620D02*
D03*
X11470640Y8672920D02*
D03*
Y8760620D02*
D03*
X8019998Y8097500D02*
D03*
Y8185200D02*
D03*
X8100000Y8097500D02*
D03*
Y8185200D02*
D03*
X9189720Y10264820D02*
D03*
Y10352520D02*
D03*
X9105900Y10264820D02*
D03*
Y10352520D02*
D03*
X9563100Y13480299D02*
D03*
Y13567999D02*
D03*
X9715500Y13480299D02*
D03*
Y13567999D02*
D03*
X10088880Y13470140D02*
D03*
Y13557840D02*
D03*
X10238740Y13472681D02*
D03*
Y13560381D02*
D03*
X9715500Y13263361D02*
D03*
Y13175661D02*
D03*
X10238740Y13263361D02*
D03*
Y13175661D02*
D03*
X3726180Y4843260D02*
D03*
Y4755560D02*
D03*
X3858260Y4843260D02*
D03*
Y4755560D02*
D03*
X7085800Y5137740D02*
D03*
Y5050040D02*
D03*
X6996900Y5052740D02*
D03*
Y5140440D02*
D03*
X9049998Y9607500D02*
D03*
Y9695200D02*
D03*
X6501598Y5038680D02*
D03*
Y4953680D02*
D03*
X6547318Y6122080D02*
D03*
Y6207080D02*
D03*
X6915618Y5036140D02*
D03*
Y4951140D02*
D03*
D17*
X8654999Y8410000D02*
D03*
X8844999D02*
D03*
X8864999Y8190000D02*
D03*
X8674999D02*
D03*
D26*
X13554999Y8420000D02*
D03*
X13404999D02*
D03*
X10664039Y10075660D02*
D03*
X10514039D02*
D03*
X9785279Y10005060D02*
D03*
X9935279D02*
D03*
X10319119Y9631680D02*
D03*
X10169119D02*
D03*
X10562519Y6189980D02*
D03*
X10712519D02*
D03*
X10712519Y6062980D02*
D03*
X10562519D02*
D03*
D38*
X10119998Y6675000D02*
D03*
Y6965000D02*
D03*
X9616438Y6921720D02*
D03*
Y6631720D02*
D03*
D39*
X10399998Y9505000D02*
D03*
Y9315000D02*
D03*
X10240000Y9315000D02*
D03*
Y9505000D02*
D03*
D40*
X4933479Y5177020D02*
D03*
Y5467020D02*
D03*
D41*
X8989060Y10039420D02*
D03*
Y9889420D02*
D03*
X11140440Y6368980D02*
D03*
Y6518980D02*
D03*
X10574020Y6371520D02*
D03*
Y6521520D02*
D03*
X10304780Y6391980D02*
D03*
Y6241980D02*
D03*
X9690100Y6391980D02*
D03*
Y6241980D02*
D03*
X13379997Y8805000D02*
D03*
Y8655000D02*
D03*
X11974441Y7888040D02*
D03*
Y7738040D02*
D03*
X13391760Y8019980D02*
D03*
Y8169980D02*
D03*
X7324560Y4362380D02*
D03*
Y4512380D02*
D03*
X9514840Y9889420D02*
D03*
Y10039420D02*
D03*
D112*
X8938638Y11121640D02*
D03*
X8668638D02*
D03*
X4736718Y11451340D02*
D03*
X5006718D02*
D03*
X8938638Y11437620D02*
D03*
X8668638D02*
D03*
X4736338Y11094720D02*
D03*
X5006338D02*
D03*
D113*
X9653500Y9530000D02*
D03*
X9326500D02*
D03*
D114*
X11262359Y9955280D02*
D03*
Y9765280D02*
D03*
D115*
X11369859Y9955280D02*
D03*
Y9765280D02*
D03*
X11154859Y9955280D02*
D03*
Y9765280D02*
D03*
D116*
X8623298Y10821340D02*
D03*
Y10621339D02*
D03*
X5046978Y11738940D02*
D03*
Y11938941D02*
D03*
X8610598Y11736400D02*
D03*
Y11936400D02*
D03*
X5066918Y10798561D02*
D03*
Y10598561D02*
D03*
D117*
X3857258Y5166880D02*
D03*
Y5116880D02*
D03*
Y5066880D02*
D03*
X3732258D02*
D03*
Y5116880D02*
D03*
Y5166880D02*
D03*
D118*
X12166597Y7891780D02*
D03*
Y8018780D02*
D03*
Y8145780D02*
D03*
Y8272780D02*
D03*
Y8399780D02*
D03*
Y8526780D02*
D03*
Y8653780D02*
D03*
Y8780780D02*
D03*
X13196597Y7891780D02*
D03*
Y8018780D02*
D03*
Y8145780D02*
D03*
Y8272780D02*
D03*
Y8399780D02*
D03*
Y8526780D02*
D03*
Y8653780D02*
D03*
D119*
Y8780780D02*
D03*
D120*
X13071300Y10812780D02*
D03*
X13133299D02*
D03*
X13071300Y11002780D02*
D03*
X13133299D02*
D03*
X13195300D02*
D03*
D121*
Y10812780D02*
D03*
D122*
X9128179Y9889240D02*
D03*
Y9699240D02*
D03*
X9373179Y9794240D02*
D03*
Y9889240D02*
D03*
Y9699240D02*
D03*
X10713139Y6518660D02*
D03*
Y6328660D02*
D03*
X10958139Y6423660D02*
D03*
Y6518660D02*
D03*
Y6328660D02*
D03*
X9826679Y6334760D02*
D03*
Y6429760D02*
D03*
Y6239760D02*
D03*
X10071679D02*
D03*
Y6429760D02*
D03*
Y6334760D02*
D03*
D123*
X10136619Y10136160D02*
D03*
X10201619D02*
D03*
X10266619D02*
D03*
X10136619Y9761160D02*
D03*
X10201619D02*
D03*
X10266619D02*
D03*
X10331619Y10136160D02*
D03*
Y9761160D02*
D03*
D124*
X10046619Y9981160D02*
D03*
Y9916160D02*
D03*
Y10046160D02*
D03*
Y9851160D02*
D03*
X10421619Y9981160D02*
D03*
Y9916160D02*
D03*
Y10046160D02*
D03*
Y9851160D02*
D03*
D125*
X10234119Y9948660D02*
D03*
D126*
X14702020Y12990021D02*
D03*
Y13052020D02*
D03*
Y13114020D02*
D03*
X14892020Y12990021D02*
D03*
Y13052020D02*
D03*
X12925560Y13128799D02*
D03*
Y13066800D02*
D03*
Y13004800D02*
D03*
X12735560Y13128799D02*
D03*
Y13066800D02*
D03*
X15046960Y13036320D02*
D03*
Y13098320D02*
D03*
X15236960Y12974319D02*
D03*
Y13036320D02*
D03*
Y13098320D02*
D03*
X17160240Y13039320D02*
D03*
Y12977319D02*
D03*
X16970239Y13101320D02*
D03*
Y13039320D02*
D03*
Y12977319D02*
D03*
D127*
X14892020Y13114020D02*
D03*
X12735560Y13004800D02*
D03*
X15046960Y12974319D02*
D03*
X17160240Y13101320D02*
D03*
%TF.MD5,c176079e5856591d3a0a11ddab7ab2f5*%
M02*
