G04 Layer_Color=16711935*
%FSLAX45Y45*%
%MOMM*%
%TF.FileFunction,Soldermask,Bot*%
%TF.Part,Single*%
G01*
G75*
%TA.AperFunction,SMDPad,CuDef*%
%ADD15R,0.90320X1.50320*%
%ADD24R,0.80320X1.20320*%
%ADD25R,0.75320X0.80320*%
%ADD29O,0.62320X0.80320*%
%ADD30R,0.62320X0.80320*%
%ADD43R,0.80320X0.75320*%
%ADD45R,2.80320X1.10320*%
%ADD46R,1.50320X0.90320*%
%ADD47R,1.90320X1.10320*%
%ADD48R,1.20320X0.80320*%
%TA.AperFunction,ComponentPad*%
%ADD53C,1.15320*%
%ADD54C,1.55000*%
%ADD55C,1.72720*%
%ADD56C,1.70320*%
%ADD57R,1.70320X1.70320*%
G04:AMPARAMS|DCode=58|XSize=1.5032mm|YSize=1.5032mm|CornerRadius=0mm|HoleSize=0mm|Usage=FLASHONLY|Rotation=180.000|XOffset=0mm|YOffset=0mm|HoleType=Round|Shape=Octagon|*
%AMOCTAGOND58*
4,1,8,-0.75160,0.37580,-0.75160,-0.37580,-0.37580,-0.75160,0.37580,-0.75160,0.75160,-0.37580,0.75160,0.37580,0.37580,0.75160,-0.37580,0.75160,-0.75160,0.37580,0.0*
%
%ADD58OCTAGOND58*%

%ADD59C,1.50320*%
%ADD60C,1.20320*%
%ADD61R,1.70320X1.70320*%
%ADD62C,2.90320*%
%TA.AperFunction,SMDPad,CuDef*%
%ADD63O,4.70320X2.20320*%
%ADD64O,4.20320X2.20320*%
%ADD65O,2.20320X4.20320*%
%TA.AperFunction,ComponentPad*%
%ADD66C,1.70320*%
%ADD67C,0.20320*%
%TA.AperFunction,ViaPad*%
%ADD68C,0.70320*%
%ADD69C,0.71120*%
%ADD70C,0.58420*%
%ADD71C,0.60960*%
%ADD72C,0.83820*%
%TA.AperFunction,NonConductor*%
%ADD73R,1.77800X13.81760*%
%TA.AperFunction,SMDPad,CuDef*%
%ADD74R,1.30320X1.90320*%
%ADD75R,1.11320X1.42320*%
%ADD76R,0.70320X1.20320*%
%ADD77R,1.10320X1.20320*%
%ADD78R,2.20320X1.00320*%
%ADD79R,0.65320X0.54610*%
%ADD80O,2.20320X0.80320*%
%ADD81R,2.20320X0.80320*%
%ADD82R,1.15320X0.80320*%
%ADD83O,0.50320X1.15320*%
%ADD84O,1.15320X0.50320*%
%ADD85R,2.30320X2.30320*%
%TA.AperFunction,ComponentPad*%
%ADD86R,2.20320X2.20320*%
D15*
X8655000Y8410000D02*
D03*
X8845000D02*
D03*
X8864999Y8190000D02*
D03*
X8674999D02*
D03*
D24*
X13554999Y8420000D02*
D03*
X13404999D02*
D03*
X10664040Y10075660D02*
D03*
X10514040D02*
D03*
X9785279Y10005060D02*
D03*
X9935279D02*
D03*
X10319120Y9631680D02*
D03*
X10169120D02*
D03*
X10562519Y6189980D02*
D03*
X10712519D02*
D03*
X10712520Y6062980D02*
D03*
X10562520D02*
D03*
D25*
X11430000Y7425200D02*
D03*
Y7337500D02*
D03*
X9750000Y8107500D02*
D03*
Y8192500D02*
D03*
X10840000Y8807500D02*
D03*
Y8892500D02*
D03*
X10640059Y8811940D02*
D03*
Y8896940D02*
D03*
X10449999Y9007500D02*
D03*
Y9092500D02*
D03*
X10845799Y7398340D02*
D03*
Y7313340D02*
D03*
X10645139Y7414940D02*
D03*
Y7499940D02*
D03*
X10647679Y7987620D02*
D03*
Y7902620D02*
D03*
X10246359Y8195900D02*
D03*
Y8110900D02*
D03*
X9149999Y6937500D02*
D03*
Y7022500D02*
D03*
Y7492500D02*
D03*
Y7407500D02*
D03*
X8949999Y7517500D02*
D03*
Y7602500D02*
D03*
X9342119Y7891100D02*
D03*
Y7806100D02*
D03*
X10942319Y8073980D02*
D03*
Y7988980D02*
D03*
X10538459Y8297500D02*
D03*
Y8212500D02*
D03*
X10843259Y8406720D02*
D03*
Y8321720D02*
D03*
X9359899Y8576900D02*
D03*
Y8491900D02*
D03*
X9761219Y8291240D02*
D03*
Y8376240D02*
D03*
X9860279Y8287340D02*
D03*
Y8202340D02*
D03*
X9458959Y8291240D02*
D03*
Y8376240D02*
D03*
X9563099Y8569280D02*
D03*
Y8484280D02*
D03*
X9859999Y7802500D02*
D03*
Y7717500D02*
D03*
X10020299Y8373700D02*
D03*
Y8288700D02*
D03*
X10022839Y8576900D02*
D03*
Y8491900D02*
D03*
X9865359Y8475300D02*
D03*
Y8390300D02*
D03*
X9763759Y8990920D02*
D03*
Y8905920D02*
D03*
X9364979Y8978220D02*
D03*
Y8893220D02*
D03*
X9669779Y9093880D02*
D03*
Y9178880D02*
D03*
X9265919Y9086260D02*
D03*
Y9171260D02*
D03*
X10195559Y6334080D02*
D03*
Y6249080D02*
D03*
X9491979Y6339160D02*
D03*
Y6254160D02*
D03*
X10025380Y7616940D02*
D03*
Y7529240D02*
D03*
X11509999Y7337500D02*
D03*
Y7425200D02*
D03*
X16093440Y6798900D02*
D03*
Y6711200D02*
D03*
X16037560Y6269400D02*
D03*
Y6357100D02*
D03*
X11104880Y7316380D02*
D03*
Y7228680D02*
D03*
X11483340Y8331880D02*
D03*
Y8419580D02*
D03*
X11599999Y8357500D02*
D03*
Y8445200D02*
D03*
X7813040Y7839120D02*
D03*
Y7926820D02*
D03*
X7726680Y7839120D02*
D03*
Y7926820D02*
D03*
X11386820Y8672920D02*
D03*
Y8760620D02*
D03*
X11470640Y8672920D02*
D03*
Y8760620D02*
D03*
X8019999Y8097500D02*
D03*
Y8185200D02*
D03*
X8100000Y8097500D02*
D03*
Y8185200D02*
D03*
X9189720Y10264820D02*
D03*
Y10352520D02*
D03*
X9105900Y10264820D02*
D03*
Y10352520D02*
D03*
X11676380Y13137399D02*
D03*
Y13225101D02*
D03*
X11828780Y13137399D02*
D03*
Y13225101D02*
D03*
X12202160Y13127240D02*
D03*
Y13214940D02*
D03*
X12352020Y13129781D02*
D03*
Y13217480D02*
D03*
X11828780Y12920461D02*
D03*
Y12832761D02*
D03*
X12352020Y12920461D02*
D03*
Y12832761D02*
D03*
X3726180Y4843260D02*
D03*
Y4755560D02*
D03*
X3858260Y4843260D02*
D03*
Y4755560D02*
D03*
X7085800Y5137740D02*
D03*
Y5050040D02*
D03*
X6996900Y5052740D02*
D03*
Y5140440D02*
D03*
X9049999Y9607500D02*
D03*
Y9695200D02*
D03*
X6501599Y5038680D02*
D03*
Y4953680D02*
D03*
X6547319Y6122080D02*
D03*
Y6207080D02*
D03*
X6915619Y5036140D02*
D03*
Y4951140D02*
D03*
D29*
X13195300Y10812780D02*
D03*
D30*
X13071300D02*
D03*
X13133299D02*
D03*
X13071300Y11002780D02*
D03*
X13133299D02*
D03*
X13195300D02*
D03*
D43*
X11222399Y10106660D02*
D03*
X11307399D02*
D03*
X10847499Y8590000D02*
D03*
X10932499D02*
D03*
X10547500Y8610000D02*
D03*
X10632500D02*
D03*
X9060859Y8092440D02*
D03*
X9145859D02*
D03*
X9130619Y8704580D02*
D03*
X9045619D02*
D03*
X8947500Y8410000D02*
D03*
X9032500D02*
D03*
X10118679Y7818120D02*
D03*
X10033679D02*
D03*
X9937159Y8018780D02*
D03*
X10022159D02*
D03*
X9595439Y9692640D02*
D03*
X9510439D02*
D03*
X8702719Y10515599D02*
D03*
X8787719D02*
D03*
X8702719Y10924539D02*
D03*
X8787719D02*
D03*
X4967559Y12044681D02*
D03*
X4882559D02*
D03*
X4977719Y11633201D02*
D03*
X4892719D02*
D03*
X8674779Y12049760D02*
D03*
X8759779D02*
D03*
X8690019Y11617960D02*
D03*
X8775019D02*
D03*
X4992579Y10495361D02*
D03*
X4907579D02*
D03*
X4987499Y10909381D02*
D03*
X4902499D02*
D03*
X3930059Y5128260D02*
D03*
X4017759D02*
D03*
X9106579Y9403080D02*
D03*
X9194279D02*
D03*
X6644519Y6129020D02*
D03*
X6732219D02*
D03*
X6598799Y5113020D02*
D03*
X6686499D02*
D03*
X6729519Y6045200D02*
D03*
X6641819D02*
D03*
X6683799Y5029200D02*
D03*
X6596099D02*
D03*
X9510439Y9789160D02*
D03*
X9598139D02*
D03*
X8998539Y9796780D02*
D03*
X8910839D02*
D03*
X6927500Y6110000D02*
D03*
X7012500D02*
D03*
D45*
X10119999Y6675000D02*
D03*
Y6965000D02*
D03*
X9616439Y6921720D02*
D03*
Y6631720D02*
D03*
D46*
X10399999Y9505000D02*
D03*
Y9315000D02*
D03*
X10240000Y9315000D02*
D03*
Y9505000D02*
D03*
D47*
X4933479Y5177020D02*
D03*
Y5467020D02*
D03*
D48*
X8989060Y10039420D02*
D03*
Y9889420D02*
D03*
X11140440Y6368980D02*
D03*
Y6518980D02*
D03*
X10574020Y6371520D02*
D03*
Y6521520D02*
D03*
X10304780Y6391980D02*
D03*
Y6241980D02*
D03*
X9690100Y6391980D02*
D03*
Y6241980D02*
D03*
X13379999Y8805000D02*
D03*
Y8655000D02*
D03*
X11974441Y7888040D02*
D03*
Y7738040D02*
D03*
X13391760Y8019980D02*
D03*
Y8169980D02*
D03*
X7324560Y4362380D02*
D03*
Y4512380D02*
D03*
X9514840Y9889420D02*
D03*
Y10039420D02*
D03*
D53*
X5425320Y11483840D02*
D03*
X8275320D02*
D03*
X6617320Y10053840D02*
D03*
X6137320D02*
D03*
X7562320D02*
D03*
X8042320D02*
D03*
D54*
X6617320Y10673839D02*
D03*
X5657320D02*
D03*
X8042320Y10673840D02*
D03*
X7082320D02*
D03*
D55*
X3916680Y8023860D02*
D03*
Y8373860D02*
D03*
D56*
X6852920Y8166100D02*
D03*
X10985500Y13218159D02*
D03*
Y12964160D02*
D03*
X10731500Y13218159D02*
D03*
Y12964160D02*
D03*
X10477500Y13218159D02*
D03*
Y12964160D02*
D03*
X10223500Y13218159D02*
D03*
Y12964160D02*
D03*
X9969500Y13218159D02*
D03*
X2556840Y13471201D02*
D03*
X2756840D02*
D03*
X2156840Y13071201D02*
D03*
Y13271201D02*
D03*
D57*
X6852920Y7912100D02*
D03*
D58*
X13724181Y11448720D02*
D03*
D59*
X13524181D02*
D03*
X13324181D02*
D03*
X13124181D02*
D03*
X12924181D02*
D03*
X12724180D02*
D03*
X12524180D02*
D03*
X13724181Y11248720D02*
D03*
X13524181D02*
D03*
X13324181D02*
D03*
X13124181D02*
D03*
X12924181D02*
D03*
X12724180D02*
D03*
X12524180D02*
D03*
D60*
X12624180Y11348720D02*
D03*
D61*
X9969500Y12964160D02*
D03*
D62*
X4165600Y12453360D02*
D03*
Y13373360D02*
D03*
Y12913361D02*
D03*
D63*
X2656840Y12851199D02*
D03*
D64*
Y13471201D02*
D03*
D65*
X2156840Y13171201D02*
D03*
D66*
X2781840Y12851199D02*
D03*
X2531840D02*
D03*
D67*
X15953740Y5368290D02*
D03*
X16258540Y10806430D02*
D03*
D68*
X10179120Y10003660D02*
D03*
Y9893660D02*
D03*
X10289119D02*
D03*
Y10003660D02*
D03*
D69*
X11700000Y6990000D02*
D03*
X9050000Y9540000D02*
D03*
X11580000Y7430000D02*
D03*
Y7340000D02*
D03*
X11049000Y6446520D02*
D03*
X11890000Y7140000D02*
D03*
X12060000D02*
D03*
X12010000Y7660000D02*
D03*
X12014200Y7305800D02*
D03*
X13056799Y7553640D02*
D03*
X13555980Y12710160D02*
D03*
X13682980D02*
D03*
X13809979Y12697460D02*
D03*
X13936980Y12705080D02*
D03*
X9936480Y9799320D02*
D03*
X10510520Y9761220D02*
D03*
X10513060Y9872980D02*
D03*
X6474460Y10942320D02*
D03*
X4478020Y8775440D02*
D03*
Y8854180D02*
D03*
X4475480Y8689080D02*
D03*
Y8600180D02*
D03*
X4559300Y8775440D02*
D03*
X4561840Y8854180D02*
D03*
X4559300Y8686540D02*
D03*
Y8597640D02*
D03*
X12796520Y12766040D02*
D03*
X12664440Y12768580D02*
D03*
X12021820Y8018780D02*
D03*
X10147300Y9530080D02*
D03*
X10020300Y13606779D02*
D03*
X10018219Y12555220D02*
D03*
X10020300Y13403580D02*
D03*
X10020759Y12758420D02*
D03*
X10507980Y6065520D02*
D03*
X10568940Y6301740D02*
D03*
X11140440Y6306820D02*
D03*
X10375900Y6388100D02*
D03*
X9690100Y6327140D02*
D03*
X9430000Y10040000D02*
D03*
X9070000D02*
D03*
X9290000Y9790000D02*
D03*
X8816340Y9888220D02*
D03*
X10614660Y10073640D02*
D03*
X9834880Y10005060D02*
D03*
X9936480Y9702800D02*
D03*
Y9888220D02*
D03*
X9918700Y10116820D02*
D03*
X9926320Y10205720D02*
D03*
X10515600Y10208260D02*
D03*
X10518140Y9974580D02*
D03*
X7223760Y5702000D02*
D03*
X7221220Y5443220D02*
D03*
X6327140Y5257800D02*
D03*
X6245860Y5222240D02*
D03*
X6365240Y5923280D02*
D03*
X6289040D02*
D03*
X4799800Y4119080D02*
D03*
X4349780Y4088100D02*
D03*
X4363720Y5016500D02*
D03*
Y4912360D02*
D03*
Y4810760D02*
D03*
Y4716780D02*
D03*
Y4620260D02*
D03*
X5179060Y5623560D02*
D03*
X5080000Y5621020D02*
D03*
X4986020Y5623560D02*
D03*
X4889500Y5621020D02*
D03*
X4686300Y6690360D02*
D03*
X4795520D02*
D03*
X4912360D02*
D03*
X5029200D02*
D03*
X5151120D02*
D03*
Y6581140D02*
D03*
X5029200D02*
D03*
X4912360D02*
D03*
X4795520D02*
D03*
X4686300D02*
D03*
X2778760Y8000740D02*
D03*
X2697480Y8003280D02*
D03*
X2616200Y8005820D02*
D03*
X2542540D02*
D03*
X2849880Y7553700D02*
D03*
X2773680D02*
D03*
X2697480D02*
D03*
X2618740D02*
D03*
X2537460D02*
D03*
X4318620Y9295520D02*
D03*
X2649220Y11874240D02*
D03*
X2565400Y11871700D02*
D03*
X2710000Y11950000D02*
D03*
X2567940Y11947900D02*
D03*
X2722880Y12026640D02*
D03*
X2646680D02*
D03*
X2567940Y12024100D02*
D03*
X3909060Y7584180D02*
D03*
X3200400Y7716260D02*
D03*
X3197860Y7858500D02*
D03*
X8906040Y9887420D02*
D03*
X9588500Y6322060D02*
D03*
Y6241580D02*
D03*
X13032739Y8775700D02*
D03*
Y7881620D02*
D03*
X11861800Y7899400D02*
D03*
X9491980Y6413500D02*
D03*
X9588500Y6400800D02*
D03*
X10195560Y6403340D02*
D03*
X11049000Y6518660D02*
D03*
X9898380Y6774180D02*
D03*
X12390120Y8610600D02*
D03*
X11564620Y13258800D02*
D03*
X11938000Y13248640D02*
D03*
Y12951460D02*
D03*
X12463780Y13251180D02*
D03*
X12082780Y13248640D02*
D03*
X12471400Y12948920D02*
D03*
X3858260Y4994960D02*
D03*
X3726180Y5000040D02*
D03*
X13558521Y13103860D02*
D03*
X13682980D02*
D03*
X13809979D02*
D03*
X13931900D02*
D03*
X6118820Y10408920D02*
D03*
X6278820D02*
D03*
X6518820D02*
D03*
X7541220Y10413999D02*
D03*
X7621220Y10414000D02*
D03*
X7701220D02*
D03*
X7941220D02*
D03*
X5754460Y10942320D02*
D03*
X5834460D02*
D03*
X7180620Y10937240D02*
D03*
X7900620D02*
D03*
X7260620D02*
D03*
X7420620D02*
D03*
X5994460Y10942320D02*
D03*
X7462780Y10414000D02*
D03*
X7221220D02*
D03*
X6038820Y10408920D02*
D03*
X5798820D02*
D03*
X6198820D02*
D03*
X5674360Y12357100D02*
D03*
X5826760D02*
D03*
X5979160D02*
D03*
X6131560D02*
D03*
X6283960D02*
D03*
X6436360D02*
D03*
X6588760D02*
D03*
X8051800Y12359640D02*
D03*
X7899400D02*
D03*
X7747000D02*
D03*
X7594600D02*
D03*
X7442200D02*
D03*
X7289800D02*
D03*
X7137400D02*
D03*
X5240020Y10591800D02*
D03*
X5242560Y12029440D02*
D03*
Y11940540D02*
D03*
X8463280Y12026900D02*
D03*
Y11943080D02*
D03*
X8458200Y10614660D02*
D03*
Y10525760D02*
D03*
X3261360Y7487920D02*
D03*
X3205740Y12438120D02*
D03*
X3934460Y9298940D02*
D03*
X4817860Y4023880D02*
D03*
X5240020Y10510520D02*
D03*
X7104380Y7871460D02*
D03*
Y7960360D02*
D03*
X7211060Y8257540D02*
D03*
Y8163560D02*
D03*
X7297420Y8257540D02*
D03*
X3726180Y4657140D02*
D03*
X3858260Y4654600D02*
D03*
X3671520Y5116880D02*
D03*
X10253980Y3939540D02*
D03*
X10050780D02*
D03*
X10152380D02*
D03*
X10355580D02*
D03*
X10558780D02*
D03*
X10660380D02*
D03*
X9949180D02*
D03*
X10457180D02*
D03*
X10761980D02*
D03*
X6290320Y8096260D02*
D03*
X6756400Y6474460D02*
D03*
X6192520Y7221220D02*
D03*
X3348240Y7205980D02*
D03*
X3210560Y8087100D02*
D03*
X3375660Y7861040D02*
D03*
Y7718800D02*
D03*
X3304540Y8089640D02*
D03*
X3286760Y7861040D02*
D03*
X3284220Y7716260D02*
D03*
X5788660Y7500620D02*
D03*
X11544300Y8514080D02*
D03*
X9301480Y10350500D02*
D03*
X8796020Y10198100D02*
D03*
X12664440Y13309599D02*
D03*
X12799060Y13304520D02*
D03*
X11677580Y12810420D02*
D03*
X12203360Y12807880D02*
D03*
X7487920Y8526780D02*
D03*
X3790000Y5240000D02*
D03*
X5690000Y8470000D02*
D03*
X13139999Y11080000D02*
D03*
X13130000Y10900000D02*
D03*
X8940000Y10640000D02*
D03*
Y10840000D02*
D03*
X8950000Y11720000D02*
D03*
X8790000Y11840000D02*
D03*
X4740000Y10640000D02*
D03*
Y10800000D02*
D03*
X4750000Y11930000D02*
D03*
Y11760000D02*
D03*
X3490000Y10150000D02*
D03*
X3860000Y7310000D02*
D03*
X3930000D02*
D03*
X4010000D02*
D03*
X10880000Y6420000D02*
D03*
X9030000Y10210000D02*
D03*
X11220000Y9860000D02*
D03*
X13389999Y8520000D02*
D03*
X13560001Y8330000D02*
D03*
X7470000Y7640000D02*
D03*
X7270000Y7700000D02*
D03*
X3870000Y9110000D02*
D03*
X6819986Y6319987D02*
D03*
X10434320Y12156440D02*
D03*
X10556240Y12237720D02*
D03*
X10741660Y12409170D02*
D03*
X10942320Y12514580D02*
D03*
X11221720Y8646160D02*
D03*
X10000000Y6240000D02*
D03*
X7500620Y10937240D02*
D03*
X7740620D02*
D03*
X7820320Y11220978D02*
D03*
X7660620D02*
D03*
X7580620D02*
D03*
X7340620D02*
D03*
X6074460Y10942320D02*
D03*
X6314460D02*
D03*
X6394160Y11226058D02*
D03*
X6234140D02*
D03*
X6154460D02*
D03*
X5914460D02*
D03*
X7584440Y7901940D02*
D03*
D70*
X7350000Y4400000D02*
D03*
X7300000D02*
D03*
X7350000Y4470000D02*
D03*
X7300000D02*
D03*
X6800000Y6070000D02*
D03*
X4990000Y5060000D02*
D03*
X4940000D02*
D03*
X4890000D02*
D03*
X6742900Y5156200D02*
D03*
X7040080Y4838700D02*
D03*
X7390600Y5885180D02*
D03*
X7326959Y5892000D02*
D03*
X7268680Y5887720D02*
D03*
X6445720Y5161280D02*
D03*
X6996900Y5145240D02*
D03*
X6547320Y6114580D02*
D03*
X6996900Y5046980D02*
D03*
X6918160Y5041900D02*
D03*
X6417780Y5046980D02*
D03*
X6222200Y4942840D02*
D03*
X6265380D02*
D03*
X6308560D02*
D03*
X6501600Y5046180D02*
D03*
X6737020Y6045200D02*
D03*
X6493980Y6019800D02*
D03*
X6290780Y6238240D02*
D03*
X6333019Y6237440D02*
D03*
X6374600Y6238240D02*
D03*
Y4841240D02*
D03*
X4703280Y6258560D02*
D03*
X6371120Y6350000D02*
D03*
X6646380Y4937760D02*
D03*
X6770840D02*
D03*
X6707340Y4904740D02*
D03*
X6222200Y5572760D02*
D03*
X5726200Y5619180D02*
D03*
X5725510Y5462150D02*
D03*
X6714890Y6347460D02*
D03*
X7283920Y5242560D02*
D03*
X7329640D02*
D03*
X7375360D02*
D03*
X7466800Y5580380D02*
D03*
Y5626100D02*
D03*
X7806360Y5608320D02*
D03*
X6946639Y5996639D02*
D03*
X6996639D02*
D03*
X7000000Y6080000D02*
D03*
X6410000Y6120000D02*
D03*
X6850000Y6110000D02*
D03*
X7085800Y4995800D02*
D03*
X4830000Y5060000D02*
D03*
X6258812Y5621020D02*
D03*
X6799986Y5169990D02*
D03*
X7169986Y5649989D02*
D03*
X7117080Y5504180D02*
D03*
X7169986Y5539989D02*
D03*
D71*
X7942580Y8747740D02*
D03*
X8790940Y9532620D02*
D03*
X13531860Y8531860D02*
D03*
X12364720Y8768100D02*
D03*
X11660000Y8110000D02*
D03*
X11740000D02*
D03*
X11820000D02*
D03*
X11580000D02*
D03*
X12520960Y6962140D02*
D03*
X14734540Y9549140D02*
D03*
X13121640Y6461760D02*
D03*
X12881641D02*
D03*
X7675881Y9911919D02*
D03*
X8592820Y9663400D02*
D03*
X8790940Y9772620D02*
D03*
X8592820Y9423400D02*
D03*
X6027420Y9663416D02*
D03*
X7942580Y8827740D02*
D03*
X7675881Y9671919D02*
D03*
X11666220Y6501100D02*
D03*
Y6261100D02*
D03*
X15247620Y10495260D02*
D03*
Y10255260D02*
D03*
X14734540Y9789140D02*
D03*
X13771860Y8531860D02*
D03*
X12760960Y6962140D02*
D03*
X12301220Y9502140D02*
D03*
X12842239Y8915420D02*
D03*
X12578080Y9705340D02*
D03*
X12485793Y9708727D02*
D03*
X12509500Y10248900D02*
D03*
X12684760Y10292080D02*
D03*
X6027420Y9423416D02*
D03*
X7942580Y8587740D02*
D03*
X9174480Y12374880D02*
D03*
X9484360Y12311380D02*
D03*
X9500800Y11852840D02*
D03*
X9170600Y11791880D02*
D03*
X8908980Y11883320D02*
D03*
Y12282100D02*
D03*
X9169400Y10972800D02*
D03*
X9493180Y11045120D02*
D03*
X9480620Y11520240D02*
D03*
X9189720Y11590020D02*
D03*
X9636760Y9692640D02*
D03*
X14734540Y9709140D02*
D03*
X12600960Y6962140D02*
D03*
X12680960D02*
D03*
X14734540Y9629140D02*
D03*
X7942580Y8667740D02*
D03*
X12842239Y8995420D02*
D03*
Y9075420D02*
D03*
X9161780Y11130280D02*
D03*
Y11192256D02*
D03*
Y11254232D02*
D03*
Y11316208D02*
D03*
Y11378184D02*
D03*
Y11440160D02*
D03*
X9151620Y11943080D02*
D03*
Y11999976D02*
D03*
Y12056872D02*
D03*
Y12113768D02*
D03*
Y12170664D02*
D03*
Y12227560D02*
D03*
X6027420Y9503416D02*
D03*
X8592820Y9503400D02*
D03*
X6027420Y9583416D02*
D03*
X8592820Y9583400D02*
D03*
X7675880Y9753600D02*
D03*
X8790940Y9612620D02*
D03*
X7675880Y9833600D02*
D03*
X8790940Y9692620D02*
D03*
X9040000Y11530000D02*
D03*
Y11030000D02*
D03*
X12364720Y8688100D02*
D03*
Y8848100D02*
D03*
Y8928100D02*
D03*
X11981180Y8747760D02*
D03*
X12393507Y9502140D02*
D03*
X12485793D02*
D03*
X12578080Y9502140D02*
D03*
X12839973Y9149982D02*
D03*
X13611861Y8531860D02*
D03*
X15247620Y10335260D02*
D03*
Y10415260D02*
D03*
X13691859Y8531860D02*
D03*
X13041640Y6461760D02*
D03*
X12961639D02*
D03*
X11666220Y6341100D02*
D03*
Y6421100D02*
D03*
D72*
X6714960Y5671820D02*
D03*
X6717500Y5768340D02*
D03*
X6816560D02*
D03*
X6619075D02*
D03*
X6520650D02*
D03*
X6914350D02*
D03*
X6815925Y5671820D02*
D03*
X6619075D02*
D03*
X6520650D02*
D03*
X6914350D02*
D03*
X6813385Y5473700D02*
D03*
X6616535D02*
D03*
X6518110D02*
D03*
X6714960D02*
D03*
X6911810D02*
D03*
X6813385Y5377180D02*
D03*
X6616535D02*
D03*
X6518110D02*
D03*
X6714960D02*
D03*
X6911810D02*
D03*
D73*
X17302480Y11089640D02*
D03*
D74*
X8938639Y11121640D02*
D03*
X8668639D02*
D03*
X4736719Y11451340D02*
D03*
X5006719D02*
D03*
X8938639Y11437620D02*
D03*
X8668639D02*
D03*
X4736339Y11094720D02*
D03*
X5006339D02*
D03*
D75*
X9653500Y9530000D02*
D03*
X9326500D02*
D03*
D76*
X11262359Y9955280D02*
D03*
Y9765280D02*
D03*
D77*
X11369859Y9955280D02*
D03*
Y9765280D02*
D03*
X11154860Y9955280D02*
D03*
Y9765280D02*
D03*
D78*
X8623299Y10821340D02*
D03*
Y10621339D02*
D03*
X5046979Y11738940D02*
D03*
Y11938941D02*
D03*
X8610599Y11736400D02*
D03*
Y11936400D02*
D03*
X5066919Y10798561D02*
D03*
Y10598561D02*
D03*
D79*
X3857259Y5166880D02*
D03*
Y5116880D02*
D03*
Y5066880D02*
D03*
X3732259D02*
D03*
Y5116880D02*
D03*
Y5166880D02*
D03*
D80*
X12166598Y7891780D02*
D03*
Y8018780D02*
D03*
Y8145780D02*
D03*
Y8272780D02*
D03*
Y8399780D02*
D03*
Y8526780D02*
D03*
Y8653780D02*
D03*
Y8780780D02*
D03*
X13196597Y7891780D02*
D03*
Y8018780D02*
D03*
Y8145780D02*
D03*
Y8272780D02*
D03*
Y8399780D02*
D03*
Y8526780D02*
D03*
Y8653780D02*
D03*
D81*
Y8780780D02*
D03*
D82*
X9128179Y9889240D02*
D03*
Y9699240D02*
D03*
X9373179Y9794240D02*
D03*
Y9889240D02*
D03*
Y9699240D02*
D03*
X10713139Y6518660D02*
D03*
Y6328660D02*
D03*
X10958139Y6423660D02*
D03*
Y6518660D02*
D03*
Y6328660D02*
D03*
X9826679Y6334760D02*
D03*
Y6429760D02*
D03*
Y6239760D02*
D03*
X10071679D02*
D03*
Y6429760D02*
D03*
Y6334760D02*
D03*
D83*
X10136620Y10136160D02*
D03*
X10201619D02*
D03*
X10266620D02*
D03*
X10136620Y9761160D02*
D03*
X10201619D02*
D03*
X10266620D02*
D03*
X10331619Y10136160D02*
D03*
Y9761160D02*
D03*
D84*
X10046619Y9981160D02*
D03*
Y9916160D02*
D03*
Y10046160D02*
D03*
Y9851160D02*
D03*
X10421619Y9981160D02*
D03*
Y9916160D02*
D03*
Y10046160D02*
D03*
Y9851160D02*
D03*
D85*
X10234119Y9948660D02*
D03*
D86*
X6850320Y13263840D02*
D03*
Y12263840D02*
D03*
Y11263840D02*
D03*
Y10263840D02*
D03*
X5425320D02*
D03*
Y11263840D02*
D03*
Y12263840D02*
D03*
Y13263840D02*
D03*
X8275320Y10513840D02*
D03*
Y11013840D02*
D03*
Y11763840D02*
D03*
Y12763840D02*
D03*
Y13763840D02*
D03*
%TF.MD5,ee6360fdc367b5d4ca326f755882a582*%
M02*
