M48
;Layer_Color=9474304
;FILE_FORMAT=2:5
INCH,LZ
;TYPE=PLATED
T1F00S00C0.00700
T2F00S00C0.00787
T3F00S00C0.00800
T4F00S00C0.01000
T5F00S00C0.03000
T6F00S00C0.03543
T7F00S00C0.03543
T8F00S00C0.03740
T9F00S00C0.03937
T10F00S00C0.04134
T11F00S00C0.06102
T12F00S00C0.07283
;TYPE=NON_PLATED
T13F00S00C0.05000
%
T01
X0190157Y0199213
X019252
X0194488
X0196457
X0225414Y0215045
X0225441Y0221228
X024641Y02213
X0244969Y02194
Y01946
X0246669
X0248369
X0250969Y01906
X0252668Y01987
X0255968Y0198669
X0253768Y02032
X0265469Y0203
X0267716Y0203543
X0275468Y0202569
X0275468Y01987
X0272369Y01985
X0278969Y0196685
X0277168Y01905
X0266568Y01944
X0264069Y01931
X0261668Y01944
X0286769Y02064
X0288568
X0290369
X0293969Y02197
Y02215
X0282283Y0222441
Y021811
X02802Y02167
X0286169Y02318
X0288463Y0231968
X0290968Y02317
X0275458Y0236088
X027349
X027559Y023937
X0269685Y0240551
X0267717Y0238976
X0265237Y0238
X0257769Y0240732
X0252362Y0240945
X0250969Y02456
X0249331Y0245568
X0247669Y02456
X0250832Y025
X0264366Y02499
X0255668Y0237
X0307337Y02208
X028937Y0175984
X0287402
Y0173228
X028937
X0185169Y02464
T02
X0400753Y0389514
Y0393845
X0405083
Y0389514
T03
X06148Y01543
X06172
X06198
X06223
X06334Y02209
X06383
Y02259
Y02309
Y02359
X06334
Y02409
X06383
Y02459
X06336
X06329Y0251
X06383Y02509
Y02559
Y02609
X06336
X06383Y02659
Y02709
X06333Y02707
X06376Y02809
X0643Y02808
X06429Y02759
X06281Y02803
Y02828
Y02854
Y02878
X06336Y02959
X06331Y029965
Y030215
Y03048
Y030715
X06426Y03009
Y02959
X06334Y02308
X06333Y0226
X06183Y02259
X06136
X06133Y0221
X06186Y02209
Y02309
Y02459
X06181Y024965
Y025215
Y0254734
Y025715
X06186Y02609
X06181Y026465
Y026715
Y0269734
Y027215
X0622047Y0273622
X06181Y027965
Y028215
Y0284734
Y028715
X06136Y02859
X06181Y029465
Y02971
Y0299734
Y030215
X0622047Y0303543
X06181Y030965
Y031215
X06136Y03009
X0622441Y029252
X06136Y02709
Y02559
Y02409
X05166Y02544
X051345
X0510301
X0507151
X05024Y02741
X049925
X0496101
X0492951
X04593Y0255949
Y0252799
Y024965
Y02465
X044685Y0279921
Y0282283
X0442913
Y0279921
X0435827Y0281496
X0430709Y0279921
X0426772
X0422835
X0418898
X0422835Y0275984
X0427Y02875
X0427324Y0291732
X04304Y02962
X04343Y02961
X0434646Y0302756
X0430454Y0302003
X0426449Y0303614
X0419684Y0295984
X0418504Y0290945
X0414567Y0299606
X0406693Y0303543
X0407087Y0311417
X0399213Y03075
X0398674Y0303852
X0395276Y0303937
X0394737Y0307789
X0395Y03111
X0388188Y0311417
Y0307873
X0388189Y0303689
Y0299606
X0387957Y0295672
X0388189Y0291732
X0383464Y0291732
X0383857Y0295275
X03801Y02957
X0376452Y0295978
X0375984Y0299606
X0372047
X0368578Y0299915
Y0303852
X0372047Y0303543
X0375984
X0380389Y0303852
X0383858Y0303937
X0383857Y030748
X0383464Y0310629
X0379921Y0311024
X0379921Y0307873
X0376452Y0307789
X0375984Y0311024
X0371654
X0372046Y0307873
X03678Y0307327
X036811Y0311417
X0363372Y0311595
X0359842Y0311417
X0356693Y0310236
X0356767Y0303852
X0360704
Y0299915
X036391Y0299184
Y0295247
X0363779Y0292126
X036811Y0291732
X0367716Y0295275
X0371259Y0295669
X037559Y0292125
Y0288188
X0379134Y0287795
X0383071
X0383465Y0284252
Y0276378
X0381496Y0270472
X0378346
X037559
Y0262992
X0378346
X0381102
X0394882Y026063
X0398031
X0401575
Y0272047
X0398425
X0394882
X0395669Y0279528
X0395275Y0290944
X0395Y02958
X0398674Y0295978
Y0299915
X0394737
X0384026Y0299615
X038008Y0299606
X0379133Y0291732
X0368578Y0288104
X0364567Y0287795
X0360704Y0288104
X0359449Y0290551
X036063Y0295569
X0355511Y0295669
X0351969Y0295276
X0352755Y0291732
X0352756Y0299606
X035283Y0303852
X0337402Y0304331
X0334252
X0331496
Y0311417
X0334646
X0337402
X0337795Y0292126
Y0289764
Y0286221
Y0283858
X0341732
Y0286221
Y0289764
Y0292126
X0354003Y0283883
X0356767Y0284167
X0360704
X0360629Y0279921
X03606Y02763
X036063Y0272441
X0356692Y0279921
X03528Y0279921
X0367322Y0283858
X0372022Y0283825
X0371653Y0279921
X0375Y02799
X0407087Y0284252
X0402756Y0296063
X0419Y03108
X0442913Y0302756
Y0300394
X044685
Y0302756
Y0291732
Y0289764
X0442913
Y0291732
X0301969Y0311811
X0307874Y0313779
X03022Y0380784
X03022Y0384
Y038715
X03022Y0390233
X02373Y0380449
Y03773
Y037415
Y0371001
X03127Y0347549
Y0344399
Y034125
Y03381
X0313386Y0322047
X0319685Y0324016
X0327559Y0324803
Y0327953
X0327607Y0320957
X0334694
X0334646Y0324803
Y0327953
X034252Y0329921
Y0332283
X0346457
Y0329921
X0352264Y0331102
X0352698Y033408
Y0338017
X0360704Y0337885
X0364335Y0338191
X0364173Y0341732
X0368541Y0341822
X0368272Y0338191
X0372209
X0376146
X0380083
X0380389Y0341822
X0384326
Y0345759
X0380083Y0346065
X03766Y0346
X03761Y03421
X0372515Y0341822
X03723Y03462
X0372441Y035
X0376146Y0350002
X0376771Y0353543
X0380389Y0353633
Y0349696
X03841Y03504
X0384251Y0353543
X0387957Y0353939
Y0350002
X0394882Y035
X0398819
X0399212Y035433
X0402917Y0353939
X0406854
X0411024Y0353543
X0414728Y0353939
X0418665
X0418898Y0350394
Y0346457
X0426772Y0345669
X0426539Y0342128
X0426378Y0338583
X0430709Y0338976
X042992Y0341732
X0427165Y035118
X0426539Y0353939
X0422602
X0422835Y0357874
X0411417Y0359055
X04035Y0358
X0394882Y0357874
Y0361811
X0388976Y0362211
X0388263Y035757
X0380314Y0357873
X03809Y0362
X0372209Y0361813
X0372515Y035757
X0372441Y0353937
X0368272Y0353939
X0368503Y0349999
X0368541Y0345759
X03642Y03467
X0360398Y0350002
X0360704Y0353633
X0356461Y0353939
X0356067Y0350396
X0352698Y0353765
Y0357702
X0356461Y0357876
Y0361813
X0352524
X0364335
X0364641Y035757
X03642Y03706
X037126Y0370472
X0373622
Y0375197
X037126
X03794Y03816
X0394488Y037559
X039685
X0401968
X0404724
X0407874
X0411024
X041063Y0368504
X0408268
X0404724
X0401575
X0397638Y036811
X0394488
X0394487Y0353936
X03954Y03429
X03914Y03428
X03877Y03424
X03883Y0338
X03913Y03384
X03949
X03946Y0334
X0394882Y0330315
X0398674Y0330011
X04033Y03309
X0406854Y0330317
Y0334254
X0410485Y0333948
X04106Y03383
X0406854Y0338191
X040315Y0338189
X0406692Y0345669
X0414961Y0338976
X0419685Y0338189
X0427165Y0331496
X0426378Y0326378
X04315Y03271
X0430709Y0318898
X04307Y03147
X0427559Y0315354
X0426771Y0319291
X0419291Y0315354
X04148Y03225
X0415354Y0327559
X0403543Y0323228
X040315Y0318504
X0394881Y0316141
X0391227Y03157
X0388432Y0322663
X0387957Y032638
X03843Y03262
X0383464Y0322834
X0380083Y0322443
X0376146
X03763Y03261
X0380083Y032638
X0380389Y0330011
X038402Y0330317
X0384326Y0333948
X0387957Y0334254
X03883Y033
X03946Y03261
X03949Y03227
X0383857Y031811
X0379921Y0315354
X0376237Y03154
X0372
X03722Y03227
X0372209Y032638
X0372515Y0330011
X0375984Y0329921
X03765Y03338
X0380083Y0334254
X0372209
X0368504Y0334252
X03678Y0327
X0360704Y0326074
X0356767
Y0322137
X0360704
X0364641
X03603Y0318445
X0355906Y0318898
X03568Y03157
X0353Y03156
X0348031Y0312598
X0347244Y032126
Y0323228
X0343307
Y032126
X0352361Y0323621
X0352362Y0327559
X03567Y03301
X0360704Y0330011
Y0333948
X03603Y03424
X03563Y03426
X0352275Y0346275
X0348031Y0350393
X0340945Y0352362
Y0355118
X0337008
Y0352362
X0335827Y0344094
Y0338583
X0342126Y0338976
Y0344094
X03383Y0371
Y037415
Y0377299
Y0380449
X03461Y0381599
Y0384749
Y037845
Y03753
X03557Y03705
X038402Y0338191
X0442913Y0348031
Y0350394
X044685
Y0348031
X0451575Y0347244
X0451968Y0359449
Y0362992
Y0366535
X0444488
Y0362992
Y0359449
X0434252Y0361811
X0443701Y0328346
Y0325984
X0447638
Y0328346
Y0317323
Y0314961
X0443701
Y0317323
X0455905Y0319291
X0459055
X0462205
X0465354
X0458268Y0335039
X0448425Y0397244
X0373747Y0434847
X0361Y0432
X03607Y04382
Y044064
Y044308
Y044552
Y044796
Y04504
X03618Y04563
X0355906Y0453937
X0361047Y0464247
X0350747Y0467847
X0374047Y0466647
X0373253Y0453553
X0355906Y0434252
X04925Y04035
X04994Y04052
X04952Y03821
X0491567Y0382233
Y03741
X0487933
X04843
X04952Y03741
X0505511Y0360236
X05056Y03573
Y035415
Y0351001
X04868Y03515
Y034835
Y0345201
Y0342051
X04717Y03444
X053275Y03359
X05359
X053905
X0542199
X06136Y03309
X06181Y0329734
Y033215
X06186Y03359
X06181Y033955
Y034215
Y0344734
Y034715
X06186Y03509
X06136Y03459
X0613779Y0358661
X06245Y03575
Y036
Y036265
Y0365
X06186Y03659
X06181Y036955
X0618098Y03719
X06181Y037465
Y037715
X06136Y03759
X06181Y038455
Y038705
Y038965
Y039215
X06186Y03959
Y04009
X06181Y040465
Y040715
Y0409767
Y041215
X06186Y04159
X06131Y04158
X06136Y04059
X06131Y04022
Y03997
Y03971
Y03946
X06136Y03909
X0622441Y0383071
X06003Y040375
Y04069
Y041005
Y0413199
X05801Y0385399
Y038225
Y03791
Y037595
X05472Y04267
X06181Y032715
Y032455
Y031715
Y0314734
X06136Y03159
X0622047Y0318504
X06331Y03198
Y032215
X0635827Y0323622
X06382Y032465
Y032715
Y03298
Y033215
X06331
Y032965
Y03348
Y033715
X0633071Y034252
X06382Y034465
Y034715
Y03498
X0638151Y0352199
X06426Y03559
X06386Y03609
X06331Y035965
Y036215
Y03648
Y036715
Y037465
Y037715
Y037965
Y038215
X06336Y03859
Y03909
X06382Y03898
Y039215
Y038715
Y038465
X06386Y03809
Y03759
X06376Y03709
X06471Y03704
Y03729
Y03755
Y03779
X0642913Y0397638
X06386Y04009
X06381Y040465
Y040715
Y0409734
Y041215
X06336Y04109
Y04159
Y04059
X064252Y041811
X06336Y03559
X06256Y035215
Y03498
Y034715
Y034465
X0642126Y0343307
X06426Y03359
X06386Y03209
Y03159
X0637402Y0312598
X06331Y031465
Y031715
X0544882Y0477165
X0540158
X0535039
X03734Y04847
X03612Y04872
X03603Y04814
Y047916
Y047692
Y047468
Y047244
Y04702
X0350747Y0483547
T04
X03917Y01551
X03957
X03997
X04037
X04077
X04117
X04157
X04197
X04237
X0474803Y0281102
X0473Y028763
X0472835Y0301575
X0514047Y0297387
X05131Y03103
X0467Y0311
X0455905Y029252
Y0288976
X046063Y0275197
X046811Y0281102
X0435Y025664
Y02538
X0428346Y0252756
X04386Y02483
X04161Y02481
X04085Y02515
X04014Y02521
X0393701Y0245669
X03815Y02491
X03775Y02489
Y0252
X03737Y02525
X03775Y0245731
X03897Y02667
X04137Y02388
X02844Y0224488
X02843Y02143
X0272118Y02155
Y02117
X0268244
Y02155
X0264369
Y02117
X0260493
Y02155
X0256618
Y02117
X0256718Y02233
Y02271
X0260594
Y02233
X0264369
X0264469Y02271
X0268369
X0268343Y02233
X0272218
Y02271
X0268503Y0248818
X0266Y02549
X0252362Y0264961
X02438Y02843
X02279Y02953
X02028Y02634
Y02591
X0198
Y02634
X01934
Y02591
X01888
Y02634
X01845
Y02591
X01925Y02213
X01963Y02214
X02Y02213
X02039Y02214
X02476Y02332
X02506
X02491Y0207
X02459Y02056
X01718Y01975
Y01934
Y01894
Y01857
Y01819
X0171251Y0160949
X0188969Y0162169
X018968Y0158421
X0157874Y0287795
X0286221Y030315
X0294094Y0300787
X02986Y03111
X02797Y03099
X01539Y029859
X0154724Y0287795
X0151969
X013182Y02837
X01284Y02948
X01293Y030379
X0126
X01259Y030939
X01294Y030949
X01329
Y030389
X01122Y029739
X01092
X01062
X01031
X00999
X0149213Y0206299
X0144548Y0201452
X01467Y0196852
X01519Y0196652
Y0183252
X01467Y0183352
X01301Y031849
X01264Y031839
X01094Y031499
X01062Y031509
X0103Y031519
X01001
X0152362Y0358661
X01549Y03661
X0137402Y0399606
X01043Y046749
X0101Y046739
X0187008Y0462992
X0186614Y0425197
Y0418898
X02063Y0417
Y04138
X02283Y04098
X0237749
X0240898
X0244048
X0247198
X0256646
X02549Y04308
X0248601
X0239152
X0236002
X0229703
X0226554
X0232853Y0441971
X0242302
X0245439
X0251739
X0289001Y0441771
X029845
X0301599
X0307887
X0304749Y04306
X0311048
X02953
X029215
X0285851
X0282702
X02843Y041
X029381
X0296898Y041
X0300048Y041
X0303198
X02948Y03357
X02873Y03251
X02839
Y03214
X02797Y03134
X024765Y031875
X0224016Y0333465
X01795Y033849
X01762Y033859
Y034209
X01795Y034199
Y034549
X01763
Y034859
X01796
X0170024Y0365965
X0312647Y041
X0333Y04144
Y04179
X0351969Y0418898
Y0426772
X0355512Y0401968
X0357087Y0395276
X0350631Y0389268
X03471Y03893
X03463Y04015
X03662Y04075
X037126Y0395276
X0365748Y0385433
X0356299Y037559
X03912Y0382
Y03858
Y03893
X03872Y03939
X03905Y03983
X03908Y04018
X0414Y04019
X04179Y03966
X04141Y03927
X04139Y03887
X04138Y03843
X0441732Y0388189
X04418Y03404
X04545Y03352
X0352362Y0461417
X0346063Y0466142
X0517323Y0436221
X0516929Y0429134
X05131Y03455
X0527165Y0335433
X0533858Y0327953
X04878Y0339
X04733Y03157
X0480447Y0504247
X047Y05099
Y05216
X04757
X04907Y05217
X04986Y0524
X05039Y05238
X05038Y05026
X04986Y05027
X0491Y05098
X05338Y05159
X05387
X05437
X05485
X05487Y05002
X05437Y04999
X05387Y05004
X05337
X0459747Y0504347
X04553Y0522
X04308Y04927
X04229Y048855
X04156Y04818
X04108Y04786
X0394418Y04943
X0394518Y05023
X03945Y05277
Y05357
X03332Y04735
Y04702
X0317Y04866
X0311
X0305
X0299
X0293
X0287
X0281
X02594Y04865
X02534
X02474
X02414
X02354
X02294
X02234
X02064Y04736
Y04701
X0187008Y0469685
X012621Y048969
X01072Y047349
X01042
X01011Y047339
Y047039
X0106693Y0470472
T05
X01542Y03159
Y0329679
T06
X0493078Y0442863
Y0450737
X0500952
X0508826
X05167
X0524574
X0532448
X0540322
Y0442863
X0532448
X0524574
X05167
X0508826
X0500952
T07
X02698Y03115
Y03215
X03925Y05104
X04025
X04125
X04225
X04325
Y05204
X04225
X04125
X04025
X03925
T08
X0241627Y039582
X0260524
X0269698Y0404088
X0297729Y039582
X0269698Y0443458
X0213595Y045212
X03258
Y0433616
Y0413931
X0316627Y039582
X0269698Y0482828
Y0522198
T09
X0497015Y04468
X0109521Y0505953
X0099679
X0084915Y0514614
Y0522488
X0100663Y0530362
X0108537
T10
X0213595Y0404088
Y0443458
X03258Y0463143
Y0502513
Y0541884
X0213595Y0522198
Y0482828
T11
X0222729Y042023
X0260524
X0278832Y042023
X0316627
T12
X0164Y049029
Y05084
Y052651
T13
X06281Y021135
X06401Y042545
M30
