G04 Layer_Color=32896*
%FSLAX45Y45*%
%MOMM*%
%TF.FileFunction,Legend,Bot*%
%TF.Part,Single*%
G01*
G75*
%TA.AperFunction,NonConductor*%
%ADD57C,0.25400*%
%ADD92C,0.05080*%
%ADD211C,0.10000*%
%ADD212C,0.20000*%
%ADD213C,0.25000*%
%ADD214C,0.10160*%
%ADD215C,0.12700*%
D57*
X11056459Y9999980D02*
G03*
X11056459Y9999980I-10000J0D01*
G01*
X9578900Y9453800D02*
Y9606200D01*
X12941299Y13393372D02*
Y13266412D01*
X12915907Y13241020D01*
X12865125D01*
X12839732Y13266412D01*
Y13393372D01*
X12788949Y13241020D02*
X12738166D01*
X12763557D01*
Y13393372D01*
X12788949Y13367979D01*
X12661990Y13393372D02*
X12560423D01*
Y13367979D01*
X12661990Y13266412D01*
Y13241020D01*
X14907260Y13378131D02*
Y13251172D01*
X14881868Y13225780D01*
X14831085D01*
X14805693Y13251172D01*
Y13378131D01*
X14653342D02*
X14754909D01*
Y13301955D01*
X14704126Y13327347D01*
X14678734D01*
X14653342Y13301955D01*
Y13251172D01*
X14678734Y13225780D01*
X14729517D01*
X14754909Y13251172D01*
D92*
X11389360Y7369840D02*
Y7390160D01*
X11468100Y7369840D02*
Y7390160D01*
X9984740Y7561580D02*
Y7581900D01*
X10063480Y7561580D02*
Y7581900D01*
X3962398Y5090160D02*
X3982718D01*
X3962398Y5168900D02*
X3982718D01*
X11548098Y7369840D02*
Y7390160D01*
X11469358Y7369840D02*
Y7390160D01*
X16380460Y9916160D02*
Y9936480D01*
X16301720Y9916160D02*
Y9936480D01*
Y10307320D02*
Y10327640D01*
X16380460Y10307320D02*
Y10327640D01*
X11066780Y7263720D02*
Y7284040D01*
X11145520Y7263720D02*
Y7284040D01*
X11521440Y8364220D02*
Y8384540D01*
X11442700Y8364220D02*
Y8384540D01*
X11638098Y8389840D02*
Y8410160D01*
X11559358Y8389840D02*
Y8410160D01*
X7851140Y7871460D02*
Y7891780D01*
X7772400Y7871460D02*
Y7891780D01*
X7764780Y7871460D02*
Y7891780D01*
X7686040Y7871460D02*
Y7891780D01*
X11424920Y8705260D02*
Y8725580D01*
X11346180Y8705260D02*
Y8725580D01*
X11508740Y8705260D02*
Y8725580D01*
X11430000Y8705260D02*
Y8725580D01*
X8058098Y8129840D02*
Y8150160D01*
X7979358Y8129840D02*
Y8150160D01*
X8138100Y8129840D02*
Y8150160D01*
X8059360Y8129840D02*
Y8150160D01*
X9227820Y10297160D02*
Y10317480D01*
X9149080Y10297160D02*
Y10317480D01*
X9144000Y10297160D02*
Y10317480D01*
X9065260Y10297160D02*
Y10317480D01*
X9138918Y9364980D02*
X9159238D01*
X9138918Y9443720D02*
X9159238D01*
X9603740Y13515340D02*
Y13535660D01*
X9525000Y13515340D02*
Y13535660D01*
X9756140Y13515340D02*
Y13535660D01*
X9677400Y13515340D02*
Y13535660D01*
X10129520Y13505180D02*
Y13525500D01*
X10050780Y13505180D02*
Y13525500D01*
X10279380Y13507719D02*
Y13528040D01*
X10200640Y13507719D02*
Y13528040D01*
X9674860Y13208000D02*
Y13228320D01*
X9753600Y13208000D02*
Y13228320D01*
X10198100Y13208000D02*
Y13228320D01*
X10276840Y13208000D02*
Y13228320D01*
X3685540Y4787900D02*
Y4808220D01*
X3764280Y4787900D02*
Y4808220D01*
X3817620Y4787900D02*
Y4808220D01*
X3896360Y4787900D02*
Y4808220D01*
X6676858Y6090920D02*
X6697178D01*
X6676858Y6169660D02*
X6697178D01*
X7047700Y5085080D02*
Y5105400D01*
X7126440Y5085080D02*
Y5105400D01*
X6631138Y5074920D02*
X6651458D01*
X6631138Y5153660D02*
X6651458D01*
X6676858Y6083300D02*
X6697178D01*
X6676858Y6004560D02*
X6697178D01*
X7035000Y5085080D02*
Y5105400D01*
X6956260Y5085080D02*
Y5105400D01*
X6631138Y5067300D02*
X6651458D01*
X6631138Y4988560D02*
X6651458D01*
X9542778Y9751060D02*
X9563098D01*
X9542778Y9829800D02*
X9563098D01*
X8945878Y9834880D02*
X8966198D01*
X8945878Y9756140D02*
X8966198D01*
X9088098Y9639840D02*
Y9660160D01*
X9009358Y9639840D02*
Y9660160D01*
D211*
X3875958Y5218480D02*
G03*
X3875958Y5218480I-5000J0D01*
G01*
X13226300Y10923280D02*
G03*
X13226300Y10892280I0J-15500D01*
G01*
X14781520Y13145020D02*
G03*
X14812520Y13145020I15500J0D01*
G01*
X12846060Y12973801D02*
G03*
X12815060Y12973801I-15500J0D01*
G01*
X15157460Y12943320D02*
G03*
X15126460Y12943320I-15500J0D01*
G01*
X17049741Y13132320D02*
G03*
X17080740Y13132320I15500J0D01*
G01*
X13452058Y8366660D02*
X13507939D01*
X13452058Y8473340D02*
X13507939D01*
X10468578Y9366820D02*
Y9453180D01*
X10331418Y9366820D02*
Y9453180D01*
X10171420Y9366820D02*
Y9453180D01*
X10308580Y9366820D02*
Y9453180D01*
X8706819Y8478580D02*
X8793179D01*
X8706819Y8341420D02*
X8793179D01*
X8726819Y8121420D02*
X8813179D01*
X8726819Y8258580D02*
X8813179D01*
X9992998Y6746340D02*
Y6892840D01*
X10244458Y6753960D02*
Y6888660D01*
X9489438Y6703060D02*
Y6849560D01*
X9740898Y6710680D02*
Y6845380D01*
X8935720Y9936480D02*
Y9992360D01*
X9042400Y9936480D02*
Y9992360D01*
X10561099Y10129000D02*
X10616979D01*
X10561099Y10022320D02*
X10616979D01*
X9832339Y9951720D02*
X9888219D01*
X9832339Y10058400D02*
X9888219D01*
X10216179Y9685020D02*
X10272059D01*
X10216179Y9578340D02*
X10272059D01*
X11193780Y6416040D02*
Y6471920D01*
X11087100Y6416040D02*
Y6471920D01*
X10627360Y6418580D02*
Y6474460D01*
X10520680Y6418580D02*
Y6474460D01*
X10251440Y6289040D02*
Y6344920D01*
X10358120Y6289040D02*
Y6344920D01*
X9636760Y6289040D02*
Y6344920D01*
X9743440Y6289040D02*
Y6344920D01*
X8575038Y11020040D02*
X8625838D01*
X8600438Y10994640D02*
Y11045440D01*
X5049518Y11552940D02*
X5100318D01*
X5074918Y11527540D02*
Y11578340D01*
X8575038Y11336020D02*
X8625838D01*
X8600438Y11310620D02*
Y11361420D01*
X5049138Y11196320D02*
X5099938D01*
X5074538Y11170920D02*
Y11221720D01*
X9248700Y9428400D02*
X9578900D01*
X9731300D01*
X9248700D02*
Y9631600D01*
X9578900D01*
X9731300Y9428400D02*
Y9631600D01*
X9578900D02*
X9731300D01*
X11084559Y9987280D02*
X11440159D01*
X11084559Y9720580D02*
Y9987280D01*
Y9720580D02*
X11440159D01*
Y9987280D01*
X8724898Y10680699D02*
Y10764519D01*
X8521698Y10680699D02*
Y10764519D01*
X4945378Y11795761D02*
Y11879581D01*
X5148578Y11795761D02*
Y11879581D01*
X8508998Y11793220D02*
Y11877040D01*
X8712198Y11793220D02*
Y11877040D01*
X5168518Y10657921D02*
Y10741741D01*
X4965318Y10657921D02*
Y10741741D01*
X3729758Y5191880D02*
X3859759D01*
X3729758Y5041880D02*
X3859759D01*
Y5191880D01*
X3729758Y5041880D02*
Y5191880D01*
X13433337Y8702060D02*
Y8757940D01*
X13326659Y8702060D02*
Y8757940D01*
X12027781Y7785100D02*
Y7840980D01*
X11921101Y7785100D02*
Y7840980D01*
X13338422Y8067040D02*
Y8122920D01*
X13445100Y8067040D02*
Y8122920D01*
X10609579Y6136640D02*
X10665459D01*
X10609579Y6243320D02*
X10665459D01*
X10609579Y6116320D02*
X10665459D01*
X10609579Y6009640D02*
X10665459D01*
X13040300Y10850880D02*
Y10965180D01*
Y10850880D02*
X13084399D01*
X13131400D01*
X13226300D01*
X13040300Y10965180D02*
X13226300D01*
Y10850880D02*
Y10923280D01*
Y10892280D02*
Y10965180D01*
X4929219Y5527760D02*
X5033479D01*
Y5118820D02*
Y5527760D01*
X4833479Y5118820D02*
X5033479D01*
X4833479D02*
Y5527760D01*
X4929219D01*
X7271220Y4409440D02*
Y4465320D01*
X7377900Y4409440D02*
Y4465320D01*
X9568180Y9936480D02*
Y9992360D01*
X9461500Y9936480D02*
Y9992360D01*
X14853920Y13050121D02*
Y13145020D01*
Y12959019D02*
Y13003120D01*
X14739619Y12959019D02*
Y13145020D01*
Y12959019D02*
X14853920D01*
Y13003120D02*
Y13050121D01*
X14781520Y13145020D02*
X14853920D01*
X14739619D02*
X14812520D01*
X12773660Y12973801D02*
Y13068700D01*
Y13115700D02*
Y13159801D01*
X12887959Y12973801D02*
Y13159801D01*
X12773660D02*
X12887959D01*
X12773660Y13068700D02*
Y13115700D01*
Y12973801D02*
X12846060D01*
X12815060D02*
X12887959D01*
X15085060Y13085220D02*
Y13129320D01*
Y13038220D02*
Y13085220D01*
Y12943320D02*
X15157460D01*
X15085060D02*
Y13038220D01*
X15199361Y12943320D02*
Y13129320D01*
X15085060D02*
X15199361D01*
X15126460Y12943320D02*
X15199361D01*
X17122141Y12946320D02*
Y12990421D01*
Y13037421D01*
X17049741Y13132320D02*
X17122141D01*
Y13037421D02*
Y13132320D01*
X17007840Y12946320D02*
Y13132320D01*
Y12946320D02*
X17122141D01*
X17007840Y13132320D02*
X17080740D01*
D212*
X12649847Y8844280D02*
G03*
X12713347Y8844280I31750J0D01*
G01*
X8763638Y11196640D02*
X8843638D01*
X8763638Y11046640D02*
X8843638D01*
X4831718Y11376340D02*
X4911718D01*
X4831718Y11526340D02*
X4911718D01*
X8763638Y11362620D02*
X8843638D01*
X8763638Y11512620D02*
X8843638D01*
X4831338Y11169720D02*
X4911338D01*
X4831338Y11019720D02*
X4911338D01*
X13061977Y7828280D02*
Y8844280D01*
X12307597Y7828280D02*
X13061977D01*
X12307597D02*
Y8844280D01*
X12649847D01*
X12713347D02*
X13061977D01*
X9215679Y9939240D02*
X9285679D01*
X9215679Y9649240D02*
X9285679D01*
Y9939240D01*
X9215679Y9649240D02*
Y9939240D01*
X10019119Y10163660D02*
X10081619D01*
X10019119Y10101160D02*
Y10163660D01*
Y9733660D02*
Y9796160D01*
Y9733660D02*
X10081619D01*
X10386619Y10163660D02*
X10449119D01*
Y10101160D02*
Y10163660D01*
X10386619Y9733660D02*
X10449119D01*
Y9796160D01*
X10800639Y6568660D02*
X10870639D01*
X10800639Y6278660D02*
X10870639D01*
Y6568660D01*
X10800639Y6278660D02*
Y6568660D01*
X9914179Y6479760D02*
X9984179D01*
X9914179Y6189760D02*
X9984179D01*
Y6479760D01*
X9914179Y6189760D02*
Y6479760D01*
D213*
X9385679Y9974240D02*
G03*
X9385679Y9974240I-12500J0D01*
G01*
X10526619Y10148660D02*
G03*
X10526619Y10148660I-12500J0D01*
G01*
X10970639Y6603660D02*
G03*
X10970639Y6603660I-12500J0D01*
G01*
X10084179Y6514760D02*
G03*
X10084179Y6514760I-12500J0D01*
G01*
D214*
X9719520Y8139840D02*
Y8160160D01*
X9780480Y8139840D02*
Y8160160D01*
X11254738Y10137140D02*
X11275058D01*
X11254738Y10076180D02*
X11275058D01*
X11076940Y8671560D02*
X11097260D01*
X11076940Y8732520D02*
X11097260D01*
X10809520Y8839840D02*
Y8860160D01*
X10870480Y8839840D02*
Y8860160D01*
X10609578Y8844280D02*
Y8864600D01*
X10670538Y8844280D02*
Y8864600D01*
X10419518Y9039840D02*
Y9060160D01*
X10480478Y9039840D02*
Y9060160D01*
X10876278Y7345680D02*
Y7366000D01*
X10815318Y7345680D02*
Y7366000D01*
X10614658Y7447280D02*
Y7467600D01*
X10675618Y7447280D02*
Y7467600D01*
X10678158Y7934960D02*
Y7955280D01*
X10617198Y7934960D02*
Y7955280D01*
X10276838Y8143240D02*
Y8163560D01*
X10215878Y8143240D02*
Y8163560D01*
X9119518Y6969840D02*
Y6990160D01*
X9180478Y6969840D02*
Y6990160D01*
Y7439840D02*
Y7460160D01*
X9119518Y7439840D02*
Y7460160D01*
X8919518Y7549840D02*
Y7570160D01*
X8980478Y7549840D02*
Y7570160D01*
X9372598Y7838440D02*
Y7858760D01*
X9311638Y7838440D02*
Y7858760D01*
X10972798Y8021320D02*
Y8041640D01*
X10911838Y8021320D02*
Y8041640D01*
X10568938Y8244840D02*
Y8265160D01*
X10507978Y8244840D02*
Y8265160D01*
X10873738Y8354060D02*
Y8374380D01*
X10812778Y8354060D02*
Y8374380D01*
X10579840Y8640480D02*
X10600160D01*
X10579840Y8579520D02*
X10600160D01*
X9093198Y8122920D02*
X9113518D01*
X9093198Y8061960D02*
X9113518D01*
X9390378Y8524240D02*
Y8544560D01*
X9329418Y8524240D02*
Y8544560D01*
X9077958Y8674100D02*
X9098278D01*
X9077958Y8735060D02*
X9098278D01*
X8979840Y8440480D02*
X9000160D01*
X8979840Y8379520D02*
X9000160D01*
X9730738Y8323580D02*
Y8343900D01*
X9791698Y8323580D02*
Y8343900D01*
X9890758Y8234680D02*
Y8255000D01*
X9829798Y8234680D02*
Y8255000D01*
X9428478Y8323580D02*
Y8343900D01*
X9489438Y8323580D02*
Y8343900D01*
X9593578Y8516620D02*
Y8536940D01*
X9532618Y8516620D02*
Y8536940D01*
X10066018Y7787640D02*
X10086338D01*
X10066018Y7848600D02*
X10086338D01*
X9890478Y7749840D02*
Y7770160D01*
X9829518Y7749840D02*
Y7770160D01*
X9969498Y8049260D02*
X9989818D01*
X9969498Y7988300D02*
X9989818D01*
X10050778Y8321040D02*
Y8341360D01*
X9989818Y8321040D02*
Y8341360D01*
X10055860Y8516620D02*
Y8536940D01*
X9994900Y8516620D02*
Y8536940D01*
X9895838Y8422640D02*
Y8442960D01*
X9834878Y8422640D02*
Y8442960D01*
X9794238Y8938260D02*
Y8958580D01*
X9733278Y8938260D02*
Y8958580D01*
X9395458Y8925560D02*
Y8945880D01*
X9334498Y8925560D02*
Y8945880D01*
X9639298Y9126220D02*
Y9146540D01*
X9700258Y9126220D02*
Y9146540D01*
X9235438Y9118600D02*
Y9138920D01*
X9296398Y9118600D02*
Y9138920D01*
X9542778Y9662160D02*
X9563098D01*
X9542778Y9723120D02*
X9563098D01*
X10226038Y6281420D02*
Y6301740D01*
X10165078Y6281420D02*
Y6301740D01*
X9522458Y6286500D02*
Y6306820D01*
X9461498Y6286500D02*
Y6306820D01*
X8735058Y10546079D02*
X8755378D01*
X8735058Y10485119D02*
X8755378D01*
X8735058Y10955019D02*
X8755378D01*
X8735058Y10894059D02*
X8755378D01*
X4914898Y12014201D02*
X4935218D01*
X4914898Y12075161D02*
X4935218D01*
X4925058Y11602721D02*
X4945378D01*
X4925058Y11663681D02*
X4945378D01*
X8707118Y12080240D02*
X8727438D01*
X8707118Y12019280D02*
X8727438D01*
X8722358Y11648440D02*
X8742678D01*
X8722358Y11587480D02*
X8742678D01*
X4939918Y10464881D02*
X4960238D01*
X4939918Y10525841D02*
X4960238D01*
X4934838Y10878901D02*
X4955158D01*
X4934838Y10939861D02*
X4955158D01*
X6532078Y4986020D02*
Y5006340D01*
X6471118Y4986020D02*
Y5006340D01*
X6516838Y6154420D02*
Y6174740D01*
X6577798Y6154420D02*
Y6174740D01*
X6946098Y4983480D02*
Y5003800D01*
X6885138Y4983480D02*
Y5003800D01*
X6959840Y6140480D02*
X6980160D01*
X6959840Y6079520D02*
X6980160D01*
D215*
X9487100Y10287680D02*
X9476521Y10298260D01*
Y10319420D01*
X9487100Y10330000D01*
X9529420D01*
X9540000Y10319420D01*
Y10298260D01*
X9529420Y10287680D01*
X9540000Y10266520D02*
Y10245361D01*
Y10255941D01*
X9476521D01*
X9487100Y10266520D01*
Y10213621D02*
X9476521Y10203041D01*
Y10181881D01*
X9487100Y10171301D01*
X9497680D01*
X9508260Y10181881D01*
Y10192461D01*
Y10181881D01*
X9518840Y10171301D01*
X9529420D01*
X9540000Y10181881D01*
Y10203041D01*
X9529420Y10213621D01*
X9487100Y10150141D02*
X9476521Y10139562D01*
Y10118402D01*
X9487100Y10107822D01*
X9529420D01*
X9540000Y10118402D01*
Y10139562D01*
X9529420Y10150141D01*
X9487100D01*
X7332320Y6097100D02*
X7321740Y6086520D01*
X7300580D01*
X7290000Y6097100D01*
Y6139420D01*
X7300580Y6150000D01*
X7321740D01*
X7332320Y6139420D01*
X7353479D02*
X7364059Y6150000D01*
X7385219D01*
X7395799Y6139420D01*
Y6097100D01*
X7385219Y6086520D01*
X7364059D01*
X7353479Y6097100D01*
Y6107680D01*
X7364059Y6118260D01*
X7395799D01*
X7416959Y6097100D02*
X7427539Y6086520D01*
X7448699D01*
X7459278Y6097100D01*
Y6107680D01*
X7448699Y6118260D01*
X7438118D01*
X7448699D01*
X7459278Y6128840D01*
Y6139420D01*
X7448699Y6150000D01*
X7427539D01*
X7416959Y6139420D01*
X6877099Y4837680D02*
X6866519Y4848260D01*
Y4869420D01*
X6877099Y4880000D01*
X6919418D01*
X6929998Y4869420D01*
Y4848260D01*
X6919418Y4837680D01*
X6877099Y4816520D02*
X6866519Y4805941D01*
Y4784781D01*
X6877099Y4774201D01*
X6887678D01*
X6898258Y4784781D01*
X6908838Y4774201D01*
X6919418D01*
X6929998Y4784781D01*
Y4805941D01*
X6919418Y4816520D01*
X6908838D01*
X6898258Y4805941D01*
X6887678Y4816520D01*
X6877099D01*
X6898258Y4805941D02*
Y4784781D01*
X6866519Y4710721D02*
X6877099Y4731881D01*
X6898258Y4753041D01*
X6919418D01*
X6929998Y4742461D01*
Y4721301D01*
X6919418Y4710721D01*
X6908838D01*
X6898258Y4721301D01*
Y4753041D01*
X6564657Y6321200D02*
X6575237Y6310620D01*
Y6289460D01*
X6564657Y6278880D01*
X6522338D01*
X6511758Y6289460D01*
Y6310620D01*
X6522338Y6321200D01*
X6564657Y6342359D02*
X6575237Y6352939D01*
Y6374099D01*
X6564657Y6384679D01*
X6554078D01*
X6543498Y6374099D01*
X6532918Y6384679D01*
X6522338D01*
X6511758Y6374099D01*
Y6352939D01*
X6522338Y6342359D01*
X6532918D01*
X6543498Y6352939D01*
X6554078Y6342359D01*
X6564657D01*
X6543498Y6352939D02*
Y6374099D01*
X6564657Y6405839D02*
X6575237Y6416419D01*
Y6437579D01*
X6564657Y6448159D01*
X6554078D01*
X6543498Y6437579D01*
Y6426999D01*
Y6437579D01*
X6532918Y6448159D01*
X6522338D01*
X6511758Y6437579D01*
Y6416419D01*
X6522338Y6405839D01*
X6487098Y4837680D02*
X6476518Y4848260D01*
Y4869420D01*
X6487098Y4880000D01*
X6529418D01*
X6539998Y4869420D01*
Y4848260D01*
X6529418Y4837680D01*
X6476518Y4816520D02*
Y4774201D01*
X6487098D01*
X6529418Y4816520D01*
X6539998D01*
X6476518Y4753041D02*
Y4710721D01*
X6487098D01*
X6529418Y4753041D01*
X6539998D01*
X7307100Y4707680D02*
X7296521Y4718260D01*
Y4739420D01*
X7307100Y4750000D01*
X7349420D01*
X7360000Y4739420D01*
Y4718260D01*
X7349420Y4707680D01*
Y4686520D02*
X7360000Y4675941D01*
Y4654781D01*
X7349420Y4644201D01*
X7307100D01*
X7296521Y4654781D01*
Y4675941D01*
X7307100Y4686520D01*
X7317680D01*
X7328260Y4675941D01*
Y4644201D01*
X7360000Y4580721D02*
Y4623041D01*
X7317680Y4580721D01*
X7307100D01*
X7296521Y4591301D01*
Y4612461D01*
X7307100Y4623041D01*
X4911060Y5025701D02*
X4900480Y5036281D01*
Y5057440D01*
X4911060Y5068020D01*
X4953379D01*
X4963959Y5057440D01*
Y5036281D01*
X4953379Y5025701D01*
X4911060Y5004541D02*
X4900480Y4993961D01*
Y4972801D01*
X4911060Y4962221D01*
X4921639D01*
X4932219Y4972801D01*
X4942799Y4962221D01*
X4953379D01*
X4963959Y4972801D01*
Y4993961D01*
X4953379Y5004541D01*
X4942799D01*
X4932219Y4993961D01*
X4921639Y5004541D01*
X4911060D01*
X4932219Y4993961D02*
Y4972801D01*
X4963959Y4941061D02*
Y4919902D01*
Y4930482D01*
X4900480D01*
X4911060Y4941061D01*
X9939999Y6583479D02*
Y6530580D01*
X9929419Y6520000D01*
X9908259D01*
X9897679Y6530580D01*
Y6583479D01*
X9876519Y6520000D02*
X9855360D01*
X9865940D01*
Y6583479D01*
X9876519Y6572899D01*
X9781300Y6583479D02*
X9802460Y6572899D01*
X9823620Y6551740D01*
Y6530580D01*
X9813040Y6520000D01*
X9791880D01*
X9781300Y6530580D01*
Y6541160D01*
X9791880Y6551740D01*
X9823620D01*
X10909999Y6683479D02*
Y6630580D01*
X10899419Y6620000D01*
X10878259D01*
X10867679Y6630580D01*
Y6683479D01*
X10846520Y6620000D02*
X10825360D01*
X10835940D01*
Y6683479D01*
X10846520Y6672900D01*
X10751300Y6683479D02*
X10793620D01*
Y6651740D01*
X10772460Y6662320D01*
X10761880D01*
X10751300Y6651740D01*
Y6630580D01*
X10761880Y6620000D01*
X10783040D01*
X10793620Y6630580D01*
X10525539Y10337259D02*
Y10284360D01*
X10514959Y10273780D01*
X10493799D01*
X10483220Y10284360D01*
Y10337259D01*
X10462060Y10273780D02*
X10440900D01*
X10451480D01*
Y10337259D01*
X10462060Y10326680D01*
X10377420Y10273780D02*
Y10337259D01*
X10409160Y10305520D01*
X10366841D01*
X9331959Y10058379D02*
Y10005480D01*
X9321379Y9994900D01*
X9300219D01*
X9289639Y10005480D01*
Y10058379D01*
X9268480Y9994900D02*
X9247320D01*
X9257900D01*
Y10058379D01*
X9268480Y10047800D01*
X9215580Y9994900D02*
X9194420D01*
X9205000D01*
Y10058379D01*
X9215580Y10047800D01*
X17103600Y12780060D02*
X17050700D01*
X17040120Y12790640D01*
Y12811800D01*
X17050700Y12822380D01*
X17103600D01*
Y12843539D02*
Y12885860D01*
X17093021D01*
X17050700Y12843539D01*
X17040120D01*
X15245059Y12775741D02*
X15192160D01*
X15181580Y12786321D01*
Y12807481D01*
X15192160Y12818060D01*
X15245059D01*
Y12881540D02*
X15234480Y12860381D01*
X15213319Y12839220D01*
X15192160D01*
X15181580Y12849800D01*
Y12870959D01*
X15192160Y12881540D01*
X15202740D01*
X15213319Y12870959D01*
Y12839220D01*
X12970000Y10983479D02*
Y10930580D01*
X12959419Y10920000D01*
X12938260D01*
X12927679Y10930580D01*
Y10983479D01*
X12906522Y10972900D02*
X12895941Y10983479D01*
X12874780D01*
X12864201Y10972900D01*
Y10962320D01*
X12874780Y10951740D01*
X12885361D01*
X12874780D01*
X12864201Y10941160D01*
Y10930580D01*
X12874780Y10920000D01*
X12895941D01*
X12906522Y10930580D01*
X13069597Y8976339D02*
Y8923440D01*
X13059018Y8912860D01*
X13037859D01*
X13027278Y8923440D01*
Y8976339D01*
X13006117Y8912860D02*
X12984958D01*
X12995538D01*
Y8976339D01*
X13006117Y8965760D01*
X10959999Y6030000D02*
Y6093479D01*
X10928259D01*
X10917679Y6082899D01*
Y6061740D01*
X10928259Y6051160D01*
X10959999D01*
X10938839D02*
X10917679Y6030000D01*
X10896519Y6082899D02*
X10885940Y6093479D01*
X10864780D01*
X10854200Y6082899D01*
Y6072320D01*
X10864780Y6061740D01*
X10854200Y6051160D01*
Y6040580D01*
X10864780Y6030000D01*
X10885940D01*
X10896519Y6040580D01*
Y6051160D01*
X10885940Y6061740D01*
X10896519Y6072320D01*
Y6082899D01*
X10885940Y6061740D02*
X10864780D01*
X10833040Y6082899D02*
X10822460Y6093479D01*
X10801300D01*
X10790720Y6082899D01*
Y6072320D01*
X10801300Y6061740D01*
X10811880D01*
X10801300D01*
X10790720Y6051160D01*
Y6040580D01*
X10801300Y6030000D01*
X10822460D01*
X10833040Y6040580D01*
X10939999Y6170000D02*
Y6233480D01*
X10908259D01*
X10897679Y6222900D01*
Y6201740D01*
X10908259Y6191160D01*
X10939999D01*
X10918839D02*
X10897679Y6170000D01*
X10876520Y6222900D02*
X10865940Y6233480D01*
X10844780D01*
X10834200Y6222900D01*
Y6212320D01*
X10844780Y6201740D01*
X10834200Y6191160D01*
Y6180580D01*
X10844780Y6170000D01*
X10865940D01*
X10876520Y6180580D01*
Y6191160D01*
X10865940Y6201740D01*
X10876520Y6212320D01*
Y6222900D01*
X10865940Y6201740D02*
X10844780D01*
X10813040Y6170000D02*
X10791880D01*
X10802460D01*
Y6233480D01*
X10813040Y6222900D01*
X8980522Y9728437D02*
X8917043D01*
Y9696697D01*
X8927622Y9686117D01*
X8948782D01*
X8959362Y9696697D01*
Y9728437D01*
Y9707277D02*
X8980522Y9686117D01*
X8917043Y9664958D02*
Y9622638D01*
X8927622D01*
X8969942Y9664958D01*
X8980522D01*
X8927622Y9601478D02*
X8917043Y9590898D01*
Y9569738D01*
X8927622Y9559158D01*
X8938202D01*
X8948782Y9569738D01*
X8959362Y9559158D01*
X8969942D01*
X8980522Y9569738D01*
Y9590898D01*
X8969942Y9601478D01*
X8959362D01*
X8948782Y9590898D01*
X8938202Y9601478D01*
X8927622D01*
X8948782Y9590898D02*
Y9569738D01*
X8739998Y9770000D02*
Y9833479D01*
X8708258D01*
X8697678Y9822900D01*
Y9801740D01*
X8708258Y9791160D01*
X8739998D01*
X8718838D02*
X8697678Y9770000D01*
X8676519Y9833479D02*
X8634199D01*
Y9822900D01*
X8676519Y9780580D01*
Y9770000D01*
X8613039Y9833479D02*
X8570719D01*
Y9822900D01*
X8613039Y9780580D01*
Y9770000D01*
X9859998Y9750000D02*
Y9813479D01*
X9828258D01*
X9817678Y9802900D01*
Y9781740D01*
X9828258Y9771160D01*
X9859998D01*
X9838838D02*
X9817678Y9750000D01*
X9796519Y9813479D02*
X9754199D01*
Y9802900D01*
X9796519Y9760580D01*
Y9750000D01*
X9690720Y9813479D02*
X9711879Y9802900D01*
X9733039Y9781740D01*
Y9760580D01*
X9722459Y9750000D01*
X9701299D01*
X9690720Y9760580D01*
Y9771160D01*
X9701299Y9781740D01*
X9733039D01*
X6359998Y5000000D02*
Y5063479D01*
X6328258D01*
X6317678Y5052899D01*
Y5031740D01*
X6328258Y5021160D01*
X6359998D01*
X6338838D02*
X6317678Y5000000D01*
X6254199Y5063479D02*
X6296519D01*
Y5031740D01*
X6275359Y5042320D01*
X6264779D01*
X6254199Y5031740D01*
Y5010580D01*
X6264779Y5000000D01*
X6285939D01*
X6296519Y5010580D01*
X6233039Y5052899D02*
X6222459Y5063479D01*
X6201299D01*
X6190719Y5052899D01*
Y5042320D01*
X6201299Y5031740D01*
X6190719Y5021160D01*
Y5010580D01*
X6201299Y5000000D01*
X6222459D01*
X6233039Y5010580D01*
Y5021160D01*
X6222459Y5031740D01*
X6233039Y5042320D01*
Y5052899D01*
X6222459Y5031740D02*
X6201299D01*
X7035800Y4993640D02*
X6972321D01*
Y4961900D01*
X6982900Y4951320D01*
X7004060D01*
X7014640Y4961900D01*
Y4993640D01*
Y4972480D02*
X7035800Y4951320D01*
X6972321Y4887841D02*
Y4930161D01*
X7004060D01*
X6993480Y4909001D01*
Y4898421D01*
X7004060Y4887841D01*
X7025220D01*
X7035800Y4898421D01*
Y4919581D01*
X7025220Y4930161D01*
X6972321Y4866681D02*
Y4824361D01*
X6982900D01*
X7025220Y4866681D01*
X7035800D01*
X7249998Y6000000D02*
Y6063479D01*
X7218258D01*
X7207678Y6052900D01*
Y6031740D01*
X7218258Y6021160D01*
X7249998D01*
X7228838D02*
X7207678Y6000000D01*
X7144199Y6063479D02*
X7186519D01*
Y6031740D01*
X7165359Y6042320D01*
X7154779D01*
X7144199Y6031740D01*
Y6010580D01*
X7154779Y6000000D01*
X7175939D01*
X7186519Y6010580D01*
X7080719Y6063479D02*
X7101879Y6052900D01*
X7123039Y6031740D01*
Y6010580D01*
X7112459Y6000000D01*
X7091299D01*
X7080719Y6010580D01*
Y6021160D01*
X7091299Y6031740D01*
X7123039D01*
X6359998Y5090000D02*
Y5153479D01*
X6328258D01*
X6317678Y5142900D01*
Y5121740D01*
X6328258Y5111160D01*
X6359998D01*
X6338838D02*
X6317678Y5090000D01*
X6254199Y5153479D02*
X6296519D01*
Y5121740D01*
X6275359Y5132320D01*
X6264779D01*
X6254199Y5121740D01*
Y5100580D01*
X6264779Y5090000D01*
X6285939D01*
X6296519Y5100580D01*
X6201299Y5090000D02*
Y5153479D01*
X6233039Y5121740D01*
X6190719D01*
X7218680Y5171440D02*
X7155201D01*
Y5139700D01*
X7165780Y5129120D01*
X7186940D01*
X7197520Y5139700D01*
Y5171440D01*
Y5150280D02*
X7218680Y5129120D01*
X7155201Y5065641D02*
Y5107961D01*
X7186940D01*
X7176360Y5086801D01*
Y5076221D01*
X7186940Y5065641D01*
X7208100D01*
X7218680Y5076221D01*
Y5097381D01*
X7208100Y5107961D01*
X7165780Y5044481D02*
X7155201Y5033901D01*
Y5012741D01*
X7165780Y5002161D01*
X7176360D01*
X7186940Y5012741D01*
Y5023321D01*
Y5012741D01*
X7197520Y5002161D01*
X7208100D01*
X7218680Y5012741D01*
Y5033901D01*
X7208100Y5044481D01*
X7249998Y6090000D02*
Y6153479D01*
X7218258D01*
X7207678Y6142900D01*
Y6121740D01*
X7218258Y6111160D01*
X7249998D01*
X7228838D02*
X7207678Y6090000D01*
X7144199Y6153479D02*
X7186519D01*
Y6121740D01*
X7165359Y6132320D01*
X7154779D01*
X7144199Y6121740D01*
Y6100580D01*
X7154779Y6090000D01*
X7175939D01*
X7186519Y6100580D01*
X7080719Y6090000D02*
X7123039D01*
X7080719Y6132320D01*
Y6142900D01*
X7091299Y6153479D01*
X7112459D01*
X7123039Y6142900D01*
X4090000Y4760000D02*
Y4823479D01*
X4058260D01*
X4047680Y4812899D01*
Y4791740D01*
X4058260Y4781160D01*
X4090000D01*
X4068840D02*
X4047680Y4760000D01*
X3994781D02*
Y4823479D01*
X4026521Y4791740D01*
X3984201D01*
X3963041Y4823479D02*
X3920721D01*
Y4812899D01*
X3963041Y4770580D01*
Y4760000D01*
X3650000D02*
Y4823479D01*
X3618260D01*
X3607680Y4812899D01*
Y4791740D01*
X3618260Y4781160D01*
X3650000D01*
X3628840D02*
X3607680Y4760000D01*
X3554781D02*
Y4823479D01*
X3586521Y4791740D01*
X3544201D01*
X3480722Y4823479D02*
X3501881Y4812899D01*
X3523041Y4791740D01*
Y4770580D01*
X3512461Y4760000D01*
X3491301D01*
X3480722Y4770580D01*
Y4781160D01*
X3491301Y4791740D01*
X3523041D01*
X10156720Y13232899D02*
Y13296379D01*
X10124980D01*
X10114400Y13285799D01*
Y13264639D01*
X10124980Y13254060D01*
X10156720D01*
X10135560D02*
X10114400Y13232899D01*
X10061501D02*
Y13296379D01*
X10093241Y13264639D01*
X10050921D01*
X9987442Y13296379D02*
X10029761D01*
Y13264639D01*
X10008602Y13275220D01*
X9998021D01*
X9987442Y13264639D01*
Y13243480D01*
X9998021Y13232899D01*
X10019181D01*
X10029761Y13243480D01*
X9636720Y13242900D02*
Y13306380D01*
X9604980D01*
X9594400Y13295799D01*
Y13274640D01*
X9604980Y13264059D01*
X9636720D01*
X9615560D02*
X9594400Y13242900D01*
X9541501D02*
Y13306380D01*
X9573241Y13274640D01*
X9530921D01*
X9478021Y13242900D02*
Y13306380D01*
X9509761Y13274640D01*
X9467442D01*
X10216720Y13652901D02*
X10280199D01*
Y13684641D01*
X10269620Y13695219D01*
X10248460D01*
X10237880Y13684641D01*
Y13652901D01*
Y13674060D02*
X10216720Y13695219D01*
Y13748119D02*
X10280199D01*
X10248460Y13716379D01*
Y13758699D01*
X10216720Y13779858D02*
Y13801019D01*
Y13790439D01*
X10280199D01*
X10269620Y13779858D01*
X10056720Y13652901D02*
X10120199D01*
Y13684641D01*
X10109620Y13695219D01*
X10088460D01*
X10077880Y13684641D01*
Y13652901D01*
Y13674060D02*
X10056720Y13695219D01*
Y13748119D02*
X10120199D01*
X10088460Y13716379D01*
Y13758699D01*
X10109620Y13779858D02*
X10120199Y13790439D01*
Y13811600D01*
X10109620Y13822179D01*
X10067300D01*
X10056720Y13811600D01*
Y13790439D01*
X10067300Y13779858D01*
X10109620D01*
X9686720Y13662900D02*
X9750199D01*
Y13694640D01*
X9739620Y13705220D01*
X9718460D01*
X9707880Y13694640D01*
Y13662900D01*
Y13684061D02*
X9686720Y13705220D01*
X9739620Y13726379D02*
X9750199Y13736958D01*
Y13758119D01*
X9739620Y13768700D01*
X9729040D01*
X9718460Y13758119D01*
Y13747539D01*
Y13758119D01*
X9707880Y13768700D01*
X9697300D01*
X9686720Y13758119D01*
Y13736958D01*
X9697300Y13726379D01*
Y13789859D02*
X9686720Y13800439D01*
Y13821599D01*
X9697300Y13832179D01*
X9739620D01*
X9750199Y13821599D01*
Y13800439D01*
X9739620Y13789859D01*
X9729040D01*
X9718460Y13800439D01*
Y13832179D01*
X9526720Y13662900D02*
X9590200D01*
Y13694640D01*
X9579620Y13705220D01*
X9558460D01*
X9547880Y13694640D01*
Y13662900D01*
Y13684061D02*
X9526720Y13705220D01*
X9579620Y13726379D02*
X9590200Y13736958D01*
Y13758119D01*
X9579620Y13768700D01*
X9569040D01*
X9558460Y13758119D01*
Y13747539D01*
Y13758119D01*
X9547880Y13768700D01*
X9537300D01*
X9526720Y13758119D01*
Y13736958D01*
X9537300Y13726379D01*
X9579620Y13789859D02*
X9590200Y13800439D01*
Y13821599D01*
X9579620Y13832179D01*
X9569040D01*
X9558460Y13821599D01*
X9547880Y13832179D01*
X9537300D01*
X9526720Y13821599D01*
Y13800439D01*
X9537300Y13789859D01*
X9547880D01*
X9558460Y13800439D01*
X9569040Y13789859D01*
X9579620D01*
X9558460Y13800439D02*
Y13821599D01*
X9229998Y9270000D02*
Y9333479D01*
X9198258D01*
X9187678Y9322900D01*
Y9301740D01*
X9198258Y9291160D01*
X9229998D01*
X9208838D02*
X9187678Y9270000D01*
X9166519Y9322900D02*
X9155939Y9333479D01*
X9134779D01*
X9124199Y9322900D01*
Y9312320D01*
X9134779Y9301740D01*
X9145359D01*
X9134779D01*
X9124199Y9291160D01*
Y9280580D01*
X9134779Y9270000D01*
X9155939D01*
X9166519Y9280580D01*
X9103039Y9333479D02*
X9060719D01*
Y9322900D01*
X9103039Y9280580D01*
Y9270000D01*
X9170000Y10600000D02*
X9106521D01*
Y10568260D01*
X9117100Y10557680D01*
X9138260D01*
X9148840Y10568260D01*
Y10600000D01*
Y10578840D02*
X9170000Y10557680D01*
X9117100Y10536520D02*
X9106521Y10525941D01*
Y10504781D01*
X9117100Y10494201D01*
X9127680D01*
X9138260Y10504781D01*
Y10515361D01*
Y10504781D01*
X9148840Y10494201D01*
X9159420D01*
X9170000Y10504781D01*
Y10525941D01*
X9159420Y10536520D01*
X9170000Y10441301D02*
X9106521D01*
X9138260Y10473041D01*
Y10430721D01*
X9270000Y10600000D02*
X9206521D01*
Y10568260D01*
X9217100Y10557680D01*
X9238260D01*
X9248840Y10568260D01*
Y10600000D01*
Y10578840D02*
X9270000Y10557680D01*
X9217100Y10536520D02*
X9206521Y10525941D01*
Y10504781D01*
X9217100Y10494201D01*
X9227680D01*
X9238260Y10504781D01*
Y10515361D01*
Y10504781D01*
X9248840Y10494201D01*
X9259420D01*
X9270000Y10504781D01*
Y10525941D01*
X9259420Y10536520D01*
X9217100Y10473041D02*
X9206521Y10462461D01*
Y10441301D01*
X9217100Y10430721D01*
X9227680D01*
X9238260Y10441301D01*
Y10451881D01*
Y10441301D01*
X9248840Y10430721D01*
X9259420D01*
X9270000Y10441301D01*
Y10462461D01*
X9259420Y10473041D01*
X8150000Y8440000D02*
X8086521D01*
Y8408260D01*
X8097100Y8397680D01*
X8118260D01*
X8128840Y8408260D01*
Y8440000D01*
Y8418840D02*
X8150000Y8397680D01*
X8097100Y8376520D02*
X8086521Y8365941D01*
Y8344781D01*
X8097100Y8334201D01*
X8107680D01*
X8118260Y8344781D01*
Y8355361D01*
Y8344781D01*
X8128840Y8334201D01*
X8139420D01*
X8150000Y8344781D01*
Y8365941D01*
X8139420Y8376520D01*
X8097100Y8313041D02*
X8086521Y8302461D01*
Y8281301D01*
X8097100Y8270721D01*
X8139420D01*
X8150000Y8281301D01*
Y8302461D01*
X8139420Y8313041D01*
X8097100D01*
X8049998Y8420000D02*
X7986518D01*
Y8388260D01*
X7997098Y8377680D01*
X8018258D01*
X8028838Y8388260D01*
Y8420000D01*
Y8398840D02*
X8049998Y8377680D01*
Y8314201D02*
Y8356520D01*
X8007678Y8314201D01*
X7997098D01*
X7986518Y8324781D01*
Y8345941D01*
X7997098Y8356520D01*
X8039418Y8293041D02*
X8049998Y8282461D01*
Y8261301D01*
X8039418Y8250721D01*
X7997098D01*
X7986518Y8261301D01*
Y8282461D01*
X7997098Y8293041D01*
X8007678D01*
X8018258Y8282461D01*
Y8250721D01*
X11710000Y8690000D02*
Y8753479D01*
X11678260D01*
X11667680Y8742899D01*
Y8721740D01*
X11678260Y8711160D01*
X11710000D01*
X11688840D02*
X11667680Y8690000D01*
X11604201D02*
X11646521D01*
X11604201Y8732320D01*
Y8742899D01*
X11614781Y8753479D01*
X11635941D01*
X11646521Y8742899D01*
X11583041D02*
X11572461Y8753479D01*
X11551301D01*
X11540721Y8742899D01*
Y8732320D01*
X11551301Y8721740D01*
X11540721Y8711160D01*
Y8700580D01*
X11551301Y8690000D01*
X11572461D01*
X11583041Y8700580D01*
Y8711160D01*
X11572461Y8721740D01*
X11583041Y8732320D01*
Y8742899D01*
X11572461Y8721740D02*
X11551301D01*
X11310000Y8720000D02*
Y8783480D01*
X11278260D01*
X11267680Y8772900D01*
Y8751740D01*
X11278260Y8741160D01*
X11310000D01*
X11288840D02*
X11267680Y8720000D01*
X11204201D02*
X11246521D01*
X11204201Y8762320D01*
Y8772900D01*
X11214781Y8783480D01*
X11235941D01*
X11246521Y8772900D01*
X11183041Y8783480D02*
X11140721D01*
Y8772900D01*
X11183041Y8730580D01*
Y8720000D01*
X7700000Y8020000D02*
X7763480D01*
Y8051740D01*
X7752900Y8062320D01*
X7731740D01*
X7721160Y8051740D01*
Y8020000D01*
Y8041160D02*
X7700000Y8062320D01*
Y8125799D02*
Y8083479D01*
X7742320Y8125799D01*
X7752900D01*
X7763480Y8115219D01*
Y8094059D01*
X7752900Y8083479D01*
X7763480Y8189279D02*
X7752900Y8168119D01*
X7731740Y8146959D01*
X7710580D01*
X7700000Y8157539D01*
Y8178699D01*
X7710580Y8189279D01*
X7721160D01*
X7731740Y8178699D01*
Y8146959D01*
X7790000Y8020000D02*
X7853479D01*
Y8051740D01*
X7842899Y8062320D01*
X7821740D01*
X7811160Y8051740D01*
Y8020000D01*
Y8041160D02*
X7790000Y8062320D01*
Y8125799D02*
Y8083479D01*
X7832320Y8125799D01*
X7842899D01*
X7853479Y8115219D01*
Y8094059D01*
X7842899Y8083479D01*
X7853479Y8189279D02*
Y8146959D01*
X7821740D01*
X7832320Y8168119D01*
Y8178699D01*
X7821740Y8189279D01*
X7800580D01*
X7790000Y8178699D01*
Y8157539D01*
X7800580Y8146959D01*
X11839998Y8370000D02*
Y8433479D01*
X11808258D01*
X11797678Y8422900D01*
Y8401740D01*
X11808258Y8391160D01*
X11839998D01*
X11818838D02*
X11797678Y8370000D01*
X11734199D02*
X11776518D01*
X11734199Y8412320D01*
Y8422900D01*
X11744779Y8433479D01*
X11765939D01*
X11776518Y8422900D01*
X11681299Y8370000D02*
Y8433479D01*
X11713039Y8401740D01*
X11670719D01*
X11400000Y8400000D02*
Y8463479D01*
X11368260D01*
X11357680Y8452900D01*
Y8431740D01*
X11368260Y8421160D01*
X11400000D01*
X11378840D02*
X11357680Y8400000D01*
X11294201D02*
X11336521D01*
X11294201Y8442320D01*
Y8452900D01*
X11304781Y8463479D01*
X11325941D01*
X11336521Y8452900D01*
X11273041D02*
X11262461Y8463479D01*
X11241301D01*
X11230722Y8452900D01*
Y8442320D01*
X11241301Y8431740D01*
X11251881D01*
X11241301D01*
X11230722Y8421160D01*
Y8410580D01*
X11241301Y8400000D01*
X11262461D01*
X11273041Y8410580D01*
X11330000Y7230000D02*
Y7293479D01*
X11298260D01*
X11287680Y7282900D01*
Y7261740D01*
X11298260Y7251160D01*
X11330000D01*
X11308840D02*
X11287680Y7230000D01*
X11224201D02*
X11266521D01*
X11224201Y7272320D01*
Y7282900D01*
X11234781Y7293479D01*
X11255941D01*
X11266521Y7282900D01*
X11203041Y7230000D02*
X11181881D01*
X11192461D01*
Y7293479D01*
X11203041Y7282900D01*
X16593820Y10276840D02*
Y10340319D01*
X16562080D01*
X16551500Y10329740D01*
Y10308580D01*
X16562080Y10298000D01*
X16593820D01*
X16572659D02*
X16551500Y10276840D01*
X16488020D02*
X16530341D01*
X16488020Y10319160D01*
Y10329740D01*
X16498601Y10340319D01*
X16519762D01*
X16530341Y10329740D01*
X16466861D02*
X16456281Y10340319D01*
X16435121D01*
X16424541Y10329740D01*
Y10287420D01*
X16435121Y10276840D01*
X16456281D01*
X16466861Y10287420D01*
Y10329740D01*
X16573500Y9893300D02*
Y9956779D01*
X16541760D01*
X16531180Y9946200D01*
Y9925040D01*
X16541760Y9914460D01*
X16573500D01*
X16552341D02*
X16531180Y9893300D01*
X16510020D02*
X16488861D01*
X16499442D01*
Y9956779D01*
X16510020Y9946200D01*
X16457121Y9903880D02*
X16446541Y9893300D01*
X16425381D01*
X16414801Y9903880D01*
Y9946200D01*
X16425381Y9956779D01*
X16446541D01*
X16457121Y9946200D01*
Y9935620D01*
X16446541Y9925040D01*
X16414801D01*
X11489998Y7490000D02*
X11553477D01*
Y7521740D01*
X11542897Y7532320D01*
X11521738D01*
X11511158Y7521740D01*
Y7490000D01*
Y7511160D02*
X11489998Y7532320D01*
Y7553479D02*
Y7574639D01*
Y7564059D01*
X11553477D01*
X11542897Y7553479D01*
Y7606379D02*
X11553477Y7616959D01*
Y7638119D01*
X11542897Y7648699D01*
X11532318D01*
X11521738Y7638119D01*
X11511158Y7648699D01*
X11500578D01*
X11489998Y7638119D01*
Y7616959D01*
X11500578Y7606379D01*
X11511158D01*
X11521738Y7616959D01*
X11532318Y7606379D01*
X11542897D01*
X11521738Y7616959D02*
Y7638119D01*
X4249998Y5100000D02*
Y5163479D01*
X4218258D01*
X4207678Y5152900D01*
Y5131740D01*
X4218258Y5121160D01*
X4249998D01*
X4228838D02*
X4207678Y5100000D01*
X4186518D02*
X4165359D01*
X4175939D01*
Y5163479D01*
X4186518Y5152900D01*
X4133619Y5163479D02*
X4091299D01*
Y5152900D01*
X4133619Y5110580D01*
Y5100000D01*
X9956800Y7584440D02*
X9893321D01*
Y7552700D01*
X9903900Y7542120D01*
X9925060D01*
X9935640Y7552700D01*
Y7584440D01*
Y7563280D02*
X9956800Y7542120D01*
Y7520961D02*
Y7499801D01*
Y7510381D01*
X9893321D01*
X9903900Y7520961D01*
Y7468061D02*
X9893321Y7457481D01*
Y7436321D01*
X9903900Y7425741D01*
X9914480D01*
X9925060Y7436321D01*
Y7446901D01*
Y7436321D01*
X9935640Y7425741D01*
X9946220D01*
X9956800Y7436321D01*
Y7457481D01*
X9946220Y7468061D01*
X13600000Y8070000D02*
Y8133480D01*
X13568260D01*
X13557680Y8122900D01*
Y8101740D01*
X13568260Y8091160D01*
X13600000D01*
X13578841D02*
X13557680Y8070000D01*
X13536520Y8133480D02*
X13494202D01*
Y8122900D01*
X13536520Y8080580D01*
Y8070000D01*
X11880000Y7760000D02*
Y7823479D01*
X11848260D01*
X11837680Y7812900D01*
Y7791740D01*
X11848260Y7781160D01*
X11880000D01*
X11858840D02*
X11837680Y7760000D01*
X11816521Y7812900D02*
X11805941Y7823479D01*
X11784781D01*
X11774201Y7812900D01*
Y7802320D01*
X11784781Y7791740D01*
X11795361D01*
X11784781D01*
X11774201Y7781160D01*
Y7770580D01*
X11784781Y7760000D01*
X11805941D01*
X11816521Y7770580D01*
X13589998Y8700000D02*
Y8763480D01*
X13558258D01*
X13547678Y8752900D01*
Y8731740D01*
X13558258Y8721160D01*
X13589998D01*
X13568839D02*
X13547678Y8700000D01*
X13484200D02*
X13526518D01*
X13484200Y8742320D01*
Y8752900D01*
X13494778Y8763480D01*
X13515939D01*
X13526518Y8752900D01*
X3677678Y5250580D02*
Y5292899D01*
X3688258Y5303479D01*
X3709418D01*
X3719998Y5292899D01*
Y5250580D01*
X3709418Y5240000D01*
X3688258D01*
X3698838Y5261160D02*
X3677678Y5240000D01*
X3688258D02*
X3677678Y5250580D01*
X3656518Y5240000D02*
X3635359D01*
X3645939D01*
Y5303479D01*
X3656518Y5292899D01*
X4919998Y10733479D02*
Y10670000D01*
X4877678D01*
X4856519Y10722900D02*
X4845939Y10733479D01*
X4824779D01*
X4814199Y10722900D01*
Y10712320D01*
X4824779Y10701740D01*
X4814199Y10691160D01*
Y10680580D01*
X4824779Y10670000D01*
X4845939D01*
X4856519Y10680580D01*
Y10691160D01*
X4845939Y10701740D01*
X4856519Y10712320D01*
Y10722900D01*
X4845939Y10701740D02*
X4824779D01*
X8849998Y11973479D02*
Y11910000D01*
X8807678D01*
X8786519Y11973479D02*
X8744199D01*
Y11962900D01*
X8786519Y11920580D01*
Y11910000D01*
X5309998Y11863479D02*
Y11800000D01*
X5267678D01*
X5204199Y11863479D02*
X5225359Y11852900D01*
X5246519Y11831740D01*
Y11810580D01*
X5235939Y11800000D01*
X5214779D01*
X5204199Y11810580D01*
Y11821160D01*
X5214779Y11831740D01*
X5246519D01*
X8869998Y10753479D02*
Y10690000D01*
X8827678D01*
X8764199Y10753479D02*
X8806519D01*
Y10721740D01*
X8785359Y10732320D01*
X8774779D01*
X8764199Y10721740D01*
Y10700580D01*
X8774779Y10690000D01*
X8795939D01*
X8806519Y10700580D01*
X11620499Y10060919D02*
X11599339D01*
X11609919D01*
Y9997440D01*
X11620499D01*
X11599339D01*
X11525280Y10050340D02*
X11535860Y10060919D01*
X11557020D01*
X11567599Y10050340D01*
Y10008020D01*
X11557020Y9997440D01*
X11535860D01*
X11525280Y10008020D01*
X11504120Y9997440D02*
X11482960D01*
X11493540D01*
Y10060919D01*
X11504120Y10050340D01*
X9880000Y9563479D02*
Y9500000D01*
X9848260D01*
X9837680Y9510580D01*
Y9552900D01*
X9848260Y9563479D01*
X9880000D01*
X9816521Y9552900D02*
X9805941Y9563479D01*
X9784781D01*
X9774201Y9552900D01*
Y9542320D01*
X9784781Y9531740D01*
X9774201Y9521160D01*
Y9510580D01*
X9784781Y9500000D01*
X9805941D01*
X9816521Y9510580D01*
Y9521160D01*
X9805941Y9531740D01*
X9816521Y9542320D01*
Y9552900D01*
X9805941Y9531740D02*
X9784781D01*
X4757678Y10932900D02*
X4768258Y10943480D01*
X4789418D01*
X4799998Y10932900D01*
Y10890580D01*
X4789418Y10880000D01*
X4768258D01*
X4757678Y10890580D01*
X4736519Y10880000D02*
X4715359D01*
X4725939D01*
Y10943480D01*
X4736519Y10932900D01*
X4641299Y10880000D02*
X4683619D01*
X4641299Y10922320D01*
Y10932900D01*
X4651879Y10943480D01*
X4673039D01*
X4683619Y10932900D01*
X4620140Y10890580D02*
X4609560Y10880000D01*
X4588400D01*
X4577820Y10890580D01*
Y10932900D01*
X4588400Y10943480D01*
X4609560D01*
X4620140Y10932900D01*
Y10922320D01*
X4609560Y10911740D01*
X4577820D01*
X4787678Y10512899D02*
X4798258Y10523479D01*
X4819418D01*
X4829998Y10512899D01*
Y10470580D01*
X4819418Y10460000D01*
X4798258D01*
X4787678Y10470580D01*
X4766519Y10460000D02*
X4745359D01*
X4755939D01*
Y10523479D01*
X4766519Y10512899D01*
X4671299Y10460000D02*
X4713619D01*
X4671299Y10502320D01*
Y10512899D01*
X4681879Y10523479D01*
X4703039D01*
X4713619Y10512899D01*
X4650140D02*
X4639560Y10523479D01*
X4618400D01*
X4607820Y10512899D01*
Y10502320D01*
X4618400Y10491740D01*
X4607820Y10481160D01*
Y10470580D01*
X4618400Y10460000D01*
X4639560D01*
X4650140Y10470580D01*
Y10481160D01*
X4639560Y10491740D01*
X4650140Y10502320D01*
Y10512899D01*
X4639560Y10491740D02*
X4618400D01*
X4587678Y11122900D02*
X4598258Y11133479D01*
X4619418D01*
X4629998Y11122900D01*
Y11080580D01*
X4619418Y11070000D01*
X4598258D01*
X4587678Y11080580D01*
X4566518Y11070000D02*
X4545359D01*
X4555939D01*
Y11133479D01*
X4566518Y11122900D01*
X4471299Y11070000D02*
X4513619D01*
X4471299Y11112320D01*
Y11122900D01*
X4481879Y11133479D01*
X4503039D01*
X4513619Y11122900D01*
X4450139Y11133479D02*
X4407820D01*
Y11122900D01*
X4450139Y11080580D01*
Y11070000D01*
X9027678Y11642899D02*
X9038258Y11653479D01*
X9059418D01*
X9069998Y11642899D01*
Y11600580D01*
X9059418Y11590000D01*
X9038258D01*
X9027678Y11600580D01*
X9006518Y11590000D02*
X8985359D01*
X8995939D01*
Y11653479D01*
X9006518Y11642899D01*
X8911299Y11590000D02*
X8953619D01*
X8911299Y11632320D01*
Y11642899D01*
X8921879Y11653479D01*
X8943039D01*
X8953619Y11642899D01*
X8847820Y11653479D02*
X8868980Y11642899D01*
X8890139Y11621740D01*
Y11600580D01*
X8879560Y11590000D01*
X8858400D01*
X8847820Y11600580D01*
Y11611160D01*
X8858400Y11621740D01*
X8890139D01*
X9007678Y12072900D02*
X9018258Y12083480D01*
X9039418D01*
X9049998Y12072900D01*
Y12030580D01*
X9039418Y12020000D01*
X9018258D01*
X9007678Y12030580D01*
X8986518Y12020000D02*
X8965359D01*
X8975939D01*
Y12083480D01*
X8986518Y12072900D01*
X8891299Y12020000D02*
X8933619D01*
X8891299Y12062320D01*
Y12072900D01*
X8901879Y12083480D01*
X8923039D01*
X8933619Y12072900D01*
X8827820Y12083480D02*
X8870139D01*
Y12051740D01*
X8848980Y12062320D01*
X8838400D01*
X8827820Y12051740D01*
Y12030580D01*
X8838400Y12020000D01*
X8859560D01*
X8870139Y12030580D01*
X8517678Y11422900D02*
X8528258Y11433480D01*
X8549418D01*
X8559998Y11422900D01*
Y11380580D01*
X8549418Y11370000D01*
X8528258D01*
X8517678Y11380580D01*
X8496518Y11370000D02*
X8475359D01*
X8485939D01*
Y11433480D01*
X8496518Y11422900D01*
X8401299Y11370000D02*
X8443619D01*
X8401299Y11412320D01*
Y11422900D01*
X8411879Y11433480D01*
X8433039D01*
X8443619Y11422900D01*
X8348400Y11370000D02*
Y11433480D01*
X8380139Y11401740D01*
X8337820D01*
X4767678Y11662899D02*
X4778258Y11673479D01*
X4799418D01*
X4809998Y11662899D01*
Y11620580D01*
X4799418Y11610000D01*
X4778258D01*
X4767678Y11620580D01*
X4746519Y11610000D02*
X4725359D01*
X4735939D01*
Y11673479D01*
X4746519Y11662899D01*
X4651299Y11610000D02*
X4693619D01*
X4651299Y11652320D01*
Y11662899D01*
X4661879Y11673479D01*
X4683039D01*
X4693619Y11662899D01*
X4630140D02*
X4619560Y11673479D01*
X4598400D01*
X4587820Y11662899D01*
Y11652320D01*
X4598400Y11641740D01*
X4608980D01*
X4598400D01*
X4587820Y11631160D01*
Y11620580D01*
X4598400Y11610000D01*
X4619560D01*
X4630140Y11620580D01*
X4747678Y12072900D02*
X4758258Y12083480D01*
X4779418D01*
X4789998Y12072900D01*
Y12030580D01*
X4779418Y12020000D01*
X4758258D01*
X4747678Y12030580D01*
X4726519Y12020000D02*
X4705359D01*
X4715939D01*
Y12083480D01*
X4726519Y12072900D01*
X4631299Y12020000D02*
X4673619D01*
X4631299Y12062320D01*
Y12072900D01*
X4641879Y12083480D01*
X4663039D01*
X4673619Y12072900D01*
X4567820Y12020000D02*
X4610140D01*
X4567820Y12062320D01*
Y12072900D01*
X4578400Y12083480D01*
X4599560D01*
X4610140Y12072900D01*
X4587678Y11472900D02*
X4598258Y11483479D01*
X4619418D01*
X4629998Y11472900D01*
Y11430580D01*
X4619418Y11420000D01*
X4598258D01*
X4587678Y11430580D01*
X4566518Y11420000D02*
X4545359D01*
X4555939D01*
Y11483479D01*
X4566518Y11472900D01*
X4471299Y11420000D02*
X4513619D01*
X4471299Y11462320D01*
Y11472900D01*
X4481879Y11483479D01*
X4503039D01*
X4513619Y11472900D01*
X4450139Y11420000D02*
X4428980D01*
X4439560D01*
Y11483479D01*
X4450139Y11472900D01*
X9047678Y10952900D02*
X9058258Y10963479D01*
X9079418D01*
X9089998Y10952900D01*
Y10910580D01*
X9079418Y10900000D01*
X9058258D01*
X9047678Y10910580D01*
X9026519Y10900000D02*
X9005359D01*
X9015939D01*
Y10963479D01*
X9026519Y10952900D01*
X8931299Y10900000D02*
X8973619D01*
X8931299Y10942320D01*
Y10952900D01*
X8941879Y10963479D01*
X8963039D01*
X8973619Y10952900D01*
X8910140D02*
X8899560Y10963479D01*
X8878400D01*
X8867820Y10952900D01*
Y10910580D01*
X8878400Y10900000D01*
X8899560D01*
X8910140Y10910580D01*
Y10952900D01*
X9027678Y10542900D02*
X9038258Y10553480D01*
X9059418D01*
X9069998Y10542900D01*
Y10500580D01*
X9059418Y10490000D01*
X9038258D01*
X9027678Y10500580D01*
X9006518Y10490000D02*
X8985359D01*
X8995939D01*
Y10553480D01*
X9006518Y10542900D01*
X8953619Y10490000D02*
X8932459D01*
X8943039D01*
Y10553480D01*
X8953619Y10542900D01*
X8900719Y10500580D02*
X8890139Y10490000D01*
X8868979D01*
X8858400Y10500580D01*
Y10542900D01*
X8868979Y10553480D01*
X8890139D01*
X8900719Y10542900D01*
Y10532320D01*
X8890139Y10521740D01*
X8858400D01*
X8517678Y11202900D02*
X8528258Y11213479D01*
X8549418D01*
X8559998Y11202900D01*
Y11160580D01*
X8549418Y11150000D01*
X8528258D01*
X8517678Y11160580D01*
X8496518Y11150000D02*
X8475359D01*
X8485939D01*
Y11213479D01*
X8496518Y11202900D01*
X8443619Y11150000D02*
X8422459D01*
X8433039D01*
Y11213479D01*
X8443619Y11202900D01*
X8390719D02*
X8380139Y11213479D01*
X8358979D01*
X8348400Y11202900D01*
Y11192320D01*
X8358979Y11181740D01*
X8348400Y11171160D01*
Y11160580D01*
X8358979Y11150000D01*
X8380139D01*
X8390719Y11160580D01*
Y11171160D01*
X8380139Y11181740D01*
X8390719Y11192320D01*
Y11202900D01*
X8380139Y11181740D02*
X8358979D01*
X9667101Y6127680D02*
X9656521Y6138260D01*
Y6159420D01*
X9667101Y6170000D01*
X9709420D01*
X9720000Y6159420D01*
Y6138260D01*
X9709420Y6127680D01*
X9720000Y6106521D02*
Y6085361D01*
Y6095941D01*
X9656521D01*
X9667101Y6106521D01*
X9720000Y6053621D02*
Y6032461D01*
Y6043041D01*
X9656521D01*
X9667101Y6053621D01*
X9656521Y6000722D02*
Y5958402D01*
X9667101D01*
X9709420Y6000722D01*
X9720000D01*
X9467098Y6127680D02*
X9456519Y6138260D01*
Y6159420D01*
X9467098Y6170000D01*
X9509418D01*
X9519998Y6159420D01*
Y6138260D01*
X9509418Y6127680D01*
X9519998Y6106521D02*
Y6085361D01*
Y6095941D01*
X9456519D01*
X9467098Y6106521D01*
X9519998Y6053621D02*
Y6032461D01*
Y6043041D01*
X9456519D01*
X9467098Y6053621D01*
X9456519Y5958402D02*
X9467098Y5979562D01*
X9488258Y6000722D01*
X9509418D01*
X9519998Y5990142D01*
Y5968982D01*
X9509418Y5958402D01*
X9498838D01*
X9488258Y5968982D01*
Y6000722D01*
X10177099Y6127680D02*
X10166519Y6138260D01*
Y6159420D01*
X10177099Y6170000D01*
X10219418D01*
X10229998Y6159420D01*
Y6138260D01*
X10219418Y6127680D01*
X10229998Y6106521D02*
Y6085361D01*
Y6095941D01*
X10166519D01*
X10177099Y6106521D01*
X10229998Y6053621D02*
Y6032461D01*
Y6043041D01*
X10166519D01*
X10177099Y6053621D01*
X10166519Y5958402D02*
Y6000722D01*
X10198258D01*
X10187678Y5979562D01*
Y5968982D01*
X10198258Y5958402D01*
X10219418D01*
X10229998Y5968982D01*
Y5990142D01*
X10219418Y6000722D01*
X10287100Y6117680D02*
X10276520Y6128260D01*
Y6149420D01*
X10287100Y6160000D01*
X10329420D01*
X10340000Y6149420D01*
Y6128260D01*
X10329420Y6117680D01*
X10340000Y6096521D02*
Y6075361D01*
Y6085941D01*
X10276520D01*
X10287100Y6096521D01*
X10340000Y6043621D02*
Y6022461D01*
Y6033041D01*
X10276520D01*
X10287100Y6043621D01*
X10340000Y5958982D02*
X10276520D01*
X10308260Y5990722D01*
Y5948402D01*
X10592900Y6642320D02*
X10603479Y6631740D01*
Y6610580D01*
X10592900Y6600000D01*
X10550580D01*
X10540000Y6610580D01*
Y6631740D01*
X10550580Y6642320D01*
X10540000Y6663479D02*
Y6684639D01*
Y6674059D01*
X10603479D01*
X10592900Y6663479D01*
X10540000Y6716379D02*
Y6737539D01*
Y6726959D01*
X10603479D01*
X10592900Y6716379D01*
Y6769279D02*
X10603479Y6779858D01*
Y6801018D01*
X10592900Y6811598D01*
X10582320D01*
X10571740Y6801018D01*
Y6790438D01*
Y6801018D01*
X10561160Y6811598D01*
X10550580D01*
X10540000Y6801018D01*
Y6779858D01*
X10550580Y6769279D01*
X11127100Y6187680D02*
X11116521Y6198260D01*
Y6219420D01*
X11127100Y6230000D01*
X11169420D01*
X11180000Y6219420D01*
Y6198260D01*
X11169420Y6187680D01*
X11180000Y6166521D02*
Y6145361D01*
Y6155941D01*
X11116521D01*
X11127100Y6166521D01*
X11180000Y6113621D02*
Y6092461D01*
Y6103041D01*
X11116521D01*
X11127100Y6113621D01*
X11180000Y6018402D02*
Y6060721D01*
X11137680Y6018402D01*
X11127100D01*
X11116521Y6028982D01*
Y6050142D01*
X11127100Y6060721D01*
X10567679Y9652900D02*
X10578259Y9663480D01*
X10599419D01*
X10609999Y9652900D01*
Y9610580D01*
X10599419Y9600000D01*
X10578259D01*
X10567679Y9610580D01*
X10546520Y9600000D02*
X10525360D01*
X10535940D01*
Y9663480D01*
X10546520Y9652900D01*
X10493620D02*
X10483040Y9663480D01*
X10461880D01*
X10451300Y9652900D01*
Y9610580D01*
X10461880Y9600000D01*
X10483040D01*
X10493620Y9610580D01*
Y9652900D01*
X10430141Y9663480D02*
X10387821D01*
Y9652900D01*
X10430141Y9610580D01*
Y9600000D01*
X9807799Y10169720D02*
X9818379Y10180299D01*
X9839539D01*
X9850119Y10169720D01*
Y10127400D01*
X9839539Y10116820D01*
X9818379D01*
X9807799Y10127400D01*
X9786640Y10116820D02*
X9765480D01*
X9776060D01*
Y10180299D01*
X9786640Y10169720D01*
X9733740D02*
X9723160Y10180299D01*
X9702000D01*
X9691420Y10169720D01*
Y10127400D01*
X9702000Y10116820D01*
X9723160D01*
X9733740Y10127400D01*
Y10169720D01*
X9670261Y10116820D02*
X9649101D01*
X9659681D01*
Y10180299D01*
X9670261Y10169720D01*
X10907400Y10105700D02*
X10917979Y10116279D01*
X10939139D01*
X10949719Y10105700D01*
Y10063380D01*
X10939139Y10052800D01*
X10917979D01*
X10907400Y10063380D01*
X10886240Y10052800D02*
X10865080D01*
X10875660D01*
Y10116279D01*
X10886240Y10105700D01*
X10833340D02*
X10822760Y10116279D01*
X10801600D01*
X10791021Y10105700D01*
Y10063380D01*
X10801600Y10052800D01*
X10822760D01*
X10833340Y10063380D01*
Y10105700D01*
X10769861D02*
X10759281Y10116279D01*
X10738121D01*
X10727541Y10105700D01*
Y10063380D01*
X10738121Y10052800D01*
X10759281D01*
X10769861Y10063380D01*
Y10105700D01*
X9817678Y9712900D02*
X9828258Y9723479D01*
X9849418D01*
X9859998Y9712900D01*
Y9670580D01*
X9849418Y9660000D01*
X9828258D01*
X9817678Y9670580D01*
X9796519D02*
X9785939Y9660000D01*
X9764779D01*
X9754199Y9670580D01*
Y9712900D01*
X9764779Y9723479D01*
X9785939D01*
X9796519Y9712900D01*
Y9702320D01*
X9785939Y9691740D01*
X9754199D01*
X9733039Y9670580D02*
X9722459Y9660000D01*
X9701299D01*
X9690720Y9670580D01*
Y9712900D01*
X9701299Y9723479D01*
X9722459D01*
X9733039Y9712900D01*
Y9702320D01*
X9722459Y9691740D01*
X9690720D01*
X8907101Y10237680D02*
X8896521Y10248260D01*
Y10269420D01*
X8907101Y10280000D01*
X8949420D01*
X8960000Y10269420D01*
Y10248260D01*
X8949420Y10237680D01*
Y10216521D02*
X8960000Y10205941D01*
Y10184781D01*
X8949420Y10174201D01*
X8907101D01*
X8896521Y10184781D01*
Y10205941D01*
X8907101Y10216521D01*
X8917680D01*
X8928260Y10205941D01*
Y10174201D01*
X8907101Y10153041D02*
X8896521Y10142461D01*
Y10121301D01*
X8907101Y10110721D01*
X8917680D01*
X8928260Y10121301D01*
X8938840Y10110721D01*
X8949420D01*
X8960000Y10121301D01*
Y10142461D01*
X8949420Y10153041D01*
X8938840D01*
X8928260Y10142461D01*
X8917680Y10153041D01*
X8907101D01*
X8928260Y10142461D02*
Y10121301D01*
X9237098Y8967680D02*
X9226519Y8978260D01*
Y8999420D01*
X9237098Y9010000D01*
X9279418D01*
X9289998Y8999420D01*
Y8978260D01*
X9279418Y8967680D01*
X9226519Y8946521D02*
Y8904201D01*
X9237098D01*
X9279418Y8946521D01*
X9289998D01*
Y8883041D02*
Y8861881D01*
Y8872461D01*
X9226519D01*
X9237098Y8883041D01*
X9688198Y9276780D02*
X9698777Y9266200D01*
Y9245040D01*
X9688198Y9234460D01*
X9645878D01*
X9635298Y9245040D01*
Y9266200D01*
X9645878Y9276780D01*
X9698777Y9297939D02*
Y9340259D01*
X9688198D01*
X9645878Y9297939D01*
X9635298D01*
X9688198Y9361419D02*
X9698777Y9371999D01*
Y9393159D01*
X9688198Y9403739D01*
X9645878D01*
X9635298Y9393159D01*
Y9371999D01*
X9645878Y9361419D01*
X9688198D01*
X9391297Y9088160D02*
X9401877Y9077580D01*
Y9056420D01*
X9391297Y9045840D01*
X9348978D01*
X9338398Y9056420D01*
Y9077580D01*
X9348978Y9088160D01*
X9401877Y9151639D02*
X9391297Y9130479D01*
X9370138Y9109320D01*
X9348978D01*
X9338398Y9119899D01*
Y9141059D01*
X9348978Y9151639D01*
X9359558D01*
X9370138Y9141059D01*
Y9109320D01*
X9401877Y9172799D02*
Y9215119D01*
X9391297D01*
X9348978Y9172799D01*
X9338398D01*
X9783777Y9105940D02*
X9794357Y9095360D01*
Y9074200D01*
X9783777Y9063620D01*
X9741458D01*
X9730878Y9074200D01*
Y9095360D01*
X9741458Y9105940D01*
X9794357Y9169419D02*
X9783777Y9148259D01*
X9762618Y9127100D01*
X9741458D01*
X9730878Y9137679D01*
Y9158839D01*
X9741458Y9169419D01*
X9752038D01*
X9762618Y9158839D01*
Y9127100D01*
X9794357Y9232899D02*
X9783777Y9211739D01*
X9762618Y9190579D01*
X9741458D01*
X9730878Y9201159D01*
Y9222319D01*
X9741458Y9232899D01*
X9752038D01*
X9762618Y9222319D01*
Y9190579D01*
X9847098Y8667680D02*
X9836519Y8678260D01*
Y8699420D01*
X9847098Y8710000D01*
X9889418D01*
X9899998Y8699420D01*
Y8678260D01*
X9889418Y8667680D01*
X9836519Y8604201D02*
X9847098Y8625361D01*
X9868258Y8646521D01*
X9889418D01*
X9899998Y8635941D01*
Y8614781D01*
X9889418Y8604201D01*
X9878838D01*
X9868258Y8614781D01*
Y8646521D01*
X9836519Y8540722D02*
Y8583041D01*
X9868258D01*
X9857678Y8561882D01*
Y8551301D01*
X9868258Y8540722D01*
X9889418D01*
X9899998Y8551301D01*
Y8572461D01*
X9889418Y8583041D01*
X9357098Y6807680D02*
X9346519Y6818260D01*
Y6839420D01*
X9357098Y6850000D01*
X9399418D01*
X9409998Y6839420D01*
Y6818260D01*
X9399418Y6807680D01*
X9346519Y6744201D02*
X9357098Y6765361D01*
X9378258Y6786521D01*
X9399418D01*
X9409998Y6775941D01*
Y6754781D01*
X9399418Y6744201D01*
X9388838D01*
X9378258Y6754781D01*
Y6786521D01*
X9409998Y6691301D02*
X9346519D01*
X9378258Y6723041D01*
Y6680721D01*
X10094640Y8575060D02*
X10084060Y8585640D01*
Y8606800D01*
X10094640Y8617380D01*
X10136960D01*
X10147540Y8606800D01*
Y8585640D01*
X10136960Y8575060D01*
X10084060Y8511581D02*
X10094640Y8532741D01*
X10115800Y8553901D01*
X10136960D01*
X10147540Y8543321D01*
Y8522161D01*
X10136960Y8511581D01*
X10126380D01*
X10115800Y8522161D01*
Y8553901D01*
X10094640Y8490421D02*
X10084060Y8479841D01*
Y8458681D01*
X10094640Y8448101D01*
X10105220D01*
X10115800Y8458681D01*
Y8469261D01*
Y8458681D01*
X10126380Y8448101D01*
X10136960D01*
X10147540Y8458681D01*
Y8479841D01*
X10136960Y8490421D01*
X10087098Y8287680D02*
X10076519Y8298260D01*
Y8319420D01*
X10087098Y8330000D01*
X10129418D01*
X10139998Y8319420D01*
Y8298260D01*
X10129418Y8287680D01*
X10076519Y8224201D02*
X10087098Y8245361D01*
X10108258Y8266521D01*
X10129418D01*
X10139998Y8255941D01*
Y8234781D01*
X10129418Y8224201D01*
X10118838D01*
X10108258Y8234781D01*
Y8266521D01*
X10139998Y8160722D02*
Y8203041D01*
X10097678Y8160722D01*
X10087098D01*
X10076519Y8171301D01*
Y8192461D01*
X10087098Y8203041D01*
X10177678Y8022900D02*
X10188258Y8033479D01*
X10209418D01*
X10219998Y8022900D01*
Y7980580D01*
X10209418Y7970000D01*
X10188258D01*
X10177678Y7980580D01*
X10114199Y8033479D02*
X10135359Y8022900D01*
X10156518Y8001740D01*
Y7980580D01*
X10145939Y7970000D01*
X10124779D01*
X10114199Y7980580D01*
Y7991160D01*
X10124779Y8001740D01*
X10156518D01*
X10093039Y7970000D02*
X10071879D01*
X10082459D01*
Y8033479D01*
X10093039Y8022900D01*
X9927099Y7797680D02*
X9916519Y7808260D01*
Y7829420D01*
X9927099Y7840000D01*
X9969418D01*
X9979998Y7829420D01*
Y7808260D01*
X9969418Y7797680D01*
X9916519Y7734201D02*
X9927099Y7755361D01*
X9948258Y7776521D01*
X9969418D01*
X9979998Y7765941D01*
Y7744781D01*
X9969418Y7734201D01*
X9958838D01*
X9948258Y7744781D01*
Y7776521D01*
X9927099Y7713041D02*
X9916519Y7702461D01*
Y7681301D01*
X9927099Y7670722D01*
X9969418D01*
X9979998Y7681301D01*
Y7702461D01*
X9969418Y7713041D01*
X9927099D01*
X10317678Y7842899D02*
X10328258Y7853479D01*
X10349418D01*
X10359998Y7842899D01*
Y7800580D01*
X10349418Y7790000D01*
X10328258D01*
X10317678Y7800580D01*
X10254199Y7853479D02*
X10296519D01*
Y7821740D01*
X10275359Y7832320D01*
X10264779D01*
X10254199Y7821740D01*
Y7800580D01*
X10264779Y7790000D01*
X10285939D01*
X10296519Y7800580D01*
X10233039D02*
X10222459Y7790000D01*
X10201299D01*
X10190720Y7800580D01*
Y7842899D01*
X10201299Y7853479D01*
X10222459D01*
X10233039Y7842899D01*
Y7832320D01*
X10222459Y7821740D01*
X10190720D01*
X10317098Y6837680D02*
X10306519Y6848260D01*
Y6869420D01*
X10317098Y6880000D01*
X10359418D01*
X10369998Y6869420D01*
Y6848260D01*
X10359418Y6837680D01*
X10306519Y6774201D02*
Y6816521D01*
X10338258D01*
X10327678Y6795361D01*
Y6784781D01*
X10338258Y6774201D01*
X10359418D01*
X10369998Y6784781D01*
Y6805941D01*
X10359418Y6816521D01*
X10306519Y6710721D02*
X10317098Y6731881D01*
X10338258Y6753041D01*
X10359418D01*
X10369998Y6742461D01*
Y6721301D01*
X10359418Y6710721D01*
X10348838D01*
X10338258Y6721301D01*
Y6753041D01*
X9537099Y8767680D02*
X9526519Y8778260D01*
Y8799420D01*
X9537099Y8810000D01*
X9579418D01*
X9589998Y8799420D01*
Y8778260D01*
X9579418Y8767680D01*
X9526519Y8704201D02*
Y8746520D01*
X9558258D01*
X9547678Y8725361D01*
Y8714781D01*
X9558258Y8704201D01*
X9579418D01*
X9589998Y8714781D01*
Y8735941D01*
X9579418Y8746520D01*
X9589998Y8640721D02*
Y8683041D01*
X9547678Y8640721D01*
X9537099D01*
X9526519Y8651301D01*
Y8672461D01*
X9537099Y8683041D01*
X9357678Y8402900D02*
X9368258Y8413479D01*
X9389418D01*
X9399998Y8402900D01*
Y8360580D01*
X9389418Y8350000D01*
X9368258D01*
X9357678Y8360580D01*
X9294199Y8413479D02*
X9336519D01*
Y8381740D01*
X9315359Y8392320D01*
X9304779D01*
X9294199Y8381740D01*
Y8360580D01*
X9304779Y8350000D01*
X9325939D01*
X9336519Y8360580D01*
X9273039Y8350000D02*
X9251879D01*
X9262459D01*
Y8413479D01*
X9273039Y8402900D01*
X9822918Y8083500D02*
X9812338Y8094080D01*
Y8115240D01*
X9822918Y8125820D01*
X9865238D01*
X9875818Y8115240D01*
Y8094080D01*
X9865238Y8083500D01*
X9812338Y8020021D02*
Y8062340D01*
X9844078D01*
X9833498Y8041181D01*
Y8030601D01*
X9844078Y8020021D01*
X9865238D01*
X9875818Y8030601D01*
Y8051761D01*
X9865238Y8062340D01*
X9822918Y7998861D02*
X9812338Y7988281D01*
Y7967121D01*
X9822918Y7956541D01*
X9865238D01*
X9875818Y7967121D01*
Y7988281D01*
X9865238Y7998861D01*
X9822918D01*
X9737098Y8577680D02*
X9726519Y8588260D01*
Y8609420D01*
X9737098Y8620000D01*
X9779418D01*
X9789998Y8609420D01*
Y8588260D01*
X9779418Y8577680D01*
X9789998Y8524781D02*
X9726519D01*
X9758258Y8556521D01*
Y8514201D01*
X9779418Y8493041D02*
X9789998Y8482461D01*
Y8461301D01*
X9779418Y8450721D01*
X9737098D01*
X9726519Y8461301D01*
Y8482461D01*
X9737098Y8493041D01*
X9747678D01*
X9758258Y8482461D01*
Y8450721D01*
X8807679Y8072900D02*
X8818259Y8083479D01*
X8839419D01*
X8849999Y8072900D01*
Y8030580D01*
X8839419Y8020000D01*
X8818259D01*
X8807679Y8030580D01*
X8754780Y8020000D02*
Y8083479D01*
X8786520Y8051740D01*
X8744200D01*
X8723040Y8083479D02*
X8680721D01*
Y8072900D01*
X8723040Y8030580D01*
Y8020000D01*
X8547679Y8442900D02*
X8558259Y8453479D01*
X8579419D01*
X8589999Y8442900D01*
Y8400580D01*
X8579419Y8390000D01*
X8558259D01*
X8547679Y8400580D01*
X8494780Y8390000D02*
Y8453479D01*
X8526520Y8421740D01*
X8484200D01*
X8420721Y8453479D02*
X8441880Y8442900D01*
X8463040Y8421740D01*
Y8400580D01*
X8452460Y8390000D01*
X8431300D01*
X8420721Y8400580D01*
Y8411160D01*
X8431300Y8421740D01*
X8463040D01*
X9037680Y8524300D02*
X9048260Y8534880D01*
X9069420D01*
X9080000Y8524300D01*
Y8481980D01*
X9069420Y8471400D01*
X9048260D01*
X9037680Y8481980D01*
X8984781Y8471400D02*
Y8534880D01*
X9016520Y8503140D01*
X8974201D01*
X8910721Y8534880D02*
X8953041D01*
Y8503140D01*
X8931881Y8513720D01*
X8921301D01*
X8910721Y8503140D01*
Y8481980D01*
X8921301Y8471400D01*
X8942461D01*
X8953041Y8481980D01*
X8927678Y8722899D02*
X8938258Y8733479D01*
X8959418D01*
X8969998Y8722899D01*
Y8680580D01*
X8959418Y8670000D01*
X8938258D01*
X8927678Y8680580D01*
X8874779Y8670000D02*
Y8733479D01*
X8906519Y8701740D01*
X8864199D01*
X8811299Y8670000D02*
Y8733479D01*
X8843039Y8701740D01*
X8800720D01*
X9337098Y8767680D02*
X9326519Y8778260D01*
Y8799420D01*
X9337098Y8810000D01*
X9379418D01*
X9389998Y8799420D01*
Y8778260D01*
X9379418Y8767680D01*
X9389998Y8714781D02*
X9326519D01*
X9358258Y8746520D01*
Y8704201D01*
X9337098Y8683041D02*
X9326519Y8672461D01*
Y8651301D01*
X9337098Y8640721D01*
X9347678D01*
X9358258Y8651301D01*
Y8661881D01*
Y8651301D01*
X9368838Y8640721D01*
X9379418D01*
X9389998Y8651301D01*
Y8672461D01*
X9379418Y8683041D01*
X9147678Y8212900D02*
X9158258Y8223479D01*
X9179418D01*
X9189998Y8212900D01*
Y8170580D01*
X9179418Y8160000D01*
X9158258D01*
X9147678Y8170580D01*
X9094779Y8160000D02*
Y8223479D01*
X9126518Y8191740D01*
X9084199D01*
X9020719Y8160000D02*
X9063039D01*
X9020719Y8202320D01*
Y8212900D01*
X9031299Y8223479D01*
X9052459D01*
X9063039Y8212900D01*
X10637680Y8532900D02*
X10648260Y8543479D01*
X10669420D01*
X10680000Y8532900D01*
Y8490580D01*
X10669420Y8480000D01*
X10648260D01*
X10637680Y8490580D01*
X10616521Y8532900D02*
X10605941Y8543479D01*
X10584781D01*
X10574201Y8532900D01*
Y8522320D01*
X10584781Y8511740D01*
X10595361D01*
X10584781D01*
X10574201Y8501160D01*
Y8490580D01*
X10584781Y8480000D01*
X10605941D01*
X10616521Y8490580D01*
X10553041D02*
X10542461Y8480000D01*
X10521301D01*
X10510721Y8490580D01*
Y8532900D01*
X10521301Y8543479D01*
X10542461D01*
X10553041Y8532900D01*
Y8522320D01*
X10542461Y8511740D01*
X10510721D01*
X10727098Y8397680D02*
X10716519Y8408260D01*
Y8429420D01*
X10727098Y8440000D01*
X10769418D01*
X10779998Y8429420D01*
Y8408260D01*
X10769418Y8397680D01*
X10727098Y8376520D02*
X10716519Y8365941D01*
Y8344781D01*
X10727098Y8334201D01*
X10737678D01*
X10748258Y8344781D01*
Y8355361D01*
Y8344781D01*
X10758838Y8334201D01*
X10769418D01*
X10779998Y8344781D01*
Y8365941D01*
X10769418Y8376520D01*
X10727098Y8313041D02*
X10716519Y8302461D01*
Y8281301D01*
X10727098Y8270721D01*
X10737678D01*
X10748258Y8281301D01*
X10758838Y8270721D01*
X10769418D01*
X10779998Y8281301D01*
Y8302461D01*
X10769418Y8313041D01*
X10758838D01*
X10748258Y8302461D01*
X10737678Y8313041D01*
X10727098D01*
X10748258Y8302461D02*
Y8281301D01*
X10427099Y8287680D02*
X10416519Y8298260D01*
Y8319420D01*
X10427099Y8330000D01*
X10469418D01*
X10479998Y8319420D01*
Y8298260D01*
X10469418Y8287680D01*
X10427099Y8266521D02*
X10416519Y8255941D01*
Y8234781D01*
X10427099Y8224201D01*
X10437678D01*
X10448258Y8234781D01*
Y8245361D01*
Y8234781D01*
X10458838Y8224201D01*
X10469418D01*
X10479998Y8234781D01*
Y8255941D01*
X10469418Y8266521D01*
X10416519Y8203041D02*
Y8160722D01*
X10427099D01*
X10469418Y8203041D01*
X10479998D01*
X11017098Y8067680D02*
X11006518Y8078260D01*
Y8099420D01*
X11017098Y8110000D01*
X11059418D01*
X11069998Y8099420D01*
Y8078260D01*
X11059418Y8067680D01*
X11017098Y8046521D02*
X11006518Y8035941D01*
Y8014781D01*
X11017098Y8004201D01*
X11027678D01*
X11038258Y8014781D01*
Y8025361D01*
Y8014781D01*
X11048838Y8004201D01*
X11059418D01*
X11069998Y8014781D01*
Y8035941D01*
X11059418Y8046521D01*
X11006518Y7940721D02*
X11017098Y7961881D01*
X11038258Y7983041D01*
X11059418D01*
X11069998Y7972461D01*
Y7951301D01*
X11059418Y7940721D01*
X11048838D01*
X11038258Y7951301D01*
Y7983041D01*
X9362897Y8012320D02*
X9373477Y8001740D01*
Y7980580D01*
X9362897Y7970000D01*
X9320578D01*
X9309998Y7980580D01*
Y8001740D01*
X9320578Y8012320D01*
X9362897Y8033479D02*
X9373477Y8044059D01*
Y8065219D01*
X9362897Y8075799D01*
X9352318D01*
X9341738Y8065219D01*
Y8054639D01*
Y8065219D01*
X9331158Y8075799D01*
X9320578D01*
X9309998Y8065219D01*
Y8044059D01*
X9320578Y8033479D01*
X9362897Y8096959D02*
X9373477Y8107539D01*
Y8128699D01*
X9362897Y8139279D01*
X9352318D01*
X9341738Y8128699D01*
Y8118119D01*
Y8128699D01*
X9331158Y8139279D01*
X9320578D01*
X9309998Y8128699D01*
Y8107539D01*
X9320578Y8096959D01*
X8932618Y7401360D02*
X8922039Y7411940D01*
Y7433100D01*
X8932618Y7443680D01*
X8974938D01*
X8985518Y7433100D01*
Y7411940D01*
X8974938Y7401360D01*
X8932618Y7380201D02*
X8922039Y7369621D01*
Y7348461D01*
X8932618Y7337881D01*
X8943198D01*
X8953778Y7348461D01*
Y7359041D01*
Y7348461D01*
X8964358Y7337881D01*
X8974938D01*
X8985518Y7348461D01*
Y7369621D01*
X8974938Y7380201D01*
X8985518Y7274402D02*
Y7316721D01*
X8943198Y7274402D01*
X8932618D01*
X8922039Y7284981D01*
Y7306141D01*
X8932618Y7316721D01*
X9168977Y7598760D02*
X9179557Y7588180D01*
Y7567020D01*
X9168977Y7556440D01*
X9126658D01*
X9116078Y7567020D01*
Y7588180D01*
X9126658Y7598760D01*
X9168977Y7619919D02*
X9179557Y7630499D01*
Y7651659D01*
X9168977Y7662239D01*
X9158397D01*
X9147818Y7651659D01*
Y7641079D01*
Y7651659D01*
X9137238Y7662239D01*
X9126658D01*
X9116078Y7651659D01*
Y7630499D01*
X9126658Y7619919D01*
X9116078Y7683399D02*
Y7704559D01*
Y7693979D01*
X9179557D01*
X9168977Y7683399D01*
X9127098Y6817680D02*
X9116518Y6828260D01*
Y6849420D01*
X9127098Y6860000D01*
X9169418D01*
X9179998Y6849420D01*
Y6828260D01*
X9169418Y6817680D01*
X9127098Y6796521D02*
X9116518Y6785941D01*
Y6764781D01*
X9127098Y6754201D01*
X9137678D01*
X9148258Y6764781D01*
Y6775361D01*
Y6764781D01*
X9158838Y6754201D01*
X9169418D01*
X9179998Y6764781D01*
Y6785941D01*
X9169418Y6796521D01*
X9127098Y6733041D02*
X9116518Y6722461D01*
Y6701301D01*
X9127098Y6690721D01*
X9169418D01*
X9179998Y6701301D01*
Y6722461D01*
X9169418Y6733041D01*
X9127098D01*
X10317098Y8187680D02*
X10306519Y8198260D01*
Y8219420D01*
X10317098Y8230000D01*
X10359418D01*
X10369998Y8219420D01*
Y8198260D01*
X10359418Y8187680D01*
X10369998Y8124201D02*
Y8166521D01*
X10327678Y8124201D01*
X10317098D01*
X10306519Y8134781D01*
Y8155941D01*
X10317098Y8166521D01*
X10306519Y8103041D02*
Y8060721D01*
X10317098D01*
X10359418Y8103041D01*
X10369998D01*
X10527098Y7977680D02*
X10516518Y7988260D01*
Y8009420D01*
X10527098Y8020000D01*
X10569418D01*
X10579998Y8009420D01*
Y7988260D01*
X10569418Y7977680D01*
X10579998Y7914201D02*
Y7956521D01*
X10537678Y7914201D01*
X10527098D01*
X10516518Y7924781D01*
Y7945941D01*
X10527098Y7956521D01*
X10516518Y7850721D02*
X10527098Y7871881D01*
X10548258Y7893041D01*
X10569418D01*
X10579998Y7882461D01*
Y7861301D01*
X10569418Y7850721D01*
X10558838D01*
X10548258Y7861301D01*
Y7893041D01*
X10537678Y7462899D02*
X10548258Y7473479D01*
X10569418D01*
X10579998Y7462899D01*
Y7420580D01*
X10569418Y7410000D01*
X10548258D01*
X10537678Y7420580D01*
X10474199Y7410000D02*
X10516518D01*
X10474199Y7452320D01*
Y7462899D01*
X10484779Y7473479D01*
X10505939D01*
X10516518Y7462899D01*
X10410719Y7473479D02*
X10453039D01*
Y7441740D01*
X10431879Y7452320D01*
X10421299D01*
X10410719Y7441740D01*
Y7420580D01*
X10421299Y7410000D01*
X10442459D01*
X10453039Y7420580D01*
X11027678Y7452899D02*
X11038258Y7463479D01*
X11059418D01*
X11069998Y7452899D01*
Y7410580D01*
X11059418Y7400000D01*
X11038258D01*
X11027678Y7410580D01*
X10964199Y7400000D02*
X11006518D01*
X10964199Y7442320D01*
Y7452899D01*
X10974779Y7463479D01*
X10995939D01*
X11006518Y7452899D01*
X10911299Y7400000D02*
Y7463479D01*
X10943039Y7431740D01*
X10900719D01*
X10087680Y9452900D02*
X10098260Y9463479D01*
X10119420D01*
X10130000Y9452900D01*
Y9410580D01*
X10119420Y9400000D01*
X10098260D01*
X10087680Y9410580D01*
X10066521Y9400000D02*
X10045361D01*
X10055941D01*
Y9463479D01*
X10066521Y9452900D01*
X9971301Y9463479D02*
X10013621D01*
Y9431740D01*
X9992461Y9442320D01*
X9981881D01*
X9971301Y9431740D01*
Y9410580D01*
X9981881Y9400000D01*
X10003041D01*
X10013621Y9410580D01*
X10517098Y9467680D02*
X10506518Y9478260D01*
Y9499420D01*
X10517098Y9510000D01*
X10559418D01*
X10569998Y9499420D01*
Y9478260D01*
X10559418Y9467680D01*
X10569998Y9446521D02*
Y9425361D01*
Y9435941D01*
X10506518D01*
X10517098Y9446521D01*
X10569998Y9361881D02*
X10506518D01*
X10538258Y9393621D01*
Y9351301D01*
X10340780Y9144860D02*
X10330201Y9155440D01*
Y9176600D01*
X10340780Y9187180D01*
X10383100D01*
X10393680Y9176600D01*
Y9155440D01*
X10383100Y9144860D01*
X10393680Y9123701D02*
Y9102541D01*
Y9113121D01*
X10330201D01*
X10340780Y9123701D01*
Y9070801D02*
X10330201Y9060221D01*
Y9039061D01*
X10340780Y9028481D01*
X10351360D01*
X10361940Y9039061D01*
Y9049641D01*
Y9039061D01*
X10372520Y9028481D01*
X10383100D01*
X10393680Y9039061D01*
Y9060221D01*
X10383100Y9070801D01*
X10691300Y8781640D02*
X10680721Y8792220D01*
Y8813380D01*
X10691300Y8823960D01*
X10733620D01*
X10744200Y8813380D01*
Y8792220D01*
X10733620Y8781640D01*
X10744200Y8760481D02*
Y8739321D01*
Y8749901D01*
X10680721D01*
X10691300Y8760481D01*
X10744200Y8665261D02*
Y8707581D01*
X10701880Y8665261D01*
X10691300D01*
X10680721Y8675841D01*
Y8697001D01*
X10691300Y8707581D01*
X10927100Y8877680D02*
X10916520Y8888260D01*
Y8909420D01*
X10927100Y8920000D01*
X10969420D01*
X10980000Y8909420D01*
Y8888260D01*
X10969420Y8877680D01*
X10980000Y8856521D02*
Y8835361D01*
Y8845941D01*
X10916520D01*
X10927100Y8856521D01*
X10980000Y8803621D02*
Y8782461D01*
Y8793041D01*
X10916520D01*
X10927100Y8803621D01*
X11120980Y8627940D02*
X11131560Y8638519D01*
X11152720D01*
X11163300Y8627940D01*
Y8585620D01*
X11152720Y8575040D01*
X11131560D01*
X11120980Y8585620D01*
X11099821Y8575040D02*
X11078661D01*
X11089241D01*
Y8638519D01*
X11099821Y8627940D01*
X11046921D02*
X11036341Y8638519D01*
X11015181D01*
X11004601Y8627940D01*
Y8585620D01*
X11015181Y8575040D01*
X11036341D01*
X11046921Y8585620D01*
Y8627940D01*
X11283539Y10258620D02*
X11294119Y10269199D01*
X11315279D01*
X11325858Y10258620D01*
Y10216300D01*
X11315279Y10205720D01*
X11294119D01*
X11283539Y10216300D01*
X11220059Y10269199D02*
X11262379D01*
Y10237460D01*
X11241219Y10248040D01*
X11230639D01*
X11220059Y10237460D01*
Y10216300D01*
X11230639Y10205720D01*
X11251799D01*
X11262379Y10216300D01*
X9637680Y8122900D02*
X9648260Y8133480D01*
X9669420D01*
X9680000Y8122900D01*
Y8080580D01*
X9669420Y8070000D01*
X9648260D01*
X9637680Y8080580D01*
X9574201Y8070000D02*
X9616521D01*
X9574201Y8112320D01*
Y8122900D01*
X9584781Y8133480D01*
X9605941D01*
X9616521Y8122900D01*
X13518739Y8566980D02*
X13529320Y8577559D01*
X13550481D01*
X13561060Y8566980D01*
Y8524660D01*
X13550481Y8514080D01*
X13529320D01*
X13518739Y8524660D01*
X13497581Y8514080D02*
X13476421D01*
X13487001D01*
Y8577559D01*
X13497581Y8566980D01*
X11399520Y7491760D02*
X11462999D01*
Y7523500D01*
X11452420Y7534080D01*
X11431260D01*
X11420680Y7523500D01*
Y7491760D01*
Y7512920D02*
X11399520Y7534080D01*
X11410100Y7555239D02*
X11399520Y7565819D01*
Y7586979D01*
X11410100Y7597559D01*
X11452420D01*
X11462999Y7586979D01*
Y7565819D01*
X11452420Y7555239D01*
X11441840D01*
X11431260Y7565819D01*
Y7597559D01*
X11462999Y7661039D02*
X11452420Y7639879D01*
X11431260Y7618719D01*
X11410100D01*
X11399520Y7629299D01*
Y7650459D01*
X11410100Y7661039D01*
X11420680D01*
X11431260Y7650459D01*
Y7618719D01*
%TF.MD5,1a5051e39578c09f54958092daba11a7*%
M02*
