G04 Layer_Color=255*
%FSLAX45Y45*%
%MOMM*%
%TF.FileFunction,Pads,Top*%
%TF.Part,Single*%
G01*
G75*
%TA.AperFunction,BGAPad,CuDef*%
%ADD12C,0.50000*%
%ADD13C,0.63500*%
%TA.AperFunction,SMDPad,CuDef*%
%ADD14R,1.00000X0.60000*%
%ADD15R,0.60000X1.00000*%
%ADD16R,0.42000X0.60000*%
%ADD17O,0.42000X0.60000*%
%ADD18R,0.60000X0.55000*%
%ADD19R,0.60000X1.10000*%
%ADD20R,0.55000X0.60000*%
%ADD21R,0.80000X0.80000*%
G04:AMPARAMS|DCode=22|XSize=1.55mm|YSize=1.3mm|CornerRadius=0.0975mm|HoleSize=0mm|Usage=FLASHONLY|Rotation=90.000|XOffset=0mm|YOffset=0mm|HoleType=Round|Shape=RoundedRectangle|*
%AMROUNDEDRECTD22*
21,1,1.55000,1.10500,0,0,90.0*
21,1,1.35500,1.30000,0,0,90.0*
1,1,0.19500,0.55250,0.67750*
1,1,0.19500,0.55250,-0.67750*
1,1,0.19500,-0.55250,-0.67750*
1,1,0.19500,-0.55250,0.67750*
%
%ADD22ROUNDEDRECTD22*%
%ADD23R,0.70000X1.30000*%
%ADD24R,0.50000X2.00000*%
%ADD25R,0.90000X2.60000*%
%ADD26R,1.10000X1.50000*%
%ADD27R,1.00000X0.90000*%
%ADD28R,1.00000X0.50000*%
%ADD29R,1.30000X0.70000*%
%ADD30R,1.70000X0.90000*%
%ADD31R,0.76000X0.40500*%
%ADD32R,0.99000X0.40500*%
%ADD33R,1.72500X0.99000*%
%ADD34O,0.60000X2.20000*%
%ADD35R,3.56000X1.78000*%
%ADD36R,2.00000X2.50000*%
%ADD37R,1.78000X3.56000*%
%ADD38R,2.60000X0.90000*%
%TA.AperFunction,SMDPad,SMDef*%
%ADD39R,5.60000X5.60000*%
%TA.AperFunction,SMDPad,CuDef*%
%ADD40R,0.30000X0.75480*%
%ADD41R,0.75480X0.30000*%
%ADD42R,1.30000X0.55000*%
%ADD43R,1.70000X1.80000*%
%ADD44R,0.25400X0.25400*%
%ADD45R,1.80000X1.70000*%
%ADD46R,0.25400X0.25400*%
%ADD47R,0.55000X1.30000*%
%ADD48R,0.80480X0.25000*%
%ADD49R,0.25000X0.80480*%
%ADD50R,2.70000X1.50000*%
%ADD51R,2.70000X1.05000*%
%TA.AperFunction,ConnectorPad*%
%ADD52R,11.80000X2.00000*%
%TA.AperFunction,ComponentPad*%
%ADD75C,1.00000*%
%ADD76C,1.30000*%
G04:AMPARAMS|DCode=77|XSize=1.3mm|YSize=1.3mm|CornerRadius=0mm|HoleSize=0mm|Usage=FLASHONLY|Rotation=180.000|XOffset=0mm|YOffset=0mm|HoleType=Round|Shape=Octagon|*
%AMOCTAGOND77*
4,1,8,-0.65000,0.32500,-0.65000,-0.32500,-0.32500,-0.65000,0.32500,-0.65000,0.65000,-0.32500,0.65000,0.32500,0.32500,0.65000,-0.32500,0.65000,-0.65000,0.32500,0.0*
%
%ADD77OCTAGOND77*%

%ADD78C,1.50000*%
%ADD79C,1.50000*%
%TA.AperFunction,SMDPad,CuDef*%
%ADD80O,2.00000X4.00000*%
%ADD81O,4.00000X2.00000*%
%ADD82O,4.50000X2.00000*%
%TA.AperFunction,ComponentPad*%
%ADD83R,1.50000X1.50000*%
%ADD84R,1.50000X1.50000*%
%ADD85C,2.70000*%
%ADD86C,1.52400*%
%ADD87C,1.55000*%
%ADD88C,0.95000*%
%ADD89R,2.00000X2.00000*%
D12*
X9594100Y9050060D02*
D03*
Y9150060D02*
D03*
Y7050060D02*
D03*
Y7150060D02*
D03*
X8894100Y7550060D02*
D03*
Y7650060D02*
D03*
Y7750060D02*
D03*
Y7850060D02*
D03*
Y7050060D02*
D03*
Y7150060D02*
D03*
Y8050060D02*
D03*
Y8150060D02*
D03*
Y9050060D02*
D03*
Y9150060D02*
D03*
X9394100Y7250060D02*
D03*
X8894100Y8250060D02*
D03*
Y8350060D02*
D03*
Y7250060D02*
D03*
Y7350060D02*
D03*
X9394100Y9050060D02*
D03*
Y9150060D02*
D03*
X8994100Y7450060D02*
D03*
Y7550060D02*
D03*
X8894100Y8550060D02*
D03*
Y8650060D02*
D03*
X8994100Y7050060D02*
D03*
X9194100Y9050060D02*
D03*
Y9150060D02*
D03*
X10994100Y7050060D02*
D03*
X10894100D02*
D03*
X10794100D02*
D03*
X10694100D02*
D03*
X10594100D02*
D03*
X10494100D02*
D03*
X10394100D02*
D03*
X10294100D02*
D03*
X10194100D02*
D03*
X10094100D02*
D03*
X9994100D02*
D03*
X9894100D02*
D03*
X9794100D02*
D03*
X9694100D02*
D03*
X9494100D02*
D03*
X9394100D02*
D03*
X9294100D02*
D03*
X9194100D02*
D03*
X9094100D02*
D03*
X10994100Y7150060D02*
D03*
X10894100D02*
D03*
X10794100D02*
D03*
X10694100D02*
D03*
X10594100D02*
D03*
X10494100D02*
D03*
X10394100D02*
D03*
X10294100D02*
D03*
X10194100D02*
D03*
X10094100D02*
D03*
X9994100D02*
D03*
X9894100D02*
D03*
X9794100D02*
D03*
X9694100D02*
D03*
X9494100D02*
D03*
X9394100D02*
D03*
X9294100D02*
D03*
X9194100D02*
D03*
X9094100D02*
D03*
X8994100D02*
D03*
X10994100Y7250060D02*
D03*
X10894100D02*
D03*
X10794100D02*
D03*
X10694100D02*
D03*
X10594100D02*
D03*
X10494100D02*
D03*
X10394100D02*
D03*
X10294100D02*
D03*
X10194100D02*
D03*
X10094100D02*
D03*
X9994100D02*
D03*
X9894100D02*
D03*
X9794100D02*
D03*
X9694100D02*
D03*
X9594100D02*
D03*
X9494100D02*
D03*
X9294100D02*
D03*
X9194100D02*
D03*
X9094100D02*
D03*
X8994100D02*
D03*
X10994100Y7350060D02*
D03*
X10894100D02*
D03*
X10794100D02*
D03*
X10694100D02*
D03*
X10594100D02*
D03*
X10494100D02*
D03*
X10394100D02*
D03*
X10294100D02*
D03*
X10194100D02*
D03*
X10094100D02*
D03*
X9994100D02*
D03*
X9894100D02*
D03*
X9794100D02*
D03*
X9694100D02*
D03*
X9594100D02*
D03*
X9494100D02*
D03*
X9394100D02*
D03*
X9294100D02*
D03*
X9194100D02*
D03*
X9094100D02*
D03*
X8994100D02*
D03*
X10994100Y7450060D02*
D03*
X10894100D02*
D03*
X10794100D02*
D03*
X10694100D02*
D03*
X10594100D02*
D03*
X10494100D02*
D03*
X10394100D02*
D03*
X10294100D02*
D03*
X10194100D02*
D03*
X10094100D02*
D03*
X9994100D02*
D03*
X9894100D02*
D03*
X9794100D02*
D03*
X9694100D02*
D03*
X9594100D02*
D03*
X9494100D02*
D03*
X9394100D02*
D03*
X9194100D02*
D03*
X9094100D02*
D03*
X8894100D02*
D03*
X10994100Y7550060D02*
D03*
X10894100D02*
D03*
X10794100D02*
D03*
X10694100D02*
D03*
X10594100D02*
D03*
X10494100D02*
D03*
X10394100D02*
D03*
X10294100D02*
D03*
X10194100D02*
D03*
X10094100D02*
D03*
X9994100D02*
D03*
X9894100D02*
D03*
X9794100D02*
D03*
X9694100D02*
D03*
X9594100D02*
D03*
X9494100D02*
D03*
X9294100D02*
D03*
X9194100D02*
D03*
X9094100D02*
D03*
X10994100Y7650060D02*
D03*
X10894100D02*
D03*
X10794100D02*
D03*
X10694100D02*
D03*
X10594100D02*
D03*
X10494100D02*
D03*
X10394100D02*
D03*
X10294100D02*
D03*
X10194100D02*
D03*
X10094100D02*
D03*
X9994100D02*
D03*
X9894100D02*
D03*
X9794100D02*
D03*
X9694100D02*
D03*
X9594100D02*
D03*
X9494100D02*
D03*
X9394100D02*
D03*
X9294100D02*
D03*
X9194100D02*
D03*
X9094100D02*
D03*
X8994100D02*
D03*
X10994100Y7750060D02*
D03*
X10894100D02*
D03*
X10794100D02*
D03*
X10694100D02*
D03*
X10594100D02*
D03*
X10494100D02*
D03*
X10394100D02*
D03*
X10294100D02*
D03*
X10194100D02*
D03*
X10094100D02*
D03*
X9994100D02*
D03*
X9894100D02*
D03*
X9794100D02*
D03*
X9694100D02*
D03*
X9594100D02*
D03*
X9494100D02*
D03*
X9394100D02*
D03*
X9294100D02*
D03*
X9194100D02*
D03*
X9094100D02*
D03*
X8994100D02*
D03*
X10994100Y7850060D02*
D03*
X10894100D02*
D03*
X10794100D02*
D03*
X10694100D02*
D03*
X10594100D02*
D03*
X10494100D02*
D03*
X10394100D02*
D03*
X10294100D02*
D03*
X10194100D02*
D03*
X10094100D02*
D03*
X9994100D02*
D03*
X9894100D02*
D03*
X9794100D02*
D03*
X9694100D02*
D03*
X9594100D02*
D03*
X9494100D02*
D03*
X9394100D02*
D03*
X9294100D02*
D03*
X9194100D02*
D03*
X9094100D02*
D03*
X8994100D02*
D03*
X10994100Y7950060D02*
D03*
X10894100D02*
D03*
X10794100D02*
D03*
X10694100D02*
D03*
X10594100D02*
D03*
X10494100D02*
D03*
X10394100D02*
D03*
X10294100D02*
D03*
X10194100D02*
D03*
X10094100D02*
D03*
X9994100D02*
D03*
X9894100D02*
D03*
X9794100D02*
D03*
X9694100D02*
D03*
X9594100D02*
D03*
X9494100D02*
D03*
X9394100D02*
D03*
X9294100D02*
D03*
X9194100D02*
D03*
X9094100D02*
D03*
X8994100D02*
D03*
X8894100D02*
D03*
X10994100Y8050060D02*
D03*
X10894100D02*
D03*
X10794100D02*
D03*
X10694100D02*
D03*
X10594100D02*
D03*
X10494100D02*
D03*
X10394100D02*
D03*
X10294100D02*
D03*
X10194100D02*
D03*
X10094100D02*
D03*
X9994100D02*
D03*
X9894100D02*
D03*
X9794100D02*
D03*
X9694100D02*
D03*
X9594100D02*
D03*
X9494100D02*
D03*
X9394100D02*
D03*
X9294100D02*
D03*
X9194100D02*
D03*
X9094100D02*
D03*
X8994100D02*
D03*
X10994100Y8150060D02*
D03*
X10894100D02*
D03*
X10794100D02*
D03*
X10694100D02*
D03*
X10594100D02*
D03*
X10494100D02*
D03*
X10394100D02*
D03*
X10294100D02*
D03*
X10194100D02*
D03*
X10094100D02*
D03*
X9994100D02*
D03*
X9894100D02*
D03*
X9794100D02*
D03*
X9694100D02*
D03*
X9594100D02*
D03*
X9494100D02*
D03*
X9394100D02*
D03*
X9294100D02*
D03*
X9194100D02*
D03*
X9094100D02*
D03*
X8994100D02*
D03*
X10994100Y8250060D02*
D03*
X10894100D02*
D03*
X10794100D02*
D03*
X10694100D02*
D03*
X10594100D02*
D03*
X10494100D02*
D03*
X10394100D02*
D03*
X10294100D02*
D03*
X10194100D02*
D03*
X10094100D02*
D03*
X9994100D02*
D03*
X9894100D02*
D03*
X9794100D02*
D03*
X9694100D02*
D03*
X9594100D02*
D03*
X9494100D02*
D03*
X9394100D02*
D03*
X9294100D02*
D03*
X9194100D02*
D03*
X9094100D02*
D03*
X8994100D02*
D03*
X10994100Y8350060D02*
D03*
X10894100D02*
D03*
X10794100D02*
D03*
X10694100D02*
D03*
X10594100D02*
D03*
X10494100D02*
D03*
X10394100D02*
D03*
X10294100D02*
D03*
X10194100D02*
D03*
X10094100D02*
D03*
X9994100D02*
D03*
X9894100D02*
D03*
X9794100D02*
D03*
X9694100D02*
D03*
X9594100D02*
D03*
X9494100D02*
D03*
X9394100D02*
D03*
X9294100D02*
D03*
X9194100D02*
D03*
X9094100D02*
D03*
X8994100D02*
D03*
X10994100Y8450060D02*
D03*
X10894100D02*
D03*
X10794100D02*
D03*
X10694100D02*
D03*
X10594100D02*
D03*
X10494100D02*
D03*
X10394100D02*
D03*
X10294100D02*
D03*
X10194100D02*
D03*
X10094100D02*
D03*
X9994100D02*
D03*
X9894100D02*
D03*
X9794100D02*
D03*
X9694100D02*
D03*
X9594100D02*
D03*
X9494100D02*
D03*
X9394100D02*
D03*
X9294100D02*
D03*
X9194100D02*
D03*
X9094100D02*
D03*
X8994100D02*
D03*
X8894100D02*
D03*
X10994100Y8550060D02*
D03*
X10894100D02*
D03*
X10794100D02*
D03*
X10694100D02*
D03*
X10594100D02*
D03*
X10494100D02*
D03*
X10394100D02*
D03*
X10294100D02*
D03*
X10194100D02*
D03*
X10094100D02*
D03*
X9994100D02*
D03*
X9894100D02*
D03*
X9794100D02*
D03*
X9694100D02*
D03*
X9594100D02*
D03*
X9494100D02*
D03*
X9394100D02*
D03*
X9294100D02*
D03*
X9194100D02*
D03*
X9094100D02*
D03*
X8994100D02*
D03*
X10994100Y8650060D02*
D03*
X10894100D02*
D03*
X10794100D02*
D03*
X10694100D02*
D03*
X10594100D02*
D03*
X10494100D02*
D03*
X10394100D02*
D03*
X10294100D02*
D03*
X10194100D02*
D03*
X10094100D02*
D03*
X9994100D02*
D03*
X9894100D02*
D03*
X9794100D02*
D03*
X9694100D02*
D03*
X9594100D02*
D03*
X9494100D02*
D03*
X9394100D02*
D03*
X9294100D02*
D03*
X9194100D02*
D03*
X9094100D02*
D03*
X8994100D02*
D03*
X10994100Y8750060D02*
D03*
X10894100D02*
D03*
X10794100D02*
D03*
X10694100D02*
D03*
X10594100D02*
D03*
X10494100D02*
D03*
X10394100D02*
D03*
X10294100D02*
D03*
X10194100D02*
D03*
X10094100D02*
D03*
X9994100D02*
D03*
X9894100D02*
D03*
X9794100D02*
D03*
X9694100D02*
D03*
X9594100D02*
D03*
X9494100D02*
D03*
X9394100D02*
D03*
X9294100D02*
D03*
X9194100D02*
D03*
X9094100D02*
D03*
X8994100D02*
D03*
X10994100Y8850060D02*
D03*
X10894100D02*
D03*
X10794100D02*
D03*
X10694100D02*
D03*
X10594100D02*
D03*
X10494100D02*
D03*
X10394100D02*
D03*
X10294100D02*
D03*
X10194100D02*
D03*
X10094100D02*
D03*
X9994100D02*
D03*
X9894100D02*
D03*
X9794100D02*
D03*
X9694100D02*
D03*
X9594100D02*
D03*
X9494100D02*
D03*
X9394100D02*
D03*
X9294100D02*
D03*
X9194100D02*
D03*
X9094100D02*
D03*
X8994100D02*
D03*
X10994100Y8950060D02*
D03*
X10894100D02*
D03*
X10794100D02*
D03*
X10694100D02*
D03*
X10594100D02*
D03*
X10494100D02*
D03*
X10394100D02*
D03*
X10294100D02*
D03*
X10194100D02*
D03*
X10094100D02*
D03*
X9994100D02*
D03*
X9894100D02*
D03*
X9794100D02*
D03*
X9694100D02*
D03*
X9594100D02*
D03*
X9494100D02*
D03*
X9394100D02*
D03*
X9294100D02*
D03*
X9194100D02*
D03*
X9094100D02*
D03*
X8994100D02*
D03*
X8894100D02*
D03*
X10994100Y9050060D02*
D03*
X10894100D02*
D03*
X10794100D02*
D03*
X10694100D02*
D03*
X10594100D02*
D03*
X10494100D02*
D03*
X10394100D02*
D03*
X10294100D02*
D03*
X10194100D02*
D03*
X10094100D02*
D03*
X9994100D02*
D03*
X9894100D02*
D03*
X9794100D02*
D03*
X9694100D02*
D03*
X9494100D02*
D03*
X9294100D02*
D03*
X9094100D02*
D03*
X8994100D02*
D03*
X10994100Y9150060D02*
D03*
X10894100D02*
D03*
X10794100D02*
D03*
X10694100D02*
D03*
X10594100D02*
D03*
X10494100D02*
D03*
X10394100D02*
D03*
X10294100D02*
D03*
X10194100D02*
D03*
X10094100D02*
D03*
X9994100D02*
D03*
X9894100D02*
D03*
X9794100D02*
D03*
X9694100D02*
D03*
X9494100D02*
D03*
X9294100D02*
D03*
X9094100D02*
D03*
X8994100D02*
D03*
X9394100Y7550060D02*
D03*
X9294100Y7450060D02*
D03*
X8894100Y8850060D02*
D03*
Y8750060D02*
D03*
D13*
X15636240Y8531860D02*
D03*
Y8658860D02*
D03*
Y8150860D02*
D03*
Y8277860D02*
D03*
Y9293860D02*
D03*
Y9420860D02*
D03*
Y6626860D02*
D03*
Y6753860D02*
D03*
Y7769860D02*
D03*
Y7896860D02*
D03*
X16271240Y7261860D02*
D03*
Y7388860D02*
D03*
Y7769860D02*
D03*
Y7896860D02*
D03*
X16144240Y8150860D02*
D03*
X15636240Y5864860D02*
D03*
Y5991860D02*
D03*
Y6245860D02*
D03*
Y6372860D02*
D03*
Y10055860D02*
D03*
Y10182860D02*
D03*
X16271240Y10563860D02*
D03*
X16144240D02*
D03*
X15763240D02*
D03*
X15636240D02*
D03*
Y10436860D02*
D03*
X16271240D02*
D03*
X16144240D02*
D03*
X15636240Y10309860D02*
D03*
X16271240D02*
D03*
X16144240D02*
D03*
X15763240Y10182860D02*
D03*
X16271240D02*
D03*
X15763240Y10055860D02*
D03*
X16271240D02*
D03*
X15636240Y9928860D02*
D03*
X16144240D02*
D03*
Y9801860D02*
D03*
X15763240Y9674860D02*
D03*
X16271240D02*
D03*
X16144240D02*
D03*
X15763240Y9547860D02*
D03*
X15636240D02*
D03*
X16271240D02*
D03*
X16144240D02*
D03*
X15763240Y9420860D02*
D03*
X16144240D02*
D03*
X15763240Y9293860D02*
D03*
X16144240D02*
D03*
X15636240Y9166860D02*
D03*
X16271240D02*
D03*
X16144240D02*
D03*
X16271240Y9039860D02*
D03*
X16144240D02*
D03*
X15763240Y8912860D02*
D03*
Y8785860D02*
D03*
X15636240D02*
D03*
X15763240Y8658860D02*
D03*
X16271240D02*
D03*
X16144240D02*
D03*
X15763240Y8531860D02*
D03*
X16271240D02*
D03*
X16144240D02*
D03*
X15763240Y8404860D02*
D03*
X15636240D02*
D03*
X16271240D02*
D03*
X16144240D02*
D03*
X15763240Y8277860D02*
D03*
X16271240D02*
D03*
X16144240D02*
D03*
X15763240Y8150860D02*
D03*
X16271240D02*
D03*
X15763240Y8023860D02*
D03*
X15636240D02*
D03*
X16271240D02*
D03*
X16144240D02*
D03*
X15763240Y7896860D02*
D03*
X16144240D02*
D03*
X15763240Y7769860D02*
D03*
X16144240D02*
D03*
X15763240Y7642860D02*
D03*
X15636240D02*
D03*
X16271240D02*
D03*
X16144240D02*
D03*
X15763240Y7515860D02*
D03*
X16271240D02*
D03*
X16144240D02*
D03*
X15763240Y7388860D02*
D03*
Y7261860D02*
D03*
X15636240D02*
D03*
X15763240Y7134860D02*
D03*
X16271240D02*
D03*
X16144240D02*
D03*
X15763240Y7007860D02*
D03*
X16271240D02*
D03*
X16144240D02*
D03*
X15763240Y6880860D02*
D03*
X15636240D02*
D03*
X16271240D02*
D03*
X16144240D02*
D03*
X15763240Y6753860D02*
D03*
X16271240D02*
D03*
X16144240D02*
D03*
X15763240Y6626860D02*
D03*
X16271240D02*
D03*
X16144240D02*
D03*
X15763240Y6499860D02*
D03*
X15636240D02*
D03*
X16271240D02*
D03*
X16144240D02*
D03*
X15763240Y6372860D02*
D03*
X16271240D02*
D03*
X16144240D02*
D03*
X15763240Y6245860D02*
D03*
X16271240D02*
D03*
X16144240D02*
D03*
X15636240Y6118860D02*
D03*
X16271240D02*
D03*
X16144240D02*
D03*
X16271240Y5991860D02*
D03*
X16144240D02*
D03*
X15763240Y5864860D02*
D03*
X16271240D02*
D03*
X16144240D02*
D03*
X15763240Y5737860D02*
D03*
X15636240D02*
D03*
X16271240D02*
D03*
X16144240D02*
D03*
X15763240Y5610860D02*
D03*
X15636240D02*
D03*
X16271240D02*
D03*
X16144240D02*
D03*
X15636240Y9801860D02*
D03*
Y9674860D02*
D03*
Y9039860D02*
D03*
Y8912860D02*
D03*
Y7515860D02*
D03*
Y7388860D02*
D03*
Y7134860D02*
D03*
Y7007860D02*
D03*
X16144240Y8912860D02*
D03*
Y8785860D02*
D03*
Y7388860D02*
D03*
Y7261860D02*
D03*
X15763240Y10436860D02*
D03*
Y10309860D02*
D03*
X16271240Y9928860D02*
D03*
Y9801860D02*
D03*
X15763240Y9928860D02*
D03*
Y9801860D02*
D03*
X16271240Y8912860D02*
D03*
Y8785860D02*
D03*
Y9293860D02*
D03*
Y9420860D02*
D03*
X15763240Y9166860D02*
D03*
Y9039860D02*
D03*
Y6118860D02*
D03*
Y5991860D02*
D03*
X16144240Y10182860D02*
D03*
Y10055860D02*
D03*
D14*
X9415780Y12002840D02*
D03*
Y11852840D02*
D03*
X9263380Y11941880D02*
D03*
Y11791880D02*
D03*
X9405620Y11370240D02*
D03*
Y11520240D02*
D03*
X9408160Y11195120D02*
D03*
Y11045120D02*
D03*
X9258300Y12228760D02*
D03*
Y12378760D02*
D03*
X9405620Y12162720D02*
D03*
Y12312720D02*
D03*
X7470140Y7946320D02*
D03*
Y8096320D02*
D03*
Y7705020D02*
D03*
Y7855020D02*
D03*
X7322020Y4512380D02*
D03*
Y4362380D02*
D03*
X7555700Y5607120D02*
D03*
Y5457120D02*
D03*
X4942040Y5749220D02*
D03*
Y5899220D02*
D03*
X9253220Y11124000D02*
D03*
Y10974000D02*
D03*
X9265920Y11441360D02*
D03*
Y11591360D02*
D03*
D15*
X9061520Y11363960D02*
D03*
X8911520Y11363960D02*
D03*
X9058980Y12148820D02*
D03*
X8908980D02*
D03*
X2917260Y9725660D02*
D03*
X2767260D02*
D03*
X2774880Y10525760D02*
D03*
X2924880D02*
D03*
X6280080Y8900160D02*
D03*
X6430080D02*
D03*
X9058980Y12029440D02*
D03*
X8908980D02*
D03*
X9061520Y11236960D02*
D03*
X8911520D02*
D03*
D16*
X9957260Y13470120D02*
D03*
X10019260D02*
D03*
X10081260D02*
D03*
X9957260Y13660120D02*
D03*
X10019260D02*
D03*
X10081259Y12691880D02*
D03*
X10019259D02*
D03*
X9957259D02*
D03*
X10081259Y12501880D02*
D03*
X10019259D02*
D03*
D17*
X10081260Y13660120D02*
D03*
X9957259Y12501880D02*
D03*
D18*
X15536501Y10965180D02*
D03*
X15451500D02*
D03*
X15536501Y11051540D02*
D03*
X15451500D02*
D03*
X4726840Y4211320D02*
D03*
X4814540D02*
D03*
X3110980Y12438120D02*
D03*
X3023280D02*
D03*
X3868940Y7223760D02*
D03*
X3956640D02*
D03*
X7780700Y8768080D02*
D03*
X7865700D02*
D03*
X7780700Y8658860D02*
D03*
X7865700D02*
D03*
X7392319Y5606500D02*
D03*
X7307319D02*
D03*
X2877500Y7790000D02*
D03*
X2962500D02*
D03*
X3832180Y7584180D02*
D03*
X3747180D02*
D03*
X3727240Y7741660D02*
D03*
X3642240D02*
D03*
X6660159Y4839420D02*
D03*
X6572459D02*
D03*
X6469659D02*
D03*
X6381959D02*
D03*
X6375920Y6350000D02*
D03*
X6463620D02*
D03*
X6566420Y6347460D02*
D03*
X6654120D02*
D03*
X7036079Y4839420D02*
D03*
X6948379D02*
D03*
X6850659D02*
D03*
X6762959D02*
D03*
X7758380Y5608320D02*
D03*
X7670680D02*
D03*
X6767780Y6149340D02*
D03*
X6680080D02*
D03*
X3834880Y7495280D02*
D03*
X3747180D02*
D03*
X7176020Y7772400D02*
D03*
X7263720D02*
D03*
D19*
X12086699Y7226920D02*
D03*
X11991699D02*
D03*
X11896699D02*
D03*
Y6986920D02*
D03*
X11991699D02*
D03*
X12086699D02*
D03*
D20*
X11770000Y7027500D02*
D03*
Y7115200D02*
D03*
X4728860Y4023880D02*
D03*
Y4111580D02*
D03*
X2926080Y12441180D02*
D03*
Y12528880D02*
D03*
X8958580Y10205200D02*
D03*
Y10117500D02*
D03*
X8872220Y10205200D02*
D03*
Y10117500D02*
D03*
X12393507Y9651480D02*
D03*
Y9563780D02*
D03*
X12578080Y9651480D02*
D03*
Y9563780D02*
D03*
X12485793Y9651480D02*
D03*
Y9563780D02*
D03*
X12301220Y9651480D02*
D03*
Y9563780D02*
D03*
X13555980Y12192520D02*
D03*
Y12280220D02*
D03*
X13682980Y12192520D02*
D03*
Y12280220D02*
D03*
X13936980Y12192520D02*
D03*
Y12280220D02*
D03*
X13809979Y12192520D02*
D03*
Y12280220D02*
D03*
X12664440Y12959720D02*
D03*
Y12872020D02*
D03*
X12796520Y12951579D02*
D03*
Y12863879D02*
D03*
X7381240Y8725580D02*
D03*
Y8810580D02*
D03*
X6501600Y4953680D02*
D03*
Y5038680D02*
D03*
X6239980Y5500960D02*
D03*
Y5415960D02*
D03*
X6546379Y6207800D02*
D03*
Y6122800D02*
D03*
X6242520Y5777820D02*
D03*
Y5692820D02*
D03*
X6915620Y4951140D02*
D03*
Y5036140D02*
D03*
X7150000Y5017500D02*
D03*
Y5102500D02*
D03*
X6904519Y6207801D02*
D03*
Y6122801D02*
D03*
X6709880Y4994320D02*
D03*
Y5079320D02*
D03*
X6793700Y4994320D02*
D03*
Y5079320D02*
D03*
X3439160Y7395540D02*
D03*
Y7310540D02*
D03*
X3553460Y7575880D02*
D03*
Y7490880D02*
D03*
X3642360Y7395540D02*
D03*
Y7310540D02*
D03*
X6417780Y4950980D02*
D03*
Y5038680D02*
D03*
X5647219Y5532320D02*
D03*
Y5444620D02*
D03*
Y5745680D02*
D03*
Y5657980D02*
D03*
X6457479Y6210500D02*
D03*
Y6122800D02*
D03*
X6999440Y4950980D02*
D03*
Y5038680D02*
D03*
X7001980Y6207240D02*
D03*
Y6119540D02*
D03*
X7855420Y5507240D02*
D03*
Y5594940D02*
D03*
X6626060Y5082020D02*
D03*
Y4994320D02*
D03*
X3553460Y7398240D02*
D03*
Y7310540D02*
D03*
X3050540Y7398240D02*
D03*
Y7310540D02*
D03*
X3141980Y7398240D02*
D03*
Y7310540D02*
D03*
X3733800Y7398240D02*
D03*
Y7310540D02*
D03*
X3934460Y9006060D02*
D03*
Y8918360D02*
D03*
Y9199100D02*
D03*
Y9111400D02*
D03*
X3347720Y7398240D02*
D03*
Y7310540D02*
D03*
X7299960Y8132560D02*
D03*
Y8044860D02*
D03*
X7127240Y8132560D02*
D03*
Y8044860D02*
D03*
X12210000Y7037500D02*
D03*
Y7125200D02*
D03*
D21*
X7475220Y8200440D02*
D03*
Y8365440D02*
D03*
X3858260Y4914900D02*
D03*
Y4749900D02*
D03*
X3726180Y4914900D02*
D03*
Y4749900D02*
D03*
X12664440Y13218159D02*
D03*
Y13053160D02*
D03*
X12799060Y13220700D02*
D03*
Y13055701D02*
D03*
D22*
X3041440Y9732020D02*
D03*
Y10527020D02*
D03*
X3491440Y9732020D02*
D03*
Y10527020D02*
D03*
X6143200Y8891260D02*
D03*
Y8096260D02*
D03*
X5693200Y8891260D02*
D03*
Y8096260D02*
D03*
D23*
X8535000Y7240000D02*
D03*
X8725000D02*
D03*
X8725000Y7390000D02*
D03*
X8535000D02*
D03*
X11225000Y8030000D02*
D03*
X11415000D02*
D03*
X11415000Y8310000D02*
D03*
X11225000D02*
D03*
X11205000Y8870000D02*
D03*
X11395000D02*
D03*
X11395000Y7390000D02*
D03*
X11205000D02*
D03*
X11395000Y7660000D02*
D03*
X11205000D02*
D03*
X11395000Y7140000D02*
D03*
X11205000D02*
D03*
X8705000Y8671560D02*
D03*
X8515000D02*
D03*
X8515000Y8980000D02*
D03*
X8705000D02*
D03*
X3336540Y8554460D02*
D03*
X3526540D02*
D03*
X3336540Y8717020D02*
D03*
X3526540D02*
D03*
D24*
X7782320Y10263840D02*
D03*
X7862320D02*
D03*
X5877320Y10263840D02*
D03*
X7302320Y10263840D02*
D03*
X7382320D02*
D03*
X6477320Y11083840D02*
D03*
X6397320D02*
D03*
X6317320D02*
D03*
X6237320D02*
D03*
X6157320D02*
D03*
X6077320D02*
D03*
X5997320D02*
D03*
X5917320D02*
D03*
X5837320D02*
D03*
X5757320D02*
D03*
X5797320Y10263840D02*
D03*
X5957320D02*
D03*
X6037320D02*
D03*
X6117320D02*
D03*
X6197320D02*
D03*
X6277320D02*
D03*
X6357320D02*
D03*
X6437320D02*
D03*
X6517320D02*
D03*
X7902320Y11083840D02*
D03*
X7822320D02*
D03*
X7742320D02*
D03*
X7662320D02*
D03*
X7582320D02*
D03*
X7502320D02*
D03*
X7422320D02*
D03*
X7342320D02*
D03*
X7262320D02*
D03*
X7182320D02*
D03*
X7222320Y10263840D02*
D03*
X7462320D02*
D03*
X7542320D02*
D03*
X7622320D02*
D03*
X7702320D02*
D03*
X7942320D02*
D03*
D25*
X11241820Y9227820D02*
D03*
X11531819D02*
D03*
X8555000Y8240000D02*
D03*
X8265000D02*
D03*
D26*
X12353360Y12951320D02*
D03*
Y13251320D02*
D03*
X12203360D02*
D03*
Y12951320D02*
D03*
X11827580D02*
D03*
Y13251320D02*
D03*
X11677580D02*
D03*
Y12951320D02*
D03*
D27*
X7679440Y8875580D02*
D03*
X7489440D02*
D03*
X7679440Y8660580D02*
D03*
X7489440D02*
D03*
D28*
X7679440Y8768080D02*
D03*
X7489440D02*
D03*
D29*
X6273000Y5131820D02*
D03*
Y4941820D02*
D03*
X7329640Y5436620D02*
D03*
Y5246620D02*
D03*
X6333019Y6047440D02*
D03*
Y6237440D02*
D03*
X7326959Y5702000D02*
D03*
Y5892000D02*
D03*
X9460000Y9375000D02*
D03*
Y9565000D02*
D03*
X10060000Y9495000D02*
D03*
Y9305000D02*
D03*
X2575560Y7733020D02*
D03*
Y7923020D02*
D03*
X2733040Y7733020D02*
D03*
Y7923020D02*
D03*
D30*
X4933479Y5464480D02*
D03*
Y5174480D02*
D03*
X4702339Y5464480D02*
D03*
Y5174480D02*
D03*
D31*
X6109559Y5617680D02*
D03*
Y5554680D02*
D03*
Y5491680D02*
D03*
Y5680680D02*
D03*
D32*
X5811059Y5487180D02*
D03*
Y5553180D02*
D03*
Y5619180D02*
D03*
Y5685180D02*
D03*
D33*
X6010309Y5646930D02*
D03*
X6010259Y5525380D02*
D03*
D34*
X13936980Y12952699D02*
D03*
X13809979D02*
D03*
X13682980D02*
D03*
X13555980D02*
D03*
X13936980Y12472700D02*
D03*
X13809979D02*
D03*
X13682980D02*
D03*
X13555980D02*
D03*
D35*
X8001699Y4369420D02*
D03*
Y5309420D02*
D03*
D36*
X4708360Y5672480D02*
D03*
Y6072480D02*
D03*
D37*
X5128959Y6305000D02*
D03*
X6068959D02*
D03*
X5136579Y4839420D02*
D03*
X6076579D02*
D03*
D38*
X8500000Y7675000D02*
D03*
Y7965000D02*
D03*
D39*
X6721639Y5578560D02*
D03*
D40*
X6996639Y5235300D02*
D03*
X6946639D02*
D03*
X6896639D02*
D03*
X6846639D02*
D03*
X6796639D02*
D03*
X6746639D02*
D03*
X6696639D02*
D03*
X6646639D02*
D03*
X6596639D02*
D03*
X6546639D02*
D03*
X6496639D02*
D03*
X6446639D02*
D03*
Y5921820D02*
D03*
X6496639D02*
D03*
X6546639D02*
D03*
X6596639D02*
D03*
X6646639D02*
D03*
X6696639D02*
D03*
X6746639D02*
D03*
X6796639D02*
D03*
X6846639D02*
D03*
X6896639D02*
D03*
X6946639D02*
D03*
X6996639D02*
D03*
D41*
X6378379Y5303560D02*
D03*
Y5353560D02*
D03*
Y5403560D02*
D03*
Y5453560D02*
D03*
Y5503560D02*
D03*
Y5553560D02*
D03*
Y5603560D02*
D03*
Y5653560D02*
D03*
Y5703560D02*
D03*
Y5753560D02*
D03*
Y5803560D02*
D03*
Y5853560D02*
D03*
X7064899D02*
D03*
Y5803560D02*
D03*
Y5753560D02*
D03*
Y5703560D02*
D03*
Y5653560D02*
D03*
Y5603560D02*
D03*
Y5553560D02*
D03*
Y5503560D02*
D03*
Y5453560D02*
D03*
Y5403560D02*
D03*
Y5353560D02*
D03*
Y5303560D02*
D03*
D42*
X4078620Y9010640D02*
D03*
Y9200640D02*
D03*
Y9105640D02*
D03*
X4318620Y9010640D02*
D03*
Y9200640D02*
D03*
X4589780Y4209800D02*
D03*
Y4019800D02*
D03*
Y4114800D02*
D03*
X4349780Y4209800D02*
D03*
Y4019800D02*
D03*
D43*
X4272180Y8717020D02*
D03*
X3942180D02*
D03*
X4363200Y4452620D02*
D03*
X4693200D02*
D03*
D44*
X4061460Y8717020D02*
D03*
X4152900D02*
D03*
X4573920Y4452620D02*
D03*
X4482480D02*
D03*
D45*
X2654300Y12161360D02*
D03*
Y12491360D02*
D03*
D46*
Y12372080D02*
D03*
Y12280640D02*
D03*
D47*
X2922520Y12296500D02*
D03*
X3112520D02*
D03*
X3017520D02*
D03*
X2922520Y12056500D02*
D03*
X3112520D02*
D03*
D48*
X3481994Y7652220D02*
D03*
Y7702220D02*
D03*
Y7752220D02*
D03*
Y7802220D02*
D03*
Y7852220D02*
D03*
Y7902220D02*
D03*
X3091526D02*
D03*
Y7852220D02*
D03*
Y7802220D02*
D03*
Y7752220D02*
D03*
Y7702220D02*
D03*
Y7652220D02*
D03*
D49*
X3411760Y7972453D02*
D03*
X3361760D02*
D03*
X3311760D02*
D03*
X3261760D02*
D03*
X3211760D02*
D03*
X3161760D02*
D03*
Y7581986D02*
D03*
X3211760D02*
D03*
X3261760D02*
D03*
X3311760D02*
D03*
X3361760D02*
D03*
X3411760D02*
D03*
D50*
X3286760Y7716260D02*
D03*
D51*
Y7861040D02*
D03*
D52*
X7562820Y11953840D02*
D03*
X6137820D02*
D03*
D75*
X12624180Y11348720D02*
D03*
D76*
X12524180Y11248720D02*
D03*
X12724180D02*
D03*
X12924181D02*
D03*
X13124181D02*
D03*
X13324181D02*
D03*
X13524181D02*
D03*
X13724181D02*
D03*
X12524180Y11448720D02*
D03*
X12724180D02*
D03*
X12924181D02*
D03*
X13124181D02*
D03*
X13324181D02*
D03*
X13524181D02*
D03*
D77*
X13724181D02*
D03*
D78*
X2531840Y12851199D02*
D03*
X2781840D02*
D03*
D79*
X2156840Y13271201D02*
D03*
Y13071201D02*
D03*
X2756840Y13471201D02*
D03*
X2556840D02*
D03*
X9969500Y13218159D02*
D03*
X10223500Y12964160D02*
D03*
Y13218159D02*
D03*
X10477500Y12964160D02*
D03*
Y13218159D02*
D03*
X10731500Y12964160D02*
D03*
Y13218159D02*
D03*
X10985500Y12964160D02*
D03*
Y13218159D02*
D03*
X6852920Y8166100D02*
D03*
D80*
X2156840Y13171201D02*
D03*
D81*
X2656840Y13471201D02*
D03*
D82*
Y12851199D02*
D03*
D83*
X9969500Y12964160D02*
D03*
D84*
X6852920Y7912100D02*
D03*
D85*
X4165600Y12913361D02*
D03*
Y13373360D02*
D03*
Y12453360D02*
D03*
D86*
X3916680Y8373860D02*
D03*
Y8023860D02*
D03*
D87*
X5657320Y10673839D02*
D03*
X6617320D02*
D03*
X7082320Y10673840D02*
D03*
X8042320D02*
D03*
D88*
Y10053840D02*
D03*
X7562320D02*
D03*
X6137320D02*
D03*
X6617320D02*
D03*
X8275320Y11483840D02*
D03*
X5425320D02*
D03*
D89*
X8275320Y13763840D02*
D03*
Y12763840D02*
D03*
Y11763840D02*
D03*
Y11013840D02*
D03*
Y10513840D02*
D03*
X5425320Y13263840D02*
D03*
Y12263840D02*
D03*
Y11263840D02*
D03*
Y10263840D02*
D03*
X6850320D02*
D03*
Y11263840D02*
D03*
Y12263840D02*
D03*
Y13263840D02*
D03*
%TF.MD5,d357c1a637d77c5ce05f4f156a5cd30d*%
M02*
