G04 Layer_Color=65535*
%FSLAX45Y45*%
%MOMM*%
%TF.FileFunction,Legend,Top*%
%TF.Part,Single*%
G01*
G75*
%TA.AperFunction,NonConductor*%
%ADD63C,0.25400*%
%ADD95C,0.05080*%
%ADD127C,0.10000*%
%ADD128C,0.25000*%
%ADD129C,0.20000*%
%ADD130C,0.10160*%
%ADD131C,0.12700*%
%ADD193C,0.15240*%
%ADD194C,0.07620*%
G36*
X7153439Y5734510D02*
X7128039D01*
Y5772610D01*
X7153439D01*
Y5734510D01*
D02*
G37*
G36*
X6315239Y5584510D02*
X6289839D01*
Y5622610D01*
X6315239D01*
Y5584510D01*
D02*
G37*
G36*
X6615689Y5146760D02*
X6577589D01*
Y5172160D01*
X6615689D01*
Y5146760D01*
D02*
G37*
G36*
X6665689Y5984960D02*
X6627589D01*
Y6010360D01*
X6665689D01*
Y5984960D01*
D02*
G37*
G36*
X8794100Y9150060D02*
Y9250060D01*
X8894100D01*
X8794100Y9150060D01*
D02*
G37*
G36*
X3280810Y8038100D02*
X3242710D01*
Y8063500D01*
X3280810D01*
Y8038100D01*
D02*
G37*
G36*
X3230810Y7490940D02*
X3192710D01*
Y7516340D01*
X3230810D01*
Y7490940D01*
D02*
G37*
D63*
X7454740Y8983980D02*
G03*
X7454740Y8983980I-10000J0D01*
G01*
X4291680Y8198860D02*
G03*
X4291680Y8198860I-375000J0D01*
G01*
X12291680Y11663720D02*
X13956680D01*
X12291680Y11033720D02*
X13956680D01*
Y11663720D01*
X12291680Y11033720D02*
Y11663720D01*
X16283940Y10919460D02*
X16664940D01*
X16283940D02*
Y10995660D01*
X16664940Y5153660D02*
Y10919460D01*
X15623540Y10995660D02*
X16283940D01*
X15623540Y10919460D02*
Y10995660D01*
X15242540Y10919460D02*
X15623540D01*
X15242540Y5153660D02*
X16664940D01*
X15242540D02*
Y10919460D01*
X12100560Y12834621D02*
X12252960D01*
X12100560D02*
Y13025121D01*
X11574780Y12834621D02*
X11727180D01*
X11574780D02*
Y13025121D01*
X3815600Y12263360D02*
Y13563361D01*
X4515600Y12263360D02*
Y13563361D01*
X3815600Y12263360D02*
X4515600D01*
X3815600Y13563361D02*
X4515600D01*
X5587320Y10248840D02*
X6687320D01*
X5587320D02*
Y11071840D01*
X6611640D01*
X6687320Y10996160D01*
Y10248840D02*
Y10996160D01*
X7012320Y10248840D02*
X8112320D01*
X7012320D02*
Y11071840D01*
X8036640D01*
X8112320Y10996160D01*
Y10248840D02*
Y10996160D01*
X5325320Y9983840D02*
Y14213840D01*
X8375320Y9983840D02*
Y14213840D01*
X5325320D02*
X8375320D01*
X5325320Y9983840D02*
X8375320D01*
X12448507Y11973511D02*
X12397723D01*
X12423115D01*
Y11846552D01*
X12397723Y11821160D01*
X12372332D01*
X12346940Y11846552D01*
X12499291Y11973511D02*
X12600858D01*
X12550074D01*
Y11821160D01*
X12651641D02*
Y11922727D01*
X12702425Y11973511D01*
X12753209Y11922727D01*
Y11821160D01*
Y11897335D01*
X12651641D01*
X12905559Y11948119D02*
X12880168Y11973511D01*
X12829384D01*
X12803992Y11948119D01*
Y11846552D01*
X12829384Y11821160D01*
X12880168D01*
X12905559Y11846552D01*
Y11897335D01*
X12854776D01*
D95*
X11731900Y7059840D02*
Y7080160D01*
X11810640Y7059840D02*
Y7080160D01*
X4761880Y4251960D02*
X4782200D01*
X4761880Y4173220D02*
X4782200D01*
X4688220Y4058920D02*
Y4079240D01*
X4766960Y4058920D02*
Y4079240D01*
X3055620Y12397480D02*
X3075940D01*
X3055620Y12476220D02*
X3075940D01*
X2885440D02*
Y12496540D01*
X2964180Y12476220D02*
Y12496540D01*
X8999220Y10149840D02*
Y10170160D01*
X8920480Y10149840D02*
Y10170160D01*
X8912860Y10149840D02*
Y10170160D01*
X8834120Y10149840D02*
Y10170160D01*
X3903980Y7264400D02*
X3924300D01*
X3903980Y7185660D02*
X3924300D01*
X12355407Y9596120D02*
Y9616440D01*
X12434147Y9596120D02*
Y9616440D01*
X12618720Y9596120D02*
Y9616440D01*
X12539980Y9596120D02*
Y9616440D01*
X12526433Y9596120D02*
Y9616440D01*
X12447693Y9596120D02*
Y9616440D01*
X12341860Y9596120D02*
Y9616440D01*
X12263120Y9596120D02*
Y9616440D01*
X13515340Y12227560D02*
Y12247880D01*
X13594080Y12227560D02*
Y12247880D01*
X13642340Y12227560D02*
Y12247880D01*
X13721080Y12227560D02*
Y12247880D01*
X13896339Y12227560D02*
Y12247880D01*
X13975079Y12227560D02*
Y12247880D01*
X13769341Y12227560D02*
Y12247880D01*
X13848080Y12227560D02*
Y12247880D01*
X12702540Y12907060D02*
Y12927380D01*
X12623800Y12907060D02*
Y12927380D01*
X12834621Y12898920D02*
Y12919240D01*
X12755880Y12898920D02*
Y12919240D01*
X6604799Y4798780D02*
X6625119D01*
X6604799Y4877520D02*
X6625119D01*
X6377140Y4986020D02*
Y5006340D01*
X6455880Y4986020D02*
Y5006340D01*
X6414299Y4798780D02*
X6434619D01*
X6414299Y4877520D02*
X6434619D01*
X5687859Y5476960D02*
Y5497280D01*
X5609119Y5476960D02*
Y5497280D01*
X5687859Y5690320D02*
Y5710640D01*
X5609119Y5690320D02*
Y5710640D01*
X6498119Y6155140D02*
Y6175460D01*
X6419379Y6155140D02*
Y6175460D01*
X6410960Y6390640D02*
X6431280D01*
X6410960Y6311900D02*
X6431280D01*
X6958800Y4986020D02*
Y5006340D01*
X7037540Y4986020D02*
Y5006340D01*
X6601460Y6388100D02*
X6621780D01*
X6601460Y6309360D02*
X6621780D01*
X6980719Y4798780D02*
X7001039D01*
X6980719Y4877520D02*
X7001039D01*
X6795299Y4798780D02*
X6815619D01*
X6795299Y4877520D02*
X6815619D01*
X7042620Y6151880D02*
Y6172200D01*
X6963880Y6151880D02*
Y6172200D01*
X7814780Y5542280D02*
Y5562600D01*
X7893520Y5542280D02*
Y5562600D01*
X7703020Y5567680D02*
X7723340D01*
X7703020Y5646420D02*
X7723340D01*
X6666700Y5026660D02*
Y5046980D01*
X6587960Y5026660D02*
Y5046980D01*
X6712420Y6108700D02*
X6732740D01*
X6712420Y6187440D02*
X6732740D01*
X3594100Y7342880D02*
Y7363200D01*
X3515360Y7342880D02*
Y7363200D01*
X3091180Y7342880D02*
Y7363200D01*
X3012440Y7342880D02*
Y7363200D01*
X3182620Y7342880D02*
Y7363200D01*
X3103880Y7342880D02*
Y7363200D01*
X3779520Y7454640D02*
X3799840D01*
X3779520Y7533380D02*
X3799840D01*
X3774440Y7342880D02*
Y7363200D01*
X3695700Y7342880D02*
Y7363200D01*
X3975100Y8950700D02*
Y8971020D01*
X3896360Y8950700D02*
Y8971020D01*
X3975100Y9143740D02*
Y9164060D01*
X3896360Y9143740D02*
Y9164060D01*
X3388360Y7342880D02*
Y7363200D01*
X3309620Y7342880D02*
Y7363200D01*
X7340600Y8077200D02*
Y8097520D01*
X7261860Y8077200D02*
Y8097520D01*
X7167880Y8077200D02*
Y8097520D01*
X7089140Y8077200D02*
Y8097520D01*
X7211060Y7813040D02*
X7231380D01*
X7211060Y7734300D02*
X7231380D01*
X12171900Y7069840D02*
Y7090160D01*
X12250640Y7069840D02*
Y7090160D01*
D127*
X10112260Y13580620D02*
G03*
X10112260Y13549620I0J-15500D01*
G01*
X9926259Y12581380D02*
G03*
X9926259Y12612380I0J15500D01*
G01*
X9362440Y11899900D02*
Y11955780D01*
X9469120Y11899900D02*
Y11955780D01*
X9210040Y11838940D02*
Y11894820D01*
X9316720Y11838940D02*
Y11894820D01*
X9458960Y11417300D02*
Y11473180D01*
X9352280Y11417300D02*
Y11473180D01*
X9354820Y11092180D02*
Y11148060D01*
X9461500Y11092180D02*
Y11148060D01*
X8958580Y11417300D02*
X9014460D01*
X8958580Y11310620D02*
X9014460D01*
X8956040Y12202160D02*
X9011920D01*
X8956040Y12095480D02*
X9011920D01*
X9311640Y12275820D02*
Y12331700D01*
X9204960Y12275820D02*
Y12331700D01*
X9458960Y12209780D02*
Y12265660D01*
X9352280Y12209780D02*
Y12265660D01*
X10112260Y13507719D02*
Y13580620D01*
X9926260Y13507719D02*
Y13622020D01*
Y13507719D02*
X10112260D01*
X10017360Y13622020D02*
X10112260D01*
Y13549620D02*
Y13622020D01*
X9970360D02*
X10017360D01*
X9926260D02*
X9970360D01*
X2814320Y9672320D02*
X2870200D01*
X2814320Y9779000D02*
X2870200D01*
X2821940Y10579100D02*
X2877820D01*
X2821940Y10472420D02*
X2877820D01*
X8586820Y7171420D02*
X8673180D01*
X8586820Y7308580D02*
X8673180D01*
X8586820Y7458580D02*
X8673180D01*
X8586820Y7321420D02*
X8673180D01*
X9926259Y12581380D02*
Y12654280D01*
X10112259Y12539980D02*
Y12654280D01*
X9926259D02*
X10112259D01*
X9926259Y12539980D02*
X10021159D01*
X9926259D02*
Y12612380D01*
X10021159Y12539980D02*
X10068159D01*
X10112259D01*
X7523480Y7993380D02*
Y8049260D01*
X7416800Y7993380D02*
Y8049260D01*
X7523480Y7752080D02*
Y7807960D01*
X7416800Y7752080D02*
Y7807960D01*
X11276820Y8098580D02*
X11363180D01*
X11276820Y7961420D02*
X11363180D01*
X11276820Y8241420D02*
X11363180D01*
X11276820Y8378580D02*
X11363180D01*
X11256820Y8938580D02*
X11343180D01*
X11256820Y8801420D02*
X11343180D01*
X11256820Y7321420D02*
X11343180D01*
X11256820Y7458580D02*
X11343180D01*
X11256820Y7591420D02*
X11343180D01*
X11256820Y7728580D02*
X11343180D01*
X11256820Y7071420D02*
X11343180D01*
X11256820Y7208580D02*
X11343180D01*
X11320779Y9352280D02*
X11455480D01*
X11313159Y9100820D02*
X11459660D01*
X7457440Y8590280D02*
X7724140D01*
Y8945880D01*
X7457440D02*
X7724140D01*
X7457440Y8590280D02*
Y8945880D01*
X6204420Y4993640D02*
Y5080000D01*
X6341580Y4993640D02*
Y5080000D01*
X7261060Y5298440D02*
Y5384800D01*
X7398220Y5298440D02*
Y5384800D01*
X6401599Y6099260D02*
Y6185620D01*
X6264439Y6099260D02*
Y6185620D01*
X7395539Y5753820D02*
Y5840180D01*
X7258379Y5753820D02*
Y5840180D01*
X4937739Y5525220D02*
X5033479D01*
Y5116280D02*
Y5525220D01*
X4833479Y5116280D02*
X5033479D01*
X4833479D02*
Y5525220D01*
X4937739D01*
X4706599D02*
X4802339D01*
Y5116280D02*
Y5525220D01*
X4602339Y5116280D02*
X4802339D01*
X4602339D02*
Y5525220D01*
X4706599D01*
X7268680Y4409440D02*
Y4465320D01*
X7375360Y4409440D02*
Y4465320D01*
X5789559Y5421180D02*
Y5751180D01*
Y5421180D02*
X6119559D01*
X5789559Y5751180D02*
X6119559D01*
X6119759Y5421180D02*
Y5751180D01*
X6327140Y8953500D02*
X6383020D01*
X6327140Y8846820D02*
X6383020D01*
X7502360Y5504180D02*
Y5560060D01*
X7609040Y5504180D02*
Y5560060D01*
X4995380Y5796280D02*
Y5852160D01*
X4888700Y5796280D02*
Y5852160D01*
X9528580Y9426820D02*
Y9513180D01*
X9391420Y9426820D02*
Y9513180D01*
X9991420Y9356820D02*
Y9443180D01*
X10128580Y9356820D02*
Y9443180D01*
X8627000Y7746340D02*
Y7892840D01*
X8375540Y7753960D02*
Y7888660D01*
X8566820Y8740140D02*
X8653180D01*
X8566820Y8602980D02*
X8653180D01*
X8566820Y8911420D02*
X8653180D01*
X8566820Y9048580D02*
X8653180D01*
X3388360Y8623040D02*
X3474720D01*
X3388360Y8485880D02*
X3474720D01*
X3388360Y8785600D02*
X3474720D01*
X3388360Y8648440D02*
X3474720D01*
X2506980Y7784840D02*
Y7871200D01*
X2644140Y7784840D02*
Y7871200D01*
X2801620Y7784840D02*
Y7871200D01*
X2664460Y7784840D02*
Y7871200D01*
X8343960Y8364460D02*
X8478660D01*
X8336340Y8113000D02*
X8482840D01*
X8956040Y12082780D02*
X9011920D01*
X8956040Y11976100D02*
X9011920D01*
X9199880Y11021060D02*
Y11076940D01*
X9306560Y11021060D02*
Y11076940D01*
X8958580Y11290300D02*
X9014460D01*
X8958580Y11183620D02*
X9014460D01*
X9319260Y11488420D02*
Y11544300D01*
X9212580Y11488420D02*
Y11544300D01*
X5738659Y5797303D02*
X5765317Y5770645D01*
X5738659D02*
X5765317Y5797303D01*
X5738659Y5783974D02*
X5765317D01*
X5751988Y5770645D02*
Y5797303D01*
D128*
X12184199Y7226920D02*
G03*
X12184199Y7226920I-12500J0D01*
G01*
X13483479Y12472700D02*
G03*
X13483479Y12472700I-12500J0D01*
G01*
X8741600Y9235060D02*
G03*
X8741600Y9235060I-12500J0D01*
G01*
X4091120Y9283140D02*
G03*
X4091120Y9283140I-12500J0D01*
G01*
X3207520Y12296500D02*
G03*
X3207520Y12296500I-12500J0D01*
G01*
X4602280Y3937300D02*
G03*
X4602280Y3937300I-12500J0D01*
G01*
D129*
X2876840Y12761200D02*
X3106842Y12761200D01*
Y14221201D01*
X2206840D02*
X3106842D01*
X2206840Y12761200D02*
X2436840D01*
X2206840D02*
Y12951199D01*
Y13391200D02*
Y14221201D01*
X11112500Y12837160D02*
Y13345160D01*
X9842500Y12837160D02*
Y13345160D01*
X11112500D01*
X9842500Y12837160D02*
X11112500D01*
X12146699Y7081920D02*
Y7131920D01*
X11836699Y7081920D02*
Y7131920D01*
X12146699D01*
X11836699Y7081920D02*
X12146699D01*
X6979920Y7785100D02*
Y8293100D01*
X6725920D02*
X6979920D01*
X6725920Y7785100D02*
Y8293100D01*
Y7785100D02*
X6979920D01*
X13496480Y12622700D02*
Y12802699D01*
X13996480D01*
X13496480Y12622700D02*
X13996480D01*
Y12802699D01*
X11094100Y6950060D02*
Y9250060D01*
X8794100D02*
X11094100D01*
X8794100Y9150060D02*
X8894100Y9250060D01*
X8794100Y6950060D02*
X11094100D01*
X8794100D02*
Y9250060D01*
X4614380Y5819140D02*
Y5923280D01*
X4802340Y5819140D02*
Y5923280D01*
X4183620Y8960640D02*
X4213620D01*
X4183620D02*
Y9250640D01*
X4213620Y8960640D02*
Y9250640D01*
X4183620D02*
X4213620D01*
X2872520Y12161500D02*
Y12191500D01*
X3162520D01*
X2872520Y12161500D02*
X3162520D01*
Y12191500D01*
X4454780Y4259800D02*
X4484780D01*
Y3969800D02*
Y4259800D01*
X4454780Y3969800D02*
Y4259800D01*
Y3969800D02*
X4484780D01*
D130*
X15483839Y10995660D02*
X15504160D01*
X15483839Y10934700D02*
X15504160D01*
X15483839Y11082020D02*
X15504160D01*
X15483839Y11021060D02*
X15504160D01*
X7813040Y8737600D02*
X7833360D01*
X7813040Y8798560D02*
X7833360D01*
X7813040Y8628380D02*
X7833360D01*
X7813040Y8689340D02*
X7833360D01*
X7411720Y8757920D02*
Y8778240D01*
X7350760Y8757920D02*
Y8778240D01*
X7339659Y5636980D02*
X7359979D01*
X7339659Y5576020D02*
X7359979D01*
X6532080Y4986020D02*
Y5006340D01*
X6471120Y4986020D02*
Y5006340D01*
X6209500Y5448300D02*
Y5468620D01*
X6270460Y5448300D02*
Y5468620D01*
X6515899Y6155140D02*
Y6175460D01*
X6576859Y6155140D02*
Y6175460D01*
X6212040Y5725160D02*
Y5745480D01*
X6273000Y5725160D02*
Y5745480D01*
X6946100Y4983480D02*
Y5003800D01*
X6885140Y4983480D02*
Y5003800D01*
X7180480Y5049840D02*
Y5070160D01*
X7119520Y5049840D02*
Y5070160D01*
X6874039Y6155141D02*
Y6175461D01*
X6934999Y6155141D02*
Y6175461D01*
X6740360Y5026660D02*
Y5046980D01*
X6679400Y5026660D02*
Y5046980D01*
X6824180Y5026660D02*
Y5046980D01*
X6763220Y5026660D02*
Y5046980D01*
X2909840Y7759520D02*
X2930160D01*
X2909840Y7820480D02*
X2930160D01*
X3779520Y7614660D02*
X3799840D01*
X3779520Y7553700D02*
X3799840D01*
X3408680Y7342880D02*
Y7363200D01*
X3469640Y7342880D02*
Y7363200D01*
X3522980Y7523220D02*
Y7543540D01*
X3583940Y7523220D02*
Y7543540D01*
X3611880Y7342880D02*
Y7363200D01*
X3672840Y7342880D02*
Y7363200D01*
X3674580Y7772140D02*
X3694900D01*
X3674580Y7711180D02*
X3694900D01*
D131*
X3418840Y10129520D02*
G03*
X3418840Y10129520I-152400J0D01*
G01*
X3388360D02*
G03*
X3388360Y10129520I-121920J0D01*
G01*
X6070600Y8493760D02*
G03*
X6070600Y8493760I-152400J0D01*
G01*
X6040120D02*
G03*
X6040120Y8493760I-121920J0D01*
G01*
X7473950Y8307070D02*
X7519670Y8261350D01*
X7428230D02*
X7473950Y8307070D01*
X7428230Y8261350D02*
X7519670D01*
X3065780Y10416540D02*
X3466440D01*
X3065780Y9844520D02*
X3215640D01*
X3316440D02*
X3466440D01*
X3215640Y9819520D02*
Y9844520D01*
Y9819520D02*
X3316440D01*
Y9844520D01*
X3086100Y10029520D02*
Y10231120D01*
X3065780D02*
X3086100D01*
X3045460D02*
X3065780D01*
X3045460Y10029520D02*
Y10231120D01*
Y10029520D02*
X3065780D01*
X3086100D01*
X3486440D02*
Y10231120D01*
X3466440D02*
X3486440D01*
X3446440D02*
X3466440D01*
X3446440Y10029520D02*
Y10231120D01*
Y10029520D02*
X3466440D01*
X3486440D01*
X3065780Y9844520D02*
Y10029520D01*
Y10231120D02*
Y10416540D01*
X3466440Y10231120D02*
Y10416540D01*
Y9844520D02*
Y10029520D01*
X3811270Y4810810D02*
X3902710D01*
X3811270D02*
X3856990Y4856530D01*
X3902710Y4810810D01*
X3679190D02*
X3770630D01*
X3679190D02*
X3724910Y4856530D01*
X3770630Y4810810D01*
X5718200Y8206740D02*
X6118860D01*
X5969000Y8778760D02*
X6118860D01*
X5718200D02*
X5868200D01*
X5969000D02*
Y8803760D01*
X5868200D02*
X5969000D01*
X5868200Y8778760D02*
Y8803760D01*
X6098540Y8392160D02*
Y8593760D01*
Y8392160D02*
X6118860D01*
X6139180D01*
Y8593760D01*
X6118860D02*
X6139180D01*
X6098540D02*
X6118860D01*
X5698200Y8392160D02*
Y8593760D01*
Y8392160D02*
X5718200D01*
X5738200D01*
Y8593760D01*
X5718200D02*
X5738200D01*
X5698200D02*
X5718200D01*
X6118860D02*
Y8778760D01*
Y8206740D02*
Y8392160D01*
X5718200Y8206740D02*
Y8392160D01*
Y8593760D02*
Y8778760D01*
X12617450Y13114070D02*
X12708890D01*
X12617450D02*
X12663170Y13159790D01*
X12708890Y13114070D01*
X12752070Y13116611D02*
X12843510D01*
X12752070D02*
X12797790Y13162331D01*
X12843510Y13116611D01*
X5598160Y9105879D02*
Y9042400D01*
X5629900D01*
X5640480Y9052980D01*
Y9063560D01*
X5629900Y9074140D01*
X5598160D01*
X5629900D01*
X5640480Y9084720D01*
Y9095300D01*
X5629900Y9105879D01*
X5598160D01*
X5661639Y9042400D02*
X5682799D01*
X5672219D01*
Y9105879D01*
X5661639Y9095300D01*
X3200000Y10723479D02*
Y10660000D01*
X3231740D01*
X3242320Y10670580D01*
Y10681160D01*
X3231740Y10691740D01*
X3200000D01*
X3231740D01*
X3242320Y10702320D01*
Y10712900D01*
X3231740Y10723479D01*
X3200000D01*
X3305799Y10660000D02*
X3263479D01*
X3305799Y10702320D01*
Y10712900D01*
X3295219Y10723479D01*
X3274059D01*
X3263479Y10712900D01*
X15482320Y11272899D02*
X15471741Y11283479D01*
X15450580D01*
X15439999Y11272899D01*
Y11230580D01*
X15450580Y11220000D01*
X15471741D01*
X15482320Y11230580D01*
X15503481Y11272899D02*
X15514059Y11283479D01*
X15535219D01*
X15545799Y11272899D01*
Y11262320D01*
X15535219Y11251740D01*
X15524638D01*
X15535219D01*
X15545799Y11241160D01*
Y11230580D01*
X15535219Y11220000D01*
X15514059D01*
X15503481Y11230580D01*
X15482320Y11182900D02*
X15471741Y11193480D01*
X15450580D01*
X15439999Y11182900D01*
Y11140580D01*
X15450580Y11130000D01*
X15471741D01*
X15482320Y11140580D01*
X15535219Y11130000D02*
Y11193480D01*
X15503481Y11161740D01*
X15545799D01*
X7812180Y8584760D02*
X7801600Y8595339D01*
X7780440D01*
X7769860Y8584760D01*
Y8542440D01*
X7780440Y8531860D01*
X7801600D01*
X7812180Y8542440D01*
X7875659Y8595339D02*
X7854499Y8584760D01*
X7833339Y8563600D01*
Y8542440D01*
X7843919Y8531860D01*
X7865079D01*
X7875659Y8542440D01*
Y8553020D01*
X7865079Y8563600D01*
X7833339D01*
X7817260Y8874320D02*
X7806680Y8884899D01*
X7785520D01*
X7774940Y8874320D01*
Y8832000D01*
X7785520Y8821420D01*
X7806680D01*
X7817260Y8832000D01*
X7838419Y8884899D02*
X7880739D01*
Y8874320D01*
X7838419Y8832000D01*
Y8821420D01*
X7262320Y8812900D02*
X7251740Y8823479D01*
X7230580D01*
X7220000Y8812900D01*
Y8770580D01*
X7230580Y8760000D01*
X7251740D01*
X7262320Y8770580D01*
X7283479Y8812900D02*
X7294059Y8823479D01*
X7315219D01*
X7325799Y8812900D01*
Y8802320D01*
X7315219Y8791740D01*
X7325799Y8781160D01*
Y8770580D01*
X7315219Y8760000D01*
X7294059D01*
X7283479Y8770580D01*
Y8781160D01*
X7294059Y8791740D01*
X7283479Y8802320D01*
Y8812900D01*
X7294059Y8791740D02*
X7315219D01*
X11241180Y9483920D02*
X11230600Y9494499D01*
X11209440D01*
X11198860Y9483920D01*
Y9441600D01*
X11209440Y9431020D01*
X11230600D01*
X11241180Y9441600D01*
X11262339D02*
X11272919Y9431020D01*
X11294079D01*
X11304659Y9441600D01*
Y9483920D01*
X11294079Y9494499D01*
X11272919D01*
X11262339Y9483920D01*
Y9473340D01*
X11272919Y9462760D01*
X11304659D01*
X11512320Y7162900D02*
X11501740Y7173479D01*
X11480580D01*
X11470000Y7162900D01*
Y7120580D01*
X11480580Y7110000D01*
X11501740D01*
X11512320Y7120580D01*
X11575799Y7110000D02*
X11533479D01*
X11575799Y7152320D01*
Y7162900D01*
X11565219Y7173479D01*
X11544059D01*
X11533479Y7162900D01*
X11596959D02*
X11607539Y7173479D01*
X11628699D01*
X11639278Y7162900D01*
Y7152320D01*
X11628699Y7141740D01*
X11639278Y7131160D01*
Y7120580D01*
X11628699Y7110000D01*
X11607539D01*
X11596959Y7120580D01*
Y7131160D01*
X11607539Y7141740D01*
X11596959Y7152320D01*
Y7162900D01*
X11607539Y7141740D02*
X11628699D01*
X11522320Y7682900D02*
X11511740Y7693479D01*
X11490580D01*
X11480000Y7682900D01*
Y7640580D01*
X11490580Y7630000D01*
X11511740D01*
X11522320Y7640580D01*
X11585799Y7630000D02*
X11543479D01*
X11585799Y7672320D01*
Y7682900D01*
X11575219Y7693479D01*
X11554059D01*
X11543479Y7682900D01*
X11606959Y7640580D02*
X11617539Y7630000D01*
X11638699D01*
X11649278Y7640580D01*
Y7682900D01*
X11638699Y7693479D01*
X11617539D01*
X11606959Y7682900D01*
Y7672320D01*
X11617539Y7661740D01*
X11649278D01*
X8837419Y7420040D02*
X8826839Y7430619D01*
X8805679D01*
X8795100Y7420040D01*
Y7377720D01*
X8805679Y7367140D01*
X8826839D01*
X8837419Y7377720D01*
X8858579Y7420040D02*
X8869159Y7430619D01*
X8890319D01*
X8900899Y7420040D01*
Y7409460D01*
X8890319Y7398880D01*
X8879739D01*
X8890319D01*
X8900899Y7388300D01*
Y7377720D01*
X8890319Y7367140D01*
X8869159D01*
X8858579Y7377720D01*
X8953798Y7367140D02*
Y7430619D01*
X8922058Y7398880D01*
X8964378D01*
X8839960Y7264960D02*
X8829380Y7275539D01*
X8808220D01*
X8797640Y7264960D01*
Y7222640D01*
X8808220Y7212060D01*
X8829380D01*
X8839960Y7222640D01*
X8861119Y7264960D02*
X8871699Y7275539D01*
X8892859D01*
X8903439Y7264960D01*
Y7254380D01*
X8892859Y7243800D01*
X8882279D01*
X8892859D01*
X8903439Y7233220D01*
Y7222640D01*
X8892859Y7212060D01*
X8871699D01*
X8861119Y7222640D01*
X8966919Y7275539D02*
X8924599D01*
Y7243800D01*
X8945759Y7254380D01*
X8956339D01*
X8966919Y7243800D01*
Y7222640D01*
X8956339Y7212060D01*
X8935179D01*
X8924599Y7222640D01*
X11262320Y7542900D02*
X11251740Y7553479D01*
X11230580D01*
X11220000Y7542900D01*
Y7500580D01*
X11230580Y7490000D01*
X11251740D01*
X11262320Y7500580D01*
X11315219Y7490000D02*
Y7553479D01*
X11283479Y7521740D01*
X11325799D01*
X11346959Y7542900D02*
X11357539Y7553479D01*
X11378699D01*
X11389278Y7542900D01*
Y7500580D01*
X11378699Y7490000D01*
X11357539D01*
X11346959Y7500580D01*
Y7542900D01*
X11512320Y8932900D02*
X11501740Y8943479D01*
X11480580D01*
X11470000Y8932900D01*
Y8890580D01*
X11480580Y8880000D01*
X11501740D01*
X11512320Y8890580D01*
X11565219Y8880000D02*
Y8943479D01*
X11533479Y8911740D01*
X11575799D01*
X11596959Y8880000D02*
X11618118D01*
X11607539D01*
Y8943479D01*
X11596959Y8932900D01*
X8362320Y8462900D02*
X8351740Y8473479D01*
X8330580D01*
X8320000Y8462900D01*
Y8420580D01*
X8330580Y8410000D01*
X8351740D01*
X8362320Y8420580D01*
X8415219Y8410000D02*
Y8473479D01*
X8383480Y8441740D01*
X8425799D01*
X8446959Y8462900D02*
X8457539Y8473479D01*
X8478699D01*
X8489279Y8462900D01*
Y8452320D01*
X8478699Y8441740D01*
X8489279Y8431160D01*
Y8420580D01*
X8478699Y8410000D01*
X8457539D01*
X8446959Y8420580D01*
Y8431160D01*
X8457539Y8441740D01*
X8446959Y8452320D01*
Y8462900D01*
X8457539Y8441740D02*
X8478699D01*
X8314500Y9004960D02*
X8303920Y9015539D01*
X8282760D01*
X8272180Y9004960D01*
Y8962640D01*
X8282760Y8952060D01*
X8303920D01*
X8314500Y8962640D01*
X8377979Y9015539D02*
X8335659D01*
Y8983800D01*
X8356819Y8994380D01*
X8367399D01*
X8377979Y8983800D01*
Y8962640D01*
X8367399Y8952060D01*
X8346239D01*
X8335659Y8962640D01*
X8399139Y9004960D02*
X8409719Y9015539D01*
X8430879D01*
X8441459Y9004960D01*
Y8994380D01*
X8430879Y8983800D01*
X8420299D01*
X8430879D01*
X8441459Y8973220D01*
Y8962640D01*
X8430879Y8952060D01*
X8409719D01*
X8399139Y8962640D01*
X8312320Y8692900D02*
X8301740Y8703479D01*
X8280580D01*
X8270000Y8692900D01*
Y8650580D01*
X8280580Y8640000D01*
X8301740D01*
X8312320Y8650580D01*
X8375799Y8703479D02*
X8333479D01*
Y8671740D01*
X8354639Y8682320D01*
X8365219D01*
X8375799Y8671740D01*
Y8650580D01*
X8365219Y8640000D01*
X8344059D01*
X8333479Y8650580D01*
X8428699Y8640000D02*
Y8703479D01*
X8396959Y8671740D01*
X8439279D01*
X8267101Y7772320D02*
X8256521Y7761740D01*
Y7740580D01*
X8267101Y7730000D01*
X8309420D01*
X8320000Y7740580D01*
Y7761740D01*
X8309420Y7772320D01*
X8256521Y7835799D02*
Y7793479D01*
X8288260D01*
X8277680Y7814639D01*
Y7825219D01*
X8288260Y7835799D01*
X8309420D01*
X8320000Y7825219D01*
Y7804059D01*
X8309420Y7793479D01*
X8256521Y7899279D02*
Y7856959D01*
X8288260D01*
X8277680Y7878119D01*
Y7888699D01*
X8288260Y7899279D01*
X8309420D01*
X8320000Y7888699D01*
Y7867539D01*
X8309420Y7856959D01*
X11532320Y8342899D02*
X11521740Y8353479D01*
X11500580D01*
X11490000Y8342899D01*
Y8300580D01*
X11500580Y8290000D01*
X11521740D01*
X11532320Y8300580D01*
X11595799Y8353479D02*
X11553479D01*
Y8321740D01*
X11574639Y8332320D01*
X11585219D01*
X11595799Y8321740D01*
Y8300580D01*
X11585219Y8290000D01*
X11564059D01*
X11553479Y8300580D01*
X11616959Y8353479D02*
X11659278D01*
Y8342899D01*
X11616959Y8300580D01*
Y8290000D01*
X11522320Y8042900D02*
X11511740Y8053479D01*
X11490580D01*
X11480000Y8042900D01*
Y8000580D01*
X11490580Y7990000D01*
X11511740D01*
X11522320Y8000580D01*
X11585799Y8053479D02*
X11543479D01*
Y8021740D01*
X11564639Y8032320D01*
X11575219D01*
X11585799Y8021740D01*
Y8000580D01*
X11575219Y7990000D01*
X11554059D01*
X11543479Y8000580D01*
X11606959Y8042900D02*
X11617539Y8053479D01*
X11638699D01*
X11649278Y8042900D01*
Y8032320D01*
X11638699Y8021740D01*
X11649278Y8011160D01*
Y8000580D01*
X11638699Y7990000D01*
X11617539D01*
X11606959Y8000580D01*
Y8011160D01*
X11617539Y8021740D01*
X11606959Y8032320D01*
Y8042900D01*
X11617539Y8021740D02*
X11638699D01*
X9942900Y9427680D02*
X9953479Y9438260D01*
Y9459420D01*
X9942900Y9470000D01*
X9900580D01*
X9890000Y9459420D01*
Y9438260D01*
X9900580Y9427680D01*
X9953479Y9364201D02*
X9942900Y9385361D01*
X9921740Y9406521D01*
X9900580D01*
X9890000Y9395941D01*
Y9374781D01*
X9900580Y9364201D01*
X9911160D01*
X9921740Y9374781D01*
Y9406521D01*
X9942900Y9343041D02*
X9953479Y9332461D01*
Y9311301D01*
X9942900Y9300722D01*
X9932320D01*
X9921740Y9311301D01*
X9911160Y9300722D01*
X9900580D01*
X9890000Y9311301D01*
Y9332461D01*
X9900580Y9343041D01*
X9911160D01*
X9921740Y9332461D01*
X9932320Y9343041D01*
X9942900D01*
X9921740Y9332461D02*
Y9311301D01*
X9622899Y9507680D02*
X9633479Y9518260D01*
Y9539420D01*
X9622899Y9550000D01*
X9580580D01*
X9570000Y9539420D01*
Y9518260D01*
X9580580Y9507680D01*
X9633479Y9444201D02*
X9622899Y9465361D01*
X9601740Y9486521D01*
X9580580D01*
X9570000Y9475941D01*
Y9454781D01*
X9580580Y9444201D01*
X9591160D01*
X9601740Y9454781D01*
Y9486521D01*
X9580580Y9423041D02*
X9570000Y9412461D01*
Y9391301D01*
X9580580Y9380721D01*
X9622899D01*
X9633479Y9391301D01*
Y9412461D01*
X9622899Y9423041D01*
X9612320D01*
X9601740Y9412461D01*
Y9380721D01*
X4720619Y6386420D02*
X4731199Y6397000D01*
Y6418160D01*
X4720619Y6428740D01*
X4678300D01*
X4667720Y6418160D01*
Y6397000D01*
X4678300Y6386420D01*
X4720619Y6365261D02*
X4731199Y6354681D01*
Y6333521D01*
X4720619Y6322941D01*
X4710040D01*
X4699460Y6333521D01*
X4688880Y6322941D01*
X4678300D01*
X4667720Y6333521D01*
Y6354681D01*
X4678300Y6365261D01*
X4688880D01*
X4699460Y6354681D01*
X4710040Y6365261D01*
X4720619D01*
X4699460Y6354681D02*
Y6333521D01*
X4720619Y6301781D02*
X4731199Y6291201D01*
Y6270041D01*
X4720619Y6259461D01*
X4710040D01*
X4699460Y6270041D01*
X4688880Y6259461D01*
X4678300D01*
X4667720Y6270041D01*
Y6291201D01*
X4678300Y6301781D01*
X4688880D01*
X4699460Y6291201D01*
X4710040Y6301781D01*
X4720619D01*
X4699460Y6291201D02*
Y6270041D01*
X2553140Y8104020D02*
X2542561Y8093440D01*
Y8072280D01*
X2553140Y8061700D01*
X2595460D01*
X2606040Y8072280D01*
Y8093440D01*
X2595460Y8104020D01*
X2606040Y8125179D02*
Y8146339D01*
Y8135759D01*
X2542561D01*
X2553140Y8125179D01*
Y8178079D02*
X2542561Y8188659D01*
Y8209819D01*
X2553140Y8220399D01*
X2595460D01*
X2606040Y8209819D01*
Y8188659D01*
X2595460Y8178079D01*
X2553140D01*
X2606040Y8283878D02*
Y8241558D01*
X2563720Y8283878D01*
X2553140D01*
X2542561Y8273298D01*
Y8252138D01*
X2553140Y8241558D01*
X2713160Y8104020D02*
X2702581Y8093440D01*
Y8072280D01*
X2713160Y8061700D01*
X2755480D01*
X2766060Y8072280D01*
Y8093440D01*
X2755480Y8104020D01*
X2766060Y8125179D02*
Y8146339D01*
Y8135759D01*
X2702581D01*
X2713160Y8125179D01*
Y8178079D02*
X2702581Y8188659D01*
Y8209819D01*
X2713160Y8220399D01*
X2755480D01*
X2766060Y8209819D01*
Y8188659D01*
X2755480Y8178079D01*
X2713160D01*
Y8241558D02*
X2702581Y8252138D01*
Y8273298D01*
X2713160Y8283878D01*
X2723740D01*
X2734320Y8273298D01*
Y8262718D01*
Y8273298D01*
X2744900Y8283878D01*
X2755480D01*
X2766060Y8273298D01*
Y8252138D01*
X2755480Y8241558D01*
X2866240Y8065200D02*
X2855660Y8075779D01*
X2834500D01*
X2823920Y8065200D01*
Y8022880D01*
X2834500Y8012300D01*
X2855660D01*
X2866240Y8022880D01*
X2887399Y8012300D02*
X2908559D01*
X2897979D01*
Y8075779D01*
X2887399Y8065200D01*
X2940299D02*
X2950879Y8075779D01*
X2972039D01*
X2982619Y8065200D01*
Y8022880D01*
X2972039Y8012300D01*
X2950879D01*
X2940299Y8022880D01*
Y8065200D01*
X3046098Y8075779D02*
X3003778D01*
Y8044040D01*
X3024938Y8054620D01*
X3035518D01*
X3046098Y8044040D01*
Y8022880D01*
X3035518Y8012300D01*
X3014358D01*
X3003778Y8022880D01*
X4004720Y7609139D02*
X3994140Y7619719D01*
X3972980D01*
X3962400Y7609139D01*
Y7566820D01*
X3972980Y7556240D01*
X3994140D01*
X4004720Y7566820D01*
X4025879Y7556240D02*
X4047039D01*
X4036459D01*
Y7619719D01*
X4025879Y7609139D01*
X4078779D02*
X4089359Y7619719D01*
X4110519D01*
X4121099Y7609139D01*
Y7566820D01*
X4110519Y7556240D01*
X4089359D01*
X4078779Y7566820D01*
Y7609139D01*
X4184578Y7619719D02*
X4163418Y7609139D01*
X4142258Y7587980D01*
Y7566820D01*
X4152838Y7556240D01*
X4173998D01*
X4184578Y7566820D01*
Y7577400D01*
X4173998Y7587980D01*
X4142258D01*
X3464120Y7201500D02*
X3474699Y7212080D01*
Y7233240D01*
X3464120Y7243820D01*
X3421800D01*
X3411220Y7233240D01*
Y7212080D01*
X3421800Y7201500D01*
X3411220Y7180340D02*
Y7159181D01*
Y7169761D01*
X3474699D01*
X3464120Y7180340D01*
Y7127441D02*
X3474699Y7116861D01*
Y7095701D01*
X3464120Y7085121D01*
X3421800D01*
X3411220Y7095701D01*
Y7116861D01*
X3421800Y7127441D01*
X3464120D01*
Y7063961D02*
X3474699Y7053382D01*
Y7032222D01*
X3464120Y7021642D01*
X3453540D01*
X3442960Y7032222D01*
X3432380Y7021642D01*
X3421800D01*
X3411220Y7032222D01*
Y7053382D01*
X3421800Y7063961D01*
X3432380D01*
X3442960Y7053382D01*
X3453540Y7063961D01*
X3464120D01*
X3442960Y7053382D02*
Y7032222D01*
X3575880Y7193880D02*
X3586459Y7204460D01*
Y7225620D01*
X3575880Y7236200D01*
X3533560D01*
X3522980Y7225620D01*
Y7204460D01*
X3533560Y7193880D01*
X3522980Y7172720D02*
Y7151561D01*
Y7162141D01*
X3586459D01*
X3575880Y7172720D01*
Y7119821D02*
X3586459Y7109241D01*
Y7088081D01*
X3575880Y7077501D01*
X3533560D01*
X3522980Y7088081D01*
Y7109241D01*
X3533560Y7119821D01*
X3575880D01*
X3533560Y7056341D02*
X3522980Y7045762D01*
Y7024602D01*
X3533560Y7014022D01*
X3575880D01*
X3586459Y7024602D01*
Y7045762D01*
X3575880Y7056341D01*
X3565300D01*
X3554720Y7045762D01*
Y7014022D01*
X3664780Y7204040D02*
X3675359Y7214620D01*
Y7235780D01*
X3664780Y7246360D01*
X3622460D01*
X3611880Y7235780D01*
Y7214620D01*
X3622460Y7204040D01*
X3611880Y7182880D02*
Y7161721D01*
Y7172301D01*
X3675359D01*
X3664780Y7182880D01*
X3611880Y7129981D02*
Y7108821D01*
Y7119401D01*
X3675359D01*
X3664780Y7129981D01*
Y7077081D02*
X3675359Y7066501D01*
Y7045342D01*
X3664780Y7034762D01*
X3622460D01*
X3611880Y7045342D01*
Y7066501D01*
X3622460Y7077081D01*
X3664780D01*
X3842320Y7762900D02*
X3831740Y7773479D01*
X3810580D01*
X3800000Y7762900D01*
Y7720580D01*
X3810580Y7710000D01*
X3831740D01*
X3842320Y7720580D01*
X3863479Y7710000D02*
X3884639D01*
X3874059D01*
Y7773479D01*
X3863479Y7762900D01*
X3916379Y7710000D02*
X3937539D01*
X3926959D01*
Y7773479D01*
X3916379Y7762900D01*
X3969279Y7710000D02*
X3990438D01*
X3979858D01*
Y7773479D01*
X3969279Y7762900D01*
X6162320Y5342900D02*
X6151740Y5353480D01*
X6130580D01*
X6120000Y5342900D01*
Y5300580D01*
X6130580Y5290000D01*
X6151740D01*
X6162320Y5300580D01*
X6183479Y5353480D02*
X6225799D01*
Y5342900D01*
X6183479Y5300580D01*
Y5290000D01*
X6246959Y5300580D02*
X6257539Y5290000D01*
X6278699D01*
X6289279Y5300580D01*
Y5342900D01*
X6278699Y5353480D01*
X6257539D01*
X6246959Y5342900D01*
Y5332320D01*
X6257539Y5321740D01*
X6289279D01*
X6212900Y5967680D02*
X6223480Y5978260D01*
Y5999420D01*
X6212900Y6010000D01*
X6170580D01*
X6160000Y5999420D01*
Y5978260D01*
X6170580Y5967680D01*
X6212900Y5946520D02*
X6223480Y5935941D01*
Y5914781D01*
X6212900Y5904201D01*
X6202320D01*
X6191740Y5914781D01*
X6181160Y5904201D01*
X6170580D01*
X6160000Y5914781D01*
Y5935941D01*
X6170580Y5946520D01*
X6181160D01*
X6191740Y5935941D01*
X6202320Y5946520D01*
X6212900D01*
X6191740Y5935941D02*
Y5914781D01*
X6223480Y5840721D02*
Y5883041D01*
X6191740D01*
X6202320Y5861881D01*
Y5851301D01*
X6191740Y5840721D01*
X6170580D01*
X6160000Y5851301D01*
Y5872461D01*
X6170580Y5883041D01*
X7172560Y4879800D02*
X7183140Y4890380D01*
Y4911540D01*
X7172560Y4922120D01*
X7130241D01*
X7119661Y4911540D01*
Y4890380D01*
X7130241Y4879800D01*
Y4858640D02*
X7119661Y4848060D01*
Y4826900D01*
X7130241Y4816321D01*
X7172560D01*
X7183140Y4826900D01*
Y4848060D01*
X7172560Y4858640D01*
X7161980D01*
X7151400Y4848060D01*
Y4816321D01*
X7172560Y4795161D02*
X7183140Y4784581D01*
Y4763421D01*
X7172560Y4752841D01*
X7130241D01*
X7119661Y4763421D01*
Y4784581D01*
X7130241Y4795161D01*
X7172560D01*
X6529240Y4673740D02*
X6539820Y4684320D01*
Y4705480D01*
X6529240Y4716060D01*
X6486920D01*
X6476341Y4705480D01*
Y4684320D01*
X6486920Y4673740D01*
X6539820Y4652580D02*
Y4610261D01*
X6529240D01*
X6486920Y4652580D01*
X6476341D01*
X6529240Y4589101D02*
X6539820Y4578521D01*
Y4557361D01*
X6529240Y4546781D01*
X6518660D01*
X6508080Y4557361D01*
X6497500Y4546781D01*
X6486920D01*
X6476341Y4557361D01*
Y4578521D01*
X6486920Y4589101D01*
X6497500D01*
X6508080Y4578521D01*
X6518660Y4589101D01*
X6529240D01*
X6508080Y4578521D02*
Y4557361D01*
X6582899Y6547680D02*
X6593479Y6558260D01*
Y6579420D01*
X6582899Y6590000D01*
X6540580D01*
X6530000Y6579420D01*
Y6558260D01*
X6540580Y6547680D01*
X6582899Y6526521D02*
X6593479Y6515941D01*
Y6494781D01*
X6582899Y6484201D01*
X6572320D01*
X6561740Y6494781D01*
X6551160Y6484201D01*
X6540580D01*
X6530000Y6494781D01*
Y6515941D01*
X6540580Y6526521D01*
X6551160D01*
X6561740Y6515941D01*
X6572320Y6526521D01*
X6582899D01*
X6561740Y6515941D02*
Y6494781D01*
X6530000Y6431301D02*
X6593479D01*
X6561740Y6463041D01*
Y6420721D01*
X6940720Y4676280D02*
X6951300Y4686860D01*
Y4708020D01*
X6940720Y4718600D01*
X6898400D01*
X6887821Y4708020D01*
Y4686860D01*
X6898400Y4676280D01*
X6940720Y4655120D02*
X6951300Y4644540D01*
Y4623380D01*
X6940720Y4612801D01*
X6930140D01*
X6919560Y4623380D01*
X6908980Y4612801D01*
X6898400D01*
X6887821Y4623380D01*
Y4644540D01*
X6898400Y4655120D01*
X6908980D01*
X6919560Y4644540D01*
X6930140Y4655120D01*
X6940720D01*
X6919560Y4644540D02*
Y4623380D01*
X6951300Y4591641D02*
Y4549321D01*
X6940720D01*
X6898400Y4591641D01*
X6887821D01*
X6932900Y6407680D02*
X6943479Y6418260D01*
Y6439420D01*
X6932900Y6450000D01*
X6890580D01*
X6880000Y6439420D01*
Y6418260D01*
X6890580Y6407680D01*
Y6386521D02*
X6880000Y6375941D01*
Y6354781D01*
X6890580Y6344201D01*
X6932900D01*
X6943479Y6354781D01*
Y6375941D01*
X6932900Y6386521D01*
X6922320D01*
X6911740Y6375941D01*
Y6344201D01*
X6880000Y6291301D02*
X6943479D01*
X6911740Y6323041D01*
Y6280721D01*
X6292879Y4829400D02*
X6303459Y4839980D01*
Y4861140D01*
X6292879Y4871720D01*
X6250560D01*
X6239980Y4861140D01*
Y4839980D01*
X6250560Y4829400D01*
X6303459Y4808241D02*
Y4765921D01*
X6292879D01*
X6250560Y4808241D01*
X6239980D01*
Y4702441D02*
Y4744761D01*
X6282300Y4702441D01*
X6292879D01*
X6303459Y4713021D01*
Y4734181D01*
X6292879Y4744761D01*
X7349519Y5113880D02*
X7360099Y5124460D01*
Y5145620D01*
X7349519Y5156200D01*
X7307200D01*
X7296620Y5145620D01*
Y5124460D01*
X7307200Y5113880D01*
X7360099Y5092721D02*
Y5050401D01*
X7349519D01*
X7307200Y5092721D01*
X7296620D01*
X7349519Y5029241D02*
X7360099Y5018661D01*
Y4997501D01*
X7349519Y4986921D01*
X7338940D01*
X7328360Y4997501D01*
Y5008081D01*
Y4997501D01*
X7317780Y4986921D01*
X7307200D01*
X7296620Y4997501D01*
Y5018661D01*
X7307200Y5029241D01*
X6272900Y6427680D02*
X6283479Y6438260D01*
Y6459420D01*
X6272900Y6470000D01*
X6230580D01*
X6220000Y6459420D01*
Y6438260D01*
X6230580Y6427680D01*
X6283479Y6406521D02*
Y6364201D01*
X6272900D01*
X6230580Y6406521D01*
X6220000D01*
Y6311301D02*
X6283479D01*
X6251740Y6343041D01*
Y6300721D01*
X7352059Y6109560D02*
X7362639Y6120140D01*
Y6141300D01*
X7352059Y6151880D01*
X7309740D01*
X7299160Y6141300D01*
Y6120140D01*
X7309740Y6109560D01*
X7362639Y6088401D02*
Y6046081D01*
X7352059D01*
X7309740Y6088401D01*
X7299160D01*
X7362639Y5982601D02*
Y6024921D01*
X7330900D01*
X7341480Y6003761D01*
Y5993181D01*
X7330900Y5982601D01*
X7309740D01*
X7299160Y5993181D01*
Y6014341D01*
X7309740Y6024921D01*
X7292320Y5542900D02*
X7281740Y5553479D01*
X7260580D01*
X7250000Y5542900D01*
Y5500580D01*
X7260580Y5490000D01*
X7281740D01*
X7292320Y5500580D01*
X7313479Y5553479D02*
X7355799D01*
Y5542900D01*
X7313479Y5500580D01*
Y5490000D01*
X7419279Y5553479D02*
X7398119Y5542900D01*
X7376959Y5521740D01*
Y5500580D01*
X7387539Y5490000D01*
X7408699D01*
X7419279Y5500580D01*
Y5511160D01*
X7408699Y5521740D01*
X7376959D01*
X4962900Y4957680D02*
X4973480Y4968260D01*
Y4989420D01*
X4962900Y5000000D01*
X4920580D01*
X4910000Y4989420D01*
Y4968260D01*
X4920580Y4957680D01*
X4962900Y4936520D02*
X4973480Y4925941D01*
Y4904781D01*
X4962900Y4894201D01*
X4952320D01*
X4941740Y4904781D01*
X4931160Y4894201D01*
X4920580D01*
X4910000Y4904781D01*
Y4925941D01*
X4920580Y4936520D01*
X4931160D01*
X4941740Y4925941D01*
X4952320Y4936520D01*
X4962900D01*
X4941740Y4925941D02*
Y4904781D01*
X4962900Y4873041D02*
X4973480Y4862461D01*
Y4841301D01*
X4962900Y4830721D01*
X4920580D01*
X4910000Y4841301D01*
Y4862461D01*
X4920580Y4873041D01*
X4962900D01*
X4722900Y4957680D02*
X4733479Y4968260D01*
Y4989420D01*
X4722900Y5000000D01*
X4680580D01*
X4670000Y4989420D01*
Y4968260D01*
X4680580Y4957680D01*
X4722900Y4936520D02*
X4733479Y4925941D01*
Y4904781D01*
X4722900Y4894201D01*
X4712320D01*
X4701740Y4904781D01*
X4691160Y4894201D01*
X4680580D01*
X4670000Y4904781D01*
Y4925941D01*
X4680580Y4936520D01*
X4691160D01*
X4701740Y4925941D01*
X4712320Y4936520D01*
X4722900D01*
X4701740Y4925941D02*
Y4904781D01*
X4670000Y4830721D02*
Y4873041D01*
X4712320Y4830721D01*
X4722900D01*
X4733479Y4841301D01*
Y4862461D01*
X4722900Y4873041D01*
X7352899Y4677680D02*
X7363479Y4688260D01*
Y4709420D01*
X7352899Y4720000D01*
X7310580D01*
X7300000Y4709420D01*
Y4688260D01*
X7310580Y4677680D01*
Y4656521D02*
X7300000Y4645941D01*
Y4624781D01*
X7310580Y4614201D01*
X7352899D01*
X7363479Y4624781D01*
Y4645941D01*
X7352899Y4656521D01*
X7342320D01*
X7331740Y4645941D01*
Y4614201D01*
X7300000Y4593041D02*
Y4571881D01*
Y4582461D01*
X7363479D01*
X7352899Y4593041D01*
X7571300Y5797140D02*
X7581879Y5807720D01*
Y5828880D01*
X7571300Y5839460D01*
X7528980D01*
X7518400Y5828880D01*
Y5807720D01*
X7528980Y5797140D01*
Y5775981D02*
X7518400Y5765401D01*
Y5744241D01*
X7528980Y5733661D01*
X7571300D01*
X7581879Y5744241D01*
Y5765401D01*
X7571300Y5775981D01*
X7560720D01*
X7550140Y5765401D01*
Y5733661D01*
X7581879Y5670181D02*
Y5712501D01*
X7550140D01*
X7560720Y5691341D01*
Y5680761D01*
X7550140Y5670181D01*
X7528980D01*
X7518400Y5680761D01*
Y5701921D01*
X7528980Y5712501D01*
X3002320Y8572900D02*
X2991740Y8583479D01*
X2970580D01*
X2960000Y8572900D01*
Y8530580D01*
X2970580Y8520000D01*
X2991740D01*
X3002320Y8530580D01*
X3034059Y8520000D02*
X3055219D01*
X3065799Y8530580D01*
Y8551740D01*
X3055219Y8562320D01*
X3034059D01*
X3023479Y8551740D01*
Y8530580D01*
X3034059Y8520000D01*
X3086959Y8562320D02*
Y8530580D01*
X3097539Y8520000D01*
X3129278D01*
Y8562320D01*
X3161018Y8572900D02*
Y8562320D01*
X3150438D01*
X3171598D01*
X3161018D01*
Y8530580D01*
X3171598Y8520000D01*
X3203338D02*
X3224497D01*
X3213918D01*
Y8583479D01*
X3203338Y8572900D01*
X2992320Y8742899D02*
X2981740Y8753479D01*
X2960580D01*
X2950000Y8742899D01*
Y8700580D01*
X2960580Y8690000D01*
X2981740D01*
X2992320Y8700580D01*
X3024059Y8690000D02*
X3045219D01*
X3055799Y8700580D01*
Y8721740D01*
X3045219Y8732320D01*
X3024059D01*
X3013479Y8721740D01*
Y8700580D01*
X3024059Y8690000D01*
X3076959Y8732320D02*
Y8700580D01*
X3087539Y8690000D01*
X3119278D01*
Y8732320D01*
X3151018Y8742899D02*
Y8732320D01*
X3140438D01*
X3161598D01*
X3151018D01*
Y8700580D01*
X3161598Y8690000D01*
X3235657D02*
X3193338D01*
X3235657Y8732320D01*
Y8742899D01*
X3225078Y8753479D01*
X3203918D01*
X3193338Y8742899D01*
X6734980Y4714380D02*
X6745560Y4724960D01*
Y4746120D01*
X6734980Y4756700D01*
X6692660D01*
X6682081Y4746120D01*
Y4724960D01*
X6692660Y4714380D01*
Y4693220D02*
X6682081Y4682640D01*
Y4661480D01*
X6692660Y4650901D01*
X6734980D01*
X6745560Y4661480D01*
Y4682640D01*
X6734980Y4693220D01*
X6724400D01*
X6713820Y4682640D01*
Y4650901D01*
X6745560Y4587421D02*
X6734980Y4608581D01*
X6713820Y4629741D01*
X6692660D01*
X6682081Y4619161D01*
Y4598001D01*
X6692660Y4587421D01*
X6703240D01*
X6713820Y4598001D01*
Y4629741D01*
X6816260Y4719460D02*
X6826840Y4730040D01*
Y4751200D01*
X6816260Y4761780D01*
X6773940D01*
X6763361Y4751200D01*
Y4730040D01*
X6773940Y4719460D01*
Y4698300D02*
X6763361Y4687720D01*
Y4666560D01*
X6773940Y4655981D01*
X6816260D01*
X6826840Y4666560D01*
Y4687720D01*
X6816260Y4698300D01*
X6805680D01*
X6795100Y4687720D01*
Y4655981D01*
X6826840Y4634821D02*
Y4592501D01*
X6816260D01*
X6773940Y4634821D01*
X6763361D01*
X7560000Y8313479D02*
Y8250000D01*
X7591740D01*
X7602320Y8260580D01*
Y8302900D01*
X7591740Y8313479D01*
X7560000D01*
X7623480Y8250000D02*
X7644639D01*
X7634059D01*
Y8313479D01*
X7623480Y8302900D01*
X11574780Y13464519D02*
Y13401041D01*
X11606520D01*
X11617100Y13411620D01*
Y13453940D01*
X11606520Y13464519D01*
X11574780D01*
X11680579Y13401041D02*
X11638259D01*
X11680579Y13443359D01*
Y13453940D01*
X11669999Y13464519D01*
X11648839D01*
X11638259Y13453940D01*
X12158980Y13454359D02*
Y13390880D01*
X12190720D01*
X12201300Y13401460D01*
Y13443781D01*
X12190720Y13454359D01*
X12158980D01*
X12222459Y13443781D02*
X12233039Y13454359D01*
X12254199D01*
X12264779Y13443781D01*
Y13433200D01*
X12254199Y13422620D01*
X12243619D01*
X12254199D01*
X12264779Y13412041D01*
Y13401460D01*
X12254199Y13390880D01*
X12233039D01*
X12222459Y13401460D01*
X7556500Y9052539D02*
X7577660D01*
X7567080D01*
Y8989060D01*
X7556500D01*
X7577660D01*
X7651719Y9041960D02*
X7641139Y9052539D01*
X7619979D01*
X7609400Y9041960D01*
Y8999640D01*
X7619979Y8989060D01*
X7641139D01*
X7651719Y8999640D01*
X7715199Y8989060D02*
X7672879D01*
X7715199Y9031380D01*
Y9041960D01*
X7704619Y9052539D01*
X7683459D01*
X7672879Y9041960D01*
X8272320Y9913480D02*
X8251160D01*
X8261740D01*
Y9860580D01*
X8251160Y9850000D01*
X8240580D01*
X8230000Y9860580D01*
X8293479Y9902900D02*
X8304059Y9913480D01*
X8325219D01*
X8335799Y9902900D01*
Y9892320D01*
X8325219Y9881740D01*
X8314639D01*
X8325219D01*
X8335799Y9871160D01*
Y9860580D01*
X8325219Y9850000D01*
X8304059D01*
X8293479Y9860580D01*
X6582320Y9903479D02*
X6561160D01*
X6571740D01*
Y9850580D01*
X6561160Y9840000D01*
X6550580D01*
X6540000Y9850580D01*
X6635219Y9840000D02*
Y9903479D01*
X6603479Y9871740D01*
X6645799D01*
X5370000Y4313479D02*
Y4250000D01*
X5412320D01*
X5433479D02*
X5454639D01*
X5444059D01*
Y4313479D01*
X5433479Y4302899D01*
X4917440Y6934179D02*
Y6870700D01*
X4959760D01*
X5023239D02*
X4980919D01*
X5023239Y6913020D01*
Y6923600D01*
X5012659Y6934179D01*
X4991499D01*
X4980919Y6923600D01*
X8387280Y5473480D02*
Y5410000D01*
X8429600D01*
X8450759Y5462900D02*
X8461339Y5473480D01*
X8482499D01*
X8493079Y5462900D01*
Y5452320D01*
X8482499Y5441740D01*
X8471919D01*
X8482499D01*
X8493079Y5431160D01*
Y5420580D01*
X8482499Y5410000D01*
X8461339D01*
X8450759Y5420580D01*
X4401820Y7853440D02*
Y7916920D01*
X4359500D01*
X4306601D02*
Y7853440D01*
X4338341Y7885180D01*
X4296021D01*
X6728460Y8366760D02*
Y8430239D01*
X6760200D01*
X6770780Y8419660D01*
Y8398500D01*
X6760200Y8387920D01*
X6728460D01*
X6791939Y8366760D02*
X6813099D01*
X6802519D01*
Y8430239D01*
X6791939Y8419660D01*
X12197080Y11130280D02*
X12133601D01*
Y11162020D01*
X12144180Y11172600D01*
X12165340D01*
X12175920Y11162020D01*
Y11130280D01*
X12197080Y11236079D02*
Y11193759D01*
X12154760Y11236079D01*
X12144180D01*
X12133601Y11225499D01*
Y11204339D01*
X12144180Y11193759D01*
X9720000Y13380000D02*
Y13443478D01*
X9751740D01*
X9762320Y13432899D01*
Y13411740D01*
X9751740Y13401160D01*
X9720000D01*
X9783480Y13432899D02*
X9794059Y13443478D01*
X9815219D01*
X9825799Y13432899D01*
Y13422321D01*
X9815219Y13411740D01*
X9804639D01*
X9815219D01*
X9825799Y13401160D01*
Y13390581D01*
X9815219Y13380000D01*
X9794059D01*
X9783480Y13390581D01*
X5992320Y5800580D02*
Y5842900D01*
X5981740Y5853480D01*
X5960580D01*
X5950000Y5842900D01*
Y5800580D01*
X5960580Y5790000D01*
X5981740D01*
X5971160Y5811160D02*
X5992320Y5790000D01*
X5981740D02*
X5992320Y5800580D01*
X6055799Y5790000D02*
X6013479D01*
X6055799Y5832320D01*
Y5842900D01*
X6045219Y5853480D01*
X6024059D01*
X6013479Y5842900D01*
X7584440Y7747000D02*
Y7810479D01*
X7616180D01*
X7626760Y7799900D01*
Y7778740D01*
X7616180Y7768160D01*
X7584440D01*
X7605600D02*
X7626760Y7747000D01*
X7647919D02*
X7669079D01*
X7658499D01*
Y7810479D01*
X7647919Y7799900D01*
X7335520Y7896860D02*
X7272041D01*
Y7928600D01*
X7282620Y7939180D01*
X7303780D01*
X7314360Y7928600D01*
Y7896860D01*
Y7918020D02*
X7335520Y7939180D01*
Y7992079D02*
X7272041D01*
X7303780Y7960339D01*
Y8002659D01*
X7150000Y8210000D02*
X7086520D01*
Y8241740D01*
X7097100Y8252320D01*
X7118260D01*
X7128840Y8241740D01*
Y8210000D01*
Y8231160D02*
X7150000Y8252320D01*
X7086520Y8315799D02*
Y8273480D01*
X7118260D01*
X7107680Y8294639D01*
Y8305219D01*
X7118260Y8315799D01*
X7139420D01*
X7150000Y8305219D01*
Y8284059D01*
X7139420Y8273480D01*
X7000000Y7690000D02*
Y7753480D01*
X7031740D01*
X7042320Y7742900D01*
Y7721740D01*
X7031740Y7711160D01*
X7000000D01*
X7021160D02*
X7042320Y7690000D01*
X7105799Y7753480D02*
X7084639Y7742900D01*
X7063479Y7721740D01*
Y7700580D01*
X7074059Y7690000D01*
X7095219D01*
X7105799Y7700580D01*
Y7711160D01*
X7095219Y7721740D01*
X7063479D01*
X7569200Y7988300D02*
Y8051779D01*
X7600940D01*
X7611520Y8041200D01*
Y8020040D01*
X7600940Y8009460D01*
X7569200D01*
X7590360D02*
X7611520Y7988300D01*
X7632679Y8041200D02*
X7643259Y8051779D01*
X7664419D01*
X7674999Y8041200D01*
Y8030620D01*
X7664419Y8020040D01*
X7674999Y8009460D01*
Y7998880D01*
X7664419Y7988300D01*
X7643259D01*
X7632679Y7998880D01*
Y8009460D01*
X7643259Y8020040D01*
X7632679Y8030620D01*
Y8041200D01*
X7643259Y8020040D02*
X7664419D01*
X12420600Y9738360D02*
X12357121D01*
Y9770100D01*
X12367700Y9780680D01*
X12388860D01*
X12399440Y9770100D01*
Y9738360D01*
Y9759520D02*
X12420600Y9780680D01*
X12410020Y9801839D02*
X12420600Y9812419D01*
Y9833579D01*
X12410020Y9844159D01*
X12367700D01*
X12357121Y9833579D01*
Y9812419D01*
X12367700Y9801839D01*
X12378280D01*
X12388860Y9812419D01*
Y9844159D01*
X12604327Y9733280D02*
X12540847D01*
Y9765020D01*
X12551427Y9775600D01*
X12572587D01*
X12583167Y9765020D01*
Y9733280D01*
Y9754440D02*
X12604327Y9775600D01*
Y9796759D02*
Y9817919D01*
Y9807339D01*
X12540847D01*
X12551427Y9796759D01*
Y9849659D02*
X12540847Y9860239D01*
Y9881399D01*
X12551427Y9891979D01*
X12593747D01*
X12604327Y9881399D01*
Y9860239D01*
X12593747Y9849659D01*
X12551427D01*
X12518813Y9735820D02*
X12455334D01*
Y9767560D01*
X12465914Y9778140D01*
X12487074D01*
X12497654Y9767560D01*
Y9735820D01*
Y9756980D02*
X12518813Y9778140D01*
Y9799299D02*
Y9820459D01*
Y9809879D01*
X12455334D01*
X12465914Y9799299D01*
X12518813Y9852199D02*
Y9873359D01*
Y9862779D01*
X12455334D01*
X12465914Y9852199D01*
X6253480Y9024620D02*
Y9088099D01*
X6285220D01*
X6295800Y9077520D01*
Y9056360D01*
X6285220Y9045780D01*
X6253480D01*
X6274640D02*
X6295800Y9024620D01*
X6316959D02*
X6338119D01*
X6327539D01*
Y9088099D01*
X6316959Y9077520D01*
X6412179Y9024620D02*
X6369859D01*
X6412179Y9066940D01*
Y9077520D01*
X6401599Y9088099D01*
X6380439D01*
X6369859Y9077520D01*
X12321540Y9733280D02*
X12258061D01*
Y9765020D01*
X12268640Y9775600D01*
X12289800D01*
X12300380Y9765020D01*
Y9733280D01*
Y9754440D02*
X12321540Y9775600D01*
Y9796759D02*
Y9817919D01*
Y9807339D01*
X12258061D01*
X12268640Y9796759D01*
X12321540Y9881399D02*
X12258061D01*
X12289800Y9849659D01*
Y9891979D01*
X2750000Y9830000D02*
Y9893479D01*
X2781740D01*
X2792320Y9882899D01*
Y9861740D01*
X2781740Y9851160D01*
X2750000D01*
X2771160D02*
X2792320Y9830000D01*
X2813480D02*
X2834639D01*
X2824059D01*
Y9893479D01*
X2813480Y9882899D01*
X2908699Y9893479D02*
X2866379D01*
Y9861740D01*
X2887539Y9872320D01*
X2898119D01*
X2908699Y9861740D01*
Y9840580D01*
X2898119Y9830000D01*
X2876959D01*
X2866379Y9840580D01*
X2780000Y10660000D02*
Y10723479D01*
X2811740D01*
X2822320Y10712900D01*
Y10691740D01*
X2811740Y10681160D01*
X2780000D01*
X2801160D02*
X2822320Y10660000D01*
X2843479D02*
X2864639D01*
X2854059D01*
Y10723479D01*
X2843479Y10712900D01*
X2938699Y10723479D02*
X2917539Y10712900D01*
X2896379Y10691740D01*
Y10670580D01*
X2906959Y10660000D01*
X2928119D01*
X2938699Y10670580D01*
Y10681160D01*
X2928119Y10691740D01*
X2896379D01*
X3840480Y7330440D02*
Y7393919D01*
X3872220D01*
X3882800Y7383340D01*
Y7362180D01*
X3872220Y7351600D01*
X3840480D01*
X3861640D02*
X3882800Y7330440D01*
X3946279D02*
X3903959D01*
X3946279Y7372760D01*
Y7383340D01*
X3935699Y7393919D01*
X3914539D01*
X3903959Y7383340D01*
X4009759Y7330440D02*
X3967439D01*
X4009759Y7372760D01*
Y7383340D01*
X3999179Y7393919D01*
X3978019D01*
X3967439Y7383340D01*
X8590000Y10140000D02*
Y10203479D01*
X8621740D01*
X8632320Y10192900D01*
Y10171740D01*
X8621740Y10161160D01*
X8590000D01*
X8611160D02*
X8632320Y10140000D01*
X8653480Y10192900D02*
X8664059Y10203479D01*
X8685219D01*
X8695799Y10192900D01*
Y10182320D01*
X8685219Y10171740D01*
X8674639D01*
X8685219D01*
X8695799Y10161160D01*
Y10150580D01*
X8685219Y10140000D01*
X8664059D01*
X8653480Y10150580D01*
X8716959Y10140000D02*
X8738119D01*
X8727539D01*
Y10203479D01*
X8716959Y10192900D01*
X9090000Y10130000D02*
Y10193479D01*
X9121740D01*
X9132320Y10182900D01*
Y10161740D01*
X9121740Y10151160D01*
X9090000D01*
X9111160D02*
X9132320Y10130000D01*
X9153480Y10182900D02*
X9164059Y10193479D01*
X9185219D01*
X9195799Y10182900D01*
Y10172320D01*
X9185219Y10161740D01*
X9174639D01*
X9185219D01*
X9195799Y10151160D01*
Y10140580D01*
X9185219Y10130000D01*
X9164059D01*
X9153480Y10140580D01*
X9259279Y10130000D02*
X9216959D01*
X9259279Y10172320D01*
Y10182900D01*
X9248699Y10193479D01*
X9227539D01*
X9216959Y10182900D01*
X12280000Y7050000D02*
Y7113480D01*
X12311740D01*
X12322320Y7102900D01*
Y7081740D01*
X12311740Y7071160D01*
X12280000D01*
X12301160D02*
X12322320Y7050000D01*
X12343480Y7102900D02*
X12354059Y7113480D01*
X12375219D01*
X12385799Y7102900D01*
Y7092320D01*
X12375219Y7081740D01*
X12364639D01*
X12375219D01*
X12385799Y7071160D01*
Y7060580D01*
X12375219Y7050000D01*
X12354059D01*
X12343480Y7060580D01*
X12449279Y7113480D02*
X12406959D01*
Y7081740D01*
X12428119Y7092320D01*
X12438699D01*
X12449279Y7081740D01*
Y7060580D01*
X12438699Y7050000D01*
X12417539D01*
X12406959Y7060580D01*
X11770000Y7180000D02*
X11706521D01*
Y7211740D01*
X11717101Y7222320D01*
X11738260D01*
X11748840Y7211740D01*
Y7180000D01*
Y7201160D02*
X11770000Y7222320D01*
X11717101Y7243480D02*
X11706521Y7254059D01*
Y7275219D01*
X11717101Y7285799D01*
X11727680D01*
X11738260Y7275219D01*
Y7264639D01*
Y7275219D01*
X11748840Y7285799D01*
X11759420D01*
X11770000Y7275219D01*
Y7254059D01*
X11759420Y7243480D01*
X11706521Y7349279D02*
X11717101Y7328119D01*
X11738260Y7306959D01*
X11759420D01*
X11770000Y7317539D01*
Y7338699D01*
X11759420Y7349279D01*
X11748840D01*
X11738260Y7338699D01*
Y7306959D01*
X12830000Y12540000D02*
X12766521D01*
Y12571740D01*
X12777100Y12582320D01*
X12798260D01*
X12808839Y12571740D01*
Y12540000D01*
Y12561160D02*
X12830000Y12582320D01*
Y12635219D02*
X12766521D01*
X12798260Y12603479D01*
Y12645799D01*
X12830000Y12709279D02*
Y12666959D01*
X12787680Y12709279D01*
X12777100D01*
X12766521Y12698699D01*
Y12677539D01*
X12777100Y12666959D01*
X12690000Y12540000D02*
X12626521D01*
Y12571740D01*
X12637100Y12582320D01*
X12658260D01*
X12668840Y12571740D01*
Y12540000D01*
Y12561160D02*
X12690000Y12582320D01*
Y12635219D02*
X12626521D01*
X12658260Y12603479D01*
Y12645799D01*
X12637100Y12666959D02*
X12626521Y12677539D01*
Y12698699D01*
X12637100Y12709279D01*
X12647680D01*
X12658260Y12698699D01*
Y12688119D01*
Y12698699D01*
X12668840Y12709279D01*
X12679420D01*
X12690000Y12698699D01*
Y12677539D01*
X12679420Y12666959D01*
X13586459Y11943080D02*
X13522981D01*
Y11974820D01*
X13533560Y11985400D01*
X13554720D01*
X13565300Y11974820D01*
Y11943080D01*
Y11964240D02*
X13586459Y11985400D01*
Y12038299D02*
X13522981D01*
X13554720Y12006559D01*
Y12048879D01*
X13533560Y12070039D02*
X13522981Y12080619D01*
Y12101779D01*
X13533560Y12112359D01*
X13544141D01*
X13554720Y12101779D01*
X13565300Y12112359D01*
X13575880D01*
X13586459Y12101779D01*
Y12080619D01*
X13575880Y12070039D01*
X13565300D01*
X13554720Y12080619D01*
X13544141Y12070039D01*
X13533560D01*
X13554720Y12080619D02*
Y12101779D01*
X13705840Y11940540D02*
X13642361D01*
Y11972280D01*
X13652940Y11982860D01*
X13674100D01*
X13684680Y11972280D01*
Y11940540D01*
Y11961700D02*
X13705840Y11982860D01*
Y12035759D02*
X13642361D01*
X13674100Y12004019D01*
Y12046339D01*
X13695261Y12067499D02*
X13705840Y12078079D01*
Y12099239D01*
X13695261Y12109819D01*
X13652940D01*
X13642361Y12099239D01*
Y12078079D01*
X13652940Y12067499D01*
X13663519D01*
X13674100Y12078079D01*
Y12109819D01*
X13835381Y11940540D02*
X13771901D01*
Y11972280D01*
X13782480Y11982860D01*
X13803641D01*
X13814220Y11972280D01*
Y11940540D01*
Y11961700D02*
X13835381Y11982860D01*
X13771901Y12046339D02*
Y12004019D01*
X13803641D01*
X13793060Y12025179D01*
Y12035759D01*
X13803641Y12046339D01*
X13824800D01*
X13835381Y12035759D01*
Y12014599D01*
X13824800Y12004019D01*
X13782480Y12067499D02*
X13771901Y12078079D01*
Y12099239D01*
X13782480Y12109819D01*
X13824800D01*
X13835381Y12099239D01*
Y12078079D01*
X13824800Y12067499D01*
X13782480D01*
X13967461Y11938000D02*
X13903981D01*
Y11969740D01*
X13914560Y11980320D01*
X13935719D01*
X13946300Y11969740D01*
Y11938000D01*
Y11959160D02*
X13967461Y11980320D01*
X13903981Y12043799D02*
Y12001479D01*
X13935719D01*
X13925140Y12022639D01*
Y12033219D01*
X13935719Y12043799D01*
X13956880D01*
X13967461Y12033219D01*
Y12012059D01*
X13956880Y12001479D01*
X13967461Y12064959D02*
Y12086119D01*
Y12075539D01*
X13903981D01*
X13914560Y12064959D01*
X6650000Y6210000D02*
Y6273479D01*
X6681740D01*
X6692320Y6262900D01*
Y6241740D01*
X6681740Y6231160D01*
X6650000D01*
X6671160D02*
X6692320Y6210000D01*
X6713479Y6273479D02*
X6755799D01*
Y6262900D01*
X6713479Y6220580D01*
Y6210000D01*
X6819278Y6273479D02*
X6776959D01*
Y6241740D01*
X6798118Y6252320D01*
X6808699D01*
X6819278Y6241740D01*
Y6220580D01*
X6808699Y6210000D01*
X6787539D01*
X6776959Y6220580D01*
X3520440Y6969500D02*
X3583919D01*
Y6937760D01*
X3573340Y6927180D01*
X3552180D01*
X3541600Y6937760D01*
Y6969500D01*
Y6948340D02*
X3520440Y6927180D01*
X3573340Y6906020D02*
X3583919Y6895441D01*
Y6874281D01*
X3573340Y6863701D01*
X3562760D01*
X3552180Y6874281D01*
X3541600Y6863701D01*
X3531020D01*
X3520440Y6874281D01*
Y6895441D01*
X3531020Y6906020D01*
X3541600D01*
X3552180Y6895441D01*
X3562760Y6906020D01*
X3573340D01*
X3552180Y6895441D02*
Y6874281D01*
X3520440Y6800221D02*
Y6842541D01*
X3562760Y6800221D01*
X3573340D01*
X3583919Y6810801D01*
Y6831961D01*
X3573340Y6842541D01*
X9230000Y11660000D02*
Y11723479D01*
X9261740D01*
X9272320Y11712900D01*
Y11691740D01*
X9261740Y11681160D01*
X9230000D01*
X9251160D02*
X9272320Y11660000D01*
X9293480Y11712900D02*
X9304059Y11723479D01*
X9325219D01*
X9335799Y11712900D01*
Y11702320D01*
X9325219Y11691740D01*
X9335799Y11681160D01*
Y11670580D01*
X9325219Y11660000D01*
X9304059D01*
X9293480Y11670580D01*
Y11681160D01*
X9304059Y11691740D01*
X9293480Y11702320D01*
Y11712900D01*
X9304059Y11691740D02*
X9325219D01*
X9388699Y11660000D02*
Y11723479D01*
X9356959Y11691740D01*
X9399279D01*
X8670000Y11210000D02*
Y11273479D01*
X8701740D01*
X8712320Y11262899D01*
Y11241740D01*
X8701740Y11231160D01*
X8670000D01*
X8691160D02*
X8712320Y11210000D01*
X8733479Y11262899D02*
X8744059Y11273479D01*
X8765219D01*
X8775799Y11262899D01*
Y11252320D01*
X8765219Y11241740D01*
X8775799Y11231160D01*
Y11220580D01*
X8765219Y11210000D01*
X8744059D01*
X8733479Y11220580D01*
Y11231160D01*
X8744059Y11241740D01*
X8733479Y11252320D01*
Y11262899D01*
X8744059Y11241740D02*
X8765219D01*
X8839278Y11273479D02*
X8796959D01*
Y11241740D01*
X8818119Y11252320D01*
X8828699D01*
X8839278Y11241740D01*
Y11220580D01*
X8828699Y11210000D01*
X8807539D01*
X8796959Y11220580D01*
X9510000Y11110000D02*
Y11173479D01*
X9541740D01*
X9552320Y11162899D01*
Y11141740D01*
X9541740Y11131160D01*
X9510000D01*
X9531160D02*
X9552320Y11110000D01*
X9573479Y11162899D02*
X9584059Y11173479D01*
X9605219D01*
X9615799Y11162899D01*
Y11152320D01*
X9605219Y11141740D01*
X9615799Y11131160D01*
Y11120580D01*
X9605219Y11110000D01*
X9584059D01*
X9573479Y11120580D01*
Y11131160D01*
X9584059Y11141740D01*
X9573479Y11152320D01*
Y11162899D01*
X9584059Y11141740D02*
X9605219D01*
X9679279Y11173479D02*
X9658119Y11162899D01*
X9636959Y11141740D01*
Y11120580D01*
X9647539Y11110000D01*
X9668699D01*
X9679279Y11120580D01*
Y11131160D01*
X9668699Y11141740D01*
X9636959D01*
X9210000Y10830000D02*
Y10893479D01*
X9241740D01*
X9252320Y10882899D01*
Y10861740D01*
X9241740Y10851160D01*
X9210000D01*
X9231160D02*
X9252320Y10830000D01*
X9273480Y10882899D02*
X9284059Y10893479D01*
X9305219D01*
X9315799Y10882899D01*
Y10872320D01*
X9305219Y10861740D01*
X9315799Y10851160D01*
Y10840580D01*
X9305219Y10830000D01*
X9284059D01*
X9273480Y10840580D01*
Y10851160D01*
X9284059Y10861740D01*
X9273480Y10872320D01*
Y10882899D01*
X9284059Y10861740D02*
X9305219D01*
X9336959Y10893479D02*
X9379279D01*
Y10882899D01*
X9336959Y10840580D01*
Y10830000D01*
X9510000Y11400000D02*
Y11463479D01*
X9541740D01*
X9552320Y11452900D01*
Y11431740D01*
X9541740Y11421160D01*
X9510000D01*
X9531160D02*
X9552320Y11400000D01*
X9573479Y11452900D02*
X9584059Y11463479D01*
X9605219D01*
X9615799Y11452900D01*
Y11442320D01*
X9605219Y11431740D01*
X9615799Y11421160D01*
Y11410580D01*
X9605219Y11400000D01*
X9584059D01*
X9573479Y11410580D01*
Y11421160D01*
X9584059Y11431740D01*
X9573479Y11442320D01*
Y11452900D01*
X9584059Y11431740D02*
X9605219D01*
X9636959Y11452900D02*
X9647539Y11463479D01*
X9668699D01*
X9679279Y11452900D01*
Y11442320D01*
X9668699Y11431740D01*
X9679279Y11421160D01*
Y11410580D01*
X9668699Y11400000D01*
X9647539D01*
X9636959Y11410580D01*
Y11421160D01*
X9647539Y11431740D01*
X9636959Y11442320D01*
Y11452900D01*
X9647539Y11431740D02*
X9668699D01*
X8670000Y11330000D02*
Y11393479D01*
X8701740D01*
X8712320Y11382900D01*
Y11361740D01*
X8701740Y11351160D01*
X8670000D01*
X8691160D02*
X8712320Y11330000D01*
X8733479Y11382900D02*
X8744059Y11393479D01*
X8765219D01*
X8775799Y11382900D01*
Y11372320D01*
X8765219Y11361740D01*
X8775799Y11351160D01*
Y11340580D01*
X8765219Y11330000D01*
X8744059D01*
X8733479Y11340580D01*
Y11351160D01*
X8744059Y11361740D01*
X8733479Y11372320D01*
Y11382900D01*
X8744059Y11361740D02*
X8765219D01*
X8796959Y11340580D02*
X8807539Y11330000D01*
X8828699D01*
X8839278Y11340580D01*
Y11382900D01*
X8828699Y11393479D01*
X8807539D01*
X8796959Y11382900D01*
Y11372320D01*
X8807539Y11361740D01*
X8839278D01*
X9290000Y12460000D02*
X9226521D01*
Y12491740D01*
X9237100Y12502320D01*
X9258260D01*
X9268840Y12491740D01*
Y12460000D01*
Y12481160D02*
X9290000Y12502320D01*
X9279420Y12523479D02*
X9290000Y12534059D01*
Y12555219D01*
X9279420Y12565799D01*
X9237100D01*
X9226521Y12555219D01*
Y12534059D01*
X9237100Y12523479D01*
X9247680D01*
X9258260Y12534059D01*
Y12565799D01*
X9237100Y12586959D02*
X9226521Y12597539D01*
Y12618699D01*
X9237100Y12629279D01*
X9279420D01*
X9290000Y12618699D01*
Y12597539D01*
X9279420Y12586959D01*
X9237100D01*
X8670000Y12000000D02*
Y12063479D01*
X8701740D01*
X8712320Y12052899D01*
Y12031740D01*
X8701740Y12021160D01*
X8670000D01*
X8691160D02*
X8712320Y12000000D01*
X8733479Y12010580D02*
X8744059Y12000000D01*
X8765219D01*
X8775799Y12010580D01*
Y12052899D01*
X8765219Y12063479D01*
X8744059D01*
X8733479Y12052899D01*
Y12042320D01*
X8744059Y12031740D01*
X8775799D01*
X8796959Y12000000D02*
X8818119D01*
X8807539D01*
Y12063479D01*
X8796959Y12052899D01*
X9510000Y11970000D02*
Y12033479D01*
X9541740D01*
X9552320Y12022899D01*
Y12001740D01*
X9541740Y11991160D01*
X9510000D01*
X9531160D02*
X9552320Y11970000D01*
X9573479Y11980580D02*
X9584059Y11970000D01*
X9605219D01*
X9615799Y11980580D01*
Y12022899D01*
X9605219Y12033479D01*
X9584059D01*
X9573479Y12022899D01*
Y12012320D01*
X9584059Y12001740D01*
X9615799D01*
X9679279Y11970000D02*
X9636959D01*
X9679279Y12012320D01*
Y12022899D01*
X9668699Y12033479D01*
X9647539D01*
X9636959Y12022899D01*
X8980000Y11830000D02*
Y11893479D01*
X9011740D01*
X9022320Y11882900D01*
Y11861740D01*
X9011740Y11851160D01*
X8980000D01*
X9001160D02*
X9022320Y11830000D01*
X9043479Y11840580D02*
X9054059Y11830000D01*
X9075219D01*
X9085799Y11840580D01*
Y11882900D01*
X9075219Y11893479D01*
X9054059D01*
X9043479Y11882900D01*
Y11872320D01*
X9054059Y11861740D01*
X9085799D01*
X9106959Y11882900D02*
X9117539Y11893479D01*
X9138699D01*
X9149279Y11882900D01*
Y11872320D01*
X9138699Y11861740D01*
X9128119D01*
X9138699D01*
X9149279Y11851160D01*
Y11840580D01*
X9138699Y11830000D01*
X9117539D01*
X9106959Y11840580D01*
X9510000Y12130000D02*
Y12193480D01*
X9541740D01*
X9552320Y12182900D01*
Y12161740D01*
X9541740Y12151160D01*
X9510000D01*
X9531160D02*
X9552320Y12130000D01*
X9573479Y12140580D02*
X9584059Y12130000D01*
X9605219D01*
X9615799Y12140580D01*
Y12182900D01*
X9605219Y12193480D01*
X9584059D01*
X9573479Y12182900D01*
Y12172320D01*
X9584059Y12161740D01*
X9615799D01*
X9668699Y12130000D02*
Y12193480D01*
X9636959Y12161740D01*
X9679279D01*
X8660000Y12120000D02*
Y12183479D01*
X8691740D01*
X8702320Y12172899D01*
Y12151740D01*
X8691740Y12141160D01*
X8660000D01*
X8681160D02*
X8702320Y12120000D01*
X8723479Y12130580D02*
X8734059Y12120000D01*
X8755219D01*
X8765799Y12130580D01*
Y12172899D01*
X8755219Y12183479D01*
X8734059D01*
X8723479Y12172899D01*
Y12162320D01*
X8734059Y12151740D01*
X8765799D01*
X8829279Y12183479D02*
X8786959D01*
Y12151740D01*
X8808119Y12162320D01*
X8818699D01*
X8829279Y12151740D01*
Y12130580D01*
X8818699Y12120000D01*
X8797539D01*
X8786959Y12130580D01*
X6382220Y4714240D02*
X6445699D01*
Y4682500D01*
X6435119Y4671920D01*
X6413960D01*
X6403380Y4682500D01*
Y4714240D01*
Y4693080D02*
X6382220Y4671920D01*
X6445699Y4608441D02*
X6435119Y4629601D01*
X6413960Y4650761D01*
X6392800D01*
X6382220Y4640181D01*
Y4619021D01*
X6392800Y4608441D01*
X6403380D01*
X6413960Y4619021D01*
Y4650761D01*
X6435119Y4587281D02*
X6445699Y4576701D01*
Y4555541D01*
X6435119Y4544961D01*
X6392800D01*
X6382220Y4555541D01*
Y4576701D01*
X6392800Y4587281D01*
X6435119D01*
X6440000Y6590000D02*
X6503480D01*
Y6558260D01*
X6492900Y6547680D01*
X6471740D01*
X6461160Y6558260D01*
Y6590000D01*
Y6568840D02*
X6440000Y6547680D01*
X6503480Y6484201D02*
X6492900Y6505361D01*
X6471740Y6526521D01*
X6450580D01*
X6440000Y6515941D01*
Y6494781D01*
X6450580Y6484201D01*
X6461160D01*
X6471740Y6494781D01*
Y6526521D01*
X6503480Y6420721D02*
Y6463041D01*
X6471740D01*
X6482320Y6441881D01*
Y6431301D01*
X6471740Y6420721D01*
X6450580D01*
X6440000Y6431301D01*
Y6452461D01*
X6450580Y6463041D01*
X6974181Y4718600D02*
X7037660D01*
Y4686860D01*
X7027080Y4676280D01*
X7005920D01*
X6995340Y4686860D01*
Y4718600D01*
Y4697440D02*
X6974181Y4676280D01*
X7037660Y4612801D02*
X7027080Y4633961D01*
X7005920Y4655120D01*
X6984760D01*
X6974181Y4644540D01*
Y4623380D01*
X6984760Y4612801D01*
X6995340D01*
X7005920Y4623380D01*
Y4655120D01*
X7037660Y4591641D02*
Y4549321D01*
X7027080D01*
X6984760Y4591641D01*
X6974181D01*
X6980000Y6430000D02*
X7043479D01*
Y6398260D01*
X7032900Y6387680D01*
X7011740D01*
X7001160Y6398260D01*
Y6430000D01*
Y6408840D02*
X6980000Y6387680D01*
X7043479Y6366521D02*
Y6324201D01*
X7032900D01*
X6990580Y6366521D01*
X6980000D01*
Y6303041D02*
Y6281882D01*
Y6292461D01*
X7043479D01*
X7032900Y6303041D01*
X3017520Y7233660D02*
X3080999D01*
Y7201920D01*
X3070420Y7191340D01*
X3049260D01*
X3038680Y7201920D01*
Y7233660D01*
Y7212500D02*
X3017520Y7191340D01*
Y7138441D02*
Y7159601D01*
X3028100Y7170180D01*
X3049260D01*
X3059840Y7159601D01*
Y7138441D01*
X3049260Y7127861D01*
X3038680D01*
Y7170180D01*
X3017520Y7106701D02*
X3059840D01*
Y7074961D01*
X3049260Y7064381D01*
X3017520D01*
Y7043222D02*
Y7022062D01*
Y7032642D01*
X3080999D01*
X3070420Y7043222D01*
X3111500Y7231120D02*
X3174979D01*
Y7199380D01*
X3164400Y7188800D01*
X3143240D01*
X3132660Y7199380D01*
Y7231120D01*
Y7209960D02*
X3111500Y7188800D01*
Y7135901D02*
Y7157061D01*
X3122080Y7167640D01*
X3143240D01*
X3153820Y7157061D01*
Y7135901D01*
X3143240Y7125321D01*
X3132660D01*
Y7167640D01*
X3111500Y7104161D02*
X3153820D01*
Y7072421D01*
X3143240Y7061841D01*
X3111500D01*
Y6998362D02*
Y7040682D01*
X3153820Y6998362D01*
X3164400D01*
X3174979Y7008942D01*
Y7030102D01*
X3164400Y7040682D01*
X6704800Y4455160D02*
Y4391681D01*
X6673060D01*
X6662480Y4402260D01*
Y4423420D01*
X6673060Y4434000D01*
X6704800D01*
X6683640D02*
X6662480Y4455160D01*
X6599001Y4391681D02*
X6641320D01*
Y4423420D01*
X6620161Y4412840D01*
X6609581D01*
X6599001Y4423420D01*
Y4444580D01*
X6609581Y4455160D01*
X6630741D01*
X6641320Y4444580D01*
X6577841D02*
X6567261Y4455160D01*
X6546101D01*
X6535521Y4444580D01*
Y4402260D01*
X6546101Y4391681D01*
X6567261D01*
X6577841Y4402260D01*
Y4412840D01*
X6567261Y4423420D01*
X6535521D01*
X6516840Y4455160D02*
Y4391681D01*
X6485100D01*
X6474520Y4402260D01*
Y4423420D01*
X6485100Y4434000D01*
X6516840D01*
X6495680D02*
X6474520Y4455160D01*
X6411041Y4391681D02*
X6432201Y4402260D01*
X6453360Y4423420D01*
Y4444580D01*
X6442781Y4455160D01*
X6421621D01*
X6411041Y4444580D01*
Y4434000D01*
X6421621Y4423420D01*
X6453360D01*
X6389881Y4455160D02*
X6368721D01*
X6379301D01*
Y4391681D01*
X6389881Y4402260D01*
X6340000Y6630000D02*
Y6693479D01*
X6371740D01*
X6382320Y6682900D01*
Y6661740D01*
X6371740Y6651160D01*
X6340000D01*
X6361160D02*
X6382320Y6630000D01*
X6445799Y6693479D02*
X6424639Y6682900D01*
X6403479Y6661740D01*
Y6640580D01*
X6414059Y6630000D01*
X6435219D01*
X6445799Y6640580D01*
Y6651160D01*
X6435219Y6661740D01*
X6403479D01*
X6509279Y6693479D02*
X6488119Y6682900D01*
X6466959Y6661740D01*
Y6640580D01*
X6477539Y6630000D01*
X6498699D01*
X6509279Y6640580D01*
Y6651160D01*
X6498699Y6661740D01*
X6466959D01*
X6540000Y6630000D02*
Y6693479D01*
X6571740D01*
X6582320Y6682900D01*
Y6661740D01*
X6571740Y6651160D01*
X6540000D01*
X6561160D02*
X6582320Y6630000D01*
X6645799Y6693479D02*
X6624639Y6682900D01*
X6603479Y6661740D01*
Y6640580D01*
X6614059Y6630000D01*
X6635219D01*
X6645799Y6640580D01*
Y6651160D01*
X6635219Y6661740D01*
X6603479D01*
X6666959Y6682900D02*
X6677539Y6693479D01*
X6698699D01*
X6709278Y6682900D01*
Y6672320D01*
X6698699Y6661740D01*
X6709278Y6651160D01*
Y6640580D01*
X6698699Y6630000D01*
X6677539D01*
X6666959Y6640580D01*
Y6651160D01*
X6677539Y6661740D01*
X6666959Y6672320D01*
Y6682900D01*
X6677539Y6661740D02*
X6698699D01*
X7090880Y4455160D02*
Y4391681D01*
X7059140D01*
X7048560Y4402260D01*
Y4423420D01*
X7059140Y4434000D01*
X7090880D01*
X7069720D02*
X7048560Y4455160D01*
X6985081Y4391681D02*
X7006241Y4402260D01*
X7027400Y4423420D01*
Y4444580D01*
X7016821Y4455160D01*
X6995661D01*
X6985081Y4444580D01*
Y4434000D01*
X6995661Y4423420D01*
X7027400D01*
X6963921Y4444580D02*
X6953341Y4455160D01*
X6932181D01*
X6921601Y4444580D01*
Y4402260D01*
X6932181Y4391681D01*
X6953341D01*
X6963921Y4402260D01*
Y4412840D01*
X6953341Y4423420D01*
X6921601D01*
X6897840Y4455160D02*
Y4391681D01*
X6866100D01*
X6855520Y4402260D01*
Y4423420D01*
X6866100Y4434000D01*
X6897840D01*
X6876680D02*
X6855520Y4455160D01*
X6834360Y4391681D02*
X6792041D01*
Y4402260D01*
X6834360Y4444580D01*
Y4455160D01*
X6770881Y4402260D02*
X6760301Y4391681D01*
X6739141D01*
X6728561Y4402260D01*
Y4444580D01*
X6739141Y4455160D01*
X6760301D01*
X6770881Y4444580D01*
Y4402260D01*
X7947660Y5539740D02*
Y5603219D01*
X7979400D01*
X7989980Y5592640D01*
Y5571480D01*
X7979400Y5560900D01*
X7947660D01*
X7968820D02*
X7989980Y5539740D01*
X8011139Y5603219D02*
X8053459D01*
Y5592640D01*
X8011139Y5550320D01*
Y5539740D01*
X8116939D02*
X8074619D01*
X8116939Y5582060D01*
Y5592640D01*
X8106359Y5603219D01*
X8085199D01*
X8074619Y5592640D01*
X7640000Y5700000D02*
Y5763479D01*
X7671740D01*
X7682320Y5752900D01*
Y5731740D01*
X7671740Y5721160D01*
X7640000D01*
X7661160D02*
X7682320Y5700000D01*
X7703479Y5763479D02*
X7745799D01*
Y5752900D01*
X7703479Y5710580D01*
Y5700000D01*
X7766959Y5752900D02*
X7777539Y5763479D01*
X7798699D01*
X7809279Y5752900D01*
Y5742320D01*
X7798699Y5731740D01*
X7788119D01*
X7798699D01*
X7809279Y5721160D01*
Y5710580D01*
X7798699Y5700000D01*
X7777539D01*
X7766959Y5710580D01*
X3920000Y7460000D02*
Y7523479D01*
X3951740D01*
X3962320Y7512900D01*
Y7491740D01*
X3951740Y7481160D01*
X3920000D01*
X3941160D02*
X3962320Y7460000D01*
X3994059D02*
Y7512900D01*
Y7491740D01*
X3983479D01*
X4004639D01*
X3994059D01*
Y7512900D01*
X4004639Y7523479D01*
X4036379Y7460000D02*
X4057539D01*
X4046959D01*
Y7523479D01*
X4036379Y7512900D01*
X3700780Y7227240D02*
X3764259D01*
Y7195500D01*
X3753680Y7184920D01*
X3732520D01*
X3721940Y7195500D01*
Y7227240D01*
Y7206080D02*
X3700780Y7184920D01*
Y7153181D02*
X3753680D01*
X3732520D01*
Y7163760D01*
Y7142601D01*
Y7153181D01*
X3753680D01*
X3764259Y7142601D01*
X3700780Y7068541D02*
Y7110861D01*
X3743100Y7068541D01*
X3753680D01*
X3764259Y7079121D01*
Y7100281D01*
X3753680Y7110861D01*
X3000000Y12550000D02*
Y12613479D01*
X3031740D01*
X3042320Y12602900D01*
Y12581740D01*
X3031740Y12571160D01*
X3000000D01*
X3021160D02*
X3042320Y12550000D01*
X3063480D02*
X3084639D01*
X3074059D01*
Y12592320D01*
X3063480D01*
X3116379Y12550000D02*
Y12592320D01*
X3148119D01*
X3158699Y12581740D01*
Y12550000D01*
X3179859D02*
X3201018D01*
X3190438D01*
Y12613479D01*
X3179859Y12602900D01*
X4890000Y4180000D02*
Y4243479D01*
X4921740D01*
X4932320Y4232900D01*
Y4211740D01*
X4921740Y4201160D01*
X4890000D01*
X4911160D02*
X4932320Y4180000D01*
X4953480D02*
X4974639D01*
X4964059D01*
Y4222320D01*
X4953480D01*
X5006379Y4180000D02*
Y4222320D01*
X5038119D01*
X5048699Y4211740D01*
Y4180000D01*
X5112178D02*
X5069859D01*
X5112178Y4222320D01*
Y4232900D01*
X5101598Y4243479D01*
X5080438D01*
X5069859Y4232900D01*
X3640000Y8930000D02*
Y8993479D01*
X3671740D01*
X3682320Y8982899D01*
Y8961740D01*
X3671740Y8951160D01*
X3640000D01*
X3661160D02*
X3682320Y8930000D01*
X3703480D02*
X3724639D01*
X3714059D01*
Y8972320D01*
X3703480D01*
X3756379Y8930000D02*
Y8972320D01*
X3788119D01*
X3798699Y8961740D01*
Y8930000D01*
X3819859Y8982899D02*
X3830438Y8993479D01*
X3851598D01*
X3862178Y8982899D01*
Y8972320D01*
X3851598Y8961740D01*
X3841018D01*
X3851598D01*
X3862178Y8951160D01*
Y8940580D01*
X3851598Y8930000D01*
X3830438D01*
X3819859Y8940580D01*
X5410000Y5450000D02*
Y5513479D01*
X5441740D01*
X5452320Y5502900D01*
Y5481740D01*
X5441740Y5471160D01*
X5410000D01*
X5431160D02*
X5452320Y5450000D01*
X5515799Y5513479D02*
X5494639Y5502900D01*
X5473480Y5481740D01*
Y5460580D01*
X5484059Y5450000D01*
X5505219D01*
X5515799Y5460580D01*
Y5471160D01*
X5505219Y5481740D01*
X5473480D01*
X5536959Y5502900D02*
X5547539Y5513479D01*
X5568699D01*
X5579279Y5502900D01*
Y5492320D01*
X5568699Y5481740D01*
X5558119D01*
X5568699D01*
X5579279Y5471160D01*
Y5460580D01*
X5568699Y5450000D01*
X5547539D01*
X5536959Y5460580D01*
X5410000Y5670000D02*
Y5733480D01*
X5441740D01*
X5452320Y5722900D01*
Y5701740D01*
X5441740Y5691160D01*
X5410000D01*
X5431160D02*
X5452320Y5670000D01*
X5515799Y5733480D02*
X5494639Y5722900D01*
X5473480Y5701740D01*
Y5680580D01*
X5484059Y5670000D01*
X5505219D01*
X5515799Y5680580D01*
Y5691160D01*
X5505219Y5701740D01*
X5473480D01*
X5568699Y5670000D02*
Y5733480D01*
X5536959Y5701740D01*
X5579279D01*
X3270000Y12420000D02*
Y12483479D01*
X3301740D01*
X3312320Y12472900D01*
Y12451740D01*
X3301740Y12441160D01*
X3270000D01*
X3291160D02*
X3312320Y12420000D01*
X3344059D02*
X3365219D01*
X3375799Y12430580D01*
Y12451740D01*
X3365219Y12462320D01*
X3344059D01*
X3333479Y12451740D01*
Y12430580D01*
X3344059Y12420000D01*
X3396959Y12462320D02*
Y12430580D01*
X3407539Y12420000D01*
X3439279D01*
Y12462320D01*
X3471018Y12472900D02*
Y12462320D01*
X3460438D01*
X3481598D01*
X3471018D01*
Y12430580D01*
X3481598Y12420000D01*
X3513338D02*
X3534498D01*
X3523918D01*
Y12483479D01*
X3513338Y12472900D01*
X4710000Y3890000D02*
Y3953480D01*
X4741740D01*
X4752320Y3942900D01*
Y3921740D01*
X4741740Y3911160D01*
X4710000D01*
X4731160D02*
X4752320Y3890000D01*
X4784059D02*
X4805219D01*
X4815799Y3900580D01*
Y3921740D01*
X4805219Y3932320D01*
X4784059D01*
X4773479Y3921740D01*
Y3900580D01*
X4784059Y3890000D01*
X4836959Y3932320D02*
Y3900580D01*
X4847539Y3890000D01*
X4879279D01*
Y3932320D01*
X4911018Y3942900D02*
Y3932320D01*
X4900438D01*
X4921598D01*
X4911018D01*
Y3900580D01*
X4921598Y3890000D01*
X4995658D02*
X4953338D01*
X4995658Y3932320D01*
Y3942900D01*
X4985078Y3953480D01*
X4963918D01*
X4953338Y3942900D01*
X3570000Y9170000D02*
Y9233479D01*
X3601740D01*
X3612320Y9222900D01*
Y9201740D01*
X3601740Y9191160D01*
X3570000D01*
X3591160D02*
X3612320Y9170000D01*
X3644059D02*
X3665219D01*
X3675799Y9180580D01*
Y9201740D01*
X3665219Y9212320D01*
X3644059D01*
X3633479Y9201740D01*
Y9180580D01*
X3644059Y9170000D01*
X3696959Y9212320D02*
Y9180580D01*
X3707539Y9170000D01*
X3739279D01*
Y9212320D01*
X3771018Y9222900D02*
Y9212320D01*
X3760438D01*
X3781598D01*
X3771018D01*
Y9180580D01*
X3781598Y9170000D01*
X3813338Y9222900D02*
X3823918Y9233479D01*
X3845078D01*
X3855658Y9222900D01*
Y9212320D01*
X3845078Y9201740D01*
X3834498D01*
X3845078D01*
X3855658Y9191160D01*
Y9180580D01*
X3845078Y9170000D01*
X3823918D01*
X3813338Y9180580D01*
X6590500Y4752340D02*
X6653979D01*
Y4720600D01*
X6643399Y4710020D01*
X6622240D01*
X6611660Y4720600D01*
Y4752340D01*
Y4731180D02*
X6590500Y4710020D01*
X6653979Y4688861D02*
Y4646541D01*
X6643399D01*
X6601080Y4688861D01*
X6590500D01*
Y4593641D02*
X6653979D01*
X6622240Y4625381D01*
Y4583061D01*
X3320000Y7130000D02*
X3383479D01*
Y7098260D01*
X3372900Y7087680D01*
X3351740D01*
X3341160Y7098260D01*
Y7130000D01*
Y7108840D02*
X3320000Y7087680D01*
X3372900Y7055941D02*
X3362320D01*
Y7066521D01*
Y7045361D01*
Y7055941D01*
X3330580D01*
X3320000Y7045361D01*
Y7013621D02*
Y6992461D01*
Y7003041D01*
X3383479D01*
X3372900Y7013621D01*
X13501781Y13210100D02*
X13491200Y13220679D01*
X13470039D01*
X13459460Y13210100D01*
Y13199519D01*
X13470039Y13188940D01*
X13491200D01*
X13501781Y13178360D01*
Y13167780D01*
X13491200Y13157201D01*
X13470039D01*
X13459460Y13167780D01*
X13522939Y13157201D02*
X13544099D01*
X13533519D01*
Y13220679D01*
X13522939Y13210100D01*
X4412320Y12162899D02*
X4401740Y12173479D01*
X4380580D01*
X4370000Y12162899D01*
Y12152320D01*
X4380580Y12141740D01*
X4401740D01*
X4412320Y12131160D01*
Y12120580D01*
X4401740Y12110000D01*
X4380580D01*
X4370000Y12120580D01*
X4433479Y12173479D02*
Y12110000D01*
X4454639Y12131160D01*
X4475799Y12110000D01*
Y12173479D01*
X4496959Y12110000D02*
X4518118D01*
X4507539D01*
Y12173479D01*
X4496959Y12162899D01*
X8717280Y9428459D02*
Y9375560D01*
X8727860Y9364980D01*
X8749020D01*
X8759600Y9375560D01*
Y9428459D01*
X8823079Y9364980D02*
X8780759D01*
X8823079Y9407300D01*
Y9417880D01*
X8812499Y9428459D01*
X8791339D01*
X8780759Y9417880D01*
X11830000Y7393479D02*
Y7340580D01*
X11840580Y7330000D01*
X11861740D01*
X11872320Y7340580D01*
Y7393479D01*
X11925219Y7330000D02*
Y7393479D01*
X11893479Y7361740D01*
X11935799D01*
X9758680Y12699979D02*
Y12647080D01*
X9769260Y12636500D01*
X9790420D01*
X9801000Y12647080D01*
Y12699979D01*
X9864479D02*
X9843319Y12689400D01*
X9822159Y12668240D01*
Y12647080D01*
X9832739Y12636500D01*
X9853899D01*
X9864479Y12647080D01*
Y12657660D01*
X9853899Y12668240D01*
X9822159D01*
X9760000Y13603481D02*
Y13550580D01*
X9770580Y13539999D01*
X9791740D01*
X9802320Y13550580D01*
Y13603481D01*
X9823479D02*
X9865799D01*
Y13592900D01*
X9823479Y13550580D01*
Y13539999D01*
X7230000Y5236521D02*
Y5289420D01*
X7219420Y5300000D01*
X7198260D01*
X7187680Y5289420D01*
Y5236521D01*
X7166521Y5247101D02*
X7155941Y5236521D01*
X7134781D01*
X7124201Y5247101D01*
Y5257680D01*
X7134781Y5268260D01*
X7124201Y5278840D01*
Y5289420D01*
X7134781Y5300000D01*
X7155941D01*
X7166521Y5289420D01*
Y5278840D01*
X7155941Y5268260D01*
X7166521Y5257680D01*
Y5247101D01*
X7155941Y5268260D02*
X7134781D01*
X3180000Y8223479D02*
Y8170580D01*
X3190580Y8160000D01*
X3211740D01*
X3222320Y8170580D01*
Y8223479D01*
X3243479Y8160000D02*
X3264639D01*
X3254059D01*
Y8223479D01*
X3243479Y8212900D01*
X3296379D02*
X3306959Y8223479D01*
X3328119D01*
X3338699Y8212900D01*
Y8202320D01*
X3328119Y8191740D01*
X3317539D01*
X3328119D01*
X3338699Y8181160D01*
Y8170580D01*
X3328119Y8160000D01*
X3306959D01*
X3296379Y8170580D01*
X4961919Y6162900D02*
X4972499Y6173480D01*
Y6194640D01*
X4961919Y6205220D01*
X4919600D01*
X4909020Y6194640D01*
Y6173480D01*
X4919600Y6162900D01*
X4961919Y6141741D02*
X4972499Y6131161D01*
Y6110001D01*
X4961919Y6099421D01*
X4951340D01*
X4940760Y6110001D01*
X4930180Y6099421D01*
X4919600D01*
X4909020Y6110001D01*
Y6131161D01*
X4919600Y6141741D01*
X4930180D01*
X4940760Y6131161D01*
X4951340Y6141741D01*
X4961919D01*
X4940760Y6131161D02*
Y6110001D01*
X4919600Y6078261D02*
X4909020Y6067681D01*
Y6046521D01*
X4919600Y6035941D01*
X4961919D01*
X4972499Y6046521D01*
Y6067681D01*
X4961919Y6078261D01*
X4951340D01*
X4940760Y6067681D01*
Y6035941D01*
X2480000Y12240000D02*
X2416521D01*
Y12271740D01*
X2427101Y12282320D01*
X2448260D01*
X2458840Y12271740D01*
Y12240000D01*
Y12261160D02*
X2480000Y12282320D01*
X2416521Y12345799D02*
Y12303479D01*
X2448260D01*
X2437680Y12324639D01*
Y12335219D01*
X2448260Y12345799D01*
X2469420D01*
X2480000Y12335219D01*
Y12314059D01*
X2469420Y12303479D01*
X2416521Y12409278D02*
Y12366959D01*
X2448260D01*
X2437680Y12388118D01*
Y12398699D01*
X2448260Y12409278D01*
X2469420D01*
X2480000Y12398699D01*
Y12377539D01*
X2469420Y12366959D01*
X4500000Y4590000D02*
Y4653479D01*
X4531740D01*
X4542320Y4642900D01*
Y4621740D01*
X4531740Y4611160D01*
X4500000D01*
X4521160D02*
X4542320Y4590000D01*
X4605799Y4653479D02*
X4584639Y4642900D01*
X4563479Y4621740D01*
Y4600580D01*
X4574059Y4590000D01*
X4595219D01*
X4605799Y4600580D01*
Y4611160D01*
X4595219Y4621740D01*
X4563479D01*
X4669278Y4590000D02*
X4626959D01*
X4669278Y4632320D01*
Y4642900D01*
X4658699Y4653479D01*
X4637539D01*
X4626959Y4642900D01*
X3230000Y12213480D02*
Y12160580D01*
X3240580Y12150000D01*
X3261740D01*
X3272320Y12160580D01*
Y12213480D01*
X3293479Y12160580D02*
X3304059Y12150000D01*
X3325219D01*
X3335799Y12160580D01*
Y12202900D01*
X3325219Y12213480D01*
X3304059D01*
X3293479Y12202900D01*
Y12192320D01*
X3304059Y12181740D01*
X3335799D01*
X4070000Y4263479D02*
Y4210580D01*
X4080580Y4200000D01*
X4101740D01*
X4112320Y4210580D01*
Y4263479D01*
X4133479Y4200000D02*
X4154639D01*
X4144059D01*
Y4263479D01*
X4133479Y4252900D01*
X4186379D02*
X4196959Y4263479D01*
X4218119D01*
X4228699Y4252900D01*
Y4210580D01*
X4218119Y4200000D01*
X4196959D01*
X4186379Y4210580D01*
Y4252900D01*
X4450000Y9273480D02*
Y9220580D01*
X4460580Y9210000D01*
X4481740D01*
X4492320Y9220580D01*
Y9273480D01*
X4513479Y9210000D02*
X4534639D01*
X4524059D01*
Y9273480D01*
X4513479Y9262900D01*
X4608699Y9210000D02*
X4566379D01*
X4608699Y9252320D01*
Y9262900D01*
X4598119Y9273480D01*
X4576959D01*
X4566379Y9262900D01*
X2082320Y12713480D02*
X2061160D01*
X2071740D01*
Y12660580D01*
X2061160Y12650000D01*
X2050580D01*
X2040000Y12660580D01*
X2145799Y12650000D02*
X2103479D01*
X2145799Y12692320D01*
Y12702900D01*
X2135219Y12713480D01*
X2114059D01*
X2103479Y12702900D01*
X4340000Y8440000D02*
Y8503479D01*
X4371740D01*
X4382320Y8492899D01*
Y8471740D01*
X4371740Y8461160D01*
X4340000D01*
X4361160D02*
X4382320Y8440000D01*
X4403479Y8503479D02*
X4445799D01*
Y8492899D01*
X4403479Y8450580D01*
Y8440000D01*
X4466959Y8450580D02*
X4477539Y8440000D01*
X4498699D01*
X4509279Y8450580D01*
Y8492899D01*
X4498699Y8503479D01*
X4477539D01*
X4466959Y8492899D01*
Y8482320D01*
X4477539Y8471740D01*
X4509279D01*
X12766521Y13370000D02*
X12830000D01*
Y13401740D01*
X12819420Y13412320D01*
X12777100D01*
X12766521Y13401740D01*
Y13370000D01*
X12830000Y13465219D02*
X12766521D01*
X12798260Y13433479D01*
Y13475800D01*
X12626521Y13370000D02*
X12690000D01*
Y13401740D01*
X12679420Y13412320D01*
X12637100D01*
X12626521Y13401740D01*
Y13370000D01*
Y13475800D02*
Y13433479D01*
X12658260D01*
X12647680Y13454639D01*
Y13465219D01*
X12658260Y13475800D01*
X12679420D01*
X12690000Y13465219D01*
Y13444060D01*
X12679420Y13433479D01*
X3510000Y4863479D02*
Y4800000D01*
X3541740D01*
X3552320Y4810580D01*
Y4852900D01*
X3541740Y4863479D01*
X3510000D01*
X3615799D02*
X3594639Y4852900D01*
X3573480Y4831740D01*
Y4810580D01*
X3584059Y4800000D01*
X3605219D01*
X3615799Y4810580D01*
Y4821160D01*
X3605219Y4831740D01*
X3573480D01*
X3950000Y4863479D02*
Y4800000D01*
X3981740D01*
X3992320Y4810580D01*
Y4852900D01*
X3981740Y4863479D01*
X3950000D01*
X4013479D02*
X4055799D01*
Y4852900D01*
X4013479Y4810580D01*
Y4800000D01*
X15262320Y11143479D02*
X15241161D01*
X15251740D01*
Y11090580D01*
X15241161Y11080000D01*
X15230580D01*
X15220000Y11090580D01*
X15283479Y11080000D02*
X15304639D01*
X15294060D01*
Y11143479D01*
X15283479Y11132900D01*
X9757820Y13167360D02*
X9715500D01*
X9757820Y13209680D01*
Y13220261D01*
X9747240Y13230840D01*
X9726080D01*
X9715500Y13220261D01*
X9766300Y12913361D02*
X9787460D01*
X9776880D01*
Y12976839D01*
X9766300Y12966260D01*
X11137900Y12923940D02*
X11148480Y12913361D01*
X11169640D01*
X11180220Y12923940D01*
Y12966260D01*
X11169640Y12976839D01*
X11148480D01*
X11137900Y12966260D01*
Y12955679D01*
X11148480Y12945100D01*
X11180220D01*
X11137900Y13167360D02*
X11159060D01*
X11148480D01*
Y13230840D01*
X11137900Y13220261D01*
X11190800D02*
X11201379Y13230840D01*
X11222539D01*
X11233119Y13220261D01*
Y13177940D01*
X11222539Y13167360D01*
X11201379D01*
X11190800Y13177940D01*
Y13220261D01*
X4835352Y6240780D02*
Y6206924D01*
X4852280Y6223852D02*
X4818424D01*
D193*
X7071639Y5901834D02*
Y5928560D01*
Y5228560D02*
Y5255286D01*
X6371639Y5228560D02*
X6398365D01*
X6371639Y5901834D02*
Y5928560D01*
X7044913D02*
X7071639D01*
X7044913Y5228560D02*
X7071639D01*
X6371639Y5928560D02*
X6398365D01*
X6371639Y5228560D02*
Y5255286D01*
X3081760Y7572220D02*
Y7606449D01*
Y7982220D02*
X3115989D01*
X3457531Y7572220D02*
X3491760D01*
X3457531Y7982220D02*
X3491760D01*
X3081760Y7947991D02*
Y7982220D01*
Y7572220D02*
X3115989D01*
X3491760D02*
Y7606449D01*
Y7947991D02*
Y7982220D01*
D194*
X7194079Y5117161D02*
X7109440Y5201801D01*
X7194079D02*
X7109440Y5117161D01*
X7194079Y5159481D02*
X7109440D01*
X7151759Y5201801D02*
Y5117161D01*
X3510000Y7444201D02*
X3425361Y7528840D01*
X3510000D02*
X3425361Y7444201D01*
X3510000Y7486520D02*
X3425361D01*
X3467680Y7528840D02*
Y7444201D01*
%TF.MD5,54776a945790e34ba29860ac0387585c*%
M02*
