G04 Layer_Physical_Order=2*
G04 Layer_Color=128*
%FSLAX45Y45*%
%MOMM*%
%TF.FileFunction,Copper,L2,Inr,Plane*%
%TF.Part,Single*%
G01*
G75*
%TA.AperFunction,NonConductor*%
%ADD95C,0.05080*%
%TA.AperFunction,ComponentPad*%
%ADD96C,1.50800*%
%ADD97C,1.40800*%
%ADD98C,1.50800*%
%ADD99C,1.77800*%
%ADD100C,2.35800*%
%ADD101C,1.27000*%
%ADD102C,2.05800*%
%ADD103C,1.45800*%
%TA.AperFunction,ViaPad*%
%ADD104C,0.71120*%
%ADD105C,0.76200*%
%ADD106C,0.68580*%
G36*
X9820000Y9020000D02*
X9770000D01*
Y9180000D01*
X9820000D01*
Y9020000D01*
D02*
G37*
G36*
X9220000Y9030000D02*
X9160000D01*
X9140000Y9050000D01*
Y9180000D01*
X9220000D01*
Y9030000D01*
D02*
G37*
G36*
X9420000D02*
X9360000D01*
X9330000Y9060000D01*
Y9180000D01*
X9420000D01*
Y9030000D01*
D02*
G37*
G36*
X25400Y0D02*
X0D01*
Y25400D01*
X25400D01*
Y0D01*
D02*
G37*
G36*
X7901940Y8630920D02*
X7749540D01*
Y8796020D01*
X7901940D01*
Y8630920D01*
D02*
G37*
G36*
X9630000Y9020000D02*
X9570000D01*
Y9180000D01*
X9630000D01*
Y9020000D01*
D02*
G37*
G36*
X6012180Y10165080D02*
X5821680D01*
Y10363200D01*
X6012180D01*
Y10165080D01*
D02*
G37*
G36*
X15585440Y10934700D02*
X15397479D01*
Y11087100D01*
X15585440D01*
Y10934700D01*
D02*
G37*
G36*
X17365981Y11033760D02*
X17238980D01*
Y11173460D01*
X17365981D01*
Y11033760D01*
D02*
G37*
G36*
Y11186160D02*
X17238980D01*
Y11780520D01*
X17365981D01*
Y11186160D01*
D02*
G37*
G36*
X6493510Y10165080D02*
X6303010D01*
Y10363200D01*
X6493510D01*
Y10165080D01*
D02*
G37*
G36*
X7438390D02*
X7247890D01*
Y10363200D01*
X7438390D01*
Y10165080D01*
D02*
G37*
G36*
X7917180D02*
X7726680D01*
Y10363200D01*
X7917180D01*
Y10165080D01*
D02*
G37*
D95*
X1780540Y3657599D02*
X17302480D01*
X17302480Y14190979D01*
X1780540Y14190981D02*
X17302480Y14190979D01*
X1780540Y3657599D02*
X1780540Y14190981D01*
D96*
X12624180Y11348720D02*
D03*
D97*
X12524180Y11248720D02*
D03*
X12724180D02*
D03*
X12924181D02*
D03*
X13124181D02*
D03*
X13324181D02*
D03*
X13524181D02*
D03*
X13724181D02*
D03*
Y11448720D02*
D03*
X9969500Y12964160D02*
D03*
Y13218159D02*
D03*
X10223500Y12964160D02*
D03*
Y13218159D02*
D03*
X10477500Y12964160D02*
D03*
Y13218159D02*
D03*
X10731500Y12964160D02*
D03*
Y13218159D02*
D03*
X10985500Y12964160D02*
D03*
X6852920Y7912100D02*
D03*
D98*
X2531840Y12851199D02*
D03*
X2781840D02*
D03*
D99*
X16258540Y10806430D02*
D03*
X15953740Y5368290D02*
D03*
D100*
X4165600Y12913361D02*
D03*
Y12453360D02*
D03*
D101*
X3916680Y8373860D02*
D03*
Y8023860D02*
D03*
D102*
X5657320Y10673839D02*
D03*
X6617320D02*
D03*
X7082320Y10673840D02*
D03*
X8042320D02*
D03*
D103*
Y10053840D02*
D03*
X7562320D02*
D03*
X6137320D02*
D03*
X6617320D02*
D03*
X8275320Y11483840D02*
D03*
X5425320D02*
D03*
D104*
X9739981Y7409985D02*
D03*
X9629981D02*
D03*
X15699741Y8309610D02*
D03*
Y8375250D02*
D03*
X10860000Y8010000D02*
D03*
X9359981Y8889982D02*
D03*
X15572740Y10152380D02*
D03*
X11666220Y6421100D02*
D03*
X9240000Y7420000D02*
D03*
X15572740Y10086340D02*
D03*
X9161880Y7317840D02*
D03*
X11666220Y6341100D02*
D03*
X9260000Y7310000D02*
D03*
X15699741Y7546340D02*
D03*
Y7613250D02*
D03*
X9361880Y7317840D02*
D03*
X9449361Y7209155D02*
D03*
X9539981Y7319985D02*
D03*
X15862300Y9211310D02*
D03*
X9261880Y8182280D02*
D03*
X15862300Y9144000D02*
D03*
X9161880Y8182280D02*
D03*
X16080740Y8122920D02*
D03*
Y8055610D02*
D03*
X9229660Y7914500D02*
D03*
X10535920Y8191500D02*
D03*
X9740000Y7220000D02*
D03*
X9730000Y7310000D02*
D03*
X9539981Y7419985D02*
D03*
X9450000Y7710000D02*
D03*
X15699741Y9831070D02*
D03*
X12961639Y6461760D02*
D03*
X15699741Y9897110D02*
D03*
X13041640Y6461760D02*
D03*
X9161880Y7617840D02*
D03*
Y7717840D02*
D03*
X8991685Y7210620D02*
D03*
X9059982Y7109986D02*
D03*
X9439981D02*
D03*
X9159982D02*
D03*
X9130000Y7380000D02*
D03*
X9429981Y7509985D02*
D03*
X9339981Y7499985D02*
D03*
X15699741Y8690610D02*
D03*
Y8756250D02*
D03*
X8950000Y8320000D02*
D03*
X8949982Y8219984D02*
D03*
X16210280Y8817610D02*
D03*
Y8884920D02*
D03*
X9569981Y8979982D02*
D03*
X15699741Y7928610D02*
D03*
Y7994250D02*
D03*
X9860000Y7713700D02*
D03*
X10029980Y8029984D02*
D03*
X9866160Y8195640D02*
D03*
X9749980Y8079984D02*
D03*
X13691859Y8531860D02*
D03*
X15247620Y10415260D02*
D03*
X15699741Y10408080D02*
D03*
X9161880Y8282280D02*
D03*
X15699741Y10341610D02*
D03*
X15247620Y10335260D02*
D03*
X13611861Y8531860D02*
D03*
X9161880Y8382280D02*
D03*
X15699741Y6851250D02*
D03*
Y6785610D02*
D03*
X9061880Y7717840D02*
D03*
X8961880D02*
D03*
X9139982Y7909984D02*
D03*
X9161880Y8482280D02*
D03*
Y8582280D02*
D03*
X15676880Y3919220D02*
D03*
X15742920D02*
D03*
X8958540Y8585620D02*
D03*
Y8485620D02*
D03*
X8530000Y8600000D02*
D03*
Y8740000D02*
D03*
X9556420Y8011160D02*
D03*
X9440000Y7900000D02*
D03*
X9453880Y8196580D02*
D03*
X9342120Y7806100D02*
D03*
X8966200Y8016240D02*
D03*
X9563100Y8478520D02*
D03*
X8839982Y8899982D02*
D03*
X10329979Y8779982D02*
D03*
X10139980Y8999982D02*
D03*
X10248900Y9093200D02*
D03*
X10839978Y8109984D02*
D03*
X10933540Y7670877D02*
D03*
X10039980Y7389985D02*
D03*
X12578080Y9502140D02*
D03*
X10126320Y7517840D02*
D03*
X12485793Y9502140D02*
D03*
X10126320Y7617840D02*
D03*
X12393507Y9502140D02*
D03*
X11370000Y8000000D02*
D03*
Y8060000D02*
D03*
X11031220Y7520940D02*
D03*
X11981180Y8747760D02*
D03*
X12364720Y8848100D02*
D03*
X10330000Y7710000D02*
D03*
X9749980Y7499985D02*
D03*
X9859980Y7909984D02*
D03*
X9749980Y7809984D02*
D03*
X10845800Y7302500D02*
D03*
X10033000Y7901940D02*
D03*
X9754260Y7610220D02*
D03*
X9040000Y11030000D02*
D03*
Y11530000D02*
D03*
X8790940Y9692620D02*
D03*
X7675880Y9833600D02*
D03*
X8790940Y9612620D02*
D03*
X7675880Y9753600D02*
D03*
X8592820Y9583400D02*
D03*
X6027420Y9583416D02*
D03*
X8592820Y9503400D02*
D03*
X6027420Y9503416D02*
D03*
X9690000Y6870000D02*
D03*
X10280000Y9360000D02*
D03*
X9151620Y12227560D02*
D03*
Y12170664D02*
D03*
Y12113768D02*
D03*
Y12056872D02*
D03*
Y11999976D02*
D03*
Y11943080D02*
D03*
X9161780Y11440160D02*
D03*
Y11378184D02*
D03*
Y11316208D02*
D03*
Y11254232D02*
D03*
Y11192256D02*
D03*
Y11130280D02*
D03*
X15699699Y9446260D02*
D03*
X15699741Y9516110D02*
D03*
X10200000Y6910000D02*
D03*
X10120000D02*
D03*
X10030000D02*
D03*
X12842239Y9075420D02*
D03*
Y8995420D02*
D03*
X15699741Y6470250D02*
D03*
Y6404610D02*
D03*
X8840000Y7940000D02*
D03*
X9659981Y9089982D02*
D03*
X10919978Y8679983D02*
D03*
X7942580Y8667740D02*
D03*
X7820000Y7970000D02*
D03*
X7960000Y8180000D02*
D03*
X16080740Y9579610D02*
D03*
X14734540Y9629140D02*
D03*
X12680960Y6962140D02*
D03*
X12600960D02*
D03*
X16080740Y9643110D02*
D03*
X14734540Y9709140D02*
D03*
X9161880Y7217840D02*
D03*
X11480000Y9130000D02*
D03*
Y9220000D02*
D03*
X9540000Y6870000D02*
D03*
X9610000D02*
D03*
X11040000Y7690000D02*
D03*
X10200000Y9360000D02*
D03*
X10450000Y9120000D02*
D03*
X10440000Y9540000D02*
D03*
X10360000D02*
D03*
X10020000Y9350000D02*
D03*
X9460000Y8990000D02*
D03*
X16207739Y10341610D02*
D03*
X9460000Y8890000D02*
D03*
X16207739Y10407250D02*
D03*
X10240000Y8090000D02*
D03*
X9360000Y8490000D02*
D03*
X10640000Y8900000D02*
D03*
X8680000Y7210000D02*
D03*
Y7270000D02*
D03*
X8580000Y7360000D02*
D03*
Y7420000D02*
D03*
X8959982Y7409985D02*
D03*
X15953740Y7183120D02*
D03*
X9029982Y7509985D02*
D03*
X15953740Y7249160D02*
D03*
X9243300Y7499260D02*
D03*
Y7599260D02*
D03*
X16080740Y8436610D02*
D03*
Y8503920D02*
D03*
X9062720Y8018780D02*
D03*
X15890240Y8817610D02*
D03*
X9061880Y8282280D02*
D03*
X15890240Y8884920D02*
D03*
X9061880Y8182280D02*
D03*
X16080740Y9198610D02*
D03*
Y9265920D02*
D03*
X8500000Y8250000D02*
D03*
Y7910000D02*
D03*
X8570000D02*
D03*
X8420000D02*
D03*
X10243820Y8404860D02*
D03*
X10429240Y8592820D02*
D03*
X10939780Y7993380D02*
D03*
X10960100Y8308340D02*
D03*
X15699741Y7232250D02*
D03*
Y7166610D02*
D03*
X10033000Y7513320D02*
D03*
X10642600Y7894320D02*
D03*
X9189720Y11590020D02*
D03*
X9480620Y11520240D02*
D03*
X9493180Y11045120D02*
D03*
X9169400Y10972800D02*
D03*
X8908980Y12282100D02*
D03*
Y11883320D02*
D03*
X9170600Y11791880D02*
D03*
X9500800Y11852840D02*
D03*
X9484360Y12311380D02*
D03*
X9174480Y12374880D02*
D03*
X9565640Y8788400D02*
D03*
X9552940Y8689340D02*
D03*
X9756140Y8900160D02*
D03*
X16085820Y6875780D02*
D03*
X15577820Y5613400D02*
D03*
X15704820Y5737860D02*
D03*
X13898880Y10838180D02*
D03*
X15572740Y10561320D02*
D03*
X16212820Y6753860D02*
D03*
X16075661Y6375400D02*
D03*
X16088361Y6118860D02*
D03*
X16212820Y5737860D02*
D03*
X16088361Y5862320D02*
D03*
Y5610860D02*
D03*
X9862820Y8585200D02*
D03*
X10334100Y8590060D02*
D03*
Y8390060D02*
D03*
Y8490060D02*
D03*
X12684760Y10292080D02*
D03*
X12509500Y10248900D02*
D03*
X12485793Y9708727D02*
D03*
X12578080Y9705340D02*
D03*
X12301220Y9502140D02*
D03*
X9151620Y8088500D02*
D03*
X15247620Y10255260D02*
D03*
Y10495260D02*
D03*
X9461880Y9082280D02*
D03*
X9525000Y7109460D02*
D03*
X9461880Y8382280D02*
D03*
X9661880D02*
D03*
X9862820Y8382000D02*
D03*
X9261880Y9082280D02*
D03*
X9761880Y8482280D02*
D03*
X10022840Y8483600D02*
D03*
X9461880Y8682280D02*
D03*
X9661880D02*
D03*
X10030460Y8196580D02*
D03*
X10126320Y8382280D02*
D03*
X10426320Y8482280D02*
D03*
X10660000Y8590000D02*
D03*
X9661880Y7717840D02*
D03*
X9161880Y8982280D02*
D03*
X9561880Y7817840D02*
D03*
X10126320Y7717840D02*
D03*
X10026320Y7617840D02*
D03*
X9159240Y7018020D02*
D03*
X9060180Y8384540D02*
D03*
X9761220Y8285480D02*
D03*
X10022840Y8282940D02*
D03*
X9558020D02*
D03*
X16212820Y6880860D02*
D03*
X16093440Y6626860D02*
D03*
Y10563860D02*
D03*
X9050020Y8702040D02*
D03*
X10234100Y8990060D02*
D03*
X10334100D02*
D03*
X10834100D02*
D03*
X10534100D02*
D03*
X10634100D02*
D03*
X10834100Y8690060D02*
D03*
X9654540Y7510780D02*
D03*
X9561880Y7517840D02*
D03*
X16212820Y5991860D02*
D03*
Y6245860D02*
D03*
X16080740Y7741920D02*
D03*
Y7674610D02*
D03*
X9061880Y7217840D02*
D03*
X8947780Y8795380D02*
D03*
X9939020Y8595360D02*
D03*
X9550000Y7610000D02*
D03*
X9854100Y7510060D02*
D03*
X9350000Y7410000D02*
D03*
X10026320Y7817840D02*
D03*
X8960000Y7610000D02*
D03*
X10932160Y7523480D02*
D03*
X10659979Y7517999D02*
D03*
X10849978Y8919982D02*
D03*
X10640000Y7110000D02*
D03*
X10740000D02*
D03*
X10840000D02*
D03*
X10940000D02*
D03*
X16210280Y8376920D02*
D03*
Y8309610D02*
D03*
X11740000Y8110000D02*
D03*
X11660000D02*
D03*
X9361880Y7617840D02*
D03*
X12364720Y8768100D02*
D03*
X9361880Y7717840D02*
D03*
X11250000Y7110000D02*
D03*
X10830000Y8290000D02*
D03*
X10940000Y8610000D02*
D03*
X11250000Y7360000D02*
D03*
Y7410000D02*
D03*
Y7690000D02*
D03*
Y7630000D02*
D03*
X11270000Y8340000D02*
D03*
Y8280000D02*
D03*
X11350000Y8900000D02*
D03*
Y8840000D02*
D03*
X8958540Y9085620D02*
D03*
X16436340Y9471660D02*
D03*
X8958540Y8985620D02*
D03*
X16436340Y9537700D02*
D03*
X8700000Y8440000D02*
D03*
Y8380000D02*
D03*
X8501220Y8152320D02*
D03*
X8820000Y8210000D02*
D03*
Y8160000D02*
D03*
X8500000Y8330000D02*
D03*
X11250000Y7170000D02*
D03*
X9250680Y9413240D02*
D03*
X9430000Y9410000D02*
D03*
X9034780Y9410700D02*
D03*
X9490000Y9410000D02*
D03*
X8660000Y9020000D02*
D03*
Y8950000D02*
D03*
X7942580Y8747740D02*
D03*
X9360940Y8782280D02*
D03*
Y8682280D02*
D03*
X11480000Y9310000D02*
D03*
X10100000Y9350000D02*
D03*
X9861880Y9082280D02*
D03*
X9661880Y8982280D02*
D03*
Y8882280D02*
D03*
X16210280Y9833610D02*
D03*
Y9900920D02*
D03*
X10734100Y8990060D02*
D03*
X9761880Y8782280D02*
D03*
Y8682280D02*
D03*
D105*
X7584440Y7901940D02*
D03*
X5914460Y11226058D02*
D03*
X6154460D02*
D03*
X6234140D02*
D03*
X6394160D02*
D03*
X6314460Y10942320D02*
D03*
X6074460D02*
D03*
X7340620Y11220978D02*
D03*
X7580620D02*
D03*
X7660620D02*
D03*
X7820320D02*
D03*
X7740620Y10937240D02*
D03*
X7500620D02*
D03*
X10000000Y6240000D02*
D03*
X11221720Y8646160D02*
D03*
X10942320Y12514580D02*
D03*
X10741660Y12409170D02*
D03*
X10556240Y12237720D02*
D03*
X10434320Y12156440D02*
D03*
X6819986Y6319987D02*
D03*
X7470000Y7640000D02*
D03*
X13389999Y8520000D02*
D03*
X11220000Y9860000D02*
D03*
X13139999Y11080000D02*
D03*
X12203360Y12807880D02*
D03*
X11677580Y12810420D02*
D03*
X8796020Y10198100D02*
D03*
X9301480Y10350500D02*
D03*
X11544300Y8514080D02*
D03*
X5788660Y7500620D02*
D03*
X3286760Y7861040D02*
D03*
X3375660D02*
D03*
X3348240Y7205980D02*
D03*
X6192520Y7221220D02*
D03*
X6756400Y6474460D02*
D03*
X6290320Y8096260D02*
D03*
X10761980Y3939540D02*
D03*
X10457180D02*
D03*
X9949180D02*
D03*
X10660380D02*
D03*
X10558780D02*
D03*
X10355580D02*
D03*
X10152380D02*
D03*
X10050780D02*
D03*
X10253980D02*
D03*
X3671520Y5116880D02*
D03*
X3858260Y4654600D02*
D03*
X3726180Y4657140D02*
D03*
X7297420Y8257540D02*
D03*
X7211060Y8163560D02*
D03*
Y8257540D02*
D03*
X7104380Y7960360D02*
D03*
Y7871460D02*
D03*
X5240020Y10510520D02*
D03*
X4817860Y4023880D02*
D03*
X3934460Y9298940D02*
D03*
X3205740Y12438120D02*
D03*
X3261360Y7487920D02*
D03*
X8458200Y10525760D02*
D03*
Y10614660D02*
D03*
X8463280Y11943080D02*
D03*
Y12026900D02*
D03*
X5242560Y11940540D02*
D03*
Y12029440D02*
D03*
X5240020Y10591800D02*
D03*
X6198820Y10408920D02*
D03*
X7621220Y10414000D02*
D03*
X7541220Y10413999D02*
D03*
X6118820Y10408920D02*
D03*
X13931900Y13103860D02*
D03*
X13809979D02*
D03*
X13682980D02*
D03*
X13558521D02*
D03*
X3726180Y5000040D02*
D03*
X3858260Y4994960D02*
D03*
X12471400Y12948920D02*
D03*
X12082780Y13248640D02*
D03*
X12463780Y13251180D02*
D03*
X11938000Y12951460D02*
D03*
Y13248640D02*
D03*
X11564620Y13258800D02*
D03*
X12390120Y8610600D02*
D03*
X9898380Y6774180D02*
D03*
X11049000Y6518660D02*
D03*
X9588500Y6400800D02*
D03*
X11861800Y7899400D02*
D03*
X13032739Y7881620D02*
D03*
Y8775700D02*
D03*
X9588500Y6241580D02*
D03*
Y6322060D02*
D03*
X8906040Y9887420D02*
D03*
X3197860Y7858500D02*
D03*
X3909060Y7584180D02*
D03*
X2567940Y12024100D02*
D03*
X2646680Y12026640D02*
D03*
X2722880D02*
D03*
X2567940Y11947900D02*
D03*
X2710000Y11950000D02*
D03*
X2565400Y11871700D02*
D03*
X2649220Y11874240D02*
D03*
X4318620Y9295520D02*
D03*
X2537460Y7553700D02*
D03*
X2618740D02*
D03*
X2697480D02*
D03*
X2773680D02*
D03*
X2849880D02*
D03*
X4686300Y6581140D02*
D03*
X4795520D02*
D03*
X4912360D02*
D03*
X5029200D02*
D03*
X5151120D02*
D03*
Y6690360D02*
D03*
X5029200D02*
D03*
X4912360D02*
D03*
X4795520D02*
D03*
X4686300D02*
D03*
X4363720Y4620260D02*
D03*
Y4716780D02*
D03*
Y4810760D02*
D03*
Y4912360D02*
D03*
Y5016500D02*
D03*
X4349780Y4088100D02*
D03*
X6289040Y5923280D02*
D03*
X6365240D02*
D03*
X6245860Y5222240D02*
D03*
X6327140Y5257800D02*
D03*
X7221220Y5443220D02*
D03*
X7223760Y5702000D02*
D03*
X10518140Y9974580D02*
D03*
X10515600Y10208260D02*
D03*
X9926320Y10205720D02*
D03*
X9918700Y10116820D02*
D03*
X9936480Y9888220D02*
D03*
Y9702800D02*
D03*
X8816340Y9888220D02*
D03*
X10020759Y12758420D02*
D03*
X10020300Y13403580D02*
D03*
X12664440Y12768580D02*
D03*
X12796520Y12766040D02*
D03*
X4559300Y8597640D02*
D03*
Y8686540D02*
D03*
X4561840Y8854180D02*
D03*
X4559300Y8775440D02*
D03*
X4475480Y8600180D02*
D03*
Y8689080D02*
D03*
X4478020Y8854180D02*
D03*
Y8775440D02*
D03*
X10513060Y9872980D02*
D03*
X10510520Y9761220D02*
D03*
X9936480Y9799320D02*
D03*
X13936980Y12705080D02*
D03*
X13809979Y12697460D02*
D03*
X13682980Y12710160D02*
D03*
X13555980D02*
D03*
X13056799Y7553640D02*
D03*
X12010000Y7660000D02*
D03*
X12060000Y7140000D02*
D03*
X11890000D02*
D03*
X11049000Y6446520D02*
D03*
X11580000Y7340000D02*
D03*
Y7430000D02*
D03*
X11700000Y6990000D02*
D03*
D106*
X7169986Y5539989D02*
D03*
X7117080Y5504180D02*
D03*
X7169986Y5649989D02*
D03*
X6799986Y5169990D02*
D03*
X6258812Y5621020D02*
D03*
X4830000Y5060000D02*
D03*
X7085800Y4995800D02*
D03*
X6850000Y6110000D02*
D03*
X7806360Y5608320D02*
D03*
X5725510Y5462150D02*
D03*
X5726200Y5619180D02*
D03*
X6222200Y5572760D02*
D03*
X6371120Y6350000D02*
D03*
X4703280Y6258560D02*
D03*
X6374600Y4841240D02*
D03*
X6493980Y6019800D02*
D03*
X6501600Y5046180D02*
D03*
X6918160Y5041900D02*
D03*
X6547320Y6114580D02*
D03*
X6996900Y5145240D02*
D03*
X6445720Y5161280D02*
D03*
X7040080Y4838700D02*
D03*
X6742900Y5156200D02*
D03*
X4890000Y5060000D02*
D03*
X4940000D02*
D03*
X4990000D02*
D03*
X6800000Y6070000D02*
D03*
X7300000Y4470000D02*
D03*
X7350000D02*
D03*
X7300000Y4400000D02*
D03*
X7350000D02*
D03*
%TF.MD5,87df07b842fe045b3926978103b1825c*%
M02*
