G04 Layer_Physical_Order=3*
G04 Layer_Color=36540*
%FSLAX45Y45*%
%MOMM*%
%TF.FileFunction,Copper,L3,Inr,Signal*%
%TF.Part,Single*%
G01*
G75*
%TA.AperFunction,Conductor*%
%ADD10C,0.30480*%
%ADD50C,0.25400*%
%ADD51C,0.15240*%
%ADD55C,0.17500*%
%ADD56C,0.20320*%
%TA.AperFunction,NonConductor*%
%ADD68R,1.27000X0.12700*%
%TA.AperFunction,ComponentPad*%
%ADD72R,1.50000X1.50000*%
%ADD73C,1.50000*%
%TA.AperFunction,ViaPad*%
%ADD74C,5.00000*%
%TA.AperFunction,ComponentPad*%
%ADD75R,2.00000X2.00000*%
%ADD76C,0.95000*%
%ADD77C,1.55000*%
%ADD78C,1.52400*%
G04:AMPARAMS|DCode=79|XSize=1.3mm|YSize=1.3mm|CornerRadius=0mm|HoleSize=0mm|Usage=FLASHONLY|Rotation=180.000|XOffset=0mm|YOffset=0mm|HoleType=Round|Shape=Octagon|*
%AMOCTAGOND79*
4,1,8,-0.65000,0.32500,-0.65000,-0.32500,-0.32500,-0.65000,0.32500,-0.65000,0.65000,-0.32500,0.65000,0.32500,0.32500,0.65000,-0.32500,0.65000,-0.65000,0.32500,0.0*
%
%ADD79OCTAGOND79*%

%ADD80C,1.30000*%
%ADD81C,1.00000*%
%ADD82C,2.70000*%
%TA.AperFunction,ViaPad*%
%ADD83C,3.20000*%
%TA.AperFunction,ComponentPad*%
%ADD84R,4.06400X1.65100*%
%ADD85R,1.65100X4.06400*%
%ADD86R,1.52400X1.52400*%
%TA.AperFunction,ViaPad*%
%ADD87C,0.38100*%
%ADD88C,0.40640*%
%ADD89C,0.50800*%
%ADD90C,0.50000*%
%ADD91C,0.63500*%
%TA.AperFunction,NonConductor*%
%ADD105R,1.27000X7.74700*%
G36*
X9377722Y7630809D02*
X9379124Y7629687D01*
X9380597Y7628696D01*
X9382142Y7627837D01*
X9383758Y7627111D01*
X9385445Y7626517D01*
X9387204Y7626054D01*
X9389034Y7625724D01*
X9390936Y7625526D01*
X9392909Y7625460D01*
Y7610220D01*
X9390936Y7610154D01*
X9389034Y7609956D01*
X9387204Y7609626D01*
X9385445Y7609163D01*
X9383758Y7608569D01*
X9382142Y7607843D01*
X9380597Y7606984D01*
X9379124Y7605993D01*
X9377722Y7604871D01*
X9376391Y7603616D01*
Y7632064D01*
X9377722Y7630809D01*
D02*
G37*
G36*
X9250986Y7628316D02*
X9251184Y7626414D01*
X9251514Y7624584D01*
X9251977Y7622825D01*
X9252571Y7621137D01*
X9253297Y7619521D01*
X9254156Y7617977D01*
X9255147Y7616503D01*
X9256269Y7615102D01*
X9257524Y7613771D01*
X9229076D01*
X9230331Y7615102D01*
X9231453Y7616503D01*
X9232444Y7617977D01*
X9233303Y7619521D01*
X9234029Y7621137D01*
X9234623Y7622825D01*
X9235086Y7624584D01*
X9235416Y7626414D01*
X9235614Y7628316D01*
X9235680Y7630289D01*
X9250920D01*
X9250986Y7628316D01*
D02*
G37*
G36*
X9161677Y7597521D02*
X9159849Y7597468D01*
X9158064Y7597270D01*
X9156322Y7596929D01*
X9154622Y7596444D01*
X9152966Y7595815D01*
X9151353Y7595042D01*
X9149782Y7594125D01*
X9148254Y7593064D01*
X9146769Y7591860D01*
X9145327Y7590511D01*
X9134551Y7601287D01*
X9135900Y7602729D01*
X9137104Y7604214D01*
X9138165Y7605742D01*
X9139082Y7607312D01*
X9139855Y7608926D01*
X9140484Y7610582D01*
X9140969Y7612282D01*
X9141310Y7614024D01*
X9141508Y7615809D01*
X9141561Y7617637D01*
X9161677Y7597521D01*
D02*
G37*
G36*
X9374266Y7504559D02*
X9356851Y7488657D01*
X9353522Y7515136D01*
X9354580Y7514338D01*
X9355690Y7513788D01*
X9356853Y7513485D01*
X9358068Y7513430D01*
X9359335Y7513623D01*
X9360655Y7514064D01*
X9362027Y7514752D01*
X9363452Y7515689D01*
X9364929Y7516873D01*
X9366459Y7518304D01*
X9374266Y7504559D01*
D02*
G37*
G36*
X9250986Y7528316D02*
X9251184Y7526414D01*
X9251514Y7524584D01*
X9251977Y7522825D01*
X9252571Y7521137D01*
X9253297Y7519521D01*
X9254156Y7517977D01*
X9255147Y7516503D01*
X9256269Y7515102D01*
X9257524Y7513771D01*
X9229076D01*
X9230331Y7515102D01*
X9231453Y7516503D01*
X9232444Y7517977D01*
X9233303Y7519521D01*
X9234029Y7521137D01*
X9234623Y7522825D01*
X9235086Y7524584D01*
X9235416Y7526414D01*
X9235614Y7528316D01*
X9235680Y7530289D01*
X9250920D01*
X9250986Y7528316D01*
D02*
G37*
G36*
X9389209Y7734393D02*
X9387861Y7732951D01*
X9386656Y7731466D01*
X9385595Y7729938D01*
X9384678Y7728368D01*
X9383906Y7726754D01*
X9383276Y7725098D01*
X9382791Y7723398D01*
X9382450Y7721656D01*
X9382253Y7719871D01*
X9382199Y7718043D01*
X9362083Y7738159D01*
X9363911Y7738212D01*
X9365697Y7738410D01*
X9367438Y7738751D01*
X9369138Y7739236D01*
X9370794Y7739865D01*
X9372408Y7740638D01*
X9373978Y7741555D01*
X9375506Y7742616D01*
X9376991Y7743820D01*
X9378433Y7745169D01*
X9389209Y7734393D01*
D02*
G37*
G36*
X16298323Y7765413D02*
X16301224Y7763000D01*
X16302597Y7762051D01*
X16303922Y7761273D01*
X16305196Y7760668D01*
X16306418Y7760234D01*
X16307591Y7759972D01*
X16308714Y7759882D01*
X16309785Y7759964D01*
X16292937Y7743114D01*
X16293018Y7744186D01*
X16292928Y7745309D01*
X16292667Y7746482D01*
X16292232Y7747705D01*
X16291628Y7748978D01*
X16290849Y7750303D01*
X16289900Y7751677D01*
X16288779Y7753101D01*
X16287486Y7754577D01*
X16286021Y7756102D01*
X16296799Y7766878D01*
X16298323Y7765413D01*
D02*
G37*
G36*
X9047369Y7703616D02*
X9046039Y7704871D01*
X9044637Y7705993D01*
X9043164Y7706984D01*
X9041619Y7707843D01*
X9040003Y7708569D01*
X9038315Y7709163D01*
X9036556Y7709626D01*
X9034726Y7709956D01*
X9032824Y7710154D01*
X9030851Y7710220D01*
Y7725460D01*
X9032824Y7725526D01*
X9034726Y7725724D01*
X9036556Y7726054D01*
X9038315Y7726517D01*
X9040003Y7727111D01*
X9041619Y7727837D01*
X9043164Y7728696D01*
X9044637Y7729687D01*
X9046039Y7730809D01*
X9047369Y7732064D01*
Y7703616D01*
D02*
G37*
G36*
X8961677Y7697521D02*
X8959849Y7697468D01*
X8958064Y7697270D01*
X8956322Y7696929D01*
X8954622Y7696444D01*
X8952966Y7695815D01*
X8951353Y7695042D01*
X8949782Y7694125D01*
X8948254Y7693064D01*
X8946770Y7691860D01*
X8945328Y7690511D01*
X8934551Y7701287D01*
X8935900Y7702729D01*
X8937104Y7704214D01*
X8938165Y7705742D01*
X8939082Y7707312D01*
X8939855Y7708926D01*
X8940484Y7710582D01*
X8940969Y7712282D01*
X8941311Y7714024D01*
X8941508Y7715809D01*
X8941561Y7717637D01*
X8961677Y7697521D01*
D02*
G37*
G36*
X9161677D02*
X9159849Y7697468D01*
X9158064Y7697270D01*
X9156322Y7696929D01*
X9154622Y7696444D01*
X9152966Y7695815D01*
X9151353Y7695042D01*
X9149782Y7694125D01*
X9148254Y7693064D01*
X9146769Y7691860D01*
X9145327Y7690511D01*
X9134551Y7701287D01*
X9135900Y7702729D01*
X9137104Y7704214D01*
X9138165Y7705742D01*
X9139082Y7707312D01*
X9139855Y7708926D01*
X9140484Y7710582D01*
X9140969Y7712282D01*
X9141310Y7714024D01*
X9141508Y7715809D01*
X9141561Y7717637D01*
X9161677Y7697521D01*
D02*
G37*
G36*
X8952951Y7394143D02*
X8951829Y7392742D01*
X8950838Y7391268D01*
X8949980Y7389724D01*
X8949253Y7388108D01*
X8948659Y7386420D01*
X8948196Y7384661D01*
X8947866Y7382831D01*
X8947668Y7380929D01*
X8947602Y7378956D01*
X8932362D01*
X8932296Y7380929D01*
X8932098Y7382831D01*
X8931768Y7384661D01*
X8931305Y7386420D01*
X8930711Y7388108D01*
X8929985Y7389724D01*
X8929126Y7391268D01*
X8928136Y7392742D01*
X8927013Y7394143D01*
X8925758Y7395474D01*
X8954206D01*
X8952951Y7394143D01*
D02*
G37*
G36*
X9760353Y7407954D02*
X9760550Y7406169D01*
X9760892Y7404427D01*
X9761377Y7402727D01*
X9762006Y7401071D01*
X9762779Y7399458D01*
X9763695Y7397887D01*
X9764756Y7396359D01*
X9765961Y7394874D01*
X9767310Y7393433D01*
X9756533Y7382656D01*
X9755091Y7384005D01*
X9753607Y7385209D01*
X9752079Y7386270D01*
X9750508Y7387187D01*
X9748895Y7387960D01*
X9747238Y7388589D01*
X9745539Y7389074D01*
X9743797Y7389415D01*
X9742012Y7389613D01*
X9740184Y7389666D01*
X9760300Y7409782D01*
X9760353Y7407954D01*
D02*
G37*
G36*
X9547436Y7378535D02*
X9546992Y7377976D01*
X9546600Y7377247D01*
X9546260Y7376348D01*
X9545973Y7375279D01*
X9545738Y7374041D01*
X9545555Y7372633D01*
X9545346Y7369307D01*
X9545320Y7367390D01*
X9530080D01*
X9530054Y7369307D01*
X9529662Y7374041D01*
X9529427Y7375279D01*
X9529140Y7376348D01*
X9528800Y7377247D01*
X9528408Y7377976D01*
X9527964Y7378535D01*
X9527468Y7378924D01*
X9547932D01*
X9547436Y7378535D01*
D02*
G37*
G36*
X9543587Y7324686D02*
X9517020Y7320601D01*
X9517806Y7321713D01*
X9518347Y7322872D01*
X9518642Y7324076D01*
X9518691Y7325326D01*
X9518495Y7326622D01*
X9518053Y7327964D01*
X9517365Y7329352D01*
X9516431Y7330786D01*
X9515251Y7332265D01*
X9513825Y7333791D01*
X9527361Y7341808D01*
X9543587Y7324686D01*
D02*
G37*
G36*
X16298323Y7384413D02*
X16301224Y7382000D01*
X16302597Y7381051D01*
X16303922Y7380273D01*
X16305196Y7379668D01*
X16306418Y7379234D01*
X16307591Y7378972D01*
X16308714Y7378882D01*
X16309785Y7378964D01*
X16292937Y7362114D01*
X16293018Y7363186D01*
X16292928Y7364309D01*
X16292667Y7365482D01*
X16292232Y7366705D01*
X16291628Y7367978D01*
X16290849Y7369303D01*
X16289900Y7370677D01*
X16288779Y7372101D01*
X16287486Y7373577D01*
X16286021Y7375102D01*
X16296799Y7385878D01*
X16298323Y7384413D01*
D02*
G37*
G36*
X9448999Y7502580D02*
X9448740Y7501224D01*
X9448312Y7497663D01*
X9448006Y7492971D01*
X9447761Y7480195D01*
X9432521Y7477632D01*
X9432445Y7479688D01*
X9432217Y7481569D01*
X9431837Y7483274D01*
X9431305Y7484804D01*
X9430620Y7486160D01*
X9429784Y7487339D01*
X9428796Y7488344D01*
X9427656Y7489173D01*
X9426363Y7489827D01*
X9424918Y7490306D01*
X9449290Y7503654D01*
X9448999Y7502580D01*
D02*
G37*
G36*
X9029779Y7489666D02*
X9027951Y7489613D01*
X9026166Y7489415D01*
X9024424Y7489074D01*
X9022724Y7488589D01*
X9021068Y7487960D01*
X9019454Y7487187D01*
X9017884Y7486270D01*
X9016356Y7485209D01*
X9014871Y7484005D01*
X9013429Y7482656D01*
X9002653Y7493432D01*
X9004002Y7494874D01*
X9005206Y7496359D01*
X9006267Y7497887D01*
X9007184Y7499457D01*
X9007957Y7501071D01*
X9008586Y7502727D01*
X9009071Y7504427D01*
X9009412Y7506169D01*
X9009610Y7507954D01*
X9009663Y7509782D01*
X9029779Y7489666D01*
D02*
G37*
G36*
X16309785Y7415036D02*
X16308714Y7415118D01*
X16307591Y7415028D01*
X16306418Y7414766D01*
X16305196Y7414332D01*
X16303922Y7413727D01*
X16302597Y7412949D01*
X16301224Y7412000D01*
X16299799Y7410879D01*
X16298323Y7409586D01*
X16296799Y7408122D01*
X16286021Y7418898D01*
X16287486Y7420423D01*
X16289900Y7423323D01*
X16290849Y7424697D01*
X16291628Y7426021D01*
X16292232Y7427295D01*
X16292667Y7428518D01*
X16292928Y7429691D01*
X16293018Y7430814D01*
X16292937Y7431886D01*
X16309785Y7415036D01*
D02*
G37*
G36*
X9239797Y7399681D02*
X9237969Y7399628D01*
X9236184Y7399430D01*
X9234442Y7399089D01*
X9232742Y7398604D01*
X9231086Y7397975D01*
X9229473Y7397202D01*
X9227902Y7396285D01*
X9226374Y7395224D01*
X9224889Y7394020D01*
X9223447Y7392671D01*
X9212671Y7403447D01*
X9214020Y7404889D01*
X9215224Y7406374D01*
X9216285Y7407902D01*
X9217202Y7409472D01*
X9217975Y7411086D01*
X9218604Y7412742D01*
X9219089Y7414442D01*
X9219430Y7416184D01*
X9219628Y7417969D01*
X9219681Y7419797D01*
X9239797Y7399681D01*
D02*
G37*
G36*
X9645822Y7422954D02*
X9647224Y7421832D01*
X9648697Y7420841D01*
X9650242Y7419983D01*
X9651858Y7419256D01*
X9653546Y7418662D01*
X9655305Y7418200D01*
X9657135Y7417869D01*
X9659037Y7417671D01*
X9661010Y7417605D01*
Y7402365D01*
X9659037Y7402299D01*
X9657135Y7402101D01*
X9655305Y7401771D01*
X9653546Y7401309D01*
X9651858Y7400714D01*
X9650242Y7399988D01*
X9648697Y7399129D01*
X9647224Y7398139D01*
X9645822Y7397016D01*
X9644492Y7395761D01*
Y7424209D01*
X9645822Y7422954D01*
D02*
G37*
G36*
X16309785Y7796036D02*
X16308714Y7796118D01*
X16307591Y7796028D01*
X16306418Y7795766D01*
X16305196Y7795332D01*
X16303922Y7794727D01*
X16302597Y7793949D01*
X16301224Y7793000D01*
X16299799Y7791879D01*
X16298323Y7790586D01*
X16296799Y7789122D01*
X16286021Y7799898D01*
X16287486Y7801423D01*
X16289900Y7804323D01*
X16290849Y7805697D01*
X16291628Y7807021D01*
X16292232Y7808295D01*
X16292667Y7809518D01*
X16292928Y7810691D01*
X16293018Y7811814D01*
X16292937Y7812886D01*
X16309785Y7796036D01*
D02*
G37*
G36*
X8934871Y8245964D02*
X8936356Y8244759D01*
X8937884Y8243699D01*
X8939455Y8242782D01*
X8941068Y8242009D01*
X8942724Y8241380D01*
X8944424Y8240895D01*
X8946166Y8240553D01*
X8947951Y8240356D01*
X8949779Y8240303D01*
X8929663Y8220187D01*
X8929610Y8222015D01*
X8929412Y8223800D01*
X8929071Y8225542D01*
X8928586Y8227241D01*
X8927957Y8228898D01*
X8927184Y8230511D01*
X8926267Y8232082D01*
X8925206Y8233610D01*
X8924002Y8235094D01*
X8922653Y8236536D01*
X8933429Y8247313D01*
X8934871Y8245964D01*
D02*
G37*
G36*
X16552322Y8273413D02*
X16555223Y8271000D01*
X16556596Y8270051D01*
X16557921Y8269273D01*
X16559195Y8268668D01*
X16560419Y8268234D01*
X16561591Y8267972D01*
X16562714Y8267882D01*
X16563786Y8267964D01*
X16546936Y8251114D01*
X16547017Y8252186D01*
X16546928Y8253309D01*
X16546666Y8254482D01*
X16546233Y8255705D01*
X16545627Y8256978D01*
X16544849Y8258303D01*
X16543900Y8259677D01*
X16542780Y8261101D01*
X16541486Y8262577D01*
X16540022Y8264102D01*
X16550798Y8274878D01*
X16552322Y8273413D01*
D02*
G37*
G36*
X10058709Y8210460D02*
X10057192Y8208886D01*
X10054641Y8205875D01*
X10053606Y8204438D01*
X10052733Y8203048D01*
X10052021Y8201703D01*
X10051469Y8200404D01*
X10051078Y8199151D01*
X10050848Y8197944D01*
X10050779Y8196783D01*
X10030663Y8216899D01*
X10031824Y8216968D01*
X10033031Y8217198D01*
X10034284Y8217589D01*
X10035583Y8218141D01*
X10036928Y8218853D01*
X10038318Y8219726D01*
X10039755Y8220761D01*
X10041237Y8221956D01*
X10044340Y8224829D01*
X10058709Y8210460D01*
D02*
G37*
G36*
X9177722Y8195249D02*
X9179124Y8194126D01*
X9180597Y8193136D01*
X9182141Y8192277D01*
X9183758Y8191551D01*
X9185445Y8190956D01*
X9187204Y8190494D01*
X9189034Y8190164D01*
X9190936Y8189966D01*
X9192909Y8189900D01*
Y8174660D01*
X9190936Y8174594D01*
X9189034Y8174396D01*
X9187204Y8174065D01*
X9185445Y8173603D01*
X9183758Y8173009D01*
X9182141Y8172282D01*
X9180597Y8171424D01*
X9179124Y8170433D01*
X9177722Y8169311D01*
X9176391Y8168056D01*
Y8196504D01*
X9177722Y8195249D01*
D02*
G37*
G36*
X16309785Y8177036D02*
X16308714Y8177118D01*
X16307591Y8177028D01*
X16306418Y8176766D01*
X16305196Y8176332D01*
X16303922Y8175727D01*
X16302597Y8174949D01*
X16301224Y8174000D01*
X16299799Y8172879D01*
X16298323Y8171586D01*
X16296799Y8170122D01*
X16286021Y8180898D01*
X16287486Y8182423D01*
X16289900Y8185323D01*
X16290849Y8186697D01*
X16291628Y8188021D01*
X16292232Y8189295D01*
X16292667Y8190518D01*
X16292928Y8191691D01*
X16293018Y8192814D01*
X16292937Y8193886D01*
X16309785Y8177036D01*
D02*
G37*
G36*
X16563786Y8304036D02*
X16562714Y8304118D01*
X16561591Y8304028D01*
X16560419Y8303766D01*
X16559195Y8303332D01*
X16557921Y8302727D01*
X16556596Y8301949D01*
X16555223Y8301000D01*
X16553798Y8299879D01*
X16552322Y8298586D01*
X16550798Y8297122D01*
X16540022Y8307898D01*
X16541486Y8309423D01*
X16543900Y8312323D01*
X16544849Y8313697D01*
X16545627Y8315021D01*
X16546233Y8316295D01*
X16546666Y8317518D01*
X16546928Y8318691D01*
X16547017Y8319814D01*
X16546936Y8320886D01*
X16563786Y8304036D01*
D02*
G37*
G36*
X9179245Y8371419D02*
X9178835Y8369980D01*
X9178651Y8368534D01*
X9178692Y8367079D01*
X9178959Y8365616D01*
X9179451Y8364146D01*
X9180168Y8362667D01*
X9181110Y8361181D01*
X9182278Y8359687D01*
X9183671Y8358185D01*
X9166584Y8353720D01*
X9165121Y8355152D01*
X9159565Y8359951D01*
X9158250Y8360920D01*
X9155709Y8362578D01*
X9154484Y8363268D01*
X9153287Y8363866D01*
X9179880Y8372850D01*
X9179245Y8371419D01*
D02*
G37*
G36*
X8949797Y8299681D02*
X8947969Y8299628D01*
X8946184Y8299430D01*
X8944442Y8299089D01*
X8942742Y8298604D01*
X8941086Y8297975D01*
X8939472Y8297202D01*
X8937902Y8296285D01*
X8936374Y8295224D01*
X8934889Y8294020D01*
X8933447Y8292671D01*
X8922671Y8303447D01*
X8924019Y8304889D01*
X8925224Y8306374D01*
X8926285Y8307902D01*
X8927202Y8309473D01*
X8927975Y8311086D01*
X8928604Y8312742D01*
X8929089Y8314442D01*
X8929430Y8316184D01*
X8929628Y8317969D01*
X8929681Y8319797D01*
X8949797Y8299681D01*
D02*
G37*
G36*
X9074850Y8266438D02*
X9073727Y8265036D01*
X9072736Y8263563D01*
X9071878Y8262019D01*
X9071151Y8260402D01*
X9070557Y8258715D01*
X9070095Y8256956D01*
X9069764Y8255126D01*
X9069566Y8253224D01*
X9069500Y8251251D01*
X9054260D01*
X9054194Y8253224D01*
X9053996Y8255126D01*
X9053666Y8256956D01*
X9053204Y8258715D01*
X9052609Y8260402D01*
X9051883Y8262019D01*
X9051024Y8263563D01*
X9050034Y8265036D01*
X9048911Y8266438D01*
X9047656Y8267769D01*
X9076104D01*
X9074850Y8266438D01*
D02*
G37*
G36*
X9189209Y8298833D02*
X9187860Y8297391D01*
X9186656Y8295906D01*
X9185595Y8294378D01*
X9184678Y8292807D01*
X9183905Y8291194D01*
X9183276Y8289538D01*
X9182791Y8287838D01*
X9182450Y8286096D01*
X9182252Y8284311D01*
X9182199Y8282483D01*
X9162083Y8302599D01*
X9163911Y8302652D01*
X9165696Y8302850D01*
X9167438Y8303191D01*
X9169138Y8303676D01*
X9170794Y8304305D01*
X9172408Y8305078D01*
X9173978Y8305995D01*
X9175506Y8307056D01*
X9176991Y8308260D01*
X9178433Y8309609D01*
X9189209Y8298833D01*
D02*
G37*
G36*
X8953581Y7992694D02*
X8952099Y7993789D01*
X8950565Y7994770D01*
X8948979Y7995635D01*
X8947340Y7996384D01*
X8945649Y7997018D01*
X8943906Y7997537D01*
X8942111Y7997941D01*
X8940263Y7998229D01*
X8938363Y7998402D01*
X8936410Y7998460D01*
X8934333Y8013700D01*
X8936327Y8013772D01*
X8938226Y8013989D01*
X8940031Y8014350D01*
X8941741Y8014855D01*
X8943358Y8015505D01*
X8944879Y8016299D01*
X8946307Y8017237D01*
X8947640Y8018320D01*
X8948880Y8019547D01*
X8950025Y8020918D01*
X8953581Y7992694D01*
D02*
G37*
G36*
X9048209Y8004556D02*
X9046878Y8005811D01*
X9045476Y8006933D01*
X9044003Y8007924D01*
X9042459Y8008783D01*
X9040842Y8009509D01*
X9039155Y8010103D01*
X9037396Y8010566D01*
X9035566Y8010896D01*
X9033664Y8011094D01*
X9031691Y8011160D01*
Y8026400D01*
X9033664Y8026466D01*
X9035566Y8026664D01*
X9037396Y8026994D01*
X9039155Y8027457D01*
X9040842Y8028051D01*
X9042459Y8028777D01*
X9044003Y8029636D01*
X9045476Y8030627D01*
X9046878Y8031749D01*
X9048209Y8033004D01*
Y8004556D01*
D02*
G37*
G36*
X16563786Y7923036D02*
X16562714Y7923118D01*
X16561591Y7923028D01*
X16560419Y7922766D01*
X16559195Y7922332D01*
X16557921Y7921727D01*
X16556596Y7920949D01*
X16555223Y7920000D01*
X16553798Y7918879D01*
X16552322Y7917586D01*
X16550798Y7916122D01*
X16540022Y7926898D01*
X16541486Y7928423D01*
X16543900Y7931323D01*
X16544849Y7932697D01*
X16545627Y7934021D01*
X16546233Y7935295D01*
X16546666Y7936518D01*
X16546928Y7937691D01*
X16547017Y7938814D01*
X16546936Y7939886D01*
X16563786Y7923036D01*
D02*
G37*
G36*
X16552322Y7892413D02*
X16555223Y7890000D01*
X16556596Y7889051D01*
X16557921Y7888273D01*
X16559195Y7887668D01*
X16560419Y7887234D01*
X16561591Y7886972D01*
X16562714Y7886882D01*
X16563786Y7886964D01*
X16546936Y7870114D01*
X16547017Y7871186D01*
X16546928Y7872309D01*
X16546666Y7873482D01*
X16546233Y7874705D01*
X16545627Y7875978D01*
X16544849Y7877303D01*
X16543900Y7878677D01*
X16542780Y7880101D01*
X16541486Y7881577D01*
X16540022Y7883102D01*
X16550798Y7893878D01*
X16552322Y7892413D01*
D02*
G37*
G36*
X9214549Y7940480D02*
X9216034Y7939276D01*
X9217562Y7938215D01*
X9219132Y7937298D01*
X9220746Y7936525D01*
X9222402Y7935896D01*
X9224102Y7935411D01*
X9225844Y7935070D01*
X9227629Y7934872D01*
X9229457Y7934819D01*
X9209341Y7914703D01*
X9209288Y7916531D01*
X9209090Y7918316D01*
X9208749Y7920058D01*
X9208264Y7921758D01*
X9207635Y7923414D01*
X9206862Y7925028D01*
X9205945Y7926598D01*
X9204884Y7928126D01*
X9203680Y7929611D01*
X9202331Y7931053D01*
X9213107Y7941829D01*
X9214549Y7940480D01*
D02*
G37*
G36*
X9282203Y8179788D02*
X9282365Y8178007D01*
X9282675Y8176268D01*
X9283134Y8174571D01*
X9283742Y8172916D01*
X9284498Y8171302D01*
X9285403Y8169731D01*
X9286456Y8168202D01*
X9287658Y8166714D01*
X9289008Y8165269D01*
X9277965Y8154759D01*
X9276527Y8156106D01*
X9275045Y8157314D01*
X9273519Y8158382D01*
X9271950Y8159311D01*
X9270337Y8160101D01*
X9268680Y8160752D01*
X9266980Y8161263D01*
X9265236Y8161635D01*
X9263449Y8161868D01*
X9261617Y8161962D01*
X9282189Y8181611D01*
X9282203Y8179788D01*
D02*
G37*
G36*
X9061677Y8161961D02*
X9059849Y8161907D01*
X9058064Y8161710D01*
X9056322Y8161369D01*
X9054622Y8160884D01*
X9052966Y8160254D01*
X9051353Y8159482D01*
X9049782Y8158565D01*
X9048254Y8157504D01*
X9046770Y8156299D01*
X9045328Y8154951D01*
X9034551Y8165727D01*
X9035900Y8167169D01*
X9037104Y8168654D01*
X9038165Y8170182D01*
X9039082Y8171752D01*
X9039855Y8173366D01*
X9040484Y8175022D01*
X9040969Y8176722D01*
X9041311Y8178463D01*
X9041508Y8180249D01*
X9041561Y8182077D01*
X9061677Y8161961D01*
D02*
G37*
G36*
X16298323Y8146413D02*
X16301224Y8144000D01*
X16302597Y8143051D01*
X16303922Y8142273D01*
X16305196Y8141668D01*
X16306418Y8141234D01*
X16307591Y8140972D01*
X16308714Y8140882D01*
X16309785Y8140964D01*
X16292937Y8124114D01*
X16293018Y8125186D01*
X16292928Y8126309D01*
X16292667Y8127482D01*
X16292232Y8128705D01*
X16291628Y8129978D01*
X16290849Y8131303D01*
X16289900Y8132677D01*
X16288779Y8134101D01*
X16287486Y8135577D01*
X16286021Y8137102D01*
X16296799Y8147878D01*
X16298323Y8146413D01*
D02*
G37*
G36*
X11680372Y8107969D02*
X11680570Y8106184D01*
X11680911Y8104442D01*
X11681396Y8102742D01*
X11682025Y8101086D01*
X11682798Y8099472D01*
X11683715Y8097902D01*
X11684776Y8096374D01*
X11685980Y8094889D01*
X11687329Y8093447D01*
X11676553Y8082671D01*
X11675111Y8084020D01*
X11673626Y8085224D01*
X11672098Y8086285D01*
X11670528Y8087202D01*
X11668914Y8087975D01*
X11667258Y8088604D01*
X11665558Y8089089D01*
X11663816Y8089430D01*
X11662031Y8089628D01*
X11660203Y8089681D01*
X11680319Y8109797D01*
X11680372Y8107969D01*
D02*
G37*
G36*
X11739797Y8089681D02*
X11737969Y8089628D01*
X11736184Y8089430D01*
X11734442Y8089089D01*
X11732742Y8088604D01*
X11731086Y8087975D01*
X11729473Y8087202D01*
X11727902Y8086285D01*
X11726374Y8085224D01*
X11724889Y8084020D01*
X11723447Y8082671D01*
X11712671Y8093447D01*
X11714020Y8094889D01*
X11715224Y8096374D01*
X11716285Y8097902D01*
X11717202Y8099472D01*
X11717975Y8101086D01*
X11718604Y8102742D01*
X11719089Y8104442D01*
X11719430Y8106184D01*
X11719628Y8107969D01*
X11719681Y8109797D01*
X11739797Y8089681D01*
D02*
G37*
G36*
X16210371Y5242969D02*
X16210570Y5241184D01*
X16210912Y5239442D01*
X16211395Y5237742D01*
X16212025Y5236086D01*
X16212798Y5234472D01*
X16213715Y5232902D01*
X16214777Y5231374D01*
X16215981Y5229889D01*
X16217329Y5228447D01*
X16206554Y5217671D01*
X16205112Y5219020D01*
X16203625Y5220224D01*
X16202098Y5221285D01*
X16200528Y5222202D01*
X16198914Y5222975D01*
X16197258Y5223604D01*
X16195558Y5224089D01*
X16193816Y5224430D01*
X16192030Y5224628D01*
X16190202Y5224681D01*
X16210320Y5244797D01*
X16210371Y5242969D01*
D02*
G37*
G36*
X16266847Y5224926D02*
X16265759Y5225007D01*
X16264626Y5224916D01*
X16263440Y5224652D01*
X16262206Y5224217D01*
X16260922Y5223610D01*
X16259590Y5222830D01*
X16258208Y5221879D01*
X16256776Y5220755D01*
X16255296Y5219459D01*
X16253767Y5217992D01*
X16242992Y5228768D01*
X16244460Y5230297D01*
X16246880Y5233208D01*
X16247830Y5234589D01*
X16248610Y5235922D01*
X16249217Y5237205D01*
X16249654Y5238439D01*
X16249916Y5239625D01*
X16250008Y5240760D01*
X16249927Y5241847D01*
X16266847Y5224926D01*
D02*
G37*
G36*
X15239796Y5059681D02*
X15237968Y5059628D01*
X15236185Y5059430D01*
X15234442Y5059089D01*
X15232742Y5058604D01*
X15231087Y5057975D01*
X15229472Y5057202D01*
X15227902Y5056285D01*
X15226373Y5055224D01*
X15224889Y5054020D01*
X15223447Y5052671D01*
X15212671Y5063447D01*
X15214020Y5064889D01*
X15215224Y5066374D01*
X15216286Y5067902D01*
X15217203Y5069472D01*
X15217975Y5071086D01*
X15218604Y5072742D01*
X15219089Y5074442D01*
X15219431Y5076184D01*
X15219627Y5077969D01*
X15219681Y5079797D01*
X15239796Y5059681D01*
D02*
G37*
G36*
X4843214Y5046163D02*
X4843106Y5045715D01*
X4843011Y5045052D01*
X4842859Y5043078D01*
X4842706Y5036544D01*
X4842700Y5034371D01*
X4817300D01*
X4816665Y5046396D01*
X4843335D01*
X4843214Y5046163D01*
D02*
G37*
G36*
X4408761Y5020720D02*
X4385066Y5002733D01*
X4380080Y5035930D01*
X4381005Y5035341D01*
X4382050Y5035032D01*
X4383216Y5035002D01*
X4384502Y5035252D01*
X4385908Y5035781D01*
X4387434Y5036589D01*
X4389080Y5037678D01*
X4390846Y5039045D01*
X4392732Y5040692D01*
X4394739Y5042619D01*
X4408761Y5020720D01*
D02*
G37*
G36*
X12829797Y5689681D02*
X12827969Y5689628D01*
X12826184Y5689430D01*
X12824442Y5689089D01*
X12822742Y5688604D01*
X12821086Y5687975D01*
X12819472Y5687202D01*
X12817902Y5686285D01*
X12816374Y5685224D01*
X12814890Y5684020D01*
X12813448Y5682671D01*
X12802670Y5693447D01*
X12804021Y5694889D01*
X12805225Y5696374D01*
X12806285Y5697902D01*
X12807202Y5699472D01*
X12807974Y5701086D01*
X12808604Y5702742D01*
X12809090Y5704442D01*
X12809430Y5706184D01*
X12809628Y5707969D01*
X12809682Y5709797D01*
X12829797Y5689681D01*
D02*
G37*
G36*
X4716615Y6272164D02*
X4689945D01*
X4690066Y6272397D01*
X4690173Y6272845D01*
X4690269Y6273508D01*
X4690421Y6275482D01*
X4690574Y6282016D01*
X4690580Y6284189D01*
X4715980D01*
X4716615Y6272164D01*
D02*
G37*
G36*
X7156381Y5636654D02*
X7156149Y5636774D01*
X7155701Y5636882D01*
X7155038Y5636978D01*
X7153064Y5637130D01*
X7146529Y5637282D01*
X7144357Y5637289D01*
Y5662689D01*
X7156381Y5663324D01*
Y5636654D01*
D02*
G37*
G36*
X7792755Y5594985D02*
X7792523Y5595106D01*
X7792075Y5595214D01*
X7791412Y5595309D01*
X7789438Y5595461D01*
X7782903Y5595614D01*
X7780731Y5595620D01*
Y5621020D01*
X7792755Y5621655D01*
Y5594985D01*
D02*
G37*
G36*
X12814890Y5655980D02*
X12816374Y5654776D01*
X12817902Y5653715D01*
X12819472Y5652798D01*
X12821086Y5652025D01*
X12822742Y5651396D01*
X12824442Y5650911D01*
X12826184Y5650570D01*
X12827969Y5650372D01*
X12829797Y5650319D01*
X12809682Y5630203D01*
X12809628Y5632031D01*
X12809430Y5633816D01*
X12809090Y5635558D01*
X12808604Y5637258D01*
X12807974Y5638914D01*
X12807202Y5640527D01*
X12806285Y5642098D01*
X12805225Y5643626D01*
X12804021Y5645111D01*
X12802670Y5646553D01*
X12813448Y5657329D01*
X12814890Y5655980D01*
D02*
G37*
G36*
X14617006Y4677659D02*
X14615939Y4677741D01*
X14614819Y4677652D01*
X14613651Y4677390D01*
X14612431Y4676957D01*
X14611160Y4676352D01*
X14609840Y4675576D01*
X14608469Y4674627D01*
X14607045Y4673507D01*
X14605573Y4672215D01*
X14604048Y4670752D01*
X14593272Y4681528D01*
X14594736Y4683052D01*
X14597147Y4685948D01*
X14598096Y4687320D01*
X14598872Y4688641D01*
X14599477Y4689912D01*
X14599910Y4691132D01*
X14600171Y4692300D01*
X14600261Y4693419D01*
X14600179Y4694486D01*
X14617006Y4677659D01*
D02*
G37*
G36*
X13523109Y4765597D02*
X13524603Y4764374D01*
X13526131Y4763300D01*
X13527687Y4762375D01*
X13529276Y4761599D01*
X13530898Y4760972D01*
X13532552Y4760494D01*
X13534235Y4760165D01*
X13535953Y4759985D01*
X13537700Y4759954D01*
X13517886Y4740140D01*
X13517854Y4741888D01*
X13517674Y4743605D01*
X13517346Y4745289D01*
X13516869Y4746942D01*
X13516241Y4748564D01*
X13515465Y4750153D01*
X13514540Y4751710D01*
X13513466Y4753236D01*
X13512244Y4754730D01*
X13510870Y4756193D01*
X13521648Y4766969D01*
X13523109Y4765597D01*
D02*
G37*
G36*
X14605150Y4643677D02*
X14606644Y4642454D01*
X14608170Y4641380D01*
X14609727Y4640455D01*
X14611316Y4639679D01*
X14612938Y4639052D01*
X14614590Y4638574D01*
X14616275Y4638245D01*
X14617992Y4638065D01*
X14619740Y4638034D01*
X14599927Y4618220D01*
X14599895Y4619968D01*
X14599715Y4621685D01*
X14599387Y4623369D01*
X14598907Y4625022D01*
X14598280Y4626644D01*
X14597505Y4628233D01*
X14596581Y4629790D01*
X14595506Y4631316D01*
X14594283Y4632810D01*
X14592911Y4634273D01*
X14603687Y4645049D01*
X14605150Y4643677D01*
D02*
G37*
G36*
X14944888Y4435980D02*
X14946375Y4434776D01*
X14947902Y4433715D01*
X14949474Y4432798D01*
X14951086Y4432025D01*
X14952742Y4431396D01*
X14954442Y4430911D01*
X14956184Y4430569D01*
X14957970Y4430372D01*
X14959798Y4430319D01*
X14939680Y4410203D01*
X14939629Y4412031D01*
X14939430Y4413816D01*
X14939088Y4415558D01*
X14938605Y4417258D01*
X14937975Y4418914D01*
X14937202Y4420527D01*
X14936285Y4422098D01*
X14935223Y4423626D01*
X14934019Y4425111D01*
X14932671Y4426552D01*
X14943446Y4437329D01*
X14944888Y4435980D01*
D02*
G37*
G36*
X14959798Y4469681D02*
X14957970Y4469628D01*
X14956184Y4469430D01*
X14954442Y4469089D01*
X14952742Y4468604D01*
X14951086Y4467975D01*
X14949474Y4467202D01*
X14947902Y4466285D01*
X14946375Y4465224D01*
X14944888Y4464020D01*
X14943446Y4462671D01*
X14932671Y4473447D01*
X14934019Y4474889D01*
X14935223Y4476374D01*
X14936285Y4477902D01*
X14937202Y4479472D01*
X14937975Y4481086D01*
X14938605Y4482742D01*
X14939088Y4484442D01*
X14939430Y4486184D01*
X14939629Y4487969D01*
X14939680Y4489797D01*
X14959798Y4469681D01*
D02*
G37*
G36*
X13992657Y4878061D02*
X13990829Y4878008D01*
X13989044Y4877810D01*
X13987302Y4877469D01*
X13985602Y4876984D01*
X13983946Y4876355D01*
X13982332Y4875582D01*
X13980762Y4874665D01*
X13979234Y4873604D01*
X13977750Y4872400D01*
X13976308Y4871051D01*
X13965530Y4881827D01*
X13966879Y4883269D01*
X13968085Y4884754D01*
X13969145Y4886282D01*
X13970062Y4887853D01*
X13970834Y4889466D01*
X13971465Y4891122D01*
X13971948Y4892822D01*
X13972290Y4894564D01*
X13972488Y4896349D01*
X13972540Y4898177D01*
X13992657Y4878061D01*
D02*
G37*
G36*
X15224889Y5025980D02*
X15226373Y5024776D01*
X15227902Y5023715D01*
X15229472Y5022798D01*
X15231087Y5022025D01*
X15232742Y5021396D01*
X15234442Y5020911D01*
X15236185Y5020570D01*
X15237968Y5020372D01*
X15239796Y5020319D01*
X15219681Y5000203D01*
X15219627Y5002031D01*
X15219431Y5003816D01*
X15219089Y5005558D01*
X15218604Y5007258D01*
X15217975Y5008914D01*
X15217203Y5010527D01*
X15216286Y5012098D01*
X15215224Y5013626D01*
X15214020Y5015111D01*
X15212671Y5016553D01*
X15223447Y5027329D01*
X15224889Y5025980D01*
D02*
G37*
G36*
X6360995Y4827905D02*
X6360763Y4828026D01*
X6360315Y4828134D01*
X6359652Y4828229D01*
X6357678Y4828381D01*
X6351144Y4828534D01*
X6348971Y4828540D01*
Y4853940D01*
X6360995Y4854575D01*
Y4827905D01*
D02*
G37*
G36*
X13537997Y4799321D02*
X13536169Y4799268D01*
X13534384Y4799070D01*
X13532642Y4798729D01*
X13530942Y4798244D01*
X13529286Y4797615D01*
X13527672Y4796842D01*
X13526102Y4795925D01*
X13524574Y4794864D01*
X13523090Y4793660D01*
X13521648Y4792311D01*
X13510870Y4803087D01*
X13512219Y4804529D01*
X13513425Y4806014D01*
X13514485Y4807542D01*
X13515402Y4809113D01*
X13516174Y4810726D01*
X13516805Y4812382D01*
X13517290Y4814082D01*
X13517630Y4815824D01*
X13517828Y4817609D01*
X13517880Y4819437D01*
X13537997Y4799321D01*
D02*
G37*
G36*
X13977769Y4844337D02*
X13979263Y4843114D01*
X13980791Y4842040D01*
X13982347Y4841115D01*
X13983936Y4840339D01*
X13985558Y4839712D01*
X13987212Y4839234D01*
X13988895Y4838905D01*
X13990611Y4838725D01*
X13992360Y4838694D01*
X13972546Y4818880D01*
X13972514Y4820628D01*
X13972334Y4822345D01*
X13972006Y4824029D01*
X13971529Y4825682D01*
X13970901Y4827304D01*
X13970125Y4828893D01*
X13969200Y4830450D01*
X13968126Y4831976D01*
X13966904Y4833470D01*
X13965530Y4834933D01*
X13976308Y4845709D01*
X13977769Y4844337D01*
D02*
G37*
G36*
X6819732Y6294589D02*
X6818951Y6294490D01*
X6818030Y6294179D01*
X6816968Y6293656D01*
X6815767Y6292922D01*
X6814426Y6291976D01*
X6811323Y6289448D01*
X6807659Y6286072D01*
X6805618Y6284066D01*
X6784065Y6305619D01*
X6786071Y6307660D01*
X6791975Y6314427D01*
X6792921Y6315768D01*
X6793655Y6316969D01*
X6794178Y6318031D01*
X6794489Y6318952D01*
X6794588Y6319733D01*
X6819732Y6294589D01*
D02*
G37*
G36*
X9160169Y7182375D02*
X9159974Y7182013D01*
X9159802Y7181483D01*
X9159653Y7180785D01*
X9159527Y7179919D01*
X9159343Y7177682D01*
X9159240Y7173066D01*
X9144000D01*
X9143989Y7174773D01*
X9143587Y7180785D01*
X9143438Y7181483D01*
X9143266Y7182013D01*
X9143071Y7182375D01*
X9142853Y7182568D01*
X9160387D01*
X9160169Y7182375D01*
D02*
G37*
G36*
X9462330Y7193313D02*
X9461208Y7191911D01*
X9460217Y7190438D01*
X9459359Y7188893D01*
X9458632Y7187277D01*
X9458038Y7185590D01*
X9457575Y7183831D01*
X9457245Y7182001D01*
X9457047Y7180099D01*
X9456981Y7178126D01*
X9441741D01*
X9441675Y7180099D01*
X9441477Y7182001D01*
X9441147Y7183831D01*
X9440684Y7185590D01*
X9440090Y7187277D01*
X9439364Y7188893D01*
X9438505Y7190438D01*
X9437515Y7191911D01*
X9436392Y7193313D01*
X9435137Y7194643D01*
X9463585D01*
X9462330Y7193313D01*
D02*
G37*
G36*
X9457134Y7098794D02*
X9456707Y7097379D01*
X9456508Y7095953D01*
X9456537Y7094516D01*
X9456794Y7093068D01*
X9457278Y7091608D01*
X9457991Y7090138D01*
X9458931Y7088656D01*
X9460099Y7087163D01*
X9461495Y7085659D01*
X9444036Y7081564D01*
X9442549Y7083024D01*
X9437043Y7087867D01*
X9435778Y7088829D01*
X9433379Y7090454D01*
X9432247Y7091117D01*
X9431158Y7091681D01*
X9457788Y7100198D01*
X9457134Y7098794D01*
D02*
G37*
G36*
X14228877Y6938001D02*
X14227049Y6937948D01*
X14225264Y6937750D01*
X14223521Y6937409D01*
X14221822Y6936924D01*
X14220166Y6936295D01*
X14218552Y6935522D01*
X14216982Y6934605D01*
X14215454Y6933544D01*
X14213969Y6932340D01*
X14212527Y6930991D01*
X14201752Y6941767D01*
X14203101Y6943209D01*
X14204305Y6944694D01*
X14205365Y6946222D01*
X14206282Y6947793D01*
X14207056Y6949406D01*
X14207684Y6951062D01*
X14208170Y6952762D01*
X14208510Y6954504D01*
X14208708Y6956289D01*
X14208762Y6958117D01*
X14228877Y6938001D01*
D02*
G37*
G36*
X9155189Y7088440D02*
X9154973Y7088064D01*
X9154782Y7087518D01*
X9154617Y7086804D01*
X9154478Y7085922D01*
X9154274Y7083651D01*
X9154173Y7080706D01*
X9154160Y7078980D01*
X9138920D01*
X9138907Y7080706D01*
X9138463Y7086804D01*
X9138298Y7087518D01*
X9138107Y7088064D01*
X9137891Y7088440D01*
X9137650Y7088648D01*
X9155430D01*
X9155189Y7088440D01*
D02*
G37*
G36*
X9175904Y7302927D02*
X9175349Y7301851D01*
X9175043Y7300718D01*
X9174986Y7299527D01*
X9175178Y7298280D01*
X9175619Y7296976D01*
X9176309Y7295614D01*
X9177247Y7294196D01*
X9178435Y7292720D01*
X9179871Y7291188D01*
X9165977Y7283529D01*
X9150304Y7301140D01*
X9176708Y7303947D01*
X9175904Y7302927D01*
D02*
G37*
G36*
X9347369Y7303616D02*
X9346038Y7304871D01*
X9344637Y7305994D01*
X9343163Y7306984D01*
X9341619Y7307843D01*
X9340003Y7308569D01*
X9338315Y7309163D01*
X9336556Y7309626D01*
X9334726Y7309956D01*
X9332824Y7310154D01*
X9330851Y7310220D01*
Y7325460D01*
X9332824Y7325526D01*
X9334726Y7325724D01*
X9336556Y7326054D01*
X9338315Y7326517D01*
X9340003Y7327111D01*
X9341619Y7327838D01*
X9343163Y7328696D01*
X9344637Y7329687D01*
X9346038Y7330809D01*
X9347369Y7332064D01*
Y7303616D01*
D02*
G37*
G36*
X9757486Y7302791D02*
X9757293Y7301146D01*
X9757296Y7299522D01*
X9757494Y7297919D01*
X9757888Y7296336D01*
X9758477Y7294774D01*
X9759262Y7293233D01*
X9760242Y7291712D01*
X9761418Y7290212D01*
X9762790Y7288732D01*
X9748716Y7281253D01*
X9747319Y7282587D01*
X9744413Y7284982D01*
X9742905Y7286042D01*
X9741361Y7287012D01*
X9739779Y7287891D01*
X9738161Y7288679D01*
X9736507Y7289376D01*
X9734815Y7289981D01*
X9733087Y7290496D01*
X9757875Y7304456D01*
X9757486Y7302791D01*
D02*
G37*
G36*
X9747686Y7249056D02*
X9747884Y7247154D01*
X9748214Y7245324D01*
X9748677Y7243565D01*
X9749271Y7241878D01*
X9749998Y7240261D01*
X9750856Y7238717D01*
X9751847Y7237244D01*
X9752969Y7235842D01*
X9754224Y7234511D01*
X9725776D01*
X9727031Y7235842D01*
X9728154Y7237244D01*
X9729144Y7238717D01*
X9730003Y7240261D01*
X9730729Y7241878D01*
X9731323Y7243565D01*
X9731786Y7245324D01*
X9732116Y7247154D01*
X9732314Y7249056D01*
X9732380Y7251029D01*
X9747620D01*
X9747686Y7249056D01*
D02*
G37*
G36*
X9274698Y7295747D02*
X9274154Y7294601D01*
X9273857Y7293407D01*
X9273806Y7292166D01*
X9274002Y7290877D01*
X9274443Y7289540D01*
X9275131Y7288157D01*
X9276066Y7286725D01*
X9277247Y7285246D01*
X9278674Y7283720D01*
X9265085Y7275756D01*
X9248941Y7292953D01*
X9275488Y7296846D01*
X9274698Y7295747D01*
D02*
G37*
G36*
X4715980Y6547010D02*
X4690580Y6540863D01*
X4690526Y6543652D01*
X4690096Y6548365D01*
X4689720Y6550288D01*
X4689236Y6551922D01*
X4688644Y6553268D01*
X4687945Y6554325D01*
X4687139Y6555093D01*
X4686225Y6555573D01*
X4685203Y6555764D01*
X4711262Y6576443D01*
X4715980Y6547010D01*
D02*
G37*
G36*
Y6615270D02*
X4711262Y6585837D01*
X4685203Y6606516D01*
X4686225Y6606707D01*
X4687139Y6607187D01*
X4687945Y6607955D01*
X4688644Y6609012D01*
X4689236Y6610358D01*
X4689720Y6611992D01*
X4690096Y6613915D01*
X4690365Y6616127D01*
X4690526Y6618628D01*
X4690580Y6621417D01*
X4715980Y6615270D01*
D02*
G37*
G36*
X11658475Y6402314D02*
X11658382Y6402271D01*
X11658176Y6402111D01*
X11657859Y6401833D01*
X11652508Y6396612D01*
X11641732Y6407388D01*
X11647434Y6413355D01*
X11658475Y6402314D01*
D02*
G37*
G36*
X6357515Y6336665D02*
X6357283Y6336786D01*
X6356835Y6336894D01*
X6356172Y6336989D01*
X6354198Y6337141D01*
X6347663Y6337294D01*
X6345491Y6337300D01*
Y6362700D01*
X6357515Y6363335D01*
Y6336665D01*
D02*
G37*
G36*
X11658475Y6359886D02*
X11647434Y6348845D01*
X11647391Y6348939D01*
X11647230Y6349144D01*
X11646953Y6349461D01*
X11641732Y6354812D01*
X11652508Y6365588D01*
X11658475Y6359886D01*
D02*
G37*
G36*
X7625137Y6839274D02*
X7625309Y6837460D01*
X7625594Y6835727D01*
X7625994Y6834076D01*
X7626509Y6832507D01*
X7627137Y6831019D01*
X7627880Y6829613D01*
X7628738Y6828288D01*
X7629709Y6827046D01*
X7630795Y6825884D01*
X7604125D01*
X7605211Y6827046D01*
X7606182Y6828288D01*
X7607040Y6829613D01*
X7607783Y6831019D01*
X7608411Y6832507D01*
X7608926Y6834076D01*
X7609326Y6835727D01*
X7609611Y6837460D01*
X7609783Y6839274D01*
X7609840Y6841170D01*
X7625080D01*
X7625137Y6839274D01*
D02*
G37*
G36*
X14213969Y6904300D02*
X14215454Y6903096D01*
X14216982Y6902035D01*
X14218552Y6901118D01*
X14220166Y6900345D01*
X14221822Y6899716D01*
X14223521Y6899231D01*
X14225264Y6898890D01*
X14227049Y6898692D01*
X14228877Y6898639D01*
X14208762Y6878523D01*
X14208708Y6880351D01*
X14208510Y6882136D01*
X14208170Y6883878D01*
X14207684Y6885578D01*
X14207056Y6887234D01*
X14206282Y6888848D01*
X14205365Y6890418D01*
X14204305Y6891946D01*
X14203101Y6893431D01*
X14201752Y6894873D01*
X14212527Y6905649D01*
X14213969Y6904300D01*
D02*
G37*
G36*
X16205460Y6788857D02*
X16205547Y6788240D01*
X16205788Y6787534D01*
X16206178Y6786738D01*
X16206721Y6785853D01*
X16207414Y6784879D01*
X16208261Y6783815D01*
X16210408Y6781420D01*
X16211708Y6780088D01*
X16200932Y6769312D01*
X16199600Y6770612D01*
X16196141Y6773605D01*
X16195168Y6774299D01*
X16194283Y6774842D01*
X16193486Y6775233D01*
X16192780Y6775473D01*
X16192163Y6775561D01*
X16191637Y6775497D01*
X16205524Y6789384D01*
X16205460Y6788857D01*
D02*
G37*
G36*
X4728953Y6703152D02*
X4725637Y6699813D01*
X4711540Y6683926D01*
X4715980Y6656230D01*
X4690580Y6650083D01*
X4690526Y6652872D01*
X4690096Y6657585D01*
X4689720Y6659508D01*
X4689236Y6661142D01*
X4688644Y6662488D01*
X4687945Y6663545D01*
X4687139Y6664313D01*
X4686225Y6664793D01*
X4685203Y6664984D01*
X4709391Y6684179D01*
X4694954Y6714240D01*
X4696333Y6713878D01*
X4697779Y6713765D01*
X4699291Y6713903D01*
X4700870Y6714291D01*
X4702517Y6714929D01*
X4704229Y6715817D01*
X4706009Y6716955D01*
X4707856Y6718343D01*
X4709769Y6719981D01*
X4711749Y6721870D01*
X4728953Y6703152D01*
D02*
G37*
G36*
X16196371Y6746591D02*
X16199677Y6745388D01*
X16201385Y6744903D01*
X16204910Y6744164D01*
X16206729Y6743911D01*
X16210474Y6743636D01*
X16212401Y6743615D01*
X16218501Y6728429D01*
X16216475Y6728334D01*
X16214587Y6728085D01*
X16212840Y6727683D01*
X16211232Y6727127D01*
X16209763Y6726419D01*
X16208432Y6725557D01*
X16207240Y6724542D01*
X16206187Y6723373D01*
X16205275Y6722051D01*
X16204500Y6720576D01*
X16194772Y6747309D01*
X16196371Y6746591D01*
D02*
G37*
G36*
X6339920Y10939578D02*
X6340155Y10937172D01*
X6340564Y10934848D01*
X6341146Y10932606D01*
X6341902Y10930445D01*
X6342831Y10928366D01*
X6343934Y10926369D01*
X6345211Y10924454D01*
X6346661Y10922621D01*
X6348285Y10920870D01*
X6335910Y10908495D01*
X6334159Y10910119D01*
X6332326Y10911569D01*
X6330411Y10912846D01*
X6328414Y10913949D01*
X6326335Y10914878D01*
X6324175Y10915634D01*
X6321932Y10916216D01*
X6319608Y10916625D01*
X6317202Y10916860D01*
X6314714Y10916921D01*
X6339859Y10942066D01*
X6339920Y10939578D01*
D02*
G37*
G36*
X9148670Y11154183D02*
X9153252Y11150200D01*
X9153863Y11149812D01*
X9154371Y11149560D01*
X9154778Y11149444D01*
X9155083Y11149465D01*
X9142595Y11136977D01*
X9142616Y11137282D01*
X9142500Y11137689D01*
X9142248Y11138197D01*
X9141860Y11138808D01*
X9141336Y11139520D01*
X9139879Y11141251D01*
X9137877Y11143390D01*
X9136672Y11144612D01*
X9147448Y11155388D01*
X9148670Y11154183D01*
D02*
G37*
G36*
X6099920Y10939578D02*
X6100155Y10937172D01*
X6100564Y10934848D01*
X6101146Y10932606D01*
X6101902Y10930445D01*
X6102831Y10928366D01*
X6103934Y10926369D01*
X6105211Y10924454D01*
X6106661Y10922621D01*
X6108285Y10920870D01*
X6095910Y10908495D01*
X6094159Y10910119D01*
X6092326Y10911569D01*
X6090411Y10912846D01*
X6088414Y10913949D01*
X6086335Y10914878D01*
X6084175Y10915634D01*
X6081932Y10916216D01*
X6079608Y10916625D01*
X6077202Y10916860D01*
X6074714Y10916921D01*
X6099859Y10942066D01*
X6099920Y10939578D01*
D02*
G37*
G36*
X7766080Y10934498D02*
X7766315Y10932092D01*
X7766724Y10929768D01*
X7767306Y10927526D01*
X7768062Y10925365D01*
X7768991Y10923286D01*
X7770094Y10921289D01*
X7771371Y10919374D01*
X7772821Y10917541D01*
X7774445Y10915790D01*
X7762070Y10903415D01*
X7760319Y10905039D01*
X7758486Y10906489D01*
X7756571Y10907766D01*
X7754574Y10908869D01*
X7752495Y10909798D01*
X7750335Y10910554D01*
X7748092Y10911136D01*
X7745768Y10911545D01*
X7743362Y10911780D01*
X7740874Y10911841D01*
X7766019Y10936986D01*
X7766080Y10934498D01*
D02*
G37*
G36*
X7526072Y10934203D02*
X7526289Y10931543D01*
X7526670Y10929007D01*
X7527214Y10926595D01*
X7527922Y10924306D01*
X7528794Y10922141D01*
X7529829Y10920100D01*
X7531029Y10918182D01*
X7532391Y10916389D01*
X7533918Y10914719D01*
X7523141Y10903942D01*
X7521471Y10905469D01*
X7519678Y10906831D01*
X7517760Y10908031D01*
X7515719Y10909066D01*
X7513554Y10909938D01*
X7511265Y10910646D01*
X7508853Y10911190D01*
X7506317Y10911571D01*
X7503657Y10911788D01*
X7500874Y10911841D01*
X7526019Y10936986D01*
X7526072Y10934203D01*
D02*
G37*
G36*
X7693918Y11243500D02*
X7692391Y11241830D01*
X7691029Y11240036D01*
X7689829Y11238118D01*
X7688794Y11236077D01*
X7687922Y11233912D01*
X7687214Y11231624D01*
X7686670Y11229211D01*
X7686289Y11226675D01*
X7686072Y11224016D01*
X7686019Y11221232D01*
X7660874Y11246377D01*
X7663657Y11246430D01*
X7666317Y11246648D01*
X7668853Y11247028D01*
X7671265Y11247573D01*
X7673554Y11248281D01*
X7675719Y11249153D01*
X7677760Y11250188D01*
X7679678Y11251387D01*
X7681471Y11252750D01*
X7683141Y11254276D01*
X7693918Y11243500D01*
D02*
G37*
G36*
X7853618D02*
X7852091Y11241830D01*
X7850729Y11240036D01*
X7849529Y11238118D01*
X7848494Y11236077D01*
X7847622Y11233912D01*
X7846914Y11231624D01*
X7846370Y11229211D01*
X7845989Y11226675D01*
X7845772Y11224016D01*
X7845719Y11221232D01*
X7820574Y11246377D01*
X7823357Y11246430D01*
X7826017Y11246648D01*
X7828553Y11247028D01*
X7830965Y11247573D01*
X7833254Y11248281D01*
X7835419Y11249153D01*
X7837460Y11250188D01*
X7839378Y11251387D01*
X7841171Y11252750D01*
X7842841Y11254276D01*
X7853618Y11243500D01*
D02*
G37*
G36*
X7613918D02*
X7612391Y11241830D01*
X7611029Y11240036D01*
X7609830Y11238118D01*
X7608794Y11236077D01*
X7607923Y11233912D01*
X7607214Y11231624D01*
X7606670Y11229211D01*
X7606289Y11226675D01*
X7606072Y11224016D01*
X7606019Y11221232D01*
X7580874Y11246377D01*
X7583657Y11246430D01*
X7586317Y11246648D01*
X7588853Y11247028D01*
X7591265Y11247573D01*
X7593554Y11248281D01*
X7595719Y11249153D01*
X7597760Y11250188D01*
X7599678Y11251387D01*
X7601471Y11252750D01*
X7603142Y11254276D01*
X7613918Y11243500D01*
D02*
G37*
G36*
X9147269Y11178032D02*
X9146143Y11179072D01*
X9144911Y11180003D01*
X9143573Y11180824D01*
X9142130Y11181535D01*
X9140581Y11182137D01*
X9138926Y11182630D01*
X9137165Y11183013D01*
X9135299Y11183287D01*
X9133326Y11183451D01*
X9131248Y11183506D01*
Y11201006D01*
X9133326Y11201061D01*
X9135299Y11201225D01*
X9137165Y11201499D01*
X9138926Y11201882D01*
X9140581Y11202375D01*
X9142130Y11202977D01*
X9143573Y11203688D01*
X9144911Y11204509D01*
X9146143Y11205440D01*
X9147269Y11206480D01*
Y11178032D01*
D02*
G37*
G36*
X7373918Y11243500D02*
X7372391Y11241830D01*
X7371029Y11240036D01*
X7369830Y11238118D01*
X7368794Y11236077D01*
X7367923Y11233912D01*
X7367214Y11231624D01*
X7366670Y11229211D01*
X7366289Y11226675D01*
X7366072Y11224016D01*
X7366019Y11221232D01*
X7340874Y11246377D01*
X7343657Y11246430D01*
X7346317Y11246648D01*
X7348853Y11247028D01*
X7351265Y11247573D01*
X7353554Y11248281D01*
X7355719Y11249153D01*
X7357760Y11250188D01*
X7359678Y11251387D01*
X7361471Y11252750D01*
X7363141Y11254276D01*
X7373918Y11243500D01*
D02*
G37*
G36*
X7703209Y9770153D02*
X7701860Y9768711D01*
X7700656Y9767226D01*
X7699595Y9765698D01*
X7698678Y9764128D01*
X7697905Y9762514D01*
X7697276Y9760858D01*
X7696791Y9759158D01*
X7696450Y9757416D01*
X7696252Y9755631D01*
X7696199Y9753803D01*
X7676083Y9773919D01*
X7677911Y9773972D01*
X7679696Y9774170D01*
X7681438Y9774511D01*
X7683138Y9774996D01*
X7684794Y9775625D01*
X7686408Y9776398D01*
X7687978Y9777315D01*
X7689506Y9778376D01*
X7690991Y9779580D01*
X7692433Y9780929D01*
X7703209Y9770153D01*
D02*
G37*
G36*
X16552322Y9797413D02*
X16555223Y9795000D01*
X16556596Y9794051D01*
X16557921Y9793273D01*
X16559195Y9792668D01*
X16560419Y9792234D01*
X16561591Y9791972D01*
X16562714Y9791882D01*
X16563786Y9791964D01*
X16546936Y9775114D01*
X16547017Y9776186D01*
X16546928Y9777309D01*
X16546666Y9778482D01*
X16546233Y9779705D01*
X16545627Y9780978D01*
X16544849Y9782303D01*
X16543900Y9783677D01*
X16542780Y9785101D01*
X16541486Y9786577D01*
X16540022Y9788102D01*
X16550798Y9798878D01*
X16552322Y9797413D01*
D02*
G37*
G36*
X8144889Y9775980D02*
X8146374Y9774776D01*
X8147902Y9773715D01*
X8149472Y9772798D01*
X8151086Y9772025D01*
X8152742Y9771396D01*
X8154442Y9770911D01*
X8156184Y9770570D01*
X8157969Y9770372D01*
X8159797Y9770319D01*
X8139681Y9750203D01*
X8139628Y9752031D01*
X8139430Y9753816D01*
X8139089Y9755558D01*
X8138604Y9757258D01*
X8137975Y9758914D01*
X8137202Y9760528D01*
X8136285Y9762098D01*
X8135224Y9763626D01*
X8134020Y9765111D01*
X8132671Y9766553D01*
X8143447Y9777329D01*
X8144889Y9775980D01*
D02*
G37*
G36*
X6047412Y9579169D02*
X6047503Y9578035D01*
X6047766Y9576852D01*
X6048201Y9575620D01*
X6048808Y9574338D01*
X6049587Y9573007D01*
X6050538Y9571626D01*
X6051661Y9570196D01*
X6052957Y9568717D01*
X6054424Y9567188D01*
X6043648Y9556412D01*
X6042119Y9557879D01*
X6039210Y9560298D01*
X6037829Y9561249D01*
X6036498Y9562028D01*
X6035216Y9562635D01*
X6033984Y9563070D01*
X6032800Y9563333D01*
X6031667Y9563424D01*
X6030582Y9563344D01*
X6047492Y9580254D01*
X6047412Y9579169D01*
D02*
G37*
G36*
X8018126Y9563333D02*
X8017049Y9563414D01*
X8015922Y9563324D01*
X8014745Y9563062D01*
X8013518Y9562627D01*
X8012242Y9562021D01*
X8010915Y9561243D01*
X8009538Y9560293D01*
X8008111Y9559171D01*
X8006635Y9557878D01*
X8005108Y9556412D01*
X7994332Y9567188D01*
X7995798Y9568715D01*
X7998213Y9571618D01*
X7999163Y9572995D01*
X7999941Y9574322D01*
X8000547Y9575599D01*
X8000981Y9576825D01*
X8001244Y9578002D01*
X8001334Y9579129D01*
X8001252Y9580206D01*
X8018126Y9563333D01*
D02*
G37*
G36*
X9288500Y9860000D02*
X9306896Y9852380D01*
X9303893Y9852272D01*
X9300979Y9851949D01*
X9298154Y9851410D01*
X9295419Y9850656D01*
X9292772Y9849686D01*
X9290215Y9848500D01*
X9287747Y9847100D01*
X9285369Y9845483D01*
X9283080Y9843651D01*
X9280880Y9841604D01*
X9283112Y9865388D01*
X9288500Y9860000D01*
D02*
G37*
G36*
X16551889Y10178880D02*
X16553374Y10177676D01*
X16554903Y10176615D01*
X16556471Y10175698D01*
X16558086Y10174925D01*
X16559743Y10174296D01*
X16561443Y10173811D01*
X16563184Y10173470D01*
X16564969Y10173272D01*
X16566797Y10173219D01*
X16546681Y10153103D01*
X16546628Y10154931D01*
X16546429Y10156716D01*
X16546089Y10158458D01*
X16545604Y10160158D01*
X16544975Y10161814D01*
X16544202Y10163427D01*
X16543285Y10164998D01*
X16542224Y10166526D01*
X16541019Y10168011D01*
X16539671Y10169453D01*
X16550447Y10180229D01*
X16551889Y10178880D01*
D02*
G37*
G36*
X16563786Y9828036D02*
X16562714Y9828118D01*
X16561591Y9828028D01*
X16560419Y9827766D01*
X16559195Y9827332D01*
X16557921Y9826727D01*
X16556596Y9825949D01*
X16555223Y9825000D01*
X16553798Y9823879D01*
X16552322Y9822586D01*
X16550798Y9821122D01*
X16540022Y9831898D01*
X16541486Y9833423D01*
X16543900Y9836323D01*
X16544849Y9837697D01*
X16545627Y9839021D01*
X16546233Y9840295D01*
X16546666Y9841518D01*
X16546928Y9842691D01*
X16547017Y9843814D01*
X16546936Y9844886D01*
X16563786Y9828036D01*
D02*
G37*
G36*
X7696252Y9831569D02*
X7696450Y9829783D01*
X7696791Y9828042D01*
X7697276Y9826342D01*
X7697905Y9824686D01*
X7698678Y9823072D01*
X7699595Y9821502D01*
X7700656Y9819974D01*
X7701860Y9818489D01*
X7703209Y9817047D01*
X7692433Y9806271D01*
X7690991Y9807619D01*
X7689506Y9808824D01*
X7687978Y9809885D01*
X7686408Y9810802D01*
X7684794Y9811574D01*
X7683138Y9812204D01*
X7681438Y9812689D01*
X7679696Y9813030D01*
X7677911Y9813228D01*
X7676083Y9813281D01*
X7696199Y9833397D01*
X7696252Y9831569D01*
D02*
G37*
G36*
X8153599Y9810715D02*
X8153233Y9810749D01*
X8152768Y9810643D01*
X8152205Y9810396D01*
X8151543Y9810008D01*
X8150782Y9809479D01*
X8149923Y9808809D01*
X8147908Y9807047D01*
X8145498Y9804722D01*
X8134722Y9815498D01*
X8135955Y9816752D01*
X8139479Y9820782D01*
X8140008Y9821543D01*
X8140396Y9822205D01*
X8140643Y9822769D01*
X8140749Y9823233D01*
X8140714Y9823599D01*
X8153599Y9810715D01*
D02*
G37*
G36*
X5948285Y11247509D02*
X5946661Y11245757D01*
X5945211Y11243924D01*
X5943935Y11242009D01*
X5942831Y11240012D01*
X5941902Y11237933D01*
X5941146Y11235773D01*
X5940564Y11233530D01*
X5940156Y11231206D01*
X5939920Y11228800D01*
X5939859Y11226312D01*
X5914714Y11251457D01*
X5917202Y11251519D01*
X5919608Y11251754D01*
X5921932Y11252162D01*
X5924175Y11252745D01*
X5926335Y11253500D01*
X5928414Y11254430D01*
X5930411Y11255533D01*
X5932326Y11256809D01*
X5934159Y11258259D01*
X5935910Y11259883D01*
X5948285Y11247509D01*
D02*
G37*
G36*
X15576164Y12510589D02*
X15574336Y12510536D01*
X15572552Y12510338D01*
X15570810Y12509997D01*
X15569110Y12509512D01*
X15567455Y12508883D01*
X15565842Y12508110D01*
X15564270Y12507193D01*
X15562743Y12506132D01*
X15561256Y12504928D01*
X15559814Y12503579D01*
X15549039Y12514355D01*
X15550388Y12515797D01*
X15551591Y12517282D01*
X15552654Y12518810D01*
X15553571Y12520381D01*
X15554343Y12521994D01*
X15554971Y12523650D01*
X15555457Y12525350D01*
X15555798Y12527092D01*
X15555997Y12528877D01*
X15556049Y12530705D01*
X15576164Y12510589D01*
D02*
G37*
G36*
X15354352Y12530329D02*
X15354550Y12528544D01*
X15354890Y12526802D01*
X15355376Y12525102D01*
X15356004Y12523446D01*
X15356778Y12521832D01*
X15357695Y12520262D01*
X15358755Y12518734D01*
X15359959Y12517249D01*
X15361308Y12515807D01*
X15350533Y12505031D01*
X15349091Y12506380D01*
X15347606Y12507584D01*
X15346078Y12508645D01*
X15344508Y12509562D01*
X15342894Y12510335D01*
X15341238Y12510964D01*
X15339539Y12511449D01*
X15337796Y12511790D01*
X15336011Y12511988D01*
X15334183Y12512041D01*
X15354298Y12532157D01*
X15354352Y12530329D01*
D02*
G37*
G36*
X9137109Y12213336D02*
X9135983Y12214376D01*
X9134751Y12215307D01*
X9133413Y12216128D01*
X9131970Y12216839D01*
X9130421Y12217441D01*
X9128766Y12217934D01*
X9127005Y12218317D01*
X9125139Y12218591D01*
X9123166Y12218755D01*
X9121088Y12218810D01*
Y12236310D01*
X9123166Y12236365D01*
X9125139Y12236529D01*
X9127005Y12236803D01*
X9128766Y12237186D01*
X9130421Y12237679D01*
X9131970Y12238281D01*
X9133413Y12238992D01*
X9134751Y12239813D01*
X9135983Y12240744D01*
X9137109Y12241784D01*
Y12213336D01*
D02*
G37*
G36*
X9141580Y12096102D02*
X9140360Y12096734D01*
X9139044Y12097300D01*
X9137631Y12097799D01*
X9136121Y12098232D01*
X9134514Y12098598D01*
X9131010Y12099130D01*
X9129114Y12099297D01*
X9125029Y12099430D01*
X9119356Y12116930D01*
X9121455Y12116995D01*
X9123408Y12117191D01*
X9125215Y12117517D01*
X9126875Y12117974D01*
X9128388Y12118561D01*
X9129755Y12119278D01*
X9130975Y12120126D01*
X9132049Y12121105D01*
X9132976Y12122213D01*
X9133756Y12123453D01*
X9141580Y12096102D01*
D02*
G37*
G36*
X9138216Y12155392D02*
X9137028Y12156341D01*
X9135741Y12157191D01*
X9134356Y12157941D01*
X9132871Y12158591D01*
X9131289Y12159140D01*
X9129608Y12159590D01*
X9127828Y12159940D01*
X9125949Y12160190D01*
X9123972Y12160340D01*
X9121897Y12160390D01*
X9120436Y12177890D01*
X9122519Y12177949D01*
X9124486Y12178125D01*
X9126338Y12178418D01*
X9128075Y12178829D01*
X9129698Y12179357D01*
X9131205Y12180003D01*
X9132597Y12180766D01*
X9133874Y12181646D01*
X9135036Y12182644D01*
X9136083Y12183759D01*
X9138216Y12155392D01*
D02*
G37*
G36*
X15689218Y12534028D02*
X15687811Y12532586D01*
X15684116Y12528361D01*
X15683057Y12526986D01*
X15681200Y12524285D01*
X15680402Y12522959D01*
X15679065Y12520356D01*
X15669640Y12546905D01*
X15671095Y12546290D01*
X15672556Y12545897D01*
X15674022Y12545728D01*
X15675493Y12545781D01*
X15676968Y12546057D01*
X15678448Y12546556D01*
X15679935Y12547278D01*
X15681425Y12548224D01*
X15682921Y12549391D01*
X15684419Y12550783D01*
X15689218Y12534028D01*
D02*
G37*
G36*
X4300673Y12890633D02*
X4304526Y12836340D01*
X4307015Y12821519D01*
X4310107Y12808340D01*
X4313802Y12796799D01*
X4318099Y12786897D01*
X4322999Y12778635D01*
X4328501Y12772012D01*
X4306948Y12750459D01*
X4300325Y12755961D01*
X4292063Y12760861D01*
X4282161Y12765158D01*
X4270620Y12768853D01*
X4257440Y12771945D01*
X4242620Y12774434D01*
X4208064Y12777606D01*
X4188327Y12778287D01*
X4166950Y12778367D01*
X4300593Y12912010D01*
X4300673Y12890633D01*
D02*
G37*
G36*
X15848767Y12554498D02*
X15847417Y12553052D01*
X15846214Y12551564D01*
X15845161Y12550035D01*
X15844260Y12548463D01*
X15843504Y12546850D01*
X15842899Y12545195D01*
X15842442Y12543499D01*
X15842136Y12541760D01*
X15841977Y12539980D01*
X15841966Y12538158D01*
X15821349Y12557758D01*
X15823180Y12557856D01*
X15824968Y12558092D01*
X15826712Y12558467D01*
X15828413Y12558981D01*
X15830069Y12559634D01*
X15831682Y12560426D01*
X15833250Y12561356D01*
X15834776Y12562425D01*
X15836258Y12563633D01*
X15837695Y12564980D01*
X15848767Y12554498D01*
D02*
G37*
G36*
X15415421Y12512404D02*
X15413591Y12512350D01*
X15411806Y12512153D01*
X15410065Y12511812D01*
X15408365Y12511327D01*
X15406709Y12510697D01*
X15405095Y12509924D01*
X15403523Y12509008D01*
X15401997Y12507947D01*
X15400513Y12506742D01*
X15399071Y12505394D01*
X15388293Y12516170D01*
X15389642Y12517612D01*
X15390846Y12519097D01*
X15391908Y12520624D01*
X15392824Y12522195D01*
X15393597Y12523809D01*
X15394228Y12525465D01*
X15394711Y12527164D01*
X15395053Y12528906D01*
X15395250Y12530691D01*
X15395303Y12532520D01*
X15415421Y12512404D01*
D02*
G37*
G36*
X15515099Y12531054D02*
X15515295Y12529269D01*
X15515636Y12527527D01*
X15516122Y12525828D01*
X15516751Y12524171D01*
X15517525Y12522558D01*
X15518440Y12520987D01*
X15519501Y12519459D01*
X15520706Y12517975D01*
X15522055Y12516533D01*
X15511278Y12505756D01*
X15509836Y12507105D01*
X15508353Y12508310D01*
X15506824Y12509370D01*
X15505254Y12510287D01*
X15503641Y12511060D01*
X15501984Y12511689D01*
X15500284Y12512174D01*
X15498541Y12512516D01*
X15496758Y12512713D01*
X15494930Y12512766D01*
X15515044Y12532882D01*
X15515099Y12531054D01*
D02*
G37*
G36*
X9147269Y11240008D02*
X9145938Y11241263D01*
X9144536Y11242385D01*
X9143063Y11243376D01*
X9141519Y11244235D01*
X9139902Y11244961D01*
X9138215Y11245555D01*
X9136456Y11246018D01*
X9134626Y11246348D01*
X9132724Y11246546D01*
X9130751Y11246612D01*
Y11261852D01*
X9132724Y11261918D01*
X9134626Y11262116D01*
X9136456Y11262446D01*
X9138215Y11262909D01*
X9139902Y11263503D01*
X9141519Y11264229D01*
X9143063Y11265088D01*
X9144536Y11266079D01*
X9145938Y11267201D01*
X9147269Y11268456D01*
Y11240008D01*
D02*
G37*
G36*
Y11301984D02*
X9145938Y11303239D01*
X9144536Y11304361D01*
X9143063Y11305352D01*
X9141519Y11306211D01*
X9139902Y11306937D01*
X9138215Y11307531D01*
X9136456Y11307994D01*
X9134626Y11308324D01*
X9132724Y11308522D01*
X9130751Y11308588D01*
Y11323828D01*
X9132724Y11323894D01*
X9134626Y11324092D01*
X9136456Y11324422D01*
X9138215Y11324885D01*
X9139902Y11325479D01*
X9141519Y11326205D01*
X9143063Y11327064D01*
X9144536Y11328055D01*
X9145938Y11329177D01*
X9147269Y11330432D01*
Y11301984D01*
D02*
G37*
G36*
X6427985Y11247509D02*
X6426361Y11245757D01*
X6424911Y11243924D01*
X6423634Y11242009D01*
X6422531Y11240012D01*
X6421602Y11237933D01*
X6420846Y11235773D01*
X6420264Y11233530D01*
X6419855Y11231206D01*
X6419620Y11228800D01*
X6419559Y11226312D01*
X6394414Y11251457D01*
X6396902Y11251519D01*
X6399308Y11251754D01*
X6401632Y11252162D01*
X6403874Y11252745D01*
X6406035Y11253500D01*
X6408114Y11254430D01*
X6410111Y11255533D01*
X6412026Y11256809D01*
X6413859Y11258259D01*
X6415610Y11259883D01*
X6427985Y11247509D01*
D02*
G37*
G36*
X6188285D02*
X6186661Y11245757D01*
X6185211Y11243924D01*
X6183935Y11242009D01*
X6182831Y11240012D01*
X6181902Y11237933D01*
X6181146Y11235773D01*
X6180564Y11233530D01*
X6180156Y11231206D01*
X6179920Y11228800D01*
X6179859Y11226312D01*
X6154714Y11251457D01*
X6157202Y11251519D01*
X6159608Y11251754D01*
X6161932Y11252162D01*
X6164175Y11252745D01*
X6166335Y11253500D01*
X6168414Y11254430D01*
X6170411Y11255533D01*
X6172326Y11256809D01*
X6174159Y11258259D01*
X6175910Y11259883D01*
X6188285Y11247509D01*
D02*
G37*
G36*
X6267965D02*
X6266341Y11245757D01*
X6264891Y11243924D01*
X6263614Y11242009D01*
X6262511Y11240012D01*
X6261582Y11237933D01*
X6260826Y11235773D01*
X6260244Y11233530D01*
X6259835Y11231206D01*
X6259600Y11228800D01*
X6259539Y11226312D01*
X6234394Y11251457D01*
X6236882Y11251519D01*
X6239288Y11251754D01*
X6241612Y11252162D01*
X6243854Y11252745D01*
X6246015Y11253500D01*
X6248094Y11254430D01*
X6250091Y11255533D01*
X6252006Y11256809D01*
X6253839Y11258259D01*
X6255590Y11259883D01*
X6267965Y11247509D01*
D02*
G37*
G36*
X9137838Y11985044D02*
X9136668Y11986026D01*
X9135398Y11986904D01*
X9134027Y11987679D01*
X9132555Y11988350D01*
X9130982Y11988919D01*
X9129309Y11989383D01*
X9127535Y11989745D01*
X9125660Y11990003D01*
X9123685Y11990158D01*
X9121609Y11990210D01*
X9120637Y12007710D01*
X9122718Y12007767D01*
X9124687Y12007940D01*
X9126544Y12008227D01*
X9128290Y12008630D01*
X9129924Y12009147D01*
X9131446Y12009779D01*
X9132855Y12010526D01*
X9134154Y12011388D01*
X9135341Y12012365D01*
X9136416Y12013457D01*
X9137838Y11985044D01*
D02*
G37*
G36*
X9138604Y12041268D02*
X9137399Y12042184D01*
X9136098Y12043004D01*
X9134700Y12043727D01*
X9133205Y12044354D01*
X9131614Y12044884D01*
X9129925Y12045319D01*
X9128140Y12045656D01*
X9126259Y12045897D01*
X9124280Y12046042D01*
X9122205Y12046090D01*
X9120251Y12063590D01*
X9122335Y12063650D01*
X9124300Y12063829D01*
X9126147Y12064129D01*
X9127876Y12064547D01*
X9129486Y12065086D01*
X9130978Y12065744D01*
X9132351Y12066522D01*
X9133605Y12067420D01*
X9134741Y12068437D01*
X9135759Y12069574D01*
X9138604Y12041268D01*
D02*
G37*
G36*
X9137109Y11928856D02*
X9135983Y11929896D01*
X9134751Y11930827D01*
X9133413Y11931648D01*
X9131970Y11932359D01*
X9130421Y11932961D01*
X9128766Y11933454D01*
X9127005Y11933837D01*
X9125139Y11934111D01*
X9123166Y11934275D01*
X9121088Y11934330D01*
Y11951830D01*
X9123166Y11951885D01*
X9125139Y11952049D01*
X9127005Y11952323D01*
X9128766Y11952706D01*
X9130421Y11953199D01*
X9131970Y11953801D01*
X9133413Y11954512D01*
X9134751Y11955333D01*
X9135983Y11956264D01*
X9137109Y11957304D01*
Y11928856D01*
D02*
G37*
G36*
X9147269Y11363960D02*
X9145938Y11365215D01*
X9144536Y11366337D01*
X9143063Y11367328D01*
X9141519Y11368187D01*
X9139902Y11368913D01*
X9138215Y11369507D01*
X9136456Y11369970D01*
X9134626Y11370300D01*
X9132724Y11370498D01*
X9130751Y11370564D01*
Y11385804D01*
X9132724Y11385870D01*
X9134626Y11386068D01*
X9136456Y11386398D01*
X9138215Y11386861D01*
X9139902Y11387455D01*
X9141519Y11388181D01*
X9143063Y11389040D01*
X9144536Y11390031D01*
X9145938Y11391153D01*
X9147269Y11392408D01*
Y11363960D01*
D02*
G37*
G36*
Y11425936D02*
X9145938Y11427191D01*
X9144536Y11428313D01*
X9143063Y11429304D01*
X9141519Y11430163D01*
X9139902Y11430889D01*
X9138215Y11431483D01*
X9136456Y11431946D01*
X9134626Y11432276D01*
X9132724Y11432474D01*
X9130751Y11432540D01*
Y11447780D01*
X9132724Y11447846D01*
X9134626Y11448044D01*
X9136456Y11448374D01*
X9138215Y11448837D01*
X9139902Y11449431D01*
X9141519Y11450157D01*
X9143063Y11451016D01*
X9144536Y11452007D01*
X9145938Y11453129D01*
X9147269Y11454384D01*
Y11425936D01*
D02*
G37*
G36*
X10469269Y8728753D02*
X10467920Y8727311D01*
X10466716Y8725826D01*
X10465655Y8724298D01*
X10464738Y8722728D01*
X10463965Y8721114D01*
X10463336Y8719458D01*
X10462851Y8717758D01*
X10462510Y8716016D01*
X10462312Y8714231D01*
X10462259Y8712403D01*
X10442143Y8732519D01*
X10443971Y8732572D01*
X10445756Y8732770D01*
X10447498Y8733111D01*
X10449198Y8733596D01*
X10450854Y8734225D01*
X10452468Y8734998D01*
X10454038Y8735915D01*
X10455566Y8736976D01*
X10457051Y8738180D01*
X10458493Y8739529D01*
X10469269Y8728753D01*
D02*
G37*
G36*
X7962952Y8745709D02*
X7963150Y8743924D01*
X7963491Y8742182D01*
X7963976Y8740482D01*
X7964605Y8738826D01*
X7965378Y8737213D01*
X7966295Y8735642D01*
X7967356Y8734114D01*
X7968560Y8732629D01*
X7969909Y8731188D01*
X7959133Y8720411D01*
X7957691Y8721760D01*
X7956206Y8722964D01*
X7954678Y8724025D01*
X7953108Y8724942D01*
X7951494Y8725715D01*
X7949838Y8726344D01*
X7948138Y8726829D01*
X7946396Y8727171D01*
X7944611Y8727368D01*
X7942783Y8727421D01*
X7962899Y8747537D01*
X7962952Y8745709D01*
D02*
G37*
G36*
X10147902Y8720089D02*
X10149304Y8718967D01*
X10150777Y8717976D01*
X10152321Y8717117D01*
X10153938Y8716391D01*
X10155625Y8715797D01*
X10157384Y8715334D01*
X10159214Y8715004D01*
X10161116Y8714806D01*
X10163089Y8714740D01*
Y8699500D01*
X10161116Y8699434D01*
X10159214Y8699236D01*
X10157384Y8698906D01*
X10155625Y8698443D01*
X10153938Y8697849D01*
X10152321Y8697123D01*
X10150777Y8696264D01*
X10149304Y8695273D01*
X10147902Y8694151D01*
X10146571Y8692896D01*
Y8721344D01*
X10147902Y8720089D01*
D02*
G37*
G36*
X16563786Y8685036D02*
X16562714Y8685118D01*
X16561591Y8685028D01*
X16560419Y8684766D01*
X16559195Y8684332D01*
X16557921Y8683727D01*
X16556596Y8682949D01*
X16555223Y8682000D01*
X16553798Y8680879D01*
X16552322Y8679586D01*
X16550798Y8678122D01*
X16540022Y8688898D01*
X16541486Y8690423D01*
X16543900Y8693323D01*
X16544849Y8694697D01*
X16545627Y8696021D01*
X16546233Y8697295D01*
X16546666Y8698518D01*
X16546928Y8699691D01*
X16547017Y8700814D01*
X16546936Y8701886D01*
X16563786Y8685036D01*
D02*
G37*
G36*
X9537829Y8715320D02*
X9539314Y8714116D01*
X9540842Y8713055D01*
X9542412Y8712138D01*
X9544026Y8711365D01*
X9545682Y8710736D01*
X9547382Y8710251D01*
X9549124Y8709910D01*
X9550909Y8709712D01*
X9552737Y8709659D01*
X9532621Y8689543D01*
X9532568Y8691371D01*
X9532370Y8693156D01*
X9532029Y8694898D01*
X9531544Y8696598D01*
X9530915Y8698254D01*
X9530142Y8699868D01*
X9529225Y8701438D01*
X9528164Y8702966D01*
X9526960Y8704451D01*
X9525611Y8705893D01*
X9536387Y8716669D01*
X9537829Y8715320D01*
D02*
G37*
G36*
X10165349Y8780178D02*
X10164227Y8778776D01*
X10163236Y8777303D01*
X10162377Y8775759D01*
X10161651Y8774142D01*
X10161057Y8772455D01*
X10160594Y8770696D01*
X10160264Y8768866D01*
X10160066Y8766964D01*
X10160000Y8764991D01*
X10144760D01*
X10144694Y8766964D01*
X10144496Y8768866D01*
X10144166Y8770696D01*
X10143703Y8772455D01*
X10143109Y8774142D01*
X10142383Y8775759D01*
X10141524Y8777303D01*
X10140533Y8778776D01*
X10139411Y8780178D01*
X10138156Y8781509D01*
X10166604D01*
X10165349Y8780178D01*
D02*
G37*
G36*
X8933269Y8781156D02*
X8931938Y8782411D01*
X8930536Y8783533D01*
X8929063Y8784524D01*
X8927519Y8785382D01*
X8925902Y8786109D01*
X8924215Y8786703D01*
X8922456Y8787166D01*
X8920626Y8787496D01*
X8918724Y8787694D01*
X8916751Y8787760D01*
Y8803000D01*
X8918724Y8803066D01*
X8920626Y8803264D01*
X8922456Y8803594D01*
X8924215Y8804057D01*
X8925902Y8804651D01*
X8927519Y8805377D01*
X8929063Y8806236D01*
X8930536Y8807226D01*
X8931938Y8808349D01*
X8933269Y8809604D01*
Y8781156D01*
D02*
G37*
G36*
X9781021Y8789572D02*
X9781961Y8788260D01*
X9783038Y8787102D01*
X9784249Y8786099D01*
X9785597Y8785250D01*
X9787079Y8784555D01*
X9788698Y8784015D01*
X9790451Y8783629D01*
X9792341Y8783397D01*
X9794365Y8783320D01*
X9788607Y8768080D01*
X9786680Y8768040D01*
X9782936Y8767724D01*
X9781121Y8767447D01*
X9777600Y8766656D01*
X9775895Y8766141D01*
X9772597Y8764875D01*
X9771004Y8764123D01*
X9780216Y8791039D01*
X9781021Y8789572D01*
D02*
G37*
G36*
X11966669Y8733536D02*
X11965799Y8734308D01*
X11964783Y8734999D01*
X11963620Y8735609D01*
X11962312Y8736137D01*
X11960857Y8736584D01*
X11959256Y8736950D01*
X11957509Y8737234D01*
X11955616Y8737437D01*
X11951390Y8737600D01*
Y8757920D01*
X11953576Y8757961D01*
X11957509Y8758286D01*
X11959256Y8758570D01*
X11960857Y8758936D01*
X11962312Y8759383D01*
X11963620Y8759911D01*
X11964783Y8760521D01*
X11965799Y8761212D01*
X11966669Y8761984D01*
Y8733536D01*
D02*
G37*
G36*
X9360737Y8761961D02*
X9358909Y8761908D01*
X9357124Y8761710D01*
X9355382Y8761369D01*
X9353682Y8760884D01*
X9352026Y8760255D01*
X9350413Y8759482D01*
X9348842Y8758565D01*
X9347314Y8757504D01*
X9345829Y8756299D01*
X9344387Y8754951D01*
X9333611Y8765727D01*
X9334960Y8767169D01*
X9336164Y8768654D01*
X9337225Y8770182D01*
X9338142Y8771752D01*
X9338915Y8773366D01*
X9339544Y8775022D01*
X9340029Y8776722D01*
X9340370Y8778464D01*
X9340568Y8780249D01*
X9340621Y8782077D01*
X9360737Y8761961D01*
D02*
G37*
G36*
X8943429Y8511600D02*
X8944914Y8510396D01*
X8946442Y8509335D01*
X8948013Y8508418D01*
X8949626Y8507645D01*
X8951282Y8507016D01*
X8952982Y8506531D01*
X8954724Y8506189D01*
X8956509Y8505992D01*
X8958337Y8505939D01*
X8938221Y8485823D01*
X8938168Y8487651D01*
X8937970Y8489436D01*
X8937629Y8491178D01*
X8937144Y8492878D01*
X8936515Y8494534D01*
X8935742Y8496147D01*
X8934825Y8497718D01*
X8933764Y8499246D01*
X8932560Y8500731D01*
X8931211Y8502172D01*
X8941987Y8512949D01*
X8943429Y8511600D01*
D02*
G37*
G36*
X9161677Y8561961D02*
X9159849Y8561907D01*
X9158064Y8561710D01*
X9156322Y8561369D01*
X9154622Y8560884D01*
X9152966Y8560254D01*
X9151353Y8559481D01*
X9149782Y8558565D01*
X9148254Y8557504D01*
X9146769Y8556299D01*
X9145327Y8554951D01*
X9134551Y8565727D01*
X9135900Y8567169D01*
X9137104Y8568654D01*
X9138165Y8570181D01*
X9139082Y8571752D01*
X9139855Y8573366D01*
X9140484Y8575022D01*
X9140969Y8576721D01*
X9141310Y8578463D01*
X9141508Y8580249D01*
X9141561Y8582077D01*
X9161677Y8561961D01*
D02*
G37*
G36*
X9146769Y8508260D02*
X9148254Y8507056D01*
X9149782Y8505995D01*
X9151353Y8505078D01*
X9152966Y8504305D01*
X9154622Y8503676D01*
X9156322Y8503191D01*
X9158064Y8502849D01*
X9159849Y8502652D01*
X9161677Y8502599D01*
X9141561Y8482483D01*
X9141508Y8484311D01*
X9141310Y8486096D01*
X9140969Y8487838D01*
X9140484Y8489538D01*
X9139855Y8491194D01*
X9139082Y8492807D01*
X9138165Y8494378D01*
X9137104Y8495906D01*
X9135900Y8497390D01*
X9134551Y8498832D01*
X9145327Y8509609D01*
X9146769Y8508260D01*
D02*
G37*
G36*
X13654889Y8405980D02*
X13656374Y8404776D01*
X13657903Y8403715D01*
X13659473Y8402798D01*
X13661086Y8402025D01*
X13662743Y8401396D01*
X13664442Y8400911D01*
X13666183Y8400570D01*
X13667969Y8400372D01*
X13669797Y8400319D01*
X13649681Y8380203D01*
X13649628Y8382031D01*
X13649429Y8383816D01*
X13649089Y8385558D01*
X13648604Y8387258D01*
X13647975Y8388914D01*
X13647202Y8390528D01*
X13646284Y8392098D01*
X13645224Y8393626D01*
X13644020Y8395111D01*
X13642671Y8396553D01*
X13653447Y8407329D01*
X13654889Y8405980D01*
D02*
G37*
G36*
X13663792Y8440652D02*
X13663387Y8440695D01*
X13662883Y8440594D01*
X13662283Y8440349D01*
X13661588Y8439961D01*
X13660796Y8439429D01*
X13659908Y8438753D01*
X13657841Y8436970D01*
X13655388Y8434612D01*
X13644612Y8445388D01*
X13645863Y8446663D01*
X13649429Y8450796D01*
X13649960Y8451588D01*
X13650349Y8452284D01*
X13650594Y8452883D01*
X13650694Y8453386D01*
X13650652Y8453792D01*
X13663792Y8440652D01*
D02*
G37*
G36*
X9345829Y8708260D02*
X9347314Y8707056D01*
X9348842Y8705995D01*
X9350413Y8705078D01*
X9352026Y8704305D01*
X9353682Y8703676D01*
X9355382Y8703191D01*
X9357124Y8702849D01*
X9358909Y8702652D01*
X9360737Y8702599D01*
X9340621Y8682483D01*
X9340568Y8684311D01*
X9340370Y8686096D01*
X9340029Y8687838D01*
X9339544Y8689538D01*
X9338915Y8691194D01*
X9338142Y8692807D01*
X9337225Y8694378D01*
X9336164Y8695906D01*
X9334960Y8697391D01*
X9333611Y8698832D01*
X9344387Y8709609D01*
X9345829Y8708260D01*
D02*
G37*
G36*
X9746769D02*
X9748254Y8707056D01*
X9749782Y8705995D01*
X9751353Y8705078D01*
X9752966Y8704305D01*
X9754622Y8703676D01*
X9756322Y8703191D01*
X9758064Y8702849D01*
X9759849Y8702652D01*
X9761677Y8702599D01*
X9741561Y8682483D01*
X9741508Y8684311D01*
X9741310Y8686096D01*
X9740969Y8687838D01*
X9740484Y8689538D01*
X9739855Y8691194D01*
X9739082Y8692807D01*
X9738165Y8694378D01*
X9737104Y8695906D01*
X9735900Y8697391D01*
X9734551Y8698832D01*
X9745327Y8709609D01*
X9746769Y8708260D01*
D02*
G37*
G36*
X7969909Y8684293D02*
X7968560Y8682851D01*
X7967356Y8681366D01*
X7966295Y8679838D01*
X7965378Y8678268D01*
X7964605Y8676654D01*
X7963976Y8674998D01*
X7963491Y8673298D01*
X7963150Y8671556D01*
X7962952Y8669771D01*
X7962899Y8667943D01*
X7942783Y8688059D01*
X7944611Y8688112D01*
X7946396Y8688310D01*
X7948138Y8688651D01*
X7949838Y8689136D01*
X7951494Y8689765D01*
X7953108Y8690538D01*
X7954678Y8691455D01*
X7956206Y8692516D01*
X7957691Y8693720D01*
X7959133Y8695069D01*
X7969909Y8684293D01*
D02*
G37*
G36*
X8958337Y8565301D02*
X8956509Y8565248D01*
X8954724Y8565050D01*
X8952982Y8564709D01*
X8951282Y8564224D01*
X8949626Y8563595D01*
X8948013Y8562822D01*
X8946442Y8561905D01*
X8944914Y8560844D01*
X8943429Y8559639D01*
X8941987Y8558291D01*
X8931211Y8569067D01*
X8932560Y8570509D01*
X8933764Y8571994D01*
X8934825Y8573522D01*
X8935742Y8575092D01*
X8936515Y8576706D01*
X8937144Y8578362D01*
X8937629Y8580062D01*
X8937970Y8581804D01*
X8938168Y8583589D01*
X8938221Y8585417D01*
X8958337Y8565301D01*
D02*
G37*
G36*
X16552322Y8654413D02*
X16555223Y8652000D01*
X16556596Y8651051D01*
X16557921Y8650273D01*
X16559195Y8649668D01*
X16560419Y8649234D01*
X16561591Y8648972D01*
X16562714Y8648882D01*
X16563786Y8648964D01*
X16546936Y8632114D01*
X16547017Y8633186D01*
X16546928Y8634309D01*
X16546666Y8635482D01*
X16546233Y8636705D01*
X16545627Y8637978D01*
X16544849Y8639303D01*
X16543900Y8640677D01*
X16542780Y8642101D01*
X16541486Y8643577D01*
X16540022Y8645102D01*
X16550798Y8655878D01*
X16552322Y8654413D01*
D02*
G37*
G36*
X10459772Y8806689D02*
X10459970Y8804904D01*
X10460311Y8803162D01*
X10460796Y8801462D01*
X10461425Y8799806D01*
X10462198Y8798192D01*
X10463115Y8796622D01*
X10464176Y8795094D01*
X10465380Y8793609D01*
X10466729Y8792167D01*
X10455953Y8781391D01*
X10454511Y8782740D01*
X10453026Y8783944D01*
X10451498Y8785005D01*
X10449928Y8785922D01*
X10448314Y8786695D01*
X10446658Y8787324D01*
X10444958Y8787809D01*
X10443216Y8788150D01*
X10441431Y8788348D01*
X10439603Y8788401D01*
X10459719Y8808517D01*
X10459772Y8806689D01*
D02*
G37*
G36*
X16298323Y9289413D02*
X16301224Y9287000D01*
X16302597Y9286051D01*
X16303922Y9285273D01*
X16305196Y9284668D01*
X16306418Y9284234D01*
X16307591Y9283972D01*
X16308714Y9283882D01*
X16309785Y9283964D01*
X16292937Y9267114D01*
X16293018Y9268186D01*
X16292928Y9269309D01*
X16292667Y9270482D01*
X16292232Y9271705D01*
X16291628Y9272978D01*
X16290849Y9274303D01*
X16289900Y9275677D01*
X16288779Y9277101D01*
X16287486Y9278577D01*
X16286021Y9280102D01*
X16296799Y9290878D01*
X16298323Y9289413D01*
D02*
G37*
G36*
X16309785Y9320036D02*
X16308714Y9320118D01*
X16307591Y9320028D01*
X16306418Y9319766D01*
X16305196Y9319332D01*
X16303922Y9318727D01*
X16302597Y9317949D01*
X16301224Y9317000D01*
X16299799Y9315879D01*
X16298323Y9314586D01*
X16296799Y9313122D01*
X16286021Y9323898D01*
X16287486Y9325423D01*
X16289900Y9328323D01*
X16290849Y9329697D01*
X16291628Y9331021D01*
X16292232Y9332295D01*
X16292667Y9333518D01*
X16292928Y9334691D01*
X16293018Y9335814D01*
X16292937Y9336886D01*
X16309785Y9320036D01*
D02*
G37*
G36*
X16563786Y9066036D02*
X16562714Y9066118D01*
X16561591Y9066028D01*
X16560419Y9065766D01*
X16559195Y9065332D01*
X16557921Y9064727D01*
X16556596Y9063949D01*
X16555223Y9063000D01*
X16553798Y9061879D01*
X16552322Y9060586D01*
X16550798Y9059122D01*
X16540022Y9069898D01*
X16541486Y9071423D01*
X16543900Y9074323D01*
X16544849Y9075697D01*
X16545627Y9077021D01*
X16546233Y9078295D01*
X16546666Y9079518D01*
X16546928Y9080691D01*
X16547017Y9081814D01*
X16546936Y9082886D01*
X16563786Y9066036D01*
D02*
G37*
G36*
X16552322Y9035413D02*
X16555223Y9033000D01*
X16556596Y9032051D01*
X16557921Y9031273D01*
X16559195Y9030668D01*
X16560419Y9030234D01*
X16561591Y9029972D01*
X16562714Y9029882D01*
X16563786Y9029964D01*
X16546936Y9013114D01*
X16547017Y9014186D01*
X16546928Y9015309D01*
X16546666Y9016482D01*
X16546233Y9017705D01*
X16545627Y9018978D01*
X16544849Y9020303D01*
X16543900Y9021677D01*
X16542780Y9023101D01*
X16541486Y9024577D01*
X16540022Y9026102D01*
X16550798Y9036878D01*
X16552322Y9035413D01*
D02*
G37*
G36*
X8958337Y9065301D02*
X8956509Y9065248D01*
X8954724Y9065050D01*
X8952982Y9064709D01*
X8951282Y9064224D01*
X8949626Y9063595D01*
X8948013Y9062822D01*
X8946442Y9061905D01*
X8944914Y9060844D01*
X8943429Y9059639D01*
X8941987Y9058291D01*
X8931211Y9069067D01*
X8932560Y9070509D01*
X8933764Y9071994D01*
X8934825Y9073522D01*
X8935742Y9075092D01*
X8936515Y9076706D01*
X8937144Y9078362D01*
X8937629Y9080062D01*
X8937970Y9081804D01*
X8938168Y9083589D01*
X8938221Y9085417D01*
X8958337Y9065301D01*
D02*
G37*
G36*
X8006209Y9529380D02*
X8007694Y9528176D01*
X8009222Y9527115D01*
X8010792Y9526198D01*
X8012406Y9525425D01*
X8014062Y9524796D01*
X8015762Y9524311D01*
X8017504Y9523970D01*
X8019289Y9523772D01*
X8021117Y9523719D01*
X8001001Y9503603D01*
X8000948Y9505431D01*
X8000750Y9507216D01*
X8000409Y9508958D01*
X7999924Y9510658D01*
X7999295Y9512314D01*
X7998522Y9513928D01*
X7997605Y9515498D01*
X7996544Y9517026D01*
X7995340Y9518511D01*
X7993991Y9519953D01*
X8004767Y9530729D01*
X8006209Y9529380D01*
D02*
G37*
G36*
X6054749Y9519969D02*
X6053400Y9518527D01*
X6052196Y9517042D01*
X6051135Y9515514D01*
X6050218Y9513943D01*
X6049445Y9512330D01*
X6048816Y9510674D01*
X6048331Y9508974D01*
X6047990Y9507232D01*
X6047792Y9505447D01*
X6047739Y9503619D01*
X6027623Y9523735D01*
X6029451Y9523788D01*
X6031236Y9523986D01*
X6032978Y9524327D01*
X6034678Y9524812D01*
X6036334Y9525441D01*
X6037948Y9526214D01*
X6039518Y9527131D01*
X6041046Y9528192D01*
X6042531Y9529396D01*
X6043973Y9530745D01*
X6054749Y9519969D01*
D02*
G37*
G36*
X16563786Y9447036D02*
X16562714Y9447118D01*
X16561591Y9447028D01*
X16560419Y9446766D01*
X16559195Y9446332D01*
X16557921Y9445727D01*
X16556596Y9444949D01*
X16555223Y9444000D01*
X16553798Y9442879D01*
X16552322Y9441586D01*
X16550798Y9440122D01*
X16540022Y9450898D01*
X16541486Y9452423D01*
X16543900Y9455323D01*
X16544849Y9456697D01*
X16545627Y9458021D01*
X16546233Y9459295D01*
X16546666Y9460518D01*
X16546928Y9461691D01*
X16547017Y9462814D01*
X16546936Y9463886D01*
X16563786Y9447036D01*
D02*
G37*
G36*
X16552322Y9416413D02*
X16555223Y9414000D01*
X16556596Y9413051D01*
X16557921Y9412273D01*
X16559195Y9411668D01*
X16560419Y9411234D01*
X16561591Y9410972D01*
X16562714Y9410882D01*
X16563786Y9410964D01*
X16546936Y9394114D01*
X16547017Y9395186D01*
X16546928Y9396309D01*
X16546666Y9397482D01*
X16546233Y9398705D01*
X16545627Y9399978D01*
X16544849Y9401303D01*
X16543900Y9402677D01*
X16542780Y9404101D01*
X16541486Y9405577D01*
X16540022Y9407102D01*
X16550798Y9417878D01*
X16552322Y9416413D01*
D02*
G37*
G36*
X9266522Y9426209D02*
X9267924Y9425087D01*
X9269397Y9424096D01*
X9270941Y9423237D01*
X9272558Y9422511D01*
X9274245Y9421917D01*
X9276004Y9421454D01*
X9277834Y9421124D01*
X9279736Y9420926D01*
X9281709Y9420860D01*
Y9405620D01*
X9279736Y9405554D01*
X9277834Y9405356D01*
X9276004Y9405026D01*
X9274245Y9404563D01*
X9272558Y9403969D01*
X9270941Y9403243D01*
X9269397Y9402384D01*
X9267924Y9401393D01*
X9266522Y9400271D01*
X9265191Y9399016D01*
Y9427464D01*
X9266522Y9426209D01*
D02*
G37*
G36*
X16298323Y8908413D02*
X16301224Y8906000D01*
X16302597Y8905051D01*
X16303922Y8904273D01*
X16305196Y8903668D01*
X16306418Y8903234D01*
X16307591Y8902972D01*
X16308714Y8902882D01*
X16309785Y8902964D01*
X16292937Y8886114D01*
X16293018Y8887186D01*
X16292928Y8888309D01*
X16292667Y8889482D01*
X16292232Y8890705D01*
X16291628Y8891978D01*
X16290849Y8893303D01*
X16289900Y8894677D01*
X16288779Y8896101D01*
X16287486Y8897577D01*
X16286021Y8899102D01*
X16296799Y8909878D01*
X16298323Y8908413D01*
D02*
G37*
G36*
X9444889Y8915980D02*
X9446374Y8914776D01*
X9447902Y8913715D01*
X9449472Y8912798D01*
X9451086Y8912025D01*
X9452742Y8911396D01*
X9454442Y8910911D01*
X9456184Y8910570D01*
X9457969Y8910372D01*
X9459797Y8910319D01*
X9439681Y8890203D01*
X9439628Y8892031D01*
X9439430Y8893816D01*
X9439089Y8895558D01*
X9438604Y8897258D01*
X9437975Y8898914D01*
X9437202Y8900528D01*
X9436285Y8902098D01*
X9435224Y8903626D01*
X9434019Y8905111D01*
X9432671Y8906553D01*
X9443447Y8917329D01*
X9444889Y8915980D01*
D02*
G37*
G36*
X9646769Y8908260D02*
X9648254Y8907056D01*
X9649782Y8905995D01*
X9651353Y8905078D01*
X9652966Y8904305D01*
X9654622Y8903676D01*
X9656322Y8903191D01*
X9658064Y8902850D01*
X9659849Y8902652D01*
X9661677Y8902599D01*
X9641561Y8882483D01*
X9641508Y8884311D01*
X9641310Y8886096D01*
X9640969Y8887838D01*
X9640484Y8889538D01*
X9639855Y8891194D01*
X9639082Y8892807D01*
X9638165Y8894378D01*
X9637104Y8895906D01*
X9635900Y8897391D01*
X9634551Y8898833D01*
X9645327Y8909609D01*
X9646769Y8908260D01*
D02*
G37*
G36*
X10254046Y8831376D02*
X10254244Y8829474D01*
X10254574Y8827644D01*
X10255037Y8825885D01*
X10255631Y8824197D01*
X10256357Y8822581D01*
X10257216Y8821037D01*
X10258207Y8819564D01*
X10259329Y8818162D01*
X10260584Y8816831D01*
X10232136D01*
X10233391Y8818162D01*
X10234513Y8819564D01*
X10235504Y8821037D01*
X10236363Y8822581D01*
X10237089Y8824197D01*
X10237683Y8825885D01*
X10238146Y8827644D01*
X10238476Y8829474D01*
X10238674Y8831376D01*
X10238740Y8833349D01*
X10253980D01*
X10254046Y8831376D01*
D02*
G37*
G36*
X10208266Y8885496D02*
X10208364Y8884292D01*
X10208636Y8883046D01*
X10209080Y8881756D01*
X10209698Y8880424D01*
X10210488Y8879048D01*
X10211452Y8877630D01*
X10212588Y8876168D01*
X10213898Y8874663D01*
X10215381Y8873116D01*
X10204604Y8862340D01*
X10203057Y8863822D01*
X10200091Y8866268D01*
X10198672Y8867232D01*
X10197297Y8868022D01*
X10195964Y8868640D01*
X10194675Y8869085D01*
X10193428Y8869356D01*
X10192225Y8869455D01*
X10191064Y8869380D01*
X10208340Y8886656D01*
X10208266Y8885496D01*
D02*
G37*
G36*
X8943429Y9011600D02*
X8944914Y9010396D01*
X8946442Y9009335D01*
X8948013Y9008418D01*
X8949626Y9007645D01*
X8951282Y9007016D01*
X8952982Y9006531D01*
X8954724Y9006190D01*
X8956509Y9005992D01*
X8958337Y9005939D01*
X8938221Y8985823D01*
X8938168Y8987651D01*
X8937970Y8989436D01*
X8937629Y8991178D01*
X8937144Y8992878D01*
X8936515Y8994534D01*
X8935742Y8996147D01*
X8934825Y8997718D01*
X8933764Y8999246D01*
X8932560Y9000731D01*
X8931211Y9002172D01*
X8941987Y9012949D01*
X8943429Y9011600D01*
D02*
G37*
G36*
X10859774Y9017658D02*
X10858352Y9016135D01*
X10857174Y9014654D01*
X10856241Y9013215D01*
X10855553Y9011819D01*
X10855109Y9010465D01*
X10854909Y9009154D01*
X10854954Y9007884D01*
X10855244Y9006658D01*
X10855778Y9005473D01*
X10856557Y9004331D01*
X10829951Y9008832D01*
X10846351Y9025787D01*
X10859774Y9017658D01*
D02*
G37*
G36*
X9437127Y9009388D02*
X9438557Y9008281D01*
X9439977Y9007398D01*
X9441389Y9006739D01*
X9442791Y9006305D01*
X9444184Y9006095D01*
X9445568Y9006108D01*
X9446942Y9006346D01*
X9448308Y9006809D01*
X9449664Y9007495D01*
X9441870Y8980823D01*
X9441316Y8981788D01*
X9440541Y8982931D01*
X9438325Y8985752D01*
X9435224Y8989285D01*
X9426363Y8998492D01*
X9435688Y9010719D01*
X9437127Y9009388D01*
D02*
G37*
G36*
X10754426Y8921596D02*
X10754624Y8919694D01*
X10754954Y8917864D01*
X10755417Y8916105D01*
X10756011Y8914418D01*
X10756737Y8912801D01*
X10757596Y8911257D01*
X10758587Y8909784D01*
X10759709Y8908382D01*
X10760964Y8907051D01*
X10732516D01*
X10733771Y8908382D01*
X10734893Y8909784D01*
X10735884Y8911257D01*
X10736743Y8912801D01*
X10737469Y8914418D01*
X10738063Y8916105D01*
X10738526Y8917864D01*
X10738856Y8919694D01*
X10739054Y8921596D01*
X10739120Y8923569D01*
X10754360D01*
X10754426Y8921596D01*
D02*
G37*
G36*
X16309785Y8939036D02*
X16308714Y8939118D01*
X16307591Y8939028D01*
X16306418Y8938766D01*
X16305196Y8938332D01*
X16303922Y8937727D01*
X16302597Y8936949D01*
X16301224Y8936000D01*
X16299799Y8934879D01*
X16298323Y8933586D01*
X16296799Y8932122D01*
X16286021Y8942898D01*
X16287486Y8944423D01*
X16289900Y8947323D01*
X16290849Y8948697D01*
X16291628Y8950021D01*
X16292232Y8951295D01*
X16292667Y8952518D01*
X16292928Y8953691D01*
X16293018Y8954814D01*
X16292937Y8955886D01*
X16309785Y8939036D01*
D02*
G37*
D10*
X6753060Y5125720D02*
Y5146040D01*
Y5125720D02*
X7040080Y4838700D01*
X5864060Y5572760D02*
X6222200D01*
X5753450Y5462150D02*
X5864060Y5572760D01*
X5725510Y5462150D02*
X5753450D01*
X4968240Y8158480D02*
Y12110720D01*
X4165600Y12913361D02*
X4968240Y12110720D01*
X6692900Y6289040D02*
X6789039D01*
X6819986Y6319987D01*
X6300000Y6681940D02*
X6692900Y6289040D01*
X6300000Y6681940D02*
Y6826720D01*
X4968240Y8158480D02*
X6300000Y6826720D01*
X5726200Y5619180D02*
X5729309Y5622290D01*
X6257542D01*
D50*
X7169927Y5539930D02*
X7189858Y5520000D01*
X7169869Y5539989D02*
X7169927Y5539930D01*
X4703280Y6690360D02*
Y6695440D01*
Y6581140D02*
Y6690360D01*
Y6263640D02*
Y6581140D01*
X4375150Y5005070D02*
X4485640Y5115560D01*
X7588320Y5608320D02*
X7806360D01*
X7500000Y5520000D02*
X7588320Y5608320D01*
X7189858Y5520000D02*
X7500000D01*
X5196040Y4302760D02*
X6153620D01*
X6214580Y4363720D01*
Y4732020D01*
X6323800Y4841240D01*
X6374600D01*
X4703280Y6695440D02*
X4865840Y6858000D01*
X6166320D01*
X6201880Y6822440D01*
Y6390640D02*
Y6822440D01*
Y6390640D02*
X6242520Y6350000D01*
X6371120D01*
X6441440Y5562600D02*
X6939280D01*
X4485640Y5115560D02*
X5994400D01*
X6441440Y5562600D01*
X4827740Y4671060D02*
X5196040Y4302760D01*
X4827740Y4671060D02*
X4830000Y4673320D01*
Y5060000D01*
X7026669Y5649989D02*
X7169986D01*
X6939280Y5562600D02*
X7026669Y5649989D01*
X7169869Y5539989D02*
X7169986D01*
D51*
X8818880Y8006080D02*
X8966200D01*
X16306650Y8576830D02*
X16326970Y8556510D01*
X16305380Y8578100D02*
X16306650Y8576830D01*
Y8503170D02*
X16326970Y8523490D01*
X16305380Y8501900D02*
X16306650Y8503170D01*
X9734493Y7306253D02*
X9885566Y7155180D01*
X9730746Y7310000D02*
X9734493Y7306253D01*
X7995940Y9528780D02*
X8021320Y9503400D01*
X8140110Y9810110D02*
X8160000Y9830000D01*
X7699370Y9810110D02*
X8140110D01*
X7675880Y9833600D02*
X7699370Y9810110D01*
Y9777090D02*
X8132910D01*
X8160000Y9750000D01*
X7675880Y9753600D02*
X7699370Y9777090D01*
X7379320Y9528780D02*
X7995940D01*
X7295500D02*
X7322200D01*
X7362840Y9512300D02*
X7379320Y9528780D01*
X7338680Y9512300D02*
X7362840D01*
X7322200Y9528780D02*
X7338680Y9512300D01*
X7211680Y9528780D02*
X7238380D01*
X7279020Y9512300D02*
X7295500Y9528780D01*
X7254860Y9512300D02*
X7279020D01*
X7238380Y9528780D02*
X7254860Y9512300D01*
X7122780Y9528780D02*
X7154560D01*
X7195200Y9512300D02*
X7211680Y9528780D01*
X7171040Y9512300D02*
X7195200D01*
X7154560Y9528780D02*
X7171040Y9512300D01*
X7036420Y9528780D02*
X7065660D01*
X7106300Y9512300D02*
X7122780Y9528780D01*
X7082140Y9512300D02*
X7106300D01*
X7065660Y9528780D02*
X7082140Y9512300D01*
X6947520Y9528780D02*
X6979300D01*
X7019940Y9512300D02*
X7036420Y9528780D01*
X6995780Y9512300D02*
X7019940D01*
X6979300Y9528780D02*
X6995780Y9512300D01*
X6866240Y9528780D02*
X6890400D01*
X6931040Y9512300D02*
X6947520Y9528780D01*
X6906880Y9512300D02*
X6931040D01*
X6890400Y9528780D02*
X6906880Y9512300D01*
X6782420Y9528780D02*
X6809120D01*
X6849760Y9512300D02*
X6866240Y9528780D01*
X6825600Y9512300D02*
X6849760D01*
X6809120Y9528780D02*
X6825600Y9512300D01*
X6698600Y9528780D02*
X6725300D01*
X6765940Y9512300D02*
X6782420Y9528780D01*
X6741780Y9512300D02*
X6765940D01*
X6725300Y9528780D02*
X6741780Y9512300D01*
X6049036Y9561800D02*
X7999720D01*
X8021320Y9583400D01*
X6027420Y9583416D02*
X6049036Y9561800D01*
X6052784Y9528780D02*
X6639560D01*
X6641480D02*
X6657960Y9512300D01*
X6682120D02*
X6698600Y9528780D01*
X6657960Y9512300D02*
X6682120D01*
X6027420Y9503416D02*
X6052784Y9528780D01*
X10290517Y8669020D02*
X10459826D01*
X10219397Y8740140D02*
X10290517Y8669020D01*
X10165080Y8740140D02*
X10219397D01*
X10152380Y8752840D02*
X10165080Y8740140D01*
X10152380Y8752840D02*
Y8796020D01*
X10276840Y8636000D02*
X10473503D01*
X10205720Y8707120D02*
X10276840Y8636000D01*
X10132060Y8707120D02*
X10205720D01*
X11716510Y8086510D02*
X11740000Y8110000D01*
X11716510Y8026323D02*
Y8086510D01*
X11510187Y7820000D02*
X11716510Y8026323D01*
X10836698Y7820000D02*
X11510187D01*
X10711047Y7694350D02*
X10836698Y7820000D01*
X10420000Y7694350D02*
X10711047D01*
X10386670Y7661020D02*
X10420000Y7694350D01*
X9439954Y7661020D02*
X10386670D01*
X9396774Y7617840D02*
X9439954Y7661020D01*
X9361880Y7617840D02*
X9396774D01*
X11660000Y8110000D02*
X11683490Y8086510D01*
Y8040000D02*
Y8086510D01*
X11496510Y7853020D02*
X11683490Y8040000D01*
X10823020Y7853020D02*
X11496510D01*
X9768382Y7767320D02*
X10392680D01*
X9410845Y7766804D02*
X9767866D01*
X10706150Y7736150D02*
X10823020Y7853020D01*
X10392680Y7767320D02*
X10423850Y7736150D01*
X10706150D01*
X9767866Y7766804D02*
X9768382Y7767320D01*
X9361880Y7717840D02*
X9410845Y7766804D01*
X8285577Y8818880D02*
X8882380D01*
X8157928Y8691230D02*
X8285577Y8818880D01*
X7966070Y8691230D02*
X8157928D01*
X8271900Y8851900D02*
X8868703D01*
X8144250Y8724250D02*
X8271900Y8851900D01*
X7966070Y8724250D02*
X8144250D01*
X8895005Y8788400D02*
X8901985Y8795380D01*
X8901723Y8884920D02*
X8977337D01*
X8868703Y8851900D02*
X8901723Y8884920D01*
X8915400Y8851900D02*
X8963660D01*
X8882380Y8818880D02*
X8915400Y8851900D01*
X8901985Y8795380D02*
X8947780D01*
X9035268Y8826989D02*
X9139435D01*
X8977337Y8884920D02*
X9035268Y8826989D01*
X9510000Y8732280D02*
Y9217420D01*
Y8732280D02*
X9552940Y8689340D01*
X9314180Y9413240D02*
X9510000Y9217420D01*
X8963660Y8851900D02*
X9021591Y8793969D01*
X9250680Y9413240D02*
X9314180D01*
X9250680Y9410700D02*
Y9413240D01*
X7942580Y8747740D02*
X7966070Y8724250D01*
X7942580Y8667740D02*
X7966070Y8691230D01*
X7653020Y10784840D02*
X7955280D01*
X7500620Y10937240D02*
X7653020Y10784840D01*
X7955280D02*
X8064500Y10894060D01*
Y11041380D01*
X7820320Y11220978D02*
X7853574Y11254232D01*
X9161780D01*
X7660620Y11220978D02*
X7755850Y11316208D01*
X9161780D01*
X7737826Y11378184D02*
X9161780D01*
X7580620Y11220978D02*
X7737826Y11378184D01*
X9336580Y8757920D02*
X9360940Y8782280D01*
X9318320Y8724900D02*
X9360940Y8682280D01*
X9021591Y8793969D02*
X9125758D01*
X9194827Y8724900D01*
X9318320D01*
X9139435Y8826989D02*
X9208504Y8757920D01*
X9336580D01*
X8064500Y11041380D02*
X8173120Y11150000D01*
X9142060D01*
X9161780Y11130280D01*
X8490160Y11440160D02*
X9161780D01*
X7533122Y11413480D02*
X8463480D01*
X8490160Y11440160D01*
X7340620Y11220978D02*
X7533122Y11413480D01*
X9710000Y8010000D02*
X9710000D01*
X9719671Y8000329D01*
X9778088D01*
X10053320Y8135620D02*
X10167760Y8250060D01*
X9850000Y8135620D02*
X10053320D01*
X9161880Y8369200D02*
X9186680Y8344400D01*
X9161880Y8369200D02*
Y8382280D01*
X9186680Y8344400D02*
X9250628D01*
X10167760Y8250060D02*
X10167760D01*
X10203900Y8286200D01*
X10281563D01*
X10294743Y8273020D01*
X10636980D02*
X10723091Y8186909D01*
X10294743Y8273020D02*
X10636980D01*
X11052289Y8320226D02*
X11172063Y8440000D01*
X13650000D01*
X13670000Y8460000D01*
X10066997Y8102600D02*
X10217577Y8253180D01*
X9161880Y8282280D02*
X9187940Y8308340D01*
X10217577Y8253180D02*
X10267886D01*
X10281066Y8240000D01*
X9187940Y8308340D02*
X9239991D01*
X10281066Y8240000D02*
X10623303D01*
X10709414Y8153889D01*
X13643021Y8406980D02*
X13670000Y8380000D01*
X11185740Y8406980D02*
X13643021D01*
X9533094Y8150000D02*
X9536215Y8146880D01*
X9571986D01*
X9575106Y8150000D01*
X9616698D01*
X9519417Y8116980D02*
X9522537Y8113860D01*
X9585663D01*
X9588783Y8116980D01*
X9603020D01*
X9430000Y8150000D02*
X9533094D01*
X9416323Y8116980D02*
X9519417D01*
X9603020D02*
X9656836Y8063164D01*
X9667866D01*
X9616698Y8150000D02*
X9670514Y8096184D01*
X9681544D01*
X9803160Y8072098D02*
Y8088780D01*
X9850000Y8135620D01*
X9836180Y8058421D02*
Y8075103D01*
X9863678Y8102600D01*
X9764411Y8033349D02*
X9803160Y8072098D01*
X9778088Y8000329D02*
X9836180Y8058421D01*
X9863678Y8102600D02*
X10066997D01*
X9368560Y8211440D02*
Y8226468D01*
Y8211440D02*
X9430000Y8150000D01*
X9335540Y8197763D02*
Y8212791D01*
Y8197763D02*
X9416323Y8116980D01*
X9250628Y8344400D02*
X9368560Y8226468D01*
X9239991Y8308340D02*
X9335540Y8212791D01*
X9681544Y8096184D02*
X9726181Y8051547D01*
Y8040517D02*
Y8051547D01*
Y8040517D02*
X9733349Y8033349D01*
X9764411D01*
X9667866Y8063164D02*
X9693161Y8037870D01*
Y8026839D02*
Y8037870D01*
Y8026839D02*
X9710000Y8010000D01*
X10982960Y8203748D02*
Y8204200D01*
X11185740Y8406980D01*
X10723091Y8186909D02*
X10919424D01*
X11081175Y8348660D01*
X10709414Y8153889D02*
X10933101D01*
X10982960Y8203748D01*
X16548700Y10210800D02*
X16567000Y10229100D01*
X16542120Y10177780D02*
X16567000Y10152900D01*
X9416820Y7943180D02*
X9672320D01*
X9682336Y7933164D02*
X9822095D01*
X9300000Y8060000D02*
X9416820Y7943180D01*
X9822095Y7933164D02*
X9842095Y7953164D01*
X9672320Y7943180D02*
X9682336Y7933164D01*
X9897866D02*
X9959307D01*
X9971263Y7945120D01*
X9877866Y7953164D02*
X9897866Y7933164D01*
X10102557Y7945120D02*
X10153357Y7995920D01*
X9971263Y7945120D02*
X10102557D01*
X9261880Y8181621D02*
X9300000Y8143501D01*
Y8060000D02*
Y8143501D01*
X9261880Y8181621D02*
Y8182280D01*
X9842095Y7953164D02*
X9877866D01*
X10153357Y7995920D02*
X10488637D01*
X10567377Y8074660D01*
X10685780D01*
X10776731Y7911611D02*
X10776732D01*
X10786403Y7901940D01*
X10685780Y8074660D02*
X10734040Y8026400D01*
Y7954303D02*
X10776731Y7911611D01*
X10734040Y7954303D02*
Y8026400D01*
X10786403Y7901940D02*
X10999177D01*
X11008848Y7911611D01*
X11008849D01*
X11260797Y8163560D01*
X13970976D01*
X14104620Y8297203D01*
Y8521700D01*
X15760699Y10177780D01*
X16542120D01*
X9430498Y7976200D02*
X9685997D01*
X9696013Y7966184D02*
X9808418D01*
X9333020Y8073678D02*
X9430498Y7976200D01*
X9808418Y7966184D02*
X9828417Y7986184D01*
X9685997Y7976200D02*
X9696013Y7966184D01*
X9911543D02*
X9945630D01*
X9957586Y7978140D02*
X10088880D01*
X9828417Y7986184D02*
X9891543D01*
X9945630Y7966184D02*
X9957586Y7978140D01*
X9891543Y7986184D02*
X9911543Y7966184D01*
X9200814Y8182280D02*
X9243994Y8225460D01*
X9161880Y8182280D02*
X9200814D01*
X9305060Y8185138D02*
X9333020Y8157178D01*
Y8073678D02*
Y8157178D01*
X9243994Y8225460D02*
X9279766D01*
X9305060Y8185138D02*
Y8200165D01*
X9279766Y8225460D02*
X9305060Y8200165D01*
X10088880Y7978140D02*
X10139680Y8028940D01*
X10474960D01*
X10553700Y8107680D01*
X10767060Y7967980D02*
Y8040077D01*
X10553700Y8107680D02*
X10699457D01*
X10767060Y7967980D02*
X10800080Y7934960D01*
X10985500D01*
X10699457Y8107680D02*
X10767060Y8040077D01*
X10985500Y7934960D02*
X11247120Y8196580D01*
X13957300D01*
X14071600Y8310880D01*
Y8535377D01*
X15747023Y10210800D01*
X16548700D01*
X9667797Y6438900D02*
X10088851D01*
X10308672Y6219080D02*
X11321940D01*
X10088851Y6438900D02*
X10308672Y6219080D01*
X11321940D02*
X11504860Y6402000D01*
X11647120D01*
X9662900Y6397100D02*
X10071537D01*
X10291358Y6177280D02*
X11339253D01*
X10071537Y6397100D02*
X10291358Y6177280D01*
X9183560Y7363560D02*
X9240000Y7420000D01*
X11339253Y6177280D02*
X11522174Y6360200D01*
X11647120D02*
X11666220Y6341100D01*
X11522174Y6360200D02*
X11647120D01*
X9161880Y7298403D02*
X9227820Y7232463D01*
Y7176508D02*
Y7232463D01*
Y7176508D02*
X9299700Y7104628D01*
X9161880Y7298403D02*
Y7317840D01*
X9194800Y7162831D02*
Y7218786D01*
X9118600Y7294986D02*
X9194800Y7218786D01*
X9142942Y7363560D02*
X9183560D01*
X9118600Y7294986D02*
Y7339218D01*
X9142942Y7363560D01*
X11647120Y6402000D02*
X11666220Y6421100D01*
X10107637Y6121400D02*
X10305269Y5923769D01*
X9626600Y6121400D02*
X10107637D01*
X9146540Y7106920D02*
X9149120D01*
X9146540Y7078980D02*
Y7106920D01*
X10305269Y5923769D02*
X11852129D01*
X12863190Y6934830D01*
X14205589D01*
X14229080Y6958320D01*
X9082551Y6725431D02*
Y6725432D01*
X9612923Y6088380D02*
X10093960D01*
X10281920Y5900420D01*
X9082551Y7061689D02*
X9103360Y7082497D01*
X9082551Y7061688D02*
Y7061689D01*
X9103360Y7124806D02*
X9151620Y7173066D01*
X9103360Y7082497D02*
Y7124806D01*
X9151620Y7173066D02*
Y7200900D01*
X10281920Y5900420D02*
X10281920D01*
X10291592Y5890749D02*
X11865806D01*
X10281920Y5900420D02*
X10291592Y5890749D01*
X11865806D02*
X11875477Y5900420D01*
X11875477D01*
X12876868Y6901810D01*
X14205589D02*
X14229080Y6878320D01*
X12876868Y6901810D02*
X14205589D01*
X15847060Y8297203D02*
Y8778240D01*
X15814040Y8310880D02*
Y8791917D01*
X15847060Y8778240D02*
X15917430Y8848610D01*
X16177260D01*
X15814040Y8791917D02*
X15903754Y8881630D01*
X16163583D01*
X9458960Y7263423D02*
Y7263423D01*
X9671343Y6918960D02*
X9808683D01*
X9458960Y7263423D02*
X9601200Y7121183D01*
Y6989103D02*
X9671343Y6918960D01*
X9601200Y6989103D02*
Y7121183D01*
X9431020Y7440668D02*
X9440141Y7449789D01*
X9431020Y7291363D02*
Y7440668D01*
X9440141Y7449789D02*
Y7499825D01*
X9429981Y7509985D02*
X9440141Y7499825D01*
X12121857Y6751320D02*
X12716217Y7345680D01*
X14379916D01*
X14923477Y7889240D01*
X15439098D01*
X15847060Y8297203D01*
X16177260Y8848610D02*
X16233141Y8904490D01*
X16291409D01*
X16313000Y8882900D01*
X9464040Y7305040D02*
Y7426991D01*
X9685020Y6951980D02*
X9822361D01*
X9634220Y7002780D02*
X9685020Y6951980D01*
X9634220Y7002780D02*
Y7134860D01*
X9339981Y7491621D02*
Y7499985D01*
X9358915D01*
X9464040Y7426991D02*
X9473161Y7436112D01*
Y7527871D01*
X9358915Y7499985D02*
X9412095Y7553165D01*
X9447867D02*
X9473161Y7527871D01*
X9412095Y7553165D02*
X9447867D01*
X12108180Y6784340D02*
X12702540Y7378700D01*
X14366240D01*
X14909801Y7922260D01*
X15425420D01*
X15814040Y8310880D01*
X16219463Y8937510D02*
X16291409D01*
X16313000Y8959100D01*
X16163583Y8881630D02*
X16219463Y8937510D01*
X16134081Y8735060D02*
X16220441Y8821420D01*
X16147757Y8702040D02*
X16234117Y8788400D01*
X15978163Y8735060D02*
X16134081D01*
X15991840Y8702040D02*
X16147757D01*
X15938988Y8649188D02*
X15991840Y8702040D01*
X15905969Y8662866D02*
X15978163Y8735060D01*
X15938988Y8104651D02*
Y8649188D01*
X15905969Y8118329D02*
Y8662866D01*
X9441180Y6839243D02*
Y7048500D01*
Y6839243D02*
X9509271Y6771151D01*
X9396801Y7092100D02*
X9422095Y7066806D01*
X9422874D02*
X9441180Y7048500D01*
X9422095Y7066806D02*
X9422874D01*
X9518943Y6761480D02*
X9737383D01*
X9823743Y6675120D02*
X12299657D01*
X9737383Y6761480D02*
X9823743Y6675120D01*
X9509271Y6771151D02*
X9509272D01*
X12299657Y6675120D02*
X12853377Y7228840D01*
X9509272Y6771151D02*
X9518943Y6761480D01*
X9396801Y7127871D02*
X9422095Y7153166D01*
X9396801Y7092100D02*
Y7127871D01*
X9422095Y7153166D02*
X9441706D01*
X9449361Y7160821D01*
Y7209155D01*
X12853377Y7228840D02*
X14490700D01*
X14528799Y7266940D01*
X14528799D01*
X14993620Y7731760D01*
X15566096D01*
X16234117Y8788400D02*
X16383977D01*
X16421100Y8825523D01*
Y8945880D01*
X16506709Y9031490D01*
X16545410D01*
X16567000Y9009900D01*
X9439981Y7096396D02*
X9474200Y7062177D01*
Y6852920D02*
Y7062177D01*
X9439981Y7096396D02*
Y7109986D01*
X9532620Y6794500D02*
X9751060D01*
X9837420Y6708140D02*
X12285980D01*
X9474200Y6852920D02*
X9532620Y6794500D01*
X12285980Y6708140D02*
X12758420Y7180580D01*
X9751060Y6794500D02*
X9837420Y6708140D01*
X12758420Y7180580D02*
X12839700Y7261860D01*
X12758420Y7180580D02*
X12758420D01*
X12839700Y7261860D02*
X14477023D01*
X14979942Y7764780D01*
X15552420D01*
X16220441Y8821420D02*
X16370300D01*
X16388080Y8839200D01*
Y8959557D01*
X16493033Y9064510D01*
X16545410D01*
X16567000Y9086100D01*
X15566096Y7731760D02*
X15938988Y8104651D01*
X15552420Y7764780D02*
X15905969Y8118329D01*
X16242551Y8650490D02*
X16545410D01*
X16228873Y8683510D02*
X16545410D01*
X16144240Y8552180D02*
X16242551Y8650490D01*
X16111220Y8565857D02*
X16228873Y8683510D01*
X16144240Y8034020D02*
Y8552180D01*
X16111220Y8061375D02*
Y8565857D01*
X16096565Y8046720D02*
X16111220Y8061375D01*
X16123920Y8013700D02*
X16144240Y8034020D01*
X16545410Y8683510D02*
X16567000Y8705100D01*
X10888980Y6540500D02*
X10939780Y6591300D01*
X10939780D01*
X10949452Y6600971D01*
X9260000Y7291617D02*
Y7310000D01*
Y7291617D02*
X9293860Y7257757D01*
X9260000Y7310000D02*
Y7318938D01*
X9293860Y7200270D02*
X9363200Y7130930D01*
X9293860Y7200270D02*
Y7257757D01*
X14615160Y7139940D02*
X15021561Y7546340D01*
X12902223Y7139940D02*
X14615160D01*
X15021561Y7546340D02*
X15495563D01*
X15995943Y8046720D01*
X16545410Y8650490D02*
X16567000Y8628900D01*
X10902657Y6507480D02*
X10963129Y6567951D01*
X9216820Y7288100D02*
X9260840Y7244080D01*
Y7186593D02*
Y7244080D01*
X9216820Y7288100D02*
Y7327886D01*
X9242114Y7353180D01*
X9277886D01*
X9260840Y7186593D02*
X9330180Y7117253D01*
X9313226Y7317840D02*
X9361880D01*
X9277886Y7353180D02*
X9313226Y7317840D01*
X14628838Y7106920D02*
X15035237Y7513320D01*
X12915900Y7106920D02*
X14628838D01*
X15035237Y7513320D02*
X15509241D01*
X16009621Y8013700D01*
X16123920D01*
X15995943Y8046720D02*
X16096565D01*
X8338820Y8788400D02*
X8895005D01*
X7749540Y8199120D02*
X8338820Y8788400D01*
X7749540Y7724140D02*
Y8199120D01*
X7617460Y7592060D02*
X7749540Y7724140D01*
X7617460Y6812280D02*
Y7592060D01*
X10963129Y6567951D02*
X12376931D01*
X12915900Y7106920D01*
X10949452Y6600971D02*
X12363254D01*
X12902223Y7139940D01*
X9976323Y6751320D02*
X12121857D01*
X9808683Y6918960D02*
X9905203Y6822440D01*
X9918370D01*
X9946640Y6794170D01*
Y6781003D02*
Y6794170D01*
Y6781003D02*
X9976323Y6751320D01*
X9822361Y6951980D02*
X9918881Y6855460D01*
X9932047D01*
X9979660Y6807847D01*
Y6794681D02*
Y6807847D01*
Y6794681D02*
X9990001Y6784340D01*
X12108180D01*
X9116060Y6738620D02*
Y7048500D01*
X9146540Y7078980D01*
X9082551Y6725432D02*
X9083040Y6725920D01*
Y7061200D01*
X9082551Y7061688D02*
X9083040Y7061200D01*
X9375588Y6372412D02*
X9626600Y6121400D01*
X9375588Y6372412D02*
Y6479092D01*
X9116060Y6738620D02*
X9375588Y6479092D01*
X9342568Y6358735D02*
X9612923Y6088380D01*
X9342568Y6358735D02*
Y6465415D01*
X9082551Y6725431D02*
X9342568Y6465415D01*
X9194800Y7162831D02*
X9266680Y7090951D01*
X9431020Y7291363D02*
X9458960Y7263423D01*
X9464040Y7305040D02*
X9634220Y7134860D01*
X9783161Y7416187D02*
X9873988Y7325360D01*
X10696429D01*
X9812020Y7337946D02*
X9857626Y7292340D01*
X10682751D01*
X9734886Y7409985D02*
X9739981D01*
X11162811Y7213111D02*
X11178540Y7228840D01*
X11696700D02*
X12212320Y7744460D01*
X14153857D01*
X15135860Y8726463D01*
Y8900160D01*
X15466060Y9230360D01*
Y9446260D01*
X15737840Y9718040D01*
X16413480D01*
X16488930Y9793490D01*
X16545410D01*
X16567000Y9771900D01*
X9739981Y7409985D02*
X9766186Y7383780D01*
X9768871D01*
X9812020Y7340631D01*
Y7337946D02*
Y7340631D01*
X9757875Y7453165D02*
X9783161Y7427879D01*
X9722095Y7453165D02*
X9757875D01*
X11149134Y7246131D02*
X11155191Y7252189D01*
X11155192D01*
X11164863Y7261860D01*
X11683023D02*
X12198643Y7777480D01*
X14140179D01*
X15102840Y8740140D01*
Y8913837D01*
X15433040Y9244037D01*
Y9459937D02*
X15724162Y9751060D01*
X15433040Y9244037D02*
Y9459937D01*
X15724162Y9751060D02*
X16399803D01*
X16475253Y9826510D01*
X16545410D01*
X16567000Y9848100D01*
X9629981Y7409985D02*
X9678915D01*
X9722095Y7453165D01*
X9783161Y7416187D02*
Y7427879D01*
X10696429Y7325360D02*
X10775657Y7246131D01*
X10682751Y7292340D02*
X10761980Y7213111D01*
X11164863Y7261860D02*
X11683023D01*
X11178540Y7228840D02*
X11696700D01*
X10775657Y7246131D02*
X11149134D01*
X10761980Y7213111D02*
X11162811D01*
X9885566Y7155180D02*
X10271760D01*
X9899243Y7188200D02*
X10285437D01*
X10271760Y7155180D02*
X10462260Y6964680D01*
X10462260D01*
X9730746Y7310000D02*
X9730865Y7310120D01*
X9738360D01*
X10462260Y6964680D02*
X10495280Y6931660D01*
X11466048D01*
X11605748Y7071360D01*
X12167577D01*
X12703517Y7607300D01*
X14291017D01*
X14834576Y8150860D01*
X15544800Y9088120D02*
X15679420Y9222740D01*
X16035770D01*
X16225520Y9412490D01*
X16545410D01*
X16567000Y9390900D01*
X9725660Y7266940D02*
X9740000Y7252600D01*
Y7220000D02*
Y7252600D01*
X9695180Y7292234D02*
Y7336246D01*
Y7292234D02*
X9720474Y7266940D01*
X9695180Y7336246D02*
X9712114Y7353180D01*
X9720354D02*
X9720474Y7353300D01*
X9712114Y7353180D02*
X9720354D01*
X9720474Y7266940D02*
X9725660D01*
X9781540Y7305903D02*
X9899243Y7188200D01*
X9720474Y7353300D02*
X9756246D01*
X9781540Y7305903D02*
Y7328006D01*
X9756246Y7353300D02*
X9781540Y7328006D01*
X10285437Y7188200D02*
X10508957Y6964680D01*
X11452371D01*
X11592071Y7104380D01*
X12153900D01*
X12689840Y7640320D01*
X14277341D01*
X14820900Y8183880D01*
X15511780Y9101797D02*
X15665742Y9255760D01*
X16022093D01*
X16211842Y9445510D01*
X16545410D01*
X16567000Y9467100D01*
X9779541Y7084602D02*
X9923238D01*
X9987280Y7020560D01*
X9765864Y7051582D02*
X9909561D01*
X9973603Y6987540D01*
X10264140D01*
X10429240Y6822440D01*
X9987280Y7020560D02*
X10277817D01*
X10442917Y6855460D01*
X9537700Y7367390D02*
X9575800Y7329290D01*
Y7241646D02*
Y7329290D01*
X12038037Y6822440D02*
X12667957Y7452360D01*
X9537700Y7367390D02*
Y7396480D01*
X12667957Y7452360D02*
X14288477D01*
X14847276Y8011160D01*
X16114737Y8999220D02*
X16169640Y9054123D01*
Y9222740D01*
X16232390Y9285490D01*
X16291409D01*
X16313000Y9263900D01*
X9532620Y7307580D02*
Y7325772D01*
X9608820Y7255323D02*
Y7342967D01*
X9504680Y7353712D02*
Y7368434D01*
X9494520Y7414366D02*
X9519814Y7439660D01*
X9494520Y7378594D02*
X9504680Y7368434D01*
X9494520Y7378594D02*
Y7414366D01*
X9504680Y7353712D02*
X9532620Y7325772D01*
X9580880Y7370907D02*
X9608820Y7342967D01*
X9519814Y7439660D02*
X9556071D01*
X9580880Y7370907D02*
Y7414851D01*
X9556071Y7439660D02*
X9580880Y7414851D01*
X12024360Y6855460D02*
X12654280Y7485380D01*
X14274800D01*
X14833600Y8044180D01*
X16101060Y9032240D02*
X16136620Y9067800D01*
Y9236417D01*
X16218713Y9318510D01*
X16291409D01*
X16313000Y9340100D01*
X9575800Y7241646D02*
X9765864Y7051582D01*
X10429240Y6822440D02*
X12038037D01*
X9608820Y7255323D02*
X9779541Y7084602D01*
X10442917Y6855460D02*
X12024360D01*
X9738360Y6583680D02*
X9814560Y6507480D01*
X10902657D01*
X9752037Y6616700D02*
X9828237Y6540500D01*
X10888980D01*
X9570300Y6489700D02*
X9662900Y6397100D01*
X9583977Y6522720D02*
X9667797Y6438900D01*
X9266680Y6679440D02*
Y7090951D01*
Y6679440D02*
X9456420Y6489700D01*
X9570300D01*
X9299700Y6693117D02*
Y7104628D01*
Y6693117D02*
X9470097Y6522720D01*
X9583977D01*
X9363200Y6773420D02*
Y7130930D01*
Y6773420D02*
X9519920Y6616700D01*
X9752037D01*
X9330180Y6759743D02*
Y7117253D01*
Y6759743D02*
X9506243Y6583680D01*
X9738360D01*
X12084343Y10828020D02*
X13859691D01*
X12098020Y10795000D02*
X13873367D01*
X10209993Y8867728D02*
X10223111D01*
X10188220Y8889500D02*
X10209993Y8867728D01*
X10223111D02*
X10255543Y8900160D01*
X10317480D01*
X10360660Y8943340D01*
Y9211017D02*
X10428263Y9278620D01*
X10360660Y8943340D02*
Y9211017D01*
X10428263Y9278620D02*
X10876280D01*
X11203940Y9606280D01*
X11605260D01*
X11696700Y9697720D01*
Y10440377D01*
X12084343Y10828020D01*
X15333980Y12532360D02*
X15358292Y12508049D01*
Y12326620D02*
Y12508049D01*
X10246360Y8844280D02*
X10269220Y8867140D01*
X10246360Y8802320D02*
Y8844280D01*
X10269220Y8867140D02*
X10331157D01*
X10393680Y8929663D01*
Y9197340D02*
X10441940Y9245600D01*
X10393680Y8929663D02*
Y9197340D01*
X10441940Y9245600D02*
X10889957D01*
X11217617Y9573260D01*
X11618937D01*
X11729720Y9684043D01*
Y10426700D02*
X12098020Y10795000D01*
X11729720Y9684043D02*
Y10426700D01*
X15391312Y12312943D02*
Y12508411D01*
X15415623Y12532723D01*
X13859691Y10828020D02*
X15358292Y12326620D01*
X13873367Y10795000D02*
X15391312Y12312943D01*
X12183403Y10711180D02*
X13956937D01*
X12197080Y10678160D02*
X13970615D01*
X10746740Y8941634D02*
X10777280Y8972174D01*
X10746740Y8892540D02*
Y8941634D01*
X10777280Y8972174D02*
Y8992637D01*
X10903243Y9118600D01*
X11097260D01*
X11170920Y9192260D01*
Y9358337D01*
X11307103Y9494520D01*
X11739880D01*
X11831320Y9585960D01*
Y10359097D02*
X12183403Y10711180D01*
X11831320Y9585960D02*
Y10359097D01*
X15494725Y12533085D02*
X15519037Y12508774D01*
Y12273280D02*
Y12508774D01*
X10840720Y8991600D02*
Y9009380D01*
X10916920Y9085580D01*
X11110937D01*
X11203940Y9178583D01*
Y9344660D01*
X11320780Y9461500D01*
X11753557D01*
X11864340Y9572283D01*
Y10345420D01*
X12197080Y10678160D01*
X15552057Y12259603D02*
Y12506597D01*
X15576369Y12530908D01*
X13956937Y10711180D02*
X15519037Y12273280D01*
X13970615Y10678160D02*
X15552057Y12259603D01*
X12283440Y10568940D02*
X14100879D01*
X12297117Y10535920D02*
X14114555D01*
X10471150Y8776970D02*
X10503877D01*
X10439400Y8808720D02*
X10471150Y8776970D01*
X10531147Y8749700D02*
X10667400D01*
X10503877Y8776970D02*
X10531147Y8749700D01*
X10667400D02*
X10784840Y8867140D01*
X10886440D01*
X11046460Y9027160D01*
X11610340D01*
X12009120Y9425940D01*
Y10294620D01*
X12283440Y10568940D01*
X15717882Y12185943D02*
Y12511315D01*
X15735300Y12528733D01*
Y12529820D01*
X10441940Y8712200D02*
X10473690Y8743950D01*
X10490200D01*
X10517470Y8716680D02*
X10681077D01*
X10490200Y8743950D02*
X10517470Y8716680D01*
X10681077D02*
X10798517Y8834120D01*
X10900117D01*
X11060137Y8994140D01*
X11624017D01*
X12032469Y9402591D01*
Y9402592D01*
X12042140Y9412263D01*
Y10280943D01*
X12297117Y10535920D01*
X15750902Y12481922D02*
X15778481Y12509500D01*
X15750902Y12172266D02*
Y12481922D01*
X15660551Y12528731D02*
X15673145D01*
X15760806Y12573000D02*
X15778481Y12555326D01*
Y12509500D02*
Y12555326D01*
X15673145Y12528731D02*
X15717413Y12573000D01*
X15760806D01*
X14100879Y10568940D02*
X15717882Y12185943D01*
X14114555Y10535920D02*
X15750902Y12172266D01*
X12312943Y10429240D02*
X14315440D01*
X12326620Y10396220D02*
X14329117D01*
X10459826Y8669020D02*
X10477006Y8686200D01*
X10745777D02*
X10760121Y8671856D01*
X10760121D01*
X10836617Y8595360D02*
X11318240D01*
X10760121Y8671856D02*
X10836617Y8595360D01*
X11318240D02*
X12110720Y9387840D01*
X10477006Y8686200D02*
X10745777D01*
X12110720Y10227017D02*
X12312943Y10429240D01*
X12110720Y9387840D02*
Y10227017D01*
X15902939Y12534901D02*
X15918178Y12550140D01*
X15956281D01*
X15976601Y12090400D02*
Y12529820D01*
X15956281Y12550140D02*
X15976601Y12529820D01*
X10473503Y8636000D02*
X10490683Y8653180D01*
X10732100D01*
X10822940Y8562340D02*
X11331917D01*
X10732100Y8653180D02*
X10822940Y8562340D01*
X11331917D02*
X12143740Y9374163D01*
Y10213340D01*
X12326620Y10396220D01*
X15821660Y12537440D02*
Y12538167D01*
X15866653Y12583160D01*
X16009621Y12076723D02*
Y12543497D01*
X15969957Y12583160D02*
X16009621Y12543497D01*
X15866653Y12583160D02*
X15969957D01*
X14315440Y10429240D02*
X15976601Y12090400D01*
X14329117Y10396220D02*
X16009621Y12076723D01*
X14820900Y8183880D02*
X15041879D01*
X15511780Y8653780D01*
Y9101797D01*
X14834576Y8150860D02*
X15055557D01*
X15544800Y8640103D01*
Y9088120D01*
X15692120Y8963660D02*
X15760699Y9032240D01*
X16101060D01*
X15725140Y8949983D02*
X15774377Y8999220D01*
X16114737D01*
X14833600Y8044180D02*
X15143480D01*
X15692120Y8592820D01*
Y8963660D01*
X14847276Y8011160D02*
X15157156D01*
X15725140Y8579143D01*
Y8949983D01*
X9263380Y6342380D02*
Y6429023D01*
Y6342380D02*
X9822180Y5783580D01*
X9230360Y6328703D02*
Y6415346D01*
Y6328703D02*
X9808503Y5750560D01*
X12341860Y5783580D02*
X12522520Y5964240D01*
Y6366085D02*
X12532098Y6375662D01*
X12522520Y5964240D02*
Y6366085D01*
X12532098Y6375662D02*
X12859496Y6703060D01*
X12532098Y6375662D02*
Y6375662D01*
X9041181Y7091184D02*
X9059982Y7109986D01*
X9041181Y6651223D02*
Y7091184D01*
Y6651223D02*
X9263380Y6429023D01*
X12859496Y6703060D02*
X14709140D01*
X14801851Y6795771D01*
Y7098031D02*
X15097760Y7393940D01*
X14801851Y6795771D02*
Y7098031D01*
X15097760Y7393940D02*
X15478760D01*
X15991840Y7907020D01*
X16118840D01*
X16182339Y7970520D01*
Y8128227D01*
X16229623Y8175510D01*
X16291409D01*
X16313000Y8197100D01*
X16243300Y8142490D02*
X16291409D01*
X16215359Y8114550D02*
X16243300Y8142490D01*
X16215359Y7956843D02*
Y8114550D01*
X16132516Y7874000D02*
X16215359Y7956843D01*
X16291409Y8142490D02*
X16313000Y8120900D01*
X12355537Y5750560D02*
X12370777Y5765800D01*
X12370551Y5766026D02*
X12555220Y5950695D01*
Y6352087D01*
X12565118Y6361985D01*
Y6361985D01*
X9008161Y7140091D02*
X9061880Y7193811D01*
X9008161Y6637546D02*
Y7140091D01*
X9061880Y7193811D02*
Y7217840D01*
X9008161Y6637546D02*
X9230360Y6415346D01*
X12565118Y6361985D02*
X12873172Y6670040D01*
X14722816D01*
X14834871Y6782093D01*
Y7084353D02*
X15111436Y7360920D01*
X14834871Y6782093D02*
Y7084353D01*
X15111436Y7360920D02*
X15492438D01*
X16005518Y7874000D01*
X16132516D01*
X9822180Y5783580D02*
X12341860D01*
X9808503Y5750560D02*
X12355537D01*
X9021946Y7386949D02*
Y7411392D01*
X8909566Y6637774D02*
Y7227871D01*
X12806509Y5686510D02*
X12830000Y5710000D01*
X8909566Y6637774D02*
X9161323Y6386017D01*
X9054966Y7397715D02*
X9116820Y7459569D01*
Y7572780D01*
X9161880Y7617840D01*
X8876546Y6624097D02*
Y7241548D01*
Y6624097D02*
X9128303Y6372340D01*
X12806509Y5653490D02*
X12830000Y5630000D01*
X9021946Y7411392D02*
X9083800Y7473246D01*
Y7639760D01*
X9161880Y7717840D01*
X8876546Y7241548D02*
X9021946Y7386949D01*
X8909566Y7227871D02*
X9054966Y7373272D01*
Y7397715D01*
X16139973Y7794510D02*
X16252483Y7907020D01*
X16339819D02*
X16403320Y7970520D01*
Y8253437D01*
X8823960Y7248183D02*
X8939982Y7364205D01*
X8823960Y6583680D02*
Y7248183D01*
X12520637Y5557520D02*
X12594297Y5483860D01*
X8823960Y6583680D02*
X9050020Y6357620D01*
X8944784Y7409985D02*
X8949982Y7404787D01*
X8939982Y7364205D02*
Y7409985D01*
X8944784D01*
X12594297Y5483860D02*
X13959840D01*
X15341600Y6865620D01*
X16545410Y8302510D02*
X16567000Y8324100D01*
X16452393Y8302510D02*
X16545410D01*
X16403320Y8253437D02*
X16452393Y8302510D01*
X16252483Y7907020D02*
X16339819D01*
X16011411Y7794510D02*
X16139973D01*
X15341600Y7124700D02*
X16011411Y7794510D01*
X15341600Y6865620D02*
Y7124700D01*
X16153650Y7761490D02*
X16266161Y7874000D01*
X16353497D02*
X16426669Y7947171D01*
Y7947172D01*
X16436340Y7956843D01*
X8790940Y7261860D02*
X8896802Y7367722D01*
X8790940Y6570003D02*
Y7261860D01*
X12506960Y5524500D02*
X12580620Y5450840D01*
X8790940Y6570003D02*
X9017000Y6343943D01*
X8896802Y7427871D02*
X8922096Y7453165D01*
X8896802Y7367722D02*
Y7427871D01*
X8922096Y7453165D02*
X8973162D01*
X9029982Y7509985D01*
X12580620Y5450840D02*
X13973517D01*
X15374620Y6851943D01*
X16545410Y8269490D02*
X16567000Y8247900D01*
X16466071Y8269490D02*
X16545410D01*
X16436340Y7956843D02*
Y8239760D01*
X16466071Y8269490D01*
X16266161Y7874000D02*
X16353497D01*
X15374620Y7111023D02*
X16025087Y7761490D01*
X16153650D01*
X15374620Y6851943D02*
Y7111023D01*
X14150340Y5364480D02*
X14986000Y6200140D01*
X16050259Y7688580D02*
X16133102D01*
X8509000Y7447280D02*
X8539480Y7477760D01*
X8662377D01*
X8760460Y7575843D01*
Y7599680D02*
X8836940Y7676160D01*
X8760460Y7575843D02*
Y7599680D01*
X8836940Y7676160D02*
X8918397D01*
X8928437Y7686200D01*
X8930240D01*
X8961880Y7717840D01*
X14986000Y6337300D02*
X15565120Y6916420D01*
X14986000Y6200140D02*
Y6337300D01*
X15565120Y7203440D02*
X16040100Y7678420D01*
X16040100D01*
X16050259Y7688580D01*
X16239034Y7794510D02*
X16291409D01*
X16313000Y7816100D01*
X16133102Y7688580D02*
X16239034Y7794510D01*
X15565120Y6916420D02*
Y7203440D01*
X14164017Y5331460D02*
X15009349Y6176791D01*
X16054266Y7645889D02*
X16137109D01*
X8475980Y7460957D02*
X8485651Y7470628D01*
Y7470629D01*
X8525803Y7510780D01*
X8648700D02*
X8727440Y7589520D01*
X8525803Y7510780D02*
X8648700D01*
X8727440Y7613357D02*
X8823263Y7709180D01*
X8727440Y7589520D02*
Y7613357D01*
X8823263Y7709180D02*
X8904720D01*
X8918700Y7723160D01*
Y7735726D01*
X9022946Y7717840D02*
X9061880D01*
X8918700Y7735726D02*
X8943995Y7761020D01*
X8979766D02*
X9022946Y7717840D01*
X8943995Y7761020D02*
X8979766D01*
X15009349Y6176791D02*
Y6176792D01*
X15019020Y6186463D01*
Y6323623D01*
X15598140Y6902743D01*
X16252710Y7761490D02*
X16291409D01*
X16313000Y7739900D01*
X15598140Y7189763D02*
X16054266Y7645889D01*
X16137109D02*
X16252710Y7761490D01*
X15598140Y6902743D02*
Y7189763D01*
X8437880Y7485380D02*
X8503920Y7551420D01*
X8597900D01*
X8837980Y7791500D01*
X14849350Y5217160D02*
X15010001Y5056510D01*
X9243300Y7599260D02*
Y7721360D01*
X8837980Y7791500D02*
X9173160D01*
X9243300Y7721360D01*
X15010001Y5056510D02*
X15216510D01*
X15239999Y5080000D01*
X8404860Y7499057D02*
X8490243Y7584440D01*
X9243300Y7499260D02*
Y7534602D01*
X8490243Y7584440D02*
X8584223D01*
X9210528Y7800829D02*
X9210529D01*
X8584223Y7584440D02*
X8824303Y7824520D01*
X9186837D02*
X9210528Y7800829D01*
X8824303Y7824520D02*
X9186837D01*
X9243300Y7534602D02*
X9289020Y7580322D01*
X9210529Y7800829D02*
X9276320Y7735037D01*
Y7630898D02*
X9289020Y7618198D01*
X9276320Y7630898D02*
Y7735037D01*
X14996323Y5023490D02*
X15216510D01*
X15239999Y5000000D01*
X14835674Y5184140D02*
X14996323Y5023490D01*
X9289020Y7580322D02*
Y7618198D01*
X8318500Y7487920D02*
X8453120Y7622540D01*
X8569960D01*
X8601220Y7653800D01*
X8601563D01*
X8646200Y7698437D02*
Y7698780D01*
X14821877Y5120640D02*
X14875217Y5067300D01*
X8601563Y7653800D02*
X8646200Y7698437D01*
Y7698780D02*
X8808720Y7861300D01*
X8968740D01*
X9034780Y7927340D01*
X9122626D01*
X9139982Y7909984D01*
X9147876D01*
X9150000Y7912108D01*
X14875217Y5067300D02*
X14875217D01*
X15275560Y4859020D02*
X15339059Y4922520D01*
X15083498Y4859020D02*
X15275560D01*
X14875217Y5067300D02*
X15083498Y4859020D01*
X15339059Y4922520D02*
Y6217920D01*
X15511780Y6390640D01*
Y6625297D01*
X15725140Y6838657D01*
Y7090117D01*
X15802904Y7167880D01*
Y7316763D01*
X16027400Y7541260D01*
X16133102D02*
X16285503Y7693660D01*
X16027400Y7541260D02*
X16133102D01*
X16285503Y7693660D02*
X16362680D01*
X16421100Y7752080D01*
Y7864817D01*
X16468121Y7911839D01*
X16468121D01*
X16477792Y7921510D01*
X16545410D01*
X16567000Y7943100D01*
X8285480Y7501597D02*
X8439443Y7655560D01*
X8556283D01*
X8587543Y7686820D01*
X8587886D02*
X8613180Y7712114D01*
X8587543Y7686820D02*
X8587886D01*
X15069820Y4826000D02*
X15289236D01*
X14808200Y5087620D02*
X15069820Y4826000D01*
X8613180Y7712114D02*
Y7712457D01*
X8795043Y7894320D01*
X8955063D01*
X9021103Y7960360D01*
X9183800D01*
X9229660Y7914500D01*
X15289236Y4826000D02*
X15362408Y4899171D01*
Y4899172D01*
X15372079Y4908843D01*
Y6204243D01*
X15544800Y6376963D01*
Y6611620D01*
X15758160Y6824980D01*
Y7076440D01*
X15835922Y7154203D01*
Y7303085D01*
X16041077Y7508240D01*
X16146780D01*
X16299181Y7660640D01*
X16376357D02*
X16454120Y7738403D01*
X16299181Y7660640D02*
X16376357D01*
X16454120Y7738403D02*
Y7851140D01*
X16491470Y7888490D01*
X16545410D01*
X16567000Y7866900D01*
X8646600Y7833800D02*
X8818880Y8006080D01*
X8966200Y8008620D02*
Y8016240D01*
X14832037Y4965700D02*
X15032697Y4765040D01*
X14832037Y4965700D02*
X14832037D01*
X14771077Y5026660D02*
X14832037Y4965700D01*
X8328660Y7619023D02*
Y7748563D01*
X8209280Y7499643D02*
X8328660Y7619023D01*
X15032697Y4765040D02*
X15331441D01*
X15448280Y4881880D01*
Y6140157D01*
X15681960Y6373837D01*
X8328660Y7748563D02*
X8413897Y7833800D01*
X8646600D01*
X15681960Y6601460D02*
X15882620Y6802120D01*
Y7147787D02*
X16148343Y7413510D01*
X15882620Y6802120D02*
Y7147787D01*
X16148343Y7413510D02*
X16291409D01*
X16313000Y7435100D01*
X15681960Y6373837D02*
Y6601460D01*
X8931542Y8039100D02*
X8947112Y8054670D01*
X8805203Y8039100D02*
X8931542D01*
X8632923Y7866820D02*
X8805203Y8039100D01*
X9019540Y8018780D02*
X9062720D01*
X8983650Y8054670D02*
X9019540Y8018780D01*
X8947112Y8054670D02*
X8983650D01*
X14757401Y4993640D02*
X15019020Y4732020D01*
X8295640Y7632700D02*
Y7762240D01*
X8176260Y7513320D02*
X8295640Y7632700D01*
X15019020Y4732020D02*
X15345117D01*
X15481300Y4868203D01*
Y6126480D01*
X15714980Y6360160D01*
X8295640Y7762240D02*
X8400220Y7866820D01*
X8632923D01*
X15714980Y6360160D02*
Y6587783D01*
X15915640Y6788443D01*
Y7134110D01*
X16162019Y7380490D01*
X16291409D01*
X16313000Y7358900D01*
X8777338Y8054340D02*
X8805278Y8082280D01*
X8351037Y8054340D02*
X8777338D01*
X8250000Y7953303D02*
X8351037Y8054340D01*
X8931617Y8082280D02*
X8934487Y8085150D01*
X8805278Y8082280D02*
X8931617D01*
X8964751Y8085150D02*
X8996820Y8117219D01*
X8934487Y8085150D02*
X8964751D01*
X9022114Y8143180D02*
X9022781D01*
X8996820Y8117886D02*
X9022114Y8143180D01*
X8996820Y8117219D02*
Y8117886D01*
X13867957Y4927600D02*
X13921297Y4874260D01*
X8080000Y7490000D02*
X8250000Y7660000D01*
Y7953303D01*
X9022781Y8143180D02*
X9061880Y8182280D01*
X13921297Y4874260D02*
X13968739D01*
X13992860Y4898380D01*
X8763661Y8087360D02*
X8791601Y8115300D01*
X8337360Y8087360D02*
X8763661D01*
X8216980Y7966980D02*
X8337360Y8087360D01*
X8917940Y8115300D02*
X8920810Y8118170D01*
X8791601Y8115300D02*
X8917940D01*
X8939111Y8118170D02*
X9018700Y8197760D01*
X8920810Y8118170D02*
X8939111D01*
X9048420Y8225460D02*
X9061880Y8238920D01*
X9043995Y8225460D02*
X9048420D01*
X9018700Y8200165D02*
X9043995Y8225460D01*
X9018700Y8197760D02*
Y8200165D01*
X9061880Y8238920D02*
Y8282280D01*
X13854280Y4894580D02*
X13907620Y4841240D01*
X8046980Y7503677D02*
X8216980Y7673677D01*
Y7966980D01*
X13907620Y4841240D02*
X13970000D01*
X13992860Y4818380D01*
X8130000Y7650000D02*
Y8047843D01*
X7983020Y7503020D02*
X8130000Y7650000D01*
X8210000Y8127843D02*
Y8300000D01*
X8130000Y8047843D02*
X8210000Y8127843D01*
X8473303Y8440000D02*
X8659821Y8253482D01*
X8916484D01*
X8210000Y8300000D02*
X8350000Y8440000D01*
X8473303D01*
X8916484Y8253482D02*
X8949982Y8219984D01*
X13514079Y4795520D02*
X13538200Y4819640D01*
X8096980Y7663677D02*
Y8061520D01*
X7996652Y7563349D02*
X8096980Y7663677D01*
X7996652Y7563349D02*
Y7563349D01*
X7950000Y7516697D02*
X7996652Y7563349D01*
X8096980Y8061520D02*
X8176980Y8141520D01*
Y8313678D01*
X8230000Y8366698D01*
Y8366698D01*
X8336322Y8473020D01*
X8486980D02*
X8673498Y8286502D01*
X8336322Y8473020D02*
X8486980D01*
X8673498Y8286502D02*
X8916502D01*
X8950000Y8320000D01*
X13515340Y4762500D02*
X13538200Y4739640D01*
X8050000Y7698503D02*
Y8230000D01*
X7890000Y7538503D02*
X8050000Y7698503D01*
X14598660Y4676140D02*
X14620239Y4697720D01*
X8929440Y8514720D02*
X8958540Y8485620D01*
X8334720Y8514720D02*
X8929440D01*
X8050000Y8230000D02*
X8334720Y8514720D01*
X8016980Y7712180D02*
Y8243677D01*
X7856980Y7552180D02*
X8016980Y7712180D01*
X14597380Y4640580D02*
X14620239Y4617720D01*
X8929440Y8556520D02*
X8958540Y8585620D01*
X8329823Y8556520D02*
X8929440D01*
X8016980Y8243677D02*
X8329823Y8556520D01*
X7020000Y8830000D02*
X7126652Y8936652D01*
X7996652D01*
X8046323Y8886980D02*
X8706980D01*
X8839110Y9019110D01*
X14936510Y4466510D02*
X14960001Y4490000D01*
X8839110Y9019110D02*
X8925050D01*
X8958540Y8985620D01*
X7996652Y8936652D02*
X8046323Y8886980D01*
X6986980Y8843678D02*
X7103303Y8960000D01*
X8060001Y8920000D02*
X8693302D01*
X7103303Y8960000D02*
X7103303D01*
X7112975Y8969672D01*
X8010329D01*
X8020000Y8960000D01*
X8020000D01*
X8060001Y8920000D01*
X8693302D02*
X8825432Y9052130D01*
X8925050D02*
X8958540Y9085620D01*
X8825432Y9052130D02*
X8925050D01*
X14936510Y4433490D02*
X14960001Y4410000D01*
X15566682Y4295140D02*
X15885159Y4613617D01*
X8419937Y9086980D02*
X8515329D01*
X8349937Y9016980D02*
X8419937Y9086980D01*
X6973678Y9016980D02*
X8349937D01*
X8620000Y9191651D02*
Y9441983D01*
X16203259Y6237240D02*
X16327325D01*
X16186501Y6220480D02*
X16203259Y6237240D01*
X16327325D02*
X16363960Y6200605D01*
Y6032217D02*
Y6200605D01*
X16328683Y5996940D02*
X16363960Y6032217D01*
X15963901Y5996940D02*
X16328683D01*
X15885159Y5918200D02*
X15963901Y5996940D01*
X15885159Y4613617D02*
Y5918200D01*
X9174480Y9305521D02*
X9176980Y9303021D01*
Y9303020D02*
Y9303021D01*
X9245000Y9235000D02*
X9335000D01*
X9366980Y9203020D01*
X9176980Y9303020D02*
X9245000Y9235000D01*
X8515329Y9086980D02*
X8620000Y9191651D01*
X6730000Y8773303D02*
X6973678Y9016980D01*
X9174480Y9305521D02*
Y9509760D01*
X15580360Y4262120D02*
X15918179Y4599940D01*
X8406260Y9120000D02*
X8501652D01*
X8336260Y9050000D02*
X8406260Y9120000D01*
X6960000Y9050000D02*
X8336260D01*
X8586980Y9205328D02*
Y9455660D01*
X9460000Y8990000D02*
X9469601D01*
X16202760Y6270260D02*
X16341003D01*
X16396980Y6214282D01*
X16186000Y6287020D02*
X16202760Y6270260D01*
X16396980Y6018540D02*
Y6214282D01*
X16342360Y5963920D02*
X16396980Y6018540D01*
X15977577Y5963920D02*
X16342360D01*
X15918179Y5904523D02*
X15977577Y5963920D01*
X15918179Y4599940D02*
Y5904523D01*
X9258678Y9268020D02*
X9348677D01*
X9358349Y9258349D01*
X9207500Y9319198D02*
X9258678Y9268020D01*
X9358349Y9258349D02*
X9358349D01*
X9400000Y9216698D01*
X8501652Y9120000D02*
X8586980Y9205328D01*
X6696980Y8786980D02*
X6960000Y9050000D01*
X9207500Y9319198D02*
Y9523437D01*
X8531860Y9711860D02*
X8576980Y9756980D01*
X8531860Y9228663D02*
Y9711860D01*
X16192839Y6735819D02*
X16335464Y6737101D01*
X9576980Y9034048D02*
Y9633020D01*
Y9034048D02*
X9613161Y8997868D01*
X9350000Y9860000D02*
X9576980Y9633020D01*
X9613161Y8930999D02*
X9661880Y8882280D01*
X9613161Y8930999D02*
Y8997868D01*
X16335464Y6737101D02*
X16466980Y6605585D01*
X8956980Y9756980D02*
X9060000Y9860000D01*
X16466980Y6022500D02*
Y6605585D01*
X16027400Y5582920D02*
X16466980Y6022500D01*
X15640480Y4146980D02*
X16027400Y4533900D01*
Y5582920D01*
X16186000Y6728980D02*
X16192839Y6735819D01*
X8498840Y9725538D02*
X8563303Y9790000D01*
X8498840Y9242340D02*
Y9725538D01*
X9610000Y9047726D02*
Y9646697D01*
Y9047726D02*
X9646181Y9011545D01*
X9363677Y9893020D02*
X9610000Y9646697D01*
X9646181Y8997979D02*
X9661880Y8982280D01*
X9646181Y8997979D02*
Y9011545D01*
X16344563Y6774700D02*
X16500000Y6619263D01*
X16206320Y6774700D02*
X16344563D01*
X9046323Y9893020D02*
X9363677D01*
X8943303Y9790000D02*
X9046323Y9893020D01*
X8563303Y9790000D02*
X8943303D01*
X16500000Y6008823D02*
Y6619263D01*
X16060420Y4520223D02*
Y5569243D01*
X16500000Y6008823D01*
X15654156Y4113960D02*
X16060420Y4520223D01*
X16186000Y6795020D02*
X16206320Y6774700D01*
X11490960Y4058920D02*
X15775940D01*
X11394440D02*
X11419840D01*
X11437620Y4076700D01*
X11473180D01*
X11490960Y4058920D01*
X11297920D02*
X11323320D01*
X11341100Y4076700D01*
X11376660D01*
X11394440Y4058920D01*
X11203940D02*
X11226800D01*
X11244580Y4076700D01*
X11280140D01*
X11297920Y4058920D01*
X11107420D02*
X11132820D01*
X11150600Y4076700D01*
X11186160D01*
X11203940Y4058920D01*
X11089640Y4076700D02*
X11107420Y4058920D01*
X11054080Y4076700D02*
X11089640D01*
X11036300Y4058920D02*
X11054080Y4076700D01*
X16215359Y4498340D02*
Y5219640D01*
X9865360Y9326880D02*
X9932670Y9259570D01*
Y8850630D02*
Y9259570D01*
X9865360Y9326880D02*
Y9413240D01*
X9890760Y8808720D02*
X9932670Y8850630D01*
X9799320Y8808720D02*
X9890760D01*
X9781540Y8826500D02*
X9799320Y8808720D01*
X15775940Y4058920D02*
X16215359Y4498340D01*
X8557260Y9936480D02*
X9535160D01*
X9710420Y9761220D01*
X8270240Y9649460D02*
X8557260Y9936480D01*
X9710420Y9568180D02*
Y9761220D01*
Y9568180D02*
X9865360Y9413240D01*
X8270240Y9204960D02*
Y9649460D01*
X8257540Y9192260D02*
X8257540D01*
X8270240Y9204960D01*
X8247868Y9182589D02*
X8257540Y9192260D01*
X6872166Y9182589D02*
X8247868D01*
X6561309Y8871731D02*
X6872166Y9182589D01*
X9738360Y8826500D02*
X9781540D01*
X9718040Y8806180D02*
X9738360Y8826500D01*
X9718040Y8726120D02*
X9761880Y8682280D01*
X9718040Y8726120D02*
Y8806180D01*
X16189999Y5245000D02*
X16215359Y5219640D01*
X16248380Y4484663D02*
Y5223380D01*
X9956019Y9282918D02*
Y9282919D01*
Y9282918D02*
X9965690Y9273247D01*
X9898380Y9340557D02*
X9956019Y9282919D01*
X9965690Y8836953D02*
Y9273247D01*
X9956019Y8827282D02*
X9965690Y8836953D01*
X9956019Y8827281D02*
Y8827282D01*
X9898380Y9340557D02*
Y9426917D01*
X9904437Y8775700D02*
X9956019Y8827281D01*
X9768460Y8775700D02*
X9904437D01*
X15789616Y4025900D02*
X16248380Y4484663D01*
X8543583Y9969500D02*
X9548837D01*
X9743440Y9774897D01*
X8246891Y9672809D02*
X8543583Y9969500D01*
X9743440Y9581857D02*
Y9774897D01*
Y9581857D02*
X9898380Y9426917D01*
X8237220Y9663137D02*
X8246891Y9672808D01*
Y9672809D01*
X8237220Y9218637D02*
Y9663137D01*
X8234191Y9215609D02*
X8237220Y9218637D01*
X6858489Y9215609D02*
X8234191D01*
X6537960Y8895080D02*
X6858489Y9215609D01*
X6537960Y8895080D02*
Y8895080D01*
X9761880Y8782280D02*
X9768460Y8775700D01*
X9752209Y8772609D02*
X9761880Y8782280D01*
X6528289Y8885408D02*
X6537960Y8895080D01*
X16248380Y5223380D02*
X16270000Y5245000D01*
X9050020Y6322060D02*
Y6357620D01*
Y6322060D02*
X9814560Y5557520D01*
X12520637D01*
X9017000Y6308383D02*
Y6343943D01*
Y6308383D02*
X9800883Y5524500D01*
X12506960D01*
X9161323Y6330137D02*
Y6386017D01*
Y6330137D02*
X9804950Y5686510D01*
X12806509D01*
X9128303Y6316460D02*
Y6372340D01*
Y6316460D02*
X9791273Y5653490D01*
X12806509D01*
X8509000Y6751320D02*
Y7447280D01*
Y6751320D02*
X9895840Y5364480D01*
X14150340D01*
X8475980Y6737643D02*
Y7460957D01*
Y6737643D02*
X9882163Y5331460D01*
X14164017D01*
X8437880Y6700520D02*
Y7485380D01*
Y6700520D02*
X9921240Y5217160D01*
X14849350D01*
X8404860Y6686843D02*
Y7499057D01*
Y6686843D02*
X9907563Y5184140D01*
X14835674D01*
X8318500Y6685280D02*
Y7487920D01*
Y6685280D02*
X9883140Y5120640D01*
X14821877D01*
X8285480Y6671603D02*
X9869463Y5087620D01*
X14808200D01*
X8285480Y6671603D02*
Y7501597D01*
X8209280Y6659880D02*
Y7499643D01*
Y6659880D02*
X9842500Y5026660D01*
X14771077D01*
X8176260Y6646203D02*
X9828823Y4993640D01*
X14757401D01*
X8176260Y6646203D02*
Y7513320D01*
X8080000Y6646920D02*
Y7490000D01*
Y6646920D02*
X9799320Y4927600D01*
X13867957D01*
X8046980Y6633243D02*
Y7503677D01*
Y6633243D02*
X9785643Y4894580D01*
X13854280D01*
X7983020Y6611820D02*
Y7503020D01*
Y6611820D02*
X9799320Y4795520D01*
X13514079D01*
X7950000Y6598143D02*
Y7516697D01*
Y6598143D02*
X9785643Y4762500D01*
X13515340D01*
X7890000Y6570220D02*
Y7538503D01*
Y6570220D02*
X9784080Y4676140D01*
X14598660D01*
X7856980Y6556543D02*
Y7552180D01*
Y6556543D02*
X9770403Y4643120D01*
X9867900D01*
X9870440Y4640580D01*
X14597380D01*
X9729550Y4466510D02*
X14936510D01*
X6986980Y7162383D02*
X9715873Y4433490D01*
X14936510D01*
X6696980Y7322843D02*
X9757703Y4262120D01*
X15580360D01*
X6696980Y7322843D02*
Y8786980D01*
X7020000Y7176060D02*
X9729550Y4466510D01*
X7020000Y7176060D02*
Y8830000D01*
X6986980Y7162383D02*
Y8843678D01*
X6730000Y7336520D02*
X9771380Y4295140D01*
X6650000Y7266660D02*
Y8800000D01*
Y7266660D02*
X9769680Y4146980D01*
X15640480D01*
X6616980Y7252983D02*
X9756003Y4113960D01*
X15654156D01*
X6616980Y7252983D02*
Y8813678D01*
X6561309Y7223271D02*
Y8871731D01*
Y7223271D02*
X9725660Y4058920D01*
X11036300D01*
X6528289Y7209594D02*
X9711983Y4025900D01*
X15789616D01*
X6528289Y7209594D02*
Y8885408D01*
X15925800Y6305843D02*
Y6672780D01*
X7756980Y6521923D02*
Y7605985D01*
Y6521923D02*
X9742463Y4536440D01*
X7756980Y7605985D02*
X7790000Y7639005D01*
Y7639006D01*
X7876980Y7725986D01*
X9742463Y4536440D02*
X15648940D01*
X15819119Y4706620D01*
Y6199163D01*
X7876980Y7725986D02*
Y8243677D01*
X9109818Y8548790D02*
X9128390D01*
X7876980Y8243677D02*
X8326323Y8693020D01*
X8965588D02*
X9109818Y8548790D01*
X8326323Y8693020D02*
X8965588D01*
X9128390Y8548790D02*
X9161880Y8582280D01*
X16153020Y6900000D02*
X16348418D01*
X16449040Y7000623D01*
Y7541260D01*
X16535400Y7627620D01*
X16810696D02*
X16959579Y7776503D01*
X16535400Y7627620D02*
X16810696D01*
X16524219Y8412480D02*
X16889436D01*
X16959579Y7776503D02*
Y8342337D01*
X16889436Y8412480D02*
X16959579Y8342337D01*
X16380188Y8556510D02*
X16524219Y8412480D01*
X16326970Y8556510D02*
X16380188D01*
X7790000Y6535600D02*
X9756140Y4569460D01*
X15635263D01*
X7790000Y6535600D02*
Y7592308D01*
X7910000Y7712308D01*
Y8230000D01*
X15635263Y4569460D02*
X15786099Y4720297D01*
X9096141Y8515770D02*
X9128390D01*
X7910000Y8230000D02*
X8340000Y8660000D01*
X8951910D02*
X9096141Y8515770D01*
X8340000Y8660000D02*
X8951910D01*
X9128390Y8515770D02*
X9161880Y8482280D01*
X15892780Y6319520D02*
Y6686457D01*
X16139343Y6933020D02*
X16334740D01*
X16416020Y7014300D01*
Y7554937D01*
X16521722Y7660640D01*
X16797020D01*
X16926559Y7790180D01*
Y8328660D01*
X16875760Y8379460D02*
X16926559Y8328660D01*
X16510541Y8379460D02*
X16875760D01*
X16366512Y8523490D02*
X16510541Y8379460D01*
X16326970Y8523490D02*
X16366512D01*
X15925800Y6672780D02*
X16153020Y6900000D01*
X15892780Y6686457D02*
X16139343Y6933020D01*
X15786099Y4720297D02*
Y6212840D01*
X15892780Y6319520D01*
X15819119Y6199163D02*
X15925800Y6305843D01*
X10985500Y4295140D02*
X11003280Y4312920D01*
X11038840D01*
X11056620Y4295140D01*
X11089640D02*
X11107420Y4312920D01*
X11142980D01*
X11160760Y4295140D01*
X11056620D02*
X11089640D01*
X11203940D02*
X11221720Y4312920D01*
X11257280D01*
X11275060Y4295140D01*
X11160760D02*
X11203940D01*
X11313160D02*
X11330940Y4312920D01*
X11366500D01*
X11384280Y4295140D01*
X11275060D02*
X11313160D01*
X11384280D02*
X15566682D01*
X9400000Y9051923D02*
Y9216698D01*
Y9051923D02*
X9430300Y9021623D01*
X9428480Y8921520D02*
X9460000Y8890000D01*
X9428480Y8921520D02*
Y8960454D01*
X9397280Y8991654D02*
X9428480Y8960454D01*
X9430300Y9005331D02*
Y9021623D01*
Y9005331D02*
X9445631Y8990000D01*
X9460000D01*
X9397280Y8991654D02*
Y9007945D01*
X9366980Y9038246D02*
Y9203020D01*
Y9038246D02*
X9397280Y9007945D01*
X8336280Y9197340D02*
X8453840D01*
X8498840Y9242340D01*
X8349957Y9164320D02*
X8467517D01*
X8531860Y9228663D01*
X10876280Y4295140D02*
X10894060Y4312920D01*
X10929620D01*
X10947400Y4295140D01*
X9771380D02*
X10876280D01*
X10947400D02*
X10985500D01*
X8586980Y9455660D02*
X8717280Y9585960D01*
X9144977D01*
X9207500Y9523437D01*
X8620000Y9441983D02*
X8730957Y9552940D01*
X9131300D02*
X9174480Y9509760D01*
X9077960Y9535160D02*
X9095740Y9552940D01*
X9042400Y9535160D02*
X9077960D01*
X9024620Y9552940D02*
X9042400Y9535160D01*
X9095740Y9552940D02*
X9131300D01*
X8976360Y9535160D02*
X8994140Y9552940D01*
X8940800Y9535160D02*
X8976360D01*
X8923020Y9552940D02*
X8940800Y9535160D01*
X8994140Y9552940D02*
X9024620D01*
X8864600Y9535160D02*
X8882380Y9552940D01*
X8829040Y9535160D02*
X8864600D01*
X8811260Y9552940D02*
X8829040Y9535160D01*
X8730957Y9552940D02*
X8811260D01*
X8882380D02*
X8923020D01*
X6730000Y8740140D02*
X6747780Y8722360D01*
Y8686800D02*
Y8722360D01*
X6730000Y8669020D02*
X6747780Y8686800D01*
X6730000Y8740140D02*
Y8773303D01*
Y8630920D02*
X6747780Y8613140D01*
Y8577580D02*
Y8613140D01*
X6730000Y8559800D02*
X6747780Y8577580D01*
X6730000Y8630920D02*
Y8669020D01*
Y8526780D02*
X6747780Y8509000D01*
Y8473440D02*
Y8509000D01*
X6730000Y8455660D02*
X6747780Y8473440D01*
X6730000Y8526780D02*
Y8559800D01*
Y8415020D02*
X6747780Y8397240D01*
Y8361680D02*
Y8397240D01*
X6730000Y8343900D02*
X6747780Y8361680D01*
X6730000Y7336520D02*
Y8343900D01*
Y8415020D02*
Y8455660D01*
X8867140Y9739200D02*
X8884920Y9756980D01*
X8831580Y9739200D02*
X8867140D01*
X8813800Y9756980D02*
X8831580Y9739200D01*
X8884920Y9756980D02*
X8956980D01*
X8760460Y9739200D02*
X8778240Y9756980D01*
X8724900Y9739200D02*
X8760460D01*
X8707120Y9756980D02*
X8724900Y9739200D01*
X8778240Y9756980D02*
X8813800D01*
X8576980D02*
X8707120D01*
X9151620Y9842220D02*
X9169400Y9860000D01*
X9116060Y9842220D02*
X9151620D01*
X9098280Y9860000D02*
X9116060Y9842220D01*
X9060000Y9860000D02*
X9098280D01*
X9235440Y9842500D02*
X9271000D01*
X9217660Y9860280D02*
X9217940Y9860000D01*
X9235440Y9842500D01*
X9169400Y9860000D02*
X9217940D01*
X9288500D02*
X9350000D01*
X9271000Y9842500D02*
X9288500Y9860000D01*
X9288780Y9860280D01*
X6616980Y8813678D02*
X6937142Y9133840D01*
X8272780D01*
X8336280Y9197340D01*
X6650000Y8800000D02*
X6950820Y9100820D01*
X8286457D02*
X8349957Y9164320D01*
X7891780Y9083040D02*
X7909560Y9100820D01*
X7856220Y9083040D02*
X7891780D01*
X7838440Y9100820D02*
X7856220Y9083040D01*
X8008620D02*
X8026400Y9100820D01*
X7973060Y9083040D02*
X8008620D01*
X7955280Y9100820D02*
X7973060Y9083040D01*
X7909560Y9100820D02*
X7955280D01*
X8130540Y9083040D02*
X8148320Y9100820D01*
X8094980Y9083040D02*
X8130540D01*
X8077200Y9100820D02*
X8094980Y9083040D01*
X8026400Y9100820D02*
X8077200D01*
X8148320D02*
X8286457D01*
X7774940Y9083040D02*
X7792720Y9100820D01*
X7739380Y9083040D02*
X7774940D01*
X7721600Y9100820D02*
X7739380Y9083040D01*
X7792720Y9100820D02*
X7838440D01*
X7658100Y9083040D02*
X7675880Y9100820D01*
X7622540Y9083040D02*
X7658100D01*
X7604760Y9100820D02*
X7622540Y9083040D01*
X7675880Y9100820D02*
X7721600D01*
X7548880Y9083040D02*
X7566660Y9100820D01*
X7513320Y9083040D02*
X7548880D01*
X7495540Y9100820D02*
X7513320Y9083040D01*
X7566660Y9100820D02*
X7604760D01*
X7437120Y9083040D02*
X7454900Y9100820D01*
X7401560Y9083040D02*
X7437120D01*
X7383780Y9100820D02*
X7401560Y9083040D01*
X6950820Y9100820D02*
X7383780D01*
X7454900D02*
X7495540D01*
D55*
X8755380Y12169140D02*
X9151620D01*
X8727440Y12108180D02*
X9151620D01*
X8625840Y11998960D02*
X9151620D01*
X8696960Y12054840D02*
X9151620D01*
X7740620Y10937240D02*
X7804120Y10873740D01*
X7955280D01*
X8013700Y10932160D01*
Y11087100D01*
X8118856Y11192256D01*
X9161780D01*
X6211620Y10805160D02*
X6840220D01*
X6074460Y10942320D02*
X6211620Y10805160D01*
X6840220D02*
X7086600Y11051540D01*
Y11457940D01*
X7588093Y11959433D01*
X8340568D01*
X8600440Y11943080D02*
X9151620D01*
X6375420Y10881360D02*
X6802120D01*
X6314460Y10942320D02*
X6375420Y10881360D01*
X6802120D02*
X7025640Y11104880D01*
Y11531600D01*
X7493000Y11998960D01*
X8529320Y12095480D02*
X8625840Y11998960D01*
X6394160Y11226058D02*
X6796222Y11628120D01*
X7007860D01*
X7434580Y12054840D02*
X8242300D01*
X7007860Y11628120D02*
X7434580Y12054840D01*
X8592820Y12158980D02*
X8696960Y12054840D01*
X8242300D02*
X8346440Y12158980D01*
X8592820D01*
X6234140Y11226058D02*
X6775902Y11767820D01*
X6931660D01*
X7272020Y12108180D02*
X8219440D01*
X6931660Y11767820D02*
X7272020Y12108180D01*
X8610600Y12225020D02*
X8727440Y12108180D01*
X8219440D02*
X8336280Y12225020D01*
X8610600D01*
X6154460Y11226058D02*
X6815602Y11887200D01*
X6924040D01*
X7205980Y12169140D01*
X8194040D01*
X8305800Y12280900D01*
X8643620D01*
X8755380Y12169140D01*
X5914460Y11226058D02*
X6667042Y11978640D01*
X6913880D01*
X7171169Y12235929D01*
X8149069D01*
X8242300Y12329160D01*
X8702040D01*
X8803640Y12227560D02*
X9151620D01*
X8702040Y12329160D02*
X8803640Y12227560D01*
X8531860Y11874500D02*
X8600440Y11943080D01*
X8340568Y11959433D02*
X8425500Y11874500D01*
X8531860D01*
X7493000Y11998960D02*
X8338960D01*
X8435480Y12095480D01*
X8529320D01*
D56*
X11350000Y8520000D02*
X11577760Y8747760D01*
X11082966Y8520000D02*
X11350000D01*
X10030460Y8196580D02*
X10154920Y8321040D01*
X10424160D01*
X10711180Y8341360D02*
X10838966D01*
X11577760Y8747760D02*
X11981180D01*
X10670540Y8382000D02*
X10711180Y8341360D01*
X10424160Y8321040D02*
X10485120Y8382000D01*
X10670540D01*
X10838966Y8341360D02*
X11016766Y8519160D01*
X11082126D02*
X11082966Y8520000D01*
X11016766Y8519160D02*
X11082126D01*
D68*
X17872479Y11339510D02*
D03*
D72*
X2519680Y11976100D02*
D03*
X11165840Y12491720D02*
D03*
X6852920Y7912100D02*
D03*
D73*
X2519680Y12230100D02*
D03*
X11419840Y11221720D02*
D03*
X11165840D02*
D03*
X11419840Y11475720D02*
D03*
X11165840D02*
D03*
X11419840Y11729720D02*
D03*
X11165840D02*
D03*
X11419840Y11983720D02*
D03*
X11165840D02*
D03*
X11419840Y12237720D02*
D03*
X11165840D02*
D03*
X11419840Y12491720D02*
D03*
X6852920Y8166100D02*
D03*
D74*
X11292840Y13126720D02*
D03*
D75*
X6850320Y13263840D02*
D03*
Y12263840D02*
D03*
Y11263840D02*
D03*
Y10263840D02*
D03*
X5425320D02*
D03*
Y11263840D02*
D03*
Y12263840D02*
D03*
Y13263840D02*
D03*
X8275320Y10513840D02*
D03*
Y11013840D02*
D03*
Y11763840D02*
D03*
Y12763840D02*
D03*
Y13763840D02*
D03*
D76*
X5425320Y11483840D02*
D03*
X8275320D02*
D03*
X6617320Y10053840D02*
D03*
X6137320D02*
D03*
X7562320D02*
D03*
X8042320D02*
D03*
D77*
X6617320Y10673839D02*
D03*
X5657320D02*
D03*
X8042320Y10673840D02*
D03*
X7082320D02*
D03*
D78*
X3916680Y8023860D02*
D03*
Y8373860D02*
D03*
X14455141Y13169901D02*
D03*
X14201140D02*
D03*
X13947141D02*
D03*
X13693140D02*
D03*
X13439140D02*
D03*
X13185139D02*
D03*
X14455141Y12915900D02*
D03*
X14201140D02*
D03*
X13947141D02*
D03*
X13693140D02*
D03*
X13439140D02*
D03*
X16741141Y13169901D02*
D03*
X16487140D02*
D03*
X16233141D02*
D03*
X15979140D02*
D03*
X15725140D02*
D03*
X15471140D02*
D03*
X16741141Y12915900D02*
D03*
X16487140D02*
D03*
X16233141D02*
D03*
X15979140D02*
D03*
X15725140D02*
D03*
D79*
X13724181Y11448720D02*
D03*
D80*
X13524181D02*
D03*
X13324181D02*
D03*
X13124181D02*
D03*
X12924181D02*
D03*
X12724180D02*
D03*
X12524180D02*
D03*
X13724181Y11248720D02*
D03*
X13524181D02*
D03*
X13324181D02*
D03*
X13124181D02*
D03*
X12924181D02*
D03*
X12724180D02*
D03*
X12524180D02*
D03*
D81*
X12624180Y11348720D02*
D03*
D82*
X4165600Y12453360D02*
D03*
Y13373360D02*
D03*
Y12913361D02*
D03*
D83*
X17528539Y3903979D02*
D03*
X2034540D02*
D03*
X2034540Y13936980D02*
D03*
X17528540Y13936980D02*
D03*
X16639999Y11689070D02*
D03*
Y5389070D02*
D03*
D84*
X2988280Y12919881D02*
D03*
Y13499879D02*
D03*
D85*
X2508280Y13219881D02*
D03*
D86*
X13185139Y12915900D02*
D03*
X15471140D02*
D03*
D87*
X7806360Y5608320D02*
D03*
X7350000Y4400000D02*
D03*
X7300000D02*
D03*
X7350000Y4470000D02*
D03*
X7300000D02*
D03*
X6800000Y6070000D02*
D03*
X4990000Y5060000D02*
D03*
X4940000D02*
D03*
X4890000D02*
D03*
X6742900Y5156200D02*
D03*
X7040080Y4838700D02*
D03*
X7390600Y5885180D02*
D03*
X7326959Y5892000D02*
D03*
X7268680Y5887720D02*
D03*
X6445720Y5161280D02*
D03*
X6996900Y5145240D02*
D03*
X6547320Y6114580D02*
D03*
X6996900Y5046980D02*
D03*
X6918160Y5041900D02*
D03*
X6417780Y5046980D02*
D03*
X6222200Y4942840D02*
D03*
X6265380D02*
D03*
X6308560D02*
D03*
X6501600Y5046180D02*
D03*
X6737020Y6045200D02*
D03*
X6493980Y6019800D02*
D03*
X6290780Y6238240D02*
D03*
X6333019Y6237440D02*
D03*
X6374600Y6238240D02*
D03*
Y4841240D02*
D03*
X4703280Y6258560D02*
D03*
X6371120Y6350000D02*
D03*
X6646380Y4937760D02*
D03*
X6770840D02*
D03*
X6707340Y4904740D02*
D03*
X6222200Y5572760D02*
D03*
X5726200Y5619180D02*
D03*
X5725510Y5462150D02*
D03*
X6714890Y6347460D02*
D03*
X7283920Y5242560D02*
D03*
X7329640D02*
D03*
X7375360D02*
D03*
X7466800Y5580380D02*
D03*
Y5626100D02*
D03*
X6946639Y5996639D02*
D03*
X6996639D02*
D03*
X7000000Y6080000D02*
D03*
X6410000Y6120000D02*
D03*
X6850000Y6110000D02*
D03*
X7085800Y4995800D02*
D03*
X4830000Y5060000D02*
D03*
X6258812Y5621020D02*
D03*
X6799986Y5169990D02*
D03*
X7169986Y5649989D02*
D03*
X7117080Y5504180D02*
D03*
X7169986Y5539989D02*
D03*
X7617460Y6812280D02*
D03*
X15270000Y3779520D02*
D03*
D88*
X8021320Y9503400D02*
D03*
X8160000Y9830000D02*
D03*
X7675880Y9833600D02*
D03*
X8160000Y9750000D02*
D03*
X7675880Y9753600D02*
D03*
X8021320Y9583400D02*
D03*
X6027420Y9583416D02*
D03*
Y9503416D02*
D03*
X9044940Y9431020D02*
D03*
X9254100Y9190060D02*
D03*
X9261880Y9082280D02*
D03*
X10132060Y8707120D02*
D03*
X11740000Y8110000D02*
D03*
X9361880Y7617840D02*
D03*
X11660000Y8110000D02*
D03*
X9361880Y7717840D02*
D03*
X13566141Y10022840D02*
D03*
X10927080Y8686800D02*
D03*
X10640000Y8900000D02*
D03*
Y8800000D02*
D03*
X10849978Y8919982D02*
D03*
X8961120Y7110000D02*
D03*
X9040000Y7290000D02*
D03*
X8940000Y7500000D02*
D03*
X8560000Y8980000D02*
D03*
X8660000D02*
D03*
Y9030000D02*
D03*
X8560000D02*
D03*
X8690000Y8740000D02*
D03*
X8947780Y8795380D02*
D03*
X8530000Y8740000D02*
D03*
X12830000Y5550000D02*
D03*
X16694000Y6160020D02*
D03*
X16189967Y10589979D02*
D03*
X16703000Y8930000D02*
D03*
X16700000Y8550000D02*
D03*
Y8170000D02*
D03*
Y7790000D02*
D03*
Y7410000D02*
D03*
Y7020000D02*
D03*
X16800000Y6640000D02*
D03*
X16186000Y6160020D02*
D03*
X16569540Y6668020D02*
D03*
X15239999Y4920000D02*
D03*
Y5160000D02*
D03*
X9107817Y7389500D02*
D03*
X16691460Y6601980D02*
D03*
Y6414020D02*
D03*
X13670000Y8300000D02*
D03*
Y8540000D02*
D03*
X16694000Y6347980D02*
D03*
X16567000Y6063500D02*
D03*
X16821001Y9365500D02*
D03*
Y9746500D02*
D03*
Y10127500D02*
D03*
Y10508500D02*
D03*
Y10889500D02*
D03*
X16567000Y11016500D02*
D03*
Y10762500D02*
D03*
Y10381500D02*
D03*
Y10000500D02*
D03*
Y9619500D02*
D03*
Y9238500D02*
D03*
Y8857500D02*
D03*
Y8476500D02*
D03*
Y8095500D02*
D03*
Y7714500D02*
D03*
Y7333500D02*
D03*
Y6952500D02*
D03*
X16059000Y11016500D02*
D03*
Y10762500D02*
D03*
Y10508500D02*
D03*
Y10254500D02*
D03*
Y10127500D02*
D03*
Y10000500D02*
D03*
Y9619500D02*
D03*
Y9492500D02*
D03*
Y9111500D02*
D03*
Y8933700D02*
D03*
Y8654300D02*
D03*
Y8476500D02*
D03*
Y8095500D02*
D03*
Y7968500D02*
D03*
Y7587500D02*
D03*
Y7460500D02*
D03*
Y7079500D02*
D03*
Y6952500D02*
D03*
Y6571500D02*
D03*
Y6444500D02*
D03*
Y6063500D02*
D03*
X16313000Y7206500D02*
D03*
Y7587500D02*
D03*
X16313499Y7970000D02*
D03*
X16313000Y8349500D02*
D03*
Y8730500D02*
D03*
Y9111500D02*
D03*
Y9492500D02*
D03*
Y10381500D02*
D03*
Y10889500D02*
D03*
Y10254500D02*
D03*
X16567000Y10889500D02*
D03*
X16821001Y11016500D02*
D03*
X16313000Y10000500D02*
D03*
X16059000Y10381500D02*
D03*
X16313000Y10508500D02*
D03*
X16059000Y10635500D02*
D03*
X16313000Y10762500D02*
D03*
Y11016500D02*
D03*
X16059000Y10889500D02*
D03*
X9360000Y8490000D02*
D03*
X9454100Y8490060D02*
D03*
X9563100Y8478520D02*
D03*
X9654100Y8490060D02*
D03*
X9761880Y8482280D02*
D03*
X9754100Y8390060D02*
D03*
X9854100Y8490060D02*
D03*
X10022840Y8483600D02*
D03*
X16350000Y5245000D02*
D03*
X9661880Y8682280D02*
D03*
X9654100Y8590060D02*
D03*
Y8790060D02*
D03*
X9565640Y8788400D02*
D03*
X9454100Y9190060D02*
D03*
X9569981Y8979982D02*
D03*
X9461880Y9082280D02*
D03*
X10734100Y8990060D02*
D03*
X10030000Y9090000D02*
D03*
X9861880Y9082280D02*
D03*
X10100000Y9350000D02*
D03*
X11480000Y9310000D02*
D03*
X9360940Y8682280D02*
D03*
Y8782280D02*
D03*
X7942580Y8747740D02*
D03*
X9490000Y9530000D02*
D03*
X9430000D02*
D03*
X9490000Y9410000D02*
D03*
X9430000D02*
D03*
X9250680Y9413240D02*
D03*
X8160000Y9670000D02*
D03*
X10030000Y9190000D02*
D03*
X11250000Y7170000D02*
D03*
X8500000Y8330000D02*
D03*
X8720000Y8160000D02*
D03*
X8820000D02*
D03*
Y8210000D02*
D03*
X8320000Y8330000D02*
D03*
X8501220Y8152320D02*
D03*
X8321220D02*
D03*
X8720000Y8210000D02*
D03*
X8800000Y8380000D02*
D03*
Y8440000D02*
D03*
X8700000Y8380000D02*
D03*
Y8440000D02*
D03*
X11370000Y8280000D02*
D03*
Y8340000D02*
D03*
X11270000Y8280000D02*
D03*
Y8340000D02*
D03*
X11350000Y7630000D02*
D03*
Y7690000D02*
D03*
X11250000Y7630000D02*
D03*
Y7690000D02*
D03*
Y7410000D02*
D03*
X11350000D02*
D03*
Y7360000D02*
D03*
X11250000D02*
D03*
X10830000Y8290000D02*
D03*
X10940000Y8100000D02*
D03*
X11580000Y8110000D02*
D03*
X10940000Y7110000D02*
D03*
X10840000D02*
D03*
X10740000D02*
D03*
X10640000D02*
D03*
X10230000Y7520000D02*
D03*
X10040000Y7720000D02*
D03*
X11030000Y9190000D02*
D03*
X10740000Y9090000D02*
D03*
X10540000Y8610000D02*
D03*
X10240000Y8590000D02*
D03*
X10550000Y8320000D02*
D03*
X10250000Y8210000D02*
D03*
X10340000Y7910000D02*
D03*
X10530000Y7610000D02*
D03*
X10659979Y7517999D02*
D03*
X10932160Y7523480D02*
D03*
X10630000Y7390000D02*
D03*
X10030000Y8390000D02*
D03*
X8960000Y7610000D02*
D03*
X9450000D02*
D03*
X9750000Y7720000D02*
D03*
X10026320Y7817840D02*
D03*
X11070000Y7150000D02*
D03*
X10740000Y7010000D02*
D03*
X10050000Y7100000D02*
D03*
X9854100Y7510060D02*
D03*
X9550000Y7610000D02*
D03*
X9937160Y8018780D02*
D03*
X9456420Y8793480D02*
D03*
X9151620Y8696960D02*
D03*
X9250680Y8806180D02*
D03*
X9254100Y8590060D02*
D03*
X9674860Y9194800D02*
D03*
X9854100Y8290060D02*
D03*
X9454100D02*
D03*
X8947500Y8410000D02*
D03*
X9554100Y8590060D02*
D03*
X9354100D02*
D03*
X9054100Y9190060D02*
D03*
X8954100D02*
D03*
X9054100Y8990060D02*
D03*
Y9090060D02*
D03*
X9854100Y8890060D02*
D03*
Y8990060D02*
D03*
X9554100Y8890060D02*
D03*
X10834100Y8690060D02*
D03*
X10634100Y8990060D02*
D03*
X10534100D02*
D03*
X10234100D02*
D03*
X9050020Y8702040D02*
D03*
X7675881Y9911919D02*
D03*
X8021320Y9663400D02*
D03*
X8160000Y9910000D02*
D03*
X8021320Y9423400D02*
D03*
X9558020Y8282940D02*
D03*
X10022840D02*
D03*
X9761220Y8285480D02*
D03*
X9060180Y8384540D02*
D03*
X6027420Y9663416D02*
D03*
X9159240Y7018020D02*
D03*
X7942580Y8827740D02*
D03*
X10026320Y7617840D02*
D03*
X10126320Y7717840D02*
D03*
X9561880Y7817840D02*
D03*
X9161880Y8982280D02*
D03*
X9154100Y8890060D02*
D03*
X9661880Y7717840D02*
D03*
X10660000Y8590000D02*
D03*
X10426320Y8482280D02*
D03*
X10126320Y8382280D02*
D03*
X9654100Y8290060D02*
D03*
X10030460Y8196580D02*
D03*
X7675881Y9671919D02*
D03*
X9754100Y8590060D02*
D03*
X9461880Y8682280D02*
D03*
X9862820Y8382000D02*
D03*
X9661880Y8382280D02*
D03*
X9461880D02*
D03*
X11666220Y6501100D02*
D03*
Y6261100D02*
D03*
X9454100Y8590060D02*
D03*
X9151620Y8088500D02*
D03*
X12301220Y9502140D02*
D03*
X12578080Y9705340D02*
D03*
X12485793Y9708727D02*
D03*
X12509500Y10248900D02*
D03*
X12684760Y10292080D02*
D03*
X6027420Y9423416D02*
D03*
X10334100Y8490060D02*
D03*
Y8390060D02*
D03*
Y8590060D02*
D03*
X7942580Y8587740D02*
D03*
X9756140Y8900160D02*
D03*
X9552940Y8689340D02*
D03*
X9174480Y12374880D02*
D03*
X9484360Y12311380D02*
D03*
X9500800Y11852840D02*
D03*
X9170600Y11791880D02*
D03*
X8908980Y11883320D02*
D03*
Y12282100D02*
D03*
X9169400Y10972800D02*
D03*
X9493180Y11045120D02*
D03*
X9480620Y11520240D02*
D03*
X9189720Y11590020D02*
D03*
X10642600Y7894320D02*
D03*
X10033000Y7513320D02*
D03*
X10429240Y8592820D02*
D03*
X10243820Y8404860D02*
D03*
X9044100Y8900060D02*
D03*
X8420000Y7910000D02*
D03*
X8570000D02*
D03*
X8500000D02*
D03*
X8420000Y7730000D02*
D03*
X8490000D02*
D03*
X8570000D02*
D03*
X8320000Y8250000D02*
D03*
X8500000D02*
D03*
X13566141Y9766300D02*
D03*
X13568680Y9895840D02*
D03*
X11390000Y10090000D02*
D03*
X9160000Y6920000D02*
D03*
X8580000Y7420000D02*
D03*
Y7360000D02*
D03*
X8680000Y7420000D02*
D03*
Y7360000D02*
D03*
X8580000Y7270000D02*
D03*
Y7210000D02*
D03*
X9354100Y8990060D02*
D03*
X10650000Y8010000D02*
D03*
X10240000Y8090000D02*
D03*
X10020000Y9350000D02*
D03*
Y9540000D02*
D03*
X10080000D02*
D03*
X10210000D02*
D03*
X10280000D02*
D03*
X10360000D02*
D03*
X10440000D02*
D03*
X10450000Y9120000D02*
D03*
X10200000Y9360000D02*
D03*
X11040000Y7690000D02*
D03*
X9540000Y6680000D02*
D03*
X9610000D02*
D03*
X9680000D02*
D03*
X9610000Y6870000D02*
D03*
X9540000D02*
D03*
X11290000Y9220000D02*
D03*
Y9130000D02*
D03*
X11480000Y9220000D02*
D03*
Y9130000D02*
D03*
X9636760Y9692640D02*
D03*
X10110000Y6620000D02*
D03*
X10200000D02*
D03*
X7960000Y8180000D02*
D03*
X8120000Y8230000D02*
D03*
X11470000Y8820000D02*
D03*
X9860000Y7610000D02*
D03*
X7820000Y7970000D02*
D03*
X7942580Y8667740D02*
D03*
X10030000Y8890000D02*
D03*
X9659981Y9089982D02*
D03*
X9759980Y8979982D02*
D03*
X9880000Y9200160D02*
D03*
X8840000Y7940000D02*
D03*
X10030000Y6620000D02*
D03*
X10120000Y6910000D02*
D03*
X10200000D02*
D03*
X9161780Y11130280D02*
D03*
Y11192256D02*
D03*
Y11254232D02*
D03*
Y11316208D02*
D03*
Y11378184D02*
D03*
Y11440160D02*
D03*
X9151620Y11943080D02*
D03*
Y11999976D02*
D03*
Y12056872D02*
D03*
Y12113768D02*
D03*
Y12170664D02*
D03*
Y12227560D02*
D03*
X10280000Y9360000D02*
D03*
X9690000Y6870000D02*
D03*
X9040000Y11530000D02*
D03*
Y11030000D02*
D03*
X9754260Y7610220D02*
D03*
X10033000Y7901940D02*
D03*
X9160000Y7507460D02*
D03*
X10845800Y7302500D02*
D03*
X9749980Y7809984D02*
D03*
X10140000Y7810500D02*
D03*
X9859980Y7819984D02*
D03*
X9649981D02*
D03*
X9449981D02*
D03*
X9859980Y7909984D02*
D03*
X9739981Y7889984D02*
D03*
X10330000Y7710000D02*
D03*
X11640000Y8510000D02*
D03*
X11981180Y8747760D02*
D03*
X11031220Y7520940D02*
D03*
X11370000Y8060000D02*
D03*
X12393507Y9502140D02*
D03*
X10126320Y7617840D02*
D03*
X12485793Y9502140D02*
D03*
X10126320Y7517840D02*
D03*
X12578080Y9502140D02*
D03*
X10039980Y7389985D02*
D03*
X10933540Y7670877D02*
D03*
X10839978Y8109984D02*
D03*
X11290000Y9310000D02*
D03*
X10019980Y8989982D02*
D03*
X10139980Y8999982D02*
D03*
X10329979Y8779982D02*
D03*
X8839982Y8899982D02*
D03*
X9549981Y8379983D02*
D03*
X9342120Y7806100D02*
D03*
X9453880Y8196580D02*
D03*
X9440000Y7900000D02*
D03*
X8530000Y8600000D02*
D03*
X8690000Y8610000D02*
D03*
X9739981Y8199984D02*
D03*
X9866160Y8195640D02*
D03*
X10029980Y8029984D02*
D03*
X9860000Y7713700D02*
D03*
X9249981Y8679983D02*
D03*
X9450000Y7710000D02*
D03*
X9550000D02*
D03*
X10535920Y8191500D02*
D03*
X9350000Y7910000D02*
D03*
X10854040Y7410000D02*
D03*
X10831796Y7711796D02*
D03*
X9359981Y8889982D02*
D03*
X11820000Y8110000D02*
D03*
X9654100Y8190060D02*
D03*
X9554100D02*
D03*
X9161880Y8382280D02*
D03*
X13670000Y8460000D02*
D03*
X9161880Y8282280D02*
D03*
X13670000Y8380000D02*
D03*
X9650000Y7900000D02*
D03*
X9550000D02*
D03*
X9346206Y8309887D02*
D03*
X9449064Y8019380D02*
D03*
X9749980Y8089984D02*
D03*
X9649981Y8019984D02*
D03*
X9559981D02*
D03*
X10939780Y7993380D02*
D03*
X10860000Y8010000D02*
D03*
X11270000Y8060000D02*
D03*
X11370000Y8000000D02*
D03*
X11270000D02*
D03*
X16567000Y10152900D02*
D03*
Y10229100D02*
D03*
X9261880Y8182280D02*
D03*
X9161880D02*
D03*
X16367760Y9817100D02*
D03*
X9860000Y7410000D02*
D03*
X9654040Y7610000D02*
D03*
X9751060Y7510780D02*
D03*
X9350000Y7410000D02*
D03*
X9527540Y7109460D02*
D03*
X9654540Y7510780D02*
D03*
X9568180Y7523480D02*
D03*
X9652000Y7306516D02*
D03*
X9738360Y7018020D02*
D03*
X10030000Y6910000D02*
D03*
X9161880Y7317840D02*
D03*
X16696539Y6541020D02*
D03*
X9240000Y7420000D02*
D03*
X11666220Y6341100D02*
D03*
X16696539Y6474980D02*
D03*
X9342120Y7216140D02*
D03*
X11666220Y6421100D02*
D03*
X14229080Y7038320D02*
D03*
Y6798320D02*
D03*
X12830000Y5790000D02*
D03*
X9146540Y7106920D02*
D03*
X14229080Y6958320D02*
D03*
X9151620Y7200900D02*
D03*
X14229080Y6878320D02*
D03*
X9429981Y7509985D02*
D03*
X16313000Y8882900D02*
D03*
X9339981Y7499985D02*
D03*
X16313000Y8959100D02*
D03*
X9449361Y7209155D02*
D03*
X16567000Y9009900D02*
D03*
X9439981Y7109986D02*
D03*
X16567000Y9086100D02*
D03*
Y8705100D02*
D03*
X9260000Y7310000D02*
D03*
X16567000Y8628900D02*
D03*
X9361880Y7317840D02*
D03*
X8680000Y7210000D02*
D03*
Y7270000D02*
D03*
X16193620Y6977900D02*
D03*
Y7054100D02*
D03*
X9040000Y8100000D02*
D03*
X9060000Y7880000D02*
D03*
X16186000Y6347980D02*
D03*
Y6668020D02*
D03*
X7670000Y7920000D02*
D03*
X16115437Y5242734D02*
D03*
X16569540Y6855980D02*
D03*
X16186000D02*
D03*
X16758920Y6002020D02*
D03*
X16827499Y6187440D02*
D03*
X16311880Y6126480D02*
D03*
X16567000Y9771900D02*
D03*
X9739981Y7409985D02*
D03*
X16567000Y9848100D02*
D03*
X9629981Y7409985D02*
D03*
X10340000Y7220000D02*
D03*
X11350000Y7110000D02*
D03*
Y7170000D02*
D03*
X11250000Y7110000D02*
D03*
X9738360Y7310120D02*
D03*
X16567000Y9390900D02*
D03*
X9740000Y7220000D02*
D03*
X16567000Y9467100D02*
D03*
X9537700Y7396480D02*
D03*
X16313000Y9263900D02*
D03*
X9532620Y7307580D02*
D03*
X16313000Y9340100D02*
D03*
X11044600Y8702040D02*
D03*
X11129600D02*
D03*
X10850000Y8420000D02*
D03*
X10744200Y8491220D02*
D03*
X9862820Y8580120D02*
D03*
X11350000Y8900000D02*
D03*
X11250000D02*
D03*
X11350000Y8840000D02*
D03*
X11250000D02*
D03*
X10838180Y8783320D02*
D03*
X9850120Y8696960D02*
D03*
X10025380Y8587740D02*
D03*
X10033000Y8783320D02*
D03*
X9942064Y8587740D02*
D03*
X9906000Y8704580D02*
D03*
X10130000Y8890000D02*
D03*
X10241280Y9093200D02*
D03*
X10436860Y8981440D02*
D03*
X10317480Y8989060D02*
D03*
X10370000Y9360000D02*
D03*
X10430000D02*
D03*
X10548620Y8803640D02*
D03*
X10188220Y8889500D02*
D03*
X15333980Y12532360D02*
D03*
X10246360Y8802320D02*
D03*
X15415623Y12532723D02*
D03*
X10746740Y8892540D02*
D03*
X15494725Y12533085D02*
D03*
X10840720Y8991600D02*
D03*
X15576369Y12530908D02*
D03*
X10439400Y8808720D02*
D03*
X15735300Y12529820D02*
D03*
X10441940Y8712200D02*
D03*
X15660551Y12528731D02*
D03*
X10152380Y8796020D02*
D03*
X15902939Y12534901D02*
D03*
X15821660Y12537440D02*
D03*
X9059982Y7109986D02*
D03*
X16313000Y8197100D02*
D03*
Y8120900D02*
D03*
X9061880Y7217840D02*
D03*
X12830000Y5710000D02*
D03*
X9161880Y7617840D02*
D03*
X16694000Y6287020D02*
D03*
X12830000Y5630000D02*
D03*
X9161880Y7717840D02*
D03*
X16694000Y6220980D02*
D03*
X8939982Y7409985D02*
D03*
X16567000Y8324100D02*
D03*
X9029982Y7509985D02*
D03*
X16567000Y8247900D02*
D03*
X8961880Y7717840D02*
D03*
X16313000Y7816100D02*
D03*
X9061880Y7717840D02*
D03*
X16313000Y7739900D02*
D03*
X9243300Y7599260D02*
D03*
X15239999Y5080000D02*
D03*
X16569540Y6728980D02*
D03*
X9243300Y7499260D02*
D03*
X15239999Y5000000D02*
D03*
X16569540Y6795020D02*
D03*
X9139982Y7909984D02*
D03*
X16567000Y7943100D02*
D03*
X9229660Y7914500D02*
D03*
X16567000Y7866900D02*
D03*
X8966200Y8008620D02*
D03*
X16313000Y7435100D02*
D03*
X9062720Y8018780D02*
D03*
X16313000Y7358900D02*
D03*
X16821001Y6850900D02*
D03*
X9061880Y8182280D02*
D03*
X13992860Y4898380D02*
D03*
X16821001Y6927100D02*
D03*
X9061880Y8282280D02*
D03*
X13992860Y4818380D02*
D03*
X16567000Y7485900D02*
D03*
X8949982Y8219984D02*
D03*
X13538200Y4819640D02*
D03*
X16567000Y7562100D02*
D03*
X8950000Y8320000D02*
D03*
X13538200Y4739640D02*
D03*
X16567000Y7104900D02*
D03*
X14620239Y4697720D02*
D03*
X8958540Y8485620D02*
D03*
X16567000Y7181100D02*
D03*
X8958540Y8585620D02*
D03*
X14620239Y4617720D02*
D03*
X14960001Y4490000D02*
D03*
X8958540Y8985620D02*
D03*
X14960001Y4410000D02*
D03*
X8958540Y9085620D02*
D03*
X9460000Y8890000D02*
D03*
X16186501Y6220480D02*
D03*
X9460000Y8990000D02*
D03*
X16186000Y6287020D02*
D03*
X9661880Y8882280D02*
D03*
X16186000Y6728980D02*
D03*
X9661880Y8982280D02*
D03*
X16186000Y6795020D02*
D03*
X9761880Y8682280D02*
D03*
X16189999Y5245000D02*
D03*
X9761880Y8782280D02*
D03*
X16270000Y5245000D02*
D03*
X9161880Y8582280D02*
D03*
X16307919Y8578100D02*
D03*
X9161880Y8482280D02*
D03*
X16307919Y8501900D02*
D03*
X9227820Y9580880D02*
D03*
D89*
X13192760Y9702800D02*
D03*
X13180060Y9829800D02*
D03*
X13187680Y9956800D02*
D03*
X13185139Y10083800D02*
D03*
X3926840Y5247640D02*
D03*
X11700000Y6990000D02*
D03*
X11580000Y7430000D02*
D03*
Y7340000D02*
D03*
X12010000Y7660000D02*
D03*
X12014200Y7305800D02*
D03*
X13056799Y7553640D02*
D03*
X9936480Y9799320D02*
D03*
X10510520Y9761220D02*
D03*
X10513060Y9872980D02*
D03*
X6474460Y10942320D02*
D03*
X4478020Y8775440D02*
D03*
Y8854180D02*
D03*
X4475480Y8689080D02*
D03*
Y8600180D02*
D03*
X4559300Y8775440D02*
D03*
X4561840Y8854180D02*
D03*
X4559300Y8686540D02*
D03*
Y8597640D02*
D03*
X10683240Y13108940D02*
D03*
X10551160Y13111481D02*
D03*
X12021820Y8018780D02*
D03*
X6410000Y6730000D02*
D03*
X10507980Y6065520D02*
D03*
X10568940Y6301740D02*
D03*
X11140440Y6306820D02*
D03*
X10375900Y6388100D02*
D03*
X9690100Y6327140D02*
D03*
X9430000Y10040000D02*
D03*
X9070000D02*
D03*
X9290000Y9790000D02*
D03*
X8816340Y9888220D02*
D03*
X10614660Y10073640D02*
D03*
X9834880Y10005060D02*
D03*
X9936480Y9702800D02*
D03*
Y9888220D02*
D03*
X9918700Y10116820D02*
D03*
X9926320Y10205720D02*
D03*
X10515600Y10208260D02*
D03*
X10518140Y9974580D02*
D03*
X7223760Y5702000D02*
D03*
X7221220Y5443220D02*
D03*
X6327140Y5257800D02*
D03*
X6245860Y5222240D02*
D03*
X6365240Y5923280D02*
D03*
X6289040D02*
D03*
X4799800Y4119080D02*
D03*
X4349780Y4088100D02*
D03*
X4363720Y5016500D02*
D03*
Y4912360D02*
D03*
Y4810760D02*
D03*
Y4716780D02*
D03*
Y4620260D02*
D03*
X5179060Y5623560D02*
D03*
X5080000Y5621020D02*
D03*
X4986020Y5623560D02*
D03*
X4889500Y5621020D02*
D03*
X4686300Y6690360D02*
D03*
X4795520D02*
D03*
X4912360D02*
D03*
X5029200D02*
D03*
X5151120D02*
D03*
Y6581140D02*
D03*
X5029200D02*
D03*
X4912360D02*
D03*
X4795520D02*
D03*
X4686300D02*
D03*
X2778760Y8000740D02*
D03*
X2697480Y8003280D02*
D03*
X2616200Y8005820D02*
D03*
X2542540D02*
D03*
X2849880Y7553700D02*
D03*
X2773680D02*
D03*
X2697480D02*
D03*
X2618740D02*
D03*
X2537460D02*
D03*
X4318620Y9295520D02*
D03*
X2959220Y11894240D02*
D03*
X2875400Y11891700D02*
D03*
X3020000Y11970000D02*
D03*
X2877940Y11967900D02*
D03*
X3032880Y12046640D02*
D03*
X2956680D02*
D03*
X2877940Y12044100D02*
D03*
X3909060Y7584180D02*
D03*
X3200400Y7716260D02*
D03*
X3197860Y7858500D02*
D03*
X8906040Y9887420D02*
D03*
X9588500Y6322060D02*
D03*
Y6241580D02*
D03*
X13032739Y8775700D02*
D03*
Y7881620D02*
D03*
X11861800Y7899400D02*
D03*
X9491980Y6413500D02*
D03*
X9588500Y6400800D02*
D03*
X10195560Y6403340D02*
D03*
X11049000Y6518660D02*
D03*
X9898380Y6774180D02*
D03*
X12390120Y8610600D02*
D03*
X9451340Y13601700D02*
D03*
X9824720Y13591541D02*
D03*
Y13294360D02*
D03*
X10350500Y13594080D02*
D03*
X9969500Y13591541D02*
D03*
X10358120Y13291820D02*
D03*
X3858260Y4994960D02*
D03*
X3726180Y5000040D02*
D03*
X12806680Y10025380D02*
D03*
X12804140Y9893300D02*
D03*
X12806680Y9768840D02*
D03*
X6118820Y10408920D02*
D03*
X6278820D02*
D03*
X6518820D02*
D03*
X7541220Y10413999D02*
D03*
X7621220Y10414000D02*
D03*
X7701220D02*
D03*
X7941220D02*
D03*
X5754460Y10942320D02*
D03*
X5834460D02*
D03*
X7180620Y10937240D02*
D03*
X7900620D02*
D03*
X7260620D02*
D03*
X7420620D02*
D03*
X5994460Y10942320D02*
D03*
X7462780Y10414000D02*
D03*
X7221220D02*
D03*
X6038820Y10408920D02*
D03*
X5798820D02*
D03*
X6198820D02*
D03*
X5674360Y12357100D02*
D03*
X5826760D02*
D03*
X5979160D02*
D03*
X6131560D02*
D03*
X6283960D02*
D03*
X6436360D02*
D03*
X6588760D02*
D03*
X8051800Y12359640D02*
D03*
X7899400D02*
D03*
X7747000D02*
D03*
X7594600D02*
D03*
X7442200D02*
D03*
X7289800D02*
D03*
X7137400D02*
D03*
X5240020Y10591800D02*
D03*
X5242560Y12029440D02*
D03*
Y11940540D02*
D03*
X8463280Y12026900D02*
D03*
Y11943080D02*
D03*
X8458200Y10614660D02*
D03*
Y10525760D02*
D03*
X3261360Y7487920D02*
D03*
X3515740Y12458120D02*
D03*
X3934460Y9298940D02*
D03*
X4817860Y4023880D02*
D03*
X5240020Y10510520D02*
D03*
X7104380Y7871460D02*
D03*
Y7960360D02*
D03*
X7211060Y8257540D02*
D03*
Y8163560D02*
D03*
X7297420Y8257540D02*
D03*
X3726180Y4657140D02*
D03*
X3858260Y4654600D02*
D03*
X3671520Y5116880D02*
D03*
X10253980Y3939540D02*
D03*
X10050780D02*
D03*
X10152380D02*
D03*
X10355580D02*
D03*
X10558780D02*
D03*
X10660380D02*
D03*
X9949180D02*
D03*
X10457180D02*
D03*
X10761980D02*
D03*
X6290320Y8096260D02*
D03*
X6756400Y6474460D02*
D03*
X6192520Y7221220D02*
D03*
X3348240Y7205980D02*
D03*
X3210560Y8087100D02*
D03*
X3375660Y7861040D02*
D03*
Y7718800D02*
D03*
X3304540Y8089640D02*
D03*
X3286760Y7861040D02*
D03*
X3284220Y7716260D02*
D03*
X5788660Y7500620D02*
D03*
X11544300Y8514080D02*
D03*
X9301480Y10350500D02*
D03*
X8796020Y10198100D02*
D03*
X10551160Y13652499D02*
D03*
X10685780Y13647420D02*
D03*
X9564300Y13153320D02*
D03*
X10090080Y13150780D02*
D03*
X7487920Y8526780D02*
D03*
X3790000Y5240000D02*
D03*
X5690000Y8470000D02*
D03*
X13139999Y11080000D02*
D03*
X13130000Y10900000D02*
D03*
X8940000Y10640000D02*
D03*
Y10840000D02*
D03*
X8950000Y11720000D02*
D03*
X8790000Y11840000D02*
D03*
X4740000Y10640000D02*
D03*
Y10800000D02*
D03*
X4750000Y11930000D02*
D03*
Y11760000D02*
D03*
X3490000Y10150000D02*
D03*
X3860000Y7310000D02*
D03*
X3930000D02*
D03*
X4010000D02*
D03*
X10880000Y6420000D02*
D03*
X9030000Y10210000D02*
D03*
X11220000Y9860000D02*
D03*
X13389999Y8520000D02*
D03*
X13560001Y8330000D02*
D03*
X7470000Y7640000D02*
D03*
X7270000Y7700000D02*
D03*
X3870000Y9110000D02*
D03*
X6819986Y6319987D02*
D03*
X10000000Y6240000D02*
D03*
X7500620Y10937240D02*
D03*
X7740620D02*
D03*
X7820320Y11220978D02*
D03*
X7660620D02*
D03*
X7580620D02*
D03*
X7340620D02*
D03*
X6074460Y10942320D02*
D03*
X6314460D02*
D03*
X6394160Y11226058D02*
D03*
X6234140D02*
D03*
X6154460D02*
D03*
X5914460D02*
D03*
X7584440Y7901940D02*
D03*
X11049000Y6446520D02*
D03*
X14631441Y13052020D02*
D03*
X14820900Y13050520D02*
D03*
X12800560Y13066800D02*
D03*
X12988519D02*
D03*
X11264900Y8648700D02*
D03*
X15109419Y13036320D02*
D03*
X15163800Y13101320D02*
D03*
X17221201Y13027660D02*
D03*
X16878300Y13050520D02*
D03*
D90*
X10179119Y10003660D02*
D03*
Y9893660D02*
D03*
X10289119D02*
D03*
Y10003660D02*
D03*
D91*
X6714960Y5671820D02*
D03*
X6717500Y5768340D02*
D03*
X6816560D02*
D03*
X6619075D02*
D03*
X6520650D02*
D03*
X6914350D02*
D03*
X6815925Y5671820D02*
D03*
X6619075D02*
D03*
X6520650D02*
D03*
X6914350D02*
D03*
X6813385Y5473700D02*
D03*
X6616535D02*
D03*
X6518110D02*
D03*
X6714960D02*
D03*
X6911810D02*
D03*
X6813385Y5377180D02*
D03*
X6616535D02*
D03*
X6518110D02*
D03*
X6714960D02*
D03*
X6911810D02*
D03*
D105*
X17872479Y10806110D02*
D03*
%TF.MD5,5be08f2da0af6b3ed439ab70fdbbd6ce*%
M02*
