G04 Layer_Color=16711935*
%FSLAX43Y43*%
%MOMM*%
%TF.FileFunction,Soldermask,Bot*%
%TF.Part,Single*%
G01*
G75*
%TA.AperFunction,SMDPad,CuDef*%
%ADD23R,1.000X0.600*%
%ADD24R,0.550X0.600*%
%ADD25R,0.600X0.550*%
%ADD26R,0.600X1.000*%
%ADD30R,0.700X1.300*%
%ADD31R,1.700X0.900*%
%ADD32R,1.300X0.700*%
%ADD33R,2.600X0.900*%
%TA.AperFunction,ComponentPad*%
%ADD73R,1.524X1.524*%
%ADD74C,1.524*%
%ADD75R,1.651X4.064*%
%ADD76R,4.064X1.651*%
%TA.AperFunction,ViaPad*%
%ADD77C,3.200*%
%ADD78C,4.000*%
%TA.AperFunction,ComponentPad*%
%ADD79C,1.550*%
%ADD80C,2.700*%
%ADD81C,1.000*%
%ADD82C,1.300*%
G04:AMPARAMS|DCode=83|XSize=1.3mm|YSize=1.3mm|CornerRadius=0mm|HoleSize=0mm|Usage=FLASHONLY|Rotation=180.000|XOffset=0mm|YOffset=0mm|HoleType=Round|Shape=Octagon|*
%AMOCTAGOND83*
4,1,8,-0.650,0.325,-0.650,-0.325,-0.325,-0.650,0.325,-0.650,0.650,-0.325,0.650,0.325,0.325,0.650,-0.325,0.650,-0.650,0.325,0.0*
%
%ADD83OCTAGOND83*%

%ADD84R,1.500X1.500*%
%ADD85C,1.500*%
%ADD86C,0.950*%
%ADD87R,2.000X2.000*%
%TA.AperFunction,ViaPad*%
%ADD88C,5.000*%
%ADD89C,0.381*%
%ADD91C,0.508*%
%ADD92C,0.500*%
%TA.AperFunction,SMDPad,CuDef*%
%ADD114R,2.100X0.900*%
%ADD115R,0.600X0.420*%
%ADD116O,0.600X0.420*%
%ADD117R,0.950X0.600*%
%ADD118O,0.950X0.300*%
%ADD119O,0.300X0.950*%
%ADD120R,2.100X2.100*%
%ADD121R,0.420X0.600*%
%ADD122O,0.420X0.600*%
%ADD123R,2.000X0.600*%
%ADD124O,2.000X0.600*%
%ADD125R,0.450X0.343*%
%ADD126R,0.900X1.000*%
%ADD127R,0.500X1.000*%
%ADD128R,0.910X1.220*%
%ADD129R,1.100X1.700*%
%TA.AperFunction,NonConductor*%
%ADD146R,1.778X13.818*%
D23*
X145148Y100394D02*
D03*
Y98894D02*
D03*
X123246Y45124D02*
D03*
Y43624D02*
D03*
X183918Y81700D02*
D03*
Y80200D02*
D03*
X169744Y77380D02*
D03*
Y78880D02*
D03*
X183800Y86550D02*
D03*
Y88050D02*
D03*
X146901Y62420D02*
D03*
Y63920D02*
D03*
X153048Y62420D02*
D03*
Y63920D02*
D03*
X155740Y65215D02*
D03*
Y63715D02*
D03*
X161404Y65190D02*
D03*
Y63690D02*
D03*
X139891Y98894D02*
D03*
Y100394D02*
D03*
D24*
X119156Y49511D02*
D03*
Y50361D02*
D03*
X115473Y62071D02*
D03*
Y61221D02*
D03*
X115016Y49537D02*
D03*
Y50387D02*
D03*
X140500Y96952D02*
D03*
Y96075D02*
D03*
X119969Y51404D02*
D03*
Y50527D02*
D03*
X120858Y50500D02*
D03*
Y51377D02*
D03*
X88583Y47556D02*
D03*
Y48433D02*
D03*
X87262Y47556D02*
D03*
Y48433D02*
D03*
X152387Y131757D02*
D03*
Y132634D02*
D03*
X147155Y131757D02*
D03*
Y132634D02*
D03*
X152387Y135604D02*
D03*
Y134727D02*
D03*
X150889Y135578D02*
D03*
Y134701D02*
D03*
X147155Y135680D02*
D03*
Y134803D02*
D03*
X145631Y135680D02*
D03*
Y134803D02*
D03*
X141059Y103525D02*
D03*
Y102648D02*
D03*
X141897Y103525D02*
D03*
Y102648D02*
D03*
X131000Y81852D02*
D03*
Y80975D02*
D03*
X130200Y81852D02*
D03*
Y80975D02*
D03*
X164706Y87606D02*
D03*
Y86729D02*
D03*
X163868Y87606D02*
D03*
Y86729D02*
D03*
X127267Y79268D02*
D03*
Y78391D02*
D03*
X128130Y79268D02*
D03*
Y78391D02*
D03*
X166000Y84452D02*
D03*
Y83575D02*
D03*
X164833Y84196D02*
D03*
Y83319D02*
D03*
X161049Y72287D02*
D03*
Y73164D02*
D03*
X213398Y102723D02*
D03*
Y103600D02*
D03*
X213424Y99715D02*
D03*
Y98838D02*
D03*
X165100Y74252D02*
D03*
Y73375D02*
D03*
X150254Y75292D02*
D03*
Y76169D02*
D03*
X144920Y62542D02*
D03*
Y63392D02*
D03*
X151956Y62491D02*
D03*
Y63341D02*
D03*
X142659Y91713D02*
D03*
Y90863D02*
D03*
X146698Y91789D02*
D03*
Y90939D02*
D03*
X143650Y88932D02*
D03*
Y89782D02*
D03*
X147638Y89059D02*
D03*
Y89909D02*
D03*
X148654Y83903D02*
D03*
Y84753D02*
D03*
X150254Y84843D02*
D03*
Y85693D02*
D03*
X150203Y82887D02*
D03*
Y83737D02*
D03*
X148600Y77175D02*
D03*
Y78025D02*
D03*
X145631Y84843D02*
D03*
Y85693D02*
D03*
X144590Y83762D02*
D03*
Y82912D02*
D03*
X148603Y82023D02*
D03*
Y82873D02*
D03*
X147612Y83762D02*
D03*
Y82912D02*
D03*
X143599Y84919D02*
D03*
Y85769D02*
D03*
X158433Y83217D02*
D03*
Y84067D02*
D03*
X155385Y82125D02*
D03*
Y82975D02*
D03*
X159423Y79890D02*
D03*
Y80740D02*
D03*
X143421Y78061D02*
D03*
Y78911D02*
D03*
X139500Y76025D02*
D03*
Y75175D02*
D03*
X141500Y74075D02*
D03*
Y74925D02*
D03*
Y70225D02*
D03*
Y69375D02*
D03*
X152464Y81109D02*
D03*
Y81959D02*
D03*
X156477Y79026D02*
D03*
Y79876D02*
D03*
X156451Y74999D02*
D03*
Y74149D02*
D03*
X158458Y73133D02*
D03*
Y73983D02*
D03*
X154500Y90925D02*
D03*
Y90075D02*
D03*
X156401Y88969D02*
D03*
Y88119D02*
D03*
X158400Y88925D02*
D03*
Y88075D02*
D03*
X147500Y81925D02*
D03*
Y81075D02*
D03*
X164300Y73375D02*
D03*
Y74252D02*
D03*
D25*
X120125Y61100D02*
D03*
X119275D02*
D03*
X139108Y97968D02*
D03*
X139985D02*
D03*
X145981Y97892D02*
D03*
X145104D02*
D03*
X115961Y50292D02*
D03*
X116838D02*
D03*
X116418Y60452D02*
D03*
X117295D02*
D03*
X116865Y51130D02*
D03*
X115988D02*
D03*
X117322Y61290D02*
D03*
X116445D02*
D03*
X141943Y94031D02*
D03*
X141066D02*
D03*
X90178Y51283D02*
D03*
X89301D02*
D03*
X99025Y109094D02*
D03*
X99875D02*
D03*
X99076Y104954D02*
D03*
X99926D02*
D03*
X137750Y116180D02*
D03*
X136900D02*
D03*
X137598Y120498D02*
D03*
X136748D02*
D03*
X98927Y116332D02*
D03*
X99777D02*
D03*
X98826Y120447D02*
D03*
X99676D02*
D03*
X137877Y109245D02*
D03*
X137027D02*
D03*
X137877Y105156D02*
D03*
X137027D02*
D03*
X145104Y96926D02*
D03*
X145954D02*
D03*
X150222Y80188D02*
D03*
X149372D02*
D03*
X150337Y78181D02*
D03*
X151187D02*
D03*
X140325Y84100D02*
D03*
X139475D02*
D03*
X140456Y87046D02*
D03*
X141306D02*
D03*
X141459Y80924D02*
D03*
X140609D02*
D03*
X156325Y86100D02*
D03*
X155475D02*
D03*
X160446Y87020D02*
D03*
X161296D02*
D03*
X163074Y101067D02*
D03*
X162224D02*
D03*
D26*
X155625Y60630D02*
D03*
X157125D02*
D03*
X157125Y61900D02*
D03*
X155625D02*
D03*
X151691Y96317D02*
D03*
X153191D02*
D03*
X149353Y100051D02*
D03*
X147853D02*
D03*
X155140Y100757D02*
D03*
X156640D02*
D03*
X184050Y84200D02*
D03*
X185550D02*
D03*
D30*
X136750Y81900D02*
D03*
X138650D02*
D03*
X138450Y84100D02*
D03*
X136550D02*
D03*
D31*
X99335Y54670D02*
D03*
Y51770D02*
D03*
D32*
X152400Y95050D02*
D03*
Y93150D02*
D03*
X154000Y93150D02*
D03*
Y95050D02*
D03*
D33*
X146164Y66317D02*
D03*
Y69217D02*
D03*
X151200Y69650D02*
D03*
Y66750D02*
D03*
D73*
X204711Y129159D02*
D03*
X181851D02*
D03*
D74*
X207251D02*
D03*
X209791D02*
D03*
X212331D02*
D03*
X214871D02*
D03*
X217411D02*
D03*
X204711Y131699D02*
D03*
X207251D02*
D03*
X209791D02*
D03*
X212331D02*
D03*
X214871D02*
D03*
X217411D02*
D03*
X184391Y129159D02*
D03*
X186931D02*
D03*
X189471D02*
D03*
X192011D02*
D03*
X194551D02*
D03*
X181851Y131699D02*
D03*
X184391D02*
D03*
X186931D02*
D03*
X189471D02*
D03*
X192011D02*
D03*
X194551D02*
D03*
X89167Y83739D02*
D03*
Y80239D02*
D03*
D75*
X75083Y132199D02*
D03*
D76*
X79883Y134999D02*
D03*
Y129199D02*
D03*
D77*
X216400Y53891D02*
D03*
Y116891D02*
D03*
D78*
X225285Y139040D02*
D03*
X70345D02*
D03*
X70345Y39040D02*
D03*
X225285D02*
D03*
D79*
X120823Y106738D02*
D03*
X130423D02*
D03*
X106573Y106738D02*
D03*
X116173D02*
D03*
D80*
X91656Y129134D02*
D03*
Y133734D02*
D03*
Y124534D02*
D03*
D81*
X176242Y113487D02*
D03*
D82*
X175242Y112487D02*
D03*
X177242D02*
D03*
X179242D02*
D03*
X181242D02*
D03*
X183242D02*
D03*
X185242D02*
D03*
X187242D02*
D03*
X175242Y114487D02*
D03*
X177242D02*
D03*
X179242D02*
D03*
X181242D02*
D03*
X183242D02*
D03*
X185242D02*
D03*
D83*
X187242D02*
D03*
D84*
X118529Y79121D02*
D03*
X161658Y124917D02*
D03*
X75197Y119761D02*
D03*
D85*
X118529Y81661D02*
D03*
X164198Y124917D02*
D03*
X161658Y122377D02*
D03*
X164198D02*
D03*
X161658Y119837D02*
D03*
X164198D02*
D03*
X161658Y117297D02*
D03*
X164198D02*
D03*
X161658Y114757D02*
D03*
X164198D02*
D03*
X161658Y112217D02*
D03*
X164198D02*
D03*
X75197Y122301D02*
D03*
D86*
X130423Y100538D02*
D03*
X125623D02*
D03*
X111373D02*
D03*
X116173D02*
D03*
X132753Y114838D02*
D03*
X104253D02*
D03*
D87*
X132753Y137638D02*
D03*
Y127638D02*
D03*
Y117638D02*
D03*
Y110138D02*
D03*
Y105138D02*
D03*
X104253Y132638D02*
D03*
Y122638D02*
D03*
Y112638D02*
D03*
Y102638D02*
D03*
X118503D02*
D03*
Y112638D02*
D03*
Y122638D02*
D03*
Y132638D02*
D03*
D88*
X162928Y131267D02*
D03*
D89*
X123500Y44000D02*
D03*
X123000D02*
D03*
X202700Y37795D02*
D03*
X126175Y68123D02*
D03*
X121700Y55400D02*
D03*
X121171Y55042D02*
D03*
X121700Y56500D02*
D03*
X118000Y51700D02*
D03*
X112588Y56210D02*
D03*
X98300Y50600D02*
D03*
X120858Y49958D02*
D03*
X118500Y61100D02*
D03*
X114100Y61200D02*
D03*
X119966Y59966D02*
D03*
X119466D02*
D03*
X124668Y56261D02*
D03*
Y55804D02*
D03*
X123754Y52426D02*
D03*
X123296D02*
D03*
X122839D02*
D03*
X117149Y63475D02*
D03*
X107255Y54621D02*
D03*
X107262Y56192D02*
D03*
X112222Y55728D02*
D03*
X117073Y49047D02*
D03*
X117708Y49378D02*
D03*
X116464D02*
D03*
X97033Y62586D02*
D03*
X114940Y60198D02*
D03*
X119969Y51452D02*
D03*
X114457Y51613D02*
D03*
X117429Y51562D02*
D03*
X112890Y59233D02*
D03*
X113652D02*
D03*
X112459Y52222D02*
D03*
X113271Y52578D02*
D03*
X98900Y50600D02*
D03*
X99400D02*
D03*
X99900D02*
D03*
X118000Y60700D02*
D03*
X123000Y44700D02*
D03*
X123500D02*
D03*
X128064Y56083D02*
D03*
D91*
X218783Y130505D02*
D03*
X222212Y130277D02*
D03*
X201638Y131013D02*
D03*
X201094Y130363D02*
D03*
X162649Y86487D02*
D03*
X179885Y130668D02*
D03*
X178006D02*
D03*
X198209Y130505D02*
D03*
X196314Y130520D02*
D03*
X160490Y64465D02*
D03*
X125844Y79019D02*
D03*
X109145Y112261D02*
D03*
X111545D02*
D03*
X112341D02*
D03*
X113942D02*
D03*
X113145Y109423D02*
D03*
X110745D02*
D03*
X123406Y112210D02*
D03*
X125806D02*
D03*
X126606D02*
D03*
X128203D02*
D03*
X127406Y109372D02*
D03*
X125006D02*
D03*
X150000Y62400D02*
D03*
X118200Y63200D02*
D03*
X88700Y91100D02*
D03*
X122700Y77000D02*
D03*
X124700Y76400D02*
D03*
X185600Y83300D02*
D03*
X183900Y85200D02*
D03*
X162200Y98600D02*
D03*
X140300Y102100D02*
D03*
X158800Y64200D02*
D03*
X90100Y73100D02*
D03*
X89300D02*
D03*
X88600D02*
D03*
X84900Y101500D02*
D03*
X97500Y117600D02*
D03*
Y119300D02*
D03*
X97400Y108000D02*
D03*
Y106400D02*
D03*
X137900Y118400D02*
D03*
X139500Y117200D02*
D03*
X139400Y108400D02*
D03*
Y106400D02*
D03*
X181300Y109000D02*
D03*
X181400Y110800D02*
D03*
X106900Y84700D02*
D03*
X87900Y52400D02*
D03*
X124879Y85268D02*
D03*
X150901Y131508D02*
D03*
X145643Y131533D02*
D03*
X156858Y136474D02*
D03*
X155512Y136525D02*
D03*
X137960Y101981D02*
D03*
X143015Y103505D02*
D03*
X165443Y85141D02*
D03*
X107887Y75006D02*
D03*
X83045Y80896D02*
D03*
X82106Y80871D02*
D03*
X83482Y72060D02*
D03*
X111925Y72212D02*
D03*
X117564Y64745D02*
D03*
X112903Y80963D02*
D03*
X157620Y39395D02*
D03*
X154572D02*
D03*
X149492D02*
D03*
X156604D02*
D03*
X155588D02*
D03*
X153556D02*
D03*
X151524D02*
D03*
X150508D02*
D03*
X152540D02*
D03*
X86715Y51169D02*
D03*
X88583Y46546D02*
D03*
X87262Y46571D02*
D03*
X122974Y82575D02*
D03*
X122111Y81636D02*
D03*
Y82575D02*
D03*
X121044Y79604D02*
D03*
Y78715D02*
D03*
X102400Y105105D02*
D03*
X98179Y40239D02*
D03*
X89345Y92989D02*
D03*
X85157Y124581D02*
D03*
X82614Y74879D02*
D03*
X134582Y105258D02*
D03*
Y106147D02*
D03*
X134633Y119431D02*
D03*
Y120269D02*
D03*
X102426Y119405D02*
D03*
Y120294D02*
D03*
X102400Y105918D02*
D03*
X121374Y123596D02*
D03*
X122898D02*
D03*
X124422D02*
D03*
X125946D02*
D03*
X127470D02*
D03*
X128994D02*
D03*
X130518D02*
D03*
X115888Y123571D02*
D03*
X114364D02*
D03*
X112840D02*
D03*
X111316D02*
D03*
X109792D02*
D03*
X108268D02*
D03*
X106744D02*
D03*
X111988Y104089D02*
D03*
X107988D02*
D03*
X110388D02*
D03*
X122212Y104140D02*
D03*
X124628D02*
D03*
X109945Y109423D02*
D03*
X124206Y109372D02*
D03*
X122606D02*
D03*
X129006D02*
D03*
X121806D02*
D03*
X108345Y109423D02*
D03*
X107545D02*
D03*
X129412Y104140D02*
D03*
X127012D02*
D03*
X126212D02*
D03*
X125412Y104140D02*
D03*
X115188Y104089D02*
D03*
X112788D02*
D03*
X111188D02*
D03*
X178067Y97688D02*
D03*
X178041Y98933D02*
D03*
X178067Y100254D02*
D03*
X87262Y50000D02*
D03*
X88583Y49950D02*
D03*
X153581Y132918D02*
D03*
X149695Y135915D02*
D03*
X153505Y135941D02*
D03*
X148247Y132944D02*
D03*
Y135915D02*
D03*
X144513Y136017D02*
D03*
X173901Y86106D02*
D03*
X148984Y67742D02*
D03*
X160490Y65187D02*
D03*
X151956Y64033D02*
D03*
X145885Y64008D02*
D03*
X144920Y64135D02*
D03*
X168618Y78994D02*
D03*
X180327Y78816D02*
D03*
Y87757D02*
D03*
X145885Y62416D02*
D03*
Y63221D02*
D03*
X139060Y98874D02*
D03*
X89091Y75842D02*
D03*
X78779Y120441D02*
D03*
X79567Y120466D02*
D03*
X80329D02*
D03*
X78779Y119679D02*
D03*
X80200Y119700D02*
D03*
X78754Y118917D02*
D03*
X79592Y118942D02*
D03*
X93186Y92955D02*
D03*
X75375Y75537D02*
D03*
X76187D02*
D03*
X76975D02*
D03*
X77737D02*
D03*
X78499D02*
D03*
X75425Y80058D02*
D03*
X76162D02*
D03*
X76975Y80033D02*
D03*
X77788Y80007D02*
D03*
X96863Y65811D02*
D03*
X97955D02*
D03*
X99124D02*
D03*
X100292D02*
D03*
Y66904D02*
D03*
X99124D02*
D03*
X97955D02*
D03*
X96863D02*
D03*
X98895Y56210D02*
D03*
X99860Y56236D02*
D03*
X100800Y56210D02*
D03*
X101791Y56236D02*
D03*
X93637Y46203D02*
D03*
Y47168D02*
D03*
Y48108D02*
D03*
Y49124D02*
D03*
Y50165D02*
D03*
X93498Y40881D02*
D03*
X97998Y41191D02*
D03*
X155181Y99746D02*
D03*
X155156Y102083D02*
D03*
X149263Y102057D02*
D03*
X149187Y101168D02*
D03*
X149365Y98882D02*
D03*
Y97028D02*
D03*
X148349Y100051D02*
D03*
X156147Y100736D02*
D03*
X138163Y98882D02*
D03*
X142900Y97900D02*
D03*
X140700Y100400D02*
D03*
X144300D02*
D03*
X146901Y63271D02*
D03*
X153759Y63881D02*
D03*
X161404Y63068D02*
D03*
X155689Y63017D02*
D03*
X155080Y60655D02*
D03*
X170218Y80188D02*
D03*
X155512Y131115D02*
D03*
X156832Y131089D02*
D03*
X95593Y85976D02*
D03*
Y86865D02*
D03*
X95618Y88542D02*
D03*
X95593Y87754D02*
D03*
X94755Y86002D02*
D03*
Y86891D02*
D03*
X94780Y88542D02*
D03*
Y87754D02*
D03*
X114745Y109423D02*
D03*
X155131Y98730D02*
D03*
X155105Y97612D02*
D03*
X149365Y97993D02*
D03*
X180568Y75536D02*
D03*
X170142Y73058D02*
D03*
X170100Y76600D02*
D03*
X165800Y73400D02*
D03*
Y74300D02*
D03*
X167000Y69900D02*
D03*
X89268Y52476D02*
D03*
X181851Y100838D02*
D03*
X181877Y99568D02*
D03*
X181801Y98298D02*
D03*
X181928Y97028D02*
D03*
D92*
X152891Y100037D02*
D03*
Y98937D02*
D03*
X151791D02*
D03*
Y100037D02*
D03*
D114*
X100669Y107836D02*
D03*
Y106136D02*
D03*
X136106Y117514D02*
D03*
Y119214D02*
D03*
X100470Y117539D02*
D03*
Y119239D02*
D03*
X136233Y108063D02*
D03*
Y106363D02*
D03*
D115*
X219702Y129773D02*
D03*
Y130393D02*
D03*
Y131013D02*
D03*
X221602Y129773D02*
D03*
Y130393D02*
D03*
X202370Y130983D02*
D03*
Y130363D02*
D03*
Y129743D02*
D03*
X200470Y130983D02*
D03*
Y130363D02*
D03*
X177356Y130668D02*
D03*
Y131288D02*
D03*
X179256Y130048D02*
D03*
Y130668D02*
D03*
Y131288D02*
D03*
X198920Y130520D02*
D03*
Y129900D02*
D03*
X197020Y131140D02*
D03*
Y130520D02*
D03*
Y129900D02*
D03*
D116*
X221602Y131013D02*
D03*
X200470Y129743D02*
D03*
X177356Y130048D02*
D03*
X198920Y131140D02*
D03*
D117*
X150717Y63348D02*
D03*
Y64298D02*
D03*
Y62398D02*
D03*
X148267D02*
D03*
Y64298D02*
D03*
Y63348D02*
D03*
X159581Y63287D02*
D03*
Y65187D02*
D03*
Y64237D02*
D03*
X157131Y63287D02*
D03*
Y65187D02*
D03*
X143732Y96992D02*
D03*
Y98892D02*
D03*
Y97942D02*
D03*
X141282Y96992D02*
D03*
Y98892D02*
D03*
D118*
X154216Y98512D02*
D03*
Y100462D02*
D03*
Y99162D02*
D03*
Y99812D02*
D03*
X150466Y98512D02*
D03*
Y100462D02*
D03*
Y99162D02*
D03*
Y99812D02*
D03*
D119*
X153316Y97612D02*
D03*
Y101362D02*
D03*
X152666Y97612D02*
D03*
X152016D02*
D03*
X151366D02*
D03*
X152666Y101362D02*
D03*
X152016D02*
D03*
X151366D02*
D03*
D120*
X152341Y99487D02*
D03*
D121*
X181953Y110028D02*
D03*
X181333D02*
D03*
X180713D02*
D03*
X181333Y108128D02*
D03*
X180713D02*
D03*
D122*
X181953D02*
D03*
D123*
X181966Y87808D02*
D03*
D124*
Y86538D02*
D03*
Y85268D02*
D03*
Y83998D02*
D03*
Y82728D02*
D03*
Y81458D02*
D03*
Y80188D02*
D03*
Y78918D02*
D03*
X171666Y87808D02*
D03*
Y86538D02*
D03*
Y85268D02*
D03*
Y83998D02*
D03*
Y82728D02*
D03*
Y81458D02*
D03*
Y80188D02*
D03*
Y78918D02*
D03*
D125*
X87323Y51669D02*
D03*
Y51169D02*
D03*
Y50669D02*
D03*
X88573D02*
D03*
Y51169D02*
D03*
Y51669D02*
D03*
D126*
X161549Y97653D02*
D03*
Y99553D02*
D03*
X163699Y97653D02*
D03*
Y99553D02*
D03*
D127*
X162624Y97653D02*
D03*
Y99553D02*
D03*
D128*
X143265Y95300D02*
D03*
X146535D02*
D03*
D129*
X100063Y110947D02*
D03*
X97363D02*
D03*
X136686Y114376D02*
D03*
X139386D02*
D03*
X100067Y114513D02*
D03*
X97367D02*
D03*
X136686Y111216D02*
D03*
X139386D02*
D03*
D146*
X228725Y111096D02*
D03*
%TF.MD5,ce9d002955c0e6857b1d3dde0641197a*%
M02*
