G04 Layer_Color=8388736*
%FSLAX45Y45*%
%MOMM*%
%TF.FileFunction,Soldermask,Top*%
%TF.Part,Single*%
G01*
G75*
%TA.AperFunction,NonConductor*%
%ADD10C,0.20320*%
%ADD11R,1.77800X14.24940*%
%TA.AperFunction,ConnectorPad*%
%ADD12R,12.00320X2.20320*%
%TA.AperFunction,SMDPad,CuDef*%
G04:AMPARAMS|DCode=13|XSize=1.7532mm|YSize=1.5032mm|CornerRadius=0.1991mm|HoleSize=0mm|Usage=FLASHONLY|Rotation=90.000|XOffset=0mm|YOffset=0mm|HoleType=Round|Shape=RoundedRectangle|*
%AMROUNDEDRECTD13*
21,1,1.75320,1.10500,0,0,90.0*
21,1,1.35500,1.50320,0,0,90.0*
1,1,0.39820,0.55250,0.67750*
1,1,0.39820,0.55250,-0.67750*
1,1,0.39820,-0.55250,-0.67750*
1,1,0.39820,-0.55250,0.67750*
%
%ADD13ROUNDEDRECTD13*%
%ADD14R,2.20320X2.70320*%
%ADD15R,0.90320X1.50320*%
%ADD16R,1.30320X1.70320*%
%ADD17R,1.20320X0.70320*%
%ADD18R,1.20320X1.10320*%
%ADD19R,0.70320X2.20320*%
%ADD20R,3.76320X1.98320*%
%ADD21R,1.92820X1.19320*%
%ADD22R,1.19320X0.60820*%
%ADD23R,0.96320X0.60820*%
%ADD24R,0.80320X1.20320*%
%ADD25R,0.75320X0.80320*%
%ADD26O,0.80320X2.40320*%
%TA.AperFunction,BGAPad,CuDef*%
%ADD27C,0.70320*%
%TA.AperFunction,SMDPad,CuDef*%
%ADD28R,0.80320X1.30320*%
%ADD29O,0.62320X0.80320*%
%ADD30R,0.62320X0.80320*%
%ADD31R,0.95800X0.50320*%
%ADD32R,0.50320X0.95800*%
%TA.AperFunction,SMDPad,SMDef*%
%ADD33R,0.03740X0.03740*%
%TA.AperFunction,SMDPad,CuDef*%
%ADD34R,2.90320X1.25320*%
%ADD35R,2.90320X1.70320*%
%ADD36R,0.45320X1.00800*%
%ADD37R,1.00800X0.45320*%
%ADD38R,1.50320X0.75320*%
%ADD39R,0.45720X0.45720*%
%ADD40R,1.90320X2.00320*%
%ADD41R,1.00320X1.00320*%
%TA.AperFunction,BGAPad,CuDef*%
%ADD42C,0.73660*%
%TA.AperFunction,SMDPad,CuDef*%
%ADD43R,0.80320X0.75320*%
%ADD44R,1.10320X2.80320*%
%ADD45R,2.80320X1.10320*%
%ADD46R,1.50320X0.90320*%
%ADD47R,1.90320X1.10320*%
%ADD48R,1.20320X0.80320*%
%ADD49R,1.98320X3.76320*%
%ADD50R,0.45720X0.45720*%
%ADD51R,2.00320X1.90320*%
%ADD52R,0.75320X1.50320*%
%TA.AperFunction,ComponentPad*%
%ADD53C,1.15320*%
%ADD54C,1.55000*%
%ADD55C,1.72720*%
%ADD56C,1.70320*%
%ADD57R,1.70320X1.70320*%
G04:AMPARAMS|DCode=58|XSize=1.5032mm|YSize=1.5032mm|CornerRadius=0mm|HoleSize=0mm|Usage=FLASHONLY|Rotation=180.000|XOffset=0mm|YOffset=0mm|HoleType=Round|Shape=Octagon|*
%AMOCTAGOND58*
4,1,8,-0.75160,0.37580,-0.75160,-0.37580,-0.37580,-0.75160,0.37580,-0.75160,0.75160,-0.37580,0.75160,0.37580,0.37580,0.75160,-0.37580,0.75160,-0.75160,0.37580,0.0*
%
%ADD58OCTAGOND58*%

%ADD59C,1.50320*%
%ADD60C,1.20320*%
%ADD61R,1.70320X1.70320*%
%ADD62C,2.90320*%
%TA.AperFunction,SMDPad,CuDef*%
%ADD63O,4.70320X2.20320*%
%ADD64O,4.20320X2.20320*%
%ADD65O,2.20320X4.20320*%
%TA.AperFunction,ComponentPad*%
%ADD66C,1.70320*%
%ADD67C,0.20320*%
%TA.AperFunction,ViaPad*%
%ADD68C,0.70320*%
%ADD69C,0.71120*%
%ADD70C,0.58420*%
%ADD71C,0.60960*%
%ADD72C,0.83820*%
D10*
X5608320Y7861300D02*
Y7962867D01*
X5659103D01*
X5676031Y7945939D01*
Y7912083D01*
X5659103Y7895156D01*
X5608320D01*
X5709887Y7929011D02*
Y7861300D01*
Y7895156D01*
X5726815Y7912083D01*
X5743743Y7929011D01*
X5760671D01*
X5828382Y7861300D02*
X5862238D01*
X5879166Y7878228D01*
Y7912083D01*
X5862238Y7929011D01*
X5828382D01*
X5811454Y7912083D01*
Y7878228D01*
X5828382Y7861300D01*
X5946877Y7827444D02*
X5963805D01*
X5980733Y7844372D01*
Y7929011D01*
X5929950D01*
X5913022Y7912083D01*
Y7878228D01*
X5929950Y7861300D01*
X5980733D01*
X6014589Y7929011D02*
Y7861300D01*
Y7895156D01*
X6031517Y7912083D01*
X6048445Y7929011D01*
X6065372D01*
X6133084D02*
X6166940D01*
X6183867Y7912083D01*
Y7861300D01*
X6133084D01*
X6116156Y7878228D01*
X6133084Y7895156D01*
X6183867D01*
X6217723Y7861300D02*
Y7929011D01*
X6234651D01*
X6251579Y7912083D01*
Y7861300D01*
Y7912083D01*
X6268507Y7929011D01*
X6285435Y7912083D01*
Y7861300D01*
X3053080Y9489440D02*
Y9591007D01*
X3103863D01*
X3120791Y9574079D01*
Y9540223D01*
X3103863Y9523296D01*
X3053080D01*
X3086936D02*
X3120791Y9489440D01*
X3205431D02*
X3171575D01*
X3154647Y9506368D01*
Y9540223D01*
X3171575Y9557151D01*
X3205431D01*
X3222359Y9540223D01*
Y9523296D01*
X3154647D01*
X3256214Y9489440D02*
X3306998D01*
X3323926Y9506368D01*
X3306998Y9523296D01*
X3273142D01*
X3256214Y9540223D01*
X3273142Y9557151D01*
X3323926D01*
X3408565Y9489440D02*
X3374710D01*
X3357782Y9506368D01*
Y9540223D01*
X3374710Y9557151D01*
X3408565D01*
X3425493Y9540223D01*
Y9523296D01*
X3357782D01*
X3476277Y9574079D02*
Y9557151D01*
X3459349D01*
X3493205D01*
X3476277D01*
Y9506368D01*
X3493205Y9489440D01*
D11*
X17302480Y11068050D02*
D03*
D12*
X6137820Y11953840D02*
D03*
X7562820D02*
D03*
D13*
X3491440Y10527020D02*
D03*
Y9732020D02*
D03*
X3041440Y10527020D02*
D03*
Y9732020D02*
D03*
X5693200Y8096260D02*
D03*
Y8891260D02*
D03*
X6143200Y8096260D02*
D03*
Y8891260D02*
D03*
D14*
X4708360Y6072480D02*
D03*
Y5672480D02*
D03*
D15*
X3526540Y8717020D02*
D03*
X3336540D02*
D03*
X11205000Y7140000D02*
D03*
X11395000D02*
D03*
X11205000Y7660000D02*
D03*
X11395000D02*
D03*
X8535000Y7390000D02*
D03*
X8725000D02*
D03*
X8725000Y7240000D02*
D03*
X8535000D02*
D03*
X11205000Y7390000D02*
D03*
X11395000D02*
D03*
X11395000Y8870000D02*
D03*
X11205000D02*
D03*
X8705000Y8980000D02*
D03*
X8515000D02*
D03*
X8515000Y8671560D02*
D03*
X8705000D02*
D03*
X11225000Y8310000D02*
D03*
X11415000D02*
D03*
X11415000Y8030000D02*
D03*
X11225000D02*
D03*
X3526540Y8554460D02*
D03*
X3336540D02*
D03*
D16*
X12203360Y12951320D02*
D03*
Y13251320D02*
D03*
X12353360D02*
D03*
Y12951320D02*
D03*
X11677580D02*
D03*
Y13251320D02*
D03*
X11827580D02*
D03*
Y12951320D02*
D03*
D17*
X7489440Y8768080D02*
D03*
X7679440D02*
D03*
D18*
X7489440Y8660580D02*
D03*
X7679440D02*
D03*
X7489440Y8875580D02*
D03*
X7679440D02*
D03*
D19*
X6517320Y10263840D02*
D03*
X6437320D02*
D03*
X6357320D02*
D03*
X6277320D02*
D03*
X6197320D02*
D03*
X6117320D02*
D03*
X6037320D02*
D03*
X5957320D02*
D03*
X5797320D02*
D03*
X5757320Y11083840D02*
D03*
X5837320D02*
D03*
X5917320D02*
D03*
X5997320D02*
D03*
X6077320D02*
D03*
X6157320D02*
D03*
X6237320D02*
D03*
X6317320D02*
D03*
X6397320D02*
D03*
X6477320D02*
D03*
X5877320Y10263840D02*
D03*
X7942320Y10263840D02*
D03*
X7702320D02*
D03*
X7622320D02*
D03*
X7542320D02*
D03*
X7462320D02*
D03*
X7222320D02*
D03*
X7182320Y11083840D02*
D03*
X7262320D02*
D03*
X7342320D02*
D03*
X7422320D02*
D03*
X7502320D02*
D03*
X7582320D02*
D03*
X7662320D02*
D03*
X7742320D02*
D03*
X7822320D02*
D03*
X7902320D02*
D03*
X7382320Y10263840D02*
D03*
X7302320D02*
D03*
X7862320D02*
D03*
X7782320D02*
D03*
D20*
X8001699Y5309420D02*
D03*
Y4369420D02*
D03*
D21*
X6010259Y5525380D02*
D03*
X6010309Y5646930D02*
D03*
D22*
X5811059Y5685180D02*
D03*
Y5619180D02*
D03*
Y5553180D02*
D03*
Y5487180D02*
D03*
D23*
X6109559Y5680680D02*
D03*
Y5491680D02*
D03*
Y5554680D02*
D03*
Y5617680D02*
D03*
D24*
X8911520Y11363960D02*
D03*
X9061520Y11363960D02*
D03*
X8908980Y12148820D02*
D03*
X9058980D02*
D03*
X6430080Y8900160D02*
D03*
X6280080D02*
D03*
X2767260Y9725660D02*
D03*
X2917260D02*
D03*
X2924880Y10525760D02*
D03*
X2774880D02*
D03*
X8911520Y11236960D02*
D03*
X9061520D02*
D03*
X8908980Y12029440D02*
D03*
X9058980D02*
D03*
D25*
X3347720Y7310540D02*
D03*
Y7398240D02*
D03*
X7381240Y8810580D02*
D03*
Y8725580D02*
D03*
X3439160Y7310540D02*
D03*
Y7395540D02*
D03*
X3553460Y7490880D02*
D03*
Y7575880D02*
D03*
X3642360Y7310540D02*
D03*
Y7395540D02*
D03*
X6239980Y5415960D02*
D03*
Y5500960D02*
D03*
X6242520Y5692820D02*
D03*
Y5777820D02*
D03*
X7150000Y5102500D02*
D03*
Y5017500D02*
D03*
X6501600Y5038680D02*
D03*
Y4953680D02*
D03*
X6546379Y6122800D02*
D03*
Y6207800D02*
D03*
X6915620Y5036140D02*
D03*
Y4951140D02*
D03*
X6904519Y6122801D02*
D03*
Y6207801D02*
D03*
X6709880Y5079320D02*
D03*
Y4994320D02*
D03*
X6793700Y5079320D02*
D03*
Y4994320D02*
D03*
X7299960Y8044860D02*
D03*
Y8132560D02*
D03*
X7127240Y8044860D02*
D03*
Y8132560D02*
D03*
X12393507Y9563780D02*
D03*
Y9651480D02*
D03*
X12578080Y9563780D02*
D03*
Y9651480D02*
D03*
X12485793Y9563780D02*
D03*
Y9651480D02*
D03*
X12301220Y9563780D02*
D03*
Y9651480D02*
D03*
X8872220Y10117500D02*
D03*
Y10205200D02*
D03*
X8958580Y10117500D02*
D03*
Y10205200D02*
D03*
X12210000Y7125200D02*
D03*
Y7037500D02*
D03*
X11770000Y7115200D02*
D03*
Y7027500D02*
D03*
X12796520Y12863879D02*
D03*
Y12951579D02*
D03*
X12664440Y12872020D02*
D03*
Y12959720D02*
D03*
X13555980Y12280220D02*
D03*
Y12192520D02*
D03*
X13682980Y12280220D02*
D03*
Y12192520D02*
D03*
X13809979Y12280220D02*
D03*
Y12192520D02*
D03*
X13936980Y12280220D02*
D03*
Y12192520D02*
D03*
X3553460Y7310540D02*
D03*
Y7398240D02*
D03*
X6417780Y5038680D02*
D03*
Y4950980D02*
D03*
X6457479Y6122800D02*
D03*
Y6210500D02*
D03*
X6999440Y5038680D02*
D03*
Y4950980D02*
D03*
X7001980Y6119540D02*
D03*
Y6207240D02*
D03*
X3050540Y7310540D02*
D03*
Y7398240D02*
D03*
X3141980Y7310540D02*
D03*
Y7398240D02*
D03*
X7855420Y5594940D02*
D03*
Y5507240D02*
D03*
X3733800Y7310540D02*
D03*
Y7398240D02*
D03*
X2926080Y12528880D02*
D03*
Y12441180D02*
D03*
X3934460Y8918360D02*
D03*
Y9006060D02*
D03*
X5647219Y5444620D02*
D03*
Y5532320D02*
D03*
Y5657980D02*
D03*
Y5745680D02*
D03*
X4728860Y4111580D02*
D03*
Y4023880D02*
D03*
X3934460Y9111400D02*
D03*
Y9199100D02*
D03*
X6626060Y4994320D02*
D03*
Y5082020D02*
D03*
D26*
X13555980Y12472700D02*
D03*
X13682980D02*
D03*
X13809979D02*
D03*
X13936980D02*
D03*
X13555980Y12952699D02*
D03*
X13682980D02*
D03*
X13809979D02*
D03*
X13936980D02*
D03*
D27*
X8894100Y8750060D02*
D03*
Y8850060D02*
D03*
X9294100Y7450060D02*
D03*
X9394100Y7550060D02*
D03*
X8994100Y9150060D02*
D03*
X9094100D02*
D03*
X9294100D02*
D03*
X9494100D02*
D03*
X9694100D02*
D03*
X9794100D02*
D03*
X9894100D02*
D03*
X9994100D02*
D03*
X10094100D02*
D03*
X10194100D02*
D03*
X10294100D02*
D03*
X10394100D02*
D03*
X10494100D02*
D03*
X10594100D02*
D03*
X10694100D02*
D03*
X10794100D02*
D03*
X10894100D02*
D03*
X10994100D02*
D03*
X8994100Y9050060D02*
D03*
X9094100D02*
D03*
X9294100D02*
D03*
X9494100D02*
D03*
X9694100D02*
D03*
X9794100D02*
D03*
X9894100D02*
D03*
X9994100D02*
D03*
X10094100D02*
D03*
X10194100D02*
D03*
X10294100D02*
D03*
X10394100D02*
D03*
X10494100D02*
D03*
X10594100D02*
D03*
X10694100D02*
D03*
X10794100D02*
D03*
X10894100D02*
D03*
X10994100D02*
D03*
X8894100Y8950060D02*
D03*
X8994100D02*
D03*
X9094100D02*
D03*
X9194100D02*
D03*
X9294100D02*
D03*
X9394100D02*
D03*
X9494100D02*
D03*
X9594100D02*
D03*
X9694100D02*
D03*
X9794100D02*
D03*
X9894100D02*
D03*
X9994100D02*
D03*
X10094100D02*
D03*
X10194100D02*
D03*
X10294100D02*
D03*
X10394100D02*
D03*
X10494100D02*
D03*
X10594100D02*
D03*
X10694100D02*
D03*
X10794100D02*
D03*
X10894100D02*
D03*
X10994100D02*
D03*
X8994100Y8850060D02*
D03*
X9094100D02*
D03*
X9194100D02*
D03*
X9294100D02*
D03*
X9394100D02*
D03*
X9494100D02*
D03*
X9594100D02*
D03*
X9694100D02*
D03*
X9794100D02*
D03*
X9894100D02*
D03*
X9994100D02*
D03*
X10094100D02*
D03*
X10194100D02*
D03*
X10294100D02*
D03*
X10394100D02*
D03*
X10494100D02*
D03*
X10594100D02*
D03*
X10694100D02*
D03*
X10794100D02*
D03*
X10894100D02*
D03*
X10994100D02*
D03*
X8994100Y8750060D02*
D03*
X9094100D02*
D03*
X9194100D02*
D03*
X9294100D02*
D03*
X9394100D02*
D03*
X9494100D02*
D03*
X9594100D02*
D03*
X9694100D02*
D03*
X9794100D02*
D03*
X9894100D02*
D03*
X9994100D02*
D03*
X10094100D02*
D03*
X10194100D02*
D03*
X10294100D02*
D03*
X10394100D02*
D03*
X10494100D02*
D03*
X10594100D02*
D03*
X10694100D02*
D03*
X10794100D02*
D03*
X10894100D02*
D03*
X10994100D02*
D03*
X8994100Y8650060D02*
D03*
X9094100D02*
D03*
X9194100D02*
D03*
X9294100D02*
D03*
X9394100D02*
D03*
X9494100D02*
D03*
X9594100D02*
D03*
X9694100D02*
D03*
X9794100D02*
D03*
X9894100D02*
D03*
X9994100D02*
D03*
X10094100D02*
D03*
X10194100D02*
D03*
X10294100D02*
D03*
X10394100D02*
D03*
X10494100D02*
D03*
X10594100D02*
D03*
X10694100D02*
D03*
X10794100D02*
D03*
X10894100D02*
D03*
X10994100D02*
D03*
X8994100Y8550060D02*
D03*
X9094100D02*
D03*
X9194100D02*
D03*
X9294100D02*
D03*
X9394100D02*
D03*
X9494100D02*
D03*
X9594100D02*
D03*
X9694100D02*
D03*
X9794100D02*
D03*
X9894100D02*
D03*
X9994100D02*
D03*
X10094100D02*
D03*
X10194100D02*
D03*
X10294100D02*
D03*
X10394100D02*
D03*
X10494100D02*
D03*
X10594100D02*
D03*
X10694100D02*
D03*
X10794100D02*
D03*
X10894100D02*
D03*
X10994100D02*
D03*
X8894100Y8450060D02*
D03*
X8994100D02*
D03*
X9094100D02*
D03*
X9194100D02*
D03*
X9294100D02*
D03*
X9394100D02*
D03*
X9494100D02*
D03*
X9594100D02*
D03*
X9694100D02*
D03*
X9794100D02*
D03*
X9894100D02*
D03*
X9994100D02*
D03*
X10094100D02*
D03*
X10194100D02*
D03*
X10294100D02*
D03*
X10394100D02*
D03*
X10494100D02*
D03*
X10594100D02*
D03*
X10694100D02*
D03*
X10794100D02*
D03*
X10894100D02*
D03*
X10994100D02*
D03*
X8994100Y8350060D02*
D03*
X9094100D02*
D03*
X9194100D02*
D03*
X9294100D02*
D03*
X9394100D02*
D03*
X9494100D02*
D03*
X9594100D02*
D03*
X9694100D02*
D03*
X9794100D02*
D03*
X9894100D02*
D03*
X9994100D02*
D03*
X10094100D02*
D03*
X10194100D02*
D03*
X10294100D02*
D03*
X10394100D02*
D03*
X10494100D02*
D03*
X10594100D02*
D03*
X10694100D02*
D03*
X10794100D02*
D03*
X10894100D02*
D03*
X10994100D02*
D03*
X8994100Y8250060D02*
D03*
X9094100D02*
D03*
X9194100D02*
D03*
X9294100D02*
D03*
X9394100D02*
D03*
X9494100D02*
D03*
X9594100D02*
D03*
X9694100D02*
D03*
X9794100D02*
D03*
X9894100D02*
D03*
X9994100D02*
D03*
X10094100D02*
D03*
X10194100D02*
D03*
X10294100D02*
D03*
X10394100D02*
D03*
X10494100D02*
D03*
X10594100D02*
D03*
X10694100D02*
D03*
X10794100D02*
D03*
X10894100D02*
D03*
X10994100D02*
D03*
X8994100Y8150060D02*
D03*
X9094100D02*
D03*
X9194100D02*
D03*
X9294100D02*
D03*
X9394100D02*
D03*
X9494100D02*
D03*
X9594100D02*
D03*
X9694100D02*
D03*
X9794100D02*
D03*
X9894100D02*
D03*
X9994100D02*
D03*
X10094100D02*
D03*
X10194100D02*
D03*
X10294100D02*
D03*
X10394100D02*
D03*
X10494100D02*
D03*
X10594100D02*
D03*
X10694100D02*
D03*
X10794100D02*
D03*
X10894100D02*
D03*
X10994100D02*
D03*
X8994100Y8050060D02*
D03*
X9094100D02*
D03*
X9194100D02*
D03*
X9294100D02*
D03*
X9394100D02*
D03*
X9494100D02*
D03*
X9594100D02*
D03*
X9694100D02*
D03*
X9794100D02*
D03*
X9894100D02*
D03*
X9994100D02*
D03*
X10094100D02*
D03*
X10194100D02*
D03*
X10294100D02*
D03*
X10394100D02*
D03*
X10494100D02*
D03*
X10594100D02*
D03*
X10694100D02*
D03*
X10794100D02*
D03*
X10894100D02*
D03*
X10994100D02*
D03*
X8894100Y7950060D02*
D03*
X8994100D02*
D03*
X9094100D02*
D03*
X9194100D02*
D03*
X9294100D02*
D03*
X9394100D02*
D03*
X9494100D02*
D03*
X9594100D02*
D03*
X9694100D02*
D03*
X9794100D02*
D03*
X9894100D02*
D03*
X9994100D02*
D03*
X10094100D02*
D03*
X10194100D02*
D03*
X10294100D02*
D03*
X10394100D02*
D03*
X10494100D02*
D03*
X10594100D02*
D03*
X10694100D02*
D03*
X10794100D02*
D03*
X10894100D02*
D03*
X10994100D02*
D03*
X8994100Y7850060D02*
D03*
X9094100D02*
D03*
X9194100D02*
D03*
X9294100D02*
D03*
X9394100D02*
D03*
X9494100D02*
D03*
X9594100D02*
D03*
X9694100D02*
D03*
X9794100D02*
D03*
X9894100D02*
D03*
X9994100D02*
D03*
X10094100D02*
D03*
X10194100D02*
D03*
X10294100D02*
D03*
X10394100D02*
D03*
X10494100D02*
D03*
X10594100D02*
D03*
X10694100D02*
D03*
X10794100D02*
D03*
X10894100D02*
D03*
X10994100D02*
D03*
X8994100Y7750060D02*
D03*
X9094100D02*
D03*
X9194100D02*
D03*
X9294100D02*
D03*
X9394100D02*
D03*
X9494100D02*
D03*
X9594100D02*
D03*
X9694100D02*
D03*
X9794100D02*
D03*
X9894100D02*
D03*
X9994100D02*
D03*
X10094100D02*
D03*
X10194100D02*
D03*
X10294100D02*
D03*
X10394100D02*
D03*
X10494100D02*
D03*
X10594100D02*
D03*
X10694100D02*
D03*
X10794100D02*
D03*
X10894100D02*
D03*
X10994100D02*
D03*
X8994100Y7650060D02*
D03*
X9094100D02*
D03*
X9194100D02*
D03*
X9294100D02*
D03*
X9394100D02*
D03*
X9494100D02*
D03*
X9594100D02*
D03*
X9694100D02*
D03*
X9794100D02*
D03*
X9894100D02*
D03*
X9994100D02*
D03*
X10094100D02*
D03*
X10194100D02*
D03*
X10294100D02*
D03*
X10394100D02*
D03*
X10494100D02*
D03*
X10594100D02*
D03*
X10694100D02*
D03*
X10794100D02*
D03*
X10894100D02*
D03*
X10994100D02*
D03*
X9094100Y7550060D02*
D03*
X9194100D02*
D03*
X9294100D02*
D03*
X9494100D02*
D03*
X9594100D02*
D03*
X9694100D02*
D03*
X9794100D02*
D03*
X9894100D02*
D03*
X9994100D02*
D03*
X10094100D02*
D03*
X10194100D02*
D03*
X10294100D02*
D03*
X10394100D02*
D03*
X10494100D02*
D03*
X10594100D02*
D03*
X10694100D02*
D03*
X10794100D02*
D03*
X10894100D02*
D03*
X10994100D02*
D03*
X8894100Y7450060D02*
D03*
X9094100D02*
D03*
X9194100D02*
D03*
X9394100D02*
D03*
X9494100D02*
D03*
X9594100D02*
D03*
X9694100D02*
D03*
X9794100D02*
D03*
X9894100D02*
D03*
X9994100D02*
D03*
X10094100D02*
D03*
X10194100D02*
D03*
X10294100D02*
D03*
X10394100D02*
D03*
X10494100D02*
D03*
X10594100D02*
D03*
X10694100D02*
D03*
X10794100D02*
D03*
X10894100D02*
D03*
X10994100D02*
D03*
X8994100Y7350060D02*
D03*
X9094100D02*
D03*
X9194100D02*
D03*
X9294100D02*
D03*
X9394100D02*
D03*
X9494100D02*
D03*
X9594100D02*
D03*
X9694100D02*
D03*
X9794100D02*
D03*
X9894100D02*
D03*
X9994100D02*
D03*
X10094100D02*
D03*
X10194100D02*
D03*
X10294100D02*
D03*
X10394100D02*
D03*
X10494100D02*
D03*
X10594100D02*
D03*
X10694100D02*
D03*
X10794100D02*
D03*
X10894100D02*
D03*
X10994100D02*
D03*
X8994100Y7250060D02*
D03*
X9094100D02*
D03*
X9194100D02*
D03*
X9294100D02*
D03*
X9494100D02*
D03*
X9594100D02*
D03*
X9694100D02*
D03*
X9794100D02*
D03*
X9894100D02*
D03*
X9994100D02*
D03*
X10094100D02*
D03*
X10194100D02*
D03*
X10294100D02*
D03*
X10394100D02*
D03*
X10494100D02*
D03*
X10594100D02*
D03*
X10694100D02*
D03*
X10794100D02*
D03*
X10894100D02*
D03*
X10994100D02*
D03*
X8994100Y7150060D02*
D03*
X9094100D02*
D03*
X9194100D02*
D03*
X9294100D02*
D03*
X9394100D02*
D03*
X9494100D02*
D03*
X9694100D02*
D03*
X9794100D02*
D03*
X9894100D02*
D03*
X9994100D02*
D03*
X10094100D02*
D03*
X10194100D02*
D03*
X10294100D02*
D03*
X10394100D02*
D03*
X10494100D02*
D03*
X10594100D02*
D03*
X10694100D02*
D03*
X10794100D02*
D03*
X10894100D02*
D03*
X10994100D02*
D03*
X9094100Y7050060D02*
D03*
X9194100D02*
D03*
X9294100D02*
D03*
X9394100D02*
D03*
X9494100D02*
D03*
X9694100D02*
D03*
X9794100D02*
D03*
X9894100D02*
D03*
X9994100D02*
D03*
X10094100D02*
D03*
X10194100D02*
D03*
X10294100D02*
D03*
X10394100D02*
D03*
X10494100D02*
D03*
X10594100D02*
D03*
X10694100D02*
D03*
X10794100D02*
D03*
X10894100D02*
D03*
X10994100D02*
D03*
X9194100Y9150060D02*
D03*
Y9050060D02*
D03*
X8994100Y7050060D02*
D03*
X8894100Y8650060D02*
D03*
Y8550060D02*
D03*
X8994100Y7550060D02*
D03*
Y7450060D02*
D03*
X9394100Y9150060D02*
D03*
Y9050060D02*
D03*
X8894100Y7350060D02*
D03*
Y7250060D02*
D03*
Y8350060D02*
D03*
Y8250060D02*
D03*
X9394100Y7250060D02*
D03*
X8894100Y9150060D02*
D03*
Y9050060D02*
D03*
Y8150060D02*
D03*
Y8050060D02*
D03*
Y7150060D02*
D03*
Y7050060D02*
D03*
Y7850060D02*
D03*
Y7750060D02*
D03*
Y7650060D02*
D03*
Y7550060D02*
D03*
X9594100Y7150060D02*
D03*
Y7050060D02*
D03*
Y9150060D02*
D03*
Y9050060D02*
D03*
D28*
X12086699Y6986920D02*
D03*
X11991699D02*
D03*
X11896699D02*
D03*
Y7226920D02*
D03*
X11991699D02*
D03*
X12086699D02*
D03*
D29*
X10081260Y13660120D02*
D03*
X9957259Y12501880D02*
D03*
D30*
X10019260Y13660120D02*
D03*
X9957260D02*
D03*
X10081260Y13470120D02*
D03*
X10019260D02*
D03*
X9957260D02*
D03*
X10019259Y12501880D02*
D03*
X10081259D02*
D03*
X9957259Y12691880D02*
D03*
X10019259D02*
D03*
X10081259D02*
D03*
D31*
X7064899Y5303560D02*
D03*
Y5353560D02*
D03*
Y5403560D02*
D03*
Y5453560D02*
D03*
Y5503560D02*
D03*
Y5553560D02*
D03*
Y5603560D02*
D03*
Y5653560D02*
D03*
Y5703560D02*
D03*
Y5753560D02*
D03*
Y5803560D02*
D03*
Y5853560D02*
D03*
X6378379D02*
D03*
Y5803560D02*
D03*
Y5753560D02*
D03*
Y5703560D02*
D03*
Y5653560D02*
D03*
Y5603560D02*
D03*
Y5553560D02*
D03*
Y5503560D02*
D03*
Y5453560D02*
D03*
Y5403560D02*
D03*
Y5353560D02*
D03*
Y5303560D02*
D03*
D32*
X6996639Y5921820D02*
D03*
X6946639D02*
D03*
X6896639D02*
D03*
X6846639D02*
D03*
X6796639D02*
D03*
X6746639D02*
D03*
X6696639D02*
D03*
X6646639D02*
D03*
X6596639D02*
D03*
X6546639D02*
D03*
X6496639D02*
D03*
X6446639D02*
D03*
Y5235300D02*
D03*
X6496639D02*
D03*
X6546639D02*
D03*
X6596639D02*
D03*
X6646639D02*
D03*
X6696639D02*
D03*
X6746639D02*
D03*
X6796639D02*
D03*
X6846639D02*
D03*
X6896639D02*
D03*
X6946639D02*
D03*
X6996639D02*
D03*
D33*
X6721639Y5578560D02*
D03*
D34*
X3286760Y7861040D02*
D03*
D35*
Y7716260D02*
D03*
D36*
X3411760Y7581986D02*
D03*
X3361760D02*
D03*
X3311760D02*
D03*
X3261760D02*
D03*
X3211760D02*
D03*
X3161760D02*
D03*
Y7972453D02*
D03*
X3211760D02*
D03*
X3261760D02*
D03*
X3311760D02*
D03*
X3361760D02*
D03*
X3411760D02*
D03*
D37*
X3091526Y7652220D02*
D03*
Y7702220D02*
D03*
Y7752220D02*
D03*
Y7802220D02*
D03*
Y7852220D02*
D03*
Y7902220D02*
D03*
X3481994D02*
D03*
Y7852220D02*
D03*
Y7802220D02*
D03*
Y7752220D02*
D03*
Y7702220D02*
D03*
Y7652220D02*
D03*
D38*
X4318620Y9200640D02*
D03*
Y9010640D02*
D03*
X4078620Y9105640D02*
D03*
Y9200640D02*
D03*
Y9010640D02*
D03*
X4349780Y4019800D02*
D03*
Y4209800D02*
D03*
X4589780Y4114800D02*
D03*
Y4019800D02*
D03*
Y4209800D02*
D03*
D39*
X4152900Y8717020D02*
D03*
X4061460D02*
D03*
X4482480Y4452620D02*
D03*
X4573920D02*
D03*
D40*
X3942180Y8717020D02*
D03*
X4272180D02*
D03*
X4693200Y4452620D02*
D03*
X4363200D02*
D03*
D41*
X3858260Y4749900D02*
D03*
Y4914900D02*
D03*
X7475220Y8365440D02*
D03*
Y8200440D02*
D03*
X12799060Y13055701D02*
D03*
Y13220700D02*
D03*
X12664440Y13053160D02*
D03*
Y13218159D02*
D03*
X3726180Y4749900D02*
D03*
Y4914900D02*
D03*
D42*
X16144240Y10055860D02*
D03*
Y10182860D02*
D03*
X15763240Y5991860D02*
D03*
Y6118860D02*
D03*
Y9039860D02*
D03*
Y9166860D02*
D03*
X16271240Y9420860D02*
D03*
Y9293860D02*
D03*
Y8785860D02*
D03*
Y8912860D02*
D03*
X15763240Y9801860D02*
D03*
Y9928860D02*
D03*
X16271240Y9801860D02*
D03*
Y9928860D02*
D03*
X15763240Y10309860D02*
D03*
Y10436860D02*
D03*
X16144240Y7261860D02*
D03*
Y7388860D02*
D03*
Y8785860D02*
D03*
Y8912860D02*
D03*
X15636240Y7007860D02*
D03*
Y7134860D02*
D03*
Y7388860D02*
D03*
Y7515860D02*
D03*
Y8912860D02*
D03*
Y9039860D02*
D03*
Y9674860D02*
D03*
Y9801860D02*
D03*
X16144240Y5610860D02*
D03*
X16271240D02*
D03*
X15636240D02*
D03*
X15763240D02*
D03*
X16144240Y5737860D02*
D03*
X16271240D02*
D03*
X15636240D02*
D03*
X15763240D02*
D03*
X16144240Y5864860D02*
D03*
X16271240D02*
D03*
X15763240D02*
D03*
X16144240Y5991860D02*
D03*
X16271240D02*
D03*
X16144240Y6118860D02*
D03*
X16271240D02*
D03*
X15636240D02*
D03*
X16144240Y6245860D02*
D03*
X16271240D02*
D03*
X15763240D02*
D03*
X16144240Y6372860D02*
D03*
X16271240D02*
D03*
X15763240D02*
D03*
X16144240Y6499860D02*
D03*
X16271240D02*
D03*
X15636240D02*
D03*
X15763240D02*
D03*
X16144240Y6626860D02*
D03*
X16271240D02*
D03*
X15763240D02*
D03*
X16144240Y6753860D02*
D03*
X16271240D02*
D03*
X15763240D02*
D03*
X16144240Y6880860D02*
D03*
X16271240D02*
D03*
X15636240D02*
D03*
X15763240D02*
D03*
X16144240Y7007860D02*
D03*
X16271240D02*
D03*
X15763240D02*
D03*
X16144240Y7134860D02*
D03*
X16271240D02*
D03*
X15763240D02*
D03*
X15636240Y7261860D02*
D03*
X15763240D02*
D03*
Y7388860D02*
D03*
X16144240Y7515860D02*
D03*
X16271240D02*
D03*
X15763240D02*
D03*
X16144240Y7642860D02*
D03*
X16271240D02*
D03*
X15636240D02*
D03*
X15763240D02*
D03*
X16144240Y7769860D02*
D03*
X15763240D02*
D03*
X16144240Y7896860D02*
D03*
X15763240D02*
D03*
X16144240Y8023860D02*
D03*
X16271240D02*
D03*
X15636240D02*
D03*
X15763240D02*
D03*
X16271240Y8150860D02*
D03*
X15763240D02*
D03*
X16144240Y8277860D02*
D03*
X16271240D02*
D03*
X15763240D02*
D03*
X16144240Y8404860D02*
D03*
X16271240D02*
D03*
X15636240D02*
D03*
X15763240D02*
D03*
X16144240Y8531860D02*
D03*
X16271240D02*
D03*
X15763240D02*
D03*
X16144240Y8658860D02*
D03*
X16271240D02*
D03*
X15763240D02*
D03*
X15636240Y8785860D02*
D03*
X15763240D02*
D03*
Y8912860D02*
D03*
X16144240Y9039860D02*
D03*
X16271240D02*
D03*
X16144240Y9166860D02*
D03*
X16271240D02*
D03*
X15636240D02*
D03*
X16144240Y9293860D02*
D03*
X15763240D02*
D03*
X16144240Y9420860D02*
D03*
X15763240D02*
D03*
X16144240Y9547860D02*
D03*
X16271240D02*
D03*
X15636240D02*
D03*
X15763240D02*
D03*
X16144240Y9674860D02*
D03*
X16271240D02*
D03*
X15763240D02*
D03*
X16144240Y9801860D02*
D03*
Y9928860D02*
D03*
X15636240D02*
D03*
X16271240Y10055860D02*
D03*
X15763240D02*
D03*
X16271240Y10182860D02*
D03*
X15763240D02*
D03*
X16144240Y10309860D02*
D03*
X16271240D02*
D03*
X15636240D02*
D03*
X16144240Y10436860D02*
D03*
X16271240D02*
D03*
X15636240D02*
D03*
Y10563860D02*
D03*
X15763240D02*
D03*
X16144240D02*
D03*
X16271240D02*
D03*
X15636240Y10182860D02*
D03*
Y10055860D02*
D03*
Y6372860D02*
D03*
Y6245860D02*
D03*
Y5991860D02*
D03*
Y5864860D02*
D03*
X16144240Y8150860D02*
D03*
X16271240Y7896860D02*
D03*
Y7769860D02*
D03*
Y7388860D02*
D03*
Y7261860D02*
D03*
X15636240Y7896860D02*
D03*
Y7769860D02*
D03*
Y6753860D02*
D03*
Y6626860D02*
D03*
Y9420860D02*
D03*
Y9293860D02*
D03*
Y8277860D02*
D03*
Y8150860D02*
D03*
Y8658860D02*
D03*
Y8531860D02*
D03*
D43*
X15451500Y11051540D02*
D03*
X15536501D02*
D03*
X15451500Y10965180D02*
D03*
X15536501D02*
D03*
X7865700Y8658860D02*
D03*
X7780700D02*
D03*
X7865700Y8768080D02*
D03*
X7780700D02*
D03*
X2962500Y7790000D02*
D03*
X2877500D02*
D03*
X3747180Y7584180D02*
D03*
X3832180D02*
D03*
X3642240Y7741660D02*
D03*
X3727240D02*
D03*
X7307319Y5606500D02*
D03*
X7392319D02*
D03*
X7263720Y7772400D02*
D03*
X7176020D02*
D03*
X3956640Y7223760D02*
D03*
X3868940D02*
D03*
X6680080Y6149340D02*
D03*
X6767780D02*
D03*
X6572459Y4839420D02*
D03*
X6660159D02*
D03*
X6381959D02*
D03*
X6469659D02*
D03*
X6463620Y6350000D02*
D03*
X6375920D02*
D03*
X6654120Y6347460D02*
D03*
X6566420D02*
D03*
X6948379Y4839420D02*
D03*
X7036079D02*
D03*
X6762959D02*
D03*
X6850659D02*
D03*
X7670680Y5608320D02*
D03*
X7758380D02*
D03*
X3747180Y7495280D02*
D03*
X3834880D02*
D03*
X4814540Y4211320D02*
D03*
X4726840D02*
D03*
X3023280Y12438120D02*
D03*
X3110980D02*
D03*
D44*
X11531819Y9227820D02*
D03*
X11241820D02*
D03*
X8265000Y8240000D02*
D03*
X8555000D02*
D03*
D45*
X8500000Y7965000D02*
D03*
Y7675000D02*
D03*
D46*
X10060000Y9305000D02*
D03*
Y9495000D02*
D03*
X9460000Y9565000D02*
D03*
Y9375000D02*
D03*
X2575560Y7923020D02*
D03*
Y7733020D02*
D03*
X2733040Y7923020D02*
D03*
Y7733020D02*
D03*
X6273000Y4941820D02*
D03*
Y5131820D02*
D03*
X7329640Y5246620D02*
D03*
Y5436620D02*
D03*
X6333019Y6237440D02*
D03*
Y6047440D02*
D03*
X7326959Y5892000D02*
D03*
Y5702000D02*
D03*
D47*
X4933479Y5174480D02*
D03*
Y5464480D02*
D03*
X4702339Y5174480D02*
D03*
Y5464480D02*
D03*
D48*
X7322020Y4362380D02*
D03*
Y4512380D02*
D03*
X7555700Y5457120D02*
D03*
Y5607120D02*
D03*
X7470140Y7855020D02*
D03*
Y7705020D02*
D03*
Y8096320D02*
D03*
Y7946320D02*
D03*
X9265920Y11591360D02*
D03*
Y11441360D02*
D03*
X9408160Y11045120D02*
D03*
Y11195120D02*
D03*
X9253220Y10974000D02*
D03*
Y11124000D02*
D03*
X9405620Y11520240D02*
D03*
Y11370240D02*
D03*
X9258300Y12378760D02*
D03*
Y12228760D02*
D03*
X9415780Y11852840D02*
D03*
Y12002840D02*
D03*
X9263380Y11791880D02*
D03*
Y11941880D02*
D03*
X9405620Y12312720D02*
D03*
Y12162720D02*
D03*
X4942040Y5899220D02*
D03*
Y5749220D02*
D03*
D49*
X6076579Y4839420D02*
D03*
X5136579D02*
D03*
X6068959Y6305000D02*
D03*
X5128959D02*
D03*
D50*
X2654300Y12280640D02*
D03*
Y12372080D02*
D03*
D51*
Y12491360D02*
D03*
Y12161360D02*
D03*
D52*
X3112520Y12056500D02*
D03*
X2922520D02*
D03*
X3017520Y12296500D02*
D03*
X3112520D02*
D03*
X2922520D02*
D03*
D53*
X5425320Y11483840D02*
D03*
X8275320D02*
D03*
X6617320Y10053840D02*
D03*
X6137320D02*
D03*
X7562320D02*
D03*
X8042320D02*
D03*
D54*
X6617320Y10673839D02*
D03*
X5657320D02*
D03*
X8042320Y10673840D02*
D03*
X7082320D02*
D03*
D55*
X3916680Y8023860D02*
D03*
Y8373860D02*
D03*
D56*
X6852920Y8166100D02*
D03*
X10985500Y13218159D02*
D03*
Y12964160D02*
D03*
X10731500Y13218159D02*
D03*
Y12964160D02*
D03*
X10477500Y13218159D02*
D03*
Y12964160D02*
D03*
X10223500Y13218159D02*
D03*
Y12964160D02*
D03*
X9969500Y13218159D02*
D03*
X2556840Y13471201D02*
D03*
X2756840D02*
D03*
X2156840Y13071201D02*
D03*
Y13271201D02*
D03*
D57*
X6852920Y7912100D02*
D03*
D58*
X13724181Y11448720D02*
D03*
D59*
X13524181D02*
D03*
X13324181D02*
D03*
X13124181D02*
D03*
X12924181D02*
D03*
X12724180D02*
D03*
X12524180D02*
D03*
X13724181Y11248720D02*
D03*
X13524181D02*
D03*
X13324181D02*
D03*
X13124181D02*
D03*
X12924181D02*
D03*
X12724180D02*
D03*
X12524180D02*
D03*
D60*
X12624180Y11348720D02*
D03*
D61*
X9969500Y12964160D02*
D03*
D62*
X4165600Y12453360D02*
D03*
Y13373360D02*
D03*
Y12913361D02*
D03*
D63*
X2656840Y12851199D02*
D03*
D64*
Y13471201D02*
D03*
D65*
X2156840Y13171201D02*
D03*
D66*
X2781840Y12851199D02*
D03*
X2531840D02*
D03*
D67*
X15953740Y5368290D02*
D03*
X16258540Y10806430D02*
D03*
D68*
X10179120Y10003660D02*
D03*
Y9893660D02*
D03*
X10289119D02*
D03*
Y10003660D02*
D03*
D69*
X11700000Y6990000D02*
D03*
X9050000Y9540000D02*
D03*
X11580000Y7430000D02*
D03*
Y7340000D02*
D03*
X11049000Y6446520D02*
D03*
X11890000Y7140000D02*
D03*
X12060000D02*
D03*
X12010000Y7660000D02*
D03*
X12014200Y7305800D02*
D03*
X13056799Y7553640D02*
D03*
X13555980Y12710160D02*
D03*
X13682980D02*
D03*
X13809979Y12697460D02*
D03*
X13936980Y12705080D02*
D03*
X9936480Y9799320D02*
D03*
X10510520Y9761220D02*
D03*
X10513060Y9872980D02*
D03*
X6474460Y10942320D02*
D03*
X4478020Y8775440D02*
D03*
Y8854180D02*
D03*
X4475480Y8689080D02*
D03*
Y8600180D02*
D03*
X4559300Y8775440D02*
D03*
X4561840Y8854180D02*
D03*
X4559300Y8686540D02*
D03*
Y8597640D02*
D03*
X12796520Y12766040D02*
D03*
X12664440Y12768580D02*
D03*
X12021820Y8018780D02*
D03*
X10147300Y9530080D02*
D03*
X10020300Y13606779D02*
D03*
X10018219Y12555220D02*
D03*
X10020300Y13403580D02*
D03*
X10020759Y12758420D02*
D03*
X10507980Y6065520D02*
D03*
X10568940Y6301740D02*
D03*
X11140440Y6306820D02*
D03*
X10375900Y6388100D02*
D03*
X9690100Y6327140D02*
D03*
X9430000Y10040000D02*
D03*
X9070000D02*
D03*
X9290000Y9790000D02*
D03*
X8816340Y9888220D02*
D03*
X10614660Y10073640D02*
D03*
X9834880Y10005060D02*
D03*
X9936480Y9702800D02*
D03*
Y9888220D02*
D03*
X9918700Y10116820D02*
D03*
X9926320Y10205720D02*
D03*
X10515600Y10208260D02*
D03*
X10518140Y9974580D02*
D03*
X7223760Y5702000D02*
D03*
X7221220Y5443220D02*
D03*
X6327140Y5257800D02*
D03*
X6245860Y5222240D02*
D03*
X6365240Y5923280D02*
D03*
X6289040D02*
D03*
X4799800Y4119080D02*
D03*
X4349780Y4088100D02*
D03*
X4363720Y5016500D02*
D03*
Y4912360D02*
D03*
Y4810760D02*
D03*
Y4716780D02*
D03*
Y4620260D02*
D03*
X5179060Y5623560D02*
D03*
X5080000Y5621020D02*
D03*
X4986020Y5623560D02*
D03*
X4889500Y5621020D02*
D03*
X4686300Y6690360D02*
D03*
X4795520D02*
D03*
X4912360D02*
D03*
X5029200D02*
D03*
X5151120D02*
D03*
Y6581140D02*
D03*
X5029200D02*
D03*
X4912360D02*
D03*
X4795520D02*
D03*
X4686300D02*
D03*
X2778760Y8000740D02*
D03*
X2697480Y8003280D02*
D03*
X2616200Y8005820D02*
D03*
X2542540D02*
D03*
X2849880Y7553700D02*
D03*
X2773680D02*
D03*
X2697480D02*
D03*
X2618740D02*
D03*
X2537460D02*
D03*
X4318620Y9295520D02*
D03*
X2649220Y11874240D02*
D03*
X2565400Y11871700D02*
D03*
X2710000Y11950000D02*
D03*
X2567940Y11947900D02*
D03*
X2722880Y12026640D02*
D03*
X2646680D02*
D03*
X2567940Y12024100D02*
D03*
X3909060Y7584180D02*
D03*
X3200400Y7716260D02*
D03*
X3197860Y7858500D02*
D03*
X8906040Y9887420D02*
D03*
X9588500Y6322060D02*
D03*
Y6241580D02*
D03*
X13032739Y8775700D02*
D03*
Y7881620D02*
D03*
X11861800Y7899400D02*
D03*
X9491980Y6413500D02*
D03*
X9588500Y6400800D02*
D03*
X10195560Y6403340D02*
D03*
X11049000Y6518660D02*
D03*
X9898380Y6774180D02*
D03*
X12390120Y8610600D02*
D03*
X11564620Y13258800D02*
D03*
X11938000Y13248640D02*
D03*
Y12951460D02*
D03*
X12463780Y13251180D02*
D03*
X12082780Y13248640D02*
D03*
X12471400Y12948920D02*
D03*
X3858260Y4994960D02*
D03*
X3726180Y5000040D02*
D03*
X13558521Y13103860D02*
D03*
X13682980D02*
D03*
X13809979D02*
D03*
X13931900D02*
D03*
X6118820Y10408920D02*
D03*
X6278820D02*
D03*
X6518820D02*
D03*
X7541220Y10413999D02*
D03*
X7621220Y10414000D02*
D03*
X7701220D02*
D03*
X7941220D02*
D03*
X5754460Y10942320D02*
D03*
X5834460D02*
D03*
X7180620Y10937240D02*
D03*
X7900620D02*
D03*
X7260620D02*
D03*
X7420620D02*
D03*
X5994460Y10942320D02*
D03*
X7462780Y10414000D02*
D03*
X7221220D02*
D03*
X6038820Y10408920D02*
D03*
X5798820D02*
D03*
X6198820D02*
D03*
X5674360Y12357100D02*
D03*
X5826760D02*
D03*
X5979160D02*
D03*
X6131560D02*
D03*
X6283960D02*
D03*
X6436360D02*
D03*
X6588760D02*
D03*
X8051800Y12359640D02*
D03*
X7899400D02*
D03*
X7747000D02*
D03*
X7594600D02*
D03*
X7442200D02*
D03*
X7289800D02*
D03*
X7137400D02*
D03*
X5240020Y10591800D02*
D03*
X5242560Y12029440D02*
D03*
Y11940540D02*
D03*
X8463280Y12026900D02*
D03*
Y11943080D02*
D03*
X8458200Y10614660D02*
D03*
Y10525760D02*
D03*
X3261360Y7487920D02*
D03*
X3205740Y12438120D02*
D03*
X3934460Y9298940D02*
D03*
X4817860Y4023880D02*
D03*
X5240020Y10510520D02*
D03*
X7104380Y7871460D02*
D03*
Y7960360D02*
D03*
X7211060Y8257540D02*
D03*
Y8163560D02*
D03*
X7297420Y8257540D02*
D03*
X3726180Y4657140D02*
D03*
X3858260Y4654600D02*
D03*
X3671520Y5116880D02*
D03*
X10253980Y3939540D02*
D03*
X10050780D02*
D03*
X10152380D02*
D03*
X10355580D02*
D03*
X10558780D02*
D03*
X10660380D02*
D03*
X9949180D02*
D03*
X10457180D02*
D03*
X10761980D02*
D03*
X6290320Y8096260D02*
D03*
X6756400Y6474460D02*
D03*
X6192520Y7221220D02*
D03*
X3348240Y7205980D02*
D03*
X3210560Y8087100D02*
D03*
X3375660Y7861040D02*
D03*
Y7718800D02*
D03*
X3304540Y8089640D02*
D03*
X3286760Y7861040D02*
D03*
X3284220Y7716260D02*
D03*
X5788660Y7500620D02*
D03*
X11544300Y8514080D02*
D03*
X9301480Y10350500D02*
D03*
X8796020Y10198100D02*
D03*
X12664440Y13309599D02*
D03*
X12799060Y13304520D02*
D03*
X11677580Y12810420D02*
D03*
X12203360Y12807880D02*
D03*
X7487920Y8526780D02*
D03*
X3790000Y5240000D02*
D03*
X5690000Y8470000D02*
D03*
X13139999Y11080000D02*
D03*
X13130000Y10900000D02*
D03*
X8940000Y10640000D02*
D03*
Y10840000D02*
D03*
X8950000Y11720000D02*
D03*
X8790000Y11840000D02*
D03*
X4740000Y10640000D02*
D03*
Y10800000D02*
D03*
X4750000Y11930000D02*
D03*
Y11760000D02*
D03*
X3490000Y10150000D02*
D03*
X3860000Y7310000D02*
D03*
X3930000D02*
D03*
X4010000D02*
D03*
X10880000Y6420000D02*
D03*
X9030000Y10210000D02*
D03*
X11220000Y9860000D02*
D03*
X13389999Y8520000D02*
D03*
X13560001Y8330000D02*
D03*
X7470000Y7640000D02*
D03*
X7270000Y7700000D02*
D03*
X3870000Y9110000D02*
D03*
X6819986Y6319987D02*
D03*
X10434320Y12156440D02*
D03*
X10556240Y12237720D02*
D03*
X10741660Y12409170D02*
D03*
X10942320Y12514580D02*
D03*
X11221720Y8646160D02*
D03*
X10000000Y6240000D02*
D03*
X7500620Y10937240D02*
D03*
X7740620D02*
D03*
X7820320Y11220978D02*
D03*
X7660620D02*
D03*
X7580620D02*
D03*
X7340620D02*
D03*
X6074460Y10942320D02*
D03*
X6314460D02*
D03*
X6394160Y11226058D02*
D03*
X6234140D02*
D03*
X6154460D02*
D03*
X5914460D02*
D03*
X7584440Y7901940D02*
D03*
D70*
X7350000Y4400000D02*
D03*
X7300000D02*
D03*
X7350000Y4470000D02*
D03*
X7300000D02*
D03*
X6800000Y6070000D02*
D03*
X4990000Y5060000D02*
D03*
X4940000D02*
D03*
X4890000D02*
D03*
X6742900Y5156200D02*
D03*
X7040080Y4838700D02*
D03*
X7390600Y5885180D02*
D03*
X7326959Y5892000D02*
D03*
X7268680Y5887720D02*
D03*
X6445720Y5161280D02*
D03*
X6996900Y5145240D02*
D03*
X6547320Y6114580D02*
D03*
X6996900Y5046980D02*
D03*
X6918160Y5041900D02*
D03*
X6417780Y5046980D02*
D03*
X6222200Y4942840D02*
D03*
X6265380D02*
D03*
X6308560D02*
D03*
X6501600Y5046180D02*
D03*
X6737020Y6045200D02*
D03*
X6493980Y6019800D02*
D03*
X6290780Y6238240D02*
D03*
X6333019Y6237440D02*
D03*
X6374600Y6238240D02*
D03*
Y4841240D02*
D03*
X4703280Y6258560D02*
D03*
X6371120Y6350000D02*
D03*
X6646380Y4937760D02*
D03*
X6770840D02*
D03*
X6707340Y4904740D02*
D03*
X6222200Y5572760D02*
D03*
X5726200Y5619180D02*
D03*
X5725510Y5462150D02*
D03*
X6714890Y6347460D02*
D03*
X7283920Y5242560D02*
D03*
X7329640D02*
D03*
X7375360D02*
D03*
X7466800Y5580380D02*
D03*
Y5626100D02*
D03*
X7806360Y5608320D02*
D03*
X6946639Y5996639D02*
D03*
X6996639D02*
D03*
X7000000Y6080000D02*
D03*
X6410000Y6120000D02*
D03*
X6850000Y6110000D02*
D03*
X7085800Y4995800D02*
D03*
X4830000Y5060000D02*
D03*
X6258812Y5621020D02*
D03*
X6799986Y5169990D02*
D03*
X7169986Y5649989D02*
D03*
X7117080Y5504180D02*
D03*
X7169986Y5539989D02*
D03*
D71*
X7942580Y8747740D02*
D03*
X8790940Y9532620D02*
D03*
X13531860Y8531860D02*
D03*
X12364720Y8768100D02*
D03*
X11660000Y8110000D02*
D03*
X11740000D02*
D03*
X11820000D02*
D03*
X11580000D02*
D03*
X12520960Y6962140D02*
D03*
X14734540Y9549140D02*
D03*
X13121640Y6461760D02*
D03*
X12881641D02*
D03*
X7675881Y9911919D02*
D03*
X8592820Y9663400D02*
D03*
X8790940Y9772620D02*
D03*
X8592820Y9423400D02*
D03*
X6027420Y9663416D02*
D03*
X7942580Y8827740D02*
D03*
X7675881Y9671919D02*
D03*
X11666220Y6501100D02*
D03*
Y6261100D02*
D03*
X15247620Y10495260D02*
D03*
Y10255260D02*
D03*
X14734540Y9789140D02*
D03*
X13771860Y8531860D02*
D03*
X12760960Y6962140D02*
D03*
X12301220Y9502140D02*
D03*
X12842239Y8915420D02*
D03*
X12578080Y9705340D02*
D03*
X12485793Y9708727D02*
D03*
X12509500Y10248900D02*
D03*
X12684760Y10292080D02*
D03*
X6027420Y9423416D02*
D03*
X7942580Y8587740D02*
D03*
X9174480Y12374880D02*
D03*
X9484360Y12311380D02*
D03*
X9500800Y11852840D02*
D03*
X9170600Y11791880D02*
D03*
X8908980Y11883320D02*
D03*
Y12282100D02*
D03*
X9169400Y10972800D02*
D03*
X9493180Y11045120D02*
D03*
X9480620Y11520240D02*
D03*
X9189720Y11590020D02*
D03*
X9636760Y9692640D02*
D03*
X14734540Y9709140D02*
D03*
X12600960Y6962140D02*
D03*
X12680960D02*
D03*
X14734540Y9629140D02*
D03*
X7942580Y8667740D02*
D03*
X12842239Y8995420D02*
D03*
Y9075420D02*
D03*
X9161780Y11130280D02*
D03*
Y11192256D02*
D03*
Y11254232D02*
D03*
Y11316208D02*
D03*
Y11378184D02*
D03*
Y11440160D02*
D03*
X9151620Y11943080D02*
D03*
Y11999976D02*
D03*
Y12056872D02*
D03*
Y12113768D02*
D03*
Y12170664D02*
D03*
Y12227560D02*
D03*
X6027420Y9503416D02*
D03*
X8592820Y9503400D02*
D03*
X6027420Y9583416D02*
D03*
X8592820Y9583400D02*
D03*
X7675880Y9753600D02*
D03*
X8790940Y9612620D02*
D03*
X7675880Y9833600D02*
D03*
X8790940Y9692620D02*
D03*
X9040000Y11530000D02*
D03*
Y11030000D02*
D03*
X12364720Y8688100D02*
D03*
Y8848100D02*
D03*
Y8928100D02*
D03*
X11981180Y8747760D02*
D03*
X12393507Y9502140D02*
D03*
X12485793D02*
D03*
X12578080Y9502140D02*
D03*
X12839973Y9149982D02*
D03*
X13611861Y8531860D02*
D03*
X15247620Y10335260D02*
D03*
Y10415260D02*
D03*
X13691859Y8531860D02*
D03*
X13041640Y6461760D02*
D03*
X12961639D02*
D03*
X11666220Y6341100D02*
D03*
Y6421100D02*
D03*
D72*
X6714960Y5671820D02*
D03*
X6717500Y5768340D02*
D03*
X6816560D02*
D03*
X6619075D02*
D03*
X6520650D02*
D03*
X6914350D02*
D03*
X6815925Y5671820D02*
D03*
X6619075D02*
D03*
X6520650D02*
D03*
X6914350D02*
D03*
X6813385Y5473700D02*
D03*
X6616535D02*
D03*
X6518110D02*
D03*
X6714960D02*
D03*
X6911810D02*
D03*
X6813385Y5377180D02*
D03*
X6616535D02*
D03*
X6518110D02*
D03*
X6714960D02*
D03*
X6911810D02*
D03*
%TF.MD5,f2d1cb63d0c2228155f83c22319ba1de*%
M02*
