G04 Layer_Color=32896*
%FSLAX45Y45*%
%MOMM*%
%TF.FileFunction,Legend,Bot*%
%TF.Part,Single*%
G01*
G75*
%TA.AperFunction,NonConductor*%
%ADD63C,0.25400*%
%ADD95C,0.05080*%
%ADD127C,0.10000*%
%ADD128C,0.25000*%
%ADD129C,0.20000*%
%ADD130C,0.10160*%
%ADD131C,0.12700*%
D63*
X11056460Y9999980D02*
G03*
X11056460Y9999980I-10000J0D01*
G01*
X9578900Y9453800D02*
Y9606200D01*
D95*
X3962400Y5168900D02*
X3982720D01*
X3962400Y5090160D02*
X3982720D01*
X3896360Y4787900D02*
Y4808220D01*
X3817620Y4787900D02*
Y4808220D01*
X3764280Y4787900D02*
Y4808220D01*
X3685540Y4787900D02*
Y4808220D01*
X9138920Y9443720D02*
X9159240D01*
X9138920Y9364980D02*
X9159240D01*
X7686040Y7871460D02*
Y7891780D01*
X7764780Y7871460D02*
Y7891780D01*
X7772400Y7871460D02*
Y7891780D01*
X7851140Y7871460D02*
Y7891780D01*
X11346180Y8705260D02*
Y8725580D01*
X11424920Y8705260D02*
Y8725580D01*
X11430000Y8705260D02*
Y8725580D01*
X11508740Y8705260D02*
Y8725580D01*
X11442700Y8364220D02*
Y8384540D01*
X11521440Y8364220D02*
Y8384540D01*
X11559360Y8389840D02*
Y8410160D01*
X11638100Y8389840D02*
Y8410160D01*
X10063480Y7561580D02*
Y7581900D01*
X9984740Y7561580D02*
Y7581900D01*
X15996919Y6301740D02*
Y6322060D01*
X16075661Y6301740D02*
Y6322060D01*
X16134081Y6746240D02*
Y6766560D01*
X16055341Y6746240D02*
Y6766560D01*
X9065260Y10297160D02*
Y10317480D01*
X9144000Y10297160D02*
Y10317480D01*
X9149080Y10297160D02*
Y10317480D01*
X9227820Y10297160D02*
Y10317480D01*
X8059360Y8129840D02*
Y8150160D01*
X8138100Y8129840D02*
Y8150160D01*
X7979360Y8129840D02*
Y8150160D01*
X8058100Y8129840D02*
Y8150160D01*
X11468100Y7369840D02*
Y7390160D01*
X11389360Y7369840D02*
Y7390160D01*
X11469360Y7369840D02*
Y7390160D01*
X11548100Y7369840D02*
Y7390160D01*
X12390120Y12865100D02*
Y12885420D01*
X12311380Y12865100D02*
Y12885420D01*
X11866880Y12865100D02*
Y12885420D01*
X11788140Y12865100D02*
Y12885420D01*
X12313920Y13164819D02*
Y13185139D01*
X12392660Y13164819D02*
Y13185139D01*
X12164060Y13162280D02*
Y13182600D01*
X12242800Y13162280D02*
Y13182600D01*
X11790680Y13172440D02*
Y13192760D01*
X11869420Y13172440D02*
Y13192760D01*
X11638280Y13172440D02*
Y13192760D01*
X11717020Y13172440D02*
Y13192760D01*
X6676860Y6169660D02*
X6697180D01*
X6676860Y6090920D02*
X6697180D01*
X7126440Y5085080D02*
Y5105400D01*
X7047700Y5085080D02*
Y5105400D01*
X6631140Y5153660D02*
X6651460D01*
X6631140Y5074920D02*
X6651460D01*
X6676860Y6004560D02*
X6697180D01*
X6676860Y6083300D02*
X6697180D01*
X6956260Y5085080D02*
Y5105400D01*
X7035000Y5085080D02*
Y5105400D01*
X6631140Y4988560D02*
X6651460D01*
X6631140Y5067300D02*
X6651460D01*
X9542780Y9829800D02*
X9563100D01*
X9542780Y9751060D02*
X9563100D01*
X8945880Y9756140D02*
X8966200D01*
X8945880Y9834880D02*
X8966200D01*
X9009360Y9639840D02*
Y9660160D01*
X9088100Y9639840D02*
Y9660160D01*
X11145520Y7263720D02*
Y7284040D01*
X11066780Y7263720D02*
Y7284040D01*
D127*
X3875960Y5218480D02*
G03*
X3875960Y5218480I-5000J0D01*
G01*
X13226300Y10923280D02*
G03*
X13226300Y10892280I0J-15500D01*
G01*
X3729760Y5041880D02*
Y5191880D01*
X3859761Y5041880D02*
Y5191880D01*
X3729760Y5041880D02*
X3859761D01*
X3729760Y5191880D02*
X3859761D01*
X9578900Y9631600D02*
X9731300D01*
Y9428400D02*
Y9631600D01*
X9248700D02*
X9578900D01*
X9248700Y9428400D02*
Y9631600D01*
X9578900Y9428400D02*
X9731300D01*
X9248700D02*
X9578900D01*
X10609580Y6243320D02*
X10665460D01*
X10609580Y6136640D02*
X10665460D01*
X10609580Y6009640D02*
X10665460D01*
X10609580Y6116320D02*
X10665460D01*
X13226300Y10892280D02*
Y10965180D01*
Y10850880D02*
Y10923280D01*
X13040300Y10965180D02*
X13226300D01*
X13131400Y10850880D02*
X13226300D01*
X13084399D02*
X13131400D01*
X13040300D02*
X13084399D01*
X13040300D02*
Y10965180D01*
X8600440Y11310620D02*
Y11361420D01*
X8575040Y11336020D02*
X8625840D01*
X8712200Y11793220D02*
Y11877040D01*
X8509000Y11793220D02*
Y11877040D01*
X4965320Y10657921D02*
Y10741741D01*
X5168520Y10657921D02*
Y10741741D01*
X5074540Y11170920D02*
Y11221720D01*
X5049140Y11196320D02*
X5099940D01*
X5074920Y11527540D02*
Y11578340D01*
X5049520Y11552940D02*
X5100320D01*
X5148580Y11795761D02*
Y11879581D01*
X4945380Y11795761D02*
Y11879581D01*
X8521700Y10680699D02*
Y10764519D01*
X8724900Y10680699D02*
Y10764519D01*
X8600440Y10994640D02*
Y11045440D01*
X8575040Y11020040D02*
X8625840D01*
X13445100Y8067040D02*
Y8122920D01*
X13338422Y8067040D02*
Y8122920D01*
X11921101Y7785100D02*
Y7840980D01*
X12027781Y7785100D02*
Y7840980D01*
X13326660Y8702060D02*
Y8757940D01*
X13433340Y8702060D02*
Y8757940D01*
X13452060Y8473340D02*
X13507941D01*
X13452060Y8366660D02*
X13507941D01*
X11440160Y9720580D02*
Y9987280D01*
X11084560Y9720580D02*
X11440160D01*
X11084560D02*
Y9987280D01*
X11440160D01*
X4833479Y5527760D02*
X4929219D01*
X4833479Y5118820D02*
Y5527760D01*
Y5118820D02*
X5033479D01*
Y5527760D01*
X4929219D02*
X5033479D01*
X7377900Y4409440D02*
Y4465320D01*
X7271220Y4409440D02*
Y4465320D01*
X8726820Y8258580D02*
X8813180D01*
X8726820Y8121420D02*
X8813180D01*
X8706820Y8341420D02*
X8793180D01*
X8706820Y8478580D02*
X8793180D01*
X10308580Y9366820D02*
Y9453180D01*
X10171420Y9366820D02*
Y9453180D01*
X10331420Y9366820D02*
Y9453180D01*
X10468580Y9366820D02*
Y9453180D01*
X10216180Y9578340D02*
X10272060D01*
X10216180Y9685020D02*
X10272060D01*
X9832340Y10058400D02*
X9888220D01*
X9832340Y9951720D02*
X9888220D01*
X10561100Y10022320D02*
X10616980D01*
X10561100Y10129000D02*
X10616980D01*
X9461500Y9936480D02*
Y9992360D01*
X9568180Y9936480D02*
Y9992360D01*
X9042400Y9936480D02*
Y9992360D01*
X8935720Y9936480D02*
Y9992360D01*
X10520680Y6418580D02*
Y6474460D01*
X10627360Y6418580D02*
Y6474460D01*
X11087100Y6416040D02*
Y6471920D01*
X11193780Y6416040D02*
Y6471920D01*
X9743440Y6289040D02*
Y6344920D01*
X9636760Y6289040D02*
Y6344920D01*
X10358120Y6289040D02*
Y6344920D01*
X10251440Y6289040D02*
Y6344920D01*
X9740900Y6710680D02*
Y6845380D01*
X9489440Y6703060D02*
Y6849560D01*
X10244460Y6753960D02*
Y6888660D01*
X9993000Y6746340D02*
Y6892840D01*
D128*
X10970640Y6603660D02*
G03*
X10970640Y6603660I-12500J0D01*
G01*
X10084180Y6514760D02*
G03*
X10084180Y6514760I-12500J0D01*
G01*
X10526620Y10148660D02*
G03*
X10526620Y10148660I-12500J0D01*
G01*
X9385680Y9974240D02*
G03*
X9385680Y9974240I-12500J0D01*
G01*
D129*
X12649849Y8844280D02*
G03*
X12713349Y8844280I31750J0D01*
G01*
X10800640Y6278660D02*
Y6568660D01*
X10870640Y6278660D02*
Y6568660D01*
X10800640Y6278660D02*
X10870640D01*
X10800640Y6568660D02*
X10870640D01*
X9914180Y6189760D02*
Y6479760D01*
X9984180Y6189760D02*
Y6479760D01*
X9914180Y6189760D02*
X9984180D01*
X9914180Y6479760D02*
X9984180D01*
X8763640Y11512620D02*
X8843640D01*
X8763640Y11362620D02*
X8843640D01*
X4831340Y11019720D02*
X4911340D01*
X4831340Y11169720D02*
X4911340D01*
X4831720Y11526340D02*
X4911720D01*
X4831720Y11376340D02*
X4911720D01*
X8763640Y11046640D02*
X8843640D01*
X8763640Y11196640D02*
X8843640D01*
X12713349Y8844280D02*
X13061980D01*
X12307599D02*
X12649849D01*
X12307599Y7828280D02*
Y8844280D01*
Y7828280D02*
X13061980D01*
Y8844280D01*
X10449120Y9733660D02*
Y9796160D01*
X10386620Y9733660D02*
X10449120D01*
Y10101160D02*
Y10163660D01*
X10386620D02*
X10449120D01*
X10019120Y9733660D02*
X10081620D01*
X10019120D02*
Y9796160D01*
Y10101160D02*
Y10163660D01*
X10081620D01*
X9215680Y9649240D02*
Y9939240D01*
X9285680Y9649240D02*
Y9939240D01*
X9215680Y9649240D02*
X9285680D01*
X9215680Y9939240D02*
X9285680D01*
D130*
X6471120Y4986020D02*
Y5006340D01*
X6532080Y4986020D02*
Y5006340D01*
X10165080Y6281420D02*
Y6301740D01*
X10226040Y6281420D02*
Y6301740D01*
X9461500Y6286500D02*
Y6306820D01*
X9522460Y6286500D02*
Y6306820D01*
X9780480Y8139840D02*
Y8160160D01*
X9719520Y8139840D02*
Y8160160D01*
X8722360Y11587480D02*
X8742680D01*
X8722360Y11648440D02*
X8742680D01*
X4934840Y10939861D02*
X4955160D01*
X4934840Y10878901D02*
X4955160D01*
X4925060Y11663681D02*
X4945380D01*
X4925060Y11602721D02*
X4945380D01*
X4914900Y12075161D02*
X4935220D01*
X4914900Y12014201D02*
X4935220D01*
X8707120Y12019280D02*
X8727440D01*
X8707120Y12080240D02*
X8727440D01*
X8735060Y10894059D02*
X8755380D01*
X8735060Y10955019D02*
X8755380D01*
X8735060Y10485119D02*
X8755380D01*
X8735060Y10546079D02*
X8755380D01*
X4939920Y10525841D02*
X4960240D01*
X4939920Y10464881D02*
X4960240D01*
X11254740Y10076180D02*
X11275060D01*
X11254740Y10137140D02*
X11275060D01*
X10879840Y8559520D02*
X10900160D01*
X10879840Y8620480D02*
X10900160D01*
X10670540Y8844280D02*
Y8864600D01*
X10609580Y8844280D02*
Y8864600D01*
X10480480Y9039840D02*
Y9060160D01*
X10419520Y9039840D02*
Y9060160D01*
X10815320Y7345680D02*
Y7366000D01*
X10876280Y7345680D02*
Y7366000D01*
X10675620Y7447280D02*
Y7467600D01*
X10614660Y7447280D02*
Y7467600D01*
X10617200Y7934960D02*
Y7955280D01*
X10678160Y7934960D02*
Y7955280D01*
X10215880Y8143240D02*
Y8163560D01*
X10276840Y8143240D02*
Y8163560D01*
X10911840Y8021320D02*
Y8041640D01*
X10972800Y8021320D02*
Y8041640D01*
X10507980Y8244840D02*
Y8265160D01*
X10568940Y8244840D02*
Y8265160D01*
X10812780Y8354060D02*
Y8374380D01*
X10873740Y8354060D02*
Y8374380D01*
X10579840Y8579520D02*
X10600160D01*
X10579840Y8640480D02*
X10600160D01*
X9093200Y8061960D02*
X9113520D01*
X9093200Y8122920D02*
X9113520D01*
X9329420Y8524240D02*
Y8544560D01*
X9390380Y8524240D02*
Y8544560D01*
X9077960Y8735060D02*
X9098280D01*
X9077960Y8674100D02*
X9098280D01*
X8979840Y8379520D02*
X9000160D01*
X8979840Y8440480D02*
X9000160D01*
X9829800Y8234680D02*
Y8255000D01*
X9890760Y8234680D02*
Y8255000D01*
X9489440Y8323580D02*
Y8343900D01*
X9428480Y8323580D02*
Y8343900D01*
X9532620Y8516620D02*
Y8536940D01*
X9593580Y8516620D02*
Y8536940D01*
X10066020Y7848600D02*
X10086340D01*
X10066020Y7787640D02*
X10086340D01*
X9829520Y7749840D02*
Y7770160D01*
X9890480Y7749840D02*
Y7770160D01*
X9969500Y7988300D02*
X9989820D01*
X9969500Y8049260D02*
X9989820D01*
Y8321040D02*
Y8341360D01*
X10050780Y8321040D02*
Y8341360D01*
X9992360Y8524240D02*
Y8544560D01*
X10053320Y8524240D02*
Y8544560D01*
X9334500Y8925560D02*
Y8945880D01*
X9395460Y8925560D02*
Y8945880D01*
X9296400Y9118600D02*
Y9138920D01*
X9235440Y9118600D02*
Y9138920D01*
X6577800Y6154420D02*
Y6174740D01*
X6516840Y6154420D02*
Y6174740D01*
X6885140Y4983480D02*
Y5003800D01*
X6946100Y4983480D02*
Y5003800D01*
X6959840Y6079520D02*
X6980160D01*
X6959840Y6140480D02*
X6980160D01*
X9542780Y9723120D02*
X9563100D01*
X9542780Y9662160D02*
X9563100D01*
X9834880Y8422640D02*
Y8442960D01*
X9895840Y8422640D02*
Y8442960D01*
X9733280Y8938260D02*
Y8958580D01*
X9794240Y8938260D02*
Y8958580D01*
X9700260Y9126220D02*
Y9146540D01*
X9639300Y9126220D02*
Y9146540D01*
X9311640Y7838440D02*
Y7858760D01*
X9372600Y7838440D02*
Y7858760D01*
X9119520Y7439840D02*
Y7460160D01*
X9180480Y7439840D02*
Y7460160D01*
X8980480Y7549840D02*
Y7570160D01*
X8919520Y7549840D02*
Y7570160D01*
X9180480Y6969840D02*
Y6990160D01*
X9119520Y6969840D02*
Y6990160D01*
X10870480Y8839840D02*
Y8860160D01*
X10809520Y8839840D02*
Y8860160D01*
X9791700Y8323580D02*
Y8343900D01*
X9730740Y8323580D02*
Y8343900D01*
D131*
X11399520Y7491760D02*
X11462999D01*
Y7523500D01*
X11452420Y7534080D01*
X11431260D01*
X11420680Y7523500D01*
Y7491760D01*
Y7512920D02*
X11399520Y7534080D01*
X11410100Y7555239D02*
X11399520Y7565819D01*
Y7586979D01*
X11410100Y7597559D01*
X11452420D01*
X11462999Y7586979D01*
Y7565819D01*
X11452420Y7555239D01*
X11441840D01*
X11431260Y7565819D01*
Y7597559D01*
X11462999Y7661039D02*
X11452420Y7639879D01*
X11431260Y7618719D01*
X11410100D01*
X11399520Y7629299D01*
Y7650459D01*
X11410100Y7661039D01*
X11420680D01*
X11431260Y7650459D01*
Y7618719D01*
X13667680Y8432900D02*
X13678259Y8443479D01*
X13699420D01*
X13710001Y8432900D01*
Y8390580D01*
X13699420Y8380000D01*
X13678259D01*
X13667680Y8390580D01*
X13646521Y8380000D02*
X13625362D01*
X13635941D01*
Y8443479D01*
X13646521Y8432900D01*
X9637680Y8122900D02*
X9648260Y8133480D01*
X9669420D01*
X9680000Y8122900D01*
Y8080580D01*
X9669420Y8070000D01*
X9648260D01*
X9637680Y8080580D01*
X9574201Y8070000D02*
X9616521D01*
X9574201Y8112320D01*
Y8122900D01*
X9584781Y8133480D01*
X9605941D01*
X9616521Y8122900D01*
X11283541Y10258620D02*
X11294121Y10269199D01*
X11315281D01*
X11325861Y10258620D01*
Y10216300D01*
X11315281Y10205720D01*
X11294121D01*
X11283541Y10216300D01*
X11220061Y10269199D02*
X11262381D01*
Y10237460D01*
X11241221Y10248040D01*
X11230641D01*
X11220061Y10237460D01*
Y10216300D01*
X11230641Y10205720D01*
X11251801D01*
X11262381Y10216300D01*
X11107680Y8612899D02*
X11118260Y8623479D01*
X11139420D01*
X11150000Y8612899D01*
Y8570580D01*
X11139420Y8560000D01*
X11118260D01*
X11107680Y8570580D01*
X11086521Y8560000D02*
X11065361D01*
X11075941D01*
Y8623479D01*
X11086521Y8612899D01*
X11033621D02*
X11023041Y8623479D01*
X11001881D01*
X10991301Y8612899D01*
Y8570580D01*
X11001881Y8560000D01*
X11023041D01*
X11033621Y8570580D01*
Y8612899D01*
X10927100Y8877680D02*
X10916520Y8888260D01*
Y8909420D01*
X10927100Y8920000D01*
X10969420D01*
X10980000Y8909420D01*
Y8888260D01*
X10969420Y8877680D01*
X10980000Y8856521D02*
Y8835361D01*
Y8845941D01*
X10916520D01*
X10927100Y8856521D01*
X10980000Y8803621D02*
Y8782461D01*
Y8793041D01*
X10916520D01*
X10927100Y8803621D01*
X10537100Y8877680D02*
X10526520Y8888260D01*
Y8909420D01*
X10537100Y8920000D01*
X10579420D01*
X10590000Y8909420D01*
Y8888260D01*
X10579420Y8877680D01*
X10590000Y8856521D02*
Y8835361D01*
Y8845941D01*
X10526520D01*
X10537100Y8856521D01*
X10590000Y8761301D02*
Y8803621D01*
X10547680Y8761301D01*
X10537100D01*
X10526520Y8771881D01*
Y8793041D01*
X10537100Y8803621D01*
X10427160Y8890800D02*
X10416580Y8901380D01*
Y8922540D01*
X10427160Y8933120D01*
X10469480D01*
X10480060Y8922540D01*
Y8901380D01*
X10469480Y8890800D01*
X10480060Y8869641D02*
Y8848481D01*
Y8859061D01*
X10416580D01*
X10427160Y8869641D01*
Y8816741D02*
X10416580Y8806161D01*
Y8785001D01*
X10427160Y8774421D01*
X10437740D01*
X10448320Y8785001D01*
Y8795581D01*
Y8785001D01*
X10458900Y8774421D01*
X10469480D01*
X10480060Y8785001D01*
Y8806161D01*
X10469480Y8816741D01*
X10517100Y9467680D02*
X10506521Y9478260D01*
Y9499420D01*
X10517100Y9510000D01*
X10559420D01*
X10570000Y9499420D01*
Y9478260D01*
X10559420Y9467680D01*
X10570000Y9446521D02*
Y9425361D01*
Y9435941D01*
X10506521D01*
X10517100Y9446521D01*
X10570000Y9361881D02*
X10506521D01*
X10538260Y9393621D01*
Y9351301D01*
X10087680Y9452900D02*
X10098260Y9463479D01*
X10119420D01*
X10130000Y9452900D01*
Y9410580D01*
X10119420Y9400000D01*
X10098260D01*
X10087680Y9410580D01*
X10066521Y9400000D02*
X10045361D01*
X10055941D01*
Y9463479D01*
X10066521Y9452900D01*
X9971301Y9463479D02*
X10013621D01*
Y9431740D01*
X9992461Y9442320D01*
X9981881D01*
X9971301Y9431740D01*
Y9410580D01*
X9981881Y9400000D01*
X10003041D01*
X10013621Y9410580D01*
X11027680Y7452899D02*
X11038260Y7463479D01*
X11059420D01*
X11070000Y7452899D01*
Y7410580D01*
X11059420Y7400000D01*
X11038260D01*
X11027680Y7410580D01*
X10964201Y7400000D02*
X11006521D01*
X10964201Y7442320D01*
Y7452899D01*
X10974781Y7463479D01*
X10995941D01*
X11006521Y7452899D01*
X10911301Y7400000D02*
Y7463479D01*
X10943041Y7431740D01*
X10900721D01*
X10537680Y7462899D02*
X10548260Y7473479D01*
X10569420D01*
X10580000Y7462899D01*
Y7420580D01*
X10569420Y7410000D01*
X10548260D01*
X10537680Y7420580D01*
X10474201Y7410000D02*
X10516520D01*
X10474201Y7452320D01*
Y7462899D01*
X10484781Y7473479D01*
X10505941D01*
X10516520Y7462899D01*
X10410721Y7473479D02*
X10453041D01*
Y7441740D01*
X10431881Y7452320D01*
X10421301D01*
X10410721Y7441740D01*
Y7420580D01*
X10421301Y7410000D01*
X10442461D01*
X10453041Y7420580D01*
X10527100Y7977680D02*
X10516520Y7988260D01*
Y8009420D01*
X10527100Y8020000D01*
X10569420D01*
X10580000Y8009420D01*
Y7988260D01*
X10569420Y7977680D01*
X10580000Y7914201D02*
Y7956521D01*
X10537680Y7914201D01*
X10527100D01*
X10516520Y7924781D01*
Y7945941D01*
X10527100Y7956521D01*
X10516520Y7850721D02*
X10527100Y7871881D01*
X10548260Y7893041D01*
X10569420D01*
X10580000Y7882461D01*
Y7861301D01*
X10569420Y7850721D01*
X10558840D01*
X10548260Y7861301D01*
Y7893041D01*
X10317101Y8187680D02*
X10306521Y8198260D01*
Y8219420D01*
X10317101Y8230000D01*
X10359420D01*
X10370000Y8219420D01*
Y8198260D01*
X10359420Y8187680D01*
X10370000Y8124201D02*
Y8166521D01*
X10327680Y8124201D01*
X10317101D01*
X10306521Y8134781D01*
Y8155941D01*
X10317101Y8166521D01*
X10306521Y8103041D02*
Y8060721D01*
X10317101D01*
X10359420Y8103041D01*
X10370000D01*
X9127100Y6817680D02*
X9116521Y6828260D01*
Y6849420D01*
X9127100Y6860000D01*
X9169420D01*
X9180000Y6849420D01*
Y6828260D01*
X9169420Y6817680D01*
X9127100Y6796521D02*
X9116521Y6785941D01*
Y6764781D01*
X9127100Y6754201D01*
X9137680D01*
X9148260Y6764781D01*
Y6775361D01*
Y6764781D01*
X9158840Y6754201D01*
X9169420D01*
X9180000Y6764781D01*
Y6785941D01*
X9169420Y6796521D01*
X9127100Y6733041D02*
X9116521Y6722461D01*
Y6701301D01*
X9127100Y6690721D01*
X9169420D01*
X9180000Y6701301D01*
Y6722461D01*
X9169420Y6733041D01*
X9127100D01*
X9168979Y7598760D02*
X9179559Y7588180D01*
Y7567020D01*
X9168979Y7556440D01*
X9126660D01*
X9116080Y7567020D01*
Y7588180D01*
X9126660Y7598760D01*
X9168979Y7619919D02*
X9179559Y7630499D01*
Y7651659D01*
X9168979Y7662239D01*
X9158400D01*
X9147820Y7651659D01*
Y7641079D01*
Y7651659D01*
X9137240Y7662239D01*
X9126660D01*
X9116080Y7651659D01*
Y7630499D01*
X9126660Y7619919D01*
X9116080Y7683399D02*
Y7704559D01*
Y7693979D01*
X9179559D01*
X9168979Y7683399D01*
X8932620Y7401360D02*
X8922041Y7411940D01*
Y7433100D01*
X8932620Y7443680D01*
X8974940D01*
X8985520Y7433100D01*
Y7411940D01*
X8974940Y7401360D01*
X8932620Y7380201D02*
X8922041Y7369621D01*
Y7348461D01*
X8932620Y7337881D01*
X8943200D01*
X8953780Y7348461D01*
Y7359041D01*
Y7348461D01*
X8964360Y7337881D01*
X8974940D01*
X8985520Y7348461D01*
Y7369621D01*
X8974940Y7380201D01*
X8985520Y7274402D02*
Y7316721D01*
X8943200Y7274402D01*
X8932620D01*
X8922041Y7284981D01*
Y7306141D01*
X8932620Y7316721D01*
X9362899Y8012320D02*
X9373479Y8001740D01*
Y7980580D01*
X9362899Y7970000D01*
X9320580D01*
X9310000Y7980580D01*
Y8001740D01*
X9320580Y8012320D01*
X9362899Y8033479D02*
X9373479Y8044059D01*
Y8065219D01*
X9362899Y8075799D01*
X9352320D01*
X9341740Y8065219D01*
Y8054639D01*
Y8065219D01*
X9331160Y8075799D01*
X9320580D01*
X9310000Y8065219D01*
Y8044059D01*
X9320580Y8033479D01*
X9362899Y8096959D02*
X9373479Y8107539D01*
Y8128699D01*
X9362899Y8139279D01*
X9352320D01*
X9341740Y8128699D01*
Y8118119D01*
Y8128699D01*
X9331160Y8139279D01*
X9320580D01*
X9310000Y8128699D01*
Y8107539D01*
X9320580Y8096959D01*
X11017100Y8067680D02*
X11006521Y8078260D01*
Y8099420D01*
X11017100Y8110000D01*
X11059420D01*
X11070000Y8099420D01*
Y8078260D01*
X11059420Y8067680D01*
X11017100Y8046521D02*
X11006521Y8035941D01*
Y8014781D01*
X11017100Y8004201D01*
X11027680D01*
X11038260Y8014781D01*
Y8025361D01*
Y8014781D01*
X11048840Y8004201D01*
X11059420D01*
X11070000Y8014781D01*
Y8035941D01*
X11059420Y8046521D01*
X11006521Y7940721D02*
X11017100Y7961881D01*
X11038260Y7983041D01*
X11059420D01*
X11070000Y7972461D01*
Y7951301D01*
X11059420Y7940721D01*
X11048840D01*
X11038260Y7951301D01*
Y7983041D01*
X10427101Y8287680D02*
X10416521Y8298260D01*
Y8319420D01*
X10427101Y8330000D01*
X10469420D01*
X10480000Y8319420D01*
Y8298260D01*
X10469420Y8287680D01*
X10427101Y8266521D02*
X10416521Y8255941D01*
Y8234781D01*
X10427101Y8224201D01*
X10437680D01*
X10448260Y8234781D01*
Y8245361D01*
Y8234781D01*
X10458840Y8224201D01*
X10469420D01*
X10480000Y8234781D01*
Y8255941D01*
X10469420Y8266521D01*
X10416521Y8203041D02*
Y8160722D01*
X10427101D01*
X10469420Y8203041D01*
X10480000D01*
X10727100Y8397680D02*
X10716521Y8408260D01*
Y8429420D01*
X10727100Y8440000D01*
X10769420D01*
X10780000Y8429420D01*
Y8408260D01*
X10769420Y8397680D01*
X10727100Y8376520D02*
X10716521Y8365941D01*
Y8344781D01*
X10727100Y8334201D01*
X10737680D01*
X10748260Y8344781D01*
Y8355361D01*
Y8344781D01*
X10758840Y8334201D01*
X10769420D01*
X10780000Y8344781D01*
Y8365941D01*
X10769420Y8376520D01*
X10727100Y8313041D02*
X10716521Y8302461D01*
Y8281301D01*
X10727100Y8270721D01*
X10737680D01*
X10748260Y8281301D01*
X10758840Y8270721D01*
X10769420D01*
X10780000Y8281301D01*
Y8302461D01*
X10769420Y8313041D01*
X10758840D01*
X10748260Y8302461D01*
X10737680Y8313041D01*
X10727100D01*
X10748260Y8302461D02*
Y8281301D01*
X10637680Y8532900D02*
X10648260Y8543479D01*
X10669420D01*
X10680000Y8532900D01*
Y8490580D01*
X10669420Y8480000D01*
X10648260D01*
X10637680Y8490580D01*
X10616521Y8532900D02*
X10605941Y8543479D01*
X10584781D01*
X10574201Y8532900D01*
Y8522320D01*
X10584781Y8511740D01*
X10595361D01*
X10584781D01*
X10574201Y8501160D01*
Y8490580D01*
X10584781Y8480000D01*
X10605941D01*
X10616521Y8490580D01*
X10553041D02*
X10542461Y8480000D01*
X10521301D01*
X10510721Y8490580D01*
Y8532900D01*
X10521301Y8543479D01*
X10542461D01*
X10553041Y8532900D01*
Y8522320D01*
X10542461Y8511740D01*
X10510721D01*
X9147680Y8212900D02*
X9158260Y8223479D01*
X9179420D01*
X9190000Y8212900D01*
Y8170580D01*
X9179420Y8160000D01*
X9158260D01*
X9147680Y8170580D01*
X9094781Y8160000D02*
Y8223479D01*
X9126520Y8191740D01*
X9084201D01*
X9020721Y8160000D02*
X9063041D01*
X9020721Y8202320D01*
Y8212900D01*
X9031301Y8223479D01*
X9052461D01*
X9063041Y8212900D01*
X9337100Y8767680D02*
X9326521Y8778260D01*
Y8799420D01*
X9337100Y8810000D01*
X9379420D01*
X9390000Y8799420D01*
Y8778260D01*
X9379420Y8767680D01*
X9390000Y8714781D02*
X9326521D01*
X9358260Y8746520D01*
Y8704201D01*
X9337100Y8683041D02*
X9326521Y8672461D01*
Y8651301D01*
X9337100Y8640721D01*
X9347680D01*
X9358260Y8651301D01*
Y8661881D01*
Y8651301D01*
X9368840Y8640721D01*
X9379420D01*
X9390000Y8651301D01*
Y8672461D01*
X9379420Y8683041D01*
X8927680Y8722899D02*
X8938260Y8733479D01*
X8959420D01*
X8970000Y8722899D01*
Y8680580D01*
X8959420Y8670000D01*
X8938260D01*
X8927680Y8680580D01*
X8874781Y8670000D02*
Y8733479D01*
X8906521Y8701740D01*
X8864201D01*
X8811301Y8670000D02*
Y8733479D01*
X8843041Y8701740D01*
X8800722D01*
X9037680Y8524300D02*
X9048260Y8534880D01*
X9069420D01*
X9080000Y8524300D01*
Y8481980D01*
X9069420Y8471400D01*
X9048260D01*
X9037680Y8481980D01*
X8984781Y8471400D02*
Y8534880D01*
X9016520Y8503140D01*
X8974201D01*
X8910721Y8534880D02*
X8953041D01*
Y8503140D01*
X8931881Y8513720D01*
X8921301D01*
X8910721Y8503140D01*
Y8481980D01*
X8921301Y8471400D01*
X8942461D01*
X8953041Y8481980D01*
X8547680Y8442900D02*
X8558260Y8453479D01*
X8579420D01*
X8590000Y8442900D01*
Y8400580D01*
X8579420Y8390000D01*
X8558260D01*
X8547680Y8400580D01*
X8494781Y8390000D02*
Y8453479D01*
X8526521Y8421740D01*
X8484201D01*
X8420722Y8453479D02*
X8441882Y8442900D01*
X8463041Y8421740D01*
Y8400580D01*
X8452461Y8390000D01*
X8431301D01*
X8420722Y8400580D01*
Y8411160D01*
X8431301Y8421740D01*
X8463041D01*
X8807680Y8072900D02*
X8818260Y8083479D01*
X8839420D01*
X8850000Y8072900D01*
Y8030580D01*
X8839420Y8020000D01*
X8818260D01*
X8807680Y8030580D01*
X8754781Y8020000D02*
Y8083479D01*
X8786521Y8051740D01*
X8744201D01*
X8723041Y8083479D02*
X8680722D01*
Y8072900D01*
X8723041Y8030580D01*
Y8020000D01*
X9737100Y8577680D02*
X9726521Y8588260D01*
Y8609420D01*
X9737100Y8620000D01*
X9779420D01*
X9790000Y8609420D01*
Y8588260D01*
X9779420Y8577680D01*
X9790000Y8524781D02*
X9726521D01*
X9758260Y8556521D01*
Y8514201D01*
X9779420Y8493041D02*
X9790000Y8482461D01*
Y8461301D01*
X9779420Y8450721D01*
X9737100D01*
X9726521Y8461301D01*
Y8482461D01*
X9737100Y8493041D01*
X9747680D01*
X9758260Y8482461D01*
Y8450721D01*
X9822920Y8083500D02*
X9812340Y8094080D01*
Y8115240D01*
X9822920Y8125820D01*
X9865240D01*
X9875820Y8115240D01*
Y8094080D01*
X9865240Y8083500D01*
X9812340Y8020021D02*
Y8062340D01*
X9844080D01*
X9833500Y8041181D01*
Y8030601D01*
X9844080Y8020021D01*
X9865240D01*
X9875820Y8030601D01*
Y8051761D01*
X9865240Y8062340D01*
X9822920Y7998861D02*
X9812340Y7988281D01*
Y7967121D01*
X9822920Y7956541D01*
X9865240D01*
X9875820Y7967121D01*
Y7988281D01*
X9865240Y7998861D01*
X9822920D01*
X9357680Y8402900D02*
X9368260Y8413479D01*
X9389420D01*
X9400000Y8402900D01*
Y8360580D01*
X9389420Y8350000D01*
X9368260D01*
X9357680Y8360580D01*
X9294201Y8413479D02*
X9336521D01*
Y8381740D01*
X9315361Y8392320D01*
X9304781D01*
X9294201Y8381740D01*
Y8360580D01*
X9304781Y8350000D01*
X9325941D01*
X9336521Y8360580D01*
X9273041Y8350000D02*
X9251881D01*
X9262461D01*
Y8413479D01*
X9273041Y8402900D01*
X9537101Y8767680D02*
X9526521Y8778260D01*
Y8799420D01*
X9537101Y8810000D01*
X9579420D01*
X9590000Y8799420D01*
Y8778260D01*
X9579420Y8767680D01*
X9526521Y8704201D02*
Y8746520D01*
X9558260D01*
X9547680Y8725361D01*
Y8714781D01*
X9558260Y8704201D01*
X9579420D01*
X9590000Y8714781D01*
Y8735941D01*
X9579420Y8746520D01*
X9590000Y8640721D02*
Y8683041D01*
X9547680Y8640721D01*
X9537101D01*
X9526521Y8651301D01*
Y8672461D01*
X9537101Y8683041D01*
X10317101Y6837680D02*
X10306521Y6848260D01*
Y6869420D01*
X10317101Y6880000D01*
X10359420D01*
X10370000Y6869420D01*
Y6848260D01*
X10359420Y6837680D01*
X10306521Y6774201D02*
Y6816521D01*
X10338260D01*
X10327680Y6795361D01*
Y6784781D01*
X10338260Y6774201D01*
X10359420D01*
X10370000Y6784781D01*
Y6805941D01*
X10359420Y6816521D01*
X10306521Y6710721D02*
X10317101Y6731881D01*
X10338260Y6753041D01*
X10359420D01*
X10370000Y6742461D01*
Y6721301D01*
X10359420Y6710721D01*
X10348840D01*
X10338260Y6721301D01*
Y6753041D01*
X10317680Y7842899D02*
X10328260Y7853479D01*
X10349420D01*
X10360000Y7842899D01*
Y7800580D01*
X10349420Y7790000D01*
X10328260D01*
X10317680Y7800580D01*
X10254201Y7853479D02*
X10296521D01*
Y7821740D01*
X10275361Y7832320D01*
X10264781D01*
X10254201Y7821740D01*
Y7800580D01*
X10264781Y7790000D01*
X10285941D01*
X10296521Y7800580D01*
X10233041D02*
X10222461Y7790000D01*
X10201301D01*
X10190722Y7800580D01*
Y7842899D01*
X10201301Y7853479D01*
X10222461D01*
X10233041Y7842899D01*
Y7832320D01*
X10222461Y7821740D01*
X10190722D01*
X9927101Y7797680D02*
X9916521Y7808260D01*
Y7829420D01*
X9927101Y7840000D01*
X9969420D01*
X9980000Y7829420D01*
Y7808260D01*
X9969420Y7797680D01*
X9916521Y7734201D02*
X9927101Y7755361D01*
X9948260Y7776521D01*
X9969420D01*
X9980000Y7765941D01*
Y7744781D01*
X9969420Y7734201D01*
X9958840D01*
X9948260Y7744781D01*
Y7776521D01*
X9927101Y7713041D02*
X9916521Y7702461D01*
Y7681301D01*
X9927101Y7670722D01*
X9969420D01*
X9980000Y7681301D01*
Y7702461D01*
X9969420Y7713041D01*
X9927101D01*
X10177680Y8022900D02*
X10188260Y8033479D01*
X10209420D01*
X10220000Y8022900D01*
Y7980580D01*
X10209420Y7970000D01*
X10188260D01*
X10177680Y7980580D01*
X10114201Y8033479D02*
X10135361Y8022900D01*
X10156520Y8001740D01*
Y7980580D01*
X10145941Y7970000D01*
X10124781D01*
X10114201Y7980580D01*
Y7991160D01*
X10124781Y8001740D01*
X10156520D01*
X10093041Y7970000D02*
X10071881D01*
X10082461D01*
Y8033479D01*
X10093041Y8022900D01*
X10087100Y8287680D02*
X10076521Y8298260D01*
Y8319420D01*
X10087100Y8330000D01*
X10129420D01*
X10140000Y8319420D01*
Y8298260D01*
X10129420Y8287680D01*
X10076521Y8224201D02*
X10087100Y8245361D01*
X10108260Y8266521D01*
X10129420D01*
X10140000Y8255941D01*
Y8234781D01*
X10129420Y8224201D01*
X10118840D01*
X10108260Y8234781D01*
Y8266521D01*
X10140000Y8160722D02*
Y8203041D01*
X10097680Y8160722D01*
X10087100D01*
X10076521Y8171301D01*
Y8192461D01*
X10087100Y8203041D01*
X10092100Y8582680D02*
X10081520Y8593260D01*
Y8614420D01*
X10092100Y8625000D01*
X10134420D01*
X10145000Y8614420D01*
Y8593260D01*
X10134420Y8582680D01*
X10081520Y8519201D02*
X10092100Y8540361D01*
X10113260Y8561521D01*
X10134420D01*
X10145000Y8550941D01*
Y8529781D01*
X10134420Y8519201D01*
X10123840D01*
X10113260Y8529781D01*
Y8561521D01*
X10092100Y8498041D02*
X10081520Y8487461D01*
Y8466301D01*
X10092100Y8455721D01*
X10102680D01*
X10113260Y8466301D01*
Y8476881D01*
Y8466301D01*
X10123840Y8455721D01*
X10134420D01*
X10145000Y8466301D01*
Y8487461D01*
X10134420Y8498041D01*
X9357100Y6807680D02*
X9346521Y6818260D01*
Y6839420D01*
X9357100Y6850000D01*
X9399420D01*
X9410000Y6839420D01*
Y6818260D01*
X9399420Y6807680D01*
X9346521Y6744201D02*
X9357100Y6765361D01*
X9378260Y6786521D01*
X9399420D01*
X9410000Y6775941D01*
Y6754781D01*
X9399420Y6744201D01*
X9388840D01*
X9378260Y6754781D01*
Y6786521D01*
X9410000Y6691301D02*
X9346521D01*
X9378260Y6723041D01*
Y6680721D01*
X9847100Y8667680D02*
X9836521Y8678260D01*
Y8699420D01*
X9847100Y8710000D01*
X9889420D01*
X9900000Y8699420D01*
Y8678260D01*
X9889420Y8667680D01*
X9836521Y8604201D02*
X9847100Y8625361D01*
X9868260Y8646521D01*
X9889420D01*
X9900000Y8635941D01*
Y8614781D01*
X9889420Y8604201D01*
X9878840D01*
X9868260Y8614781D01*
Y8646521D01*
X9836521Y8540722D02*
Y8583041D01*
X9868260D01*
X9857680Y8561882D01*
Y8551301D01*
X9868260Y8540722D01*
X9889420D01*
X9900000Y8551301D01*
Y8572461D01*
X9889420Y8583041D01*
X9783780Y9105940D02*
X9794359Y9095360D01*
Y9074200D01*
X9783780Y9063620D01*
X9741460D01*
X9730880Y9074200D01*
Y9095360D01*
X9741460Y9105940D01*
X9794359Y9169419D02*
X9783780Y9148259D01*
X9762620Y9127100D01*
X9741460D01*
X9730880Y9137679D01*
Y9158839D01*
X9741460Y9169419D01*
X9752040D01*
X9762620Y9158839D01*
Y9127100D01*
X9794359Y9232899D02*
X9783780Y9211739D01*
X9762620Y9190579D01*
X9741460D01*
X9730880Y9201159D01*
Y9222319D01*
X9741460Y9232899D01*
X9752040D01*
X9762620Y9222319D01*
Y9190579D01*
X9391299Y9088160D02*
X9401879Y9077580D01*
Y9056420D01*
X9391299Y9045840D01*
X9348980D01*
X9338400Y9056420D01*
Y9077580D01*
X9348980Y9088160D01*
X9401879Y9151639D02*
X9391299Y9130479D01*
X9370140Y9109320D01*
X9348980D01*
X9338400Y9119899D01*
Y9141059D01*
X9348980Y9151639D01*
X9359560D01*
X9370140Y9141059D01*
Y9109320D01*
X9401879Y9172799D02*
Y9215119D01*
X9391299D01*
X9348980Y9172799D01*
X9338400D01*
X9688200Y9276780D02*
X9698779Y9266200D01*
Y9245040D01*
X9688200Y9234460D01*
X9645880D01*
X9635300Y9245040D01*
Y9266200D01*
X9645880Y9276780D01*
X9698779Y9297939D02*
Y9340259D01*
X9688200D01*
X9645880Y9297939D01*
X9635300D01*
X9688200Y9361419D02*
X9698779Y9371999D01*
Y9393159D01*
X9688200Y9403739D01*
X9645880D01*
X9635300Y9393159D01*
Y9371999D01*
X9645880Y9361419D01*
X9688200D01*
X9237100Y8967680D02*
X9226521Y8978260D01*
Y8999420D01*
X9237100Y9010000D01*
X9279420D01*
X9290000Y8999420D01*
Y8978260D01*
X9279420Y8967680D01*
X9226521Y8946521D02*
Y8904201D01*
X9237100D01*
X9279420Y8946521D01*
X9290000D01*
Y8883041D02*
Y8861881D01*
Y8872461D01*
X9226521D01*
X9237100Y8883041D01*
X8907101Y10237680D02*
X8896521Y10248260D01*
Y10269420D01*
X8907101Y10280000D01*
X8949420D01*
X8960000Y10269420D01*
Y10248260D01*
X8949420Y10237680D01*
Y10216521D02*
X8960000Y10205941D01*
Y10184781D01*
X8949420Y10174201D01*
X8907101D01*
X8896521Y10184781D01*
Y10205941D01*
X8907101Y10216521D01*
X8917680D01*
X8928260Y10205941D01*
Y10174201D01*
X8907101Y10153041D02*
X8896521Y10142461D01*
Y10121301D01*
X8907101Y10110721D01*
X8917680D01*
X8928260Y10121301D01*
X8938840Y10110721D01*
X8949420D01*
X8960000Y10121301D01*
Y10142461D01*
X8949420Y10153041D01*
X8938840D01*
X8928260Y10142461D01*
X8917680Y10153041D01*
X8907101D01*
X8928260Y10142461D02*
Y10121301D01*
X9817680Y9712900D02*
X9828260Y9723479D01*
X9849420D01*
X9860000Y9712900D01*
Y9670580D01*
X9849420Y9660000D01*
X9828260D01*
X9817680Y9670580D01*
X9796521D02*
X9785941Y9660000D01*
X9764781D01*
X9754201Y9670580D01*
Y9712900D01*
X9764781Y9723479D01*
X9785941D01*
X9796521Y9712900D01*
Y9702320D01*
X9785941Y9691740D01*
X9754201D01*
X9733041Y9670580D02*
X9722461Y9660000D01*
X9701301D01*
X9690722Y9670580D01*
Y9712900D01*
X9701301Y9723479D01*
X9722461D01*
X9733041Y9712900D01*
Y9702320D01*
X9722461Y9691740D01*
X9690722D01*
X10907401Y10105700D02*
X10917980Y10116279D01*
X10939140D01*
X10949720Y10105700D01*
Y10063380D01*
X10939140Y10052800D01*
X10917980D01*
X10907401Y10063380D01*
X10886241Y10052800D02*
X10865081D01*
X10875661D01*
Y10116279D01*
X10886241Y10105700D01*
X10833341D02*
X10822761Y10116279D01*
X10801601D01*
X10791022Y10105700D01*
Y10063380D01*
X10801601Y10052800D01*
X10822761D01*
X10833341Y10063380D01*
Y10105700D01*
X10769862D02*
X10759282Y10116279D01*
X10738122D01*
X10727542Y10105700D01*
Y10063380D01*
X10738122Y10052800D01*
X10759282D01*
X10769862Y10063380D01*
Y10105700D01*
X9807800Y10169720D02*
X9818380Y10180299D01*
X9839540D01*
X9850120Y10169720D01*
Y10127400D01*
X9839540Y10116820D01*
X9818380D01*
X9807800Y10127400D01*
X9786641Y10116820D02*
X9765481D01*
X9776061D01*
Y10180299D01*
X9786641Y10169720D01*
X9733741D02*
X9723161Y10180299D01*
X9702001D01*
X9691421Y10169720D01*
Y10127400D01*
X9702001Y10116820D01*
X9723161D01*
X9733741Y10127400D01*
Y10169720D01*
X9670262Y10116820D02*
X9649102D01*
X9659682D01*
Y10180299D01*
X9670262Y10169720D01*
X10567680Y9652900D02*
X10578260Y9663480D01*
X10599420D01*
X10610000Y9652900D01*
Y9610580D01*
X10599420Y9600000D01*
X10578260D01*
X10567680Y9610580D01*
X10546521Y9600000D02*
X10525361D01*
X10535941D01*
Y9663480D01*
X10546521Y9652900D01*
X10493621D02*
X10483041Y9663480D01*
X10461881D01*
X10451301Y9652900D01*
Y9610580D01*
X10461881Y9600000D01*
X10483041D01*
X10493621Y9610580D01*
Y9652900D01*
X10430142Y9663480D02*
X10387822D01*
Y9652900D01*
X10430142Y9610580D01*
Y9600000D01*
X11127100Y6187680D02*
X11116521Y6198260D01*
Y6219420D01*
X11127100Y6230000D01*
X11169420D01*
X11180000Y6219420D01*
Y6198260D01*
X11169420Y6187680D01*
X11180000Y6166521D02*
Y6145361D01*
Y6155941D01*
X11116521D01*
X11127100Y6166521D01*
X11180000Y6113621D02*
Y6092461D01*
Y6103041D01*
X11116521D01*
X11127100Y6113621D01*
X11180000Y6018402D02*
Y6060721D01*
X11137680Y6018402D01*
X11127100D01*
X11116521Y6028982D01*
Y6050142D01*
X11127100Y6060721D01*
X10592900Y6642320D02*
X10603479Y6631740D01*
Y6610580D01*
X10592900Y6600000D01*
X10550580D01*
X10540000Y6610580D01*
Y6631740D01*
X10550580Y6642320D01*
X10540000Y6663479D02*
Y6684639D01*
Y6674059D01*
X10603479D01*
X10592900Y6663479D01*
X10540000Y6716379D02*
Y6737539D01*
Y6726959D01*
X10603479D01*
X10592900Y6716379D01*
Y6769279D02*
X10603479Y6779858D01*
Y6801018D01*
X10592900Y6811598D01*
X10582320D01*
X10571740Y6801018D01*
Y6790438D01*
Y6801018D01*
X10561160Y6811598D01*
X10550580D01*
X10540000Y6801018D01*
Y6779858D01*
X10550580Y6769279D01*
X10287100Y6117680D02*
X10276520Y6128260D01*
Y6149420D01*
X10287100Y6160000D01*
X10329420D01*
X10340000Y6149420D01*
Y6128260D01*
X10329420Y6117680D01*
X10340000Y6096521D02*
Y6075361D01*
Y6085941D01*
X10276520D01*
X10287100Y6096521D01*
X10340000Y6043621D02*
Y6022461D01*
Y6033041D01*
X10276520D01*
X10287100Y6043621D01*
X10340000Y5958982D02*
X10276520D01*
X10308260Y5990722D01*
Y5948402D01*
X10177101Y6127680D02*
X10166521Y6138260D01*
Y6159420D01*
X10177101Y6170000D01*
X10219420D01*
X10230000Y6159420D01*
Y6138260D01*
X10219420Y6127680D01*
X10230000Y6106521D02*
Y6085361D01*
Y6095941D01*
X10166521D01*
X10177101Y6106521D01*
X10230000Y6053621D02*
Y6032461D01*
Y6043041D01*
X10166521D01*
X10177101Y6053621D01*
X10166521Y5958402D02*
Y6000722D01*
X10198260D01*
X10187680Y5979562D01*
Y5968982D01*
X10198260Y5958402D01*
X10219420D01*
X10230000Y5968982D01*
Y5990142D01*
X10219420Y6000722D01*
X9467100Y6127680D02*
X9456521Y6138260D01*
Y6159420D01*
X9467100Y6170000D01*
X9509420D01*
X9520000Y6159420D01*
Y6138260D01*
X9509420Y6127680D01*
X9520000Y6106521D02*
Y6085361D01*
Y6095941D01*
X9456521D01*
X9467100Y6106521D01*
X9520000Y6053621D02*
Y6032461D01*
Y6043041D01*
X9456521D01*
X9467100Y6053621D01*
X9456521Y5958402D02*
X9467100Y5979562D01*
X9488260Y6000722D01*
X9509420D01*
X9520000Y5990142D01*
Y5968982D01*
X9509420Y5958402D01*
X9498840D01*
X9488260Y5968982D01*
Y6000722D01*
X9667101Y6127680D02*
X9656521Y6138260D01*
Y6159420D01*
X9667101Y6170000D01*
X9709420D01*
X9720000Y6159420D01*
Y6138260D01*
X9709420Y6127680D01*
X9720000Y6106521D02*
Y6085361D01*
Y6095941D01*
X9656521D01*
X9667101Y6106521D01*
X9720000Y6053621D02*
Y6032461D01*
Y6043041D01*
X9656521D01*
X9667101Y6053621D01*
X9656521Y6000722D02*
Y5958402D01*
X9667101D01*
X9709420Y6000722D01*
X9720000D01*
X8517680Y11202900D02*
X8528260Y11213479D01*
X8549420D01*
X8560000Y11202900D01*
Y11160580D01*
X8549420Y11150000D01*
X8528260D01*
X8517680Y11160580D01*
X8496520Y11150000D02*
X8475361D01*
X8485941D01*
Y11213479D01*
X8496520Y11202900D01*
X8443621Y11150000D02*
X8422461D01*
X8433041D01*
Y11213479D01*
X8443621Y11202900D01*
X8390721D02*
X8380141Y11213479D01*
X8358982D01*
X8348402Y11202900D01*
Y11192320D01*
X8358982Y11181740D01*
X8348402Y11171160D01*
Y11160580D01*
X8358982Y11150000D01*
X8380141D01*
X8390721Y11160580D01*
Y11171160D01*
X8380141Y11181740D01*
X8390721Y11192320D01*
Y11202900D01*
X8380141Y11181740D02*
X8358982D01*
X9027680Y10542900D02*
X9038260Y10553480D01*
X9059420D01*
X9070000Y10542900D01*
Y10500580D01*
X9059420Y10490000D01*
X9038260D01*
X9027680Y10500580D01*
X9006520Y10490000D02*
X8985361D01*
X8995941D01*
Y10553480D01*
X9006520Y10542900D01*
X8953621Y10490000D02*
X8932461D01*
X8943041D01*
Y10553480D01*
X8953621Y10542900D01*
X8900721Y10500580D02*
X8890141Y10490000D01*
X8868981D01*
X8858402Y10500580D01*
Y10542900D01*
X8868981Y10553480D01*
X8890141D01*
X8900721Y10542900D01*
Y10532320D01*
X8890141Y10521740D01*
X8858402D01*
X9047680Y10952900D02*
X9058260Y10963479D01*
X9079420D01*
X9090000Y10952900D01*
Y10910580D01*
X9079420Y10900000D01*
X9058260D01*
X9047680Y10910580D01*
X9026521Y10900000D02*
X9005361D01*
X9015941D01*
Y10963479D01*
X9026521Y10952900D01*
X8931301Y10900000D02*
X8973621D01*
X8931301Y10942320D01*
Y10952900D01*
X8941881Y10963479D01*
X8963041D01*
X8973621Y10952900D01*
X8910142D02*
X8899562Y10963479D01*
X8878402D01*
X8867822Y10952900D01*
Y10910580D01*
X8878402Y10900000D01*
X8899562D01*
X8910142Y10910580D01*
Y10952900D01*
X4587680Y11472900D02*
X4598260Y11483479D01*
X4619420D01*
X4630000Y11472900D01*
Y11430580D01*
X4619420Y11420000D01*
X4598260D01*
X4587680Y11430580D01*
X4566520Y11420000D02*
X4545361D01*
X4555941D01*
Y11483479D01*
X4566520Y11472900D01*
X4471301Y11420000D02*
X4513621D01*
X4471301Y11462320D01*
Y11472900D01*
X4481881Y11483479D01*
X4503041D01*
X4513621Y11472900D01*
X4450141Y11420000D02*
X4428982D01*
X4439562D01*
Y11483479D01*
X4450141Y11472900D01*
X4747680Y12072900D02*
X4758260Y12083480D01*
X4779420D01*
X4790000Y12072900D01*
Y12030580D01*
X4779420Y12020000D01*
X4758260D01*
X4747680Y12030580D01*
X4726521Y12020000D02*
X4705361D01*
X4715941D01*
Y12083480D01*
X4726521Y12072900D01*
X4631301Y12020000D02*
X4673621D01*
X4631301Y12062320D01*
Y12072900D01*
X4641881Y12083480D01*
X4663041D01*
X4673621Y12072900D01*
X4567822Y12020000D02*
X4610142D01*
X4567822Y12062320D01*
Y12072900D01*
X4578402Y12083480D01*
X4599562D01*
X4610142Y12072900D01*
X4767680Y11662899D02*
X4778260Y11673479D01*
X4799420D01*
X4810000Y11662899D01*
Y11620580D01*
X4799420Y11610000D01*
X4778260D01*
X4767680Y11620580D01*
X4746521Y11610000D02*
X4725361D01*
X4735941D01*
Y11673479D01*
X4746521Y11662899D01*
X4651301Y11610000D02*
X4693621D01*
X4651301Y11652320D01*
Y11662899D01*
X4661881Y11673479D01*
X4683041D01*
X4693621Y11662899D01*
X4630142D02*
X4619562Y11673479D01*
X4598402D01*
X4587822Y11662899D01*
Y11652320D01*
X4598402Y11641740D01*
X4608982D01*
X4598402D01*
X4587822Y11631160D01*
Y11620580D01*
X4598402Y11610000D01*
X4619562D01*
X4630142Y11620580D01*
X8517680Y11422900D02*
X8528260Y11433480D01*
X8549420D01*
X8560000Y11422900D01*
Y11380580D01*
X8549420Y11370000D01*
X8528260D01*
X8517680Y11380580D01*
X8496520Y11370000D02*
X8475361D01*
X8485941D01*
Y11433480D01*
X8496520Y11422900D01*
X8401301Y11370000D02*
X8443621D01*
X8401301Y11412320D01*
Y11422900D01*
X8411881Y11433480D01*
X8433041D01*
X8443621Y11422900D01*
X8348402Y11370000D02*
Y11433480D01*
X8380141Y11401740D01*
X8337822D01*
X9007680Y12072900D02*
X9018260Y12083480D01*
X9039420D01*
X9050000Y12072900D01*
Y12030580D01*
X9039420Y12020000D01*
X9018260D01*
X9007680Y12030580D01*
X8986521Y12020000D02*
X8965361D01*
X8975941D01*
Y12083480D01*
X8986521Y12072900D01*
X8891301Y12020000D02*
X8933621D01*
X8891301Y12062320D01*
Y12072900D01*
X8901881Y12083480D01*
X8923041D01*
X8933621Y12072900D01*
X8827822Y12083480D02*
X8870142D01*
Y12051740D01*
X8848982Y12062320D01*
X8838402D01*
X8827822Y12051740D01*
Y12030580D01*
X8838402Y12020000D01*
X8859562D01*
X8870142Y12030580D01*
X9027680Y11642899D02*
X9038260Y11653479D01*
X9059420D01*
X9070000Y11642899D01*
Y11600580D01*
X9059420Y11590000D01*
X9038260D01*
X9027680Y11600580D01*
X9006520Y11590000D02*
X8985361D01*
X8995941D01*
Y11653479D01*
X9006520Y11642899D01*
X8911301Y11590000D02*
X8953621D01*
X8911301Y11632320D01*
Y11642899D01*
X8921881Y11653479D01*
X8943041D01*
X8953621Y11642899D01*
X8847822Y11653479D02*
X8868982Y11642899D01*
X8890141Y11621740D01*
Y11600580D01*
X8879562Y11590000D01*
X8858402D01*
X8847822Y11600580D01*
Y11611160D01*
X8858402Y11621740D01*
X8890141D01*
X4587680Y11122900D02*
X4598260Y11133479D01*
X4619420D01*
X4630000Y11122900D01*
Y11080580D01*
X4619420Y11070000D01*
X4598260D01*
X4587680Y11080580D01*
X4566520Y11070000D02*
X4545361D01*
X4555941D01*
Y11133479D01*
X4566520Y11122900D01*
X4471301Y11070000D02*
X4513621D01*
X4471301Y11112320D01*
Y11122900D01*
X4481881Y11133479D01*
X4503041D01*
X4513621Y11122900D01*
X4450141Y11133479D02*
X4407822D01*
Y11122900D01*
X4450141Y11080580D01*
Y11070000D01*
X4787680Y10512899D02*
X4798260Y10523479D01*
X4819420D01*
X4830000Y10512899D01*
Y10470580D01*
X4819420Y10460000D01*
X4798260D01*
X4787680Y10470580D01*
X4766521Y10460000D02*
X4745361D01*
X4755941D01*
Y10523479D01*
X4766521Y10512899D01*
X4671301Y10460000D02*
X4713621D01*
X4671301Y10502320D01*
Y10512899D01*
X4681881Y10523479D01*
X4703041D01*
X4713621Y10512899D01*
X4650142D02*
X4639562Y10523479D01*
X4618402D01*
X4607822Y10512899D01*
Y10502320D01*
X4618402Y10491740D01*
X4607822Y10481160D01*
Y10470580D01*
X4618402Y10460000D01*
X4639562D01*
X4650142Y10470580D01*
Y10481160D01*
X4639562Y10491740D01*
X4650142Y10502320D01*
Y10512899D01*
X4639562Y10491740D02*
X4618402D01*
X4757680Y10932900D02*
X4768260Y10943480D01*
X4789420D01*
X4800000Y10932900D01*
Y10890580D01*
X4789420Y10880000D01*
X4768260D01*
X4757680Y10890580D01*
X4736521Y10880000D02*
X4715361D01*
X4725941D01*
Y10943480D01*
X4736521Y10932900D01*
X4641301Y10880000D02*
X4683621D01*
X4641301Y10922320D01*
Y10932900D01*
X4651881Y10943480D01*
X4673041D01*
X4683621Y10932900D01*
X4620142Y10890580D02*
X4609562Y10880000D01*
X4588402D01*
X4577822Y10890580D01*
Y10932900D01*
X4588402Y10943480D01*
X4609562D01*
X4620142Y10932900D01*
Y10922320D01*
X4609562Y10911740D01*
X4577822D01*
X9880000Y9563479D02*
Y9500000D01*
X9848260D01*
X9837680Y9510580D01*
Y9552900D01*
X9848260Y9563479D01*
X9880000D01*
X9816521Y9552900D02*
X9805941Y9563479D01*
X9784781D01*
X9774201Y9552900D01*
Y9542320D01*
X9784781Y9531740D01*
X9774201Y9521160D01*
Y9510580D01*
X9784781Y9500000D01*
X9805941D01*
X9816521Y9510580D01*
Y9521160D01*
X9805941Y9531740D01*
X9816521Y9542320D01*
Y9552900D01*
X9805941Y9531740D02*
X9784781D01*
X11620500Y10060919D02*
X11599340D01*
X11609920D01*
Y9997440D01*
X11620500D01*
X11599340D01*
X11525281Y10050340D02*
X11535861Y10060919D01*
X11557021D01*
X11567600Y10050340D01*
Y10008020D01*
X11557021Y9997440D01*
X11535861D01*
X11525281Y10008020D01*
X11504121Y9997440D02*
X11482961D01*
X11493541D01*
Y10060919D01*
X11504121Y10050340D01*
X8870000Y10753479D02*
Y10690000D01*
X8827680D01*
X8764201Y10753479D02*
X8806521D01*
Y10721740D01*
X8785361Y10732320D01*
X8774781D01*
X8764201Y10721740D01*
Y10700580D01*
X8774781Y10690000D01*
X8795941D01*
X8806521Y10700580D01*
X5310000Y11863479D02*
Y11800000D01*
X5267680D01*
X5204201Y11863479D02*
X5225361Y11852900D01*
X5246521Y11831740D01*
Y11810580D01*
X5235941Y11800000D01*
X5214781D01*
X5204201Y11810580D01*
Y11821160D01*
X5214781Y11831740D01*
X5246521D01*
X8850000Y11973479D02*
Y11910000D01*
X8807680D01*
X8786521Y11973479D02*
X8744201D01*
Y11962900D01*
X8786521Y11920580D01*
Y11910000D01*
X4920000Y10733479D02*
Y10670000D01*
X4877680D01*
X4856521Y10722900D02*
X4845941Y10733479D01*
X4824781D01*
X4814201Y10722900D01*
Y10712320D01*
X4824781Y10701740D01*
X4814201Y10691160D01*
Y10680580D01*
X4824781Y10670000D01*
X4845941D01*
X4856521Y10680580D01*
Y10691160D01*
X4845941Y10701740D01*
X4856521Y10712320D01*
Y10722900D01*
X4845941Y10701740D02*
X4824781D01*
X3677680Y5250580D02*
Y5292899D01*
X3688260Y5303479D01*
X3709420D01*
X3720000Y5292899D01*
Y5250580D01*
X3709420Y5240000D01*
X3688260D01*
X3698840Y5261160D02*
X3677680Y5240000D01*
X3688260D02*
X3677680Y5250580D01*
X3656520Y5240000D02*
X3635361D01*
X3645941D01*
Y5303479D01*
X3656520Y5292899D01*
X13589999Y8700000D02*
Y8763480D01*
X13558260D01*
X13547681Y8752900D01*
Y8731740D01*
X13558260Y8721160D01*
X13589999D01*
X13568840D02*
X13547681Y8700000D01*
X13484201D02*
X13526521D01*
X13484201Y8742320D01*
Y8752900D01*
X13494781Y8763480D01*
X13515941D01*
X13526521Y8752900D01*
X11880000Y7760000D02*
Y7823479D01*
X11848260D01*
X11837680Y7812900D01*
Y7791740D01*
X11848260Y7781160D01*
X11880000D01*
X11858840D02*
X11837680Y7760000D01*
X11816521Y7812900D02*
X11805941Y7823479D01*
X11784781D01*
X11774201Y7812900D01*
Y7802320D01*
X11784781Y7791740D01*
X11795361D01*
X11784781D01*
X11774201Y7781160D01*
Y7770580D01*
X11784781Y7760000D01*
X11805941D01*
X11816521Y7770580D01*
X13600000Y8070000D02*
Y8133480D01*
X13568260D01*
X13557680Y8122900D01*
Y8101740D01*
X13568260Y8091160D01*
X13600000D01*
X13578841D02*
X13557680Y8070000D01*
X13536520Y8133480D02*
X13494202D01*
Y8122900D01*
X13536520Y8080580D01*
Y8070000D01*
X9970000Y7580000D02*
X9906521D01*
Y7548260D01*
X9917101Y7537680D01*
X9938260D01*
X9948840Y7548260D01*
Y7580000D01*
Y7558840D02*
X9970000Y7537680D01*
Y7516521D02*
Y7495361D01*
Y7505941D01*
X9906521D01*
X9917101Y7516521D01*
Y7463621D02*
X9906521Y7453041D01*
Y7431881D01*
X9917101Y7421301D01*
X9927680D01*
X9938260Y7431881D01*
Y7442461D01*
Y7431881D01*
X9948840Y7421301D01*
X9959420D01*
X9970000Y7431881D01*
Y7453041D01*
X9959420Y7463621D01*
X4250000Y5100000D02*
Y5163479D01*
X4218260D01*
X4207680Y5152900D01*
Y5131740D01*
X4218260Y5121160D01*
X4250000D01*
X4228840D02*
X4207680Y5100000D01*
X4186520D02*
X4165361D01*
X4175941D01*
Y5163479D01*
X4186520Y5152900D01*
X4133621Y5163479D02*
X4091301D01*
Y5152900D01*
X4133621Y5110580D01*
Y5100000D01*
X11490000Y7490000D02*
X11553479D01*
Y7521740D01*
X11542899Y7532320D01*
X11521740D01*
X11511160Y7521740D01*
Y7490000D01*
Y7511160D02*
X11490000Y7532320D01*
Y7553479D02*
Y7574639D01*
Y7564059D01*
X11553479D01*
X11542899Y7553479D01*
Y7606379D02*
X11553479Y7616959D01*
Y7638119D01*
X11542899Y7648699D01*
X11532320D01*
X11521740Y7638119D01*
X11511160Y7648699D01*
X11500580D01*
X11490000Y7638119D01*
Y7616959D01*
X11500580Y7606379D01*
X11511160D01*
X11521740Y7616959D01*
X11532320Y7606379D01*
X11542899D01*
X11521740Y7616959D02*
Y7638119D01*
X16010001Y6730000D02*
Y6793479D01*
X15978259D01*
X15967680Y6782900D01*
Y6761740D01*
X15978259Y6751160D01*
X16010001D01*
X15988840D02*
X15967680Y6730000D01*
X15946521D02*
X15925362D01*
X15935941D01*
Y6793479D01*
X15946521Y6782900D01*
X15893620Y6740580D02*
X15883041Y6730000D01*
X15861880D01*
X15851302Y6740580D01*
Y6782900D01*
X15861880Y6793479D01*
X15883041D01*
X15893620Y6782900D01*
Y6772320D01*
X15883041Y6761740D01*
X15851302D01*
X15950000Y6280000D02*
Y6343479D01*
X15918260D01*
X15907680Y6332899D01*
Y6311740D01*
X15918260Y6301160D01*
X15950000D01*
X15928841D02*
X15907680Y6280000D01*
X15844202D02*
X15886520D01*
X15844202Y6322320D01*
Y6332899D01*
X15854781Y6343479D01*
X15875941D01*
X15886520Y6332899D01*
X15823041D02*
X15812460Y6343479D01*
X15791301D01*
X15780722Y6332899D01*
Y6290580D01*
X15791301Y6280000D01*
X15812460D01*
X15823041Y6290580D01*
Y6332899D01*
X11330000Y7230000D02*
Y7293479D01*
X11298260D01*
X11287680Y7282900D01*
Y7261740D01*
X11298260Y7251160D01*
X11330000D01*
X11308840D02*
X11287680Y7230000D01*
X11224201D02*
X11266521D01*
X11224201Y7272320D01*
Y7282900D01*
X11234781Y7293479D01*
X11255941D01*
X11266521Y7282900D01*
X11203041Y7230000D02*
X11181881D01*
X11192461D01*
Y7293479D01*
X11203041Y7282900D01*
X11400000Y8400000D02*
Y8463479D01*
X11368260D01*
X11357680Y8452900D01*
Y8431740D01*
X11368260Y8421160D01*
X11400000D01*
X11378840D02*
X11357680Y8400000D01*
X11294201D02*
X11336521D01*
X11294201Y8442320D01*
Y8452900D01*
X11304781Y8463479D01*
X11325941D01*
X11336521Y8452900D01*
X11273041D02*
X11262461Y8463479D01*
X11241301D01*
X11230722Y8452900D01*
Y8442320D01*
X11241301Y8431740D01*
X11251881D01*
X11241301D01*
X11230722Y8421160D01*
Y8410580D01*
X11241301Y8400000D01*
X11262461D01*
X11273041Y8410580D01*
X11840000Y8370000D02*
Y8433479D01*
X11808260D01*
X11797680Y8422900D01*
Y8401740D01*
X11808260Y8391160D01*
X11840000D01*
X11818840D02*
X11797680Y8370000D01*
X11734201D02*
X11776521D01*
X11734201Y8412320D01*
Y8422900D01*
X11744781Y8433479D01*
X11765941D01*
X11776521Y8422900D01*
X11681301Y8370000D02*
Y8433479D01*
X11713041Y8401740D01*
X11670721D01*
X7790000Y8020000D02*
X7853479D01*
Y8051740D01*
X7842899Y8062320D01*
X7821740D01*
X7811160Y8051740D01*
Y8020000D01*
Y8041160D02*
X7790000Y8062320D01*
Y8125799D02*
Y8083479D01*
X7832320Y8125799D01*
X7842899D01*
X7853479Y8115219D01*
Y8094059D01*
X7842899Y8083479D01*
X7853479Y8189279D02*
Y8146959D01*
X7821740D01*
X7832320Y8168119D01*
Y8178699D01*
X7821740Y8189279D01*
X7800580D01*
X7790000Y8178699D01*
Y8157539D01*
X7800580Y8146959D01*
X7700000Y8020000D02*
X7763480D01*
Y8051740D01*
X7752900Y8062320D01*
X7731740D01*
X7721160Y8051740D01*
Y8020000D01*
Y8041160D02*
X7700000Y8062320D01*
Y8125799D02*
Y8083479D01*
X7742320Y8125799D01*
X7752900D01*
X7763480Y8115219D01*
Y8094059D01*
X7752900Y8083479D01*
X7763480Y8189279D02*
X7752900Y8168119D01*
X7731740Y8146959D01*
X7710580D01*
X7700000Y8157539D01*
Y8178699D01*
X7710580Y8189279D01*
X7721160D01*
X7731740Y8178699D01*
Y8146959D01*
X11310000Y8720000D02*
Y8783480D01*
X11278260D01*
X11267680Y8772900D01*
Y8751740D01*
X11278260Y8741160D01*
X11310000D01*
X11288840D02*
X11267680Y8720000D01*
X11204201D02*
X11246521D01*
X11204201Y8762320D01*
Y8772900D01*
X11214781Y8783480D01*
X11235941D01*
X11246521Y8772900D01*
X11183041Y8783480D02*
X11140721D01*
Y8772900D01*
X11183041Y8730580D01*
Y8720000D01*
X11710000Y8690000D02*
Y8753479D01*
X11678260D01*
X11667680Y8742899D01*
Y8721740D01*
X11678260Y8711160D01*
X11710000D01*
X11688840D02*
X11667680Y8690000D01*
X11604201D02*
X11646521D01*
X11604201Y8732320D01*
Y8742899D01*
X11614781Y8753479D01*
X11635941D01*
X11646521Y8742899D01*
X11583041D02*
X11572461Y8753479D01*
X11551301D01*
X11540721Y8742899D01*
Y8732320D01*
X11551301Y8721740D01*
X11540721Y8711160D01*
Y8700580D01*
X11551301Y8690000D01*
X11572461D01*
X11583041Y8700580D01*
Y8711160D01*
X11572461Y8721740D01*
X11583041Y8732320D01*
Y8742899D01*
X11572461Y8721740D02*
X11551301D01*
X8050000Y8420000D02*
X7986520D01*
Y8388260D01*
X7997100Y8377680D01*
X8018260D01*
X8028840Y8388260D01*
Y8420000D01*
Y8398840D02*
X8050000Y8377680D01*
Y8314201D02*
Y8356520D01*
X8007680Y8314201D01*
X7997100D01*
X7986520Y8324781D01*
Y8345941D01*
X7997100Y8356520D01*
X8039420Y8293041D02*
X8050000Y8282461D01*
Y8261301D01*
X8039420Y8250721D01*
X7997100D01*
X7986520Y8261301D01*
Y8282461D01*
X7997100Y8293041D01*
X8007680D01*
X8018260Y8282461D01*
Y8250721D01*
X8150000Y8440000D02*
X8086521D01*
Y8408260D01*
X8097100Y8397680D01*
X8118260D01*
X8128840Y8408260D01*
Y8440000D01*
Y8418840D02*
X8150000Y8397680D01*
X8097100Y8376520D02*
X8086521Y8365941D01*
Y8344781D01*
X8097100Y8334201D01*
X8107680D01*
X8118260Y8344781D01*
Y8355361D01*
Y8344781D01*
X8128840Y8334201D01*
X8139420D01*
X8150000Y8344781D01*
Y8365941D01*
X8139420Y8376520D01*
X8097100Y8313041D02*
X8086521Y8302461D01*
Y8281301D01*
X8097100Y8270721D01*
X8139420D01*
X8150000Y8281301D01*
Y8302461D01*
X8139420Y8313041D01*
X8097100D01*
X9270000Y10600000D02*
X9206521D01*
Y10568260D01*
X9217100Y10557680D01*
X9238260D01*
X9248840Y10568260D01*
Y10600000D01*
Y10578840D02*
X9270000Y10557680D01*
X9217100Y10536520D02*
X9206521Y10525941D01*
Y10504781D01*
X9217100Y10494201D01*
X9227680D01*
X9238260Y10504781D01*
Y10515361D01*
Y10504781D01*
X9248840Y10494201D01*
X9259420D01*
X9270000Y10504781D01*
Y10525941D01*
X9259420Y10536520D01*
X9217100Y10473041D02*
X9206521Y10462461D01*
Y10441301D01*
X9217100Y10430721D01*
X9227680D01*
X9238260Y10441301D01*
Y10451881D01*
Y10441301D01*
X9248840Y10430721D01*
X9259420D01*
X9270000Y10441301D01*
Y10462461D01*
X9259420Y10473041D01*
X9170000Y10600000D02*
X9106521D01*
Y10568260D01*
X9117100Y10557680D01*
X9138260D01*
X9148840Y10568260D01*
Y10600000D01*
Y10578840D02*
X9170000Y10557680D01*
X9117100Y10536520D02*
X9106521Y10525941D01*
Y10504781D01*
X9117100Y10494201D01*
X9127680D01*
X9138260Y10504781D01*
Y10515361D01*
Y10504781D01*
X9148840Y10494201D01*
X9159420D01*
X9170000Y10504781D01*
Y10525941D01*
X9159420Y10536520D01*
X9170000Y10441301D02*
X9106521D01*
X9138260Y10473041D01*
Y10430721D01*
X9230000Y9270000D02*
Y9333479D01*
X9198260D01*
X9187680Y9322900D01*
Y9301740D01*
X9198260Y9291160D01*
X9230000D01*
X9208840D02*
X9187680Y9270000D01*
X9166521Y9322900D02*
X9155941Y9333479D01*
X9134781D01*
X9124201Y9322900D01*
Y9312320D01*
X9134781Y9301740D01*
X9145361D01*
X9134781D01*
X9124201Y9291160D01*
Y9280580D01*
X9134781Y9270000D01*
X9155941D01*
X9166521Y9280580D01*
X9103041Y9333479D02*
X9060722D01*
Y9322900D01*
X9103041Y9280580D01*
Y9270000D01*
X11640000Y13320000D02*
X11703480D01*
Y13351740D01*
X11692900Y13362320D01*
X11671740D01*
X11661160Y13351740D01*
Y13320000D01*
Y13341161D02*
X11640000Y13362320D01*
X11692900Y13383479D02*
X11703480Y13394060D01*
Y13415219D01*
X11692900Y13425800D01*
X11682320D01*
X11671740Y13415219D01*
Y13404639D01*
Y13415219D01*
X11661160Y13425800D01*
X11650580D01*
X11640000Y13415219D01*
Y13394060D01*
X11650580Y13383479D01*
X11692900Y13446959D02*
X11703480Y13457539D01*
Y13478699D01*
X11692900Y13489279D01*
X11682320D01*
X11671740Y13478699D01*
X11661160Y13489279D01*
X11650580D01*
X11640000Y13478699D01*
Y13457539D01*
X11650580Y13446959D01*
X11661160D01*
X11671740Y13457539D01*
X11682320Y13446959D01*
X11692900D01*
X11671740Y13457539D02*
Y13478699D01*
X11800000Y13320000D02*
X11863479D01*
Y13351740D01*
X11852900Y13362320D01*
X11831740D01*
X11821160Y13351740D01*
Y13320000D01*
Y13341161D02*
X11800000Y13362320D01*
X11852900Y13383479D02*
X11863479Y13394060D01*
Y13415219D01*
X11852900Y13425800D01*
X11842320D01*
X11831740Y13415219D01*
Y13404639D01*
Y13415219D01*
X11821160Y13425800D01*
X11810580D01*
X11800000Y13415219D01*
Y13394060D01*
X11810580Y13383479D01*
Y13446959D02*
X11800000Y13457539D01*
Y13478699D01*
X11810580Y13489279D01*
X11852900D01*
X11863479Y13478699D01*
Y13457539D01*
X11852900Y13446959D01*
X11842320D01*
X11831740Y13457539D01*
Y13489279D01*
X12170000Y13310001D02*
X12233479D01*
Y13341740D01*
X12222900Y13352319D01*
X12201740D01*
X12191160Y13341740D01*
Y13310001D01*
Y13331160D02*
X12170000Y13352319D01*
Y13405219D02*
X12233479D01*
X12201740Y13373479D01*
Y13415799D01*
X12222900Y13436958D02*
X12233479Y13447539D01*
Y13468700D01*
X12222900Y13479279D01*
X12180580D01*
X12170000Y13468700D01*
Y13447539D01*
X12180580Y13436958D01*
X12222900D01*
X12330000Y13310001D02*
X12393479D01*
Y13341740D01*
X12382900Y13352319D01*
X12361740D01*
X12351160Y13341740D01*
Y13310001D01*
Y13331160D02*
X12330000Y13352319D01*
Y13405219D02*
X12393479D01*
X12361740Y13373479D01*
Y13415799D01*
X12330000Y13436958D02*
Y13458119D01*
Y13447539D01*
X12393479D01*
X12382900Y13436958D01*
X11750000Y12900000D02*
Y12963480D01*
X11718260D01*
X11707680Y12952901D01*
Y12931740D01*
X11718260Y12921159D01*
X11750000D01*
X11728840D02*
X11707680Y12900000D01*
X11654781D02*
Y12963480D01*
X11686521Y12931740D01*
X11644201D01*
X11591301Y12900000D02*
Y12963480D01*
X11623041Y12931740D01*
X11580722D01*
X12270000Y12889999D02*
Y12953479D01*
X12238260D01*
X12227680Y12942899D01*
Y12921741D01*
X12238260Y12911160D01*
X12270000D01*
X12248840D02*
X12227680Y12889999D01*
X12174781D02*
Y12953479D01*
X12206521Y12921741D01*
X12164201D01*
X12100722Y12953479D02*
X12143041D01*
Y12921741D01*
X12121882Y12932320D01*
X12111301D01*
X12100722Y12921741D01*
Y12900580D01*
X12111301Y12889999D01*
X12132461D01*
X12143041Y12900580D01*
X3650000Y4760000D02*
Y4823479D01*
X3618260D01*
X3607680Y4812899D01*
Y4791740D01*
X3618260Y4781160D01*
X3650000D01*
X3628840D02*
X3607680Y4760000D01*
X3554781D02*
Y4823479D01*
X3586521Y4791740D01*
X3544201D01*
X3480722Y4823479D02*
X3501881Y4812899D01*
X3523041Y4791740D01*
Y4770580D01*
X3512461Y4760000D01*
X3491301D01*
X3480722Y4770580D01*
Y4781160D01*
X3491301Y4791740D01*
X3523041D01*
X4090000Y4760000D02*
Y4823479D01*
X4058260D01*
X4047680Y4812899D01*
Y4791740D01*
X4058260Y4781160D01*
X4090000D01*
X4068840D02*
X4047680Y4760000D01*
X3994781D02*
Y4823479D01*
X4026521Y4791740D01*
X3984201D01*
X3963041Y4823479D02*
X3920721D01*
Y4812899D01*
X3963041Y4770580D01*
Y4760000D01*
X7250000Y6090000D02*
Y6153479D01*
X7218260D01*
X7207680Y6142900D01*
Y6121740D01*
X7218260Y6111160D01*
X7250000D01*
X7228840D02*
X7207680Y6090000D01*
X7144201Y6153479D02*
X7186521D01*
Y6121740D01*
X7165361Y6132320D01*
X7154781D01*
X7144201Y6121740D01*
Y6100580D01*
X7154781Y6090000D01*
X7175941D01*
X7186521Y6100580D01*
X7080721Y6090000D02*
X7123041D01*
X7080721Y6132320D01*
Y6142900D01*
X7091301Y6153479D01*
X7112461D01*
X7123041Y6142900D01*
X7200000Y5170000D02*
X7136521D01*
Y5138260D01*
X7147101Y5127680D01*
X7168260D01*
X7178840Y5138260D01*
Y5170000D01*
Y5148840D02*
X7200000Y5127680D01*
X7136521Y5064201D02*
Y5106521D01*
X7168260D01*
X7157680Y5085361D01*
Y5074781D01*
X7168260Y5064201D01*
X7189420D01*
X7200000Y5074781D01*
Y5095941D01*
X7189420Y5106521D01*
X7147101Y5043041D02*
X7136521Y5032461D01*
Y5011301D01*
X7147101Y5000722D01*
X7157680D01*
X7168260Y5011301D01*
Y5021881D01*
Y5011301D01*
X7178840Y5000722D01*
X7189420D01*
X7200000Y5011301D01*
Y5032461D01*
X7189420Y5043041D01*
X6360000Y5090000D02*
Y5153479D01*
X6328260D01*
X6317680Y5142900D01*
Y5121740D01*
X6328260Y5111160D01*
X6360000D01*
X6338840D02*
X6317680Y5090000D01*
X6254201Y5153479D02*
X6296521D01*
Y5121740D01*
X6275361Y5132320D01*
X6264781D01*
X6254201Y5121740D01*
Y5100580D01*
X6264781Y5090000D01*
X6285941D01*
X6296521Y5100580D01*
X6201301Y5090000D02*
Y5153479D01*
X6233041Y5121740D01*
X6190721D01*
X7250000Y6000000D02*
Y6063479D01*
X7218260D01*
X7207680Y6052900D01*
Y6031740D01*
X7218260Y6021160D01*
X7250000D01*
X7228840D02*
X7207680Y6000000D01*
X7144201Y6063479D02*
X7186521D01*
Y6031740D01*
X7165361Y6042320D01*
X7154781D01*
X7144201Y6031740D01*
Y6010580D01*
X7154781Y6000000D01*
X7175941D01*
X7186521Y6010580D01*
X7080721Y6063479D02*
X7101881Y6052900D01*
X7123041Y6031740D01*
Y6010580D01*
X7112461Y6000000D01*
X7091301D01*
X7080721Y6010580D01*
Y6021160D01*
X7091301Y6031740D01*
X7123041D01*
X7030000Y4980000D02*
X6966520D01*
Y4948260D01*
X6977100Y4937680D01*
X6998260D01*
X7008840Y4948260D01*
Y4980000D01*
Y4958840D02*
X7030000Y4937680D01*
X6966520Y4874201D02*
Y4916521D01*
X6998260D01*
X6987680Y4895361D01*
Y4884781D01*
X6998260Y4874201D01*
X7019420D01*
X7030000Y4884781D01*
Y4905941D01*
X7019420Y4916521D01*
X6966520Y4853041D02*
Y4810721D01*
X6977100D01*
X7019420Y4853041D01*
X7030000D01*
X6360000Y5000000D02*
Y5063479D01*
X6328260D01*
X6317680Y5052899D01*
Y5031740D01*
X6328260Y5021160D01*
X6360000D01*
X6338840D02*
X6317680Y5000000D01*
X6254201Y5063479D02*
X6296521D01*
Y5031740D01*
X6275361Y5042320D01*
X6264781D01*
X6254201Y5031740D01*
Y5010580D01*
X6264781Y5000000D01*
X6285941D01*
X6296521Y5010580D01*
X6233041Y5052899D02*
X6222461Y5063479D01*
X6201301D01*
X6190721Y5052899D01*
Y5042320D01*
X6201301Y5031740D01*
X6190721Y5021160D01*
Y5010580D01*
X6201301Y5000000D01*
X6222461D01*
X6233041Y5010580D01*
Y5021160D01*
X6222461Y5031740D01*
X6233041Y5042320D01*
Y5052899D01*
X6222461Y5031740D02*
X6201301D01*
X9860000Y9750000D02*
Y9813479D01*
X9828260D01*
X9817680Y9802900D01*
Y9781740D01*
X9828260Y9771160D01*
X9860000D01*
X9838840D02*
X9817680Y9750000D01*
X9796521Y9813479D02*
X9754201D01*
Y9802900D01*
X9796521Y9760580D01*
Y9750000D01*
X9690722Y9813479D02*
X9711882Y9802900D01*
X9733041Y9781740D01*
Y9760580D01*
X9722461Y9750000D01*
X9701301D01*
X9690722Y9760580D01*
Y9771160D01*
X9701301Y9781740D01*
X9733041D01*
X8740000Y9770000D02*
Y9833479D01*
X8708260D01*
X8697680Y9822900D01*
Y9801740D01*
X8708260Y9791160D01*
X8740000D01*
X8718840D02*
X8697680Y9770000D01*
X8676521Y9833479D02*
X8634201D01*
Y9822900D01*
X8676521Y9780580D01*
Y9770000D01*
X8613041Y9833479D02*
X8570721D01*
Y9822900D01*
X8613041Y9780580D01*
Y9770000D01*
X8980000Y9640000D02*
X8916521D01*
Y9608260D01*
X8927101Y9597680D01*
X8948260D01*
X8958840Y9608260D01*
Y9640000D01*
Y9618840D02*
X8980000Y9597680D01*
X8916521Y9576521D02*
Y9534201D01*
X8927101D01*
X8969420Y9576521D01*
X8980000D01*
X8927101Y9513041D02*
X8916521Y9502461D01*
Y9481301D01*
X8927101Y9470721D01*
X8937680D01*
X8948260Y9481301D01*
X8958840Y9470721D01*
X8969420D01*
X8980000Y9481301D01*
Y9502461D01*
X8969420Y9513041D01*
X8958840D01*
X8948260Y9502461D01*
X8937680Y9513041D01*
X8927101D01*
X8948260Y9502461D02*
Y9481301D01*
X10940000Y6170000D02*
Y6233480D01*
X10908260D01*
X10897680Y6222900D01*
Y6201740D01*
X10908260Y6191160D01*
X10940000D01*
X10918840D02*
X10897680Y6170000D01*
X10876521Y6222900D02*
X10865941Y6233480D01*
X10844781D01*
X10834201Y6222900D01*
Y6212320D01*
X10844781Y6201740D01*
X10834201Y6191160D01*
Y6180580D01*
X10844781Y6170000D01*
X10865941D01*
X10876521Y6180580D01*
Y6191160D01*
X10865941Y6201740D01*
X10876521Y6212320D01*
Y6222900D01*
X10865941Y6201740D02*
X10844781D01*
X10813041Y6170000D02*
X10791881D01*
X10802461D01*
Y6233480D01*
X10813041Y6222900D01*
X10960000Y6030000D02*
Y6093479D01*
X10928260D01*
X10917680Y6082899D01*
Y6061740D01*
X10928260Y6051160D01*
X10960000D01*
X10938840D02*
X10917680Y6030000D01*
X10896520Y6082899D02*
X10885941Y6093479D01*
X10864781D01*
X10854201Y6082899D01*
Y6072320D01*
X10864781Y6061740D01*
X10854201Y6051160D01*
Y6040580D01*
X10864781Y6030000D01*
X10885941D01*
X10896520Y6040580D01*
Y6051160D01*
X10885941Y6061740D01*
X10896520Y6072320D01*
Y6082899D01*
X10885941Y6061740D02*
X10864781D01*
X10833041Y6082899D02*
X10822461Y6093479D01*
X10801301D01*
X10790721Y6082899D01*
Y6072320D01*
X10801301Y6061740D01*
X10811881D01*
X10801301D01*
X10790721Y6051160D01*
Y6040580D01*
X10801301Y6030000D01*
X10822461D01*
X10833041Y6040580D01*
X13069598Y8976339D02*
Y8923440D01*
X13059019Y8912860D01*
X13037860D01*
X13027280Y8923440D01*
Y8976339D01*
X13006120Y8912860D02*
X12984959D01*
X12995540D01*
Y8976339D01*
X13006120Y8965760D01*
X12970000Y10983479D02*
Y10930580D01*
X12959419Y10920000D01*
X12938260D01*
X12927679Y10930580D01*
Y10983479D01*
X12906522Y10972900D02*
X12895941Y10983479D01*
X12874780D01*
X12864201Y10972900D01*
Y10962320D01*
X12874780Y10951740D01*
X12885361D01*
X12874780D01*
X12864201Y10941160D01*
Y10930580D01*
X12874780Y10920000D01*
X12895941D01*
X12906522Y10930580D01*
X9331960Y10058379D02*
Y10005480D01*
X9321380Y9994900D01*
X9300220D01*
X9289640Y10005480D01*
Y10058379D01*
X9268481Y9994900D02*
X9247321D01*
X9257901D01*
Y10058379D01*
X9268481Y10047800D01*
X9215581Y9994900D02*
X9194421D01*
X9205001D01*
Y10058379D01*
X9215581Y10047800D01*
X10525540Y10337259D02*
Y10284360D01*
X10514960Y10273780D01*
X10493800D01*
X10483221Y10284360D01*
Y10337259D01*
X10462061Y10273780D02*
X10440901D01*
X10451481D01*
Y10337259D01*
X10462061Y10326680D01*
X10377421Y10273780D02*
Y10337259D01*
X10409161Y10305520D01*
X10366842D01*
X10910000Y6683479D02*
Y6630580D01*
X10899420Y6620000D01*
X10878260D01*
X10867680Y6630580D01*
Y6683479D01*
X10846521Y6620000D02*
X10825361D01*
X10835941D01*
Y6683479D01*
X10846521Y6672900D01*
X10751301Y6683479D02*
X10793621D01*
Y6651740D01*
X10772461Y6662320D01*
X10761881D01*
X10751301Y6651740D01*
Y6630580D01*
X10761881Y6620000D01*
X10783041D01*
X10793621Y6630580D01*
X9940000Y6583479D02*
Y6530580D01*
X9929420Y6520000D01*
X9908260D01*
X9897680Y6530580D01*
Y6583479D01*
X9876521Y6520000D02*
X9855361D01*
X9865941D01*
Y6583479D01*
X9876521Y6572899D01*
X9781301Y6583479D02*
X9802461Y6572899D01*
X9823621Y6551740D01*
Y6530580D01*
X9813041Y6520000D01*
X9791881D01*
X9781301Y6530580D01*
Y6541160D01*
X9791881Y6551740D01*
X9823621D01*
X4911060Y5025701D02*
X4900480Y5036281D01*
Y5057440D01*
X4911060Y5068020D01*
X4953379D01*
X4963959Y5057440D01*
Y5036281D01*
X4953379Y5025701D01*
X4911060Y5004541D02*
X4900480Y4993961D01*
Y4972801D01*
X4911060Y4962221D01*
X4921639D01*
X4932219Y4972801D01*
X4942799Y4962221D01*
X4953379D01*
X4963959Y4972801D01*
Y4993961D01*
X4953379Y5004541D01*
X4942799D01*
X4932219Y4993961D01*
X4921639Y5004541D01*
X4911060D01*
X4932219Y4993961D02*
Y4972801D01*
X4963959Y4941061D02*
Y4919902D01*
Y4930482D01*
X4900480D01*
X4911060Y4941061D01*
X7307100Y4707680D02*
X7296521Y4718260D01*
Y4739420D01*
X7307100Y4750000D01*
X7349420D01*
X7360000Y4739420D01*
Y4718260D01*
X7349420Y4707680D01*
Y4686520D02*
X7360000Y4675941D01*
Y4654781D01*
X7349420Y4644201D01*
X7307100D01*
X7296521Y4654781D01*
Y4675941D01*
X7307100Y4686520D01*
X7317680D01*
X7328260Y4675941D01*
Y4644201D01*
X7360000Y4580721D02*
Y4623041D01*
X7317680Y4580721D01*
X7307100D01*
X7296521Y4591301D01*
Y4612461D01*
X7307100Y4623041D01*
X6487100Y4837680D02*
X6476520Y4848260D01*
Y4869420D01*
X6487100Y4880000D01*
X6529420D01*
X6540000Y4869420D01*
Y4848260D01*
X6529420Y4837680D01*
X6476520Y4816520D02*
Y4774201D01*
X6487100D01*
X6529420Y4816520D01*
X6540000D01*
X6476520Y4753041D02*
Y4710721D01*
X6487100D01*
X6529420Y4753041D01*
X6540000D01*
X6564659Y6321200D02*
X6575239Y6310620D01*
Y6289460D01*
X6564659Y6278880D01*
X6522340D01*
X6511760Y6289460D01*
Y6310620D01*
X6522340Y6321200D01*
X6564659Y6342359D02*
X6575239Y6352939D01*
Y6374099D01*
X6564659Y6384679D01*
X6554080D01*
X6543500Y6374099D01*
X6532920Y6384679D01*
X6522340D01*
X6511760Y6374099D01*
Y6352939D01*
X6522340Y6342359D01*
X6532920D01*
X6543500Y6352939D01*
X6554080Y6342359D01*
X6564659D01*
X6543500Y6352939D02*
Y6374099D01*
X6564659Y6405839D02*
X6575239Y6416419D01*
Y6437579D01*
X6564659Y6448159D01*
X6554080D01*
X6543500Y6437579D01*
Y6426999D01*
Y6437579D01*
X6532920Y6448159D01*
X6522340D01*
X6511760Y6437579D01*
Y6416419D01*
X6522340Y6405839D01*
X6877101Y4837680D02*
X6866521Y4848260D01*
Y4869420D01*
X6877101Y4880000D01*
X6919420D01*
X6930000Y4869420D01*
Y4848260D01*
X6919420Y4837680D01*
X6877101Y4816520D02*
X6866521Y4805941D01*
Y4784781D01*
X6877101Y4774201D01*
X6887680D01*
X6898260Y4784781D01*
X6908840Y4774201D01*
X6919420D01*
X6930000Y4784781D01*
Y4805941D01*
X6919420Y4816520D01*
X6908840D01*
X6898260Y4805941D01*
X6887680Y4816520D01*
X6877101D01*
X6898260Y4805941D02*
Y4784781D01*
X6866521Y4710721D02*
X6877101Y4731881D01*
X6898260Y4753041D01*
X6919420D01*
X6930000Y4742461D01*
Y4721301D01*
X6919420Y4710721D01*
X6908840D01*
X6898260Y4721301D01*
Y4753041D01*
X7332320Y6097100D02*
X7321740Y6086520D01*
X7300580D01*
X7290000Y6097100D01*
Y6139420D01*
X7300580Y6150000D01*
X7321740D01*
X7332320Y6139420D01*
X7353479D02*
X7364059Y6150000D01*
X7385219D01*
X7395799Y6139420D01*
Y6097100D01*
X7385219Y6086520D01*
X7364059D01*
X7353479Y6097100D01*
Y6107680D01*
X7364059Y6118260D01*
X7395799D01*
X7416959Y6097100D02*
X7427539Y6086520D01*
X7448699D01*
X7459278Y6097100D01*
Y6107680D01*
X7448699Y6118260D01*
X7438118D01*
X7448699D01*
X7459278Y6128840D01*
Y6139420D01*
X7448699Y6150000D01*
X7427539D01*
X7416959Y6139420D01*
X9487100Y10287680D02*
X9476521Y10298260D01*
Y10319420D01*
X9487100Y10330000D01*
X9529420D01*
X9540000Y10319420D01*
Y10298260D01*
X9529420Y10287680D01*
X9540000Y10266520D02*
Y10245361D01*
Y10255941D01*
X9476521D01*
X9487100Y10266520D01*
Y10213621D02*
X9476521Y10203041D01*
Y10181881D01*
X9487100Y10171301D01*
X9497680D01*
X9508260Y10181881D01*
Y10192461D01*
Y10181881D01*
X9518840Y10171301D01*
X9529420D01*
X9540000Y10181881D01*
Y10203041D01*
X9529420Y10213621D01*
X9487100Y10150141D02*
X9476521Y10139562D01*
Y10118402D01*
X9487100Y10107822D01*
X9529420D01*
X9540000Y10118402D01*
Y10139562D01*
X9529420Y10150141D01*
X9487100D01*
%TF.MD5,510285ad8a061cbf5c0aca47fd8e3fb1*%
M02*
