G04 Layer_Color=128*
%FSLAX45Y45*%
%MOMM*%
%TF.FileFunction,Drillmap*%
%TF.Part,Single*%
G01*
G75*
%TA.AperFunction,NonConductor*%
%ADD215C,0.12700*%
D215*
X2474680Y11976100D02*
X2564680D01*
X2519680Y11931100D02*
Y12021100D01*
X2474680Y12230100D02*
X2564680D01*
X2519680Y12185100D02*
Y12275100D01*
X11132840Y13126720D02*
X11452840D01*
X11292840Y12966721D02*
Y13286720D01*
X11374840Y11221720D02*
X11464840D01*
X11419840Y11176720D02*
Y11266720D01*
X11120840Y11221720D02*
X11210840D01*
X11165840Y11176720D02*
Y11266720D01*
X11374840Y11475720D02*
X11464840D01*
X11419840Y11430720D02*
Y11520720D01*
X11120840Y11475720D02*
X11210840D01*
X11165840Y11430720D02*
Y11520720D01*
X11374840Y11729720D02*
X11464840D01*
X11419840Y11684720D02*
Y11774720D01*
X11120840Y11729720D02*
X11210840D01*
X11165840Y11684720D02*
Y11774720D01*
X11374840Y11983720D02*
X11464840D01*
X11419840Y11938720D02*
Y12028720D01*
X11120840Y11983720D02*
X11210840D01*
X11165840Y11938720D02*
Y12028720D01*
X11374840Y12237720D02*
X11464840D01*
X11419840Y12192720D02*
Y12282720D01*
X11120840Y12237720D02*
X11210840D01*
X11165840Y12192720D02*
Y12282720D01*
X11374840Y12491720D02*
X11464840D01*
X11419840Y12446720D02*
Y12536720D01*
X11120840Y12491720D02*
X11210840D01*
X11165840Y12446720D02*
Y12536720D01*
X6802820Y13263840D02*
X6897820D01*
X6850320Y13216341D02*
Y13311340D01*
X6802820Y12263840D02*
X6897820D01*
X6850320Y12216340D02*
Y12311340D01*
X6802820Y11263840D02*
X6897820D01*
X6850320Y11216340D02*
Y11311340D01*
X6802820Y10263840D02*
X6897820D01*
X6850320Y10216340D02*
Y10311340D01*
X5372820Y10263840D02*
X5477820D01*
X5425320Y10211340D02*
Y10316340D01*
X5372820Y11263840D02*
X5477820D01*
X5425320Y11211340D02*
Y11316340D01*
X5372820Y12263840D02*
X5477820D01*
X5425320Y12211340D02*
Y12316340D01*
X5372820Y13263840D02*
X5477820D01*
X5425320Y13211340D02*
Y13316341D01*
X8227820Y10513840D02*
X8322820D01*
X8275320Y10466340D02*
Y10561340D01*
X8227820Y11013840D02*
X8322820D01*
X8275320Y10966340D02*
Y11061340D01*
X8222820Y11763840D02*
X8327820D01*
X8275320Y11711340D02*
Y11816340D01*
X8222820Y12763840D02*
X8327820D01*
X8275320Y12711340D02*
Y12816341D01*
X8222820Y13763840D02*
X8327820D01*
X8275320Y13711340D02*
Y13816341D01*
X5377820Y11483840D02*
X5472820D01*
X5425320Y11436340D02*
Y11531340D01*
X8227820Y11483840D02*
X8322820D01*
X8275320Y11436340D02*
Y11531340D01*
X6569820Y10053840D02*
X6664820D01*
X6617320Y10006340D02*
Y10101340D01*
X6089820Y10053840D02*
X6184820D01*
X6137320Y10006340D02*
Y10101340D01*
X7514820Y10053840D02*
X7609820D01*
X7562320Y10006340D02*
Y10101340D01*
X7994820Y10053840D02*
X8089820D01*
X8042320Y10006340D02*
Y10101340D01*
X6539820Y10673839D02*
X6694820D01*
X6617320Y10596339D02*
Y10751339D01*
X5579820Y10673839D02*
X5734820D01*
X5657320Y10596339D02*
Y10751339D01*
X3878580Y8023860D02*
X3954780D01*
X3916680Y7985760D02*
Y8061960D01*
X3878580Y8373860D02*
X3954780D01*
X3916680Y8335760D02*
Y8411960D01*
X6807920Y8166100D02*
X6897920D01*
X6852920Y8121100D02*
Y8211100D01*
X6807920Y7912100D02*
X6897920D01*
X6852920Y7867100D02*
Y7957100D01*
X13679179Y11448720D02*
X13769180D01*
X13724181Y11403720D02*
Y11493720D01*
X13479179Y11448720D02*
X13569180D01*
X13524181Y11403720D02*
Y11493720D01*
X13279179Y11448720D02*
X13369180D01*
X13324181Y11403720D02*
Y11493720D01*
X13079179Y11448720D02*
X13169180D01*
X13124181Y11403720D02*
Y11493720D01*
X12879179Y11448720D02*
X12969180D01*
X12924181Y11403720D02*
Y11493720D01*
X12679180Y11448720D02*
X12769180D01*
X12724180Y11403720D02*
Y11493720D01*
X12479180Y11448720D02*
X12569180D01*
X12524180Y11403720D02*
Y11493720D01*
X13679179Y11248720D02*
X13769180D01*
X13724181Y11203720D02*
Y11293720D01*
X13479179Y11248720D02*
X13569180D01*
X13524181Y11203720D02*
Y11293720D01*
X13279179Y11248720D02*
X13369180D01*
X13324181Y11203720D02*
Y11293720D01*
X13079179Y11248720D02*
X13169180D01*
X13124181Y11203720D02*
Y11293720D01*
X12879179Y11248720D02*
X12969180D01*
X12924181Y11203720D02*
Y11293720D01*
X12679180Y11248720D02*
X12769180D01*
X12724180Y11203720D02*
Y11293720D01*
X12479180Y11248720D02*
X12569180D01*
X12524180Y11203720D02*
Y11293720D01*
X12574180Y11348720D02*
X12674180D01*
X12624180Y11298720D02*
Y11398720D01*
X4073100Y12453360D02*
X4258100D01*
X4165600Y12360860D02*
Y12545860D01*
X4073100Y13373360D02*
X4258100D01*
X4165600Y13280859D02*
Y13465860D01*
X4073100Y12913361D02*
X4258100D01*
X4165600Y12820860D02*
Y13005859D01*
X16376500Y11259070D02*
X16503500D01*
X16439999Y11195570D02*
Y11322570D01*
X16071700Y5820930D02*
X16198700D01*
X16135201Y5757430D02*
Y5884430D01*
X7964820Y10673840D02*
X8119820D01*
X8042320Y10596340D02*
Y10751340D01*
X7004820Y10673840D02*
X7159820D01*
X7082320Y10596340D02*
Y10751340D01*
X17393539Y3903979D02*
X17663539D01*
X17528539Y3768979D02*
Y4038979D01*
X1899540Y3903979D02*
X2169540D01*
X2034540Y3768979D02*
Y4038979D01*
X1899540Y13936980D02*
X2169540D01*
X2034540Y13801981D02*
Y14071980D01*
X17393539Y13936980D02*
X17663541D01*
X17528540Y13801981D02*
Y14071979D01*
X16505000Y11689070D02*
X16775000D01*
X16639999Y11554070D02*
Y11824070D01*
X16505000Y5389070D02*
X16775000D01*
X16639999Y5254070D02*
Y5524070D01*
X2938280Y12919881D02*
X3038280D01*
X2988280Y12869881D02*
Y12969881D01*
X2938280Y13499879D02*
X3038280D01*
X2988280Y13449879D02*
Y13549879D01*
X2458280Y13219881D02*
X2558280D01*
X2508280Y13169881D02*
Y13269881D01*
X14417039Y13169901D02*
X14493240D01*
X14455141Y13131799D02*
Y13208000D01*
X14163040Y13169901D02*
X14239240D01*
X14201140Y13131799D02*
Y13208000D01*
X13909039Y13169901D02*
X13985240D01*
X13947141Y13131799D02*
Y13208000D01*
X13655040Y13169901D02*
X13731239D01*
X13693140Y13131799D02*
Y13208000D01*
X13401041Y13169901D02*
X13477240D01*
X13439140Y13131799D02*
Y13208000D01*
X13147040Y13169901D02*
X13223241D01*
X13185139Y13131799D02*
Y13208000D01*
X14417039Y12915900D02*
X14493240D01*
X14455141Y12877800D02*
Y12953999D01*
X14163040Y12915900D02*
X14239240D01*
X14201140Y12877800D02*
Y12953999D01*
X13909039Y12915900D02*
X13985240D01*
X13947141Y12877800D02*
Y12953999D01*
X13655040Y12915900D02*
X13731239D01*
X13693140Y12877800D02*
Y12953999D01*
X13401041Y12915900D02*
X13477240D01*
X13439140Y12877800D02*
Y12953999D01*
X13147040Y12915900D02*
X13223241D01*
X13185139Y12877800D02*
Y12953999D01*
X16703040Y13169901D02*
X16779240D01*
X16741141Y13131799D02*
Y13208000D01*
X16449040Y13169901D02*
X16525240D01*
X16487140Y13131799D02*
Y13208000D01*
X16195039Y13169901D02*
X16271240D01*
X16233141Y13131799D02*
Y13208000D01*
X15941040Y13169901D02*
X16017239D01*
X15979140Y13131799D02*
Y13208000D01*
X15687041Y13169901D02*
X15763240D01*
X15725140Y13131799D02*
Y13208000D01*
X15433040Y13169901D02*
X15509241D01*
X15471140Y13131799D02*
Y13208000D01*
X16703040Y12915900D02*
X16779240D01*
X16741141Y12877800D02*
Y12953999D01*
X16449040Y12915900D02*
X16525240D01*
X16487140Y12877800D02*
Y12953999D01*
X16195039Y12915900D02*
X16271240D01*
X16233141Y12877800D02*
Y12953999D01*
X15941040Y12915900D02*
X16017239D01*
X15979140Y12877800D02*
Y12953999D01*
X15687041Y12915900D02*
X15763240D01*
X15725140Y12877800D02*
Y12953999D01*
X15433040Y12915900D02*
X15509241D01*
X15471140Y12877800D02*
Y12953999D01*
X7797470Y5608320D02*
X7815250D01*
X7806360Y5599430D02*
Y5617210D01*
X8011160Y9503400D02*
X8031480D01*
X8021320Y9493240D02*
Y9513560D01*
X8149840Y9830000D02*
X8170160D01*
X8160000Y9819840D02*
Y9840160D01*
X7665720Y9833600D02*
X7686040D01*
X7675880Y9823440D02*
Y9843760D01*
X8149840Y9750000D02*
X8170160D01*
X8160000Y9739840D02*
Y9760160D01*
X7665720Y9753600D02*
X7686040D01*
X7675880Y9743440D02*
Y9763760D01*
X8011160Y9583400D02*
X8031480D01*
X8021320Y9573240D02*
Y9593560D01*
X6017260Y9583416D02*
X6037580D01*
X6027420Y9573256D02*
Y9593576D01*
X6017260Y9503416D02*
X6037580D01*
X6027420Y9493256D02*
Y9513576D01*
X9034780Y9431020D02*
X9055100D01*
X9044940Y9420860D02*
Y9441180D01*
X9243940Y9190060D02*
X9264260D01*
X9254100Y9179900D02*
Y9200220D01*
X9251720Y9082280D02*
X9272040D01*
X9261880Y9072120D02*
Y9092440D01*
X10121900Y8707120D02*
X10142220D01*
X10132060Y8696960D02*
Y8717280D01*
X13180060Y9702800D02*
X13205460D01*
X13192760Y9690100D02*
Y9715500D01*
X13167360Y9829800D02*
X13192760D01*
X13180060Y9817100D02*
Y9842500D01*
X13174980Y9956800D02*
X13200380D01*
X13187680Y9944100D02*
Y9969500D01*
X13172440Y10083800D02*
X13197839D01*
X13185139Y10071100D02*
Y10096500D01*
X11729840Y8110000D02*
X11750160D01*
X11740000Y8099840D02*
Y8120160D01*
X9351720Y7617840D02*
X9372040D01*
X9361880Y7607680D02*
Y7628000D01*
X11649840Y8110000D02*
X11670160D01*
X11660000Y8099840D02*
Y8120160D01*
X9351720Y7717840D02*
X9372040D01*
X9361880Y7707680D02*
Y7728000D01*
X13555980Y10022840D02*
X13576300D01*
X13566141Y10012680D02*
Y10033000D01*
X10916920Y8686800D02*
X10937240D01*
X10927080Y8676640D02*
Y8696960D01*
X10629840Y8900000D02*
X10650160D01*
X10640000Y8889840D02*
Y8910160D01*
X10629840Y8800000D02*
X10650160D01*
X10640000Y8789840D02*
Y8810160D01*
X10839818Y8919982D02*
X10860138D01*
X10849978Y8909822D02*
Y8930142D01*
X10169119Y10003660D02*
X10189119D01*
X10179119Y9993660D02*
Y10013660D01*
X10169119Y9893660D02*
X10189119D01*
X10179119Y9883660D02*
Y9903660D01*
X10279119Y9893660D02*
X10299119D01*
X10289119Y9883660D02*
Y9903660D01*
X10279119Y10003660D02*
X10299119D01*
X10289119Y9993660D02*
Y10013660D01*
X8950960Y7110000D02*
X8971280D01*
X8961120Y7099840D02*
Y7120160D01*
X9029840Y7290000D02*
X9050160D01*
X9040000Y7279840D02*
Y7300160D01*
X8929840Y7500000D02*
X8950160D01*
X8940000Y7489840D02*
Y7510160D01*
X8549840Y8980000D02*
X8570160D01*
X8560000Y8969840D02*
Y8990160D01*
X8649840Y8980000D02*
X8670160D01*
X8660000Y8969840D02*
Y8990160D01*
X8649840Y9030000D02*
X8670160D01*
X8660000Y9019840D02*
Y9040160D01*
X8549840Y9030000D02*
X8570160D01*
X8560000Y9019840D02*
Y9040160D01*
X8679840Y8740000D02*
X8700160D01*
X8690000Y8729840D02*
Y8750160D01*
X8937620Y8795380D02*
X8957940D01*
X8947780Y8785220D02*
Y8805540D01*
X8519840Y8740000D02*
X8540160D01*
X8530000Y8729840D02*
Y8750160D01*
X12819839Y5550000D02*
X12840160D01*
X12830000Y5539840D02*
Y5560160D01*
X16683839Y6160020D02*
X16704160D01*
X16694000Y6149860D02*
Y6170180D01*
X16179808Y10589979D02*
X16200128D01*
X16189967Y10579819D02*
Y10600139D01*
X16692841Y8930000D02*
X16713161D01*
X16703000Y8919840D02*
Y8940160D01*
X16689841Y8550000D02*
X16710159D01*
X16700000Y8539840D02*
Y8560160D01*
X16689841Y8170000D02*
X16710159D01*
X16700000Y8159840D02*
Y8180160D01*
X16689841Y7790000D02*
X16710159D01*
X16700000Y7779840D02*
Y7800160D01*
X16689841Y7410000D02*
X16710159D01*
X16700000Y7399840D02*
Y7420160D01*
X16689841Y7020000D02*
X16710159D01*
X16700000Y7009840D02*
Y7030160D01*
X16789841Y6640000D02*
X16810159D01*
X16800000Y6629840D02*
Y6650160D01*
X16175841Y6160020D02*
X16196159D01*
X16186000Y6149860D02*
Y6170180D01*
X16559380Y6668020D02*
X16579700D01*
X16569540Y6657860D02*
Y6678180D01*
X15229840Y4920000D02*
X15250160D01*
X15239999Y4909840D02*
Y4930160D01*
X15229840Y5160000D02*
X15250160D01*
X15239999Y5149840D02*
Y5170160D01*
X9097657Y7389500D02*
X9117977D01*
X9107817Y7379340D02*
Y7399660D01*
X16681300Y6601980D02*
X16701620D01*
X16691460Y6591820D02*
Y6612140D01*
X16681300Y6414020D02*
X16701620D01*
X16691460Y6403860D02*
Y6424180D01*
X13659840Y8300000D02*
X13680161D01*
X13670000Y8289840D02*
Y8310160D01*
X13659840Y8540000D02*
X13680161D01*
X13670000Y8529840D02*
Y8550160D01*
X16683839Y6347980D02*
X16704160D01*
X16694000Y6337820D02*
Y6358140D01*
X16556841Y6063500D02*
X16577161D01*
X16567000Y6053340D02*
Y6073660D01*
X16810840Y9365500D02*
X16831160D01*
X16821001Y9355340D02*
Y9375660D01*
X16810840Y9746500D02*
X16831160D01*
X16821001Y9736340D02*
Y9756660D01*
X16810840Y10127500D02*
X16831160D01*
X16821001Y10117340D02*
Y10137660D01*
X16810840Y10508500D02*
X16831160D01*
X16821001Y10498340D02*
Y10518660D01*
X16810840Y10889500D02*
X16831160D01*
X16821001Y10879340D02*
Y10899660D01*
X16556841Y11016500D02*
X16577161D01*
X16567000Y11006340D02*
Y11026660D01*
X16556841Y10762500D02*
X16577161D01*
X16567000Y10752340D02*
Y10772660D01*
X16556841Y10381500D02*
X16577161D01*
X16567000Y10371340D02*
Y10391660D01*
X16556841Y10000500D02*
X16577161D01*
X16567000Y9990340D02*
Y10010660D01*
X16556841Y9619500D02*
X16577161D01*
X16567000Y9609340D02*
Y9629660D01*
X16556841Y9238500D02*
X16577161D01*
X16567000Y9228340D02*
Y9248660D01*
X16556841Y8857500D02*
X16577161D01*
X16567000Y8847340D02*
Y8867660D01*
X16556841Y8476500D02*
X16577161D01*
X16567000Y8466340D02*
Y8486660D01*
X16556841Y8095500D02*
X16577161D01*
X16567000Y8085340D02*
Y8105660D01*
X16556841Y7714500D02*
X16577161D01*
X16567000Y7704340D02*
Y7724660D01*
X16556841Y7333500D02*
X16577161D01*
X16567000Y7323340D02*
Y7343660D01*
X16556841Y6952500D02*
X16577161D01*
X16567000Y6942340D02*
Y6962660D01*
X16048840Y11016500D02*
X16069160D01*
X16059000Y11006340D02*
Y11026660D01*
X16048840Y10762500D02*
X16069160D01*
X16059000Y10752340D02*
Y10772660D01*
X16048840Y10508500D02*
X16069160D01*
X16059000Y10498340D02*
Y10518660D01*
X16048840Y10254500D02*
X16069160D01*
X16059000Y10244340D02*
Y10264660D01*
X16048840Y10127500D02*
X16069160D01*
X16059000Y10117340D02*
Y10137660D01*
X16048840Y10000500D02*
X16069160D01*
X16059000Y9990340D02*
Y10010660D01*
X16048840Y9619500D02*
X16069160D01*
X16059000Y9609340D02*
Y9629660D01*
X16048840Y9492500D02*
X16069160D01*
X16059000Y9482340D02*
Y9502660D01*
X16048840Y9111500D02*
X16069160D01*
X16059000Y9101340D02*
Y9121660D01*
X16048840Y8933700D02*
X16069160D01*
X16059000Y8923540D02*
Y8943860D01*
X16048840Y8654300D02*
X16069160D01*
X16059000Y8644140D02*
Y8664460D01*
X16048840Y8476500D02*
X16069160D01*
X16059000Y8466340D02*
Y8486660D01*
X16048840Y8095500D02*
X16069160D01*
X16059000Y8085340D02*
Y8105660D01*
X16048840Y7968500D02*
X16069160D01*
X16059000Y7958340D02*
Y7978660D01*
X16048840Y7587500D02*
X16069160D01*
X16059000Y7577340D02*
Y7597660D01*
X16048840Y7460500D02*
X16069160D01*
X16059000Y7450340D02*
Y7470660D01*
X16048840Y7079500D02*
X16069160D01*
X16059000Y7069340D02*
Y7089660D01*
X16048840Y6952500D02*
X16069160D01*
X16059000Y6942340D02*
Y6962660D01*
X16048840Y6571500D02*
X16069160D01*
X16059000Y6561340D02*
Y6581660D01*
X16048840Y6444500D02*
X16069160D01*
X16059000Y6434340D02*
Y6454660D01*
X16048840Y6063500D02*
X16069160D01*
X16059000Y6053340D02*
Y6073660D01*
X16302840Y7206500D02*
X16323160D01*
X16313000Y7196340D02*
Y7216660D01*
X16302840Y7587500D02*
X16323160D01*
X16313000Y7577340D02*
Y7597660D01*
X16303340Y7970000D02*
X16323660D01*
X16313499Y7959840D02*
Y7980160D01*
X16302840Y8349500D02*
X16323160D01*
X16313000Y8339340D02*
Y8359660D01*
X16302840Y8730500D02*
X16323160D01*
X16313000Y8720340D02*
Y8740660D01*
X16302840Y9111500D02*
X16323160D01*
X16313000Y9101340D02*
Y9121660D01*
X16302840Y9492500D02*
X16323160D01*
X16313000Y9482340D02*
Y9502660D01*
X16302840Y10381500D02*
X16323160D01*
X16313000Y10371340D02*
Y10391660D01*
X16302840Y10889500D02*
X16323160D01*
X16313000Y10879340D02*
Y10899660D01*
X16302840Y10254500D02*
X16323160D01*
X16313000Y10244340D02*
Y10264660D01*
X16556841Y10889500D02*
X16577161D01*
X16567000Y10879340D02*
Y10899660D01*
X16810840Y11016500D02*
X16831160D01*
X16821001Y11006340D02*
Y11026660D01*
X16302840Y10000500D02*
X16323160D01*
X16313000Y9990340D02*
Y10010660D01*
X16048840Y10381500D02*
X16069160D01*
X16059000Y10371340D02*
Y10391660D01*
X16302840Y10508500D02*
X16323160D01*
X16313000Y10498340D02*
Y10518660D01*
X16048840Y10635500D02*
X16069160D01*
X16059000Y10625340D02*
Y10645660D01*
X16302840Y10762500D02*
X16323160D01*
X16313000Y10752340D02*
Y10772660D01*
X16302840Y11016500D02*
X16323160D01*
X16313000Y11006340D02*
Y11026660D01*
X16048840Y10889500D02*
X16069160D01*
X16059000Y10879340D02*
Y10899660D01*
X9349840Y8490000D02*
X9370160D01*
X9360000Y8479840D02*
Y8500160D01*
X9443940Y8490060D02*
X9464260D01*
X9454100Y8479900D02*
Y8500220D01*
X9552940Y8478520D02*
X9573260D01*
X9563100Y8468360D02*
Y8488680D01*
X9643940Y8490060D02*
X9664260D01*
X9654100Y8479900D02*
Y8500220D01*
X9751720Y8482280D02*
X9772040D01*
X9761880Y8472120D02*
Y8492440D01*
X9743940Y8390060D02*
X9764260D01*
X9754100Y8379900D02*
Y8400220D01*
X9843940Y8490060D02*
X9864260D01*
X9854100Y8479900D02*
Y8500220D01*
X10012680Y8483600D02*
X10033000D01*
X10022840Y8473440D02*
Y8493760D01*
X3914140Y5247640D02*
X3939540D01*
X3926840Y5234940D02*
Y5260340D01*
X16339841Y5245000D02*
X16360159D01*
X16350000Y5234840D02*
Y5255160D01*
X9651720Y8682280D02*
X9672040D01*
X9661880Y8672120D02*
Y8692440D01*
X9643940Y8590060D02*
X9664260D01*
X9654100Y8579900D02*
Y8600220D01*
X9643940Y8790060D02*
X9664260D01*
X9654100Y8779900D02*
Y8800220D01*
X9555480Y8788400D02*
X9575800D01*
X9565640Y8778240D02*
Y8798560D01*
X9443940Y9190060D02*
X9464260D01*
X9454100Y9179900D02*
Y9200220D01*
X9559821Y8979982D02*
X9580141D01*
X9569981Y8969822D02*
Y8990142D01*
X9451720Y9082280D02*
X9472040D01*
X9461880Y9072120D02*
Y9092440D01*
X11687300Y6990000D02*
X11712700D01*
X11700000Y6977300D02*
Y7002700D01*
X7341110Y4400000D02*
X7358890D01*
X7350000Y4391110D02*
Y4408890D01*
X7291110Y4400000D02*
X7308890D01*
X7300000Y4391110D02*
Y4408890D01*
X7341110Y4470000D02*
X7358890D01*
X7350000Y4461110D02*
Y4478890D01*
X7291110Y4470000D02*
X7308890D01*
X7300000Y4461110D02*
Y4478890D01*
X10723940Y8990060D02*
X10744260D01*
X10734100Y8979900D02*
Y9000220D01*
X10019840Y9090000D02*
X10040160D01*
X10030000Y9079840D02*
Y9100160D01*
X9851720Y9082280D02*
X9872040D01*
X9861880Y9072120D02*
Y9092440D01*
X10089840Y9350000D02*
X10110160D01*
X10100000Y9339840D02*
Y9360160D01*
X11469840Y9310000D02*
X11490160D01*
X11480000Y9299840D02*
Y9320160D01*
X9350780Y8682280D02*
X9371100D01*
X9360940Y8672120D02*
Y8692440D01*
X9350780Y8782280D02*
X9371100D01*
X9360940Y8772120D02*
Y8792440D01*
X7932420Y8747740D02*
X7952740D01*
X7942580Y8737580D02*
Y8757900D01*
X9479840Y9530000D02*
X9500160D01*
X9490000Y9519840D02*
Y9540160D01*
X9419840Y9530000D02*
X9440160D01*
X9430000Y9519840D02*
Y9540160D01*
X9479840Y9410000D02*
X9500160D01*
X9490000Y9399840D02*
Y9420160D01*
X9419840Y9410000D02*
X9440160D01*
X9430000Y9399840D02*
Y9420160D01*
X9240520Y9413240D02*
X9260840D01*
X9250680Y9403080D02*
Y9423400D01*
X8149840Y9670000D02*
X8170160D01*
X8160000Y9659840D02*
Y9680160D01*
X6791110Y6070000D02*
X6808890D01*
X6800000Y6061110D02*
Y6078890D01*
X4981110Y5060000D02*
X4998890D01*
X4990000Y5051110D02*
Y5068890D01*
X4931110Y5060000D02*
X4948890D01*
X4940000Y5051110D02*
Y5068890D01*
X4881110Y5060000D02*
X4898890D01*
X4890000Y5051110D02*
Y5068890D01*
X10019840Y9190000D02*
X10040160D01*
X10030000Y9179840D02*
Y9200160D01*
X11239840Y7170000D02*
X11260160D01*
X11250000Y7159840D02*
Y7180160D01*
X8489840Y8330000D02*
X8510160D01*
X8500000Y8319840D02*
Y8340160D01*
X8709840Y8160000D02*
X8730160D01*
X8720000Y8149840D02*
Y8170160D01*
X8809840Y8160000D02*
X8830160D01*
X8820000Y8149840D02*
Y8170160D01*
X8809840Y8210000D02*
X8830160D01*
X8820000Y8199840D02*
Y8220160D01*
X8309840Y8330000D02*
X8330160D01*
X8320000Y8319840D02*
Y8340160D01*
X8491060Y8152320D02*
X8511380D01*
X8501220Y8142160D02*
Y8162480D01*
X8311060Y8152320D02*
X8331380D01*
X8321220Y8142160D02*
Y8162480D01*
X8709840Y8210000D02*
X8730160D01*
X8720000Y8199840D02*
Y8220160D01*
X8789840Y8380000D02*
X8810160D01*
X8800000Y8369840D02*
Y8390160D01*
X8789840Y8440000D02*
X8810160D01*
X8800000Y8429840D02*
Y8450160D01*
X8689840Y8380000D02*
X8710160D01*
X8700000Y8369840D02*
Y8390160D01*
X8689840Y8440000D02*
X8710160D01*
X8700000Y8429840D02*
Y8450160D01*
X11567300Y7430000D02*
X11592700D01*
X11580000Y7417300D02*
Y7442700D01*
X11359840Y8280000D02*
X11380160D01*
X11370000Y8269840D02*
Y8290160D01*
X11359840Y8340000D02*
X11380160D01*
X11370000Y8329840D02*
Y8350160D01*
X11259840Y8280000D02*
X11280160D01*
X11270000Y8269840D02*
Y8290160D01*
X11259840Y8340000D02*
X11280160D01*
X11270000Y8329840D02*
Y8350160D01*
X11339840Y7630000D02*
X11360160D01*
X11350000Y7619840D02*
Y7640160D01*
X11339840Y7690000D02*
X11360160D01*
X11350000Y7679840D02*
Y7700160D01*
X11239840Y7630000D02*
X11260160D01*
X11250000Y7619840D02*
Y7640160D01*
X11239840Y7690000D02*
X11260160D01*
X11250000Y7679840D02*
Y7700160D01*
X11239840Y7410000D02*
X11260160D01*
X11250000Y7399840D02*
Y7420160D01*
X11339840Y7410000D02*
X11360160D01*
X11350000Y7399840D02*
Y7420160D01*
X11339840Y7360000D02*
X11360160D01*
X11350000Y7349840D02*
Y7370160D01*
X11239840Y7360000D02*
X11260160D01*
X11250000Y7349840D02*
Y7370160D01*
X10819840Y8290000D02*
X10840160D01*
X10830000Y8279840D02*
Y8300160D01*
X10929840Y8100000D02*
X10950160D01*
X10940000Y8089840D02*
Y8110160D01*
X11569840Y8110000D02*
X11590160D01*
X11580000Y8099840D02*
Y8120160D01*
X10929840Y7110000D02*
X10950160D01*
X10940000Y7099840D02*
Y7120160D01*
X10829840Y7110000D02*
X10850160D01*
X10840000Y7099840D02*
Y7120160D01*
X10729840Y7110000D02*
X10750160D01*
X10740000Y7099840D02*
Y7120160D01*
X10629840Y7110000D02*
X10650160D01*
X10640000Y7099840D02*
Y7120160D01*
X11567300Y7340000D02*
X11592700D01*
X11580000Y7327300D02*
Y7352700D01*
X11997300Y7660000D02*
X12022700D01*
X12010000Y7647300D02*
Y7672700D01*
X12001500Y7305800D02*
X12026900D01*
X12014200Y7293100D02*
Y7318500D01*
X13044099Y7553640D02*
X13069501D01*
X13056799Y7540940D02*
Y7566340D01*
X10219840Y7520000D02*
X10240160D01*
X10230000Y7509840D02*
Y7530160D01*
X10029840Y7720000D02*
X10050160D01*
X10040000Y7709840D02*
Y7730160D01*
X11019840Y9190000D02*
X11040160D01*
X11030000Y9179840D02*
Y9200160D01*
X10729840Y9090000D02*
X10750160D01*
X10740000Y9079840D02*
Y9100160D01*
X10529840Y8610000D02*
X10550160D01*
X10540000Y8599840D02*
Y8620160D01*
X10229840Y8590000D02*
X10250160D01*
X10240000Y8579840D02*
Y8600160D01*
X10539840Y8320000D02*
X10560160D01*
X10550000Y8309840D02*
Y8330160D01*
X10239840Y8210000D02*
X10260160D01*
X10250000Y8199840D02*
Y8220160D01*
X10329840Y7910000D02*
X10350160D01*
X10340000Y7899840D02*
Y7920160D01*
X10519840Y7610000D02*
X10540160D01*
X10530000Y7599840D02*
Y7620160D01*
X10649819Y7517999D02*
X10670139D01*
X10659979Y7507839D02*
Y7528159D01*
X10922000Y7523480D02*
X10942320D01*
X10932160Y7513320D02*
Y7533640D01*
X10619840Y7390000D02*
X10640160D01*
X10630000Y7379840D02*
Y7400160D01*
X10019840Y8390000D02*
X10040160D01*
X10030000Y8379840D02*
Y8400160D01*
X8949840Y7610000D02*
X8970160D01*
X8960000Y7599840D02*
Y7620160D01*
X9439840Y7610000D02*
X9460160D01*
X9450000Y7599840D02*
Y7620160D01*
X9739840Y7720000D02*
X9760160D01*
X9750000Y7709840D02*
Y7730160D01*
X10016160Y7817840D02*
X10036480D01*
X10026320Y7807680D02*
Y7828000D01*
X11059840Y7150000D02*
X11080160D01*
X11070000Y7139840D02*
Y7160160D01*
X10729840Y7010000D02*
X10750160D01*
X10740000Y6999840D02*
Y7020160D01*
X10039840Y7100000D02*
X10060160D01*
X10050000Y7089840D02*
Y7110160D01*
X9843940Y7510060D02*
X9864260D01*
X9854100Y7499900D02*
Y7520220D01*
X9539840Y7610000D02*
X9560160D01*
X9550000Y7599840D02*
Y7620160D01*
X9927000Y8018780D02*
X9947320D01*
X9937160Y8008620D02*
Y8028940D01*
X9446260Y8793480D02*
X9466580D01*
X9456420Y8783320D02*
Y8803640D01*
X9141460Y8696960D02*
X9161780D01*
X9151620Y8686800D02*
Y8707120D01*
X9240520Y8806180D02*
X9260840D01*
X9250680Y8796020D02*
Y8816340D01*
X9243940Y8590060D02*
X9264260D01*
X9254100Y8579900D02*
Y8600220D01*
X9664700Y9194800D02*
X9685020D01*
X9674860Y9184640D02*
Y9204960D01*
X9843940Y8290060D02*
X9864260D01*
X9854100Y8279900D02*
Y8300220D01*
X9443940Y8290060D02*
X9464260D01*
X9454100Y8279900D02*
Y8300220D01*
X8937340Y8410000D02*
X8957660D01*
X8947500Y8399840D02*
Y8420160D01*
X9543940Y8590060D02*
X9564260D01*
X9554100Y8579900D02*
Y8600220D01*
X9343940Y8590060D02*
X9364260D01*
X9354100Y8579900D02*
Y8600220D01*
X9043940Y9190060D02*
X9064260D01*
X9054100Y9179900D02*
Y9200220D01*
X8943940Y9190060D02*
X8964260D01*
X8954100Y9179900D02*
Y9200220D01*
X9043940Y8990060D02*
X9064260D01*
X9054100Y8979900D02*
Y9000220D01*
X9043940Y9090060D02*
X9064260D01*
X9054100Y9079900D02*
Y9100220D01*
X9923780Y9799320D02*
X9949180D01*
X9936480Y9786620D02*
Y9812020D01*
X10497820Y9761220D02*
X10523220D01*
X10510520Y9748520D02*
Y9773920D01*
X10500360Y9872980D02*
X10525760D01*
X10513060Y9860280D02*
Y9885680D01*
X9843940Y8890060D02*
X9864260D01*
X9854100Y8879900D02*
Y8900220D01*
X9843940Y8990060D02*
X9864260D01*
X9854100Y8979900D02*
Y9000220D01*
X9543940Y8890060D02*
X9564260D01*
X9554100Y8879900D02*
Y8900220D01*
X6461760Y10942320D02*
X6487160D01*
X6474460Y10929620D02*
Y10955020D01*
X4465320Y8775440D02*
X4490720D01*
X4478020Y8762740D02*
Y8788140D01*
X4465320Y8854180D02*
X4490720D01*
X4478020Y8841480D02*
Y8866880D01*
X4462780Y8689080D02*
X4488180D01*
X4475480Y8676380D02*
Y8701780D01*
X4462780Y8600180D02*
X4488180D01*
X4475480Y8587480D02*
Y8612880D01*
X4546600Y8775440D02*
X4572000D01*
X4559300Y8762740D02*
Y8788140D01*
X4549140Y8854180D02*
X4574540D01*
X4561840Y8841480D02*
Y8866880D01*
X4546600Y8686540D02*
X4572000D01*
X4559300Y8673840D02*
Y8699240D01*
X4546600Y8597640D02*
X4572000D01*
X4559300Y8584940D02*
Y8610340D01*
X10670540Y13108940D02*
X10695940D01*
X10683240Y13096240D02*
Y13121640D01*
X10538460Y13111481D02*
X10563860D01*
X10551160Y13098779D02*
Y13124181D01*
X10823940Y8690060D02*
X10844260D01*
X10834100Y8679900D02*
Y8700220D01*
X12009120Y8018780D02*
X12034520D01*
X12021820Y8006080D02*
Y8031480D01*
X10623940Y8990060D02*
X10644260D01*
X10634100Y8979900D02*
Y9000220D01*
X10523940Y8990060D02*
X10544260D01*
X10534100Y8979900D02*
Y9000220D01*
X10223940Y8990060D02*
X10244260D01*
X10234100Y8979900D02*
Y9000220D01*
X9039860Y8702040D02*
X9060180D01*
X9050020Y8691880D02*
Y8712200D01*
X7665721Y9911919D02*
X7686041D01*
X7675881Y9901759D02*
Y9922079D01*
X8011160Y9663400D02*
X8031480D01*
X8021320Y9653240D02*
Y9673560D01*
X8149840Y9910000D02*
X8170160D01*
X8160000Y9899840D02*
Y9920160D01*
X8011160Y9423400D02*
X8031480D01*
X8021320Y9413240D02*
Y9433560D01*
X6397300Y6730000D02*
X6422700D01*
X6410000Y6717300D02*
Y6742700D01*
X9547860Y8282940D02*
X9568180D01*
X9558020Y8272780D02*
Y8293100D01*
X10012680Y8282940D02*
X10033000D01*
X10022840Y8272780D02*
Y8293100D01*
X9751060Y8285480D02*
X9771380D01*
X9761220Y8275320D02*
Y8295640D01*
X9050020Y8384540D02*
X9070340D01*
X9060180Y8374380D02*
Y8394700D01*
X10495280Y6065520D02*
X10520680D01*
X10507980Y6052820D02*
Y6078220D01*
X10556240Y6301740D02*
X10581640D01*
X10568940Y6289040D02*
Y6314440D01*
X11127740Y6306820D02*
X11153140D01*
X11140440Y6294120D02*
Y6319520D01*
X10363200Y6388100D02*
X10388600D01*
X10375900Y6375400D02*
Y6400800D01*
X9677400Y6327140D02*
X9702800D01*
X9690100Y6314440D02*
Y6339840D01*
X9417300Y10040000D02*
X9442700D01*
X9430000Y10027300D02*
Y10052700D01*
X9057300Y10040000D02*
X9082700D01*
X9070000Y10027300D02*
Y10052700D01*
X9277300Y9790000D02*
X9302700D01*
X9290000Y9777300D02*
Y9802700D01*
X8803640Y9888220D02*
X8829040D01*
X8816340Y9875520D02*
Y9900920D01*
X10601960Y10073640D02*
X10627360D01*
X10614660Y10060940D02*
Y10086340D01*
X9822180Y10005060D02*
X9847580D01*
X9834880Y9992360D02*
Y10017760D01*
X9923780Y9702800D02*
X9949180D01*
X9936480Y9690100D02*
Y9715500D01*
X9923780Y9888220D02*
X9949180D01*
X9936480Y9875520D02*
Y9900920D01*
X9906000Y10116820D02*
X9931400D01*
X9918700Y10104120D02*
Y10129520D01*
X9913620Y10205720D02*
X9939020D01*
X9926320Y10193020D02*
Y10218420D01*
X10502900Y10208260D02*
X10528300D01*
X10515600Y10195560D02*
Y10220960D01*
X10505440Y9974580D02*
X10530840D01*
X10518140Y9961880D02*
Y9987280D01*
X7211060Y5702000D02*
X7236460D01*
X7223760Y5689300D02*
Y5714700D01*
X7208520Y5443220D02*
X7233920D01*
X7221220Y5430520D02*
Y5455920D01*
X6314440Y5257800D02*
X6339840D01*
X6327140Y5245100D02*
Y5270500D01*
X6233160Y5222240D02*
X6258560D01*
X6245860Y5209540D02*
Y5234940D01*
X6352540Y5923280D02*
X6377940D01*
X6365240Y5910580D02*
Y5935980D01*
X6276340Y5923280D02*
X6301740D01*
X6289040Y5910580D02*
Y5935980D01*
X4787100Y4119080D02*
X4812500D01*
X4799800Y4106380D02*
Y4131780D01*
X4337080Y4088100D02*
X4362480D01*
X4349780Y4075400D02*
Y4100800D01*
X4351020Y5016500D02*
X4376420D01*
X4363720Y5003800D02*
Y5029200D01*
X4351020Y4912360D02*
X4376420D01*
X4363720Y4899660D02*
Y4925060D01*
X4351020Y4810760D02*
X4376420D01*
X4363720Y4798060D02*
Y4823460D01*
X4351020Y4716780D02*
X4376420D01*
X4363720Y4704080D02*
Y4729480D01*
X4351020Y4620260D02*
X4376420D01*
X4363720Y4607560D02*
Y4632960D01*
X5166360Y5623560D02*
X5191760D01*
X5179060Y5610860D02*
Y5636260D01*
X5067300Y5621020D02*
X5092700D01*
X5080000Y5608320D02*
Y5633720D01*
X4973320Y5623560D02*
X4998720D01*
X4986020Y5610860D02*
Y5636260D01*
X4876800Y5621020D02*
X4902200D01*
X4889500Y5608320D02*
Y5633720D01*
X4673600Y6690360D02*
X4699000D01*
X4686300Y6677660D02*
Y6703060D01*
X4782820Y6690360D02*
X4808220D01*
X4795520Y6677660D02*
Y6703060D01*
X4899660Y6690360D02*
X4925060D01*
X4912360Y6677660D02*
Y6703060D01*
X5016500Y6690360D02*
X5041900D01*
X5029200Y6677660D02*
Y6703060D01*
X5138420Y6690360D02*
X5163820D01*
X5151120Y6677660D02*
Y6703060D01*
X5138420Y6581140D02*
X5163820D01*
X5151120Y6568440D02*
Y6593840D01*
X5016500Y6581140D02*
X5041900D01*
X5029200Y6568440D02*
Y6593840D01*
X4899660Y6581140D02*
X4925060D01*
X4912360Y6568440D02*
Y6593840D01*
X4782820Y6581140D02*
X4808220D01*
X4795520Y6568440D02*
Y6593840D01*
X4673600Y6581140D02*
X4699000D01*
X4686300Y6568440D02*
Y6593840D01*
X6734010Y5156200D02*
X6751790D01*
X6742900Y5147310D02*
Y5165090D01*
X2766060Y8000740D02*
X2791460D01*
X2778760Y7988040D02*
Y8013440D01*
X2684780Y8003280D02*
X2710180D01*
X2697480Y7990580D02*
Y8015980D01*
X2603500Y8005820D02*
X2628900D01*
X2616200Y7993120D02*
Y8018520D01*
X2529840Y8005820D02*
X2555240D01*
X2542540Y7993120D02*
Y8018520D01*
X2837180Y7553700D02*
X2862580D01*
X2849880Y7541000D02*
Y7566400D01*
X2760980Y7553700D02*
X2786380D01*
X2773680Y7541000D02*
Y7566400D01*
X2684780Y7553700D02*
X2710180D01*
X2697480Y7541000D02*
Y7566400D01*
X2606040Y7553700D02*
X2631440D01*
X2618740Y7541000D02*
Y7566400D01*
X2524760Y7553700D02*
X2550160D01*
X2537460Y7541000D02*
Y7566400D01*
X4305920Y9295520D02*
X4331320D01*
X4318620Y9282820D02*
Y9308220D01*
X2946520Y11894240D02*
X2971920D01*
X2959220Y11881540D02*
Y11906940D01*
X2862700Y11891700D02*
X2888100D01*
X2875400Y11879000D02*
Y11904400D01*
X3007300Y11970000D02*
X3032700D01*
X3020000Y11957300D02*
Y11982700D01*
X2865240Y11967900D02*
X2890640D01*
X2877940Y11955200D02*
Y11980600D01*
X3020180Y12046640D02*
X3045580D01*
X3032880Y12033940D02*
Y12059340D01*
X2943980Y12046640D02*
X2969380D01*
X2956680Y12033940D02*
Y12059340D01*
X2865240Y12044100D02*
X2890640D01*
X2877940Y12031400D02*
Y12056800D01*
X3896360Y7584180D02*
X3921760D01*
X3909060Y7571480D02*
Y7596880D01*
X3187700Y7716260D02*
X3213100D01*
X3200400Y7703560D02*
Y7728960D01*
X3185160Y7858500D02*
X3210560D01*
X3197860Y7845800D02*
Y7871200D01*
X6702260Y5671820D02*
X6727660D01*
X6714960Y5659120D02*
Y5684520D01*
X6704800Y5768340D02*
X6730200D01*
X6717500Y5755640D02*
Y5781040D01*
X6803860Y5768340D02*
X6829260D01*
X6816560Y5755640D02*
Y5781040D01*
X7031190Y4838700D02*
X7048970D01*
X7040080Y4829810D02*
Y4847590D01*
X7381710Y5885180D02*
X7399490D01*
X7390600Y5876290D02*
Y5894070D01*
X7318069Y5892000D02*
X7335849D01*
X7326959Y5883110D02*
Y5900890D01*
X7259790Y5887720D02*
X7277570D01*
X7268680Y5878830D02*
Y5896610D01*
X6436830Y5161280D02*
X6454610D01*
X6445720Y5152390D02*
Y5170170D01*
X6988010Y5145240D02*
X7005790D01*
X6996900Y5136350D02*
Y5154130D01*
X6538430Y6114580D02*
X6556210D01*
X6547320Y6105690D02*
Y6123470D01*
X6988010Y5046980D02*
X7005790D01*
X6996900Y5038090D02*
Y5055870D01*
X6909270Y5041900D02*
X6927050D01*
X6918160Y5033010D02*
Y5050790D01*
X6408890Y5046980D02*
X6426670D01*
X6417780Y5038090D02*
Y5055870D01*
X6213310Y4942840D02*
X6231090D01*
X6222200Y4933950D02*
Y4951730D01*
X6256490Y4942840D02*
X6274270D01*
X6265380Y4933950D02*
Y4951730D01*
X6299670Y4942840D02*
X6317450D01*
X6308560Y4933950D02*
Y4951730D01*
X6492710Y5046180D02*
X6510490D01*
X6501600Y5037290D02*
Y5055070D01*
X6728130Y6045200D02*
X6745910D01*
X6737020Y6036310D02*
Y6054090D01*
X6485090Y6019800D02*
X6502870D01*
X6493980Y6010910D02*
Y6028690D01*
X6281890Y6238240D02*
X6299670D01*
X6290780Y6229350D02*
Y6247130D01*
X6324129Y6237440D02*
X6341909D01*
X6333019Y6228550D02*
Y6246330D01*
X6365710Y6238240D02*
X6383490D01*
X6374600Y6229350D02*
Y6247130D01*
X6606375Y5768340D02*
X6631775D01*
X6619075Y5755640D02*
Y5781040D01*
X6507950Y5768340D02*
X6533350D01*
X6520650Y5755640D02*
Y5781040D01*
X6901650Y5768340D02*
X6927050D01*
X6914350Y5755640D02*
Y5781040D01*
X6803225Y5671820D02*
X6828625D01*
X6815925Y5659120D02*
Y5684520D01*
X6606375Y5671820D02*
X6631775D01*
X6619075Y5659120D02*
Y5684520D01*
X6507950Y5671820D02*
X6533350D01*
X6520650Y5659120D02*
Y5684520D01*
X6901650Y5671820D02*
X6927050D01*
X6914350Y5659120D02*
Y5684520D01*
X6800685Y5473700D02*
X6826085D01*
X6813385Y5461000D02*
Y5486400D01*
X6603835Y5473700D02*
X6629235D01*
X6616535Y5461000D02*
Y5486400D01*
X6505410Y5473700D02*
X6530810D01*
X6518110Y5461000D02*
Y5486400D01*
X6702260Y5473700D02*
X6727660D01*
X6714960Y5461000D02*
Y5486400D01*
X6899110Y5473700D02*
X6924510D01*
X6911810Y5461000D02*
Y5486400D01*
X6800685Y5377180D02*
X6826085D01*
X6813385Y5364480D02*
Y5389880D01*
X6603835Y5377180D02*
X6629235D01*
X6616535Y5364480D02*
Y5389880D01*
X6505410Y5377180D02*
X6530810D01*
X6518110Y5364480D02*
Y5389880D01*
X6702260Y5377180D02*
X6727660D01*
X6714960Y5364480D02*
Y5389880D01*
X6899110Y5377180D02*
X6924510D01*
X6911810Y5364480D02*
Y5389880D01*
X6365710Y4841240D02*
X6383490D01*
X6374600Y4832350D02*
Y4850130D01*
X4694390Y6258560D02*
X4712170D01*
X4703280Y6249670D02*
Y6267450D01*
X6362230Y6350000D02*
X6380010D01*
X6371120Y6341110D02*
Y6358890D01*
X6637490Y4937760D02*
X6655270D01*
X6646380Y4928870D02*
Y4946650D01*
X6761950Y4937760D02*
X6779730D01*
X6770840Y4928870D02*
Y4946650D01*
X6698450Y4904740D02*
X6716230D01*
X6707340Y4895850D02*
Y4913630D01*
X6213310Y5572760D02*
X6231090D01*
X6222200Y5563870D02*
Y5581650D01*
X5717310Y5619180D02*
X5735090D01*
X5726200Y5610290D02*
Y5628070D01*
X5716620Y5462150D02*
X5734400D01*
X5725510Y5453260D02*
Y5471040D01*
X6706000Y6347460D02*
X6723780D01*
X6714890Y6338570D02*
Y6356350D01*
X7275030Y5242560D02*
X7292810D01*
X7283920Y5233670D02*
Y5251450D01*
X7320750Y5242560D02*
X7338530D01*
X7329640Y5233670D02*
Y5251450D01*
X7366470Y5242560D02*
X7384250D01*
X7375360Y5233670D02*
Y5251450D01*
X7457910Y5580380D02*
X7475690D01*
X7466800Y5571490D02*
Y5589270D01*
X7457910Y5626100D02*
X7475690D01*
X7466800Y5617210D02*
Y5634990D01*
X8893340Y9887420D02*
X8918740D01*
X8906040Y9874720D02*
Y9900120D01*
X6017260Y9663416D02*
X6037580D01*
X6027420Y9653256D02*
Y9673576D01*
X9149080Y7018020D02*
X9169400D01*
X9159240Y7007860D02*
Y7028180D01*
X7932420Y8827740D02*
X7952740D01*
X7942580Y8817580D02*
Y8837900D01*
X9575800Y6322060D02*
X9601200D01*
X9588500Y6309360D02*
Y6334760D01*
X9575800Y6241580D02*
X9601200D01*
X9588500Y6228880D02*
Y6254280D01*
X10016160Y7617840D02*
X10036480D01*
X10026320Y7607680D02*
Y7628000D01*
X10116160Y7717840D02*
X10136480D01*
X10126320Y7707680D02*
Y7728000D01*
X9551720Y7817840D02*
X9572040D01*
X9561880Y7807680D02*
Y7828000D01*
X9151720Y8982280D02*
X9172040D01*
X9161880Y8972120D02*
Y8992440D01*
X9143940Y8890060D02*
X9164260D01*
X9154100Y8879900D02*
Y8900220D01*
X9651720Y7717840D02*
X9672040D01*
X9661880Y7707680D02*
Y7728000D01*
X13020039Y8775700D02*
X13045441D01*
X13032739Y8763000D02*
Y8788400D01*
X13020039Y7881620D02*
X13045441D01*
X13032739Y7868920D02*
Y7894320D01*
X11849100Y7899400D02*
X11874500D01*
X11861800Y7886700D02*
Y7912100D01*
X10649840Y8590000D02*
X10670160D01*
X10660000Y8579840D02*
Y8600160D01*
X10416160Y8482280D02*
X10436480D01*
X10426320Y8472120D02*
Y8492440D01*
X10116160Y8382280D02*
X10136480D01*
X10126320Y8372120D02*
Y8392440D01*
X9643940Y8290060D02*
X9664260D01*
X9654100Y8279900D02*
Y8300220D01*
X9479280Y6413500D02*
X9504680D01*
X9491980Y6400800D02*
Y6426200D01*
X9575800Y6400800D02*
X9601200D01*
X9588500Y6388100D02*
Y6413500D01*
X10020300Y8196580D02*
X10040620D01*
X10030460Y8186420D02*
Y8206740D01*
X7665721Y9671919D02*
X7686041D01*
X7675881Y9661759D02*
Y9682079D01*
X9743940Y8590060D02*
X9764260D01*
X9754100Y8579900D02*
Y8600220D01*
X9451720Y8682280D02*
X9472040D01*
X9461880Y8672120D02*
Y8692440D01*
X9852660Y8382000D02*
X9872980D01*
X9862820Y8371840D02*
Y8392160D01*
X9651720Y8382280D02*
X9672040D01*
X9661880Y8372120D02*
Y8392440D01*
X9451720Y8382280D02*
X9472040D01*
X9461880Y8372120D02*
Y8392440D01*
X10182860Y6403340D02*
X10208260D01*
X10195560Y6390640D02*
Y6416040D01*
X11036300Y6518660D02*
X11061700D01*
X11049000Y6505960D02*
Y6531360D01*
X9885680Y6774180D02*
X9911080D01*
X9898380Y6761480D02*
Y6786880D01*
X11656060Y6501100D02*
X11676380D01*
X11666220Y6490940D02*
Y6511260D01*
X11656060Y6261100D02*
X11676380D01*
X11666220Y6250940D02*
Y6271260D01*
X9443940Y8590060D02*
X9464260D01*
X9454100Y8579900D02*
Y8600220D01*
X9141460Y8088500D02*
X9161780D01*
X9151620Y8078340D02*
Y8098660D01*
X12377420Y8610600D02*
X12402820D01*
X12390120Y8597900D02*
Y8623300D01*
X9438640Y13601700D02*
X9464040D01*
X9451340Y13589000D02*
Y13614400D01*
X9812020Y13591541D02*
X9837420D01*
X9824720Y13578841D02*
Y13604240D01*
X9812020Y13294360D02*
X9837420D01*
X9824720Y13281660D02*
Y13307060D01*
X10337800Y13594080D02*
X10363200D01*
X10350500Y13581380D02*
Y13606779D01*
X9956800Y13591541D02*
X9982200D01*
X9969500Y13578841D02*
Y13604240D01*
X10345420Y13291820D02*
X10370820D01*
X10358120Y13279120D02*
Y13304520D01*
X3845560Y4994960D02*
X3870960D01*
X3858260Y4982260D02*
Y5007660D01*
X3713480Y5000040D02*
X3738880D01*
X3726180Y4987340D02*
Y5012740D01*
X12793980Y10025380D02*
X12819380D01*
X12806680Y10012680D02*
Y10038080D01*
X12791440Y9893300D02*
X12816840D01*
X12804140Y9880600D02*
Y9906000D01*
X12793980Y9768840D02*
X12819380D01*
X12806680Y9756140D02*
Y9781540D01*
X6106120Y10408920D02*
X6131520D01*
X6118820Y10396220D02*
Y10421620D01*
X6266120Y10408920D02*
X6291520D01*
X6278820Y10396220D02*
Y10421620D01*
X6506120Y10408920D02*
X6531520D01*
X6518820Y10396220D02*
Y10421620D01*
X7528520Y10413999D02*
X7553920D01*
X7541220Y10401299D02*
Y10426699D01*
X7608520Y10414000D02*
X7633920D01*
X7621220Y10401300D02*
Y10426700D01*
X7688520Y10414000D02*
X7713920D01*
X7701220Y10401300D02*
Y10426700D01*
X7928520Y10414000D02*
X7953920D01*
X7941220Y10401300D02*
Y10426700D01*
X5741760Y10942320D02*
X5767160D01*
X5754460Y10929620D02*
Y10955020D01*
X5821760Y10942320D02*
X5847160D01*
X5834460Y10929620D02*
Y10955020D01*
X7167920Y10937240D02*
X7193320D01*
X7180620Y10924540D02*
Y10949940D01*
X7887920Y10937240D02*
X7913320D01*
X7900620Y10924540D02*
Y10949940D01*
X7247920Y10937240D02*
X7273320D01*
X7260620Y10924540D02*
Y10949940D01*
X7407920Y10937240D02*
X7433320D01*
X7420620Y10924540D02*
Y10949940D01*
X5981760Y10942320D02*
X6007160D01*
X5994460Y10929620D02*
Y10955020D01*
X7450080Y10414000D02*
X7475480D01*
X7462780Y10401300D02*
Y10426700D01*
X7208520Y10414000D02*
X7233920D01*
X7221220Y10401300D02*
Y10426700D01*
X6026120Y10408920D02*
X6051520D01*
X6038820Y10396220D02*
Y10421620D01*
X5786120Y10408920D02*
X5811520D01*
X5798820Y10396220D02*
Y10421620D01*
X12291060Y9502140D02*
X12311380D01*
X12301220Y9491980D02*
Y9512300D01*
X12567920Y9705340D02*
X12588240D01*
X12578080Y9695180D02*
Y9715500D01*
X12475633Y9708727D02*
X12495953D01*
X12485793Y9698567D02*
Y9718887D01*
X12499340Y10248900D02*
X12519660D01*
X12509500Y10238740D02*
Y10259060D01*
X12674600Y10292080D02*
X12694920D01*
X12684760Y10281920D02*
Y10302240D01*
X6186120Y10408920D02*
X6211520D01*
X6198820Y10396220D02*
Y10421620D01*
X5661660Y12357100D02*
X5687060D01*
X5674360Y12344400D02*
Y12369800D01*
X5814060Y12357100D02*
X5839460D01*
X5826760Y12344400D02*
Y12369800D01*
X5966460Y12357100D02*
X5991860D01*
X5979160Y12344400D02*
Y12369800D01*
X6118860Y12357100D02*
X6144260D01*
X6131560Y12344400D02*
Y12369800D01*
X6271260Y12357100D02*
X6296660D01*
X6283960Y12344400D02*
Y12369800D01*
X6423660Y12357100D02*
X6449060D01*
X6436360Y12344400D02*
Y12369800D01*
X6576060Y12357100D02*
X6601460D01*
X6588760Y12344400D02*
Y12369800D01*
X8039100Y12359640D02*
X8064500D01*
X8051800Y12346940D02*
Y12372340D01*
X7886700Y12359640D02*
X7912100D01*
X7899400Y12346940D02*
Y12372340D01*
X7734300Y12359640D02*
X7759700D01*
X7747000Y12346940D02*
Y12372340D01*
X7581900Y12359640D02*
X7607300D01*
X7594600Y12346940D02*
Y12372340D01*
X7429500Y12359640D02*
X7454900D01*
X7442200Y12346940D02*
Y12372340D01*
X7277100Y12359640D02*
X7302500D01*
X7289800Y12346940D02*
Y12372340D01*
X7124700Y12359640D02*
X7150100D01*
X7137400Y12346940D02*
Y12372340D01*
X5227320Y10591800D02*
X5252720D01*
X5240020Y10579100D02*
Y10604500D01*
X5229860Y12029440D02*
X5255260D01*
X5242560Y12016740D02*
Y12042140D01*
X5229860Y11940540D02*
X5255260D01*
X5242560Y11927840D02*
Y11953240D01*
X8450580Y12026900D02*
X8475980D01*
X8463280Y12014200D02*
Y12039600D01*
X8450580Y11943080D02*
X8475980D01*
X8463280Y11930380D02*
Y11955780D01*
X8445500Y10614660D02*
X8470900D01*
X8458200Y10601960D02*
Y10627360D01*
X8445500Y10525760D02*
X8470900D01*
X8458200Y10513060D02*
Y10538460D01*
X3248660Y7487920D02*
X3274060D01*
X3261360Y7475220D02*
Y7500620D01*
X3503040Y12458120D02*
X3528440D01*
X3515740Y12445420D02*
Y12470820D01*
X3921760Y9298940D02*
X3947160D01*
X3934460Y9286240D02*
Y9311640D01*
X4805160Y4023880D02*
X4830560D01*
X4817860Y4011180D02*
Y4036580D01*
X6017260Y9423416D02*
X6037580D01*
X6027420Y9413256D02*
Y9433576D01*
X5227320Y10510520D02*
X5252720D01*
X5240020Y10497820D02*
Y10523220D01*
X10323940Y8490060D02*
X10344260D01*
X10334100Y8479900D02*
Y8500220D01*
X10323940Y8390060D02*
X10344260D01*
X10334100Y8379900D02*
Y8400220D01*
X10323940Y8590060D02*
X10344260D01*
X10334100Y8579900D02*
Y8600220D01*
X7932420Y8587740D02*
X7952740D01*
X7942580Y8577580D02*
Y8597900D01*
X7091680Y7871460D02*
X7117080D01*
X7104380Y7858760D02*
Y7884160D01*
X7091680Y7960360D02*
X7117080D01*
X7104380Y7947660D02*
Y7973060D01*
X7198360Y8257540D02*
X7223760D01*
X7211060Y8244840D02*
Y8270240D01*
X7198360Y8163560D02*
X7223760D01*
X7211060Y8150860D02*
Y8176260D01*
X7284720Y8257540D02*
X7310120D01*
X7297420Y8244840D02*
Y8270240D01*
X3713480Y4657140D02*
X3738880D01*
X3726180Y4644440D02*
Y4669840D01*
X3845560Y4654600D02*
X3870960D01*
X3858260Y4641900D02*
Y4667300D01*
X3658820Y5116880D02*
X3684220D01*
X3671520Y5104180D02*
Y5129580D01*
X10241280Y3939540D02*
X10266680D01*
X10253980Y3926840D02*
Y3952240D01*
X10038080Y3939540D02*
X10063480D01*
X10050780Y3926840D02*
Y3952240D01*
X10139680Y3939540D02*
X10165080D01*
X10152380Y3926840D02*
Y3952240D01*
X10342880Y3939540D02*
X10368280D01*
X10355580Y3926840D02*
Y3952240D01*
X10546080Y3939540D02*
X10571480D01*
X10558780Y3926840D02*
Y3952240D01*
X10647680Y3939540D02*
X10673080D01*
X10660380Y3926840D02*
Y3952240D01*
X9936480Y3939540D02*
X9961880D01*
X9949180Y3926840D02*
Y3952240D01*
X10444480Y3939540D02*
X10469880D01*
X10457180Y3926840D02*
Y3952240D01*
X10749280Y3939540D02*
X10774680D01*
X10761980Y3926840D02*
Y3952240D01*
X6277620Y8096260D02*
X6303020D01*
X6290320Y8083560D02*
Y8108960D01*
X6743700Y6474460D02*
X6769100D01*
X6756400Y6461760D02*
Y6487160D01*
X6179820Y7221220D02*
X6205220D01*
X6192520Y7208520D02*
Y7233920D01*
X3335540Y7205980D02*
X3360940D01*
X3348240Y7193280D02*
Y7218680D01*
X3197860Y8087100D02*
X3223260D01*
X3210560Y8074400D02*
Y8099800D01*
X3362960Y7861040D02*
X3388360D01*
X3375660Y7848340D02*
Y7873740D01*
X3362960Y7718800D02*
X3388360D01*
X3375660Y7706100D02*
Y7731500D01*
X3291840Y8089640D02*
X3317240D01*
X3304540Y8076940D02*
Y8102340D01*
X3274060Y7861040D02*
X3299460D01*
X3286760Y7848340D02*
Y7873740D01*
X3271520Y7716260D02*
X3296920D01*
X3284220Y7703560D02*
Y7728960D01*
X9745980Y8900160D02*
X9766300D01*
X9756140Y8890000D02*
Y8910320D01*
X9542780Y8689340D02*
X9563100D01*
X9552940Y8679180D02*
Y8699500D01*
X5775960Y7500620D02*
X5801360D01*
X5788660Y7487920D02*
Y7513320D01*
X9164320Y12374880D02*
X9184640D01*
X9174480Y12364720D02*
Y12385040D01*
X9474200Y12311380D02*
X9494520D01*
X9484360Y12301220D02*
Y12321540D01*
X9490640Y11852840D02*
X9510960D01*
X9500800Y11842680D02*
Y11863000D01*
X9160440Y11791880D02*
X9180760D01*
X9170600Y11781720D02*
Y11802040D01*
X8898820Y11883320D02*
X8919140D01*
X8908980Y11873160D02*
Y11893480D01*
X8898820Y12282100D02*
X8919140D01*
X8908980Y12271940D02*
Y12292260D01*
X9159240Y10972800D02*
X9179560D01*
X9169400Y10962640D02*
Y10982960D01*
X9483020Y11045120D02*
X9503340D01*
X9493180Y11034960D02*
Y11055280D01*
X9470460Y11520240D02*
X9490780D01*
X9480620Y11510080D02*
Y11530400D01*
X9179560Y11590020D02*
X9199880D01*
X9189720Y11579860D02*
Y11600180D01*
X10632440Y7894320D02*
X10652760D01*
X10642600Y7884160D02*
Y7904480D01*
X10022840Y7513320D02*
X10043160D01*
X10033000Y7503160D02*
Y7523480D01*
X10419080Y8592820D02*
X10439400D01*
X10429240Y8582660D02*
Y8602980D01*
X11531600Y8514080D02*
X11557000D01*
X11544300Y8501380D02*
Y8526780D01*
X10233660Y8404860D02*
X10253980D01*
X10243820Y8394700D02*
Y8415020D01*
X9288780Y10350500D02*
X9314180D01*
X9301480Y10337800D02*
Y10363200D01*
X8783320Y10198100D02*
X8808720D01*
X8796020Y10185400D02*
Y10210800D01*
X10538460Y13652499D02*
X10563860D01*
X10551160Y13639799D02*
Y13665199D01*
X10673080Y13647420D02*
X10698480D01*
X10685780Y13634720D02*
Y13660120D01*
X9551600Y13153320D02*
X9577000D01*
X9564300Y13140620D02*
Y13166020D01*
X10077380Y13150780D02*
X10102780D01*
X10090080Y13138080D02*
Y13163480D01*
X7475220Y8526780D02*
X7500620D01*
X7487920Y8514080D02*
Y8539480D01*
X9033940Y8900060D02*
X9054260D01*
X9044100Y8889900D02*
Y8910220D01*
X3777300Y5240000D02*
X3802700D01*
X3790000Y5227300D02*
Y5252700D01*
X8409840Y7910000D02*
X8430160D01*
X8420000Y7899840D02*
Y7920160D01*
X8559840Y7910000D02*
X8580160D01*
X8570000Y7899840D02*
Y7920160D01*
X8489840Y7910000D02*
X8510160D01*
X8500000Y7899840D02*
Y7920160D01*
X8409840Y7730000D02*
X8430160D01*
X8420000Y7719840D02*
Y7740160D01*
X8479840Y7730000D02*
X8500160D01*
X8490000Y7719840D02*
Y7740160D01*
X8559840Y7730000D02*
X8580160D01*
X8570000Y7719840D02*
Y7740160D01*
X8309840Y8250000D02*
X8330160D01*
X8320000Y8239840D02*
Y8260160D01*
X8489840Y8250000D02*
X8510160D01*
X8500000Y8239840D02*
Y8260160D01*
X5677300Y8470000D02*
X5702700D01*
X5690000Y8457300D02*
Y8482700D01*
X13555980Y9766300D02*
X13576300D01*
X13566141Y9756140D02*
Y9776460D01*
X13558521Y9895840D02*
X13578841D01*
X13568680Y9885680D02*
Y9906000D01*
X13127299Y11080000D02*
X13152699D01*
X13139999Y11067300D02*
Y11092700D01*
X13117300Y10900000D02*
X13142700D01*
X13130000Y10887300D02*
Y10912700D01*
X11379840Y10090000D02*
X11400160D01*
X11390000Y10079840D02*
Y10100160D01*
X8927300Y10640000D02*
X8952700D01*
X8940000Y10627300D02*
Y10652700D01*
X8927300Y10840000D02*
X8952700D01*
X8940000Y10827300D02*
Y10852700D01*
X8937300Y11720000D02*
X8962700D01*
X8950000Y11707300D02*
Y11732700D01*
X8777300Y11840000D02*
X8802700D01*
X8790000Y11827300D02*
Y11852700D01*
X4727300Y10640000D02*
X4752700D01*
X4740000Y10627300D02*
Y10652700D01*
X4727300Y10800000D02*
X4752700D01*
X4740000Y10787300D02*
Y10812700D01*
X4737300Y11930000D02*
X4762700D01*
X4750000Y11917300D02*
Y11942700D01*
X4737300Y11760000D02*
X4762700D01*
X4750000Y11747300D02*
Y11772700D01*
X9149840Y6920000D02*
X9170160D01*
X9160000Y6909840D02*
Y6930160D01*
X8569840Y7420000D02*
X8590160D01*
X8580000Y7409840D02*
Y7430160D01*
X8569840Y7360000D02*
X8590160D01*
X8580000Y7349840D02*
Y7370160D01*
X8669840Y7420000D02*
X8690160D01*
X8680000Y7409840D02*
Y7430160D01*
X8669840Y7360000D02*
X8690160D01*
X8680000Y7349840D02*
Y7370160D01*
X8569840Y7270000D02*
X8590160D01*
X8580000Y7259840D02*
Y7280160D01*
X8569840Y7210000D02*
X8590160D01*
X8580000Y7199840D02*
Y7220160D01*
X6937749Y5996639D02*
X6955529D01*
X6946639Y5987749D02*
Y6005529D01*
X6987749Y5996639D02*
X7005529D01*
X6996639Y5987749D02*
Y6005529D01*
X6991110Y6080000D02*
X7008890D01*
X7000000Y6071110D02*
Y6088890D01*
X6401110Y6120000D02*
X6418890D01*
X6410000Y6111110D02*
Y6128890D01*
X6841110Y6110000D02*
X6858890D01*
X6850000Y6101110D02*
Y6118890D01*
X7076910Y4995800D02*
X7094690D01*
X7085800Y4986910D02*
Y5004690D01*
X9343940Y8990060D02*
X9364260D01*
X9354100Y8979900D02*
Y9000220D01*
X10639840Y8010000D02*
X10660160D01*
X10650000Y7999840D02*
Y8020160D01*
X10229840Y8090000D02*
X10250160D01*
X10240000Y8079840D02*
Y8100160D01*
X10009840Y9350000D02*
X10030160D01*
X10020000Y9339840D02*
Y9360160D01*
X10009840Y9540000D02*
X10030160D01*
X10020000Y9529840D02*
Y9550160D01*
X10069840Y9540000D02*
X10090160D01*
X10080000Y9529840D02*
Y9550160D01*
X10199840Y9540000D02*
X10220160D01*
X10210000Y9529840D02*
Y9550160D01*
X10269840Y9540000D02*
X10290160D01*
X10280000Y9529840D02*
Y9550160D01*
X10349840Y9540000D02*
X10370160D01*
X10360000Y9529840D02*
Y9550160D01*
X10429840Y9540000D02*
X10450160D01*
X10440000Y9529840D02*
Y9550160D01*
X10439840Y9120000D02*
X10460160D01*
X10450000Y9109840D02*
Y9130160D01*
X10189840Y9360000D02*
X10210160D01*
X10200000Y9349840D02*
Y9370160D01*
X11029840Y7690000D02*
X11050160D01*
X11040000Y7679840D02*
Y7700160D01*
X3477300Y10150000D02*
X3502700D01*
X3490000Y10137300D02*
Y10162700D01*
X3847300Y7310000D02*
X3872700D01*
X3860000Y7297300D02*
Y7322700D01*
X3917300Y7310000D02*
X3942700D01*
X3930000Y7297300D02*
Y7322700D01*
X3997300Y7310000D02*
X4022700D01*
X4010000Y7297300D02*
Y7322700D01*
X9529840Y6680000D02*
X9550160D01*
X9540000Y6669840D02*
Y6690160D01*
X9599840Y6680000D02*
X9620160D01*
X9610000Y6669840D02*
Y6690160D01*
X9669840Y6680000D02*
X9690160D01*
X9680000Y6669840D02*
Y6690160D01*
X9599840Y6870000D02*
X9620160D01*
X9610000Y6859840D02*
Y6880160D01*
X9529840Y6870000D02*
X9550160D01*
X9540000Y6859840D02*
Y6880160D01*
X10867300Y6420000D02*
X10892700D01*
X10880000Y6407300D02*
Y6432700D01*
X9017300Y10210000D02*
X9042700D01*
X9030000Y10197300D02*
Y10222700D01*
X11207300Y9860000D02*
X11232700D01*
X11220000Y9847300D02*
Y9872700D01*
X11279840Y9220000D02*
X11300160D01*
X11290000Y9209840D02*
Y9230160D01*
X11279840Y9130000D02*
X11300160D01*
X11290000Y9119840D02*
Y9140160D01*
X11469840Y9220000D02*
X11490160D01*
X11480000Y9209840D02*
Y9230160D01*
X11469840Y9130000D02*
X11490160D01*
X11480000Y9119840D02*
Y9140160D01*
X9626600Y9692640D02*
X9646920D01*
X9636760Y9682480D02*
Y9702800D01*
X10099840Y6620000D02*
X10120160D01*
X10110000Y6609840D02*
Y6630160D01*
X10189840Y6620000D02*
X10210160D01*
X10200000Y6609840D02*
Y6630160D01*
X13377299Y8520000D02*
X13402699D01*
X13389999Y8507300D02*
Y8532700D01*
X13547301Y8330000D02*
X13572701D01*
X13560001Y8317300D02*
Y8342700D01*
X7457300Y7640000D02*
X7482700D01*
X7470000Y7627300D02*
Y7652700D01*
X7257300Y7700000D02*
X7282700D01*
X7270000Y7687300D02*
Y7712700D01*
X7949840Y8180000D02*
X7970160D01*
X7960000Y8169840D02*
Y8190160D01*
X8109840Y8230000D02*
X8130160D01*
X8120000Y8219840D02*
Y8240160D01*
X11459840Y8820000D02*
X11480160D01*
X11470000Y8809840D02*
Y8830160D01*
X9849840Y7610000D02*
X9870160D01*
X9860000Y7599840D02*
Y7620160D01*
X3857300Y9110000D02*
X3882700D01*
X3870000Y9097300D02*
Y9122700D01*
X4821110Y5060000D02*
X4838890D01*
X4830000Y5051110D02*
Y5068890D01*
X6807286Y6319987D02*
X6832686D01*
X6819986Y6307287D02*
Y6332687D01*
X7809840Y7970000D02*
X7830160D01*
X7820000Y7959840D02*
Y7980160D01*
X7932420Y8667740D02*
X7952740D01*
X7942580Y8657580D02*
Y8677900D01*
X6249922Y5621020D02*
X6267702D01*
X6258812Y5612130D02*
Y5629910D01*
X6791096Y5169990D02*
X6808876D01*
X6799986Y5161100D02*
Y5178880D01*
X10019840Y8890000D02*
X10040160D01*
X10030000Y8879840D02*
Y8900160D01*
X9649821Y9089982D02*
X9670141D01*
X9659981Y9079822D02*
Y9100142D01*
X9749820Y8979982D02*
X9770140D01*
X9759980Y8969822D02*
Y8990142D01*
X9869840Y9200160D02*
X9890160D01*
X9880000Y9190000D02*
Y9210320D01*
X8829840Y7940000D02*
X8850160D01*
X8840000Y7929840D02*
Y7950160D01*
X9987300Y6240000D02*
X10012700D01*
X10000000Y6227300D02*
Y6252700D01*
X10019840Y6620000D02*
X10040160D01*
X10030000Y6609840D02*
Y6630160D01*
X10109840Y6910000D02*
X10130160D01*
X10120000Y6899840D02*
Y6920160D01*
X10189840Y6910000D02*
X10210160D01*
X10200000Y6899840D02*
Y6920160D01*
X7487920Y10937240D02*
X7513320D01*
X7500620Y10924540D02*
Y10949940D01*
X9151620Y11130280D02*
X9171940D01*
X9161780Y11120120D02*
Y11140440D01*
X7727920Y10937240D02*
X7753320D01*
X7740620Y10924540D02*
Y10949940D01*
X9151620Y11192256D02*
X9171940D01*
X9161780Y11182096D02*
Y11202416D01*
X7807620Y11220978D02*
X7833020D01*
X7820320Y11208278D02*
Y11233678D01*
X9151620Y11254232D02*
X9171940D01*
X9161780Y11244072D02*
Y11264392D01*
X7647920Y11220978D02*
X7673320D01*
X7660620Y11208278D02*
Y11233678D01*
X9151620Y11316208D02*
X9171940D01*
X9161780Y11306048D02*
Y11326368D01*
X7567920Y11220978D02*
X7593320D01*
X7580620Y11208278D02*
Y11233678D01*
X9151620Y11378184D02*
X9171940D01*
X9161780Y11368024D02*
Y11388344D01*
X7327920Y11220978D02*
X7353320D01*
X7340620Y11208278D02*
Y11233678D01*
X9151620Y11440160D02*
X9171940D01*
X9161780Y11430000D02*
Y11450320D01*
X6061760Y10942320D02*
X6087160D01*
X6074460Y10929620D02*
Y10955020D01*
X9141460Y11943080D02*
X9161780D01*
X9151620Y11932920D02*
Y11953240D01*
X6301760Y10942320D02*
X6327160D01*
X6314460Y10929620D02*
Y10955020D01*
X9141460Y11999976D02*
X9161780D01*
X9151620Y11989816D02*
Y12010136D01*
X6381460Y11226058D02*
X6406860D01*
X6394160Y11213358D02*
Y11238758D01*
X9141460Y12056872D02*
X9161780D01*
X9151620Y12046712D02*
Y12067032D01*
X6221440Y11226058D02*
X6246840D01*
X6234140Y11213358D02*
Y11238758D01*
X9141460Y12113768D02*
X9161780D01*
X9151620Y12103608D02*
Y12123928D01*
X6141760Y11226058D02*
X6167160D01*
X6154460Y11213358D02*
Y11238758D01*
X9141460Y12170664D02*
X9161780D01*
X9151620Y12160504D02*
Y12180824D01*
X5901760Y11226058D02*
X5927160D01*
X5914460Y11213358D02*
Y11238758D01*
X9141460Y12227560D02*
X9161780D01*
X9151620Y12217400D02*
Y12237720D01*
X10269840Y9360000D02*
X10290160D01*
X10280000Y9349840D02*
Y9370160D01*
X9679840Y6870000D02*
X9700160D01*
X9690000Y6859840D02*
Y6880160D01*
X7161096Y5649989D02*
X7178876D01*
X7169986Y5641099D02*
Y5658879D01*
X7108190Y5504180D02*
X7125970D01*
X7117080Y5495290D02*
Y5513070D01*
X7161096Y5539989D02*
X7178876D01*
X7169986Y5531099D02*
Y5548879D01*
X9029840Y11530000D02*
X9050160D01*
X9040000Y11519840D02*
Y11540160D01*
X9029840Y11030000D02*
X9050160D01*
X9040000Y11019840D02*
Y11040160D01*
X9744100Y7610220D02*
X9764420D01*
X9754260Y7600060D02*
Y7620380D01*
X10022840Y7901940D02*
X10043160D01*
X10033000Y7891780D02*
Y7912100D01*
X9149840Y7507460D02*
X9170160D01*
X9160000Y7497300D02*
Y7517620D01*
X10835640Y7302500D02*
X10855960D01*
X10845800Y7292340D02*
Y7312660D01*
X9739820Y7809984D02*
X9760140D01*
X9749980Y7799824D02*
Y7820144D01*
X10129840Y7810500D02*
X10150160D01*
X10140000Y7800340D02*
Y7820660D01*
X9849820Y7819984D02*
X9870140D01*
X9859980Y7809824D02*
Y7830144D01*
X9639821Y7819984D02*
X9660141D01*
X9649981Y7809824D02*
Y7830144D01*
X9439821Y7819984D02*
X9460141D01*
X9449981Y7809824D02*
Y7830144D01*
X9849820Y7909984D02*
X9870140D01*
X9859980Y7899824D02*
Y7920144D01*
X9729821Y7889984D02*
X9750141D01*
X9739981Y7879824D02*
Y7900144D01*
X10319840Y7710000D02*
X10340160D01*
X10330000Y7699840D02*
Y7720160D01*
X11629840Y8510000D02*
X11650160D01*
X11640000Y8499840D02*
Y8520160D01*
X11971020Y8747760D02*
X11991340D01*
X11981180Y8737600D02*
Y8757920D01*
X11021060Y7520940D02*
X11041380D01*
X11031220Y7510780D02*
Y7531100D01*
X11359840Y8060000D02*
X11380160D01*
X11370000Y8049840D02*
Y8070160D01*
X12383347Y9502140D02*
X12403667D01*
X12393507Y9491980D02*
Y9512300D01*
X10116160Y7617840D02*
X10136480D01*
X10126320Y7607680D02*
Y7628000D01*
X12475633Y9502140D02*
X12495953D01*
X12485793Y9491980D02*
Y9512300D01*
X10116160Y7517840D02*
X10136480D01*
X10126320Y7507680D02*
Y7528000D01*
X12567920Y9502140D02*
X12588240D01*
X12578080Y9491980D02*
Y9512300D01*
X10029820Y7389985D02*
X10050140D01*
X10039980Y7379825D02*
Y7400145D01*
X10923380Y7670877D02*
X10943700D01*
X10933540Y7660717D02*
Y7681037D01*
X10829818Y8109984D02*
X10850138D01*
X10839978Y8099824D02*
Y8120144D01*
X11279840Y9310000D02*
X11300160D01*
X11290000Y9299840D02*
Y9320160D01*
X10009820Y8989982D02*
X10030140D01*
X10019980Y8979822D02*
Y9000142D01*
X10129820Y8999982D02*
X10150140D01*
X10139980Y8989822D02*
Y9010142D01*
X10319819Y8779982D02*
X10340139D01*
X10329979Y8769822D02*
Y8790142D01*
X8829822Y8899982D02*
X8850142D01*
X8839982Y8889822D02*
Y8910142D01*
X9539821Y8379983D02*
X9560141D01*
X9549981Y8369823D02*
Y8390143D01*
X9331960Y7806100D02*
X9352280D01*
X9342120Y7795940D02*
Y7816260D01*
X9443720Y8196580D02*
X9464040D01*
X9453880Y8186420D02*
Y8206740D01*
X9429840Y7900000D02*
X9450160D01*
X9440000Y7889840D02*
Y7910160D01*
X8519840Y8600000D02*
X8540160D01*
X8530000Y8589840D02*
Y8610160D01*
X8679840Y8610000D02*
X8700160D01*
X8690000Y8599840D02*
Y8620160D01*
X7571740Y7901940D02*
X7597140D01*
X7584440Y7889240D02*
Y7914640D01*
X9729821Y8199984D02*
X9750141D01*
X9739981Y8189824D02*
Y8210144D01*
X9856000Y8195640D02*
X9876320D01*
X9866160Y8185480D02*
Y8205800D01*
X10019820Y8029984D02*
X10040140D01*
X10029980Y8019824D02*
Y8040144D01*
X9849840Y7713700D02*
X9870160D01*
X9860000Y7703540D02*
Y7723860D01*
X9239821Y8679983D02*
X9260142D01*
X9249981Y8669823D02*
Y8690143D01*
X9439840Y7710000D02*
X9460160D01*
X9450000Y7699840D02*
Y7720160D01*
X9539840Y7710000D02*
X9560160D01*
X9550000Y7699840D02*
Y7720160D01*
X10525760Y8191500D02*
X10546080D01*
X10535920Y8181340D02*
Y8201660D01*
X9339840Y7910000D02*
X9360160D01*
X9350000Y7899840D02*
Y7920160D01*
X10843880Y7410000D02*
X10864200D01*
X10854040Y7399840D02*
Y7420160D01*
X10821636Y7711796D02*
X10841956D01*
X10831796Y7701636D02*
Y7721956D01*
X9349821Y8889982D02*
X9370141D01*
X9359981Y8879822D02*
Y8900142D01*
X11809840Y8110000D02*
X11830160D01*
X11820000Y8099840D02*
Y8120160D01*
X9643940Y8190060D02*
X9664260D01*
X9654100Y8179900D02*
Y8200220D01*
X9543940Y8190060D02*
X9564260D01*
X9554100Y8179900D02*
Y8200220D01*
X9151720Y8382280D02*
X9172040D01*
X9161880Y8372120D02*
Y8392440D01*
X13659840Y8460000D02*
X13680161D01*
X13670000Y8449840D02*
Y8470160D01*
X9151720Y8282280D02*
X9172040D01*
X9161880Y8272120D02*
Y8292440D01*
X13659840Y8380000D02*
X13680161D01*
X13670000Y8369840D02*
Y8390160D01*
X9639840Y7900000D02*
X9660160D01*
X9650000Y7889840D02*
Y7910160D01*
X9539840Y7900000D02*
X9560160D01*
X9550000Y7889840D02*
Y7910160D01*
X9336046Y8309887D02*
X9356366D01*
X9346206Y8299727D02*
Y8320047D01*
X9438904Y8019380D02*
X9459224D01*
X9449064Y8009220D02*
Y8029540D01*
X9739820Y8089984D02*
X9760140D01*
X9749980Y8079824D02*
Y8100144D01*
X9639821Y8019984D02*
X9660141D01*
X9649981Y8009824D02*
Y8030144D01*
X9549821Y8019984D02*
X9570141D01*
X9559981Y8009824D02*
Y8030144D01*
X10929620Y7993380D02*
X10949940D01*
X10939780Y7983220D02*
Y8003540D01*
X10849840Y8010000D02*
X10870160D01*
X10860000Y7999840D02*
Y8020160D01*
X11259840Y8060000D02*
X11280160D01*
X11270000Y8049840D02*
Y8070160D01*
X11359840Y8000000D02*
X11380160D01*
X11370000Y7989840D02*
Y8010160D01*
X11259840Y8000000D02*
X11280160D01*
X11270000Y7989840D02*
Y8010160D01*
X16556841Y10152900D02*
X16577161D01*
X16567000Y10142740D02*
Y10163060D01*
X16556841Y10229100D02*
X16577161D01*
X16567000Y10218940D02*
Y10239260D01*
X9251720Y8182280D02*
X9272040D01*
X9261880Y8172120D02*
Y8192440D01*
X9151720Y8182280D02*
X9172040D01*
X9161880Y8172120D02*
Y8192440D01*
X16357600Y9817100D02*
X16377921D01*
X16367760Y9806940D02*
Y9827260D01*
X9849840Y7410000D02*
X9870160D01*
X9860000Y7399840D02*
Y7420160D01*
X9643880Y7610000D02*
X9664200D01*
X9654040Y7599840D02*
Y7620160D01*
X9740900Y7510780D02*
X9761220D01*
X9751060Y7500620D02*
Y7520940D01*
X9339840Y7410000D02*
X9360160D01*
X9350000Y7399840D02*
Y7420160D01*
X9517380Y7109460D02*
X9537700D01*
X9527540Y7099300D02*
Y7119620D01*
X9644380Y7510780D02*
X9664700D01*
X9654540Y7500620D02*
Y7520940D01*
X9558020Y7523480D02*
X9578340D01*
X9568180Y7513320D02*
Y7533640D01*
X9641840Y7306516D02*
X9662160D01*
X9652000Y7296356D02*
Y7316676D01*
X9728200Y7018020D02*
X9748520D01*
X9738360Y7007860D02*
Y7028180D01*
X10019840Y6910000D02*
X10040160D01*
X10030000Y6899840D02*
Y6920160D01*
X9151720Y7317840D02*
X9172040D01*
X9161880Y7307680D02*
Y7328000D01*
X16686380Y6541020D02*
X16706700D01*
X16696539Y6530860D02*
Y6551180D01*
X9229840Y7420000D02*
X9250160D01*
X9240000Y7409840D02*
Y7430160D01*
X11656060Y6341100D02*
X11676380D01*
X11666220Y6330940D02*
Y6351260D01*
X16686380Y6474980D02*
X16706700D01*
X16696539Y6464820D02*
Y6485140D01*
X9331960Y7216140D02*
X9352280D01*
X9342120Y7205980D02*
Y7226300D01*
X11036300Y6446520D02*
X11061700D01*
X11049000Y6433820D02*
Y6459220D01*
X11656060Y6421100D02*
X11676380D01*
X11666220Y6410940D02*
Y6431260D01*
X14218919Y7038320D02*
X14239240D01*
X14229080Y7028160D02*
Y7048480D01*
X14218919Y6798320D02*
X14239240D01*
X14229080Y6788160D02*
Y6808480D01*
X12819839Y5790000D02*
X12840160D01*
X12830000Y5779840D02*
Y5800160D01*
X9136380Y7106920D02*
X9156700D01*
X9146540Y7096760D02*
Y7117080D01*
X14218919Y6958320D02*
X14239240D01*
X14229080Y6948160D02*
Y6968480D01*
X9141460Y7200900D02*
X9161780D01*
X9151620Y7190740D02*
Y7211060D01*
X14218919Y6878320D02*
X14239240D01*
X14229080Y6868160D02*
Y6888480D01*
X9419821Y7509985D02*
X9440141D01*
X9429981Y7499825D02*
Y7520145D01*
X16302840Y8882900D02*
X16323160D01*
X16313000Y8872740D02*
Y8893060D01*
X9329821Y7499985D02*
X9350141D01*
X9339981Y7489825D02*
Y7510145D01*
X16302840Y8959100D02*
X16323160D01*
X16313000Y8948940D02*
Y8969260D01*
X9439201Y7209155D02*
X9459521D01*
X9449361Y7198995D02*
Y7219315D01*
X16556841Y9009900D02*
X16577161D01*
X16567000Y8999740D02*
Y9020060D01*
X9429821Y7109986D02*
X9450141D01*
X9439981Y7099826D02*
Y7120146D01*
X16556841Y9086100D02*
X16577161D01*
X16567000Y9075940D02*
Y9096260D01*
X16556841Y8705100D02*
X16577161D01*
X16567000Y8694940D02*
Y8715260D01*
X9249840Y7310000D02*
X9270160D01*
X9260000Y7299840D02*
Y7320160D01*
X16556841Y8628900D02*
X16577161D01*
X16567000Y8618740D02*
Y8639060D01*
X9351720Y7317840D02*
X9372040D01*
X9361880Y7307680D02*
Y7328000D01*
X8669840Y7210000D02*
X8690160D01*
X8680000Y7199840D02*
Y7220160D01*
X8669840Y7270000D02*
X8690160D01*
X8680000Y7259840D02*
Y7280160D01*
X16183459Y6977900D02*
X16203780D01*
X16193620Y6967740D02*
Y6988060D01*
X16183459Y7054100D02*
X16203780D01*
X16193620Y7043940D02*
Y7064260D01*
X9029840Y8100000D02*
X9050160D01*
X9040000Y8089840D02*
Y8110160D01*
X9049840Y7880000D02*
X9070160D01*
X9060000Y7869840D02*
Y7890160D01*
X16175841Y6347980D02*
X16196159D01*
X16186000Y6337820D02*
Y6358140D01*
X16175841Y6668020D02*
X16196159D01*
X16186000Y6657860D02*
Y6678180D01*
X7659840Y7920000D02*
X7680160D01*
X7670000Y7909840D02*
Y7930160D01*
X7608570Y6812280D02*
X7626350D01*
X7617460Y6803390D02*
Y6821170D01*
X15261110Y3779520D02*
X15278889D01*
X15270000Y3770630D02*
Y3788410D01*
X16105278Y5242734D02*
X16125598D01*
X16115437Y5232574D02*
Y5252894D01*
X16559380Y6855980D02*
X16579700D01*
X16569540Y6845820D02*
Y6866140D01*
X16175841Y6855980D02*
X16196159D01*
X16186000Y6845820D02*
Y6866140D01*
X16748759Y6002020D02*
X16769080D01*
X16758920Y5991860D02*
Y6012180D01*
X16817340Y6187440D02*
X16837660D01*
X16827499Y6177280D02*
Y6197600D01*
X16301720Y6126480D02*
X16322040D01*
X16311880Y6116320D02*
Y6136640D01*
X16556841Y9771900D02*
X16577161D01*
X16567000Y9761740D02*
Y9782060D01*
X9729821Y7409985D02*
X9750141D01*
X9739981Y7399825D02*
Y7420145D01*
X16556841Y9848100D02*
X16577161D01*
X16567000Y9837940D02*
Y9858260D01*
X9619821Y7409985D02*
X9640141D01*
X9629981Y7399825D02*
Y7420145D01*
X10329840Y7220000D02*
X10350160D01*
X10340000Y7209840D02*
Y7230160D01*
X11339840Y7110000D02*
X11360160D01*
X11350000Y7099840D02*
Y7120160D01*
X11339840Y7170000D02*
X11360160D01*
X11350000Y7159840D02*
Y7180160D01*
X11239840Y7110000D02*
X11260160D01*
X11250000Y7099840D02*
Y7120160D01*
X9728200Y7310120D02*
X9748520D01*
X9738360Y7299960D02*
Y7320280D01*
X16556841Y9390900D02*
X16577161D01*
X16567000Y9380740D02*
Y9401060D01*
X9729840Y7220000D02*
X9750160D01*
X9740000Y7209840D02*
Y7230160D01*
X16556841Y9467100D02*
X16577161D01*
X16567000Y9456940D02*
Y9477260D01*
X9527540Y7396480D02*
X9547860D01*
X9537700Y7386320D02*
Y7406640D01*
X16302840Y9263900D02*
X16323160D01*
X16313000Y9253740D02*
Y9274060D01*
X9522460Y7307580D02*
X9542780D01*
X9532620Y7297420D02*
Y7317740D01*
X16302840Y9340100D02*
X16323160D01*
X16313000Y9329940D02*
Y9350260D01*
X14618739Y13052020D02*
X14644141D01*
X14631441Y13039320D02*
Y13064720D01*
X14808200Y13050520D02*
X14833600D01*
X14820900Y13037820D02*
Y13063220D01*
X12787860Y13066800D02*
X12813260D01*
X12800560Y13054100D02*
Y13079500D01*
X12975819Y13066800D02*
X13001221D01*
X12988519Y13054100D02*
Y13079500D01*
X11252200Y8648700D02*
X11277600D01*
X11264900Y8636000D02*
Y8661400D01*
X11034440Y8702040D02*
X11054760D01*
X11044600Y8691880D02*
Y8712200D01*
X11119440Y8702040D02*
X11139760D01*
X11129600Y8691880D02*
Y8712200D01*
X10839840Y8420000D02*
X10860160D01*
X10850000Y8409840D02*
Y8430160D01*
X10734040Y8491220D02*
X10754360D01*
X10744200Y8481060D02*
Y8501380D01*
X15096719Y13036320D02*
X15122121D01*
X15109419Y13023621D02*
Y13049020D01*
X15151100Y13101320D02*
X15176500D01*
X15163800Y13088620D02*
Y13114020D01*
X17208501Y13027660D02*
X17233900D01*
X17221201Y13014960D02*
Y13040359D01*
X16865601Y13050520D02*
X16891000D01*
X16878300Y13037820D02*
Y13063220D01*
X9852660Y8580120D02*
X9872980D01*
X9862820Y8569960D02*
Y8590280D01*
X11339840Y8900000D02*
X11360160D01*
X11350000Y8889840D02*
Y8910160D01*
X11239840Y8900000D02*
X11260160D01*
X11250000Y8889840D02*
Y8910160D01*
X11339840Y8840000D02*
X11360160D01*
X11350000Y8829840D02*
Y8850160D01*
X11239840Y8840000D02*
X11260160D01*
X11250000Y8829840D02*
Y8850160D01*
X10828020Y8783320D02*
X10848340D01*
X10838180Y8773160D02*
Y8793480D01*
X9839960Y8696960D02*
X9860280D01*
X9850120Y8686800D02*
Y8707120D01*
X10015220Y8587740D02*
X10035540D01*
X10025380Y8577580D02*
Y8597900D01*
X10022840Y8783320D02*
X10043160D01*
X10033000Y8773160D02*
Y8793480D01*
X9931904Y8587740D02*
X9952224D01*
X9942064Y8577580D02*
Y8597900D01*
X9895840Y8704580D02*
X9916160D01*
X9906000Y8694420D02*
Y8714740D01*
X10119840Y8890000D02*
X10140160D01*
X10130000Y8879840D02*
Y8900160D01*
X10231120Y9093200D02*
X10251440D01*
X10241280Y9083040D02*
Y9103360D01*
X10426700Y8981440D02*
X10447020D01*
X10436860Y8971280D02*
Y8991600D01*
X10307320Y8989060D02*
X10327640D01*
X10317480Y8978900D02*
Y8999220D01*
X10359840Y9360000D02*
X10380160D01*
X10370000Y9349840D02*
Y9370160D01*
X10419840Y9360000D02*
X10440160D01*
X10430000Y9349840D02*
Y9370160D01*
X10538460Y8803640D02*
X10558780D01*
X10548620Y8793480D02*
Y8813800D01*
X10178060Y8889500D02*
X10198380D01*
X10188220Y8879340D02*
Y8899660D01*
X15323820Y12532360D02*
X15344141D01*
X15333980Y12522200D02*
Y12542520D01*
X10236200Y8802320D02*
X10256520D01*
X10246360Y8792160D02*
Y8812480D01*
X15405463Y12532723D02*
X15425783D01*
X15415623Y12522563D02*
Y12542883D01*
X10736580Y8892540D02*
X10756900D01*
X10746740Y8882380D02*
Y8902700D01*
X15484566Y12533085D02*
X15504884D01*
X15494725Y12522925D02*
Y12543245D01*
X10830560Y8991600D02*
X10850880D01*
X10840720Y8981440D02*
Y9001760D01*
X15566208Y12530908D02*
X15586528D01*
X15576369Y12520748D02*
Y12541068D01*
X10429240Y8808720D02*
X10449560D01*
X10439400Y8798560D02*
Y8818880D01*
X15725140Y12529820D02*
X15745461D01*
X15735300Y12519660D02*
Y12539980D01*
X10431780Y8712200D02*
X10452100D01*
X10441940Y8702040D02*
Y8722360D01*
X15650391Y12528731D02*
X15670711D01*
X15660551Y12518571D02*
Y12538891D01*
X10142220Y8796020D02*
X10162540D01*
X10152380Y8785860D02*
Y8806180D01*
X15892780Y12534901D02*
X15913100D01*
X15902939Y12524741D02*
Y12545061D01*
X15811501Y12537440D02*
X15831821D01*
X15821660Y12527280D02*
Y12547600D01*
X9049822Y7109986D02*
X9070142D01*
X9059982Y7099826D02*
Y7120146D01*
X16302840Y8197100D02*
X16323160D01*
X16313000Y8186940D02*
Y8207260D01*
X16302840Y8120900D02*
X16323160D01*
X16313000Y8110740D02*
Y8131060D01*
X9051720Y7217840D02*
X9072040D01*
X9061880Y7207680D02*
Y7228000D01*
X12819839Y5710000D02*
X12840160D01*
X12830000Y5699840D02*
Y5720160D01*
X9151720Y7617840D02*
X9172040D01*
X9161880Y7607680D02*
Y7628000D01*
X16683839Y6287020D02*
X16704160D01*
X16694000Y6276860D02*
Y6297180D01*
X12819839Y5630000D02*
X12840160D01*
X12830000Y5619840D02*
Y5640160D01*
X9151720Y7717840D02*
X9172040D01*
X9161880Y7707680D02*
Y7728000D01*
X16683839Y6220980D02*
X16704160D01*
X16694000Y6210820D02*
Y6231140D01*
X8929822Y7409985D02*
X8950142D01*
X8939982Y7399825D02*
Y7420145D01*
X16556841Y8324100D02*
X16577161D01*
X16567000Y8313940D02*
Y8334260D01*
X9019822Y7509985D02*
X9040142D01*
X9029982Y7499825D02*
Y7520145D01*
X16556841Y8247900D02*
X16577161D01*
X16567000Y8237740D02*
Y8258060D01*
X8951720Y7717840D02*
X8972040D01*
X8961880Y7707680D02*
Y7728000D01*
X16302840Y7816100D02*
X16323160D01*
X16313000Y7805940D02*
Y7826260D01*
X9051720Y7717840D02*
X9072040D01*
X9061880Y7707680D02*
Y7728000D01*
X16302840Y7739900D02*
X16323160D01*
X16313000Y7729740D02*
Y7750060D01*
X9233140Y7599260D02*
X9253460D01*
X9243300Y7589100D02*
Y7609420D01*
X15229840Y5080000D02*
X15250160D01*
X15239999Y5069840D02*
Y5090160D01*
X16559380Y6728980D02*
X16579700D01*
X16569540Y6718820D02*
Y6739140D01*
X9233140Y7499260D02*
X9253460D01*
X9243300Y7489100D02*
Y7509420D01*
X15229840Y5000000D02*
X15250160D01*
X15239999Y4989840D02*
Y5010160D01*
X16559380Y6795020D02*
X16579700D01*
X16569540Y6784860D02*
Y6805180D01*
X9129822Y7909984D02*
X9150142D01*
X9139982Y7899824D02*
Y7920144D01*
X16556841Y7943100D02*
X16577161D01*
X16567000Y7932940D02*
Y7953260D01*
X9219500Y7914500D02*
X9239820D01*
X9229660Y7904340D02*
Y7924660D01*
X16556841Y7866900D02*
X16577161D01*
X16567000Y7856740D02*
Y7877060D01*
X8956040Y8008620D02*
X8976360D01*
X8966200Y7998460D02*
Y8018780D01*
X16302840Y7435100D02*
X16323160D01*
X16313000Y7424940D02*
Y7445260D01*
X9052560Y8018780D02*
X9072880D01*
X9062720Y8008620D02*
Y8028940D01*
X16302840Y7358900D02*
X16323160D01*
X16313000Y7348740D02*
Y7369060D01*
X16810840Y6850900D02*
X16831160D01*
X16821001Y6840740D02*
Y6861060D01*
X9051720Y8182280D02*
X9072040D01*
X9061880Y8172120D02*
Y8192440D01*
X13982700Y4898380D02*
X14003020D01*
X13992860Y4888220D02*
Y4908540D01*
X16810840Y6927100D02*
X16831160D01*
X16821001Y6916940D02*
Y6937260D01*
X9051720Y8282280D02*
X9072040D01*
X9061880Y8272120D02*
Y8292440D01*
X13982700Y4818380D02*
X14003020D01*
X13992860Y4808220D02*
Y4828540D01*
X16556841Y7485900D02*
X16577161D01*
X16567000Y7475740D02*
Y7496060D01*
X8939822Y8219984D02*
X8960142D01*
X8949982Y8209824D02*
Y8230144D01*
X13528040Y4819640D02*
X13548360D01*
X13538200Y4809480D02*
Y4829800D01*
X16556841Y7562100D02*
X16577161D01*
X16567000Y7551940D02*
Y7572260D01*
X8939840Y8320000D02*
X8960160D01*
X8950000Y8309840D02*
Y8330160D01*
X13528040Y4739640D02*
X13548360D01*
X13538200Y4729480D02*
Y4749800D01*
X16556841Y7104900D02*
X16577161D01*
X16567000Y7094740D02*
Y7115060D01*
X14610080Y4697720D02*
X14630400D01*
X14620239Y4687560D02*
Y4707880D01*
X8948380Y8485620D02*
X8968700D01*
X8958540Y8475460D02*
Y8495780D01*
X16556841Y7181100D02*
X16577161D01*
X16567000Y7170940D02*
Y7191260D01*
X8948380Y8585620D02*
X8968700D01*
X8958540Y8575460D02*
Y8595780D01*
X14610080Y4617720D02*
X14630400D01*
X14620239Y4607560D02*
Y4627880D01*
X14949840Y4490000D02*
X14970160D01*
X14960001Y4479840D02*
Y4500160D01*
X8948380Y8985620D02*
X8968700D01*
X8958540Y8975460D02*
Y8995780D01*
X14949840Y4410000D02*
X14970160D01*
X14960001Y4399840D02*
Y4420160D01*
X8948380Y9085620D02*
X8968700D01*
X8958540Y9075460D02*
Y9095780D01*
X9449840Y8890000D02*
X9470160D01*
X9460000Y8879840D02*
Y8900160D01*
X16176340Y6220480D02*
X16196660D01*
X16186501Y6210320D02*
Y6230640D01*
X9449840Y8990000D02*
X9470160D01*
X9460000Y8979840D02*
Y9000160D01*
X16175841Y6287020D02*
X16196159D01*
X16186000Y6276860D02*
Y6297180D01*
X9651720Y8882280D02*
X9672040D01*
X9661880Y8872120D02*
Y8892440D01*
X16175841Y6728980D02*
X16196159D01*
X16186000Y6718820D02*
Y6739140D01*
X9651720Y8982280D02*
X9672040D01*
X9661880Y8972120D02*
Y8992440D01*
X16175841Y6795020D02*
X16196159D01*
X16186000Y6784860D02*
Y6805180D01*
X9751720Y8682280D02*
X9772040D01*
X9761880Y8672120D02*
Y8692440D01*
X16179840Y5245000D02*
X16200160D01*
X16189999Y5234840D02*
Y5255160D01*
X9751720Y8782280D02*
X9772040D01*
X9761880Y8772120D02*
Y8792440D01*
X16259840Y5245000D02*
X16280161D01*
X16270000Y5234840D02*
Y5255160D01*
X9151720Y8582280D02*
X9172040D01*
X9161880Y8572120D02*
Y8592440D01*
X16297760Y8578100D02*
X16318080D01*
X16307919Y8567940D02*
Y8588260D01*
X9151720Y8482280D02*
X9172040D01*
X9161880Y8472120D02*
Y8492440D01*
X16297760Y8501900D02*
X16318080D01*
X16307919Y8491740D02*
Y8512060D01*
X9217660Y9580880D02*
X9237980D01*
X9227820Y9570720D02*
Y9591040D01*
%TF.MD5,d890a0057888498fc71cfc11d7580596*%
M02*
