G04 Layer_Physical_Order=2*
G04 Layer_Color=128*
%FSLAX43Y43*%
%MOMM*%
%TF.FileFunction,Copper,L2,Inr,Plane*%
%TF.Part,Single*%
G01*
G75*
%TA.AperFunction,NonConductor*%
%ADD94C,0.051*%
%TA.AperFunction,ComponentPad*%
%ADD95C,1.270*%
%ADD96O,3.683X1.508*%
%TA.AperFunction,ViaPad*%
%ADD97C,3.508*%
%TA.AperFunction,ComponentPad*%
%ADD98C,2.058*%
%ADD99C,1.778*%
%ADD100C,2.358*%
%ADD101C,1.508*%
%ADD102C,1.408*%
%ADD103C,1.458*%
%TA.AperFunction,ViaPad*%
%ADD104C,0.711*%
%ADD105C,0.762*%
%ADD106C,0.686*%
G36*
X146300Y90200D02*
X145700D01*
Y91800D01*
X146300D01*
Y90200D01*
D02*
G37*
G36*
X148200D02*
X147700D01*
Y91800D01*
X148200D01*
Y90200D01*
D02*
G37*
G36*
X142200Y90300D02*
X141600D01*
X141400Y90500D01*
Y91800D01*
X142200D01*
Y90300D01*
D02*
G37*
G36*
X50254Y0D02*
X50000D01*
Y254D01*
X50254D01*
Y0D01*
D02*
G37*
G36*
X213005Y53160D02*
X211481D01*
Y55039D01*
X213005D01*
Y53160D01*
D02*
G37*
G36*
X129019Y86309D02*
X127495D01*
Y87960D01*
X129019D01*
Y86309D01*
D02*
G37*
G36*
X144200Y90300D02*
X143600D01*
X143300Y90600D01*
Y91800D01*
X144200D01*
Y90300D01*
D02*
G37*
G36*
X129172Y101651D02*
X127267D01*
Y103632D01*
X129172D01*
Y101651D01*
D02*
G37*
G36*
X229360Y110538D02*
X228090D01*
Y111935D01*
X229360D01*
Y110538D01*
D02*
G37*
G36*
Y112062D02*
X228090D01*
Y118005D01*
X229360D01*
Y112062D01*
D02*
G37*
G36*
X110122Y101651D02*
X108217D01*
Y103632D01*
X110122D01*
Y101651D01*
D02*
G37*
G36*
X114935D02*
X113030D01*
Y103632D01*
X114935D01*
Y101651D01*
D02*
G37*
G36*
X124384D02*
X122479D01*
Y103632D01*
X124384D01*
Y101651D01*
D02*
G37*
D94*
X228700Y36576D02*
X228700Y141910D01*
X67805Y36576D02*
X228700D01*
X67805D02*
X67805Y141910D01*
X228700Y141910D01*
D95*
X204711Y129159D02*
D03*
X207251D02*
D03*
X209791D02*
D03*
X212331D02*
D03*
X217411D02*
D03*
X204711Y131699D02*
D03*
X207251D02*
D03*
X209791D02*
D03*
X212331D02*
D03*
X217411D02*
D03*
X181851Y129159D02*
D03*
X184391D02*
D03*
X186931D02*
D03*
X189471D02*
D03*
X194551D02*
D03*
X181851Y131699D02*
D03*
X184391D02*
D03*
X186931D02*
D03*
X189471D02*
D03*
X194551D02*
D03*
X89167Y83739D02*
D03*
Y80239D02*
D03*
D96*
X79883Y129199D02*
D03*
D97*
X225285Y139040D02*
D03*
X70345D02*
D03*
X70345Y39040D02*
D03*
X225285D02*
D03*
D98*
X120823Y106738D02*
D03*
X130423D02*
D03*
X106573Y106738D02*
D03*
X116173D02*
D03*
D99*
X211352Y58209D02*
D03*
X214400Y112591D02*
D03*
D100*
X91656Y129134D02*
D03*
Y124534D02*
D03*
D101*
X176242Y113487D02*
D03*
D102*
X175242Y112487D02*
D03*
X177242D02*
D03*
X179242D02*
D03*
X181242D02*
D03*
X183242D02*
D03*
X185242D02*
D03*
X187242D02*
D03*
Y114487D02*
D03*
X118529Y79121D02*
D03*
X161658Y122377D02*
D03*
X164198D02*
D03*
X161658Y119837D02*
D03*
X164198D02*
D03*
X161658Y117297D02*
D03*
X164198D02*
D03*
X161658Y114757D02*
D03*
X164198D02*
D03*
X161658Y112217D02*
D03*
X164198D02*
D03*
X75197Y122301D02*
D03*
D103*
X130423Y100538D02*
D03*
X125623D02*
D03*
X111373D02*
D03*
X116173D02*
D03*
X132753Y114838D02*
D03*
X104253D02*
D03*
D104*
X143619Y76178D02*
D03*
X167400Y81100D02*
D03*
X143619Y77178D02*
D03*
X166600Y81100D02*
D03*
X213079Y85019D02*
D03*
X141619Y84823D02*
D03*
X213079Y85781D02*
D03*
X141619Y85823D02*
D03*
X212700Y52450D02*
D03*
X147619Y87823D02*
D03*
X211900Y52450D02*
D03*
X147619Y86823D02*
D03*
X211860Y67950D02*
D03*
X146619Y89823D02*
D03*
X211860Y67290D02*
D03*
X146619Y88823D02*
D03*
X211860Y62870D02*
D03*
X144600Y89900D02*
D03*
X211865Y62205D02*
D03*
X144600Y88900D02*
D03*
X139585Y90856D02*
D03*
X199600Y44100D02*
D03*
X139585Y89856D02*
D03*
X199600Y44900D02*
D03*
X196202Y46177D02*
D03*
X139585Y85856D02*
D03*
X215670Y71811D02*
D03*
X139585Y84856D02*
D03*
X196202Y46977D02*
D03*
X215670Y71049D02*
D03*
X185382Y47396D02*
D03*
X139500Y83200D02*
D03*
X215670Y75621D02*
D03*
X185382Y48196D02*
D03*
X139500Y82200D02*
D03*
X215670Y74859D02*
D03*
X189929Y48184D02*
D03*
X140619Y82823D02*
D03*
X218210Y69271D02*
D03*
X189929Y48984D02*
D03*
X140619Y81823D02*
D03*
X218210Y68509D02*
D03*
X213130Y73589D02*
D03*
X140627Y80188D02*
D03*
X213130Y74351D02*
D03*
X139662Y80086D02*
D03*
X215670Y78669D02*
D03*
X142297Y79145D02*
D03*
X215670Y79431D02*
D03*
X141400Y79100D02*
D03*
X215695Y67950D02*
D03*
X202400Y50000D02*
D03*
X142433Y74993D02*
D03*
X215695Y67290D02*
D03*
X202400Y50800D02*
D03*
X142433Y75993D02*
D03*
X213130Y77399D02*
D03*
X140619Y77178D02*
D03*
X213130Y78161D02*
D03*
X139619Y77178D02*
D03*
X215670Y82479D02*
D03*
X140300Y75100D02*
D03*
X215670Y83241D02*
D03*
X139400Y74100D02*
D03*
X216940Y62210D02*
D03*
X141619Y77178D02*
D03*
X178300Y56300D02*
D03*
X216940Y62870D02*
D03*
X141619Y76178D02*
D03*
X178300Y57100D02*
D03*
X208217Y125374D02*
D03*
X209029Y125349D02*
D03*
X151524Y87960D02*
D03*
X206606Y125287D02*
D03*
X154419Y87122D02*
D03*
X207353Y125298D02*
D03*
X154394Y88087D02*
D03*
X205764Y125309D02*
D03*
X158407Y89916D02*
D03*
X204947Y125331D02*
D03*
X157467Y88925D02*
D03*
X204156Y125327D02*
D03*
X152464Y88023D02*
D03*
X203340Y125324D02*
D03*
X151882Y88895D02*
D03*
X155486Y88036D02*
D03*
X153175Y89891D02*
D03*
X152413Y90932D02*
D03*
X149421Y85877D02*
D03*
X163500Y88400D02*
D03*
Y89000D02*
D03*
X148628Y85801D02*
D03*
X157442Y84912D02*
D03*
X160446Y87020D02*
D03*
X213130Y93401D02*
D03*
X145326Y73076D02*
D03*
X213130Y92639D02*
D03*
X145377Y73965D02*
D03*
X215670Y94671D02*
D03*
X147400Y72200D02*
D03*
X215670Y93909D02*
D03*
X147384Y73101D02*
D03*
X162500Y71100D02*
D03*
X146300Y74100D02*
D03*
X215670Y98481D02*
D03*
X147400Y74100D02*
D03*
X215670Y97719D02*
D03*
X213119Y61265D02*
D03*
X218275Y61874D02*
D03*
X217589Y60020D02*
D03*
X211936Y70541D02*
D03*
Y69779D02*
D03*
X136800Y72700D02*
D03*
Y72100D02*
D03*
X143619Y73178D02*
D03*
X215670Y86289D02*
D03*
X142600Y73100D02*
D03*
X215670Y87051D02*
D03*
Y90861D02*
D03*
X144400Y71100D02*
D03*
X215670Y90099D02*
D03*
X144494Y72092D02*
D03*
X213130Y89591D02*
D03*
X143400Y75000D02*
D03*
X213130Y88829D02*
D03*
X144300Y75100D02*
D03*
X192291Y68783D02*
D03*
X141516Y72009D02*
D03*
X192291Y69583D02*
D03*
X141465Y71069D02*
D03*
X166662Y64211D02*
D03*
X216965Y64750D02*
D03*
X166662Y63411D02*
D03*
X142400Y74200D02*
D03*
X216965Y65410D02*
D03*
X141619Y73178D02*
D03*
X150300Y69100D02*
D03*
X145682Y75235D02*
D03*
X146545Y75108D02*
D03*
X145275Y71095D02*
D03*
X143500Y74100D02*
D03*
X147511Y75108D02*
D03*
X213678Y98171D02*
D03*
X141619Y81823D02*
D03*
X142619D02*
D03*
X215670Y102291D02*
D03*
Y101529D02*
D03*
X163700Y80000D02*
D03*
X158600Y80100D02*
D03*
X159398Y79934D02*
D03*
X145600Y80200D02*
D03*
X147500Y80900D02*
D03*
X143600Y88900D02*
D03*
X155359Y81915D02*
D03*
X144500Y77100D02*
D03*
X148600Y77137D02*
D03*
X150300Y80300D02*
D03*
X135300Y86000D02*
D03*
X144400Y79000D02*
D03*
X144539Y81966D02*
D03*
X143421Y78061D02*
D03*
X138400Y89000D02*
D03*
X153300Y87800D02*
D03*
X151400Y90000D02*
D03*
X158400Y81100D02*
D03*
X159335Y76709D02*
D03*
X150400Y73900D02*
D03*
X175781Y95021D02*
D03*
X151263Y75178D02*
D03*
X174858Y95021D02*
D03*
X151263Y76178D02*
D03*
X173935Y95021D02*
D03*
X163700Y80600D02*
D03*
X160312Y75209D02*
D03*
X169812Y87478D02*
D03*
X153300Y77100D02*
D03*
X148600Y79100D02*
D03*
X147500Y78100D02*
D03*
X158458Y73025D02*
D03*
X150330Y79019D02*
D03*
X147543Y76102D02*
D03*
X140400Y110300D02*
D03*
Y115300D02*
D03*
X146900Y68700D02*
D03*
X152800Y93600D02*
D03*
X141516Y122276D02*
D03*
Y121707D02*
D03*
Y121138D02*
D03*
Y120569D02*
D03*
Y120000D02*
D03*
Y119431D02*
D03*
X141618Y114402D02*
D03*
Y113782D02*
D03*
Y113162D02*
D03*
Y112542D02*
D03*
Y111923D02*
D03*
Y111303D02*
D03*
X152000Y69100D02*
D03*
X151200D02*
D03*
X138400Y79400D02*
D03*
X146600Y90900D02*
D03*
X129426Y86677D02*
D03*
X128200Y79700D02*
D03*
X129600Y81800D02*
D03*
X164800Y91300D02*
D03*
Y92200D02*
D03*
X145400Y68700D02*
D03*
X146100D02*
D03*
X160400Y76900D02*
D03*
X152000Y93600D02*
D03*
X154500Y91200D02*
D03*
X154400Y95400D02*
D03*
X153600D02*
D03*
X150200Y93500D02*
D03*
X152400Y80900D02*
D03*
X135800Y73600D02*
D03*
Y74200D02*
D03*
X135000Y82500D02*
D03*
Y79100D02*
D03*
X135700D02*
D03*
X134200D02*
D03*
X152438Y84049D02*
D03*
X154292Y85928D02*
D03*
X150330Y75133D02*
D03*
X156426Y78943D02*
D03*
X141897Y115900D02*
D03*
X144806Y115202D02*
D03*
X144932Y110451D02*
D03*
X141694Y109728D02*
D03*
X139090Y122821D02*
D03*
Y118833D02*
D03*
X141706Y117919D02*
D03*
X145008Y118528D02*
D03*
X144844Y123114D02*
D03*
X141745Y123749D02*
D03*
X145529Y86893D02*
D03*
X147561Y89002D02*
D03*
X153341Y85901D02*
D03*
Y83901D02*
D03*
Y84901D02*
D03*
X176848Y102921D02*
D03*
X175095Y102489D02*
D03*
X174858Y97087D02*
D03*
X175781Y97053D02*
D03*
X173012Y95021D02*
D03*
X141516Y80885D02*
D03*
X144619Y83823D02*
D03*
X146619D02*
D03*
X148628Y83820D02*
D03*
X144619Y86823D02*
D03*
X150305Y81966D02*
D03*
X151263Y83823D02*
D03*
X154263Y84823D02*
D03*
X156600Y85900D02*
D03*
X146619Y77178D02*
D03*
X141619Y89823D02*
D03*
X145619Y78178D02*
D03*
X151263Y77178D02*
D03*
X150263Y76178D02*
D03*
X141592Y70180D02*
D03*
X140602Y83845D02*
D03*
X147612Y82855D02*
D03*
X150228Y82829D02*
D03*
X145580D02*
D03*
X140500Y87020D02*
D03*
X152341Y89901D02*
D03*
X155341D02*
D03*
X156341D02*
D03*
X158341Y86901D02*
D03*
X145500Y76100D02*
D03*
X148541Y75101D02*
D03*
X150263Y78178D02*
D03*
X139600Y76100D02*
D03*
X159322Y75235D02*
D03*
X156600Y75180D02*
D03*
X156400Y71100D02*
D03*
X157400D02*
D03*
X158400D02*
D03*
X159400D02*
D03*
X158300Y82900D02*
D03*
X162500Y73600D02*
D03*
Y74100D02*
D03*
Y76900D02*
D03*
Y76300D02*
D03*
X162700Y83400D02*
D03*
Y82800D02*
D03*
X137000Y84400D02*
D03*
Y83800D02*
D03*
X135012Y81523D02*
D03*
X138200Y82100D02*
D03*
Y81600D02*
D03*
X135000Y83300D02*
D03*
X162500Y71700D02*
D03*
X142507Y94132D02*
D03*
X144300Y94100D02*
D03*
X144900D02*
D03*
X129426Y87477D02*
D03*
X143609Y87823D02*
D03*
Y86823D02*
D03*
X164800Y93100D02*
D03*
X151000Y93500D02*
D03*
X148619Y90823D02*
D03*
X157341Y89901D02*
D03*
X144619Y90823D02*
D03*
X145700Y89800D02*
D03*
X145656Y87884D02*
D03*
X146619Y86823D02*
D03*
X150228Y84836D02*
D03*
X147619Y84823D02*
D03*
X145631Y84785D02*
D03*
X143600Y84900D02*
D03*
X210590Y108895D02*
D03*
X213130Y110165D02*
D03*
Y107625D02*
D03*
X210590Y106355D02*
D03*
X213130Y105085D02*
D03*
X210590Y103815D02*
D03*
X213130Y100005D02*
D03*
X218210Y110165D02*
D03*
X215670Y108895D02*
D03*
X213130Y102545D02*
D03*
X141078Y73895D02*
D03*
X135300Y87400D02*
D03*
X139478Y87954D02*
D03*
X136600Y90300D02*
D03*
Y89800D02*
D03*
X140400Y72900D02*
D03*
X158500Y89200D02*
D03*
X156400Y89000D02*
D03*
X159271Y86868D02*
D03*
X151321Y87071D02*
D03*
X142619Y90823D02*
D03*
X140449Y94310D02*
D03*
X110274Y95034D02*
D03*
Y95834D02*
D03*
X130213Y95834D02*
D03*
X126759Y97536D02*
D03*
X131600Y97500D02*
D03*
X126759Y98336D02*
D03*
X131600Y98300D02*
D03*
X130213Y95034D02*
D03*
X141619Y83823D02*
D03*
X186700Y84600D02*
D03*
X141619Y82823D02*
D03*
X186700Y83800D02*
D03*
X148628Y81915D02*
D03*
X140619Y72178D02*
D03*
X213130Y81209D02*
D03*
X140600Y71100D02*
D03*
X213130Y81971D02*
D03*
D105*
X218783Y130505D02*
D03*
X201638Y131013D02*
D03*
X162649Y86487D02*
D03*
X179885Y130668D02*
D03*
X196314Y130520D02*
D03*
X160490Y64465D02*
D03*
X125844Y79019D02*
D03*
X109145Y112261D02*
D03*
X111545D02*
D03*
X112341D02*
D03*
X113942D02*
D03*
X113145Y109423D02*
D03*
X110745D02*
D03*
X123406Y112210D02*
D03*
X125806D02*
D03*
X126606D02*
D03*
X128203D02*
D03*
X127406Y109372D02*
D03*
X125006D02*
D03*
X150000Y62400D02*
D03*
X118200Y63200D02*
D03*
X124700Y76400D02*
D03*
X183900Y85200D02*
D03*
X162200Y98600D02*
D03*
X181400Y110800D02*
D03*
X150901Y131508D02*
D03*
X145643Y131533D02*
D03*
X137960Y101981D02*
D03*
X143015Y103505D02*
D03*
X165443Y85141D02*
D03*
X107887Y75006D02*
D03*
X82868Y78610D02*
D03*
X83757D02*
D03*
X83482Y72060D02*
D03*
X111925Y72212D02*
D03*
X117564Y64745D02*
D03*
X112903Y80963D02*
D03*
X157620Y39395D02*
D03*
X154572D02*
D03*
X149492D02*
D03*
X156604D02*
D03*
X155588D02*
D03*
X153556D02*
D03*
X151524D02*
D03*
X150508D02*
D03*
X152540D02*
D03*
X86715Y51169D02*
D03*
X88583Y46546D02*
D03*
X87262Y46571D02*
D03*
X122974Y82575D02*
D03*
X122111Y81636D02*
D03*
Y82575D02*
D03*
X121044Y79604D02*
D03*
Y78715D02*
D03*
X102400Y105105D02*
D03*
X98179Y40239D02*
D03*
X89345Y92989D02*
D03*
X85157Y124581D02*
D03*
X82614Y74879D02*
D03*
X134582Y105258D02*
D03*
Y106147D02*
D03*
X134633Y119431D02*
D03*
Y120269D02*
D03*
X102426Y119405D02*
D03*
Y120294D02*
D03*
X102400Y105918D02*
D03*
X111988Y104089D02*
D03*
X126212Y104140D02*
D03*
X125412Y104140D02*
D03*
X111188Y104089D02*
D03*
X178067Y97688D02*
D03*
X178041Y98933D02*
D03*
X178067Y100254D02*
D03*
X87262Y50000D02*
D03*
X88583Y49950D02*
D03*
X153581Y132918D02*
D03*
X149695Y135915D02*
D03*
X153505Y135941D02*
D03*
X148247Y132944D02*
D03*
Y135915D02*
D03*
X144513Y136017D02*
D03*
X173901Y86106D02*
D03*
X148984Y67742D02*
D03*
X160490Y65187D02*
D03*
X145885Y64008D02*
D03*
X168618Y78994D02*
D03*
X180327Y78816D02*
D03*
Y87757D02*
D03*
X145885Y62416D02*
D03*
Y63221D02*
D03*
X139060Y98874D02*
D03*
X81979Y78585D02*
D03*
X89091Y75842D02*
D03*
X78779Y120441D02*
D03*
X79567Y120466D02*
D03*
X80329D02*
D03*
X78779Y119679D02*
D03*
X80200Y119700D02*
D03*
X78754Y118917D02*
D03*
X79592Y118942D02*
D03*
X93186Y92955D02*
D03*
X75375Y75537D02*
D03*
X76187D02*
D03*
X76975D02*
D03*
X77737D02*
D03*
X78499D02*
D03*
X96863Y65811D02*
D03*
X97955D02*
D03*
X99124D02*
D03*
X100292D02*
D03*
X101511D02*
D03*
Y66904D02*
D03*
X100292D02*
D03*
X99124D02*
D03*
X97955D02*
D03*
X96863D02*
D03*
X93637Y46203D02*
D03*
Y47168D02*
D03*
Y48108D02*
D03*
Y49124D02*
D03*
Y50165D02*
D03*
X93498Y40881D02*
D03*
X112890Y59233D02*
D03*
X113652D02*
D03*
X112459Y52222D02*
D03*
X113271Y52578D02*
D03*
X122212Y54432D02*
D03*
X122238Y57020D02*
D03*
X155181Y99746D02*
D03*
X155156Y102083D02*
D03*
X149263Y102057D02*
D03*
X149187Y101168D02*
D03*
X149365Y98882D02*
D03*
Y97028D02*
D03*
X138163Y98882D02*
D03*
X155512Y131115D02*
D03*
X156832Y131089D02*
D03*
X95593Y85976D02*
D03*
Y86865D02*
D03*
X95618Y88542D02*
D03*
X95593Y87754D02*
D03*
X94755Y86002D02*
D03*
Y86891D02*
D03*
X94780Y88542D02*
D03*
Y87754D02*
D03*
X155131Y98730D02*
D03*
X155105Y97612D02*
D03*
X149365Y97993D02*
D03*
X180568Y75536D02*
D03*
X170100Y76600D02*
D03*
X165800Y73400D02*
D03*
Y74300D02*
D03*
X167000Y69900D02*
D03*
X89268Y52476D02*
D03*
X181851Y100838D02*
D03*
X181877Y99568D02*
D03*
X181801Y98298D02*
D03*
X181928Y97028D02*
D03*
D106*
X202700Y37795D02*
D03*
X126175Y68123D02*
D03*
X121700Y55400D02*
D03*
X121171Y55042D02*
D03*
X121700Y56500D02*
D03*
X118000Y51700D02*
D03*
X112588Y56210D02*
D03*
X98300Y50600D02*
D03*
X120858Y49958D02*
D03*
X118500Y61100D02*
D03*
X107255Y54621D02*
D03*
X107262Y56192D02*
D03*
X112222Y55728D02*
D03*
X113711Y63500D02*
D03*
X97033Y62586D02*
D03*
X113746Y48412D02*
D03*
X114940Y60198D02*
D03*
X115016Y50462D02*
D03*
X119182Y50419D02*
D03*
X115473Y61146D02*
D03*
X119969Y51452D02*
D03*
X114457Y51613D02*
D03*
X120401Y48387D02*
D03*
X117429Y51562D02*
D03*
X98900Y50600D02*
D03*
X99400D02*
D03*
X99900D02*
D03*
X118000Y60700D02*
D03*
X123000Y44700D02*
D03*
X123500D02*
D03*
X123000Y44000D02*
D03*
X123500D02*
D03*
X128064Y56083D02*
D03*
%TF.MD5,b086d77258573fa5dd8a0d425fc0a202*%
M02*
